<svg xmlns="http://www.w3.org/2000/svg"  width="1470" height="395.79999999999995" viewBox="0 0 1470 395.79999999999995"><path stroke-width="1" fill="none" stroke="#000000" stroke-dasharray="none" d="M70 166.5L274.50351679999994 166.5"></path><path stroke-width="1" fill="none" stroke="#000000" stroke-dasharray="none" d="M70 176.5L274.50351679999994 176.5"></path><path stroke-width="1" fill="none" stroke="#000000" stroke-dasharray="none" d="M70 186.5L274.50351679999994 186.5"></path><path stroke-width="1" fill="none" stroke="#000000" stroke-dasharray="none" d="M70 196.5L274.50351679999994 196.5"></path><path stroke-width="1" fill="none" stroke="#000000" stroke-dasharray="none" d="M70 206.5L274.50351679999994 206.5"></path><rect stroke-width="0.3" fill="#000000" stroke="#000000" stroke-dasharray="none" x="274.50351679999994" y="166" width="1" height="41"></rect><g class="vf-clef"><path stroke-width="0.3" fill="#000000" stroke="none" stroke-dasharray="none" d="M75 196.5M89.0544 153.3288C89.112 153.3,89.1696 153.3,89.256 153.3C89.6016 153.3,90.0048 153.588,90.5808 154.308C92.9136 156.9864,94.5552 161.652,94.5552 165.4536C94.5552 165.7416,94.4976 165.972,94.4976 166.26C94.2384 170.7816,92.3952 174.4968,88.7376 178.0104L87.7584 178.9608L87.4128 179.3352L87.4128 179.4504L87.6144 180.3144L87.9312 181.8696L88.248 183.3096C88.68 185.268,88.8528 186.276,88.8528 186.276C88.8528 186.276,88.8528 186.276,88.8528 186.276C88.8528 186.276,88.968 186.276,89.112 186.2472C89.256 186.2472,89.7168 186.1896,90.2064 186.1896C90.55199999999999 186.1896,90.8976 186.2472,91.0704 186.2472C95.1312 186.7656,98.2704 189.6744,99.1632 193.764C99.336 194.4264,99.39359999999999 195.1464,99.39359999999999 195.8664C99.39359999999999 199.7544,97.0608 203.4696,93.1728 205.2264C92.94239999999999 205.3704,92.856 205.3992,92.856 205.3992L92.856 205.428C92.856 205.428,93.0288 206.0904,93.1728 206.8392L93.6048 209.028L94.008 210.7848C94.2384 211.908,94.3536 212.7144,94.3536 213.4344C94.3536 214.06799999999998,94.2672 214.644,94.1232 215.3064C93.144 219.3096,89.6592 221.7,86.0304 221.7C84.2448 221.7,82.4016 221.124,80.7888 219.828C79.3488 218.6184,78.7152 217.524,78.7152 216.084C78.7152 213.5496,80.76 211.764,82.8912 211.764C83.64 211.764,84.3888 211.99439999999998,85.1088 212.4264C86.3184 213.2616,86.8656 214.5288,86.8656 215.7672C86.8656 217.668,85.5408 219.54,83.2656 219.684L83.0352 219.684L83.208 219.79919999999998C84.1584 220.2024,85.1088 220.404,86.0304 220.404C88.3632 220.404,90.55199999999999 219.2232,91.8768 217.1784C92.62559999999999 216.0264,93.0288 214.6728,93.0288 213.3192C93.0288 212.8008,92.94239999999999 212.2824,92.8272 211.7064C92.8272 211.6488,92.74080000000001 211.188,92.62559999999999 210.756C91.992 207.6456,91.6176 205.8312,91.6176 205.8312C91.6176 205.8312,91.6176 205.8312,91.6176 205.8312C91.56 205.8312,91.4448 205.8312,91.3584 205.8888C91.0704 205.9464,90.4656 206.0904,90.2064 206.1192C89.5728 206.2056,88.968 206.2344,88.392 206.2344C82.74719999999999 206.2344,77.5056 202.4328,75.6912 196.8168C75.2304 195.3192,74.9712 193.8216,74.9712 192.324C74.9712 189.3288,75.9216 186.3912,77.7648 183.7704C79.7808 180.9192,81.7968 178.4712,84.2736 175.9368L85.13759999999999 175.044L84.936 173.9784L84.5616 172.2216L84.072 169.9752C83.928 169.14,83.7552 168.3336,83.7264 168.1608C83.5824 167.2104,83.496 166.2888,83.496 165.3384C83.496 161.7096,84.6768 158.22480000000002,86.8944 155.4312C87.5568 154.5672,88.7376 153.4152,89.0544 153.3288M90.8112 159.0312C90.7536 159.0312,90.6672 159.0312,90.5808 159.0312C89.4 159.0312,87.8736 160.1256,86.8368 161.7384C85.7712 163.32240000000002,85.224 165.4248,85.224 167.5848C85.224 168.1608,85.25280000000001 168.7656,85.3392 169.3704C85.4256 169.8024,85.45439999999999 170.0904,85.6848 171.12720000000002L86.088 172.9416C86.2032 173.4888,86.28960000000001 173.92079999999999,86.28960000000001 173.9784L86.28960000000001 173.9784C86.3184 173.9784,87.2112 172.9992,87.4992 172.6536C90.3792 169.3992,92.1072 165.972,92.4816 162.948C92.5104 162.66,92.5104 162.4296,92.5104 162.1416C92.5104 161.24880000000002,92.3952 160.38479999999998,92.1936 159.924C91.9632 159.4632,91.4448 159.0888,90.8112 159.0312M86.4624 181.2936C86.4048 180.8904,86.3184 180.5736,86.3184 180.516C86.3184 180.516,86.3184 180.516,86.28960000000001 180.516C86.232 180.516,84.9936 181.956,84.1296 182.964C82.6608 184.7496,81.1056 186.8808,80.472 187.9176C79.2624 189.9624,78.6576 192.2376,78.6576 194.484C78.6576 195.9528,78.9456 197.364,79.464 198.7176C81.0192 202.7208,84.5904 205.2264,88.4784 205.2264C88.9392 205.2264,89.4576 205.1976,89.9472 205.1112C90.5808 204.996,91.3584 204.7656,91.3584 204.6792L91.3584 204.6792C91.3584 204.6792,91.3008 204.3912,91.2144 204.0744L90.3792 199.956L89.7168 196.8744L89.2848 194.7432L88.824 192.6696C88.5936 191.4312,88.5072 191.1144,88.5072 191.1144C88.5072 191.1144,88.5072 191.0856,88.4784 191.0856C88.3056 191.0856,87.384 191.5464,86.9808 191.8344C85.4832 192.8712,84.7056 194.5128,84.7056 196.1256C84.7056 197.652,85.45439999999999 199.1784,86.8944 200.0712C87.2112 200.2728,87.3264 200.4456,87.3264 200.6472C87.3264 200.676,87.3264 200.7624,87.3264 200.7912C87.2688 201.1368,87.0672 201.2808,86.7792 201.2808C86.664 201.2808,86.52 201.252,86.3472 201.1656C83.6976 200.0136,81.912 197.2776,81.912 194.2824L81.912 194.2824C81.912 190.8264,84.072 187.8312,87.384 186.6504L87.5568 186.5928L87.2688 185.1528L86.4624 181.2936M90.7824 190.9128C90.55199999999999 190.88400000000001,90.3216 190.88400000000001,90.1488 190.88400000000001C90.0912 190.88400000000001,90.0048 190.88400000000001,89.9472 190.88400000000001L89.8032 190.88400000000001L89.9184 191.4024L90.5232 194.2248L90.8976 196.068L91.3008 197.8824L92.1072 201.8856L92.424 203.412C92.5392 203.8152,92.5968 204.1608,92.62559999999999 204.1608C92.62559999999999 204.1608,92.62559999999999 204.1608,92.62559999999999 204.1608C92.6544 204.1608,93.144 203.8728,93.4608 203.6424C94.9296 202.6056,96.024 200.9928,96.4272 199.3224C96.5712 198.7752,96.6288 198.1992,96.6288 197.652C96.6288 194.3112,94.152 191.2872,90.7824 190.9128"></path></g><path stroke-width="0.3" fill="#000000" stroke="none" stroke-dasharray="none" d="M116.8352 186.5M121.8464 167.8376C121.904 167.8376,122.1056 167.8376,122.336 167.8376C122.71039999999999 167.8376,123.1712 167.8376,123.3152 167.8376C125.9648 168.1256,128.0384 169.5656,128.4128 171.4376C128.4704 171.6104,128.4704 171.812,128.4704 172.0136C128.4704 172.244,128.4704 172.4456,128.4128 172.5608C128.0384 173.9144,126.45439999999999 175.1528,124.4384 175.7576C124.2944 175.8152,124.2368 175.8152,124.2368 175.844C124.2368 175.844,124.2368 175.844,124.2368 175.844C124.2656 175.844,124.352 175.8728,124.4384 175.8728C127.1744 176.8808,128.6144 178.8104,128.6144 180.6824C128.6144 182.1224,127.80799999999999 183.5048,125.9936 184.4264C124.928 185.0024,123.7472 185.2616,122.5952 185.2616C120.6944 185.2616,118.8224 184.5416,117.4976 183.2456C117.008 182.7848,116.8352 182.2088,116.8352 181.6328C116.8352 180.452,117.6704 179.3288,119.0528 179.3288L119.0528 179.3288C120.4352 179.3288,121.2128 180.3944,121.2128 181.4888C121.2128 182.324,120.7808 183.1592,119.8016 183.5624C119.8016 183.5624,119.8016 183.5624,119.8016 183.5624C119.8016 183.5912,120.6368 183.764,121.0688 183.7928C121.1264 183.7928,121.184 183.7928,121.2416 183.7928C123.1424 183.7928,124.4672 182.4392,124.4672 180.5672C124.4672 180.3656,124.4672 180.1928,124.4384 179.9912C124.1216 177.8888,122.71039999999999 176.3336,121.0688 176.276C120.6656 176.2472,120.464 176.0744,120.464 175.8152C120.464 175.4696,120.6368 175.3256,121.0688 175.3256C122.48 175.2392,123.6896 174.2888,124.1504 172.8488C124.2656 172.5608,124.2944 172.2728,124.2944 172.0424C124.2944 170.8328,123.4016 169.7384,122.0768 169.4504C121.8752 169.364,121.616 169.364,121.328 169.364C120.9248 169.364,120.5504 169.3928,120.1472 169.4504L120.032 169.4792L120.1472 169.5656C120.896 169.9688,121.2128 170.68880000000001,121.2128 171.4088C121.2128 172.3592,120.5792 173.3096,119.4848 173.5688C119.3408 173.5976,119.168 173.5976,119.024 173.5976C117.7568 173.5976,116.8064 172.4456,116.8064 171.236C116.8064 170.7176,116.9792 170.1992,117.4112 169.7672C118.4192 168.6728,119.9456 168.0392,121.8464 167.8376M122.71039999999999 186.5288L122.7392 186.5288L122.6528 186.5288L122.71039999999999 186.5288M122.71039999999999 167.1176L122.7392 167.1176L122.6528 167.1176L122.71039999999999 167.1176"></path><path stroke-width="0.3" fill="#000000" stroke="none" stroke-dasharray="none" d="M116 206.5M121.0112 188.1544C121.04 188.1256,121.4432 188.1256,122.6816 188.1256C123.056 188.1256,123.4592 188.1256,123.9776 188.1256L126.8864 188.1256L126.9728 188.212C127.1168 188.29840000000002,127.2032 188.4424,127.2032 188.5576C127.2032 188.7304,127.1168 188.8456,127.0016 188.9608C126.9728 189.0472,126.7136 189.2776,126.5408 189.5368L125.0144 191.2936L123.056 193.5112L122.0192 194.692L120.464 196.4776L118.4192 198.8104C118.0736 199.2424,117.6992 199.588,117.6992 199.588C117.6992 199.588,117.6992 199.588,117.6992 199.588C117.6992 199.6456,117.9584 199.6456,120.3488 199.6456L122.9696 199.6456L122.9696 197.7736C122.9696 195.8728,122.9696 195.844,122.9984 195.8152C123.056 195.7288,123.3152 195.412,124.3232 194.2312L124.7264 193.7992L125.1296 193.3672L125.7344 192.5896L126.368 191.9272L126.6848 191.524C126.8 191.3512,126.9728 191.3224,127.1168 191.3224C127.28960000000001 191.3224,127.4336 191.4088,127.52 191.5528C127.5488 191.6392,127.5488 191.6968,127.5488 193.828C127.5488 194.3176,127.5488 194.9224,127.5488 195.6424L127.5488 199.6456L128.2688 199.6456C128.9312 199.6456,128.96 199.6456,129.0464 199.6744C129.2768 199.7608,129.392 199.9912,129.392 200.2504C129.392 200.3944,129.3632 200.5672,129.248 200.6824C129.0752 200.8264,129.0464 200.8264,128.2688 200.8264L127.5488 200.8264L127.5488 201.316C127.5776 202.7848,127.8656 203.3608,128.9888 203.9656C129.392 204.1672,129.4784 204.2248,129.4784 204.5128C129.4784 204.7144,129.42079999999999 204.8008,129.2768 204.916L129.1904 204.9448L125.2448 204.9448L121.328 204.9448L121.2416 204.916C121.0688 204.8008,121.04 204.7144,121.04 204.5128C121.04 204.2248,121.0688 204.1672,121.5008 203.9656C122.624 203.3608,122.912 202.7848,122.912 201.316L122.912 200.8264L119.6 200.8264C118.9952 200.88400000000001,118.5056 200.88400000000001,118.1024 200.88400000000001C116.288 200.88400000000001,116.2592 200.8264,116.2304 200.8264C116.0576 200.7688,116 200.596,116 200.3944C116 200.3944,116 200.3944,116 200.3944C116 200.1928,116 200.1928,116.576 199.5304C118.9952 196.5928,120.6944 192.3304,120.6944 188.93200000000002C120.6944 188.4136,120.7808 188.2408,121.0112 188.1544M122.7392 206.5288L122.768 206.5288L122.6816 206.5288L122.7392 206.5288M122.7392 187.1176L122.768 187.1176L122.6816 187.1176L122.7392 187.1176"></path><path stroke-width="1" fill="none" stroke="#000000" stroke-dasharray="none" d="M228.15946666666667 216.5L246.17770666666667 216.5"></path><g class="vf-stavenote" id="vf-auto1117784"><g class="vf-note" pointer-events="bounding-box"><g class="vf-stem" pointer-events="bounding-box"><path stroke-width="1.5" fill="none" stroke="#000000" stroke-dasharray="none" class="vf-stem" id="vf-auto1117784-stem" d="M242.42770666666667 221.5L242.42770666666667 186.5"></path></g><g class="vf-notehead" pointer-events="bounding-box"><path stroke-width="0.3" fill="#000000" stroke="none" stroke-dasharray="none" d="M231.15946666666667 221.5M238.51642666666666 216.27712C238.62874666666667 216.27712,238.7972266666667 216.27712,238.82530666666668 216.27712C238.82530666666668 216.27712,238.85338666666667 216.27712,238.85338666666667 216.27712C238.85338666666667 216.27712,239.02186666666668 216.27712,239.16226666666668 216.27712C241.68946666666668 216.41752,243.17770666666667 218.07424,243.17770666666667 220.15216C243.17770666666667 221.16304,242.8407466666667 222.31432,241.99834666666666 223.40944C240.39778666666666 225.5716,237.78634666666667 226.75096,235.51186666666666 226.75096C233.74282666666667 226.75096,232.22650666666667 226.04896,231.49642666666668 224.61688C231.27178666666669 224.05528,231.15946666666667 223.52176,231.15946666666667 222.93208C231.15946666666667 219.87136,234.58522666666667 216.47368,238.51642666666666 216.27712"></path></g></g><g class="vf-modifiers"></g></g><path stroke-width="1" fill="none" stroke="#000000" stroke-dasharray="none" d="M274.50351679999994 166.5L392.82863359999993 166.5"></path><path stroke-width="1" fill="none" stroke="#000000" stroke-dasharray="none" d="M274.50351679999994 176.5L392.82863359999993 176.5"></path><path stroke-width="1" fill="none" stroke="#000000" stroke-dasharray="none" d="M274.50351679999994 186.5L392.82863359999993 186.5"></path><path stroke-width="1" fill="none" stroke="#000000" stroke-dasharray="none" d="M274.50351679999994 196.5L392.82863359999993 196.5"></path><path stroke-width="1" fill="none" stroke="#000000" stroke-dasharray="none" d="M274.50351679999994 206.5L392.82863359999993 206.5"></path><rect stroke-width="0.3" fill="#000000" stroke="#000000" stroke-dasharray="none" x="392.82863359999993" y="166" width="1" height="41"></rect><path stroke-width="1" fill="none" stroke="#000000" stroke-dasharray="none" d="M392.82863359999993 166.5L519.5537503999999 166.5"></path><path stroke-width="1" fill="none" stroke="#000000" stroke-dasharray="none" d="M392.82863359999993 176.5L519.5537503999999 176.5"></path><path stroke-width="1" fill="none" stroke="#000000" stroke-dasharray="none" d="M392.82863359999993 186.5L519.5537503999999 186.5"></path><path stroke-width="1" fill="none" stroke="#000000" stroke-dasharray="none" d="M392.82863359999993 196.5L519.5537503999999 196.5"></path><path stroke-width="1" fill="none" stroke="#000000" stroke-dasharray="none" d="M392.82863359999993 206.5L519.5537503999999 206.5"></path><rect stroke-width="0.3" fill="#000000" stroke="#000000" stroke-dasharray="none" x="519.5537503999999" y="166" width="1" height="41"></rect><g class="vf-stavenote" id="vf-auto1117837"><g class="vf-note" pointer-events="bounding-box"><g class="vf-stem" pointer-events="bounding-box"><path stroke-width="1.5" fill="none" stroke="#000000" stroke-dasharray="none" class="vf-stem" id="vf-auto1117837-stem" d="M410.57863359999993 166.5L410.57863359999993 201.5"></path></g><g class="vf-notehead" pointer-events="bounding-box"><path stroke-width="0.3" fill="#000000" stroke="none" stroke-dasharray="none" d="M409.82863359999993 166.5M417.18559359999995 161.27712C417.29791359999996 161.27712,417.46639359999995 161.27712,417.49447359999994 161.27712C417.49447359999994 161.27712,417.5225535999999 161.27712,417.5225535999999 161.27712C417.5225535999999 161.27712,417.6910335999999 161.27712,417.8314335999999 161.27712C420.35863359999996 161.41752,421.8468735999999 163.07424,421.8468735999999 165.15216C421.8468735999999 166.16304,421.50991359999995 167.31432,420.66751359999995 168.40944C419.0669535999999 170.5716,416.4555135999999 171.75096,414.1810335999999 171.75096C412.41199359999996 171.75096,410.89567359999995 171.04896,410.1655935999999 169.61688C409.94095359999994 169.05528,409.82863359999993 168.52176,409.82863359999993 167.93208C409.82863359999993 164.87136,413.25439359999996 161.47368,417.18559359999995 161.27712"></path></g></g><g class="vf-modifiers"></g></g><g class="vf-stavenote" id="vf-auto1117845"><g class="vf-note" pointer-events="bounding-box"><g class="vf-stem" pointer-events="bounding-box"><path stroke-width="1.5" fill="none" stroke="#000000" stroke-dasharray="none" class="vf-stem" id="vf-auto1117845-stem" d="M447.57863359999993 166.5L447.57863359999993 201.5"></path></g><g class="vf-notehead" pointer-events="bounding-box"><path stroke-width="0.3" fill="#000000" stroke="none" stroke-dasharray="none" d="M446.82863359999993 166.5M454.18559359999995 161.27712C454.29791359999996 161.27712,454.46639359999995 161.27712,454.49447359999994 161.27712C454.49447359999994 161.27712,454.5225535999999 161.27712,454.5225535999999 161.27712C454.5225535999999 161.27712,454.6910335999999 161.27712,454.8314335999999 161.27712C457.35863359999996 161.41752,458.8468735999999 163.07424,458.8468735999999 165.15216C458.8468735999999 166.16304,458.50991359999995 167.31432,457.66751359999995 168.40944C456.0669535999999 170.5716,453.4555135999999 171.75096,451.1810335999999 171.75096C449.41199359999996 171.75096,447.89567359999995 171.04896,447.1655935999999 169.61688C446.94095359999994 169.05528,446.82863359999993 168.52176,446.82863359999993 167.93208C446.82863359999993 164.87136,450.25439359999996 161.47368,454.18559359999995 161.27712"></path></g></g><g class="vf-modifiers"></g></g><path stroke-width="1" fill="none" stroke="#000000" stroke-dasharray="none" d="M519.5537503999999 166.5L637.8788671999998 166.5"></path><path stroke-width="1" fill="none" stroke="#000000" stroke-dasharray="none" d="M519.5537503999999 176.5L637.8788671999998 176.5"></path><path stroke-width="1" fill="none" stroke="#000000" stroke-dasharray="none" d="M519.5537503999999 186.5L637.8788671999998 186.5"></path><path stroke-width="1" fill="none" stroke="#000000" stroke-dasharray="none" d="M519.5537503999999 196.5L637.8788671999998 196.5"></path><path stroke-width="1" fill="none" stroke="#000000" stroke-dasharray="none" d="M519.5537503999999 206.5L637.8788671999998 206.5"></path><rect stroke-width="0.3" fill="#000000" stroke="#000000" stroke-dasharray="none" x="632.8788671999998" y="166" width="1" height="41"></rect><rect stroke-width="0.3" fill="#000000" stroke="#000000" stroke-dasharray="none" x="635.8788671999998" y="166" width="3" height="41"></rect><g class="vf-text"><text stroke-width="0.3" fill="#000000" stroke="none" stroke-dasharray="none" font-family="Times New Roman" font-size="23px" font-weight="bold" font-style="italic" x="156.4784" y="240.5">mp</text></g><path stroke-width="1" fill="none" stroke="#000000" stroke-dasharray="none" d="M70 275.29999999999995L274.50351679999994 275.29999999999995"></path><path stroke-width="1" fill="none" stroke="#000000" stroke-dasharray="none" d="M70 285.29999999999995L274.50351679999994 285.29999999999995"></path><path stroke-width="1" fill="none" stroke="#000000" stroke-dasharray="none" d="M70 295.29999999999995L274.50351679999994 295.29999999999995"></path><path stroke-width="1" fill="none" stroke="#000000" stroke-dasharray="none" d="M70 305.29999999999995L274.50351679999994 305.29999999999995"></path><path stroke-width="1" fill="none" stroke="#000000" stroke-dasharray="none" d="M70 315.29999999999995L274.50351679999994 315.29999999999995"></path><rect stroke-width="0.3" fill="#000000" stroke="#000000" stroke-dasharray="none" x="274.50351679999994" y="274.79999999999995" width="1" height="41"></rect><g class="vf-clef"><path stroke-width="0.3" fill="#000000" stroke="none" stroke-dasharray="none" d="M75 285.29999999999995M83.8416 275.24879999999996C84.072 275.1912,84.3024 275.1912,84.5616 275.1912C85.5696 275.1912,86.7504 275.30639999999994,87.7584 275.508C92.4816 276.4872,95.736 279.68399999999997,96.3408 283.9464C96.3984 284.40719999999993,96.4272 284.83919999999995,96.4272 285.29999999999995C96.4272 287.89199999999994,95.5344 291.23279999999994,94.008 294.02639999999997C90.3792 300.59279999999995,83.7552 305.316,75.8064 307.044C75.6624 307.044,75.5472 307.0728,75.4032 307.0728C75.1152 307.0728,74.9712 306.9,74.9712 306.64079999999996C74.9712 306.35279999999995,75.0288 306.2664,75.6048 306.03599999999994C84.7056 302.6088,90.7824 295.20719999999994,91.3296 286.91279999999995C91.3584 286.48079999999993,91.3584 285.99119999999994,91.3584 285.61679999999996C91.3584 281.5848,90.12 278.58959999999996,87.7296 277.0919999999999C86.6928 276.42959999999994,85.5696 276.11279999999994,84.36 276.11279999999994C81.6816 276.11279999999994,78.9456 277.63919999999996,77.6784 280.20239999999995C77.6208 280.40399999999994,77.4192 280.83599999999996,77.4192 280.86479999999995C77.4192 280.86479999999995,77.4192 280.86479999999995,77.4192 280.86479999999995C77.4192 280.86479999999995,77.448 280.83599999999996,77.5344 280.80719999999997C78.168 280.40399999999994,78.8592 280.20239999999995,79.5792 280.20239999999995C80.5872 280.20239999999995,81.6528 280.63439999999997,82.4016 281.44079999999997C83.0928 282.1895999999999,83.4672 283.19759999999997,83.4672 284.1192C83.4672 285.99119999999994,82.0848 287.89199999999994,79.9248 288.0936C79.7808 288.0936,79.6368 288.12239999999997,79.4928 288.12239999999997C77.1024 288.12239999999997,75.1728 285.93359999999996,75.1728 283.1688C75.1728 283.11119999999994,75.1728 283.02479999999997,75.1728 282.996C75.288 278.8776,79.0608 275.508,83.8416 275.24879999999996M99.1632 279.10799999999995C99.2208 279.07919999999996,99.2496 279.07919999999996,99.336 279.07919999999996C99.5376 279.07919999999996,99.768 279.10799999999995,99.8256 279.1655999999999C100.54560000000001 279.36719999999997,100.8912 280.00079999999997,100.8912 280.6056C100.8912 281.12399999999997,100.632 281.64239999999995,100.11359999999999 281.93039999999996C99.912 282.07439999999997,99.6528 282.10319999999996,99.39359999999999 282.10319999999996C98.9904 282.10319999999996,98.5584 281.93039999999996,98.2704 281.5559999999999C98.03999999999999 281.268,97.9248 280.9512,97.9248 280.63439999999997C97.9248 279.91439999999994,98.3856 279.1944,99.1632 279.10799999999995M99.1632 288.52559999999994C99.2208 288.52559999999994,99.2496 288.52559999999994,99.336 288.52559999999994C99.5376 288.52559999999994,99.768 288.55439999999993,99.8256 288.61199999999997C100.54560000000001 288.81359999999995,100.8912 289.44719999999995,100.8912 290.05199999999996C100.8912 290.57039999999995,100.632 291.08879999999994,100.11359999999999 291.34799999999996C99.912 291.49199999999996,99.6528 291.54959999999994,99.39359999999999 291.54959999999994C98.9904 291.54959999999994,98.5584 291.34799999999996,98.2704 291.00239999999997C98.03999999999999 290.71439999999996,97.9248 290.39759999999995,97.9248 290.05199999999996C97.9248 289.33199999999994,98.3856 288.64079999999996,99.1632 288.52559999999994"></path></g><path stroke-width="0.3" fill="#000000" stroke="none" stroke-dasharray="none" d="M116.8352 295.29999999999995M121.8464 276.63759999999996C121.904 276.63759999999996,122.1056 276.63759999999996,122.336 276.63759999999996C122.71039999999999 276.63759999999996,123.1712 276.63759999999996,123.3152 276.63759999999996C125.9648 276.9256,128.0384 278.3656,128.4128 280.23759999999993C128.4704 280.4104,128.4704 280.61199999999997,128.4704 280.81359999999995C128.4704 281.044,128.4704 281.24559999999997,128.4128 281.3607999999999C128.0384 282.71439999999996,126.45439999999999 283.95279999999997,124.4384 284.5576C124.2944 284.61519999999996,124.2368 284.61519999999996,124.2368 284.64399999999995C124.2368 284.64399999999995,124.2368 284.64399999999995,124.2368 284.64399999999995C124.2656 284.64399999999995,124.352 284.67279999999994,124.4384 284.67279999999994C127.1744 285.6808,128.6144 287.61039999999997,128.6144 289.4823999999999C128.6144 290.9224,127.80799999999999 292.30479999999994,125.9936 293.22639999999996C124.928 293.8024,123.7472 294.06159999999994,122.5952 294.06159999999994C120.6944 294.06159999999994,118.8224 293.34159999999997,117.4976 292.0456C117.008 291.5848,116.8352 291.00879999999995,116.8352 290.43279999999993C116.8352 289.25199999999995,117.6704 288.12879999999996,119.0528 288.12879999999996L119.0528 288.12879999999996C120.4352 288.12879999999996,121.2128 289.1944,121.2128 290.2888C121.2128 291.12399999999997,120.7808 291.95919999999995,119.8016 292.3624C119.8016 292.3624,119.8016 292.3624,119.8016 292.3624C119.8016 292.39119999999997,120.6368 292.56399999999996,121.0688 292.59279999999995C121.1264 292.59279999999995,121.184 292.59279999999995,121.2416 292.59279999999995C123.1424 292.59279999999995,124.4672 291.2392,124.4672 289.36719999999997C124.4672 289.1655999999999,124.4672 288.99279999999993,124.4384 288.79119999999995C124.1216 286.68879999999996,122.71039999999999 285.13359999999994,121.0688 285.07599999999996C120.6656 285.0472,120.464 284.8744,120.464 284.61519999999996C120.464 284.26959999999997,120.6368 284.12559999999996,121.0688 284.12559999999996C122.48 284.03919999999994,123.6896 283.08879999999994,124.1504 281.64879999999994C124.2656 281.3607999999999,124.2944 281.0728,124.2944 280.84239999999994C124.2944 279.6328,123.4016 278.53839999999997,122.0768 278.25039999999996C121.8752 278.16399999999993,121.616 278.16399999999993,121.328 278.16399999999993C120.9248 278.16399999999993,120.5504 278.1928,120.1472 278.25039999999996L120.032 278.27919999999995L120.1472 278.3656C120.896 278.76879999999994,121.2128 279.48879999999997,121.2128 280.20879999999994C121.2128 281.15919999999994,120.5792 282.10959999999994,119.4848 282.36879999999996C119.3408 282.39759999999995,119.168 282.39759999999995,119.024 282.39759999999995C117.7568 282.39759999999995,116.8064 281.24559999999997,116.8064 280.03599999999994C116.8064 279.51759999999996,116.9792 278.9992,117.4112 278.56719999999996C118.4192 277.47279999999995,119.9456 276.83919999999995,121.8464 276.63759999999996M122.71039999999999 295.32879999999994L122.7392 295.32879999999994L122.6528 295.32879999999994L122.71039999999999 295.32879999999994M122.71039999999999 275.91759999999994L122.7392 275.91759999999994L122.6528 275.91759999999994L122.71039999999999 275.91759999999994"></path><path stroke-width="0.3" fill="#000000" stroke="none" stroke-dasharray="none" d="M116 315.29999999999995M121.0112 296.95439999999996C121.04 296.9256,121.4432 296.9256,122.6816 296.9256C123.056 296.9256,123.4592 296.9256,123.9776 296.9256L126.8864 296.9256L126.9728 297.01199999999994C127.1168 297.09839999999997,127.2032 297.2424,127.2032 297.35759999999993C127.2032 297.53039999999993,127.1168 297.64559999999994,127.0016 297.76079999999996C126.9728 297.84719999999993,126.7136 298.07759999999996,126.5408 298.3367999999999L125.0144 300.0936L123.056 302.31119999999993L122.0192 303.49199999999996L120.464 305.27759999999995L118.4192 307.61039999999997C118.0736 308.04239999999993,117.6992 308.388,117.6992 308.388C117.6992 308.388,117.6992 308.388,117.6992 308.388C117.6992 308.44559999999996,117.9584 308.44559999999996,120.3488 308.44559999999996L122.9696 308.44559999999996L122.9696 306.57359999999994C122.9696 304.67279999999994,122.9696 304.64399999999995,122.9984 304.61519999999996C123.056 304.52879999999993,123.3152 304.21199999999993,124.3232 303.03119999999996L124.7264 302.59919999999994L125.1296 302.1672L125.7344 301.3896L126.368 300.7272L126.6848 300.32399999999996C126.8 300.15119999999996,126.9728 300.12239999999997,127.1168 300.12239999999997C127.28960000000001 300.12239999999997,127.4336 300.20879999999994,127.52 300.35279999999995C127.5488 300.43919999999997,127.5488 300.49679999999995,127.5488 302.62799999999993C127.5488 303.1176,127.5488 303.72239999999994,127.5488 304.44239999999996L127.5488 308.44559999999996L128.2688 308.44559999999996C128.9312 308.44559999999996,128.96 308.44559999999996,129.0464 308.47439999999995C129.2768 308.5608,129.392 308.79119999999995,129.392 309.05039999999997C129.392 309.1944,129.3632 309.36719999999997,129.248 309.4823999999999C129.0752 309.62639999999993,129.0464 309.62639999999993,128.2688 309.62639999999993L127.5488 309.62639999999993L127.5488 310.11599999999993C127.5776 311.5848,127.8656 312.16079999999994,128.9888 312.76559999999995C129.392 312.96719999999993,129.4784 313.02479999999997,129.4784 313.3128C129.4784 313.51439999999997,129.42079999999999 313.60079999999994,129.2768 313.71599999999995L129.1904 313.74479999999994L125.2448 313.74479999999994L121.328 313.74479999999994L121.2416 313.71599999999995C121.0688 313.60079999999994,121.04 313.51439999999997,121.04 313.3128C121.04 313.02479999999997,121.0688 312.96719999999993,121.5008 312.76559999999995C122.624 312.16079999999994,122.912 311.5848,122.912 310.11599999999993L122.912 309.62639999999993L119.6 309.62639999999993C118.9952 309.68399999999997,118.5056 309.68399999999997,118.1024 309.68399999999997C116.288 309.68399999999997,116.2592 309.62639999999993,116.2304 309.62639999999993C116.0576 309.56879999999995,116 309.39599999999996,116 309.1944C116 309.1944,116 309.1944,116 309.1944C116 308.99279999999993,116 308.99279999999993,116.576 308.33039999999994C118.9952 305.39279999999997,120.6944 301.13039999999995,120.6944 297.73199999999997C120.6944 297.21359999999993,120.7808 297.04079999999993,121.0112 296.95439999999996M122.7392 315.32879999999994L122.768 315.32879999999994L122.6816 315.32879999999994L122.7392 315.32879999999994M122.7392 295.91759999999994L122.768 295.91759999999994L122.6816 295.91759999999994L122.7392 295.91759999999994"></path><g class="vf-stavenote" id="vf-auto1117794"><g class="vf-note" pointer-events="bounding-box"><g class="vf-stem" pointer-events="bounding-box"><path stroke-width="1.5" fill="none" stroke="#000000" stroke-dasharray="none" class="vf-stem" id="vf-auto1117794-stem" d="M152.74663999999999 295.29999999999995L152.74663999999999 260.29999999999995"></path></g><g class="vf-notehead" pointer-events="bounding-box"><path stroke-width="0.3" fill="#000000" stroke="none" stroke-dasharray="none" d="M141.4784 295.29999999999995M148.83535999999998 290.07712C148.94768 290.07712,149.11615999999998 290.07712,149.14424 290.07712C149.14424 290.07712,149.17231999999998 290.07712,149.17231999999998 290.07712C149.17231999999998 290.07712,149.3408 290.07712,149.4812 290.07712C152.0084 290.21752,153.49663999999999 291.87423999999993,153.49663999999999 293.95215999999994C153.49663999999999 294.96304,153.15967999999998 296.11431999999996,152.31727999999998 297.20944C150.71671999999998 299.37159999999994,148.10528 300.55096,145.83079999999998 300.55096C144.06176 300.55096,142.54543999999999 299.84896,141.81536 298.41687999999994C141.59072 297.85527999999994,141.4784 297.3217599999999,141.4784 296.73207999999994C141.4784 293.67135999999994,144.90416 290.27367999999996,148.83535999999998 290.07712"></path></g></g><g class="vf-modifiers"></g></g><path stroke-width="1" fill="none" stroke="#000000" stroke-dasharray="none" d="M183.31893333333332 265.29999999999995L201.3371733333333 265.29999999999995"></path><g class="vf-stavenote" id="vf-auto1117802"><g class="vf-note" pointer-events="bounding-box"><g class="vf-stem" pointer-events="bounding-box"><path stroke-width="1.5" fill="none" stroke="#000000" stroke-dasharray="none" class="vf-stem" id="vf-auto1117802-stem" d="M187.06893333333332 260.29999999999995L187.06893333333332 295.29999999999995"></path></g><g class="vf-notehead" pointer-events="bounding-box"><path stroke-width="0.3" fill="#000000" stroke="none" stroke-dasharray="none" d="M186.31893333333332 260.29999999999995M193.6758933333333 255.07711999999995C193.78821333333332 255.07711999999995,193.9566933333333 255.07711999999995,193.98477333333332 255.07711999999995C193.98477333333332 255.07711999999995,194.0128533333333 255.07711999999995,194.0128533333333 255.07711999999995C194.0128533333333 255.07711999999995,194.18133333333333 255.07711999999995,194.32173333333333 255.07711999999995C196.84893333333332 255.21751999999995,198.3371733333333 256.87423999999993,198.3371733333333 258.95215999999994C198.3371733333333 259.96304,198.0002133333333 261.11431999999996,197.1578133333333 262.20944C195.5572533333333 264.37159999999994,192.94581333333332 265.55096,190.6713333333333 265.55096C188.90229333333332 265.55096,187.3859733333333 264.84896,186.65589333333332 263.41687999999994C186.43125333333333 262.85527999999994,186.31893333333332 262.3217599999999,186.31893333333332 261.73207999999994C186.31893333333332 258.67135999999994,189.74469333333332 255.27367999999996,193.6758933333333 255.07711999999995"></path></g></g><g class="vf-modifiers"></g></g><rect stroke-width="0.3" fill="#000000" stroke="#000000" stroke-dasharray="none" x="274.50351679999994" y="166.5" width="1" height="149.79999999999995"></rect><rect stroke-width="0.3" fill="#000000" stroke="#000000" stroke-dasharray="none" x="70" y="166.5" width="1" height="149.79999999999995"></rect><path stroke-width="1" fill="none" stroke="#000000" stroke-dasharray="none" d="M274.50351679999994 275.29999999999995L392.82863359999993 275.29999999999995"></path><path stroke-width="1" fill="none" stroke="#000000" stroke-dasharray="none" d="M274.50351679999994 285.29999999999995L392.82863359999993 285.29999999999995"></path><path stroke-width="1" fill="none" stroke="#000000" stroke-dasharray="none" d="M274.50351679999994 295.29999999999995L392.82863359999993 295.29999999999995"></path><path stroke-width="1" fill="none" stroke="#000000" stroke-dasharray="none" d="M274.50351679999994 305.29999999999995L392.82863359999993 305.29999999999995"></path><path stroke-width="1" fill="none" stroke="#000000" stroke-dasharray="none" d="M274.50351679999994 315.29999999999995L392.82863359999993 315.29999999999995"></path><rect stroke-width="0.3" fill="#000000" stroke="#000000" stroke-dasharray="none" x="392.82863359999993" y="274.79999999999995" width="1" height="41"></rect><g class="vf-stavenote" id="vf-auto1117812"><g class="vf-note" pointer-events="bounding-box"><g class="vf-stem" pointer-events="bounding-box"><path stroke-width="1.5" fill="none" stroke="#000000" stroke-dasharray="none" class="vf-stem" id="vf-auto1117812-stem" d="M292.25351679999994 280.29999999999995L292.25351679999994 315.29999999999995"></path></g><g class="vf-notehead" pointer-events="bounding-box"><path stroke-width="0.3" fill="#000000" stroke="none" stroke-dasharray="none" d="M291.50351679999994 280.29999999999995M298.86047679999996 275.07712C298.97279679999997 275.07712,299.14127679999996 275.07712,299.16935679999995 275.07712C299.16935679999995 275.07712,299.19743679999993 275.07712,299.19743679999993 275.07712C299.19743679999993 275.07712,299.3659167999999 275.07712,299.5063167999999 275.07712C302.0335167999999 275.21752,303.52175679999993 276.87423999999993,303.52175679999993 278.95215999999994C303.52175679999993 279.96304,303.18479679999996 281.11431999999996,302.34239679999996 282.20944C300.74183679999993 284.37159999999994,298.13039679999997 285.55096,295.85591679999993 285.55096C294.08687679999997 285.55096,292.57055679999996 284.84896,291.8404767999999 283.41687999999994C291.61583679999995 282.85527999999994,291.50351679999994 282.3217599999999,291.50351679999994 281.73207999999994C291.50351679999994 278.67135999999994,294.92927679999997 275.27367999999996,298.86047679999996 275.07712"></path></g></g><g class="vf-modifiers"></g></g><g class="vf-stavenote" id="vf-auto1117820"><g class="vf-note" pointer-events="bounding-box"><g class="vf-stem" pointer-events="bounding-box"><path stroke-width="1.5" fill="none" stroke="#000000" stroke-dasharray="none" class="vf-stem" id="vf-auto1117820-stem" d="M337.10509013333325 305.29999999999995L337.10509013333325 270.29999999999995"></path></g><g class="vf-notehead" pointer-events="bounding-box"><path stroke-width="0.3" fill="#000000" stroke="none" stroke-dasharray="none" d="M325.83685013333326 305.29999999999995M333.1938101333333 300.07712C333.3061301333333 300.07712,333.4746101333333 300.07712,333.50269013333326 300.07712C333.50269013333326 300.07712,333.53077013333325 300.07712,333.53077013333325 300.07712C333.53077013333325 300.07712,333.69925013333324 300.07712,333.83965013333324 300.07712C336.3668501333333 300.21752,337.85509013333325 301.87423999999993,337.85509013333325 303.95215999999994C337.85509013333325 304.96304,337.5181301333333 306.11431999999996,336.6757301333333 307.20944C335.07517013333324 309.37159999999994,332.46373013333323 310.55096,330.18925013333325 310.55096C328.4202101333333 310.55096,326.9038901333333 309.84896,326.17381013333323 308.41687999999994C325.94917013333327 307.85527999999994,325.83685013333326 307.3217599999999,325.83685013333326 306.73207999999994C325.83685013333326 303.67135999999994,329.2626101333333 300.27367999999996,333.1938101333333 300.07712"></path></g></g><g class="vf-modifiers"></g></g><g class="vf-stavenote" id="vf-auto1117828"><g class="vf-note" pointer-events="bounding-box"><g class="vf-stem" pointer-events="bounding-box"><path stroke-width="1.5" fill="none" stroke="#000000" stroke-dasharray="none" class="vf-stem" id="vf-auto1117828-stem" d="M371.43842346666656 310.29999999999995L371.43842346666656 275.29999999999995"></path></g><g class="vf-notehead" pointer-events="bounding-box"><path stroke-width="0.3" fill="#000000" stroke="none" stroke-dasharray="none" d="M360.1701834666666 310.29999999999995M367.5271434666666 305.07712C367.6394634666666 305.07712,367.8079434666666 305.07712,367.8360234666666 305.07712C367.8360234666666 305.07712,367.86410346666656 305.07712,367.86410346666656 305.07712C367.86410346666656 305.07712,368.03258346666655 305.07712,368.17298346666655 305.07712C370.70018346666654 305.21752,372.18842346666656 306.87423999999993,372.18842346666656 308.95215999999994C372.18842346666656 309.96304,371.8514634666666 311.11431999999996,371.0090634666666 312.20944C369.40850346666656 314.37159999999994,366.7970634666666 315.55096,364.52258346666656 315.55096C362.7535434666666 315.55096,361.2372234666666 314.84896,360.50714346666655 313.41687999999994C360.2825034666666 312.85527999999994,360.1701834666666 312.3217599999999,360.1701834666666 311.73207999999994C360.1701834666666 308.67135999999994,363.5959434666666 305.27367999999996,367.5271434666666 305.07712"></path></g></g><g class="vf-modifiers"></g></g><rect stroke-width="0.3" fill="#000000" stroke="#000000" stroke-dasharray="none" x="392.82863359999993" y="166.5" width="1" height="149.79999999999995"></rect><path stroke-width="1" fill="none" stroke="#000000" stroke-dasharray="none" d="M392.82863359999993 275.29999999999995L519.5537503999999 275.29999999999995"></path><path stroke-width="1" fill="none" stroke="#000000" stroke-dasharray="none" d="M392.82863359999993 285.29999999999995L519.5537503999999 285.29999999999995"></path><path stroke-width="1" fill="none" stroke="#000000" stroke-dasharray="none" d="M392.82863359999993 295.29999999999995L519.5537503999999 295.29999999999995"></path><path stroke-width="1" fill="none" stroke="#000000" stroke-dasharray="none" d="M392.82863359999993 305.29999999999995L519.5537503999999 305.29999999999995"></path><path stroke-width="1" fill="none" stroke="#000000" stroke-dasharray="none" d="M392.82863359999993 315.29999999999995L519.5537503999999 315.29999999999995"></path><rect stroke-width="0.3" fill="#000000" stroke="#000000" stroke-dasharray="none" x="519.5537503999999" y="274.79999999999995" width="1" height="41"></rect><path stroke-width="1" fill="none" stroke="#000000" stroke-dasharray="none" d="M480.82863359999993 265.29999999999995L498.8468735999999 265.29999999999995"></path><g class="vf-stavenote" id="vf-auto1117855"><g class="vf-note" pointer-events="bounding-box"><g class="vf-stem" pointer-events="bounding-box"><path stroke-width="1.5" fill="none" stroke="#000000" stroke-dasharray="none" class="vf-stem" id="vf-auto1117855-stem" d="M484.57863359999993 260.29999999999995L484.57863359999993 295.29999999999995"></path></g><g class="vf-notehead" pointer-events="bounding-box"><path stroke-width="0.3" fill="#000000" stroke="none" stroke-dasharray="none" d="M483.82863359999993 260.29999999999995M491.18559359999995 255.07711999999995C491.29791359999996 255.07711999999995,491.46639359999995 255.07711999999995,491.49447359999994 255.07711999999995C491.49447359999994 255.07711999999995,491.5225535999999 255.07711999999995,491.5225535999999 255.07711999999995C491.5225535999999 255.07711999999995,491.6910335999999 255.07711999999995,491.8314335999999 255.07711999999995C494.35863359999996 255.21751999999995,495.8468735999999 256.87423999999993,495.8468735999999 258.95215999999994C495.8468735999999 259.96304,495.50991359999995 261.11431999999996,494.66751359999995 262.20944C493.0669535999999 264.37159999999994,490.4555135999999 265.55096,488.1810335999999 265.55096C486.41199359999996 265.55096,484.89567359999995 264.84896,484.1655935999999 263.41687999999994C483.94095359999994 262.85527999999994,483.82863359999993 262.3217599999999,483.82863359999993 261.73207999999994C483.82863359999993 258.67135999999994,487.25439359999996 255.27367999999996,491.18559359999995 255.07711999999995"></path></g></g><g class="vf-modifiers"></g></g><rect stroke-width="0.3" fill="#000000" stroke="#000000" stroke-dasharray="none" x="519.5537503999999" y="166.5" width="1" height="149.79999999999995"></rect><path stroke-width="1" fill="none" stroke="#000000" stroke-dasharray="none" d="M519.5537503999999 275.29999999999995L637.8788671999998 275.29999999999995"></path><path stroke-width="1" fill="none" stroke="#000000" stroke-dasharray="none" d="M519.5537503999999 285.29999999999995L637.8788671999998 285.29999999999995"></path><path stroke-width="1" fill="none" stroke="#000000" stroke-dasharray="none" d="M519.5537503999999 295.29999999999995L637.8788671999998 295.29999999999995"></path><path stroke-width="1" fill="none" stroke="#000000" stroke-dasharray="none" d="M519.5537503999999 305.29999999999995L637.8788671999998 305.29999999999995"></path><path stroke-width="1" fill="none" stroke="#000000" stroke-dasharray="none" d="M519.5537503999999 315.29999999999995L637.8788671999998 315.29999999999995"></path><rect stroke-width="0.3" fill="#000000" stroke="#000000" stroke-dasharray="none" x="632.8788671999998" y="274.79999999999995" width="1" height="41"></rect><rect stroke-width="0.3" fill="#000000" stroke="#000000" stroke-dasharray="none" x="635.8788671999998" y="274.79999999999995" width="3" height="41"></rect><g class="vf-stavenote" id="vf-auto1117865"><g class="vf-note" pointer-events="bounding-box"><g class="vf-stem" pointer-events="bounding-box"><path stroke-width="1.5" fill="none" stroke="#000000" stroke-dasharray="none" class="vf-stem" id="vf-auto1117865-stem" d="M547.8219903999999 295.29999999999995L547.8219903999999 260.29999999999995"></path></g><g class="vf-notehead" pointer-events="bounding-box"><path stroke-width="0.3" fill="#000000" stroke="none" stroke-dasharray="none" d="M536.5537503999999 295.29999999999995M543.9107103999999 290.07712C544.0230303999999 290.07712,544.1915103999999 290.07712,544.2195903999999 290.07712C544.2195903999999 290.07712,544.2476704 290.07712,544.2476704 290.07712C544.2476704 290.07712,544.4161503999999 290.07712,544.5565503999999 290.07712C547.0837503999999 290.21752,548.5719903999999 291.87423999999993,548.5719903999999 293.95215999999994C548.5719903999999 294.96304,548.2350303999999 296.11431999999996,547.3926303999999 297.20944C545.7920704 299.37159999999994,543.1806303999999 300.55096,540.9061503999999 300.55096C539.1371103999999 300.55096,537.6207903999999 299.84896,536.8907103999999 298.41687999999994C536.6660703999999 297.85527999999994,536.5537503999999 297.3217599999999,536.5537503999999 296.73207999999994C536.5537503999999 293.67135999999994,539.9795103999999 290.27367999999996,543.9107103999999 290.07712"></path></g></g><g class="vf-modifiers"></g></g><g class="vf-stavenote" id="vf-auto1117873"><g class="vf-note" pointer-events="bounding-box"><g class="vf-stem" pointer-events="bounding-box"><path stroke-width="1.5" fill="none" stroke="#000000" stroke-dasharray="none" class="vf-stem" id="vf-auto1117873-stem" d="M571.6370837333333 285.29999999999995L571.6370837333333 320.29999999999995"></path></g><g class="vf-notehead" pointer-events="bounding-box"><path stroke-width="0.3" fill="#000000" stroke="none" stroke-dasharray="none" d="M570.8870837333333 285.29999999999995M578.2440437333332 280.07712C578.3563637333333 280.07712,578.5248437333332 280.07712,578.5529237333333 280.07712C578.5529237333333 280.07712,578.5810037333333 280.07712,578.5810037333333 280.07712C578.5810037333333 280.07712,578.7494837333332 280.07712,578.8898837333332 280.07712C581.4170837333332 280.21752,582.9053237333333 281.87423999999993,582.9053237333333 283.95215999999994C582.9053237333333 284.96304,582.5683637333333 286.11431999999996,581.7259637333333 287.20944C580.1254037333333 289.37159999999994,577.5139637333333 290.55096,575.2394837333333 290.55096C573.4704437333332 290.55096,571.9541237333333 289.84896,571.2240437333332 288.41687999999994C570.9994037333332 287.85527999999994,570.8870837333333 287.3217599999999,570.8870837333333 286.73207999999994C570.8870837333333 283.67135999999994,574.3128437333332 280.27367999999996,578.2440437333332 280.07712"></path></g></g><g class="vf-modifiers"></g></g><g class="vf-stavenote" id="vf-auto1117881"><g class="vf-note" pointer-events="bounding-box"><g class="vf-stem" pointer-events="bounding-box"><path stroke-width="1.5" fill="none" stroke="#000000" stroke-dasharray="none" class="vf-stem" id="vf-auto1117881-stem" d="M605.9704170666665 275.29999999999995L605.9704170666665 310.29999999999995"></path></g><g class="vf-notehead" pointer-events="bounding-box"><path stroke-width="0.3" fill="#000000" stroke="none" stroke-dasharray="none" d="M605.2204170666665 275.29999999999995M612.5773770666665 270.07712C612.6896970666666 270.07712,612.8581770666665 270.07712,612.8862570666665 270.07712C612.8862570666665 270.07712,612.9143370666666 270.07712,612.9143370666666 270.07712C612.9143370666666 270.07712,613.0828170666665 270.07712,613.2232170666665 270.07712C615.7504170666665 270.21752,617.2386570666665 271.87423999999993,617.2386570666665 273.95215999999994C617.2386570666665 274.96304,616.9016970666665 276.11431999999996,616.0592970666665 277.20944C614.4587370666666 279.37159999999994,611.8472970666666 280.55096,609.5728170666665 280.55096C607.8037770666665 280.55096,606.2874570666665 279.84896,605.5573770666665 278.41687999999994C605.3327370666665 277.85527999999994,605.2204170666665 277.3217599999999,605.2204170666665 276.73207999999994C605.2204170666665 273.67135999999994,608.6461770666665 270.27367999999996,612.5773770666665 270.07712"></path></g></g><g class="vf-modifiers"></g></g><rect stroke-width="0.3" fill="#000000" stroke="#000000" stroke-dasharray="none" x="632.8788671999998" y="166.5" width="1" height="149.79999999999995"></rect><rect stroke-width="0.3" fill="#000000" stroke="#000000" stroke-dasharray="none" x="635.8788671999998" y="166.5" width="3" height="149.79999999999995"></rect><path stroke-width="0.3" fill="#000000" stroke="none" stroke-dasharray="none" d="M68 166.5C45.2 196.45999999999998,81.2 221.177,56 241.39999999999998C81.2 261.623,45.2 286.34,68 316.29999999999995C44 286.34,72.8 261.623,56 241.39999999999998C72.8 221.177,44 196.45999999999998,68 166.5"></path><path stroke-width="1" fill="none" stroke="#000000" stroke-dasharray="none" d="M68 166.5C45.2 196.45999999999998,81.2 221.177,56 241.39999999999998C81.2 261.623,45.2 286.34,68 316.29999999999995C44 286.34,72.8 261.623,56 241.39999999999998C72.8 221.177,44 196.45999999999998,68 166.5"></path><g class="vf-text"><text stroke-width="0.3" fill="#000000" stroke="none" stroke-dasharray="none" font-family="Times New Roman" font-size="15px" font-weight="normal" font-style="normal" x="389.32863359999993" y="163.5">3</text></g></svg>