<svg xmlns="http://www.w3.org/2000/svg"  width="1470" height="389.5999999999999" viewBox="0 0 1470 389.5999999999999"><path stroke-width="1" fill="none" stroke="#000000" stroke-dasharray="none" d="M70 166.5L278.7035168 166.5"></path><path stroke-width="1" fill="none" stroke="#000000" stroke-dasharray="none" d="M70 176.5L278.7035168 176.5"></path><path stroke-width="1" fill="none" stroke="#000000" stroke-dasharray="none" d="M70 186.5L278.7035168 186.5"></path><path stroke-width="1" fill="none" stroke="#000000" stroke-dasharray="none" d="M70 196.5L278.7035168 196.5"></path><path stroke-width="1" fill="none" stroke="#000000" stroke-dasharray="none" d="M70 206.5L278.7035168 206.5"></path><rect stroke-width="0.3" fill="#000000" stroke="#000000" stroke-dasharray="none" x="278.7035168" y="166" width="1" height="41"></rect><g class="vf-clef"><path stroke-width="0.3" fill="#000000" stroke="none" stroke-dasharray="none" d="M75 196.5M89.0544 153.3288C89.112 153.3,89.1696 153.3,89.256 153.3C89.6016 153.3,90.0048 153.588,90.5808 154.308C92.9136 156.9864,94.5552 161.652,94.5552 165.4536C94.5552 165.7416,94.4976 165.972,94.4976 166.26C94.2384 170.7816,92.3952 174.4968,88.7376 178.0104L87.7584 178.9608L87.4128 179.3352L87.4128 179.4504L87.6144 180.3144L87.9312 181.8696L88.248 183.3096C88.68 185.268,88.8528 186.276,88.8528 186.276C88.8528 186.276,88.8528 186.276,88.8528 186.276C88.8528 186.276,88.968 186.276,89.112 186.2472C89.256 186.2472,89.7168 186.1896,90.2064 186.1896C90.55199999999999 186.1896,90.8976 186.2472,91.0704 186.2472C95.1312 186.7656,98.2704 189.6744,99.1632 193.764C99.336 194.4264,99.39359999999999 195.1464,99.39359999999999 195.8664C99.39359999999999 199.7544,97.0608 203.4696,93.1728 205.2264C92.94239999999999 205.3704,92.856 205.3992,92.856 205.3992L92.856 205.428C92.856 205.428,93.0288 206.0904,93.1728 206.8392L93.6048 209.028L94.008 210.7848C94.2384 211.908,94.3536 212.7144,94.3536 213.4344C94.3536 214.06799999999998,94.2672 214.644,94.1232 215.3064C93.144 219.3096,89.6592 221.7,86.0304 221.7C84.2448 221.7,82.4016 221.124,80.7888 219.828C79.3488 218.6184,78.7152 217.524,78.7152 216.084C78.7152 213.5496,80.76 211.764,82.8912 211.764C83.64 211.764,84.3888 211.99439999999998,85.1088 212.4264C86.3184 213.2616,86.8656 214.5288,86.8656 215.7672C86.8656 217.668,85.5408 219.54,83.2656 219.684L83.0352 219.684L83.208 219.79919999999998C84.1584 220.2024,85.1088 220.404,86.0304 220.404C88.3632 220.404,90.55199999999999 219.2232,91.8768 217.1784C92.62559999999999 216.0264,93.0288 214.6728,93.0288 213.3192C93.0288 212.8008,92.94239999999999 212.2824,92.8272 211.7064C92.8272 211.6488,92.74080000000001 211.188,92.62559999999999 210.756C91.992 207.6456,91.6176 205.8312,91.6176 205.8312C91.6176 205.8312,91.6176 205.8312,91.6176 205.8312C91.56 205.8312,91.4448 205.8312,91.3584 205.8888C91.0704 205.9464,90.4656 206.0904,90.2064 206.1192C89.5728 206.2056,88.968 206.2344,88.392 206.2344C82.74719999999999 206.2344,77.5056 202.4328,75.6912 196.8168C75.2304 195.3192,74.9712 193.8216,74.9712 192.324C74.9712 189.3288,75.9216 186.3912,77.7648 183.7704C79.7808 180.9192,81.7968 178.4712,84.2736 175.9368L85.13759999999999 175.044L84.936 173.9784L84.5616 172.2216L84.072 169.9752C83.928 169.14,83.7552 168.3336,83.7264 168.1608C83.5824 167.2104,83.496 166.2888,83.496 165.3384C83.496 161.7096,84.6768 158.22480000000002,86.8944 155.4312C87.5568 154.5672,88.7376 153.4152,89.0544 153.3288M90.8112 159.0312C90.7536 159.0312,90.6672 159.0312,90.5808 159.0312C89.4 159.0312,87.8736 160.1256,86.8368 161.7384C85.7712 163.32240000000002,85.224 165.4248,85.224 167.5848C85.224 168.1608,85.25280000000001 168.7656,85.3392 169.3704C85.4256 169.8024,85.45439999999999 170.0904,85.6848 171.12720000000002L86.088 172.9416C86.2032 173.4888,86.28960000000001 173.92079999999999,86.28960000000001 173.9784L86.28960000000001 173.9784C86.3184 173.9784,87.2112 172.9992,87.4992 172.6536C90.3792 169.3992,92.1072 165.972,92.4816 162.948C92.5104 162.66,92.5104 162.4296,92.5104 162.1416C92.5104 161.24880000000002,92.3952 160.38479999999998,92.1936 159.924C91.9632 159.4632,91.4448 159.0888,90.8112 159.0312M86.4624 181.2936C86.4048 180.8904,86.3184 180.5736,86.3184 180.516C86.3184 180.516,86.3184 180.516,86.28960000000001 180.516C86.232 180.516,84.9936 181.956,84.1296 182.964C82.6608 184.7496,81.1056 186.8808,80.472 187.9176C79.2624 189.9624,78.6576 192.2376,78.6576 194.484C78.6576 195.9528,78.9456 197.364,79.464 198.7176C81.0192 202.7208,84.5904 205.2264,88.4784 205.2264C88.9392 205.2264,89.4576 205.1976,89.9472 205.1112C90.5808 204.996,91.3584 204.7656,91.3584 204.6792L91.3584 204.6792C91.3584 204.6792,91.3008 204.3912,91.2144 204.0744L90.3792 199.956L89.7168 196.8744L89.2848 194.7432L88.824 192.6696C88.5936 191.4312,88.5072 191.1144,88.5072 191.1144C88.5072 191.1144,88.5072 191.0856,88.4784 191.0856C88.3056 191.0856,87.384 191.5464,86.9808 191.8344C85.4832 192.8712,84.7056 194.5128,84.7056 196.1256C84.7056 197.652,85.45439999999999 199.1784,86.8944 200.0712C87.2112 200.2728,87.3264 200.4456,87.3264 200.6472C87.3264 200.676,87.3264 200.7624,87.3264 200.7912C87.2688 201.1368,87.0672 201.2808,86.7792 201.2808C86.664 201.2808,86.52 201.252,86.3472 201.1656C83.6976 200.0136,81.912 197.2776,81.912 194.2824L81.912 194.2824C81.912 190.8264,84.072 187.8312,87.384 186.6504L87.5568 186.5928L87.2688 185.1528L86.4624 181.2936M90.7824 190.9128C90.55199999999999 190.88400000000001,90.3216 190.88400000000001,90.1488 190.88400000000001C90.0912 190.88400000000001,90.0048 190.88400000000001,89.9472 190.88400000000001L89.8032 190.88400000000001L89.9184 191.4024L90.5232 194.2248L90.8976 196.068L91.3008 197.8824L92.1072 201.8856L92.424 203.412C92.5392 203.8152,92.5968 204.1608,92.62559999999999 204.1608C92.62559999999999 204.1608,92.62559999999999 204.1608,92.62559999999999 204.1608C92.6544 204.1608,93.144 203.8728,93.4608 203.6424C94.9296 202.6056,96.024 200.9928,96.4272 199.3224C96.5712 198.7752,96.6288 198.1992,96.6288 197.652C96.6288 194.3112,94.152 191.2872,90.7824 190.9128"></path></g><path stroke-width="0.3" fill="#000000" stroke="none" stroke-dasharray="none" d="M116.8352 186.5M121.8464 167.8376C121.904 167.8376,122.1056 167.8376,122.336 167.8376C122.71039999999999 167.8376,123.1712 167.8376,123.3152 167.8376C125.9648 168.1256,128.0384 169.5656,128.4128 171.4376C128.4704 171.6104,128.4704 171.812,128.4704 172.0136C128.4704 172.244,128.4704 172.4456,128.4128 172.5608C128.0384 173.9144,126.45439999999999 175.1528,124.4384 175.7576C124.2944 175.8152,124.2368 175.8152,124.2368 175.844C124.2368 175.844,124.2368 175.844,124.2368 175.844C124.2656 175.844,124.352 175.8728,124.4384 175.8728C127.1744 176.8808,128.6144 178.8104,128.6144 180.6824C128.6144 182.1224,127.80799999999999 183.5048,125.9936 184.4264C124.928 185.0024,123.7472 185.2616,122.5952 185.2616C120.6944 185.2616,118.8224 184.5416,117.4976 183.2456C117.008 182.7848,116.8352 182.2088,116.8352 181.6328C116.8352 180.452,117.6704 179.3288,119.0528 179.3288L119.0528 179.3288C120.4352 179.3288,121.2128 180.3944,121.2128 181.4888C121.2128 182.324,120.7808 183.1592,119.8016 183.5624C119.8016 183.5624,119.8016 183.5624,119.8016 183.5624C119.8016 183.5912,120.6368 183.764,121.0688 183.7928C121.1264 183.7928,121.184 183.7928,121.2416 183.7928C123.1424 183.7928,124.4672 182.4392,124.4672 180.5672C124.4672 180.3656,124.4672 180.1928,124.4384 179.9912C124.1216 177.8888,122.71039999999999 176.3336,121.0688 176.276C120.6656 176.2472,120.464 176.0744,120.464 175.8152C120.464 175.4696,120.6368 175.3256,121.0688 175.3256C122.48 175.2392,123.6896 174.2888,124.1504 172.8488C124.2656 172.5608,124.2944 172.2728,124.2944 172.0424C124.2944 170.8328,123.4016 169.7384,122.0768 169.4504C121.8752 169.364,121.616 169.364,121.328 169.364C120.9248 169.364,120.5504 169.3928,120.1472 169.4504L120.032 169.4792L120.1472 169.5656C120.896 169.9688,121.2128 170.68880000000001,121.2128 171.4088C121.2128 172.3592,120.5792 173.3096,119.4848 173.5688C119.3408 173.5976,119.168 173.5976,119.024 173.5976C117.7568 173.5976,116.8064 172.4456,116.8064 171.236C116.8064 170.7176,116.9792 170.1992,117.4112 169.7672C118.4192 168.6728,119.9456 168.0392,121.8464 167.8376M122.71039999999999 186.5288L122.7392 186.5288L122.6528 186.5288L122.71039999999999 186.5288M122.71039999999999 167.1176L122.7392 167.1176L122.6528 167.1176L122.71039999999999 167.1176"></path><path stroke-width="0.3" fill="#000000" stroke="none" stroke-dasharray="none" d="M116 206.5M121.0112 188.1544C121.04 188.1256,121.4432 188.1256,122.6816 188.1256C123.056 188.1256,123.4592 188.1256,123.9776 188.1256L126.8864 188.1256L126.9728 188.212C127.1168 188.29840000000002,127.2032 188.4424,127.2032 188.5576C127.2032 188.7304,127.1168 188.8456,127.0016 188.9608C126.9728 189.0472,126.7136 189.2776,126.5408 189.5368L125.0144 191.2936L123.056 193.5112L122.0192 194.692L120.464 196.4776L118.4192 198.8104C118.0736 199.2424,117.6992 199.588,117.6992 199.588C117.6992 199.588,117.6992 199.588,117.6992 199.588C117.6992 199.6456,117.9584 199.6456,120.3488 199.6456L122.9696 199.6456L122.9696 197.7736C122.9696 195.8728,122.9696 195.844,122.9984 195.8152C123.056 195.7288,123.3152 195.412,124.3232 194.2312L124.7264 193.7992L125.1296 193.3672L125.7344 192.5896L126.368 191.9272L126.6848 191.524C126.8 191.3512,126.9728 191.3224,127.1168 191.3224C127.28960000000001 191.3224,127.4336 191.4088,127.52 191.5528C127.5488 191.6392,127.5488 191.6968,127.5488 193.828C127.5488 194.3176,127.5488 194.9224,127.5488 195.6424L127.5488 199.6456L128.2688 199.6456C128.9312 199.6456,128.96 199.6456,129.0464 199.6744C129.2768 199.7608,129.392 199.9912,129.392 200.2504C129.392 200.3944,129.3632 200.5672,129.248 200.6824C129.0752 200.8264,129.0464 200.8264,128.2688 200.8264L127.5488 200.8264L127.5488 201.316C127.5776 202.7848,127.8656 203.3608,128.9888 203.9656C129.392 204.1672,129.4784 204.2248,129.4784 204.5128C129.4784 204.7144,129.42079999999999 204.8008,129.2768 204.916L129.1904 204.9448L125.2448 204.9448L121.328 204.9448L121.2416 204.916C121.0688 204.8008,121.04 204.7144,121.04 204.5128C121.04 204.2248,121.0688 204.1672,121.5008 203.9656C122.624 203.3608,122.912 202.7848,122.912 201.316L122.912 200.8264L119.6 200.8264C118.9952 200.88400000000001,118.5056 200.88400000000001,118.1024 200.88400000000001C116.288 200.88400000000001,116.2592 200.8264,116.2304 200.8264C116.0576 200.7688,116 200.596,116 200.3944C116 200.3944,116 200.3944,116 200.3944C116 200.1928,116 200.1928,116.576 199.5304C118.9952 196.5928,120.6944 192.3304,120.6944 188.93200000000002C120.6944 188.4136,120.7808 188.2408,121.0112 188.1544M122.7392 206.5288L122.768 206.5288L122.6816 206.5288L122.7392 206.5288M122.7392 187.1176L122.768 187.1176L122.6816 187.1176L122.7392 187.1176"></path><path stroke-width="1" fill="none" stroke="#000000" stroke-dasharray="none" d="M138.4784 216.5L156.49663999999999 216.5"></path><g class="vf-stavenote" id="vf-auto3456976"><g class="vf-note" pointer-events="bounding-box"><g class="vf-stem" pointer-events="bounding-box"><path stroke-width="1.5" fill="none" stroke="#000000" stroke-dasharray="none" class="vf-stem" id="vf-auto3456976-stem" d="M152.74663999999999 221.5L152.74663999999999 186.5"></path></g><g class="vf-notehead" pointer-events="bounding-box"><path stroke-width="0.3" fill="#000000" stroke="none" stroke-dasharray="none" d="M141.4784 221.5M148.83535999999998 216.27712C148.94768 216.27712,149.11615999999998 216.27712,149.14424 216.27712C149.14424 216.27712,149.17231999999998 216.27712,149.17231999999998 216.27712C149.17231999999998 216.27712,149.3408 216.27712,149.4812 216.27712C152.0084 216.41752,153.49663999999999 218.07424,153.49663999999999 220.15216C153.49663999999999 221.16304,153.15967999999998 222.31432,152.31727999999998 223.40944C150.71671999999998 225.5716,148.10528 226.75096,145.83079999999998 226.75096C144.06176 226.75096,142.54543999999999 226.04896,141.81536 224.61688C141.59072 224.05528,141.4784 223.52176,141.4784 222.93208C141.4784 219.87136,144.90416 216.47368,148.83535999999998 216.27712"></path></g></g><g class="vf-modifiers"></g></g><g class="vf-stavenote" id="vf-auto3456984"><g class="vf-note" pointer-events="bounding-box"><g class="vf-stem" pointer-events="bounding-box"><path stroke-width="1.5" fill="none" stroke="#000000" stroke-dasharray="none" class="vf-stem" id="vf-auto3456984-stem" d="M245.09437333333332 201.5L245.09437333333332 166.5"></path></g><g class="vf-notehead" pointer-events="bounding-box"><path stroke-width="0.3" fill="#000000" stroke="none" stroke-dasharray="none" d="M233.82613333333333 201.5M241.18309333333332 196.27712C241.29541333333333 196.27712,241.46389333333332 196.27712,241.49197333333333 196.27712C241.49197333333333 196.27712,241.52005333333332 196.27712,241.52005333333332 196.27712C241.52005333333332 196.27712,241.68853333333334 196.27712,241.82893333333334 196.27712C244.35613333333333 196.41752,245.84437333333332 198.07424,245.84437333333332 200.15216C245.84437333333332 201.16304,245.50741333333332 202.31432,244.66501333333332 203.40944C243.06445333333332 205.5716,240.45301333333333 206.75096,238.17853333333332 206.75096C236.40949333333333 206.75096,234.89317333333332 206.04896,234.16309333333334 204.61688C233.93845333333334 204.05528,233.82613333333333 203.52176,233.82613333333333 202.93208C233.82613333333333 199.87136,237.25189333333333 196.47368,241.18309333333332 196.27712"></path></g></g><g class="vf-modifiers"></g></g><path stroke-width="1" fill="none" stroke="#000000" stroke-dasharray="none" d="M278.7035168 166.5L405.42863359999996 166.5"></path><path stroke-width="1" fill="none" stroke="#000000" stroke-dasharray="none" d="M278.7035168 176.5L405.42863359999996 176.5"></path><path stroke-width="1" fill="none" stroke="#000000" stroke-dasharray="none" d="M278.7035168 186.5L405.42863359999996 186.5"></path><path stroke-width="1" fill="none" stroke="#000000" stroke-dasharray="none" d="M278.7035168 196.5L405.42863359999996 196.5"></path><path stroke-width="1" fill="none" stroke="#000000" stroke-dasharray="none" d="M278.7035168 206.5L405.42863359999996 206.5"></path><rect stroke-width="0.3" fill="#000000" stroke="#000000" stroke-dasharray="none" x="405.42863359999996" y="166" width="1" height="41"></rect><path stroke-width="1" fill="none" stroke="#000000" stroke-dasharray="none" d="M292.7035168 216.5L310.7217568 216.5"></path><g class="vf-stavenote" id="vf-auto3457005"><g class="vf-note" pointer-events="bounding-box"><g class="vf-stem" pointer-events="bounding-box"><path stroke-width="1.5" fill="none" stroke="#000000" stroke-dasharray="none" class="vf-stem" id="vf-auto3457005-stem" d="M306.9717568 221.5L306.9717568 186.5"></path></g><g class="vf-notehead" pointer-events="bounding-box"><path stroke-width="0.3" fill="#000000" stroke="none" stroke-dasharray="none" d="M295.7035168 221.5M303.0604768 216.27712C303.1727968 216.27712,303.3412768 216.27712,303.3693568 216.27712C303.3693568 216.27712,303.3974368 216.27712,303.3974368 216.27712C303.3974368 216.27712,303.56591679999997 216.27712,303.70631679999997 216.27712C306.23351679999996 216.41752,307.7217568 218.07424,307.7217568 220.15216C307.7217568 221.16304,307.3847968 222.31432,306.5423968 223.40944C304.9418368 225.5716,302.3303968 226.75096,300.0559168 226.75096C298.2868768 226.75096,296.7705568 226.04896,296.04047679999996 224.61688C295.8158368 224.05528,295.7035168 223.52176,295.7035168 222.93208C295.7035168 219.87136,299.1292768 216.47368,303.0604768 216.27712"></path></g></g><g class="vf-modifiers"></g></g><g class="vf-stavenote" id="vf-auto3457013"><g class="vf-note" pointer-events="bounding-box"><g class="vf-stem" pointer-events="bounding-box"><path stroke-width="1.5" fill="none" stroke="#000000" stroke-dasharray="none" class="vf-stem" id="vf-auto3457013-stem" d="M380.9717568 201.5L380.9717568 166.5"></path></g><g class="vf-notehead" pointer-events="bounding-box"><path stroke-width="0.3" fill="#000000" stroke="none" stroke-dasharray="none" d="M369.7035168 201.5M377.0604768 196.27712C377.1727968 196.27712,377.3412768 196.27712,377.3693568 196.27712C377.3693568 196.27712,377.3974368 196.27712,377.3974368 196.27712C377.3974368 196.27712,377.56591679999997 196.27712,377.70631679999997 196.27712C380.23351679999996 196.41752,381.7217568 198.07424,381.7217568 200.15216C381.7217568 201.16304,381.3847968 202.31432,380.5423968 203.40944C378.9418368 205.5716,376.3303968 206.75096,374.0559168 206.75096C372.2868768 206.75096,370.7705568 206.04896,370.04047679999996 204.61688C369.8158368 204.05528,369.7035168 203.52176,369.7035168 202.93208C369.7035168 199.87136,373.1292768 196.47368,377.0604768 196.27712"></path></g></g><g class="vf-modifiers"></g></g><path stroke-width="1" fill="none" stroke="#000000" stroke-dasharray="none" d="M405.4286336 166.5L532.1537504 166.5"></path><path stroke-width="1" fill="none" stroke="#000000" stroke-dasharray="none" d="M405.4286336 176.5L532.1537504 176.5"></path><path stroke-width="1" fill="none" stroke="#000000" stroke-dasharray="none" d="M405.4286336 186.5L532.1537504 186.5"></path><path stroke-width="1" fill="none" stroke="#000000" stroke-dasharray="none" d="M405.4286336 196.5L532.1537504 196.5"></path><path stroke-width="1" fill="none" stroke="#000000" stroke-dasharray="none" d="M405.4286336 206.5L532.1537504 206.5"></path><rect stroke-width="0.3" fill="#000000" stroke="#000000" stroke-dasharray="none" x="532.1537504" y="166" width="1" height="41"></rect><path stroke-width="1" fill="none" stroke="#000000" stroke-dasharray="none" d="M419.4286336 216.5L437.4468736 216.5"></path><g class="vf-stavenote" id="vf-auto3457034"><g class="vf-note" pointer-events="bounding-box"><g class="vf-stem" pointer-events="bounding-box"><path stroke-width="1.5" fill="none" stroke="#000000" stroke-dasharray="none" class="vf-stem" id="vf-auto3457034-stem" d="M433.6968736 221.5L433.6968736 186.5"></path></g><g class="vf-notehead" pointer-events="bounding-box"><path stroke-width="0.3" fill="#000000" stroke="none" stroke-dasharray="none" d="M422.4286336 221.5M429.7855936 216.27712C429.89791360000004 216.27712,430.0663936 216.27712,430.0944736 216.27712C430.0944736 216.27712,430.1225536 216.27712,430.1225536 216.27712C430.1225536 216.27712,430.2910336 216.27712,430.4314336 216.27712C432.9586336 216.41752,434.4468736 218.07424,434.4468736 220.15216C434.4468736 221.16304,434.1099136 222.31432,433.26751360000003 223.40944C431.6669536 225.5716,429.05551360000004 226.75096,426.7810336 226.75096C425.01199360000004 226.75096,423.49567360000003 226.04896,422.7655936 224.61688C422.5409536 224.05528,422.4286336 223.52176,422.4286336 222.93208C422.4286336 219.87136,425.85439360000004 216.47368,429.7855936 216.27712"></path></g></g><g class="vf-modifiers"></g></g><g class="vf-stavenote" id="vf-auto3457042"><g class="vf-note" pointer-events="bounding-box"><g class="vf-stem" pointer-events="bounding-box"><path stroke-width="1.5" fill="none" stroke="#000000" stroke-dasharray="none" class="vf-stem" id="vf-auto3457042-stem" d="M460.1786336 181.5L460.1786336 216.5"></path></g><g class="vf-notehead" pointer-events="bounding-box"><path stroke-width="0.3" fill="#000000" stroke="none" stroke-dasharray="none" d="M459.4286336 181.5M466.7855936 176.27712C466.89791360000004 176.27712,467.0663936 176.27712,467.0944736 176.27712C467.0944736 176.27712,467.1225536 176.27712,467.1225536 176.27712C467.1225536 176.27712,467.2910336 176.27712,467.4314336 176.27712C469.9586336 176.41752,471.4468736 178.07424,471.4468736 180.15216C471.4468736 181.16304,471.1099136 182.31432,470.26751360000003 183.40944C468.6669536 185.5716,466.05551360000004 186.75096,463.7810336 186.75096C462.01199360000004 186.75096,460.49567360000003 186.04896,459.7655936 184.61688C459.5409536 184.05528,459.4286336 183.52176,459.4286336 182.93208C459.4286336 179.87136,462.85439360000004 176.47368,466.7855936 176.27712"></path></g></g><g class="vf-modifiers"></g></g><path stroke-width="1" fill="none" stroke="#000000" stroke-dasharray="none" d="M532.1537504 166.5L663.0788672 166.5"></path><path stroke-width="1" fill="none" stroke="#000000" stroke-dasharray="none" d="M532.1537504 176.5L663.0788672 176.5"></path><path stroke-width="1" fill="none" stroke="#000000" stroke-dasharray="none" d="M532.1537504 186.5L663.0788672 186.5"></path><path stroke-width="1" fill="none" stroke="#000000" stroke-dasharray="none" d="M532.1537504 196.5L663.0788672 196.5"></path><path stroke-width="1" fill="none" stroke="#000000" stroke-dasharray="none" d="M532.1537504 206.5L663.0788672 206.5"></path><rect stroke-width="0.3" fill="#000000" stroke="#000000" stroke-dasharray="none" x="658.0788672" y="166" width="1" height="41"></rect><rect stroke-width="0.3" fill="#000000" stroke="#000000" stroke-dasharray="none" x="661.0788672" y="166" width="3" height="41"></rect><path stroke-width="1" fill="none" stroke="#000000" stroke-dasharray="none" d="M546.1537504 216.5L564.1719904 216.5"></path><g class="vf-stavenote" id="vf-auto3457062"><g class="vf-note" pointer-events="bounding-box"><g class="vf-stem" pointer-events="bounding-box"><path stroke-width="1.5" fill="none" stroke="#000000" stroke-dasharray="none" class="vf-stem" id="vf-auto3457062-stem" d="M560.4219904 216.5L560.4219904 181.5"></path></g><g class="vf-notehead" pointer-events="bounding-box"><path stroke-width="0.3" fill="#000000" stroke="none" stroke-dasharray="none" d="M549.1537504 216.5M556.5107104 211.27712C556.6230304000001 211.27712,556.7915104 211.27712,556.8195904 211.27712C556.8195904 211.27712,556.8476704000001 211.27712,556.8476704000001 211.27712C556.8476704000001 211.27712,557.0161504 211.27712,557.1565504 211.27712C559.6837504 211.41752,561.1719904 213.07424,561.1719904 215.15216C561.1719904 216.16304,560.8350304 217.31432,559.9926304 218.40944C558.3920704000001 220.5716,555.7806304000001 221.75096,553.5061504 221.75096C551.7371104 221.75096,550.2207904 221.04896,549.4907104 219.61688C549.2660704 219.05528,549.1537504 218.52176,549.1537504 217.93208C549.1537504 214.87136,552.5795104 211.47368,556.5107104 211.27712"></path></g></g><g class="vf-modifiers"></g></g><g class="vf-stavenote" id="vf-auto3457070"><g class="vf-note" pointer-events="bounding-box"><g class="vf-stem" pointer-events="bounding-box"><path stroke-width="1.5" fill="none" stroke="#000000" stroke-dasharray="none" class="vf-stem" id="vf-auto3457070-stem" d="M598.7553237333334 196.5L598.7553237333334 161.5"></path></g><g class="vf-notehead" pointer-events="bounding-box"><path stroke-width="0.3" fill="#000000" stroke="none" stroke-dasharray="none" d="M587.4870837333334 196.5M594.8440437333334 191.27712C594.9563637333334 191.27712,595.1248437333334 191.27712,595.1529237333334 191.27712C595.1529237333334 191.27712,595.1810037333335 191.27712,595.1810037333335 191.27712C595.1810037333335 191.27712,595.3494837333334 191.27712,595.4898837333334 191.27712C598.0170837333334 191.41752,599.5053237333334 193.07424,599.5053237333334 195.15216C599.5053237333334 196.16304,599.1683637333334 197.31432,598.3259637333334 198.40944C596.7254037333335 200.5716,594.1139637333334 201.75096,591.8394837333334 201.75096C590.0704437333334 201.75096,588.5541237333334 201.04896,587.8240437333334 199.61688C587.5994037333334 199.05528,587.4870837333334 198.52176,587.4870837333334 197.93208C587.4870837333334 194.87136,590.9128437333334 191.47368,594.8440437333334 191.27712"></path></g></g><g class="vf-modifiers"></g></g><g class="vf-stavenote" id="vf-auto3457078"><g class="vf-note" pointer-events="bounding-box"><g class="vf-stem" pointer-events="bounding-box"><path stroke-width="1.5" fill="none" stroke="#000000" stroke-dasharray="none" class="vf-stem" id="vf-auto3457078-stem" d="M626.5704170666667 171.5L626.5704170666667 206.5"></path></g><g class="vf-notehead" pointer-events="bounding-box"><path stroke-width="0.3" fill="#000000" stroke="none" stroke-dasharray="none" d="M625.8204170666667 171.5M633.1773770666666 166.27712C633.2896970666667 166.27712,633.4581770666666 166.27712,633.4862570666667 166.27712C633.4862570666667 166.27712,633.5143370666667 166.27712,633.5143370666667 166.27712C633.5143370666667 166.27712,633.6828170666666 166.27712,633.8232170666666 166.27712C636.3504170666666 166.41752,637.8386570666667 168.07424,637.8386570666667 170.15216C637.8386570666667 171.16304,637.5016970666667 172.31432,636.6592970666667 173.40944C635.0587370666667 175.5716,632.4472970666667 176.75096,630.1728170666667 176.75096C628.4037770666666 176.75096,626.8874570666667 176.04896,626.1573770666666 174.61688C625.9327370666666 174.05528,625.8204170666667 173.52176,625.8204170666667 172.93208C625.8204170666667 169.87136,629.2461770666666 166.47368,633.1773770666666 166.27712"></path></g></g><g class="vf-modifiers"></g></g><g class="vf-text"><text stroke-width="0.3" fill="#000000" stroke="none" stroke-dasharray="none" font-family="Times New Roman" font-size="23px" font-weight="bold" font-style="italic" x="135.98752" y="249.29999999999998">pp</text></g><path stroke-width="1" fill="none" stroke="#000000" stroke-dasharray="none" d="M70 264.09999999999997L278.7035168 264.09999999999997"></path><path stroke-width="1" fill="none" stroke="#000000" stroke-dasharray="none" d="M70 274.09999999999997L278.7035168 274.09999999999997"></path><path stroke-width="1" fill="none" stroke="#000000" stroke-dasharray="none" d="M70 284.09999999999997L278.7035168 284.09999999999997"></path><path stroke-width="1" fill="none" stroke="#000000" stroke-dasharray="none" d="M70 294.09999999999997L278.7035168 294.09999999999997"></path><path stroke-width="1" fill="none" stroke="#000000" stroke-dasharray="none" d="M70 304.09999999999997L278.7035168 304.09999999999997"></path><rect stroke-width="0.3" fill="#000000" stroke="#000000" stroke-dasharray="none" x="278.7035168" y="263.59999999999997" width="1" height="41"></rect><g class="vf-clef"><path stroke-width="0.3" fill="#000000" stroke="none" stroke-dasharray="none" d="M75 274.09999999999997M83.8416 264.04879999999997C84.072 263.9912,84.3024 263.9912,84.5616 263.9912C85.5696 263.9912,86.7504 264.10639999999995,87.7584 264.308C92.4816 265.2872,95.736 268.484,96.3408 272.7464C96.3984 273.20719999999994,96.4272 273.63919999999996,96.4272 274.09999999999997C96.4272 276.69199999999995,95.5344 280.03279999999995,94.008 282.8264C90.3792 289.39279999999997,83.7552 294.116,75.8064 295.84399999999994C75.6624 295.84399999999994,75.5472 295.8728,75.4032 295.8728C75.1152 295.8728,74.9712 295.7,74.9712 295.44079999999997C74.9712 295.15279999999996,75.0288 295.0664,75.6048 294.83599999999996C84.7056 291.4088,90.7824 284.00719999999995,91.3296 275.71279999999996C91.3584 275.28079999999994,91.3584 274.79119999999995,91.3584 274.41679999999997C91.3584 270.3848,90.12 267.3896,87.7296 265.89199999999994C86.6928 265.22959999999995,85.5696 264.91279999999995,84.36 264.91279999999995C81.6816 264.91279999999995,78.9456 266.43919999999997,77.6784 269.00239999999997C77.6208 269.20399999999995,77.4192 269.63599999999997,77.4192 269.66479999999996C77.4192 269.66479999999996,77.4192 269.66479999999996,77.4192 269.66479999999996C77.4192 269.66479999999996,77.448 269.63599999999997,77.5344 269.6072C78.168 269.20399999999995,78.8592 269.00239999999997,79.5792 269.00239999999997C80.5872 269.00239999999997,81.6528 269.4344,82.4016 270.2408C83.0928 270.98959999999994,83.4672 271.9976,83.4672 272.9192C83.4672 274.79119999999995,82.0848 276.69199999999995,79.9248 276.8936C79.7808 276.8936,79.6368 276.9224,79.4928 276.9224C77.1024 276.9224,75.1728 274.73359999999997,75.1728 271.9688C75.1728 271.91119999999995,75.1728 271.8248,75.1728 271.796C75.288 267.6776,79.0608 264.308,83.8416 264.04879999999997M99.1632 267.90799999999996C99.2208 267.87919999999997,99.2496 267.87919999999997,99.336 267.87919999999997C99.5376 267.87919999999997,99.768 267.90799999999996,99.8256 267.9656C100.54560000000001 268.1672,100.8912 268.8008,100.8912 269.4056C100.8912 269.924,100.632 270.44239999999996,100.11359999999999 270.7304C99.912 270.8744,99.6528 270.90319999999997,99.39359999999999 270.90319999999997C98.9904 270.90319999999997,98.5584 270.7304,98.2704 270.356C98.03999999999999 270.068,97.9248 269.7512,97.9248 269.4344C97.9248 268.71439999999996,98.3856 267.9944,99.1632 267.90799999999996M99.1632 277.32559999999995C99.2208 277.32559999999995,99.2496 277.32559999999995,99.336 277.32559999999995C99.5376 277.32559999999995,99.768 277.35439999999994,99.8256 277.412C100.54560000000001 277.61359999999996,100.8912 278.24719999999996,100.8912 278.852C100.8912 279.37039999999996,100.632 279.88879999999995,100.11359999999999 280.14799999999997C99.912 280.292,99.6528 280.34959999999995,99.39359999999999 280.34959999999995C98.9904 280.34959999999995,98.5584 280.14799999999997,98.2704 279.8024C98.03999999999999 279.51439999999997,97.9248 279.19759999999997,97.9248 278.852C97.9248 278.13199999999995,98.3856 277.44079999999997,99.1632 277.32559999999995"></path></g><path stroke-width="0.3" fill="#000000" stroke="none" stroke-dasharray="none" d="M116.8352 284.09999999999997M121.8464 265.4376C121.904 265.4376,122.1056 265.4376,122.336 265.4376C122.71039999999999 265.4376,123.1712 265.4376,123.3152 265.4376C125.9648 265.7256,128.0384 267.1656,128.4128 269.03759999999994C128.4704 269.2104,128.4704 269.412,128.4704 269.61359999999996C128.4704 269.84399999999994,128.4704 270.0456,128.4128 270.1608C128.0384 271.51439999999997,126.45439999999999 272.7528,124.4384 273.3576C124.2944 273.41519999999997,124.2368 273.41519999999997,124.2368 273.44399999999996C124.2368 273.44399999999996,124.2368 273.44399999999996,124.2368 273.44399999999996C124.2656 273.44399999999996,124.352 273.47279999999995,124.4384 273.47279999999995C127.1744 274.4808,128.6144 276.4104,128.6144 278.28239999999994C128.6144 279.7224,127.80799999999999 281.10479999999995,125.9936 282.02639999999997C124.928 282.6024,123.7472 282.86159999999995,122.5952 282.86159999999995C120.6944 282.86159999999995,118.8224 282.1416,117.4976 280.8456C117.008 280.3848,116.8352 279.80879999999996,116.8352 279.23279999999994C116.8352 278.05199999999996,117.6704 276.92879999999997,119.0528 276.92879999999997L119.0528 276.92879999999997C120.4352 276.92879999999997,121.2128 277.9944,121.2128 279.0888C121.2128 279.924,120.7808 280.75919999999996,119.8016 281.1624C119.8016 281.1624,119.8016 281.1624,119.8016 281.1624C119.8016 281.1912,120.6368 281.364,121.0688 281.39279999999997C121.1264 281.39279999999997,121.184 281.39279999999997,121.2416 281.39279999999997C123.1424 281.39279999999997,124.4672 280.0392,124.4672 278.1672C124.4672 277.9656,124.4672 277.79279999999994,124.4384 277.59119999999996C124.1216 275.48879999999997,122.71039999999999 273.93359999999996,121.0688 273.876C120.6656 273.8472,120.464 273.6744,120.464 273.41519999999997C120.464 273.0696,120.6368 272.9256,121.0688 272.9256C122.48 272.83919999999995,123.6896 271.88879999999995,124.1504 270.44879999999995C124.2656 270.1608,124.2944 269.8728,124.2944 269.64239999999995C124.2944 268.4328,123.4016 267.3384,122.0768 267.05039999999997C121.8752 266.96399999999994,121.616 266.96399999999994,121.328 266.96399999999994C120.9248 266.96399999999994,120.5504 266.9928,120.1472 267.05039999999997L120.032 267.07919999999996L120.1472 267.1656C120.896 267.56879999999995,121.2128 268.2888,121.2128 269.00879999999995C121.2128 269.95919999999995,120.5792 270.90959999999995,119.4848 271.1688C119.3408 271.19759999999997,119.168 271.19759999999997,119.024 271.19759999999997C117.7568 271.19759999999997,116.8064 270.0456,116.8064 268.83599999999996C116.8064 268.31759999999997,116.9792 267.7992,117.4112 267.36719999999997C118.4192 266.27279999999996,119.9456 265.63919999999996,121.8464 265.4376M122.71039999999999 284.12879999999996L122.7392 284.12879999999996L122.6528 284.12879999999996L122.71039999999999 284.12879999999996M122.71039999999999 264.71759999999995L122.7392 264.71759999999995L122.6528 264.71759999999995L122.71039999999999 264.71759999999995"></path><path stroke-width="0.3" fill="#000000" stroke="none" stroke-dasharray="none" d="M116 304.09999999999997M121.0112 285.7544C121.04 285.7256,121.4432 285.7256,122.6816 285.7256C123.056 285.7256,123.4592 285.7256,123.9776 285.7256L126.8864 285.7256L126.9728 285.81199999999995C127.1168 285.8984,127.2032 286.0424,127.2032 286.15759999999995C127.2032 286.33039999999994,127.1168 286.44559999999996,127.0016 286.5608C126.9728 286.64719999999994,126.7136 286.8776,126.5408 287.1368L125.0144 288.8936L123.056 291.11119999999994L122.0192 292.292L120.464 294.07759999999996L118.4192 296.4104C118.0736 296.84239999999994,117.6992 297.188,117.6992 297.188C117.6992 297.188,117.6992 297.188,117.6992 297.188C117.6992 297.24559999999997,117.9584 297.24559999999997,120.3488 297.24559999999997L122.9696 297.24559999999997L122.9696 295.37359999999995C122.9696 293.47279999999995,122.9696 293.44399999999996,122.9984 293.41519999999997C123.056 293.32879999999994,123.3152 293.01199999999994,124.3232 291.83119999999997L124.7264 291.39919999999995L125.1296 290.9672L125.7344 290.1896L126.368 289.5272L126.6848 289.12399999999997C126.8 288.9512,126.9728 288.9224,127.1168 288.9224C127.28960000000001 288.9224,127.4336 289.00879999999995,127.52 289.15279999999996C127.5488 289.2392,127.5488 289.29679999999996,127.5488 291.42799999999994C127.5488 291.9176,127.5488 292.52239999999995,127.5488 293.2424L127.5488 297.24559999999997L128.2688 297.24559999999997C128.9312 297.24559999999997,128.96 297.24559999999997,129.0464 297.27439999999996C129.2768 297.3608,129.392 297.59119999999996,129.392 297.8504C129.392 297.9944,129.3632 298.1672,129.248 298.28239999999994C129.0752 298.42639999999994,129.0464 298.42639999999994,128.2688 298.42639999999994L127.5488 298.42639999999994L127.5488 298.91599999999994C127.5776 300.3848,127.8656 300.96079999999995,128.9888 301.56559999999996C129.392 301.76719999999995,129.4784 301.8248,129.4784 302.1128C129.4784 302.3144,129.42079999999999 302.40079999999995,129.2768 302.51599999999996L129.1904 302.54479999999995L125.2448 302.54479999999995L121.328 302.54479999999995L121.2416 302.51599999999996C121.0688 302.40079999999995,121.04 302.3144,121.04 302.1128C121.04 301.8248,121.0688 301.76719999999995,121.5008 301.56559999999996C122.624 300.96079999999995,122.912 300.3848,122.912 298.91599999999994L122.912 298.42639999999994L119.6 298.42639999999994C118.9952 298.484,118.5056 298.484,118.1024 298.484C116.288 298.484,116.2592 298.42639999999994,116.2304 298.42639999999994C116.0576 298.36879999999996,116 298.19599999999997,116 297.9944C116 297.9944,116 297.9944,116 297.9944C116 297.79279999999994,116 297.79279999999994,116.576 297.13039999999995C118.9952 294.1928,120.6944 289.93039999999996,120.6944 286.532C120.6944 286.01359999999994,120.7808 285.84079999999994,121.0112 285.7544M122.7392 304.12879999999996L122.768 304.12879999999996L122.6816 304.12879999999996L122.7392 304.12879999999996M122.7392 284.71759999999995L122.768 284.71759999999995L122.6816 284.71759999999995L122.7392 284.71759999999995"></path><g class="vf-stavenote" id="vf-auto3456994"><g class="vf-note" pointer-events="bounding-box"><g class="vf-stem" pointer-events="bounding-box"><path stroke-width="1.5" fill="none" stroke="#000000" stroke-dasharray="none" class="vf-stem" id="vf-auto3456994-stem" d="M198.92050666666665 284.09999999999997L198.92050666666665 249.09999999999997"></path></g><g class="vf-notehead" pointer-events="bounding-box"><path stroke-width="0.3" fill="#000000" stroke="none" stroke-dasharray="none" d="M187.65226666666666 284.09999999999997M195.00922666666665 278.87712C195.12154666666666 278.87712,195.29002666666668 278.87712,195.31810666666667 278.87712C195.31810666666667 278.87712,195.34618666666665 278.87712,195.34618666666665 278.87712C195.34618666666665 278.87712,195.51466666666667 278.87712,195.65506666666667 278.87712C198.18226666666666 279.01752,199.67050666666665 280.67423999999994,199.67050666666665 282.75215999999995C199.67050666666665 283.76304,199.33354666666668 284.91432,198.49114666666665 286.00944C196.89058666666665 288.17159999999996,194.27914666666666 289.35096,192.00466666666665 289.35096C190.23562666666666 289.35096,188.71930666666665 288.64896,187.98922666666667 287.21687999999995C187.76458666666667 286.65527999999995,187.65226666666666 286.12175999999994,187.65226666666666 285.53207999999995C187.65226666666666 282.47135999999995,191.07802666666666 279.07367999999997,195.00922666666665 278.87712"></path></g></g><g class="vf-modifiers"></g></g><rect stroke-width="0.3" fill="#000000" stroke="#000000" stroke-dasharray="none" x="278.7035168" y="166.5" width="1" height="138.59999999999997"></rect><rect stroke-width="0.3" fill="#000000" stroke="#000000" stroke-dasharray="none" x="70" y="166.5" width="1" height="138.59999999999997"></rect><path stroke-width="1" fill="none" stroke="#000000" stroke-dasharray="none" d="M278.7035168 264.09999999999997L405.42863359999996 264.09999999999997"></path><path stroke-width="1" fill="none" stroke="#000000" stroke-dasharray="none" d="M278.7035168 274.09999999999997L405.42863359999996 274.09999999999997"></path><path stroke-width="1" fill="none" stroke="#000000" stroke-dasharray="none" d="M278.7035168 284.09999999999997L405.42863359999996 284.09999999999997"></path><path stroke-width="1" fill="none" stroke="#000000" stroke-dasharray="none" d="M278.7035168 294.09999999999997L405.42863359999996 294.09999999999997"></path><path stroke-width="1" fill="none" stroke="#000000" stroke-dasharray="none" d="M278.7035168 304.09999999999997L405.42863359999996 304.09999999999997"></path><rect stroke-width="0.3" fill="#000000" stroke="#000000" stroke-dasharray="none" x="405.42863359999996" y="263.59999999999997" width="1" height="41"></rect><g class="vf-stavenote" id="vf-auto3457023"><g class="vf-note" pointer-events="bounding-box"><g class="vf-stem" pointer-events="bounding-box"><path stroke-width="1.5" fill="none" stroke="#000000" stroke-dasharray="none" class="vf-stem" id="vf-auto3457023-stem" d="M333.4535168 259.09999999999997L333.4535168 294.09999999999997"></path></g><g class="vf-notehead" pointer-events="bounding-box"><path stroke-width="0.3" fill="#000000" stroke="none" stroke-dasharray="none" d="M332.7035168 259.09999999999997M340.0604768 253.87711999999996C340.1727968 253.87711999999996,340.3412768 253.87711999999996,340.3693568 253.87711999999996C340.3693568 253.87711999999996,340.3974368 253.87711999999996,340.3974368 253.87711999999996C340.3974368 253.87711999999996,340.56591679999997 253.87711999999996,340.70631679999997 253.87711999999996C343.23351679999996 254.01751999999996,344.7217568 255.67423999999997,344.7217568 257.75215999999995C344.7217568 258.76304,344.3847968 259.91432,343.5423968 261.00944C341.9418368 263.17159999999996,339.3303968 264.35096,337.0559168 264.35096C335.2868768 264.35096,333.7705568 263.64896,333.04047679999996 262.21687999999995C332.8158368 261.65527999999995,332.7035168 261.12175999999994,332.7035168 260.53207999999995C332.7035168 257.47135999999995,336.1292768 254.07367999999997,340.0604768 253.87711999999996"></path></g></g><g class="vf-modifiers"></g></g><rect stroke-width="0.3" fill="#000000" stroke="#000000" stroke-dasharray="none" x="405.42863359999996" y="166.5" width="1" height="138.59999999999997"></rect><path stroke-width="1" fill="none" stroke="#000000" stroke-dasharray="none" d="M405.4286336 264.09999999999997L532.1537504 264.09999999999997"></path><path stroke-width="1" fill="none" stroke="#000000" stroke-dasharray="none" d="M405.4286336 274.09999999999997L532.1537504 274.09999999999997"></path><path stroke-width="1" fill="none" stroke="#000000" stroke-dasharray="none" d="M405.4286336 284.09999999999997L532.1537504 284.09999999999997"></path><path stroke-width="1" fill="none" stroke="#000000" stroke-dasharray="none" d="M405.4286336 294.09999999999997L532.1537504 294.09999999999997"></path><path stroke-width="1" fill="none" stroke="#000000" stroke-dasharray="none" d="M405.4286336 304.09999999999997L532.1537504 304.09999999999997"></path><rect stroke-width="0.3" fill="#000000" stroke="#000000" stroke-dasharray="none" x="532.1537504" y="263.59999999999997" width="1" height="41"></rect><g class="vf-stavenote" id="vf-auto3457052"><g class="vf-note" pointer-events="bounding-box"><g class="vf-stem" pointer-events="bounding-box"><path stroke-width="1.5" fill="none" stroke="#000000" stroke-dasharray="none" class="vf-stem" id="vf-auto3457052-stem" d="M497.1786336 279.09999999999997L497.1786336 314.09999999999997"></path></g><g class="vf-notehead" pointer-events="bounding-box"><path stroke-width="0.3" fill="#000000" stroke="none" stroke-dasharray="none" d="M496.4286336 279.09999999999997M503.7855936 273.87712C503.89791360000004 273.87712,504.0663936 273.87712,504.0944736 273.87712C504.0944736 273.87712,504.1225536 273.87712,504.1225536 273.87712C504.1225536 273.87712,504.2910336 273.87712,504.4314336 273.87712C506.9586336 274.01752,508.4468736 275.67423999999994,508.4468736 277.75215999999995C508.4468736 278.76304,508.1099136 279.91432,507.26751360000003 281.00944C505.6669536 283.17159999999996,503.05551360000004 284.35096,500.7810336 284.35096C499.01199360000004 284.35096,497.49567360000003 283.64896,496.7655936 282.21687999999995C496.5409536 281.65527999999995,496.4286336 281.12175999999994,496.4286336 280.53207999999995C496.4286336 277.47135999999995,499.85439360000004 274.07367999999997,503.7855936 273.87712"></path></g></g><g class="vf-modifiers"></g></g><rect stroke-width="0.3" fill="#000000" stroke="#000000" stroke-dasharray="none" x="532.1537504" y="166.5" width="1" height="138.59999999999997"></rect><path stroke-width="1" fill="none" stroke="#000000" stroke-dasharray="none" d="M532.1537504 264.09999999999997L663.0788672 264.09999999999997"></path><path stroke-width="1" fill="none" stroke="#000000" stroke-dasharray="none" d="M532.1537504 274.09999999999997L663.0788672 274.09999999999997"></path><path stroke-width="1" fill="none" stroke="#000000" stroke-dasharray="none" d="M532.1537504 284.09999999999997L663.0788672 284.09999999999997"></path><path stroke-width="1" fill="none" stroke="#000000" stroke-dasharray="none" d="M532.1537504 294.09999999999997L663.0788672 294.09999999999997"></path><path stroke-width="1" fill="none" stroke="#000000" stroke-dasharray="none" d="M532.1537504 304.09999999999997L663.0788672 304.09999999999997"></path><rect stroke-width="0.3" fill="#000000" stroke="#000000" stroke-dasharray="none" x="658.0788672" y="263.59999999999997" width="1" height="41"></rect><rect stroke-width="0.3" fill="#000000" stroke="#000000" stroke-dasharray="none" x="661.0788672" y="263.59999999999997" width="3" height="41"></rect><rect stroke-width="0.3" fill="#000000" stroke="#000000" stroke-dasharray="none" x="658.0788672" y="166.5" width="1" height="138.59999999999997"></rect><rect stroke-width="0.3" fill="#000000" stroke="#000000" stroke-dasharray="none" x="661.0788672" y="166.5" width="3" height="138.59999999999997"></rect><path stroke-width="0.3" fill="#000000" stroke="none" stroke-dasharray="none" d="M68 166.5C45.2 194.22,81.2 217.089,56 235.79999999999998C81.2 254.51099999999997,45.2 277.38,68 305.09999999999997C44 277.38,72.8 254.51099999999997,56 235.79999999999998C72.8 217.089,44 194.22,68 166.5"></path><path stroke-width="1" fill="none" stroke="#000000" stroke-dasharray="none" d="M68 166.5C45.2 194.22,81.2 217.089,56 235.79999999999998C81.2 254.51099999999997,45.2 277.38,68 305.09999999999997C44 277.38,72.8 254.51099999999997,56 235.79999999999998C72.8 217.089,44 194.22,68 166.5"></path><g class="vf-text"><text stroke-width="0.3" fill="#000000" stroke="none" stroke-dasharray="none" font-family="Times New Roman" font-size="15px" font-weight="normal" font-style="normal" x="401.92863359999996" y="163.5">3</text></g></svg>