<svg xmlns="http://www.w3.org/2000/svg"  width="1470" height="390.79999999999995" viewBox="0 0 1470 390.79999999999995"><path stroke-width="1" fill="none" stroke="#000000" stroke-dasharray="none" d="M70 166.5L270.30351679999995 166.5"></path><path stroke-width="1" fill="none" stroke="#000000" stroke-dasharray="none" d="M70 176.5L270.30351679999995 176.5"></path><path stroke-width="1" fill="none" stroke="#000000" stroke-dasharray="none" d="M70 186.5L270.30351679999995 186.5"></path><path stroke-width="1" fill="none" stroke="#000000" stroke-dasharray="none" d="M70 196.5L270.30351679999995 196.5"></path><path stroke-width="1" fill="none" stroke="#000000" stroke-dasharray="none" d="M70 206.5L270.30351679999995 206.5"></path><rect stroke-width="0.3" fill="#000000" stroke="#000000" stroke-dasharray="none" x="270.30351679999995" y="166" width="1" height="41"></rect><g class="vf-clef"><path stroke-width="0.3" fill="#000000" stroke="none" stroke-dasharray="none" d="M75 196.5M89.0544 153.3288C89.112 153.3,89.1696 153.3,89.256 153.3C89.6016 153.3,90.0048 153.588,90.5808 154.308C92.9136 156.9864,94.5552 161.652,94.5552 165.4536C94.5552 165.7416,94.4976 165.972,94.4976 166.26C94.2384 170.7816,92.3952 174.4968,88.7376 178.0104L87.7584 178.9608L87.4128 179.3352L87.4128 179.4504L87.6144 180.3144L87.9312 181.8696L88.248 183.3096C88.68 185.268,88.8528 186.276,88.8528 186.276C88.8528 186.276,88.8528 186.276,88.8528 186.276C88.8528 186.276,88.968 186.276,89.112 186.2472C89.256 186.2472,89.7168 186.1896,90.2064 186.1896C90.55199999999999 186.1896,90.8976 186.2472,91.0704 186.2472C95.1312 186.7656,98.2704 189.6744,99.1632 193.764C99.336 194.4264,99.39359999999999 195.1464,99.39359999999999 195.8664C99.39359999999999 199.7544,97.0608 203.4696,93.1728 205.2264C92.94239999999999 205.3704,92.856 205.3992,92.856 205.3992L92.856 205.428C92.856 205.428,93.0288 206.0904,93.1728 206.8392L93.6048 209.028L94.008 210.7848C94.2384 211.908,94.3536 212.7144,94.3536 213.4344C94.3536 214.06799999999998,94.2672 214.644,94.1232 215.3064C93.144 219.3096,89.6592 221.7,86.0304 221.7C84.2448 221.7,82.4016 221.124,80.7888 219.828C79.3488 218.6184,78.7152 217.524,78.7152 216.084C78.7152 213.5496,80.76 211.764,82.8912 211.764C83.64 211.764,84.3888 211.99439999999998,85.1088 212.4264C86.3184 213.2616,86.8656 214.5288,86.8656 215.7672C86.8656 217.668,85.5408 219.54,83.2656 219.684L83.0352 219.684L83.208 219.79919999999998C84.1584 220.2024,85.1088 220.404,86.0304 220.404C88.3632 220.404,90.55199999999999 219.2232,91.8768 217.1784C92.62559999999999 216.0264,93.0288 214.6728,93.0288 213.3192C93.0288 212.8008,92.94239999999999 212.2824,92.8272 211.7064C92.8272 211.6488,92.74080000000001 211.188,92.62559999999999 210.756C91.992 207.6456,91.6176 205.8312,91.6176 205.8312C91.6176 205.8312,91.6176 205.8312,91.6176 205.8312C91.56 205.8312,91.4448 205.8312,91.3584 205.8888C91.0704 205.9464,90.4656 206.0904,90.2064 206.1192C89.5728 206.2056,88.968 206.2344,88.392 206.2344C82.74719999999999 206.2344,77.5056 202.4328,75.6912 196.8168C75.2304 195.3192,74.9712 193.8216,74.9712 192.324C74.9712 189.3288,75.9216 186.3912,77.7648 183.7704C79.7808 180.9192,81.7968 178.4712,84.2736 175.9368L85.13759999999999 175.044L84.936 173.9784L84.5616 172.2216L84.072 169.9752C83.928 169.14,83.7552 168.3336,83.7264 168.1608C83.5824 167.2104,83.496 166.2888,83.496 165.3384C83.496 161.7096,84.6768 158.22480000000002,86.8944 155.4312C87.5568 154.5672,88.7376 153.4152,89.0544 153.3288M90.8112 159.0312C90.7536 159.0312,90.6672 159.0312,90.5808 159.0312C89.4 159.0312,87.8736 160.1256,86.8368 161.7384C85.7712 163.32240000000002,85.224 165.4248,85.224 167.5848C85.224 168.1608,85.25280000000001 168.7656,85.3392 169.3704C85.4256 169.8024,85.45439999999999 170.0904,85.6848 171.12720000000002L86.088 172.9416C86.2032 173.4888,86.28960000000001 173.92079999999999,86.28960000000001 173.9784L86.28960000000001 173.9784C86.3184 173.9784,87.2112 172.9992,87.4992 172.6536C90.3792 169.3992,92.1072 165.972,92.4816 162.948C92.5104 162.66,92.5104 162.4296,92.5104 162.1416C92.5104 161.24880000000002,92.3952 160.38479999999998,92.1936 159.924C91.9632 159.4632,91.4448 159.0888,90.8112 159.0312M86.4624 181.2936C86.4048 180.8904,86.3184 180.5736,86.3184 180.516C86.3184 180.516,86.3184 180.516,86.28960000000001 180.516C86.232 180.516,84.9936 181.956,84.1296 182.964C82.6608 184.7496,81.1056 186.8808,80.472 187.9176C79.2624 189.9624,78.6576 192.2376,78.6576 194.484C78.6576 195.9528,78.9456 197.364,79.464 198.7176C81.0192 202.7208,84.5904 205.2264,88.4784 205.2264C88.9392 205.2264,89.4576 205.1976,89.9472 205.1112C90.5808 204.996,91.3584 204.7656,91.3584 204.6792L91.3584 204.6792C91.3584 204.6792,91.3008 204.3912,91.2144 204.0744L90.3792 199.956L89.7168 196.8744L89.2848 194.7432L88.824 192.6696C88.5936 191.4312,88.5072 191.1144,88.5072 191.1144C88.5072 191.1144,88.5072 191.0856,88.4784 191.0856C88.3056 191.0856,87.384 191.5464,86.9808 191.8344C85.4832 192.8712,84.7056 194.5128,84.7056 196.1256C84.7056 197.652,85.45439999999999 199.1784,86.8944 200.0712C87.2112 200.2728,87.3264 200.4456,87.3264 200.6472C87.3264 200.676,87.3264 200.7624,87.3264 200.7912C87.2688 201.1368,87.0672 201.2808,86.7792 201.2808C86.664 201.2808,86.52 201.252,86.3472 201.1656C83.6976 200.0136,81.912 197.2776,81.912 194.2824L81.912 194.2824C81.912 190.8264,84.072 187.8312,87.384 186.6504L87.5568 186.5928L87.2688 185.1528L86.4624 181.2936M90.7824 190.9128C90.55199999999999 190.88400000000001,90.3216 190.88400000000001,90.1488 190.88400000000001C90.0912 190.88400000000001,90.0048 190.88400000000001,89.9472 190.88400000000001L89.8032 190.88400000000001L89.9184 191.4024L90.5232 194.2248L90.8976 196.068L91.3008 197.8824L92.1072 201.8856L92.424 203.412C92.5392 203.8152,92.5968 204.1608,92.62559999999999 204.1608C92.62559999999999 204.1608,92.62559999999999 204.1608,92.62559999999999 204.1608C92.6544 204.1608,93.144 203.8728,93.4608 203.6424C94.9296 202.6056,96.024 200.9928,96.4272 199.3224C96.5712 198.7752,96.6288 198.1992,96.6288 197.652C96.6288 194.3112,94.152 191.2872,90.7824 190.9128"></path></g><path stroke-width="0.3" fill="#000000" stroke="none" stroke-dasharray="none" d="M116.8352 186.5M121.8464 167.8376C121.904 167.8376,122.1056 167.8376,122.336 167.8376C122.71039999999999 167.8376,123.1712 167.8376,123.3152 167.8376C125.9648 168.1256,128.0384 169.5656,128.4128 171.4376C128.4704 171.6104,128.4704 171.812,128.4704 172.0136C128.4704 172.244,128.4704 172.4456,128.4128 172.5608C128.0384 173.9144,126.45439999999999 175.1528,124.4384 175.7576C124.2944 175.8152,124.2368 175.8152,124.2368 175.844C124.2368 175.844,124.2368 175.844,124.2368 175.844C124.2656 175.844,124.352 175.8728,124.4384 175.8728C127.1744 176.8808,128.6144 178.8104,128.6144 180.6824C128.6144 182.1224,127.80799999999999 183.5048,125.9936 184.4264C124.928 185.0024,123.7472 185.2616,122.5952 185.2616C120.6944 185.2616,118.8224 184.5416,117.4976 183.2456C117.008 182.7848,116.8352 182.2088,116.8352 181.6328C116.8352 180.452,117.6704 179.3288,119.0528 179.3288L119.0528 179.3288C120.4352 179.3288,121.2128 180.3944,121.2128 181.4888C121.2128 182.324,120.7808 183.1592,119.8016 183.5624C119.8016 183.5624,119.8016 183.5624,119.8016 183.5624C119.8016 183.5912,120.6368 183.764,121.0688 183.7928C121.1264 183.7928,121.184 183.7928,121.2416 183.7928C123.1424 183.7928,124.4672 182.4392,124.4672 180.5672C124.4672 180.3656,124.4672 180.1928,124.4384 179.9912C124.1216 177.8888,122.71039999999999 176.3336,121.0688 176.276C120.6656 176.2472,120.464 176.0744,120.464 175.8152C120.464 175.4696,120.6368 175.3256,121.0688 175.3256C122.48 175.2392,123.6896 174.2888,124.1504 172.8488C124.2656 172.5608,124.2944 172.2728,124.2944 172.0424C124.2944 170.8328,123.4016 169.7384,122.0768 169.4504C121.8752 169.364,121.616 169.364,121.328 169.364C120.9248 169.364,120.5504 169.3928,120.1472 169.4504L120.032 169.4792L120.1472 169.5656C120.896 169.9688,121.2128 170.68880000000001,121.2128 171.4088C121.2128 172.3592,120.5792 173.3096,119.4848 173.5688C119.3408 173.5976,119.168 173.5976,119.024 173.5976C117.7568 173.5976,116.8064 172.4456,116.8064 171.236C116.8064 170.7176,116.9792 170.1992,117.4112 169.7672C118.4192 168.6728,119.9456 168.0392,121.8464 167.8376M122.71039999999999 186.5288L122.7392 186.5288L122.6528 186.5288L122.71039999999999 186.5288M122.71039999999999 167.1176L122.7392 167.1176L122.6528 167.1176L122.71039999999999 167.1176"></path><path stroke-width="0.3" fill="#000000" stroke="none" stroke-dasharray="none" d="M116 206.5M121.0112 188.1544C121.04 188.1256,121.4432 188.1256,122.6816 188.1256C123.056 188.1256,123.4592 188.1256,123.9776 188.1256L126.8864 188.1256L126.9728 188.212C127.1168 188.29840000000002,127.2032 188.4424,127.2032 188.5576C127.2032 188.7304,127.1168 188.8456,127.0016 188.9608C126.9728 189.0472,126.7136 189.2776,126.5408 189.5368L125.0144 191.2936L123.056 193.5112L122.0192 194.692L120.464 196.4776L118.4192 198.8104C118.0736 199.2424,117.6992 199.588,117.6992 199.588C117.6992 199.588,117.6992 199.588,117.6992 199.588C117.6992 199.6456,117.9584 199.6456,120.3488 199.6456L122.9696 199.6456L122.9696 197.7736C122.9696 195.8728,122.9696 195.844,122.9984 195.8152C123.056 195.7288,123.3152 195.412,124.3232 194.2312L124.7264 193.7992L125.1296 193.3672L125.7344 192.5896L126.368 191.9272L126.6848 191.524C126.8 191.3512,126.9728 191.3224,127.1168 191.3224C127.28960000000001 191.3224,127.4336 191.4088,127.52 191.5528C127.5488 191.6392,127.5488 191.6968,127.5488 193.828C127.5488 194.3176,127.5488 194.9224,127.5488 195.6424L127.5488 199.6456L128.2688 199.6456C128.9312 199.6456,128.96 199.6456,129.0464 199.6744C129.2768 199.7608,129.392 199.9912,129.392 200.2504C129.392 200.3944,129.3632 200.5672,129.248 200.6824C129.0752 200.8264,129.0464 200.8264,128.2688 200.8264L127.5488 200.8264L127.5488 201.316C127.5776 202.7848,127.8656 203.3608,128.9888 203.9656C129.392 204.1672,129.4784 204.2248,129.4784 204.5128C129.4784 204.7144,129.42079999999999 204.8008,129.2768 204.916L129.1904 204.9448L125.2448 204.9448L121.328 204.9448L121.2416 204.916C121.0688 204.8008,121.04 204.7144,121.04 204.5128C121.04 204.2248,121.0688 204.1672,121.5008 203.9656C122.624 203.3608,122.912 202.7848,122.912 201.316L122.912 200.8264L119.6 200.8264C118.9952 200.88400000000001,118.5056 200.88400000000001,118.1024 200.88400000000001C116.288 200.88400000000001,116.2592 200.8264,116.2304 200.8264C116.0576 200.7688,116 200.596,116 200.3944C116 200.3944,116 200.3944,116 200.3944C116 200.1928,116 200.1928,116.576 199.5304C118.9952 196.5928,120.6944 192.3304,120.6944 188.93200000000002C120.6944 188.4136,120.7808 188.2408,121.0112 188.1544M122.7392 206.5288L122.768 206.5288L122.6816 206.5288L122.7392 206.5288M122.7392 187.1176L122.768 187.1176L122.6816 187.1176L122.7392 187.1176"></path><path stroke-width="1" fill="none" stroke="#000000" stroke-dasharray="none" d="M270.30351679999995 166.5L392.82863359999993 166.5"></path><path stroke-width="1" fill="none" stroke="#000000" stroke-dasharray="none" d="M270.30351679999995 176.5L392.82863359999993 176.5"></path><path stroke-width="1" fill="none" stroke="#000000" stroke-dasharray="none" d="M270.30351679999995 186.5L392.82863359999993 186.5"></path><path stroke-width="1" fill="none" stroke="#000000" stroke-dasharray="none" d="M270.30351679999995 196.5L392.82863359999993 196.5"></path><path stroke-width="1" fill="none" stroke="#000000" stroke-dasharray="none" d="M270.30351679999995 206.5L392.82863359999993 206.5"></path><rect stroke-width="0.3" fill="#000000" stroke="#000000" stroke-dasharray="none" x="392.82863359999993" y="166" width="1" height="41"></rect><g class="vf-stavenote" id="vf-auto2710742"><g class="vf-note" pointer-events="bounding-box"><g class="vf-stem" pointer-events="bounding-box"><path stroke-width="1.5" fill="none" stroke="#000000" stroke-dasharray="none" class="vf-stem" id="vf-auto2710742-stem" d="M359.38685013333327 171.5L359.38685013333327 206.5"></path></g><g class="vf-notehead" pointer-events="bounding-box"><path stroke-width="0.3" fill="#000000" stroke="none" stroke-dasharray="none" d="M358.63685013333327 171.5M365.9938101333333 166.27712C366.1061301333333 166.27712,366.2746101333333 166.27712,366.3026901333333 166.27712C366.3026901333333 166.27712,366.33077013333326 166.27712,366.33077013333326 166.27712C366.33077013333326 166.27712,366.49925013333325 166.27712,366.63965013333325 166.27712C369.16685013333324 166.41752,370.65509013333326 168.07424,370.65509013333326 170.15216C370.65509013333326 171.16304,370.3181301333333 172.31432,369.4757301333333 173.40944C367.87517013333326 175.5716,365.2637301333333 176.75096,362.98925013333326 176.75096C361.2202101333333 176.75096,359.7038901333333 176.04896,358.97381013333325 174.61688C358.7491701333333 174.05528,358.63685013333327 173.52176,358.63685013333327 172.93208C358.63685013333327 169.87136,362.0626101333333 166.47368,365.9938101333333 166.27712"></path></g></g><g class="vf-modifiers"></g></g><path stroke-width="1" fill="none" stroke="#000000" stroke-dasharray="none" d="M392.82863359999993 166.5L515.3537503999999 166.5"></path><path stroke-width="1" fill="none" stroke="#000000" stroke-dasharray="none" d="M392.82863359999993 176.5L515.3537503999999 176.5"></path><path stroke-width="1" fill="none" stroke="#000000" stroke-dasharray="none" d="M392.82863359999993 186.5L515.3537503999999 186.5"></path><path stroke-width="1" fill="none" stroke="#000000" stroke-dasharray="none" d="M392.82863359999993 196.5L515.3537503999999 196.5"></path><path stroke-width="1" fill="none" stroke="#000000" stroke-dasharray="none" d="M392.82863359999993 206.5L515.3537503999999 206.5"></path><rect stroke-width="0.3" fill="#000000" stroke="#000000" stroke-dasharray="none" x="515.3537503999999" y="166" width="1" height="41"></rect><g class="vf-stavenote" id="vf-auto2710770"><g class="vf-note" pointer-events="bounding-box"><g class="vf-stem" pointer-events="bounding-box"><path stroke-width="1.5" fill="none" stroke="#000000" stroke-dasharray="none" class="vf-stem" id="vf-auto2710770-stem" d="M481.91196693333325 171.5L481.91196693333325 206.5"></path></g><g class="vf-notehead" pointer-events="bounding-box"><path stroke-width="0.3" fill="#000000" stroke="none" stroke-dasharray="none" d="M481.16196693333325 171.5M488.51892693333326 166.27712C488.6312469333333 166.27712,488.79972693333326 166.27712,488.82780693333325 166.27712C488.82780693333325 166.27712,488.85588693333324 166.27712,488.85588693333324 166.27712C488.85588693333324 166.27712,489.0243669333332 166.27712,489.1647669333332 166.27712C491.6919669333332 166.41752,493.18020693333324 168.07424,493.18020693333324 170.15216C493.18020693333324 171.16304,492.84324693333326 172.31432,492.00084693333326 173.40944C490.40028693333323 175.5716,487.7888469333333 176.75096,485.51436693333324 176.75096C483.7453269333333 176.75096,482.22900693333327 176.04896,481.4989269333332 174.61688C481.27428693333326 174.05528,481.16196693333325 173.52176,481.16196693333325 172.93208C481.16196693333325 169.87136,484.5877269333333 166.47368,488.51892693333326 166.27712"></path></g></g><g class="vf-modifiers"></g></g><path stroke-width="1" fill="none" stroke="#000000" stroke-dasharray="none" d="M515.3537503999999 166.5L652.0788671999999 166.5"></path><path stroke-width="1" fill="none" stroke="#000000" stroke-dasharray="none" d="M515.3537503999999 176.5L652.0788671999999 176.5"></path><path stroke-width="1" fill="none" stroke="#000000" stroke-dasharray="none" d="M515.3537503999999 186.5L652.0788671999999 186.5"></path><path stroke-width="1" fill="none" stroke="#000000" stroke-dasharray="none" d="M515.3537503999999 196.5L652.0788671999999 196.5"></path><path stroke-width="1" fill="none" stroke="#000000" stroke-dasharray="none" d="M515.3537503999999 206.5L652.0788671999999 206.5"></path><rect stroke-width="0.3" fill="#000000" stroke="#000000" stroke-dasharray="none" x="647.0788671999999" y="166" width="1" height="41"></rect><rect stroke-width="0.3" fill="#000000" stroke="#000000" stroke-dasharray="none" x="650.0788671999999" y="166" width="3" height="41"></rect><path stroke-width="0.3" fill="#000000" stroke="none" stroke-dasharray="none" d="M646.0788671999999 182 A2 2 0 0 0 642.0788671999999 182M642.0788671999999 182 A2 2 0 0 0 646.0788671999999 182"></path><path stroke-width="0.3" fill="#000000" stroke="none" stroke-dasharray="none" d="M646.0788671999999 192 A2 2 0 0 0 642.0788671999999 192M642.0788671999999 192 A2 2 0 0 0 646.0788671999999 192"></path><g class="vf-stavenote" id="vf-auto2710798"><g class="vf-note" pointer-events="bounding-box"><g class="vf-stem" pointer-events="bounding-box"><path stroke-width="1.5" fill="none" stroke="#000000" stroke-dasharray="none" class="vf-stem" id="vf-auto2710798-stem" d="M573.4370837333332 186.5L573.4370837333332 221.5"></path></g><g class="vf-notehead" pointer-events="bounding-box"><path stroke-width="0.3" fill="#000000" stroke="none" stroke-dasharray="none" d="M572.6870837333332 186.5M580.0440437333332 181.27712C580.1563637333333 181.27712,580.3248437333332 181.27712,580.3529237333332 181.27712C580.3529237333332 181.27712,580.3810037333333 181.27712,580.3810037333333 181.27712C580.3810037333333 181.27712,580.5494837333332 181.27712,580.6898837333332 181.27712C583.2170837333332 181.41752,584.7053237333332 183.07424,584.7053237333332 185.15216C584.7053237333332 186.16304,584.3683637333332 187.31432,583.5259637333332 188.40944C581.9254037333333 190.5716,579.3139637333333 191.75096,577.0394837333332 191.75096C575.2704437333332 191.75096,573.7541237333332 191.04896,573.0240437333332 189.61688C572.7994037333332 189.05528,572.6870837333332 188.52176,572.6870837333332 187.93208C572.6870837333332 184.87136,576.1128437333332 181.47368,580.0440437333332 181.27712"></path></g></g><g class="vf-modifiers"></g></g><g class="vf-stavenote" id="vf-auto2710806"><g class="vf-note" pointer-events="bounding-box"><g class="vf-stem" pointer-events="bounding-box"><path stroke-width="1.5" fill="none" stroke="#000000" stroke-dasharray="none" class="vf-stem" id="vf-auto2710806-stem" d="M624.2886570666665 191.5L624.2886570666665 156.5"></path></g><g class="vf-notehead" pointer-events="bounding-box"><path stroke-width="0.3" fill="#000000" stroke="none" stroke-dasharray="none" d="M613.0204170666665 191.5M620.3773770666664 186.27712C620.4896970666665 186.27712,620.6581770666664 186.27712,620.6862570666665 186.27712C620.6862570666665 186.27712,620.7143370666665 186.27712,620.7143370666665 186.27712C620.7143370666665 186.27712,620.8828170666665 186.27712,621.0232170666665 186.27712C623.5504170666665 186.41752,625.0386570666665 188.07424,625.0386570666665 190.15216C625.0386570666665 191.16304,624.7016970666665 192.31432,623.8592970666665 193.40944C622.2587370666665 195.5716,619.6472970666665 196.75096,617.3728170666665 196.75096C615.6037770666665 196.75096,614.0874570666665 196.04896,613.3573770666665 194.61688C613.1327370666664 194.05528,613.0204170666665 193.52176,613.0204170666665 192.93208C613.0204170666665 189.87136,616.4461770666665 186.47368,620.3773770666664 186.27712"></path></g></g><g class="vf-modifiers"></g></g><g class="vf-text"><text stroke-width="0.3" fill="#000000" stroke="none" stroke-dasharray="none" font-family="Times New Roman" font-size="23px" font-weight="bold" font-style="italic" x="156.4784" y="240.5">mp</text></g><path stroke-width="1" fill="none" stroke="#000000" stroke-dasharray="none" d="M70 265.29999999999995L270.30351679999995 265.29999999999995"></path><path stroke-width="1" fill="none" stroke="#000000" stroke-dasharray="none" d="M70 275.29999999999995L270.30351679999995 275.29999999999995"></path><path stroke-width="1" fill="none" stroke="#000000" stroke-dasharray="none" d="M70 285.29999999999995L270.30351679999995 285.29999999999995"></path><path stroke-width="1" fill="none" stroke="#000000" stroke-dasharray="none" d="M70 295.29999999999995L270.30351679999995 295.29999999999995"></path><path stroke-width="1" fill="none" stroke="#000000" stroke-dasharray="none" d="M70 305.29999999999995L270.30351679999995 305.29999999999995"></path><rect stroke-width="0.3" fill="#000000" stroke="#000000" stroke-dasharray="none" x="270.30351679999995" y="264.79999999999995" width="1" height="41"></rect><g class="vf-clef"><path stroke-width="0.3" fill="#000000" stroke="none" stroke-dasharray="none" d="M75 275.29999999999995M83.8416 265.24879999999996C84.072 265.1912,84.3024 265.1912,84.5616 265.1912C85.5696 265.1912,86.7504 265.30639999999994,87.7584 265.508C92.4816 266.4872,95.736 269.68399999999997,96.3408 273.9464C96.3984 274.40719999999993,96.4272 274.83919999999995,96.4272 275.29999999999995C96.4272 277.89199999999994,95.5344 281.23279999999994,94.008 284.02639999999997C90.3792 290.59279999999995,83.7552 295.316,75.8064 297.044C75.6624 297.044,75.5472 297.0728,75.4032 297.0728C75.1152 297.0728,74.9712 296.9,74.9712 296.64079999999996C74.9712 296.35279999999995,75.0288 296.2664,75.6048 296.03599999999994C84.7056 292.6088,90.7824 285.20719999999994,91.3296 276.91279999999995C91.3584 276.48079999999993,91.3584 275.99119999999994,91.3584 275.61679999999996C91.3584 271.5848,90.12 268.58959999999996,87.7296 267.0919999999999C86.6928 266.42959999999994,85.5696 266.11279999999994,84.36 266.11279999999994C81.6816 266.11279999999994,78.9456 267.63919999999996,77.6784 270.20239999999995C77.6208 270.40399999999994,77.4192 270.83599999999996,77.4192 270.86479999999995C77.4192 270.86479999999995,77.4192 270.86479999999995,77.4192 270.86479999999995C77.4192 270.86479999999995,77.448 270.83599999999996,77.5344 270.80719999999997C78.168 270.40399999999994,78.8592 270.20239999999995,79.5792 270.20239999999995C80.5872 270.20239999999995,81.6528 270.63439999999997,82.4016 271.44079999999997C83.0928 272.1895999999999,83.4672 273.19759999999997,83.4672 274.1192C83.4672 275.99119999999994,82.0848 277.89199999999994,79.9248 278.0936C79.7808 278.0936,79.6368 278.12239999999997,79.4928 278.12239999999997C77.1024 278.12239999999997,75.1728 275.93359999999996,75.1728 273.1688C75.1728 273.11119999999994,75.1728 273.02479999999997,75.1728 272.996C75.288 268.8776,79.0608 265.508,83.8416 265.24879999999996M99.1632 269.10799999999995C99.2208 269.07919999999996,99.2496 269.07919999999996,99.336 269.07919999999996C99.5376 269.07919999999996,99.768 269.10799999999995,99.8256 269.1655999999999C100.54560000000001 269.36719999999997,100.8912 270.00079999999997,100.8912 270.6056C100.8912 271.12399999999997,100.632 271.64239999999995,100.11359999999999 271.93039999999996C99.912 272.07439999999997,99.6528 272.10319999999996,99.39359999999999 272.10319999999996C98.9904 272.10319999999996,98.5584 271.93039999999996,98.2704 271.5559999999999C98.03999999999999 271.268,97.9248 270.9512,97.9248 270.63439999999997C97.9248 269.91439999999994,98.3856 269.1944,99.1632 269.10799999999995M99.1632 278.52559999999994C99.2208 278.52559999999994,99.2496 278.52559999999994,99.336 278.52559999999994C99.5376 278.52559999999994,99.768 278.55439999999993,99.8256 278.61199999999997C100.54560000000001 278.81359999999995,100.8912 279.44719999999995,100.8912 280.05199999999996C100.8912 280.57039999999995,100.632 281.08879999999994,100.11359999999999 281.34799999999996C99.912 281.49199999999996,99.6528 281.54959999999994,99.39359999999999 281.54959999999994C98.9904 281.54959999999994,98.5584 281.34799999999996,98.2704 281.00239999999997C98.03999999999999 280.71439999999996,97.9248 280.39759999999995,97.9248 280.05199999999996C97.9248 279.33199999999994,98.3856 278.64079999999996,99.1632 278.52559999999994"></path></g><path stroke-width="0.3" fill="#000000" stroke="none" stroke-dasharray="none" d="M116.8352 285.29999999999995M121.8464 266.63759999999996C121.904 266.63759999999996,122.1056 266.63759999999996,122.336 266.63759999999996C122.71039999999999 266.63759999999996,123.1712 266.63759999999996,123.3152 266.63759999999996C125.9648 266.9256,128.0384 268.3656,128.4128 270.23759999999993C128.4704 270.4104,128.4704 270.61199999999997,128.4704 270.81359999999995C128.4704 271.044,128.4704 271.24559999999997,128.4128 271.3607999999999C128.0384 272.71439999999996,126.45439999999999 273.95279999999997,124.4384 274.5576C124.2944 274.61519999999996,124.2368 274.61519999999996,124.2368 274.64399999999995C124.2368 274.64399999999995,124.2368 274.64399999999995,124.2368 274.64399999999995C124.2656 274.64399999999995,124.352 274.67279999999994,124.4384 274.67279999999994C127.1744 275.6808,128.6144 277.61039999999997,128.6144 279.4823999999999C128.6144 280.9224,127.80799999999999 282.30479999999994,125.9936 283.22639999999996C124.928 283.8024,123.7472 284.06159999999994,122.5952 284.06159999999994C120.6944 284.06159999999994,118.8224 283.34159999999997,117.4976 282.0456C117.008 281.5848,116.8352 281.00879999999995,116.8352 280.43279999999993C116.8352 279.25199999999995,117.6704 278.12879999999996,119.0528 278.12879999999996L119.0528 278.12879999999996C120.4352 278.12879999999996,121.2128 279.1944,121.2128 280.2888C121.2128 281.12399999999997,120.7808 281.95919999999995,119.8016 282.3624C119.8016 282.3624,119.8016 282.3624,119.8016 282.3624C119.8016 282.39119999999997,120.6368 282.56399999999996,121.0688 282.59279999999995C121.1264 282.59279999999995,121.184 282.59279999999995,121.2416 282.59279999999995C123.1424 282.59279999999995,124.4672 281.2392,124.4672 279.36719999999997C124.4672 279.1655999999999,124.4672 278.99279999999993,124.4384 278.79119999999995C124.1216 276.68879999999996,122.71039999999999 275.13359999999994,121.0688 275.07599999999996C120.6656 275.0472,120.464 274.8744,120.464 274.61519999999996C120.464 274.26959999999997,120.6368 274.12559999999996,121.0688 274.12559999999996C122.48 274.03919999999994,123.6896 273.08879999999994,124.1504 271.64879999999994C124.2656 271.3607999999999,124.2944 271.0728,124.2944 270.84239999999994C124.2944 269.6328,123.4016 268.53839999999997,122.0768 268.25039999999996C121.8752 268.16399999999993,121.616 268.16399999999993,121.328 268.16399999999993C120.9248 268.16399999999993,120.5504 268.1928,120.1472 268.25039999999996L120.032 268.27919999999995L120.1472 268.3656C120.896 268.76879999999994,121.2128 269.48879999999997,121.2128 270.20879999999994C121.2128 271.15919999999994,120.5792 272.10959999999994,119.4848 272.36879999999996C119.3408 272.39759999999995,119.168 272.39759999999995,119.024 272.39759999999995C117.7568 272.39759999999995,116.8064 271.24559999999997,116.8064 270.03599999999994C116.8064 269.51759999999996,116.9792 268.9992,117.4112 268.56719999999996C118.4192 267.47279999999995,119.9456 266.83919999999995,121.8464 266.63759999999996M122.71039999999999 285.32879999999994L122.7392 285.32879999999994L122.6528 285.32879999999994L122.71039999999999 285.32879999999994M122.71039999999999 265.91759999999994L122.7392 265.91759999999994L122.6528 265.91759999999994L122.71039999999999 265.91759999999994"></path><path stroke-width="0.3" fill="#000000" stroke="none" stroke-dasharray="none" d="M116 305.29999999999995M121.0112 286.95439999999996C121.04 286.9256,121.4432 286.9256,122.6816 286.9256C123.056 286.9256,123.4592 286.9256,123.9776 286.9256L126.8864 286.9256L126.9728 287.01199999999994C127.1168 287.09839999999997,127.2032 287.2424,127.2032 287.35759999999993C127.2032 287.53039999999993,127.1168 287.64559999999994,127.0016 287.76079999999996C126.9728 287.84719999999993,126.7136 288.07759999999996,126.5408 288.3367999999999L125.0144 290.0936L123.056 292.31119999999993L122.0192 293.49199999999996L120.464 295.27759999999995L118.4192 297.61039999999997C118.0736 298.04239999999993,117.6992 298.388,117.6992 298.388C117.6992 298.388,117.6992 298.388,117.6992 298.388C117.6992 298.44559999999996,117.9584 298.44559999999996,120.3488 298.44559999999996L122.9696 298.44559999999996L122.9696 296.57359999999994C122.9696 294.67279999999994,122.9696 294.64399999999995,122.9984 294.61519999999996C123.056 294.52879999999993,123.3152 294.21199999999993,124.3232 293.03119999999996L124.7264 292.59919999999994L125.1296 292.1672L125.7344 291.3896L126.368 290.7272L126.6848 290.32399999999996C126.8 290.15119999999996,126.9728 290.12239999999997,127.1168 290.12239999999997C127.28960000000001 290.12239999999997,127.4336 290.20879999999994,127.52 290.35279999999995C127.5488 290.43919999999997,127.5488 290.49679999999995,127.5488 292.62799999999993C127.5488 293.1176,127.5488 293.72239999999994,127.5488 294.44239999999996L127.5488 298.44559999999996L128.2688 298.44559999999996C128.9312 298.44559999999996,128.96 298.44559999999996,129.0464 298.47439999999995C129.2768 298.5608,129.392 298.79119999999995,129.392 299.05039999999997C129.392 299.1944,129.3632 299.36719999999997,129.248 299.4823999999999C129.0752 299.62639999999993,129.0464 299.62639999999993,128.2688 299.62639999999993L127.5488 299.62639999999993L127.5488 300.11599999999993C127.5776 301.5848,127.8656 302.16079999999994,128.9888 302.76559999999995C129.392 302.96719999999993,129.4784 303.02479999999997,129.4784 303.3128C129.4784 303.51439999999997,129.42079999999999 303.60079999999994,129.2768 303.71599999999995L129.1904 303.74479999999994L125.2448 303.74479999999994L121.328 303.74479999999994L121.2416 303.71599999999995C121.0688 303.60079999999994,121.04 303.51439999999997,121.04 303.3128C121.04 303.02479999999997,121.0688 302.96719999999993,121.5008 302.76559999999995C122.624 302.16079999999994,122.912 301.5848,122.912 300.11599999999993L122.912 299.62639999999993L119.6 299.62639999999993C118.9952 299.68399999999997,118.5056 299.68399999999997,118.1024 299.68399999999997C116.288 299.68399999999997,116.2592 299.62639999999993,116.2304 299.62639999999993C116.0576 299.56879999999995,116 299.39599999999996,116 299.1944C116 299.1944,116 299.1944,116 299.1944C116 298.99279999999993,116 298.99279999999993,116.576 298.33039999999994C118.9952 295.39279999999997,120.6944 291.13039999999995,120.6944 287.73199999999997C120.6944 287.21359999999993,120.7808 287.04079999999993,121.0112 286.95439999999996M122.7392 305.32879999999994L122.768 305.32879999999994L122.6816 305.32879999999994L122.7392 305.32879999999994M122.7392 285.91759999999994L122.768 285.91759999999994L122.6816 285.91759999999994L122.7392 285.91759999999994"></path><g class="vf-stavenote" id="vf-auto2710717"><g class="vf-note" pointer-events="bounding-box"><g class="vf-stem" pointer-events="bounding-box"><path stroke-width="1.5" fill="none" stroke="#000000" stroke-dasharray="none" class="vf-stem" id="vf-auto2710717-stem" d="M152.74663999999999 305.29999999999995L152.74663999999999 270.29999999999995"></path></g><g class="vf-notehead" pointer-events="bounding-box"><path stroke-width="0.3" fill="#000000" stroke="none" stroke-dasharray="none" d="M141.4784 305.29999999999995M148.83535999999998 300.07712C148.94768 300.07712,149.11615999999998 300.07712,149.14424 300.07712C149.14424 300.07712,149.17231999999998 300.07712,149.17231999999998 300.07712C149.17231999999998 300.07712,149.3408 300.07712,149.4812 300.07712C152.0084 300.21752,153.49663999999999 301.87423999999993,153.49663999999999 303.95215999999994C153.49663999999999 304.96304,153.15967999999998 306.11431999999996,152.31727999999998 307.20944C150.71671999999998 309.37159999999994,148.10528 310.55096,145.83079999999998 310.55096C144.06176 310.55096,142.54543999999999 309.84896,141.81536 308.41687999999994C141.59072 307.85527999999994,141.4784 307.3217599999999,141.4784 306.73207999999994C141.4784 303.67135999999994,144.90416 300.27367999999996,148.83535999999998 300.07712"></path></g></g><g class="vf-modifiers"></g></g><g class="vf-stavenote" id="vf-auto2710725"><g class="vf-note" pointer-events="bounding-box"><g class="vf-stem" pointer-events="bounding-box"><path stroke-width="1.5" fill="none" stroke="#000000" stroke-dasharray="none" class="vf-stem" id="vf-auto2710725-stem" d="M185.73559999999998 260.29999999999995L185.73559999999998 295.29999999999995"></path></g><g class="vf-notehead" pointer-events="bounding-box"><path stroke-width="0.3" fill="#000000" stroke="none" stroke-dasharray="none" d="M184.98559999999998 260.29999999999995M192.34255999999996 255.07711999999995C192.45487999999997 255.07711999999995,192.62336 255.07711999999995,192.65143999999998 255.07711999999995C192.65143999999998 255.07711999999995,192.67951999999997 255.07711999999995,192.67951999999997 255.07711999999995C192.67951999999997 255.07711999999995,192.84799999999998 255.07711999999995,192.98839999999998 255.07711999999995C195.51559999999998 255.21751999999995,197.00383999999997 256.87423999999993,197.00383999999997 258.95215999999994C197.00383999999997 259.96304,196.66688 261.11431999999996,195.82447999999997 262.20944C194.22391999999996 264.37159999999994,191.61247999999998 265.55096,189.33799999999997 265.55096C187.56895999999998 265.55096,186.05263999999997 264.84896,185.32255999999998 263.41687999999994C185.09792 262.85527999999994,184.98559999999998 262.3217599999999,184.98559999999998 261.73207999999994C184.98559999999998 258.67135999999994,188.41135999999997 255.27367999999996,192.34255999999996 255.07711999999995"></path></g></g><g class="vf-modifiers"></g></g><path stroke-width="1" fill="none" stroke="#000000" stroke-dasharray="none" d="M225.4928 255.29999999999995L243.51103999999998 255.29999999999995"></path><g class="vf-stavenote" id="vf-auto2710733"><g class="vf-note" pointer-events="bounding-box"><g class="vf-stem" pointer-events="bounding-box"><path stroke-width="1.5" fill="none" stroke="#000000" stroke-dasharray="none" class="vf-stem" id="vf-auto2710733-stem" d="M229.2428 255.29999999999995L229.2428 290.29999999999995"></path></g><g class="vf-notehead" pointer-events="bounding-box"><path stroke-width="0.3" fill="#000000" stroke="none" stroke-dasharray="none" d="M228.4928 255.29999999999995M235.84975999999997 250.07711999999995C235.96208 250.07711999999995,236.13056 250.07711999999995,236.15864 250.07711999999995C236.15864 250.07711999999995,236.18671999999998 250.07711999999995,236.18671999999998 250.07711999999995C236.18671999999998 250.07711999999995,236.3552 250.07711999999995,236.4956 250.07711999999995C239.0228 250.21751999999995,240.51103999999998 251.87423999999996,240.51103999999998 253.95215999999996C240.51103999999998 254.96303999999995,240.17408 256.11431999999996,239.33167999999998 257.20944C237.73111999999998 259.37159999999994,235.11968 260.55096,232.84519999999998 260.55096C231.07616 260.55096,229.55983999999998 259.84896,228.82976 258.41687999999994C228.60512 257.85527999999994,228.4928 257.3217599999999,228.4928 256.73207999999994C228.4928 253.67135999999996,231.91855999999999 250.27367999999996,235.84975999999997 250.07711999999995"></path></g></g><g class="vf-modifiers"></g></g><rect stroke-width="0.3" fill="#000000" stroke="#000000" stroke-dasharray="none" x="270.30351679999995" y="166.5" width="1" height="139.79999999999995"></rect><rect stroke-width="0.3" fill="#000000" stroke="#000000" stroke-dasharray="none" x="70" y="166.5" width="1" height="139.79999999999995"></rect><path stroke-width="1" fill="none" stroke="#000000" stroke-dasharray="none" d="M270.30351679999995 265.29999999999995L392.82863359999993 265.29999999999995"></path><path stroke-width="1" fill="none" stroke="#000000" stroke-dasharray="none" d="M270.30351679999995 275.29999999999995L392.82863359999993 275.29999999999995"></path><path stroke-width="1" fill="none" stroke="#000000" stroke-dasharray="none" d="M270.30351679999995 285.29999999999995L392.82863359999993 285.29999999999995"></path><path stroke-width="1" fill="none" stroke="#000000" stroke-dasharray="none" d="M270.30351679999995 295.29999999999995L392.82863359999993 295.29999999999995"></path><path stroke-width="1" fill="none" stroke="#000000" stroke-dasharray="none" d="M270.30351679999995 305.29999999999995L392.82863359999993 305.29999999999995"></path><rect stroke-width="0.3" fill="#000000" stroke="#000000" stroke-dasharray="none" x="392.82863359999993" y="264.79999999999995" width="1" height="41"></rect><g class="vf-stavenote" id="vf-auto2710752"><g class="vf-note" pointer-events="bounding-box"><g class="vf-stem" pointer-events="bounding-box"><path stroke-width="1.5" fill="none" stroke="#000000" stroke-dasharray="none" class="vf-stem" id="vf-auto2710752-stem" d="M288.05351679999995 280.29999999999995L288.05351679999995 315.29999999999995"></path></g><g class="vf-notehead" pointer-events="bounding-box"><path stroke-width="0.3" fill="#000000" stroke="none" stroke-dasharray="none" d="M287.30351679999995 280.29999999999995M294.66047679999997 275.07712C294.7727968 275.07712,294.94127679999997 275.07712,294.96935679999996 275.07712C294.96935679999996 275.07712,294.99743679999995 275.07712,294.99743679999995 275.07712C294.99743679999995 275.07712,295.16591679999993 275.07712,295.30631679999993 275.07712C297.8335168 275.21752,299.32175679999995 276.87423999999993,299.32175679999995 278.95215999999994C299.32175679999995 279.96304,298.98479679999997 281.11431999999996,298.1423968 282.20944C296.54183679999994 284.37159999999994,293.9303967999999 285.55096,291.65591679999994 285.55096C289.8868768 285.55096,288.3705568 284.84896,287.64047679999993 283.41687999999994C287.41583679999997 282.85527999999994,287.30351679999995 282.3217599999999,287.30351679999995 281.73207999999994C287.30351679999995 278.67135999999994,290.7292768 275.27367999999996,294.66047679999997 275.07712"></path></g></g><g class="vf-modifiers"></g></g><g class="vf-stavenote" id="vf-auto2710760"><g class="vf-note" pointer-events="bounding-box"><g class="vf-stem" pointer-events="bounding-box"><path stroke-width="1.5" fill="none" stroke="#000000" stroke-dasharray="none" class="vf-stem" id="vf-auto2710760-stem" d="M323.72018346666664 280.29999999999995L323.72018346666664 315.29999999999995"></path></g><g class="vf-notehead" pointer-events="bounding-box"><path stroke-width="0.3" fill="#000000" stroke="none" stroke-dasharray="none" d="M322.97018346666664 280.29999999999995M330.32714346666666 275.07712C330.43946346666667 275.07712,330.60794346666665 275.07712,330.63602346666664 275.07712C330.63602346666664 275.07712,330.66410346666663 275.07712,330.66410346666663 275.07712C330.66410346666663 275.07712,330.8325834666666 275.07712,330.9729834666666 275.07712C333.5001834666666 275.21752,334.98842346666663 276.87423999999993,334.98842346666663 278.95215999999994C334.98842346666663 279.96304,334.65146346666666 281.11431999999996,333.80906346666666 282.20944C332.2085034666666 284.37159999999994,329.59706346666667 285.55096,327.32258346666663 285.55096C325.55354346666667 285.55096,324.03722346666666 284.84896,323.3071434666666 283.41687999999994C323.08250346666665 282.85527999999994,322.97018346666664 282.3217599999999,322.97018346666664 281.73207999999994C322.97018346666664 278.67135999999994,326.39594346666667 275.27367999999996,330.32714346666666 275.07712"></path></g></g><g class="vf-modifiers"></g></g><rect stroke-width="0.3" fill="#000000" stroke="#000000" stroke-dasharray="none" x="392.82863359999993" y="166.5" width="1" height="139.79999999999995"></rect><path stroke-width="1" fill="none" stroke="#000000" stroke-dasharray="none" d="M392.82863359999993 265.29999999999995L515.3537503999999 265.29999999999995"></path><path stroke-width="1" fill="none" stroke="#000000" stroke-dasharray="none" d="M392.82863359999993 275.29999999999995L515.3537503999999 275.29999999999995"></path><path stroke-width="1" fill="none" stroke="#000000" stroke-dasharray="none" d="M392.82863359999993 285.29999999999995L515.3537503999999 285.29999999999995"></path><path stroke-width="1" fill="none" stroke="#000000" stroke-dasharray="none" d="M392.82863359999993 295.29999999999995L515.3537503999999 295.29999999999995"></path><path stroke-width="1" fill="none" stroke="#000000" stroke-dasharray="none" d="M392.82863359999993 305.29999999999995L515.3537503999999 305.29999999999995"></path><rect stroke-width="0.3" fill="#000000" stroke="#000000" stroke-dasharray="none" x="515.3537503999999" y="264.79999999999995" width="1" height="41"></rect><g class="vf-stavenote" id="vf-auto2710780"><g class="vf-note" pointer-events="bounding-box"><g class="vf-stem" pointer-events="bounding-box"><path stroke-width="1.5" fill="none" stroke="#000000" stroke-dasharray="none" class="vf-stem" id="vf-auto2710780-stem" d="M421.0968735999999 285.29999999999995L421.0968735999999 250.29999999999995"></path></g><g class="vf-notehead" pointer-events="bounding-box"><path stroke-width="0.3" fill="#000000" stroke="none" stroke-dasharray="none" d="M409.82863359999993 285.29999999999995M417.18559359999995 280.07712C417.29791359999996 280.07712,417.46639359999995 280.07712,417.49447359999994 280.07712C417.49447359999994 280.07712,417.5225535999999 280.07712,417.5225535999999 280.07712C417.5225535999999 280.07712,417.6910335999999 280.07712,417.8314335999999 280.07712C420.35863359999996 280.21752,421.8468735999999 281.87423999999993,421.8468735999999 283.95215999999994C421.8468735999999 284.96304,421.50991359999995 286.11431999999996,420.66751359999995 287.20944C419.0669535999999 289.37159999999994,416.4555135999999 290.55096,414.1810335999999 290.55096C412.41199359999996 290.55096,410.89567359999995 289.84896,410.1655935999999 288.41687999999994C409.94095359999994 287.85527999999994,409.82863359999993 287.3217599999999,409.82863359999993 286.73207999999994C409.82863359999993 283.67135999999994,413.25439359999996 280.27367999999996,417.18559359999995 280.07712"></path></g></g><g class="vf-modifiers"></g></g><g class="vf-stavenote" id="vf-auto2710788"><g class="vf-note" pointer-events="bounding-box"><g class="vf-stem" pointer-events="bounding-box"><path stroke-width="1.5" fill="none" stroke="#000000" stroke-dasharray="none" class="vf-stem" id="vf-auto2710788-stem" d="M456.7635402666666 305.29999999999995L456.7635402666666 270.29999999999995"></path></g><g class="vf-notehead" pointer-events="bounding-box"><path stroke-width="0.3" fill="#000000" stroke="none" stroke-dasharray="none" d="M445.4953002666666 305.29999999999995M452.85226026666663 300.07712C452.96458026666664 300.07712,453.13306026666663 300.07712,453.1611402666666 300.07712C453.1611402666666 300.07712,453.1892202666666 300.07712,453.1892202666666 300.07712C453.1892202666666 300.07712,453.3577002666666 300.07712,453.4981002666666 300.07712C456.0253002666666 300.21752,457.5135402666666 301.87423999999993,457.5135402666666 303.95215999999994C457.5135402666666 304.96304,457.17658026666663 306.11431999999996,456.33418026666664 307.20944C454.7336202666666 309.37159999999994,452.12218026666665 310.55096,449.8477002666666 310.55096C448.07866026666665 310.55096,446.56234026666664 309.84896,445.8322602666666 308.41687999999994C445.60762026666663 307.85527999999994,445.4953002666666 307.3217599999999,445.4953002666666 306.73207999999994C445.4953002666666 303.67135999999994,448.92106026666664 300.27367999999996,452.85226026666663 300.07712"></path></g></g><g class="vf-modifiers"></g></g><rect stroke-width="0.3" fill="#000000" stroke="#000000" stroke-dasharray="none" x="515.3537503999999" y="166.5" width="1" height="139.79999999999995"></rect><path stroke-width="1" fill="none" stroke="#000000" stroke-dasharray="none" d="M515.3537503999999 265.29999999999995L652.0788671999999 265.29999999999995"></path><path stroke-width="1" fill="none" stroke="#000000" stroke-dasharray="none" d="M515.3537503999999 275.29999999999995L652.0788671999999 275.29999999999995"></path><path stroke-width="1" fill="none" stroke="#000000" stroke-dasharray="none" d="M515.3537503999999 285.29999999999995L652.0788671999999 285.29999999999995"></path><path stroke-width="1" fill="none" stroke="#000000" stroke-dasharray="none" d="M515.3537503999999 295.29999999999995L652.0788671999999 295.29999999999995"></path><path stroke-width="1" fill="none" stroke="#000000" stroke-dasharray="none" d="M515.3537503999999 305.29999999999995L652.0788671999999 305.29999999999995"></path><rect stroke-width="0.3" fill="#000000" stroke="#000000" stroke-dasharray="none" x="647.0788671999999" y="264.79999999999995" width="1" height="41"></rect><rect stroke-width="0.3" fill="#000000" stroke="#000000" stroke-dasharray="none" x="650.0788671999999" y="264.79999999999995" width="3" height="41"></rect><path stroke-width="0.3" fill="#000000" stroke="none" stroke-dasharray="none" d="M646.0788671999999 280.79999999999995 A2 2 0 0 0 642.0788671999999 280.79999999999995M642.0788671999999 280.79999999999995 A2 2 0 0 0 646.0788671999999 280.79999999999995"></path><path stroke-width="0.3" fill="#000000" stroke="none" stroke-dasharray="none" d="M646.0788671999999 290.79999999999995 A2 2 0 0 0 642.0788671999999 290.79999999999995M642.0788671999999 290.79999999999995 A2 2 0 0 0 646.0788671999999 290.79999999999995"></path><g class="vf-stavenote" id="vf-auto2710816"><g class="vf-note" pointer-events="bounding-box"><g class="vf-stem" pointer-events="bounding-box"><path stroke-width="1.5" fill="none" stroke="#000000" stroke-dasharray="none" class="vf-stem" id="vf-auto2710816-stem" d="M533.1037503999999 280.29999999999995L533.1037503999999 315.29999999999995"></path></g><g class="vf-notehead" pointer-events="bounding-box"><path stroke-width="0.3" fill="#000000" stroke="none" stroke-dasharray="none" d="M532.3537503999999 280.29999999999995M539.7107103999998 275.07712C539.8230303999999 275.07712,539.9915103999998 275.07712,540.0195903999999 275.07712C540.0195903999999 275.07712,540.0476703999999 275.07712,540.0476703999999 275.07712C540.0476703999999 275.07712,540.2161503999998 275.07712,540.3565503999998 275.07712C542.8837503999998 275.21752,544.3719903999998 276.87423999999993,544.3719903999998 278.95215999999994C544.3719903999998 279.96304,544.0350303999999 281.11431999999996,543.1926303999999 282.20944C541.5920703999999 284.37159999999994,538.9806303999999 285.55096,536.7061503999998 285.55096C534.9371103999998 285.55096,533.4207903999999 284.84896,532.6907103999998 283.41687999999994C532.4660703999998 282.85527999999994,532.3537503999999 282.3217599999999,532.3537503999999 281.73207999999994C532.3537503999999 278.67135999999994,535.7795103999998 275.27367999999996,539.7107103999998 275.07712"></path></g></g><g class="vf-modifiers"></g></g><rect stroke-width="0.3" fill="#000000" stroke="#000000" stroke-dasharray="none" x="647.0788671999999" y="166.5" width="1" height="139.79999999999995"></rect><rect stroke-width="0.3" fill="#000000" stroke="#000000" stroke-dasharray="none" x="650.0788671999999" y="166.5" width="3" height="139.79999999999995"></rect><path stroke-width="0.3" fill="#000000" stroke="none" stroke-dasharray="none" d="M68 166.5C45.2 194.45999999999998,81.2 217.527,56 236.39999999999998C81.2 255.27299999999997,45.2 278.34,68 306.29999999999995C44 278.34,72.8 255.27299999999997,56 236.39999999999998C72.8 217.527,44 194.45999999999998,68 166.5"></path><path stroke-width="1" fill="none" stroke="#000000" stroke-dasharray="none" d="M68 166.5C45.2 194.45999999999998,81.2 217.527,56 236.39999999999998C81.2 255.27299999999997,45.2 278.34,68 306.29999999999995C44 278.34,72.8 255.27299999999997,56 236.39999999999998C72.8 217.527,44 194.45999999999998,68 166.5"></path><g class="vf-text"><text stroke-width="0.3" fill="#000000" stroke="none" stroke-dasharray="none" font-family="Times New Roman" font-size="15px" font-weight="normal" font-style="normal" x="389.32863359999993" y="163.5">3</text></g></svg>