<svg xmlns="http://www.w3.org/2000/svg"  width="1470" height="386.79999999999995" viewBox="0 0 1470 386.79999999999995"><path stroke-width="1" fill="none" stroke="#000000" stroke-dasharray="none" d="M70 166.5L274.50351679999994 166.5"></path><path stroke-width="1" fill="none" stroke="#000000" stroke-dasharray="none" d="M70 176.5L274.50351679999994 176.5"></path><path stroke-width="1" fill="none" stroke="#000000" stroke-dasharray="none" d="M70 186.5L274.50351679999994 186.5"></path><path stroke-width="1" fill="none" stroke="#000000" stroke-dasharray="none" d="M70 196.5L274.50351679999994 196.5"></path><path stroke-width="1" fill="none" stroke="#000000" stroke-dasharray="none" d="M70 206.5L274.50351679999994 206.5"></path><rect stroke-width="0.3" fill="#000000" stroke="#000000" stroke-dasharray="none" x="274.50351679999994" y="166" width="1" height="41"></rect><g class="vf-clef"><path stroke-width="0.3" fill="#000000" stroke="none" stroke-dasharray="none" d="M75 196.5M89.0544 153.3288C89.112 153.3,89.1696 153.3,89.256 153.3C89.6016 153.3,90.0048 153.588,90.5808 154.308C92.9136 156.9864,94.5552 161.652,94.5552 165.4536C94.5552 165.7416,94.4976 165.972,94.4976 166.26C94.2384 170.7816,92.3952 174.4968,88.7376 178.0104L87.7584 178.9608L87.4128 179.3352L87.4128 179.4504L87.6144 180.3144L87.9312 181.8696L88.248 183.3096C88.68 185.268,88.8528 186.276,88.8528 186.276C88.8528 186.276,88.8528 186.276,88.8528 186.276C88.8528 186.276,88.968 186.276,89.112 186.2472C89.256 186.2472,89.7168 186.1896,90.2064 186.1896C90.55199999999999 186.1896,90.8976 186.2472,91.0704 186.2472C95.1312 186.7656,98.2704 189.6744,99.1632 193.764C99.336 194.4264,99.39359999999999 195.1464,99.39359999999999 195.8664C99.39359999999999 199.7544,97.0608 203.4696,93.1728 205.2264C92.94239999999999 205.3704,92.856 205.3992,92.856 205.3992L92.856 205.428C92.856 205.428,93.0288 206.0904,93.1728 206.8392L93.6048 209.028L94.008 210.7848C94.2384 211.908,94.3536 212.7144,94.3536 213.4344C94.3536 214.06799999999998,94.2672 214.644,94.1232 215.3064C93.144 219.3096,89.6592 221.7,86.0304 221.7C84.2448 221.7,82.4016 221.124,80.7888 219.828C79.3488 218.6184,78.7152 217.524,78.7152 216.084C78.7152 213.5496,80.76 211.764,82.8912 211.764C83.64 211.764,84.3888 211.99439999999998,85.1088 212.4264C86.3184 213.2616,86.8656 214.5288,86.8656 215.7672C86.8656 217.668,85.5408 219.54,83.2656 219.684L83.0352 219.684L83.208 219.79919999999998C84.1584 220.2024,85.1088 220.404,86.0304 220.404C88.3632 220.404,90.55199999999999 219.2232,91.8768 217.1784C92.62559999999999 216.0264,93.0288 214.6728,93.0288 213.3192C93.0288 212.8008,92.94239999999999 212.2824,92.8272 211.7064C92.8272 211.6488,92.74080000000001 211.188,92.62559999999999 210.756C91.992 207.6456,91.6176 205.8312,91.6176 205.8312C91.6176 205.8312,91.6176 205.8312,91.6176 205.8312C91.56 205.8312,91.4448 205.8312,91.3584 205.8888C91.0704 205.9464,90.4656 206.0904,90.2064 206.1192C89.5728 206.2056,88.968 206.2344,88.392 206.2344C82.74719999999999 206.2344,77.5056 202.4328,75.6912 196.8168C75.2304 195.3192,74.9712 193.8216,74.9712 192.324C74.9712 189.3288,75.9216 186.3912,77.7648 183.7704C79.7808 180.9192,81.7968 178.4712,84.2736 175.9368L85.13759999999999 175.044L84.936 173.9784L84.5616 172.2216L84.072 169.9752C83.928 169.14,83.7552 168.3336,83.7264 168.1608C83.5824 167.2104,83.496 166.2888,83.496 165.3384C83.496 161.7096,84.6768 158.22480000000002,86.8944 155.4312C87.5568 154.5672,88.7376 153.4152,89.0544 153.3288M90.8112 159.0312C90.7536 159.0312,90.6672 159.0312,90.5808 159.0312C89.4 159.0312,87.8736 160.1256,86.8368 161.7384C85.7712 163.32240000000002,85.224 165.4248,85.224 167.5848C85.224 168.1608,85.25280000000001 168.7656,85.3392 169.3704C85.4256 169.8024,85.45439999999999 170.0904,85.6848 171.12720000000002L86.088 172.9416C86.2032 173.4888,86.28960000000001 173.92079999999999,86.28960000000001 173.9784L86.28960000000001 173.9784C86.3184 173.9784,87.2112 172.9992,87.4992 172.6536C90.3792 169.3992,92.1072 165.972,92.4816 162.948C92.5104 162.66,92.5104 162.4296,92.5104 162.1416C92.5104 161.24880000000002,92.3952 160.38479999999998,92.1936 159.924C91.9632 159.4632,91.4448 159.0888,90.8112 159.0312M86.4624 181.2936C86.4048 180.8904,86.3184 180.5736,86.3184 180.516C86.3184 180.516,86.3184 180.516,86.28960000000001 180.516C86.232 180.516,84.9936 181.956,84.1296 182.964C82.6608 184.7496,81.1056 186.8808,80.472 187.9176C79.2624 189.9624,78.6576 192.2376,78.6576 194.484C78.6576 195.9528,78.9456 197.364,79.464 198.7176C81.0192 202.7208,84.5904 205.2264,88.4784 205.2264C88.9392 205.2264,89.4576 205.1976,89.9472 205.1112C90.5808 204.996,91.3584 204.7656,91.3584 204.6792L91.3584 204.6792C91.3584 204.6792,91.3008 204.3912,91.2144 204.0744L90.3792 199.956L89.7168 196.8744L89.2848 194.7432L88.824 192.6696C88.5936 191.4312,88.5072 191.1144,88.5072 191.1144C88.5072 191.1144,88.5072 191.0856,88.4784 191.0856C88.3056 191.0856,87.384 191.5464,86.9808 191.8344C85.4832 192.8712,84.7056 194.5128,84.7056 196.1256C84.7056 197.652,85.45439999999999 199.1784,86.8944 200.0712C87.2112 200.2728,87.3264 200.4456,87.3264 200.6472C87.3264 200.676,87.3264 200.7624,87.3264 200.7912C87.2688 201.1368,87.0672 201.2808,86.7792 201.2808C86.664 201.2808,86.52 201.252,86.3472 201.1656C83.6976 200.0136,81.912 197.2776,81.912 194.2824L81.912 194.2824C81.912 190.8264,84.072 187.8312,87.384 186.6504L87.5568 186.5928L87.2688 185.1528L86.4624 181.2936M90.7824 190.9128C90.55199999999999 190.88400000000001,90.3216 190.88400000000001,90.1488 190.88400000000001C90.0912 190.88400000000001,90.0048 190.88400000000001,89.9472 190.88400000000001L89.8032 190.88400000000001L89.9184 191.4024L90.5232 194.2248L90.8976 196.068L91.3008 197.8824L92.1072 201.8856L92.424 203.412C92.5392 203.8152,92.5968 204.1608,92.62559999999999 204.1608C92.62559999999999 204.1608,92.62559999999999 204.1608,92.62559999999999 204.1608C92.6544 204.1608,93.144 203.8728,93.4608 203.6424C94.9296 202.6056,96.024 200.9928,96.4272 199.3224C96.5712 198.7752,96.6288 198.1992,96.6288 197.652C96.6288 194.3112,94.152 191.2872,90.7824 190.9128"></path></g><path stroke-width="0.3" fill="#000000" stroke="none" stroke-dasharray="none" d="M116.8352 186.5M121.8464 167.8376C121.904 167.8376,122.1056 167.8376,122.336 167.8376C122.71039999999999 167.8376,123.1712 167.8376,123.3152 167.8376C125.9648 168.1256,128.0384 169.5656,128.4128 171.4376C128.4704 171.6104,128.4704 171.812,128.4704 172.0136C128.4704 172.244,128.4704 172.4456,128.4128 172.5608C128.0384 173.9144,126.45439999999999 175.1528,124.4384 175.7576C124.2944 175.8152,124.2368 175.8152,124.2368 175.844C124.2368 175.844,124.2368 175.844,124.2368 175.844C124.2656 175.844,124.352 175.8728,124.4384 175.8728C127.1744 176.8808,128.6144 178.8104,128.6144 180.6824C128.6144 182.1224,127.80799999999999 183.5048,125.9936 184.4264C124.928 185.0024,123.7472 185.2616,122.5952 185.2616C120.6944 185.2616,118.8224 184.5416,117.4976 183.2456C117.008 182.7848,116.8352 182.2088,116.8352 181.6328C116.8352 180.452,117.6704 179.3288,119.0528 179.3288L119.0528 179.3288C120.4352 179.3288,121.2128 180.3944,121.2128 181.4888C121.2128 182.324,120.7808 183.1592,119.8016 183.5624C119.8016 183.5624,119.8016 183.5624,119.8016 183.5624C119.8016 183.5912,120.6368 183.764,121.0688 183.7928C121.1264 183.7928,121.184 183.7928,121.2416 183.7928C123.1424 183.7928,124.4672 182.4392,124.4672 180.5672C124.4672 180.3656,124.4672 180.1928,124.4384 179.9912C124.1216 177.8888,122.71039999999999 176.3336,121.0688 176.276C120.6656 176.2472,120.464 176.0744,120.464 175.8152C120.464 175.4696,120.6368 175.3256,121.0688 175.3256C122.48 175.2392,123.6896 174.2888,124.1504 172.8488C124.2656 172.5608,124.2944 172.2728,124.2944 172.0424C124.2944 170.8328,123.4016 169.7384,122.0768 169.4504C121.8752 169.364,121.616 169.364,121.328 169.364C120.9248 169.364,120.5504 169.3928,120.1472 169.4504L120.032 169.4792L120.1472 169.5656C120.896 169.9688,121.2128 170.68880000000001,121.2128 171.4088C121.2128 172.3592,120.5792 173.3096,119.4848 173.5688C119.3408 173.5976,119.168 173.5976,119.024 173.5976C117.7568 173.5976,116.8064 172.4456,116.8064 171.236C116.8064 170.7176,116.9792 170.1992,117.4112 169.7672C118.4192 168.6728,119.9456 168.0392,121.8464 167.8376M122.71039999999999 186.5288L122.7392 186.5288L122.6528 186.5288L122.71039999999999 186.5288M122.71039999999999 167.1176L122.7392 167.1176L122.6528 167.1176L122.71039999999999 167.1176"></path><path stroke-width="0.3" fill="#000000" stroke="none" stroke-dasharray="none" d="M116 206.5M121.0112 188.1544C121.04 188.1256,121.4432 188.1256,122.6816 188.1256C123.056 188.1256,123.4592 188.1256,123.9776 188.1256L126.8864 188.1256L126.9728 188.212C127.1168 188.29840000000002,127.2032 188.4424,127.2032 188.5576C127.2032 188.7304,127.1168 188.8456,127.0016 188.9608C126.9728 189.0472,126.7136 189.2776,126.5408 189.5368L125.0144 191.2936L123.056 193.5112L122.0192 194.692L120.464 196.4776L118.4192 198.8104C118.0736 199.2424,117.6992 199.588,117.6992 199.588C117.6992 199.588,117.6992 199.588,117.6992 199.588C117.6992 199.6456,117.9584 199.6456,120.3488 199.6456L122.9696 199.6456L122.9696 197.7736C122.9696 195.8728,122.9696 195.844,122.9984 195.8152C123.056 195.7288,123.3152 195.412,124.3232 194.2312L124.7264 193.7992L125.1296 193.3672L125.7344 192.5896L126.368 191.9272L126.6848 191.524C126.8 191.3512,126.9728 191.3224,127.1168 191.3224C127.28960000000001 191.3224,127.4336 191.4088,127.52 191.5528C127.5488 191.6392,127.5488 191.6968,127.5488 193.828C127.5488 194.3176,127.5488 194.9224,127.5488 195.6424L127.5488 199.6456L128.2688 199.6456C128.9312 199.6456,128.96 199.6456,129.0464 199.6744C129.2768 199.7608,129.392 199.9912,129.392 200.2504C129.392 200.3944,129.3632 200.5672,129.248 200.6824C129.0752 200.8264,129.0464 200.8264,128.2688 200.8264L127.5488 200.8264L127.5488 201.316C127.5776 202.7848,127.8656 203.3608,128.9888 203.9656C129.392 204.1672,129.4784 204.2248,129.4784 204.5128C129.4784 204.7144,129.42079999999999 204.8008,129.2768 204.916L129.1904 204.9448L125.2448 204.9448L121.328 204.9448L121.2416 204.916C121.0688 204.8008,121.04 204.7144,121.04 204.5128C121.04 204.2248,121.0688 204.1672,121.5008 203.9656C122.624 203.3608,122.912 202.7848,122.912 201.316L122.912 200.8264L119.6 200.8264C118.9952 200.88400000000001,118.5056 200.88400000000001,118.1024 200.88400000000001C116.288 200.88400000000001,116.2592 200.8264,116.2304 200.8264C116.0576 200.7688,116 200.596,116 200.3944C116 200.3944,116 200.3944,116 200.3944C116 200.1928,116 200.1928,116.576 199.5304C118.9952 196.5928,120.6944 192.3304,120.6944 188.93200000000002C120.6944 188.4136,120.7808 188.2408,121.0112 188.1544M122.7392 206.5288L122.768 206.5288L122.6816 206.5288L122.7392 206.5288M122.7392 187.1176L122.768 187.1176L122.6816 187.1176L122.7392 187.1176"></path><g class="vf-stavenote" id="vf-auto2605597"><g class="vf-note" pointer-events="bounding-box"><g class="vf-stem" pointer-events="bounding-box"><path stroke-width="1.5" fill="none" stroke="#000000" stroke-dasharray="none" class="vf-stem" id="vf-auto2605597-stem" d="M242.42770666666667 201.5L242.42770666666667 166.5"></path></g><g class="vf-notehead" pointer-events="bounding-box"><path stroke-width="0.3" fill="#000000" stroke="none" stroke-dasharray="none" d="M231.15946666666667 201.5M238.51642666666666 196.27712C238.62874666666667 196.27712,238.7972266666667 196.27712,238.82530666666668 196.27712C238.82530666666668 196.27712,238.85338666666667 196.27712,238.85338666666667 196.27712C238.85338666666667 196.27712,239.02186666666668 196.27712,239.16226666666668 196.27712C241.68946666666668 196.41752,243.17770666666667 198.07424,243.17770666666667 200.15216C243.17770666666667 201.16304,242.8407466666667 202.31432,241.99834666666666 203.40944C240.39778666666666 205.5716,237.78634666666667 206.75096,235.51186666666666 206.75096C233.74282666666667 206.75096,232.22650666666667 206.04896,231.49642666666668 204.61688C231.27178666666669 204.05528,231.15946666666667 203.52176,231.15946666666667 202.93208C231.15946666666667 199.87136,234.58522666666667 196.47368,238.51642666666666 196.27712"></path></g></g><g class="vf-modifiers"></g></g><path stroke-width="1" fill="none" stroke="#000000" stroke-dasharray="none" d="M274.50351679999994 166.5L405.4286335999999 166.5"></path><path stroke-width="1" fill="none" stroke="#000000" stroke-dasharray="none" d="M274.50351679999994 176.5L405.4286335999999 176.5"></path><path stroke-width="1" fill="none" stroke="#000000" stroke-dasharray="none" d="M274.50351679999994 186.5L405.4286335999999 186.5"></path><path stroke-width="1" fill="none" stroke="#000000" stroke-dasharray="none" d="M274.50351679999994 196.5L405.4286335999999 196.5"></path><path stroke-width="1" fill="none" stroke="#000000" stroke-dasharray="none" d="M274.50351679999994 206.5L405.4286335999999 206.5"></path><rect stroke-width="0.3" fill="#000000" stroke="#000000" stroke-dasharray="none" x="405.4286335999999" y="166" width="1" height="41"></rect><g class="vf-stavenote" id="vf-auto2605625"><g class="vf-note" pointer-events="bounding-box"><g class="vf-stem" pointer-events="bounding-box"><path stroke-width="1.5" fill="none" stroke="#000000" stroke-dasharray="none" class="vf-stem" id="vf-auto2605625-stem" d="M292.25351679999994 181.5L292.25351679999994 216.5"></path></g><g class="vf-notehead" pointer-events="bounding-box"><path stroke-width="0.3" fill="#000000" stroke="none" stroke-dasharray="none" d="M291.50351679999994 181.5M298.86047679999996 176.27712C298.97279679999997 176.27712,299.14127679999996 176.27712,299.16935679999995 176.27712C299.16935679999995 176.27712,299.19743679999993 176.27712,299.19743679999993 176.27712C299.19743679999993 176.27712,299.3659167999999 176.27712,299.5063167999999 176.27712C302.0335167999999 176.41752,303.52175679999993 178.07424,303.52175679999993 180.15216C303.52175679999993 181.16304,303.18479679999996 182.31432,302.34239679999996 183.40944C300.74183679999993 185.5716,298.13039679999997 186.75096,295.85591679999993 186.75096C294.08687679999997 186.75096,292.57055679999996 186.04896,291.8404767999999 184.61688C291.61583679999995 184.05528,291.50351679999994 183.52176,291.50351679999994 182.93208C291.50351679999994 179.87136,294.92927679999997 176.47368,298.86047679999996 176.27712"></path></g></g><g class="vf-modifiers"></g></g><g class="vf-stavenote" id="vf-auto2605633"><g class="vf-note" pointer-events="bounding-box"><g class="vf-stem" pointer-events="bounding-box"><path stroke-width="1.5" fill="none" stroke="#000000" stroke-dasharray="none" class="vf-stem" id="vf-auto2605633-stem" d="M330.58685013333326 181.5L330.58685013333326 216.5"></path></g><g class="vf-notehead" pointer-events="bounding-box"><path stroke-width="0.3" fill="#000000" stroke="none" stroke-dasharray="none" d="M329.83685013333326 181.5M337.1938101333333 176.27712C337.3061301333333 176.27712,337.4746101333333 176.27712,337.50269013333326 176.27712C337.50269013333326 176.27712,337.53077013333325 176.27712,337.53077013333325 176.27712C337.53077013333325 176.27712,337.69925013333324 176.27712,337.83965013333324 176.27712C340.3668501333333 176.41752,341.85509013333325 178.07424,341.85509013333325 180.15216C341.85509013333325 181.16304,341.5181301333333 182.31432,340.6757301333333 183.40944C339.07517013333324 185.5716,336.46373013333323 186.75096,334.18925013333325 186.75096C332.4202101333333 186.75096,330.9038901333333 186.04896,330.17381013333323 184.61688C329.94917013333327 184.05528,329.83685013333326 183.52176,329.83685013333326 182.93208C329.83685013333326 179.87136,333.2626101333333 176.47368,337.1938101333333 176.27712"></path></g></g><g class="vf-modifiers"></g></g><path stroke-width="1" fill="none" stroke="#000000" stroke-dasharray="none" d="M365.1701834666666 216.5L383.18842346666656 216.5"></path><g class="vf-stavenote" id="vf-auto2605641"><g class="vf-note" pointer-events="bounding-box"><g class="vf-stem" pointer-events="bounding-box"><path stroke-width="1.5" fill="none" stroke="#000000" stroke-dasharray="none" class="vf-stem" id="vf-auto2605641-stem" d="M379.43842346666656 221.5L379.43842346666656 186.5"></path></g><g class="vf-notehead" pointer-events="bounding-box"><path stroke-width="0.3" fill="#000000" stroke="none" stroke-dasharray="none" d="M368.1701834666666 221.5M375.5271434666666 216.27712C375.6394634666666 216.27712,375.8079434666666 216.27712,375.8360234666666 216.27712C375.8360234666666 216.27712,375.86410346666656 216.27712,375.86410346666656 216.27712C375.86410346666656 216.27712,376.03258346666655 216.27712,376.17298346666655 216.27712C378.70018346666654 216.41752,380.18842346666656 218.07424,380.18842346666656 220.15216C380.18842346666656 221.16304,379.8514634666666 222.31432,379.0090634666666 223.40944C377.40850346666656 225.5716,374.7970634666666 226.75096,372.52258346666656 226.75096C370.7535434666666 226.75096,369.2372234666666 226.04896,368.50714346666655 224.61688C368.2825034666666 224.05528,368.1701834666666 223.52176,368.1701834666666 222.93208C368.1701834666666 219.87136,371.5959434666666 216.47368,375.5271434666666 216.27712"></path></g></g><g class="vf-modifiers"></g></g><path stroke-width="1" fill="none" stroke="#000000" stroke-dasharray="none" d="M405.4286336 166.5L536.3537504 166.5"></path><path stroke-width="1" fill="none" stroke="#000000" stroke-dasharray="none" d="M405.4286336 176.5L536.3537504 176.5"></path><path stroke-width="1" fill="none" stroke="#000000" stroke-dasharray="none" d="M405.4286336 186.5L536.3537504 186.5"></path><path stroke-width="1" fill="none" stroke="#000000" stroke-dasharray="none" d="M405.4286336 196.5L536.3537504 196.5"></path><path stroke-width="1" fill="none" stroke="#000000" stroke-dasharray="none" d="M405.4286336 206.5L536.3537504 206.5"></path><rect stroke-width="0.3" fill="#000000" stroke="#000000" stroke-dasharray="none" x="536.3537504" y="166" width="1" height="41"></rect><path stroke-width="1" fill="none" stroke="#000000" stroke-dasharray="none" d="M419.4286336 216.5L437.4468736 216.5"></path><g class="vf-stavenote" id="vf-auto2605650"><g class="vf-note" pointer-events="bounding-box"><g class="vf-stem" pointer-events="bounding-box"><path stroke-width="1.5" fill="none" stroke="#000000" stroke-dasharray="none" class="vf-stem" id="vf-auto2605650-stem" d="M433.6968736 221.5L433.6968736 186.5"></path></g><g class="vf-notehead" pointer-events="bounding-box"><path stroke-width="0.3" fill="#000000" stroke="none" stroke-dasharray="none" d="M422.4286336 221.5M429.7855936 216.27712C429.89791360000004 216.27712,430.0663936 216.27712,430.0944736 216.27712C430.0944736 216.27712,430.1225536 216.27712,430.1225536 216.27712C430.1225536 216.27712,430.2910336 216.27712,430.4314336 216.27712C432.9586336 216.41752,434.4468736 218.07424,434.4468736 220.15216C434.4468736 221.16304,434.1099136 222.31432,433.26751360000003 223.40944C431.6669536 225.5716,429.05551360000004 226.75096,426.7810336 226.75096C425.01199360000004 226.75096,423.49567360000003 226.04896,422.7655936 224.61688C422.5409536 224.05528,422.4286336 223.52176,422.4286336 222.93208C422.4286336 219.87136,425.85439360000004 216.47368,429.7855936 216.27712"></path></g></g><g class="vf-modifiers"></g></g><g class="vf-stavenote" id="vf-auto2605658"><g class="vf-note" pointer-events="bounding-box"><g class="vf-stem" pointer-events="bounding-box"><path stroke-width="1.5" fill="none" stroke="#000000" stroke-dasharray="none" class="vf-stem" id="vf-auto2605658-stem" d="M461.5119669333333 166.5L461.5119669333333 201.5"></path></g><g class="vf-notehead" pointer-events="bounding-box"><path stroke-width="0.3" fill="#000000" stroke="none" stroke-dasharray="none" d="M460.7619669333333 166.5M468.11892693333334 161.27712C468.23124693333335 161.27712,468.39972693333334 161.27712,468.42780693333333 161.27712C468.42780693333333 161.27712,468.4558869333333 161.27712,468.4558869333333 161.27712C468.4558869333333 161.27712,468.6243669333333 161.27712,468.7647669333333 161.27712C471.29196693333336 161.41752,472.7802069333333 163.07424,472.7802069333333 165.15216C472.7802069333333 166.16304,472.44324693333334 167.31432,471.60084693333334 168.40944C470.0002869333333 170.5716,467.3888469333333 171.75096,465.1143669333333 171.75096C463.34532693333335 171.75096,461.82900693333335 171.04896,461.0989269333333 169.61688C460.87428693333334 169.05528,460.7619669333333 168.52176,460.7619669333333 167.93208C460.7619669333333 164.87136,464.18772693333335 161.47368,468.11892693333334 161.27712"></path></g></g><g class="vf-modifiers"></g></g><g class="vf-stavenote" id="vf-auto2605666"><g class="vf-note" pointer-events="bounding-box"><g class="vf-stem" pointer-events="bounding-box"><path stroke-width="1.5" fill="none" stroke="#000000" stroke-dasharray="none" class="vf-stem" id="vf-auto2605666-stem" d="M510.36354026666663 191.5L510.36354026666663 156.5"></path></g><g class="vf-notehead" pointer-events="bounding-box"><path stroke-width="0.3" fill="#000000" stroke="none" stroke-dasharray="none" d="M499.09530026666664 191.5M506.45226026666666 186.27712C506.56458026666667 186.27712,506.73306026666666 186.27712,506.76114026666664 186.27712C506.76114026666664 186.27712,506.78922026666663 186.27712,506.78922026666663 186.27712C506.78922026666663 186.27712,506.9577002666666 186.27712,507.0981002666666 186.27712C509.6253002666666 186.41752,511.11354026666663 188.07424,511.11354026666663 190.15216C511.11354026666663 191.16304,510.77658026666666 192.31432,509.93418026666666 193.40944C508.3336202666666 195.5716,505.72218026666667 196.75096,503.44770026666663 196.75096C501.67866026666667 196.75096,500.16234026666666 196.04896,499.4322602666666 194.61688C499.20762026666665 194.05528,499.09530026666664 193.52176,499.09530026666664 192.93208C499.09530026666664 189.87136,502.52106026666667 186.47368,506.45226026666666 186.27712"></path></g></g><g class="vf-modifiers"></g></g><path stroke-width="1" fill="none" stroke="#000000" stroke-dasharray="none" d="M536.3537504 166.5L668.8788672 166.5"></path><path stroke-width="1" fill="none" stroke="#000000" stroke-dasharray="none" d="M536.3537504 176.5L668.8788672 176.5"></path><path stroke-width="1" fill="none" stroke="#000000" stroke-dasharray="none" d="M536.3537504 186.5L668.8788672 186.5"></path><path stroke-width="1" fill="none" stroke="#000000" stroke-dasharray="none" d="M536.3537504 196.5L668.8788672 196.5"></path><path stroke-width="1" fill="none" stroke="#000000" stroke-dasharray="none" d="M536.3537504 206.5L668.8788672 206.5"></path><rect stroke-width="0.3" fill="#000000" stroke="#000000" stroke-dasharray="none" x="663.8788672" y="166" width="1" height="41"></rect><rect stroke-width="0.3" fill="#000000" stroke="#000000" stroke-dasharray="none" x="666.8788672" y="166" width="3" height="41"></rect><path stroke-width="0.3" fill="#000000" stroke="none" stroke-dasharray="none" d="M662.8788672 182 A2 2 0 0 0 658.8788672 182M658.8788672 182 A2 2 0 0 0 662.8788672 182"></path><path stroke-width="0.3" fill="#000000" stroke="none" stroke-dasharray="none" d="M662.8788672 192 A2 2 0 0 0 658.8788672 192M658.8788672 192 A2 2 0 0 0 662.8788672 192"></path><g class="vf-stavenote" id="vf-auto2605675"><g class="vf-note" pointer-events="bounding-box"><g class="vf-stem" pointer-events="bounding-box"><path stroke-width="1.5" fill="none" stroke="#000000" stroke-dasharray="none" class="vf-stem" id="vf-auto2605675-stem" d="M603.6219904 191.5L603.6219904 156.5"></path></g><g class="vf-notehead" pointer-events="bounding-box"><path stroke-width="0.3" fill="#000000" stroke="none" stroke-dasharray="none" d="M592.3537504 191.5M599.7107103999999 186.27712C599.8230304 186.27712,599.9915103999999 186.27712,600.0195904 186.27712C600.0195904 186.27712,600.0476704 186.27712,600.0476704 186.27712C600.0476704 186.27712,600.2161504 186.27712,600.3565504 186.27712C602.8837503999999 186.41752,604.3719904 188.07424,604.3719904 190.15216C604.3719904 191.16304,604.0350304 192.31432,603.1926304 193.40944C601.5920704 195.5716,598.9806304 196.75096,596.7061504 196.75096C594.9371103999999 196.75096,593.4207904 196.04896,592.6907104 194.61688C592.4660703999999 194.05528,592.3537504 193.52176,592.3537504 192.93208C592.3537504 189.87136,595.7795103999999 186.47368,599.7107103999999 186.27712"></path></g></g><g class="vf-modifiers"></g></g><g class="vf-text"><text stroke-width="0.3" fill="#000000" stroke="none" stroke-dasharray="none" font-family="Times New Roman" font-size="23px" font-weight="bold" font-style="italic" x="156.4784" y="240.5">mp</text></g><path stroke-width="1" fill="none" stroke="#000000" stroke-dasharray="none" d="M70 270.29999999999995L274.50351679999994 270.29999999999995"></path><path stroke-width="1" fill="none" stroke="#000000" stroke-dasharray="none" d="M70 280.29999999999995L274.50351679999994 280.29999999999995"></path><path stroke-width="1" fill="none" stroke="#000000" stroke-dasharray="none" d="M70 290.29999999999995L274.50351679999994 290.29999999999995"></path><path stroke-width="1" fill="none" stroke="#000000" stroke-dasharray="none" d="M70 300.29999999999995L274.50351679999994 300.29999999999995"></path><path stroke-width="1" fill="none" stroke="#000000" stroke-dasharray="none" d="M70 310.29999999999995L274.50351679999994 310.29999999999995"></path><rect stroke-width="0.3" fill="#000000" stroke="#000000" stroke-dasharray="none" x="274.50351679999994" y="269.79999999999995" width="1" height="41"></rect><g class="vf-clef"><path stroke-width="0.3" fill="#000000" stroke="none" stroke-dasharray="none" d="M75 280.29999999999995M83.8416 270.24879999999996C84.072 270.1912,84.3024 270.1912,84.5616 270.1912C85.5696 270.1912,86.7504 270.30639999999994,87.7584 270.508C92.4816 271.4872,95.736 274.68399999999997,96.3408 278.9464C96.3984 279.40719999999993,96.4272 279.83919999999995,96.4272 280.29999999999995C96.4272 282.89199999999994,95.5344 286.23279999999994,94.008 289.02639999999997C90.3792 295.59279999999995,83.7552 300.316,75.8064 302.044C75.6624 302.044,75.5472 302.0728,75.4032 302.0728C75.1152 302.0728,74.9712 301.9,74.9712 301.64079999999996C74.9712 301.35279999999995,75.0288 301.2664,75.6048 301.03599999999994C84.7056 297.6088,90.7824 290.20719999999994,91.3296 281.91279999999995C91.3584 281.48079999999993,91.3584 280.99119999999994,91.3584 280.61679999999996C91.3584 276.5848,90.12 273.58959999999996,87.7296 272.0919999999999C86.6928 271.42959999999994,85.5696 271.11279999999994,84.36 271.11279999999994C81.6816 271.11279999999994,78.9456 272.63919999999996,77.6784 275.20239999999995C77.6208 275.40399999999994,77.4192 275.83599999999996,77.4192 275.86479999999995C77.4192 275.86479999999995,77.4192 275.86479999999995,77.4192 275.86479999999995C77.4192 275.86479999999995,77.448 275.83599999999996,77.5344 275.80719999999997C78.168 275.40399999999994,78.8592 275.20239999999995,79.5792 275.20239999999995C80.5872 275.20239999999995,81.6528 275.63439999999997,82.4016 276.44079999999997C83.0928 277.1895999999999,83.4672 278.19759999999997,83.4672 279.1192C83.4672 280.99119999999994,82.0848 282.89199999999994,79.9248 283.0936C79.7808 283.0936,79.6368 283.12239999999997,79.4928 283.12239999999997C77.1024 283.12239999999997,75.1728 280.93359999999996,75.1728 278.1688C75.1728 278.11119999999994,75.1728 278.02479999999997,75.1728 277.996C75.288 273.8776,79.0608 270.508,83.8416 270.24879999999996M99.1632 274.10799999999995C99.2208 274.07919999999996,99.2496 274.07919999999996,99.336 274.07919999999996C99.5376 274.07919999999996,99.768 274.10799999999995,99.8256 274.1655999999999C100.54560000000001 274.36719999999997,100.8912 275.00079999999997,100.8912 275.6056C100.8912 276.12399999999997,100.632 276.64239999999995,100.11359999999999 276.93039999999996C99.912 277.07439999999997,99.6528 277.10319999999996,99.39359999999999 277.10319999999996C98.9904 277.10319999999996,98.5584 276.93039999999996,98.2704 276.5559999999999C98.03999999999999 276.268,97.9248 275.9512,97.9248 275.63439999999997C97.9248 274.91439999999994,98.3856 274.1944,99.1632 274.10799999999995M99.1632 283.52559999999994C99.2208 283.52559999999994,99.2496 283.52559999999994,99.336 283.52559999999994C99.5376 283.52559999999994,99.768 283.55439999999993,99.8256 283.61199999999997C100.54560000000001 283.81359999999995,100.8912 284.44719999999995,100.8912 285.05199999999996C100.8912 285.57039999999995,100.632 286.08879999999994,100.11359999999999 286.34799999999996C99.912 286.49199999999996,99.6528 286.54959999999994,99.39359999999999 286.54959999999994C98.9904 286.54959999999994,98.5584 286.34799999999996,98.2704 286.00239999999997C98.03999999999999 285.71439999999996,97.9248 285.39759999999995,97.9248 285.05199999999996C97.9248 284.33199999999994,98.3856 283.64079999999996,99.1632 283.52559999999994"></path></g><path stroke-width="0.3" fill="#000000" stroke="none" stroke-dasharray="none" d="M116.8352 290.29999999999995M121.8464 271.63759999999996C121.904 271.63759999999996,122.1056 271.63759999999996,122.336 271.63759999999996C122.71039999999999 271.63759999999996,123.1712 271.63759999999996,123.3152 271.63759999999996C125.9648 271.9256,128.0384 273.3656,128.4128 275.23759999999993C128.4704 275.4104,128.4704 275.61199999999997,128.4704 275.81359999999995C128.4704 276.044,128.4704 276.24559999999997,128.4128 276.3607999999999C128.0384 277.71439999999996,126.45439999999999 278.95279999999997,124.4384 279.5576C124.2944 279.61519999999996,124.2368 279.61519999999996,124.2368 279.64399999999995C124.2368 279.64399999999995,124.2368 279.64399999999995,124.2368 279.64399999999995C124.2656 279.64399999999995,124.352 279.67279999999994,124.4384 279.67279999999994C127.1744 280.6808,128.6144 282.61039999999997,128.6144 284.4823999999999C128.6144 285.9224,127.80799999999999 287.30479999999994,125.9936 288.22639999999996C124.928 288.8024,123.7472 289.06159999999994,122.5952 289.06159999999994C120.6944 289.06159999999994,118.8224 288.34159999999997,117.4976 287.0456C117.008 286.5848,116.8352 286.00879999999995,116.8352 285.43279999999993C116.8352 284.25199999999995,117.6704 283.12879999999996,119.0528 283.12879999999996L119.0528 283.12879999999996C120.4352 283.12879999999996,121.2128 284.1944,121.2128 285.2888C121.2128 286.12399999999997,120.7808 286.95919999999995,119.8016 287.3624C119.8016 287.3624,119.8016 287.3624,119.8016 287.3624C119.8016 287.39119999999997,120.6368 287.56399999999996,121.0688 287.59279999999995C121.1264 287.59279999999995,121.184 287.59279999999995,121.2416 287.59279999999995C123.1424 287.59279999999995,124.4672 286.2392,124.4672 284.36719999999997C124.4672 284.1655999999999,124.4672 283.99279999999993,124.4384 283.79119999999995C124.1216 281.68879999999996,122.71039999999999 280.13359999999994,121.0688 280.07599999999996C120.6656 280.0472,120.464 279.8744,120.464 279.61519999999996C120.464 279.26959999999997,120.6368 279.12559999999996,121.0688 279.12559999999996C122.48 279.03919999999994,123.6896 278.08879999999994,124.1504 276.64879999999994C124.2656 276.3607999999999,124.2944 276.0728,124.2944 275.84239999999994C124.2944 274.6328,123.4016 273.53839999999997,122.0768 273.25039999999996C121.8752 273.16399999999993,121.616 273.16399999999993,121.328 273.16399999999993C120.9248 273.16399999999993,120.5504 273.1928,120.1472 273.25039999999996L120.032 273.27919999999995L120.1472 273.3656C120.896 273.76879999999994,121.2128 274.48879999999997,121.2128 275.20879999999994C121.2128 276.15919999999994,120.5792 277.10959999999994,119.4848 277.36879999999996C119.3408 277.39759999999995,119.168 277.39759999999995,119.024 277.39759999999995C117.7568 277.39759999999995,116.8064 276.24559999999997,116.8064 275.03599999999994C116.8064 274.51759999999996,116.9792 273.9992,117.4112 273.56719999999996C118.4192 272.47279999999995,119.9456 271.83919999999995,121.8464 271.63759999999996M122.71039999999999 290.32879999999994L122.7392 290.32879999999994L122.6528 290.32879999999994L122.71039999999999 290.32879999999994M122.71039999999999 270.91759999999994L122.7392 270.91759999999994L122.6528 270.91759999999994L122.71039999999999 270.91759999999994"></path><path stroke-width="0.3" fill="#000000" stroke="none" stroke-dasharray="none" d="M116 310.29999999999995M121.0112 291.95439999999996C121.04 291.9256,121.4432 291.9256,122.6816 291.9256C123.056 291.9256,123.4592 291.9256,123.9776 291.9256L126.8864 291.9256L126.9728 292.01199999999994C127.1168 292.09839999999997,127.2032 292.2424,127.2032 292.35759999999993C127.2032 292.53039999999993,127.1168 292.64559999999994,127.0016 292.76079999999996C126.9728 292.84719999999993,126.7136 293.07759999999996,126.5408 293.3367999999999L125.0144 295.0936L123.056 297.31119999999993L122.0192 298.49199999999996L120.464 300.27759999999995L118.4192 302.61039999999997C118.0736 303.04239999999993,117.6992 303.388,117.6992 303.388C117.6992 303.388,117.6992 303.388,117.6992 303.388C117.6992 303.44559999999996,117.9584 303.44559999999996,120.3488 303.44559999999996L122.9696 303.44559999999996L122.9696 301.57359999999994C122.9696 299.67279999999994,122.9696 299.64399999999995,122.9984 299.61519999999996C123.056 299.52879999999993,123.3152 299.21199999999993,124.3232 298.03119999999996L124.7264 297.59919999999994L125.1296 297.1672L125.7344 296.3896L126.368 295.7272L126.6848 295.32399999999996C126.8 295.15119999999996,126.9728 295.12239999999997,127.1168 295.12239999999997C127.28960000000001 295.12239999999997,127.4336 295.20879999999994,127.52 295.35279999999995C127.5488 295.43919999999997,127.5488 295.49679999999995,127.5488 297.62799999999993C127.5488 298.1176,127.5488 298.72239999999994,127.5488 299.44239999999996L127.5488 303.44559999999996L128.2688 303.44559999999996C128.9312 303.44559999999996,128.96 303.44559999999996,129.0464 303.47439999999995C129.2768 303.5608,129.392 303.79119999999995,129.392 304.05039999999997C129.392 304.1944,129.3632 304.36719999999997,129.248 304.4823999999999C129.0752 304.62639999999993,129.0464 304.62639999999993,128.2688 304.62639999999993L127.5488 304.62639999999993L127.5488 305.11599999999993C127.5776 306.5848,127.8656 307.16079999999994,128.9888 307.76559999999995C129.392 307.96719999999993,129.4784 308.02479999999997,129.4784 308.3128C129.4784 308.51439999999997,129.42079999999999 308.60079999999994,129.2768 308.71599999999995L129.1904 308.74479999999994L125.2448 308.74479999999994L121.328 308.74479999999994L121.2416 308.71599999999995C121.0688 308.60079999999994,121.04 308.51439999999997,121.04 308.3128C121.04 308.02479999999997,121.0688 307.96719999999993,121.5008 307.76559999999995C122.624 307.16079999999994,122.912 306.5848,122.912 305.11599999999993L122.912 304.62639999999993L119.6 304.62639999999993C118.9952 304.68399999999997,118.5056 304.68399999999997,118.1024 304.68399999999997C116.288 304.68399999999997,116.2592 304.62639999999993,116.2304 304.62639999999993C116.0576 304.56879999999995,116 304.39599999999996,116 304.1944C116 304.1944,116 304.1944,116 304.1944C116 303.99279999999993,116 303.99279999999993,116.576 303.33039999999994C118.9952 300.39279999999997,120.6944 296.13039999999995,120.6944 292.73199999999997C120.6944 292.21359999999993,120.7808 292.04079999999993,121.0112 291.95439999999996M122.7392 310.32879999999994L122.768 310.32879999999994L122.6816 310.32879999999994L122.7392 310.32879999999994M122.7392 290.91759999999994L122.768 290.91759999999994L122.6816 290.91759999999994L122.7392 290.91759999999994"></path><path stroke-width="1" fill="none" stroke="#000000" stroke-dasharray="none" d="M138.4784 260.29999999999995L156.49663999999999 260.29999999999995"></path><g class="vf-stavenote" id="vf-auto2605607"><g class="vf-note" pointer-events="bounding-box"><g class="vf-stem" pointer-events="bounding-box"><path stroke-width="1.5" fill="none" stroke="#000000" stroke-dasharray="none" class="vf-stem" id="vf-auto2605607-stem" d="M142.2284 260.29999999999995L142.2284 295.29999999999995"></path></g><g class="vf-notehead" pointer-events="bounding-box"><path stroke-width="0.3" fill="#000000" stroke="none" stroke-dasharray="none" d="M141.4784 260.29999999999995M148.83535999999998 255.07711999999995C148.94768 255.07711999999995,149.11615999999998 255.07711999999995,149.14424 255.07711999999995C149.14424 255.07711999999995,149.17231999999998 255.07711999999995,149.17231999999998 255.07711999999995C149.17231999999998 255.07711999999995,149.3408 255.07711999999995,149.4812 255.07711999999995C152.0084 255.21751999999995,153.49663999999999 256.87423999999993,153.49663999999999 258.95215999999994C153.49663999999999 259.96304,153.15967999999998 261.11431999999996,152.31727999999998 262.20944C150.71671999999998 264.37159999999994,148.10528 265.55096,145.83079999999998 265.55096C144.06176 265.55096,142.54543999999999 264.84896,141.81536 263.41687999999994C141.59072 262.85527999999994,141.4784 262.3217599999999,141.4784 261.73207999999994C141.4784 258.67135999999994,144.90416 255.27367999999996,148.83535999999998 255.07711999999995"></path></g></g><g class="vf-modifiers"></g></g><g class="vf-stavenote" id="vf-auto2605615"><g class="vf-note" pointer-events="bounding-box"><g class="vf-stem" pointer-events="bounding-box"><path stroke-width="1.5" fill="none" stroke="#000000" stroke-dasharray="none" class="vf-stem" id="vf-auto2605615-stem" d="M197.5871733333333 290.29999999999995L197.5871733333333 255.29999999999995"></path></g><g class="vf-notehead" pointer-events="bounding-box"><path stroke-width="0.3" fill="#000000" stroke="none" stroke-dasharray="none" d="M186.31893333333332 290.29999999999995M193.6758933333333 285.07712C193.78821333333332 285.07712,193.9566933333333 285.07712,193.98477333333332 285.07712C193.98477333333332 285.07712,194.0128533333333 285.07712,194.0128533333333 285.07712C194.0128533333333 285.07712,194.18133333333333 285.07712,194.32173333333333 285.07712C196.84893333333332 285.21752,198.3371733333333 286.87423999999993,198.3371733333333 288.95215999999994C198.3371733333333 289.96304,198.0002133333333 291.11431999999996,197.1578133333333 292.20944C195.5572533333333 294.37159999999994,192.94581333333332 295.55096,190.6713333333333 295.55096C188.90229333333332 295.55096,187.3859733333333 294.84896,186.65589333333332 293.41687999999994C186.43125333333333 292.85527999999994,186.31893333333332 292.3217599999999,186.31893333333332 291.73207999999994C186.31893333333332 288.67135999999994,189.74469333333332 285.27367999999996,193.6758933333333 285.07712"></path></g></g><g class="vf-modifiers"></g></g><rect stroke-width="0.3" fill="#000000" stroke="#000000" stroke-dasharray="none" x="274.50351679999994" y="166.5" width="1" height="144.79999999999995"></rect><rect stroke-width="0.3" fill="#000000" stroke="#000000" stroke-dasharray="none" x="70" y="166.5" width="1" height="144.79999999999995"></rect><path stroke-width="1" fill="none" stroke="#000000" stroke-dasharray="none" d="M274.50351679999994 270.29999999999995L405.4286335999999 270.29999999999995"></path><path stroke-width="1" fill="none" stroke="#000000" stroke-dasharray="none" d="M274.50351679999994 280.29999999999995L405.4286335999999 280.29999999999995"></path><path stroke-width="1" fill="none" stroke="#000000" stroke-dasharray="none" d="M274.50351679999994 290.29999999999995L405.4286335999999 290.29999999999995"></path><path stroke-width="1" fill="none" stroke="#000000" stroke-dasharray="none" d="M274.50351679999994 300.29999999999995L405.4286335999999 300.29999999999995"></path><path stroke-width="1" fill="none" stroke="#000000" stroke-dasharray="none" d="M274.50351679999994 310.29999999999995L405.4286335999999 310.29999999999995"></path><rect stroke-width="0.3" fill="#000000" stroke="#000000" stroke-dasharray="none" x="405.4286335999999" y="269.79999999999995" width="1" height="41"></rect><rect stroke-width="0.3" fill="#000000" stroke="#000000" stroke-dasharray="none" x="405.4286335999999" y="166.5" width="1" height="144.79999999999995"></rect><path stroke-width="1" fill="none" stroke="#000000" stroke-dasharray="none" d="M405.4286336 270.29999999999995L536.3537504 270.29999999999995"></path><path stroke-width="1" fill="none" stroke="#000000" stroke-dasharray="none" d="M405.4286336 280.29999999999995L536.3537504 280.29999999999995"></path><path stroke-width="1" fill="none" stroke="#000000" stroke-dasharray="none" d="M405.4286336 290.29999999999995L536.3537504 290.29999999999995"></path><path stroke-width="1" fill="none" stroke="#000000" stroke-dasharray="none" d="M405.4286336 300.29999999999995L536.3537504 300.29999999999995"></path><path stroke-width="1" fill="none" stroke="#000000" stroke-dasharray="none" d="M405.4286336 310.29999999999995L536.3537504 310.29999999999995"></path><rect stroke-width="0.3" fill="#000000" stroke="#000000" stroke-dasharray="none" x="536.3537504" y="269.79999999999995" width="1" height="41"></rect><rect stroke-width="0.3" fill="#000000" stroke="#000000" stroke-dasharray="none" x="536.3537504" y="166.5" width="1" height="144.79999999999995"></rect><path stroke-width="1" fill="none" stroke="#000000" stroke-dasharray="none" d="M536.3537504 270.29999999999995L668.8788672 270.29999999999995"></path><path stroke-width="1" fill="none" stroke="#000000" stroke-dasharray="none" d="M536.3537504 280.29999999999995L668.8788672 280.29999999999995"></path><path stroke-width="1" fill="none" stroke="#000000" stroke-dasharray="none" d="M536.3537504 290.29999999999995L668.8788672 290.29999999999995"></path><path stroke-width="1" fill="none" stroke="#000000" stroke-dasharray="none" d="M536.3537504 300.29999999999995L668.8788672 300.29999999999995"></path><path stroke-width="1" fill="none" stroke="#000000" stroke-dasharray="none" d="M536.3537504 310.29999999999995L668.8788672 310.29999999999995"></path><rect stroke-width="0.3" fill="#000000" stroke="#000000" stroke-dasharray="none" x="663.8788672" y="269.79999999999995" width="1" height="41"></rect><rect stroke-width="0.3" fill="#000000" stroke="#000000" stroke-dasharray="none" x="666.8788672" y="269.79999999999995" width="3" height="41"></rect><path stroke-width="0.3" fill="#000000" stroke="none" stroke-dasharray="none" d="M662.8788672 285.79999999999995 A2 2 0 0 0 658.8788672 285.79999999999995M658.8788672 285.79999999999995 A2 2 0 0 0 662.8788672 285.79999999999995"></path><path stroke-width="0.3" fill="#000000" stroke="none" stroke-dasharray="none" d="M662.8788672 295.79999999999995 A2 2 0 0 0 658.8788672 295.79999999999995M658.8788672 295.79999999999995 A2 2 0 0 0 662.8788672 295.79999999999995"></path><g class="vf-stavenote" id="vf-auto2605686"><g class="vf-note" pointer-events="bounding-box"><g class="vf-stem" pointer-events="bounding-box"><path stroke-width="1.5" fill="none" stroke="#000000" stroke-dasharray="none" class="vf-stem" id="vf-auto2605686-stem" d="M564.6219904 290.29999999999995L564.6219904 255.29999999999995"></path></g><g class="vf-notehead" pointer-events="bounding-box"><path stroke-width="0.3" fill="#000000" stroke="none" stroke-dasharray="none" d="M553.3537504 290.29999999999995M560.7107103999999 285.07712C560.8230304 285.07712,560.9915103999999 285.07712,561.0195904 285.07712C561.0195904 285.07712,561.0476704 285.07712,561.0476704 285.07712C561.0476704 285.07712,561.2161504 285.07712,561.3565504 285.07712C563.8837503999999 285.21752,565.3719904 286.87423999999993,565.3719904 288.95215999999994C565.3719904 289.96304,565.0350304 291.11431999999996,564.1926304 292.20944C562.5920704 294.37159999999994,559.9806304 295.55096,557.7061504 295.55096C555.9371103999999 295.55096,554.4207904 294.84896,553.6907104 293.41687999999994C553.4660703999999 292.85527999999994,553.3537504 292.3217599999999,553.3537504 291.73207999999994C553.3537504 288.67135999999994,556.7795103999999 285.27367999999996,560.7107103999999 285.07712"></path></g></g><g class="vf-modifiers"></g></g><g class="vf-stavenote" id="vf-auto2605694"><g class="vf-note" pointer-events="bounding-box"><g class="vf-stem" pointer-events="bounding-box"><path stroke-width="1.5" fill="none" stroke="#000000" stroke-dasharray="none" class="vf-stem" id="vf-auto2605694-stem" d="M632.1037504 275.29999999999995L632.1037504 310.29999999999995"></path></g><g class="vf-notehead" pointer-events="bounding-box"><path stroke-width="0.3" fill="#000000" stroke="none" stroke-dasharray="none" d="M631.3537504 275.29999999999995M638.7107103999999 270.07712C638.8230304 270.07712,638.9915103999999 270.07712,639.0195904 270.07712C639.0195904 270.07712,639.0476704 270.07712,639.0476704 270.07712C639.0476704 270.07712,639.2161504 270.07712,639.3565504 270.07712C641.8837503999999 270.21752,643.3719904 271.87423999999993,643.3719904 273.95215999999994C643.3719904 274.96304,643.0350304 276.11431999999996,642.1926304 277.20944C640.5920704 279.37159999999994,637.9806304 280.55096,635.7061504 280.55096C633.9371103999999 280.55096,632.4207904 279.84896,631.6907104 278.41687999999994C631.4660703999999 277.85527999999994,631.3537504 277.3217599999999,631.3537504 276.73207999999994C631.3537504 273.67135999999994,634.7795103999999 270.27367999999996,638.7107103999999 270.07712"></path></g></g><g class="vf-modifiers"></g></g><rect stroke-width="0.3" fill="#000000" stroke="#000000" stroke-dasharray="none" x="663.8788672" y="166.5" width="1" height="144.79999999999995"></rect><rect stroke-width="0.3" fill="#000000" stroke="#000000" stroke-dasharray="none" x="666.8788672" y="166.5" width="3" height="144.79999999999995"></rect><path stroke-width="0.3" fill="#000000" stroke="none" stroke-dasharray="none" d="M68 166.5C45.2 195.45999999999998,81.2 219.35199999999998,56 238.89999999999998C81.2 258.448,45.2 282.34,68 311.29999999999995C44 282.34,72.8 258.448,56 238.89999999999998C72.8 219.35199999999998,44 195.45999999999998,68 166.5"></path><path stroke-width="1" fill="none" stroke="#000000" stroke-dasharray="none" d="M68 166.5C45.2 195.45999999999998,81.2 219.35199999999998,56 238.89999999999998C81.2 258.448,45.2 282.34,68 311.29999999999995C44 282.34,72.8 258.448,56 238.89999999999998C72.8 219.35199999999998,44 195.45999999999998,68 166.5"></path><g class="vf-text"><text stroke-width="0.3" fill="#000000" stroke="none" stroke-dasharray="none" font-family="Times New Roman" font-size="15px" font-weight="normal" font-style="normal" x="401.92863359999996" y="163.5">3</text></g></svg>