<svg xmlns="http://www.w3.org/2000/svg"  width="1470" height="380.79999999999995" viewBox="0 0 1470 380.79999999999995"><path stroke-width="1" fill="none" stroke="#000000" stroke-dasharray="none" d="M70 166.5L278.7035168 166.5"></path><path stroke-width="1" fill="none" stroke="#000000" stroke-dasharray="none" d="M70 176.5L278.7035168 176.5"></path><path stroke-width="1" fill="none" stroke="#000000" stroke-dasharray="none" d="M70 186.5L278.7035168 186.5"></path><path stroke-width="1" fill="none" stroke="#000000" stroke-dasharray="none" d="M70 196.5L278.7035168 196.5"></path><path stroke-width="1" fill="none" stroke="#000000" stroke-dasharray="none" d="M70 206.5L278.7035168 206.5"></path><rect stroke-width="0.3" fill="#000000" stroke="#000000" stroke-dasharray="none" x="278.7035168" y="166" width="1" height="41"></rect><g class="vf-clef"><path stroke-width="0.3" fill="#000000" stroke="none" stroke-dasharray="none" d="M75 196.5M89.0544 153.3288C89.112 153.3,89.1696 153.3,89.256 153.3C89.6016 153.3,90.0048 153.588,90.5808 154.308C92.9136 156.9864,94.5552 161.652,94.5552 165.4536C94.5552 165.7416,94.4976 165.972,94.4976 166.26C94.2384 170.7816,92.3952 174.4968,88.7376 178.0104L87.7584 178.9608L87.4128 179.3352L87.4128 179.4504L87.6144 180.3144L87.9312 181.8696L88.248 183.3096C88.68 185.268,88.8528 186.276,88.8528 186.276C88.8528 186.276,88.8528 186.276,88.8528 186.276C88.8528 186.276,88.968 186.276,89.112 186.2472C89.256 186.2472,89.7168 186.1896,90.2064 186.1896C90.55199999999999 186.1896,90.8976 186.2472,91.0704 186.2472C95.1312 186.7656,98.2704 189.6744,99.1632 193.764C99.336 194.4264,99.39359999999999 195.1464,99.39359999999999 195.8664C99.39359999999999 199.7544,97.0608 203.4696,93.1728 205.2264C92.94239999999999 205.3704,92.856 205.3992,92.856 205.3992L92.856 205.428C92.856 205.428,93.0288 206.0904,93.1728 206.8392L93.6048 209.028L94.008 210.7848C94.2384 211.908,94.3536 212.7144,94.3536 213.4344C94.3536 214.06799999999998,94.2672 214.644,94.1232 215.3064C93.144 219.3096,89.6592 221.7,86.0304 221.7C84.2448 221.7,82.4016 221.124,80.7888 219.828C79.3488 218.6184,78.7152 217.524,78.7152 216.084C78.7152 213.5496,80.76 211.764,82.8912 211.764C83.64 211.764,84.3888 211.99439999999998,85.1088 212.4264C86.3184 213.2616,86.8656 214.5288,86.8656 215.7672C86.8656 217.668,85.5408 219.54,83.2656 219.684L83.0352 219.684L83.208 219.79919999999998C84.1584 220.2024,85.1088 220.404,86.0304 220.404C88.3632 220.404,90.55199999999999 219.2232,91.8768 217.1784C92.62559999999999 216.0264,93.0288 214.6728,93.0288 213.3192C93.0288 212.8008,92.94239999999999 212.2824,92.8272 211.7064C92.8272 211.6488,92.74080000000001 211.188,92.62559999999999 210.756C91.992 207.6456,91.6176 205.8312,91.6176 205.8312C91.6176 205.8312,91.6176 205.8312,91.6176 205.8312C91.56 205.8312,91.4448 205.8312,91.3584 205.8888C91.0704 205.9464,90.4656 206.0904,90.2064 206.1192C89.5728 206.2056,88.968 206.2344,88.392 206.2344C82.74719999999999 206.2344,77.5056 202.4328,75.6912 196.8168C75.2304 195.3192,74.9712 193.8216,74.9712 192.324C74.9712 189.3288,75.9216 186.3912,77.7648 183.7704C79.7808 180.9192,81.7968 178.4712,84.2736 175.9368L85.13759999999999 175.044L84.936 173.9784L84.5616 172.2216L84.072 169.9752C83.928 169.14,83.7552 168.3336,83.7264 168.1608C83.5824 167.2104,83.496 166.2888,83.496 165.3384C83.496 161.7096,84.6768 158.22480000000002,86.8944 155.4312C87.5568 154.5672,88.7376 153.4152,89.0544 153.3288M90.8112 159.0312C90.7536 159.0312,90.6672 159.0312,90.5808 159.0312C89.4 159.0312,87.8736 160.1256,86.8368 161.7384C85.7712 163.32240000000002,85.224 165.4248,85.224 167.5848C85.224 168.1608,85.25280000000001 168.7656,85.3392 169.3704C85.4256 169.8024,85.45439999999999 170.0904,85.6848 171.12720000000002L86.088 172.9416C86.2032 173.4888,86.28960000000001 173.92079999999999,86.28960000000001 173.9784L86.28960000000001 173.9784C86.3184 173.9784,87.2112 172.9992,87.4992 172.6536C90.3792 169.3992,92.1072 165.972,92.4816 162.948C92.5104 162.66,92.5104 162.4296,92.5104 162.1416C92.5104 161.24880000000002,92.3952 160.38479999999998,92.1936 159.924C91.9632 159.4632,91.4448 159.0888,90.8112 159.0312M86.4624 181.2936C86.4048 180.8904,86.3184 180.5736,86.3184 180.516C86.3184 180.516,86.3184 180.516,86.28960000000001 180.516C86.232 180.516,84.9936 181.956,84.1296 182.964C82.6608 184.7496,81.1056 186.8808,80.472 187.9176C79.2624 189.9624,78.6576 192.2376,78.6576 194.484C78.6576 195.9528,78.9456 197.364,79.464 198.7176C81.0192 202.7208,84.5904 205.2264,88.4784 205.2264C88.9392 205.2264,89.4576 205.1976,89.9472 205.1112C90.5808 204.996,91.3584 204.7656,91.3584 204.6792L91.3584 204.6792C91.3584 204.6792,91.3008 204.3912,91.2144 204.0744L90.3792 199.956L89.7168 196.8744L89.2848 194.7432L88.824 192.6696C88.5936 191.4312,88.5072 191.1144,88.5072 191.1144C88.5072 191.1144,88.5072 191.0856,88.4784 191.0856C88.3056 191.0856,87.384 191.5464,86.9808 191.8344C85.4832 192.8712,84.7056 194.5128,84.7056 196.1256C84.7056 197.652,85.45439999999999 199.1784,86.8944 200.0712C87.2112 200.2728,87.3264 200.4456,87.3264 200.6472C87.3264 200.676,87.3264 200.7624,87.3264 200.7912C87.2688 201.1368,87.0672 201.2808,86.7792 201.2808C86.664 201.2808,86.52 201.252,86.3472 201.1656C83.6976 200.0136,81.912 197.2776,81.912 194.2824L81.912 194.2824C81.912 190.8264,84.072 187.8312,87.384 186.6504L87.5568 186.5928L87.2688 185.1528L86.4624 181.2936M90.7824 190.9128C90.55199999999999 190.88400000000001,90.3216 190.88400000000001,90.1488 190.88400000000001C90.0912 190.88400000000001,90.0048 190.88400000000001,89.9472 190.88400000000001L89.8032 190.88400000000001L89.9184 191.4024L90.5232 194.2248L90.8976 196.068L91.3008 197.8824L92.1072 201.8856L92.424 203.412C92.5392 203.8152,92.5968 204.1608,92.62559999999999 204.1608C92.62559999999999 204.1608,92.62559999999999 204.1608,92.62559999999999 204.1608C92.6544 204.1608,93.144 203.8728,93.4608 203.6424C94.9296 202.6056,96.024 200.9928,96.4272 199.3224C96.5712 198.7752,96.6288 198.1992,96.6288 197.652C96.6288 194.3112,94.152 191.2872,90.7824 190.9128"></path></g><path stroke-width="0.3" fill="#000000" stroke="none" stroke-dasharray="none" d="M116.8352 186.5M121.8464 167.8376C121.904 167.8376,122.1056 167.8376,122.336 167.8376C122.71039999999999 167.8376,123.1712 167.8376,123.3152 167.8376C125.9648 168.1256,128.0384 169.5656,128.4128 171.4376C128.4704 171.6104,128.4704 171.812,128.4704 172.0136C128.4704 172.244,128.4704 172.4456,128.4128 172.5608C128.0384 173.9144,126.45439999999999 175.1528,124.4384 175.7576C124.2944 175.8152,124.2368 175.8152,124.2368 175.844C124.2368 175.844,124.2368 175.844,124.2368 175.844C124.2656 175.844,124.352 175.8728,124.4384 175.8728C127.1744 176.8808,128.6144 178.8104,128.6144 180.6824C128.6144 182.1224,127.80799999999999 183.5048,125.9936 184.4264C124.928 185.0024,123.7472 185.2616,122.5952 185.2616C120.6944 185.2616,118.8224 184.5416,117.4976 183.2456C117.008 182.7848,116.8352 182.2088,116.8352 181.6328C116.8352 180.452,117.6704 179.3288,119.0528 179.3288L119.0528 179.3288C120.4352 179.3288,121.2128 180.3944,121.2128 181.4888C121.2128 182.324,120.7808 183.1592,119.8016 183.5624C119.8016 183.5624,119.8016 183.5624,119.8016 183.5624C119.8016 183.5912,120.6368 183.764,121.0688 183.7928C121.1264 183.7928,121.184 183.7928,121.2416 183.7928C123.1424 183.7928,124.4672 182.4392,124.4672 180.5672C124.4672 180.3656,124.4672 180.1928,124.4384 179.9912C124.1216 177.8888,122.71039999999999 176.3336,121.0688 176.276C120.6656 176.2472,120.464 176.0744,120.464 175.8152C120.464 175.4696,120.6368 175.3256,121.0688 175.3256C122.48 175.2392,123.6896 174.2888,124.1504 172.8488C124.2656 172.5608,124.2944 172.2728,124.2944 172.0424C124.2944 170.8328,123.4016 169.7384,122.0768 169.4504C121.8752 169.364,121.616 169.364,121.328 169.364C120.9248 169.364,120.5504 169.3928,120.1472 169.4504L120.032 169.4792L120.1472 169.5656C120.896 169.9688,121.2128 170.68880000000001,121.2128 171.4088C121.2128 172.3592,120.5792 173.3096,119.4848 173.5688C119.3408 173.5976,119.168 173.5976,119.024 173.5976C117.7568 173.5976,116.8064 172.4456,116.8064 171.236C116.8064 170.7176,116.9792 170.1992,117.4112 169.7672C118.4192 168.6728,119.9456 168.0392,121.8464 167.8376M122.71039999999999 186.5288L122.7392 186.5288L122.6528 186.5288L122.71039999999999 186.5288M122.71039999999999 167.1176L122.7392 167.1176L122.6528 167.1176L122.71039999999999 167.1176"></path><path stroke-width="0.3" fill="#000000" stroke="none" stroke-dasharray="none" d="M116 206.5M121.0112 188.1544C121.04 188.1256,121.4432 188.1256,122.6816 188.1256C123.056 188.1256,123.4592 188.1256,123.9776 188.1256L126.8864 188.1256L126.9728 188.212C127.1168 188.29840000000002,127.2032 188.4424,127.2032 188.5576C127.2032 188.7304,127.1168 188.8456,127.0016 188.9608C126.9728 189.0472,126.7136 189.2776,126.5408 189.5368L125.0144 191.2936L123.056 193.5112L122.0192 194.692L120.464 196.4776L118.4192 198.8104C118.0736 199.2424,117.6992 199.588,117.6992 199.588C117.6992 199.588,117.6992 199.588,117.6992 199.588C117.6992 199.6456,117.9584 199.6456,120.3488 199.6456L122.9696 199.6456L122.9696 197.7736C122.9696 195.8728,122.9696 195.844,122.9984 195.8152C123.056 195.7288,123.3152 195.412,124.3232 194.2312L124.7264 193.7992L125.1296 193.3672L125.7344 192.5896L126.368 191.9272L126.6848 191.524C126.8 191.3512,126.9728 191.3224,127.1168 191.3224C127.28960000000001 191.3224,127.4336 191.4088,127.52 191.5528C127.5488 191.6392,127.5488 191.6968,127.5488 193.828C127.5488 194.3176,127.5488 194.9224,127.5488 195.6424L127.5488 199.6456L128.2688 199.6456C128.9312 199.6456,128.96 199.6456,129.0464 199.6744C129.2768 199.7608,129.392 199.9912,129.392 200.2504C129.392 200.3944,129.3632 200.5672,129.248 200.6824C129.0752 200.8264,129.0464 200.8264,128.2688 200.8264L127.5488 200.8264L127.5488 201.316C127.5776 202.7848,127.8656 203.3608,128.9888 203.9656C129.392 204.1672,129.4784 204.2248,129.4784 204.5128C129.4784 204.7144,129.42079999999999 204.8008,129.2768 204.916L129.1904 204.9448L125.2448 204.9448L121.328 204.9448L121.2416 204.916C121.0688 204.8008,121.04 204.7144,121.04 204.5128C121.04 204.2248,121.0688 204.1672,121.5008 203.9656C122.624 203.3608,122.912 202.7848,122.912 201.316L122.912 200.8264L119.6 200.8264C118.9952 200.88400000000001,118.5056 200.88400000000001,118.1024 200.88400000000001C116.288 200.88400000000001,116.2592 200.8264,116.2304 200.8264C116.0576 200.7688,116 200.596,116 200.3944C116 200.3944,116 200.3944,116 200.3944C116 200.1928,116 200.1928,116.576 199.5304C118.9952 196.5928,120.6944 192.3304,120.6944 188.93200000000002C120.6944 188.4136,120.7808 188.2408,121.0112 188.1544M122.7392 206.5288L122.768 206.5288L122.6816 206.5288L122.7392 206.5288M122.7392 187.1176L122.768 187.1176L122.6816 187.1176L122.7392 187.1176"></path><g class="vf-stavenote" id="vf-auto3441123"><g class="vf-note" pointer-events="bounding-box"><g class="vf-stem" pointer-events="bounding-box"><path stroke-width="1.5" fill="none" stroke="#000000" stroke-dasharray="none" class="vf-stem" id="vf-auto3441123-stem" d="M188.40226666666666 171.5L188.40226666666666 206.5"></path></g><g class="vf-notehead" pointer-events="bounding-box"><path stroke-width="0.3" fill="#000000" stroke="none" stroke-dasharray="none" d="M187.65226666666666 171.5M195.00922666666665 166.27712C195.12154666666666 166.27712,195.29002666666668 166.27712,195.31810666666667 166.27712C195.31810666666667 166.27712,195.34618666666665 166.27712,195.34618666666665 166.27712C195.34618666666665 166.27712,195.51466666666667 166.27712,195.65506666666667 166.27712C198.18226666666666 166.41752,199.67050666666665 168.07424,199.67050666666665 170.15216C199.67050666666665 171.16304,199.33354666666668 172.31432,198.49114666666665 173.40944C196.89058666666665 175.5716,194.27914666666666 176.75096,192.00466666666665 176.75096C190.23562666666666 176.75096,188.71930666666665 176.04896,187.98922666666667 174.61688C187.76458666666667 174.05528,187.65226666666666 173.52176,187.65226666666666 172.93208C187.65226666666666 169.87136,191.07802666666666 166.47368,195.00922666666665 166.27712"></path></g></g><g class="vf-modifiers"></g></g><path stroke-width="1" fill="none" stroke="#000000" stroke-dasharray="none" d="M230.82613333333333 216.5L248.84437333333332 216.5"></path><g class="vf-stavenote" id="vf-auto3441131"><g class="vf-note" pointer-events="bounding-box"><g class="vf-stem" pointer-events="bounding-box"><path stroke-width="1.5" fill="none" stroke="#000000" stroke-dasharray="none" class="vf-stem" id="vf-auto3441131-stem" d="M245.09437333333332 221.5L245.09437333333332 186.5"></path></g><g class="vf-notehead" pointer-events="bounding-box"><path stroke-width="0.3" fill="#000000" stroke="none" stroke-dasharray="none" d="M233.82613333333333 221.5M241.18309333333332 216.27712C241.29541333333333 216.27712,241.46389333333332 216.27712,241.49197333333333 216.27712C241.49197333333333 216.27712,241.52005333333332 216.27712,241.52005333333332 216.27712C241.52005333333332 216.27712,241.68853333333334 216.27712,241.82893333333334 216.27712C244.35613333333333 216.41752,245.84437333333332 218.07424,245.84437333333332 220.15216C245.84437333333332 221.16304,245.50741333333332 222.31432,244.66501333333332 223.40944C243.06445333333332 225.5716,240.45301333333333 226.75096,238.17853333333332 226.75096C236.40949333333333 226.75096,234.89317333333332 226.04896,234.16309333333334 224.61688C233.93845333333334 224.05528,233.82613333333333 223.52176,233.82613333333333 222.93208C233.82613333333333 219.87136,237.25189333333333 216.47368,241.18309333333332 216.27712"></path></g></g><g class="vf-modifiers"></g></g><path stroke-width="1" fill="none" stroke="#000000" stroke-dasharray="none" d="M278.7035168 166.5L405.42863359999996 166.5"></path><path stroke-width="1" fill="none" stroke="#000000" stroke-dasharray="none" d="M278.7035168 176.5L405.42863359999996 176.5"></path><path stroke-width="1" fill="none" stroke="#000000" stroke-dasharray="none" d="M278.7035168 186.5L405.42863359999996 186.5"></path><path stroke-width="1" fill="none" stroke="#000000" stroke-dasharray="none" d="M278.7035168 196.5L405.42863359999996 196.5"></path><path stroke-width="1" fill="none" stroke="#000000" stroke-dasharray="none" d="M278.7035168 206.5L405.42863359999996 206.5"></path><rect stroke-width="0.3" fill="#000000" stroke="#000000" stroke-dasharray="none" x="405.42863359999996" y="166" width="1" height="41"></rect><g class="vf-stavenote" id="vf-auto3441151"><g class="vf-note" pointer-events="bounding-box"><g class="vf-stem" pointer-events="bounding-box"><path stroke-width="1.5" fill="none" stroke="#000000" stroke-dasharray="none" class="vf-stem" id="vf-auto3441151-stem" d="M306.9717568 201.5L306.9717568 166.5"></path></g><g class="vf-notehead" pointer-events="bounding-box"><path stroke-width="0.3" fill="#000000" stroke="none" stroke-dasharray="none" d="M295.7035168 201.5M303.0604768 196.27712C303.1727968 196.27712,303.3412768 196.27712,303.3693568 196.27712C303.3693568 196.27712,303.3974368 196.27712,303.3974368 196.27712C303.3974368 196.27712,303.56591679999997 196.27712,303.70631679999997 196.27712C306.23351679999996 196.41752,307.7217568 198.07424,307.7217568 200.15216C307.7217568 201.16304,307.3847968 202.31432,306.5423968 203.40944C304.9418368 205.5716,302.3303968 206.75096,300.0559168 206.75096C298.2868768 206.75096,296.7705568 206.04896,296.04047679999996 204.61688C295.8158368 204.05528,295.7035168 203.52176,295.7035168 202.93208C295.7035168 199.87136,299.1292768 196.47368,303.0604768 196.27712"></path></g></g><g class="vf-modifiers"></g></g><g class="vf-stavenote" id="vf-auto3441159"><g class="vf-note" pointer-events="bounding-box"><g class="vf-stem" pointer-events="bounding-box"><path stroke-width="1.5" fill="none" stroke="#000000" stroke-dasharray="none" class="vf-stem" id="vf-auto3441159-stem" d="M333.4535168 181.5L333.4535168 216.5"></path></g><g class="vf-notehead" pointer-events="bounding-box"><path stroke-width="0.3" fill="#000000" stroke="none" stroke-dasharray="none" d="M332.7035168 181.5M340.0604768 176.27712C340.1727968 176.27712,340.3412768 176.27712,340.3693568 176.27712C340.3693568 176.27712,340.3974368 176.27712,340.3974368 176.27712C340.3974368 176.27712,340.56591679999997 176.27712,340.70631679999997 176.27712C343.23351679999996 176.41752,344.7217568 178.07424,344.7217568 180.15216C344.7217568 181.16304,344.3847968 182.31432,343.5423968 183.40944C341.9418368 185.5716,339.3303968 186.75096,337.0559168 186.75096C335.2868768 186.75096,333.7705568 186.04896,333.04047679999996 184.61688C332.8158368 184.05528,332.7035168 183.52176,332.7035168 182.93208C332.7035168 179.87136,336.1292768 176.47368,340.0604768 176.27712"></path></g></g><g class="vf-modifiers"></g></g><path stroke-width="1" fill="none" stroke="#000000" stroke-dasharray="none" d="M405.4286336 166.5L532.1537504 166.5"></path><path stroke-width="1" fill="none" stroke="#000000" stroke-dasharray="none" d="M405.4286336 176.5L532.1537504 176.5"></path><path stroke-width="1" fill="none" stroke="#000000" stroke-dasharray="none" d="M405.4286336 186.5L532.1537504 186.5"></path><path stroke-width="1" fill="none" stroke="#000000" stroke-dasharray="none" d="M405.4286336 196.5L532.1537504 196.5"></path><path stroke-width="1" fill="none" stroke="#000000" stroke-dasharray="none" d="M405.4286336 206.5L532.1537504 206.5"></path><rect stroke-width="0.3" fill="#000000" stroke="#000000" stroke-dasharray="none" x="532.1537504" y="166" width="1" height="41"></rect><g class="vf-stavenote" id="vf-auto3441179"><g class="vf-note" pointer-events="bounding-box"><g class="vf-stem" pointer-events="bounding-box"><path stroke-width="1.5" fill="none" stroke="#000000" stroke-dasharray="none" class="vf-stem" id="vf-auto3441179-stem" d="M433.6968736 211.5L433.6968736 176.5"></path></g><g class="vf-notehead" pointer-events="bounding-box"><path stroke-width="0.3" fill="#000000" stroke="none" stroke-dasharray="none" d="M422.4286336 211.5M429.7855936 206.27712C429.89791360000004 206.27712,430.0663936 206.27712,430.0944736 206.27712C430.0944736 206.27712,430.1225536 206.27712,430.1225536 206.27712C430.1225536 206.27712,430.2910336 206.27712,430.4314336 206.27712C432.9586336 206.41752,434.4468736 208.07424,434.4468736 210.15216C434.4468736 211.16304,434.1099136 212.31432,433.26751360000003 213.40944C431.6669536 215.5716,429.05551360000004 216.75096,426.7810336 216.75096C425.01199360000004 216.75096,423.49567360000003 216.04896,422.7655936 214.61688C422.5409536 214.05528,422.4286336 213.52176,422.4286336 212.93208C422.4286336 209.87136,425.85439360000004 206.47368,429.7855936 206.27712"></path></g></g><g class="vf-modifiers"></g></g><g class="vf-stavenote" id="vf-auto3441187"><g class="vf-note" pointer-events="bounding-box"><g class="vf-stem" pointer-events="bounding-box"><path stroke-width="1.5" fill="none" stroke="#000000" stroke-dasharray="none" class="vf-stem" id="vf-auto3441187-stem" d="M497.1786336 166.5L497.1786336 201.5"></path></g><g class="vf-notehead" pointer-events="bounding-box"><path stroke-width="0.3" fill="#000000" stroke="none" stroke-dasharray="none" d="M496.4286336 166.5M503.7855936 161.27712C503.89791360000004 161.27712,504.0663936 161.27712,504.0944736 161.27712C504.0944736 161.27712,504.1225536 161.27712,504.1225536 161.27712C504.1225536 161.27712,504.2910336 161.27712,504.4314336 161.27712C506.9586336 161.41752,508.4468736 163.07424,508.4468736 165.15216C508.4468736 166.16304,508.1099136 167.31432,507.26751360000003 168.40944C505.6669536 170.5716,503.05551360000004 171.75096,500.7810336 171.75096C499.01199360000004 171.75096,497.49567360000003 171.04896,496.7655936 169.61688C496.5409536 169.05528,496.4286336 168.52176,496.4286336 167.93208C496.4286336 164.87136,499.85439360000004 161.47368,503.7855936 161.27712"></path></g></g><g class="vf-modifiers"></g></g><path stroke-width="1" fill="none" stroke="#000000" stroke-dasharray="none" d="M532.1537504 166.5L650.4788672 166.5"></path><path stroke-width="1" fill="none" stroke="#000000" stroke-dasharray="none" d="M532.1537504 176.5L650.4788672 176.5"></path><path stroke-width="1" fill="none" stroke="#000000" stroke-dasharray="none" d="M532.1537504 186.5L650.4788672 186.5"></path><path stroke-width="1" fill="none" stroke="#000000" stroke-dasharray="none" d="M532.1537504 196.5L650.4788672 196.5"></path><path stroke-width="1" fill="none" stroke="#000000" stroke-dasharray="none" d="M532.1537504 206.5L650.4788672 206.5"></path><rect stroke-width="0.3" fill="#000000" stroke="#000000" stroke-dasharray="none" x="645.4788672" y="166" width="1" height="41"></rect><rect stroke-width="0.3" fill="#000000" stroke="#000000" stroke-dasharray="none" x="648.4788672" y="166" width="3" height="41"></rect><g class="vf-text"><text stroke-width="0.3" fill="#000000" stroke="none" stroke-dasharray="none" font-family="Times New Roman" font-size="23px" font-weight="bold" font-style="italic" x="165.4784" y="240.5">p</text></g><path stroke-width="1" fill="none" stroke="#000000" stroke-dasharray="none" d="M70 264.3L278.7035168 264.3"></path><path stroke-width="1" fill="none" stroke="#000000" stroke-dasharray="none" d="M70 274.3L278.7035168 274.3"></path><path stroke-width="1" fill="none" stroke="#000000" stroke-dasharray="none" d="M70 284.3L278.7035168 284.3"></path><path stroke-width="1" fill="none" stroke="#000000" stroke-dasharray="none" d="M70 294.3L278.7035168 294.3"></path><path stroke-width="1" fill="none" stroke="#000000" stroke-dasharray="none" d="M70 304.3L278.7035168 304.3"></path><rect stroke-width="0.3" fill="#000000" stroke="#000000" stroke-dasharray="none" x="278.7035168" y="263.8" width="1" height="41"></rect><g class="vf-clef"><path stroke-width="0.3" fill="#000000" stroke="none" stroke-dasharray="none" d="M75 274.3M83.8416 264.2488C84.072 264.19120000000004,84.3024 264.19120000000004,84.5616 264.19120000000004C85.5696 264.19120000000004,86.7504 264.3064,87.7584 264.50800000000004C92.4816 265.48720000000003,95.736 268.684,96.3408 272.94640000000004C96.3984 273.4072,96.4272 273.8392,96.4272 274.3C96.4272 276.892,95.5344 280.2328,94.008 283.0264C90.3792 289.5928,83.7552 294.31600000000003,75.8064 296.044C75.6624 296.044,75.5472 296.07280000000003,75.4032 296.07280000000003C75.1152 296.07280000000003,74.9712 295.90000000000003,74.9712 295.6408C74.9712 295.3528,75.0288 295.26640000000003,75.6048 295.036C84.7056 291.60880000000003,90.7824 284.2072,91.3296 275.9128C91.3584 275.4808,91.3584 274.9912,91.3584 274.6168C91.3584 270.58480000000003,90.12 267.5896,87.7296 266.092C86.6928 265.4296,85.5696 265.1128,84.36 265.1128C81.6816 265.1128,78.9456 266.6392,77.6784 269.2024C77.6208 269.404,77.4192 269.836,77.4192 269.8648C77.4192 269.8648,77.4192 269.8648,77.4192 269.8648C77.4192 269.8648,77.448 269.836,77.5344 269.8072C78.168 269.404,78.8592 269.2024,79.5792 269.2024C80.5872 269.2024,81.6528 269.6344,82.4016 270.4408C83.0928 271.1896,83.4672 272.1976,83.4672 273.11920000000003C83.4672 274.9912,82.0848 276.892,79.9248 277.09360000000004C79.7808 277.09360000000004,79.6368 277.1224,79.4928 277.1224C77.1024 277.1224,75.1728 274.9336,75.1728 272.16880000000003C75.1728 272.1112,75.1728 272.0248,75.1728 271.99600000000004C75.288 267.87760000000003,79.0608 264.50800000000004,83.8416 264.2488M99.1632 268.108C99.2208 268.0792,99.2496 268.0792,99.336 268.0792C99.5376 268.0792,99.768 268.108,99.8256 268.16560000000004C100.54560000000001 268.3672,100.8912 269.0008,100.8912 269.60560000000004C100.8912 270.124,100.632 270.6424,100.11359999999999 270.9304C99.912 271.0744,99.6528 271.1032,99.39359999999999 271.1032C98.9904 271.1032,98.5584 270.9304,98.2704 270.55600000000004C98.03999999999999 270.26800000000003,97.9248 269.95120000000003,97.9248 269.6344C97.9248 268.9144,98.3856 268.19440000000003,99.1632 268.108M99.1632 277.5256C99.2208 277.5256,99.2496 277.5256,99.336 277.5256C99.5376 277.5256,99.768 277.5544,99.8256 277.612C100.54560000000001 277.8136,100.8912 278.4472,100.8912 279.052C100.8912 279.5704,100.632 280.0888,100.11359999999999 280.348C99.912 280.492,99.6528 280.5496,99.39359999999999 280.5496C98.9904 280.5496,98.5584 280.348,98.2704 280.0024C98.03999999999999 279.7144,97.9248 279.3976,97.9248 279.052C97.9248 278.332,98.3856 277.6408,99.1632 277.5256"></path></g><path stroke-width="0.3" fill="#000000" stroke="none" stroke-dasharray="none" d="M116.8352 284.3M121.8464 265.6376C121.904 265.6376,122.1056 265.6376,122.336 265.6376C122.71039999999999 265.6376,123.1712 265.6376,123.3152 265.6376C125.9648 265.92560000000003,128.0384 267.36560000000003,128.4128 269.2376C128.4704 269.41040000000004,128.4704 269.612,128.4704 269.8136C128.4704 270.044,128.4704 270.2456,128.4128 270.36080000000004C128.0384 271.7144,126.45439999999999 272.9528,124.4384 273.55760000000004C124.2944 273.6152,124.2368 273.6152,124.2368 273.644C124.2368 273.644,124.2368 273.644,124.2368 273.644C124.2656 273.644,124.352 273.6728,124.4384 273.6728C127.1744 274.68080000000003,128.6144 276.6104,128.6144 278.4824C128.6144 279.92240000000004,127.80799999999999 281.3048,125.9936 282.2264C124.928 282.80240000000003,123.7472 283.0616,122.5952 283.0616C120.6944 283.0616,118.8224 282.3416,117.4976 281.04560000000004C117.008 280.58480000000003,116.8352 280.0088,116.8352 279.4328C116.8352 278.252,117.6704 277.1288,119.0528 277.1288L119.0528 277.1288C120.4352 277.1288,121.2128 278.19440000000003,121.2128 279.28880000000004C121.2128 280.124,120.7808 280.9592,119.8016 281.36240000000004C119.8016 281.36240000000004,119.8016 281.36240000000004,119.8016 281.36240000000004C119.8016 281.3912,120.6368 281.564,121.0688 281.5928C121.1264 281.5928,121.184 281.5928,121.2416 281.5928C123.1424 281.5928,124.4672 280.23920000000004,124.4672 278.3672C124.4672 278.16560000000004,124.4672 277.9928,124.4384 277.7912C124.1216 275.6888,122.71039999999999 274.1336,121.0688 274.076C120.6656 274.04720000000003,120.464 273.87440000000004,120.464 273.6152C120.464 273.2696,120.6368 273.1256,121.0688 273.1256C122.48 273.0392,123.6896 272.0888,124.1504 270.6488C124.2656 270.36080000000004,124.2944 270.07280000000003,124.2944 269.8424C124.2944 268.63280000000003,123.4016 267.5384,122.0768 267.2504C121.8752 267.164,121.616 267.164,121.328 267.164C120.9248 267.164,120.5504 267.19280000000003,120.1472 267.2504L120.032 267.2792L120.1472 267.36560000000003C120.896 267.7688,121.2128 268.4888,121.2128 269.2088C121.2128 270.1592,120.5792 271.1096,119.4848 271.3688C119.3408 271.3976,119.168 271.3976,119.024 271.3976C117.7568 271.3976,116.8064 270.2456,116.8064 269.036C116.8064 268.5176,116.9792 267.99920000000003,117.4112 267.5672C118.4192 266.4728,119.9456 265.8392,121.8464 265.6376M122.71039999999999 284.3288L122.7392 284.3288L122.6528 284.3288L122.71039999999999 284.3288M122.71039999999999 264.9176L122.7392 264.9176L122.6528 264.9176L122.71039999999999 264.9176"></path><path stroke-width="0.3" fill="#000000" stroke="none" stroke-dasharray="none" d="M116 304.3M121.0112 285.9544C121.04 285.92560000000003,121.4432 285.92560000000003,122.6816 285.92560000000003C123.056 285.92560000000003,123.4592 285.92560000000003,123.9776 285.92560000000003L126.8864 285.92560000000003L126.9728 286.012C127.1168 286.0984,127.2032 286.24240000000003,127.2032 286.3576C127.2032 286.5304,127.1168 286.6456,127.0016 286.7608C126.9728 286.8472,126.7136 287.0776,126.5408 287.33680000000004L125.0144 289.09360000000004L123.056 291.3112L122.0192 292.492L120.464 294.2776L118.4192 296.6104C118.0736 297.0424,117.6992 297.38800000000003,117.6992 297.38800000000003C117.6992 297.38800000000003,117.6992 297.38800000000003,117.6992 297.38800000000003C117.6992 297.4456,117.9584 297.4456,120.3488 297.4456L122.9696 297.4456L122.9696 295.5736C122.9696 293.6728,122.9696 293.644,122.9984 293.6152C123.056 293.5288,123.3152 293.212,124.3232 292.0312L124.7264 291.5992L125.1296 291.16720000000004L125.7344 290.38960000000003L126.368 289.72720000000004L126.6848 289.324C126.8 289.1512,126.9728 289.1224,127.1168 289.1224C127.28960000000001 289.1224,127.4336 289.2088,127.52 289.3528C127.5488 289.4392,127.5488 289.4968,127.5488 291.628C127.5488 292.11760000000004,127.5488 292.7224,127.5488 293.4424L127.5488 297.4456L128.2688 297.4456C128.9312 297.4456,128.96 297.4456,129.0464 297.4744C129.2768 297.56080000000003,129.392 297.7912,129.392 298.0504C129.392 298.19440000000003,129.3632 298.3672,129.248 298.4824C129.0752 298.6264,129.0464 298.6264,128.2688 298.6264L127.5488 298.6264L127.5488 299.116C127.5776 300.58480000000003,127.8656 301.1608,128.9888 301.7656C129.392 301.9672,129.4784 302.0248,129.4784 302.31280000000004C129.4784 302.5144,129.42079999999999 302.6008,129.2768 302.716L129.1904 302.7448L125.2448 302.7448L121.328 302.7448L121.2416 302.716C121.0688 302.6008,121.04 302.5144,121.04 302.31280000000004C121.04 302.0248,121.0688 301.9672,121.5008 301.7656C122.624 301.1608,122.912 300.58480000000003,122.912 299.116L122.912 298.6264L119.6 298.6264C118.9952 298.684,118.5056 298.684,118.1024 298.684C116.288 298.684,116.2592 298.6264,116.2304 298.6264C116.0576 298.5688,116 298.396,116 298.19440000000003C116 298.19440000000003,116 298.19440000000003,116 298.19440000000003C116 297.9928,116 297.9928,116.576 297.3304C118.9952 294.3928,120.6944 290.1304,120.6944 286.732C120.6944 286.2136,120.7808 286.0408,121.0112 285.9544M122.7392 304.3288L122.768 304.3288L122.6816 304.3288L122.7392 304.3288M122.7392 284.9176L122.768 284.9176L122.6816 284.9176L122.7392 284.9176"></path><g class="vf-stavenote" id="vf-auto3441141"><g class="vf-note" pointer-events="bounding-box"><g class="vf-stem" pointer-events="bounding-box"><path stroke-width="1.5" fill="none" stroke="#000000" stroke-dasharray="none" class="vf-stem" id="vf-auto3441141-stem" d="M152.74663999999999 289.3L152.74663999999999 254.3"></path></g><g class="vf-notehead" pointer-events="bounding-box"><path stroke-width="0.3" fill="#000000" stroke="none" stroke-dasharray="none" d="M141.4784 289.3M148.83535999999998 284.07712000000004C148.94768 284.07712000000004,149.11615999999998 284.07712000000004,149.14424 284.07712000000004C149.14424 284.07712000000004,149.17231999999998 284.07712000000004,149.17231999999998 284.07712000000004C149.17231999999998 284.07712000000004,149.3408 284.07712000000004,149.4812 284.07712000000004C152.0084 284.21752000000004,153.49663999999999 285.87424,153.49663999999999 287.95216C153.49663999999999 288.96304000000003,153.15967999999998 290.11432,152.31727999999998 291.20944000000003C150.71671999999998 293.3716,148.10528 294.55096000000003,145.83079999999998 294.55096000000003C144.06176 294.55096000000003,142.54543999999999 293.84896000000003,141.81536 292.41688C141.59072 291.85528,141.4784 291.32176,141.4784 290.73208C141.4784 287.67136,144.90416 284.27368,148.83535999999998 284.07712000000004"></path></g></g><g class="vf-modifiers"></g></g><rect stroke-width="0.3" fill="#000000" stroke="#000000" stroke-dasharray="none" x="278.7035168" y="166.5" width="1" height="138.8"></rect><rect stroke-width="0.3" fill="#000000" stroke="#000000" stroke-dasharray="none" x="70" y="166.5" width="1" height="138.8"></rect><path stroke-width="1" fill="none" stroke="#000000" stroke-dasharray="none" d="M278.7035168 264.3L405.42863359999996 264.3"></path><path stroke-width="1" fill="none" stroke="#000000" stroke-dasharray="none" d="M278.7035168 274.3L405.42863359999996 274.3"></path><path stroke-width="1" fill="none" stroke="#000000" stroke-dasharray="none" d="M278.7035168 284.3L405.42863359999996 284.3"></path><path stroke-width="1" fill="none" stroke="#000000" stroke-dasharray="none" d="M278.7035168 294.3L405.42863359999996 294.3"></path><path stroke-width="1" fill="none" stroke="#000000" stroke-dasharray="none" d="M278.7035168 304.3L405.42863359999996 304.3"></path><rect stroke-width="0.3" fill="#000000" stroke="#000000" stroke-dasharray="none" x="405.42863359999996" y="263.8" width="1" height="41"></rect><g class="vf-stavenote" id="vf-auto3441169"><g class="vf-note" pointer-events="bounding-box"><g class="vf-stem" pointer-events="bounding-box"><path stroke-width="1.5" fill="none" stroke="#000000" stroke-dasharray="none" class="vf-stem" id="vf-auto3441169-stem" d="M380.9717568 289.3L380.9717568 254.3"></path></g><g class="vf-notehead" pointer-events="bounding-box"><path stroke-width="0.3" fill="#000000" stroke="none" stroke-dasharray="none" d="M369.7035168 289.3M377.0604768 284.07712000000004C377.1727968 284.07712000000004,377.3412768 284.07712000000004,377.3693568 284.07712000000004C377.3693568 284.07712000000004,377.3974368 284.07712000000004,377.3974368 284.07712000000004C377.3974368 284.07712000000004,377.56591679999997 284.07712000000004,377.70631679999997 284.07712000000004C380.23351679999996 284.21752000000004,381.7217568 285.87424,381.7217568 287.95216C381.7217568 288.96304000000003,381.3847968 290.11432,380.5423968 291.20944000000003C378.9418368 293.3716,376.3303968 294.55096000000003,374.0559168 294.55096000000003C372.2868768 294.55096000000003,370.7705568 293.84896000000003,370.04047679999996 292.41688C369.8158368 291.85528,369.7035168 291.32176,369.7035168 290.73208C369.7035168 287.67136,373.1292768 284.27368,377.0604768 284.07712000000004"></path></g></g><g class="vf-modifiers"></g></g><rect stroke-width="0.3" fill="#000000" stroke="#000000" stroke-dasharray="none" x="405.42863359999996" y="166.5" width="1" height="138.8"></rect><path stroke-width="1" fill="none" stroke="#000000" stroke-dasharray="none" d="M405.4286336 264.3L532.1537504 264.3"></path><path stroke-width="1" fill="none" stroke="#000000" stroke-dasharray="none" d="M405.4286336 274.3L532.1537504 274.3"></path><path stroke-width="1" fill="none" stroke="#000000" stroke-dasharray="none" d="M405.4286336 284.3L532.1537504 284.3"></path><path stroke-width="1" fill="none" stroke="#000000" stroke-dasharray="none" d="M405.4286336 294.3L532.1537504 294.3"></path><path stroke-width="1" fill="none" stroke="#000000" stroke-dasharray="none" d="M405.4286336 304.3L532.1537504 304.3"></path><rect stroke-width="0.3" fill="#000000" stroke="#000000" stroke-dasharray="none" x="532.1537504" y="263.8" width="1" height="41"></rect><path stroke-width="1" fill="none" stroke="#000000" stroke-dasharray="none" d="M456.4286336 254.3L474.4468736 254.3"></path><g class="vf-stavenote" id="vf-auto3441197"><g class="vf-note" pointer-events="bounding-box"><g class="vf-stem" pointer-events="bounding-box"><path stroke-width="1.5" fill="none" stroke="#000000" stroke-dasharray="none" class="vf-stem" id="vf-auto3441197-stem" d="M460.1786336 249.3L460.1786336 284.3"></path></g><g class="vf-notehead" pointer-events="bounding-box"><path stroke-width="0.3" fill="#000000" stroke="none" stroke-dasharray="none" d="M459.4286336 249.3M466.7855936 244.07712C466.89791360000004 244.07712,467.0663936 244.07712,467.0944736 244.07712C467.0944736 244.07712,467.1225536 244.07712,467.1225536 244.07712C467.1225536 244.07712,467.2910336 244.07712,467.4314336 244.07712C469.9586336 244.21752,471.4468736 245.87424000000001,471.4468736 247.95216000000002C471.4468736 248.96304,471.1099136 250.11432000000002,470.26751360000003 251.20944C468.6669536 253.3716,466.05551360000004 254.55096,463.7810336 254.55096C462.01199360000004 254.55096,460.49567360000003 253.84896,459.7655936 252.41688000000002C459.5409536 251.85528000000002,459.4286336 251.32176,459.4286336 250.73208000000002C459.4286336 247.67136000000002,462.85439360000004 244.27368,466.7855936 244.07712"></path></g></g><g class="vf-modifiers"></g></g><rect stroke-width="0.3" fill="#000000" stroke="#000000" stroke-dasharray="none" x="532.1537504" y="166.5" width="1" height="138.8"></rect><path stroke-width="1" fill="none" stroke="#000000" stroke-dasharray="none" d="M532.1537504 264.3L650.4788672 264.3"></path><path stroke-width="1" fill="none" stroke="#000000" stroke-dasharray="none" d="M532.1537504 274.3L650.4788672 274.3"></path><path stroke-width="1" fill="none" stroke="#000000" stroke-dasharray="none" d="M532.1537504 284.3L650.4788672 284.3"></path><path stroke-width="1" fill="none" stroke="#000000" stroke-dasharray="none" d="M532.1537504 294.3L650.4788672 294.3"></path><path stroke-width="1" fill="none" stroke="#000000" stroke-dasharray="none" d="M532.1537504 304.3L650.4788672 304.3"></path><rect stroke-width="0.3" fill="#000000" stroke="#000000" stroke-dasharray="none" x="645.4788672" y="263.8" width="1" height="41"></rect><rect stroke-width="0.3" fill="#000000" stroke="#000000" stroke-dasharray="none" x="648.4788672" y="263.8" width="3" height="41"></rect><g class="vf-stavenote" id="vf-auto3441208"><g class="vf-note" pointer-events="bounding-box"><g class="vf-stem" pointer-events="bounding-box"><path stroke-width="1.5" fill="none" stroke="#000000" stroke-dasharray="none" class="vf-stem" id="vf-auto3441208-stem" d="M549.9037504 259.3L549.9037504 294.3"></path></g><g class="vf-notehead" pointer-events="bounding-box"><path stroke-width="0.3" fill="#000000" stroke="none" stroke-dasharray="none" d="M549.1537504 259.3M556.5107104 254.07712C556.6230304000001 254.07712,556.7915104 254.07712,556.8195904 254.07712C556.8195904 254.07712,556.8476704000001 254.07712,556.8476704000001 254.07712C556.8476704000001 254.07712,557.0161504 254.07712,557.1565504 254.07712C559.6837504 254.21752,561.1719904 255.87424000000001,561.1719904 257.95216C561.1719904 258.96304000000003,560.8350304 260.11432,559.9926304 261.20944000000003C558.3920704000001 263.3716,555.7806304000001 264.55096000000003,553.5061504 264.55096000000003C551.7371104 264.55096000000003,550.2207904 263.84896000000003,549.4907104 262.41688C549.2660704 261.85528,549.1537504 261.32176,549.1537504 260.73208C549.1537504 257.67136,552.5795104 254.27368,556.5107104 254.07712"></path></g></g><g class="vf-modifiers"></g></g><g class="vf-stavenote" id="vf-auto3441216"><g class="vf-note" pointer-events="bounding-box"><g class="vf-stem" pointer-events="bounding-box"><path stroke-width="1.5" fill="none" stroke="#000000" stroke-dasharray="none" class="vf-stem" id="vf-auto3441216-stem" d="M594.7553237333334 294.3L594.7553237333334 259.3"></path></g><g class="vf-notehead" pointer-events="bounding-box"><path stroke-width="0.3" fill="#000000" stroke="none" stroke-dasharray="none" d="M583.4870837333334 294.3M590.8440437333334 289.07712000000004C590.9563637333334 289.07712000000004,591.1248437333334 289.07712000000004,591.1529237333334 289.07712000000004C591.1529237333334 289.07712000000004,591.1810037333335 289.07712000000004,591.1810037333335 289.07712000000004C591.1810037333335 289.07712000000004,591.3494837333334 289.07712000000004,591.4898837333334 289.07712000000004C594.0170837333334 289.21752000000004,595.5053237333334 290.87424,595.5053237333334 292.95216C595.5053237333334 293.96304000000003,595.1683637333334 295.11432,594.3259637333334 296.20944000000003C592.7254037333335 298.3716,590.1139637333334 299.55096000000003,587.8394837333334 299.55096000000003C586.0704437333334 299.55096000000003,584.5541237333334 298.84896000000003,583.8240437333334 297.41688C583.5994037333334 296.85528,583.4870837333334 296.32176,583.4870837333334 295.73208C583.4870837333334 292.67136,586.9128437333334 289.27368,590.8440437333334 289.07712000000004"></path></g></g><g class="vf-modifiers"></g></g><g class="vf-stavenote" id="vf-auto3441224"><g class="vf-note" pointer-events="bounding-box"><g class="vf-stem" pointer-events="bounding-box"><path stroke-width="1.5" fill="none" stroke="#000000" stroke-dasharray="none" class="vf-stem" id="vf-auto3441224-stem" d="M618.5704170666667 264.3L618.5704170666667 299.3"></path></g><g class="vf-notehead" pointer-events="bounding-box"><path stroke-width="0.3" fill="#000000" stroke="none" stroke-dasharray="none" d="M617.8204170666667 264.3M625.1773770666666 259.07712000000004C625.2896970666667 259.07712000000004,625.4581770666666 259.07712000000004,625.4862570666667 259.07712000000004C625.4862570666667 259.07712000000004,625.5143370666667 259.07712000000004,625.5143370666667 259.07712000000004C625.5143370666667 259.07712000000004,625.6828170666666 259.07712000000004,625.8232170666666 259.07712000000004C628.3504170666666 259.21752000000004,629.8386570666667 260.87424,629.8386570666667 262.95216C629.8386570666667 263.96304000000003,629.5016970666667 265.11432,628.6592970666667 266.20944000000003C627.0587370666667 268.3716,624.4472970666667 269.55096000000003,622.1728170666667 269.55096000000003C620.4037770666666 269.55096000000003,618.8874570666667 268.84896000000003,618.1573770666666 267.41688C617.9327370666666 266.85528,617.8204170666667 266.32176,617.8204170666667 265.73208C617.8204170666667 262.67136,621.2461770666666 259.27368,625.1773770666666 259.07712000000004"></path></g></g><g class="vf-modifiers"></g></g><rect stroke-width="0.3" fill="#000000" stroke="#000000" stroke-dasharray="none" x="645.4788672" y="166.5" width="1" height="138.8"></rect><rect stroke-width="0.3" fill="#000000" stroke="#000000" stroke-dasharray="none" x="648.4788672" y="166.5" width="3" height="138.8"></rect><path stroke-width="0.3" fill="#000000" stroke="none" stroke-dasharray="none" d="M68 166.5C45.2 194.26,81.2 217.162,56 235.9C81.2 254.638,45.2 277.54,68 305.3C44 277.54,72.8 254.638,56 235.9C72.8 217.162,44 194.26,68 166.5"></path><path stroke-width="1" fill="none" stroke="#000000" stroke-dasharray="none" d="M68 166.5C45.2 194.26,81.2 217.162,56 235.9C81.2 254.638,45.2 277.54,68 305.3C44 277.54,72.8 254.638,56 235.9C72.8 217.162,44 194.26,68 166.5"></path><g class="vf-text"><text stroke-width="0.3" fill="#000000" stroke="none" stroke-dasharray="none" font-family="Times New Roman" font-size="15px" font-weight="normal" font-style="normal" x="401.92863359999996" y="163.5">3</text></g></svg>