<svg xmlns="http://www.w3.org/2000/svg"  width="1470" height="384.6" viewBox="0 0 1470 384.6"><path stroke-width="1" fill="none" stroke="#000000" stroke-dasharray="none" d="M70 166.5L274.50351679999994 166.5"></path><path stroke-width="1" fill="none" stroke="#000000" stroke-dasharray="none" d="M70 176.5L274.50351679999994 176.5"></path><path stroke-width="1" fill="none" stroke="#000000" stroke-dasharray="none" d="M70 186.5L274.50351679999994 186.5"></path><path stroke-width="1" fill="none" stroke="#000000" stroke-dasharray="none" d="M70 196.5L274.50351679999994 196.5"></path><path stroke-width="1" fill="none" stroke="#000000" stroke-dasharray="none" d="M70 206.5L274.50351679999994 206.5"></path><rect stroke-width="0.3" fill="#000000" stroke="#000000" stroke-dasharray="none" x="274.50351679999994" y="166" width="1" height="41"></rect><g class="vf-clef"><path stroke-width="0.3" fill="#000000" stroke="none" stroke-dasharray="none" d="M75 196.5M89.0544 153.3288C89.112 153.3,89.1696 153.3,89.256 153.3C89.6016 153.3,90.0048 153.588,90.5808 154.308C92.9136 156.9864,94.5552 161.652,94.5552 165.4536C94.5552 165.7416,94.4976 165.972,94.4976 166.26C94.2384 170.7816,92.3952 174.4968,88.7376 178.0104L87.7584 178.9608L87.4128 179.3352L87.4128 179.4504L87.6144 180.3144L87.9312 181.8696L88.248 183.3096C88.68 185.268,88.8528 186.276,88.8528 186.276C88.8528 186.276,88.8528 186.276,88.8528 186.276C88.8528 186.276,88.968 186.276,89.112 186.2472C89.256 186.2472,89.7168 186.1896,90.2064 186.1896C90.55199999999999 186.1896,90.8976 186.2472,91.0704 186.2472C95.1312 186.7656,98.2704 189.6744,99.1632 193.764C99.336 194.4264,99.39359999999999 195.1464,99.39359999999999 195.8664C99.39359999999999 199.7544,97.0608 203.4696,93.1728 205.2264C92.94239999999999 205.3704,92.856 205.3992,92.856 205.3992L92.856 205.428C92.856 205.428,93.0288 206.0904,93.1728 206.8392L93.6048 209.028L94.008 210.7848C94.2384 211.908,94.3536 212.7144,94.3536 213.4344C94.3536 214.06799999999998,94.2672 214.644,94.1232 215.3064C93.144 219.3096,89.6592 221.7,86.0304 221.7C84.2448 221.7,82.4016 221.124,80.7888 219.828C79.3488 218.6184,78.7152 217.524,78.7152 216.084C78.7152 213.5496,80.76 211.764,82.8912 211.764C83.64 211.764,84.3888 211.99439999999998,85.1088 212.4264C86.3184 213.2616,86.8656 214.5288,86.8656 215.7672C86.8656 217.668,85.5408 219.54,83.2656 219.684L83.0352 219.684L83.208 219.79919999999998C84.1584 220.2024,85.1088 220.404,86.0304 220.404C88.3632 220.404,90.55199999999999 219.2232,91.8768 217.1784C92.62559999999999 216.0264,93.0288 214.6728,93.0288 213.3192C93.0288 212.8008,92.94239999999999 212.2824,92.8272 211.7064C92.8272 211.6488,92.74080000000001 211.188,92.62559999999999 210.756C91.992 207.6456,91.6176 205.8312,91.6176 205.8312C91.6176 205.8312,91.6176 205.8312,91.6176 205.8312C91.56 205.8312,91.4448 205.8312,91.3584 205.8888C91.0704 205.9464,90.4656 206.0904,90.2064 206.1192C89.5728 206.2056,88.968 206.2344,88.392 206.2344C82.74719999999999 206.2344,77.5056 202.4328,75.6912 196.8168C75.2304 195.3192,74.9712 193.8216,74.9712 192.324C74.9712 189.3288,75.9216 186.3912,77.7648 183.7704C79.7808 180.9192,81.7968 178.4712,84.2736 175.9368L85.13759999999999 175.044L84.936 173.9784L84.5616 172.2216L84.072 169.9752C83.928 169.14,83.7552 168.3336,83.7264 168.1608C83.5824 167.2104,83.496 166.2888,83.496 165.3384C83.496 161.7096,84.6768 158.22480000000002,86.8944 155.4312C87.5568 154.5672,88.7376 153.4152,89.0544 153.3288M90.8112 159.0312C90.7536 159.0312,90.6672 159.0312,90.5808 159.0312C89.4 159.0312,87.8736 160.1256,86.8368 161.7384C85.7712 163.32240000000002,85.224 165.4248,85.224 167.5848C85.224 168.1608,85.25280000000001 168.7656,85.3392 169.3704C85.4256 169.8024,85.45439999999999 170.0904,85.6848 171.12720000000002L86.088 172.9416C86.2032 173.4888,86.28960000000001 173.92079999999999,86.28960000000001 173.9784L86.28960000000001 173.9784C86.3184 173.9784,87.2112 172.9992,87.4992 172.6536C90.3792 169.3992,92.1072 165.972,92.4816 162.948C92.5104 162.66,92.5104 162.4296,92.5104 162.1416C92.5104 161.24880000000002,92.3952 160.38479999999998,92.1936 159.924C91.9632 159.4632,91.4448 159.0888,90.8112 159.0312M86.4624 181.2936C86.4048 180.8904,86.3184 180.5736,86.3184 180.516C86.3184 180.516,86.3184 180.516,86.28960000000001 180.516C86.232 180.516,84.9936 181.956,84.1296 182.964C82.6608 184.7496,81.1056 186.8808,80.472 187.9176C79.2624 189.9624,78.6576 192.2376,78.6576 194.484C78.6576 195.9528,78.9456 197.364,79.464 198.7176C81.0192 202.7208,84.5904 205.2264,88.4784 205.2264C88.9392 205.2264,89.4576 205.1976,89.9472 205.1112C90.5808 204.996,91.3584 204.7656,91.3584 204.6792L91.3584 204.6792C91.3584 204.6792,91.3008 204.3912,91.2144 204.0744L90.3792 199.956L89.7168 196.8744L89.2848 194.7432L88.824 192.6696C88.5936 191.4312,88.5072 191.1144,88.5072 191.1144C88.5072 191.1144,88.5072 191.0856,88.4784 191.0856C88.3056 191.0856,87.384 191.5464,86.9808 191.8344C85.4832 192.8712,84.7056 194.5128,84.7056 196.1256C84.7056 197.652,85.45439999999999 199.1784,86.8944 200.0712C87.2112 200.2728,87.3264 200.4456,87.3264 200.6472C87.3264 200.676,87.3264 200.7624,87.3264 200.7912C87.2688 201.1368,87.0672 201.2808,86.7792 201.2808C86.664 201.2808,86.52 201.252,86.3472 201.1656C83.6976 200.0136,81.912 197.2776,81.912 194.2824L81.912 194.2824C81.912 190.8264,84.072 187.8312,87.384 186.6504L87.5568 186.5928L87.2688 185.1528L86.4624 181.2936M90.7824 190.9128C90.55199999999999 190.88400000000001,90.3216 190.88400000000001,90.1488 190.88400000000001C90.0912 190.88400000000001,90.0048 190.88400000000001,89.9472 190.88400000000001L89.8032 190.88400000000001L89.9184 191.4024L90.5232 194.2248L90.8976 196.068L91.3008 197.8824L92.1072 201.8856L92.424 203.412C92.5392 203.8152,92.5968 204.1608,92.62559999999999 204.1608C92.62559999999999 204.1608,92.62559999999999 204.1608,92.62559999999999 204.1608C92.6544 204.1608,93.144 203.8728,93.4608 203.6424C94.9296 202.6056,96.024 200.9928,96.4272 199.3224C96.5712 198.7752,96.6288 198.1992,96.6288 197.652C96.6288 194.3112,94.152 191.2872,90.7824 190.9128"></path></g><path stroke-width="0.3" fill="#000000" stroke="none" stroke-dasharray="none" d="M116.8352 186.5M121.8464 167.8376C121.904 167.8376,122.1056 167.8376,122.336 167.8376C122.71039999999999 167.8376,123.1712 167.8376,123.3152 167.8376C125.9648 168.1256,128.0384 169.5656,128.4128 171.4376C128.4704 171.6104,128.4704 171.812,128.4704 172.0136C128.4704 172.244,128.4704 172.4456,128.4128 172.5608C128.0384 173.9144,126.45439999999999 175.1528,124.4384 175.7576C124.2944 175.8152,124.2368 175.8152,124.2368 175.844C124.2368 175.844,124.2368 175.844,124.2368 175.844C124.2656 175.844,124.352 175.8728,124.4384 175.8728C127.1744 176.8808,128.6144 178.8104,128.6144 180.6824C128.6144 182.1224,127.80799999999999 183.5048,125.9936 184.4264C124.928 185.0024,123.7472 185.2616,122.5952 185.2616C120.6944 185.2616,118.8224 184.5416,117.4976 183.2456C117.008 182.7848,116.8352 182.2088,116.8352 181.6328C116.8352 180.452,117.6704 179.3288,119.0528 179.3288L119.0528 179.3288C120.4352 179.3288,121.2128 180.3944,121.2128 181.4888C121.2128 182.324,120.7808 183.1592,119.8016 183.5624C119.8016 183.5624,119.8016 183.5624,119.8016 183.5624C119.8016 183.5912,120.6368 183.764,121.0688 183.7928C121.1264 183.7928,121.184 183.7928,121.2416 183.7928C123.1424 183.7928,124.4672 182.4392,124.4672 180.5672C124.4672 180.3656,124.4672 180.1928,124.4384 179.9912C124.1216 177.8888,122.71039999999999 176.3336,121.0688 176.276C120.6656 176.2472,120.464 176.0744,120.464 175.8152C120.464 175.4696,120.6368 175.3256,121.0688 175.3256C122.48 175.2392,123.6896 174.2888,124.1504 172.8488C124.2656 172.5608,124.2944 172.2728,124.2944 172.0424C124.2944 170.8328,123.4016 169.7384,122.0768 169.4504C121.8752 169.364,121.616 169.364,121.328 169.364C120.9248 169.364,120.5504 169.3928,120.1472 169.4504L120.032 169.4792L120.1472 169.5656C120.896 169.9688,121.2128 170.68880000000001,121.2128 171.4088C121.2128 172.3592,120.5792 173.3096,119.4848 173.5688C119.3408 173.5976,119.168 173.5976,119.024 173.5976C117.7568 173.5976,116.8064 172.4456,116.8064 171.236C116.8064 170.7176,116.9792 170.1992,117.4112 169.7672C118.4192 168.6728,119.9456 168.0392,121.8464 167.8376M122.71039999999999 186.5288L122.7392 186.5288L122.6528 186.5288L122.71039999999999 186.5288M122.71039999999999 167.1176L122.7392 167.1176L122.6528 167.1176L122.71039999999999 167.1176"></path><path stroke-width="0.3" fill="#000000" stroke="none" stroke-dasharray="none" d="M116 206.5M121.0112 188.1544C121.04 188.1256,121.4432 188.1256,122.6816 188.1256C123.056 188.1256,123.4592 188.1256,123.9776 188.1256L126.8864 188.1256L126.9728 188.212C127.1168 188.29840000000002,127.2032 188.4424,127.2032 188.5576C127.2032 188.7304,127.1168 188.8456,127.0016 188.9608C126.9728 189.0472,126.7136 189.2776,126.5408 189.5368L125.0144 191.2936L123.056 193.5112L122.0192 194.692L120.464 196.4776L118.4192 198.8104C118.0736 199.2424,117.6992 199.588,117.6992 199.588C117.6992 199.588,117.6992 199.588,117.6992 199.588C117.6992 199.6456,117.9584 199.6456,120.3488 199.6456L122.9696 199.6456L122.9696 197.7736C122.9696 195.8728,122.9696 195.844,122.9984 195.8152C123.056 195.7288,123.3152 195.412,124.3232 194.2312L124.7264 193.7992L125.1296 193.3672L125.7344 192.5896L126.368 191.9272L126.6848 191.524C126.8 191.3512,126.9728 191.3224,127.1168 191.3224C127.28960000000001 191.3224,127.4336 191.4088,127.52 191.5528C127.5488 191.6392,127.5488 191.6968,127.5488 193.828C127.5488 194.3176,127.5488 194.9224,127.5488 195.6424L127.5488 199.6456L128.2688 199.6456C128.9312 199.6456,128.96 199.6456,129.0464 199.6744C129.2768 199.7608,129.392 199.9912,129.392 200.2504C129.392 200.3944,129.3632 200.5672,129.248 200.6824C129.0752 200.8264,129.0464 200.8264,128.2688 200.8264L127.5488 200.8264L127.5488 201.316C127.5776 202.7848,127.8656 203.3608,128.9888 203.9656C129.392 204.1672,129.4784 204.2248,129.4784 204.5128C129.4784 204.7144,129.42079999999999 204.8008,129.2768 204.916L129.1904 204.9448L125.2448 204.9448L121.328 204.9448L121.2416 204.916C121.0688 204.8008,121.04 204.7144,121.04 204.5128C121.04 204.2248,121.0688 204.1672,121.5008 203.9656C122.624 203.3608,122.912 202.7848,122.912 201.316L122.912 200.8264L119.6 200.8264C118.9952 200.88400000000001,118.5056 200.88400000000001,118.1024 200.88400000000001C116.288 200.88400000000001,116.2592 200.8264,116.2304 200.8264C116.0576 200.7688,116 200.596,116 200.3944C116 200.3944,116 200.3944,116 200.3944C116 200.1928,116 200.1928,116.576 199.5304C118.9952 196.5928,120.6944 192.3304,120.6944 188.93200000000002C120.6944 188.4136,120.7808 188.2408,121.0112 188.1544M122.7392 206.5288L122.768 206.5288L122.6816 206.5288L122.7392 206.5288M122.7392 187.1176L122.768 187.1176L122.6816 187.1176L122.7392 187.1176"></path><path stroke-width="1" fill="none" stroke="#000000" stroke-dasharray="none" d="M138.4784 216.5L156.49663999999999 216.5"></path><g class="vf-stavenote" id="vf-auto3015831"><g class="vf-note" pointer-events="bounding-box"><g class="vf-stem" pointer-events="bounding-box"><path stroke-width="1.5" fill="none" stroke="#000000" stroke-dasharray="none" class="vf-stem" id="vf-auto3015831-stem" d="M152.74663999999999 221.5L152.74663999999999 186.5"></path></g><g class="vf-notehead" pointer-events="bounding-box"><path stroke-width="0.3" fill="#000000" stroke="none" stroke-dasharray="none" d="M141.4784 221.5M148.83535999999998 216.27712C148.94768 216.27712,149.11615999999998 216.27712,149.14424 216.27712C149.14424 216.27712,149.17231999999998 216.27712,149.17231999999998 216.27712C149.17231999999998 216.27712,149.3408 216.27712,149.4812 216.27712C152.0084 216.41752,153.49663999999999 218.07424,153.49663999999999 220.15216C153.49663999999999 221.16304,153.15967999999998 222.31432,152.31727999999998 223.40944C150.71671999999998 225.5716,148.10528 226.75096,145.83079999999998 226.75096C144.06176 226.75096,142.54543999999999 226.04896,141.81536 224.61688C141.59072 224.05528,141.4784 223.52176,141.4784 222.93208C141.4784 219.87136,144.90416 216.47368,148.83535999999998 216.27712"></path></g></g><g class="vf-modifiers"></g></g><path stroke-width="1" fill="none" stroke="#000000" stroke-dasharray="none" d="M274.50351679999994 166.5L397.0286335999999 166.5"></path><path stroke-width="1" fill="none" stroke="#000000" stroke-dasharray="none" d="M274.50351679999994 176.5L397.0286335999999 176.5"></path><path stroke-width="1" fill="none" stroke="#000000" stroke-dasharray="none" d="M274.50351679999994 186.5L397.0286335999999 186.5"></path><path stroke-width="1" fill="none" stroke="#000000" stroke-dasharray="none" d="M274.50351679999994 196.5L397.0286335999999 196.5"></path><path stroke-width="1" fill="none" stroke="#000000" stroke-dasharray="none" d="M274.50351679999994 206.5L397.0286335999999 206.5"></path><rect stroke-width="0.3" fill="#000000" stroke="#000000" stroke-dasharray="none" x="397.0286335999999" y="166" width="1" height="41"></rect><g class="vf-stavenote" id="vf-auto3015859"><g class="vf-note" pointer-events="bounding-box"><g class="vf-stem" pointer-events="bounding-box"><path stroke-width="1.5" fill="none" stroke="#000000" stroke-dasharray="none" class="vf-stem" id="vf-auto3015859-stem" d="M338.4384234666666 196.5L338.4384234666666 161.5"></path></g><g class="vf-notehead" pointer-events="bounding-box"><path stroke-width="0.3" fill="#000000" stroke="none" stroke-dasharray="none" d="M327.17018346666663 196.5M334.52714346666664 191.27712C334.63946346666665 191.27712,334.80794346666664 191.27712,334.83602346666663 191.27712C334.83602346666663 191.27712,334.8641034666666 191.27712,334.8641034666666 191.27712C334.8641034666666 191.27712,335.0325834666666 191.27712,335.1729834666666 191.27712C337.70018346666666 191.41752,339.1884234666666 193.07424,339.1884234666666 195.15216C339.1884234666666 196.16304,338.85146346666664 197.31432,338.00906346666665 198.40944C336.4085034666666 200.5716,333.7970634666666 201.75096,331.5225834666666 201.75096C329.75354346666666 201.75096,328.23722346666665 201.04896,327.5071434666666 199.61688C327.28250346666664 199.05528,327.17018346666663 198.52176,327.17018346666663 197.93208C327.17018346666663 194.87136,330.59594346666665 191.47368,334.52714346666664 191.27712"></path></g></g><g class="vf-modifiers"></g></g><path stroke-width="1" fill="none" stroke="#000000" stroke-dasharray="none" d="M397.0286335999999 166.5L523.7537504 166.5"></path><path stroke-width="1" fill="none" stroke="#000000" stroke-dasharray="none" d="M397.0286335999999 176.5L523.7537504 176.5"></path><path stroke-width="1" fill="none" stroke="#000000" stroke-dasharray="none" d="M397.0286335999999 186.5L523.7537504 186.5"></path><path stroke-width="1" fill="none" stroke="#000000" stroke-dasharray="none" d="M397.0286335999999 196.5L523.7537504 196.5"></path><path stroke-width="1" fill="none" stroke="#000000" stroke-dasharray="none" d="M397.0286335999999 206.5L523.7537504 206.5"></path><rect stroke-width="0.3" fill="#000000" stroke="#000000" stroke-dasharray="none" x="523.7537504" y="166" width="1" height="41"></rect><g class="vf-stavenote" id="vf-auto3015888"><g class="vf-note" pointer-events="bounding-box"><g class="vf-stem" pointer-events="bounding-box"><path stroke-width="1.5" fill="none" stroke="#000000" stroke-dasharray="none" class="vf-stem" id="vf-auto3015888-stem" d="M414.7786335999999 186.5L414.7786335999999 221.5"></path></g><g class="vf-notehead" pointer-events="bounding-box"><path stroke-width="0.3" fill="#000000" stroke="none" stroke-dasharray="none" d="M414.0286335999999 186.5M421.38559359999994 181.27712C421.49791359999995 181.27712,421.66639359999994 181.27712,421.6944735999999 181.27712C421.6944735999999 181.27712,421.7225535999999 181.27712,421.7225535999999 181.27712C421.7225535999999 181.27712,421.8910335999999 181.27712,422.0314335999999 181.27712C424.5586335999999 181.41752,426.0468735999999 183.07424,426.0468735999999 185.15216C426.0468735999999 186.16304,425.70991359999994 187.31432,424.86751359999994 188.40944C423.2669535999999 190.5716,420.65551359999995 191.75096,418.3810335999999 191.75096C416.61199359999995 191.75096,415.09567359999994 191.04896,414.3655935999999 189.61688C414.14095359999993 189.05528,414.0286335999999 188.52176,414.0286335999999 187.93208C414.0286335999999 184.87136,417.45439359999995 181.47368,421.38559359999994 181.27712"></path></g></g><g class="vf-modifiers"></g></g><path stroke-width="1" fill="none" stroke="#000000" stroke-dasharray="none" d="M448.0286335999999 216.5L466.0468735999999 216.5"></path><g class="vf-stavenote" id="vf-auto3015896"><g class="vf-note" pointer-events="bounding-box"><g class="vf-stem" pointer-events="bounding-box"><path stroke-width="1.5" fill="none" stroke="#000000" stroke-dasharray="none" class="vf-stem" id="vf-auto3015896-stem" d="M462.2968735999999 221.5L462.2968735999999 186.5"></path></g><g class="vf-notehead" pointer-events="bounding-box"><path stroke-width="0.3" fill="#000000" stroke="none" stroke-dasharray="none" d="M451.0286335999999 221.5M458.38559359999994 216.27712C458.49791359999995 216.27712,458.66639359999994 216.27712,458.6944735999999 216.27712C458.6944735999999 216.27712,458.7225535999999 216.27712,458.7225535999999 216.27712C458.7225535999999 216.27712,458.8910335999999 216.27712,459.0314335999999 216.27712C461.5586335999999 216.41752,463.0468735999999 218.07424,463.0468735999999 220.15216C463.0468735999999 221.16304,462.70991359999994 222.31432,461.86751359999994 223.40944C460.2669535999999 225.5716,457.65551359999995 226.75096,455.3810335999999 226.75096C453.61199359999995 226.75096,452.09567359999994 226.04896,451.3655935999999 224.61688C451.14095359999993 224.05528,451.0286335999999 223.52176,451.0286335999999 222.93208C451.0286335999999 219.87136,454.45439359999995 216.47368,458.38559359999994 216.27712"></path></g></g><g class="vf-modifiers"></g></g><path stroke-width="1" fill="none" stroke="#000000" stroke-dasharray="none" d="M523.7537504 166.5L654.6788671999999 166.5"></path><path stroke-width="1" fill="none" stroke="#000000" stroke-dasharray="none" d="M523.7537504 176.5L654.6788671999999 176.5"></path><path stroke-width="1" fill="none" stroke="#000000" stroke-dasharray="none" d="M523.7537504 186.5L654.6788671999999 186.5"></path><path stroke-width="1" fill="none" stroke="#000000" stroke-dasharray="none" d="M523.7537504 196.5L654.6788671999999 196.5"></path><path stroke-width="1" fill="none" stroke="#000000" stroke-dasharray="none" d="M523.7537504 206.5L654.6788671999999 206.5"></path><rect stroke-width="0.3" fill="#000000" stroke="#000000" stroke-dasharray="none" x="649.6788671999999" y="166" width="1" height="41"></rect><rect stroke-width="0.3" fill="#000000" stroke="#000000" stroke-dasharray="none" x="652.6788671999999" y="166" width="3" height="41"></rect><g class="vf-stavenote" id="vf-auto3015916"><g class="vf-note" pointer-events="bounding-box"><g class="vf-stem" pointer-events="bounding-box"><path stroke-width="1.5" fill="none" stroke="#000000" stroke-dasharray="none" class="vf-stem" id="vf-auto3015916-stem" d="M541.5037504 171.5L541.5037504 206.5"></path></g><g class="vf-notehead" pointer-events="bounding-box"><path stroke-width="0.3" fill="#000000" stroke="none" stroke-dasharray="none" d="M540.7537504 171.5M548.1107103999999 166.27712C548.2230304 166.27712,548.3915103999999 166.27712,548.4195904 166.27712C548.4195904 166.27712,548.4476704 166.27712,548.4476704 166.27712C548.4476704 166.27712,548.6161503999999 166.27712,548.7565503999999 166.27712C551.2837503999999 166.41752,552.7719903999999 168.07424,552.7719903999999 170.15216C552.7719903999999 171.16304,552.4350304 172.31432,551.5926304 173.40944C549.9920704 175.5716,547.3806304 176.75096,545.1061503999999 176.75096C543.3371103999999 176.75096,541.8207904 176.04896,541.0907103999999 174.61688C540.8660703999999 174.05528,540.7537504 173.52176,540.7537504 172.93208C540.7537504 169.87136,544.1795103999999 166.47368,548.1107103999999 166.27712"></path></g></g><g class="vf-modifiers"></g></g><g class="vf-stavenote" id="vf-auto3015924"><g class="vf-note" pointer-events="bounding-box"><g class="vf-stem" pointer-events="bounding-box"><path stroke-width="1.5" fill="none" stroke="#000000" stroke-dasharray="none" class="vf-stem" id="vf-auto3015924-stem" d="M590.3553237333333 191.5L590.3553237333333 156.5"></path></g><g class="vf-notehead" pointer-events="bounding-box"><path stroke-width="0.3" fill="#000000" stroke="none" stroke-dasharray="none" d="M579.0870837333333 191.5M586.4440437333333 186.27712C586.5563637333333 186.27712,586.7248437333333 186.27712,586.7529237333333 186.27712C586.7529237333333 186.27712,586.7810037333334 186.27712,586.7810037333334 186.27712C586.7810037333334 186.27712,586.9494837333333 186.27712,587.0898837333333 186.27712C589.6170837333333 186.41752,591.1053237333333 188.07424,591.1053237333333 190.15216C591.1053237333333 191.16304,590.7683637333333 192.31432,589.9259637333333 193.40944C588.3254037333334 195.5716,585.7139637333333 196.75096,583.4394837333333 196.75096C581.6704437333333 196.75096,580.1541237333333 196.04896,579.4240437333333 194.61688C579.1994037333333 194.05528,579.0870837333333 193.52176,579.0870837333333 192.93208C579.0870837333333 189.87136,582.5128437333333 186.47368,586.4440437333333 186.27712"></path></g></g><g class="vf-modifiers"></g></g><g class="vf-stavenote" id="vf-auto3015932"><g class="vf-note" pointer-events="bounding-box"><g class="vf-stem" pointer-events="bounding-box"><path stroke-width="1.5" fill="none" stroke="#000000" stroke-dasharray="none" class="vf-stem" id="vf-auto3015932-stem" d="M618.1704170666666 166.5L618.1704170666666 201.5"></path></g><g class="vf-notehead" pointer-events="bounding-box"><path stroke-width="0.3" fill="#000000" stroke="none" stroke-dasharray="none" d="M617.4204170666666 166.5M624.7773770666665 161.27712C624.8896970666666 161.27712,625.0581770666665 161.27712,625.0862570666666 161.27712C625.0862570666666 161.27712,625.1143370666666 161.27712,625.1143370666666 161.27712C625.1143370666666 161.27712,625.2828170666666 161.27712,625.4232170666666 161.27712C627.9504170666665 161.41752,629.4386570666666 163.07424,629.4386570666666 165.15216C629.4386570666666 166.16304,629.1016970666666 167.31432,628.2592970666666 168.40944C626.6587370666666 170.5716,624.0472970666666 171.75096,621.7728170666666 171.75096C620.0037770666665 171.75096,618.4874570666666 171.04896,617.7573770666665 169.61688C617.5327370666665 169.05528,617.4204170666666 168.52176,617.4204170666666 167.93208C617.4204170666666 164.87136,620.8461770666665 161.47368,624.7773770666665 161.27712"></path></g></g><g class="vf-modifiers"></g></g><g class="vf-text"><text stroke-width="0.3" fill="#000000" stroke="none" stroke-dasharray="none" font-family="Times New Roman" font-size="23px" font-weight="bold" font-style="italic" x="141.48752" y="249.29999999999998">p</text></g><path stroke-width="1" fill="none" stroke="#000000" stroke-dasharray="none" d="M70 264.09999999999997L274.50351679999994 264.09999999999997"></path><path stroke-width="1" fill="none" stroke="#000000" stroke-dasharray="none" d="M70 274.09999999999997L274.50351679999994 274.09999999999997"></path><path stroke-width="1" fill="none" stroke="#000000" stroke-dasharray="none" d="M70 284.09999999999997L274.50351679999994 284.09999999999997"></path><path stroke-width="1" fill="none" stroke="#000000" stroke-dasharray="none" d="M70 294.09999999999997L274.50351679999994 294.09999999999997"></path><path stroke-width="1" fill="none" stroke="#000000" stroke-dasharray="none" d="M70 304.09999999999997L274.50351679999994 304.09999999999997"></path><rect stroke-width="0.3" fill="#000000" stroke="#000000" stroke-dasharray="none" x="274.50351679999994" y="263.59999999999997" width="1" height="41"></rect><g class="vf-clef"><path stroke-width="0.3" fill="#000000" stroke="none" stroke-dasharray="none" d="M75 274.09999999999997M83.8416 264.04879999999997C84.072 263.9912,84.3024 263.9912,84.5616 263.9912C85.5696 263.9912,86.7504 264.10639999999995,87.7584 264.308C92.4816 265.2872,95.736 268.484,96.3408 272.7464C96.3984 273.20719999999994,96.4272 273.63919999999996,96.4272 274.09999999999997C96.4272 276.69199999999995,95.5344 280.03279999999995,94.008 282.8264C90.3792 289.39279999999997,83.7552 294.116,75.8064 295.84399999999994C75.6624 295.84399999999994,75.5472 295.8728,75.4032 295.8728C75.1152 295.8728,74.9712 295.7,74.9712 295.44079999999997C74.9712 295.15279999999996,75.0288 295.0664,75.6048 294.83599999999996C84.7056 291.4088,90.7824 284.00719999999995,91.3296 275.71279999999996C91.3584 275.28079999999994,91.3584 274.79119999999995,91.3584 274.41679999999997C91.3584 270.3848,90.12 267.3896,87.7296 265.89199999999994C86.6928 265.22959999999995,85.5696 264.91279999999995,84.36 264.91279999999995C81.6816 264.91279999999995,78.9456 266.43919999999997,77.6784 269.00239999999997C77.6208 269.20399999999995,77.4192 269.63599999999997,77.4192 269.66479999999996C77.4192 269.66479999999996,77.4192 269.66479999999996,77.4192 269.66479999999996C77.4192 269.66479999999996,77.448 269.63599999999997,77.5344 269.6072C78.168 269.20399999999995,78.8592 269.00239999999997,79.5792 269.00239999999997C80.5872 269.00239999999997,81.6528 269.4344,82.4016 270.2408C83.0928 270.98959999999994,83.4672 271.9976,83.4672 272.9192C83.4672 274.79119999999995,82.0848 276.69199999999995,79.9248 276.8936C79.7808 276.8936,79.6368 276.9224,79.4928 276.9224C77.1024 276.9224,75.1728 274.73359999999997,75.1728 271.9688C75.1728 271.91119999999995,75.1728 271.8248,75.1728 271.796C75.288 267.6776,79.0608 264.308,83.8416 264.04879999999997M99.1632 267.90799999999996C99.2208 267.87919999999997,99.2496 267.87919999999997,99.336 267.87919999999997C99.5376 267.87919999999997,99.768 267.90799999999996,99.8256 267.9656C100.54560000000001 268.1672,100.8912 268.8008,100.8912 269.4056C100.8912 269.924,100.632 270.44239999999996,100.11359999999999 270.7304C99.912 270.8744,99.6528 270.90319999999997,99.39359999999999 270.90319999999997C98.9904 270.90319999999997,98.5584 270.7304,98.2704 270.356C98.03999999999999 270.068,97.9248 269.7512,97.9248 269.4344C97.9248 268.71439999999996,98.3856 267.9944,99.1632 267.90799999999996M99.1632 277.32559999999995C99.2208 277.32559999999995,99.2496 277.32559999999995,99.336 277.32559999999995C99.5376 277.32559999999995,99.768 277.35439999999994,99.8256 277.412C100.54560000000001 277.61359999999996,100.8912 278.24719999999996,100.8912 278.852C100.8912 279.37039999999996,100.632 279.88879999999995,100.11359999999999 280.14799999999997C99.912 280.292,99.6528 280.34959999999995,99.39359999999999 280.34959999999995C98.9904 280.34959999999995,98.5584 280.14799999999997,98.2704 279.8024C98.03999999999999 279.51439999999997,97.9248 279.19759999999997,97.9248 278.852C97.9248 278.13199999999995,98.3856 277.44079999999997,99.1632 277.32559999999995"></path></g><path stroke-width="0.3" fill="#000000" stroke="none" stroke-dasharray="none" d="M116.8352 284.09999999999997M121.8464 265.4376C121.904 265.4376,122.1056 265.4376,122.336 265.4376C122.71039999999999 265.4376,123.1712 265.4376,123.3152 265.4376C125.9648 265.7256,128.0384 267.1656,128.4128 269.03759999999994C128.4704 269.2104,128.4704 269.412,128.4704 269.61359999999996C128.4704 269.84399999999994,128.4704 270.0456,128.4128 270.1608C128.0384 271.51439999999997,126.45439999999999 272.7528,124.4384 273.3576C124.2944 273.41519999999997,124.2368 273.41519999999997,124.2368 273.44399999999996C124.2368 273.44399999999996,124.2368 273.44399999999996,124.2368 273.44399999999996C124.2656 273.44399999999996,124.352 273.47279999999995,124.4384 273.47279999999995C127.1744 274.4808,128.6144 276.4104,128.6144 278.28239999999994C128.6144 279.7224,127.80799999999999 281.10479999999995,125.9936 282.02639999999997C124.928 282.6024,123.7472 282.86159999999995,122.5952 282.86159999999995C120.6944 282.86159999999995,118.8224 282.1416,117.4976 280.8456C117.008 280.3848,116.8352 279.80879999999996,116.8352 279.23279999999994C116.8352 278.05199999999996,117.6704 276.92879999999997,119.0528 276.92879999999997L119.0528 276.92879999999997C120.4352 276.92879999999997,121.2128 277.9944,121.2128 279.0888C121.2128 279.924,120.7808 280.75919999999996,119.8016 281.1624C119.8016 281.1624,119.8016 281.1624,119.8016 281.1624C119.8016 281.1912,120.6368 281.364,121.0688 281.39279999999997C121.1264 281.39279999999997,121.184 281.39279999999997,121.2416 281.39279999999997C123.1424 281.39279999999997,124.4672 280.0392,124.4672 278.1672C124.4672 277.9656,124.4672 277.79279999999994,124.4384 277.59119999999996C124.1216 275.48879999999997,122.71039999999999 273.93359999999996,121.0688 273.876C120.6656 273.8472,120.464 273.6744,120.464 273.41519999999997C120.464 273.0696,120.6368 272.9256,121.0688 272.9256C122.48 272.83919999999995,123.6896 271.88879999999995,124.1504 270.44879999999995C124.2656 270.1608,124.2944 269.8728,124.2944 269.64239999999995C124.2944 268.4328,123.4016 267.3384,122.0768 267.05039999999997C121.8752 266.96399999999994,121.616 266.96399999999994,121.328 266.96399999999994C120.9248 266.96399999999994,120.5504 266.9928,120.1472 267.05039999999997L120.032 267.07919999999996L120.1472 267.1656C120.896 267.56879999999995,121.2128 268.2888,121.2128 269.00879999999995C121.2128 269.95919999999995,120.5792 270.90959999999995,119.4848 271.1688C119.3408 271.19759999999997,119.168 271.19759999999997,119.024 271.19759999999997C117.7568 271.19759999999997,116.8064 270.0456,116.8064 268.83599999999996C116.8064 268.31759999999997,116.9792 267.7992,117.4112 267.36719999999997C118.4192 266.27279999999996,119.9456 265.63919999999996,121.8464 265.4376M122.71039999999999 284.12879999999996L122.7392 284.12879999999996L122.6528 284.12879999999996L122.71039999999999 284.12879999999996M122.71039999999999 264.71759999999995L122.7392 264.71759999999995L122.6528 264.71759999999995L122.71039999999999 264.71759999999995"></path><path stroke-width="0.3" fill="#000000" stroke="none" stroke-dasharray="none" d="M116 304.09999999999997M121.0112 285.7544C121.04 285.7256,121.4432 285.7256,122.6816 285.7256C123.056 285.7256,123.4592 285.7256,123.9776 285.7256L126.8864 285.7256L126.9728 285.81199999999995C127.1168 285.8984,127.2032 286.0424,127.2032 286.15759999999995C127.2032 286.33039999999994,127.1168 286.44559999999996,127.0016 286.5608C126.9728 286.64719999999994,126.7136 286.8776,126.5408 287.1368L125.0144 288.8936L123.056 291.11119999999994L122.0192 292.292L120.464 294.07759999999996L118.4192 296.4104C118.0736 296.84239999999994,117.6992 297.188,117.6992 297.188C117.6992 297.188,117.6992 297.188,117.6992 297.188C117.6992 297.24559999999997,117.9584 297.24559999999997,120.3488 297.24559999999997L122.9696 297.24559999999997L122.9696 295.37359999999995C122.9696 293.47279999999995,122.9696 293.44399999999996,122.9984 293.41519999999997C123.056 293.32879999999994,123.3152 293.01199999999994,124.3232 291.83119999999997L124.7264 291.39919999999995L125.1296 290.9672L125.7344 290.1896L126.368 289.5272L126.6848 289.12399999999997C126.8 288.9512,126.9728 288.9224,127.1168 288.9224C127.28960000000001 288.9224,127.4336 289.00879999999995,127.52 289.15279999999996C127.5488 289.2392,127.5488 289.29679999999996,127.5488 291.42799999999994C127.5488 291.9176,127.5488 292.52239999999995,127.5488 293.2424L127.5488 297.24559999999997L128.2688 297.24559999999997C128.9312 297.24559999999997,128.96 297.24559999999997,129.0464 297.27439999999996C129.2768 297.3608,129.392 297.59119999999996,129.392 297.8504C129.392 297.9944,129.3632 298.1672,129.248 298.28239999999994C129.0752 298.42639999999994,129.0464 298.42639999999994,128.2688 298.42639999999994L127.5488 298.42639999999994L127.5488 298.91599999999994C127.5776 300.3848,127.8656 300.96079999999995,128.9888 301.56559999999996C129.392 301.76719999999995,129.4784 301.8248,129.4784 302.1128C129.4784 302.3144,129.42079999999999 302.40079999999995,129.2768 302.51599999999996L129.1904 302.54479999999995L125.2448 302.54479999999995L121.328 302.54479999999995L121.2416 302.51599999999996C121.0688 302.40079999999995,121.04 302.3144,121.04 302.1128C121.04 301.8248,121.0688 301.76719999999995,121.5008 301.56559999999996C122.624 300.96079999999995,122.912 300.3848,122.912 298.91599999999994L122.912 298.42639999999994L119.6 298.42639999999994C118.9952 298.484,118.5056 298.484,118.1024 298.484C116.288 298.484,116.2592 298.42639999999994,116.2304 298.42639999999994C116.0576 298.36879999999996,116 298.19599999999997,116 297.9944C116 297.9944,116 297.9944,116 297.9944C116 297.79279999999994,116 297.79279999999994,116.576 297.13039999999995C118.9952 294.1928,120.6944 289.93039999999996,120.6944 286.532C120.6944 286.01359999999994,120.7808 285.84079999999994,121.0112 285.7544M122.7392 304.12879999999996L122.768 304.12879999999996L122.6816 304.12879999999996L122.7392 304.12879999999996M122.7392 284.71759999999995L122.768 284.71759999999995L122.6816 284.71759999999995L122.7392 284.71759999999995"></path><g class="vf-stavenote" id="vf-auto3015841"><g class="vf-note" pointer-events="bounding-box"><g class="vf-stem" pointer-events="bounding-box"><path stroke-width="1.5" fill="none" stroke="#000000" stroke-dasharray="none" class="vf-stem" id="vf-auto3015841-stem" d="M187.06893333333332 274.09999999999997L187.06893333333332 309.09999999999997"></path></g><g class="vf-notehead" pointer-events="bounding-box"><path stroke-width="0.3" fill="#000000" stroke="none" stroke-dasharray="none" d="M186.31893333333332 274.09999999999997M193.6758933333333 268.87712C193.78821333333332 268.87712,193.9566933333333 268.87712,193.98477333333332 268.87712C193.98477333333332 268.87712,194.0128533333333 268.87712,194.0128533333333 268.87712C194.0128533333333 268.87712,194.18133333333333 268.87712,194.32173333333333 268.87712C196.84893333333332 269.01752,198.3371733333333 270.67423999999994,198.3371733333333 272.75215999999995C198.3371733333333 273.76304,198.0002133333333 274.91432,197.1578133333333 276.00944C195.5572533333333 278.17159999999996,192.94581333333332 279.35096,190.6713333333333 279.35096C188.90229333333332 279.35096,187.3859733333333 278.64896,186.65589333333332 277.21687999999995C186.43125333333333 276.65527999999995,186.31893333333332 276.12175999999994,186.31893333333332 275.53207999999995C186.31893333333332 272.47135999999995,189.74469333333332 269.07367999999997,193.6758933333333 268.87712"></path></g></g><g class="vf-modifiers"></g></g><g class="vf-stavenote" id="vf-auto3015849"><g class="vf-note" pointer-events="bounding-box"><g class="vf-stem" pointer-events="bounding-box"><path stroke-width="1.5" fill="none" stroke="#000000" stroke-dasharray="none" class="vf-stem" id="vf-auto3015849-stem" d="M242.42770666666667 284.09999999999997L242.42770666666667 249.09999999999997"></path></g><g class="vf-notehead" pointer-events="bounding-box"><path stroke-width="0.3" fill="#000000" stroke="none" stroke-dasharray="none" d="M231.15946666666667 284.09999999999997M238.51642666666666 278.87712C238.62874666666667 278.87712,238.7972266666667 278.87712,238.82530666666668 278.87712C238.82530666666668 278.87712,238.85338666666667 278.87712,238.85338666666667 278.87712C238.85338666666667 278.87712,239.02186666666668 278.87712,239.16226666666668 278.87712C241.68946666666668 279.01752,243.17770666666667 280.67423999999994,243.17770666666667 282.75215999999995C243.17770666666667 283.76304,242.8407466666667 284.91432,241.99834666666666 286.00944C240.39778666666666 288.17159999999996,237.78634666666667 289.35096,235.51186666666666 289.35096C233.74282666666667 289.35096,232.22650666666667 288.64896,231.49642666666668 287.21687999999995C231.27178666666669 286.65527999999995,231.15946666666667 286.12175999999994,231.15946666666667 285.53207999999995C231.15946666666667 282.47135999999995,234.58522666666667 279.07367999999997,238.51642666666666 278.87712"></path></g></g><g class="vf-modifiers"></g></g><rect stroke-width="0.3" fill="#000000" stroke="#000000" stroke-dasharray="none" x="274.50351679999994" y="166.5" width="1" height="138.59999999999997"></rect><rect stroke-width="0.3" fill="#000000" stroke="#000000" stroke-dasharray="none" x="70" y="166.5" width="1" height="138.59999999999997"></rect><path stroke-width="1" fill="none" stroke="#000000" stroke-dasharray="none" d="M274.50351679999994 264.09999999999997L397.0286335999999 264.09999999999997"></path><path stroke-width="1" fill="none" stroke="#000000" stroke-dasharray="none" d="M274.50351679999994 274.09999999999997L397.0286335999999 274.09999999999997"></path><path stroke-width="1" fill="none" stroke="#000000" stroke-dasharray="none" d="M274.50351679999994 284.09999999999997L397.0286335999999 284.09999999999997"></path><path stroke-width="1" fill="none" stroke="#000000" stroke-dasharray="none" d="M274.50351679999994 294.09999999999997L397.0286335999999 294.09999999999997"></path><path stroke-width="1" fill="none" stroke="#000000" stroke-dasharray="none" d="M274.50351679999994 304.09999999999997L397.0286335999999 304.09999999999997"></path><rect stroke-width="0.3" fill="#000000" stroke="#000000" stroke-dasharray="none" x="397.0286335999999" y="263.59999999999997" width="1" height="41"></rect><g class="vf-stavenote" id="vf-auto3015870"><g class="vf-note" pointer-events="bounding-box"><g class="vf-stem" pointer-events="bounding-box"><path stroke-width="1.5" fill="none" stroke="#000000" stroke-dasharray="none" class="vf-stem" id="vf-auto3015870-stem" d="M292.25351679999994 264.09999999999997L292.25351679999994 299.09999999999997"></path></g><g class="vf-notehead" pointer-events="bounding-box"><path stroke-width="0.3" fill="#000000" stroke="none" stroke-dasharray="none" d="M291.50351679999994 264.09999999999997M298.86047679999996 258.87712C298.97279679999997 258.87712,299.14127679999996 258.87712,299.16935679999995 258.87712C299.16935679999995 258.87712,299.19743679999993 258.87712,299.19743679999993 258.87712C299.19743679999993 258.87712,299.3659167999999 258.87712,299.5063167999999 258.87712C302.0335167999999 259.01752,303.52175679999993 260.67423999999994,303.52175679999993 262.75215999999995C303.52175679999993 263.76304,303.18479679999996 264.91432,302.34239679999996 266.00944C300.74183679999993 268.17159999999996,298.13039679999997 269.35096,295.85591679999993 269.35096C294.08687679999997 269.35096,292.57055679999996 268.64896,291.8404767999999 267.21687999999995C291.61583679999995 266.65527999999995,291.50351679999994 266.12175999999994,291.50351679999994 265.53207999999995C291.50351679999994 262.47135999999995,294.92927679999997 259.07367999999997,298.86047679999996 258.87712"></path></g></g><g class="vf-modifiers"></g></g><g class="vf-stavenote" id="vf-auto3015878"><g class="vf-note" pointer-events="bounding-box"><g class="vf-stem" pointer-events="bounding-box"><path stroke-width="1.5" fill="none" stroke="#000000" stroke-dasharray="none" class="vf-stem" id="vf-auto3015878-stem" d="M363.5868501333333 274.09999999999997L363.5868501333333 309.09999999999997"></path></g><g class="vf-notehead" pointer-events="bounding-box"><path stroke-width="0.3" fill="#000000" stroke="none" stroke-dasharray="none" d="M362.8368501333333 274.09999999999997M370.19381013333333 268.87712C370.30613013333334 268.87712,370.47461013333333 268.87712,370.5026901333333 268.87712C370.5026901333333 268.87712,370.5307701333333 268.87712,370.5307701333333 268.87712C370.5307701333333 268.87712,370.6992501333333 268.87712,370.8396501333333 268.87712C373.3668501333333 269.01752,374.8550901333333 270.67423999999994,374.8550901333333 272.75215999999995C374.8550901333333 273.76304,374.51813013333333 274.91432,373.67573013333333 276.00944C372.0751701333333 278.17159999999996,369.46373013333334 279.35096,367.1892501333333 279.35096C365.42021013333334 279.35096,363.90389013333333 278.64896,363.1738101333333 277.21687999999995C362.9491701333333 276.65527999999995,362.8368501333333 276.12175999999994,362.8368501333333 275.53207999999995C362.8368501333333 272.47135999999995,366.26261013333334 269.07367999999997,370.19381013333333 268.87712"></path></g></g><g class="vf-modifiers"></g></g><rect stroke-width="0.3" fill="#000000" stroke="#000000" stroke-dasharray="none" x="397.0286335999999" y="166.5" width="1" height="138.59999999999997"></rect><path stroke-width="1" fill="none" stroke="#000000" stroke-dasharray="none" d="M397.0286335999999 264.09999999999997L523.7537504 264.09999999999997"></path><path stroke-width="1" fill="none" stroke="#000000" stroke-dasharray="none" d="M397.0286335999999 274.09999999999997L523.7537504 274.09999999999997"></path><path stroke-width="1" fill="none" stroke="#000000" stroke-dasharray="none" d="M397.0286335999999 284.09999999999997L523.7537504 284.09999999999997"></path><path stroke-width="1" fill="none" stroke="#000000" stroke-dasharray="none" d="M397.0286335999999 294.09999999999997L523.7537504 294.09999999999997"></path><path stroke-width="1" fill="none" stroke="#000000" stroke-dasharray="none" d="M397.0286335999999 304.09999999999997L523.7537504 304.09999999999997"></path><rect stroke-width="0.3" fill="#000000" stroke="#000000" stroke-dasharray="none" x="523.7537504" y="263.59999999999997" width="1" height="41"></rect><g class="vf-stavenote" id="vf-auto3015906"><g class="vf-note" pointer-events="bounding-box"><g class="vf-stem" pointer-events="bounding-box"><path stroke-width="1.5" fill="none" stroke="#000000" stroke-dasharray="none" class="vf-stem" id="vf-auto3015906-stem" d="M499.2968735999999 299.09999999999997L499.2968735999999 264.09999999999997"></path></g><g class="vf-notehead" pointer-events="bounding-box"><path stroke-width="0.3" fill="#000000" stroke="none" stroke-dasharray="none" d="M488.0286335999999 299.09999999999997M495.38559359999994 293.87712C495.49791359999995 293.87712,495.66639359999994 293.87712,495.6944735999999 293.87712C495.6944735999999 293.87712,495.7225535999999 293.87712,495.7225535999999 293.87712C495.7225535999999 293.87712,495.8910335999999 293.87712,496.0314335999999 293.87712C498.5586335999999 294.01752,500.0468735999999 295.67423999999994,500.0468735999999 297.75215999999995C500.0468735999999 298.76304,499.70991359999994 299.91432,498.86751359999994 301.00944C497.2669535999999 303.17159999999996,494.65551359999995 304.35096,492.3810335999999 304.35096C490.61199359999995 304.35096,489.09567359999994 303.64896,488.3655935999999 302.21687999999995C488.14095359999993 301.65527999999995,488.0286335999999 301.12175999999994,488.0286335999999 300.53207999999995C488.0286335999999 297.47135999999995,491.45439359999995 294.07367999999997,495.38559359999994 293.87712"></path></g></g><g class="vf-modifiers"></g></g><rect stroke-width="0.3" fill="#000000" stroke="#000000" stroke-dasharray="none" x="523.7537504" y="166.5" width="1" height="138.59999999999997"></rect><path stroke-width="1" fill="none" stroke="#000000" stroke-dasharray="none" d="M523.7537504 264.09999999999997L654.6788671999999 264.09999999999997"></path><path stroke-width="1" fill="none" stroke="#000000" stroke-dasharray="none" d="M523.7537504 274.09999999999997L654.6788671999999 274.09999999999997"></path><path stroke-width="1" fill="none" stroke="#000000" stroke-dasharray="none" d="M523.7537504 284.09999999999997L654.6788671999999 284.09999999999997"></path><path stroke-width="1" fill="none" stroke="#000000" stroke-dasharray="none" d="M523.7537504 294.09999999999997L654.6788671999999 294.09999999999997"></path><path stroke-width="1" fill="none" stroke="#000000" stroke-dasharray="none" d="M523.7537504 304.09999999999997L654.6788671999999 304.09999999999997"></path><rect stroke-width="0.3" fill="#000000" stroke="#000000" stroke-dasharray="none" x="649.6788671999999" y="263.59999999999997" width="1" height="41"></rect><rect stroke-width="0.3" fill="#000000" stroke="#000000" stroke-dasharray="none" x="652.6788671999999" y="263.59999999999997" width="3" height="41"></rect><rect stroke-width="0.3" fill="#000000" stroke="#000000" stroke-dasharray="none" x="649.6788671999999" y="166.5" width="1" height="138.59999999999997"></rect><rect stroke-width="0.3" fill="#000000" stroke="#000000" stroke-dasharray="none" x="652.6788671999999" y="166.5" width="3" height="138.59999999999997"></rect><path stroke-width="0.3" fill="#000000" stroke="none" stroke-dasharray="none" d="M68 166.5C45.2 194.22,81.2 217.089,56 235.79999999999998C81.2 254.51099999999997,45.2 277.38,68 305.09999999999997C44 277.38,72.8 254.51099999999997,56 235.79999999999998C72.8 217.089,44 194.22,68 166.5"></path><path stroke-width="1" fill="none" stroke="#000000" stroke-dasharray="none" d="M68 166.5C45.2 194.22,81.2 217.089,56 235.79999999999998C81.2 254.51099999999997,45.2 277.38,68 305.09999999999997C44 277.38,72.8 254.51099999999997,56 235.79999999999998C72.8 217.089,44 194.22,68 166.5"></path><g class="vf-text"><text stroke-width="0.3" fill="#000000" stroke="none" stroke-dasharray="none" font-family="Times New Roman" font-size="15px" font-weight="normal" font-style="normal" x="393.5286335999999" y="163.5">3</text></g></svg>