<svg xmlns="http://www.w3.org/2000/svg"  width="1470" height="380.79999999999995" viewBox="0 0 1470 380.79999999999995"><path stroke-width="1" fill="none" stroke="#000000" stroke-dasharray="none" d="M70 166.5L282.9035168 166.5"></path><path stroke-width="1" fill="none" stroke="#000000" stroke-dasharray="none" d="M70 176.5L282.9035168 176.5"></path><path stroke-width="1" fill="none" stroke="#000000" stroke-dasharray="none" d="M70 186.5L282.9035168 186.5"></path><path stroke-width="1" fill="none" stroke="#000000" stroke-dasharray="none" d="M70 196.5L282.9035168 196.5"></path><path stroke-width="1" fill="none" stroke="#000000" stroke-dasharray="none" d="M70 206.5L282.9035168 206.5"></path><rect stroke-width="0.3" fill="#000000" stroke="#000000" stroke-dasharray="none" x="282.9035168" y="166" width="1" height="41"></rect><g class="vf-clef"><path stroke-width="0.3" fill="#000000" stroke="none" stroke-dasharray="none" d="M75 196.5M89.0544 153.3288C89.112 153.3,89.1696 153.3,89.256 153.3C89.6016 153.3,90.0048 153.588,90.5808 154.308C92.9136 156.9864,94.5552 161.652,94.5552 165.4536C94.5552 165.7416,94.4976 165.972,94.4976 166.26C94.2384 170.7816,92.3952 174.4968,88.7376 178.0104L87.7584 178.9608L87.4128 179.3352L87.4128 179.4504L87.6144 180.3144L87.9312 181.8696L88.248 183.3096C88.68 185.268,88.8528 186.276,88.8528 186.276C88.8528 186.276,88.8528 186.276,88.8528 186.276C88.8528 186.276,88.968 186.276,89.112 186.2472C89.256 186.2472,89.7168 186.1896,90.2064 186.1896C90.55199999999999 186.1896,90.8976 186.2472,91.0704 186.2472C95.1312 186.7656,98.2704 189.6744,99.1632 193.764C99.336 194.4264,99.39359999999999 195.1464,99.39359999999999 195.8664C99.39359999999999 199.7544,97.0608 203.4696,93.1728 205.2264C92.94239999999999 205.3704,92.856 205.3992,92.856 205.3992L92.856 205.428C92.856 205.428,93.0288 206.0904,93.1728 206.8392L93.6048 209.028L94.008 210.7848C94.2384 211.908,94.3536 212.7144,94.3536 213.4344C94.3536 214.06799999999998,94.2672 214.644,94.1232 215.3064C93.144 219.3096,89.6592 221.7,86.0304 221.7C84.2448 221.7,82.4016 221.124,80.7888 219.828C79.3488 218.6184,78.7152 217.524,78.7152 216.084C78.7152 213.5496,80.76 211.764,82.8912 211.764C83.64 211.764,84.3888 211.99439999999998,85.1088 212.4264C86.3184 213.2616,86.8656 214.5288,86.8656 215.7672C86.8656 217.668,85.5408 219.54,83.2656 219.684L83.0352 219.684L83.208 219.79919999999998C84.1584 220.2024,85.1088 220.404,86.0304 220.404C88.3632 220.404,90.55199999999999 219.2232,91.8768 217.1784C92.62559999999999 216.0264,93.0288 214.6728,93.0288 213.3192C93.0288 212.8008,92.94239999999999 212.2824,92.8272 211.7064C92.8272 211.6488,92.74080000000001 211.188,92.62559999999999 210.756C91.992 207.6456,91.6176 205.8312,91.6176 205.8312C91.6176 205.8312,91.6176 205.8312,91.6176 205.8312C91.56 205.8312,91.4448 205.8312,91.3584 205.8888C91.0704 205.9464,90.4656 206.0904,90.2064 206.1192C89.5728 206.2056,88.968 206.2344,88.392 206.2344C82.74719999999999 206.2344,77.5056 202.4328,75.6912 196.8168C75.2304 195.3192,74.9712 193.8216,74.9712 192.324C74.9712 189.3288,75.9216 186.3912,77.7648 183.7704C79.7808 180.9192,81.7968 178.4712,84.2736 175.9368L85.13759999999999 175.044L84.936 173.9784L84.5616 172.2216L84.072 169.9752C83.928 169.14,83.7552 168.3336,83.7264 168.1608C83.5824 167.2104,83.496 166.2888,83.496 165.3384C83.496 161.7096,84.6768 158.22480000000002,86.8944 155.4312C87.5568 154.5672,88.7376 153.4152,89.0544 153.3288M90.8112 159.0312C90.7536 159.0312,90.6672 159.0312,90.5808 159.0312C89.4 159.0312,87.8736 160.1256,86.8368 161.7384C85.7712 163.32240000000002,85.224 165.4248,85.224 167.5848C85.224 168.1608,85.25280000000001 168.7656,85.3392 169.3704C85.4256 169.8024,85.45439999999999 170.0904,85.6848 171.12720000000002L86.088 172.9416C86.2032 173.4888,86.28960000000001 173.92079999999999,86.28960000000001 173.9784L86.28960000000001 173.9784C86.3184 173.9784,87.2112 172.9992,87.4992 172.6536C90.3792 169.3992,92.1072 165.972,92.4816 162.948C92.5104 162.66,92.5104 162.4296,92.5104 162.1416C92.5104 161.24880000000002,92.3952 160.38479999999998,92.1936 159.924C91.9632 159.4632,91.4448 159.0888,90.8112 159.0312M86.4624 181.2936C86.4048 180.8904,86.3184 180.5736,86.3184 180.516C86.3184 180.516,86.3184 180.516,86.28960000000001 180.516C86.232 180.516,84.9936 181.956,84.1296 182.964C82.6608 184.7496,81.1056 186.8808,80.472 187.9176C79.2624 189.9624,78.6576 192.2376,78.6576 194.484C78.6576 195.9528,78.9456 197.364,79.464 198.7176C81.0192 202.7208,84.5904 205.2264,88.4784 205.2264C88.9392 205.2264,89.4576 205.1976,89.9472 205.1112C90.5808 204.996,91.3584 204.7656,91.3584 204.6792L91.3584 204.6792C91.3584 204.6792,91.3008 204.3912,91.2144 204.0744L90.3792 199.956L89.7168 196.8744L89.2848 194.7432L88.824 192.6696C88.5936 191.4312,88.5072 191.1144,88.5072 191.1144C88.5072 191.1144,88.5072 191.0856,88.4784 191.0856C88.3056 191.0856,87.384 191.5464,86.9808 191.8344C85.4832 192.8712,84.7056 194.5128,84.7056 196.1256C84.7056 197.652,85.45439999999999 199.1784,86.8944 200.0712C87.2112 200.2728,87.3264 200.4456,87.3264 200.6472C87.3264 200.676,87.3264 200.7624,87.3264 200.7912C87.2688 201.1368,87.0672 201.2808,86.7792 201.2808C86.664 201.2808,86.52 201.252,86.3472 201.1656C83.6976 200.0136,81.912 197.2776,81.912 194.2824L81.912 194.2824C81.912 190.8264,84.072 187.8312,87.384 186.6504L87.5568 186.5928L87.2688 185.1528L86.4624 181.2936M90.7824 190.9128C90.55199999999999 190.88400000000001,90.3216 190.88400000000001,90.1488 190.88400000000001C90.0912 190.88400000000001,90.0048 190.88400000000001,89.9472 190.88400000000001L89.8032 190.88400000000001L89.9184 191.4024L90.5232 194.2248L90.8976 196.068L91.3008 197.8824L92.1072 201.8856L92.424 203.412C92.5392 203.8152,92.5968 204.1608,92.62559999999999 204.1608C92.62559999999999 204.1608,92.62559999999999 204.1608,92.62559999999999 204.1608C92.6544 204.1608,93.144 203.8728,93.4608 203.6424C94.9296 202.6056,96.024 200.9928,96.4272 199.3224C96.5712 198.7752,96.6288 198.1992,96.6288 197.652C96.6288 194.3112,94.152 191.2872,90.7824 190.9128"></path></g><path stroke-width="0.3" fill="#000000" stroke="none" stroke-dasharray="none" d="M116.8352 186.5M121.8464 167.8376C121.904 167.8376,122.1056 167.8376,122.336 167.8376C122.71039999999999 167.8376,123.1712 167.8376,123.3152 167.8376C125.9648 168.1256,128.0384 169.5656,128.4128 171.4376C128.4704 171.6104,128.4704 171.812,128.4704 172.0136C128.4704 172.244,128.4704 172.4456,128.4128 172.5608C128.0384 173.9144,126.45439999999999 175.1528,124.4384 175.7576C124.2944 175.8152,124.2368 175.8152,124.2368 175.844C124.2368 175.844,124.2368 175.844,124.2368 175.844C124.2656 175.844,124.352 175.8728,124.4384 175.8728C127.1744 176.8808,128.6144 178.8104,128.6144 180.6824C128.6144 182.1224,127.80799999999999 183.5048,125.9936 184.4264C124.928 185.0024,123.7472 185.2616,122.5952 185.2616C120.6944 185.2616,118.8224 184.5416,117.4976 183.2456C117.008 182.7848,116.8352 182.2088,116.8352 181.6328C116.8352 180.452,117.6704 179.3288,119.0528 179.3288L119.0528 179.3288C120.4352 179.3288,121.2128 180.3944,121.2128 181.4888C121.2128 182.324,120.7808 183.1592,119.8016 183.5624C119.8016 183.5624,119.8016 183.5624,119.8016 183.5624C119.8016 183.5912,120.6368 183.764,121.0688 183.7928C121.1264 183.7928,121.184 183.7928,121.2416 183.7928C123.1424 183.7928,124.4672 182.4392,124.4672 180.5672C124.4672 180.3656,124.4672 180.1928,124.4384 179.9912C124.1216 177.8888,122.71039999999999 176.3336,121.0688 176.276C120.6656 176.2472,120.464 176.0744,120.464 175.8152C120.464 175.4696,120.6368 175.3256,121.0688 175.3256C122.48 175.2392,123.6896 174.2888,124.1504 172.8488C124.2656 172.5608,124.2944 172.2728,124.2944 172.0424C124.2944 170.8328,123.4016 169.7384,122.0768 169.4504C121.8752 169.364,121.616 169.364,121.328 169.364C120.9248 169.364,120.5504 169.3928,120.1472 169.4504L120.032 169.4792L120.1472 169.5656C120.896 169.9688,121.2128 170.68880000000001,121.2128 171.4088C121.2128 172.3592,120.5792 173.3096,119.4848 173.5688C119.3408 173.5976,119.168 173.5976,119.024 173.5976C117.7568 173.5976,116.8064 172.4456,116.8064 171.236C116.8064 170.7176,116.9792 170.1992,117.4112 169.7672C118.4192 168.6728,119.9456 168.0392,121.8464 167.8376M122.71039999999999 186.5288L122.7392 186.5288L122.6528 186.5288L122.71039999999999 186.5288M122.71039999999999 167.1176L122.7392 167.1176L122.6528 167.1176L122.71039999999999 167.1176"></path><path stroke-width="0.3" fill="#000000" stroke="none" stroke-dasharray="none" d="M116 206.5M121.0112 188.1544C121.04 188.1256,121.4432 188.1256,122.6816 188.1256C123.056 188.1256,123.4592 188.1256,123.9776 188.1256L126.8864 188.1256L126.9728 188.212C127.1168 188.29840000000002,127.2032 188.4424,127.2032 188.5576C127.2032 188.7304,127.1168 188.8456,127.0016 188.9608C126.9728 189.0472,126.7136 189.2776,126.5408 189.5368L125.0144 191.2936L123.056 193.5112L122.0192 194.692L120.464 196.4776L118.4192 198.8104C118.0736 199.2424,117.6992 199.588,117.6992 199.588C117.6992 199.588,117.6992 199.588,117.6992 199.588C117.6992 199.6456,117.9584 199.6456,120.3488 199.6456L122.9696 199.6456L122.9696 197.7736C122.9696 195.8728,122.9696 195.844,122.9984 195.8152C123.056 195.7288,123.3152 195.412,124.3232 194.2312L124.7264 193.7992L125.1296 193.3672L125.7344 192.5896L126.368 191.9272L126.6848 191.524C126.8 191.3512,126.9728 191.3224,127.1168 191.3224C127.28960000000001 191.3224,127.4336 191.4088,127.52 191.5528C127.5488 191.6392,127.5488 191.6968,127.5488 193.828C127.5488 194.3176,127.5488 194.9224,127.5488 195.6424L127.5488 199.6456L128.2688 199.6456C128.9312 199.6456,128.96 199.6456,129.0464 199.6744C129.2768 199.7608,129.392 199.9912,129.392 200.2504C129.392 200.3944,129.3632 200.5672,129.248 200.6824C129.0752 200.8264,129.0464 200.8264,128.2688 200.8264L127.5488 200.8264L127.5488 201.316C127.5776 202.7848,127.8656 203.3608,128.9888 203.9656C129.392 204.1672,129.4784 204.2248,129.4784 204.5128C129.4784 204.7144,129.42079999999999 204.8008,129.2768 204.916L129.1904 204.9448L125.2448 204.9448L121.328 204.9448L121.2416 204.916C121.0688 204.8008,121.04 204.7144,121.04 204.5128C121.04 204.2248,121.0688 204.1672,121.5008 203.9656C122.624 203.3608,122.912 202.7848,122.912 201.316L122.912 200.8264L119.6 200.8264C118.9952 200.88400000000001,118.5056 200.88400000000001,118.1024 200.88400000000001C116.288 200.88400000000001,116.2592 200.8264,116.2304 200.8264C116.0576 200.7688,116 200.596,116 200.3944C116 200.3944,116 200.3944,116 200.3944C116 200.1928,116 200.1928,116.576 199.5304C118.9952 196.5928,120.6944 192.3304,120.6944 188.93200000000002C120.6944 188.4136,120.7808 188.2408,121.0112 188.1544M122.7392 206.5288L122.768 206.5288L122.6816 206.5288L122.7392 206.5288M122.7392 187.1176L122.768 187.1176L122.6816 187.1176L122.7392 187.1176"></path><g class="vf-stavenote" id="vf-auto2247782"><g class="vf-note" pointer-events="bounding-box"><g class="vf-stem" pointer-events="bounding-box"><path stroke-width="1.5" fill="none" stroke="#000000" stroke-dasharray="none" class="vf-stem" id="vf-auto2247782-stem" d="M152.74663999999999 191.5L152.74663999999999 156.5"></path></g><g class="vf-notehead" pointer-events="bounding-box"><path stroke-width="0.3" fill="#000000" stroke="none" stroke-dasharray="none" d="M141.4784 191.5M148.83535999999998 186.27712C148.94768 186.27712,149.11615999999998 186.27712,149.14424 186.27712C149.14424 186.27712,149.17231999999998 186.27712,149.17231999999998 186.27712C149.17231999999998 186.27712,149.3408 186.27712,149.4812 186.27712C152.0084 186.41752,153.49663999999999 188.07424,153.49663999999999 190.15216C153.49663999999999 191.16304,153.15967999999998 192.31432,152.31727999999998 193.40944C150.71671999999998 195.5716,148.10528 196.75096,145.83079999999998 196.75096C144.06176 196.75096,142.54543999999999 196.04896,141.81536 194.61688C141.59072 194.05528,141.4784 193.52176,141.4784 192.93208C141.4784 189.87136,144.90416 186.47368,148.83535999999998 186.27712"></path></g></g><g class="vf-modifiers"></g></g><g class="vf-stavenote" id="vf-auto2247790"><g class="vf-note" pointer-events="bounding-box"><g class="vf-stem" pointer-events="bounding-box"><path stroke-width="1.5" fill="none" stroke="#000000" stroke-dasharray="none" class="vf-stem" id="vf-auto2247790-stem" d="M200.25383999999997 211.5L200.25383999999997 176.5"></path></g><g class="vf-notehead" pointer-events="bounding-box"><path stroke-width="0.3" fill="#000000" stroke="none" stroke-dasharray="none" d="M188.98559999999998 211.5M196.34255999999996 206.27712C196.45487999999997 206.27712,196.62336 206.27712,196.65143999999998 206.27712C196.65143999999998 206.27712,196.67951999999997 206.27712,196.67951999999997 206.27712C196.67951999999997 206.27712,196.84799999999998 206.27712,196.98839999999998 206.27712C199.51559999999998 206.41752,201.00383999999997 208.07424,201.00383999999997 210.15216C201.00383999999997 211.16304,200.66688 212.31432,199.82447999999997 213.40944C198.22391999999996 215.5716,195.61247999999998 216.75096,193.33799999999997 216.75096C191.56895999999998 216.75096,190.05263999999997 216.04896,189.32255999999998 214.61688C189.09792 214.05528,188.98559999999998 213.52176,188.98559999999998 212.93208C188.98559999999998 209.87136,192.41135999999997 206.47368,196.34255999999996 206.27712"></path></g></g><g class="vf-modifiers"></g></g><path stroke-width="1" fill="none" stroke="#000000" stroke-dasharray="none" d="M233.4928 216.5L251.51103999999998 216.5"></path><g class="vf-stavenote" id="vf-auto2247798"><g class="vf-note" pointer-events="bounding-box"><g class="vf-stem" pointer-events="bounding-box"><path stroke-width="1.5" fill="none" stroke="#000000" stroke-dasharray="none" class="vf-stem" id="vf-auto2247798-stem" d="M247.76103999999998 216.5L247.76103999999998 181.5"></path></g><g class="vf-notehead" pointer-events="bounding-box"><path stroke-width="0.3" fill="#000000" stroke="none" stroke-dasharray="none" d="M236.4928 216.5M243.84975999999997 211.27712C243.96208 211.27712,244.13056 211.27712,244.15864 211.27712C244.15864 211.27712,244.18671999999998 211.27712,244.18671999999998 211.27712C244.18671999999998 211.27712,244.3552 211.27712,244.4956 211.27712C247.0228 211.41752,248.51103999999998 213.07424,248.51103999999998 215.15216C248.51103999999998 216.16304,248.17408 217.31432,247.33167999999998 218.40944C245.73111999999998 220.5716,243.11968 221.75096,240.84519999999998 221.75096C239.07616 221.75096,237.55983999999998 221.04896,236.82976 219.61688C236.60512 219.05528,236.4928 218.52176,236.4928 217.93208C236.4928 214.87136,239.91855999999999 211.47368,243.84975999999997 211.27712"></path></g></g><g class="vf-modifiers"></g></g><path stroke-width="1" fill="none" stroke="#000000" stroke-dasharray="none" d="M282.9035168 166.5L405.42863359999996 166.5"></path><path stroke-width="1" fill="none" stroke="#000000" stroke-dasharray="none" d="M282.9035168 176.5L405.42863359999996 176.5"></path><path stroke-width="1" fill="none" stroke="#000000" stroke-dasharray="none" d="M282.9035168 186.5L405.42863359999996 186.5"></path><path stroke-width="1" fill="none" stroke="#000000" stroke-dasharray="none" d="M282.9035168 196.5L405.42863359999996 196.5"></path><path stroke-width="1" fill="none" stroke="#000000" stroke-dasharray="none" d="M282.9035168 206.5L405.42863359999996 206.5"></path><rect stroke-width="0.3" fill="#000000" stroke="#000000" stroke-dasharray="none" x="405.42863359999996" y="166" width="1" height="41"></rect><g class="vf-stavenote" id="vf-auto2247807"><g class="vf-note" pointer-events="bounding-box"><g class="vf-stem" pointer-events="bounding-box"><path stroke-width="1.5" fill="none" stroke="#000000" stroke-dasharray="none" class="vf-stem" id="vf-auto2247807-stem" d="M382.5050901333333 206.5L382.5050901333333 171.5"></path></g><g class="vf-notehead" pointer-events="bounding-box"><path stroke-width="0.3" fill="#000000" stroke="none" stroke-dasharray="none" d="M371.2368501333333 206.5M378.5938101333333 201.27712C378.7061301333333 201.27712,378.8746101333333 201.27712,378.9026901333333 201.27712C378.9026901333333 201.27712,378.9307701333333 201.27712,378.9307701333333 201.27712C378.9307701333333 201.27712,379.09925013333327 201.27712,379.23965013333327 201.27712C381.76685013333326 201.41752,383.2550901333333 203.07424,383.2550901333333 205.15216C383.2550901333333 206.16304,382.9181301333333 207.31432,382.0757301333333 208.40944C380.4751701333333 210.5716,377.8637301333333 211.75096,375.5892501333333 211.75096C373.8202101333333 211.75096,372.3038901333333 211.04896,371.57381013333327 209.61688C371.3491701333333 209.05528,371.2368501333333 208.52176,371.2368501333333 207.93208C371.2368501333333 204.87136,374.6626101333333 201.47368,378.5938101333333 201.27712"></path></g></g><g class="vf-modifiers"></g></g><path stroke-width="1" fill="none" stroke="#000000" stroke-dasharray="none" d="M405.4286336 166.5L523.7537504 166.5"></path><path stroke-width="1" fill="none" stroke="#000000" stroke-dasharray="none" d="M405.4286336 176.5L523.7537504 176.5"></path><path stroke-width="1" fill="none" stroke="#000000" stroke-dasharray="none" d="M405.4286336 186.5L523.7537504 186.5"></path><path stroke-width="1" fill="none" stroke="#000000" stroke-dasharray="none" d="M405.4286336 196.5L523.7537504 196.5"></path><path stroke-width="1" fill="none" stroke="#000000" stroke-dasharray="none" d="M405.4286336 206.5L523.7537504 206.5"></path><rect stroke-width="0.3" fill="#000000" stroke="#000000" stroke-dasharray="none" x="523.7537504" y="166" width="1" height="41"></rect><path stroke-width="1" fill="none" stroke="#000000" stroke-dasharray="none" d="M523.7537504 166.5L646.2788671999999 166.5"></path><path stroke-width="1" fill="none" stroke="#000000" stroke-dasharray="none" d="M523.7537504 176.5L646.2788671999999 176.5"></path><path stroke-width="1" fill="none" stroke="#000000" stroke-dasharray="none" d="M523.7537504 186.5L646.2788671999999 186.5"></path><path stroke-width="1" fill="none" stroke="#000000" stroke-dasharray="none" d="M523.7537504 196.5L646.2788671999999 196.5"></path><path stroke-width="1" fill="none" stroke="#000000" stroke-dasharray="none" d="M523.7537504 206.5L646.2788671999999 206.5"></path><rect stroke-width="0.3" fill="#000000" stroke="#000000" stroke-dasharray="none" x="641.2788671999999" y="166" width="1" height="41"></rect><rect stroke-width="0.3" fill="#000000" stroke="#000000" stroke-dasharray="none" x="644.2788671999999" y="166" width="3" height="41"></rect><g class="vf-stavenote" id="vf-auto2247860"><g class="vf-note" pointer-events="bounding-box"><g class="vf-stem" pointer-events="bounding-box"><path stroke-width="1.5" fill="none" stroke="#000000" stroke-dasharray="none" class="vf-stem" id="vf-auto2247860-stem" d="M577.1704170666666 186.5L577.1704170666666 221.5"></path></g><g class="vf-notehead" pointer-events="bounding-box"><path stroke-width="0.3" fill="#000000" stroke="none" stroke-dasharray="none" d="M576.4204170666666 186.5M583.7773770666665 181.27712C583.8896970666666 181.27712,584.0581770666665 181.27712,584.0862570666666 181.27712C584.0862570666666 181.27712,584.1143370666666 181.27712,584.1143370666666 181.27712C584.1143370666666 181.27712,584.2828170666666 181.27712,584.4232170666666 181.27712C586.9504170666665 181.41752,588.4386570666666 183.07424,588.4386570666666 185.15216C588.4386570666666 186.16304,588.1016970666666 187.31432,587.2592970666666 188.40944C585.6587370666666 190.5716,583.0472970666666 191.75096,580.7728170666666 191.75096C579.0037770666665 191.75096,577.4874570666666 191.04896,576.7573770666665 189.61688C576.5327370666665 189.05528,576.4204170666666 188.52176,576.4204170666666 187.93208C576.4204170666666 184.87136,579.8461770666665 181.47368,583.7773770666665 181.27712"></path></g></g><g class="vf-modifiers"></g></g><g class="vf-text"><text stroke-width="0.3" fill="#000000" stroke="none" stroke-dasharray="none" font-family="Times New Roman" font-size="23px" font-weight="bold" font-style="italic" x="132.48752" y="240.5">mp</text></g><path stroke-width="1" fill="none" stroke="#000000" stroke-dasharray="none" d="M70 255.29999999999998L282.9035168 255.29999999999998"></path><path stroke-width="1" fill="none" stroke="#000000" stroke-dasharray="none" d="M70 265.29999999999995L282.9035168 265.29999999999995"></path><path stroke-width="1" fill="none" stroke="#000000" stroke-dasharray="none" d="M70 275.29999999999995L282.9035168 275.29999999999995"></path><path stroke-width="1" fill="none" stroke="#000000" stroke-dasharray="none" d="M70 285.29999999999995L282.9035168 285.29999999999995"></path><path stroke-width="1" fill="none" stroke="#000000" stroke-dasharray="none" d="M70 295.29999999999995L282.9035168 295.29999999999995"></path><rect stroke-width="0.3" fill="#000000" stroke="#000000" stroke-dasharray="none" x="282.9035168" y="254.79999999999998" width="1" height="40.99999999999997"></rect><g class="vf-clef"><path stroke-width="0.3" fill="#000000" stroke="none" stroke-dasharray="none" d="M75 265.29999999999995M83.8416 255.24879999999996C84.072 255.19119999999995,84.3024 255.19119999999995,84.5616 255.19119999999995C85.5696 255.19119999999995,86.7504 255.30639999999997,87.7584 255.50799999999995C92.4816 256.4872,95.736 259.68399999999997,96.3408 263.9464C96.3984 264.40719999999993,96.4272 264.83919999999995,96.4272 265.29999999999995C96.4272 267.89199999999994,95.5344 271.23279999999994,94.008 274.02639999999997C90.3792 280.59279999999995,83.7552 285.316,75.8064 287.044C75.6624 287.044,75.5472 287.0728,75.4032 287.0728C75.1152 287.0728,74.9712 286.9,74.9712 286.64079999999996C74.9712 286.35279999999995,75.0288 286.2664,75.6048 286.03599999999994C84.7056 282.6088,90.7824 275.20719999999994,91.3296 266.91279999999995C91.3584 266.48079999999993,91.3584 265.99119999999994,91.3584 265.61679999999996C91.3584 261.5848,90.12 258.58959999999996,87.7296 257.0919999999999C86.6928 256.42959999999994,85.5696 256.11279999999994,84.36 256.11279999999994C81.6816 256.11279999999994,78.9456 257.63919999999996,77.6784 260.20239999999995C77.6208 260.40399999999994,77.4192 260.83599999999996,77.4192 260.86479999999995C77.4192 260.86479999999995,77.4192 260.86479999999995,77.4192 260.86479999999995C77.4192 260.86479999999995,77.448 260.83599999999996,77.5344 260.80719999999997C78.168 260.40399999999994,78.8592 260.20239999999995,79.5792 260.20239999999995C80.5872 260.20239999999995,81.6528 260.63439999999997,82.4016 261.44079999999997C83.0928 262.1895999999999,83.4672 263.19759999999997,83.4672 264.1192C83.4672 265.99119999999994,82.0848 267.89199999999994,79.9248 268.0936C79.7808 268.0936,79.6368 268.12239999999997,79.4928 268.12239999999997C77.1024 268.12239999999997,75.1728 265.93359999999996,75.1728 263.1688C75.1728 263.11119999999994,75.1728 263.02479999999997,75.1728 262.996C75.288 258.8776,79.0608 255.50799999999995,83.8416 255.24879999999996M99.1632 259.10799999999995C99.2208 259.07919999999996,99.2496 259.07919999999996,99.336 259.07919999999996C99.5376 259.07919999999996,99.768 259.10799999999995,99.8256 259.1655999999999C100.54560000000001 259.36719999999997,100.8912 260.00079999999997,100.8912 260.6056C100.8912 261.12399999999997,100.632 261.64239999999995,100.11359999999999 261.93039999999996C99.912 262.07439999999997,99.6528 262.10319999999996,99.39359999999999 262.10319999999996C98.9904 262.10319999999996,98.5584 261.93039999999996,98.2704 261.5559999999999C98.03999999999999 261.268,97.9248 260.9512,97.9248 260.63439999999997C97.9248 259.91439999999994,98.3856 259.1944,99.1632 259.10799999999995M99.1632 268.52559999999994C99.2208 268.52559999999994,99.2496 268.52559999999994,99.336 268.52559999999994C99.5376 268.52559999999994,99.768 268.55439999999993,99.8256 268.61199999999997C100.54560000000001 268.81359999999995,100.8912 269.44719999999995,100.8912 270.05199999999996C100.8912 270.57039999999995,100.632 271.08879999999994,100.11359999999999 271.34799999999996C99.912 271.49199999999996,99.6528 271.54959999999994,99.39359999999999 271.54959999999994C98.9904 271.54959999999994,98.5584 271.34799999999996,98.2704 271.00239999999997C98.03999999999999 270.71439999999996,97.9248 270.39759999999995,97.9248 270.05199999999996C97.9248 269.33199999999994,98.3856 268.64079999999996,99.1632 268.52559999999994"></path></g><path stroke-width="0.3" fill="#000000" stroke="none" stroke-dasharray="none" d="M116.8352 275.29999999999995M121.8464 256.63759999999996C121.904 256.63759999999996,122.1056 256.63759999999996,122.336 256.63759999999996C122.71039999999999 256.63759999999996,123.1712 256.63759999999996,123.3152 256.63759999999996C125.9648 256.9256,128.0384 258.3656,128.4128 260.23759999999993C128.4704 260.4104,128.4704 260.61199999999997,128.4704 260.81359999999995C128.4704 261.044,128.4704 261.24559999999997,128.4128 261.3607999999999C128.0384 262.71439999999996,126.45439999999999 263.95279999999997,124.4384 264.5576C124.2944 264.61519999999996,124.2368 264.61519999999996,124.2368 264.64399999999995C124.2368 264.64399999999995,124.2368 264.64399999999995,124.2368 264.64399999999995C124.2656 264.64399999999995,124.352 264.67279999999994,124.4384 264.67279999999994C127.1744 265.6808,128.6144 267.61039999999997,128.6144 269.4823999999999C128.6144 270.9224,127.80799999999999 272.30479999999994,125.9936 273.22639999999996C124.928 273.8024,123.7472 274.06159999999994,122.5952 274.06159999999994C120.6944 274.06159999999994,118.8224 273.34159999999997,117.4976 272.0456C117.008 271.5848,116.8352 271.00879999999995,116.8352 270.43279999999993C116.8352 269.25199999999995,117.6704 268.12879999999996,119.0528 268.12879999999996L119.0528 268.12879999999996C120.4352 268.12879999999996,121.2128 269.1944,121.2128 270.2888C121.2128 271.12399999999997,120.7808 271.95919999999995,119.8016 272.3624C119.8016 272.3624,119.8016 272.3624,119.8016 272.3624C119.8016 272.39119999999997,120.6368 272.56399999999996,121.0688 272.59279999999995C121.1264 272.59279999999995,121.184 272.59279999999995,121.2416 272.59279999999995C123.1424 272.59279999999995,124.4672 271.2392,124.4672 269.36719999999997C124.4672 269.1655999999999,124.4672 268.99279999999993,124.4384 268.79119999999995C124.1216 266.68879999999996,122.71039999999999 265.13359999999994,121.0688 265.07599999999996C120.6656 265.0472,120.464 264.8744,120.464 264.61519999999996C120.464 264.26959999999997,120.6368 264.12559999999996,121.0688 264.12559999999996C122.48 264.03919999999994,123.6896 263.08879999999994,124.1504 261.64879999999994C124.2656 261.3607999999999,124.2944 261.0728,124.2944 260.84239999999994C124.2944 259.6328,123.4016 258.53839999999997,122.0768 258.25039999999996C121.8752 258.16399999999993,121.616 258.16399999999993,121.328 258.16399999999993C120.9248 258.16399999999993,120.5504 258.1928,120.1472 258.25039999999996L120.032 258.27919999999995L120.1472 258.3656C120.896 258.76879999999994,121.2128 259.48879999999997,121.2128 260.20879999999994C121.2128 261.15919999999994,120.5792 262.10959999999994,119.4848 262.36879999999996C119.3408 262.39759999999995,119.168 262.39759999999995,119.024 262.39759999999995C117.7568 262.39759999999995,116.8064 261.24559999999997,116.8064 260.03599999999994C116.8064 259.51759999999996,116.9792 258.9992,117.4112 258.56719999999996C118.4192 257.47279999999995,119.9456 256.83919999999995,121.8464 256.63759999999996M122.71039999999999 275.32879999999994L122.7392 275.32879999999994L122.6528 275.32879999999994L122.71039999999999 275.32879999999994M122.71039999999999 255.91759999999996L122.7392 255.91759999999996L122.6528 255.91759999999996L122.71039999999999 255.91759999999996"></path><path stroke-width="0.3" fill="#000000" stroke="none" stroke-dasharray="none" d="M116 295.29999999999995M121.0112 276.95439999999996C121.04 276.9256,121.4432 276.9256,122.6816 276.9256C123.056 276.9256,123.4592 276.9256,123.9776 276.9256L126.8864 276.9256L126.9728 277.01199999999994C127.1168 277.09839999999997,127.2032 277.2424,127.2032 277.35759999999993C127.2032 277.53039999999993,127.1168 277.64559999999994,127.0016 277.76079999999996C126.9728 277.84719999999993,126.7136 278.07759999999996,126.5408 278.3367999999999L125.0144 280.0936L123.056 282.31119999999993L122.0192 283.49199999999996L120.464 285.27759999999995L118.4192 287.61039999999997C118.0736 288.04239999999993,117.6992 288.388,117.6992 288.388C117.6992 288.388,117.6992 288.388,117.6992 288.388C117.6992 288.44559999999996,117.9584 288.44559999999996,120.3488 288.44559999999996L122.9696 288.44559999999996L122.9696 286.57359999999994C122.9696 284.67279999999994,122.9696 284.64399999999995,122.9984 284.61519999999996C123.056 284.52879999999993,123.3152 284.21199999999993,124.3232 283.03119999999996L124.7264 282.59919999999994L125.1296 282.1672L125.7344 281.3896L126.368 280.7272L126.6848 280.32399999999996C126.8 280.15119999999996,126.9728 280.12239999999997,127.1168 280.12239999999997C127.28960000000001 280.12239999999997,127.4336 280.20879999999994,127.52 280.35279999999995C127.5488 280.43919999999997,127.5488 280.49679999999995,127.5488 282.62799999999993C127.5488 283.1176,127.5488 283.72239999999994,127.5488 284.44239999999996L127.5488 288.44559999999996L128.2688 288.44559999999996C128.9312 288.44559999999996,128.96 288.44559999999996,129.0464 288.47439999999995C129.2768 288.5608,129.392 288.79119999999995,129.392 289.05039999999997C129.392 289.1944,129.3632 289.36719999999997,129.248 289.4823999999999C129.0752 289.62639999999993,129.0464 289.62639999999993,128.2688 289.62639999999993L127.5488 289.62639999999993L127.5488 290.11599999999993C127.5776 291.5848,127.8656 292.16079999999994,128.9888 292.76559999999995C129.392 292.96719999999993,129.4784 293.02479999999997,129.4784 293.3128C129.4784 293.51439999999997,129.42079999999999 293.60079999999994,129.2768 293.71599999999995L129.1904 293.74479999999994L125.2448 293.74479999999994L121.328 293.74479999999994L121.2416 293.71599999999995C121.0688 293.60079999999994,121.04 293.51439999999997,121.04 293.3128C121.04 293.02479999999997,121.0688 292.96719999999993,121.5008 292.76559999999995C122.624 292.16079999999994,122.912 291.5848,122.912 290.11599999999993L122.912 289.62639999999993L119.6 289.62639999999993C118.9952 289.68399999999997,118.5056 289.68399999999997,118.1024 289.68399999999997C116.288 289.68399999999997,116.2592 289.62639999999993,116.2304 289.62639999999993C116.0576 289.56879999999995,116 289.39599999999996,116 289.1944C116 289.1944,116 289.1944,116 289.1944C116 288.99279999999993,116 288.99279999999993,116.576 288.33039999999994C118.9952 285.39279999999997,120.6944 281.13039999999995,120.6944 277.73199999999997C120.6944 277.21359999999993,120.7808 277.04079999999993,121.0112 276.95439999999996M122.7392 295.32879999999994L122.768 295.32879999999994L122.6816 295.32879999999994L122.7392 295.32879999999994M122.7392 275.91759999999994L122.768 275.91759999999994L122.6816 275.91759999999994L122.7392 275.91759999999994"></path><rect stroke-width="0.3" fill="#000000" stroke="#000000" stroke-dasharray="none" x="282.9035168" y="166.5" width="1" height="129.79999999999995"></rect><rect stroke-width="0.3" fill="#000000" stroke="#000000" stroke-dasharray="none" x="70" y="166.5" width="1" height="129.79999999999995"></rect><path stroke-width="1" fill="none" stroke="#000000" stroke-dasharray="none" d="M282.9035168 255.29999999999998L405.42863359999996 255.29999999999998"></path><path stroke-width="1" fill="none" stroke="#000000" stroke-dasharray="none" d="M282.9035168 265.29999999999995L405.42863359999996 265.29999999999995"></path><path stroke-width="1" fill="none" stroke="#000000" stroke-dasharray="none" d="M282.9035168 275.29999999999995L405.42863359999996 275.29999999999995"></path><path stroke-width="1" fill="none" stroke="#000000" stroke-dasharray="none" d="M282.9035168 285.29999999999995L405.42863359999996 285.29999999999995"></path><path stroke-width="1" fill="none" stroke="#000000" stroke-dasharray="none" d="M282.9035168 295.29999999999995L405.42863359999996 295.29999999999995"></path><rect stroke-width="0.3" fill="#000000" stroke="#000000" stroke-dasharray="none" x="405.42863359999996" y="254.79999999999998" width="1" height="40.99999999999997"></rect><g class="vf-stavenote" id="vf-auto2247817"><g class="vf-note" pointer-events="bounding-box"><g class="vf-stem" pointer-events="bounding-box"><path stroke-width="1.5" fill="none" stroke="#000000" stroke-dasharray="none" class="vf-stem" id="vf-auto2247817-stem" d="M300.6535168 250.29999999999995L300.6535168 285.29999999999995"></path></g><g class="vf-notehead" pointer-events="bounding-box"><path stroke-width="0.3" fill="#000000" stroke="none" stroke-dasharray="none" d="M299.9035168 250.29999999999995M307.2604768 245.07711999999995C307.3727968 245.07711999999995,307.5412768 245.07711999999995,307.5693568 245.07711999999995C307.5693568 245.07711999999995,307.59743679999997 245.07711999999995,307.59743679999997 245.07711999999995C307.59743679999997 245.07711999999995,307.76591679999996 245.07711999999995,307.90631679999996 245.07711999999995C310.4335168 245.21751999999995,311.92175679999997 246.87423999999996,311.92175679999997 248.95215999999996C311.92175679999997 249.96303999999995,311.5847968 251.11431999999996,310.7423968 252.20943999999994C309.14183679999996 254.37159999999994,306.53039679999995 255.55095999999995,304.25591679999997 255.55095999999995C302.4868768 255.55095999999995,300.9705568 254.84895999999995,300.24047679999995 253.41687999999996C300.0158368 252.85527999999996,299.9035168 252.32175999999995,299.9035168 251.73207999999997C299.9035168 248.67135999999996,303.3292768 245.27367999999996,307.2604768 245.07711999999995"></path></g></g><g class="vf-modifiers"></g></g><g class="vf-stavenote" id="vf-auto2247825"><g class="vf-note" pointer-events="bounding-box"><g class="vf-stem" pointer-events="bounding-box"><path stroke-width="1.5" fill="none" stroke="#000000" stroke-dasharray="none" class="vf-stem" id="vf-auto2247825-stem" d="M346.83842346666665 275.29999999999995L346.83842346666665 240.29999999999995"></path></g><g class="vf-notehead" pointer-events="bounding-box"><path stroke-width="0.3" fill="#000000" stroke="none" stroke-dasharray="none" d="M335.57018346666666 275.29999999999995M342.9271434666667 270.07712C343.0394634666667 270.07712,343.2079434666667 270.07712,343.23602346666667 270.07712C343.23602346666667 270.07712,343.26410346666665 270.07712,343.26410346666665 270.07712C343.26410346666665 270.07712,343.43258346666664 270.07712,343.57298346666664 270.07712C346.10018346666664 270.21752,347.58842346666665 271.87423999999993,347.58842346666665 273.95215999999994C347.58842346666665 274.96304,347.2514634666667 276.11431999999996,346.4090634666667 277.20944C344.80850346666665 279.37159999999994,342.1970634666667 280.55096,339.92258346666665 280.55096C338.1535434666667 280.55096,336.6372234666667 279.84896,335.90714346666664 278.41687999999994C335.6825034666667 277.85527999999994,335.57018346666666 277.3217599999999,335.57018346666666 276.73207999999994C335.57018346666666 273.67135999999994,338.9959434666667 270.27367999999996,342.9271434666667 270.07712"></path></g></g><g class="vf-modifiers"></g></g><rect stroke-width="0.3" fill="#000000" stroke="#000000" stroke-dasharray="none" x="405.42863359999996" y="166.5" width="1" height="129.79999999999995"></rect><path stroke-width="1" fill="none" stroke="#000000" stroke-dasharray="none" d="M405.4286336 255.29999999999998L523.7537504 255.29999999999998"></path><path stroke-width="1" fill="none" stroke="#000000" stroke-dasharray="none" d="M405.4286336 265.29999999999995L523.7537504 265.29999999999995"></path><path stroke-width="1" fill="none" stroke="#000000" stroke-dasharray="none" d="M405.4286336 275.29999999999995L523.7537504 275.29999999999995"></path><path stroke-width="1" fill="none" stroke="#000000" stroke-dasharray="none" d="M405.4286336 285.29999999999995L523.7537504 285.29999999999995"></path><path stroke-width="1" fill="none" stroke="#000000" stroke-dasharray="none" d="M405.4286336 295.29999999999995L523.7537504 295.29999999999995"></path><rect stroke-width="0.3" fill="#000000" stroke="#000000" stroke-dasharray="none" x="523.7537504" y="254.79999999999998" width="1" height="40.99999999999997"></rect><g class="vf-stavenote" id="vf-auto2247835"><g class="vf-note" pointer-events="bounding-box"><g class="vf-stem" pointer-events="bounding-box"><path stroke-width="1.5" fill="none" stroke="#000000" stroke-dasharray="none" class="vf-stem" id="vf-auto2247835-stem" d="M433.6968736 285.29999999999995L433.6968736 250.29999999999995"></path></g><g class="vf-notehead" pointer-events="bounding-box"><path stroke-width="0.3" fill="#000000" stroke="none" stroke-dasharray="none" d="M422.4286336 285.29999999999995M429.7855936 280.07712C429.89791360000004 280.07712,430.0663936 280.07712,430.0944736 280.07712C430.0944736 280.07712,430.1225536 280.07712,430.1225536 280.07712C430.1225536 280.07712,430.2910336 280.07712,430.4314336 280.07712C432.9586336 280.21752,434.4468736 281.87423999999993,434.4468736 283.95215999999994C434.4468736 284.96304,434.1099136 286.11431999999996,433.26751360000003 287.20944C431.6669536 289.37159999999994,429.05551360000004 290.55096,426.7810336 290.55096C425.01199360000004 290.55096,423.49567360000003 289.84896,422.7655936 288.41687999999994C422.5409536 287.85527999999994,422.4286336 287.3217599999999,422.4286336 286.73207999999994C422.4286336 283.67135999999994,425.85439360000004 280.27367999999996,429.7855936 280.07712"></path></g></g><g class="vf-modifiers"></g></g><g class="vf-stavenote" id="vf-auto2247843"><g class="vf-note" pointer-events="bounding-box"><g class="vf-stem" pointer-events="bounding-box"><path stroke-width="1.5" fill="none" stroke="#000000" stroke-dasharray="none" class="vf-stem" id="vf-auto2247843-stem" d="M468.0302069333333 290.29999999999995L468.0302069333333 255.29999999999995"></path></g><g class="vf-notehead" pointer-events="bounding-box"><path stroke-width="0.3" fill="#000000" stroke="none" stroke-dasharray="none" d="M456.7619669333333 290.29999999999995M464.11892693333334 285.07712C464.23124693333335 285.07712,464.39972693333334 285.07712,464.42780693333333 285.07712C464.42780693333333 285.07712,464.4558869333333 285.07712,464.4558869333333 285.07712C464.4558869333333 285.07712,464.6243669333333 285.07712,464.7647669333333 285.07712C467.29196693333336 285.21752,468.7802069333333 286.87423999999993,468.7802069333333 288.95215999999994C468.7802069333333 289.96304,468.44324693333334 291.11431999999996,467.60084693333334 292.20944C466.0002869333333 294.37159999999994,463.3888469333333 295.55096,461.1143669333333 295.55096C459.34532693333335 295.55096,457.82900693333335 294.84896,457.0989269333333 293.41687999999994C456.87428693333334 292.85527999999994,456.7619669333333 292.3217599999999,456.7619669333333 291.73207999999994C456.7619669333333 288.67135999999994,460.18772693333335 285.27367999999996,464.11892693333334 285.07712"></path></g></g><g class="vf-modifiers"></g></g><g class="vf-stavenote" id="vf-auto2247851"><g class="vf-note" pointer-events="bounding-box"><g class="vf-stem" pointer-events="bounding-box"><path stroke-width="1.5" fill="none" stroke="#000000" stroke-dasharray="none" class="vf-stem" id="vf-auto2247851-stem" d="M502.36354026666663 285.29999999999995L502.36354026666663 250.29999999999995"></path></g><g class="vf-notehead" pointer-events="bounding-box"><path stroke-width="0.3" fill="#000000" stroke="none" stroke-dasharray="none" d="M491.09530026666664 285.29999999999995M498.45226026666666 280.07712C498.56458026666667 280.07712,498.73306026666666 280.07712,498.76114026666664 280.07712C498.76114026666664 280.07712,498.78922026666663 280.07712,498.78922026666663 280.07712C498.78922026666663 280.07712,498.9577002666666 280.07712,499.0981002666666 280.07712C501.6253002666666 280.21752,503.11354026666663 281.87423999999993,503.11354026666663 283.95215999999994C503.11354026666663 284.96304,502.77658026666666 286.11431999999996,501.93418026666666 287.20944C500.3336202666666 289.37159999999994,497.72218026666667 290.55096,495.44770026666663 290.55096C493.67866026666667 290.55096,492.16234026666666 289.84896,491.4322602666666 288.41687999999994C491.20762026666665 287.85527999999994,491.09530026666664 287.3217599999999,491.09530026666664 286.73207999999994C491.09530026666664 283.67135999999994,494.52106026666667 280.27367999999996,498.45226026666666 280.07712"></path></g></g><g class="vf-modifiers"></g></g><rect stroke-width="0.3" fill="#000000" stroke="#000000" stroke-dasharray="none" x="523.7537504" y="166.5" width="1" height="129.79999999999995"></rect><path stroke-width="1" fill="none" stroke="#000000" stroke-dasharray="none" d="M523.7537504 255.29999999999998L646.2788671999999 255.29999999999998"></path><path stroke-width="1" fill="none" stroke="#000000" stroke-dasharray="none" d="M523.7537504 265.29999999999995L646.2788671999999 265.29999999999995"></path><path stroke-width="1" fill="none" stroke="#000000" stroke-dasharray="none" d="M523.7537504 275.29999999999995L646.2788671999999 275.29999999999995"></path><path stroke-width="1" fill="none" stroke="#000000" stroke-dasharray="none" d="M523.7537504 285.29999999999995L646.2788671999999 285.29999999999995"></path><path stroke-width="1" fill="none" stroke="#000000" stroke-dasharray="none" d="M523.7537504 295.29999999999995L646.2788671999999 295.29999999999995"></path><rect stroke-width="0.3" fill="#000000" stroke="#000000" stroke-dasharray="none" x="641.2788671999999" y="254.79999999999998" width="1" height="40.99999999999997"></rect><rect stroke-width="0.3" fill="#000000" stroke="#000000" stroke-dasharray="none" x="644.2788671999999" y="254.79999999999998" width="3" height="40.99999999999997"></rect><g class="vf-stavenote" id="vf-auto2247871"><g class="vf-note" pointer-events="bounding-box"><g class="vf-stem" pointer-events="bounding-box"><path stroke-width="1.5" fill="none" stroke="#000000" stroke-dasharray="none" class="vf-stem" id="vf-auto2247871-stem" d="M552.0219903999999 285.29999999999995L552.0219903999999 250.29999999999995"></path></g><g class="vf-notehead" pointer-events="bounding-box"><path stroke-width="0.3" fill="#000000" stroke="none" stroke-dasharray="none" d="M540.7537504 285.29999999999995M548.1107103999999 280.07712C548.2230304 280.07712,548.3915103999999 280.07712,548.4195904 280.07712C548.4195904 280.07712,548.4476704 280.07712,548.4476704 280.07712C548.4476704 280.07712,548.6161503999999 280.07712,548.7565503999999 280.07712C551.2837503999999 280.21752,552.7719903999999 281.87423999999993,552.7719903999999 283.95215999999994C552.7719903999999 284.96304,552.4350304 286.11431999999996,551.5926304 287.20944C549.9920704 289.37159999999994,547.3806304 290.55096,545.1061503999999 290.55096C543.3371103999999 290.55096,541.8207904 289.84896,541.0907103999999 288.41687999999994C540.8660703999999 287.85527999999994,540.7537504 287.3217599999999,540.7537504 286.73207999999994C540.7537504 283.67135999999994,544.1795103999999 280.27367999999996,548.1107103999999 280.07712"></path></g></g><g class="vf-modifiers"></g></g><g class="vf-stavenote" id="vf-auto2247879"><g class="vf-note" pointer-events="bounding-box"><g class="vf-stem" pointer-events="bounding-box"><path stroke-width="1.5" fill="none" stroke="#000000" stroke-dasharray="none" class="vf-stem" id="vf-auto2247879-stem" d="M612.8370837333333 270.29999999999995L612.8370837333333 305.29999999999995"></path></g><g class="vf-notehead" pointer-events="bounding-box"><path stroke-width="0.3" fill="#000000" stroke="none" stroke-dasharray="none" d="M612.0870837333333 270.29999999999995M619.4440437333333 265.07712C619.5563637333333 265.07712,619.7248437333333 265.07712,619.7529237333333 265.07712C619.7529237333333 265.07712,619.7810037333334 265.07712,619.7810037333334 265.07712C619.7810037333334 265.07712,619.9494837333333 265.07712,620.0898837333333 265.07712C622.6170837333333 265.21752,624.1053237333333 266.87423999999993,624.1053237333333 268.95215999999994C624.1053237333333 269.96304,623.7683637333333 271.11431999999996,622.9259637333333 272.20944C621.3254037333334 274.37159999999994,618.7139637333333 275.55096,616.4394837333333 275.55096C614.6704437333333 275.55096,613.1541237333333 274.84896,612.4240437333333 273.41687999999994C612.1994037333333 272.85527999999994,612.0870837333333 272.3217599999999,612.0870837333333 271.73207999999994C612.0870837333333 268.67135999999994,615.5128437333333 265.27367999999996,619.4440437333333 265.07712"></path></g></g><g class="vf-modifiers"></g></g><rect stroke-width="0.3" fill="#000000" stroke="#000000" stroke-dasharray="none" x="641.2788671999999" y="166.5" width="1" height="129.79999999999995"></rect><rect stroke-width="0.3" fill="#000000" stroke="#000000" stroke-dasharray="none" x="644.2788671999999" y="166.5" width="3" height="129.79999999999995"></rect><path stroke-width="0.3" fill="#000000" stroke="none" stroke-dasharray="none" d="M68 166.5C45.2 192.45999999999998,81.2 213.87699999999998,56 231.39999999999998C81.2 248.92299999999997,45.2 270.34,68 296.29999999999995C44 270.34,72.8 248.92299999999997,56 231.39999999999998C72.8 213.87699999999998,44 192.45999999999998,68 166.5"></path><path stroke-width="1" fill="none" stroke="#000000" stroke-dasharray="none" d="M68 166.5C45.2 192.45999999999998,81.2 213.87699999999998,56 231.39999999999998C81.2 248.92299999999997,45.2 270.34,68 296.29999999999995C44 270.34,72.8 248.92299999999997,56 231.39999999999998C72.8 213.87699999999998,44 192.45999999999998,68 166.5"></path><g class="vf-text"><text stroke-width="0.3" fill="#000000" stroke="none" stroke-dasharray="none" font-family="Times New Roman" font-size="15px" font-weight="normal" font-style="normal" x="401.92863359999996" y="163.5">3</text></g></svg>