<svg xmlns="http://www.w3.org/2000/svg"  width="1470" height="378.6" viewBox="0 0 1470 378.6"><path stroke-width="1" fill="none" stroke="#000000" stroke-dasharray="none" d="M70 166.5L278.7035168 166.5"></path><path stroke-width="1" fill="none" stroke="#000000" stroke-dasharray="none" d="M70 176.5L278.7035168 176.5"></path><path stroke-width="1" fill="none" stroke="#000000" stroke-dasharray="none" d="M70 186.5L278.7035168 186.5"></path><path stroke-width="1" fill="none" stroke="#000000" stroke-dasharray="none" d="M70 196.5L278.7035168 196.5"></path><path stroke-width="1" fill="none" stroke="#000000" stroke-dasharray="none" d="M70 206.5L278.7035168 206.5"></path><rect stroke-width="0.3" fill="#000000" stroke="#000000" stroke-dasharray="none" x="278.7035168" y="166" width="1" height="41"></rect><g class="vf-clef"><path stroke-width="0.3" fill="#000000" stroke="none" stroke-dasharray="none" d="M75 196.5M89.0544 153.3288C89.112 153.3,89.1696 153.3,89.256 153.3C89.6016 153.3,90.0048 153.588,90.5808 154.308C92.9136 156.9864,94.5552 161.652,94.5552 165.4536C94.5552 165.7416,94.4976 165.972,94.4976 166.26C94.2384 170.7816,92.3952 174.4968,88.7376 178.0104L87.7584 178.9608L87.4128 179.3352L87.4128 179.4504L87.6144 180.3144L87.9312 181.8696L88.248 183.3096C88.68 185.268,88.8528 186.276,88.8528 186.276C88.8528 186.276,88.8528 186.276,88.8528 186.276C88.8528 186.276,88.968 186.276,89.112 186.2472C89.256 186.2472,89.7168 186.1896,90.2064 186.1896C90.55199999999999 186.1896,90.8976 186.2472,91.0704 186.2472C95.1312 186.7656,98.2704 189.6744,99.1632 193.764C99.336 194.4264,99.39359999999999 195.1464,99.39359999999999 195.8664C99.39359999999999 199.7544,97.0608 203.4696,93.1728 205.2264C92.94239999999999 205.3704,92.856 205.3992,92.856 205.3992L92.856 205.428C92.856 205.428,93.0288 206.0904,93.1728 206.8392L93.6048 209.028L94.008 210.7848C94.2384 211.908,94.3536 212.7144,94.3536 213.4344C94.3536 214.06799999999998,94.2672 214.644,94.1232 215.3064C93.144 219.3096,89.6592 221.7,86.0304 221.7C84.2448 221.7,82.4016 221.124,80.7888 219.828C79.3488 218.6184,78.7152 217.524,78.7152 216.084C78.7152 213.5496,80.76 211.764,82.8912 211.764C83.64 211.764,84.3888 211.99439999999998,85.1088 212.4264C86.3184 213.2616,86.8656 214.5288,86.8656 215.7672C86.8656 217.668,85.5408 219.54,83.2656 219.684L83.0352 219.684L83.208 219.79919999999998C84.1584 220.2024,85.1088 220.404,86.0304 220.404C88.3632 220.404,90.55199999999999 219.2232,91.8768 217.1784C92.62559999999999 216.0264,93.0288 214.6728,93.0288 213.3192C93.0288 212.8008,92.94239999999999 212.2824,92.8272 211.7064C92.8272 211.6488,92.74080000000001 211.188,92.62559999999999 210.756C91.992 207.6456,91.6176 205.8312,91.6176 205.8312C91.6176 205.8312,91.6176 205.8312,91.6176 205.8312C91.56 205.8312,91.4448 205.8312,91.3584 205.8888C91.0704 205.9464,90.4656 206.0904,90.2064 206.1192C89.5728 206.2056,88.968 206.2344,88.392 206.2344C82.74719999999999 206.2344,77.5056 202.4328,75.6912 196.8168C75.2304 195.3192,74.9712 193.8216,74.9712 192.324C74.9712 189.3288,75.9216 186.3912,77.7648 183.7704C79.7808 180.9192,81.7968 178.4712,84.2736 175.9368L85.13759999999999 175.044L84.936 173.9784L84.5616 172.2216L84.072 169.9752C83.928 169.14,83.7552 168.3336,83.7264 168.1608C83.5824 167.2104,83.496 166.2888,83.496 165.3384C83.496 161.7096,84.6768 158.22480000000002,86.8944 155.4312C87.5568 154.5672,88.7376 153.4152,89.0544 153.3288M90.8112 159.0312C90.7536 159.0312,90.6672 159.0312,90.5808 159.0312C89.4 159.0312,87.8736 160.1256,86.8368 161.7384C85.7712 163.32240000000002,85.224 165.4248,85.224 167.5848C85.224 168.1608,85.25280000000001 168.7656,85.3392 169.3704C85.4256 169.8024,85.45439999999999 170.0904,85.6848 171.12720000000002L86.088 172.9416C86.2032 173.4888,86.28960000000001 173.92079999999999,86.28960000000001 173.9784L86.28960000000001 173.9784C86.3184 173.9784,87.2112 172.9992,87.4992 172.6536C90.3792 169.3992,92.1072 165.972,92.4816 162.948C92.5104 162.66,92.5104 162.4296,92.5104 162.1416C92.5104 161.24880000000002,92.3952 160.38479999999998,92.1936 159.924C91.9632 159.4632,91.4448 159.0888,90.8112 159.0312M86.4624 181.2936C86.4048 180.8904,86.3184 180.5736,86.3184 180.516C86.3184 180.516,86.3184 180.516,86.28960000000001 180.516C86.232 180.516,84.9936 181.956,84.1296 182.964C82.6608 184.7496,81.1056 186.8808,80.472 187.9176C79.2624 189.9624,78.6576 192.2376,78.6576 194.484C78.6576 195.9528,78.9456 197.364,79.464 198.7176C81.0192 202.7208,84.5904 205.2264,88.4784 205.2264C88.9392 205.2264,89.4576 205.1976,89.9472 205.1112C90.5808 204.996,91.3584 204.7656,91.3584 204.6792L91.3584 204.6792C91.3584 204.6792,91.3008 204.3912,91.2144 204.0744L90.3792 199.956L89.7168 196.8744L89.2848 194.7432L88.824 192.6696C88.5936 191.4312,88.5072 191.1144,88.5072 191.1144C88.5072 191.1144,88.5072 191.0856,88.4784 191.0856C88.3056 191.0856,87.384 191.5464,86.9808 191.8344C85.4832 192.8712,84.7056 194.5128,84.7056 196.1256C84.7056 197.652,85.45439999999999 199.1784,86.8944 200.0712C87.2112 200.2728,87.3264 200.4456,87.3264 200.6472C87.3264 200.676,87.3264 200.7624,87.3264 200.7912C87.2688 201.1368,87.0672 201.2808,86.7792 201.2808C86.664 201.2808,86.52 201.252,86.3472 201.1656C83.6976 200.0136,81.912 197.2776,81.912 194.2824L81.912 194.2824C81.912 190.8264,84.072 187.8312,87.384 186.6504L87.5568 186.5928L87.2688 185.1528L86.4624 181.2936M90.7824 190.9128C90.55199999999999 190.88400000000001,90.3216 190.88400000000001,90.1488 190.88400000000001C90.0912 190.88400000000001,90.0048 190.88400000000001,89.9472 190.88400000000001L89.8032 190.88400000000001L89.9184 191.4024L90.5232 194.2248L90.8976 196.068L91.3008 197.8824L92.1072 201.8856L92.424 203.412C92.5392 203.8152,92.5968 204.1608,92.62559999999999 204.1608C92.62559999999999 204.1608,92.62559999999999 204.1608,92.62559999999999 204.1608C92.6544 204.1608,93.144 203.8728,93.4608 203.6424C94.9296 202.6056,96.024 200.9928,96.4272 199.3224C96.5712 198.7752,96.6288 198.1992,96.6288 197.652C96.6288 194.3112,94.152 191.2872,90.7824 190.9128"></path></g><path stroke-width="0.3" fill="#000000" stroke="none" stroke-dasharray="none" d="M116.8352 186.5M121.8464 167.8376C121.904 167.8376,122.1056 167.8376,122.336 167.8376C122.71039999999999 167.8376,123.1712 167.8376,123.3152 167.8376C125.9648 168.1256,128.0384 169.5656,128.4128 171.4376C128.4704 171.6104,128.4704 171.812,128.4704 172.0136C128.4704 172.244,128.4704 172.4456,128.4128 172.5608C128.0384 173.9144,126.45439999999999 175.1528,124.4384 175.7576C124.2944 175.8152,124.2368 175.8152,124.2368 175.844C124.2368 175.844,124.2368 175.844,124.2368 175.844C124.2656 175.844,124.352 175.8728,124.4384 175.8728C127.1744 176.8808,128.6144 178.8104,128.6144 180.6824C128.6144 182.1224,127.80799999999999 183.5048,125.9936 184.4264C124.928 185.0024,123.7472 185.2616,122.5952 185.2616C120.6944 185.2616,118.8224 184.5416,117.4976 183.2456C117.008 182.7848,116.8352 182.2088,116.8352 181.6328C116.8352 180.452,117.6704 179.3288,119.0528 179.3288L119.0528 179.3288C120.4352 179.3288,121.2128 180.3944,121.2128 181.4888C121.2128 182.324,120.7808 183.1592,119.8016 183.5624C119.8016 183.5624,119.8016 183.5624,119.8016 183.5624C119.8016 183.5912,120.6368 183.764,121.0688 183.7928C121.1264 183.7928,121.184 183.7928,121.2416 183.7928C123.1424 183.7928,124.4672 182.4392,124.4672 180.5672C124.4672 180.3656,124.4672 180.1928,124.4384 179.9912C124.1216 177.8888,122.71039999999999 176.3336,121.0688 176.276C120.6656 176.2472,120.464 176.0744,120.464 175.8152C120.464 175.4696,120.6368 175.3256,121.0688 175.3256C122.48 175.2392,123.6896 174.2888,124.1504 172.8488C124.2656 172.5608,124.2944 172.2728,124.2944 172.0424C124.2944 170.8328,123.4016 169.7384,122.0768 169.4504C121.8752 169.364,121.616 169.364,121.328 169.364C120.9248 169.364,120.5504 169.3928,120.1472 169.4504L120.032 169.4792L120.1472 169.5656C120.896 169.9688,121.2128 170.68880000000001,121.2128 171.4088C121.2128 172.3592,120.5792 173.3096,119.4848 173.5688C119.3408 173.5976,119.168 173.5976,119.024 173.5976C117.7568 173.5976,116.8064 172.4456,116.8064 171.236C116.8064 170.7176,116.9792 170.1992,117.4112 169.7672C118.4192 168.6728,119.9456 168.0392,121.8464 167.8376M122.71039999999999 186.5288L122.7392 186.5288L122.6528 186.5288L122.71039999999999 186.5288M122.71039999999999 167.1176L122.7392 167.1176L122.6528 167.1176L122.71039999999999 167.1176"></path><path stroke-width="0.3" fill="#000000" stroke="none" stroke-dasharray="none" d="M116 206.5M121.0112 188.1544C121.04 188.1256,121.4432 188.1256,122.6816 188.1256C123.056 188.1256,123.4592 188.1256,123.9776 188.1256L126.8864 188.1256L126.9728 188.212C127.1168 188.29840000000002,127.2032 188.4424,127.2032 188.5576C127.2032 188.7304,127.1168 188.8456,127.0016 188.9608C126.9728 189.0472,126.7136 189.2776,126.5408 189.5368L125.0144 191.2936L123.056 193.5112L122.0192 194.692L120.464 196.4776L118.4192 198.8104C118.0736 199.2424,117.6992 199.588,117.6992 199.588C117.6992 199.588,117.6992 199.588,117.6992 199.588C117.6992 199.6456,117.9584 199.6456,120.3488 199.6456L122.9696 199.6456L122.9696 197.7736C122.9696 195.8728,122.9696 195.844,122.9984 195.8152C123.056 195.7288,123.3152 195.412,124.3232 194.2312L124.7264 193.7992L125.1296 193.3672L125.7344 192.5896L126.368 191.9272L126.6848 191.524C126.8 191.3512,126.9728 191.3224,127.1168 191.3224C127.28960000000001 191.3224,127.4336 191.4088,127.52 191.5528C127.5488 191.6392,127.5488 191.6968,127.5488 193.828C127.5488 194.3176,127.5488 194.9224,127.5488 195.6424L127.5488 199.6456L128.2688 199.6456C128.9312 199.6456,128.96 199.6456,129.0464 199.6744C129.2768 199.7608,129.392 199.9912,129.392 200.2504C129.392 200.3944,129.3632 200.5672,129.248 200.6824C129.0752 200.8264,129.0464 200.8264,128.2688 200.8264L127.5488 200.8264L127.5488 201.316C127.5776 202.7848,127.8656 203.3608,128.9888 203.9656C129.392 204.1672,129.4784 204.2248,129.4784 204.5128C129.4784 204.7144,129.42079999999999 204.8008,129.2768 204.916L129.1904 204.9448L125.2448 204.9448L121.328 204.9448L121.2416 204.916C121.0688 204.8008,121.04 204.7144,121.04 204.5128C121.04 204.2248,121.0688 204.1672,121.5008 203.9656C122.624 203.3608,122.912 202.7848,122.912 201.316L122.912 200.8264L119.6 200.8264C118.9952 200.88400000000001,118.5056 200.88400000000001,118.1024 200.88400000000001C116.288 200.88400000000001,116.2592 200.8264,116.2304 200.8264C116.0576 200.7688,116 200.596,116 200.3944C116 200.3944,116 200.3944,116 200.3944C116 200.1928,116 200.1928,116.576 199.5304C118.9952 196.5928,120.6944 192.3304,120.6944 188.93200000000002C120.6944 188.4136,120.7808 188.2408,121.0112 188.1544M122.7392 206.5288L122.768 206.5288L122.6816 206.5288L122.7392 206.5288M122.7392 187.1176L122.768 187.1176L122.6816 187.1176L122.7392 187.1176"></path><g class="vf-stavenote" id="vf-auto1696688"><g class="vf-note" pointer-events="bounding-box"><g class="vf-stem" pointer-events="bounding-box"><path stroke-width="1.5" fill="none" stroke="#000000" stroke-dasharray="none" class="vf-stem" id="vf-auto1696688-stem" d="M142.2284 186.5L142.2284 221.5"></path></g><g class="vf-notehead" pointer-events="bounding-box"><path stroke-width="0.3" fill="#000000" stroke="none" stroke-dasharray="none" d="M141.4784 186.5M148.83535999999998 181.27712C148.94768 181.27712,149.11615999999998 181.27712,149.14424 181.27712C149.14424 181.27712,149.17231999999998 181.27712,149.17231999999998 181.27712C149.17231999999998 181.27712,149.3408 181.27712,149.4812 181.27712C152.0084 181.41752,153.49663999999999 183.07424,153.49663999999999 185.15216C153.49663999999999 186.16304,153.15967999999998 187.31432,152.31727999999998 188.40944C150.71671999999998 190.5716,148.10528 191.75096,145.83079999999998 191.75096C144.06176 191.75096,142.54543999999999 191.04896,141.81536 189.61688C141.59072 189.05528,141.4784 188.52176,141.4784 187.93208C141.4784 184.87136,144.90416 181.47368,148.83535999999998 181.27712"></path></g></g><g class="vf-modifiers"></g></g><g class="vf-stavenote" id="vf-auto1696696"><g class="vf-note" pointer-events="bounding-box"><g class="vf-stem" pointer-events="bounding-box"><path stroke-width="1.5" fill="none" stroke="#000000" stroke-dasharray="none" class="vf-stem" id="vf-auto1696696-stem" d="M198.92050666666665 191.5L198.92050666666665 156.5"></path></g><g class="vf-notehead" pointer-events="bounding-box"><path stroke-width="0.3" fill="#000000" stroke="none" stroke-dasharray="none" d="M187.65226666666666 191.5M195.00922666666665 186.27712C195.12154666666666 186.27712,195.29002666666668 186.27712,195.31810666666667 186.27712C195.31810666666667 186.27712,195.34618666666665 186.27712,195.34618666666665 186.27712C195.34618666666665 186.27712,195.51466666666667 186.27712,195.65506666666667 186.27712C198.18226666666666 186.41752,199.67050666666665 188.07424,199.67050666666665 190.15216C199.67050666666665 191.16304,199.33354666666668 192.31432,198.49114666666665 193.40944C196.89058666666665 195.5716,194.27914666666666 196.75096,192.00466666666665 196.75096C190.23562666666666 196.75096,188.71930666666665 196.04896,187.98922666666667 194.61688C187.76458666666667 194.05528,187.65226666666666 193.52176,187.65226666666666 192.93208C187.65226666666666 189.87136,191.07802666666666 186.47368,195.00922666666665 186.27712"></path></g></g><g class="vf-modifiers"></g></g><path stroke-width="1" fill="none" stroke="#000000" stroke-dasharray="none" d="M278.7035168 166.5L397.0286336 166.5"></path><path stroke-width="1" fill="none" stroke="#000000" stroke-dasharray="none" d="M278.7035168 176.5L397.0286336 176.5"></path><path stroke-width="1" fill="none" stroke="#000000" stroke-dasharray="none" d="M278.7035168 186.5L397.0286336 186.5"></path><path stroke-width="1" fill="none" stroke="#000000" stroke-dasharray="none" d="M278.7035168 196.5L397.0286336 196.5"></path><path stroke-width="1" fill="none" stroke="#000000" stroke-dasharray="none" d="M278.7035168 206.5L397.0286336 206.5"></path><rect stroke-width="0.3" fill="#000000" stroke="#000000" stroke-dasharray="none" x="397.0286336" y="166" width="1" height="41"></rect><path stroke-width="1" fill="none" stroke="#000000" stroke-dasharray="none" d="M397.0286335999999 166.5L519.5537503999999 166.5"></path><path stroke-width="1" fill="none" stroke="#000000" stroke-dasharray="none" d="M397.0286335999999 176.5L519.5537503999999 176.5"></path><path stroke-width="1" fill="none" stroke="#000000" stroke-dasharray="none" d="M397.0286335999999 186.5L519.5537503999999 186.5"></path><path stroke-width="1" fill="none" stroke="#000000" stroke-dasharray="none" d="M397.0286335999999 196.5L519.5537503999999 196.5"></path><path stroke-width="1" fill="none" stroke="#000000" stroke-dasharray="none" d="M397.0286335999999 206.5L519.5537503999999 206.5"></path><rect stroke-width="0.3" fill="#000000" stroke="#000000" stroke-dasharray="none" x="519.5537503999999" y="166" width="1" height="41"></rect><g class="vf-stavenote" id="vf-auto1696741"><g class="vf-note" pointer-events="bounding-box"><g class="vf-stem" pointer-events="bounding-box"><path stroke-width="1.5" fill="none" stroke="#000000" stroke-dasharray="none" class="vf-stem" id="vf-auto1696741-stem" d="M460.9635402666666 201.5L460.9635402666666 166.5"></path></g><g class="vf-notehead" pointer-events="bounding-box"><path stroke-width="0.3" fill="#000000" stroke="none" stroke-dasharray="none" d="M449.6953002666666 201.5M457.0522602666666 196.27712C457.16458026666663 196.27712,457.3330602666666 196.27712,457.3611402666666 196.27712C457.3611402666666 196.27712,457.3892202666666 196.27712,457.3892202666666 196.27712C457.3892202666666 196.27712,457.5577002666666 196.27712,457.6981002666666 196.27712C460.22530026666664 196.41752,461.7135402666666 198.07424,461.7135402666666 200.15216C461.7135402666666 201.16304,461.3765802666666 202.31432,460.5341802666666 203.40944C458.9336202666666 205.5716,456.3221802666666 206.75096,454.0477002666666 206.75096C452.27866026666663 206.75096,450.7623402666666 206.04896,450.0322602666666 204.61688C449.8076202666666 204.05528,449.6953002666666 203.52176,449.6953002666666 202.93208C449.6953002666666 199.87136,453.12106026666663 196.47368,457.0522602666666 196.27712"></path></g></g><g class="vf-modifiers"></g></g><path stroke-width="1" fill="none" stroke="#000000" stroke-dasharray="none" d="M519.5537503999999 166.5L660.4788671999999 166.5"></path><path stroke-width="1" fill="none" stroke="#000000" stroke-dasharray="none" d="M519.5537503999999 176.5L660.4788671999999 176.5"></path><path stroke-width="1" fill="none" stroke="#000000" stroke-dasharray="none" d="M519.5537503999999 186.5L660.4788671999999 186.5"></path><path stroke-width="1" fill="none" stroke="#000000" stroke-dasharray="none" d="M519.5537503999999 196.5L660.4788671999999 196.5"></path><path stroke-width="1" fill="none" stroke="#000000" stroke-dasharray="none" d="M519.5537503999999 206.5L660.4788671999999 206.5"></path><rect stroke-width="0.3" fill="#000000" stroke="#000000" stroke-dasharray="none" x="655.4788671999999" y="166" width="1" height="41"></rect><rect stroke-width="0.3" fill="#000000" stroke="#000000" stroke-dasharray="none" x="658.4788671999999" y="166" width="3" height="41"></rect><path stroke-width="0.3" fill="#000000" stroke="none" stroke-dasharray="none" d="M654.4788671999999 182 A2 2 0 0 0 650.4788671999999 182M650.4788671999999 182 A2 2 0 0 0 654.4788671999999 182"></path><path stroke-width="0.3" fill="#000000" stroke="none" stroke-dasharray="none" d="M654.4788671999999 192 A2 2 0 0 0 650.4788671999999 192M650.4788671999999 192 A2 2 0 0 0 654.4788671999999 192"></path><g class="vf-stavenote" id="vf-auto1696770"><g class="vf-note" pointer-events="bounding-box"><g class="vf-stem" pointer-events="bounding-box"><path stroke-width="1.5" fill="none" stroke="#000000" stroke-dasharray="none" class="vf-stem" id="vf-auto1696770-stem" d="M547.8219903999999 201.5L547.8219903999999 166.5"></path></g><g class="vf-notehead" pointer-events="bounding-box"><path stroke-width="0.3" fill="#000000" stroke="none" stroke-dasharray="none" d="M536.5537503999999 201.5M543.9107103999999 196.27712C544.0230303999999 196.27712,544.1915103999999 196.27712,544.2195903999999 196.27712C544.2195903999999 196.27712,544.2476704 196.27712,544.2476704 196.27712C544.2476704 196.27712,544.4161503999999 196.27712,544.5565503999999 196.27712C547.0837503999999 196.41752,548.5719903999999 198.07424,548.5719903999999 200.15216C548.5719903999999 201.16304,548.2350303999999 202.31432,547.3926303999999 203.40944C545.7920704 205.5716,543.1806303999999 206.75096,540.9061503999999 206.75096C539.1371103999999 206.75096,537.6207903999999 206.04896,536.8907103999999 204.61688C536.6660703999999 204.05528,536.5537503999999 203.52176,536.5537503999999 202.93208C536.5537503999999 199.87136,539.9795103999999 196.47368,543.9107103999999 196.27712"></path></g></g><g class="vf-modifiers"></g></g><g class="vf-stavenote" id="vf-auto1696778"><g class="vf-note" pointer-events="bounding-box"><g class="vf-stem" pointer-events="bounding-box"><path stroke-width="1.5" fill="none" stroke="#000000" stroke-dasharray="none" class="vf-stem" id="vf-auto1696778-stem" d="M578.9704170666665 186.5L578.9704170666665 221.5"></path></g><g class="vf-notehead" pointer-events="bounding-box"><path stroke-width="0.3" fill="#000000" stroke="none" stroke-dasharray="none" d="M578.2204170666665 186.5M585.5773770666665 181.27712C585.6896970666666 181.27712,585.8581770666665 181.27712,585.8862570666665 181.27712C585.8862570666665 181.27712,585.9143370666666 181.27712,585.9143370666666 181.27712C585.9143370666666 181.27712,586.0828170666665 181.27712,586.2232170666665 181.27712C588.7504170666665 181.41752,590.2386570666665 183.07424,590.2386570666665 185.15216C590.2386570666665 186.16304,589.9016970666665 187.31432,589.0592970666665 188.40944C587.4587370666666 190.5716,584.8472970666666 191.75096,582.5728170666665 191.75096C580.8037770666665 191.75096,579.2874570666665 191.04896,578.5573770666665 189.61688C578.3327370666665 189.05528,578.2204170666665 188.52176,578.2204170666665 187.93208C578.2204170666665 184.87136,581.6461770666665 181.47368,585.5773770666665 181.27712"></path></g></g><g class="vf-modifiers"></g></g><g class="vf-stavenote" id="vf-auto1696786"><g class="vf-note" pointer-events="bounding-box"><g class="vf-stem" pointer-events="bounding-box"><path stroke-width="1.5" fill="none" stroke="#000000" stroke-dasharray="none" class="vf-stem" id="vf-auto1696786-stem" d="M620.6370837333333 176.5L620.6370837333333 211.5"></path></g><g class="vf-notehead" pointer-events="bounding-box"><path stroke-width="0.3" fill="#000000" stroke="none" stroke-dasharray="none" d="M619.8870837333333 176.5M627.2440437333332 171.27712C627.3563637333333 171.27712,627.5248437333332 171.27712,627.5529237333333 171.27712C627.5529237333333 171.27712,627.5810037333333 171.27712,627.5810037333333 171.27712C627.5810037333333 171.27712,627.7494837333332 171.27712,627.8898837333332 171.27712C630.4170837333332 171.41752,631.9053237333333 173.07424,631.9053237333333 175.15216C631.9053237333333 176.16304,631.5683637333333 177.31432,630.7259637333333 178.40944C629.1254037333333 180.5716,626.5139637333333 181.75096,624.2394837333333 181.75096C622.4704437333332 181.75096,620.9541237333333 181.04896,620.2240437333332 179.61688C619.9994037333332 179.05528,619.8870837333333 178.52176,619.8870837333333 177.93208C619.8870837333333 174.87136,623.3128437333332 171.47368,627.2440437333332 171.27712"></path></g></g><g class="vf-modifiers"></g></g><g class="vf-text"><text stroke-width="0.3" fill="#000000" stroke="none" stroke-dasharray="none" font-family="Times New Roman" font-size="23px" font-weight="bold" font-style="italic" x="135.98752" y="243.3">pp</text></g><path stroke-width="1" fill="none" stroke="#000000" stroke-dasharray="none" d="M70 258.09999999999997L278.7035168 258.09999999999997"></path><path stroke-width="1" fill="none" stroke="#000000" stroke-dasharray="none" d="M70 268.09999999999997L278.7035168 268.09999999999997"></path><path stroke-width="1" fill="none" stroke="#000000" stroke-dasharray="none" d="M70 278.09999999999997L278.7035168 278.09999999999997"></path><path stroke-width="1" fill="none" stroke="#000000" stroke-dasharray="none" d="M70 288.09999999999997L278.7035168 288.09999999999997"></path><path stroke-width="1" fill="none" stroke="#000000" stroke-dasharray="none" d="M70 298.09999999999997L278.7035168 298.09999999999997"></path><rect stroke-width="0.3" fill="#000000" stroke="#000000" stroke-dasharray="none" x="278.7035168" y="257.59999999999997" width="1" height="41"></rect><g class="vf-clef"><path stroke-width="0.3" fill="#000000" stroke="none" stroke-dasharray="none" d="M75 268.09999999999997M83.8416 258.04879999999997C84.072 257.9912,84.3024 257.9912,84.5616 257.9912C85.5696 257.9912,86.7504 258.10639999999995,87.7584 258.308C92.4816 259.2872,95.736 262.484,96.3408 266.7464C96.3984 267.20719999999994,96.4272 267.63919999999996,96.4272 268.09999999999997C96.4272 270.69199999999995,95.5344 274.03279999999995,94.008 276.8264C90.3792 283.39279999999997,83.7552 288.116,75.8064 289.84399999999994C75.6624 289.84399999999994,75.5472 289.8728,75.4032 289.8728C75.1152 289.8728,74.9712 289.7,74.9712 289.44079999999997C74.9712 289.15279999999996,75.0288 289.0664,75.6048 288.83599999999996C84.7056 285.4088,90.7824 278.00719999999995,91.3296 269.71279999999996C91.3584 269.28079999999994,91.3584 268.79119999999995,91.3584 268.41679999999997C91.3584 264.3848,90.12 261.3896,87.7296 259.89199999999994C86.6928 259.22959999999995,85.5696 258.91279999999995,84.36 258.91279999999995C81.6816 258.91279999999995,78.9456 260.43919999999997,77.6784 263.00239999999997C77.6208 263.20399999999995,77.4192 263.63599999999997,77.4192 263.66479999999996C77.4192 263.66479999999996,77.4192 263.66479999999996,77.4192 263.66479999999996C77.4192 263.66479999999996,77.448 263.63599999999997,77.5344 263.6072C78.168 263.20399999999995,78.8592 263.00239999999997,79.5792 263.00239999999997C80.5872 263.00239999999997,81.6528 263.4344,82.4016 264.2408C83.0928 264.98959999999994,83.4672 265.9976,83.4672 266.9192C83.4672 268.79119999999995,82.0848 270.69199999999995,79.9248 270.8936C79.7808 270.8936,79.6368 270.9224,79.4928 270.9224C77.1024 270.9224,75.1728 268.73359999999997,75.1728 265.9688C75.1728 265.91119999999995,75.1728 265.8248,75.1728 265.796C75.288 261.6776,79.0608 258.308,83.8416 258.04879999999997M99.1632 261.90799999999996C99.2208 261.87919999999997,99.2496 261.87919999999997,99.336 261.87919999999997C99.5376 261.87919999999997,99.768 261.90799999999996,99.8256 261.9656C100.54560000000001 262.1672,100.8912 262.8008,100.8912 263.4056C100.8912 263.924,100.632 264.44239999999996,100.11359999999999 264.7304C99.912 264.8744,99.6528 264.90319999999997,99.39359999999999 264.90319999999997C98.9904 264.90319999999997,98.5584 264.7304,98.2704 264.356C98.03999999999999 264.068,97.9248 263.7512,97.9248 263.4344C97.9248 262.71439999999996,98.3856 261.9944,99.1632 261.90799999999996M99.1632 271.32559999999995C99.2208 271.32559999999995,99.2496 271.32559999999995,99.336 271.32559999999995C99.5376 271.32559999999995,99.768 271.35439999999994,99.8256 271.412C100.54560000000001 271.61359999999996,100.8912 272.24719999999996,100.8912 272.852C100.8912 273.37039999999996,100.632 273.88879999999995,100.11359999999999 274.14799999999997C99.912 274.292,99.6528 274.34959999999995,99.39359999999999 274.34959999999995C98.9904 274.34959999999995,98.5584 274.14799999999997,98.2704 273.8024C98.03999999999999 273.51439999999997,97.9248 273.19759999999997,97.9248 272.852C97.9248 272.13199999999995,98.3856 271.44079999999997,99.1632 271.32559999999995"></path></g><path stroke-width="0.3" fill="#000000" stroke="none" stroke-dasharray="none" d="M116.8352 278.09999999999997M121.8464 259.4376C121.904 259.4376,122.1056 259.4376,122.336 259.4376C122.71039999999999 259.4376,123.1712 259.4376,123.3152 259.4376C125.9648 259.7256,128.0384 261.1656,128.4128 263.03759999999994C128.4704 263.2104,128.4704 263.412,128.4704 263.61359999999996C128.4704 263.84399999999994,128.4704 264.0456,128.4128 264.1608C128.0384 265.51439999999997,126.45439999999999 266.7528,124.4384 267.3576C124.2944 267.41519999999997,124.2368 267.41519999999997,124.2368 267.44399999999996C124.2368 267.44399999999996,124.2368 267.44399999999996,124.2368 267.44399999999996C124.2656 267.44399999999996,124.352 267.47279999999995,124.4384 267.47279999999995C127.1744 268.4808,128.6144 270.4104,128.6144 272.28239999999994C128.6144 273.7224,127.80799999999999 275.10479999999995,125.9936 276.02639999999997C124.928 276.6024,123.7472 276.86159999999995,122.5952 276.86159999999995C120.6944 276.86159999999995,118.8224 276.1416,117.4976 274.8456C117.008 274.3848,116.8352 273.80879999999996,116.8352 273.23279999999994C116.8352 272.05199999999996,117.6704 270.92879999999997,119.0528 270.92879999999997L119.0528 270.92879999999997C120.4352 270.92879999999997,121.2128 271.9944,121.2128 273.0888C121.2128 273.924,120.7808 274.75919999999996,119.8016 275.1624C119.8016 275.1624,119.8016 275.1624,119.8016 275.1624C119.8016 275.1912,120.6368 275.364,121.0688 275.39279999999997C121.1264 275.39279999999997,121.184 275.39279999999997,121.2416 275.39279999999997C123.1424 275.39279999999997,124.4672 274.0392,124.4672 272.1672C124.4672 271.9656,124.4672 271.79279999999994,124.4384 271.59119999999996C124.1216 269.48879999999997,122.71039999999999 267.93359999999996,121.0688 267.876C120.6656 267.8472,120.464 267.6744,120.464 267.41519999999997C120.464 267.0696,120.6368 266.9256,121.0688 266.9256C122.48 266.83919999999995,123.6896 265.88879999999995,124.1504 264.44879999999995C124.2656 264.1608,124.2944 263.8728,124.2944 263.64239999999995C124.2944 262.4328,123.4016 261.3384,122.0768 261.05039999999997C121.8752 260.96399999999994,121.616 260.96399999999994,121.328 260.96399999999994C120.9248 260.96399999999994,120.5504 260.9928,120.1472 261.05039999999997L120.032 261.07919999999996L120.1472 261.1656C120.896 261.56879999999995,121.2128 262.2888,121.2128 263.00879999999995C121.2128 263.95919999999995,120.5792 264.90959999999995,119.4848 265.1688C119.3408 265.19759999999997,119.168 265.19759999999997,119.024 265.19759999999997C117.7568 265.19759999999997,116.8064 264.0456,116.8064 262.83599999999996C116.8064 262.31759999999997,116.9792 261.7992,117.4112 261.36719999999997C118.4192 260.27279999999996,119.9456 259.63919999999996,121.8464 259.4376M122.71039999999999 278.12879999999996L122.7392 278.12879999999996L122.6528 278.12879999999996L122.71039999999999 278.12879999999996M122.71039999999999 258.71759999999995L122.7392 258.71759999999995L122.6528 258.71759999999995L122.71039999999999 258.71759999999995"></path><path stroke-width="0.3" fill="#000000" stroke="none" stroke-dasharray="none" d="M116 298.09999999999997M121.0112 279.7544C121.04 279.7256,121.4432 279.7256,122.6816 279.7256C123.056 279.7256,123.4592 279.7256,123.9776 279.7256L126.8864 279.7256L126.9728 279.81199999999995C127.1168 279.8984,127.2032 280.0424,127.2032 280.15759999999995C127.2032 280.33039999999994,127.1168 280.44559999999996,127.0016 280.5608C126.9728 280.64719999999994,126.7136 280.8776,126.5408 281.1368L125.0144 282.8936L123.056 285.11119999999994L122.0192 286.292L120.464 288.07759999999996L118.4192 290.4104C118.0736 290.84239999999994,117.6992 291.188,117.6992 291.188C117.6992 291.188,117.6992 291.188,117.6992 291.188C117.6992 291.24559999999997,117.9584 291.24559999999997,120.3488 291.24559999999997L122.9696 291.24559999999997L122.9696 289.37359999999995C122.9696 287.47279999999995,122.9696 287.44399999999996,122.9984 287.41519999999997C123.056 287.32879999999994,123.3152 287.01199999999994,124.3232 285.83119999999997L124.7264 285.39919999999995L125.1296 284.9672L125.7344 284.1896L126.368 283.5272L126.6848 283.12399999999997C126.8 282.9512,126.9728 282.9224,127.1168 282.9224C127.28960000000001 282.9224,127.4336 283.00879999999995,127.52 283.15279999999996C127.5488 283.2392,127.5488 283.29679999999996,127.5488 285.42799999999994C127.5488 285.9176,127.5488 286.52239999999995,127.5488 287.2424L127.5488 291.24559999999997L128.2688 291.24559999999997C128.9312 291.24559999999997,128.96 291.24559999999997,129.0464 291.27439999999996C129.2768 291.3608,129.392 291.59119999999996,129.392 291.8504C129.392 291.9944,129.3632 292.1672,129.248 292.28239999999994C129.0752 292.42639999999994,129.0464 292.42639999999994,128.2688 292.42639999999994L127.5488 292.42639999999994L127.5488 292.91599999999994C127.5776 294.3848,127.8656 294.96079999999995,128.9888 295.56559999999996C129.392 295.76719999999995,129.4784 295.8248,129.4784 296.1128C129.4784 296.3144,129.42079999999999 296.40079999999995,129.2768 296.51599999999996L129.1904 296.54479999999995L125.2448 296.54479999999995L121.328 296.54479999999995L121.2416 296.51599999999996C121.0688 296.40079999999995,121.04 296.3144,121.04 296.1128C121.04 295.8248,121.0688 295.76719999999995,121.5008 295.56559999999996C122.624 294.96079999999995,122.912 294.3848,122.912 292.91599999999994L122.912 292.42639999999994L119.6 292.42639999999994C118.9952 292.484,118.5056 292.484,118.1024 292.484C116.288 292.484,116.2592 292.42639999999994,116.2304 292.42639999999994C116.0576 292.36879999999996,116 292.19599999999997,116 291.9944C116 291.9944,116 291.9944,116 291.9944C116 291.79279999999994,116 291.79279999999994,116.576 291.13039999999995C118.9952 288.1928,120.6944 283.93039999999996,120.6944 280.532C120.6944 280.01359999999994,120.7808 279.84079999999994,121.0112 279.7544M122.7392 298.12879999999996L122.768 298.12879999999996L122.6816 298.12879999999996L122.7392 298.12879999999996M122.7392 278.71759999999995L122.768 278.71759999999995L122.6816 278.71759999999995L122.7392 278.71759999999995"></path><g class="vf-stavenote" id="vf-auto1696706"><g class="vf-note" pointer-events="bounding-box"><g class="vf-stem" pointer-events="bounding-box"><path stroke-width="1.5" fill="none" stroke="#000000" stroke-dasharray="none" class="vf-stem" id="vf-auto1696706-stem" d="M245.09437333333332 283.09999999999997L245.09437333333332 248.09999999999997"></path></g><g class="vf-notehead" pointer-events="bounding-box"><path stroke-width="0.3" fill="#000000" stroke="none" stroke-dasharray="none" d="M233.82613333333333 283.09999999999997M241.18309333333332 277.87712C241.29541333333333 277.87712,241.46389333333332 277.87712,241.49197333333333 277.87712C241.49197333333333 277.87712,241.52005333333332 277.87712,241.52005333333332 277.87712C241.52005333333332 277.87712,241.68853333333334 277.87712,241.82893333333334 277.87712C244.35613333333333 278.01752,245.84437333333332 279.67423999999994,245.84437333333332 281.75215999999995C245.84437333333332 282.76304,245.50741333333332 283.91432,244.66501333333332 285.00944C243.06445333333332 287.17159999999996,240.45301333333333 288.35096,238.17853333333332 288.35096C236.40949333333333 288.35096,234.89317333333332 287.64896,234.16309333333334 286.21687999999995C233.93845333333334 285.65527999999995,233.82613333333333 285.12175999999994,233.82613333333333 284.53207999999995C233.82613333333333 281.47135999999995,237.25189333333333 278.07367999999997,241.18309333333332 277.87712"></path></g></g><g class="vf-modifiers"></g></g><rect stroke-width="0.3" fill="#000000" stroke="#000000" stroke-dasharray="none" x="278.7035168" y="166.5" width="1" height="132.59999999999997"></rect><rect stroke-width="0.3" fill="#000000" stroke="#000000" stroke-dasharray="none" x="70" y="166.5" width="1" height="132.59999999999997"></rect><path stroke-width="1" fill="none" stroke="#000000" stroke-dasharray="none" d="M278.7035168 258.09999999999997L397.0286336 258.09999999999997"></path><path stroke-width="1" fill="none" stroke="#000000" stroke-dasharray="none" d="M278.7035168 268.09999999999997L397.0286336 268.09999999999997"></path><path stroke-width="1" fill="none" stroke="#000000" stroke-dasharray="none" d="M278.7035168 278.09999999999997L397.0286336 278.09999999999997"></path><path stroke-width="1" fill="none" stroke="#000000" stroke-dasharray="none" d="M278.7035168 288.09999999999997L397.0286336 288.09999999999997"></path><path stroke-width="1" fill="none" stroke="#000000" stroke-dasharray="none" d="M278.7035168 298.09999999999997L397.0286336 298.09999999999997"></path><rect stroke-width="0.3" fill="#000000" stroke="#000000" stroke-dasharray="none" x="397.0286336" y="257.59999999999997" width="1" height="41"></rect><g class="vf-stavenote" id="vf-auto1696716"><g class="vf-note" pointer-events="bounding-box"><g class="vf-stem" pointer-events="bounding-box"><path stroke-width="1.5" fill="none" stroke="#000000" stroke-dasharray="none" class="vf-stem" id="vf-auto1696716-stem" d="M306.9717568 278.09999999999997L306.9717568 243.09999999999997"></path></g><g class="vf-notehead" pointer-events="bounding-box"><path stroke-width="0.3" fill="#000000" stroke="none" stroke-dasharray="none" d="M295.7035168 278.09999999999997M303.0604768 272.87712C303.1727968 272.87712,303.3412768 272.87712,303.3693568 272.87712C303.3693568 272.87712,303.3974368 272.87712,303.3974368 272.87712C303.3974368 272.87712,303.56591679999997 272.87712,303.70631679999997 272.87712C306.23351679999996 273.01752,307.7217568 274.67423999999994,307.7217568 276.75215999999995C307.7217568 277.76304,307.3847968 278.91432,306.5423968 280.00944C304.9418368 282.17159999999996,302.3303968 283.35096,300.0559168 283.35096C298.2868768 283.35096,296.7705568 282.64896,296.04047679999996 281.21687999999995C295.8158368 280.65527999999995,295.7035168 280.12175999999994,295.7035168 279.53207999999995C295.7035168 276.47135999999995,299.1292768 273.07367999999997,303.0604768 272.87712"></path></g></g><g class="vf-modifiers"></g></g><g class="vf-stavenote" id="vf-auto1696724"><g class="vf-note" pointer-events="bounding-box"><g class="vf-stem" pointer-events="bounding-box"><path stroke-width="1.5" fill="none" stroke="#000000" stroke-dasharray="none" class="vf-stem" id="vf-auto1696724-stem" d="M330.7868501333333 253.09999999999997L330.7868501333333 288.09999999999997"></path></g><g class="vf-notehead" pointer-events="bounding-box"><path stroke-width="0.3" fill="#000000" stroke="none" stroke-dasharray="none" d="M330.0368501333333 253.09999999999997M337.3938101333333 247.87711999999996C337.50613013333333 247.87711999999996,337.6746101333333 247.87711999999996,337.7026901333333 247.87711999999996C337.7026901333333 247.87711999999996,337.7307701333333 247.87711999999996,337.7307701333333 247.87711999999996C337.7307701333333 247.87711999999996,337.8992501333333 247.87711999999996,338.0396501333333 247.87711999999996C340.56685013333333 248.01751999999996,342.0550901333333 249.67423999999997,342.0550901333333 251.75215999999998C342.0550901333333 252.76303999999996,341.7181301333333 253.91431999999998,340.8757301333333 255.00943999999996C339.2751701333333 257.17159999999996,336.6637301333333 258.35096,334.3892501333333 258.35096C332.62021013333333 258.35096,331.1038901333333 257.64896,330.3738101333333 256.21687999999995C330.1491701333333 255.65527999999998,330.0368501333333 255.12175999999997,330.0368501333333 254.53207999999998C330.0368501333333 251.47135999999998,333.4626101333333 248.07367999999997,337.3938101333333 247.87711999999996"></path></g></g><g class="vf-modifiers"></g></g><g class="vf-stavenote" id="vf-auto1696732"><g class="vf-note" pointer-events="bounding-box"><g class="vf-stem" pointer-events="bounding-box"><path stroke-width="1.5" fill="none" stroke="#000000" stroke-dasharray="none" class="vf-stem" id="vf-auto1696732-stem" d="M365.1201834666666 263.09999999999997L365.1201834666666 298.09999999999997"></path></g><g class="vf-notehead" pointer-events="bounding-box"><path stroke-width="0.3" fill="#000000" stroke="none" stroke-dasharray="none" d="M364.3701834666666 263.09999999999997M371.72714346666663 257.87712C371.83946346666664 257.87712,372.00794346666663 257.87712,372.0360234666666 257.87712C372.0360234666666 257.87712,372.0641034666666 257.87712,372.0641034666666 257.87712C372.0641034666666 257.87712,372.2325834666666 257.87712,372.3729834666666 257.87712C374.9001834666666 258.01752,376.3884234666666 259.67423999999994,376.3884234666666 261.75215999999995C376.3884234666666 262.76304,376.05146346666663 263.91432,375.20906346666663 265.00944C373.6085034666666 267.17159999999996,370.99706346666665 268.35096,368.7225834666666 268.35096C366.95354346666664 268.35096,365.43722346666664 267.64896,364.7071434666666 266.21687999999995C364.4825034666666 265.65527999999995,364.3701834666666 265.12175999999994,364.3701834666666 264.53207999999995C364.3701834666666 261.47135999999995,367.79594346666664 258.07367999999997,371.72714346666663 257.87712"></path></g></g><g class="vf-modifiers"></g></g><rect stroke-width="0.3" fill="#000000" stroke="#000000" stroke-dasharray="none" x="397.0286336" y="166.5" width="1" height="132.59999999999997"></rect><path stroke-width="1" fill="none" stroke="#000000" stroke-dasharray="none" d="M397.0286335999999 258.09999999999997L519.5537503999999 258.09999999999997"></path><path stroke-width="1" fill="none" stroke="#000000" stroke-dasharray="none" d="M397.0286335999999 268.09999999999997L519.5537503999999 268.09999999999997"></path><path stroke-width="1" fill="none" stroke="#000000" stroke-dasharray="none" d="M397.0286335999999 278.09999999999997L519.5537503999999 278.09999999999997"></path><path stroke-width="1" fill="none" stroke="#000000" stroke-dasharray="none" d="M397.0286335999999 288.09999999999997L519.5537503999999 288.09999999999997"></path><path stroke-width="1" fill="none" stroke="#000000" stroke-dasharray="none" d="M397.0286335999999 298.09999999999997L519.5537503999999 298.09999999999997"></path><rect stroke-width="0.3" fill="#000000" stroke="#000000" stroke-dasharray="none" x="519.5537503999999" y="257.59999999999997" width="1" height="41"></rect><g class="vf-stavenote" id="vf-auto1696752"><g class="vf-note" pointer-events="bounding-box"><g class="vf-stem" pointer-events="bounding-box"><path stroke-width="1.5" fill="none" stroke="#000000" stroke-dasharray="none" class="vf-stem" id="vf-auto1696752-stem" d="M414.7786335999999 268.09999999999997L414.7786335999999 303.09999999999997"></path></g><g class="vf-notehead" pointer-events="bounding-box"><path stroke-width="0.3" fill="#000000" stroke="none" stroke-dasharray="none" d="M414.0286335999999 268.09999999999997M421.38559359999994 262.87712C421.49791359999995 262.87712,421.66639359999994 262.87712,421.6944735999999 262.87712C421.6944735999999 262.87712,421.7225535999999 262.87712,421.7225535999999 262.87712C421.7225535999999 262.87712,421.8910335999999 262.87712,422.0314335999999 262.87712C424.5586335999999 263.01752,426.0468735999999 264.67423999999994,426.0468735999999 266.75215999999995C426.0468735999999 267.76304,425.70991359999994 268.91432,424.86751359999994 270.00944C423.2669535999999 272.17159999999996,420.65551359999995 273.35096,418.3810335999999 273.35096C416.61199359999995 273.35096,415.09567359999994 272.64896,414.3655935999999 271.21687999999995C414.14095359999993 270.65527999999995,414.0286335999999 270.12175999999994,414.0286335999999 269.53207999999995C414.0286335999999 266.47135999999995,417.45439359999995 263.07367999999997,421.38559359999994 262.87712"></path></g></g><g class="vf-modifiers"></g></g><path stroke-width="1" fill="none" stroke="#000000" stroke-dasharray="none" d="M482.3619669333333 248.09999999999997L500.3802069333333 248.09999999999997"></path><g class="vf-stavenote" id="vf-auto1696760"><g class="vf-note" pointer-events="bounding-box"><g class="vf-stem" pointer-events="bounding-box"><path stroke-width="1.5" fill="none" stroke="#000000" stroke-dasharray="none" class="vf-stem" id="vf-auto1696760-stem" d="M486.1119669333333 248.09999999999997L486.1119669333333 283.09999999999997"></path></g><g class="vf-notehead" pointer-events="bounding-box"><path stroke-width="0.3" fill="#000000" stroke="none" stroke-dasharray="none" d="M485.3619669333333 248.09999999999997M492.7189269333333 242.87711999999996C492.8312469333333 242.87711999999996,492.9997269333333 242.87711999999996,493.0278069333333 242.87711999999996C493.0278069333333 242.87711999999996,493.0558869333333 242.87711999999996,493.0558869333333 242.87711999999996C493.0558869333333 242.87711999999996,493.2243669333333 242.87711999999996,493.36476693333327 242.87711999999996C495.89196693333326 243.01751999999996,497.3802069333333 244.67423999999997,497.3802069333333 246.75215999999998C497.3802069333333 247.76303999999996,497.0432469333333 248.91431999999998,496.2008469333333 250.00943999999996C494.6002869333333 252.17159999999996,491.9888469333333 253.35095999999996,489.7143669333333 253.35095999999996C487.9453269333333 253.35095999999996,486.4290069333333 252.64895999999996,485.69892693333327 251.21687999999997C485.4742869333333 250.65527999999998,485.3619669333333 250.12175999999997,485.3619669333333 249.53207999999998C485.3619669333333 246.47135999999998,488.7877269333333 243.07367999999997,492.7189269333333 242.87711999999996"></path></g></g><g class="vf-modifiers"></g></g><rect stroke-width="0.3" fill="#000000" stroke="#000000" stroke-dasharray="none" x="519.5537503999999" y="166.5" width="1" height="132.59999999999997"></rect><path stroke-width="1" fill="none" stroke="#000000" stroke-dasharray="none" d="M519.5537503999999 258.09999999999997L660.4788671999999 258.09999999999997"></path><path stroke-width="1" fill="none" stroke="#000000" stroke-dasharray="none" d="M519.5537503999999 268.09999999999997L660.4788671999999 268.09999999999997"></path><path stroke-width="1" fill="none" stroke="#000000" stroke-dasharray="none" d="M519.5537503999999 278.09999999999997L660.4788671999999 278.09999999999997"></path><path stroke-width="1" fill="none" stroke="#000000" stroke-dasharray="none" d="M519.5537503999999 288.09999999999997L660.4788671999999 288.09999999999997"></path><path stroke-width="1" fill="none" stroke="#000000" stroke-dasharray="none" d="M519.5537503999999 298.09999999999997L660.4788671999999 298.09999999999997"></path><rect stroke-width="0.3" fill="#000000" stroke="#000000" stroke-dasharray="none" x="655.4788671999999" y="257.59999999999997" width="1" height="41"></rect><rect stroke-width="0.3" fill="#000000" stroke="#000000" stroke-dasharray="none" x="658.4788671999999" y="257.59999999999997" width="3" height="41"></rect><path stroke-width="0.3" fill="#000000" stroke="none" stroke-dasharray="none" d="M654.4788671999999 273.59999999999997 A2 2 0 0 0 650.4788671999999 273.59999999999997M650.4788671999999 273.59999999999997 A2 2 0 0 0 654.4788671999999 273.59999999999997"></path><path stroke-width="0.3" fill="#000000" stroke="none" stroke-dasharray="none" d="M654.4788671999999 283.59999999999997 A2 2 0 0 0 650.4788671999999 283.59999999999997M650.4788671999999 283.59999999999997 A2 2 0 0 0 654.4788671999999 283.59999999999997"></path><rect stroke-width="0.3" fill="#000000" stroke="#000000" stroke-dasharray="none" x="655.4788671999999" y="166.5" width="1" height="132.59999999999997"></rect><rect stroke-width="0.3" fill="#000000" stroke="#000000" stroke-dasharray="none" x="658.4788671999999" y="166.5" width="3" height="132.59999999999997"></rect><path stroke-width="0.3" fill="#000000" stroke="none" stroke-dasharray="none" d="M68 166.5C45.2 193.01999999999998,81.2 214.899,56 232.79999999999998C81.2 250.70099999999996,45.2 272.58,68 299.09999999999997C44 272.58,72.8 250.70099999999996,56 232.79999999999998C72.8 214.899,44 193.01999999999998,68 166.5"></path><path stroke-width="1" fill="none" stroke="#000000" stroke-dasharray="none" d="M68 166.5C45.2 193.01999999999998,81.2 214.899,56 232.79999999999998C81.2 250.70099999999996,45.2 272.58,68 299.09999999999997C44 272.58,72.8 250.70099999999996,56 232.79999999999998C72.8 214.899,44 193.01999999999998,68 166.5"></path><g class="vf-text"><text stroke-width="0.3" fill="#000000" stroke="none" stroke-dasharray="none" font-family="Times New Roman" font-size="15px" font-weight="normal" font-style="normal" x="393.5286335999999" y="163.5">3</text></g></svg>