<svg xmlns="http://www.w3.org/2000/svg"  width="1470" height="392.59999999999997" viewBox="0 0 1470 392.59999999999997"><path stroke-width="1" fill="none" stroke="#000000" stroke-dasharray="none" d="M70 166.5L274.50351679999994 166.5"></path><path stroke-width="1" fill="none" stroke="#000000" stroke-dasharray="none" d="M70 176.5L274.50351679999994 176.5"></path><path stroke-width="1" fill="none" stroke="#000000" stroke-dasharray="none" d="M70 186.5L274.50351679999994 186.5"></path><path stroke-width="1" fill="none" stroke="#000000" stroke-dasharray="none" d="M70 196.5L274.50351679999994 196.5"></path><path stroke-width="1" fill="none" stroke="#000000" stroke-dasharray="none" d="M70 206.5L274.50351679999994 206.5"></path><rect stroke-width="0.3" fill="#000000" stroke="#000000" stroke-dasharray="none" x="274.50351679999994" y="166" width="1" height="41"></rect><g class="vf-clef"><path stroke-width="0.3" fill="#000000" stroke="none" stroke-dasharray="none" d="M75 196.5M89.0544 153.3288C89.112 153.3,89.1696 153.3,89.256 153.3C89.6016 153.3,90.0048 153.588,90.5808 154.308C92.9136 156.9864,94.5552 161.652,94.5552 165.4536C94.5552 165.7416,94.4976 165.972,94.4976 166.26C94.2384 170.7816,92.3952 174.4968,88.7376 178.0104L87.7584 178.9608L87.4128 179.3352L87.4128 179.4504L87.6144 180.3144L87.9312 181.8696L88.248 183.3096C88.68 185.268,88.8528 186.276,88.8528 186.276C88.8528 186.276,88.8528 186.276,88.8528 186.276C88.8528 186.276,88.968 186.276,89.112 186.2472C89.256 186.2472,89.7168 186.1896,90.2064 186.1896C90.55199999999999 186.1896,90.8976 186.2472,91.0704 186.2472C95.1312 186.7656,98.2704 189.6744,99.1632 193.764C99.336 194.4264,99.39359999999999 195.1464,99.39359999999999 195.8664C99.39359999999999 199.7544,97.0608 203.4696,93.1728 205.2264C92.94239999999999 205.3704,92.856 205.3992,92.856 205.3992L92.856 205.428C92.856 205.428,93.0288 206.0904,93.1728 206.8392L93.6048 209.028L94.008 210.7848C94.2384 211.908,94.3536 212.7144,94.3536 213.4344C94.3536 214.06799999999998,94.2672 214.644,94.1232 215.3064C93.144 219.3096,89.6592 221.7,86.0304 221.7C84.2448 221.7,82.4016 221.124,80.7888 219.828C79.3488 218.6184,78.7152 217.524,78.7152 216.084C78.7152 213.5496,80.76 211.764,82.8912 211.764C83.64 211.764,84.3888 211.99439999999998,85.1088 212.4264C86.3184 213.2616,86.8656 214.5288,86.8656 215.7672C86.8656 217.668,85.5408 219.54,83.2656 219.684L83.0352 219.684L83.208 219.79919999999998C84.1584 220.2024,85.1088 220.404,86.0304 220.404C88.3632 220.404,90.55199999999999 219.2232,91.8768 217.1784C92.62559999999999 216.0264,93.0288 214.6728,93.0288 213.3192C93.0288 212.8008,92.94239999999999 212.2824,92.8272 211.7064C92.8272 211.6488,92.74080000000001 211.188,92.62559999999999 210.756C91.992 207.6456,91.6176 205.8312,91.6176 205.8312C91.6176 205.8312,91.6176 205.8312,91.6176 205.8312C91.56 205.8312,91.4448 205.8312,91.3584 205.8888C91.0704 205.9464,90.4656 206.0904,90.2064 206.1192C89.5728 206.2056,88.968 206.2344,88.392 206.2344C82.74719999999999 206.2344,77.5056 202.4328,75.6912 196.8168C75.2304 195.3192,74.9712 193.8216,74.9712 192.324C74.9712 189.3288,75.9216 186.3912,77.7648 183.7704C79.7808 180.9192,81.7968 178.4712,84.2736 175.9368L85.13759999999999 175.044L84.936 173.9784L84.5616 172.2216L84.072 169.9752C83.928 169.14,83.7552 168.3336,83.7264 168.1608C83.5824 167.2104,83.496 166.2888,83.496 165.3384C83.496 161.7096,84.6768 158.22480000000002,86.8944 155.4312C87.5568 154.5672,88.7376 153.4152,89.0544 153.3288M90.8112 159.0312C90.7536 159.0312,90.6672 159.0312,90.5808 159.0312C89.4 159.0312,87.8736 160.1256,86.8368 161.7384C85.7712 163.32240000000002,85.224 165.4248,85.224 167.5848C85.224 168.1608,85.25280000000001 168.7656,85.3392 169.3704C85.4256 169.8024,85.45439999999999 170.0904,85.6848 171.12720000000002L86.088 172.9416C86.2032 173.4888,86.28960000000001 173.92079999999999,86.28960000000001 173.9784L86.28960000000001 173.9784C86.3184 173.9784,87.2112 172.9992,87.4992 172.6536C90.3792 169.3992,92.1072 165.972,92.4816 162.948C92.5104 162.66,92.5104 162.4296,92.5104 162.1416C92.5104 161.24880000000002,92.3952 160.38479999999998,92.1936 159.924C91.9632 159.4632,91.4448 159.0888,90.8112 159.0312M86.4624 181.2936C86.4048 180.8904,86.3184 180.5736,86.3184 180.516C86.3184 180.516,86.3184 180.516,86.28960000000001 180.516C86.232 180.516,84.9936 181.956,84.1296 182.964C82.6608 184.7496,81.1056 186.8808,80.472 187.9176C79.2624 189.9624,78.6576 192.2376,78.6576 194.484C78.6576 195.9528,78.9456 197.364,79.464 198.7176C81.0192 202.7208,84.5904 205.2264,88.4784 205.2264C88.9392 205.2264,89.4576 205.1976,89.9472 205.1112C90.5808 204.996,91.3584 204.7656,91.3584 204.6792L91.3584 204.6792C91.3584 204.6792,91.3008 204.3912,91.2144 204.0744L90.3792 199.956L89.7168 196.8744L89.2848 194.7432L88.824 192.6696C88.5936 191.4312,88.5072 191.1144,88.5072 191.1144C88.5072 191.1144,88.5072 191.0856,88.4784 191.0856C88.3056 191.0856,87.384 191.5464,86.9808 191.8344C85.4832 192.8712,84.7056 194.5128,84.7056 196.1256C84.7056 197.652,85.45439999999999 199.1784,86.8944 200.0712C87.2112 200.2728,87.3264 200.4456,87.3264 200.6472C87.3264 200.676,87.3264 200.7624,87.3264 200.7912C87.2688 201.1368,87.0672 201.2808,86.7792 201.2808C86.664 201.2808,86.52 201.252,86.3472 201.1656C83.6976 200.0136,81.912 197.2776,81.912 194.2824L81.912 194.2824C81.912 190.8264,84.072 187.8312,87.384 186.6504L87.5568 186.5928L87.2688 185.1528L86.4624 181.2936M90.7824 190.9128C90.55199999999999 190.88400000000001,90.3216 190.88400000000001,90.1488 190.88400000000001C90.0912 190.88400000000001,90.0048 190.88400000000001,89.9472 190.88400000000001L89.8032 190.88400000000001L89.9184 191.4024L90.5232 194.2248L90.8976 196.068L91.3008 197.8824L92.1072 201.8856L92.424 203.412C92.5392 203.8152,92.5968 204.1608,92.62559999999999 204.1608C92.62559999999999 204.1608,92.62559999999999 204.1608,92.62559999999999 204.1608C92.6544 204.1608,93.144 203.8728,93.4608 203.6424C94.9296 202.6056,96.024 200.9928,96.4272 199.3224C96.5712 198.7752,96.6288 198.1992,96.6288 197.652C96.6288 194.3112,94.152 191.2872,90.7824 190.9128"></path></g><path stroke-width="0.3" fill="#000000" stroke="none" stroke-dasharray="none" d="M116.8352 186.5M121.8464 167.8376C121.904 167.8376,122.1056 167.8376,122.336 167.8376C122.71039999999999 167.8376,123.1712 167.8376,123.3152 167.8376C125.9648 168.1256,128.0384 169.5656,128.4128 171.4376C128.4704 171.6104,128.4704 171.812,128.4704 172.0136C128.4704 172.244,128.4704 172.4456,128.4128 172.5608C128.0384 173.9144,126.45439999999999 175.1528,124.4384 175.7576C124.2944 175.8152,124.2368 175.8152,124.2368 175.844C124.2368 175.844,124.2368 175.844,124.2368 175.844C124.2656 175.844,124.352 175.8728,124.4384 175.8728C127.1744 176.8808,128.6144 178.8104,128.6144 180.6824C128.6144 182.1224,127.80799999999999 183.5048,125.9936 184.4264C124.928 185.0024,123.7472 185.2616,122.5952 185.2616C120.6944 185.2616,118.8224 184.5416,117.4976 183.2456C117.008 182.7848,116.8352 182.2088,116.8352 181.6328C116.8352 180.452,117.6704 179.3288,119.0528 179.3288L119.0528 179.3288C120.4352 179.3288,121.2128 180.3944,121.2128 181.4888C121.2128 182.324,120.7808 183.1592,119.8016 183.5624C119.8016 183.5624,119.8016 183.5624,119.8016 183.5624C119.8016 183.5912,120.6368 183.764,121.0688 183.7928C121.1264 183.7928,121.184 183.7928,121.2416 183.7928C123.1424 183.7928,124.4672 182.4392,124.4672 180.5672C124.4672 180.3656,124.4672 180.1928,124.4384 179.9912C124.1216 177.8888,122.71039999999999 176.3336,121.0688 176.276C120.6656 176.2472,120.464 176.0744,120.464 175.8152C120.464 175.4696,120.6368 175.3256,121.0688 175.3256C122.48 175.2392,123.6896 174.2888,124.1504 172.8488C124.2656 172.5608,124.2944 172.2728,124.2944 172.0424C124.2944 170.8328,123.4016 169.7384,122.0768 169.4504C121.8752 169.364,121.616 169.364,121.328 169.364C120.9248 169.364,120.5504 169.3928,120.1472 169.4504L120.032 169.4792L120.1472 169.5656C120.896 169.9688,121.2128 170.68880000000001,121.2128 171.4088C121.2128 172.3592,120.5792 173.3096,119.4848 173.5688C119.3408 173.5976,119.168 173.5976,119.024 173.5976C117.7568 173.5976,116.8064 172.4456,116.8064 171.236C116.8064 170.7176,116.9792 170.1992,117.4112 169.7672C118.4192 168.6728,119.9456 168.0392,121.8464 167.8376M122.71039999999999 186.5288L122.7392 186.5288L122.6528 186.5288L122.71039999999999 186.5288M122.71039999999999 167.1176L122.7392 167.1176L122.6528 167.1176L122.71039999999999 167.1176"></path><path stroke-width="0.3" fill="#000000" stroke="none" stroke-dasharray="none" d="M116 206.5M121.0112 188.1544C121.04 188.1256,121.4432 188.1256,122.6816 188.1256C123.056 188.1256,123.4592 188.1256,123.9776 188.1256L126.8864 188.1256L126.9728 188.212C127.1168 188.29840000000002,127.2032 188.4424,127.2032 188.5576C127.2032 188.7304,127.1168 188.8456,127.0016 188.9608C126.9728 189.0472,126.7136 189.2776,126.5408 189.5368L125.0144 191.2936L123.056 193.5112L122.0192 194.692L120.464 196.4776L118.4192 198.8104C118.0736 199.2424,117.6992 199.588,117.6992 199.588C117.6992 199.588,117.6992 199.588,117.6992 199.588C117.6992 199.6456,117.9584 199.6456,120.3488 199.6456L122.9696 199.6456L122.9696 197.7736C122.9696 195.8728,122.9696 195.844,122.9984 195.8152C123.056 195.7288,123.3152 195.412,124.3232 194.2312L124.7264 193.7992L125.1296 193.3672L125.7344 192.5896L126.368 191.9272L126.6848 191.524C126.8 191.3512,126.9728 191.3224,127.1168 191.3224C127.28960000000001 191.3224,127.4336 191.4088,127.52 191.5528C127.5488 191.6392,127.5488 191.6968,127.5488 193.828C127.5488 194.3176,127.5488 194.9224,127.5488 195.6424L127.5488 199.6456L128.2688 199.6456C128.9312 199.6456,128.96 199.6456,129.0464 199.6744C129.2768 199.7608,129.392 199.9912,129.392 200.2504C129.392 200.3944,129.3632 200.5672,129.248 200.6824C129.0752 200.8264,129.0464 200.8264,128.2688 200.8264L127.5488 200.8264L127.5488 201.316C127.5776 202.7848,127.8656 203.3608,128.9888 203.9656C129.392 204.1672,129.4784 204.2248,129.4784 204.5128C129.4784 204.7144,129.42079999999999 204.8008,129.2768 204.916L129.1904 204.9448L125.2448 204.9448L121.328 204.9448L121.2416 204.916C121.0688 204.8008,121.04 204.7144,121.04 204.5128C121.04 204.2248,121.0688 204.1672,121.5008 203.9656C122.624 203.3608,122.912 202.7848,122.912 201.316L122.912 200.8264L119.6 200.8264C118.9952 200.88400000000001,118.5056 200.88400000000001,118.1024 200.88400000000001C116.288 200.88400000000001,116.2592 200.8264,116.2304 200.8264C116.0576 200.7688,116 200.596,116 200.3944C116 200.3944,116 200.3944,116 200.3944C116 200.1928,116 200.1928,116.576 199.5304C118.9952 196.5928,120.6944 192.3304,120.6944 188.93200000000002C120.6944 188.4136,120.7808 188.2408,121.0112 188.1544M122.7392 206.5288L122.768 206.5288L122.6816 206.5288L122.7392 206.5288M122.7392 187.1176L122.768 187.1176L122.6816 187.1176L122.7392 187.1176"></path><g class="vf-stavenote" id="vf-auto3823057"><g class="vf-note" pointer-events="bounding-box"><g class="vf-stem" pointer-events="bounding-box"><path stroke-width="1.5" fill="none" stroke="#000000" stroke-dasharray="none" class="vf-stem" id="vf-auto3823057-stem" d="M187.06893333333332 186.5L187.06893333333332 221.5"></path></g><g class="vf-notehead" pointer-events="bounding-box"><path stroke-width="0.3" fill="#000000" stroke="none" stroke-dasharray="none" d="M186.31893333333332 186.5M193.6758933333333 181.27712C193.78821333333332 181.27712,193.9566933333333 181.27712,193.98477333333332 181.27712C193.98477333333332 181.27712,194.0128533333333 181.27712,194.0128533333333 181.27712C194.0128533333333 181.27712,194.18133333333333 181.27712,194.32173333333333 181.27712C196.84893333333332 181.41752,198.3371733333333 183.07424,198.3371733333333 185.15216C198.3371733333333 186.16304,198.0002133333333 187.31432,197.1578133333333 188.40944C195.5572533333333 190.5716,192.94581333333332 191.75096,190.6713333333333 191.75096C188.90229333333332 191.75096,187.3859733333333 191.04896,186.65589333333332 189.61688C186.43125333333333 189.05528,186.31893333333332 188.52176,186.31893333333332 187.93208C186.31893333333332 184.87136,189.74469333333332 181.47368,193.6758933333333 181.27712"></path></g></g><g class="vf-modifiers"></g></g><path stroke-width="1" fill="none" stroke="#000000" stroke-dasharray="none" d="M274.50351679999994 166.5L405.4286335999999 166.5"></path><path stroke-width="1" fill="none" stroke="#000000" stroke-dasharray="none" d="M274.50351679999994 176.5L405.4286335999999 176.5"></path><path stroke-width="1" fill="none" stroke="#000000" stroke-dasharray="none" d="M274.50351679999994 186.5L405.4286335999999 186.5"></path><path stroke-width="1" fill="none" stroke="#000000" stroke-dasharray="none" d="M274.50351679999994 196.5L405.4286335999999 196.5"></path><path stroke-width="1" fill="none" stroke="#000000" stroke-dasharray="none" d="M274.50351679999994 206.5L405.4286335999999 206.5"></path><rect stroke-width="0.3" fill="#000000" stroke="#000000" stroke-dasharray="none" x="405.4286335999999" y="166" width="1" height="41"></rect><g class="vf-stavenote" id="vf-auto3823086"><g class="vf-note" pointer-events="bounding-box"><g class="vf-stem" pointer-events="bounding-box"><path stroke-width="1.5" fill="none" stroke="#000000" stroke-dasharray="none" class="vf-stem" id="vf-auto3823086-stem" d="M302.77175679999993 211.5L302.77175679999993 176.5"></path></g><g class="vf-notehead" pointer-events="bounding-box"><path stroke-width="0.3" fill="#000000" stroke="none" stroke-dasharray="none" d="M291.50351679999994 211.5M298.86047679999996 206.27712C298.97279679999997 206.27712,299.14127679999996 206.27712,299.16935679999995 206.27712C299.16935679999995 206.27712,299.19743679999993 206.27712,299.19743679999993 206.27712C299.19743679999993 206.27712,299.3659167999999 206.27712,299.5063167999999 206.27712C302.0335167999999 206.41752,303.52175679999993 208.07424,303.52175679999993 210.15216C303.52175679999993 211.16304,303.18479679999996 212.31432,302.34239679999996 213.40944C300.74183679999993 215.5716,298.13039679999997 216.75096,295.85591679999993 216.75096C294.08687679999997 216.75096,292.57055679999996 216.04896,291.8404767999999 214.61688C291.61583679999995 214.05528,291.50351679999994 213.52176,291.50351679999994 212.93208C291.50351679999994 209.87136,294.92927679999997 206.47368,298.86047679999996 206.27712"></path></g></g><g class="vf-modifiers"></g></g><g class="vf-stavenote" id="vf-auto3823094"><g class="vf-note" pointer-events="bounding-box"><g class="vf-stem" pointer-events="bounding-box"><path stroke-width="1.5" fill="none" stroke="#000000" stroke-dasharray="none" class="vf-stem" id="vf-auto3823094-stem" d="M341.10509013333325 196.5L341.10509013333325 161.5"></path></g><g class="vf-notehead" pointer-events="bounding-box"><path stroke-width="0.3" fill="#000000" stroke="none" stroke-dasharray="none" d="M329.83685013333326 196.5M337.1938101333333 191.27712C337.3061301333333 191.27712,337.4746101333333 191.27712,337.50269013333326 191.27712C337.50269013333326 191.27712,337.53077013333325 191.27712,337.53077013333325 191.27712C337.53077013333325 191.27712,337.69925013333324 191.27712,337.83965013333324 191.27712C340.3668501333333 191.41752,341.85509013333325 193.07424,341.85509013333325 195.15216C341.85509013333325 196.16304,341.5181301333333 197.31432,340.6757301333333 198.40944C339.07517013333324 200.5716,336.46373013333323 201.75096,334.18925013333325 201.75096C332.4202101333333 201.75096,330.9038901333333 201.04896,330.17381013333323 199.61688C329.94917013333327 199.05528,329.83685013333326 198.52176,329.83685013333326 197.93208C329.83685013333326 194.87136,333.2626101333333 191.47368,337.1938101333333 191.27712"></path></g></g><g class="vf-modifiers"></g></g><g class="vf-stavenote" id="vf-auto3823102"><g class="vf-note" pointer-events="bounding-box"><g class="vf-stem" pointer-events="bounding-box"><path stroke-width="1.5" fill="none" stroke="#000000" stroke-dasharray="none" class="vf-stem" id="vf-auto3823102-stem" d="M379.43842346666656 211.5L379.43842346666656 176.5"></path></g><g class="vf-notehead" pointer-events="bounding-box"><path stroke-width="0.3" fill="#000000" stroke="none" stroke-dasharray="none" d="M368.1701834666666 211.5M375.5271434666666 206.27712C375.6394634666666 206.27712,375.8079434666666 206.27712,375.8360234666666 206.27712C375.8360234666666 206.27712,375.86410346666656 206.27712,375.86410346666656 206.27712C375.86410346666656 206.27712,376.03258346666655 206.27712,376.17298346666655 206.27712C378.70018346666654 206.41752,380.18842346666656 208.07424,380.18842346666656 210.15216C380.18842346666656 211.16304,379.8514634666666 212.31432,379.0090634666666 213.40944C377.40850346666656 215.5716,374.7970634666666 216.75096,372.52258346666656 216.75096C370.7535434666666 216.75096,369.2372234666666 216.04896,368.50714346666655 214.61688C368.2825034666666 214.05528,368.1701834666666 213.52176,368.1701834666666 212.93208C368.1701834666666 209.87136,371.5959434666666 206.47368,375.5271434666666 206.27712"></path></g></g><g class="vf-modifiers"></g></g><path stroke-width="1" fill="none" stroke="#000000" stroke-dasharray="none" d="M405.4286336 166.5L527.9537504 166.5"></path><path stroke-width="1" fill="none" stroke="#000000" stroke-dasharray="none" d="M405.4286336 176.5L527.9537504 176.5"></path><path stroke-width="1" fill="none" stroke="#000000" stroke-dasharray="none" d="M405.4286336 186.5L527.9537504 186.5"></path><path stroke-width="1" fill="none" stroke="#000000" stroke-dasharray="none" d="M405.4286336 196.5L527.9537504 196.5"></path><path stroke-width="1" fill="none" stroke="#000000" stroke-dasharray="none" d="M405.4286336 206.5L527.9537504 206.5"></path><rect stroke-width="0.3" fill="#000000" stroke="#000000" stroke-dasharray="none" x="527.9537504" y="166" width="1" height="41"></rect><g class="vf-stavenote" id="vf-auto3823111"><g class="vf-note" pointer-events="bounding-box"><g class="vf-stem" pointer-events="bounding-box"><path stroke-width="1.5" fill="none" stroke="#000000" stroke-dasharray="none" class="vf-stem" id="vf-auto3823111-stem" d="M494.5119669333334 186.5L494.5119669333334 221.5"></path></g><g class="vf-notehead" pointer-events="bounding-box"><path stroke-width="0.3" fill="#000000" stroke="none" stroke-dasharray="none" d="M493.7619669333334 186.5M501.1189269333334 181.27712C501.2312469333334 181.27712,501.3997269333334 181.27712,501.4278069333334 181.27712C501.4278069333334 181.27712,501.4558869333334 181.27712,501.4558869333334 181.27712C501.4558869333334 181.27712,501.62436693333336 181.27712,501.76476693333336 181.27712C504.29196693333336 181.41752,505.7802069333334 183.07424,505.7802069333334 185.15216C505.7802069333334 186.16304,505.4432469333334 187.31432,504.6008469333334 188.40944C503.00028693333337 190.5716,500.3888469333334 191.75096,498.1143669333334 191.75096C496.3453269333334 191.75096,494.8290069333334 191.04896,494.09892693333336 189.61688C493.8742869333334 189.05528,493.7619669333334 188.52176,493.7619669333334 187.93208C493.7619669333334 184.87136,497.1877269333334 181.47368,501.1189269333334 181.27712"></path></g></g><g class="vf-modifiers"></g></g><path stroke-width="1" fill="none" stroke="#000000" stroke-dasharray="none" d="M527.9537504 166.5L664.6788672 166.5"></path><path stroke-width="1" fill="none" stroke="#000000" stroke-dasharray="none" d="M527.9537504 176.5L664.6788672 176.5"></path><path stroke-width="1" fill="none" stroke="#000000" stroke-dasharray="none" d="M527.9537504 186.5L664.6788672 186.5"></path><path stroke-width="1" fill="none" stroke="#000000" stroke-dasharray="none" d="M527.9537504 196.5L664.6788672 196.5"></path><path stroke-width="1" fill="none" stroke="#000000" stroke-dasharray="none" d="M527.9537504 206.5L664.6788672 206.5"></path><rect stroke-width="0.3" fill="#000000" stroke="#000000" stroke-dasharray="none" x="659.6788672" y="166" width="1" height="41"></rect><rect stroke-width="0.3" fill="#000000" stroke="#000000" stroke-dasharray="none" x="662.6788672" y="166" width="3" height="41"></rect><path stroke-width="0.3" fill="#000000" stroke="none" stroke-dasharray="none" d="M658.6788672 182 A2 2 0 0 0 654.6788672 182M654.6788672 182 A2 2 0 0 0 658.6788672 182"></path><path stroke-width="0.3" fill="#000000" stroke="none" stroke-dasharray="none" d="M658.6788672 192 A2 2 0 0 0 654.6788672 192M654.6788672 192 A2 2 0 0 0 658.6788672 192"></path><g class="vf-stavenote" id="vf-auto3823139"><g class="vf-note" pointer-events="bounding-box"><g class="vf-stem" pointer-events="bounding-box"><path stroke-width="1.5" fill="none" stroke="#000000" stroke-dasharray="none" class="vf-stem" id="vf-auto3823139-stem" d="M586.0370837333334 176.5L586.0370837333334 211.5"></path></g><g class="vf-notehead" pointer-events="bounding-box"><path stroke-width="0.3" fill="#000000" stroke="none" stroke-dasharray="none" d="M585.2870837333334 176.5M592.6440437333333 171.27712C592.7563637333334 171.27712,592.9248437333333 171.27712,592.9529237333334 171.27712C592.9529237333334 171.27712,592.9810037333334 171.27712,592.9810037333334 171.27712C592.9810037333334 171.27712,593.1494837333333 171.27712,593.2898837333333 171.27712C595.8170837333333 171.41752,597.3053237333334 173.07424,597.3053237333334 175.15216C597.3053237333334 176.16304,596.9683637333334 177.31432,596.1259637333334 178.40944C594.5254037333334 180.5716,591.9139637333334 181.75096,589.6394837333333 181.75096C587.8704437333333 181.75096,586.3541237333334 181.04896,585.6240437333333 179.61688C585.3994037333333 179.05528,585.2870837333334 178.52176,585.2870837333334 177.93208C585.2870837333334 174.87136,588.7128437333333 171.47368,592.6440437333333 171.27712"></path></g></g><g class="vf-modifiers"></g></g><g class="vf-stavenote" id="vf-auto3823147"><g class="vf-note" pointer-events="bounding-box"><g class="vf-stem" pointer-events="bounding-box"><path stroke-width="1.5" fill="none" stroke="#000000" stroke-dasharray="none" class="vf-stem" id="vf-auto3823147-stem" d="M626.3704170666666 171.5L626.3704170666666 206.5"></path></g><g class="vf-notehead" pointer-events="bounding-box"><path stroke-width="0.3" fill="#000000" stroke="none" stroke-dasharray="none" d="M625.6204170666666 171.5M632.9773770666666 166.27712C633.0896970666666 166.27712,633.2581770666666 166.27712,633.2862570666666 166.27712C633.2862570666666 166.27712,633.3143370666667 166.27712,633.3143370666667 166.27712C633.3143370666667 166.27712,633.4828170666666 166.27712,633.6232170666666 166.27712C636.1504170666666 166.41752,637.6386570666666 168.07424,637.6386570666666 170.15216C637.6386570666666 171.16304,637.3016970666666 172.31432,636.4592970666666 173.40944C634.8587370666667 175.5716,632.2472970666666 176.75096,629.9728170666666 176.75096C628.2037770666666 176.75096,626.6874570666666 176.04896,625.9573770666666 174.61688C625.7327370666666 174.05528,625.6204170666666 173.52176,625.6204170666666 172.93208C625.6204170666666 169.87136,629.0461770666666 166.47368,632.9773770666666 166.27712"></path></g></g><g class="vf-modifiers"></g></g><g class="vf-text"><text stroke-width="0.3" fill="#000000" stroke="none" stroke-dasharray="none" font-family="Times New Roman" font-size="23px" font-weight="bold" font-style="italic" x="156.4784" y="243.3">mp</text></g><path stroke-width="1" fill="none" stroke="#000000" stroke-dasharray="none" d="M70 267.1L274.50351679999994 267.1"></path><path stroke-width="1" fill="none" stroke="#000000" stroke-dasharray="none" d="M70 277.1L274.50351679999994 277.1"></path><path stroke-width="1" fill="none" stroke="#000000" stroke-dasharray="none" d="M70 287.1L274.50351679999994 287.1"></path><path stroke-width="1" fill="none" stroke="#000000" stroke-dasharray="none" d="M70 297.1L274.50351679999994 297.1"></path><path stroke-width="1" fill="none" stroke="#000000" stroke-dasharray="none" d="M70 307.1L274.50351679999994 307.1"></path><rect stroke-width="0.3" fill="#000000" stroke="#000000" stroke-dasharray="none" x="274.50351679999994" y="266.6" width="1" height="41"></rect><g class="vf-clef"><path stroke-width="0.3" fill="#000000" stroke="none" stroke-dasharray="none" d="M75 277.1M83.8416 267.0488C84.072 266.99120000000005,84.3024 266.99120000000005,84.5616 266.99120000000005C85.5696 266.99120000000005,86.7504 267.1064,87.7584 267.30800000000005C92.4816 268.28720000000004,95.736 271.48400000000004,96.3408 275.74640000000005C96.3984 276.2072,96.4272 276.6392,96.4272 277.1C96.4272 279.692,95.5344 283.0328,94.008 285.82640000000004C90.3792 292.3928,83.7552 297.11600000000004,75.8064 298.84400000000005C75.6624 298.84400000000005,75.5472 298.87280000000004,75.4032 298.87280000000004C75.1152 298.87280000000004,74.9712 298.70000000000005,74.9712 298.4408C74.9712 298.1528,75.0288 298.06640000000004,75.6048 297.836C84.7056 294.40880000000004,90.7824 287.0072,91.3296 278.7128C91.3584 278.2808,91.3584 277.7912,91.3584 277.4168C91.3584 273.38480000000004,90.12 270.38960000000003,87.7296 268.892C86.6928 268.2296,85.5696 267.9128,84.36 267.9128C81.6816 267.9128,78.9456 269.4392,77.6784 272.0024C77.6208 272.204,77.4192 272.636,77.4192 272.6648C77.4192 272.6648,77.4192 272.6648,77.4192 272.6648C77.4192 272.6648,77.448 272.636,77.5344 272.60720000000003C78.168 272.204,78.8592 272.0024,79.5792 272.0024C80.5872 272.0024,81.6528 272.43440000000004,82.4016 273.24080000000004C83.0928 273.9896,83.4672 274.99760000000003,83.4672 275.91920000000005C83.4672 277.7912,82.0848 279.692,79.9248 279.89360000000005C79.7808 279.89360000000005,79.6368 279.92240000000004,79.4928 279.92240000000004C77.1024 279.92240000000004,75.1728 277.7336,75.1728 274.96880000000004C75.1728 274.9112,75.1728 274.82480000000004,75.1728 274.79600000000005C75.288 270.67760000000004,79.0608 267.30800000000005,83.8416 267.0488M99.1632 270.908C99.2208 270.8792,99.2496 270.8792,99.336 270.8792C99.5376 270.8792,99.768 270.908,99.8256 270.9656C100.54560000000001 271.16720000000004,100.8912 271.80080000000004,100.8912 272.40560000000005C100.8912 272.92400000000004,100.632 273.4424,100.11359999999999 273.73040000000003C99.912 273.87440000000004,99.6528 273.9032,99.39359999999999 273.9032C98.9904 273.9032,98.5584 273.73040000000003,98.2704 273.356C98.03999999999999 273.06800000000004,97.9248 272.75120000000004,97.9248 272.43440000000004C97.9248 271.7144,98.3856 270.99440000000004,99.1632 270.908M99.1632 280.3256C99.2208 280.3256,99.2496 280.3256,99.336 280.3256C99.5376 280.3256,99.768 280.3544,99.8256 280.41200000000003C100.54560000000001 280.6136,100.8912 281.2472,100.8912 281.85200000000003C100.8912 282.3704,100.632 282.8888,100.11359999999999 283.148C99.912 283.29200000000003,99.6528 283.3496,99.39359999999999 283.3496C98.9904 283.3496,98.5584 283.148,98.2704 282.80240000000003C98.03999999999999 282.5144,97.9248 282.1976,97.9248 281.85200000000003C97.9248 281.132,98.3856 280.4408,99.1632 280.3256"></path></g><path stroke-width="0.3" fill="#000000" stroke="none" stroke-dasharray="none" d="M116.8352 287.1M121.8464 268.43760000000003C121.904 268.43760000000003,122.1056 268.43760000000003,122.336 268.43760000000003C122.71039999999999 268.43760000000003,123.1712 268.43760000000003,123.3152 268.43760000000003C125.9648 268.72560000000004,128.0384 270.16560000000004,128.4128 272.0376C128.4704 272.21040000000005,128.4704 272.41200000000003,128.4704 272.6136C128.4704 272.84400000000005,128.4704 273.04560000000004,128.4128 273.1608C128.0384 274.5144,126.45439999999999 275.75280000000004,124.4384 276.35760000000005C124.2944 276.4152,124.2368 276.4152,124.2368 276.444C124.2368 276.444,124.2368 276.444,124.2368 276.444C124.2656 276.444,124.352 276.4728,124.4384 276.4728C127.1744 277.48080000000004,128.6144 279.41040000000004,128.6144 281.2824C128.6144 282.72240000000005,127.80799999999999 284.1048,125.9936 285.0264C124.928 285.60240000000005,123.7472 285.8616,122.5952 285.8616C120.6944 285.8616,118.8224 285.14160000000004,117.4976 283.84560000000005C117.008 283.38480000000004,116.8352 282.8088,116.8352 282.2328C116.8352 281.052,117.6704 279.9288,119.0528 279.9288L119.0528 279.9288C120.4352 279.9288,121.2128 280.99440000000004,121.2128 282.08880000000005C121.2128 282.92400000000004,120.7808 283.7592,119.8016 284.16240000000005C119.8016 284.16240000000005,119.8016 284.16240000000005,119.8016 284.16240000000005C119.8016 284.19120000000004,120.6368 284.36400000000003,121.0688 284.3928C121.1264 284.3928,121.184 284.3928,121.2416 284.3928C123.1424 284.3928,124.4672 283.03920000000005,124.4672 281.16720000000004C124.4672 280.9656,124.4672 280.7928,124.4384 280.5912C124.1216 278.4888,122.71039999999999 276.9336,121.0688 276.87600000000003C120.6656 276.84720000000004,120.464 276.67440000000005,120.464 276.4152C120.464 276.06960000000004,120.6368 275.92560000000003,121.0688 275.92560000000003C122.48 275.8392,123.6896 274.8888,124.1504 273.4488C124.2656 273.1608,124.2944 272.87280000000004,124.2944 272.6424C124.2944 271.43280000000004,123.4016 270.33840000000004,122.0768 270.0504C121.8752 269.964,121.616 269.964,121.328 269.964C120.9248 269.964,120.5504 269.99280000000005,120.1472 270.0504L120.032 270.0792L120.1472 270.16560000000004C120.896 270.5688,121.2128 271.28880000000004,121.2128 272.0088C121.2128 272.9592,120.5792 273.9096,119.4848 274.16880000000003C119.3408 274.1976,119.168 274.1976,119.024 274.1976C117.7568 274.1976,116.8064 273.04560000000004,116.8064 271.836C116.8064 271.3176,116.9792 270.79920000000004,117.4112 270.3672C118.4192 269.2728,119.9456 268.6392,121.8464 268.43760000000003M122.71039999999999 287.1288L122.7392 287.1288L122.6528 287.1288L122.71039999999999 287.1288M122.71039999999999 267.7176L122.7392 267.7176L122.6528 267.7176L122.71039999999999 267.7176"></path><path stroke-width="0.3" fill="#000000" stroke="none" stroke-dasharray="none" d="M116 307.1M121.0112 288.75440000000003C121.04 288.72560000000004,121.4432 288.72560000000004,122.6816 288.72560000000004C123.056 288.72560000000004,123.4592 288.72560000000004,123.9776 288.72560000000004L126.8864 288.72560000000004L126.9728 288.812C127.1168 288.89840000000004,127.2032 289.04240000000004,127.2032 289.1576C127.2032 289.3304,127.1168 289.4456,127.0016 289.56080000000003C126.9728 289.6472,126.7136 289.87760000000003,126.5408 290.1368L125.0144 291.89360000000005L123.056 294.1112L122.0192 295.29200000000003L120.464 297.0776L118.4192 299.41040000000004C118.0736 299.8424,117.6992 300.18800000000005,117.6992 300.18800000000005C117.6992 300.18800000000005,117.6992 300.18800000000005,117.6992 300.18800000000005C117.6992 300.2456,117.9584 300.2456,120.3488 300.2456L122.9696 300.2456L122.9696 298.3736C122.9696 296.4728,122.9696 296.444,122.9984 296.4152C123.056 296.3288,123.3152 296.012,124.3232 294.8312L124.7264 294.3992L125.1296 293.96720000000005L125.7344 293.18960000000004L126.368 292.52720000000005L126.6848 292.124C126.8 291.95120000000003,126.9728 291.92240000000004,127.1168 291.92240000000004C127.28960000000001 291.92240000000004,127.4336 292.0088,127.52 292.1528C127.5488 292.23920000000004,127.5488 292.2968,127.5488 294.428C127.5488 294.91760000000005,127.5488 295.5224,127.5488 296.24240000000003L127.5488 300.2456L128.2688 300.2456C128.9312 300.2456,128.96 300.2456,129.0464 300.2744C129.2768 300.36080000000004,129.392 300.5912,129.392 300.85040000000004C129.392 300.99440000000004,129.3632 301.16720000000004,129.248 301.2824C129.0752 301.4264,129.0464 301.4264,128.2688 301.4264L127.5488 301.4264L127.5488 301.916C127.5776 303.38480000000004,127.8656 303.9608,128.9888 304.5656C129.392 304.7672,129.4784 304.82480000000004,129.4784 305.11280000000005C129.4784 305.31440000000003,129.42079999999999 305.4008,129.2768 305.516L129.1904 305.5448L125.2448 305.5448L121.328 305.5448L121.2416 305.516C121.0688 305.4008,121.04 305.31440000000003,121.04 305.11280000000005C121.04 304.82480000000004,121.0688 304.7672,121.5008 304.5656C122.624 303.9608,122.912 303.38480000000004,122.912 301.916L122.912 301.4264L119.6 301.4264C118.9952 301.48400000000004,118.5056 301.48400000000004,118.1024 301.48400000000004C116.288 301.48400000000004,116.2592 301.4264,116.2304 301.4264C116.0576 301.3688,116 301.196,116 300.99440000000004C116 300.99440000000004,116 300.99440000000004,116 300.99440000000004C116 300.7928,116 300.7928,116.576 300.1304C118.9952 297.19280000000003,120.6944 292.9304,120.6944 289.53200000000004C120.6944 289.0136,120.7808 288.8408,121.0112 288.75440000000003M122.7392 307.1288L122.768 307.1288L122.6816 307.1288L122.7392 307.1288M122.7392 287.7176L122.768 287.7176L122.6816 287.7176L122.7392 287.7176"></path><g class="vf-stavenote" id="vf-auto3823068"><g class="vf-note" pointer-events="bounding-box"><g class="vf-stem" pointer-events="bounding-box"><path stroke-width="1.5" fill="none" stroke="#000000" stroke-dasharray="none" class="vf-stem" id="vf-auto3823068-stem" d="M152.74663999999999 292.1L152.74663999999999 257.1"></path></g><g class="vf-notehead" pointer-events="bounding-box"><path stroke-width="0.3" fill="#000000" stroke="none" stroke-dasharray="none" d="M141.4784 292.1M148.83535999999998 286.87712000000005C148.94768 286.87712000000005,149.11615999999998 286.87712000000005,149.14424 286.87712000000005C149.14424 286.87712000000005,149.17231999999998 286.87712000000005,149.17231999999998 286.87712000000005C149.17231999999998 286.87712000000005,149.3408 286.87712000000005,149.4812 286.87712000000005C152.0084 287.01752000000005,153.49663999999999 288.67424,153.49663999999999 290.75216C153.49663999999999 291.76304000000005,153.15967999999998 292.91432000000003,152.31727999999998 294.00944000000004C150.71671999999998 296.1716,148.10528 297.35096000000004,145.83079999999998 297.35096000000004C144.06176 297.35096000000004,142.54543999999999 296.64896000000005,141.81536 295.21688C141.59072 294.65528,141.4784 294.12176,141.4784 293.53208C141.4784 290.47136,144.90416 287.07368,148.83535999999998 286.87712000000005"></path></g></g><g class="vf-modifiers"></g></g><g class="vf-stavenote" id="vf-auto3823076"><g class="vf-note" pointer-events="bounding-box"><g class="vf-stem" pointer-events="bounding-box"><path stroke-width="1.5" fill="none" stroke="#000000" stroke-dasharray="none" class="vf-stem" id="vf-auto3823076-stem" d="M242.42770666666667 292.1L242.42770666666667 257.1"></path></g><g class="vf-notehead" pointer-events="bounding-box"><path stroke-width="0.3" fill="#000000" stroke="none" stroke-dasharray="none" d="M231.15946666666667 292.1M238.51642666666666 286.87712000000005C238.62874666666667 286.87712000000005,238.7972266666667 286.87712000000005,238.82530666666668 286.87712000000005C238.82530666666668 286.87712000000005,238.85338666666667 286.87712000000005,238.85338666666667 286.87712000000005C238.85338666666667 286.87712000000005,239.02186666666668 286.87712000000005,239.16226666666668 286.87712000000005C241.68946666666668 287.01752000000005,243.17770666666667 288.67424,243.17770666666667 290.75216C243.17770666666667 291.76304000000005,242.8407466666667 292.91432000000003,241.99834666666666 294.00944000000004C240.39778666666666 296.1716,237.78634666666667 297.35096000000004,235.51186666666666 297.35096000000004C233.74282666666667 297.35096000000004,232.22650666666667 296.64896000000005,231.49642666666668 295.21688C231.27178666666669 294.65528,231.15946666666667 294.12176,231.15946666666667 293.53208C231.15946666666667 290.47136,234.58522666666667 287.07368,238.51642666666666 286.87712000000005"></path></g></g><g class="vf-modifiers"></g></g><rect stroke-width="0.3" fill="#000000" stroke="#000000" stroke-dasharray="none" x="274.50351679999994" y="166.5" width="1" height="141.60000000000002"></rect><rect stroke-width="0.3" fill="#000000" stroke="#000000" stroke-dasharray="none" x="70" y="166.5" width="1" height="141.60000000000002"></rect><path stroke-width="1" fill="none" stroke="#000000" stroke-dasharray="none" d="M274.50351679999994 267.1L405.4286335999999 267.1"></path><path stroke-width="1" fill="none" stroke="#000000" stroke-dasharray="none" d="M274.50351679999994 277.1L405.4286335999999 277.1"></path><path stroke-width="1" fill="none" stroke="#000000" stroke-dasharray="none" d="M274.50351679999994 287.1L405.4286335999999 287.1"></path><path stroke-width="1" fill="none" stroke="#000000" stroke-dasharray="none" d="M274.50351679999994 297.1L405.4286335999999 297.1"></path><path stroke-width="1" fill="none" stroke="#000000" stroke-dasharray="none" d="M274.50351679999994 307.1L405.4286335999999 307.1"></path><rect stroke-width="0.3" fill="#000000" stroke="#000000" stroke-dasharray="none" x="405.4286335999999" y="266.6" width="1" height="41"></rect><rect stroke-width="0.3" fill="#000000" stroke="#000000" stroke-dasharray="none" x="405.4286335999999" y="166.5" width="1" height="141.60000000000002"></rect><path stroke-width="1" fill="none" stroke="#000000" stroke-dasharray="none" d="M405.4286336 267.1L527.9537504 267.1"></path><path stroke-width="1" fill="none" stroke="#000000" stroke-dasharray="none" d="M405.4286336 277.1L527.9537504 277.1"></path><path stroke-width="1" fill="none" stroke="#000000" stroke-dasharray="none" d="M405.4286336 287.1L527.9537504 287.1"></path><path stroke-width="1" fill="none" stroke="#000000" stroke-dasharray="none" d="M405.4286336 297.1L527.9537504 297.1"></path><path stroke-width="1" fill="none" stroke="#000000" stroke-dasharray="none" d="M405.4286336 307.1L527.9537504 307.1"></path><rect stroke-width="0.3" fill="#000000" stroke="#000000" stroke-dasharray="none" x="527.9537504" y="266.6" width="1" height="41"></rect><g class="vf-stavenote" id="vf-auto3823121"><g class="vf-note" pointer-events="bounding-box"><g class="vf-stem" pointer-events="bounding-box"><path stroke-width="1.5" fill="none" stroke="#000000" stroke-dasharray="none" class="vf-stem" id="vf-auto3823121-stem" d="M433.6968736 307.1L433.6968736 272.1"></path></g><g class="vf-notehead" pointer-events="bounding-box"><path stroke-width="0.3" fill="#000000" stroke="none" stroke-dasharray="none" d="M422.4286336 307.1M429.7855936 301.87712000000005C429.89791360000004 301.87712000000005,430.0663936 301.87712000000005,430.0944736 301.87712000000005C430.0944736 301.87712000000005,430.1225536 301.87712000000005,430.1225536 301.87712000000005C430.1225536 301.87712000000005,430.2910336 301.87712000000005,430.4314336 301.87712000000005C432.9586336 302.01752000000005,434.4468736 303.67424,434.4468736 305.75216C434.4468736 306.76304000000005,434.1099136 307.91432000000003,433.26751360000003 309.00944000000004C431.6669536 311.1716,429.05551360000004 312.35096000000004,426.7810336 312.35096000000004C425.01199360000004 312.35096000000004,423.49567360000003 311.64896000000005,422.7655936 310.21688C422.5409536 309.65528,422.4286336 309.12176,422.4286336 308.53208C422.4286336 305.47136,425.85439360000004 302.07368,429.7855936 301.87712000000005"></path></g></g><g class="vf-modifiers"></g></g><g class="vf-stavenote" id="vf-auto3823129"><g class="vf-note" pointer-events="bounding-box"><g class="vf-stem" pointer-events="bounding-box"><path stroke-width="1.5" fill="none" stroke="#000000" stroke-dasharray="none" class="vf-stem" id="vf-auto3823129-stem" d="M458.8453002666667 282.1L458.8453002666667 317.1"></path></g><g class="vf-notehead" pointer-events="bounding-box"><path stroke-width="0.3" fill="#000000" stroke="none" stroke-dasharray="none" d="M458.0953002666667 282.1M465.4522602666667 276.87712000000005C465.5645802666667 276.87712000000005,465.7330602666667 276.87712000000005,465.7611402666667 276.87712000000005C465.7611402666667 276.87712000000005,465.7892202666667 276.87712000000005,465.7892202666667 276.87712000000005C465.7892202666667 276.87712000000005,465.9577002666667 276.87712000000005,466.0981002666667 276.87712000000005C468.6253002666667 277.01752000000005,470.1135402666667 278.67424,470.1135402666667 280.75216C470.1135402666667 281.76304000000005,469.7765802666667 282.91432000000003,468.9341802666667 284.00944000000004C467.3336202666667 286.1716,464.72218026666667 287.35096000000004,462.4477002666667 287.35096000000004C460.6786602666667 287.35096000000004,459.1623402666667 286.64896000000005,458.4322602666667 285.21688C458.2076202666667 284.65528,458.0953002666667 284.12176,458.0953002666667 283.53208C458.0953002666667 280.47136,461.5210602666667 277.07368,465.4522602666667 276.87712000000005"></path></g></g><g class="vf-modifiers"></g></g><rect stroke-width="0.3" fill="#000000" stroke="#000000" stroke-dasharray="none" x="527.9537504" y="166.5" width="1" height="141.60000000000002"></rect><path stroke-width="1" fill="none" stroke="#000000" stroke-dasharray="none" d="M527.9537504 267.1L664.6788672 267.1"></path><path stroke-width="1" fill="none" stroke="#000000" stroke-dasharray="none" d="M527.9537504 277.1L664.6788672 277.1"></path><path stroke-width="1" fill="none" stroke="#000000" stroke-dasharray="none" d="M527.9537504 287.1L664.6788672 287.1"></path><path stroke-width="1" fill="none" stroke="#000000" stroke-dasharray="none" d="M527.9537504 297.1L664.6788672 297.1"></path><path stroke-width="1" fill="none" stroke="#000000" stroke-dasharray="none" d="M527.9537504 307.1L664.6788672 307.1"></path><rect stroke-width="0.3" fill="#000000" stroke="#000000" stroke-dasharray="none" x="659.6788672" y="266.6" width="1" height="41"></rect><rect stroke-width="0.3" fill="#000000" stroke="#000000" stroke-dasharray="none" x="662.6788672" y="266.6" width="3" height="41"></rect><path stroke-width="0.3" fill="#000000" stroke="none" stroke-dasharray="none" d="M658.6788672 282.6 A2 2 0 0 0 654.6788672 282.6M654.6788672 282.6 A2 2 0 0 0 658.6788672 282.6"></path><path stroke-width="0.3" fill="#000000" stroke="none" stroke-dasharray="none" d="M658.6788672 292.6 A2 2 0 0 0 654.6788672 292.6M654.6788672 292.6 A2 2 0 0 0 658.6788672 292.6"></path><g class="vf-stavenote" id="vf-auto3823157"><g class="vf-note" pointer-events="bounding-box"><g class="vf-stem" pointer-events="bounding-box"><path stroke-width="1.5" fill="none" stroke="#000000" stroke-dasharray="none" class="vf-stem" id="vf-auto3823157-stem" d="M545.7037504 267.1L545.7037504 302.1"></path></g><g class="vf-notehead" pointer-events="bounding-box"><path stroke-width="0.3" fill="#000000" stroke="none" stroke-dasharray="none" d="M544.9537504 267.1M552.3107104 261.87712000000005C552.4230304 261.87712000000005,552.5915104 261.87712000000005,552.6195904 261.87712000000005C552.6195904 261.87712000000005,552.6476704 261.87712000000005,552.6476704 261.87712000000005C552.6476704 261.87712000000005,552.8161504 261.87712000000005,552.9565504 261.87712000000005C555.4837504 262.01752000000005,556.9719904 263.67424,556.9719904 265.75216C556.9719904 266.76304000000005,556.6350304 267.91432000000003,555.7926304 269.00944000000004C554.1920704 271.1716,551.5806304 272.35096000000004,549.3061504 272.35096000000004C547.5371104 272.35096000000004,546.0207904 271.64896000000005,545.2907104 270.21688C545.0660704 269.65528,544.9537504 269.12176,544.9537504 268.53208C544.9537504 265.47136,548.3795104 262.07368,552.3107104 261.87712000000005"></path></g></g><g class="vf-modifiers"></g></g><rect stroke-width="0.3" fill="#000000" stroke="#000000" stroke-dasharray="none" x="659.6788672" y="166.5" width="1" height="141.60000000000002"></rect><rect stroke-width="0.3" fill="#000000" stroke="#000000" stroke-dasharray="none" x="662.6788672" y="166.5" width="3" height="141.60000000000002"></rect><path stroke-width="0.3" fill="#000000" stroke="none" stroke-dasharray="none" d="M68 166.5C45.2 194.82,81.2 218.184,56 237.3C81.2 256.416,45.2 279.78000000000003,68 308.1C44 279.78000000000003,72.8 256.416,56 237.3C72.8 218.184,44 194.82,68 166.5"></path><path stroke-width="1" fill="none" stroke="#000000" stroke-dasharray="none" d="M68 166.5C45.2 194.82,81.2 218.184,56 237.3C81.2 256.416,45.2 279.78000000000003,68 308.1C44 279.78000000000003,72.8 256.416,56 237.3C72.8 218.184,44 194.82,68 166.5"></path><g class="vf-text"><text stroke-width="0.3" fill="#000000" stroke="none" stroke-dasharray="none" font-family="Times New Roman" font-size="15px" font-weight="normal" font-style="normal" x="401.92863359999996" y="163.5">3</text></g></svg>