<svg xmlns="http://www.w3.org/2000/svg"  width="1470" height="375.6" viewBox="0 0 1470 375.6"><path stroke-width="1" fill="none" stroke="#000000" stroke-dasharray="none" d="M70 166.5L274.50351679999994 166.5"></path><path stroke-width="1" fill="none" stroke="#000000" stroke-dasharray="none" d="M70 176.5L274.50351679999994 176.5"></path><path stroke-width="1" fill="none" stroke="#000000" stroke-dasharray="none" d="M70 186.5L274.50351679999994 186.5"></path><path stroke-width="1" fill="none" stroke="#000000" stroke-dasharray="none" d="M70 196.5L274.50351679999994 196.5"></path><path stroke-width="1" fill="none" stroke="#000000" stroke-dasharray="none" d="M70 206.5L274.50351679999994 206.5"></path><rect stroke-width="0.3" fill="#000000" stroke="#000000" stroke-dasharray="none" x="274.50351679999994" y="166" width="1" height="41"></rect><g class="vf-clef"><path stroke-width="0.3" fill="#000000" stroke="none" stroke-dasharray="none" d="M75 196.5M89.0544 153.3288C89.112 153.3,89.1696 153.3,89.256 153.3C89.6016 153.3,90.0048 153.588,90.5808 154.308C92.9136 156.9864,94.5552 161.652,94.5552 165.4536C94.5552 165.7416,94.4976 165.972,94.4976 166.26C94.2384 170.7816,92.3952 174.4968,88.7376 178.0104L87.7584 178.9608L87.4128 179.3352L87.4128 179.4504L87.6144 180.3144L87.9312 181.8696L88.248 183.3096C88.68 185.268,88.8528 186.276,88.8528 186.276C88.8528 186.276,88.8528 186.276,88.8528 186.276C88.8528 186.276,88.968 186.276,89.112 186.2472C89.256 186.2472,89.7168 186.1896,90.2064 186.1896C90.55199999999999 186.1896,90.8976 186.2472,91.0704 186.2472C95.1312 186.7656,98.2704 189.6744,99.1632 193.764C99.336 194.4264,99.39359999999999 195.1464,99.39359999999999 195.8664C99.39359999999999 199.7544,97.0608 203.4696,93.1728 205.2264C92.94239999999999 205.3704,92.856 205.3992,92.856 205.3992L92.856 205.428C92.856 205.428,93.0288 206.0904,93.1728 206.8392L93.6048 209.028L94.008 210.7848C94.2384 211.908,94.3536 212.7144,94.3536 213.4344C94.3536 214.06799999999998,94.2672 214.644,94.1232 215.3064C93.144 219.3096,89.6592 221.7,86.0304 221.7C84.2448 221.7,82.4016 221.124,80.7888 219.828C79.3488 218.6184,78.7152 217.524,78.7152 216.084C78.7152 213.5496,80.76 211.764,82.8912 211.764C83.64 211.764,84.3888 211.99439999999998,85.1088 212.4264C86.3184 213.2616,86.8656 214.5288,86.8656 215.7672C86.8656 217.668,85.5408 219.54,83.2656 219.684L83.0352 219.684L83.208 219.79919999999998C84.1584 220.2024,85.1088 220.404,86.0304 220.404C88.3632 220.404,90.55199999999999 219.2232,91.8768 217.1784C92.62559999999999 216.0264,93.0288 214.6728,93.0288 213.3192C93.0288 212.8008,92.94239999999999 212.2824,92.8272 211.7064C92.8272 211.6488,92.74080000000001 211.188,92.62559999999999 210.756C91.992 207.6456,91.6176 205.8312,91.6176 205.8312C91.6176 205.8312,91.6176 205.8312,91.6176 205.8312C91.56 205.8312,91.4448 205.8312,91.3584 205.8888C91.0704 205.9464,90.4656 206.0904,90.2064 206.1192C89.5728 206.2056,88.968 206.2344,88.392 206.2344C82.74719999999999 206.2344,77.5056 202.4328,75.6912 196.8168C75.2304 195.3192,74.9712 193.8216,74.9712 192.324C74.9712 189.3288,75.9216 186.3912,77.7648 183.7704C79.7808 180.9192,81.7968 178.4712,84.2736 175.9368L85.13759999999999 175.044L84.936 173.9784L84.5616 172.2216L84.072 169.9752C83.928 169.14,83.7552 168.3336,83.7264 168.1608C83.5824 167.2104,83.496 166.2888,83.496 165.3384C83.496 161.7096,84.6768 158.22480000000002,86.8944 155.4312C87.5568 154.5672,88.7376 153.4152,89.0544 153.3288M90.8112 159.0312C90.7536 159.0312,90.6672 159.0312,90.5808 159.0312C89.4 159.0312,87.8736 160.1256,86.8368 161.7384C85.7712 163.32240000000002,85.224 165.4248,85.224 167.5848C85.224 168.1608,85.25280000000001 168.7656,85.3392 169.3704C85.4256 169.8024,85.45439999999999 170.0904,85.6848 171.12720000000002L86.088 172.9416C86.2032 173.4888,86.28960000000001 173.92079999999999,86.28960000000001 173.9784L86.28960000000001 173.9784C86.3184 173.9784,87.2112 172.9992,87.4992 172.6536C90.3792 169.3992,92.1072 165.972,92.4816 162.948C92.5104 162.66,92.5104 162.4296,92.5104 162.1416C92.5104 161.24880000000002,92.3952 160.38479999999998,92.1936 159.924C91.9632 159.4632,91.4448 159.0888,90.8112 159.0312M86.4624 181.2936C86.4048 180.8904,86.3184 180.5736,86.3184 180.516C86.3184 180.516,86.3184 180.516,86.28960000000001 180.516C86.232 180.516,84.9936 181.956,84.1296 182.964C82.6608 184.7496,81.1056 186.8808,80.472 187.9176C79.2624 189.9624,78.6576 192.2376,78.6576 194.484C78.6576 195.9528,78.9456 197.364,79.464 198.7176C81.0192 202.7208,84.5904 205.2264,88.4784 205.2264C88.9392 205.2264,89.4576 205.1976,89.9472 205.1112C90.5808 204.996,91.3584 204.7656,91.3584 204.6792L91.3584 204.6792C91.3584 204.6792,91.3008 204.3912,91.2144 204.0744L90.3792 199.956L89.7168 196.8744L89.2848 194.7432L88.824 192.6696C88.5936 191.4312,88.5072 191.1144,88.5072 191.1144C88.5072 191.1144,88.5072 191.0856,88.4784 191.0856C88.3056 191.0856,87.384 191.5464,86.9808 191.8344C85.4832 192.8712,84.7056 194.5128,84.7056 196.1256C84.7056 197.652,85.45439999999999 199.1784,86.8944 200.0712C87.2112 200.2728,87.3264 200.4456,87.3264 200.6472C87.3264 200.676,87.3264 200.7624,87.3264 200.7912C87.2688 201.1368,87.0672 201.2808,86.7792 201.2808C86.664 201.2808,86.52 201.252,86.3472 201.1656C83.6976 200.0136,81.912 197.2776,81.912 194.2824L81.912 194.2824C81.912 190.8264,84.072 187.8312,87.384 186.6504L87.5568 186.5928L87.2688 185.1528L86.4624 181.2936M90.7824 190.9128C90.55199999999999 190.88400000000001,90.3216 190.88400000000001,90.1488 190.88400000000001C90.0912 190.88400000000001,90.0048 190.88400000000001,89.9472 190.88400000000001L89.8032 190.88400000000001L89.9184 191.4024L90.5232 194.2248L90.8976 196.068L91.3008 197.8824L92.1072 201.8856L92.424 203.412C92.5392 203.8152,92.5968 204.1608,92.62559999999999 204.1608C92.62559999999999 204.1608,92.62559999999999 204.1608,92.62559999999999 204.1608C92.6544 204.1608,93.144 203.8728,93.4608 203.6424C94.9296 202.6056,96.024 200.9928,96.4272 199.3224C96.5712 198.7752,96.6288 198.1992,96.6288 197.652C96.6288 194.3112,94.152 191.2872,90.7824 190.9128"></path></g><path stroke-width="0.3" fill="#000000" stroke="none" stroke-dasharray="none" d="M116.8352 186.5M121.8464 167.8376C121.904 167.8376,122.1056 167.8376,122.336 167.8376C122.71039999999999 167.8376,123.1712 167.8376,123.3152 167.8376C125.9648 168.1256,128.0384 169.5656,128.4128 171.4376C128.4704 171.6104,128.4704 171.812,128.4704 172.0136C128.4704 172.244,128.4704 172.4456,128.4128 172.5608C128.0384 173.9144,126.45439999999999 175.1528,124.4384 175.7576C124.2944 175.8152,124.2368 175.8152,124.2368 175.844C124.2368 175.844,124.2368 175.844,124.2368 175.844C124.2656 175.844,124.352 175.8728,124.4384 175.8728C127.1744 176.8808,128.6144 178.8104,128.6144 180.6824C128.6144 182.1224,127.80799999999999 183.5048,125.9936 184.4264C124.928 185.0024,123.7472 185.2616,122.5952 185.2616C120.6944 185.2616,118.8224 184.5416,117.4976 183.2456C117.008 182.7848,116.8352 182.2088,116.8352 181.6328C116.8352 180.452,117.6704 179.3288,119.0528 179.3288L119.0528 179.3288C120.4352 179.3288,121.2128 180.3944,121.2128 181.4888C121.2128 182.324,120.7808 183.1592,119.8016 183.5624C119.8016 183.5624,119.8016 183.5624,119.8016 183.5624C119.8016 183.5912,120.6368 183.764,121.0688 183.7928C121.1264 183.7928,121.184 183.7928,121.2416 183.7928C123.1424 183.7928,124.4672 182.4392,124.4672 180.5672C124.4672 180.3656,124.4672 180.1928,124.4384 179.9912C124.1216 177.8888,122.71039999999999 176.3336,121.0688 176.276C120.6656 176.2472,120.464 176.0744,120.464 175.8152C120.464 175.4696,120.6368 175.3256,121.0688 175.3256C122.48 175.2392,123.6896 174.2888,124.1504 172.8488C124.2656 172.5608,124.2944 172.2728,124.2944 172.0424C124.2944 170.8328,123.4016 169.7384,122.0768 169.4504C121.8752 169.364,121.616 169.364,121.328 169.364C120.9248 169.364,120.5504 169.3928,120.1472 169.4504L120.032 169.4792L120.1472 169.5656C120.896 169.9688,121.2128 170.68880000000001,121.2128 171.4088C121.2128 172.3592,120.5792 173.3096,119.4848 173.5688C119.3408 173.5976,119.168 173.5976,119.024 173.5976C117.7568 173.5976,116.8064 172.4456,116.8064 171.236C116.8064 170.7176,116.9792 170.1992,117.4112 169.7672C118.4192 168.6728,119.9456 168.0392,121.8464 167.8376M122.71039999999999 186.5288L122.7392 186.5288L122.6528 186.5288L122.71039999999999 186.5288M122.71039999999999 167.1176L122.7392 167.1176L122.6528 167.1176L122.71039999999999 167.1176"></path><path stroke-width="0.3" fill="#000000" stroke="none" stroke-dasharray="none" d="M116 206.5M121.0112 188.1544C121.04 188.1256,121.4432 188.1256,122.6816 188.1256C123.056 188.1256,123.4592 188.1256,123.9776 188.1256L126.8864 188.1256L126.9728 188.212C127.1168 188.29840000000002,127.2032 188.4424,127.2032 188.5576C127.2032 188.7304,127.1168 188.8456,127.0016 188.9608C126.9728 189.0472,126.7136 189.2776,126.5408 189.5368L125.0144 191.2936L123.056 193.5112L122.0192 194.692L120.464 196.4776L118.4192 198.8104C118.0736 199.2424,117.6992 199.588,117.6992 199.588C117.6992 199.588,117.6992 199.588,117.6992 199.588C117.6992 199.6456,117.9584 199.6456,120.3488 199.6456L122.9696 199.6456L122.9696 197.7736C122.9696 195.8728,122.9696 195.844,122.9984 195.8152C123.056 195.7288,123.3152 195.412,124.3232 194.2312L124.7264 193.7992L125.1296 193.3672L125.7344 192.5896L126.368 191.9272L126.6848 191.524C126.8 191.3512,126.9728 191.3224,127.1168 191.3224C127.28960000000001 191.3224,127.4336 191.4088,127.52 191.5528C127.5488 191.6392,127.5488 191.6968,127.5488 193.828C127.5488 194.3176,127.5488 194.9224,127.5488 195.6424L127.5488 199.6456L128.2688 199.6456C128.9312 199.6456,128.96 199.6456,129.0464 199.6744C129.2768 199.7608,129.392 199.9912,129.392 200.2504C129.392 200.3944,129.3632 200.5672,129.248 200.6824C129.0752 200.8264,129.0464 200.8264,128.2688 200.8264L127.5488 200.8264L127.5488 201.316C127.5776 202.7848,127.8656 203.3608,128.9888 203.9656C129.392 204.1672,129.4784 204.2248,129.4784 204.5128C129.4784 204.7144,129.42079999999999 204.8008,129.2768 204.916L129.1904 204.9448L125.2448 204.9448L121.328 204.9448L121.2416 204.916C121.0688 204.8008,121.04 204.7144,121.04 204.5128C121.04 204.2248,121.0688 204.1672,121.5008 203.9656C122.624 203.3608,122.912 202.7848,122.912 201.316L122.912 200.8264L119.6 200.8264C118.9952 200.88400000000001,118.5056 200.88400000000001,118.1024 200.88400000000001C116.288 200.88400000000001,116.2592 200.8264,116.2304 200.8264C116.0576 200.7688,116 200.596,116 200.3944C116 200.3944,116 200.3944,116 200.3944C116 200.1928,116 200.1928,116.576 199.5304C118.9952 196.5928,120.6944 192.3304,120.6944 188.93200000000002C120.6944 188.4136,120.7808 188.2408,121.0112 188.1544M122.7392 206.5288L122.768 206.5288L122.6816 206.5288L122.7392 206.5288M122.7392 187.1176L122.768 187.1176L122.6816 187.1176L122.7392 187.1176"></path><path stroke-width="1" fill="none" stroke="#000000" stroke-dasharray="none" d="M138.4784 216.5L156.49663999999999 216.5"></path><g class="vf-stavenote" id="vf-auto4488004"><g class="vf-note" pointer-events="bounding-box"><g class="vf-stem" pointer-events="bounding-box"><path stroke-width="1.5" fill="none" stroke="#000000" stroke-dasharray="none" class="vf-stem" id="vf-auto4488004-stem" d="M152.74663999999999 216.5L152.74663999999999 181.5"></path></g><g class="vf-notehead" pointer-events="bounding-box"><path stroke-width="0.3" fill="#000000" stroke="none" stroke-dasharray="none" d="M141.4784 216.5M148.83535999999998 211.27712C148.94768 211.27712,149.11615999999998 211.27712,149.14424 211.27712C149.14424 211.27712,149.17231999999998 211.27712,149.17231999999998 211.27712C149.17231999999998 211.27712,149.3408 211.27712,149.4812 211.27712C152.0084 211.41752,153.49663999999999 213.07424,153.49663999999999 215.15216C153.49663999999999 216.16304,153.15967999999998 217.31432,152.31727999999998 218.40944C150.71671999999998 220.5716,148.10528 221.75096,145.83079999999998 221.75096C144.06176 221.75096,142.54543999999999 221.04896,141.81536 219.61688C141.59072 219.05528,141.4784 218.52176,141.4784 217.93208C141.4784 214.87136,144.90416 211.47368,148.83535999999998 211.27712"></path></g></g><g class="vf-modifiers"></g></g><path stroke-width="1" fill="none" stroke="#000000" stroke-dasharray="none" d="M274.50351679999994 166.5L401.2286335999999 166.5"></path><path stroke-width="1" fill="none" stroke="#000000" stroke-dasharray="none" d="M274.50351679999994 176.5L401.2286335999999 176.5"></path><path stroke-width="1" fill="none" stroke="#000000" stroke-dasharray="none" d="M274.50351679999994 186.5L401.2286335999999 186.5"></path><path stroke-width="1" fill="none" stroke="#000000" stroke-dasharray="none" d="M274.50351679999994 196.5L401.2286335999999 196.5"></path><path stroke-width="1" fill="none" stroke="#000000" stroke-dasharray="none" d="M274.50351679999994 206.5L401.2286335999999 206.5"></path><rect stroke-width="0.3" fill="#000000" stroke="#000000" stroke-dasharray="none" x="401.2286335999999" y="166" width="1" height="41"></rect><g class="vf-stavenote" id="vf-auto4488032"><g class="vf-note" pointer-events="bounding-box"><g class="vf-stem" pointer-events="bounding-box"><path stroke-width="1.5" fill="none" stroke="#000000" stroke-dasharray="none" class="vf-stem" id="vf-auto4488032-stem" d="M339.77175679999993 201.5L339.77175679999993 166.5"></path></g><g class="vf-notehead" pointer-events="bounding-box"><path stroke-width="0.3" fill="#000000" stroke="none" stroke-dasharray="none" d="M328.50351679999994 201.5M335.86047679999996 196.27712C335.97279679999997 196.27712,336.14127679999996 196.27712,336.16935679999995 196.27712C336.16935679999995 196.27712,336.19743679999993 196.27712,336.19743679999993 196.27712C336.19743679999993 196.27712,336.3659167999999 196.27712,336.5063167999999 196.27712C339.0335167999999 196.41752,340.52175679999993 198.07424,340.52175679999993 200.15216C340.52175679999993 201.16304,340.18479679999996 202.31432,339.34239679999996 203.40944C337.74183679999993 205.5716,335.13039679999997 206.75096,332.85591679999993 206.75096C331.08687679999997 206.75096,329.57055679999996 206.04896,328.8404767999999 204.61688C328.61583679999995 204.05528,328.50351679999994 203.52176,328.50351679999994 202.93208C328.50351679999994 199.87136,331.92927679999997 196.47368,335.86047679999996 196.27712"></path></g></g><g class="vf-modifiers"></g></g><path stroke-width="1" fill="none" stroke="#000000" stroke-dasharray="none" d="M362.50351679999994 216.5L380.52175679999993 216.5"></path><g class="vf-stavenote" id="vf-auto4488040"><g class="vf-note" pointer-events="bounding-box"><g class="vf-stem" pointer-events="bounding-box"><path stroke-width="1.5" fill="none" stroke="#000000" stroke-dasharray="none" class="vf-stem" id="vf-auto4488040-stem" d="M376.77175679999993 221.5L376.77175679999993 186.5"></path></g><g class="vf-notehead" pointer-events="bounding-box"><path stroke-width="0.3" fill="#000000" stroke="none" stroke-dasharray="none" d="M365.50351679999994 221.5M372.86047679999996 216.27712C372.97279679999997 216.27712,373.14127679999996 216.27712,373.16935679999995 216.27712C373.16935679999995 216.27712,373.19743679999993 216.27712,373.19743679999993 216.27712C373.19743679999993 216.27712,373.3659167999999 216.27712,373.5063167999999 216.27712C376.0335167999999 216.41752,377.52175679999993 218.07424,377.52175679999993 220.15216C377.52175679999993 221.16304,377.18479679999996 222.31432,376.34239679999996 223.40944C374.74183679999993 225.5716,372.13039679999997 226.75096,369.85591679999993 226.75096C368.08687679999997 226.75096,366.57055679999996 226.04896,365.8404767999999 224.61688C365.61583679999995 224.05528,365.50351679999994 223.52176,365.50351679999994 222.93208C365.50351679999994 219.87136,368.92927679999997 216.47368,372.86047679999996 216.27712"></path></g></g><g class="vf-modifiers"></g></g><path stroke-width="1" fill="none" stroke="#000000" stroke-dasharray="none" d="M401.22863359999997 166.5L532.1537503999999 166.5"></path><path stroke-width="1" fill="none" stroke="#000000" stroke-dasharray="none" d="M401.22863359999997 176.5L532.1537503999999 176.5"></path><path stroke-width="1" fill="none" stroke="#000000" stroke-dasharray="none" d="M401.22863359999997 186.5L532.1537503999999 186.5"></path><path stroke-width="1" fill="none" stroke="#000000" stroke-dasharray="none" d="M401.22863359999997 196.5L532.1537503999999 196.5"></path><path stroke-width="1" fill="none" stroke="#000000" stroke-dasharray="none" d="M401.22863359999997 206.5L532.1537503999999 206.5"></path><rect stroke-width="0.3" fill="#000000" stroke="#000000" stroke-dasharray="none" x="532.1537503999999" y="166" width="1" height="41"></rect><g class="vf-stavenote" id="vf-auto4488060"><g class="vf-note" pointer-events="bounding-box"><g class="vf-stem" pointer-events="bounding-box"><path stroke-width="1.5" fill="none" stroke="#000000" stroke-dasharray="none" class="vf-stem" id="vf-auto4488060-stem" d="M418.97863359999997 176.5L418.97863359999997 211.5"></path></g><g class="vf-notehead" pointer-events="bounding-box"><path stroke-width="0.3" fill="#000000" stroke="none" stroke-dasharray="none" d="M418.22863359999997 176.5M425.5855936 171.27712C425.6979136 171.27712,425.8663936 171.27712,425.89447359999997 171.27712C425.89447359999997 171.27712,425.92255359999996 171.27712,425.92255359999996 171.27712C425.92255359999996 171.27712,426.09103359999995 171.27712,426.23143359999995 171.27712C428.75863359999994 171.41752,430.24687359999996 173.07424,430.24687359999996 175.15216C430.24687359999996 176.16304,429.9099136 177.31432,429.0675136 178.40944C427.46695359999995 180.5716,424.8555136 181.75096,422.58103359999996 181.75096C420.8119936 181.75096,419.2956736 181.04896,418.56559359999994 179.61688C418.3409536 179.05528,418.22863359999997 178.52176,418.22863359999997 177.93208C418.22863359999997 174.87136,421.6543936 171.47368,425.5855936 171.27712"></path></g></g><g class="vf-modifiers"></g></g><g class="vf-stavenote" id="vf-auto4488068"><g class="vf-note" pointer-events="bounding-box"><g class="vf-stem" pointer-events="bounding-box"><path stroke-width="1.5" fill="none" stroke="#000000" stroke-dasharray="none" class="vf-stem" id="vf-auto4488068-stem" d="M467.8302069333333 196.5L467.8302069333333 161.5"></path></g><g class="vf-notehead" pointer-events="bounding-box"><path stroke-width="0.3" fill="#000000" stroke="none" stroke-dasharray="none" d="M456.5619669333333 196.5M463.9189269333333 191.27712C464.0312469333333 191.27712,464.1997269333333 191.27712,464.2278069333333 191.27712C464.2278069333333 191.27712,464.2558869333333 191.27712,464.2558869333333 191.27712C464.2558869333333 191.27712,464.42436693333326 191.27712,464.56476693333326 191.27712C467.0919669333333 191.41752,468.5802069333333 193.07424,468.5802069333333 195.15216C468.5802069333333 196.16304,468.2432469333333 197.31432,467.4008469333333 198.40944C465.80028693333327 200.5716,463.18884693333325 201.75096,460.91436693333327 201.75096C459.1453269333333 201.75096,457.6290069333333 201.04896,456.89892693333326 199.61688C456.6742869333333 199.05528,456.5619669333333 198.52176,456.5619669333333 197.93208C456.5619669333333 194.87136,459.9877269333333 191.47368,463.9189269333333 191.27712"></path></g></g><g class="vf-modifiers"></g></g><g class="vf-stavenote" id="vf-auto4488076"><g class="vf-note" pointer-events="bounding-box"><g class="vf-stem" pointer-events="bounding-box"><path stroke-width="1.5" fill="none" stroke="#000000" stroke-dasharray="none" class="vf-stem" id="vf-auto4488076-stem" d="M495.6453002666666 186.5L495.6453002666666 221.5"></path></g><g class="vf-notehead" pointer-events="bounding-box"><path stroke-width="0.3" fill="#000000" stroke="none" stroke-dasharray="none" d="M494.8953002666666 186.5M502.2522602666666 181.27712C502.3645802666666 181.27712,502.5330602666666 181.27712,502.5611402666666 181.27712C502.5611402666666 181.27712,502.5892202666666 181.27712,502.5892202666666 181.27712C502.5892202666666 181.27712,502.7577002666666 181.27712,502.8981002666666 181.27712C505.42530026666657 181.41752,506.9135402666666 183.07424,506.9135402666666 185.15216C506.9135402666666 186.16304,506.5765802666666 187.31432,505.7341802666666 188.40944C504.1336202666666 190.5716,501.5221802666666 191.75096,499.2477002666666 191.75096C497.4786602666666 191.75096,495.9623402666666 191.04896,495.2322602666666 189.61688C495.0076202666666 189.05528,494.8953002666666 188.52176,494.8953002666666 187.93208C494.8953002666666 184.87136,498.3210602666666 181.47368,502.2522602666666 181.27712"></path></g></g><g class="vf-modifiers"></g></g><path stroke-width="1" fill="none" stroke="#000000" stroke-dasharray="none" d="M532.1537504 166.5L664.6788672 166.5"></path><path stroke-width="1" fill="none" stroke="#000000" stroke-dasharray="none" d="M532.1537504 176.5L664.6788672 176.5"></path><path stroke-width="1" fill="none" stroke="#000000" stroke-dasharray="none" d="M532.1537504 186.5L664.6788672 186.5"></path><path stroke-width="1" fill="none" stroke="#000000" stroke-dasharray="none" d="M532.1537504 196.5L664.6788672 196.5"></path><path stroke-width="1" fill="none" stroke="#000000" stroke-dasharray="none" d="M532.1537504 206.5L664.6788672 206.5"></path><rect stroke-width="0.3" fill="#000000" stroke="#000000" stroke-dasharray="none" x="659.6788672" y="166" width="1" height="41"></rect><rect stroke-width="0.3" fill="#000000" stroke="#000000" stroke-dasharray="none" x="662.6788672" y="166" width="3" height="41"></rect><path stroke-width="0.3" fill="#000000" stroke="none" stroke-dasharray="none" d="M658.6788672 182 A2 2 0 0 0 654.6788672 182M654.6788672 182 A2 2 0 0 0 658.6788672 182"></path><path stroke-width="0.3" fill="#000000" stroke="none" stroke-dasharray="none" d="M658.6788672 192 A2 2 0 0 0 654.6788672 192M654.6788672 192 A2 2 0 0 0 658.6788672 192"></path><g class="vf-stavenote" id="vf-auto4488085"><g class="vf-note" pointer-events="bounding-box"><g class="vf-stem" pointer-events="bounding-box"><path stroke-width="1.5" fill="none" stroke="#000000" stroke-dasharray="none" class="vf-stem" id="vf-auto4488085-stem" d="M549.9037504 176.5L549.9037504 211.5"></path></g><g class="vf-notehead" pointer-events="bounding-box"><path stroke-width="0.3" fill="#000000" stroke="none" stroke-dasharray="none" d="M549.1537504 176.5M556.5107104 171.27712C556.6230304000001 171.27712,556.7915104 171.27712,556.8195904 171.27712C556.8195904 171.27712,556.8476704000001 171.27712,556.8476704000001 171.27712C556.8476704000001 171.27712,557.0161504 171.27712,557.1565504 171.27712C559.6837504 171.41752,561.1719904 173.07424,561.1719904 175.15216C561.1719904 176.16304,560.8350304 177.31432,559.9926304 178.40944C558.3920704000001 180.5716,555.7806304000001 181.75096,553.5061504 181.75096C551.7371104 181.75096,550.2207904 181.04896,549.4907104 179.61688C549.2660704 179.05528,549.1537504 178.52176,549.1537504 177.93208C549.1537504 174.87136,552.5795104 171.47368,556.5107104 171.27712"></path></g></g><g class="vf-modifiers"></g></g><g class="vf-text"><text stroke-width="0.3" fill="#000000" stroke="none" stroke-dasharray="none" font-family="Times New Roman" font-size="23px" font-weight="bold" font-style="italic" x="135.98752" y="244.29999999999998">pp</text></g><path stroke-width="1" fill="none" stroke="#000000" stroke-dasharray="none" d="M70 259.09999999999997L274.50351679999994 259.09999999999997"></path><path stroke-width="1" fill="none" stroke="#000000" stroke-dasharray="none" d="M70 269.09999999999997L274.50351679999994 269.09999999999997"></path><path stroke-width="1" fill="none" stroke="#000000" stroke-dasharray="none" d="M70 279.09999999999997L274.50351679999994 279.09999999999997"></path><path stroke-width="1" fill="none" stroke="#000000" stroke-dasharray="none" d="M70 289.09999999999997L274.50351679999994 289.09999999999997"></path><path stroke-width="1" fill="none" stroke="#000000" stroke-dasharray="none" d="M70 299.09999999999997L274.50351679999994 299.09999999999997"></path><rect stroke-width="0.3" fill="#000000" stroke="#000000" stroke-dasharray="none" x="274.50351679999994" y="258.59999999999997" width="1" height="41"></rect><g class="vf-clef"><path stroke-width="0.3" fill="#000000" stroke="none" stroke-dasharray="none" d="M75 269.09999999999997M83.8416 259.04879999999997C84.072 258.9912,84.3024 258.9912,84.5616 258.9912C85.5696 258.9912,86.7504 259.10639999999995,87.7584 259.308C92.4816 260.2872,95.736 263.484,96.3408 267.7464C96.3984 268.20719999999994,96.4272 268.63919999999996,96.4272 269.09999999999997C96.4272 271.69199999999995,95.5344 275.03279999999995,94.008 277.8264C90.3792 284.39279999999997,83.7552 289.116,75.8064 290.84399999999994C75.6624 290.84399999999994,75.5472 290.8728,75.4032 290.8728C75.1152 290.8728,74.9712 290.7,74.9712 290.44079999999997C74.9712 290.15279999999996,75.0288 290.0664,75.6048 289.83599999999996C84.7056 286.4088,90.7824 279.00719999999995,91.3296 270.71279999999996C91.3584 270.28079999999994,91.3584 269.79119999999995,91.3584 269.41679999999997C91.3584 265.3848,90.12 262.3896,87.7296 260.89199999999994C86.6928 260.22959999999995,85.5696 259.91279999999995,84.36 259.91279999999995C81.6816 259.91279999999995,78.9456 261.43919999999997,77.6784 264.00239999999997C77.6208 264.20399999999995,77.4192 264.63599999999997,77.4192 264.66479999999996C77.4192 264.66479999999996,77.4192 264.66479999999996,77.4192 264.66479999999996C77.4192 264.66479999999996,77.448 264.63599999999997,77.5344 264.6072C78.168 264.20399999999995,78.8592 264.00239999999997,79.5792 264.00239999999997C80.5872 264.00239999999997,81.6528 264.4344,82.4016 265.2408C83.0928 265.98959999999994,83.4672 266.9976,83.4672 267.9192C83.4672 269.79119999999995,82.0848 271.69199999999995,79.9248 271.8936C79.7808 271.8936,79.6368 271.9224,79.4928 271.9224C77.1024 271.9224,75.1728 269.73359999999997,75.1728 266.9688C75.1728 266.91119999999995,75.1728 266.8248,75.1728 266.796C75.288 262.6776,79.0608 259.308,83.8416 259.04879999999997M99.1632 262.90799999999996C99.2208 262.87919999999997,99.2496 262.87919999999997,99.336 262.87919999999997C99.5376 262.87919999999997,99.768 262.90799999999996,99.8256 262.9656C100.54560000000001 263.1672,100.8912 263.8008,100.8912 264.4056C100.8912 264.924,100.632 265.44239999999996,100.11359999999999 265.7304C99.912 265.8744,99.6528 265.90319999999997,99.39359999999999 265.90319999999997C98.9904 265.90319999999997,98.5584 265.7304,98.2704 265.356C98.03999999999999 265.068,97.9248 264.7512,97.9248 264.4344C97.9248 263.71439999999996,98.3856 262.9944,99.1632 262.90799999999996M99.1632 272.32559999999995C99.2208 272.32559999999995,99.2496 272.32559999999995,99.336 272.32559999999995C99.5376 272.32559999999995,99.768 272.35439999999994,99.8256 272.412C100.54560000000001 272.61359999999996,100.8912 273.24719999999996,100.8912 273.852C100.8912 274.37039999999996,100.632 274.88879999999995,100.11359999999999 275.14799999999997C99.912 275.292,99.6528 275.34959999999995,99.39359999999999 275.34959999999995C98.9904 275.34959999999995,98.5584 275.14799999999997,98.2704 274.8024C98.03999999999999 274.51439999999997,97.9248 274.19759999999997,97.9248 273.852C97.9248 273.13199999999995,98.3856 272.44079999999997,99.1632 272.32559999999995"></path></g><path stroke-width="0.3" fill="#000000" stroke="none" stroke-dasharray="none" d="M116.8352 279.09999999999997M121.8464 260.4376C121.904 260.4376,122.1056 260.4376,122.336 260.4376C122.71039999999999 260.4376,123.1712 260.4376,123.3152 260.4376C125.9648 260.7256,128.0384 262.1656,128.4128 264.03759999999994C128.4704 264.2104,128.4704 264.412,128.4704 264.61359999999996C128.4704 264.84399999999994,128.4704 265.0456,128.4128 265.1608C128.0384 266.51439999999997,126.45439999999999 267.7528,124.4384 268.3576C124.2944 268.41519999999997,124.2368 268.41519999999997,124.2368 268.44399999999996C124.2368 268.44399999999996,124.2368 268.44399999999996,124.2368 268.44399999999996C124.2656 268.44399999999996,124.352 268.47279999999995,124.4384 268.47279999999995C127.1744 269.4808,128.6144 271.4104,128.6144 273.28239999999994C128.6144 274.7224,127.80799999999999 276.10479999999995,125.9936 277.02639999999997C124.928 277.6024,123.7472 277.86159999999995,122.5952 277.86159999999995C120.6944 277.86159999999995,118.8224 277.1416,117.4976 275.8456C117.008 275.3848,116.8352 274.80879999999996,116.8352 274.23279999999994C116.8352 273.05199999999996,117.6704 271.92879999999997,119.0528 271.92879999999997L119.0528 271.92879999999997C120.4352 271.92879999999997,121.2128 272.9944,121.2128 274.0888C121.2128 274.924,120.7808 275.75919999999996,119.8016 276.1624C119.8016 276.1624,119.8016 276.1624,119.8016 276.1624C119.8016 276.1912,120.6368 276.364,121.0688 276.39279999999997C121.1264 276.39279999999997,121.184 276.39279999999997,121.2416 276.39279999999997C123.1424 276.39279999999997,124.4672 275.0392,124.4672 273.1672C124.4672 272.9656,124.4672 272.79279999999994,124.4384 272.59119999999996C124.1216 270.48879999999997,122.71039999999999 268.93359999999996,121.0688 268.876C120.6656 268.8472,120.464 268.6744,120.464 268.41519999999997C120.464 268.0696,120.6368 267.9256,121.0688 267.9256C122.48 267.83919999999995,123.6896 266.88879999999995,124.1504 265.44879999999995C124.2656 265.1608,124.2944 264.8728,124.2944 264.64239999999995C124.2944 263.4328,123.4016 262.3384,122.0768 262.05039999999997C121.8752 261.96399999999994,121.616 261.96399999999994,121.328 261.96399999999994C120.9248 261.96399999999994,120.5504 261.9928,120.1472 262.05039999999997L120.032 262.07919999999996L120.1472 262.1656C120.896 262.56879999999995,121.2128 263.2888,121.2128 264.00879999999995C121.2128 264.95919999999995,120.5792 265.90959999999995,119.4848 266.1688C119.3408 266.19759999999997,119.168 266.19759999999997,119.024 266.19759999999997C117.7568 266.19759999999997,116.8064 265.0456,116.8064 263.83599999999996C116.8064 263.31759999999997,116.9792 262.7992,117.4112 262.36719999999997C118.4192 261.27279999999996,119.9456 260.63919999999996,121.8464 260.4376M122.71039999999999 279.12879999999996L122.7392 279.12879999999996L122.6528 279.12879999999996L122.71039999999999 279.12879999999996M122.71039999999999 259.71759999999995L122.7392 259.71759999999995L122.6528 259.71759999999995L122.71039999999999 259.71759999999995"></path><path stroke-width="0.3" fill="#000000" stroke="none" stroke-dasharray="none" d="M116 299.09999999999997M121.0112 280.7544C121.04 280.7256,121.4432 280.7256,122.6816 280.7256C123.056 280.7256,123.4592 280.7256,123.9776 280.7256L126.8864 280.7256L126.9728 280.81199999999995C127.1168 280.8984,127.2032 281.0424,127.2032 281.15759999999995C127.2032 281.33039999999994,127.1168 281.44559999999996,127.0016 281.5608C126.9728 281.64719999999994,126.7136 281.8776,126.5408 282.1368L125.0144 283.8936L123.056 286.11119999999994L122.0192 287.292L120.464 289.07759999999996L118.4192 291.4104C118.0736 291.84239999999994,117.6992 292.188,117.6992 292.188C117.6992 292.188,117.6992 292.188,117.6992 292.188C117.6992 292.24559999999997,117.9584 292.24559999999997,120.3488 292.24559999999997L122.9696 292.24559999999997L122.9696 290.37359999999995C122.9696 288.47279999999995,122.9696 288.44399999999996,122.9984 288.41519999999997C123.056 288.32879999999994,123.3152 288.01199999999994,124.3232 286.83119999999997L124.7264 286.39919999999995L125.1296 285.9672L125.7344 285.1896L126.368 284.5272L126.6848 284.12399999999997C126.8 283.9512,126.9728 283.9224,127.1168 283.9224C127.28960000000001 283.9224,127.4336 284.00879999999995,127.52 284.15279999999996C127.5488 284.2392,127.5488 284.29679999999996,127.5488 286.42799999999994C127.5488 286.9176,127.5488 287.52239999999995,127.5488 288.2424L127.5488 292.24559999999997L128.2688 292.24559999999997C128.9312 292.24559999999997,128.96 292.24559999999997,129.0464 292.27439999999996C129.2768 292.3608,129.392 292.59119999999996,129.392 292.8504C129.392 292.9944,129.3632 293.1672,129.248 293.28239999999994C129.0752 293.42639999999994,129.0464 293.42639999999994,128.2688 293.42639999999994L127.5488 293.42639999999994L127.5488 293.91599999999994C127.5776 295.3848,127.8656 295.96079999999995,128.9888 296.56559999999996C129.392 296.76719999999995,129.4784 296.8248,129.4784 297.1128C129.4784 297.3144,129.42079999999999 297.40079999999995,129.2768 297.51599999999996L129.1904 297.54479999999995L125.2448 297.54479999999995L121.328 297.54479999999995L121.2416 297.51599999999996C121.0688 297.40079999999995,121.04 297.3144,121.04 297.1128C121.04 296.8248,121.0688 296.76719999999995,121.5008 296.56559999999996C122.624 295.96079999999995,122.912 295.3848,122.912 293.91599999999994L122.912 293.42639999999994L119.6 293.42639999999994C118.9952 293.484,118.5056 293.484,118.1024 293.484C116.288 293.484,116.2592 293.42639999999994,116.2304 293.42639999999994C116.0576 293.36879999999996,116 293.19599999999997,116 292.9944C116 292.9944,116 292.9944,116 292.9944C116 292.79279999999994,116 292.79279999999994,116.576 292.13039999999995C118.9952 289.1928,120.6944 284.93039999999996,120.6944 281.532C120.6944 281.01359999999994,120.7808 280.84079999999994,121.0112 280.7544M122.7392 299.12879999999996L122.768 299.12879999999996L122.6816 299.12879999999996L122.7392 299.12879999999996M122.7392 279.71759999999995L122.768 279.71759999999995L122.6816 279.71759999999995L122.7392 279.71759999999995"></path><g class="vf-stavenote" id="vf-auto4488014"><g class="vf-note" pointer-events="bounding-box"><g class="vf-stem" pointer-events="bounding-box"><path stroke-width="1.5" fill="none" stroke="#000000" stroke-dasharray="none" class="vf-stem" id="vf-auto4488014-stem" d="M187.06893333333332 254.09999999999997L187.06893333333332 289.09999999999997"></path></g><g class="vf-notehead" pointer-events="bounding-box"><path stroke-width="0.3" fill="#000000" stroke="none" stroke-dasharray="none" d="M186.31893333333332 254.09999999999997M193.6758933333333 248.87711999999996C193.78821333333332 248.87711999999996,193.9566933333333 248.87711999999996,193.98477333333332 248.87711999999996C193.98477333333332 248.87711999999996,194.0128533333333 248.87711999999996,194.0128533333333 248.87711999999996C194.0128533333333 248.87711999999996,194.18133333333333 248.87711999999996,194.32173333333333 248.87711999999996C196.84893333333332 249.01751999999996,198.3371733333333 250.67423999999997,198.3371733333333 252.75215999999998C198.3371733333333 253.76303999999996,198.0002133333333 254.91431999999998,197.1578133333333 256.00944C195.5572533333333 258.17159999999996,192.94581333333332 259.35096,190.6713333333333 259.35096C188.90229333333332 259.35096,187.3859733333333 258.64896,186.65589333333332 257.21687999999995C186.43125333333333 256.65527999999995,186.31893333333332 256.12175999999994,186.31893333333332 255.53207999999998C186.31893333333332 252.47135999999998,189.74469333333332 249.07367999999997,193.6758933333333 248.87711999999996"></path></g></g><g class="vf-modifiers"></g></g><g class="vf-stavenote" id="vf-auto4488022"><g class="vf-note" pointer-events="bounding-box"><g class="vf-stem" pointer-events="bounding-box"><path stroke-width="1.5" fill="none" stroke="#000000" stroke-dasharray="none" class="vf-stem" id="vf-auto4488022-stem" d="M231.90946666666667 254.09999999999997L231.90946666666667 289.09999999999997"></path></g><g class="vf-notehead" pointer-events="bounding-box"><path stroke-width="0.3" fill="#000000" stroke="none" stroke-dasharray="none" d="M231.15946666666667 254.09999999999997M238.51642666666666 248.87711999999996C238.62874666666667 248.87711999999996,238.7972266666667 248.87711999999996,238.82530666666668 248.87711999999996C238.82530666666668 248.87711999999996,238.85338666666667 248.87711999999996,238.85338666666667 248.87711999999996C238.85338666666667 248.87711999999996,239.02186666666668 248.87711999999996,239.16226666666668 248.87711999999996C241.68946666666668 249.01751999999996,243.17770666666667 250.67423999999997,243.17770666666667 252.75215999999998C243.17770666666667 253.76303999999996,242.8407466666667 254.91431999999998,241.99834666666666 256.00944C240.39778666666666 258.17159999999996,237.78634666666667 259.35096,235.51186666666666 259.35096C233.74282666666667 259.35096,232.22650666666667 258.64896,231.49642666666668 257.21687999999995C231.27178666666669 256.65527999999995,231.15946666666667 256.12175999999994,231.15946666666667 255.53207999999998C231.15946666666667 252.47135999999998,234.58522666666667 249.07367999999997,238.51642666666666 248.87711999999996"></path></g></g><g class="vf-modifiers"></g></g><rect stroke-width="0.3" fill="#000000" stroke="#000000" stroke-dasharray="none" x="274.50351679999994" y="166.5" width="1" height="133.59999999999997"></rect><rect stroke-width="0.3" fill="#000000" stroke="#000000" stroke-dasharray="none" x="70" y="166.5" width="1" height="133.59999999999997"></rect><path stroke-width="1" fill="none" stroke="#000000" stroke-dasharray="none" d="M274.50351679999994 259.09999999999997L401.2286335999999 259.09999999999997"></path><path stroke-width="1" fill="none" stroke="#000000" stroke-dasharray="none" d="M274.50351679999994 269.09999999999997L401.2286335999999 269.09999999999997"></path><path stroke-width="1" fill="none" stroke="#000000" stroke-dasharray="none" d="M274.50351679999994 279.09999999999997L401.2286335999999 279.09999999999997"></path><path stroke-width="1" fill="none" stroke="#000000" stroke-dasharray="none" d="M274.50351679999994 289.09999999999997L401.2286335999999 289.09999999999997"></path><path stroke-width="1" fill="none" stroke="#000000" stroke-dasharray="none" d="M274.50351679999994 299.09999999999997L401.2286335999999 299.09999999999997"></path><rect stroke-width="0.3" fill="#000000" stroke="#000000" stroke-dasharray="none" x="401.2286335999999" y="258.59999999999997" width="1" height="41"></rect><g class="vf-stavenote" id="vf-auto4488050"><g class="vf-note" pointer-events="bounding-box"><g class="vf-stem" pointer-events="bounding-box"><path stroke-width="1.5" fill="none" stroke="#000000" stroke-dasharray="none" class="vf-stem" id="vf-auto4488050-stem" d="M292.25351679999994 264.09999999999997L292.25351679999994 299.09999999999997"></path></g><g class="vf-notehead" pointer-events="bounding-box"><path stroke-width="0.3" fill="#000000" stroke="none" stroke-dasharray="none" d="M291.50351679999994 264.09999999999997M298.86047679999996 258.87712C298.97279679999997 258.87712,299.14127679999996 258.87712,299.16935679999995 258.87712C299.16935679999995 258.87712,299.19743679999993 258.87712,299.19743679999993 258.87712C299.19743679999993 258.87712,299.3659167999999 258.87712,299.5063167999999 258.87712C302.0335167999999 259.01752,303.52175679999993 260.67423999999994,303.52175679999993 262.75215999999995C303.52175679999993 263.76304,303.18479679999996 264.91432,302.34239679999996 266.00944C300.74183679999993 268.17159999999996,298.13039679999997 269.35096,295.85591679999993 269.35096C294.08687679999997 269.35096,292.57055679999996 268.64896,291.8404767999999 267.21687999999995C291.61583679999995 266.65527999999995,291.50351679999994 266.12175999999994,291.50351679999994 265.53207999999995C291.50351679999994 262.47135999999995,294.92927679999997 259.07367999999997,298.86047679999996 258.87712"></path></g></g><g class="vf-modifiers"></g></g><rect stroke-width="0.3" fill="#000000" stroke="#000000" stroke-dasharray="none" x="401.2286335999999" y="166.5" width="1" height="133.59999999999997"></rect><path stroke-width="1" fill="none" stroke="#000000" stroke-dasharray="none" d="M401.22863359999997 259.09999999999997L532.1537503999999 259.09999999999997"></path><path stroke-width="1" fill="none" stroke="#000000" stroke-dasharray="none" d="M401.22863359999997 269.09999999999997L532.1537503999999 269.09999999999997"></path><path stroke-width="1" fill="none" stroke="#000000" stroke-dasharray="none" d="M401.22863359999997 279.09999999999997L532.1537503999999 279.09999999999997"></path><path stroke-width="1" fill="none" stroke="#000000" stroke-dasharray="none" d="M401.22863359999997 289.09999999999997L532.1537503999999 289.09999999999997"></path><path stroke-width="1" fill="none" stroke="#000000" stroke-dasharray="none" d="M401.22863359999997 299.09999999999997L532.1537503999999 299.09999999999997"></path><rect stroke-width="0.3" fill="#000000" stroke="#000000" stroke-dasharray="none" x="532.1537503999999" y="258.59999999999997" width="1" height="41"></rect><rect stroke-width="0.3" fill="#000000" stroke="#000000" stroke-dasharray="none" x="532.1537503999999" y="166.5" width="1" height="133.59999999999997"></rect><path stroke-width="1" fill="none" stroke="#000000" stroke-dasharray="none" d="M532.1537504 259.09999999999997L664.6788672 259.09999999999997"></path><path stroke-width="1" fill="none" stroke="#000000" stroke-dasharray="none" d="M532.1537504 269.09999999999997L664.6788672 269.09999999999997"></path><path stroke-width="1" fill="none" stroke="#000000" stroke-dasharray="none" d="M532.1537504 279.09999999999997L664.6788672 279.09999999999997"></path><path stroke-width="1" fill="none" stroke="#000000" stroke-dasharray="none" d="M532.1537504 289.09999999999997L664.6788672 289.09999999999997"></path><path stroke-width="1" fill="none" stroke="#000000" stroke-dasharray="none" d="M532.1537504 299.09999999999997L664.6788672 299.09999999999997"></path><rect stroke-width="0.3" fill="#000000" stroke="#000000" stroke-dasharray="none" x="659.6788672" y="258.59999999999997" width="1" height="41"></rect><rect stroke-width="0.3" fill="#000000" stroke="#000000" stroke-dasharray="none" x="662.6788672" y="258.59999999999997" width="3" height="41"></rect><path stroke-width="0.3" fill="#000000" stroke="none" stroke-dasharray="none" d="M658.6788672 274.59999999999997 A2 2 0 0 0 654.6788672 274.59999999999997M654.6788672 274.59999999999997 A2 2 0 0 0 658.6788672 274.59999999999997"></path><path stroke-width="0.3" fill="#000000" stroke="none" stroke-dasharray="none" d="M658.6788672 284.59999999999997 A2 2 0 0 0 654.6788672 284.59999999999997M654.6788672 284.59999999999997 A2 2 0 0 0 658.6788672 284.59999999999997"></path><g class="vf-stavenote" id="vf-auto4488095"><g class="vf-note" pointer-events="bounding-box"><g class="vf-stem" pointer-events="bounding-box"><path stroke-width="1.5" fill="none" stroke="#000000" stroke-dasharray="none" class="vf-stem" id="vf-auto4488095-stem" d="M588.9037504 254.09999999999997L588.9037504 289.09999999999997"></path></g><g class="vf-notehead" pointer-events="bounding-box"><path stroke-width="0.3" fill="#000000" stroke="none" stroke-dasharray="none" d="M588.1537504 254.09999999999997M595.5107104 248.87711999999996C595.6230304000001 248.87711999999996,595.7915104 248.87711999999996,595.8195904 248.87711999999996C595.8195904 248.87711999999996,595.8476704000001 248.87711999999996,595.8476704000001 248.87711999999996C595.8476704000001 248.87711999999996,596.0161504 248.87711999999996,596.1565504 248.87711999999996C598.6837504 249.01751999999996,600.1719904 250.67423999999997,600.1719904 252.75215999999998C600.1719904 253.76303999999996,599.8350304 254.91431999999998,598.9926304 256.00944C597.3920704000001 258.17159999999996,594.7806304000001 259.35096,592.5061504 259.35096C590.7371104 259.35096,589.2207904 258.64896,588.4907104 257.21687999999995C588.2660704 256.65527999999995,588.1537504 256.12175999999994,588.1537504 255.53207999999998C588.1537504 252.47135999999998,591.5795104 249.07367999999997,595.5107104 248.87711999999996"></path></g></g><g class="vf-modifiers"></g></g><g class="vf-stavenote" id="vf-auto4488103"><g class="vf-note" pointer-events="bounding-box"><g class="vf-stem" pointer-events="bounding-box"><path stroke-width="1.5" fill="none" stroke="#000000" stroke-dasharray="none" class="vf-stem" id="vf-auto4488103-stem" d="M627.9037504 254.09999999999997L627.9037504 289.09999999999997"></path></g><g class="vf-notehead" pointer-events="bounding-box"><path stroke-width="0.3" fill="#000000" stroke="none" stroke-dasharray="none" d="M627.1537504 254.09999999999997M634.5107104 248.87711999999996C634.6230304000001 248.87711999999996,634.7915104 248.87711999999996,634.8195904 248.87711999999996C634.8195904 248.87711999999996,634.8476704000001 248.87711999999996,634.8476704000001 248.87711999999996C634.8476704000001 248.87711999999996,635.0161504 248.87711999999996,635.1565504 248.87711999999996C637.6837504 249.01751999999996,639.1719904 250.67423999999997,639.1719904 252.75215999999998C639.1719904 253.76303999999996,638.8350304 254.91431999999998,637.9926304 256.00944C636.3920704000001 258.17159999999996,633.7806304000001 259.35096,631.5061504 259.35096C629.7371104 259.35096,628.2207904 258.64896,627.4907104 257.21687999999995C627.2660704 256.65527999999995,627.1537504 256.12175999999994,627.1537504 255.53207999999998C627.1537504 252.47135999999998,630.5795104 249.07367999999997,634.5107104 248.87711999999996"></path></g></g><g class="vf-modifiers"></g></g><rect stroke-width="0.3" fill="#000000" stroke="#000000" stroke-dasharray="none" x="659.6788672" y="166.5" width="1" height="133.59999999999997"></rect><rect stroke-width="0.3" fill="#000000" stroke="#000000" stroke-dasharray="none" x="662.6788672" y="166.5" width="3" height="133.59999999999997"></rect><path stroke-width="0.3" fill="#000000" stroke="none" stroke-dasharray="none" d="M68 166.5C45.2 193.22,81.2 215.26399999999998,56 233.29999999999998C81.2 251.33599999999998,45.2 273.38,68 300.09999999999997C44 273.38,72.8 251.33599999999998,56 233.29999999999998C72.8 215.26399999999998,44 193.22,68 166.5"></path><path stroke-width="1" fill="none" stroke="#000000" stroke-dasharray="none" d="M68 166.5C45.2 193.22,81.2 215.26399999999998,56 233.29999999999998C81.2 251.33599999999998,45.2 273.38,68 300.09999999999997C44 273.38,72.8 251.33599999999998,56 233.29999999999998C72.8 215.26399999999998,44 193.22,68 166.5"></path><g class="vf-text"><text stroke-width="0.3" fill="#000000" stroke="none" stroke-dasharray="none" font-family="Times New Roman" font-size="15px" font-weight="normal" font-style="normal" x="397.72863359999997" y="163.5">3</text></g></svg>