<svg xmlns="http://www.w3.org/2000/svg"  width="1470" height="379.6" viewBox="0 0 1470 379.6"><path stroke-width="1" fill="none" stroke="#000000" stroke-dasharray="none" d="M70 166.5L304.34522239999995 166.5"></path><path stroke-width="1" fill="none" stroke="#000000" stroke-dasharray="none" d="M70 176.5L304.34522239999995 176.5"></path><path stroke-width="1" fill="none" stroke="#000000" stroke-dasharray="none" d="M70 186.5L304.34522239999995 186.5"></path><path stroke-width="1" fill="none" stroke="#000000" stroke-dasharray="none" d="M70 196.5L304.34522239999995 196.5"></path><path stroke-width="1" fill="none" stroke="#000000" stroke-dasharray="none" d="M70 206.5L304.34522239999995 206.5"></path><rect stroke-width="0.3" fill="#000000" stroke="#000000" stroke-dasharray="none" x="304.34522239999995" y="166" width="1" height="41"></rect><g class="vf-clef"><path stroke-width="0.3" fill="#000000" stroke="none" stroke-dasharray="none" d="M75 196.5M89.0544 153.3288C89.112 153.3,89.1696 153.3,89.256 153.3C89.6016 153.3,90.0048 153.588,90.5808 154.308C92.9136 156.9864,94.5552 161.652,94.5552 165.4536C94.5552 165.7416,94.4976 165.972,94.4976 166.26C94.2384 170.7816,92.3952 174.4968,88.7376 178.0104L87.7584 178.9608L87.4128 179.3352L87.4128 179.4504L87.6144 180.3144L87.9312 181.8696L88.248 183.3096C88.68 185.268,88.8528 186.276,88.8528 186.276C88.8528 186.276,88.8528 186.276,88.8528 186.276C88.8528 186.276,88.968 186.276,89.112 186.2472C89.256 186.2472,89.7168 186.1896,90.2064 186.1896C90.55199999999999 186.1896,90.8976 186.2472,91.0704 186.2472C95.1312 186.7656,98.2704 189.6744,99.1632 193.764C99.336 194.4264,99.39359999999999 195.1464,99.39359999999999 195.8664C99.39359999999999 199.7544,97.0608 203.4696,93.1728 205.2264C92.94239999999999 205.3704,92.856 205.3992,92.856 205.3992L92.856 205.428C92.856 205.428,93.0288 206.0904,93.1728 206.8392L93.6048 209.028L94.008 210.7848C94.2384 211.908,94.3536 212.7144,94.3536 213.4344C94.3536 214.06799999999998,94.2672 214.644,94.1232 215.3064C93.144 219.3096,89.6592 221.7,86.0304 221.7C84.2448 221.7,82.4016 221.124,80.7888 219.828C79.3488 218.6184,78.7152 217.524,78.7152 216.084C78.7152 213.5496,80.76 211.764,82.8912 211.764C83.64 211.764,84.3888 211.99439999999998,85.1088 212.4264C86.3184 213.2616,86.8656 214.5288,86.8656 215.7672C86.8656 217.668,85.5408 219.54,83.2656 219.684L83.0352 219.684L83.208 219.79919999999998C84.1584 220.2024,85.1088 220.404,86.0304 220.404C88.3632 220.404,90.55199999999999 219.2232,91.8768 217.1784C92.62559999999999 216.0264,93.0288 214.6728,93.0288 213.3192C93.0288 212.8008,92.94239999999999 212.2824,92.8272 211.7064C92.8272 211.6488,92.74080000000001 211.188,92.62559999999999 210.756C91.992 207.6456,91.6176 205.8312,91.6176 205.8312C91.6176 205.8312,91.6176 205.8312,91.6176 205.8312C91.56 205.8312,91.4448 205.8312,91.3584 205.8888C91.0704 205.9464,90.4656 206.0904,90.2064 206.1192C89.5728 206.2056,88.968 206.2344,88.392 206.2344C82.74719999999999 206.2344,77.5056 202.4328,75.6912 196.8168C75.2304 195.3192,74.9712 193.8216,74.9712 192.324C74.9712 189.3288,75.9216 186.3912,77.7648 183.7704C79.7808 180.9192,81.7968 178.4712,84.2736 175.9368L85.13759999999999 175.044L84.936 173.9784L84.5616 172.2216L84.072 169.9752C83.928 169.14,83.7552 168.3336,83.7264 168.1608C83.5824 167.2104,83.496 166.2888,83.496 165.3384C83.496 161.7096,84.6768 158.22480000000002,86.8944 155.4312C87.5568 154.5672,88.7376 153.4152,89.0544 153.3288M90.8112 159.0312C90.7536 159.0312,90.6672 159.0312,90.5808 159.0312C89.4 159.0312,87.8736 160.1256,86.8368 161.7384C85.7712 163.32240000000002,85.224 165.4248,85.224 167.5848C85.224 168.1608,85.25280000000001 168.7656,85.3392 169.3704C85.4256 169.8024,85.45439999999999 170.0904,85.6848 171.12720000000002L86.088 172.9416C86.2032 173.4888,86.28960000000001 173.92079999999999,86.28960000000001 173.9784L86.28960000000001 173.9784C86.3184 173.9784,87.2112 172.9992,87.4992 172.6536C90.3792 169.3992,92.1072 165.972,92.4816 162.948C92.5104 162.66,92.5104 162.4296,92.5104 162.1416C92.5104 161.24880000000002,92.3952 160.38479999999998,92.1936 159.924C91.9632 159.4632,91.4448 159.0888,90.8112 159.0312M86.4624 181.2936C86.4048 180.8904,86.3184 180.5736,86.3184 180.516C86.3184 180.516,86.3184 180.516,86.28960000000001 180.516C86.232 180.516,84.9936 181.956,84.1296 182.964C82.6608 184.7496,81.1056 186.8808,80.472 187.9176C79.2624 189.9624,78.6576 192.2376,78.6576 194.484C78.6576 195.9528,78.9456 197.364,79.464 198.7176C81.0192 202.7208,84.5904 205.2264,88.4784 205.2264C88.9392 205.2264,89.4576 205.1976,89.9472 205.1112C90.5808 204.996,91.3584 204.7656,91.3584 204.6792L91.3584 204.6792C91.3584 204.6792,91.3008 204.3912,91.2144 204.0744L90.3792 199.956L89.7168 196.8744L89.2848 194.7432L88.824 192.6696C88.5936 191.4312,88.5072 191.1144,88.5072 191.1144C88.5072 191.1144,88.5072 191.0856,88.4784 191.0856C88.3056 191.0856,87.384 191.5464,86.9808 191.8344C85.4832 192.8712,84.7056 194.5128,84.7056 196.1256C84.7056 197.652,85.45439999999999 199.1784,86.8944 200.0712C87.2112 200.2728,87.3264 200.4456,87.3264 200.6472C87.3264 200.676,87.3264 200.7624,87.3264 200.7912C87.2688 201.1368,87.0672 201.2808,86.7792 201.2808C86.664 201.2808,86.52 201.252,86.3472 201.1656C83.6976 200.0136,81.912 197.2776,81.912 194.2824L81.912 194.2824C81.912 190.8264,84.072 187.8312,87.384 186.6504L87.5568 186.5928L87.2688 185.1528L86.4624 181.2936M90.7824 190.9128C90.55199999999999 190.88400000000001,90.3216 190.88400000000001,90.1488 190.88400000000001C90.0912 190.88400000000001,90.0048 190.88400000000001,89.9472 190.88400000000001L89.8032 190.88400000000001L89.9184 191.4024L90.5232 194.2248L90.8976 196.068L91.3008 197.8824L92.1072 201.8856L92.424 203.412C92.5392 203.8152,92.5968 204.1608,92.62559999999999 204.1608C92.62559999999999 204.1608,92.62559999999999 204.1608,92.62559999999999 204.1608C92.6544 204.1608,93.144 203.8728,93.4608 203.6424C94.9296 202.6056,96.024 200.9928,96.4272 199.3224C96.5712 198.7752,96.6288 198.1992,96.6288 197.652C96.6288 194.3112,94.152 191.2872,90.7824 190.9128"></path></g><path stroke-width="0.3" fill="#000000" stroke="none" stroke-dasharray="none" d="M116 186.5M121.0112 168.1544C121.04 168.1256,121.4432 168.1256,122.6816 168.1256C123.056 168.1256,123.4592 168.1256,123.9776 168.1256L126.8864 168.1256L126.9728 168.212C127.1168 168.29840000000002,127.2032 168.4424,127.2032 168.5576C127.2032 168.7304,127.1168 168.8456,127.0016 168.9608C126.9728 169.0472,126.7136 169.2776,126.5408 169.5368L125.0144 171.2936L123.056 173.5112L122.0192 174.692L120.464 176.4776L118.4192 178.8104C118.0736 179.2424,117.6992 179.588,117.6992 179.588C117.6992 179.588,117.6992 179.588,117.6992 179.588C117.6992 179.6456,117.9584 179.6456,120.3488 179.6456L122.9696 179.6456L122.9696 177.7736C122.9696 175.8728,122.9696 175.844,122.9984 175.8152C123.056 175.7288,123.3152 175.412,124.3232 174.2312L124.7264 173.7992L125.1296 173.3672L125.7344 172.5896L126.368 171.9272L126.6848 171.524C126.8 171.3512,126.9728 171.3224,127.1168 171.3224C127.28960000000001 171.3224,127.4336 171.4088,127.52 171.5528C127.5488 171.6392,127.5488 171.6968,127.5488 173.828C127.5488 174.3176,127.5488 174.9224,127.5488 175.6424L127.5488 179.6456L128.2688 179.6456C128.9312 179.6456,128.96 179.6456,129.0464 179.6744C129.2768 179.7608,129.392 179.9912,129.392 180.2504C129.392 180.3944,129.3632 180.5672,129.248 180.6824C129.0752 180.8264,129.0464 180.8264,128.2688 180.8264L127.5488 180.8264L127.5488 181.316C127.5776 182.7848,127.8656 183.3608,128.9888 183.9656C129.392 184.1672,129.4784 184.2248,129.4784 184.5128C129.4784 184.7144,129.42079999999999 184.8008,129.2768 184.916L129.1904 184.9448L125.2448 184.9448L121.328 184.9448L121.2416 184.916C121.0688 184.8008,121.04 184.7144,121.04 184.5128C121.04 184.2248,121.0688 184.1672,121.5008 183.9656C122.624 183.3608,122.912 182.7848,122.912 181.316L122.912 180.8264L119.6 180.8264C118.9952 180.88400000000001,118.5056 180.88400000000001,118.1024 180.88400000000001C116.288 180.88400000000001,116.2592 180.8264,116.2304 180.8264C116.0576 180.7688,116 180.596,116 180.3944C116 180.3944,116 180.3944,116 180.3944C116 180.1928,116 180.1928,116.576 179.5304C118.9952 176.5928,120.6944 172.3304,120.6944 168.93200000000002C120.6944 168.4136,120.7808 168.2408,121.0112 168.1544M122.7392 186.5288L122.768 186.5288L122.6816 186.5288L122.7392 186.5288M122.7392 167.1176L122.768 167.1176L122.6816 167.1176L122.7392 167.1176"></path><path stroke-width="0.3" fill="#000000" stroke="none" stroke-dasharray="none" d="M116 206.5M121.0112 188.1544C121.04 188.1256,121.4432 188.1256,122.6816 188.1256C123.056 188.1256,123.4592 188.1256,123.9776 188.1256L126.8864 188.1256L126.9728 188.212C127.1168 188.29840000000002,127.2032 188.4424,127.2032 188.5576C127.2032 188.7304,127.1168 188.8456,127.0016 188.9608C126.9728 189.0472,126.7136 189.2776,126.5408 189.5368L125.0144 191.2936L123.056 193.5112L122.0192 194.692L120.464 196.4776L118.4192 198.8104C118.0736 199.2424,117.6992 199.588,117.6992 199.588C117.6992 199.588,117.6992 199.588,117.6992 199.588C117.6992 199.6456,117.9584 199.6456,120.3488 199.6456L122.9696 199.6456L122.9696 197.7736C122.9696 195.8728,122.9696 195.844,122.9984 195.8152C123.056 195.7288,123.3152 195.412,124.3232 194.2312L124.7264 193.7992L125.1296 193.3672L125.7344 192.5896L126.368 191.9272L126.6848 191.524C126.8 191.3512,126.9728 191.3224,127.1168 191.3224C127.28960000000001 191.3224,127.4336 191.4088,127.52 191.5528C127.5488 191.6392,127.5488 191.6968,127.5488 193.828C127.5488 194.3176,127.5488 194.9224,127.5488 195.6424L127.5488 199.6456L128.2688 199.6456C128.9312 199.6456,128.96 199.6456,129.0464 199.6744C129.2768 199.7608,129.392 199.9912,129.392 200.2504C129.392 200.3944,129.3632 200.5672,129.248 200.6824C129.0752 200.8264,129.0464 200.8264,128.2688 200.8264L127.5488 200.8264L127.5488 201.316C127.5776 202.7848,127.8656 203.3608,128.9888 203.9656C129.392 204.1672,129.4784 204.2248,129.4784 204.5128C129.4784 204.7144,129.42079999999999 204.8008,129.2768 204.916L129.1904 204.9448L125.2448 204.9448L121.328 204.9448L121.2416 204.916C121.0688 204.8008,121.04 204.7144,121.04 204.5128C121.04 204.2248,121.0688 204.1672,121.5008 203.9656C122.624 203.3608,122.912 202.7848,122.912 201.316L122.912 200.8264L119.6 200.8264C118.9952 200.88400000000001,118.5056 200.88400000000001,118.1024 200.88400000000001C116.288 200.88400000000001,116.2592 200.8264,116.2304 200.8264C116.0576 200.7688,116 200.596,116 200.3944C116 200.3944,116 200.3944,116 200.3944C116 200.1928,116 200.1928,116.576 199.5304C118.9952 196.5928,120.6944 192.3304,120.6944 188.93200000000002C120.6944 188.4136,120.7808 188.2408,121.0112 188.1544M122.7392 206.5288L122.768 206.5288L122.6816 206.5288L122.7392 206.5288M122.7392 187.1176L122.768 187.1176L122.6816 187.1176L122.7392 187.1176"></path><g class="vf-stavenote" id="vf-auto2629395"><g class="vf-note" pointer-events="bounding-box"><g class="vf-stem" pointer-events="bounding-box"><path stroke-width="1.5" fill="none" stroke="#000000" stroke-dasharray="none" class="vf-stem" id="vf-auto2629395-stem" d="M142.2284 186.5L142.2284 221.5"></path></g><g class="vf-notehead" pointer-events="bounding-box"><path stroke-width="0.3" fill="#000000" stroke="none" stroke-dasharray="none" d="M141.4784 186.5M148.83535999999998 181.27712C148.94768 181.27712,149.11615999999998 181.27712,149.14424 181.27712C149.14424 181.27712,149.17231999999998 181.27712,149.17231999999998 181.27712C149.17231999999998 181.27712,149.3408 181.27712,149.4812 181.27712C152.0084 181.41752,153.49663999999999 183.07424,153.49663999999999 185.15216C153.49663999999999 186.16304,153.15967999999998 187.31432,152.31727999999998 188.40944C150.71671999999998 190.5716,148.10528 191.75096,145.83079999999998 191.75096C144.06176 191.75096,142.54543999999999 191.04896,141.81536 189.61688C141.59072 189.05528,141.4784 188.52176,141.4784 187.93208C141.4784 184.87136,144.90416 181.47368,148.83535999999998 181.27712"></path></g></g><g class="vf-modifiers"></g></g><path stroke-width="1" fill="none" stroke="#000000" stroke-dasharray="none" d="M220.73919999999998 216.5L238.75743999999997 216.5"></path><g class="vf-stavenote" id="vf-auto2629403"><g class="vf-note" pointer-events="bounding-box"><g class="vf-stem" pointer-events="bounding-box"><path stroke-width="1.5" fill="none" stroke="#000000" stroke-dasharray="none" class="vf-stem" id="vf-auto2629403-stem" d="M235.00743999999997 216.5L235.00743999999997 181.5"></path></g><g class="vf-notehead" pointer-events="bounding-box"><path stroke-width="0.3" fill="#000000" stroke="none" stroke-dasharray="none" d="M223.73919999999998 216.5M231.09615999999997 211.27712C231.20847999999998 211.27712,231.37696 211.27712,231.40503999999999 211.27712C231.40503999999999 211.27712,231.43311999999997 211.27712,231.43311999999997 211.27712C231.43311999999997 211.27712,231.6016 211.27712,231.742 211.27712C234.26919999999998 211.41752,235.75743999999997 213.07424,235.75743999999997 215.15216C235.75743999999997 216.16304,235.42048 217.31432,234.57807999999997 218.40944C232.97751999999997 220.5716,230.36607999999998 221.75096,228.09159999999997 221.75096C226.32255999999998 221.75096,224.80623999999997 221.04896,224.07616 219.61688C223.85152 219.05528,223.73919999999998 218.52176,223.73919999999998 217.93208C223.73919999999998 214.87136,227.16495999999998 211.47368,231.09615999999997 211.27712"></path></g></g><g class="vf-modifiers"></g></g><g class="vf-stavenote" id="vf-auto2629411"><g class="vf-note" pointer-events="bounding-box"><g class="vf-stem" pointer-events="bounding-box"><path stroke-width="1.5" fill="none" stroke="#000000" stroke-dasharray="none" class="vf-stem" id="vf-auto2629411-stem" d="M276.13784 201.5L276.13784 166.5"></path></g><g class="vf-notehead" pointer-events="bounding-box"><path stroke-width="0.3" fill="#000000" stroke="none" stroke-dasharray="none" d="M264.8696 201.5M272.22656 196.27712C272.33888 196.27712,272.50736 196.27712,272.53544 196.27712C272.53544 196.27712,272.56352 196.27712,272.56352 196.27712C272.56352 196.27712,272.73199999999997 196.27712,272.87239999999997 196.27712C275.39959999999996 196.41752,276.88784 198.07424,276.88784 200.15216C276.88784 201.16304,276.55088 202.31432,275.70848 203.40944C274.10792 205.5716,271.49648 206.75096,269.222 206.75096C267.45296 206.75096,265.93664 206.04896,265.20655999999997 204.61688C264.98192 204.05528,264.8696 203.52176,264.8696 202.93208C264.8696 199.87136,268.29536 196.47368,272.22656 196.27712"></path></g></g><g class="vf-modifiers"></g></g><path stroke-width="1" fill="none" stroke="#000000" stroke-dasharray="none" d="M304.34522239999995 166.5L448.3120447999999 166.5"></path><path stroke-width="1" fill="none" stroke="#000000" stroke-dasharray="none" d="M304.34522239999995 176.5L448.3120447999999 176.5"></path><path stroke-width="1" fill="none" stroke="#000000" stroke-dasharray="none" d="M304.34522239999995 186.5L448.3120447999999 186.5"></path><path stroke-width="1" fill="none" stroke="#000000" stroke-dasharray="none" d="M304.34522239999995 196.5L448.3120447999999 196.5"></path><path stroke-width="1" fill="none" stroke="#000000" stroke-dasharray="none" d="M304.34522239999995 206.5L448.3120447999999 206.5"></path><rect stroke-width="0.3" fill="#000000" stroke="#000000" stroke-dasharray="none" x="448.3120447999999" y="166" width="1" height="41"></rect><g class="vf-stavenote" id="vf-auto2629432"><g class="vf-note" pointer-events="bounding-box"><g class="vf-stem" pointer-events="bounding-box"><path stroke-width="1.5" fill="none" stroke="#000000" stroke-dasharray="none" class="vf-stem" id="vf-auto2629432-stem" d="M396.61346239999995 201.5L396.61346239999995 166.5"></path></g><g class="vf-notehead" pointer-events="bounding-box"><path stroke-width="0.3" fill="#000000" stroke="none" stroke-dasharray="none" d="M385.34522239999995 201.5M392.70218239999997 196.27712C392.8145024 196.27712,392.98298239999997 196.27712,393.01106239999996 196.27712C393.01106239999996 196.27712,393.03914239999995 196.27712,393.03914239999995 196.27712C393.03914239999995 196.27712,393.20762239999993 196.27712,393.34802239999993 196.27712C395.8752224 196.41752,397.36346239999995 198.07424,397.36346239999995 200.15216C397.36346239999995 201.16304,397.02650239999997 202.31432,396.1841024 203.40944C394.58354239999994 205.5716,391.9721023999999 206.75096,389.69762239999994 206.75096C387.9285824 206.75096,386.4122624 206.04896,385.68218239999993 204.61688C385.45754239999997 204.05528,385.34522239999995 203.52176,385.34522239999995 202.93208C385.34522239999995 199.87136,388.7709824 196.47368,392.70218239999997 196.27712"></path></g></g><g class="vf-modifiers"></g></g><path stroke-width="1" fill="none" stroke="#000000" stroke-dasharray="none" d="M448.31204479999997 166.5L592.2788671999999 166.5"></path><path stroke-width="1" fill="none" stroke="#000000" stroke-dasharray="none" d="M448.31204479999997 176.5L592.2788671999999 176.5"></path><path stroke-width="1" fill="none" stroke="#000000" stroke-dasharray="none" d="M448.31204479999997 186.5L592.2788671999999 186.5"></path><path stroke-width="1" fill="none" stroke="#000000" stroke-dasharray="none" d="M448.31204479999997 196.5L592.2788671999999 196.5"></path><path stroke-width="1" fill="none" stroke="#000000" stroke-dasharray="none" d="M448.31204479999997 206.5L592.2788671999999 206.5"></path><rect stroke-width="0.3" fill="#000000" stroke="#000000" stroke-dasharray="none" x="592.2788671999999" y="166" width="1" height="41"></rect><path stroke-width="1" fill="none" stroke="#000000" stroke-dasharray="none" d="M462.31204479999997 216.5L480.33028479999996 216.5"></path><g class="vf-stavenote" id="vf-auto2629469"><g class="vf-note" pointer-events="bounding-box"><g class="vf-stem" pointer-events="bounding-box"><path stroke-width="1.5" fill="none" stroke="#000000" stroke-dasharray="none" class="vf-stem" id="vf-auto2629469-stem" d="M476.58028479999996 216.5L476.58028479999996 181.5"></path></g><g class="vf-notehead" pointer-events="bounding-box"><path stroke-width="0.3" fill="#000000" stroke="none" stroke-dasharray="none" d="M465.31204479999997 216.5M472.6690048 211.27712C472.7813248 211.27712,472.9498048 211.27712,472.97788479999997 211.27712C472.97788479999997 211.27712,473.00596479999996 211.27712,473.00596479999996 211.27712C473.00596479999996 211.27712,473.17444479999995 211.27712,473.31484479999995 211.27712C475.84204479999994 211.41752,477.33028479999996 213.07424,477.33028479999996 215.15216C477.33028479999996 216.16304,476.9933248 217.31432,476.1509248 218.40944C474.55036479999995 220.5716,471.9389248 221.75096,469.66444479999996 221.75096C467.8954048 221.75096,466.3790848 221.04896,465.64900479999994 219.61688C465.4243648 219.05528,465.31204479999997 218.52176,465.31204479999997 217.93208C465.31204479999997 214.87136,468.7378048 211.47368,472.6690048 211.27712"></path></g></g><g class="vf-modifiers"></g></g><path stroke-width="1" fill="none" stroke="#000000" stroke-dasharray="none" d="M592.2788671999999 166.5L746.2456895999999 166.5"></path><path stroke-width="1" fill="none" stroke="#000000" stroke-dasharray="none" d="M592.2788671999999 176.5L746.2456895999999 176.5"></path><path stroke-width="1" fill="none" stroke="#000000" stroke-dasharray="none" d="M592.2788671999999 186.5L746.2456895999999 186.5"></path><path stroke-width="1" fill="none" stroke="#000000" stroke-dasharray="none" d="M592.2788671999999 196.5L746.2456895999999 196.5"></path><path stroke-width="1" fill="none" stroke="#000000" stroke-dasharray="none" d="M592.2788671999999 206.5L746.2456895999999 206.5"></path><rect stroke-width="0.3" fill="#000000" stroke="#000000" stroke-dasharray="none" x="741.2456895999999" y="166" width="1" height="41"></rect><rect stroke-width="0.3" fill="#000000" stroke="#000000" stroke-dasharray="none" x="744.2456895999999" y="166" width="3" height="41"></rect><path stroke-width="0.3" fill="#000000" stroke="none" stroke-dasharray="none" d="M740.2456895999999 182 A2 2 0 0 0 736.2456895999999 182M736.2456895999999 182 A2 2 0 0 0 740.2456895999999 182"></path><path stroke-width="0.3" fill="#000000" stroke="none" stroke-dasharray="none" d="M740.2456895999999 192 A2 2 0 0 0 736.2456895999999 192M736.2456895999999 192 A2 2 0 0 0 740.2456895999999 192"></path><path stroke-width="1" fill="none" stroke="#000000" stroke-dasharray="none" d="M606.2788671999999 216.5L624.2971071999999 216.5"></path><g class="vf-stavenote" id="vf-auto2629506"><g class="vf-note" pointer-events="bounding-box"><g class="vf-stem" pointer-events="bounding-box"><path stroke-width="1.5" fill="none" stroke="#000000" stroke-dasharray="none" class="vf-stem" id="vf-auto2629506-stem" d="M620.5471071999999 216.5L620.5471071999999 181.5"></path></g><g class="vf-notehead" pointer-events="bounding-box"><path stroke-width="0.3" fill="#000000" stroke="none" stroke-dasharray="none" d="M609.2788671999999 216.5M616.6358271999999 211.27712C616.7481472 211.27712,616.9166271999999 211.27712,616.9447071999999 211.27712C616.9447071999999 211.27712,616.9727872 211.27712,616.9727872 211.27712C616.9727872 211.27712,617.1412671999999 211.27712,617.2816671999999 211.27712C619.8088671999999 211.41752,621.2971071999999 213.07424,621.2971071999999 215.15216C621.2971071999999 216.16304,620.9601471999999 217.31432,620.1177471999999 218.40944C618.5171872 220.5716,615.9057472 221.75096,613.6312671999999 221.75096C611.8622271999999 221.75096,610.3459071999999 221.04896,609.6158271999999 219.61688C609.3911871999999 219.05528,609.2788671999999 218.52176,609.2788671999999 217.93208C609.2788671999999 214.87136,612.7046271999999 211.47368,616.6358271999999 211.27712"></path></g></g><g class="vf-modifiers"></g></g><g class="vf-text"><text stroke-width="0.3" fill="#000000" stroke="none" stroke-dasharray="none" font-family="Times New Roman" font-size="23px" font-weight="bold" font-style="italic" x="134.48752" y="243.3">mf</text></g><path stroke-width="1" fill="none" stroke="#000000" stroke-dasharray="none" d="M70 258.09999999999997L304.34522239999995 258.09999999999997"></path><path stroke-width="1" fill="none" stroke="#000000" stroke-dasharray="none" d="M70 268.09999999999997L304.34522239999995 268.09999999999997"></path><path stroke-width="1" fill="none" stroke="#000000" stroke-dasharray="none" d="M70 278.09999999999997L304.34522239999995 278.09999999999997"></path><path stroke-width="1" fill="none" stroke="#000000" stroke-dasharray="none" d="M70 288.09999999999997L304.34522239999995 288.09999999999997"></path><path stroke-width="1" fill="none" stroke="#000000" stroke-dasharray="none" d="M70 298.09999999999997L304.34522239999995 298.09999999999997"></path><rect stroke-width="0.3" fill="#000000" stroke="#000000" stroke-dasharray="none" x="304.34522239999995" y="257.59999999999997" width="1" height="41"></rect><g class="vf-clef"><path stroke-width="0.3" fill="#000000" stroke="none" stroke-dasharray="none" d="M75 268.09999999999997M83.8416 258.04879999999997C84.072 257.9912,84.3024 257.9912,84.5616 257.9912C85.5696 257.9912,86.7504 258.10639999999995,87.7584 258.308C92.4816 259.2872,95.736 262.484,96.3408 266.7464C96.3984 267.20719999999994,96.4272 267.63919999999996,96.4272 268.09999999999997C96.4272 270.69199999999995,95.5344 274.03279999999995,94.008 276.8264C90.3792 283.39279999999997,83.7552 288.116,75.8064 289.84399999999994C75.6624 289.84399999999994,75.5472 289.8728,75.4032 289.8728C75.1152 289.8728,74.9712 289.7,74.9712 289.44079999999997C74.9712 289.15279999999996,75.0288 289.0664,75.6048 288.83599999999996C84.7056 285.4088,90.7824 278.00719999999995,91.3296 269.71279999999996C91.3584 269.28079999999994,91.3584 268.79119999999995,91.3584 268.41679999999997C91.3584 264.3848,90.12 261.3896,87.7296 259.89199999999994C86.6928 259.22959999999995,85.5696 258.91279999999995,84.36 258.91279999999995C81.6816 258.91279999999995,78.9456 260.43919999999997,77.6784 263.00239999999997C77.6208 263.20399999999995,77.4192 263.63599999999997,77.4192 263.66479999999996C77.4192 263.66479999999996,77.4192 263.66479999999996,77.4192 263.66479999999996C77.4192 263.66479999999996,77.448 263.63599999999997,77.5344 263.6072C78.168 263.20399999999995,78.8592 263.00239999999997,79.5792 263.00239999999997C80.5872 263.00239999999997,81.6528 263.4344,82.4016 264.2408C83.0928 264.98959999999994,83.4672 265.9976,83.4672 266.9192C83.4672 268.79119999999995,82.0848 270.69199999999995,79.9248 270.8936C79.7808 270.8936,79.6368 270.9224,79.4928 270.9224C77.1024 270.9224,75.1728 268.73359999999997,75.1728 265.9688C75.1728 265.91119999999995,75.1728 265.8248,75.1728 265.796C75.288 261.6776,79.0608 258.308,83.8416 258.04879999999997M99.1632 261.90799999999996C99.2208 261.87919999999997,99.2496 261.87919999999997,99.336 261.87919999999997C99.5376 261.87919999999997,99.768 261.90799999999996,99.8256 261.9656C100.54560000000001 262.1672,100.8912 262.8008,100.8912 263.4056C100.8912 263.924,100.632 264.44239999999996,100.11359999999999 264.7304C99.912 264.8744,99.6528 264.90319999999997,99.39359999999999 264.90319999999997C98.9904 264.90319999999997,98.5584 264.7304,98.2704 264.356C98.03999999999999 264.068,97.9248 263.7512,97.9248 263.4344C97.9248 262.71439999999996,98.3856 261.9944,99.1632 261.90799999999996M99.1632 271.32559999999995C99.2208 271.32559999999995,99.2496 271.32559999999995,99.336 271.32559999999995C99.5376 271.32559999999995,99.768 271.35439999999994,99.8256 271.412C100.54560000000001 271.61359999999996,100.8912 272.24719999999996,100.8912 272.852C100.8912 273.37039999999996,100.632 273.88879999999995,100.11359999999999 274.14799999999997C99.912 274.292,99.6528 274.34959999999995,99.39359999999999 274.34959999999995C98.9904 274.34959999999995,98.5584 274.14799999999997,98.2704 273.8024C98.03999999999999 273.51439999999997,97.9248 273.19759999999997,97.9248 272.852C97.9248 272.13199999999995,98.3856 271.44079999999997,99.1632 271.32559999999995"></path></g><path stroke-width="0.3" fill="#000000" stroke="none" stroke-dasharray="none" d="M116 278.09999999999997M121.0112 259.7544C121.04 259.7256,121.4432 259.7256,122.6816 259.7256C123.056 259.7256,123.4592 259.7256,123.9776 259.7256L126.8864 259.7256L126.9728 259.81199999999995C127.1168 259.8984,127.2032 260.0424,127.2032 260.15759999999995C127.2032 260.33039999999994,127.1168 260.44559999999996,127.0016 260.5608C126.9728 260.64719999999994,126.7136 260.8776,126.5408 261.1368L125.0144 262.8936L123.056 265.11119999999994L122.0192 266.292L120.464 268.07759999999996L118.4192 270.4104C118.0736 270.84239999999994,117.6992 271.188,117.6992 271.188C117.6992 271.188,117.6992 271.188,117.6992 271.188C117.6992 271.24559999999997,117.9584 271.24559999999997,120.3488 271.24559999999997L122.9696 271.24559999999997L122.9696 269.37359999999995C122.9696 267.47279999999995,122.9696 267.44399999999996,122.9984 267.41519999999997C123.056 267.32879999999994,123.3152 267.01199999999994,124.3232 265.83119999999997L124.7264 265.39919999999995L125.1296 264.9672L125.7344 264.1896L126.368 263.5272L126.6848 263.12399999999997C126.8 262.9512,126.9728 262.9224,127.1168 262.9224C127.28960000000001 262.9224,127.4336 263.00879999999995,127.52 263.15279999999996C127.5488 263.2392,127.5488 263.29679999999996,127.5488 265.42799999999994C127.5488 265.9176,127.5488 266.52239999999995,127.5488 267.2424L127.5488 271.24559999999997L128.2688 271.24559999999997C128.9312 271.24559999999997,128.96 271.24559999999997,129.0464 271.27439999999996C129.2768 271.3608,129.392 271.59119999999996,129.392 271.8504C129.392 271.9944,129.3632 272.1672,129.248 272.28239999999994C129.0752 272.42639999999994,129.0464 272.42639999999994,128.2688 272.42639999999994L127.5488 272.42639999999994L127.5488 272.91599999999994C127.5776 274.3848,127.8656 274.96079999999995,128.9888 275.56559999999996C129.392 275.76719999999995,129.4784 275.8248,129.4784 276.1128C129.4784 276.3144,129.42079999999999 276.40079999999995,129.2768 276.51599999999996L129.1904 276.54479999999995L125.2448 276.54479999999995L121.328 276.54479999999995L121.2416 276.51599999999996C121.0688 276.40079999999995,121.04 276.3144,121.04 276.1128C121.04 275.8248,121.0688 275.76719999999995,121.5008 275.56559999999996C122.624 274.96079999999995,122.912 274.3848,122.912 272.91599999999994L122.912 272.42639999999994L119.6 272.42639999999994C118.9952 272.484,118.5056 272.484,118.1024 272.484C116.288 272.484,116.2592 272.42639999999994,116.2304 272.42639999999994C116.0576 272.36879999999996,116 272.19599999999997,116 271.9944C116 271.9944,116 271.9944,116 271.9944C116 271.79279999999994,116 271.79279999999994,116.576 271.13039999999995C118.9952 268.1928,120.6944 263.93039999999996,120.6944 260.532C120.6944 260.01359999999994,120.7808 259.84079999999994,121.0112 259.7544M122.7392 278.12879999999996L122.768 278.12879999999996L122.6816 278.12879999999996L122.7392 278.12879999999996M122.7392 258.71759999999995L122.768 258.71759999999995L122.6816 258.71759999999995L122.7392 258.71759999999995"></path><path stroke-width="0.3" fill="#000000" stroke="none" stroke-dasharray="none" d="M116 298.09999999999997M121.0112 279.7544C121.04 279.7256,121.4432 279.7256,122.6816 279.7256C123.056 279.7256,123.4592 279.7256,123.9776 279.7256L126.8864 279.7256L126.9728 279.81199999999995C127.1168 279.8984,127.2032 280.0424,127.2032 280.15759999999995C127.2032 280.33039999999994,127.1168 280.44559999999996,127.0016 280.5608C126.9728 280.64719999999994,126.7136 280.8776,126.5408 281.1368L125.0144 282.8936L123.056 285.11119999999994L122.0192 286.292L120.464 288.07759999999996L118.4192 290.4104C118.0736 290.84239999999994,117.6992 291.188,117.6992 291.188C117.6992 291.188,117.6992 291.188,117.6992 291.188C117.6992 291.24559999999997,117.9584 291.24559999999997,120.3488 291.24559999999997L122.9696 291.24559999999997L122.9696 289.37359999999995C122.9696 287.47279999999995,122.9696 287.44399999999996,122.9984 287.41519999999997C123.056 287.32879999999994,123.3152 287.01199999999994,124.3232 285.83119999999997L124.7264 285.39919999999995L125.1296 284.9672L125.7344 284.1896L126.368 283.5272L126.6848 283.12399999999997C126.8 282.9512,126.9728 282.9224,127.1168 282.9224C127.28960000000001 282.9224,127.4336 283.00879999999995,127.52 283.15279999999996C127.5488 283.2392,127.5488 283.29679999999996,127.5488 285.42799999999994C127.5488 285.9176,127.5488 286.52239999999995,127.5488 287.2424L127.5488 291.24559999999997L128.2688 291.24559999999997C128.9312 291.24559999999997,128.96 291.24559999999997,129.0464 291.27439999999996C129.2768 291.3608,129.392 291.59119999999996,129.392 291.8504C129.392 291.9944,129.3632 292.1672,129.248 292.28239999999994C129.0752 292.42639999999994,129.0464 292.42639999999994,128.2688 292.42639999999994L127.5488 292.42639999999994L127.5488 292.91599999999994C127.5776 294.3848,127.8656 294.96079999999995,128.9888 295.56559999999996C129.392 295.76719999999995,129.4784 295.8248,129.4784 296.1128C129.4784 296.3144,129.42079999999999 296.40079999999995,129.2768 296.51599999999996L129.1904 296.54479999999995L125.2448 296.54479999999995L121.328 296.54479999999995L121.2416 296.51599999999996C121.0688 296.40079999999995,121.04 296.3144,121.04 296.1128C121.04 295.8248,121.0688 295.76719999999995,121.5008 295.56559999999996C122.624 294.96079999999995,122.912 294.3848,122.912 292.91599999999994L122.912 292.42639999999994L119.6 292.42639999999994C118.9952 292.484,118.5056 292.484,118.1024 292.484C116.288 292.484,116.2592 292.42639999999994,116.2304 292.42639999999994C116.0576 292.36879999999996,116 292.19599999999997,116 291.9944C116 291.9944,116 291.9944,116 291.9944C116 291.79279999999994,116 291.79279999999994,116.576 291.13039999999995C118.9952 288.1928,120.6944 283.93039999999996,120.6944 280.532C120.6944 280.01359999999994,120.7808 279.84079999999994,121.0112 279.7544M122.7392 298.12879999999996L122.768 298.12879999999996L122.6816 298.12879999999996L122.7392 298.12879999999996M122.7392 278.71759999999995L122.768 278.71759999999995L122.6816 278.71759999999995L122.7392 278.71759999999995"></path><g class="vf-stavenote" id="vf-auto2629421"><g class="vf-note" pointer-events="bounding-box"><g class="vf-stem" pointer-events="bounding-box"><path stroke-width="1.5" fill="none" stroke="#000000" stroke-dasharray="none" class="vf-stem" id="vf-auto2629421-stem" d="M183.3588 263.09999999999997L183.3588 298.09999999999997"></path></g><g class="vf-notehead" pointer-events="bounding-box"><path stroke-width="0.3" fill="#000000" stroke="none" stroke-dasharray="none" d="M182.6088 263.09999999999997M189.96576 257.87712C190.07808 257.87712,190.24656 257.87712,190.27464 257.87712C190.27464 257.87712,190.30272 257.87712,190.30272 257.87712C190.30272 257.87712,190.4712 257.87712,190.6116 257.87712C193.1388 258.01752,194.62704 259.67423999999994,194.62704 261.75215999999995C194.62704 262.76304,194.29008 263.91432,193.44768 265.00944C191.84712 267.17159999999996,189.23568 268.35096,186.9612 268.35096C185.19216 268.35096,183.67584 267.64896,182.94576 266.21687999999995C182.72112 265.65527999999995,182.6088 265.12175999999994,182.6088 264.53207999999995C182.6088 261.47135999999995,186.03456 258.07367999999997,189.96576 257.87712"></path></g></g><g class="vf-modifiers"></g></g><rect stroke-width="0.3" fill="#000000" stroke="#000000" stroke-dasharray="none" x="304.34522239999995" y="166.5" width="1" height="132.59999999999997"></rect><rect stroke-width="0.3" fill="#000000" stroke="#000000" stroke-dasharray="none" x="70" y="166.5" width="1" height="132.59999999999997"></rect><path stroke-width="1" fill="none" stroke="#000000" stroke-dasharray="none" d="M304.34522239999995 258.09999999999997L448.3120447999999 258.09999999999997"></path><path stroke-width="1" fill="none" stroke="#000000" stroke-dasharray="none" d="M304.34522239999995 268.09999999999997L448.3120447999999 268.09999999999997"></path><path stroke-width="1" fill="none" stroke="#000000" stroke-dasharray="none" d="M304.34522239999995 278.09999999999997L448.3120447999999 278.09999999999997"></path><path stroke-width="1" fill="none" stroke="#000000" stroke-dasharray="none" d="M304.34522239999995 288.09999999999997L448.3120447999999 288.09999999999997"></path><path stroke-width="1" fill="none" stroke="#000000" stroke-dasharray="none" d="M304.34522239999995 298.09999999999997L448.3120447999999 298.09999999999997"></path><rect stroke-width="0.3" fill="#000000" stroke="#000000" stroke-dasharray="none" x="448.3120447999999" y="257.59999999999997" width="1" height="41"></rect><g class="vf-stavenote" id="vf-auto2629443"><g class="vf-note" pointer-events="bounding-box"><g class="vf-stem" pointer-events="bounding-box"><path stroke-width="1.5" fill="none" stroke="#000000" stroke-dasharray="none" class="vf-stem" id="vf-auto2629443-stem" d="M332.61346239999995 283.09999999999997L332.61346239999995 248.09999999999997"></path></g><g class="vf-notehead" pointer-events="bounding-box"><path stroke-width="0.3" fill="#000000" stroke="none" stroke-dasharray="none" d="M321.34522239999995 283.09999999999997M328.70218239999997 277.87712C328.8145024 277.87712,328.98298239999997 277.87712,329.01106239999996 277.87712C329.01106239999996 277.87712,329.03914239999995 277.87712,329.03914239999995 277.87712C329.03914239999995 277.87712,329.20762239999993 277.87712,329.34802239999993 277.87712C331.8752224 278.01752,333.36346239999995 279.67423999999994,333.36346239999995 281.75215999999995C333.36346239999995 282.76304,333.02650239999997 283.91432,332.1841024 285.00944C330.58354239999994 287.17159999999996,327.9721023999999 288.35096,325.69762239999994 288.35096C323.9285824 288.35096,322.4122624 287.64896,321.68218239999993 286.21687999999995C321.45754239999997 285.65527999999995,321.34522239999995 285.12175999999994,321.34522239999995 284.53207999999995C321.34522239999995 281.47135999999995,324.7709824 278.07367999999997,328.70218239999997 277.87712"></path></g></g><g class="vf-modifiers"></g></g><g class="vf-stavenote" id="vf-auto2629451"><g class="vf-note" pointer-events="bounding-box"><g class="vf-stem" pointer-events="bounding-box"><path stroke-width="1.5" fill="none" stroke="#000000" stroke-dasharray="none" class="vf-stem" id="vf-auto2629451-stem" d="M364.61346239999995 293.09999999999997L364.61346239999995 258.09999999999997"></path></g><g class="vf-notehead" pointer-events="bounding-box"><path stroke-width="0.3" fill="#000000" stroke="none" stroke-dasharray="none" d="M353.34522239999995 293.09999999999997M360.70218239999997 287.87712C360.8145024 287.87712,360.98298239999997 287.87712,361.01106239999996 287.87712C361.01106239999996 287.87712,361.03914239999995 287.87712,361.03914239999995 287.87712C361.03914239999995 287.87712,361.20762239999993 287.87712,361.34802239999993 287.87712C363.8752224 288.01752,365.36346239999995 289.67423999999994,365.36346239999995 291.75215999999995C365.36346239999995 292.76304,365.02650239999997 293.91432,364.1841024 295.00944C362.58354239999994 297.17159999999996,359.9721023999999 298.35096,357.69762239999994 298.35096C355.9285824 298.35096,354.4122624 297.64896,353.68218239999993 296.21687999999995C353.45754239999997 295.65527999999995,353.34522239999995 295.12175999999994,353.34522239999995 294.53207999999995C353.34522239999995 291.47135999999995,356.7709824 288.07367999999997,360.70218239999997 287.87712"></path></g></g><g class="vf-modifiers"></g></g><g class="vf-stavenote" id="vf-auto2629459"><g class="vf-note" pointer-events="bounding-box"><g class="vf-stem" pointer-events="bounding-box"><path stroke-width="1.5" fill="none" stroke="#000000" stroke-dasharray="none" class="vf-stem" id="vf-auto2629459-stem" d="M418.09522239999995 263.09999999999997L418.09522239999995 298.09999999999997"></path></g><g class="vf-notehead" pointer-events="bounding-box"><path stroke-width="0.3" fill="#000000" stroke="none" stroke-dasharray="none" d="M417.34522239999995 263.09999999999997M424.70218239999997 257.87712C424.8145024 257.87712,424.98298239999997 257.87712,425.01106239999996 257.87712C425.01106239999996 257.87712,425.03914239999995 257.87712,425.03914239999995 257.87712C425.03914239999995 257.87712,425.20762239999993 257.87712,425.34802239999993 257.87712C427.8752224 258.01752,429.36346239999995 259.67423999999994,429.36346239999995 261.75215999999995C429.36346239999995 262.76304,429.02650239999997 263.91432,428.1841024 265.00944C426.58354239999994 267.17159999999996,423.9721023999999 268.35096,421.69762239999994 268.35096C419.9285824 268.35096,418.4122624 267.64896,417.68218239999993 266.21687999999995C417.45754239999997 265.65527999999995,417.34522239999995 265.12175999999994,417.34522239999995 264.53207999999995C417.34522239999995 261.47135999999995,420.7709824 258.07367999999997,424.70218239999997 257.87712"></path></g></g><g class="vf-modifiers"></g></g><rect stroke-width="0.3" fill="#000000" stroke="#000000" stroke-dasharray="none" x="448.3120447999999" y="166.5" width="1" height="132.59999999999997"></rect><path stroke-width="1" fill="none" stroke="#000000" stroke-dasharray="none" d="M448.31204479999997 258.09999999999997L592.2788671999999 258.09999999999997"></path><path stroke-width="1" fill="none" stroke="#000000" stroke-dasharray="none" d="M448.31204479999997 268.09999999999997L592.2788671999999 268.09999999999997"></path><path stroke-width="1" fill="none" stroke="#000000" stroke-dasharray="none" d="M448.31204479999997 278.09999999999997L592.2788671999999 278.09999999999997"></path><path stroke-width="1" fill="none" stroke="#000000" stroke-dasharray="none" d="M448.31204479999997 288.09999999999997L592.2788671999999 288.09999999999997"></path><path stroke-width="1" fill="none" stroke="#000000" stroke-dasharray="none" d="M448.31204479999997 298.09999999999997L592.2788671999999 298.09999999999997"></path><rect stroke-width="0.3" fill="#000000" stroke="#000000" stroke-dasharray="none" x="592.2788671999999" y="257.59999999999997" width="1" height="41"></rect><g class="vf-stavenote" id="vf-auto2629480"><g class="vf-note" pointer-events="bounding-box"><g class="vf-stem" pointer-events="bounding-box"><path stroke-width="1.5" fill="none" stroke="#000000" stroke-dasharray="none" class="vf-stem" id="vf-auto2629480-stem" d="M498.06204479999997 253.09999999999997L498.06204479999997 288.09999999999997"></path></g><g class="vf-notehead" pointer-events="bounding-box"><path stroke-width="0.3" fill="#000000" stroke="none" stroke-dasharray="none" d="M497.31204479999997 253.09999999999997M504.6690048 247.87711999999996C504.7813248 247.87711999999996,504.9498048 247.87711999999996,504.97788479999997 247.87711999999996C504.97788479999997 247.87711999999996,505.00596479999996 247.87711999999996,505.00596479999996 247.87711999999996C505.00596479999996 247.87711999999996,505.17444479999995 247.87711999999996,505.31484479999995 247.87711999999996C507.84204479999994 248.01751999999996,509.33028479999996 249.67423999999997,509.33028479999996 251.75215999999998C509.33028479999996 252.76303999999996,508.9933248 253.91431999999998,508.1509248 255.00943999999996C506.55036479999995 257.17159999999996,503.9389248 258.35096,501.66444479999996 258.35096C499.8954048 258.35096,498.3790848 257.64896,497.64900479999994 256.21687999999995C497.4243648 255.65527999999998,497.31204479999997 255.12175999999997,497.31204479999997 254.53207999999998C497.31204479999997 251.47135999999998,500.7378048 248.07367999999997,504.6690048 247.87711999999996"></path></g></g><g class="vf-modifiers"></g></g><g class="vf-stavenote" id="vf-auto2629488"><g class="vf-note" pointer-events="bounding-box"><g class="vf-stem" pointer-events="bounding-box"><path stroke-width="1.5" fill="none" stroke="#000000" stroke-dasharray="none" class="vf-stem" id="vf-auto2629488-stem" d="M530.0620448 253.09999999999997L530.0620448 288.09999999999997"></path></g><g class="vf-notehead" pointer-events="bounding-box"><path stroke-width="0.3" fill="#000000" stroke="none" stroke-dasharray="none" d="M529.3120448 253.09999999999997M536.6690047999999 247.87711999999996C536.7813248 247.87711999999996,536.9498047999999 247.87711999999996,536.9778848 247.87711999999996C536.9778848 247.87711999999996,537.0059648 247.87711999999996,537.0059648 247.87711999999996C537.0059648 247.87711999999996,537.1744448 247.87711999999996,537.3148448 247.87711999999996C539.8420447999999 248.01751999999996,541.3302848 249.67423999999997,541.3302848 251.75215999999998C541.3302848 252.76303999999996,540.9933248 253.91431999999998,540.1509248 255.00943999999996C538.5503648 257.17159999999996,535.9389248 258.35096,533.6644448 258.35096C531.8954047999999 258.35096,530.3790848 257.64896,529.6490048 256.21687999999995C529.4243647999999 255.65527999999998,529.3120448 255.12175999999997,529.3120448 254.53207999999998C529.3120448 251.47135999999998,532.7378047999999 248.07367999999997,536.6690047999999 247.87711999999996"></path></g></g><g class="vf-modifiers"></g></g><g class="vf-stavenote" id="vf-auto2629496"><g class="vf-note" pointer-events="bounding-box"><g class="vf-stem" pointer-events="bounding-box"><path stroke-width="1.5" fill="none" stroke="#000000" stroke-dasharray="none" class="vf-stem" id="vf-auto2629496-stem" d="M572.5802848 298.09999999999997L572.5802848 263.09999999999997"></path></g><g class="vf-notehead" pointer-events="bounding-box"><path stroke-width="0.3" fill="#000000" stroke="none" stroke-dasharray="none" d="M561.3120448 298.09999999999997M568.6690047999999 292.87712C568.7813248 292.87712,568.9498047999999 292.87712,568.9778848 292.87712C568.9778848 292.87712,569.0059648 292.87712,569.0059648 292.87712C569.0059648 292.87712,569.1744448 292.87712,569.3148448 292.87712C571.8420447999999 293.01752,573.3302848 294.67423999999994,573.3302848 296.75215999999995C573.3302848 297.76304,572.9933248 298.91432,572.1509248 300.00944C570.5503648 302.17159999999996,567.9389248 303.35096,565.6644448 303.35096C563.8954047999999 303.35096,562.3790848 302.64896,561.6490048 301.21687999999995C561.4243647999999 300.65527999999995,561.3120448 300.12175999999994,561.3120448 299.53207999999995C561.3120448 296.47135999999995,564.7378047999999 293.07367999999997,568.6690047999999 292.87712"></path></g></g><g class="vf-modifiers"></g></g><rect stroke-width="0.3" fill="#000000" stroke="#000000" stroke-dasharray="none" x="592.2788671999999" y="166.5" width="1" height="132.59999999999997"></rect><path stroke-width="1" fill="none" stroke="#000000" stroke-dasharray="none" d="M592.2788671999999 258.09999999999997L746.2456895999999 258.09999999999997"></path><path stroke-width="1" fill="none" stroke="#000000" stroke-dasharray="none" d="M592.2788671999999 268.09999999999997L746.2456895999999 268.09999999999997"></path><path stroke-width="1" fill="none" stroke="#000000" stroke-dasharray="none" d="M592.2788671999999 278.09999999999997L746.2456895999999 278.09999999999997"></path><path stroke-width="1" fill="none" stroke="#000000" stroke-dasharray="none" d="M592.2788671999999 288.09999999999997L746.2456895999999 288.09999999999997"></path><path stroke-width="1" fill="none" stroke="#000000" stroke-dasharray="none" d="M592.2788671999999 298.09999999999997L746.2456895999999 298.09999999999997"></path><rect stroke-width="0.3" fill="#000000" stroke="#000000" stroke-dasharray="none" x="741.2456895999999" y="257.59999999999997" width="1" height="41"></rect><rect stroke-width="0.3" fill="#000000" stroke="#000000" stroke-dasharray="none" x="744.2456895999999" y="257.59999999999997" width="3" height="41"></rect><path stroke-width="0.3" fill="#000000" stroke="none" stroke-dasharray="none" d="M740.2456895999999 273.59999999999997 A2 2 0 0 0 736.2456895999999 273.59999999999997M736.2456895999999 273.59999999999997 A2 2 0 0 0 740.2456895999999 273.59999999999997"></path><path stroke-width="0.3" fill="#000000" stroke="none" stroke-dasharray="none" d="M740.2456895999999 283.59999999999997 A2 2 0 0 0 736.2456895999999 283.59999999999997M736.2456895999999 283.59999999999997 A2 2 0 0 0 740.2456895999999 283.59999999999997"></path><path stroke-width="1" fill="none" stroke="#000000" stroke-dasharray="none" d="M640.7788671999999 248.09999999999997L658.7971071999999 248.09999999999997"></path><g class="vf-stavenote" id="vf-auto2629517"><g class="vf-note" pointer-events="bounding-box"><g class="vf-stem" pointer-events="bounding-box"><path stroke-width="1.5" fill="none" stroke="#000000" stroke-dasharray="none" class="vf-stem" id="vf-auto2629517-stem" d="M644.5288671999999 248.09999999999997L644.5288671999999 283.09999999999997"></path></g><g class="vf-notehead" pointer-events="bounding-box"><path stroke-width="0.3" fill="#000000" stroke="none" stroke-dasharray="none" d="M643.7788671999999 248.09999999999997M651.1358271999999 242.87711999999996C651.2481472 242.87711999999996,651.4166271999999 242.87711999999996,651.4447071999999 242.87711999999996C651.4447071999999 242.87711999999996,651.4727872 242.87711999999996,651.4727872 242.87711999999996C651.4727872 242.87711999999996,651.6412671999999 242.87711999999996,651.7816671999999 242.87711999999996C654.3088671999999 243.01751999999996,655.7971071999999 244.67423999999997,655.7971071999999 246.75215999999998C655.7971071999999 247.76303999999996,655.4601471999999 248.91431999999998,654.6177471999999 250.00943999999996C653.0171872 252.17159999999996,650.4057472 253.35095999999996,648.1312671999999 253.35095999999996C646.3622271999999 253.35095999999996,644.8459071999999 252.64895999999996,644.1158271999999 251.21687999999997C643.8911871999999 250.65527999999998,643.7788671999999 250.12175999999997,643.7788671999999 249.53207999999998C643.7788671999999 246.47135999999998,647.2046271999999 243.07367999999997,651.1358271999999 242.87711999999996"></path></g></g><g class="vf-modifiers"></g></g><g class="vf-stavenote" id="vf-auto2629525"><g class="vf-note" pointer-events="bounding-box"><g class="vf-stem" pointer-events="bounding-box"><path stroke-width="1.5" fill="none" stroke="#000000" stroke-dasharray="none" class="vf-stem" id="vf-auto2629525-stem" d="M689.5471071999999 288.09999999999997L689.5471071999999 253.09999999999997"></path></g><g class="vf-notehead" pointer-events="bounding-box"><path stroke-width="0.3" fill="#000000" stroke="none" stroke-dasharray="none" d="M678.2788671999999 288.09999999999997M685.6358271999999 282.87712C685.7481472 282.87712,685.9166271999999 282.87712,685.9447071999999 282.87712C685.9447071999999 282.87712,685.9727872 282.87712,685.9727872 282.87712C685.9727872 282.87712,686.1412671999999 282.87712,686.2816671999999 282.87712C688.8088671999999 283.01752,690.2971071999999 284.67423999999994,690.2971071999999 286.75215999999995C690.2971071999999 287.76304,689.9601471999999 288.91432,689.1177471999999 290.00944C687.5171872 292.17159999999996,684.9057472 293.35096,682.6312671999999 293.35096C680.8622271999999 293.35096,679.3459071999999 292.64896,678.6158271999999 291.21687999999995C678.3911871999999 290.65527999999995,678.2788671999999 290.12175999999994,678.2788671999999 289.53207999999995C678.2788671999999 286.47135999999995,681.7046271999999 283.07367999999997,685.6358271999999 282.87712"></path></g></g><g class="vf-modifiers"></g></g><g class="vf-stavenote" id="vf-auto2629533"><g class="vf-note" pointer-events="bounding-box"><g class="vf-stem" pointer-events="bounding-box"><path stroke-width="1.5" fill="none" stroke="#000000" stroke-dasharray="none" class="vf-stem" id="vf-auto2629533-stem" d="M724.0471071999999 293.09999999999997L724.0471071999999 258.09999999999997"></path></g><g class="vf-notehead" pointer-events="bounding-box"><path stroke-width="0.3" fill="#000000" stroke="none" stroke-dasharray="none" d="M712.7788671999999 293.09999999999997M720.1358271999999 287.87712C720.2481472 287.87712,720.4166271999999 287.87712,720.4447071999999 287.87712C720.4447071999999 287.87712,720.4727872 287.87712,720.4727872 287.87712C720.4727872 287.87712,720.6412671999999 287.87712,720.7816671999999 287.87712C723.3088671999999 288.01752,724.7971071999999 289.67423999999994,724.7971071999999 291.75215999999995C724.7971071999999 292.76304,724.4601471999999 293.91432,723.6177471999999 295.00944C722.0171872 297.17159999999996,719.4057472 298.35096,717.1312671999999 298.35096C715.3622271999999 298.35096,713.8459071999999 297.64896,713.1158271999999 296.21687999999995C712.8911871999999 295.65527999999995,712.7788671999999 295.12175999999994,712.7788671999999 294.53207999999995C712.7788671999999 291.47135999999995,716.2046271999999 288.07367999999997,720.1358271999999 287.87712"></path></g></g><g class="vf-modifiers"></g></g><rect stroke-width="0.3" fill="#000000" stroke="#000000" stroke-dasharray="none" x="741.2456895999999" y="166.5" width="1" height="132.59999999999997"></rect><rect stroke-width="0.3" fill="#000000" stroke="#000000" stroke-dasharray="none" x="744.2456895999999" y="166.5" width="3" height="132.59999999999997"></rect><path stroke-width="0.3" fill="#000000" stroke="none" stroke-dasharray="none" d="M68 166.5C45.2 193.01999999999998,81.2 214.899,56 232.79999999999998C81.2 250.70099999999996,45.2 272.58,68 299.09999999999997C44 272.58,72.8 250.70099999999996,56 232.79999999999998C72.8 214.899,44 193.01999999999998,68 166.5"></path><path stroke-width="1" fill="none" stroke="#000000" stroke-dasharray="none" d="M68 166.5C45.2 193.01999999999998,81.2 214.899,56 232.79999999999998C81.2 250.70099999999996,45.2 272.58,68 299.09999999999997C44 272.58,72.8 250.70099999999996,56 232.79999999999998C72.8 214.899,44 193.01999999999998,68 166.5"></path><g class="vf-text"><text stroke-width="0.3" fill="#000000" stroke="none" stroke-dasharray="none" font-family="Times New Roman" font-size="15px" font-weight="normal" font-style="normal" x="444.81204479999997" y="163.5">3</text></g></svg>