<svg xmlns="http://www.w3.org/2000/svg"  width="1470" height="380.79999999999995" viewBox="0 0 1470 380.79999999999995"><path stroke-width="1" fill="none" stroke="#000000" stroke-dasharray="none" d="M70 166.5L304.34522239999995 166.5"></path><path stroke-width="1" fill="none" stroke="#000000" stroke-dasharray="none" d="M70 176.5L304.34522239999995 176.5"></path><path stroke-width="1" fill="none" stroke="#000000" stroke-dasharray="none" d="M70 186.5L304.34522239999995 186.5"></path><path stroke-width="1" fill="none" stroke="#000000" stroke-dasharray="none" d="M70 196.5L304.34522239999995 196.5"></path><path stroke-width="1" fill="none" stroke="#000000" stroke-dasharray="none" d="M70 206.5L304.34522239999995 206.5"></path><rect stroke-width="0.3" fill="#000000" stroke="#000000" stroke-dasharray="none" x="304.34522239999995" y="166" width="1" height="41"></rect><g class="vf-clef"><path stroke-width="0.3" fill="#000000" stroke="none" stroke-dasharray="none" d="M75 196.5M89.0544 153.3288C89.112 153.3,89.1696 153.3,89.256 153.3C89.6016 153.3,90.0048 153.588,90.5808 154.308C92.9136 156.9864,94.5552 161.652,94.5552 165.4536C94.5552 165.7416,94.4976 165.972,94.4976 166.26C94.2384 170.7816,92.3952 174.4968,88.7376 178.0104L87.7584 178.9608L87.4128 179.3352L87.4128 179.4504L87.6144 180.3144L87.9312 181.8696L88.248 183.3096C88.68 185.268,88.8528 186.276,88.8528 186.276C88.8528 186.276,88.8528 186.276,88.8528 186.276C88.8528 186.276,88.968 186.276,89.112 186.2472C89.256 186.2472,89.7168 186.1896,90.2064 186.1896C90.55199999999999 186.1896,90.8976 186.2472,91.0704 186.2472C95.1312 186.7656,98.2704 189.6744,99.1632 193.764C99.336 194.4264,99.39359999999999 195.1464,99.39359999999999 195.8664C99.39359999999999 199.7544,97.0608 203.4696,93.1728 205.2264C92.94239999999999 205.3704,92.856 205.3992,92.856 205.3992L92.856 205.428C92.856 205.428,93.0288 206.0904,93.1728 206.8392L93.6048 209.028L94.008 210.7848C94.2384 211.908,94.3536 212.7144,94.3536 213.4344C94.3536 214.06799999999998,94.2672 214.644,94.1232 215.3064C93.144 219.3096,89.6592 221.7,86.0304 221.7C84.2448 221.7,82.4016 221.124,80.7888 219.828C79.3488 218.6184,78.7152 217.524,78.7152 216.084C78.7152 213.5496,80.76 211.764,82.8912 211.764C83.64 211.764,84.3888 211.99439999999998,85.1088 212.4264C86.3184 213.2616,86.8656 214.5288,86.8656 215.7672C86.8656 217.668,85.5408 219.54,83.2656 219.684L83.0352 219.684L83.208 219.79919999999998C84.1584 220.2024,85.1088 220.404,86.0304 220.404C88.3632 220.404,90.55199999999999 219.2232,91.8768 217.1784C92.62559999999999 216.0264,93.0288 214.6728,93.0288 213.3192C93.0288 212.8008,92.94239999999999 212.2824,92.8272 211.7064C92.8272 211.6488,92.74080000000001 211.188,92.62559999999999 210.756C91.992 207.6456,91.6176 205.8312,91.6176 205.8312C91.6176 205.8312,91.6176 205.8312,91.6176 205.8312C91.56 205.8312,91.4448 205.8312,91.3584 205.8888C91.0704 205.9464,90.4656 206.0904,90.2064 206.1192C89.5728 206.2056,88.968 206.2344,88.392 206.2344C82.74719999999999 206.2344,77.5056 202.4328,75.6912 196.8168C75.2304 195.3192,74.9712 193.8216,74.9712 192.324C74.9712 189.3288,75.9216 186.3912,77.7648 183.7704C79.7808 180.9192,81.7968 178.4712,84.2736 175.9368L85.13759999999999 175.044L84.936 173.9784L84.5616 172.2216L84.072 169.9752C83.928 169.14,83.7552 168.3336,83.7264 168.1608C83.5824 167.2104,83.496 166.2888,83.496 165.3384C83.496 161.7096,84.6768 158.22480000000002,86.8944 155.4312C87.5568 154.5672,88.7376 153.4152,89.0544 153.3288M90.8112 159.0312C90.7536 159.0312,90.6672 159.0312,90.5808 159.0312C89.4 159.0312,87.8736 160.1256,86.8368 161.7384C85.7712 163.32240000000002,85.224 165.4248,85.224 167.5848C85.224 168.1608,85.25280000000001 168.7656,85.3392 169.3704C85.4256 169.8024,85.45439999999999 170.0904,85.6848 171.12720000000002L86.088 172.9416C86.2032 173.4888,86.28960000000001 173.92079999999999,86.28960000000001 173.9784L86.28960000000001 173.9784C86.3184 173.9784,87.2112 172.9992,87.4992 172.6536C90.3792 169.3992,92.1072 165.972,92.4816 162.948C92.5104 162.66,92.5104 162.4296,92.5104 162.1416C92.5104 161.24880000000002,92.3952 160.38479999999998,92.1936 159.924C91.9632 159.4632,91.4448 159.0888,90.8112 159.0312M86.4624 181.2936C86.4048 180.8904,86.3184 180.5736,86.3184 180.516C86.3184 180.516,86.3184 180.516,86.28960000000001 180.516C86.232 180.516,84.9936 181.956,84.1296 182.964C82.6608 184.7496,81.1056 186.8808,80.472 187.9176C79.2624 189.9624,78.6576 192.2376,78.6576 194.484C78.6576 195.9528,78.9456 197.364,79.464 198.7176C81.0192 202.7208,84.5904 205.2264,88.4784 205.2264C88.9392 205.2264,89.4576 205.1976,89.9472 205.1112C90.5808 204.996,91.3584 204.7656,91.3584 204.6792L91.3584 204.6792C91.3584 204.6792,91.3008 204.3912,91.2144 204.0744L90.3792 199.956L89.7168 196.8744L89.2848 194.7432L88.824 192.6696C88.5936 191.4312,88.5072 191.1144,88.5072 191.1144C88.5072 191.1144,88.5072 191.0856,88.4784 191.0856C88.3056 191.0856,87.384 191.5464,86.9808 191.8344C85.4832 192.8712,84.7056 194.5128,84.7056 196.1256C84.7056 197.652,85.45439999999999 199.1784,86.8944 200.0712C87.2112 200.2728,87.3264 200.4456,87.3264 200.6472C87.3264 200.676,87.3264 200.7624,87.3264 200.7912C87.2688 201.1368,87.0672 201.2808,86.7792 201.2808C86.664 201.2808,86.52 201.252,86.3472 201.1656C83.6976 200.0136,81.912 197.2776,81.912 194.2824L81.912 194.2824C81.912 190.8264,84.072 187.8312,87.384 186.6504L87.5568 186.5928L87.2688 185.1528L86.4624 181.2936M90.7824 190.9128C90.55199999999999 190.88400000000001,90.3216 190.88400000000001,90.1488 190.88400000000001C90.0912 190.88400000000001,90.0048 190.88400000000001,89.9472 190.88400000000001L89.8032 190.88400000000001L89.9184 191.4024L90.5232 194.2248L90.8976 196.068L91.3008 197.8824L92.1072 201.8856L92.424 203.412C92.5392 203.8152,92.5968 204.1608,92.62559999999999 204.1608C92.62559999999999 204.1608,92.62559999999999 204.1608,92.62559999999999 204.1608C92.6544 204.1608,93.144 203.8728,93.4608 203.6424C94.9296 202.6056,96.024 200.9928,96.4272 199.3224C96.5712 198.7752,96.6288 198.1992,96.6288 197.652C96.6288 194.3112,94.152 191.2872,90.7824 190.9128"></path></g><path stroke-width="0.3" fill="#000000" stroke="none" stroke-dasharray="none" d="M116 186.5M121.0112 168.1544C121.04 168.1256,121.4432 168.1256,122.6816 168.1256C123.056 168.1256,123.4592 168.1256,123.9776 168.1256L126.8864 168.1256L126.9728 168.212C127.1168 168.29840000000002,127.2032 168.4424,127.2032 168.5576C127.2032 168.7304,127.1168 168.8456,127.0016 168.9608C126.9728 169.0472,126.7136 169.2776,126.5408 169.5368L125.0144 171.2936L123.056 173.5112L122.0192 174.692L120.464 176.4776L118.4192 178.8104C118.0736 179.2424,117.6992 179.588,117.6992 179.588C117.6992 179.588,117.6992 179.588,117.6992 179.588C117.6992 179.6456,117.9584 179.6456,120.3488 179.6456L122.9696 179.6456L122.9696 177.7736C122.9696 175.8728,122.9696 175.844,122.9984 175.8152C123.056 175.7288,123.3152 175.412,124.3232 174.2312L124.7264 173.7992L125.1296 173.3672L125.7344 172.5896L126.368 171.9272L126.6848 171.524C126.8 171.3512,126.9728 171.3224,127.1168 171.3224C127.28960000000001 171.3224,127.4336 171.4088,127.52 171.5528C127.5488 171.6392,127.5488 171.6968,127.5488 173.828C127.5488 174.3176,127.5488 174.9224,127.5488 175.6424L127.5488 179.6456L128.2688 179.6456C128.9312 179.6456,128.96 179.6456,129.0464 179.6744C129.2768 179.7608,129.392 179.9912,129.392 180.2504C129.392 180.3944,129.3632 180.5672,129.248 180.6824C129.0752 180.8264,129.0464 180.8264,128.2688 180.8264L127.5488 180.8264L127.5488 181.316C127.5776 182.7848,127.8656 183.3608,128.9888 183.9656C129.392 184.1672,129.4784 184.2248,129.4784 184.5128C129.4784 184.7144,129.42079999999999 184.8008,129.2768 184.916L129.1904 184.9448L125.2448 184.9448L121.328 184.9448L121.2416 184.916C121.0688 184.8008,121.04 184.7144,121.04 184.5128C121.04 184.2248,121.0688 184.1672,121.5008 183.9656C122.624 183.3608,122.912 182.7848,122.912 181.316L122.912 180.8264L119.6 180.8264C118.9952 180.88400000000001,118.5056 180.88400000000001,118.1024 180.88400000000001C116.288 180.88400000000001,116.2592 180.8264,116.2304 180.8264C116.0576 180.7688,116 180.596,116 180.3944C116 180.3944,116 180.3944,116 180.3944C116 180.1928,116 180.1928,116.576 179.5304C118.9952 176.5928,120.6944 172.3304,120.6944 168.93200000000002C120.6944 168.4136,120.7808 168.2408,121.0112 168.1544M122.7392 186.5288L122.768 186.5288L122.6816 186.5288L122.7392 186.5288M122.7392 167.1176L122.768 167.1176L122.6816 167.1176L122.7392 167.1176"></path><path stroke-width="0.3" fill="#000000" stroke="none" stroke-dasharray="none" d="M116 206.5M121.0112 188.1544C121.04 188.1256,121.4432 188.1256,122.6816 188.1256C123.056 188.1256,123.4592 188.1256,123.9776 188.1256L126.8864 188.1256L126.9728 188.212C127.1168 188.29840000000002,127.2032 188.4424,127.2032 188.5576C127.2032 188.7304,127.1168 188.8456,127.0016 188.9608C126.9728 189.0472,126.7136 189.2776,126.5408 189.5368L125.0144 191.2936L123.056 193.5112L122.0192 194.692L120.464 196.4776L118.4192 198.8104C118.0736 199.2424,117.6992 199.588,117.6992 199.588C117.6992 199.588,117.6992 199.588,117.6992 199.588C117.6992 199.6456,117.9584 199.6456,120.3488 199.6456L122.9696 199.6456L122.9696 197.7736C122.9696 195.8728,122.9696 195.844,122.9984 195.8152C123.056 195.7288,123.3152 195.412,124.3232 194.2312L124.7264 193.7992L125.1296 193.3672L125.7344 192.5896L126.368 191.9272L126.6848 191.524C126.8 191.3512,126.9728 191.3224,127.1168 191.3224C127.28960000000001 191.3224,127.4336 191.4088,127.52 191.5528C127.5488 191.6392,127.5488 191.6968,127.5488 193.828C127.5488 194.3176,127.5488 194.9224,127.5488 195.6424L127.5488 199.6456L128.2688 199.6456C128.9312 199.6456,128.96 199.6456,129.0464 199.6744C129.2768 199.7608,129.392 199.9912,129.392 200.2504C129.392 200.3944,129.3632 200.5672,129.248 200.6824C129.0752 200.8264,129.0464 200.8264,128.2688 200.8264L127.5488 200.8264L127.5488 201.316C127.5776 202.7848,127.8656 203.3608,128.9888 203.9656C129.392 204.1672,129.4784 204.2248,129.4784 204.5128C129.4784 204.7144,129.42079999999999 204.8008,129.2768 204.916L129.1904 204.9448L125.2448 204.9448L121.328 204.9448L121.2416 204.916C121.0688 204.8008,121.04 204.7144,121.04 204.5128C121.04 204.2248,121.0688 204.1672,121.5008 203.9656C122.624 203.3608,122.912 202.7848,122.912 201.316L122.912 200.8264L119.6 200.8264C118.9952 200.88400000000001,118.5056 200.88400000000001,118.1024 200.88400000000001C116.288 200.88400000000001,116.2592 200.8264,116.2304 200.8264C116.0576 200.7688,116 200.596,116 200.3944C116 200.3944,116 200.3944,116 200.3944C116 200.1928,116 200.1928,116.576 199.5304C118.9952 196.5928,120.6944 192.3304,120.6944 188.93200000000002C120.6944 188.4136,120.7808 188.2408,121.0112 188.1544M122.7392 206.5288L122.768 206.5288L122.6816 206.5288L122.7392 206.5288M122.7392 187.1176L122.768 187.1176L122.6816 187.1176L122.7392 187.1176"></path><g class="vf-stavenote" id="vf-auto2877239"><g class="vf-note" pointer-events="bounding-box"><g class="vf-stem" pointer-events="bounding-box"><path stroke-width="1.5" fill="none" stroke="#000000" stroke-dasharray="none" class="vf-stem" id="vf-auto2877239-stem" d="M183.3588 176.5L183.3588 211.5"></path></g><g class="vf-notehead" pointer-events="bounding-box"><path stroke-width="0.3" fill="#000000" stroke="none" stroke-dasharray="none" d="M182.6088 176.5M189.96576 171.27712C190.07808 171.27712,190.24656 171.27712,190.27464 171.27712C190.27464 171.27712,190.30272 171.27712,190.30272 171.27712C190.30272 171.27712,190.4712 171.27712,190.6116 171.27712C193.1388 171.41752,194.62704 173.07424,194.62704 175.15216C194.62704 176.16304,194.29008 177.31432,193.44768 178.40944C191.84712 180.5716,189.23568 181.75096,186.9612 181.75096C185.19216 181.75096,183.67584 181.04896,182.94576 179.61688C182.72112 179.05528,182.6088 178.52176,182.6088 177.93208C182.6088 174.87136,186.03456 171.47368,189.96576 171.27712"></path></g></g><g class="vf-modifiers"></g></g><g class="vf-stavenote" id="vf-auto2877247"><g class="vf-note" pointer-events="bounding-box"><g class="vf-stem" pointer-events="bounding-box"><path stroke-width="1.5" fill="none" stroke="#000000" stroke-dasharray="none" class="vf-stem" id="vf-auto2877247-stem" d="M235.00743999999997 201.5L235.00743999999997 166.5"></path></g><g class="vf-notehead" pointer-events="bounding-box"><path stroke-width="0.3" fill="#000000" stroke="none" stroke-dasharray="none" d="M223.73919999999998 201.5M231.09615999999997 196.27712C231.20847999999998 196.27712,231.37696 196.27712,231.40503999999999 196.27712C231.40503999999999 196.27712,231.43311999999997 196.27712,231.43311999999997 196.27712C231.43311999999997 196.27712,231.6016 196.27712,231.742 196.27712C234.26919999999998 196.41752,235.75743999999997 198.07424,235.75743999999997 200.15216C235.75743999999997 201.16304,235.42048 202.31432,234.57807999999997 203.40944C232.97751999999997 205.5716,230.36607999999998 206.75096,228.09159999999997 206.75096C226.32255999999998 206.75096,224.80623999999997 206.04896,224.07616 204.61688C223.85152 204.05528,223.73919999999998 203.52176,223.73919999999998 202.93208C223.73919999999998 199.87136,227.16495999999998 196.47368,231.09615999999997 196.27712"></path></g></g><g class="vf-modifiers"></g></g><g class="vf-stavenote" id="vf-auto2877255"><g class="vf-note" pointer-events="bounding-box"><g class="vf-stem" pointer-events="bounding-box"><path stroke-width="1.5" fill="none" stroke="#000000" stroke-dasharray="none" class="vf-stem" id="vf-auto2877255-stem" d="M276.13784 196.5L276.13784 161.5"></path></g><g class="vf-notehead" pointer-events="bounding-box"><path stroke-width="0.3" fill="#000000" stroke="none" stroke-dasharray="none" d="M264.8696 196.5M272.22656 191.27712C272.33888 191.27712,272.50736 191.27712,272.53544 191.27712C272.53544 191.27712,272.56352 191.27712,272.56352 191.27712C272.56352 191.27712,272.73199999999997 191.27712,272.87239999999997 191.27712C275.39959999999996 191.41752,276.88784 193.07424,276.88784 195.15216C276.88784 196.16304,276.55088 197.31432,275.70848 198.40944C274.10792 200.5716,271.49648 201.75096,269.222 201.75096C267.45296 201.75096,265.93664 201.04896,265.20655999999997 199.61688C264.98192 199.05528,264.8696 198.52176,264.8696 197.93208C264.8696 194.87136,268.29536 191.47368,272.22656 191.27712"></path></g></g><g class="vf-modifiers"></g></g><path stroke-width="1" fill="none" stroke="#000000" stroke-dasharray="none" d="M304.34522239999995 166.5L452.5120447999999 166.5"></path><path stroke-width="1" fill="none" stroke="#000000" stroke-dasharray="none" d="M304.34522239999995 176.5L452.5120447999999 176.5"></path><path stroke-width="1" fill="none" stroke="#000000" stroke-dasharray="none" d="M304.34522239999995 186.5L452.5120447999999 186.5"></path><path stroke-width="1" fill="none" stroke="#000000" stroke-dasharray="none" d="M304.34522239999995 196.5L452.5120447999999 196.5"></path><path stroke-width="1" fill="none" stroke="#000000" stroke-dasharray="none" d="M304.34522239999995 206.5L452.5120447999999 206.5"></path><rect stroke-width="0.3" fill="#000000" stroke="#000000" stroke-dasharray="none" x="452.5120447999999" y="166" width="1" height="41"></rect><g class="vf-stavenote" id="vf-auto2877276"><g class="vf-note" pointer-events="bounding-box"><g class="vf-stem" pointer-events="bounding-box"><path stroke-width="1.5" fill="none" stroke="#000000" stroke-dasharray="none" class="vf-stem" id="vf-auto2877276-stem" d="M332.61346239999995 196.5L332.61346239999995 161.5"></path></g><g class="vf-notehead" pointer-events="bounding-box"><path stroke-width="0.3" fill="#000000" stroke="none" stroke-dasharray="none" d="M321.34522239999995 196.5M328.70218239999997 191.27712C328.8145024 191.27712,328.98298239999997 191.27712,329.01106239999996 191.27712C329.01106239999996 191.27712,329.03914239999995 191.27712,329.03914239999995 191.27712C329.03914239999995 191.27712,329.20762239999993 191.27712,329.34802239999993 191.27712C331.8752224 191.41752,333.36346239999995 193.07424,333.36346239999995 195.15216C333.36346239999995 196.16304,333.02650239999997 197.31432,332.1841024 198.40944C330.58354239999994 200.5716,327.9721023999999 201.75096,325.69762239999994 201.75096C323.9285824 201.75096,322.4122624 201.04896,321.68218239999993 199.61688C321.45754239999997 199.05528,321.34522239999995 198.52176,321.34522239999995 197.93208C321.34522239999995 194.87136,324.7709824 191.47368,328.70218239999997 191.27712"></path></g></g><g class="vf-modifiers"></g></g><path stroke-width="1" fill="none" stroke="#000000" stroke-dasharray="none" d="M418.09522239999995 216.5L436.11346239999995 216.5"></path><g class="vf-stavenote" id="vf-auto2877284"><g class="vf-note" pointer-events="bounding-box"><g class="vf-stem" pointer-events="bounding-box"><path stroke-width="1.5" fill="none" stroke="#000000" stroke-dasharray="none" class="vf-stem" id="vf-auto2877284-stem" d="M432.36346239999995 221.5L432.36346239999995 186.5"></path></g><g class="vf-notehead" pointer-events="bounding-box"><path stroke-width="0.3" fill="#000000" stroke="none" stroke-dasharray="none" d="M421.09522239999995 221.5M428.45218239999997 216.27712C428.5645024 216.27712,428.73298239999997 216.27712,428.76106239999996 216.27712C428.76106239999996 216.27712,428.78914239999995 216.27712,428.78914239999995 216.27712C428.78914239999995 216.27712,428.95762239999993 216.27712,429.09802239999993 216.27712C431.6252224 216.41752,433.11346239999995 218.07424,433.11346239999995 220.15216C433.11346239999995 221.16304,432.77650239999997 222.31432,431.9341024 223.40944C430.33354239999994 225.5716,427.7221023999999 226.75096,425.44762239999994 226.75096C423.6785824 226.75096,422.1622624 226.04896,421.43218239999993 224.61688C421.20754239999997 224.05528,421.09522239999995 223.52176,421.09522239999995 222.93208C421.09522239999995 219.87136,424.5209824 216.47368,428.45218239999997 216.27712"></path></g></g><g class="vf-modifiers"></g></g><path stroke-width="1" fill="none" stroke="#000000" stroke-dasharray="none" d="M452.5120447999999 166.5L604.8788671999998 166.5"></path><path stroke-width="1" fill="none" stroke="#000000" stroke-dasharray="none" d="M452.5120447999999 176.5L604.8788671999998 176.5"></path><path stroke-width="1" fill="none" stroke="#000000" stroke-dasharray="none" d="M452.5120447999999 186.5L604.8788671999998 186.5"></path><path stroke-width="1" fill="none" stroke="#000000" stroke-dasharray="none" d="M452.5120447999999 196.5L604.8788671999998 196.5"></path><path stroke-width="1" fill="none" stroke="#000000" stroke-dasharray="none" d="M452.5120447999999 206.5L604.8788671999998 206.5"></path><rect stroke-width="0.3" fill="#000000" stroke="#000000" stroke-dasharray="none" x="604.8788671999998" y="166" width="1" height="41"></rect><g class="vf-stavenote" id="vf-auto2877313"><g class="vf-note" pointer-events="bounding-box"><g class="vf-stem" pointer-events="bounding-box"><path stroke-width="1.5" fill="none" stroke="#000000" stroke-dasharray="none" class="vf-stem" id="vf-auto2877313-stem" d="M470.2620447999999 171.5L470.2620447999999 206.5"></path></g><g class="vf-notehead" pointer-events="bounding-box"><path stroke-width="0.3" fill="#000000" stroke="none" stroke-dasharray="none" d="M469.5120447999999 171.5M476.8690047999999 166.27712C476.9813247999999 166.27712,477.1498047999999 166.27712,477.1778847999999 166.27712C477.1778847999999 166.27712,477.2059647999999 166.27712,477.2059647999999 166.27712C477.2059647999999 166.27712,477.3744447999999 166.27712,477.5148447999999 166.27712C480.04204479999987 166.41752,481.5302847999999 168.07424,481.5302847999999 170.15216C481.5302847999999 171.16304,481.1933247999999 172.31432,480.3509247999999 173.40944C478.7503647999999 175.5716,476.1389247999999 176.75096,473.8644447999999 176.75096C472.0954047999999 176.75096,470.5790847999999 176.04896,469.8490047999999 174.61688C469.6243647999999 174.05528,469.5120447999999 173.52176,469.5120447999999 172.93208C469.5120447999999 169.87136,472.9378047999999 166.47368,476.8690047999999 166.27712"></path></g></g><g class="vf-modifiers"></g></g><g class="vf-stavenote" id="vf-auto2877321"><g class="vf-note" pointer-events="bounding-box"><g class="vf-stem" pointer-events="bounding-box"><path stroke-width="1.5" fill="none" stroke="#000000" stroke-dasharray="none" class="vf-stem" id="vf-auto2877321-stem" d="M538.7620447999999 171.5L538.7620447999999 206.5"></path></g><g class="vf-notehead" pointer-events="bounding-box"><path stroke-width="0.3" fill="#000000" stroke="none" stroke-dasharray="none" d="M538.0120447999999 171.5M545.3690047999999 166.27712C545.4813247999999 166.27712,545.6498047999999 166.27712,545.6778847999999 166.27712C545.6778847999999 166.27712,545.7059648 166.27712,545.7059648 166.27712C545.7059648 166.27712,545.8744447999999 166.27712,546.0148447999999 166.27712C548.5420447999999 166.41752,550.0302847999999 168.07424,550.0302847999999 170.15216C550.0302847999999 171.16304,549.6933247999999 172.31432,548.8509247999999 173.40944C547.2503647999999 175.5716,544.6389247999999 176.75096,542.3644447999999 176.75096C540.5954047999999 176.75096,539.0790847999999 176.04896,538.3490047999999 174.61688C538.1243647999999 174.05528,538.0120447999999 173.52176,538.0120447999999 172.93208C538.0120447999999 169.87136,541.4378047999999 166.47368,545.3690047999999 166.27712"></path></g></g><g class="vf-modifiers"></g></g><path stroke-width="1" fill="none" stroke="#000000" stroke-dasharray="none" d="M569.2620447999999 216.5L587.2802847999999 216.5"></path><g class="vf-stavenote" id="vf-auto2877329"><g class="vf-note" pointer-events="bounding-box"><g class="vf-stem" pointer-events="bounding-box"><path stroke-width="1.5" fill="none" stroke="#000000" stroke-dasharray="none" class="vf-stem" id="vf-auto2877329-stem" d="M583.5302847999999 221.5L583.5302847999999 186.5"></path></g><g class="vf-notehead" pointer-events="bounding-box"><path stroke-width="0.3" fill="#000000" stroke="none" stroke-dasharray="none" d="M572.2620447999999 221.5M579.6190047999999 216.27712C579.7313247999999 216.27712,579.8998047999999 216.27712,579.9278847999999 216.27712C579.9278847999999 216.27712,579.9559648 216.27712,579.9559648 216.27712C579.9559648 216.27712,580.1244447999999 216.27712,580.2648447999999 216.27712C582.7920447999999 216.41752,584.2802847999999 218.07424,584.2802847999999 220.15216C584.2802847999999 221.16304,583.9433247999999 222.31432,583.1009247999999 223.40944C581.5003647999999 225.5716,578.8889247999999 226.75096,576.6144447999999 226.75096C574.8454047999999 226.75096,573.3290847999999 226.04896,572.5990047999999 224.61688C572.3743647999999 224.05528,572.2620447999999 223.52176,572.2620447999999 222.93208C572.2620447999999 219.87136,575.6878047999999 216.47368,579.6190047999999 216.27712"></path></g></g><g class="vf-modifiers"></g></g><path stroke-width="1" fill="none" stroke="#000000" stroke-dasharray="none" d="M604.8788672 166.5L767.2456895999999 166.5"></path><path stroke-width="1" fill="none" stroke="#000000" stroke-dasharray="none" d="M604.8788672 176.5L767.2456895999999 176.5"></path><path stroke-width="1" fill="none" stroke="#000000" stroke-dasharray="none" d="M604.8788672 186.5L767.2456895999999 186.5"></path><path stroke-width="1" fill="none" stroke="#000000" stroke-dasharray="none" d="M604.8788672 196.5L767.2456895999999 196.5"></path><path stroke-width="1" fill="none" stroke="#000000" stroke-dasharray="none" d="M604.8788672 206.5L767.2456895999999 206.5"></path><rect stroke-width="0.3" fill="#000000" stroke="#000000" stroke-dasharray="none" x="762.2456895999999" y="166" width="1" height="41"></rect><rect stroke-width="0.3" fill="#000000" stroke="#000000" stroke-dasharray="none" x="765.2456895999999" y="166" width="3" height="41"></rect><path stroke-width="0.3" fill="#000000" stroke="none" stroke-dasharray="none" d="M761.2456895999999 182 A2 2 0 0 0 757.2456895999999 182M757.2456895999999 182 A2 2 0 0 0 761.2456895999999 182"></path><path stroke-width="0.3" fill="#000000" stroke="none" stroke-dasharray="none" d="M761.2456895999999 192 A2 2 0 0 0 757.2456895999999 192M757.2456895999999 192 A2 2 0 0 0 761.2456895999999 192"></path><g class="vf-stavenote" id="vf-auto2877350"><g class="vf-note" pointer-events="bounding-box"><g class="vf-stem" pointer-events="bounding-box"><path stroke-width="1.5" fill="none" stroke="#000000" stroke-dasharray="none" class="vf-stem" id="vf-auto2877350-stem" d="M622.6288672 186.5L622.6288672 221.5"></path></g><g class="vf-notehead" pointer-events="bounding-box"><path stroke-width="0.3" fill="#000000" stroke="none" stroke-dasharray="none" d="M621.8788672 186.5M629.2358271999999 181.27712C629.3481472 181.27712,629.5166271999999 181.27712,629.5447072 181.27712C629.5447072 181.27712,629.5727872 181.27712,629.5727872 181.27712C629.5727872 181.27712,629.7412671999999 181.27712,629.8816671999999 181.27712C632.4088671999999 181.41752,633.8971071999999 183.07424,633.8971071999999 185.15216C633.8971071999999 186.16304,633.5601472 187.31432,632.7177472 188.40944C631.1171872 190.5716,628.5057472 191.75096,626.2312671999999 191.75096C624.4622271999999 191.75096,622.9459072 191.04896,622.2158271999999 189.61688C621.9911871999999 189.05528,621.8788672 188.52176,621.8788672 187.93208C621.8788672 184.87136,625.3046271999999 181.47368,629.2358271999999 181.27712"></path></g></g><g class="vf-modifiers"></g></g><path stroke-width="1" fill="none" stroke="#000000" stroke-dasharray="none" d="M692.3788672 216.5L710.3971071999999 216.5"></path><g class="vf-stavenote" id="vf-auto2877358"><g class="vf-note" pointer-events="bounding-box"><g class="vf-stem" pointer-events="bounding-box"><path stroke-width="1.5" fill="none" stroke="#000000" stroke-dasharray="none" class="vf-stem" id="vf-auto2877358-stem" d="M706.6471071999999 221.5L706.6471071999999 186.5"></path></g><g class="vf-notehead" pointer-events="bounding-box"><path stroke-width="0.3" fill="#000000" stroke="none" stroke-dasharray="none" d="M695.3788672 221.5M702.7358271999999 216.27712C702.8481472 216.27712,703.0166271999999 216.27712,703.0447072 216.27712C703.0447072 216.27712,703.0727872 216.27712,703.0727872 216.27712C703.0727872 216.27712,703.2412671999999 216.27712,703.3816671999999 216.27712C705.9088671999999 216.41752,707.3971071999999 218.07424,707.3971071999999 220.15216C707.3971071999999 221.16304,707.0601472 222.31432,706.2177472 223.40944C704.6171872 225.5716,702.0057472 226.75096,699.7312671999999 226.75096C697.9622271999999 226.75096,696.4459072 226.04896,695.7158271999999 224.61688C695.4911871999999 224.05528,695.3788672 223.52176,695.3788672 222.93208C695.3788672 219.87136,698.8046271999999 216.47368,702.7358271999999 216.27712"></path></g></g><g class="vf-modifiers"></g></g><path stroke-width="1" fill="none" stroke="#000000" stroke-dasharray="none" d="M729.1288672 216.5L747.1471071999999 216.5"></path><g class="vf-stavenote" id="vf-auto2877366"><g class="vf-note" pointer-events="bounding-box"><g class="vf-stem" pointer-events="bounding-box"><path stroke-width="1.5" fill="none" stroke="#000000" stroke-dasharray="none" class="vf-stem" id="vf-auto2877366-stem" d="M743.3971071999999 221.5L743.3971071999999 186.5"></path></g><g class="vf-notehead" pointer-events="bounding-box"><path stroke-width="0.3" fill="#000000" stroke="none" stroke-dasharray="none" d="M732.1288672 221.5M739.4858271999999 216.27712C739.5981472 216.27712,739.7666271999999 216.27712,739.7947072 216.27712C739.7947072 216.27712,739.8227872 216.27712,739.8227872 216.27712C739.8227872 216.27712,739.9912671999999 216.27712,740.1316671999999 216.27712C742.6588671999999 216.41752,744.1471071999999 218.07424,744.1471071999999 220.15216C744.1471071999999 221.16304,743.8101472 222.31432,742.9677472 223.40944C741.3671872 225.5716,738.7557472 226.75096,736.4812671999999 226.75096C734.7122271999999 226.75096,733.1959072 226.04896,732.4658271999999 224.61688C732.2411871999999 224.05528,732.1288672 223.52176,732.1288672 222.93208C732.1288672 219.87136,735.5546271999999 216.47368,739.4858271999999 216.27712"></path></g></g><g class="vf-modifiers"></g></g><g class="vf-text"><text stroke-width="0.3" fill="#000000" stroke="none" stroke-dasharray="none" font-family="Times New Roman" font-size="23px" font-weight="bold" font-style="italic" x="158.4784" y="240.5">mf</text></g><path stroke-width="1" fill="none" stroke="#000000" stroke-dasharray="none" d="M70 259.3L304.34522239999995 259.3"></path><path stroke-width="1" fill="none" stroke="#000000" stroke-dasharray="none" d="M70 269.3L304.34522239999995 269.3"></path><path stroke-width="1" fill="none" stroke="#000000" stroke-dasharray="none" d="M70 279.3L304.34522239999995 279.3"></path><path stroke-width="1" fill="none" stroke="#000000" stroke-dasharray="none" d="M70 289.3L304.34522239999995 289.3"></path><path stroke-width="1" fill="none" stroke="#000000" stroke-dasharray="none" d="M70 299.3L304.34522239999995 299.3"></path><rect stroke-width="0.3" fill="#000000" stroke="#000000" stroke-dasharray="none" x="304.34522239999995" y="258.8" width="1" height="41"></rect><g class="vf-clef"><path stroke-width="0.3" fill="#000000" stroke="none" stroke-dasharray="none" d="M75 269.3M83.8416 259.2488C84.072 259.19120000000004,84.3024 259.19120000000004,84.5616 259.19120000000004C85.5696 259.19120000000004,86.7504 259.3064,87.7584 259.50800000000004C92.4816 260.48720000000003,95.736 263.684,96.3408 267.94640000000004C96.3984 268.4072,96.4272 268.8392,96.4272 269.3C96.4272 271.892,95.5344 275.2328,94.008 278.0264C90.3792 284.5928,83.7552 289.31600000000003,75.8064 291.044C75.6624 291.044,75.5472 291.07280000000003,75.4032 291.07280000000003C75.1152 291.07280000000003,74.9712 290.90000000000003,74.9712 290.6408C74.9712 290.3528,75.0288 290.26640000000003,75.6048 290.036C84.7056 286.60880000000003,90.7824 279.2072,91.3296 270.9128C91.3584 270.4808,91.3584 269.9912,91.3584 269.6168C91.3584 265.58480000000003,90.12 262.5896,87.7296 261.092C86.6928 260.4296,85.5696 260.1128,84.36 260.1128C81.6816 260.1128,78.9456 261.6392,77.6784 264.2024C77.6208 264.404,77.4192 264.836,77.4192 264.8648C77.4192 264.8648,77.4192 264.8648,77.4192 264.8648C77.4192 264.8648,77.448 264.836,77.5344 264.8072C78.168 264.404,78.8592 264.2024,79.5792 264.2024C80.5872 264.2024,81.6528 264.6344,82.4016 265.4408C83.0928 266.1896,83.4672 267.1976,83.4672 268.11920000000003C83.4672 269.9912,82.0848 271.892,79.9248 272.09360000000004C79.7808 272.09360000000004,79.6368 272.1224,79.4928 272.1224C77.1024 272.1224,75.1728 269.9336,75.1728 267.16880000000003C75.1728 267.1112,75.1728 267.0248,75.1728 266.99600000000004C75.288 262.87760000000003,79.0608 259.50800000000004,83.8416 259.2488M99.1632 263.108C99.2208 263.0792,99.2496 263.0792,99.336 263.0792C99.5376 263.0792,99.768 263.108,99.8256 263.16560000000004C100.54560000000001 263.3672,100.8912 264.0008,100.8912 264.60560000000004C100.8912 265.124,100.632 265.6424,100.11359999999999 265.9304C99.912 266.0744,99.6528 266.1032,99.39359999999999 266.1032C98.9904 266.1032,98.5584 265.9304,98.2704 265.55600000000004C98.03999999999999 265.26800000000003,97.9248 264.95120000000003,97.9248 264.6344C97.9248 263.9144,98.3856 263.19440000000003,99.1632 263.108M99.1632 272.5256C99.2208 272.5256,99.2496 272.5256,99.336 272.5256C99.5376 272.5256,99.768 272.5544,99.8256 272.612C100.54560000000001 272.8136,100.8912 273.4472,100.8912 274.052C100.8912 274.5704,100.632 275.0888,100.11359999999999 275.348C99.912 275.492,99.6528 275.5496,99.39359999999999 275.5496C98.9904 275.5496,98.5584 275.348,98.2704 275.0024C98.03999999999999 274.7144,97.9248 274.3976,97.9248 274.052C97.9248 273.332,98.3856 272.6408,99.1632 272.5256"></path></g><path stroke-width="0.3" fill="#000000" stroke="none" stroke-dasharray="none" d="M116 279.3M121.0112 260.9544C121.04 260.92560000000003,121.4432 260.92560000000003,122.6816 260.92560000000003C123.056 260.92560000000003,123.4592 260.92560000000003,123.9776 260.92560000000003L126.8864 260.92560000000003L126.9728 261.012C127.1168 261.0984,127.2032 261.24240000000003,127.2032 261.3576C127.2032 261.5304,127.1168 261.6456,127.0016 261.7608C126.9728 261.8472,126.7136 262.0776,126.5408 262.33680000000004L125.0144 264.09360000000004L123.056 266.3112L122.0192 267.492L120.464 269.2776L118.4192 271.6104C118.0736 272.0424,117.6992 272.38800000000003,117.6992 272.38800000000003C117.6992 272.38800000000003,117.6992 272.38800000000003,117.6992 272.38800000000003C117.6992 272.4456,117.9584 272.4456,120.3488 272.4456L122.9696 272.4456L122.9696 270.5736C122.9696 268.6728,122.9696 268.644,122.9984 268.6152C123.056 268.5288,123.3152 268.212,124.3232 267.0312L124.7264 266.5992L125.1296 266.16720000000004L125.7344 265.38960000000003L126.368 264.72720000000004L126.6848 264.324C126.8 264.1512,126.9728 264.1224,127.1168 264.1224C127.28960000000001 264.1224,127.4336 264.2088,127.52 264.3528C127.5488 264.4392,127.5488 264.4968,127.5488 266.628C127.5488 267.11760000000004,127.5488 267.7224,127.5488 268.4424L127.5488 272.4456L128.2688 272.4456C128.9312 272.4456,128.96 272.4456,129.0464 272.4744C129.2768 272.56080000000003,129.392 272.7912,129.392 273.0504C129.392 273.19440000000003,129.3632 273.3672,129.248 273.4824C129.0752 273.6264,129.0464 273.6264,128.2688 273.6264L127.5488 273.6264L127.5488 274.116C127.5776 275.58480000000003,127.8656 276.1608,128.9888 276.7656C129.392 276.9672,129.4784 277.0248,129.4784 277.31280000000004C129.4784 277.5144,129.42079999999999 277.6008,129.2768 277.716L129.1904 277.7448L125.2448 277.7448L121.328 277.7448L121.2416 277.716C121.0688 277.6008,121.04 277.5144,121.04 277.31280000000004C121.04 277.0248,121.0688 276.9672,121.5008 276.7656C122.624 276.1608,122.912 275.58480000000003,122.912 274.116L122.912 273.6264L119.6 273.6264C118.9952 273.684,118.5056 273.684,118.1024 273.684C116.288 273.684,116.2592 273.6264,116.2304 273.6264C116.0576 273.5688,116 273.396,116 273.19440000000003C116 273.19440000000003,116 273.19440000000003,116 273.19440000000003C116 272.9928,116 272.9928,116.576 272.3304C118.9952 269.3928,120.6944 265.1304,120.6944 261.732C120.6944 261.2136,120.7808 261.0408,121.0112 260.9544M122.7392 279.3288L122.768 279.3288L122.6816 279.3288L122.7392 279.3288M122.7392 259.9176L122.768 259.9176L122.6816 259.9176L122.7392 259.9176"></path><path stroke-width="0.3" fill="#000000" stroke="none" stroke-dasharray="none" d="M116 299.3M121.0112 280.9544C121.04 280.92560000000003,121.4432 280.92560000000003,122.6816 280.92560000000003C123.056 280.92560000000003,123.4592 280.92560000000003,123.9776 280.92560000000003L126.8864 280.92560000000003L126.9728 281.012C127.1168 281.0984,127.2032 281.24240000000003,127.2032 281.3576C127.2032 281.5304,127.1168 281.6456,127.0016 281.7608C126.9728 281.8472,126.7136 282.0776,126.5408 282.33680000000004L125.0144 284.09360000000004L123.056 286.3112L122.0192 287.492L120.464 289.2776L118.4192 291.6104C118.0736 292.0424,117.6992 292.38800000000003,117.6992 292.38800000000003C117.6992 292.38800000000003,117.6992 292.38800000000003,117.6992 292.38800000000003C117.6992 292.4456,117.9584 292.4456,120.3488 292.4456L122.9696 292.4456L122.9696 290.5736C122.9696 288.6728,122.9696 288.644,122.9984 288.6152C123.056 288.5288,123.3152 288.212,124.3232 287.0312L124.7264 286.5992L125.1296 286.16720000000004L125.7344 285.38960000000003L126.368 284.72720000000004L126.6848 284.324C126.8 284.1512,126.9728 284.1224,127.1168 284.1224C127.28960000000001 284.1224,127.4336 284.2088,127.52 284.3528C127.5488 284.4392,127.5488 284.4968,127.5488 286.628C127.5488 287.11760000000004,127.5488 287.7224,127.5488 288.4424L127.5488 292.4456L128.2688 292.4456C128.9312 292.4456,128.96 292.4456,129.0464 292.4744C129.2768 292.56080000000003,129.392 292.7912,129.392 293.0504C129.392 293.19440000000003,129.3632 293.3672,129.248 293.4824C129.0752 293.6264,129.0464 293.6264,128.2688 293.6264L127.5488 293.6264L127.5488 294.116C127.5776 295.58480000000003,127.8656 296.1608,128.9888 296.7656C129.392 296.9672,129.4784 297.0248,129.4784 297.31280000000004C129.4784 297.5144,129.42079999999999 297.6008,129.2768 297.716L129.1904 297.7448L125.2448 297.7448L121.328 297.7448L121.2416 297.716C121.0688 297.6008,121.04 297.5144,121.04 297.31280000000004C121.04 297.0248,121.0688 296.9672,121.5008 296.7656C122.624 296.1608,122.912 295.58480000000003,122.912 294.116L122.912 293.6264L119.6 293.6264C118.9952 293.684,118.5056 293.684,118.1024 293.684C116.288 293.684,116.2592 293.6264,116.2304 293.6264C116.0576 293.5688,116 293.396,116 293.19440000000003C116 293.19440000000003,116 293.19440000000003,116 293.19440000000003C116 292.9928,116 292.9928,116.576 292.3304C118.9952 289.3928,120.6944 285.1304,120.6944 281.732C120.6944 281.2136,120.7808 281.0408,121.0112 280.9544M122.7392 299.3288L122.768 299.3288L122.6816 299.3288L122.7392 299.3288M122.7392 279.9176L122.768 279.9176L122.6816 279.9176L122.7392 279.9176"></path><g class="vf-stavenote" id="vf-auto2877265"><g class="vf-note" pointer-events="bounding-box"><g class="vf-stem" pointer-events="bounding-box"><path stroke-width="1.5" fill="none" stroke="#000000" stroke-dasharray="none" class="vf-stem" id="vf-auto2877265-stem" d="M152.74663999999999 289.3L152.74663999999999 254.3"></path></g><g class="vf-notehead" pointer-events="bounding-box"><path stroke-width="0.3" fill="#000000" stroke="none" stroke-dasharray="none" d="M141.4784 289.3M148.83535999999998 284.07712000000004C148.94768 284.07712000000004,149.11615999999998 284.07712000000004,149.14424 284.07712000000004C149.14424 284.07712000000004,149.17231999999998 284.07712000000004,149.17231999999998 284.07712000000004C149.17231999999998 284.07712000000004,149.3408 284.07712000000004,149.4812 284.07712000000004C152.0084 284.21752000000004,153.49663999999999 285.87424,153.49663999999999 287.95216C153.49663999999999 288.96304000000003,153.15967999999998 290.11432,152.31727999999998 291.20944000000003C150.71671999999998 293.3716,148.10528 294.55096000000003,145.83079999999998 294.55096000000003C144.06176 294.55096000000003,142.54543999999999 293.84896000000003,141.81536 292.41688C141.59072 291.85528,141.4784 291.32176,141.4784 290.73208C141.4784 287.67136,144.90416 284.27368,148.83535999999998 284.07712000000004"></path></g></g><g class="vf-modifiers"></g></g><rect stroke-width="0.3" fill="#000000" stroke="#000000" stroke-dasharray="none" x="304.34522239999995" y="166.5" width="1" height="133.8"></rect><rect stroke-width="0.3" fill="#000000" stroke="#000000" stroke-dasharray="none" x="70" y="166.5" width="1" height="133.8"></rect><path stroke-width="1" fill="none" stroke="#000000" stroke-dasharray="none" d="M304.34522239999995 259.3L452.5120447999999 259.3"></path><path stroke-width="1" fill="none" stroke="#000000" stroke-dasharray="none" d="M304.34522239999995 269.3L452.5120447999999 269.3"></path><path stroke-width="1" fill="none" stroke="#000000" stroke-dasharray="none" d="M304.34522239999995 279.3L452.5120447999999 279.3"></path><path stroke-width="1" fill="none" stroke="#000000" stroke-dasharray="none" d="M304.34522239999995 289.3L452.5120447999999 289.3"></path><path stroke-width="1" fill="none" stroke="#000000" stroke-dasharray="none" d="M304.34522239999995 299.3L452.5120447999999 299.3"></path><rect stroke-width="0.3" fill="#000000" stroke="#000000" stroke-dasharray="none" x="452.5120447999999" y="258.8" width="1" height="41"></rect><g class="vf-stavenote" id="vf-auto2877294"><g class="vf-note" pointer-events="bounding-box"><g class="vf-stem" pointer-events="bounding-box"><path stroke-width="1.5" fill="none" stroke="#000000" stroke-dasharray="none" class="vf-stem" id="vf-auto2877294-stem" d="M355.34522239999995 264.3L355.34522239999995 299.3"></path></g><g class="vf-notehead" pointer-events="bounding-box"><path stroke-width="0.3" fill="#000000" stroke="none" stroke-dasharray="none" d="M354.59522239999995 264.3M361.95218239999997 259.07712000000004C362.0645024 259.07712000000004,362.23298239999997 259.07712000000004,362.26106239999996 259.07712000000004C362.26106239999996 259.07712000000004,362.28914239999995 259.07712000000004,362.28914239999995 259.07712000000004C362.28914239999995 259.07712000000004,362.45762239999993 259.07712000000004,362.59802239999993 259.07712000000004C365.1252224 259.21752000000004,366.61346239999995 260.87424,366.61346239999995 262.95216C366.61346239999995 263.96304000000003,366.27650239999997 265.11432,365.4341024 266.20944000000003C363.83354239999994 268.3716,361.2221023999999 269.55096000000003,358.94762239999994 269.55096000000003C357.1785824 269.55096000000003,355.6622624 268.84896000000003,354.93218239999993 267.41688C354.70754239999997 266.85528,354.59522239999995 266.32176,354.59522239999995 265.73208C354.59522239999995 262.67136,358.0209824 259.27368,361.95218239999997 259.07712000000004"></path></g></g><g class="vf-modifiers"></g></g><g class="vf-stavenote" id="vf-auto2877302"><g class="vf-note" pointer-events="bounding-box"><g class="vf-stem" pointer-events="bounding-box"><path stroke-width="1.5" fill="none" stroke="#000000" stroke-dasharray="none" class="vf-stem" id="vf-auto2877302-stem" d="M388.59522239999995 264.3L388.59522239999995 299.3"></path></g><g class="vf-notehead" pointer-events="bounding-box"><path stroke-width="0.3" fill="#000000" stroke="none" stroke-dasharray="none" d="M387.84522239999995 264.3M395.20218239999997 259.07712000000004C395.3145024 259.07712000000004,395.48298239999997 259.07712000000004,395.51106239999996 259.07712000000004C395.51106239999996 259.07712000000004,395.53914239999995 259.07712000000004,395.53914239999995 259.07712000000004C395.53914239999995 259.07712000000004,395.70762239999993 259.07712000000004,395.84802239999993 259.07712000000004C398.3752224 259.21752000000004,399.86346239999995 260.87424,399.86346239999995 262.95216C399.86346239999995 263.96304000000003,399.52650239999997 265.11432,398.6841024 266.20944000000003C397.08354239999994 268.3716,394.4721023999999 269.55096000000003,392.19762239999994 269.55096000000003C390.4285824 269.55096000000003,388.9122624 268.84896000000003,388.18218239999993 267.41688C387.95754239999997 266.85528,387.84522239999995 266.32176,387.84522239999995 265.73208C387.84522239999995 262.67136,391.2709824 259.27368,395.20218239999997 259.07712000000004"></path></g></g><g class="vf-modifiers"></g></g><rect stroke-width="0.3" fill="#000000" stroke="#000000" stroke-dasharray="none" x="452.5120447999999" y="166.5" width="1" height="133.8"></rect><path stroke-width="1" fill="none" stroke="#000000" stroke-dasharray="none" d="M452.5120447999999 259.3L604.8788671999998 259.3"></path><path stroke-width="1" fill="none" stroke="#000000" stroke-dasharray="none" d="M452.5120447999999 269.3L604.8788671999998 269.3"></path><path stroke-width="1" fill="none" stroke="#000000" stroke-dasharray="none" d="M452.5120447999999 279.3L604.8788671999998 279.3"></path><path stroke-width="1" fill="none" stroke="#000000" stroke-dasharray="none" d="M452.5120447999999 289.3L604.8788671999998 289.3"></path><path stroke-width="1" fill="none" stroke="#000000" stroke-dasharray="none" d="M452.5120447999999 299.3L604.8788671999998 299.3"></path><rect stroke-width="0.3" fill="#000000" stroke="#000000" stroke-dasharray="none" x="604.8788671999998" y="258.8" width="1" height="41"></rect><g class="vf-stavenote" id="vf-auto2877339"><g class="vf-note" pointer-events="bounding-box"><g class="vf-stem" pointer-events="bounding-box"><path stroke-width="1.5" fill="none" stroke="#000000" stroke-dasharray="none" class="vf-stem" id="vf-auto2877339-stem" d="M515.0302847999999 279.3L515.0302847999999 244.3"></path></g><g class="vf-notehead" pointer-events="bounding-box"><path stroke-width="0.3" fill="#000000" stroke="none" stroke-dasharray="none" d="M503.7620447999999 279.3M511.1190047999999 274.07712000000004C511.2313247999999 274.07712000000004,511.3998047999999 274.07712000000004,511.4278847999999 274.07712000000004C511.4278847999999 274.07712000000004,511.4559647999999 274.07712000000004,511.4559647999999 274.07712000000004C511.4559647999999 274.07712000000004,511.6244447999999 274.07712000000004,511.7648447999999 274.07712000000004C514.2920447999999 274.21752000000004,515.7802847999999 275.87424,515.7802847999999 277.95216C515.7802847999999 278.96304000000003,515.4433247999999 280.11432,514.6009247999999 281.20944000000003C513.0003647999999 283.3716,510.3889247999999 284.55096000000003,508.1144447999999 284.55096000000003C506.3454047999999 284.55096000000003,504.8290847999999 283.84896000000003,504.0990047999999 282.41688C503.8743647999999 281.85528,503.7620447999999 281.32176,503.7620447999999 280.73208C503.7620447999999 277.67136,507.1878047999999 274.27368,511.1190047999999 274.07712000000004"></path></g></g><g class="vf-modifiers"></g></g><rect stroke-width="0.3" fill="#000000" stroke="#000000" stroke-dasharray="none" x="604.8788671999998" y="166.5" width="1" height="133.8"></rect><path stroke-width="1" fill="none" stroke="#000000" stroke-dasharray="none" d="M604.8788672 259.3L767.2456895999999 259.3"></path><path stroke-width="1" fill="none" stroke="#000000" stroke-dasharray="none" d="M604.8788672 269.3L767.2456895999999 269.3"></path><path stroke-width="1" fill="none" stroke="#000000" stroke-dasharray="none" d="M604.8788672 279.3L767.2456895999999 279.3"></path><path stroke-width="1" fill="none" stroke="#000000" stroke-dasharray="none" d="M604.8788672 289.3L767.2456895999999 289.3"></path><path stroke-width="1" fill="none" stroke="#000000" stroke-dasharray="none" d="M604.8788672 299.3L767.2456895999999 299.3"></path><rect stroke-width="0.3" fill="#000000" stroke="#000000" stroke-dasharray="none" x="762.2456895999999" y="258.8" width="1" height="41"></rect><rect stroke-width="0.3" fill="#000000" stroke="#000000" stroke-dasharray="none" x="765.2456895999999" y="258.8" width="3" height="41"></rect><path stroke-width="0.3" fill="#000000" stroke="none" stroke-dasharray="none" d="M761.2456895999999 274.8 A2 2 0 0 0 757.2456895999999 274.8M757.2456895999999 274.8 A2 2 0 0 0 761.2456895999999 274.8"></path><path stroke-width="0.3" fill="#000000" stroke="none" stroke-dasharray="none" d="M761.2456895999999 284.8 A2 2 0 0 0 757.2456895999999 284.8M757.2456895999999 284.8 A2 2 0 0 0 761.2456895999999 284.8"></path><g class="vf-stavenote" id="vf-auto2877374"><g class="vf-note" pointer-events="bounding-box"><g class="vf-stem" pointer-events="bounding-box"><path stroke-width="1.5" fill="none" stroke="#000000" stroke-dasharray="none" class="vf-stem" id="vf-auto2877374-stem" d="M669.8971071999999 299.3L669.8971071999999 264.3"></path></g><g class="vf-notehead" pointer-events="bounding-box"><path stroke-width="0.3" fill="#000000" stroke="none" stroke-dasharray="none" d="M658.6288672 299.3M665.9858271999999 294.07712000000004C666.0981472 294.07712000000004,666.2666271999999 294.07712000000004,666.2947072 294.07712000000004C666.2947072 294.07712000000004,666.3227872 294.07712000000004,666.3227872 294.07712000000004C666.3227872 294.07712000000004,666.4912671999999 294.07712000000004,666.6316671999999 294.07712000000004C669.1588671999999 294.21752000000004,670.6471071999999 295.87424,670.6471071999999 297.95216C670.6471071999999 298.96304000000003,670.3101472 300.11432,669.4677472 301.20944000000003C667.8671872 303.3716,665.2557472 304.55096000000003,662.9812671999999 304.55096000000003C661.2122271999999 304.55096000000003,659.6959072 303.84896000000003,658.9658271999999 302.41688C658.7411871999999 301.85528,658.6288672 301.32176,658.6288672 300.73208C658.6288672 297.67136,662.0546271999999 294.27368,665.9858271999999 294.07712000000004"></path></g></g><g class="vf-modifiers"></g></g><rect stroke-width="0.3" fill="#000000" stroke="#000000" stroke-dasharray="none" x="762.2456895999999" y="166.5" width="1" height="133.8"></rect><rect stroke-width="0.3" fill="#000000" stroke="#000000" stroke-dasharray="none" x="765.2456895999999" y="166.5" width="3" height="133.8"></rect><path stroke-width="0.3" fill="#000000" stroke="none" stroke-dasharray="none" d="M68 166.5C45.2 193.26,81.2 215.337,56 233.4C81.2 251.46300000000002,45.2 273.54,68 300.3C44 273.54,72.8 251.46300000000002,56 233.4C72.8 215.337,44 193.26,68 166.5"></path><path stroke-width="1" fill="none" stroke="#000000" stroke-dasharray="none" d="M68 166.5C45.2 193.26,81.2 215.337,56 233.4C81.2 251.46300000000002,45.2 273.54,68 300.3C44 273.54,72.8 251.46300000000002,56 233.4C72.8 215.337,44 193.26,68 166.5"></path><g class="vf-text"><text stroke-width="0.3" fill="#000000" stroke="none" stroke-dasharray="none" font-family="Times New Roman" font-size="15px" font-weight="normal" font-style="normal" x="449.0120447999999" y="163.5">3</text></g></svg>