<svg xmlns="http://www.w3.org/2000/svg"  width="1470" height="386.79999999999995" viewBox="0 0 1470 386.79999999999995"><path stroke-width="1" fill="none" stroke="#000000" stroke-dasharray="none" d="M70 166.5L295.9452224 166.5"></path><path stroke-width="1" fill="none" stroke="#000000" stroke-dasharray="none" d="M70 176.5L295.9452224 176.5"></path><path stroke-width="1" fill="none" stroke="#000000" stroke-dasharray="none" d="M70 186.5L295.9452224 186.5"></path><path stroke-width="1" fill="none" stroke="#000000" stroke-dasharray="none" d="M70 196.5L295.9452224 196.5"></path><path stroke-width="1" fill="none" stroke="#000000" stroke-dasharray="none" d="M70 206.5L295.9452224 206.5"></path><rect stroke-width="0.3" fill="#000000" stroke="#000000" stroke-dasharray="none" x="295.9452224" y="166" width="1" height="41"></rect><g class="vf-clef"><path stroke-width="0.3" fill="#000000" stroke="none" stroke-dasharray="none" d="M75 196.5M89.0544 153.3288C89.112 153.3,89.1696 153.3,89.256 153.3C89.6016 153.3,90.0048 153.588,90.5808 154.308C92.9136 156.9864,94.5552 161.652,94.5552 165.4536C94.5552 165.7416,94.4976 165.972,94.4976 166.26C94.2384 170.7816,92.3952 174.4968,88.7376 178.0104L87.7584 178.9608L87.4128 179.3352L87.4128 179.4504L87.6144 180.3144L87.9312 181.8696L88.248 183.3096C88.68 185.268,88.8528 186.276,88.8528 186.276C88.8528 186.276,88.8528 186.276,88.8528 186.276C88.8528 186.276,88.968 186.276,89.112 186.2472C89.256 186.2472,89.7168 186.1896,90.2064 186.1896C90.55199999999999 186.1896,90.8976 186.2472,91.0704 186.2472C95.1312 186.7656,98.2704 189.6744,99.1632 193.764C99.336 194.4264,99.39359999999999 195.1464,99.39359999999999 195.8664C99.39359999999999 199.7544,97.0608 203.4696,93.1728 205.2264C92.94239999999999 205.3704,92.856 205.3992,92.856 205.3992L92.856 205.428C92.856 205.428,93.0288 206.0904,93.1728 206.8392L93.6048 209.028L94.008 210.7848C94.2384 211.908,94.3536 212.7144,94.3536 213.4344C94.3536 214.06799999999998,94.2672 214.644,94.1232 215.3064C93.144 219.3096,89.6592 221.7,86.0304 221.7C84.2448 221.7,82.4016 221.124,80.7888 219.828C79.3488 218.6184,78.7152 217.524,78.7152 216.084C78.7152 213.5496,80.76 211.764,82.8912 211.764C83.64 211.764,84.3888 211.99439999999998,85.1088 212.4264C86.3184 213.2616,86.8656 214.5288,86.8656 215.7672C86.8656 217.668,85.5408 219.54,83.2656 219.684L83.0352 219.684L83.208 219.79919999999998C84.1584 220.2024,85.1088 220.404,86.0304 220.404C88.3632 220.404,90.55199999999999 219.2232,91.8768 217.1784C92.62559999999999 216.0264,93.0288 214.6728,93.0288 213.3192C93.0288 212.8008,92.94239999999999 212.2824,92.8272 211.7064C92.8272 211.6488,92.74080000000001 211.188,92.62559999999999 210.756C91.992 207.6456,91.6176 205.8312,91.6176 205.8312C91.6176 205.8312,91.6176 205.8312,91.6176 205.8312C91.56 205.8312,91.4448 205.8312,91.3584 205.8888C91.0704 205.9464,90.4656 206.0904,90.2064 206.1192C89.5728 206.2056,88.968 206.2344,88.392 206.2344C82.74719999999999 206.2344,77.5056 202.4328,75.6912 196.8168C75.2304 195.3192,74.9712 193.8216,74.9712 192.324C74.9712 189.3288,75.9216 186.3912,77.7648 183.7704C79.7808 180.9192,81.7968 178.4712,84.2736 175.9368L85.13759999999999 175.044L84.936 173.9784L84.5616 172.2216L84.072 169.9752C83.928 169.14,83.7552 168.3336,83.7264 168.1608C83.5824 167.2104,83.496 166.2888,83.496 165.3384C83.496 161.7096,84.6768 158.22480000000002,86.8944 155.4312C87.5568 154.5672,88.7376 153.4152,89.0544 153.3288M90.8112 159.0312C90.7536 159.0312,90.6672 159.0312,90.5808 159.0312C89.4 159.0312,87.8736 160.1256,86.8368 161.7384C85.7712 163.32240000000002,85.224 165.4248,85.224 167.5848C85.224 168.1608,85.25280000000001 168.7656,85.3392 169.3704C85.4256 169.8024,85.45439999999999 170.0904,85.6848 171.12720000000002L86.088 172.9416C86.2032 173.4888,86.28960000000001 173.92079999999999,86.28960000000001 173.9784L86.28960000000001 173.9784C86.3184 173.9784,87.2112 172.9992,87.4992 172.6536C90.3792 169.3992,92.1072 165.972,92.4816 162.948C92.5104 162.66,92.5104 162.4296,92.5104 162.1416C92.5104 161.24880000000002,92.3952 160.38479999999998,92.1936 159.924C91.9632 159.4632,91.4448 159.0888,90.8112 159.0312M86.4624 181.2936C86.4048 180.8904,86.3184 180.5736,86.3184 180.516C86.3184 180.516,86.3184 180.516,86.28960000000001 180.516C86.232 180.516,84.9936 181.956,84.1296 182.964C82.6608 184.7496,81.1056 186.8808,80.472 187.9176C79.2624 189.9624,78.6576 192.2376,78.6576 194.484C78.6576 195.9528,78.9456 197.364,79.464 198.7176C81.0192 202.7208,84.5904 205.2264,88.4784 205.2264C88.9392 205.2264,89.4576 205.1976,89.9472 205.1112C90.5808 204.996,91.3584 204.7656,91.3584 204.6792L91.3584 204.6792C91.3584 204.6792,91.3008 204.3912,91.2144 204.0744L90.3792 199.956L89.7168 196.8744L89.2848 194.7432L88.824 192.6696C88.5936 191.4312,88.5072 191.1144,88.5072 191.1144C88.5072 191.1144,88.5072 191.0856,88.4784 191.0856C88.3056 191.0856,87.384 191.5464,86.9808 191.8344C85.4832 192.8712,84.7056 194.5128,84.7056 196.1256C84.7056 197.652,85.45439999999999 199.1784,86.8944 200.0712C87.2112 200.2728,87.3264 200.4456,87.3264 200.6472C87.3264 200.676,87.3264 200.7624,87.3264 200.7912C87.2688 201.1368,87.0672 201.2808,86.7792 201.2808C86.664 201.2808,86.52 201.252,86.3472 201.1656C83.6976 200.0136,81.912 197.2776,81.912 194.2824L81.912 194.2824C81.912 190.8264,84.072 187.8312,87.384 186.6504L87.5568 186.5928L87.2688 185.1528L86.4624 181.2936M90.7824 190.9128C90.55199999999999 190.88400000000001,90.3216 190.88400000000001,90.1488 190.88400000000001C90.0912 190.88400000000001,90.0048 190.88400000000001,89.9472 190.88400000000001L89.8032 190.88400000000001L89.9184 191.4024L90.5232 194.2248L90.8976 196.068L91.3008 197.8824L92.1072 201.8856L92.424 203.412C92.5392 203.8152,92.5968 204.1608,92.62559999999999 204.1608C92.62559999999999 204.1608,92.62559999999999 204.1608,92.62559999999999 204.1608C92.6544 204.1608,93.144 203.8728,93.4608 203.6424C94.9296 202.6056,96.024 200.9928,96.4272 199.3224C96.5712 198.7752,96.6288 198.1992,96.6288 197.652C96.6288 194.3112,94.152 191.2872,90.7824 190.9128"></path></g><path stroke-width="0.3" fill="#000000" stroke="none" stroke-dasharray="none" d="M116 186.5M121.0112 168.1544C121.04 168.1256,121.4432 168.1256,122.6816 168.1256C123.056 168.1256,123.4592 168.1256,123.9776 168.1256L126.8864 168.1256L126.9728 168.212C127.1168 168.29840000000002,127.2032 168.4424,127.2032 168.5576C127.2032 168.7304,127.1168 168.8456,127.0016 168.9608C126.9728 169.0472,126.7136 169.2776,126.5408 169.5368L125.0144 171.2936L123.056 173.5112L122.0192 174.692L120.464 176.4776L118.4192 178.8104C118.0736 179.2424,117.6992 179.588,117.6992 179.588C117.6992 179.588,117.6992 179.588,117.6992 179.588C117.6992 179.6456,117.9584 179.6456,120.3488 179.6456L122.9696 179.6456L122.9696 177.7736C122.9696 175.8728,122.9696 175.844,122.9984 175.8152C123.056 175.7288,123.3152 175.412,124.3232 174.2312L124.7264 173.7992L125.1296 173.3672L125.7344 172.5896L126.368 171.9272L126.6848 171.524C126.8 171.3512,126.9728 171.3224,127.1168 171.3224C127.28960000000001 171.3224,127.4336 171.4088,127.52 171.5528C127.5488 171.6392,127.5488 171.6968,127.5488 173.828C127.5488 174.3176,127.5488 174.9224,127.5488 175.6424L127.5488 179.6456L128.2688 179.6456C128.9312 179.6456,128.96 179.6456,129.0464 179.6744C129.2768 179.7608,129.392 179.9912,129.392 180.2504C129.392 180.3944,129.3632 180.5672,129.248 180.6824C129.0752 180.8264,129.0464 180.8264,128.2688 180.8264L127.5488 180.8264L127.5488 181.316C127.5776 182.7848,127.8656 183.3608,128.9888 183.9656C129.392 184.1672,129.4784 184.2248,129.4784 184.5128C129.4784 184.7144,129.42079999999999 184.8008,129.2768 184.916L129.1904 184.9448L125.2448 184.9448L121.328 184.9448L121.2416 184.916C121.0688 184.8008,121.04 184.7144,121.04 184.5128C121.04 184.2248,121.0688 184.1672,121.5008 183.9656C122.624 183.3608,122.912 182.7848,122.912 181.316L122.912 180.8264L119.6 180.8264C118.9952 180.88400000000001,118.5056 180.88400000000001,118.1024 180.88400000000001C116.288 180.88400000000001,116.2592 180.8264,116.2304 180.8264C116.0576 180.7688,116 180.596,116 180.3944C116 180.3944,116 180.3944,116 180.3944C116 180.1928,116 180.1928,116.576 179.5304C118.9952 176.5928,120.6944 172.3304,120.6944 168.93200000000002C120.6944 168.4136,120.7808 168.2408,121.0112 168.1544M122.7392 186.5288L122.768 186.5288L122.6816 186.5288L122.7392 186.5288M122.7392 167.1176L122.768 167.1176L122.6816 167.1176L122.7392 167.1176"></path><path stroke-width="0.3" fill="#000000" stroke="none" stroke-dasharray="none" d="M116 206.5M121.0112 188.1544C121.04 188.1256,121.4432 188.1256,122.6816 188.1256C123.056 188.1256,123.4592 188.1256,123.9776 188.1256L126.8864 188.1256L126.9728 188.212C127.1168 188.29840000000002,127.2032 188.4424,127.2032 188.5576C127.2032 188.7304,127.1168 188.8456,127.0016 188.9608C126.9728 189.0472,126.7136 189.2776,126.5408 189.5368L125.0144 191.2936L123.056 193.5112L122.0192 194.692L120.464 196.4776L118.4192 198.8104C118.0736 199.2424,117.6992 199.588,117.6992 199.588C117.6992 199.588,117.6992 199.588,117.6992 199.588C117.6992 199.6456,117.9584 199.6456,120.3488 199.6456L122.9696 199.6456L122.9696 197.7736C122.9696 195.8728,122.9696 195.844,122.9984 195.8152C123.056 195.7288,123.3152 195.412,124.3232 194.2312L124.7264 193.7992L125.1296 193.3672L125.7344 192.5896L126.368 191.9272L126.6848 191.524C126.8 191.3512,126.9728 191.3224,127.1168 191.3224C127.28960000000001 191.3224,127.4336 191.4088,127.52 191.5528C127.5488 191.6392,127.5488 191.6968,127.5488 193.828C127.5488 194.3176,127.5488 194.9224,127.5488 195.6424L127.5488 199.6456L128.2688 199.6456C128.9312 199.6456,128.96 199.6456,129.0464 199.6744C129.2768 199.7608,129.392 199.9912,129.392 200.2504C129.392 200.3944,129.3632 200.5672,129.248 200.6824C129.0752 200.8264,129.0464 200.8264,128.2688 200.8264L127.5488 200.8264L127.5488 201.316C127.5776 202.7848,127.8656 203.3608,128.9888 203.9656C129.392 204.1672,129.4784 204.2248,129.4784 204.5128C129.4784 204.7144,129.42079999999999 204.8008,129.2768 204.916L129.1904 204.9448L125.2448 204.9448L121.328 204.9448L121.2416 204.916C121.0688 204.8008,121.04 204.7144,121.04 204.5128C121.04 204.2248,121.0688 204.1672,121.5008 203.9656C122.624 203.3608,122.912 202.7848,122.912 201.316L122.912 200.8264L119.6 200.8264C118.9952 200.88400000000001,118.5056 200.88400000000001,118.1024 200.88400000000001C116.288 200.88400000000001,116.2592 200.8264,116.2304 200.8264C116.0576 200.7688,116 200.596,116 200.3944C116 200.3944,116 200.3944,116 200.3944C116 200.1928,116 200.1928,116.576 199.5304C118.9952 196.5928,120.6944 192.3304,120.6944 188.93200000000002C120.6944 188.4136,120.7808 188.2408,121.0112 188.1544M122.7392 206.5288L122.768 206.5288L122.6816 206.5288L122.7392 206.5288M122.7392 187.1176L122.768 187.1176L122.6816 187.1176L122.7392 187.1176"></path><g class="vf-stavenote" id="vf-auto2103949"><g class="vf-note" pointer-events="bounding-box"><g class="vf-stem" pointer-events="bounding-box"><path stroke-width="1.5" fill="none" stroke="#000000" stroke-dasharray="none" class="vf-stem" id="vf-auto2103949-stem" d="M269.38784 196.5L269.38784 161.5"></path></g><g class="vf-notehead" pointer-events="bounding-box"><path stroke-width="0.3" fill="#000000" stroke="none" stroke-dasharray="none" d="M258.1196 196.5M265.47656 191.27712C265.58888 191.27712,265.75736 191.27712,265.78544 191.27712C265.78544 191.27712,265.81352 191.27712,265.81352 191.27712C265.81352 191.27712,265.98199999999997 191.27712,266.12239999999997 191.27712C268.64959999999996 191.41752,270.13784 193.07424,270.13784 195.15216C270.13784 196.16304,269.80088 197.31432,268.95848 198.40944C267.35792 200.5716,264.74648 201.75096,262.472 201.75096C260.70296 201.75096,259.18664 201.04896,258.45655999999997 199.61688C258.23192 199.05528,258.1196 198.52176,258.1196 197.93208C258.1196 194.87136,261.54536 191.47368,265.47656 191.27712"></path></g></g><g class="vf-modifiers"></g></g><path stroke-width="1" fill="none" stroke="#000000" stroke-dasharray="none" d="M295.9452224 166.5L444.1120447999999 166.5"></path><path stroke-width="1" fill="none" stroke="#000000" stroke-dasharray="none" d="M295.9452224 176.5L444.1120447999999 176.5"></path><path stroke-width="1" fill="none" stroke="#000000" stroke-dasharray="none" d="M295.9452224 186.5L444.1120447999999 186.5"></path><path stroke-width="1" fill="none" stroke="#000000" stroke-dasharray="none" d="M295.9452224 196.5L444.1120447999999 196.5"></path><path stroke-width="1" fill="none" stroke="#000000" stroke-dasharray="none" d="M295.9452224 206.5L444.1120447999999 206.5"></path><rect stroke-width="0.3" fill="#000000" stroke="#000000" stroke-dasharray="none" x="444.1120447999999" y="166" width="1" height="41"></rect><path stroke-width="1" fill="none" stroke="#000000" stroke-dasharray="none" d="M343.1952224 216.5L361.21346239999997 216.5"></path><g class="vf-stavenote" id="vf-auto2103986"><g class="vf-note" pointer-events="bounding-box"><g class="vf-stem" pointer-events="bounding-box"><path stroke-width="1.5" fill="none" stroke="#000000" stroke-dasharray="none" class="vf-stem" id="vf-auto2103986-stem" d="M357.46346239999997 216.5L357.46346239999997 181.5"></path></g><g class="vf-notehead" pointer-events="bounding-box"><path stroke-width="0.3" fill="#000000" stroke="none" stroke-dasharray="none" d="M346.1952224 216.5M353.5521824 211.27712C353.6645024 211.27712,353.8329824 211.27712,353.8610624 211.27712C353.8610624 211.27712,353.88914239999997 211.27712,353.88914239999997 211.27712C353.88914239999997 211.27712,354.05762239999996 211.27712,354.19802239999996 211.27712C356.7252224 211.41752,358.21346239999997 213.07424,358.21346239999997 215.15216C358.21346239999997 216.16304,357.8765024 217.31432,357.0341024 218.40944C355.43354239999996 220.5716,352.82210239999995 221.75096,350.54762239999997 221.75096C348.7785824 221.75096,347.2622624 221.04896,346.53218239999995 219.61688C346.3075424 219.05528,346.1952224 218.52176,346.1952224 217.93208C346.1952224 214.87136,349.6209824 211.47368,353.5521824 211.27712"></path></g></g><g class="vf-modifiers"></g></g><g class="vf-stavenote" id="vf-auto2103994"><g class="vf-note" pointer-events="bounding-box"><g class="vf-stem" pointer-events="bounding-box"><path stroke-width="1.5" fill="none" stroke="#000000" stroke-dasharray="none" class="vf-stem" id="vf-auto2103994-stem" d="M413.4452224 186.5L413.4452224 221.5"></path></g><g class="vf-notehead" pointer-events="bounding-box"><path stroke-width="0.3" fill="#000000" stroke="none" stroke-dasharray="none" d="M412.6952224 186.5M420.0521824 181.27712C420.1645024 181.27712,420.3329824 181.27712,420.3610624 181.27712C420.3610624 181.27712,420.38914239999997 181.27712,420.38914239999997 181.27712C420.38914239999997 181.27712,420.55762239999996 181.27712,420.69802239999996 181.27712C423.2252224 181.41752,424.71346239999997 183.07424,424.71346239999997 185.15216C424.71346239999997 186.16304,424.3765024 187.31432,423.5341024 188.40944C421.93354239999996 190.5716,419.32210239999995 191.75096,417.04762239999997 191.75096C415.2785824 191.75096,413.7622624 191.04896,413.03218239999995 189.61688C412.8075424 189.05528,412.6952224 188.52176,412.6952224 187.93208C412.6952224 184.87136,416.1209824 181.47368,420.0521824 181.27712"></path></g></g><g class="vf-modifiers"></g></g><path stroke-width="1" fill="none" stroke="#000000" stroke-dasharray="none" d="M444.1120447999999 166.5L596.4788671999999 166.5"></path><path stroke-width="1" fill="none" stroke="#000000" stroke-dasharray="none" d="M444.1120447999999 176.5L596.4788671999999 176.5"></path><path stroke-width="1" fill="none" stroke="#000000" stroke-dasharray="none" d="M444.1120447999999 186.5L596.4788671999999 186.5"></path><path stroke-width="1" fill="none" stroke="#000000" stroke-dasharray="none" d="M444.1120447999999 196.5L596.4788671999999 196.5"></path><path stroke-width="1" fill="none" stroke="#000000" stroke-dasharray="none" d="M444.1120447999999 206.5L596.4788671999999 206.5"></path><rect stroke-width="0.3" fill="#000000" stroke="#000000" stroke-dasharray="none" x="596.4788671999999" y="166" width="1" height="41"></rect><g class="vf-stavenote" id="vf-auto2104024"><g class="vf-note" pointer-events="bounding-box"><g class="vf-stem" pointer-events="bounding-box"><path stroke-width="1.5" fill="none" stroke="#000000" stroke-dasharray="none" class="vf-stem" id="vf-auto2104024-stem" d="M472.3802847999999 211.5L472.3802847999999 176.5"></path></g><g class="vf-notehead" pointer-events="bounding-box"><path stroke-width="0.3" fill="#000000" stroke="none" stroke-dasharray="none" d="M461.1120447999999 211.5M468.46900479999994 206.27712C468.58132479999995 206.27712,468.74980479999994 206.27712,468.7778847999999 206.27712C468.7778847999999 206.27712,468.8059647999999 206.27712,468.8059647999999 206.27712C468.8059647999999 206.27712,468.9744447999999 206.27712,469.1148447999999 206.27712C471.6420447999999 206.41752,473.1302847999999 208.07424,473.1302847999999 210.15216C473.1302847999999 211.16304,472.79332479999994 212.31432,471.95092479999994 213.40944C470.3503647999999 215.5716,467.73892479999995 216.75096,465.4644447999999 216.75096C463.69540479999995 216.75096,462.17908479999994 216.04896,461.4490047999999 214.61688C461.22436479999993 214.05528,461.1120447999999 213.52176,461.1120447999999 212.93208C461.1120447999999 209.87136,464.53780479999995 206.47368,468.46900479999994 206.27712"></path></g></g><g class="vf-modifiers"></g></g><g class="vf-stavenote" id="vf-auto2104032"><g class="vf-note" pointer-events="bounding-box"><g class="vf-stem" pointer-events="bounding-box"><path stroke-width="1.5" fill="none" stroke="#000000" stroke-dasharray="none" class="vf-stem" id="vf-auto2104032-stem" d="M506.6302847999999 196.5L506.6302847999999 161.5"></path></g><g class="vf-notehead" pointer-events="bounding-box"><path stroke-width="0.3" fill="#000000" stroke="none" stroke-dasharray="none" d="M495.3620447999999 196.5M502.71900479999994 191.27712C502.83132479999995 191.27712,502.99980479999994 191.27712,503.0278847999999 191.27712C503.0278847999999 191.27712,503.0559647999999 191.27712,503.0559647999999 191.27712C503.0559647999999 191.27712,503.2244447999999 191.27712,503.3648447999999 191.27712C505.8920447999999 191.41752,507.3802847999999 193.07424,507.3802847999999 195.15216C507.3802847999999 196.16304,507.04332479999994 197.31432,506.20092479999994 198.40944C504.6003647999999 200.5716,501.98892479999995 201.75096,499.7144447999999 201.75096C497.94540479999995 201.75096,496.42908479999994 201.04896,495.6990047999999 199.61688C495.47436479999993 199.05528,495.3620447999999 198.52176,495.3620447999999 197.93208C495.3620447999999 194.87136,498.78780479999995 191.47368,502.71900479999994 191.27712"></path></g></g><g class="vf-modifiers"></g></g><path stroke-width="1" fill="none" stroke="#000000" stroke-dasharray="none" d="M560.8620447999999 216.5L578.8802847999999 216.5"></path><g class="vf-stavenote" id="vf-auto2104040"><g class="vf-note" pointer-events="bounding-box"><g class="vf-stem" pointer-events="bounding-box"><path stroke-width="1.5" fill="none" stroke="#000000" stroke-dasharray="none" class="vf-stem" id="vf-auto2104040-stem" d="M575.1302847999999 221.5L575.1302847999999 186.5"></path></g><g class="vf-notehead" pointer-events="bounding-box"><path stroke-width="0.3" fill="#000000" stroke="none" stroke-dasharray="none" d="M563.8620447999999 221.5M571.2190047999999 216.27712C571.3313248 216.27712,571.4998047999999 216.27712,571.5278847999999 216.27712C571.5278847999999 216.27712,571.5559648 216.27712,571.5559648 216.27712C571.5559648 216.27712,571.7244447999999 216.27712,571.8648447999999 216.27712C574.3920447999999 216.41752,575.8802847999999 218.07424,575.8802847999999 220.15216C575.8802847999999 221.16304,575.5433247999999 222.31432,574.7009247999999 223.40944C573.1003648 225.5716,570.4889248 226.75096,568.2144447999999 226.75096C566.4454047999999 226.75096,564.9290847999999 226.04896,564.1990047999999 224.61688C563.9743647999999 224.05528,563.8620447999999 223.52176,563.8620447999999 222.93208C563.8620447999999 219.87136,567.2878047999999 216.47368,571.2190047999999 216.27712"></path></g></g><g class="vf-modifiers"></g></g><path stroke-width="1" fill="none" stroke="#000000" stroke-dasharray="none" d="M596.4788671999999 166.5L754.6456895999997 166.5"></path><path stroke-width="1" fill="none" stroke="#000000" stroke-dasharray="none" d="M596.4788671999999 176.5L754.6456895999997 176.5"></path><path stroke-width="1" fill="none" stroke="#000000" stroke-dasharray="none" d="M596.4788671999999 186.5L754.6456895999997 186.5"></path><path stroke-width="1" fill="none" stroke="#000000" stroke-dasharray="none" d="M596.4788671999999 196.5L754.6456895999997 196.5"></path><path stroke-width="1" fill="none" stroke="#000000" stroke-dasharray="none" d="M596.4788671999999 206.5L754.6456895999997 206.5"></path><rect stroke-width="0.3" fill="#000000" stroke="#000000" stroke-dasharray="none" x="749.6456895999997" y="166" width="1" height="41"></rect><rect stroke-width="0.3" fill="#000000" stroke="#000000" stroke-dasharray="none" x="752.6456895999997" y="166" width="3" height="41"></rect><path stroke-width="0.3" fill="#000000" stroke="none" stroke-dasharray="none" d="M748.6456895999997 182 A2 2 0 0 0 744.6456895999997 182M744.6456895999997 182 A2 2 0 0 0 748.6456895999997 182"></path><path stroke-width="0.3" fill="#000000" stroke="none" stroke-dasharray="none" d="M748.6456895999997 192 A2 2 0 0 0 744.6456895999997 192M744.6456895999997 192 A2 2 0 0 0 748.6456895999997 192"></path><path stroke-width="1" fill="none" stroke="#000000" stroke-dasharray="none" d="M610.4788671999999 216.5L628.4971071999998 216.5"></path><g class="vf-stavenote" id="vf-auto2104061"><g class="vf-note" pointer-events="bounding-box"><g class="vf-stem" pointer-events="bounding-box"><path stroke-width="1.5" fill="none" stroke="#000000" stroke-dasharray="none" class="vf-stem" id="vf-auto2104061-stem" d="M624.7471071999998 216.5L624.7471071999998 181.5"></path></g><g class="vf-notehead" pointer-events="bounding-box"><path stroke-width="0.3" fill="#000000" stroke="none" stroke-dasharray="none" d="M613.4788671999999 216.5M620.8358271999998 211.27712C620.9481471999999 211.27712,621.1166271999998 211.27712,621.1447071999999 211.27712C621.1447071999999 211.27712,621.1727871999999 211.27712,621.1727871999999 211.27712C621.1727871999999 211.27712,621.3412671999998 211.27712,621.4816671999998 211.27712C624.0088671999998 211.41752,625.4971071999998 213.07424,625.4971071999998 215.15216C625.4971071999998 216.16304,625.1601471999999 217.31432,624.3177471999999 218.40944C622.7171871999999 220.5716,620.1057471999999 221.75096,617.8312671999998 221.75096C616.0622271999998 221.75096,614.5459071999999 221.04896,613.8158271999998 219.61688C613.5911871999998 219.05528,613.4788671999999 218.52176,613.4788671999999 217.93208C613.4788671999999 214.87136,616.9046271999998 211.47368,620.8358271999998 211.27712"></path></g></g><g class="vf-modifiers"></g></g><g class="vf-stavenote" id="vf-auto2104069"><g class="vf-note" pointer-events="bounding-box"><g class="vf-stem" pointer-events="bounding-box"><path stroke-width="1.5" fill="none" stroke="#000000" stroke-dasharray="none" class="vf-stem" id="vf-auto2104069-stem" d="M731.9971071999998 211.5L731.9971071999998 176.5"></path></g><g class="vf-notehead" pointer-events="bounding-box"><path stroke-width="0.3" fill="#000000" stroke="none" stroke-dasharray="none" d="M720.7288671999999 211.5M728.0858271999998 206.27712C728.1981471999999 206.27712,728.3666271999998 206.27712,728.3947071999999 206.27712C728.3947071999999 206.27712,728.4227871999999 206.27712,728.4227871999999 206.27712C728.4227871999999 206.27712,728.5912671999998 206.27712,728.7316671999998 206.27712C731.2588671999998 206.41752,732.7471071999998 208.07424,732.7471071999998 210.15216C732.7471071999998 211.16304,732.4101471999999 212.31432,731.5677471999999 213.40944C729.9671871999999 215.5716,727.3557471999999 216.75096,725.0812671999998 216.75096C723.3122271999998 216.75096,721.7959071999999 216.04896,721.0658271999998 214.61688C720.8411871999998 214.05528,720.7288671999999 213.52176,720.7288671999999 212.93208C720.7288671999999 209.87136,724.1546271999998 206.47368,728.0858271999998 206.27712"></path></g></g><g class="vf-modifiers"></g></g><g class="vf-text"><text stroke-width="0.3" fill="#000000" stroke="none" stroke-dasharray="none" font-family="Times New Roman" font-size="23px" font-weight="bold" font-style="italic" x="165.4784" y="240.5">p</text></g><path stroke-width="1" fill="none" stroke="#000000" stroke-dasharray="none" d="M70 265.29999999999995L295.9452224 265.29999999999995"></path><path stroke-width="1" fill="none" stroke="#000000" stroke-dasharray="none" d="M70 275.29999999999995L295.9452224 275.29999999999995"></path><path stroke-width="1" fill="none" stroke="#000000" stroke-dasharray="none" d="M70 285.29999999999995L295.9452224 285.29999999999995"></path><path stroke-width="1" fill="none" stroke="#000000" stroke-dasharray="none" d="M70 295.29999999999995L295.9452224 295.29999999999995"></path><path stroke-width="1" fill="none" stroke="#000000" stroke-dasharray="none" d="M70 305.29999999999995L295.9452224 305.29999999999995"></path><rect stroke-width="0.3" fill="#000000" stroke="#000000" stroke-dasharray="none" x="295.9452224" y="264.79999999999995" width="1" height="41"></rect><g class="vf-clef"><path stroke-width="0.3" fill="#000000" stroke="none" stroke-dasharray="none" d="M75 275.29999999999995M83.8416 265.24879999999996C84.072 265.1912,84.3024 265.1912,84.5616 265.1912C85.5696 265.1912,86.7504 265.30639999999994,87.7584 265.508C92.4816 266.4872,95.736 269.68399999999997,96.3408 273.9464C96.3984 274.40719999999993,96.4272 274.83919999999995,96.4272 275.29999999999995C96.4272 277.89199999999994,95.5344 281.23279999999994,94.008 284.02639999999997C90.3792 290.59279999999995,83.7552 295.316,75.8064 297.044C75.6624 297.044,75.5472 297.0728,75.4032 297.0728C75.1152 297.0728,74.9712 296.9,74.9712 296.64079999999996C74.9712 296.35279999999995,75.0288 296.2664,75.6048 296.03599999999994C84.7056 292.6088,90.7824 285.20719999999994,91.3296 276.91279999999995C91.3584 276.48079999999993,91.3584 275.99119999999994,91.3584 275.61679999999996C91.3584 271.5848,90.12 268.58959999999996,87.7296 267.0919999999999C86.6928 266.42959999999994,85.5696 266.11279999999994,84.36 266.11279999999994C81.6816 266.11279999999994,78.9456 267.63919999999996,77.6784 270.20239999999995C77.6208 270.40399999999994,77.4192 270.83599999999996,77.4192 270.86479999999995C77.4192 270.86479999999995,77.4192 270.86479999999995,77.4192 270.86479999999995C77.4192 270.86479999999995,77.448 270.83599999999996,77.5344 270.80719999999997C78.168 270.40399999999994,78.8592 270.20239999999995,79.5792 270.20239999999995C80.5872 270.20239999999995,81.6528 270.63439999999997,82.4016 271.44079999999997C83.0928 272.1895999999999,83.4672 273.19759999999997,83.4672 274.1192C83.4672 275.99119999999994,82.0848 277.89199999999994,79.9248 278.0936C79.7808 278.0936,79.6368 278.12239999999997,79.4928 278.12239999999997C77.1024 278.12239999999997,75.1728 275.93359999999996,75.1728 273.1688C75.1728 273.11119999999994,75.1728 273.02479999999997,75.1728 272.996C75.288 268.8776,79.0608 265.508,83.8416 265.24879999999996M99.1632 269.10799999999995C99.2208 269.07919999999996,99.2496 269.07919999999996,99.336 269.07919999999996C99.5376 269.07919999999996,99.768 269.10799999999995,99.8256 269.1655999999999C100.54560000000001 269.36719999999997,100.8912 270.00079999999997,100.8912 270.6056C100.8912 271.12399999999997,100.632 271.64239999999995,100.11359999999999 271.93039999999996C99.912 272.07439999999997,99.6528 272.10319999999996,99.39359999999999 272.10319999999996C98.9904 272.10319999999996,98.5584 271.93039999999996,98.2704 271.5559999999999C98.03999999999999 271.268,97.9248 270.9512,97.9248 270.63439999999997C97.9248 269.91439999999994,98.3856 269.1944,99.1632 269.10799999999995M99.1632 278.52559999999994C99.2208 278.52559999999994,99.2496 278.52559999999994,99.336 278.52559999999994C99.5376 278.52559999999994,99.768 278.55439999999993,99.8256 278.61199999999997C100.54560000000001 278.81359999999995,100.8912 279.44719999999995,100.8912 280.05199999999996C100.8912 280.57039999999995,100.632 281.08879999999994,100.11359999999999 281.34799999999996C99.912 281.49199999999996,99.6528 281.54959999999994,99.39359999999999 281.54959999999994C98.9904 281.54959999999994,98.5584 281.34799999999996,98.2704 281.00239999999997C98.03999999999999 280.71439999999996,97.9248 280.39759999999995,97.9248 280.05199999999996C97.9248 279.33199999999994,98.3856 278.64079999999996,99.1632 278.52559999999994"></path></g><path stroke-width="0.3" fill="#000000" stroke="none" stroke-dasharray="none" d="M116 285.29999999999995M121.0112 266.95439999999996C121.04 266.9256,121.4432 266.9256,122.6816 266.9256C123.056 266.9256,123.4592 266.9256,123.9776 266.9256L126.8864 266.9256L126.9728 267.01199999999994C127.1168 267.09839999999997,127.2032 267.2424,127.2032 267.35759999999993C127.2032 267.53039999999993,127.1168 267.64559999999994,127.0016 267.76079999999996C126.9728 267.84719999999993,126.7136 268.07759999999996,126.5408 268.3367999999999L125.0144 270.0936L123.056 272.31119999999993L122.0192 273.49199999999996L120.464 275.27759999999995L118.4192 277.61039999999997C118.0736 278.04239999999993,117.6992 278.388,117.6992 278.388C117.6992 278.388,117.6992 278.388,117.6992 278.388C117.6992 278.44559999999996,117.9584 278.44559999999996,120.3488 278.44559999999996L122.9696 278.44559999999996L122.9696 276.57359999999994C122.9696 274.67279999999994,122.9696 274.64399999999995,122.9984 274.61519999999996C123.056 274.52879999999993,123.3152 274.21199999999993,124.3232 273.03119999999996L124.7264 272.59919999999994L125.1296 272.1672L125.7344 271.3896L126.368 270.7272L126.6848 270.32399999999996C126.8 270.15119999999996,126.9728 270.12239999999997,127.1168 270.12239999999997C127.28960000000001 270.12239999999997,127.4336 270.20879999999994,127.52 270.35279999999995C127.5488 270.43919999999997,127.5488 270.49679999999995,127.5488 272.62799999999993C127.5488 273.1176,127.5488 273.72239999999994,127.5488 274.44239999999996L127.5488 278.44559999999996L128.2688 278.44559999999996C128.9312 278.44559999999996,128.96 278.44559999999996,129.0464 278.47439999999995C129.2768 278.5608,129.392 278.79119999999995,129.392 279.05039999999997C129.392 279.1944,129.3632 279.36719999999997,129.248 279.4823999999999C129.0752 279.62639999999993,129.0464 279.62639999999993,128.2688 279.62639999999993L127.5488 279.62639999999993L127.5488 280.11599999999993C127.5776 281.5848,127.8656 282.16079999999994,128.9888 282.76559999999995C129.392 282.96719999999993,129.4784 283.02479999999997,129.4784 283.3128C129.4784 283.51439999999997,129.42079999999999 283.60079999999994,129.2768 283.71599999999995L129.1904 283.74479999999994L125.2448 283.74479999999994L121.328 283.74479999999994L121.2416 283.71599999999995C121.0688 283.60079999999994,121.04 283.51439999999997,121.04 283.3128C121.04 283.02479999999997,121.0688 282.96719999999993,121.5008 282.76559999999995C122.624 282.16079999999994,122.912 281.5848,122.912 280.11599999999993L122.912 279.62639999999993L119.6 279.62639999999993C118.9952 279.68399999999997,118.5056 279.68399999999997,118.1024 279.68399999999997C116.288 279.68399999999997,116.2592 279.62639999999993,116.2304 279.62639999999993C116.0576 279.56879999999995,116 279.39599999999996,116 279.1944C116 279.1944,116 279.1944,116 279.1944C116 278.99279999999993,116 278.99279999999993,116.576 278.33039999999994C118.9952 275.39279999999997,120.6944 271.13039999999995,120.6944 267.73199999999997C120.6944 267.21359999999993,120.7808 267.04079999999993,121.0112 266.95439999999996M122.7392 285.32879999999994L122.768 285.32879999999994L122.6816 285.32879999999994L122.7392 285.32879999999994M122.7392 265.91759999999994L122.768 265.91759999999994L122.6816 265.91759999999994L122.7392 265.91759999999994"></path><path stroke-width="0.3" fill="#000000" stroke="none" stroke-dasharray="none" d="M116 305.29999999999995M121.0112 286.95439999999996C121.04 286.9256,121.4432 286.9256,122.6816 286.9256C123.056 286.9256,123.4592 286.9256,123.9776 286.9256L126.8864 286.9256L126.9728 287.01199999999994C127.1168 287.09839999999997,127.2032 287.2424,127.2032 287.35759999999993C127.2032 287.53039999999993,127.1168 287.64559999999994,127.0016 287.76079999999996C126.9728 287.84719999999993,126.7136 288.07759999999996,126.5408 288.3367999999999L125.0144 290.0936L123.056 292.31119999999993L122.0192 293.49199999999996L120.464 295.27759999999995L118.4192 297.61039999999997C118.0736 298.04239999999993,117.6992 298.388,117.6992 298.388C117.6992 298.388,117.6992 298.388,117.6992 298.388C117.6992 298.44559999999996,117.9584 298.44559999999996,120.3488 298.44559999999996L122.9696 298.44559999999996L122.9696 296.57359999999994C122.9696 294.67279999999994,122.9696 294.64399999999995,122.9984 294.61519999999996C123.056 294.52879999999993,123.3152 294.21199999999993,124.3232 293.03119999999996L124.7264 292.59919999999994L125.1296 292.1672L125.7344 291.3896L126.368 290.7272L126.6848 290.32399999999996C126.8 290.15119999999996,126.9728 290.12239999999997,127.1168 290.12239999999997C127.28960000000001 290.12239999999997,127.4336 290.20879999999994,127.52 290.35279999999995C127.5488 290.43919999999997,127.5488 290.49679999999995,127.5488 292.62799999999993C127.5488 293.1176,127.5488 293.72239999999994,127.5488 294.44239999999996L127.5488 298.44559999999996L128.2688 298.44559999999996C128.9312 298.44559999999996,128.96 298.44559999999996,129.0464 298.47439999999995C129.2768 298.5608,129.392 298.79119999999995,129.392 299.05039999999997C129.392 299.1944,129.3632 299.36719999999997,129.248 299.4823999999999C129.0752 299.62639999999993,129.0464 299.62639999999993,128.2688 299.62639999999993L127.5488 299.62639999999993L127.5488 300.11599999999993C127.5776 301.5848,127.8656 302.16079999999994,128.9888 302.76559999999995C129.392 302.96719999999993,129.4784 303.02479999999997,129.4784 303.3128C129.4784 303.51439999999997,129.42079999999999 303.60079999999994,129.2768 303.71599999999995L129.1904 303.74479999999994L125.2448 303.74479999999994L121.328 303.74479999999994L121.2416 303.71599999999995C121.0688 303.60079999999994,121.04 303.51439999999997,121.04 303.3128C121.04 303.02479999999997,121.0688 302.96719999999993,121.5008 302.76559999999995C122.624 302.16079999999994,122.912 301.5848,122.912 300.11599999999993L122.912 299.62639999999993L119.6 299.62639999999993C118.9952 299.68399999999997,118.5056 299.68399999999997,118.1024 299.68399999999997C116.288 299.68399999999997,116.2592 299.62639999999993,116.2304 299.62639999999993C116.0576 299.56879999999995,116 299.39599999999996,116 299.1944C116 299.1944,116 299.1944,116 299.1944C116 298.99279999999993,116 298.99279999999993,116.576 298.33039999999994C118.9952 295.39279999999997,120.6944 291.13039999999995,120.6944 287.73199999999997C120.6944 287.21359999999993,120.7808 287.04079999999993,121.0112 286.95439999999996M122.7392 305.32879999999994L122.768 305.32879999999994L122.6816 305.32879999999994L122.7392 305.32879999999994M122.7392 285.91759999999994L122.768 285.91759999999994L122.6816 285.91759999999994L122.7392 285.91759999999994"></path><g class="vf-stavenote" id="vf-auto2103960"><g class="vf-note" pointer-events="bounding-box"><g class="vf-stem" pointer-events="bounding-box"><path stroke-width="1.5" fill="none" stroke="#000000" stroke-dasharray="none" class="vf-stem" id="vf-auto2103960-stem" d="M142.2284 265.29999999999995L142.2284 300.29999999999995"></path></g><g class="vf-notehead" pointer-events="bounding-box"><path stroke-width="0.3" fill="#000000" stroke="none" stroke-dasharray="none" d="M141.4784 265.29999999999995M148.83535999999998 260.07712C148.94768 260.07712,149.11615999999998 260.07712,149.14424 260.07712C149.14424 260.07712,149.17231999999998 260.07712,149.17231999999998 260.07712C149.17231999999998 260.07712,149.3408 260.07712,149.4812 260.07712C152.0084 260.21752,153.49663999999999 261.87423999999993,153.49663999999999 263.95215999999994C153.49663999999999 264.96304,153.15967999999998 266.11431999999996,152.31727999999998 267.20944C150.71671999999998 269.37159999999994,148.10528 270.55096,145.83079999999998 270.55096C144.06176 270.55096,142.54543999999999 269.84896,141.81536 268.41687999999994C141.59072 267.85527999999994,141.4784 267.3217599999999,141.4784 266.73207999999994C141.4784 263.67135999999994,144.90416 260.27367999999996,148.83535999999998 260.07712"></path></g></g><g class="vf-modifiers"></g></g><g class="vf-stavenote" id="vf-auto2103968"><g class="vf-note" pointer-events="bounding-box"><g class="vf-stem" pointer-events="bounding-box"><path stroke-width="1.5" fill="none" stroke="#000000" stroke-dasharray="none" class="vf-stem" id="vf-auto2103968-stem" d="M181.1088 260.29999999999995L181.1088 295.29999999999995"></path></g><g class="vf-notehead" pointer-events="bounding-box"><path stroke-width="0.3" fill="#000000" stroke="none" stroke-dasharray="none" d="M180.3588 260.29999999999995M187.71576 255.07711999999995C187.82808 255.07711999999995,187.99656 255.07711999999995,188.02464 255.07711999999995C188.02464 255.07711999999995,188.05272 255.07711999999995,188.05272 255.07711999999995C188.05272 255.07711999999995,188.2212 255.07711999999995,188.3616 255.07711999999995C190.8888 255.21751999999995,192.37704 256.87423999999993,192.37704 258.95215999999994C192.37704 259.96304,192.04008 261.11431999999996,191.19768 262.20944C189.59712 264.37159999999994,186.98568 265.55096,184.7112 265.55096C182.94216 265.55096,181.42584 264.84896,180.69576 263.41687999999994C180.47112 262.85527999999994,180.3588 262.3217599999999,180.3588 261.73207999999994C180.3588 258.67135999999994,183.78456 255.27367999999996,187.71576 255.07711999999995"></path></g></g><g class="vf-modifiers"></g></g><g class="vf-stavenote" id="vf-auto2103976"><g class="vf-note" pointer-events="bounding-box"><g class="vf-stem" pointer-events="bounding-box"><path stroke-width="1.5" fill="none" stroke="#000000" stroke-dasharray="none" class="vf-stem" id="vf-auto2103976-stem" d="M219.98919999999998 270.29999999999995L219.98919999999998 305.29999999999995"></path></g><g class="vf-notehead" pointer-events="bounding-box"><path stroke-width="0.3" fill="#000000" stroke="none" stroke-dasharray="none" d="M219.23919999999998 270.29999999999995M226.59615999999997 265.07712C226.70847999999998 265.07712,226.87696 265.07712,226.90503999999999 265.07712C226.90503999999999 265.07712,226.93311999999997 265.07712,226.93311999999997 265.07712C226.93311999999997 265.07712,227.1016 265.07712,227.242 265.07712C229.76919999999998 265.21752,231.25743999999997 266.87423999999993,231.25743999999997 268.95215999999994C231.25743999999997 269.96304,230.92048 271.11431999999996,230.07807999999997 272.20944C228.47751999999997 274.37159999999994,225.86607999999998 275.55096,223.59159999999997 275.55096C221.82255999999998 275.55096,220.30623999999997 274.84896,219.57616 273.41687999999994C219.35152 272.85527999999994,219.23919999999998 272.3217599999999,219.23919999999998 271.73207999999994C219.23919999999998 268.67135999999994,222.66495999999998 265.27367999999996,226.59615999999997 265.07712"></path></g></g><g class="vf-modifiers"></g></g><rect stroke-width="0.3" fill="#000000" stroke="#000000" stroke-dasharray="none" x="295.9452224" y="166.5" width="1" height="139.79999999999995"></rect><rect stroke-width="0.3" fill="#000000" stroke="#000000" stroke-dasharray="none" x="70" y="166.5" width="1" height="139.79999999999995"></rect><path stroke-width="1" fill="none" stroke="#000000" stroke-dasharray="none" d="M295.9452224 265.29999999999995L444.1120447999999 265.29999999999995"></path><path stroke-width="1" fill="none" stroke="#000000" stroke-dasharray="none" d="M295.9452224 275.29999999999995L444.1120447999999 275.29999999999995"></path><path stroke-width="1" fill="none" stroke="#000000" stroke-dasharray="none" d="M295.9452224 285.29999999999995L444.1120447999999 285.29999999999995"></path><path stroke-width="1" fill="none" stroke="#000000" stroke-dasharray="none" d="M295.9452224 295.29999999999995L444.1120447999999 295.29999999999995"></path><path stroke-width="1" fill="none" stroke="#000000" stroke-dasharray="none" d="M295.9452224 305.29999999999995L444.1120447999999 305.29999999999995"></path><rect stroke-width="0.3" fill="#000000" stroke="#000000" stroke-dasharray="none" x="444.1120447999999" y="264.79999999999995" width="1" height="41"></rect><g class="vf-stavenote" id="vf-auto2104005"><g class="vf-note" pointer-events="bounding-box"><g class="vf-stem" pointer-events="bounding-box"><path stroke-width="1.5" fill="none" stroke="#000000" stroke-dasharray="none" class="vf-stem" id="vf-auto2104005-stem" d="M324.21346239999997 300.29999999999995L324.21346239999997 265.29999999999995"></path></g><g class="vf-notehead" pointer-events="bounding-box"><path stroke-width="0.3" fill="#000000" stroke="none" stroke-dasharray="none" d="M312.9452224 300.29999999999995M320.3021824 295.07712C320.4145024 295.07712,320.5829824 295.07712,320.6110624 295.07712C320.6110624 295.07712,320.63914239999997 295.07712,320.63914239999997 295.07712C320.63914239999997 295.07712,320.80762239999996 295.07712,320.94802239999996 295.07712C323.4752224 295.21752,324.96346239999997 296.87423999999993,324.96346239999997 298.95215999999994C324.96346239999997 299.96304,324.6265024 301.11431999999996,323.7841024 302.20944C322.18354239999996 304.37159999999994,319.57210239999995 305.55096,317.29762239999997 305.55096C315.5285824 305.55096,314.0122624 304.84896,313.28218239999995 303.41687999999994C313.0575424 302.85527999999994,312.9452224 302.3217599999999,312.9452224 301.73207999999994C312.9452224 298.67135999999994,316.3709824 295.27367999999996,320.3021824 295.07712"></path></g></g><g class="vf-modifiers"></g></g><g class="vf-stavenote" id="vf-auto2104013"><g class="vf-note" pointer-events="bounding-box"><g class="vf-stem" pointer-events="bounding-box"><path stroke-width="1.5" fill="none" stroke="#000000" stroke-dasharray="none" class="vf-stem" id="vf-auto2104013-stem" d="M380.1952224 270.29999999999995L380.1952224 305.29999999999995"></path></g><g class="vf-notehead" pointer-events="bounding-box"><path stroke-width="0.3" fill="#000000" stroke="none" stroke-dasharray="none" d="M379.4452224 270.29999999999995M386.8021824 265.07712C386.9145024 265.07712,387.0829824 265.07712,387.1110624 265.07712C387.1110624 265.07712,387.13914239999997 265.07712,387.13914239999997 265.07712C387.13914239999997 265.07712,387.30762239999996 265.07712,387.44802239999996 265.07712C389.9752224 265.21752,391.46346239999997 266.87423999999993,391.46346239999997 268.95215999999994C391.46346239999997 269.96304,391.1265024 271.11431999999996,390.2841024 272.20944C388.68354239999996 274.37159999999994,386.07210239999995 275.55096,383.79762239999997 275.55096C382.0285824 275.55096,380.5122624 274.84896,379.78218239999995 273.41687999999994C379.5575424 272.85527999999994,379.4452224 272.3217599999999,379.4452224 271.73207999999994C379.4452224 268.67135999999994,382.8709824 265.27367999999996,386.8021824 265.07712"></path></g></g><g class="vf-modifiers"></g></g><rect stroke-width="0.3" fill="#000000" stroke="#000000" stroke-dasharray="none" x="444.1120447999999" y="166.5" width="1" height="139.79999999999995"></rect><path stroke-width="1" fill="none" stroke="#000000" stroke-dasharray="none" d="M444.1120447999999 265.29999999999995L596.4788671999999 265.29999999999995"></path><path stroke-width="1" fill="none" stroke="#000000" stroke-dasharray="none" d="M444.1120447999999 275.29999999999995L596.4788671999999 275.29999999999995"></path><path stroke-width="1" fill="none" stroke="#000000" stroke-dasharray="none" d="M444.1120447999999 285.29999999999995L596.4788671999999 285.29999999999995"></path><path stroke-width="1" fill="none" stroke="#000000" stroke-dasharray="none" d="M444.1120447999999 295.29999999999995L596.4788671999999 295.29999999999995"></path><path stroke-width="1" fill="none" stroke="#000000" stroke-dasharray="none" d="M444.1120447999999 305.29999999999995L596.4788671999999 305.29999999999995"></path><rect stroke-width="0.3" fill="#000000" stroke="#000000" stroke-dasharray="none" x="596.4788671999999" y="264.79999999999995" width="1" height="41"></rect><g class="vf-stavenote" id="vf-auto2104050"><g class="vf-note" pointer-events="bounding-box"><g class="vf-stem" pointer-events="bounding-box"><path stroke-width="1.5" fill="none" stroke="#000000" stroke-dasharray="none" class="vf-stem" id="vf-auto2104050-stem" d="M530.3620447999999 260.29999999999995L530.3620447999999 295.29999999999995"></path></g><g class="vf-notehead" pointer-events="bounding-box"><path stroke-width="0.3" fill="#000000" stroke="none" stroke-dasharray="none" d="M529.6120447999999 260.29999999999995M536.9690047999999 255.07711999999995C537.0813248 255.07711999999995,537.2498047999999 255.07711999999995,537.2778847999999 255.07711999999995C537.2778847999999 255.07711999999995,537.3059648 255.07711999999995,537.3059648 255.07711999999995C537.3059648 255.07711999999995,537.4744447999999 255.07711999999995,537.6148447999999 255.07711999999995C540.1420447999999 255.21751999999995,541.6302847999999 256.87423999999993,541.6302847999999 258.95215999999994C541.6302847999999 259.96304,541.2933247999999 261.11431999999996,540.4509247999999 262.20944C538.8503648 264.37159999999994,536.2389248 265.55096,533.9644447999999 265.55096C532.1954047999999 265.55096,530.6790847999999 264.84896,529.9490047999999 263.41687999999994C529.7243647999999 262.85527999999994,529.6120447999999 262.3217599999999,529.6120447999999 261.73207999999994C529.6120447999999 258.67135999999994,533.0378047999999 255.27367999999996,536.9690047999999 255.07711999999995"></path></g></g><g class="vf-modifiers"></g></g><rect stroke-width="0.3" fill="#000000" stroke="#000000" stroke-dasharray="none" x="596.4788671999999" y="166.5" width="1" height="139.79999999999995"></rect><path stroke-width="1" fill="none" stroke="#000000" stroke-dasharray="none" d="M596.4788671999999 265.29999999999995L754.6456895999997 265.29999999999995"></path><path stroke-width="1" fill="none" stroke="#000000" stroke-dasharray="none" d="M596.4788671999999 275.29999999999995L754.6456895999997 275.29999999999995"></path><path stroke-width="1" fill="none" stroke="#000000" stroke-dasharray="none" d="M596.4788671999999 285.29999999999995L754.6456895999997 285.29999999999995"></path><path stroke-width="1" fill="none" stroke="#000000" stroke-dasharray="none" d="M596.4788671999999 295.29999999999995L754.6456895999997 295.29999999999995"></path><path stroke-width="1" fill="none" stroke="#000000" stroke-dasharray="none" d="M596.4788671999999 305.29999999999995L754.6456895999997 305.29999999999995"></path><rect stroke-width="0.3" fill="#000000" stroke="#000000" stroke-dasharray="none" x="749.6456895999997" y="264.79999999999995" width="1" height="41"></rect><rect stroke-width="0.3" fill="#000000" stroke="#000000" stroke-dasharray="none" x="752.6456895999997" y="264.79999999999995" width="3" height="41"></rect><path stroke-width="0.3" fill="#000000" stroke="none" stroke-dasharray="none" d="M748.6456895999997 280.79999999999995 A2 2 0 0 0 744.6456895999997 280.79999999999995M744.6456895999997 280.79999999999995 A2 2 0 0 0 748.6456895999997 280.79999999999995"></path><path stroke-width="0.3" fill="#000000" stroke="none" stroke-dasharray="none" d="M748.6456895999997 290.79999999999995 A2 2 0 0 0 744.6456895999997 290.79999999999995M744.6456895999997 290.79999999999995 A2 2 0 0 0 748.6456895999997 290.79999999999995"></path><g class="vf-stavenote" id="vf-auto2104079"><g class="vf-note" pointer-events="bounding-box"><g class="vf-stem" pointer-events="bounding-box"><path stroke-width="1.5" fill="none" stroke="#000000" stroke-dasharray="none" class="vf-stem" id="vf-auto2104079-stem" d="M660.4971071999998 305.29999999999995L660.4971071999998 270.29999999999995"></path></g><g class="vf-notehead" pointer-events="bounding-box"><path stroke-width="0.3" fill="#000000" stroke="none" stroke-dasharray="none" d="M649.2288671999999 305.29999999999995M656.5858271999998 300.07712C656.6981471999999 300.07712,656.8666271999998 300.07712,656.8947071999999 300.07712C656.8947071999999 300.07712,656.9227871999999 300.07712,656.9227871999999 300.07712C656.9227871999999 300.07712,657.0912671999998 300.07712,657.2316671999998 300.07712C659.7588671999998 300.21752,661.2471071999998 301.87423999999993,661.2471071999998 303.95215999999994C661.2471071999998 304.96304,660.9101471999999 306.11431999999996,660.0677471999999 307.20944C658.4671871999999 309.37159999999994,655.8557471999999 310.55096,653.5812671999998 310.55096C651.8122271999998 310.55096,650.2959071999999 309.84896,649.5658271999998 308.41687999999994C649.3411871999998 307.85527999999994,649.2288671999999 307.3217599999999,649.2288671999999 306.73207999999994C649.2288671999999 303.67135999999994,652.6546271999998 300.27367999999996,656.5858271999998 300.07712"></path></g></g><g class="vf-modifiers"></g></g><g class="vf-stavenote" id="vf-auto2104087"><g class="vf-note" pointer-events="bounding-box"><g class="vf-stem" pointer-events="bounding-box"><path stroke-width="1.5" fill="none" stroke="#000000" stroke-dasharray="none" class="vf-stem" id="vf-auto2104087-stem" d="M696.2471071999998 285.29999999999995L696.2471071999998 250.29999999999995"></path></g><g class="vf-notehead" pointer-events="bounding-box"><path stroke-width="0.3" fill="#000000" stroke="none" stroke-dasharray="none" d="M684.9788671999999 285.29999999999995M692.3358271999998 280.07712C692.4481471999999 280.07712,692.6166271999998 280.07712,692.6447071999999 280.07712C692.6447071999999 280.07712,692.6727871999999 280.07712,692.6727871999999 280.07712C692.6727871999999 280.07712,692.8412671999998 280.07712,692.9816671999998 280.07712C695.5088671999998 280.21752,696.9971071999998 281.87423999999993,696.9971071999998 283.95215999999994C696.9971071999998 284.96304,696.6601471999999 286.11431999999996,695.8177471999999 287.20944C694.2171871999999 289.37159999999994,691.6057471999999 290.55096,689.3312671999998 290.55096C687.5622271999998 290.55096,686.0459071999999 289.84896,685.3158271999998 288.41687999999994C685.0911871999998 287.85527999999994,684.9788671999999 287.3217599999999,684.9788671999999 286.73207999999994C684.9788671999999 283.67135999999994,688.4046271999998 280.27367999999996,692.3358271999998 280.07712"></path></g></g><g class="vf-modifiers"></g></g><rect stroke-width="0.3" fill="#000000" stroke="#000000" stroke-dasharray="none" x="749.6456895999997" y="166.5" width="1" height="139.79999999999995"></rect><rect stroke-width="0.3" fill="#000000" stroke="#000000" stroke-dasharray="none" x="752.6456895999997" y="166.5" width="3" height="139.79999999999995"></rect><path stroke-width="0.3" fill="#000000" stroke="none" stroke-dasharray="none" d="M68 166.5C45.2 194.45999999999998,81.2 217.527,56 236.39999999999998C81.2 255.27299999999997,45.2 278.34,68 306.29999999999995C44 278.34,72.8 255.27299999999997,56 236.39999999999998C72.8 217.527,44 194.45999999999998,68 166.5"></path><path stroke-width="1" fill="none" stroke="#000000" stroke-dasharray="none" d="M68 166.5C45.2 194.45999999999998,81.2 217.527,56 236.39999999999998C81.2 255.27299999999997,45.2 278.34,68 306.29999999999995C44 278.34,72.8 255.27299999999997,56 236.39999999999998C72.8 217.527,44 194.45999999999998,68 166.5"></path><g class="vf-text"><text stroke-width="0.3" fill="#000000" stroke="none" stroke-dasharray="none" font-family="Times New Roman" font-size="15px" font-weight="normal" font-style="normal" x="440.6120447999999" y="163.5">3</text></g></svg>