<svg xmlns="http://www.w3.org/2000/svg"  width="1470" height="374.6" viewBox="0 0 1470 374.6"><path stroke-width="1" fill="none" stroke="#000000" stroke-dasharray="none" d="M70 166.5L300.14522239999997 166.5"></path><path stroke-width="1" fill="none" stroke="#000000" stroke-dasharray="none" d="M70 176.5L300.14522239999997 176.5"></path><path stroke-width="1" fill="none" stroke="#000000" stroke-dasharray="none" d="M70 186.5L300.14522239999997 186.5"></path><path stroke-width="1" fill="none" stroke="#000000" stroke-dasharray="none" d="M70 196.5L300.14522239999997 196.5"></path><path stroke-width="1" fill="none" stroke="#000000" stroke-dasharray="none" d="M70 206.5L300.14522239999997 206.5"></path><rect stroke-width="0.3" fill="#000000" stroke="#000000" stroke-dasharray="none" x="300.14522239999997" y="166" width="1" height="41"></rect><g class="vf-clef"><path stroke-width="0.3" fill="#000000" stroke="none" stroke-dasharray="none" d="M75 196.5M89.0544 153.3288C89.112 153.3,89.1696 153.3,89.256 153.3C89.6016 153.3,90.0048 153.588,90.5808 154.308C92.9136 156.9864,94.5552 161.652,94.5552 165.4536C94.5552 165.7416,94.4976 165.972,94.4976 166.26C94.2384 170.7816,92.3952 174.4968,88.7376 178.0104L87.7584 178.9608L87.4128 179.3352L87.4128 179.4504L87.6144 180.3144L87.9312 181.8696L88.248 183.3096C88.68 185.268,88.8528 186.276,88.8528 186.276C88.8528 186.276,88.8528 186.276,88.8528 186.276C88.8528 186.276,88.968 186.276,89.112 186.2472C89.256 186.2472,89.7168 186.1896,90.2064 186.1896C90.55199999999999 186.1896,90.8976 186.2472,91.0704 186.2472C95.1312 186.7656,98.2704 189.6744,99.1632 193.764C99.336 194.4264,99.39359999999999 195.1464,99.39359999999999 195.8664C99.39359999999999 199.7544,97.0608 203.4696,93.1728 205.2264C92.94239999999999 205.3704,92.856 205.3992,92.856 205.3992L92.856 205.428C92.856 205.428,93.0288 206.0904,93.1728 206.8392L93.6048 209.028L94.008 210.7848C94.2384 211.908,94.3536 212.7144,94.3536 213.4344C94.3536 214.06799999999998,94.2672 214.644,94.1232 215.3064C93.144 219.3096,89.6592 221.7,86.0304 221.7C84.2448 221.7,82.4016 221.124,80.7888 219.828C79.3488 218.6184,78.7152 217.524,78.7152 216.084C78.7152 213.5496,80.76 211.764,82.8912 211.764C83.64 211.764,84.3888 211.99439999999998,85.1088 212.4264C86.3184 213.2616,86.8656 214.5288,86.8656 215.7672C86.8656 217.668,85.5408 219.54,83.2656 219.684L83.0352 219.684L83.208 219.79919999999998C84.1584 220.2024,85.1088 220.404,86.0304 220.404C88.3632 220.404,90.55199999999999 219.2232,91.8768 217.1784C92.62559999999999 216.0264,93.0288 214.6728,93.0288 213.3192C93.0288 212.8008,92.94239999999999 212.2824,92.8272 211.7064C92.8272 211.6488,92.74080000000001 211.188,92.62559999999999 210.756C91.992 207.6456,91.6176 205.8312,91.6176 205.8312C91.6176 205.8312,91.6176 205.8312,91.6176 205.8312C91.56 205.8312,91.4448 205.8312,91.3584 205.8888C91.0704 205.9464,90.4656 206.0904,90.2064 206.1192C89.5728 206.2056,88.968 206.2344,88.392 206.2344C82.74719999999999 206.2344,77.5056 202.4328,75.6912 196.8168C75.2304 195.3192,74.9712 193.8216,74.9712 192.324C74.9712 189.3288,75.9216 186.3912,77.7648 183.7704C79.7808 180.9192,81.7968 178.4712,84.2736 175.9368L85.13759999999999 175.044L84.936 173.9784L84.5616 172.2216L84.072 169.9752C83.928 169.14,83.7552 168.3336,83.7264 168.1608C83.5824 167.2104,83.496 166.2888,83.496 165.3384C83.496 161.7096,84.6768 158.22480000000002,86.8944 155.4312C87.5568 154.5672,88.7376 153.4152,89.0544 153.3288M90.8112 159.0312C90.7536 159.0312,90.6672 159.0312,90.5808 159.0312C89.4 159.0312,87.8736 160.1256,86.8368 161.7384C85.7712 163.32240000000002,85.224 165.4248,85.224 167.5848C85.224 168.1608,85.25280000000001 168.7656,85.3392 169.3704C85.4256 169.8024,85.45439999999999 170.0904,85.6848 171.12720000000002L86.088 172.9416C86.2032 173.4888,86.28960000000001 173.92079999999999,86.28960000000001 173.9784L86.28960000000001 173.9784C86.3184 173.9784,87.2112 172.9992,87.4992 172.6536C90.3792 169.3992,92.1072 165.972,92.4816 162.948C92.5104 162.66,92.5104 162.4296,92.5104 162.1416C92.5104 161.24880000000002,92.3952 160.38479999999998,92.1936 159.924C91.9632 159.4632,91.4448 159.0888,90.8112 159.0312M86.4624 181.2936C86.4048 180.8904,86.3184 180.5736,86.3184 180.516C86.3184 180.516,86.3184 180.516,86.28960000000001 180.516C86.232 180.516,84.9936 181.956,84.1296 182.964C82.6608 184.7496,81.1056 186.8808,80.472 187.9176C79.2624 189.9624,78.6576 192.2376,78.6576 194.484C78.6576 195.9528,78.9456 197.364,79.464 198.7176C81.0192 202.7208,84.5904 205.2264,88.4784 205.2264C88.9392 205.2264,89.4576 205.1976,89.9472 205.1112C90.5808 204.996,91.3584 204.7656,91.3584 204.6792L91.3584 204.6792C91.3584 204.6792,91.3008 204.3912,91.2144 204.0744L90.3792 199.956L89.7168 196.8744L89.2848 194.7432L88.824 192.6696C88.5936 191.4312,88.5072 191.1144,88.5072 191.1144C88.5072 191.1144,88.5072 191.0856,88.4784 191.0856C88.3056 191.0856,87.384 191.5464,86.9808 191.8344C85.4832 192.8712,84.7056 194.5128,84.7056 196.1256C84.7056 197.652,85.45439999999999 199.1784,86.8944 200.0712C87.2112 200.2728,87.3264 200.4456,87.3264 200.6472C87.3264 200.676,87.3264 200.7624,87.3264 200.7912C87.2688 201.1368,87.0672 201.2808,86.7792 201.2808C86.664 201.2808,86.52 201.252,86.3472 201.1656C83.6976 200.0136,81.912 197.2776,81.912 194.2824L81.912 194.2824C81.912 190.8264,84.072 187.8312,87.384 186.6504L87.5568 186.5928L87.2688 185.1528L86.4624 181.2936M90.7824 190.9128C90.55199999999999 190.88400000000001,90.3216 190.88400000000001,90.1488 190.88400000000001C90.0912 190.88400000000001,90.0048 190.88400000000001,89.9472 190.88400000000001L89.8032 190.88400000000001L89.9184 191.4024L90.5232 194.2248L90.8976 196.068L91.3008 197.8824L92.1072 201.8856L92.424 203.412C92.5392 203.8152,92.5968 204.1608,92.62559999999999 204.1608C92.62559999999999 204.1608,92.62559999999999 204.1608,92.62559999999999 204.1608C92.6544 204.1608,93.144 203.8728,93.4608 203.6424C94.9296 202.6056,96.024 200.9928,96.4272 199.3224C96.5712 198.7752,96.6288 198.1992,96.6288 197.652C96.6288 194.3112,94.152 191.2872,90.7824 190.9128"></path></g><path stroke-width="0.3" fill="#000000" stroke="none" stroke-dasharray="none" d="M116 186.5M121.0112 168.1544C121.04 168.1256,121.4432 168.1256,122.6816 168.1256C123.056 168.1256,123.4592 168.1256,123.9776 168.1256L126.8864 168.1256L126.9728 168.212C127.1168 168.29840000000002,127.2032 168.4424,127.2032 168.5576C127.2032 168.7304,127.1168 168.8456,127.0016 168.9608C126.9728 169.0472,126.7136 169.2776,126.5408 169.5368L125.0144 171.2936L123.056 173.5112L122.0192 174.692L120.464 176.4776L118.4192 178.8104C118.0736 179.2424,117.6992 179.588,117.6992 179.588C117.6992 179.588,117.6992 179.588,117.6992 179.588C117.6992 179.6456,117.9584 179.6456,120.3488 179.6456L122.9696 179.6456L122.9696 177.7736C122.9696 175.8728,122.9696 175.844,122.9984 175.8152C123.056 175.7288,123.3152 175.412,124.3232 174.2312L124.7264 173.7992L125.1296 173.3672L125.7344 172.5896L126.368 171.9272L126.6848 171.524C126.8 171.3512,126.9728 171.3224,127.1168 171.3224C127.28960000000001 171.3224,127.4336 171.4088,127.52 171.5528C127.5488 171.6392,127.5488 171.6968,127.5488 173.828C127.5488 174.3176,127.5488 174.9224,127.5488 175.6424L127.5488 179.6456L128.2688 179.6456C128.9312 179.6456,128.96 179.6456,129.0464 179.6744C129.2768 179.7608,129.392 179.9912,129.392 180.2504C129.392 180.3944,129.3632 180.5672,129.248 180.6824C129.0752 180.8264,129.0464 180.8264,128.2688 180.8264L127.5488 180.8264L127.5488 181.316C127.5776 182.7848,127.8656 183.3608,128.9888 183.9656C129.392 184.1672,129.4784 184.2248,129.4784 184.5128C129.4784 184.7144,129.42079999999999 184.8008,129.2768 184.916L129.1904 184.9448L125.2448 184.9448L121.328 184.9448L121.2416 184.916C121.0688 184.8008,121.04 184.7144,121.04 184.5128C121.04 184.2248,121.0688 184.1672,121.5008 183.9656C122.624 183.3608,122.912 182.7848,122.912 181.316L122.912 180.8264L119.6 180.8264C118.9952 180.88400000000001,118.5056 180.88400000000001,118.1024 180.88400000000001C116.288 180.88400000000001,116.2592 180.8264,116.2304 180.8264C116.0576 180.7688,116 180.596,116 180.3944C116 180.3944,116 180.3944,116 180.3944C116 180.1928,116 180.1928,116.576 179.5304C118.9952 176.5928,120.6944 172.3304,120.6944 168.93200000000002C120.6944 168.4136,120.7808 168.2408,121.0112 168.1544M122.7392 186.5288L122.768 186.5288L122.6816 186.5288L122.7392 186.5288M122.7392 167.1176L122.768 167.1176L122.6816 167.1176L122.7392 167.1176"></path><path stroke-width="0.3" fill="#000000" stroke="none" stroke-dasharray="none" d="M116 206.5M121.0112 188.1544C121.04 188.1256,121.4432 188.1256,122.6816 188.1256C123.056 188.1256,123.4592 188.1256,123.9776 188.1256L126.8864 188.1256L126.9728 188.212C127.1168 188.29840000000002,127.2032 188.4424,127.2032 188.5576C127.2032 188.7304,127.1168 188.8456,127.0016 188.9608C126.9728 189.0472,126.7136 189.2776,126.5408 189.5368L125.0144 191.2936L123.056 193.5112L122.0192 194.692L120.464 196.4776L118.4192 198.8104C118.0736 199.2424,117.6992 199.588,117.6992 199.588C117.6992 199.588,117.6992 199.588,117.6992 199.588C117.6992 199.6456,117.9584 199.6456,120.3488 199.6456L122.9696 199.6456L122.9696 197.7736C122.9696 195.8728,122.9696 195.844,122.9984 195.8152C123.056 195.7288,123.3152 195.412,124.3232 194.2312L124.7264 193.7992L125.1296 193.3672L125.7344 192.5896L126.368 191.9272L126.6848 191.524C126.8 191.3512,126.9728 191.3224,127.1168 191.3224C127.28960000000001 191.3224,127.4336 191.4088,127.52 191.5528C127.5488 191.6392,127.5488 191.6968,127.5488 193.828C127.5488 194.3176,127.5488 194.9224,127.5488 195.6424L127.5488 199.6456L128.2688 199.6456C128.9312 199.6456,128.96 199.6456,129.0464 199.6744C129.2768 199.7608,129.392 199.9912,129.392 200.2504C129.392 200.3944,129.3632 200.5672,129.248 200.6824C129.0752 200.8264,129.0464 200.8264,128.2688 200.8264L127.5488 200.8264L127.5488 201.316C127.5776 202.7848,127.8656 203.3608,128.9888 203.9656C129.392 204.1672,129.4784 204.2248,129.4784 204.5128C129.4784 204.7144,129.42079999999999 204.8008,129.2768 204.916L129.1904 204.9448L125.2448 204.9448L121.328 204.9448L121.2416 204.916C121.0688 204.8008,121.04 204.7144,121.04 204.5128C121.04 204.2248,121.0688 204.1672,121.5008 203.9656C122.624 203.3608,122.912 202.7848,122.912 201.316L122.912 200.8264L119.6 200.8264C118.9952 200.88400000000001,118.5056 200.88400000000001,118.1024 200.88400000000001C116.288 200.88400000000001,116.2592 200.8264,116.2304 200.8264C116.0576 200.7688,116 200.596,116 200.3944C116 200.3944,116 200.3944,116 200.3944C116 200.1928,116 200.1928,116.576 199.5304C118.9952 196.5928,120.6944 192.3304,120.6944 188.93200000000002C120.6944 188.4136,120.7808 188.2408,121.0112 188.1544M122.7392 206.5288L122.768 206.5288L122.6816 206.5288L122.7392 206.5288M122.7392 187.1176L122.768 187.1176L122.6816 187.1176L122.7392 187.1176"></path><g class="vf-stavenote" id="vf-auto1542120"><g class="vf-note" pointer-events="bounding-box"><g class="vf-stem" pointer-events="bounding-box"><path stroke-width="1.5" fill="none" stroke="#000000" stroke-dasharray="none" class="vf-stem" id="vf-auto1542120-stem" d="M142.2284 186.5L142.2284 221.5"></path></g><g class="vf-notehead" pointer-events="bounding-box"><path stroke-width="0.3" fill="#000000" stroke="none" stroke-dasharray="none" d="M141.4784 186.5M148.83535999999998 181.27712C148.94768 181.27712,149.11615999999998 181.27712,149.14424 181.27712C149.14424 181.27712,149.17231999999998 181.27712,149.17231999999998 181.27712C149.17231999999998 181.27712,149.3408 181.27712,149.4812 181.27712C152.0084 181.41752,153.49663999999999 183.07424,153.49663999999999 185.15216C153.49663999999999 186.16304,153.15967999999998 187.31432,152.31727999999998 188.40944C150.71671999999998 190.5716,148.10528 191.75096,145.83079999999998 191.75096C144.06176 191.75096,142.54543999999999 191.04896,141.81536 189.61688C141.59072 189.05528,141.4784 188.52176,141.4784 187.93208C141.4784 184.87136,144.90416 181.47368,148.83535999999998 181.27712"></path></g></g><g class="vf-modifiers"></g></g><g class="vf-stavenote" id="vf-auto1542128"><g class="vf-note" pointer-events="bounding-box"><g class="vf-stem" pointer-events="bounding-box"><path stroke-width="1.5" fill="none" stroke="#000000" stroke-dasharray="none" class="vf-stem" id="vf-auto1542128-stem" d="M233.00743999999997 211.5L233.00743999999997 176.5"></path></g><g class="vf-notehead" pointer-events="bounding-box"><path stroke-width="0.3" fill="#000000" stroke="none" stroke-dasharray="none" d="M221.73919999999998 211.5M229.09615999999997 206.27712C229.20847999999998 206.27712,229.37696 206.27712,229.40503999999999 206.27712C229.40503999999999 206.27712,229.43311999999997 206.27712,229.43311999999997 206.27712C229.43311999999997 206.27712,229.6016 206.27712,229.742 206.27712C232.26919999999998 206.41752,233.75743999999997 208.07424,233.75743999999997 210.15216C233.75743999999997 211.16304,233.42048 212.31432,232.57807999999997 213.40944C230.97751999999997 215.5716,228.36607999999998 216.75096,226.09159999999997 216.75096C224.32255999999998 216.75096,222.80623999999997 216.04896,222.07616 214.61688C221.85152 214.05528,221.73919999999998 213.52176,221.73919999999998 212.93208C221.73919999999998 209.87136,225.16495999999998 206.47368,229.09615999999997 206.27712"></path></g></g><g class="vf-modifiers"></g></g><path stroke-width="1" fill="none" stroke="#000000" stroke-dasharray="none" d="M300.14522239999997 166.5L452.5120447999999 166.5"></path><path stroke-width="1" fill="none" stroke="#000000" stroke-dasharray="none" d="M300.14522239999997 176.5L452.5120447999999 176.5"></path><path stroke-width="1" fill="none" stroke="#000000" stroke-dasharray="none" d="M300.14522239999997 186.5L452.5120447999999 186.5"></path><path stroke-width="1" fill="none" stroke="#000000" stroke-dasharray="none" d="M300.14522239999997 196.5L452.5120447999999 196.5"></path><path stroke-width="1" fill="none" stroke="#000000" stroke-dasharray="none" d="M300.14522239999997 206.5L452.5120447999999 206.5"></path><rect stroke-width="0.3" fill="#000000" stroke="#000000" stroke-dasharray="none" x="452.5120447999999" y="166" width="1" height="41"></rect><g class="vf-stavenote" id="vf-auto1542158"><g class="vf-note" pointer-events="bounding-box"><g class="vf-stem" pointer-events="bounding-box"><path stroke-width="1.5" fill="none" stroke="#000000" stroke-dasharray="none" class="vf-stem" id="vf-auto1542158-stem" d="M317.89522239999997 186.5L317.89522239999997 221.5"></path></g><g class="vf-notehead" pointer-events="bounding-box"><path stroke-width="0.3" fill="#000000" stroke="none" stroke-dasharray="none" d="M317.14522239999997 186.5M324.5021824 181.27712C324.6145024 181.27712,324.7829824 181.27712,324.81106239999997 181.27712C324.81106239999997 181.27712,324.83914239999996 181.27712,324.83914239999996 181.27712C324.83914239999996 181.27712,325.00762239999995 181.27712,325.14802239999995 181.27712C327.67522239999994 181.41752,329.16346239999996 183.07424,329.16346239999996 185.15216C329.16346239999996 186.16304,328.8265024 187.31432,327.9841024 188.40944C326.38354239999995 190.5716,323.7721024 191.75096,321.49762239999995 191.75096C319.7285824 191.75096,318.2122624 191.04896,317.48218239999994 189.61688C317.2575424 189.05528,317.14522239999997 188.52176,317.14522239999997 187.93208C317.14522239999997 184.87136,320.5709824 181.47368,324.5021824 181.27712"></path></g></g><g class="vf-modifiers"></g></g><g class="vf-stavenote" id="vf-auto1542166"><g class="vf-note" pointer-events="bounding-box"><g class="vf-stem" pointer-events="bounding-box"><path stroke-width="1.5" fill="none" stroke="#000000" stroke-dasharray="none" class="vf-stem" id="vf-auto1542166-stem" d="M352.14522239999997 181.5L352.14522239999997 216.5"></path></g><g class="vf-notehead" pointer-events="bounding-box"><path stroke-width="0.3" fill="#000000" stroke="none" stroke-dasharray="none" d="M351.39522239999997 181.5M358.7521824 176.27712C358.8645024 176.27712,359.0329824 176.27712,359.06106239999997 176.27712C359.06106239999997 176.27712,359.08914239999996 176.27712,359.08914239999996 176.27712C359.08914239999996 176.27712,359.25762239999995 176.27712,359.39802239999995 176.27712C361.92522239999994 176.41752,363.41346239999996 178.07424,363.41346239999996 180.15216C363.41346239999996 181.16304,363.0765024 182.31432,362.2341024 183.40944C360.63354239999995 185.5716,358.0221024 186.75096,355.74762239999995 186.75096C353.9785824 186.75096,352.4622624 186.04896,351.73218239999994 184.61688C351.5075424 184.05528,351.39522239999997 183.52176,351.39522239999997 182.93208C351.39522239999997 179.87136,354.8209824 176.47368,358.7521824 176.27712"></path></g></g><g class="vf-modifiers"></g></g><g class="vf-stavenote" id="vf-auto1542174"><g class="vf-note" pointer-events="bounding-box"><g class="vf-stem" pointer-events="bounding-box"><path stroke-width="1.5" fill="none" stroke="#000000" stroke-dasharray="none" class="vf-stem" id="vf-auto1542174-stem" d="M386.39522239999997 166.5L386.39522239999997 201.5"></path></g><g class="vf-notehead" pointer-events="bounding-box"><path stroke-width="0.3" fill="#000000" stroke="none" stroke-dasharray="none" d="M385.64522239999997 166.5M393.0021824 161.27712C393.1145024 161.27712,393.2829824 161.27712,393.31106239999997 161.27712C393.31106239999997 161.27712,393.33914239999996 161.27712,393.33914239999996 161.27712C393.33914239999996 161.27712,393.50762239999995 161.27712,393.64802239999995 161.27712C396.17522239999994 161.41752,397.66346239999996 163.07424,397.66346239999996 165.15216C397.66346239999996 166.16304,397.3265024 167.31432,396.4841024 168.40944C394.88354239999995 170.5716,392.2721024 171.75096,389.99762239999995 171.75096C388.2285824 171.75096,386.7122624 171.04896,385.98218239999994 169.61688C385.7575424 169.05528,385.64522239999997 168.52176,385.64522239999997 167.93208C385.64522239999997 164.87136,389.0709824 161.47368,393.0021824 161.27712"></path></g></g><g class="vf-modifiers"></g></g><path stroke-width="1" fill="none" stroke="#000000" stroke-dasharray="none" d="M452.5120447999999 166.5L596.4788671999999 166.5"></path><path stroke-width="1" fill="none" stroke="#000000" stroke-dasharray="none" d="M452.5120447999999 176.5L596.4788671999999 176.5"></path><path stroke-width="1" fill="none" stroke="#000000" stroke-dasharray="none" d="M452.5120447999999 186.5L596.4788671999999 186.5"></path><path stroke-width="1" fill="none" stroke="#000000" stroke-dasharray="none" d="M452.5120447999999 196.5L596.4788671999999 196.5"></path><path stroke-width="1" fill="none" stroke="#000000" stroke-dasharray="none" d="M452.5120447999999 206.5L596.4788671999999 206.5"></path><rect stroke-width="0.3" fill="#000000" stroke="#000000" stroke-dasharray="none" x="596.4788671999999" y="166" width="1" height="41"></rect><g class="vf-stavenote" id="vf-auto1542195"><g class="vf-note" pointer-events="bounding-box"><g class="vf-stem" pointer-events="bounding-box"><path stroke-width="1.5" fill="none" stroke="#000000" stroke-dasharray="none" class="vf-stem" id="vf-auto1542195-stem" d="M576.7802847999999 196.5L576.7802847999999 161.5"></path></g><g class="vf-notehead" pointer-events="bounding-box"><path stroke-width="0.3" fill="#000000" stroke="none" stroke-dasharray="none" d="M565.5120447999999 196.5M572.8690047999999 191.27712C572.9813247999999 191.27712,573.1498047999999 191.27712,573.1778847999999 191.27712C573.1778847999999 191.27712,573.2059648 191.27712,573.2059648 191.27712C573.2059648 191.27712,573.3744447999999 191.27712,573.5148447999999 191.27712C576.0420447999999 191.41752,577.5302847999999 193.07424,577.5302847999999 195.15216C577.5302847999999 196.16304,577.1933247999999 197.31432,576.3509247999999 198.40944C574.7503647999999 200.5716,572.1389247999999 201.75096,569.8644447999999 201.75096C568.0954047999999 201.75096,566.5790847999999 201.04896,565.8490047999999 199.61688C565.6243647999999 199.05528,565.5120447999999 198.52176,565.5120447999999 197.93208C565.5120447999999 194.87136,568.9378047999999 191.47368,572.8690047999999 191.27712"></path></g></g><g class="vf-modifiers"></g></g><path stroke-width="1" fill="none" stroke="#000000" stroke-dasharray="none" d="M596.4788671999999 166.5L750.4456895999998 166.5"></path><path stroke-width="1" fill="none" stroke="#000000" stroke-dasharray="none" d="M596.4788671999999 176.5L750.4456895999998 176.5"></path><path stroke-width="1" fill="none" stroke="#000000" stroke-dasharray="none" d="M596.4788671999999 186.5L750.4456895999998 186.5"></path><path stroke-width="1" fill="none" stroke="#000000" stroke-dasharray="none" d="M596.4788671999999 196.5L750.4456895999998 196.5"></path><path stroke-width="1" fill="none" stroke="#000000" stroke-dasharray="none" d="M596.4788671999999 206.5L750.4456895999998 206.5"></path><rect stroke-width="0.3" fill="#000000" stroke="#000000" stroke-dasharray="none" x="745.4456895999998" y="166" width="1" height="41"></rect><rect stroke-width="0.3" fill="#000000" stroke="#000000" stroke-dasharray="none" x="748.4456895999998" y="166" width="3" height="41"></rect><path stroke-width="0.3" fill="#000000" stroke="none" stroke-dasharray="none" d="M744.4456895999998 182 A2 2 0 0 0 740.4456895999998 182M740.4456895999998 182 A2 2 0 0 0 744.4456895999998 182"></path><path stroke-width="0.3" fill="#000000" stroke="none" stroke-dasharray="none" d="M744.4456895999998 192 A2 2 0 0 0 740.4456895999998 192M740.4456895999998 192 A2 2 0 0 0 744.4456895999998 192"></path><g class="vf-stavenote" id="vf-auto1542232"><g class="vf-note" pointer-events="bounding-box"><g class="vf-stem" pointer-events="bounding-box"><path stroke-width="1.5" fill="none" stroke="#000000" stroke-dasharray="none" class="vf-stem" id="vf-auto1542232-stem" d="M624.7471071999998 196.5L624.7471071999998 161.5"></path></g><g class="vf-notehead" pointer-events="bounding-box"><path stroke-width="0.3" fill="#000000" stroke="none" stroke-dasharray="none" d="M613.4788671999999 196.5M620.8358271999998 191.27712C620.9481471999999 191.27712,621.1166271999998 191.27712,621.1447071999999 191.27712C621.1447071999999 191.27712,621.1727871999999 191.27712,621.1727871999999 191.27712C621.1727871999999 191.27712,621.3412671999998 191.27712,621.4816671999998 191.27712C624.0088671999998 191.41752,625.4971071999998 193.07424,625.4971071999998 195.15216C625.4971071999998 196.16304,625.1601471999999 197.31432,624.3177471999999 198.40944C622.7171871999999 200.5716,620.1057471999999 201.75096,617.8312671999998 201.75096C616.0622271999998 201.75096,614.5459071999999 201.04896,613.8158271999998 199.61688C613.5911871999998 199.05528,613.4788671999999 198.52176,613.4788671999999 197.93208C613.4788671999999 194.87136,616.9046271999998 191.47368,620.8358271999998 191.27712"></path></g></g><g class="vf-modifiers"></g></g><g class="vf-text"><text stroke-width="0.3" fill="#000000" stroke="none" stroke-dasharray="none" font-family="Times New Roman" font-size="23px" font-weight="bold" font-style="italic" x="141.48752" y="243.3">p</text></g><path stroke-width="1" fill="none" stroke="#000000" stroke-dasharray="none" d="M70 258.09999999999997L300.14522239999997 258.09999999999997"></path><path stroke-width="1" fill="none" stroke="#000000" stroke-dasharray="none" d="M70 268.09999999999997L300.14522239999997 268.09999999999997"></path><path stroke-width="1" fill="none" stroke="#000000" stroke-dasharray="none" d="M70 278.09999999999997L300.14522239999997 278.09999999999997"></path><path stroke-width="1" fill="none" stroke="#000000" stroke-dasharray="none" d="M70 288.09999999999997L300.14522239999997 288.09999999999997"></path><path stroke-width="1" fill="none" stroke="#000000" stroke-dasharray="none" d="M70 298.09999999999997L300.14522239999997 298.09999999999997"></path><rect stroke-width="0.3" fill="#000000" stroke="#000000" stroke-dasharray="none" x="300.14522239999997" y="257.59999999999997" width="1" height="41"></rect><g class="vf-clef"><path stroke-width="0.3" fill="#000000" stroke="none" stroke-dasharray="none" d="M75 268.09999999999997M83.8416 258.04879999999997C84.072 257.9912,84.3024 257.9912,84.5616 257.9912C85.5696 257.9912,86.7504 258.10639999999995,87.7584 258.308C92.4816 259.2872,95.736 262.484,96.3408 266.7464C96.3984 267.20719999999994,96.4272 267.63919999999996,96.4272 268.09999999999997C96.4272 270.69199999999995,95.5344 274.03279999999995,94.008 276.8264C90.3792 283.39279999999997,83.7552 288.116,75.8064 289.84399999999994C75.6624 289.84399999999994,75.5472 289.8728,75.4032 289.8728C75.1152 289.8728,74.9712 289.7,74.9712 289.44079999999997C74.9712 289.15279999999996,75.0288 289.0664,75.6048 288.83599999999996C84.7056 285.4088,90.7824 278.00719999999995,91.3296 269.71279999999996C91.3584 269.28079999999994,91.3584 268.79119999999995,91.3584 268.41679999999997C91.3584 264.3848,90.12 261.3896,87.7296 259.89199999999994C86.6928 259.22959999999995,85.5696 258.91279999999995,84.36 258.91279999999995C81.6816 258.91279999999995,78.9456 260.43919999999997,77.6784 263.00239999999997C77.6208 263.20399999999995,77.4192 263.63599999999997,77.4192 263.66479999999996C77.4192 263.66479999999996,77.4192 263.66479999999996,77.4192 263.66479999999996C77.4192 263.66479999999996,77.448 263.63599999999997,77.5344 263.6072C78.168 263.20399999999995,78.8592 263.00239999999997,79.5792 263.00239999999997C80.5872 263.00239999999997,81.6528 263.4344,82.4016 264.2408C83.0928 264.98959999999994,83.4672 265.9976,83.4672 266.9192C83.4672 268.79119999999995,82.0848 270.69199999999995,79.9248 270.8936C79.7808 270.8936,79.6368 270.9224,79.4928 270.9224C77.1024 270.9224,75.1728 268.73359999999997,75.1728 265.9688C75.1728 265.91119999999995,75.1728 265.8248,75.1728 265.796C75.288 261.6776,79.0608 258.308,83.8416 258.04879999999997M99.1632 261.90799999999996C99.2208 261.87919999999997,99.2496 261.87919999999997,99.336 261.87919999999997C99.5376 261.87919999999997,99.768 261.90799999999996,99.8256 261.9656C100.54560000000001 262.1672,100.8912 262.8008,100.8912 263.4056C100.8912 263.924,100.632 264.44239999999996,100.11359999999999 264.7304C99.912 264.8744,99.6528 264.90319999999997,99.39359999999999 264.90319999999997C98.9904 264.90319999999997,98.5584 264.7304,98.2704 264.356C98.03999999999999 264.068,97.9248 263.7512,97.9248 263.4344C97.9248 262.71439999999996,98.3856 261.9944,99.1632 261.90799999999996M99.1632 271.32559999999995C99.2208 271.32559999999995,99.2496 271.32559999999995,99.336 271.32559999999995C99.5376 271.32559999999995,99.768 271.35439999999994,99.8256 271.412C100.54560000000001 271.61359999999996,100.8912 272.24719999999996,100.8912 272.852C100.8912 273.37039999999996,100.632 273.88879999999995,100.11359999999999 274.14799999999997C99.912 274.292,99.6528 274.34959999999995,99.39359999999999 274.34959999999995C98.9904 274.34959999999995,98.5584 274.14799999999997,98.2704 273.8024C98.03999999999999 273.51439999999997,97.9248 273.19759999999997,97.9248 272.852C97.9248 272.13199999999995,98.3856 271.44079999999997,99.1632 271.32559999999995"></path></g><path stroke-width="0.3" fill="#000000" stroke="none" stroke-dasharray="none" d="M116 278.09999999999997M121.0112 259.7544C121.04 259.7256,121.4432 259.7256,122.6816 259.7256C123.056 259.7256,123.4592 259.7256,123.9776 259.7256L126.8864 259.7256L126.9728 259.81199999999995C127.1168 259.8984,127.2032 260.0424,127.2032 260.15759999999995C127.2032 260.33039999999994,127.1168 260.44559999999996,127.0016 260.5608C126.9728 260.64719999999994,126.7136 260.8776,126.5408 261.1368L125.0144 262.8936L123.056 265.11119999999994L122.0192 266.292L120.464 268.07759999999996L118.4192 270.4104C118.0736 270.84239999999994,117.6992 271.188,117.6992 271.188C117.6992 271.188,117.6992 271.188,117.6992 271.188C117.6992 271.24559999999997,117.9584 271.24559999999997,120.3488 271.24559999999997L122.9696 271.24559999999997L122.9696 269.37359999999995C122.9696 267.47279999999995,122.9696 267.44399999999996,122.9984 267.41519999999997C123.056 267.32879999999994,123.3152 267.01199999999994,124.3232 265.83119999999997L124.7264 265.39919999999995L125.1296 264.9672L125.7344 264.1896L126.368 263.5272L126.6848 263.12399999999997C126.8 262.9512,126.9728 262.9224,127.1168 262.9224C127.28960000000001 262.9224,127.4336 263.00879999999995,127.52 263.15279999999996C127.5488 263.2392,127.5488 263.29679999999996,127.5488 265.42799999999994C127.5488 265.9176,127.5488 266.52239999999995,127.5488 267.2424L127.5488 271.24559999999997L128.2688 271.24559999999997C128.9312 271.24559999999997,128.96 271.24559999999997,129.0464 271.27439999999996C129.2768 271.3608,129.392 271.59119999999996,129.392 271.8504C129.392 271.9944,129.3632 272.1672,129.248 272.28239999999994C129.0752 272.42639999999994,129.0464 272.42639999999994,128.2688 272.42639999999994L127.5488 272.42639999999994L127.5488 272.91599999999994C127.5776 274.3848,127.8656 274.96079999999995,128.9888 275.56559999999996C129.392 275.76719999999995,129.4784 275.8248,129.4784 276.1128C129.4784 276.3144,129.42079999999999 276.40079999999995,129.2768 276.51599999999996L129.1904 276.54479999999995L125.2448 276.54479999999995L121.328 276.54479999999995L121.2416 276.51599999999996C121.0688 276.40079999999995,121.04 276.3144,121.04 276.1128C121.04 275.8248,121.0688 275.76719999999995,121.5008 275.56559999999996C122.624 274.96079999999995,122.912 274.3848,122.912 272.91599999999994L122.912 272.42639999999994L119.6 272.42639999999994C118.9952 272.484,118.5056 272.484,118.1024 272.484C116.288 272.484,116.2592 272.42639999999994,116.2304 272.42639999999994C116.0576 272.36879999999996,116 272.19599999999997,116 271.9944C116 271.9944,116 271.9944,116 271.9944C116 271.79279999999994,116 271.79279999999994,116.576 271.13039999999995C118.9952 268.1928,120.6944 263.93039999999996,120.6944 260.532C120.6944 260.01359999999994,120.7808 259.84079999999994,121.0112 259.7544M122.7392 278.12879999999996L122.768 278.12879999999996L122.6816 278.12879999999996L122.7392 278.12879999999996M122.7392 258.71759999999995L122.768 258.71759999999995L122.6816 258.71759999999995L122.7392 258.71759999999995"></path><path stroke-width="0.3" fill="#000000" stroke="none" stroke-dasharray="none" d="M116 298.09999999999997M121.0112 279.7544C121.04 279.7256,121.4432 279.7256,122.6816 279.7256C123.056 279.7256,123.4592 279.7256,123.9776 279.7256L126.8864 279.7256L126.9728 279.81199999999995C127.1168 279.8984,127.2032 280.0424,127.2032 280.15759999999995C127.2032 280.33039999999994,127.1168 280.44559999999996,127.0016 280.5608C126.9728 280.64719999999994,126.7136 280.8776,126.5408 281.1368L125.0144 282.8936L123.056 285.11119999999994L122.0192 286.292L120.464 288.07759999999996L118.4192 290.4104C118.0736 290.84239999999994,117.6992 291.188,117.6992 291.188C117.6992 291.188,117.6992 291.188,117.6992 291.188C117.6992 291.24559999999997,117.9584 291.24559999999997,120.3488 291.24559999999997L122.9696 291.24559999999997L122.9696 289.37359999999995C122.9696 287.47279999999995,122.9696 287.44399999999996,122.9984 287.41519999999997C123.056 287.32879999999994,123.3152 287.01199999999994,124.3232 285.83119999999997L124.7264 285.39919999999995L125.1296 284.9672L125.7344 284.1896L126.368 283.5272L126.6848 283.12399999999997C126.8 282.9512,126.9728 282.9224,127.1168 282.9224C127.28960000000001 282.9224,127.4336 283.00879999999995,127.52 283.15279999999996C127.5488 283.2392,127.5488 283.29679999999996,127.5488 285.42799999999994C127.5488 285.9176,127.5488 286.52239999999995,127.5488 287.2424L127.5488 291.24559999999997L128.2688 291.24559999999997C128.9312 291.24559999999997,128.96 291.24559999999997,129.0464 291.27439999999996C129.2768 291.3608,129.392 291.59119999999996,129.392 291.8504C129.392 291.9944,129.3632 292.1672,129.248 292.28239999999994C129.0752 292.42639999999994,129.0464 292.42639999999994,128.2688 292.42639999999994L127.5488 292.42639999999994L127.5488 292.91599999999994C127.5776 294.3848,127.8656 294.96079999999995,128.9888 295.56559999999996C129.392 295.76719999999995,129.4784 295.8248,129.4784 296.1128C129.4784 296.3144,129.42079999999999 296.40079999999995,129.2768 296.51599999999996L129.1904 296.54479999999995L125.2448 296.54479999999995L121.328 296.54479999999995L121.2416 296.51599999999996C121.0688 296.40079999999995,121.04 296.3144,121.04 296.1128C121.04 295.8248,121.0688 295.76719999999995,121.5008 295.56559999999996C122.624 294.96079999999995,122.912 294.3848,122.912 292.91599999999994L122.912 292.42639999999994L119.6 292.42639999999994C118.9952 292.484,118.5056 292.484,118.1024 292.484C116.288 292.484,116.2592 292.42639999999994,116.2304 292.42639999999994C116.0576 292.36879999999996,116 292.19599999999997,116 291.9944C116 291.9944,116 291.9944,116 291.9944C116 291.79279999999994,116 291.79279999999994,116.576 291.13039999999995C118.9952 288.1928,120.6944 283.93039999999996,120.6944 280.532C120.6944 280.01359999999994,120.7808 279.84079999999994,121.0112 279.7544M122.7392 298.12879999999996L122.768 298.12879999999996L122.6816 298.12879999999996L122.7392 298.12879999999996M122.7392 278.71759999999995L122.768 278.71759999999995L122.6816 278.71759999999995L122.7392 278.71759999999995"></path><g class="vf-stavenote" id="vf-auto1542139"><g class="vf-note" pointer-events="bounding-box"><g class="vf-stem" pointer-events="bounding-box"><path stroke-width="1.5" fill="none" stroke="#000000" stroke-dasharray="none" class="vf-stem" id="vf-auto1542139-stem" d="M182.3588 258.09999999999997L182.3588 293.09999999999997"></path></g><g class="vf-notehead" pointer-events="bounding-box"><path stroke-width="0.3" fill="#000000" stroke="none" stroke-dasharray="none" d="M181.6088 258.09999999999997M188.96576 252.87711999999996C189.07808 252.87711999999996,189.24656 252.87711999999996,189.27464 252.87711999999996C189.27464 252.87711999999996,189.30272 252.87711999999996,189.30272 252.87711999999996C189.30272 252.87711999999996,189.4712 252.87711999999996,189.6116 252.87711999999996C192.1388 253.01751999999996,193.62704 254.67423999999997,193.62704 256.75215999999995C193.62704 257.76304,193.29008 258.91432,192.44768 260.00944C190.84712 262.17159999999996,188.23568 263.35096,185.9612 263.35096C184.19216 263.35096,182.67584 262.64896,181.94576 261.21687999999995C181.72112 260.65527999999995,181.6088 260.12175999999994,181.6088 259.53207999999995C181.6088 256.47135999999995,185.03456 253.07367999999997,188.96576 252.87711999999996"></path></g></g><g class="vf-modifiers"></g></g><g class="vf-stavenote" id="vf-auto1542147"><g class="vf-note" pointer-events="bounding-box"><g class="vf-stem" pointer-events="bounding-box"><path stroke-width="1.5" fill="none" stroke="#000000" stroke-dasharray="none" class="vf-stem" id="vf-auto1542147-stem" d="M262.6196 258.09999999999997L262.6196 293.09999999999997"></path></g><g class="vf-notehead" pointer-events="bounding-box"><path stroke-width="0.3" fill="#000000" stroke="none" stroke-dasharray="none" d="M261.8696 258.09999999999997M269.22656 252.87711999999996C269.33888 252.87711999999996,269.50736 252.87711999999996,269.53544 252.87711999999996C269.53544 252.87711999999996,269.56352 252.87711999999996,269.56352 252.87711999999996C269.56352 252.87711999999996,269.73199999999997 252.87711999999996,269.87239999999997 252.87711999999996C272.39959999999996 253.01751999999996,273.88784 254.67423999999997,273.88784 256.75215999999995C273.88784 257.76304,273.55088 258.91432,272.70848 260.00944C271.10792 262.17159999999996,268.49648 263.35096,266.222 263.35096C264.45296 263.35096,262.93664 262.64896,262.20655999999997 261.21687999999995C261.98192 260.65527999999995,261.8696 260.12175999999994,261.8696 259.53207999999995C261.8696 256.47135999999995,265.29536 253.07367999999997,269.22656 252.87711999999996"></path></g></g><g class="vf-modifiers"></g></g><rect stroke-width="0.3" fill="#000000" stroke="#000000" stroke-dasharray="none" x="300.14522239999997" y="166.5" width="1" height="132.59999999999997"></rect><rect stroke-width="0.3" fill="#000000" stroke="#000000" stroke-dasharray="none" x="70" y="166.5" width="1" height="132.59999999999997"></rect><path stroke-width="1" fill="none" stroke="#000000" stroke-dasharray="none" d="M300.14522239999997 258.09999999999997L452.5120447999999 258.09999999999997"></path><path stroke-width="1" fill="none" stroke="#000000" stroke-dasharray="none" d="M300.14522239999997 268.09999999999997L452.5120447999999 268.09999999999997"></path><path stroke-width="1" fill="none" stroke="#000000" stroke-dasharray="none" d="M300.14522239999997 278.09999999999997L452.5120447999999 278.09999999999997"></path><path stroke-width="1" fill="none" stroke="#000000" stroke-dasharray="none" d="M300.14522239999997 288.09999999999997L452.5120447999999 288.09999999999997"></path><path stroke-width="1" fill="none" stroke="#000000" stroke-dasharray="none" d="M300.14522239999997 298.09999999999997L452.5120447999999 298.09999999999997"></path><rect stroke-width="0.3" fill="#000000" stroke="#000000" stroke-dasharray="none" x="452.5120447999999" y="257.59999999999997" width="1" height="41"></rect><g class="vf-stavenote" id="vf-auto1542184"><g class="vf-note" pointer-events="bounding-box"><g class="vf-stem" pointer-events="bounding-box"><path stroke-width="1.5" fill="none" stroke="#000000" stroke-dasharray="none" class="vf-stem" id="vf-auto1542184-stem" d="M431.16346239999996 283.09999999999997L431.16346239999996 248.09999999999997"></path></g><g class="vf-notehead" pointer-events="bounding-box"><path stroke-width="0.3" fill="#000000" stroke="none" stroke-dasharray="none" d="M419.89522239999997 283.09999999999997M427.2521824 277.87712C427.3645024 277.87712,427.5329824 277.87712,427.56106239999997 277.87712C427.56106239999997 277.87712,427.58914239999996 277.87712,427.58914239999996 277.87712C427.58914239999996 277.87712,427.75762239999995 277.87712,427.89802239999995 277.87712C430.42522239999994 278.01752,431.91346239999996 279.67423999999994,431.91346239999996 281.75215999999995C431.91346239999996 282.76304,431.5765024 283.91432,430.7341024 285.00944C429.13354239999995 287.17159999999996,426.5221024 288.35096,424.24762239999995 288.35096C422.4785824 288.35096,420.9622624 287.64896,420.23218239999994 286.21687999999995C420.0075424 285.65527999999995,419.89522239999997 285.12175999999994,419.89522239999997 284.53207999999995C419.89522239999997 281.47135999999995,423.3209824 278.07367999999997,427.2521824 277.87712"></path></g></g><g class="vf-modifiers"></g></g><rect stroke-width="0.3" fill="#000000" stroke="#000000" stroke-dasharray="none" x="452.5120447999999" y="166.5" width="1" height="132.59999999999997"></rect><path stroke-width="1" fill="none" stroke="#000000" stroke-dasharray="none" d="M452.5120447999999 258.09999999999997L596.4788671999999 258.09999999999997"></path><path stroke-width="1" fill="none" stroke="#000000" stroke-dasharray="none" d="M452.5120447999999 268.09999999999997L596.4788671999999 268.09999999999997"></path><path stroke-width="1" fill="none" stroke="#000000" stroke-dasharray="none" d="M452.5120447999999 278.09999999999997L596.4788671999999 278.09999999999997"></path><path stroke-width="1" fill="none" stroke="#000000" stroke-dasharray="none" d="M452.5120447999999 288.09999999999997L596.4788671999999 288.09999999999997"></path><path stroke-width="1" fill="none" stroke="#000000" stroke-dasharray="none" d="M452.5120447999999 298.09999999999997L596.4788671999999 298.09999999999997"></path><rect stroke-width="0.3" fill="#000000" stroke="#000000" stroke-dasharray="none" x="596.4788671999999" y="257.59999999999997" width="1" height="41"></rect><g class="vf-stavenote" id="vf-auto1542206"><g class="vf-note" pointer-events="bounding-box"><g class="vf-stem" pointer-events="bounding-box"><path stroke-width="1.5" fill="none" stroke="#000000" stroke-dasharray="none" class="vf-stem" id="vf-auto1542206-stem" d="M470.2620447999999 253.09999999999997L470.2620447999999 288.09999999999997"></path></g><g class="vf-notehead" pointer-events="bounding-box"><path stroke-width="0.3" fill="#000000" stroke="none" stroke-dasharray="none" d="M469.5120447999999 253.09999999999997M476.8690047999999 247.87711999999996C476.9813247999999 247.87711999999996,477.1498047999999 247.87711999999996,477.1778847999999 247.87711999999996C477.1778847999999 247.87711999999996,477.2059647999999 247.87711999999996,477.2059647999999 247.87711999999996C477.2059647999999 247.87711999999996,477.3744447999999 247.87711999999996,477.5148447999999 247.87711999999996C480.04204479999987 248.01751999999996,481.5302847999999 249.67423999999997,481.5302847999999 251.75215999999998C481.5302847999999 252.76303999999996,481.1933247999999 253.91431999999998,480.3509247999999 255.00943999999996C478.7503647999999 257.17159999999996,476.1389247999999 258.35096,473.8644447999999 258.35096C472.0954047999999 258.35096,470.5790847999999 257.64896,469.8490047999999 256.21687999999995C469.6243647999999 255.65527999999998,469.5120447999999 255.12175999999997,469.5120447999999 254.53207999999998C469.5120447999999 251.47135999999998,472.9378047999999 248.07367999999997,476.8690047999999 247.87711999999996"></path></g></g><g class="vf-modifiers"></g></g><g class="vf-stavenote" id="vf-auto1542214"><g class="vf-note" pointer-events="bounding-box"><g class="vf-stem" pointer-events="bounding-box"><path stroke-width="1.5" fill="none" stroke="#000000" stroke-dasharray="none" class="vf-stem" id="vf-auto1542214-stem" d="M502.2620447999999 263.09999999999997L502.2620447999999 298.09999999999997"></path></g><g class="vf-notehead" pointer-events="bounding-box"><path stroke-width="0.3" fill="#000000" stroke="none" stroke-dasharray="none" d="M501.5120447999999 263.09999999999997M508.8690047999999 257.87712C508.9813247999999 257.87712,509.1498047999999 257.87712,509.1778847999999 257.87712C509.1778847999999 257.87712,509.2059647999999 257.87712,509.2059647999999 257.87712C509.2059647999999 257.87712,509.3744447999999 257.87712,509.5148447999999 257.87712C512.0420447999999 258.01752,513.5302847999999 259.67423999999994,513.5302847999999 261.75215999999995C513.5302847999999 262.76304,513.1933247999999 263.91432,512.3509247999999 265.00944C510.7503647999999 267.17159999999996,508.1389247999999 268.35096,505.8644447999999 268.35096C504.0954047999999 268.35096,502.5790847999999 267.64896,501.8490047999999 266.21687999999995C501.6243647999999 265.65527999999995,501.5120447999999 265.12175999999994,501.5120447999999 264.53207999999995C501.5120447999999 261.47135999999995,504.9378047999999 258.07367999999997,508.8690047999999 257.87712"></path></g></g><g class="vf-modifiers"></g></g><g class="vf-stavenote" id="vf-auto1542222"><g class="vf-note" pointer-events="bounding-box"><g class="vf-stem" pointer-events="bounding-box"><path stroke-width="1.5" fill="none" stroke="#000000" stroke-dasharray="none" class="vf-stem" id="vf-auto1542222-stem" d="M534.2620447999999 263.09999999999997L534.2620447999999 298.09999999999997"></path></g><g class="vf-notehead" pointer-events="bounding-box"><path stroke-width="0.3" fill="#000000" stroke="none" stroke-dasharray="none" d="M533.5120447999999 263.09999999999997M540.8690047999999 257.87712C540.9813247999999 257.87712,541.1498047999999 257.87712,541.1778847999999 257.87712C541.1778847999999 257.87712,541.2059648 257.87712,541.2059648 257.87712C541.2059648 257.87712,541.3744447999999 257.87712,541.5148447999999 257.87712C544.0420447999999 258.01752,545.5302847999999 259.67423999999994,545.5302847999999 261.75215999999995C545.5302847999999 262.76304,545.1933247999999 263.91432,544.3509247999999 265.00944C542.7503647999999 267.17159999999996,540.1389247999999 268.35096,537.8644447999999 268.35096C536.0954047999999 268.35096,534.5790847999999 267.64896,533.8490047999999 266.21687999999995C533.6243647999999 265.65527999999995,533.5120447999999 265.12175999999994,533.5120447999999 264.53207999999995C533.5120447999999 261.47135999999995,536.9378047999999 258.07367999999997,540.8690047999999 257.87712"></path></g></g><g class="vf-modifiers"></g></g><rect stroke-width="0.3" fill="#000000" stroke="#000000" stroke-dasharray="none" x="596.4788671999999" y="166.5" width="1" height="132.59999999999997"></rect><path stroke-width="1" fill="none" stroke="#000000" stroke-dasharray="none" d="M596.4788671999999 258.09999999999997L750.4456895999998 258.09999999999997"></path><path stroke-width="1" fill="none" stroke="#000000" stroke-dasharray="none" d="M596.4788671999999 268.09999999999997L750.4456895999998 268.09999999999997"></path><path stroke-width="1" fill="none" stroke="#000000" stroke-dasharray="none" d="M596.4788671999999 278.09999999999997L750.4456895999998 278.09999999999997"></path><path stroke-width="1" fill="none" stroke="#000000" stroke-dasharray="none" d="M596.4788671999999 288.09999999999997L750.4456895999998 288.09999999999997"></path><path stroke-width="1" fill="none" stroke="#000000" stroke-dasharray="none" d="M596.4788671999999 298.09999999999997L750.4456895999998 298.09999999999997"></path><rect stroke-width="0.3" fill="#000000" stroke="#000000" stroke-dasharray="none" x="745.4456895999998" y="257.59999999999997" width="1" height="41"></rect><rect stroke-width="0.3" fill="#000000" stroke="#000000" stroke-dasharray="none" x="748.4456895999998" y="257.59999999999997" width="3" height="41"></rect><path stroke-width="0.3" fill="#000000" stroke="none" stroke-dasharray="none" d="M744.4456895999998 273.59999999999997 A2 2 0 0 0 740.4456895999998 273.59999999999997M740.4456895999998 273.59999999999997 A2 2 0 0 0 744.4456895999998 273.59999999999997"></path><path stroke-width="0.3" fill="#000000" stroke="none" stroke-dasharray="none" d="M744.4456895999998 283.59999999999997 A2 2 0 0 0 740.4456895999998 283.59999999999997M740.4456895999998 283.59999999999997 A2 2 0 0 0 744.4456895999998 283.59999999999997"></path><g class="vf-stavenote" id="vf-auto1542243"><g class="vf-note" pointer-events="bounding-box"><g class="vf-stem" pointer-events="bounding-box"><path stroke-width="1.5" fill="none" stroke="#000000" stroke-dasharray="none" class="vf-stem" id="vf-auto1542243-stem" d="M648.7288671999999 258.09999999999997L648.7288671999999 293.09999999999997"></path></g><g class="vf-notehead" pointer-events="bounding-box"><path stroke-width="0.3" fill="#000000" stroke="none" stroke-dasharray="none" d="M647.9788671999999 258.09999999999997M655.3358271999998 252.87711999999996C655.4481471999999 252.87711999999996,655.6166271999998 252.87711999999996,655.6447071999999 252.87711999999996C655.6447071999999 252.87711999999996,655.6727871999999 252.87711999999996,655.6727871999999 252.87711999999996C655.6727871999999 252.87711999999996,655.8412671999998 252.87711999999996,655.9816671999998 252.87711999999996C658.5088671999998 253.01751999999996,659.9971071999998 254.67423999999997,659.9971071999998 256.75215999999995C659.9971071999998 257.76304,659.6601471999999 258.91432,658.8177471999999 260.00944C657.2171871999999 262.17159999999996,654.6057471999999 263.35096,652.3312671999998 263.35096C650.5622271999998 263.35096,649.0459071999999 262.64896,648.3158271999998 261.21687999999995C648.0911871999998 260.65527999999995,647.9788671999999 260.12175999999994,647.9788671999999 259.53207999999995C647.9788671999999 256.47135999999995,651.4046271999998 253.07367999999997,655.3358271999998 252.87711999999996"></path></g></g><g class="vf-modifiers"></g></g><g class="vf-stavenote" id="vf-auto1542251"><g class="vf-note" pointer-events="bounding-box"><g class="vf-stem" pointer-events="bounding-box"><path stroke-width="1.5" fill="none" stroke="#000000" stroke-dasharray="none" class="vf-stem" id="vf-auto1542251-stem" d="M683.2288671999999 253.09999999999997L683.2288671999999 288.09999999999997"></path></g><g class="vf-notehead" pointer-events="bounding-box"><path stroke-width="0.3" fill="#000000" stroke="none" stroke-dasharray="none" d="M682.4788671999999 253.09999999999997M689.8358271999998 247.87711999999996C689.9481471999999 247.87711999999996,690.1166271999998 247.87711999999996,690.1447071999999 247.87711999999996C690.1447071999999 247.87711999999996,690.1727871999999 247.87711999999996,690.1727871999999 247.87711999999996C690.1727871999999 247.87711999999996,690.3412671999998 247.87711999999996,690.4816671999998 247.87711999999996C693.0088671999998 248.01751999999996,694.4971071999998 249.67423999999997,694.4971071999998 251.75215999999998C694.4971071999998 252.76303999999996,694.1601471999999 253.91431999999998,693.3177471999999 255.00943999999996C691.7171871999999 257.17159999999996,689.1057471999999 258.35096,686.8312671999998 258.35096C685.0622271999998 258.35096,683.5459071999999 257.64896,682.8158271999998 256.21687999999995C682.5911871999998 255.65527999999998,682.4788671999999 255.12175999999997,682.4788671999999 254.53207999999998C682.4788671999999 251.47135999999998,685.9046271999998 248.07367999999997,689.8358271999998 247.87711999999996"></path></g></g><g class="vf-modifiers"></g></g><path stroke-width="1" fill="none" stroke="#000000" stroke-dasharray="none" d="M713.9788671999999 248.09999999999997L731.9971071999998 248.09999999999997"></path><g class="vf-stavenote" id="vf-auto1542259"><g class="vf-note" pointer-events="bounding-box"><g class="vf-stem" pointer-events="bounding-box"><path stroke-width="1.5" fill="none" stroke="#000000" stroke-dasharray="none" class="vf-stem" id="vf-auto1542259-stem" d="M717.7288671999999 248.09999999999997L717.7288671999999 283.09999999999997"></path></g><g class="vf-notehead" pointer-events="bounding-box"><path stroke-width="0.3" fill="#000000" stroke="none" stroke-dasharray="none" d="M716.9788671999999 248.09999999999997M724.3358271999998 242.87711999999996C724.4481471999999 242.87711999999996,724.6166271999998 242.87711999999996,724.6447071999999 242.87711999999996C724.6447071999999 242.87711999999996,724.6727871999999 242.87711999999996,724.6727871999999 242.87711999999996C724.6727871999999 242.87711999999996,724.8412671999998 242.87711999999996,724.9816671999998 242.87711999999996C727.5088671999998 243.01751999999996,728.9971071999998 244.67423999999997,728.9971071999998 246.75215999999998C728.9971071999998 247.76303999999996,728.6601471999999 248.91431999999998,727.8177471999999 250.00943999999996C726.2171871999999 252.17159999999996,723.6057471999999 253.35095999999996,721.3312671999998 253.35095999999996C719.5622271999998 253.35095999999996,718.0459071999999 252.64895999999996,717.3158271999998 251.21687999999997C717.0911871999998 250.65527999999998,716.9788671999999 250.12175999999997,716.9788671999999 249.53207999999998C716.9788671999999 246.47135999999998,720.4046271999998 243.07367999999997,724.3358271999998 242.87711999999996"></path></g></g><g class="vf-modifiers"></g></g><rect stroke-width="0.3" fill="#000000" stroke="#000000" stroke-dasharray="none" x="745.4456895999998" y="166.5" width="1" height="132.59999999999997"></rect><rect stroke-width="0.3" fill="#000000" stroke="#000000" stroke-dasharray="none" x="748.4456895999998" y="166.5" width="3" height="132.59999999999997"></rect><path stroke-width="0.3" fill="#000000" stroke="none" stroke-dasharray="none" d="M68 166.5C45.2 193.01999999999998,81.2 214.899,56 232.79999999999998C81.2 250.70099999999996,45.2 272.58,68 299.09999999999997C44 272.58,72.8 250.70099999999996,56 232.79999999999998C72.8 214.899,44 193.01999999999998,68 166.5"></path><path stroke-width="1" fill="none" stroke="#000000" stroke-dasharray="none" d="M68 166.5C45.2 193.01999999999998,81.2 214.899,56 232.79999999999998C81.2 250.70099999999996,45.2 272.58,68 299.09999999999997C44 272.58,72.8 250.70099999999996,56 232.79999999999998C72.8 214.899,44 193.01999999999998,68 166.5"></path><g class="vf-text"><text stroke-width="0.3" fill="#000000" stroke="none" stroke-dasharray="none" font-family="Times New Roman" font-size="15px" font-weight="normal" font-style="normal" x="449.0120447999999" y="163.5">3</text></g></svg>