<svg xmlns="http://www.w3.org/2000/svg"  width="1470" height="380.79999999999995" viewBox="0 0 1470 380.79999999999995"><path stroke-width="1" fill="none" stroke="#000000" stroke-dasharray="none" d="M70 166.5L291.74522239999993 166.5"></path><path stroke-width="1" fill="none" stroke="#000000" stroke-dasharray="none" d="M70 176.5L291.74522239999993 176.5"></path><path stroke-width="1" fill="none" stroke="#000000" stroke-dasharray="none" d="M70 186.5L291.74522239999993 186.5"></path><path stroke-width="1" fill="none" stroke="#000000" stroke-dasharray="none" d="M70 196.5L291.74522239999993 196.5"></path><path stroke-width="1" fill="none" stroke="#000000" stroke-dasharray="none" d="M70 206.5L291.74522239999993 206.5"></path><rect stroke-width="0.3" fill="#000000" stroke="#000000" stroke-dasharray="none" x="291.74522239999993" y="166" width="1" height="41"></rect><g class="vf-clef"><path stroke-width="0.3" fill="#000000" stroke="none" stroke-dasharray="none" d="M75 196.5M89.0544 153.3288C89.112 153.3,89.1696 153.3,89.256 153.3C89.6016 153.3,90.0048 153.588,90.5808 154.308C92.9136 156.9864,94.5552 161.652,94.5552 165.4536C94.5552 165.7416,94.4976 165.972,94.4976 166.26C94.2384 170.7816,92.3952 174.4968,88.7376 178.0104L87.7584 178.9608L87.4128 179.3352L87.4128 179.4504L87.6144 180.3144L87.9312 181.8696L88.248 183.3096C88.68 185.268,88.8528 186.276,88.8528 186.276C88.8528 186.276,88.8528 186.276,88.8528 186.276C88.8528 186.276,88.968 186.276,89.112 186.2472C89.256 186.2472,89.7168 186.1896,90.2064 186.1896C90.55199999999999 186.1896,90.8976 186.2472,91.0704 186.2472C95.1312 186.7656,98.2704 189.6744,99.1632 193.764C99.336 194.4264,99.39359999999999 195.1464,99.39359999999999 195.8664C99.39359999999999 199.7544,97.0608 203.4696,93.1728 205.2264C92.94239999999999 205.3704,92.856 205.3992,92.856 205.3992L92.856 205.428C92.856 205.428,93.0288 206.0904,93.1728 206.8392L93.6048 209.028L94.008 210.7848C94.2384 211.908,94.3536 212.7144,94.3536 213.4344C94.3536 214.06799999999998,94.2672 214.644,94.1232 215.3064C93.144 219.3096,89.6592 221.7,86.0304 221.7C84.2448 221.7,82.4016 221.124,80.7888 219.828C79.3488 218.6184,78.7152 217.524,78.7152 216.084C78.7152 213.5496,80.76 211.764,82.8912 211.764C83.64 211.764,84.3888 211.99439999999998,85.1088 212.4264C86.3184 213.2616,86.8656 214.5288,86.8656 215.7672C86.8656 217.668,85.5408 219.54,83.2656 219.684L83.0352 219.684L83.208 219.79919999999998C84.1584 220.2024,85.1088 220.404,86.0304 220.404C88.3632 220.404,90.55199999999999 219.2232,91.8768 217.1784C92.62559999999999 216.0264,93.0288 214.6728,93.0288 213.3192C93.0288 212.8008,92.94239999999999 212.2824,92.8272 211.7064C92.8272 211.6488,92.74080000000001 211.188,92.62559999999999 210.756C91.992 207.6456,91.6176 205.8312,91.6176 205.8312C91.6176 205.8312,91.6176 205.8312,91.6176 205.8312C91.56 205.8312,91.4448 205.8312,91.3584 205.8888C91.0704 205.9464,90.4656 206.0904,90.2064 206.1192C89.5728 206.2056,88.968 206.2344,88.392 206.2344C82.74719999999999 206.2344,77.5056 202.4328,75.6912 196.8168C75.2304 195.3192,74.9712 193.8216,74.9712 192.324C74.9712 189.3288,75.9216 186.3912,77.7648 183.7704C79.7808 180.9192,81.7968 178.4712,84.2736 175.9368L85.13759999999999 175.044L84.936 173.9784L84.5616 172.2216L84.072 169.9752C83.928 169.14,83.7552 168.3336,83.7264 168.1608C83.5824 167.2104,83.496 166.2888,83.496 165.3384C83.496 161.7096,84.6768 158.22480000000002,86.8944 155.4312C87.5568 154.5672,88.7376 153.4152,89.0544 153.3288M90.8112 159.0312C90.7536 159.0312,90.6672 159.0312,90.5808 159.0312C89.4 159.0312,87.8736 160.1256,86.8368 161.7384C85.7712 163.32240000000002,85.224 165.4248,85.224 167.5848C85.224 168.1608,85.25280000000001 168.7656,85.3392 169.3704C85.4256 169.8024,85.45439999999999 170.0904,85.6848 171.12720000000002L86.088 172.9416C86.2032 173.4888,86.28960000000001 173.92079999999999,86.28960000000001 173.9784L86.28960000000001 173.9784C86.3184 173.9784,87.2112 172.9992,87.4992 172.6536C90.3792 169.3992,92.1072 165.972,92.4816 162.948C92.5104 162.66,92.5104 162.4296,92.5104 162.1416C92.5104 161.24880000000002,92.3952 160.38479999999998,92.1936 159.924C91.9632 159.4632,91.4448 159.0888,90.8112 159.0312M86.4624 181.2936C86.4048 180.8904,86.3184 180.5736,86.3184 180.516C86.3184 180.516,86.3184 180.516,86.28960000000001 180.516C86.232 180.516,84.9936 181.956,84.1296 182.964C82.6608 184.7496,81.1056 186.8808,80.472 187.9176C79.2624 189.9624,78.6576 192.2376,78.6576 194.484C78.6576 195.9528,78.9456 197.364,79.464 198.7176C81.0192 202.7208,84.5904 205.2264,88.4784 205.2264C88.9392 205.2264,89.4576 205.1976,89.9472 205.1112C90.5808 204.996,91.3584 204.7656,91.3584 204.6792L91.3584 204.6792C91.3584 204.6792,91.3008 204.3912,91.2144 204.0744L90.3792 199.956L89.7168 196.8744L89.2848 194.7432L88.824 192.6696C88.5936 191.4312,88.5072 191.1144,88.5072 191.1144C88.5072 191.1144,88.5072 191.0856,88.4784 191.0856C88.3056 191.0856,87.384 191.5464,86.9808 191.8344C85.4832 192.8712,84.7056 194.5128,84.7056 196.1256C84.7056 197.652,85.45439999999999 199.1784,86.8944 200.0712C87.2112 200.2728,87.3264 200.4456,87.3264 200.6472C87.3264 200.676,87.3264 200.7624,87.3264 200.7912C87.2688 201.1368,87.0672 201.2808,86.7792 201.2808C86.664 201.2808,86.52 201.252,86.3472 201.1656C83.6976 200.0136,81.912 197.2776,81.912 194.2824L81.912 194.2824C81.912 190.8264,84.072 187.8312,87.384 186.6504L87.5568 186.5928L87.2688 185.1528L86.4624 181.2936M90.7824 190.9128C90.55199999999999 190.88400000000001,90.3216 190.88400000000001,90.1488 190.88400000000001C90.0912 190.88400000000001,90.0048 190.88400000000001,89.9472 190.88400000000001L89.8032 190.88400000000001L89.9184 191.4024L90.5232 194.2248L90.8976 196.068L91.3008 197.8824L92.1072 201.8856L92.424 203.412C92.5392 203.8152,92.5968 204.1608,92.62559999999999 204.1608C92.62559999999999 204.1608,92.62559999999999 204.1608,92.62559999999999 204.1608C92.6544 204.1608,93.144 203.8728,93.4608 203.6424C94.9296 202.6056,96.024 200.9928,96.4272 199.3224C96.5712 198.7752,96.6288 198.1992,96.6288 197.652C96.6288 194.3112,94.152 191.2872,90.7824 190.9128"></path></g><path stroke-width="0.3" fill="#000000" stroke="none" stroke-dasharray="none" d="M116 186.5M121.0112 168.1544C121.04 168.1256,121.4432 168.1256,122.6816 168.1256C123.056 168.1256,123.4592 168.1256,123.9776 168.1256L126.8864 168.1256L126.9728 168.212C127.1168 168.29840000000002,127.2032 168.4424,127.2032 168.5576C127.2032 168.7304,127.1168 168.8456,127.0016 168.9608C126.9728 169.0472,126.7136 169.2776,126.5408 169.5368L125.0144 171.2936L123.056 173.5112L122.0192 174.692L120.464 176.4776L118.4192 178.8104C118.0736 179.2424,117.6992 179.588,117.6992 179.588C117.6992 179.588,117.6992 179.588,117.6992 179.588C117.6992 179.6456,117.9584 179.6456,120.3488 179.6456L122.9696 179.6456L122.9696 177.7736C122.9696 175.8728,122.9696 175.844,122.9984 175.8152C123.056 175.7288,123.3152 175.412,124.3232 174.2312L124.7264 173.7992L125.1296 173.3672L125.7344 172.5896L126.368 171.9272L126.6848 171.524C126.8 171.3512,126.9728 171.3224,127.1168 171.3224C127.28960000000001 171.3224,127.4336 171.4088,127.52 171.5528C127.5488 171.6392,127.5488 171.6968,127.5488 173.828C127.5488 174.3176,127.5488 174.9224,127.5488 175.6424L127.5488 179.6456L128.2688 179.6456C128.9312 179.6456,128.96 179.6456,129.0464 179.6744C129.2768 179.7608,129.392 179.9912,129.392 180.2504C129.392 180.3944,129.3632 180.5672,129.248 180.6824C129.0752 180.8264,129.0464 180.8264,128.2688 180.8264L127.5488 180.8264L127.5488 181.316C127.5776 182.7848,127.8656 183.3608,128.9888 183.9656C129.392 184.1672,129.4784 184.2248,129.4784 184.5128C129.4784 184.7144,129.42079999999999 184.8008,129.2768 184.916L129.1904 184.9448L125.2448 184.9448L121.328 184.9448L121.2416 184.916C121.0688 184.8008,121.04 184.7144,121.04 184.5128C121.04 184.2248,121.0688 184.1672,121.5008 183.9656C122.624 183.3608,122.912 182.7848,122.912 181.316L122.912 180.8264L119.6 180.8264C118.9952 180.88400000000001,118.5056 180.88400000000001,118.1024 180.88400000000001C116.288 180.88400000000001,116.2592 180.8264,116.2304 180.8264C116.0576 180.7688,116 180.596,116 180.3944C116 180.3944,116 180.3944,116 180.3944C116 180.1928,116 180.1928,116.576 179.5304C118.9952 176.5928,120.6944 172.3304,120.6944 168.93200000000002C120.6944 168.4136,120.7808 168.2408,121.0112 168.1544M122.7392 186.5288L122.768 186.5288L122.6816 186.5288L122.7392 186.5288M122.7392 167.1176L122.768 167.1176L122.6816 167.1176L122.7392 167.1176"></path><path stroke-width="0.3" fill="#000000" stroke="none" stroke-dasharray="none" d="M116 206.5M121.0112 188.1544C121.04 188.1256,121.4432 188.1256,122.6816 188.1256C123.056 188.1256,123.4592 188.1256,123.9776 188.1256L126.8864 188.1256L126.9728 188.212C127.1168 188.29840000000002,127.2032 188.4424,127.2032 188.5576C127.2032 188.7304,127.1168 188.8456,127.0016 188.9608C126.9728 189.0472,126.7136 189.2776,126.5408 189.5368L125.0144 191.2936L123.056 193.5112L122.0192 194.692L120.464 196.4776L118.4192 198.8104C118.0736 199.2424,117.6992 199.588,117.6992 199.588C117.6992 199.588,117.6992 199.588,117.6992 199.588C117.6992 199.6456,117.9584 199.6456,120.3488 199.6456L122.9696 199.6456L122.9696 197.7736C122.9696 195.8728,122.9696 195.844,122.9984 195.8152C123.056 195.7288,123.3152 195.412,124.3232 194.2312L124.7264 193.7992L125.1296 193.3672L125.7344 192.5896L126.368 191.9272L126.6848 191.524C126.8 191.3512,126.9728 191.3224,127.1168 191.3224C127.28960000000001 191.3224,127.4336 191.4088,127.52 191.5528C127.5488 191.6392,127.5488 191.6968,127.5488 193.828C127.5488 194.3176,127.5488 194.9224,127.5488 195.6424L127.5488 199.6456L128.2688 199.6456C128.9312 199.6456,128.96 199.6456,129.0464 199.6744C129.2768 199.7608,129.392 199.9912,129.392 200.2504C129.392 200.3944,129.3632 200.5672,129.248 200.6824C129.0752 200.8264,129.0464 200.8264,128.2688 200.8264L127.5488 200.8264L127.5488 201.316C127.5776 202.7848,127.8656 203.3608,128.9888 203.9656C129.392 204.1672,129.4784 204.2248,129.4784 204.5128C129.4784 204.7144,129.42079999999999 204.8008,129.2768 204.916L129.1904 204.9448L125.2448 204.9448L121.328 204.9448L121.2416 204.916C121.0688 204.8008,121.04 204.7144,121.04 204.5128C121.04 204.2248,121.0688 204.1672,121.5008 203.9656C122.624 203.3608,122.912 202.7848,122.912 201.316L122.912 200.8264L119.6 200.8264C118.9952 200.88400000000001,118.5056 200.88400000000001,118.1024 200.88400000000001C116.288 200.88400000000001,116.2592 200.8264,116.2304 200.8264C116.0576 200.7688,116 200.596,116 200.3944C116 200.3944,116 200.3944,116 200.3944C116 200.1928,116 200.1928,116.576 199.5304C118.9952 196.5928,120.6944 192.3304,120.6944 188.93200000000002C120.6944 188.4136,120.7808 188.2408,121.0112 188.1544M122.7392 206.5288L122.768 206.5288L122.6816 206.5288L122.7392 206.5288M122.7392 187.1176L122.768 187.1176L122.6816 187.1176L122.7392 187.1176"></path><path stroke-width="1" fill="none" stroke="#000000" stroke-dasharray="none" d="M291.74522239999993 166.5L431.5120447999999 166.5"></path><path stroke-width="1" fill="none" stroke="#000000" stroke-dasharray="none" d="M291.74522239999993 176.5L431.5120447999999 176.5"></path><path stroke-width="1" fill="none" stroke="#000000" stroke-dasharray="none" d="M291.74522239999993 186.5L431.5120447999999 186.5"></path><path stroke-width="1" fill="none" stroke="#000000" stroke-dasharray="none" d="M291.74522239999993 196.5L431.5120447999999 196.5"></path><path stroke-width="1" fill="none" stroke="#000000" stroke-dasharray="none" d="M291.74522239999993 206.5L431.5120447999999 206.5"></path><rect stroke-width="0.3" fill="#000000" stroke="#000000" stroke-dasharray="none" x="431.5120447999999" y="166" width="1" height="41"></rect><path stroke-width="1" fill="none" stroke="#000000" stroke-dasharray="none" d="M431.5120447999999 166.5L575.4788671999999 166.5"></path><path stroke-width="1" fill="none" stroke="#000000" stroke-dasharray="none" d="M431.5120447999999 176.5L575.4788671999999 176.5"></path><path stroke-width="1" fill="none" stroke="#000000" stroke-dasharray="none" d="M431.5120447999999 186.5L575.4788671999999 186.5"></path><path stroke-width="1" fill="none" stroke="#000000" stroke-dasharray="none" d="M431.5120447999999 196.5L575.4788671999999 196.5"></path><path stroke-width="1" fill="none" stroke="#000000" stroke-dasharray="none" d="M431.5120447999999 206.5L575.4788671999999 206.5"></path><rect stroke-width="0.3" fill="#000000" stroke="#000000" stroke-dasharray="none" x="575.4788671999999" y="166" width="1" height="41"></rect><g class="vf-stavenote" id="vf-auto3687638"><g class="vf-note" pointer-events="bounding-box"><g class="vf-stem" pointer-events="bounding-box"><path stroke-width="1.5" fill="none" stroke="#000000" stroke-dasharray="none" class="vf-stem" id="vf-auto3687638-stem" d="M523.7802847999999 196.5L523.7802847999999 161.5"></path></g><g class="vf-notehead" pointer-events="bounding-box"><path stroke-width="0.3" fill="#000000" stroke="none" stroke-dasharray="none" d="M512.5120447999999 196.5M519.8690047999999 191.27712C519.9813247999999 191.27712,520.1498047999999 191.27712,520.1778847999999 191.27712C520.1778847999999 191.27712,520.2059648 191.27712,520.2059648 191.27712C520.2059648 191.27712,520.3744447999999 191.27712,520.5148447999999 191.27712C523.0420447999999 191.41752,524.5302847999999 193.07424,524.5302847999999 195.15216C524.5302847999999 196.16304,524.1933247999999 197.31432,523.3509247999999 198.40944C521.7503647999999 200.5716,519.1389247999999 201.75096,516.8644447999999 201.75096C515.0954047999999 201.75096,513.5790847999999 201.04896,512.8490047999999 199.61688C512.6243647999999 199.05528,512.5120447999999 198.52176,512.5120447999999 197.93208C512.5120447999999 194.87136,515.9378047999999 191.47368,519.8690047999999 191.27712"></path></g></g><g class="vf-modifiers"></g></g><path stroke-width="1" fill="none" stroke="#000000" stroke-dasharray="none" d="M575.4788671999999 166.5L729.4456895999998 166.5"></path><path stroke-width="1" fill="none" stroke="#000000" stroke-dasharray="none" d="M575.4788671999999 176.5L729.4456895999998 176.5"></path><path stroke-width="1" fill="none" stroke="#000000" stroke-dasharray="none" d="M575.4788671999999 186.5L729.4456895999998 186.5"></path><path stroke-width="1" fill="none" stroke="#000000" stroke-dasharray="none" d="M575.4788671999999 196.5L729.4456895999998 196.5"></path><path stroke-width="1" fill="none" stroke="#000000" stroke-dasharray="none" d="M575.4788671999999 206.5L729.4456895999998 206.5"></path><rect stroke-width="0.3" fill="#000000" stroke="#000000" stroke-dasharray="none" x="724.4456895999998" y="166" width="1" height="41"></rect><rect stroke-width="0.3" fill="#000000" stroke="#000000" stroke-dasharray="none" x="727.4456895999998" y="166" width="3" height="41"></rect><path stroke-width="0.3" fill="#000000" stroke="none" stroke-dasharray="none" d="M723.4456895999998 182 A2 2 0 0 0 719.4456895999998 182M719.4456895999998 182 A2 2 0 0 0 723.4456895999998 182"></path><path stroke-width="0.3" fill="#000000" stroke="none" stroke-dasharray="none" d="M723.4456895999998 192 A2 2 0 0 0 719.4456895999998 192M719.4456895999998 192 A2 2 0 0 0 723.4456895999998 192"></path><g class="vf-stavenote" id="vf-auto3687675"><g class="vf-note" pointer-events="bounding-box"><g class="vf-stem" pointer-events="bounding-box"><path stroke-width="1.5" fill="none" stroke="#000000" stroke-dasharray="none" class="vf-stem" id="vf-auto3687675-stem" d="M696.7288671999999 176.5L696.7288671999999 211.5"></path></g><g class="vf-notehead" pointer-events="bounding-box"><path stroke-width="0.3" fill="#000000" stroke="none" stroke-dasharray="none" d="M695.9788671999999 176.5M703.3358271999998 171.27712C703.4481471999999 171.27712,703.6166271999998 171.27712,703.6447071999999 171.27712C703.6447071999999 171.27712,703.6727871999999 171.27712,703.6727871999999 171.27712C703.6727871999999 171.27712,703.8412671999998 171.27712,703.9816671999998 171.27712C706.5088671999998 171.41752,707.9971071999998 173.07424,707.9971071999998 175.15216C707.9971071999998 176.16304,707.6601471999999 177.31432,706.8177471999999 178.40944C705.2171871999999 180.5716,702.6057471999999 181.75096,700.3312671999998 181.75096C698.5622271999998 181.75096,697.0459071999999 181.04896,696.3158271999998 179.61688C696.0911871999998 179.05528,695.9788671999999 178.52176,695.9788671999999 177.93208C695.9788671999999 174.87136,699.4046271999998 171.47368,703.3358271999998 171.27712"></path></g></g><g class="vf-modifiers"></g></g><g class="vf-text"><text stroke-width="0.3" fill="#000000" stroke="none" stroke-dasharray="none" font-family="Times New Roman" font-size="23px" font-weight="bold" font-style="italic" x="159.9784" y="240.5">pp</text></g><path stroke-width="1" fill="none" stroke="#000000" stroke-dasharray="none" d="M70 255.29999999999998L291.74522239999993 255.29999999999998"></path><path stroke-width="1" fill="none" stroke="#000000" stroke-dasharray="none" d="M70 265.29999999999995L291.74522239999993 265.29999999999995"></path><path stroke-width="1" fill="none" stroke="#000000" stroke-dasharray="none" d="M70 275.29999999999995L291.74522239999993 275.29999999999995"></path><path stroke-width="1" fill="none" stroke="#000000" stroke-dasharray="none" d="M70 285.29999999999995L291.74522239999993 285.29999999999995"></path><path stroke-width="1" fill="none" stroke="#000000" stroke-dasharray="none" d="M70 295.29999999999995L291.74522239999993 295.29999999999995"></path><rect stroke-width="0.3" fill="#000000" stroke="#000000" stroke-dasharray="none" x="291.74522239999993" y="254.79999999999998" width="1" height="40.99999999999997"></rect><g class="vf-clef"><path stroke-width="0.3" fill="#000000" stroke="none" stroke-dasharray="none" d="M75 265.29999999999995M83.8416 255.24879999999996C84.072 255.19119999999995,84.3024 255.19119999999995,84.5616 255.19119999999995C85.5696 255.19119999999995,86.7504 255.30639999999997,87.7584 255.50799999999995C92.4816 256.4872,95.736 259.68399999999997,96.3408 263.9464C96.3984 264.40719999999993,96.4272 264.83919999999995,96.4272 265.29999999999995C96.4272 267.89199999999994,95.5344 271.23279999999994,94.008 274.02639999999997C90.3792 280.59279999999995,83.7552 285.316,75.8064 287.044C75.6624 287.044,75.5472 287.0728,75.4032 287.0728C75.1152 287.0728,74.9712 286.9,74.9712 286.64079999999996C74.9712 286.35279999999995,75.0288 286.2664,75.6048 286.03599999999994C84.7056 282.6088,90.7824 275.20719999999994,91.3296 266.91279999999995C91.3584 266.48079999999993,91.3584 265.99119999999994,91.3584 265.61679999999996C91.3584 261.5848,90.12 258.58959999999996,87.7296 257.0919999999999C86.6928 256.42959999999994,85.5696 256.11279999999994,84.36 256.11279999999994C81.6816 256.11279999999994,78.9456 257.63919999999996,77.6784 260.20239999999995C77.6208 260.40399999999994,77.4192 260.83599999999996,77.4192 260.86479999999995C77.4192 260.86479999999995,77.4192 260.86479999999995,77.4192 260.86479999999995C77.4192 260.86479999999995,77.448 260.83599999999996,77.5344 260.80719999999997C78.168 260.40399999999994,78.8592 260.20239999999995,79.5792 260.20239999999995C80.5872 260.20239999999995,81.6528 260.63439999999997,82.4016 261.44079999999997C83.0928 262.1895999999999,83.4672 263.19759999999997,83.4672 264.1192C83.4672 265.99119999999994,82.0848 267.89199999999994,79.9248 268.0936C79.7808 268.0936,79.6368 268.12239999999997,79.4928 268.12239999999997C77.1024 268.12239999999997,75.1728 265.93359999999996,75.1728 263.1688C75.1728 263.11119999999994,75.1728 263.02479999999997,75.1728 262.996C75.288 258.8776,79.0608 255.50799999999995,83.8416 255.24879999999996M99.1632 259.10799999999995C99.2208 259.07919999999996,99.2496 259.07919999999996,99.336 259.07919999999996C99.5376 259.07919999999996,99.768 259.10799999999995,99.8256 259.1655999999999C100.54560000000001 259.36719999999997,100.8912 260.00079999999997,100.8912 260.6056C100.8912 261.12399999999997,100.632 261.64239999999995,100.11359999999999 261.93039999999996C99.912 262.07439999999997,99.6528 262.10319999999996,99.39359999999999 262.10319999999996C98.9904 262.10319999999996,98.5584 261.93039999999996,98.2704 261.5559999999999C98.03999999999999 261.268,97.9248 260.9512,97.9248 260.63439999999997C97.9248 259.91439999999994,98.3856 259.1944,99.1632 259.10799999999995M99.1632 268.52559999999994C99.2208 268.52559999999994,99.2496 268.52559999999994,99.336 268.52559999999994C99.5376 268.52559999999994,99.768 268.55439999999993,99.8256 268.61199999999997C100.54560000000001 268.81359999999995,100.8912 269.44719999999995,100.8912 270.05199999999996C100.8912 270.57039999999995,100.632 271.08879999999994,100.11359999999999 271.34799999999996C99.912 271.49199999999996,99.6528 271.54959999999994,99.39359999999999 271.54959999999994C98.9904 271.54959999999994,98.5584 271.34799999999996,98.2704 271.00239999999997C98.03999999999999 270.71439999999996,97.9248 270.39759999999995,97.9248 270.05199999999996C97.9248 269.33199999999994,98.3856 268.64079999999996,99.1632 268.52559999999994"></path></g><path stroke-width="0.3" fill="#000000" stroke="none" stroke-dasharray="none" d="M116 275.29999999999995M121.0112 256.95439999999996C121.04 256.9256,121.4432 256.9256,122.6816 256.9256C123.056 256.9256,123.4592 256.9256,123.9776 256.9256L126.8864 256.9256L126.9728 257.01199999999994C127.1168 257.09839999999997,127.2032 257.2424,127.2032 257.35759999999993C127.2032 257.53039999999993,127.1168 257.64559999999994,127.0016 257.76079999999996C126.9728 257.84719999999993,126.7136 258.07759999999996,126.5408 258.3367999999999L125.0144 260.0936L123.056 262.31119999999993L122.0192 263.49199999999996L120.464 265.27759999999995L118.4192 267.61039999999997C118.0736 268.04239999999993,117.6992 268.388,117.6992 268.388C117.6992 268.388,117.6992 268.388,117.6992 268.388C117.6992 268.44559999999996,117.9584 268.44559999999996,120.3488 268.44559999999996L122.9696 268.44559999999996L122.9696 266.57359999999994C122.9696 264.67279999999994,122.9696 264.64399999999995,122.9984 264.61519999999996C123.056 264.52879999999993,123.3152 264.21199999999993,124.3232 263.03119999999996L124.7264 262.59919999999994L125.1296 262.1672L125.7344 261.3896L126.368 260.7272L126.6848 260.32399999999996C126.8 260.15119999999996,126.9728 260.12239999999997,127.1168 260.12239999999997C127.28960000000001 260.12239999999997,127.4336 260.20879999999994,127.52 260.35279999999995C127.5488 260.43919999999997,127.5488 260.49679999999995,127.5488 262.62799999999993C127.5488 263.1176,127.5488 263.72239999999994,127.5488 264.44239999999996L127.5488 268.44559999999996L128.2688 268.44559999999996C128.9312 268.44559999999996,128.96 268.44559999999996,129.0464 268.47439999999995C129.2768 268.5608,129.392 268.79119999999995,129.392 269.05039999999997C129.392 269.1944,129.3632 269.36719999999997,129.248 269.4823999999999C129.0752 269.62639999999993,129.0464 269.62639999999993,128.2688 269.62639999999993L127.5488 269.62639999999993L127.5488 270.11599999999993C127.5776 271.5848,127.8656 272.16079999999994,128.9888 272.76559999999995C129.392 272.96719999999993,129.4784 273.02479999999997,129.4784 273.3128C129.4784 273.51439999999997,129.42079999999999 273.60079999999994,129.2768 273.71599999999995L129.1904 273.74479999999994L125.2448 273.74479999999994L121.328 273.74479999999994L121.2416 273.71599999999995C121.0688 273.60079999999994,121.04 273.51439999999997,121.04 273.3128C121.04 273.02479999999997,121.0688 272.96719999999993,121.5008 272.76559999999995C122.624 272.16079999999994,122.912 271.5848,122.912 270.11599999999993L122.912 269.62639999999993L119.6 269.62639999999993C118.9952 269.68399999999997,118.5056 269.68399999999997,118.1024 269.68399999999997C116.288 269.68399999999997,116.2592 269.62639999999993,116.2304 269.62639999999993C116.0576 269.56879999999995,116 269.39599999999996,116 269.1944C116 269.1944,116 269.1944,116 269.1944C116 268.99279999999993,116 268.99279999999993,116.576 268.33039999999994C118.9952 265.39279999999997,120.6944 261.13039999999995,120.6944 257.73199999999997C120.6944 257.21359999999993,120.7808 257.04079999999993,121.0112 256.95439999999996M122.7392 275.32879999999994L122.768 275.32879999999994L122.6816 275.32879999999994L122.7392 275.32879999999994M122.7392 255.91759999999996L122.768 255.91759999999996L122.6816 255.91759999999996L122.7392 255.91759999999996"></path><path stroke-width="0.3" fill="#000000" stroke="none" stroke-dasharray="none" d="M116 295.29999999999995M121.0112 276.95439999999996C121.04 276.9256,121.4432 276.9256,122.6816 276.9256C123.056 276.9256,123.4592 276.9256,123.9776 276.9256L126.8864 276.9256L126.9728 277.01199999999994C127.1168 277.09839999999997,127.2032 277.2424,127.2032 277.35759999999993C127.2032 277.53039999999993,127.1168 277.64559999999994,127.0016 277.76079999999996C126.9728 277.84719999999993,126.7136 278.07759999999996,126.5408 278.3367999999999L125.0144 280.0936L123.056 282.31119999999993L122.0192 283.49199999999996L120.464 285.27759999999995L118.4192 287.61039999999997C118.0736 288.04239999999993,117.6992 288.388,117.6992 288.388C117.6992 288.388,117.6992 288.388,117.6992 288.388C117.6992 288.44559999999996,117.9584 288.44559999999996,120.3488 288.44559999999996L122.9696 288.44559999999996L122.9696 286.57359999999994C122.9696 284.67279999999994,122.9696 284.64399999999995,122.9984 284.61519999999996C123.056 284.52879999999993,123.3152 284.21199999999993,124.3232 283.03119999999996L124.7264 282.59919999999994L125.1296 282.1672L125.7344 281.3896L126.368 280.7272L126.6848 280.32399999999996C126.8 280.15119999999996,126.9728 280.12239999999997,127.1168 280.12239999999997C127.28960000000001 280.12239999999997,127.4336 280.20879999999994,127.52 280.35279999999995C127.5488 280.43919999999997,127.5488 280.49679999999995,127.5488 282.62799999999993C127.5488 283.1176,127.5488 283.72239999999994,127.5488 284.44239999999996L127.5488 288.44559999999996L128.2688 288.44559999999996C128.9312 288.44559999999996,128.96 288.44559999999996,129.0464 288.47439999999995C129.2768 288.5608,129.392 288.79119999999995,129.392 289.05039999999997C129.392 289.1944,129.3632 289.36719999999997,129.248 289.4823999999999C129.0752 289.62639999999993,129.0464 289.62639999999993,128.2688 289.62639999999993L127.5488 289.62639999999993L127.5488 290.11599999999993C127.5776 291.5848,127.8656 292.16079999999994,128.9888 292.76559999999995C129.392 292.96719999999993,129.4784 293.02479999999997,129.4784 293.3128C129.4784 293.51439999999997,129.42079999999999 293.60079999999994,129.2768 293.71599999999995L129.1904 293.74479999999994L125.2448 293.74479999999994L121.328 293.74479999999994L121.2416 293.71599999999995C121.0688 293.60079999999994,121.04 293.51439999999997,121.04 293.3128C121.04 293.02479999999997,121.0688 292.96719999999993,121.5008 292.76559999999995C122.624 292.16079999999994,122.912 291.5848,122.912 290.11599999999993L122.912 289.62639999999993L119.6 289.62639999999993C118.9952 289.68399999999997,118.5056 289.68399999999997,118.1024 289.68399999999997C116.288 289.68399999999997,116.2592 289.62639999999993,116.2304 289.62639999999993C116.0576 289.56879999999995,116 289.39599999999996,116 289.1944C116 289.1944,116 289.1944,116 289.1944C116 288.99279999999993,116 288.99279999999993,116.576 288.33039999999994C118.9952 285.39279999999997,120.6944 281.13039999999995,120.6944 277.73199999999997C120.6944 277.21359999999993,120.7808 277.04079999999993,121.0112 276.95439999999996M122.7392 295.32879999999994L122.768 295.32879999999994L122.6816 295.32879999999994L122.7392 295.32879999999994M122.7392 275.91759999999994L122.768 275.91759999999994L122.6816 275.91759999999994L122.7392 275.91759999999994"></path><g class="vf-stavenote" id="vf-auto3687572"><g class="vf-note" pointer-events="bounding-box"><g class="vf-stem" pointer-events="bounding-box"><path stroke-width="1.5" fill="none" stroke="#000000" stroke-dasharray="none" class="vf-stem" id="vf-auto3687572-stem" d="M152.74663999999999 295.29999999999995L152.74663999999999 260.29999999999995"></path></g><g class="vf-notehead" pointer-events="bounding-box"><path stroke-width="0.3" fill="#000000" stroke="none" stroke-dasharray="none" d="M141.4784 295.29999999999995M148.83535999999998 290.07712C148.94768 290.07712,149.11615999999998 290.07712,149.14424 290.07712C149.14424 290.07712,149.17231999999998 290.07712,149.17231999999998 290.07712C149.17231999999998 290.07712,149.3408 290.07712,149.4812 290.07712C152.0084 290.21752,153.49663999999999 291.87423999999993,153.49663999999999 293.95215999999994C153.49663999999999 294.96304,153.15967999999998 296.11431999999996,152.31727999999998 297.20944C150.71671999999998 299.37159999999994,148.10528 300.55096,145.83079999999998 300.55096C144.06176 300.55096,142.54543999999999 299.84896,141.81536 298.41687999999994C141.59072 297.85527999999994,141.4784 297.3217599999999,141.4784 296.73207999999994C141.4784 293.67135999999994,144.90416 290.27367999999996,148.83535999999998 290.07712"></path></g></g><g class="vf-modifiers"></g></g><g class="vf-stavenote" id="vf-auto3687580"><g class="vf-note" pointer-events="bounding-box"><g class="vf-stem" pointer-events="bounding-box"><path stroke-width="1.5" fill="none" stroke="#000000" stroke-dasharray="none" class="vf-stem" id="vf-auto3687580-stem" d="M180.1088 270.29999999999995L180.1088 305.29999999999995"></path></g><g class="vf-notehead" pointer-events="bounding-box"><path stroke-width="0.3" fill="#000000" stroke="none" stroke-dasharray="none" d="M179.3588 270.29999999999995M186.71576 265.07712C186.82808 265.07712,186.99656 265.07712,187.02464 265.07712C187.02464 265.07712,187.05272 265.07712,187.05272 265.07712C187.05272 265.07712,187.2212 265.07712,187.3616 265.07712C189.8888 265.21752,191.37704 266.87423999999993,191.37704 268.95215999999994C191.37704 269.96304,191.04008 271.11431999999996,190.19768 272.20944C188.59712 274.37159999999994,185.98568 275.55096,183.7112 275.55096C181.94216 275.55096,180.42584 274.84896,179.69576 273.41687999999994C179.47112 272.85527999999994,179.3588 272.3217599999999,179.3588 271.73207999999994C179.3588 268.67135999999994,182.78456 265.27367999999996,186.71576 265.07712"></path></g></g><g class="vf-modifiers"></g></g><g class="vf-stavenote" id="vf-auto3687588"><g class="vf-note" pointer-events="bounding-box"><g class="vf-stem" pointer-events="bounding-box"><path stroke-width="1.5" fill="none" stroke="#000000" stroke-dasharray="none" class="vf-stem" id="vf-auto3687588-stem" d="M217.98919999999998 260.29999999999995L217.98919999999998 295.29999999999995"></path></g><g class="vf-notehead" pointer-events="bounding-box"><path stroke-width="0.3" fill="#000000" stroke="none" stroke-dasharray="none" d="M217.23919999999998 260.29999999999995M224.59615999999997 255.07711999999995C224.70847999999998 255.07711999999995,224.87696 255.07711999999995,224.90503999999999 255.07711999999995C224.90503999999999 255.07711999999995,224.93311999999997 255.07711999999995,224.93311999999997 255.07711999999995C224.93311999999997 255.07711999999995,225.1016 255.07711999999995,225.242 255.07711999999995C227.76919999999998 255.21751999999995,229.25743999999997 256.87423999999993,229.25743999999997 258.95215999999994C229.25743999999997 259.96304,228.92048 261.11431999999996,228.07807999999997 262.20944C226.47751999999997 264.37159999999994,223.86607999999998 265.55096,221.59159999999997 265.55096C219.82255999999998 265.55096,218.30623999999997 264.84896,217.57616 263.41687999999994C217.35152 262.85527999999994,217.23919999999998 262.3217599999999,217.23919999999998 261.73207999999994C217.23919999999998 258.67135999999994,220.66495999999998 255.27367999999996,224.59615999999997 255.07711999999995"></path></g></g><g class="vf-modifiers"></g></g><g class="vf-stavenote" id="vf-auto3687596"><g class="vf-note" pointer-events="bounding-box"><g class="vf-stem" pointer-events="bounding-box"><path stroke-width="1.5" fill="none" stroke="#000000" stroke-dasharray="none" class="vf-stem" id="vf-auto3687596-stem" d="M266.38784 295.29999999999995L266.38784 260.29999999999995"></path></g><g class="vf-notehead" pointer-events="bounding-box"><path stroke-width="0.3" fill="#000000" stroke="none" stroke-dasharray="none" d="M255.1196 295.29999999999995M262.47656 290.07712C262.58888 290.07712,262.75736 290.07712,262.78544 290.07712C262.78544 290.07712,262.81352 290.07712,262.81352 290.07712C262.81352 290.07712,262.98199999999997 290.07712,263.12239999999997 290.07712C265.64959999999996 290.21752,267.13784 291.87423999999993,267.13784 293.95215999999994C267.13784 294.96304,266.80088 296.11431999999996,265.95848 297.20944C264.35792 299.37159999999994,261.74648 300.55096,259.472 300.55096C257.70296 300.55096,256.18664 299.84896,255.45656 298.41687999999994C255.23192 297.85527999999994,255.1196 297.3217599999999,255.1196 296.73207999999994C255.1196 293.67135999999994,258.54536 290.27367999999996,262.47656 290.07712"></path></g></g><g class="vf-modifiers"></g></g><rect stroke-width="0.3" fill="#000000" stroke="#000000" stroke-dasharray="none" x="291.74522239999993" y="166.5" width="1" height="129.79999999999995"></rect><rect stroke-width="0.3" fill="#000000" stroke="#000000" stroke-dasharray="none" x="70" y="166.5" width="1" height="129.79999999999995"></rect><path stroke-width="1" fill="none" stroke="#000000" stroke-dasharray="none" d="M291.74522239999993 255.29999999999998L431.5120447999999 255.29999999999998"></path><path stroke-width="1" fill="none" stroke="#000000" stroke-dasharray="none" d="M291.74522239999993 265.29999999999995L431.5120447999999 265.29999999999995"></path><path stroke-width="1" fill="none" stroke="#000000" stroke-dasharray="none" d="M291.74522239999993 275.29999999999995L431.5120447999999 275.29999999999995"></path><path stroke-width="1" fill="none" stroke="#000000" stroke-dasharray="none" d="M291.74522239999993 285.29999999999995L431.5120447999999 285.29999999999995"></path><path stroke-width="1" fill="none" stroke="#000000" stroke-dasharray="none" d="M291.74522239999993 295.29999999999995L431.5120447999999 295.29999999999995"></path><rect stroke-width="0.3" fill="#000000" stroke="#000000" stroke-dasharray="none" x="431.5120447999999" y="254.79999999999998" width="1" height="40.99999999999997"></rect><g class="vf-stavenote" id="vf-auto3687605"><g class="vf-note" pointer-events="bounding-box"><g class="vf-stem" pointer-events="bounding-box"><path stroke-width="1.5" fill="none" stroke="#000000" stroke-dasharray="none" class="vf-stem" id="vf-auto3687605-stem" d="M309.49522239999993 270.29999999999995L309.49522239999993 305.29999999999995"></path></g><g class="vf-notehead" pointer-events="bounding-box"><path stroke-width="0.3" fill="#000000" stroke="none" stroke-dasharray="none" d="M308.74522239999993 270.29999999999995M316.10218239999995 265.07712C316.21450239999996 265.07712,316.38298239999995 265.07712,316.41106239999993 265.07712C316.41106239999993 265.07712,316.4391423999999 265.07712,316.4391423999999 265.07712C316.4391423999999 265.07712,316.6076223999999 265.07712,316.7480223999999 265.07712C319.27522239999996 265.21752,320.7634623999999 266.87423999999993,320.7634623999999 268.95215999999994C320.7634623999999 269.96304,320.42650239999995 271.11431999999996,319.58410239999995 272.20944C317.9835423999999 274.37159999999994,315.3721023999999 275.55096,313.0976223999999 275.55096C311.32858239999996 275.55096,309.81226239999995 274.84896,309.0821823999999 273.41687999999994C308.85754239999994 272.85527999999994,308.74522239999993 272.3217599999999,308.74522239999993 271.73207999999994C308.74522239999993 268.67135999999994,312.17098239999996 265.27367999999996,316.10218239999995 265.07712"></path></g></g><g class="vf-modifiers"></g></g><g class="vf-stavenote" id="vf-auto3687613"><g class="vf-note" pointer-events="bounding-box"><g class="vf-stem" pointer-events="bounding-box"><path stroke-width="1.5" fill="none" stroke="#000000" stroke-dasharray="none" class="vf-stem" id="vf-auto3687613-stem" d="M340.49522239999993 255.29999999999995L340.49522239999993 290.29999999999995"></path></g><g class="vf-notehead" pointer-events="bounding-box"><path stroke-width="0.3" fill="#000000" stroke="none" stroke-dasharray="none" d="M339.74522239999993 255.29999999999995M347.10218239999995 250.07711999999995C347.21450239999996 250.07711999999995,347.38298239999995 250.07711999999995,347.41106239999993 250.07711999999995C347.41106239999993 250.07711999999995,347.4391423999999 250.07711999999995,347.4391423999999 250.07711999999995C347.4391423999999 250.07711999999995,347.6076223999999 250.07711999999995,347.7480223999999 250.07711999999995C350.27522239999996 250.21751999999995,351.7634623999999 251.87423999999996,351.7634623999999 253.95215999999996C351.7634623999999 254.96303999999995,351.42650239999995 256.11431999999996,350.58410239999995 257.20944C348.9835423999999 259.37159999999994,346.3721023999999 260.55096,344.0976223999999 260.55096C342.32858239999996 260.55096,340.81226239999995 259.84896,340.0821823999999 258.41687999999994C339.85754239999994 257.85527999999994,339.74522239999993 257.3217599999999,339.74522239999993 256.73207999999994C339.74522239999993 253.67135999999996,343.17098239999996 250.27367999999996,347.10218239999995 250.07711999999995"></path></g></g><g class="vf-modifiers"></g></g><g class="vf-stavenote" id="vf-auto3687621"><g class="vf-note" pointer-events="bounding-box"><g class="vf-stem" pointer-events="bounding-box"><path stroke-width="1.5" fill="none" stroke="#000000" stroke-dasharray="none" class="vf-stem" id="vf-auto3687621-stem" d="M382.0134623999999 290.29999999999995L382.0134623999999 255.29999999999995"></path></g><g class="vf-notehead" pointer-events="bounding-box"><path stroke-width="0.3" fill="#000000" stroke="none" stroke-dasharray="none" d="M370.74522239999993 290.29999999999995M378.10218239999995 285.07712C378.21450239999996 285.07712,378.38298239999995 285.07712,378.41106239999993 285.07712C378.41106239999993 285.07712,378.4391423999999 285.07712,378.4391423999999 285.07712C378.4391423999999 285.07712,378.6076223999999 285.07712,378.7480223999999 285.07712C381.27522239999996 285.21752,382.7634623999999 286.87423999999993,382.7634623999999 288.95215999999994C382.7634623999999 289.96304,382.42650239999995 291.11431999999996,381.58410239999995 292.20944C379.9835423999999 294.37159999999994,377.3721023999999 295.55096,375.0976223999999 295.55096C373.32858239999996 295.55096,371.81226239999995 294.84896,371.0821823999999 293.41687999999994C370.85754239999994 292.85527999999994,370.74522239999993 292.3217599999999,370.74522239999993 291.73207999999994C370.74522239999993 288.67135999999994,374.17098239999996 285.27367999999996,378.10218239999995 285.07712"></path></g></g><g class="vf-modifiers"></g></g><path stroke-width="1" fill="none" stroke="#000000" stroke-dasharray="none" d="M398.74522239999993 245.29999999999995L416.7634623999999 245.29999999999995"></path><g class="vf-stavenote" id="vf-auto3687629"><g class="vf-note" pointer-events="bounding-box"><g class="vf-stem" pointer-events="bounding-box"><path stroke-width="1.5" fill="none" stroke="#000000" stroke-dasharray="none" class="vf-stem" id="vf-auto3687629-stem" d="M402.49522239999993 245.29999999999995L402.49522239999993 280.29999999999995"></path></g><g class="vf-notehead" pointer-events="bounding-box"><path stroke-width="0.3" fill="#000000" stroke="none" stroke-dasharray="none" d="M401.74522239999993 245.29999999999995M409.10218239999995 240.07711999999995C409.21450239999996 240.07711999999995,409.38298239999995 240.07711999999995,409.41106239999993 240.07711999999995C409.41106239999993 240.07711999999995,409.4391423999999 240.07711999999995,409.4391423999999 240.07711999999995C409.4391423999999 240.07711999999995,409.6076223999999 240.07711999999995,409.7480223999999 240.07711999999995C412.27522239999996 240.21751999999995,413.7634623999999 241.87423999999996,413.7634623999999 243.95215999999996C413.7634623999999 244.96303999999995,413.42650239999995 246.11431999999996,412.58410239999995 247.20943999999994C410.9835423999999 249.37159999999994,408.3721023999999 250.55095999999995,406.0976223999999 250.55095999999995C404.32858239999996 250.55095999999995,402.81226239999995 249.84895999999995,402.0821823999999 248.41687999999996C401.85754239999994 247.85527999999996,401.74522239999993 247.32175999999995,401.74522239999993 246.73207999999997C401.74522239999993 243.67135999999996,405.17098239999996 240.27367999999996,409.10218239999995 240.07711999999995"></path></g></g><g class="vf-modifiers"></g></g><rect stroke-width="0.3" fill="#000000" stroke="#000000" stroke-dasharray="none" x="431.5120447999999" y="166.5" width="1" height="129.79999999999995"></rect><path stroke-width="1" fill="none" stroke="#000000" stroke-dasharray="none" d="M431.5120447999999 255.29999999999998L575.4788671999999 255.29999999999998"></path><path stroke-width="1" fill="none" stroke="#000000" stroke-dasharray="none" d="M431.5120447999999 265.29999999999995L575.4788671999999 265.29999999999995"></path><path stroke-width="1" fill="none" stroke="#000000" stroke-dasharray="none" d="M431.5120447999999 275.29999999999995L575.4788671999999 275.29999999999995"></path><path stroke-width="1" fill="none" stroke="#000000" stroke-dasharray="none" d="M431.5120447999999 285.29999999999995L575.4788671999999 285.29999999999995"></path><path stroke-width="1" fill="none" stroke="#000000" stroke-dasharray="none" d="M431.5120447999999 295.29999999999995L575.4788671999999 295.29999999999995"></path><rect stroke-width="0.3" fill="#000000" stroke="#000000" stroke-dasharray="none" x="575.4788671999999" y="254.79999999999998" width="1" height="40.99999999999997"></rect><g class="vf-stavenote" id="vf-auto3687649"><g class="vf-note" pointer-events="bounding-box"><g class="vf-stem" pointer-events="bounding-box"><path stroke-width="1.5" fill="none" stroke="#000000" stroke-dasharray="none" class="vf-stem" id="vf-auto3687649-stem" d="M459.7802847999999 290.29999999999995L459.7802847999999 255.29999999999995"></path></g><g class="vf-notehead" pointer-events="bounding-box"><path stroke-width="0.3" fill="#000000" stroke="none" stroke-dasharray="none" d="M448.5120447999999 290.29999999999995M455.8690047999999 285.07712C455.9813247999999 285.07712,456.1498047999999 285.07712,456.1778847999999 285.07712C456.1778847999999 285.07712,456.2059647999999 285.07712,456.2059647999999 285.07712C456.2059647999999 285.07712,456.3744447999999 285.07712,456.5148447999999 285.07712C459.04204479999987 285.21752,460.5302847999999 286.87423999999993,460.5302847999999 288.95215999999994C460.5302847999999 289.96304,460.1933247999999 291.11431999999996,459.3509247999999 292.20944C457.7503647999999 294.37159999999994,455.1389247999999 295.55096,452.8644447999999 295.55096C451.0954047999999 295.55096,449.5790847999999 294.84896,448.8490047999999 293.41687999999994C448.6243647999999 292.85527999999994,448.5120447999999 292.3217599999999,448.5120447999999 291.73207999999994C448.5120447999999 288.67135999999994,451.9378047999999 285.27367999999996,455.8690047999999 285.07712"></path></g></g><g class="vf-modifiers"></g></g><g class="vf-stavenote" id="vf-auto3687657"><g class="vf-note" pointer-events="bounding-box"><g class="vf-stem" pointer-events="bounding-box"><path stroke-width="1.5" fill="none" stroke="#000000" stroke-dasharray="none" class="vf-stem" id="vf-auto3687657-stem" d="M481.2620447999999 250.29999999999995L481.2620447999999 285.29999999999995"></path></g><g class="vf-notehead" pointer-events="bounding-box"><path stroke-width="0.3" fill="#000000" stroke="none" stroke-dasharray="none" d="M480.5120447999999 250.29999999999995M487.8690047999999 245.07711999999995C487.9813247999999 245.07711999999995,488.1498047999999 245.07711999999995,488.1778847999999 245.07711999999995C488.1778847999999 245.07711999999995,488.2059647999999 245.07711999999995,488.2059647999999 245.07711999999995C488.2059647999999 245.07711999999995,488.3744447999999 245.07711999999995,488.5148447999999 245.07711999999995C491.04204479999987 245.21751999999995,492.5302847999999 246.87423999999996,492.5302847999999 248.95215999999996C492.5302847999999 249.96303999999995,492.1933247999999 251.11431999999996,491.3509247999999 252.20943999999994C489.7503647999999 254.37159999999994,487.1389247999999 255.55095999999995,484.8644447999999 255.55095999999995C483.0954047999999 255.55095999999995,481.5790847999999 254.84895999999995,480.8490047999999 253.41687999999996C480.6243647999999 252.85527999999996,480.5120447999999 252.32175999999995,480.5120447999999 251.73207999999997C480.5120447999999 248.67135999999996,483.9378047999999 245.27367999999996,487.8690047999999 245.07711999999995"></path></g></g><g class="vf-modifiers"></g></g><g class="vf-stavenote" id="vf-auto3687665"><g class="vf-note" pointer-events="bounding-box"><g class="vf-stem" pointer-events="bounding-box"><path stroke-width="1.5" fill="none" stroke="#000000" stroke-dasharray="none" class="vf-stem" id="vf-auto3687665-stem" d="M555.7802847999999 275.29999999999995L555.7802847999999 240.29999999999995"></path></g><g class="vf-notehead" pointer-events="bounding-box"><path stroke-width="0.3" fill="#000000" stroke="none" stroke-dasharray="none" d="M544.5120447999999 275.29999999999995M551.8690047999999 270.07712C551.9813247999999 270.07712,552.1498047999999 270.07712,552.1778847999999 270.07712C552.1778847999999 270.07712,552.2059648 270.07712,552.2059648 270.07712C552.2059648 270.07712,552.3744447999999 270.07712,552.5148447999999 270.07712C555.0420447999999 270.21752,556.5302847999999 271.87423999999993,556.5302847999999 273.95215999999994C556.5302847999999 274.96304,556.1933247999999 276.11431999999996,555.3509247999999 277.20944C553.7503647999999 279.37159999999994,551.1389247999999 280.55096,548.8644447999999 280.55096C547.0954047999999 280.55096,545.5790847999999 279.84896,544.8490047999999 278.41687999999994C544.6243647999999 277.85527999999994,544.5120447999999 277.3217599999999,544.5120447999999 276.73207999999994C544.5120447999999 273.67135999999994,547.9378047999999 270.27367999999996,551.8690047999999 270.07712"></path></g></g><g class="vf-modifiers"></g></g><rect stroke-width="0.3" fill="#000000" stroke="#000000" stroke-dasharray="none" x="575.4788671999999" y="166.5" width="1" height="129.79999999999995"></rect><path stroke-width="1" fill="none" stroke="#000000" stroke-dasharray="none" d="M575.4788671999999 255.29999999999998L729.4456895999998 255.29999999999998"></path><path stroke-width="1" fill="none" stroke="#000000" stroke-dasharray="none" d="M575.4788671999999 265.29999999999995L729.4456895999998 265.29999999999995"></path><path stroke-width="1" fill="none" stroke="#000000" stroke-dasharray="none" d="M575.4788671999999 275.29999999999995L729.4456895999998 275.29999999999995"></path><path stroke-width="1" fill="none" stroke="#000000" stroke-dasharray="none" d="M575.4788671999999 285.29999999999995L729.4456895999998 285.29999999999995"></path><path stroke-width="1" fill="none" stroke="#000000" stroke-dasharray="none" d="M575.4788671999999 295.29999999999995L729.4456895999998 295.29999999999995"></path><rect stroke-width="0.3" fill="#000000" stroke="#000000" stroke-dasharray="none" x="724.4456895999998" y="254.79999999999998" width="1" height="40.99999999999997"></rect><rect stroke-width="0.3" fill="#000000" stroke="#000000" stroke-dasharray="none" x="727.4456895999998" y="254.79999999999998" width="3" height="40.99999999999997"></rect><path stroke-width="0.3" fill="#000000" stroke="none" stroke-dasharray="none" d="M723.4456895999998 270.79999999999995 A2 2 0 0 0 719.4456895999998 270.79999999999995M719.4456895999998 270.79999999999995 A2 2 0 0 0 723.4456895999998 270.79999999999995"></path><path stroke-width="0.3" fill="#000000" stroke="none" stroke-dasharray="none" d="M723.4456895999998 280.79999999999995 A2 2 0 0 0 719.4456895999998 280.79999999999995M719.4456895999998 280.79999999999995 A2 2 0 0 0 723.4456895999998 280.79999999999995"></path><g class="vf-stavenote" id="vf-auto3687684"><g class="vf-note" pointer-events="bounding-box"><g class="vf-stem" pointer-events="bounding-box"><path stroke-width="1.5" fill="none" stroke="#000000" stroke-dasharray="none" class="vf-stem" id="vf-auto3687684-stem" d="M593.2288671999999 250.29999999999995L593.2288671999999 285.29999999999995"></path></g><g class="vf-notehead" pointer-events="bounding-box"><path stroke-width="0.3" fill="#000000" stroke="none" stroke-dasharray="none" d="M592.4788671999999 250.29999999999995M599.8358271999998 245.07711999999995C599.9481471999999 245.07711999999995,600.1166271999998 245.07711999999995,600.1447071999999 245.07711999999995C600.1447071999999 245.07711999999995,600.1727871999999 245.07711999999995,600.1727871999999 245.07711999999995C600.1727871999999 245.07711999999995,600.3412671999998 245.07711999999995,600.4816671999998 245.07711999999995C603.0088671999998 245.21751999999995,604.4971071999998 246.87423999999996,604.4971071999998 248.95215999999996C604.4971071999998 249.96303999999995,604.1601471999999 251.11431999999996,603.3177471999999 252.20943999999994C601.7171871999999 254.37159999999994,599.1057471999999 255.55095999999995,596.8312671999998 255.55095999999995C595.0622271999998 255.55095999999995,593.5459071999999 254.84895999999995,592.8158271999998 253.41687999999996C592.5911871999998 252.85527999999996,592.4788671999999 252.32175999999995,592.4788671999999 251.73207999999997C592.4788671999999 248.67135999999996,595.9046271999998 245.27367999999996,599.8358271999998 245.07711999999995"></path></g></g><g class="vf-modifiers"></g></g><g class="vf-stavenote" id="vf-auto3687692"><g class="vf-note" pointer-events="bounding-box"><g class="vf-stem" pointer-events="bounding-box"><path stroke-width="1.5" fill="none" stroke="#000000" stroke-dasharray="none" class="vf-stem" id="vf-auto3687692-stem" d="M638.2471071999998 280.29999999999995L638.2471071999998 245.29999999999995"></path></g><g class="vf-notehead" pointer-events="bounding-box"><path stroke-width="0.3" fill="#000000" stroke="none" stroke-dasharray="none" d="M626.9788671999999 280.29999999999995M634.3358271999998 275.07712C634.4481471999999 275.07712,634.6166271999998 275.07712,634.6447071999999 275.07712C634.6447071999999 275.07712,634.6727871999999 275.07712,634.6727871999999 275.07712C634.6727871999999 275.07712,634.8412671999998 275.07712,634.9816671999998 275.07712C637.5088671999998 275.21752,638.9971071999998 276.87423999999993,638.9971071999998 278.95215999999994C638.9971071999998 279.96304,638.6601471999999 281.11431999999996,637.8177471999999 282.20944C636.2171871999999 284.37159999999994,633.6057471999999 285.55096,631.3312671999998 285.55096C629.5622271999998 285.55096,628.0459071999999 284.84896,627.3158271999998 283.41687999999994C627.0911871999998 282.85527999999994,626.9788671999999 282.3217599999999,626.9788671999999 281.73207999999994C626.9788671999999 278.67135999999994,630.4046271999998 275.27367999999996,634.3358271999998 275.07712"></path></g></g><g class="vf-modifiers"></g></g><g class="vf-stavenote" id="vf-auto3687700"><g class="vf-note" pointer-events="bounding-box"><g class="vf-stem" pointer-events="bounding-box"><path stroke-width="1.5" fill="none" stroke="#000000" stroke-dasharray="none" class="vf-stem" id="vf-auto3687700-stem" d="M672.7471071999998 295.29999999999995L672.7471071999998 260.29999999999995"></path></g><g class="vf-notehead" pointer-events="bounding-box"><path stroke-width="0.3" fill="#000000" stroke="none" stroke-dasharray="none" d="M661.4788671999999 295.29999999999995M668.8358271999998 290.07712C668.9481471999999 290.07712,669.1166271999998 290.07712,669.1447071999999 290.07712C669.1447071999999 290.07712,669.1727871999999 290.07712,669.1727871999999 290.07712C669.1727871999999 290.07712,669.3412671999998 290.07712,669.4816671999998 290.07712C672.0088671999998 290.21752,673.4971071999998 291.87423999999993,673.4971071999998 293.95215999999994C673.4971071999998 294.96304,673.1601471999999 296.11431999999996,672.3177471999999 297.20944C670.7171871999999 299.37159999999994,668.1057471999999 300.55096,665.8312671999998 300.55096C664.0622271999998 300.55096,662.5459071999999 299.84896,661.8158271999998 298.41687999999994C661.5911871999998 297.85527999999994,661.4788671999999 297.3217599999999,661.4788671999999 296.73207999999994C661.4788671999999 293.67135999999994,664.9046271999998 290.27367999999996,668.8358271999998 290.07712"></path></g></g><g class="vf-modifiers"></g></g><rect stroke-width="0.3" fill="#000000" stroke="#000000" stroke-dasharray="none" x="724.4456895999998" y="166.5" width="1" height="129.79999999999995"></rect><rect stroke-width="0.3" fill="#000000" stroke="#000000" stroke-dasharray="none" x="727.4456895999998" y="166.5" width="3" height="129.79999999999995"></rect><path stroke-width="0.3" fill="#000000" stroke="none" stroke-dasharray="none" d="M68 166.5C45.2 192.45999999999998,81.2 213.87699999999998,56 231.39999999999998C81.2 248.92299999999997,45.2 270.34,68 296.29999999999995C44 270.34,72.8 248.92299999999997,56 231.39999999999998C72.8 213.87699999999998,44 192.45999999999998,68 166.5"></path><path stroke-width="1" fill="none" stroke="#000000" stroke-dasharray="none" d="M68 166.5C45.2 192.45999999999998,81.2 213.87699999999998,56 231.39999999999998C81.2 248.92299999999997,45.2 270.34,68 296.29999999999995C44 270.34,72.8 248.92299999999997,56 231.39999999999998C72.8 213.87699999999998,44 192.45999999999998,68 166.5"></path><g class="vf-text"><text stroke-width="0.3" fill="#000000" stroke="none" stroke-dasharray="none" font-family="Times New Roman" font-size="15px" font-weight="normal" font-style="normal" x="428.0120447999999" y="163.5">3</text></g></svg>