<svg xmlns="http://www.w3.org/2000/svg"  width="1470" height="389.5999999999999" viewBox="0 0 1470 389.5999999999999"><path stroke-width="1" fill="none" stroke="#000000" stroke-dasharray="none" d="M70 166.5L304.34522239999995 166.5"></path><path stroke-width="1" fill="none" stroke="#000000" stroke-dasharray="none" d="M70 176.5L304.34522239999995 176.5"></path><path stroke-width="1" fill="none" stroke="#000000" stroke-dasharray="none" d="M70 186.5L304.34522239999995 186.5"></path><path stroke-width="1" fill="none" stroke="#000000" stroke-dasharray="none" d="M70 196.5L304.34522239999995 196.5"></path><path stroke-width="1" fill="none" stroke="#000000" stroke-dasharray="none" d="M70 206.5L304.34522239999995 206.5"></path><rect stroke-width="0.3" fill="#000000" stroke="#000000" stroke-dasharray="none" x="304.34522239999995" y="166" width="1" height="41"></rect><g class="vf-clef"><path stroke-width="0.3" fill="#000000" stroke="none" stroke-dasharray="none" d="M75 196.5M89.0544 153.3288C89.112 153.3,89.1696 153.3,89.256 153.3C89.6016 153.3,90.0048 153.588,90.5808 154.308C92.9136 156.9864,94.5552 161.652,94.5552 165.4536C94.5552 165.7416,94.4976 165.972,94.4976 166.26C94.2384 170.7816,92.3952 174.4968,88.7376 178.0104L87.7584 178.9608L87.4128 179.3352L87.4128 179.4504L87.6144 180.3144L87.9312 181.8696L88.248 183.3096C88.68 185.268,88.8528 186.276,88.8528 186.276C88.8528 186.276,88.8528 186.276,88.8528 186.276C88.8528 186.276,88.968 186.276,89.112 186.2472C89.256 186.2472,89.7168 186.1896,90.2064 186.1896C90.55199999999999 186.1896,90.8976 186.2472,91.0704 186.2472C95.1312 186.7656,98.2704 189.6744,99.1632 193.764C99.336 194.4264,99.39359999999999 195.1464,99.39359999999999 195.8664C99.39359999999999 199.7544,97.0608 203.4696,93.1728 205.2264C92.94239999999999 205.3704,92.856 205.3992,92.856 205.3992L92.856 205.428C92.856 205.428,93.0288 206.0904,93.1728 206.8392L93.6048 209.028L94.008 210.7848C94.2384 211.908,94.3536 212.7144,94.3536 213.4344C94.3536 214.06799999999998,94.2672 214.644,94.1232 215.3064C93.144 219.3096,89.6592 221.7,86.0304 221.7C84.2448 221.7,82.4016 221.124,80.7888 219.828C79.3488 218.6184,78.7152 217.524,78.7152 216.084C78.7152 213.5496,80.76 211.764,82.8912 211.764C83.64 211.764,84.3888 211.99439999999998,85.1088 212.4264C86.3184 213.2616,86.8656 214.5288,86.8656 215.7672C86.8656 217.668,85.5408 219.54,83.2656 219.684L83.0352 219.684L83.208 219.79919999999998C84.1584 220.2024,85.1088 220.404,86.0304 220.404C88.3632 220.404,90.55199999999999 219.2232,91.8768 217.1784C92.62559999999999 216.0264,93.0288 214.6728,93.0288 213.3192C93.0288 212.8008,92.94239999999999 212.2824,92.8272 211.7064C92.8272 211.6488,92.74080000000001 211.188,92.62559999999999 210.756C91.992 207.6456,91.6176 205.8312,91.6176 205.8312C91.6176 205.8312,91.6176 205.8312,91.6176 205.8312C91.56 205.8312,91.4448 205.8312,91.3584 205.8888C91.0704 205.9464,90.4656 206.0904,90.2064 206.1192C89.5728 206.2056,88.968 206.2344,88.392 206.2344C82.74719999999999 206.2344,77.5056 202.4328,75.6912 196.8168C75.2304 195.3192,74.9712 193.8216,74.9712 192.324C74.9712 189.3288,75.9216 186.3912,77.7648 183.7704C79.7808 180.9192,81.7968 178.4712,84.2736 175.9368L85.13759999999999 175.044L84.936 173.9784L84.5616 172.2216L84.072 169.9752C83.928 169.14,83.7552 168.3336,83.7264 168.1608C83.5824 167.2104,83.496 166.2888,83.496 165.3384C83.496 161.7096,84.6768 158.22480000000002,86.8944 155.4312C87.5568 154.5672,88.7376 153.4152,89.0544 153.3288M90.8112 159.0312C90.7536 159.0312,90.6672 159.0312,90.5808 159.0312C89.4 159.0312,87.8736 160.1256,86.8368 161.7384C85.7712 163.32240000000002,85.224 165.4248,85.224 167.5848C85.224 168.1608,85.25280000000001 168.7656,85.3392 169.3704C85.4256 169.8024,85.45439999999999 170.0904,85.6848 171.12720000000002L86.088 172.9416C86.2032 173.4888,86.28960000000001 173.92079999999999,86.28960000000001 173.9784L86.28960000000001 173.9784C86.3184 173.9784,87.2112 172.9992,87.4992 172.6536C90.3792 169.3992,92.1072 165.972,92.4816 162.948C92.5104 162.66,92.5104 162.4296,92.5104 162.1416C92.5104 161.24880000000002,92.3952 160.38479999999998,92.1936 159.924C91.9632 159.4632,91.4448 159.0888,90.8112 159.0312M86.4624 181.2936C86.4048 180.8904,86.3184 180.5736,86.3184 180.516C86.3184 180.516,86.3184 180.516,86.28960000000001 180.516C86.232 180.516,84.9936 181.956,84.1296 182.964C82.6608 184.7496,81.1056 186.8808,80.472 187.9176C79.2624 189.9624,78.6576 192.2376,78.6576 194.484C78.6576 195.9528,78.9456 197.364,79.464 198.7176C81.0192 202.7208,84.5904 205.2264,88.4784 205.2264C88.9392 205.2264,89.4576 205.1976,89.9472 205.1112C90.5808 204.996,91.3584 204.7656,91.3584 204.6792L91.3584 204.6792C91.3584 204.6792,91.3008 204.3912,91.2144 204.0744L90.3792 199.956L89.7168 196.8744L89.2848 194.7432L88.824 192.6696C88.5936 191.4312,88.5072 191.1144,88.5072 191.1144C88.5072 191.1144,88.5072 191.0856,88.4784 191.0856C88.3056 191.0856,87.384 191.5464,86.9808 191.8344C85.4832 192.8712,84.7056 194.5128,84.7056 196.1256C84.7056 197.652,85.45439999999999 199.1784,86.8944 200.0712C87.2112 200.2728,87.3264 200.4456,87.3264 200.6472C87.3264 200.676,87.3264 200.7624,87.3264 200.7912C87.2688 201.1368,87.0672 201.2808,86.7792 201.2808C86.664 201.2808,86.52 201.252,86.3472 201.1656C83.6976 200.0136,81.912 197.2776,81.912 194.2824L81.912 194.2824C81.912 190.8264,84.072 187.8312,87.384 186.6504L87.5568 186.5928L87.2688 185.1528L86.4624 181.2936M90.7824 190.9128C90.55199999999999 190.88400000000001,90.3216 190.88400000000001,90.1488 190.88400000000001C90.0912 190.88400000000001,90.0048 190.88400000000001,89.9472 190.88400000000001L89.8032 190.88400000000001L89.9184 191.4024L90.5232 194.2248L90.8976 196.068L91.3008 197.8824L92.1072 201.8856L92.424 203.412C92.5392 203.8152,92.5968 204.1608,92.62559999999999 204.1608C92.62559999999999 204.1608,92.62559999999999 204.1608,92.62559999999999 204.1608C92.6544 204.1608,93.144 203.8728,93.4608 203.6424C94.9296 202.6056,96.024 200.9928,96.4272 199.3224C96.5712 198.7752,96.6288 198.1992,96.6288 197.652C96.6288 194.3112,94.152 191.2872,90.7824 190.9128"></path></g><path stroke-width="0.3" fill="#000000" stroke="none" stroke-dasharray="none" d="M116 186.5M121.0112 168.1544C121.04 168.1256,121.4432 168.1256,122.6816 168.1256C123.056 168.1256,123.4592 168.1256,123.9776 168.1256L126.8864 168.1256L126.9728 168.212C127.1168 168.29840000000002,127.2032 168.4424,127.2032 168.5576C127.2032 168.7304,127.1168 168.8456,127.0016 168.9608C126.9728 169.0472,126.7136 169.2776,126.5408 169.5368L125.0144 171.2936L123.056 173.5112L122.0192 174.692L120.464 176.4776L118.4192 178.8104C118.0736 179.2424,117.6992 179.588,117.6992 179.588C117.6992 179.588,117.6992 179.588,117.6992 179.588C117.6992 179.6456,117.9584 179.6456,120.3488 179.6456L122.9696 179.6456L122.9696 177.7736C122.9696 175.8728,122.9696 175.844,122.9984 175.8152C123.056 175.7288,123.3152 175.412,124.3232 174.2312L124.7264 173.7992L125.1296 173.3672L125.7344 172.5896L126.368 171.9272L126.6848 171.524C126.8 171.3512,126.9728 171.3224,127.1168 171.3224C127.28960000000001 171.3224,127.4336 171.4088,127.52 171.5528C127.5488 171.6392,127.5488 171.6968,127.5488 173.828C127.5488 174.3176,127.5488 174.9224,127.5488 175.6424L127.5488 179.6456L128.2688 179.6456C128.9312 179.6456,128.96 179.6456,129.0464 179.6744C129.2768 179.7608,129.392 179.9912,129.392 180.2504C129.392 180.3944,129.3632 180.5672,129.248 180.6824C129.0752 180.8264,129.0464 180.8264,128.2688 180.8264L127.5488 180.8264L127.5488 181.316C127.5776 182.7848,127.8656 183.3608,128.9888 183.9656C129.392 184.1672,129.4784 184.2248,129.4784 184.5128C129.4784 184.7144,129.42079999999999 184.8008,129.2768 184.916L129.1904 184.9448L125.2448 184.9448L121.328 184.9448L121.2416 184.916C121.0688 184.8008,121.04 184.7144,121.04 184.5128C121.04 184.2248,121.0688 184.1672,121.5008 183.9656C122.624 183.3608,122.912 182.7848,122.912 181.316L122.912 180.8264L119.6 180.8264C118.9952 180.88400000000001,118.5056 180.88400000000001,118.1024 180.88400000000001C116.288 180.88400000000001,116.2592 180.8264,116.2304 180.8264C116.0576 180.7688,116 180.596,116 180.3944C116 180.3944,116 180.3944,116 180.3944C116 180.1928,116 180.1928,116.576 179.5304C118.9952 176.5928,120.6944 172.3304,120.6944 168.93200000000002C120.6944 168.4136,120.7808 168.2408,121.0112 168.1544M122.7392 186.5288L122.768 186.5288L122.6816 186.5288L122.7392 186.5288M122.7392 167.1176L122.768 167.1176L122.6816 167.1176L122.7392 167.1176"></path><path stroke-width="0.3" fill="#000000" stroke="none" stroke-dasharray="none" d="M116 206.5M121.0112 188.1544C121.04 188.1256,121.4432 188.1256,122.6816 188.1256C123.056 188.1256,123.4592 188.1256,123.9776 188.1256L126.8864 188.1256L126.9728 188.212C127.1168 188.29840000000002,127.2032 188.4424,127.2032 188.5576C127.2032 188.7304,127.1168 188.8456,127.0016 188.9608C126.9728 189.0472,126.7136 189.2776,126.5408 189.5368L125.0144 191.2936L123.056 193.5112L122.0192 194.692L120.464 196.4776L118.4192 198.8104C118.0736 199.2424,117.6992 199.588,117.6992 199.588C117.6992 199.588,117.6992 199.588,117.6992 199.588C117.6992 199.6456,117.9584 199.6456,120.3488 199.6456L122.9696 199.6456L122.9696 197.7736C122.9696 195.8728,122.9696 195.844,122.9984 195.8152C123.056 195.7288,123.3152 195.412,124.3232 194.2312L124.7264 193.7992L125.1296 193.3672L125.7344 192.5896L126.368 191.9272L126.6848 191.524C126.8 191.3512,126.9728 191.3224,127.1168 191.3224C127.28960000000001 191.3224,127.4336 191.4088,127.52 191.5528C127.5488 191.6392,127.5488 191.6968,127.5488 193.828C127.5488 194.3176,127.5488 194.9224,127.5488 195.6424L127.5488 199.6456L128.2688 199.6456C128.9312 199.6456,128.96 199.6456,129.0464 199.6744C129.2768 199.7608,129.392 199.9912,129.392 200.2504C129.392 200.3944,129.3632 200.5672,129.248 200.6824C129.0752 200.8264,129.0464 200.8264,128.2688 200.8264L127.5488 200.8264L127.5488 201.316C127.5776 202.7848,127.8656 203.3608,128.9888 203.9656C129.392 204.1672,129.4784 204.2248,129.4784 204.5128C129.4784 204.7144,129.42079999999999 204.8008,129.2768 204.916L129.1904 204.9448L125.2448 204.9448L121.328 204.9448L121.2416 204.916C121.0688 204.8008,121.04 204.7144,121.04 204.5128C121.04 204.2248,121.0688 204.1672,121.5008 203.9656C122.624 203.3608,122.912 202.7848,122.912 201.316L122.912 200.8264L119.6 200.8264C118.9952 200.88400000000001,118.5056 200.88400000000001,118.1024 200.88400000000001C116.288 200.88400000000001,116.2592 200.8264,116.2304 200.8264C116.0576 200.7688,116 200.596,116 200.3944C116 200.3944,116 200.3944,116 200.3944C116 200.1928,116 200.1928,116.576 199.5304C118.9952 196.5928,120.6944 192.3304,120.6944 188.93200000000002C120.6944 188.4136,120.7808 188.2408,121.0112 188.1544M122.7392 206.5288L122.768 206.5288L122.6816 206.5288L122.7392 206.5288M122.7392 187.1176L122.768 187.1176L122.6816 187.1176L122.7392 187.1176"></path><path stroke-width="1" fill="none" stroke="#000000" stroke-dasharray="none" d="M138.4784 216.5L156.49663999999999 216.5"></path><g class="vf-stavenote" id="vf-auto4385097"><g class="vf-note" pointer-events="bounding-box"><g class="vf-stem" pointer-events="bounding-box"><path stroke-width="1.5" fill="none" stroke="#000000" stroke-dasharray="none" class="vf-stem" id="vf-auto4385097-stem" d="M152.74663999999999 221.5L152.74663999999999 186.5"></path></g><g class="vf-notehead" pointer-events="bounding-box"><path stroke-width="0.3" fill="#000000" stroke="none" stroke-dasharray="none" d="M141.4784 221.5M148.83535999999998 216.27712C148.94768 216.27712,149.11615999999998 216.27712,149.14424 216.27712C149.14424 216.27712,149.17231999999998 216.27712,149.17231999999998 216.27712C149.17231999999998 216.27712,149.3408 216.27712,149.4812 216.27712C152.0084 216.41752,153.49663999999999 218.07424,153.49663999999999 220.15216C153.49663999999999 221.16304,153.15967999999998 222.31432,152.31727999999998 223.40944C150.71671999999998 225.5716,148.10528 226.75096,145.83079999999998 226.75096C144.06176 226.75096,142.54543999999999 226.04896,141.81536 224.61688C141.59072 224.05528,141.4784 223.52176,141.4784 222.93208C141.4784 219.87136,144.90416 216.47368,148.83535999999998 216.27712"></path></g></g><g class="vf-modifiers"></g></g><g class="vf-stavenote" id="vf-auto4385105"><g class="vf-note" pointer-events="bounding-box"><g class="vf-stem" pointer-events="bounding-box"><path stroke-width="1.5" fill="none" stroke="#000000" stroke-dasharray="none" class="vf-stem" id="vf-auto4385105-stem" d="M224.48919999999998 171.5L224.48919999999998 206.5"></path></g><g class="vf-notehead" pointer-events="bounding-box"><path stroke-width="0.3" fill="#000000" stroke="none" stroke-dasharray="none" d="M223.73919999999998 171.5M231.09615999999997 166.27712C231.20847999999998 166.27712,231.37696 166.27712,231.40503999999999 166.27712C231.40503999999999 166.27712,231.43311999999997 166.27712,231.43311999999997 166.27712C231.43311999999997 166.27712,231.6016 166.27712,231.742 166.27712C234.26919999999998 166.41752,235.75743999999997 168.07424,235.75743999999997 170.15216C235.75743999999997 171.16304,235.42048 172.31432,234.57807999999997 173.40944C232.97751999999997 175.5716,230.36607999999998 176.75096,228.09159999999997 176.75096C226.32255999999998 176.75096,224.80623999999997 176.04896,224.07616 174.61688C223.85152 174.05528,223.73919999999998 173.52176,223.73919999999998 172.93208C223.73919999999998 169.87136,227.16495999999998 166.47368,231.09615999999997 166.27712"></path></g></g><g class="vf-modifiers"></g></g><path stroke-width="1" fill="none" stroke="#000000" stroke-dasharray="none" d="M261.8696 216.5L279.88784 216.5"></path><g class="vf-stavenote" id="vf-auto4385113"><g class="vf-note" pointer-events="bounding-box"><g class="vf-stem" pointer-events="bounding-box"><path stroke-width="1.5" fill="none" stroke="#000000" stroke-dasharray="none" class="vf-stem" id="vf-auto4385113-stem" d="M276.13784 216.5L276.13784 181.5"></path></g><g class="vf-notehead" pointer-events="bounding-box"><path stroke-width="0.3" fill="#000000" stroke="none" stroke-dasharray="none" d="M264.8696 216.5M272.22656 211.27712C272.33888 211.27712,272.50736 211.27712,272.53544 211.27712C272.53544 211.27712,272.56352 211.27712,272.56352 211.27712C272.56352 211.27712,272.73199999999997 211.27712,272.87239999999997 211.27712C275.39959999999996 211.41752,276.88784 213.07424,276.88784 215.15216C276.88784 216.16304,276.55088 217.31432,275.70848 218.40944C274.10792 220.5716,271.49648 221.75096,269.222 221.75096C267.45296 221.75096,265.93664 221.04896,265.20655999999997 219.61688C264.98192 219.05528,264.8696 218.52176,264.8696 217.93208C264.8696 214.87136,268.29536 211.47368,272.22656 211.27712"></path></g></g><g class="vf-modifiers"></g></g><path stroke-width="1" fill="none" stroke="#000000" stroke-dasharray="none" d="M304.34522239999995 166.5L452.5120447999999 166.5"></path><path stroke-width="1" fill="none" stroke="#000000" stroke-dasharray="none" d="M304.34522239999995 176.5L452.5120447999999 176.5"></path><path stroke-width="1" fill="none" stroke="#000000" stroke-dasharray="none" d="M304.34522239999995 186.5L452.5120447999999 186.5"></path><path stroke-width="1" fill="none" stroke="#000000" stroke-dasharray="none" d="M304.34522239999995 196.5L452.5120447999999 196.5"></path><path stroke-width="1" fill="none" stroke="#000000" stroke-dasharray="none" d="M304.34522239999995 206.5L452.5120447999999 206.5"></path><rect stroke-width="0.3" fill="#000000" stroke="#000000" stroke-dasharray="none" x="452.5120447999999" y="166" width="1" height="41"></rect><g class="vf-stavenote" id="vf-auto4385134"><g class="vf-note" pointer-events="bounding-box"><g class="vf-stem" pointer-events="bounding-box"><path stroke-width="1.5" fill="none" stroke="#000000" stroke-dasharray="none" class="vf-stem" id="vf-auto4385134-stem" d="M399.11346239999995 211.5L399.11346239999995 176.5"></path></g><g class="vf-notehead" pointer-events="bounding-box"><path stroke-width="0.3" fill="#000000" stroke="none" stroke-dasharray="none" d="M387.84522239999995 211.5M395.20218239999997 206.27712C395.3145024 206.27712,395.48298239999997 206.27712,395.51106239999996 206.27712C395.51106239999996 206.27712,395.53914239999995 206.27712,395.53914239999995 206.27712C395.53914239999995 206.27712,395.70762239999993 206.27712,395.84802239999993 206.27712C398.3752224 206.41752,399.86346239999995 208.07424,399.86346239999995 210.15216C399.86346239999995 211.16304,399.52650239999997 212.31432,398.6841024 213.40944C397.08354239999994 215.5716,394.4721023999999 216.75096,392.19762239999994 216.75096C390.4285824 216.75096,388.9122624 216.04896,388.18218239999993 214.61688C387.95754239999997 214.05528,387.84522239999995 213.52176,387.84522239999995 212.93208C387.84522239999995 209.87136,391.2709824 206.47368,395.20218239999997 206.27712"></path></g></g><g class="vf-modifiers"></g></g><g class="vf-stavenote" id="vf-auto4385142"><g class="vf-note" pointer-events="bounding-box"><g class="vf-stem" pointer-events="bounding-box"><path stroke-width="1.5" fill="none" stroke="#000000" stroke-dasharray="none" class="vf-stem" id="vf-auto4385142-stem" d="M421.84522239999995 186.5L421.84522239999995 221.5"></path></g><g class="vf-notehead" pointer-events="bounding-box"><path stroke-width="0.3" fill="#000000" stroke="none" stroke-dasharray="none" d="M421.09522239999995 186.5M428.45218239999997 181.27712C428.5645024 181.27712,428.73298239999997 181.27712,428.76106239999996 181.27712C428.76106239999996 181.27712,428.78914239999995 181.27712,428.78914239999995 181.27712C428.78914239999995 181.27712,428.95762239999993 181.27712,429.09802239999993 181.27712C431.6252224 181.41752,433.11346239999995 183.07424,433.11346239999995 185.15216C433.11346239999995 186.16304,432.77650239999997 187.31432,431.9341024 188.40944C430.33354239999994 190.5716,427.7221023999999 191.75096,425.44762239999994 191.75096C423.6785824 191.75096,422.1622624 191.04896,421.43218239999993 189.61688C421.20754239999997 189.05528,421.09522239999995 188.52176,421.09522239999995 187.93208C421.09522239999995 184.87136,424.5209824 181.47368,428.45218239999997 181.27712"></path></g></g><g class="vf-modifiers"></g></g><path stroke-width="1" fill="none" stroke="#000000" stroke-dasharray="none" d="M452.5120447999999 166.5L596.4788671999999 166.5"></path><path stroke-width="1" fill="none" stroke="#000000" stroke-dasharray="none" d="M452.5120447999999 176.5L596.4788671999999 176.5"></path><path stroke-width="1" fill="none" stroke="#000000" stroke-dasharray="none" d="M452.5120447999999 186.5L596.4788671999999 186.5"></path><path stroke-width="1" fill="none" stroke="#000000" stroke-dasharray="none" d="M452.5120447999999 196.5L596.4788671999999 196.5"></path><path stroke-width="1" fill="none" stroke="#000000" stroke-dasharray="none" d="M452.5120447999999 206.5L596.4788671999999 206.5"></path><rect stroke-width="0.3" fill="#000000" stroke="#000000" stroke-dasharray="none" x="596.4788671999999" y="166" width="1" height="41"></rect><g class="vf-stavenote" id="vf-auto4385170"><g class="vf-note" pointer-events="bounding-box"><g class="vf-stem" pointer-events="bounding-box"><path stroke-width="1.5" fill="none" stroke="#000000" stroke-dasharray="none" class="vf-stem" id="vf-auto4385170-stem" d="M470.2620447999999 181.5L470.2620447999999 216.5"></path></g><g class="vf-notehead" pointer-events="bounding-box"><path stroke-width="0.3" fill="#000000" stroke="none" stroke-dasharray="none" d="M469.5120447999999 181.5M476.8690047999999 176.27712C476.9813247999999 176.27712,477.1498047999999 176.27712,477.1778847999999 176.27712C477.1778847999999 176.27712,477.2059647999999 176.27712,477.2059647999999 176.27712C477.2059647999999 176.27712,477.3744447999999 176.27712,477.5148447999999 176.27712C480.04204479999987 176.41752,481.5302847999999 178.07424,481.5302847999999 180.15216C481.5302847999999 181.16304,481.1933247999999 182.31432,480.3509247999999 183.40944C478.7503647999999 185.5716,476.1389247999999 186.75096,473.8644447999999 186.75096C472.0954047999999 186.75096,470.5790847999999 186.04896,469.8490047999999 184.61688C469.6243647999999 184.05528,469.5120447999999 183.52176,469.5120447999999 182.93208C469.5120447999999 179.87136,472.9378047999999 176.47368,476.8690047999999 176.27712"></path></g></g><g class="vf-modifiers"></g></g><path stroke-width="1" fill="none" stroke="#000000" stroke-dasharray="none" d="M596.4788671999999 166.5L746.2456895999999 166.5"></path><path stroke-width="1" fill="none" stroke="#000000" stroke-dasharray="none" d="M596.4788671999999 176.5L746.2456895999999 176.5"></path><path stroke-width="1" fill="none" stroke="#000000" stroke-dasharray="none" d="M596.4788671999999 186.5L746.2456895999999 186.5"></path><path stroke-width="1" fill="none" stroke="#000000" stroke-dasharray="none" d="M596.4788671999999 196.5L746.2456895999999 196.5"></path><path stroke-width="1" fill="none" stroke="#000000" stroke-dasharray="none" d="M596.4788671999999 206.5L746.2456895999999 206.5"></path><rect stroke-width="0.3" fill="#000000" stroke="#000000" stroke-dasharray="none" x="741.2456895999999" y="166" width="1" height="41"></rect><rect stroke-width="0.3" fill="#000000" stroke="#000000" stroke-dasharray="none" x="744.2456895999999" y="166" width="3" height="41"></rect><path stroke-width="0.3" fill="#000000" stroke="none" stroke-dasharray="none" d="M740.2456895999999 182 A2 2 0 0 0 736.2456895999999 182M736.2456895999999 182 A2 2 0 0 0 740.2456895999999 182"></path><path stroke-width="0.3" fill="#000000" stroke="none" stroke-dasharray="none" d="M740.2456895999999 192 A2 2 0 0 0 736.2456895999999 192M736.2456895999999 192 A2 2 0 0 0 740.2456895999999 192"></path><g class="vf-text"><text stroke-width="0.3" fill="#000000" stroke="none" stroke-dasharray="none" font-family="Times New Roman" font-size="23px" font-weight="bold" font-style="italic" x="143.48752" y="249.29999999999998">f</text></g><path stroke-width="1" fill="none" stroke="#000000" stroke-dasharray="none" d="M70 264.09999999999997L304.34522239999995 264.09999999999997"></path><path stroke-width="1" fill="none" stroke="#000000" stroke-dasharray="none" d="M70 274.09999999999997L304.34522239999995 274.09999999999997"></path><path stroke-width="1" fill="none" stroke="#000000" stroke-dasharray="none" d="M70 284.09999999999997L304.34522239999995 284.09999999999997"></path><path stroke-width="1" fill="none" stroke="#000000" stroke-dasharray="none" d="M70 294.09999999999997L304.34522239999995 294.09999999999997"></path><path stroke-width="1" fill="none" stroke="#000000" stroke-dasharray="none" d="M70 304.09999999999997L304.34522239999995 304.09999999999997"></path><rect stroke-width="0.3" fill="#000000" stroke="#000000" stroke-dasharray="none" x="304.34522239999995" y="263.59999999999997" width="1" height="41"></rect><g class="vf-clef"><path stroke-width="0.3" fill="#000000" stroke="none" stroke-dasharray="none" d="M75 274.09999999999997M83.8416 264.04879999999997C84.072 263.9912,84.3024 263.9912,84.5616 263.9912C85.5696 263.9912,86.7504 264.10639999999995,87.7584 264.308C92.4816 265.2872,95.736 268.484,96.3408 272.7464C96.3984 273.20719999999994,96.4272 273.63919999999996,96.4272 274.09999999999997C96.4272 276.69199999999995,95.5344 280.03279999999995,94.008 282.8264C90.3792 289.39279999999997,83.7552 294.116,75.8064 295.84399999999994C75.6624 295.84399999999994,75.5472 295.8728,75.4032 295.8728C75.1152 295.8728,74.9712 295.7,74.9712 295.44079999999997C74.9712 295.15279999999996,75.0288 295.0664,75.6048 294.83599999999996C84.7056 291.4088,90.7824 284.00719999999995,91.3296 275.71279999999996C91.3584 275.28079999999994,91.3584 274.79119999999995,91.3584 274.41679999999997C91.3584 270.3848,90.12 267.3896,87.7296 265.89199999999994C86.6928 265.22959999999995,85.5696 264.91279999999995,84.36 264.91279999999995C81.6816 264.91279999999995,78.9456 266.43919999999997,77.6784 269.00239999999997C77.6208 269.20399999999995,77.4192 269.63599999999997,77.4192 269.66479999999996C77.4192 269.66479999999996,77.4192 269.66479999999996,77.4192 269.66479999999996C77.4192 269.66479999999996,77.448 269.63599999999997,77.5344 269.6072C78.168 269.20399999999995,78.8592 269.00239999999997,79.5792 269.00239999999997C80.5872 269.00239999999997,81.6528 269.4344,82.4016 270.2408C83.0928 270.98959999999994,83.4672 271.9976,83.4672 272.9192C83.4672 274.79119999999995,82.0848 276.69199999999995,79.9248 276.8936C79.7808 276.8936,79.6368 276.9224,79.4928 276.9224C77.1024 276.9224,75.1728 274.73359999999997,75.1728 271.9688C75.1728 271.91119999999995,75.1728 271.8248,75.1728 271.796C75.288 267.6776,79.0608 264.308,83.8416 264.04879999999997M99.1632 267.90799999999996C99.2208 267.87919999999997,99.2496 267.87919999999997,99.336 267.87919999999997C99.5376 267.87919999999997,99.768 267.90799999999996,99.8256 267.9656C100.54560000000001 268.1672,100.8912 268.8008,100.8912 269.4056C100.8912 269.924,100.632 270.44239999999996,100.11359999999999 270.7304C99.912 270.8744,99.6528 270.90319999999997,99.39359999999999 270.90319999999997C98.9904 270.90319999999997,98.5584 270.7304,98.2704 270.356C98.03999999999999 270.068,97.9248 269.7512,97.9248 269.4344C97.9248 268.71439999999996,98.3856 267.9944,99.1632 267.90799999999996M99.1632 277.32559999999995C99.2208 277.32559999999995,99.2496 277.32559999999995,99.336 277.32559999999995C99.5376 277.32559999999995,99.768 277.35439999999994,99.8256 277.412C100.54560000000001 277.61359999999996,100.8912 278.24719999999996,100.8912 278.852C100.8912 279.37039999999996,100.632 279.88879999999995,100.11359999999999 280.14799999999997C99.912 280.292,99.6528 280.34959999999995,99.39359999999999 280.34959999999995C98.9904 280.34959999999995,98.5584 280.14799999999997,98.2704 279.8024C98.03999999999999 279.51439999999997,97.9248 279.19759999999997,97.9248 278.852C97.9248 278.13199999999995,98.3856 277.44079999999997,99.1632 277.32559999999995"></path></g><path stroke-width="0.3" fill="#000000" stroke="none" stroke-dasharray="none" d="M116 284.09999999999997M121.0112 265.7544C121.04 265.7256,121.4432 265.7256,122.6816 265.7256C123.056 265.7256,123.4592 265.7256,123.9776 265.7256L126.8864 265.7256L126.9728 265.81199999999995C127.1168 265.8984,127.2032 266.0424,127.2032 266.15759999999995C127.2032 266.33039999999994,127.1168 266.44559999999996,127.0016 266.5608C126.9728 266.64719999999994,126.7136 266.8776,126.5408 267.1368L125.0144 268.8936L123.056 271.11119999999994L122.0192 272.292L120.464 274.07759999999996L118.4192 276.4104C118.0736 276.84239999999994,117.6992 277.188,117.6992 277.188C117.6992 277.188,117.6992 277.188,117.6992 277.188C117.6992 277.24559999999997,117.9584 277.24559999999997,120.3488 277.24559999999997L122.9696 277.24559999999997L122.9696 275.37359999999995C122.9696 273.47279999999995,122.9696 273.44399999999996,122.9984 273.41519999999997C123.056 273.32879999999994,123.3152 273.01199999999994,124.3232 271.83119999999997L124.7264 271.39919999999995L125.1296 270.9672L125.7344 270.1896L126.368 269.5272L126.6848 269.12399999999997C126.8 268.9512,126.9728 268.9224,127.1168 268.9224C127.28960000000001 268.9224,127.4336 269.00879999999995,127.52 269.15279999999996C127.5488 269.2392,127.5488 269.29679999999996,127.5488 271.42799999999994C127.5488 271.9176,127.5488 272.52239999999995,127.5488 273.2424L127.5488 277.24559999999997L128.2688 277.24559999999997C128.9312 277.24559999999997,128.96 277.24559999999997,129.0464 277.27439999999996C129.2768 277.3608,129.392 277.59119999999996,129.392 277.8504C129.392 277.9944,129.3632 278.1672,129.248 278.28239999999994C129.0752 278.42639999999994,129.0464 278.42639999999994,128.2688 278.42639999999994L127.5488 278.42639999999994L127.5488 278.91599999999994C127.5776 280.3848,127.8656 280.96079999999995,128.9888 281.56559999999996C129.392 281.76719999999995,129.4784 281.8248,129.4784 282.1128C129.4784 282.3144,129.42079999999999 282.40079999999995,129.2768 282.51599999999996L129.1904 282.54479999999995L125.2448 282.54479999999995L121.328 282.54479999999995L121.2416 282.51599999999996C121.0688 282.40079999999995,121.04 282.3144,121.04 282.1128C121.04 281.8248,121.0688 281.76719999999995,121.5008 281.56559999999996C122.624 280.96079999999995,122.912 280.3848,122.912 278.91599999999994L122.912 278.42639999999994L119.6 278.42639999999994C118.9952 278.484,118.5056 278.484,118.1024 278.484C116.288 278.484,116.2592 278.42639999999994,116.2304 278.42639999999994C116.0576 278.36879999999996,116 278.19599999999997,116 277.9944C116 277.9944,116 277.9944,116 277.9944C116 277.79279999999994,116 277.79279999999994,116.576 277.13039999999995C118.9952 274.1928,120.6944 269.93039999999996,120.6944 266.532C120.6944 266.01359999999994,120.7808 265.84079999999994,121.0112 265.7544M122.7392 284.12879999999996L122.768 284.12879999999996L122.6816 284.12879999999996L122.7392 284.12879999999996M122.7392 264.71759999999995L122.768 264.71759999999995L122.6816 264.71759999999995L122.7392 264.71759999999995"></path><path stroke-width="0.3" fill="#000000" stroke="none" stroke-dasharray="none" d="M116 304.09999999999997M121.0112 285.7544C121.04 285.7256,121.4432 285.7256,122.6816 285.7256C123.056 285.7256,123.4592 285.7256,123.9776 285.7256L126.8864 285.7256L126.9728 285.81199999999995C127.1168 285.8984,127.2032 286.0424,127.2032 286.15759999999995C127.2032 286.33039999999994,127.1168 286.44559999999996,127.0016 286.5608C126.9728 286.64719999999994,126.7136 286.8776,126.5408 287.1368L125.0144 288.8936L123.056 291.11119999999994L122.0192 292.292L120.464 294.07759999999996L118.4192 296.4104C118.0736 296.84239999999994,117.6992 297.188,117.6992 297.188C117.6992 297.188,117.6992 297.188,117.6992 297.188C117.6992 297.24559999999997,117.9584 297.24559999999997,120.3488 297.24559999999997L122.9696 297.24559999999997L122.9696 295.37359999999995C122.9696 293.47279999999995,122.9696 293.44399999999996,122.9984 293.41519999999997C123.056 293.32879999999994,123.3152 293.01199999999994,124.3232 291.83119999999997L124.7264 291.39919999999995L125.1296 290.9672L125.7344 290.1896L126.368 289.5272L126.6848 289.12399999999997C126.8 288.9512,126.9728 288.9224,127.1168 288.9224C127.28960000000001 288.9224,127.4336 289.00879999999995,127.52 289.15279999999996C127.5488 289.2392,127.5488 289.29679999999996,127.5488 291.42799999999994C127.5488 291.9176,127.5488 292.52239999999995,127.5488 293.2424L127.5488 297.24559999999997L128.2688 297.24559999999997C128.9312 297.24559999999997,128.96 297.24559999999997,129.0464 297.27439999999996C129.2768 297.3608,129.392 297.59119999999996,129.392 297.8504C129.392 297.9944,129.3632 298.1672,129.248 298.28239999999994C129.0752 298.42639999999994,129.0464 298.42639999999994,128.2688 298.42639999999994L127.5488 298.42639999999994L127.5488 298.91599999999994C127.5776 300.3848,127.8656 300.96079999999995,128.9888 301.56559999999996C129.392 301.76719999999995,129.4784 301.8248,129.4784 302.1128C129.4784 302.3144,129.42079999999999 302.40079999999995,129.2768 302.51599999999996L129.1904 302.54479999999995L125.2448 302.54479999999995L121.328 302.54479999999995L121.2416 302.51599999999996C121.0688 302.40079999999995,121.04 302.3144,121.04 302.1128C121.04 301.8248,121.0688 301.76719999999995,121.5008 301.56559999999996C122.624 300.96079999999995,122.912 300.3848,122.912 298.91599999999994L122.912 298.42639999999994L119.6 298.42639999999994C118.9952 298.484,118.5056 298.484,118.1024 298.484C116.288 298.484,116.2592 298.42639999999994,116.2304 298.42639999999994C116.0576 298.36879999999996,116 298.19599999999997,116 297.9944C116 297.9944,116 297.9944,116 297.9944C116 297.79279999999994,116 297.79279999999994,116.576 297.13039999999995C118.9952 294.1928,120.6944 289.93039999999996,120.6944 286.532C120.6944 286.01359999999994,120.7808 285.84079999999994,121.0112 285.7544M122.7392 304.12879999999996L122.768 304.12879999999996L122.6816 304.12879999999996L122.7392 304.12879999999996M122.7392 284.71759999999995L122.768 284.71759999999995L122.6816 284.71759999999995L122.7392 284.71759999999995"></path><g class="vf-stavenote" id="vf-auto4385123"><g class="vf-note" pointer-events="bounding-box"><g class="vf-stem" pointer-events="bounding-box"><path stroke-width="1.5" fill="none" stroke="#000000" stroke-dasharray="none" class="vf-stem" id="vf-auto4385123-stem" d="M183.3588 269.09999999999997L183.3588 304.09999999999997"></path></g><g class="vf-notehead" pointer-events="bounding-box"><path stroke-width="0.3" fill="#000000" stroke="none" stroke-dasharray="none" d="M182.6088 269.09999999999997M189.96576 263.87712C190.07808 263.87712,190.24656 263.87712,190.27464 263.87712C190.27464 263.87712,190.30272 263.87712,190.30272 263.87712C190.30272 263.87712,190.4712 263.87712,190.6116 263.87712C193.1388 264.01752,194.62704 265.67423999999994,194.62704 267.75215999999995C194.62704 268.76304,194.29008 269.91432,193.44768 271.00944C191.84712 273.17159999999996,189.23568 274.35096,186.9612 274.35096C185.19216 274.35096,183.67584 273.64896,182.94576 272.21687999999995C182.72112 271.65527999999995,182.6088 271.12175999999994,182.6088 270.53207999999995C182.6088 267.47135999999995,186.03456 264.07367999999997,189.96576 263.87712"></path></g></g><g class="vf-modifiers"></g></g><rect stroke-width="0.3" fill="#000000" stroke="#000000" stroke-dasharray="none" x="304.34522239999995" y="166.5" width="1" height="138.59999999999997"></rect><rect stroke-width="0.3" fill="#000000" stroke="#000000" stroke-dasharray="none" x="70" y="166.5" width="1" height="138.59999999999997"></rect><path stroke-width="1" fill="none" stroke="#000000" stroke-dasharray="none" d="M304.34522239999995 264.09999999999997L452.5120447999999 264.09999999999997"></path><path stroke-width="1" fill="none" stroke="#000000" stroke-dasharray="none" d="M304.34522239999995 274.09999999999997L452.5120447999999 274.09999999999997"></path><path stroke-width="1" fill="none" stroke="#000000" stroke-dasharray="none" d="M304.34522239999995 284.09999999999997L452.5120447999999 284.09999999999997"></path><path stroke-width="1" fill="none" stroke="#000000" stroke-dasharray="none" d="M304.34522239999995 294.09999999999997L452.5120447999999 294.09999999999997"></path><path stroke-width="1" fill="none" stroke="#000000" stroke-dasharray="none" d="M304.34522239999995 304.09999999999997L452.5120447999999 304.09999999999997"></path><rect stroke-width="0.3" fill="#000000" stroke="#000000" stroke-dasharray="none" x="452.5120447999999" y="263.59999999999997" width="1" height="41"></rect><g class="vf-stavenote" id="vf-auto4385152"><g class="vf-note" pointer-events="bounding-box"><g class="vf-stem" pointer-events="bounding-box"><path stroke-width="1.5" fill="none" stroke="#000000" stroke-dasharray="none" class="vf-stem" id="vf-auto4385152-stem" d="M332.61346239999995 299.09999999999997L332.61346239999995 264.09999999999997"></path></g><g class="vf-notehead" pointer-events="bounding-box"><path stroke-width="0.3" fill="#000000" stroke="none" stroke-dasharray="none" d="M321.34522239999995 299.09999999999997M328.70218239999997 293.87712C328.8145024 293.87712,328.98298239999997 293.87712,329.01106239999996 293.87712C329.01106239999996 293.87712,329.03914239999995 293.87712,329.03914239999995 293.87712C329.03914239999995 293.87712,329.20762239999993 293.87712,329.34802239999993 293.87712C331.8752224 294.01752,333.36346239999995 295.67423999999994,333.36346239999995 297.75215999999995C333.36346239999995 298.76304,333.02650239999997 299.91432,332.1841024 301.00944C330.58354239999994 303.17159999999996,327.9721023999999 304.35096,325.69762239999994 304.35096C323.9285824 304.35096,322.4122624 303.64896,321.68218239999993 302.21687999999995C321.45754239999997 301.65527999999995,321.34522239999995 301.12175999999994,321.34522239999995 300.53207999999995C321.34522239999995 297.47135999999995,324.7709824 294.07367999999997,328.70218239999997 293.87712"></path></g></g><g class="vf-modifiers"></g></g><g class="vf-stavenote" id="vf-auto4385160"><g class="vf-note" pointer-events="bounding-box"><g class="vf-stem" pointer-events="bounding-box"><path stroke-width="1.5" fill="none" stroke="#000000" stroke-dasharray="none" class="vf-stem" id="vf-auto4385160-stem" d="M365.86346239999995 289.09999999999997L365.86346239999995 254.09999999999997"></path></g><g class="vf-notehead" pointer-events="bounding-box"><path stroke-width="0.3" fill="#000000" stroke="none" stroke-dasharray="none" d="M354.59522239999995 289.09999999999997M361.95218239999997 283.87712C362.0645024 283.87712,362.23298239999997 283.87712,362.26106239999996 283.87712C362.26106239999996 283.87712,362.28914239999995 283.87712,362.28914239999995 283.87712C362.28914239999995 283.87712,362.45762239999993 283.87712,362.59802239999993 283.87712C365.1252224 284.01752,366.61346239999995 285.67423999999994,366.61346239999995 287.75215999999995C366.61346239999995 288.76304,366.27650239999997 289.91432,365.4341024 291.00944C363.83354239999994 293.17159999999996,361.2221023999999 294.35096,358.94762239999994 294.35096C357.1785824 294.35096,355.6622624 293.64896,354.93218239999993 292.21687999999995C354.70754239999997 291.65527999999995,354.59522239999995 291.12175999999994,354.59522239999995 290.53207999999995C354.59522239999995 287.47135999999995,358.0209824 284.07367999999997,361.95218239999997 283.87712"></path></g></g><g class="vf-modifiers"></g></g><rect stroke-width="0.3" fill="#000000" stroke="#000000" stroke-dasharray="none" x="452.5120447999999" y="166.5" width="1" height="138.59999999999997"></rect><path stroke-width="1" fill="none" stroke="#000000" stroke-dasharray="none" d="M452.5120447999999 264.09999999999997L596.4788671999999 264.09999999999997"></path><path stroke-width="1" fill="none" stroke="#000000" stroke-dasharray="none" d="M452.5120447999999 274.09999999999997L596.4788671999999 274.09999999999997"></path><path stroke-width="1" fill="none" stroke="#000000" stroke-dasharray="none" d="M452.5120447999999 284.09999999999997L596.4788671999999 284.09999999999997"></path><path stroke-width="1" fill="none" stroke="#000000" stroke-dasharray="none" d="M452.5120447999999 294.09999999999997L596.4788671999999 294.09999999999997"></path><path stroke-width="1" fill="none" stroke="#000000" stroke-dasharray="none" d="M452.5120447999999 304.09999999999997L596.4788671999999 304.09999999999997"></path><rect stroke-width="0.3" fill="#000000" stroke="#000000" stroke-dasharray="none" x="596.4788671999999" y="263.59999999999997" width="1" height="41"></rect><g class="vf-stavenote" id="vf-auto4385181"><g class="vf-note" pointer-events="bounding-box"><g class="vf-stem" pointer-events="bounding-box"><path stroke-width="1.5" fill="none" stroke="#000000" stroke-dasharray="none" class="vf-stem" id="vf-auto4385181-stem" d="M502.2620447999999 279.09999999999997L502.2620447999999 314.09999999999997"></path></g><g class="vf-notehead" pointer-events="bounding-box"><path stroke-width="0.3" fill="#000000" stroke="none" stroke-dasharray="none" d="M501.5120447999999 279.09999999999997M508.8690047999999 273.87712C508.9813247999999 273.87712,509.1498047999999 273.87712,509.1778847999999 273.87712C509.1778847999999 273.87712,509.2059647999999 273.87712,509.2059647999999 273.87712C509.2059647999999 273.87712,509.3744447999999 273.87712,509.5148447999999 273.87712C512.0420447999999 274.01752,513.5302847999999 275.67423999999994,513.5302847999999 277.75215999999995C513.5302847999999 278.76304,513.1933247999999 279.91432,512.3509247999999 281.00944C510.7503647999999 283.17159999999996,508.1389247999999 284.35096,505.8644447999999 284.35096C504.0954047999999 284.35096,502.5790847999999 283.64896,501.8490047999999 282.21687999999995C501.6243647999999 281.65527999999995,501.5120447999999 281.12175999999994,501.5120447999999 280.53207999999995C501.5120447999999 277.47135999999995,504.9378047999999 274.07367999999997,508.8690047999999 273.87712"></path></g></g><g class="vf-modifiers"></g></g><g class="vf-stavenote" id="vf-auto4385189"><g class="vf-note" pointer-events="bounding-box"><g class="vf-stem" pointer-events="bounding-box"><path stroke-width="1.5" fill="none" stroke="#000000" stroke-dasharray="none" class="vf-stem" id="vf-auto4385189-stem" d="M544.7802847999999 284.09999999999997L544.7802847999999 249.09999999999997"></path></g><g class="vf-notehead" pointer-events="bounding-box"><path stroke-width="0.3" fill="#000000" stroke="none" stroke-dasharray="none" d="M533.5120447999999 284.09999999999997M540.8690047999999 278.87712C540.9813247999999 278.87712,541.1498047999999 278.87712,541.1778847999999 278.87712C541.1778847999999 278.87712,541.2059648 278.87712,541.2059648 278.87712C541.2059648 278.87712,541.3744447999999 278.87712,541.5148447999999 278.87712C544.0420447999999 279.01752,545.5302847999999 280.67423999999994,545.5302847999999 282.75215999999995C545.5302847999999 283.76304,545.1933247999999 284.91432,544.3509247999999 286.00944C542.7503647999999 288.17159999999996,540.1389247999999 289.35096,537.8644447999999 289.35096C536.0954047999999 289.35096,534.5790847999999 288.64896,533.8490047999999 287.21687999999995C533.6243647999999 286.65527999999995,533.5120447999999 286.12175999999994,533.5120447999999 285.53207999999995C533.5120447999999 282.47135999999995,536.9378047999999 279.07367999999997,540.8690047999999 278.87712"></path></g></g><g class="vf-modifiers"></g></g><g class="vf-stavenote" id="vf-auto4385197"><g class="vf-note" pointer-events="bounding-box"><g class="vf-stem" pointer-events="bounding-box"><path stroke-width="1.5" fill="none" stroke="#000000" stroke-dasharray="none" class="vf-stem" id="vf-auto4385197-stem" d="M566.2620447999999 269.09999999999997L566.2620447999999 304.09999999999997"></path></g><g class="vf-notehead" pointer-events="bounding-box"><path stroke-width="0.3" fill="#000000" stroke="none" stroke-dasharray="none" d="M565.5120447999999 269.09999999999997M572.8690047999999 263.87712C572.9813247999999 263.87712,573.1498047999999 263.87712,573.1778847999999 263.87712C573.1778847999999 263.87712,573.2059648 263.87712,573.2059648 263.87712C573.2059648 263.87712,573.3744447999999 263.87712,573.5148447999999 263.87712C576.0420447999999 264.01752,577.5302847999999 265.67423999999994,577.5302847999999 267.75215999999995C577.5302847999999 268.76304,577.1933247999999 269.91432,576.3509247999999 271.00944C574.7503647999999 273.17159999999996,572.1389247999999 274.35096,569.8644447999999 274.35096C568.0954047999999 274.35096,566.5790847999999 273.64896,565.8490047999999 272.21687999999995C565.6243647999999 271.65527999999995,565.5120447999999 271.12175999999994,565.5120447999999 270.53207999999995C565.5120447999999 267.47135999999995,568.9378047999999 264.07367999999997,572.8690047999999 263.87712"></path></g></g><g class="vf-modifiers"></g></g><rect stroke-width="0.3" fill="#000000" stroke="#000000" stroke-dasharray="none" x="596.4788671999999" y="166.5" width="1" height="138.59999999999997"></rect><path stroke-width="1" fill="none" stroke="#000000" stroke-dasharray="none" d="M596.4788671999999 264.09999999999997L746.2456895999999 264.09999999999997"></path><path stroke-width="1" fill="none" stroke="#000000" stroke-dasharray="none" d="M596.4788671999999 274.09999999999997L746.2456895999999 274.09999999999997"></path><path stroke-width="1" fill="none" stroke="#000000" stroke-dasharray="none" d="M596.4788671999999 284.09999999999997L746.2456895999999 284.09999999999997"></path><path stroke-width="1" fill="none" stroke="#000000" stroke-dasharray="none" d="M596.4788671999999 294.09999999999997L746.2456895999999 294.09999999999997"></path><path stroke-width="1" fill="none" stroke="#000000" stroke-dasharray="none" d="M596.4788671999999 304.09999999999997L746.2456895999999 304.09999999999997"></path><rect stroke-width="0.3" fill="#000000" stroke="#000000" stroke-dasharray="none" x="741.2456895999999" y="263.59999999999997" width="1" height="41"></rect><rect stroke-width="0.3" fill="#000000" stroke="#000000" stroke-dasharray="none" x="744.2456895999999" y="263.59999999999997" width="3" height="41"></rect><path stroke-width="0.3" fill="#000000" stroke="none" stroke-dasharray="none" d="M740.2456895999999 279.59999999999997 A2 2 0 0 0 736.2456895999999 279.59999999999997M736.2456895999999 279.59999999999997 A2 2 0 0 0 740.2456895999999 279.59999999999997"></path><path stroke-width="0.3" fill="#000000" stroke="none" stroke-dasharray="none" d="M740.2456895999999 289.59999999999997 A2 2 0 0 0 736.2456895999999 289.59999999999997M736.2456895999999 289.59999999999997 A2 2 0 0 0 740.2456895999999 289.59999999999997"></path><g class="vf-stavenote" id="vf-auto4385207"><g class="vf-note" pointer-events="bounding-box"><g class="vf-stem" pointer-events="bounding-box"><path stroke-width="1.5" fill="none" stroke="#000000" stroke-dasharray="none" class="vf-stem" id="vf-auto4385207-stem" d="M614.2288671999999 274.09999999999997L614.2288671999999 309.09999999999997"></path></g><g class="vf-notehead" pointer-events="bounding-box"><path stroke-width="0.3" fill="#000000" stroke="none" stroke-dasharray="none" d="M613.4788671999999 274.09999999999997M620.8358271999998 268.87712C620.9481471999999 268.87712,621.1166271999998 268.87712,621.1447071999999 268.87712C621.1447071999999 268.87712,621.1727871999999 268.87712,621.1727871999999 268.87712C621.1727871999999 268.87712,621.3412671999998 268.87712,621.4816671999998 268.87712C624.0088671999998 269.01752,625.4971071999998 270.67423999999994,625.4971071999998 272.75215999999995C625.4971071999998 273.76304,625.1601471999999 274.91432,624.3177471999999 276.00944C622.7171871999999 278.17159999999996,620.1057471999999 279.35096,617.8312671999998 279.35096C616.0622271999998 279.35096,614.5459071999999 278.64896,613.8158271999998 277.21687999999995C613.5911871999998 276.65527999999995,613.4788671999999 276.12175999999994,613.4788671999999 275.53207999999995C613.4788671999999 272.47135999999995,616.9046271999998 269.07367999999997,620.8358271999998 268.87712"></path></g></g><g class="vf-modifiers"></g></g><path stroke-width="1" fill="none" stroke="#000000" stroke-dasharray="none" d="M643.9788671999999 254.09999999999997L661.9971071999998 254.09999999999997"></path><g class="vf-stavenote" id="vf-auto4385215"><g class="vf-note" pointer-events="bounding-box"><g class="vf-stem" pointer-events="bounding-box"><path stroke-width="1.5" fill="none" stroke="#000000" stroke-dasharray="none" class="vf-stem" id="vf-auto4385215-stem" d="M647.7288671999999 254.09999999999997L647.7288671999999 289.09999999999997"></path></g><g class="vf-notehead" pointer-events="bounding-box"><path stroke-width="0.3" fill="#000000" stroke="none" stroke-dasharray="none" d="M646.9788671999999 254.09999999999997M654.3358271999998 248.87711999999996C654.4481471999999 248.87711999999996,654.6166271999998 248.87711999999996,654.6447071999999 248.87711999999996C654.6447071999999 248.87711999999996,654.6727871999999 248.87711999999996,654.6727871999999 248.87711999999996C654.6727871999999 248.87711999999996,654.8412671999998 248.87711999999996,654.9816671999998 248.87711999999996C657.5088671999998 249.01751999999996,658.9971071999998 250.67423999999997,658.9971071999998 252.75215999999998C658.9971071999998 253.76303999999996,658.6601471999999 254.91431999999998,657.8177471999999 256.00944C656.2171871999999 258.17159999999996,653.6057471999999 259.35096,651.3312671999998 259.35096C649.5622271999998 259.35096,648.0459071999999 258.64896,647.3158271999998 257.21687999999995C647.0911871999998 256.65527999999995,646.9788671999999 256.12175999999994,646.9788671999999 255.53207999999998C646.9788671999999 252.47135999999998,650.4046271999998 249.07367999999997,654.3358271999998 248.87711999999996"></path></g></g><g class="vf-modifiers"></g></g><path stroke-width="1" fill="none" stroke="#000000" stroke-dasharray="none" d="M677.4788671999999 254.09999999999997L695.4971071999998 254.09999999999997"></path><g class="vf-stavenote" id="vf-auto4385223"><g class="vf-note" pointer-events="bounding-box"><g class="vf-stem" pointer-events="bounding-box"><path stroke-width="1.5" fill="none" stroke="#000000" stroke-dasharray="none" class="vf-stem" id="vf-auto4385223-stem" d="M681.2288671999999 249.09999999999997L681.2288671999999 284.09999999999997"></path></g><g class="vf-notehead" pointer-events="bounding-box"><path stroke-width="0.3" fill="#000000" stroke="none" stroke-dasharray="none" d="M680.4788671999999 249.09999999999997M687.8358271999998 243.87711999999996C687.9481471999999 243.87711999999996,688.1166271999998 243.87711999999996,688.1447071999999 243.87711999999996C688.1447071999999 243.87711999999996,688.1727871999999 243.87711999999996,688.1727871999999 243.87711999999996C688.1727871999999 243.87711999999996,688.3412671999998 243.87711999999996,688.4816671999998 243.87711999999996C691.0088671999998 244.01751999999996,692.4971071999998 245.67423999999997,692.4971071999998 247.75215999999998C692.4971071999998 248.76303999999996,692.1601471999999 249.91431999999998,691.3177471999999 251.00943999999996C689.7171871999999 253.17159999999996,687.1057471999999 254.35095999999996,684.8312671999998 254.35095999999996C683.0622271999998 254.35095999999996,681.5459071999999 253.64895999999996,680.8158271999998 252.21687999999997C680.5911871999998 251.65527999999998,680.4788671999999 251.12175999999997,680.4788671999999 250.53207999999998C680.4788671999999 247.47135999999998,683.9046271999998 244.07367999999997,687.8358271999998 243.87711999999996"></path></g></g><g class="vf-modifiers"></g></g><g class="vf-stavenote" id="vf-auto4385231"><g class="vf-note" pointer-events="bounding-box"><g class="vf-stem" pointer-events="bounding-box"><path stroke-width="1.5" fill="none" stroke="#000000" stroke-dasharray="none" class="vf-stem" id="vf-auto4385231-stem" d="M725.2471071999998 294.09999999999997L725.2471071999998 259.09999999999997"></path></g><g class="vf-notehead" pointer-events="bounding-box"><path stroke-width="0.3" fill="#000000" stroke="none" stroke-dasharray="none" d="M713.9788671999999 294.09999999999997M721.3358271999998 288.87712C721.4481471999999 288.87712,721.6166271999998 288.87712,721.6447071999999 288.87712C721.6447071999999 288.87712,721.6727871999999 288.87712,721.6727871999999 288.87712C721.6727871999999 288.87712,721.8412671999998 288.87712,721.9816671999998 288.87712C724.5088671999998 289.01752,725.9971071999998 290.67423999999994,725.9971071999998 292.75215999999995C725.9971071999998 293.76304,725.6601471999999 294.91432,724.8177471999999 296.00944C723.2171871999999 298.17159999999996,720.6057471999999 299.35096,718.3312671999998 299.35096C716.5622271999998 299.35096,715.0459071999999 298.64896,714.3158271999998 297.21687999999995C714.0911871999998 296.65527999999995,713.9788671999999 296.12175999999994,713.9788671999999 295.53207999999995C713.9788671999999 292.47135999999995,717.4046271999998 289.07367999999997,721.3358271999998 288.87712"></path></g></g><g class="vf-modifiers"></g></g><rect stroke-width="0.3" fill="#000000" stroke="#000000" stroke-dasharray="none" x="741.2456895999999" y="166.5" width="1" height="138.59999999999997"></rect><rect stroke-width="0.3" fill="#000000" stroke="#000000" stroke-dasharray="none" x="744.2456895999999" y="166.5" width="3" height="138.59999999999997"></rect><path stroke-width="0.3" fill="#000000" stroke="none" stroke-dasharray="none" d="M68 166.5C45.2 194.22,81.2 217.089,56 235.79999999999998C81.2 254.51099999999997,45.2 277.38,68 305.09999999999997C44 277.38,72.8 254.51099999999997,56 235.79999999999998C72.8 217.089,44 194.22,68 166.5"></path><path stroke-width="1" fill="none" stroke="#000000" stroke-dasharray="none" d="M68 166.5C45.2 194.22,81.2 217.089,56 235.79999999999998C81.2 254.51099999999997,45.2 277.38,68 305.09999999999997C44 277.38,72.8 254.51099999999997,56 235.79999999999998C72.8 217.089,44 194.22,68 166.5"></path><g class="vf-text"><text stroke-width="0.3" fill="#000000" stroke="none" stroke-dasharray="none" font-family="Times New Roman" font-size="15px" font-weight="normal" font-style="normal" x="449.0120447999999" y="163.5">3</text></g></svg>