<svg xmlns="http://www.w3.org/2000/svg"  width="1470" height="384.79999999999995" viewBox="0 0 1470 384.79999999999995"><path stroke-width="1" fill="none" stroke="#000000" stroke-dasharray="none" d="M70 166.5L291.74522239999993 166.5"></path><path stroke-width="1" fill="none" stroke="#000000" stroke-dasharray="none" d="M70 176.5L291.74522239999993 176.5"></path><path stroke-width="1" fill="none" stroke="#000000" stroke-dasharray="none" d="M70 186.5L291.74522239999993 186.5"></path><path stroke-width="1" fill="none" stroke="#000000" stroke-dasharray="none" d="M70 196.5L291.74522239999993 196.5"></path><path stroke-width="1" fill="none" stroke="#000000" stroke-dasharray="none" d="M70 206.5L291.74522239999993 206.5"></path><rect stroke-width="0.3" fill="#000000" stroke="#000000" stroke-dasharray="none" x="291.74522239999993" y="166" width="1" height="41"></rect><g class="vf-clef"><path stroke-width="0.3" fill="#000000" stroke="none" stroke-dasharray="none" d="M75 196.5M89.0544 153.3288C89.112 153.3,89.1696 153.3,89.256 153.3C89.6016 153.3,90.0048 153.588,90.5808 154.308C92.9136 156.9864,94.5552 161.652,94.5552 165.4536C94.5552 165.7416,94.4976 165.972,94.4976 166.26C94.2384 170.7816,92.3952 174.4968,88.7376 178.0104L87.7584 178.9608L87.4128 179.3352L87.4128 179.4504L87.6144 180.3144L87.9312 181.8696L88.248 183.3096C88.68 185.268,88.8528 186.276,88.8528 186.276C88.8528 186.276,88.8528 186.276,88.8528 186.276C88.8528 186.276,88.968 186.276,89.112 186.2472C89.256 186.2472,89.7168 186.1896,90.2064 186.1896C90.55199999999999 186.1896,90.8976 186.2472,91.0704 186.2472C95.1312 186.7656,98.2704 189.6744,99.1632 193.764C99.336 194.4264,99.39359999999999 195.1464,99.39359999999999 195.8664C99.39359999999999 199.7544,97.0608 203.4696,93.1728 205.2264C92.94239999999999 205.3704,92.856 205.3992,92.856 205.3992L92.856 205.428C92.856 205.428,93.0288 206.0904,93.1728 206.8392L93.6048 209.028L94.008 210.7848C94.2384 211.908,94.3536 212.7144,94.3536 213.4344C94.3536 214.06799999999998,94.2672 214.644,94.1232 215.3064C93.144 219.3096,89.6592 221.7,86.0304 221.7C84.2448 221.7,82.4016 221.124,80.7888 219.828C79.3488 218.6184,78.7152 217.524,78.7152 216.084C78.7152 213.5496,80.76 211.764,82.8912 211.764C83.64 211.764,84.3888 211.99439999999998,85.1088 212.4264C86.3184 213.2616,86.8656 214.5288,86.8656 215.7672C86.8656 217.668,85.5408 219.54,83.2656 219.684L83.0352 219.684L83.208 219.79919999999998C84.1584 220.2024,85.1088 220.404,86.0304 220.404C88.3632 220.404,90.55199999999999 219.2232,91.8768 217.1784C92.62559999999999 216.0264,93.0288 214.6728,93.0288 213.3192C93.0288 212.8008,92.94239999999999 212.2824,92.8272 211.7064C92.8272 211.6488,92.74080000000001 211.188,92.62559999999999 210.756C91.992 207.6456,91.6176 205.8312,91.6176 205.8312C91.6176 205.8312,91.6176 205.8312,91.6176 205.8312C91.56 205.8312,91.4448 205.8312,91.3584 205.8888C91.0704 205.9464,90.4656 206.0904,90.2064 206.1192C89.5728 206.2056,88.968 206.2344,88.392 206.2344C82.74719999999999 206.2344,77.5056 202.4328,75.6912 196.8168C75.2304 195.3192,74.9712 193.8216,74.9712 192.324C74.9712 189.3288,75.9216 186.3912,77.7648 183.7704C79.7808 180.9192,81.7968 178.4712,84.2736 175.9368L85.13759999999999 175.044L84.936 173.9784L84.5616 172.2216L84.072 169.9752C83.928 169.14,83.7552 168.3336,83.7264 168.1608C83.5824 167.2104,83.496 166.2888,83.496 165.3384C83.496 161.7096,84.6768 158.22480000000002,86.8944 155.4312C87.5568 154.5672,88.7376 153.4152,89.0544 153.3288M90.8112 159.0312C90.7536 159.0312,90.6672 159.0312,90.5808 159.0312C89.4 159.0312,87.8736 160.1256,86.8368 161.7384C85.7712 163.32240000000002,85.224 165.4248,85.224 167.5848C85.224 168.1608,85.25280000000001 168.7656,85.3392 169.3704C85.4256 169.8024,85.45439999999999 170.0904,85.6848 171.12720000000002L86.088 172.9416C86.2032 173.4888,86.28960000000001 173.92079999999999,86.28960000000001 173.9784L86.28960000000001 173.9784C86.3184 173.9784,87.2112 172.9992,87.4992 172.6536C90.3792 169.3992,92.1072 165.972,92.4816 162.948C92.5104 162.66,92.5104 162.4296,92.5104 162.1416C92.5104 161.24880000000002,92.3952 160.38479999999998,92.1936 159.924C91.9632 159.4632,91.4448 159.0888,90.8112 159.0312M86.4624 181.2936C86.4048 180.8904,86.3184 180.5736,86.3184 180.516C86.3184 180.516,86.3184 180.516,86.28960000000001 180.516C86.232 180.516,84.9936 181.956,84.1296 182.964C82.6608 184.7496,81.1056 186.8808,80.472 187.9176C79.2624 189.9624,78.6576 192.2376,78.6576 194.484C78.6576 195.9528,78.9456 197.364,79.464 198.7176C81.0192 202.7208,84.5904 205.2264,88.4784 205.2264C88.9392 205.2264,89.4576 205.1976,89.9472 205.1112C90.5808 204.996,91.3584 204.7656,91.3584 204.6792L91.3584 204.6792C91.3584 204.6792,91.3008 204.3912,91.2144 204.0744L90.3792 199.956L89.7168 196.8744L89.2848 194.7432L88.824 192.6696C88.5936 191.4312,88.5072 191.1144,88.5072 191.1144C88.5072 191.1144,88.5072 191.0856,88.4784 191.0856C88.3056 191.0856,87.384 191.5464,86.9808 191.8344C85.4832 192.8712,84.7056 194.5128,84.7056 196.1256C84.7056 197.652,85.45439999999999 199.1784,86.8944 200.0712C87.2112 200.2728,87.3264 200.4456,87.3264 200.6472C87.3264 200.676,87.3264 200.7624,87.3264 200.7912C87.2688 201.1368,87.0672 201.2808,86.7792 201.2808C86.664 201.2808,86.52 201.252,86.3472 201.1656C83.6976 200.0136,81.912 197.2776,81.912 194.2824L81.912 194.2824C81.912 190.8264,84.072 187.8312,87.384 186.6504L87.5568 186.5928L87.2688 185.1528L86.4624 181.2936M90.7824 190.9128C90.55199999999999 190.88400000000001,90.3216 190.88400000000001,90.1488 190.88400000000001C90.0912 190.88400000000001,90.0048 190.88400000000001,89.9472 190.88400000000001L89.8032 190.88400000000001L89.9184 191.4024L90.5232 194.2248L90.8976 196.068L91.3008 197.8824L92.1072 201.8856L92.424 203.412C92.5392 203.8152,92.5968 204.1608,92.62559999999999 204.1608C92.62559999999999 204.1608,92.62559999999999 204.1608,92.62559999999999 204.1608C92.6544 204.1608,93.144 203.8728,93.4608 203.6424C94.9296 202.6056,96.024 200.9928,96.4272 199.3224C96.5712 198.7752,96.6288 198.1992,96.6288 197.652C96.6288 194.3112,94.152 191.2872,90.7824 190.9128"></path></g><path stroke-width="0.3" fill="#000000" stroke="none" stroke-dasharray="none" d="M116 186.5M121.0112 168.1544C121.04 168.1256,121.4432 168.1256,122.6816 168.1256C123.056 168.1256,123.4592 168.1256,123.9776 168.1256L126.8864 168.1256L126.9728 168.212C127.1168 168.29840000000002,127.2032 168.4424,127.2032 168.5576C127.2032 168.7304,127.1168 168.8456,127.0016 168.9608C126.9728 169.0472,126.7136 169.2776,126.5408 169.5368L125.0144 171.2936L123.056 173.5112L122.0192 174.692L120.464 176.4776L118.4192 178.8104C118.0736 179.2424,117.6992 179.588,117.6992 179.588C117.6992 179.588,117.6992 179.588,117.6992 179.588C117.6992 179.6456,117.9584 179.6456,120.3488 179.6456L122.9696 179.6456L122.9696 177.7736C122.9696 175.8728,122.9696 175.844,122.9984 175.8152C123.056 175.7288,123.3152 175.412,124.3232 174.2312L124.7264 173.7992L125.1296 173.3672L125.7344 172.5896L126.368 171.9272L126.6848 171.524C126.8 171.3512,126.9728 171.3224,127.1168 171.3224C127.28960000000001 171.3224,127.4336 171.4088,127.52 171.5528C127.5488 171.6392,127.5488 171.6968,127.5488 173.828C127.5488 174.3176,127.5488 174.9224,127.5488 175.6424L127.5488 179.6456L128.2688 179.6456C128.9312 179.6456,128.96 179.6456,129.0464 179.6744C129.2768 179.7608,129.392 179.9912,129.392 180.2504C129.392 180.3944,129.3632 180.5672,129.248 180.6824C129.0752 180.8264,129.0464 180.8264,128.2688 180.8264L127.5488 180.8264L127.5488 181.316C127.5776 182.7848,127.8656 183.3608,128.9888 183.9656C129.392 184.1672,129.4784 184.2248,129.4784 184.5128C129.4784 184.7144,129.42079999999999 184.8008,129.2768 184.916L129.1904 184.9448L125.2448 184.9448L121.328 184.9448L121.2416 184.916C121.0688 184.8008,121.04 184.7144,121.04 184.5128C121.04 184.2248,121.0688 184.1672,121.5008 183.9656C122.624 183.3608,122.912 182.7848,122.912 181.316L122.912 180.8264L119.6 180.8264C118.9952 180.88400000000001,118.5056 180.88400000000001,118.1024 180.88400000000001C116.288 180.88400000000001,116.2592 180.8264,116.2304 180.8264C116.0576 180.7688,116 180.596,116 180.3944C116 180.3944,116 180.3944,116 180.3944C116 180.1928,116 180.1928,116.576 179.5304C118.9952 176.5928,120.6944 172.3304,120.6944 168.93200000000002C120.6944 168.4136,120.7808 168.2408,121.0112 168.1544M122.7392 186.5288L122.768 186.5288L122.6816 186.5288L122.7392 186.5288M122.7392 167.1176L122.768 167.1176L122.6816 167.1176L122.7392 167.1176"></path><path stroke-width="0.3" fill="#000000" stroke="none" stroke-dasharray="none" d="M116 206.5M121.0112 188.1544C121.04 188.1256,121.4432 188.1256,122.6816 188.1256C123.056 188.1256,123.4592 188.1256,123.9776 188.1256L126.8864 188.1256L126.9728 188.212C127.1168 188.29840000000002,127.2032 188.4424,127.2032 188.5576C127.2032 188.7304,127.1168 188.8456,127.0016 188.9608C126.9728 189.0472,126.7136 189.2776,126.5408 189.5368L125.0144 191.2936L123.056 193.5112L122.0192 194.692L120.464 196.4776L118.4192 198.8104C118.0736 199.2424,117.6992 199.588,117.6992 199.588C117.6992 199.588,117.6992 199.588,117.6992 199.588C117.6992 199.6456,117.9584 199.6456,120.3488 199.6456L122.9696 199.6456L122.9696 197.7736C122.9696 195.8728,122.9696 195.844,122.9984 195.8152C123.056 195.7288,123.3152 195.412,124.3232 194.2312L124.7264 193.7992L125.1296 193.3672L125.7344 192.5896L126.368 191.9272L126.6848 191.524C126.8 191.3512,126.9728 191.3224,127.1168 191.3224C127.28960000000001 191.3224,127.4336 191.4088,127.52 191.5528C127.5488 191.6392,127.5488 191.6968,127.5488 193.828C127.5488 194.3176,127.5488 194.9224,127.5488 195.6424L127.5488 199.6456L128.2688 199.6456C128.9312 199.6456,128.96 199.6456,129.0464 199.6744C129.2768 199.7608,129.392 199.9912,129.392 200.2504C129.392 200.3944,129.3632 200.5672,129.248 200.6824C129.0752 200.8264,129.0464 200.8264,128.2688 200.8264L127.5488 200.8264L127.5488 201.316C127.5776 202.7848,127.8656 203.3608,128.9888 203.9656C129.392 204.1672,129.4784 204.2248,129.4784 204.5128C129.4784 204.7144,129.42079999999999 204.8008,129.2768 204.916L129.1904 204.9448L125.2448 204.9448L121.328 204.9448L121.2416 204.916C121.0688 204.8008,121.04 204.7144,121.04 204.5128C121.04 204.2248,121.0688 204.1672,121.5008 203.9656C122.624 203.3608,122.912 202.7848,122.912 201.316L122.912 200.8264L119.6 200.8264C118.9952 200.88400000000001,118.5056 200.88400000000001,118.1024 200.88400000000001C116.288 200.88400000000001,116.2592 200.8264,116.2304 200.8264C116.0576 200.7688,116 200.596,116 200.3944C116 200.3944,116 200.3944,116 200.3944C116 200.1928,116 200.1928,116.576 199.5304C118.9952 196.5928,120.6944 192.3304,120.6944 188.93200000000002C120.6944 188.4136,120.7808 188.2408,121.0112 188.1544M122.7392 206.5288L122.768 206.5288L122.6816 206.5288L122.7392 206.5288M122.7392 187.1176L122.768 187.1176L122.6816 187.1176L122.7392 187.1176"></path><path stroke-width="1" fill="none" stroke="#000000" stroke-dasharray="none" d="M291.74522239999993 166.5L439.9120447999999 166.5"></path><path stroke-width="1" fill="none" stroke="#000000" stroke-dasharray="none" d="M291.74522239999993 176.5L439.9120447999999 176.5"></path><path stroke-width="1" fill="none" stroke="#000000" stroke-dasharray="none" d="M291.74522239999993 186.5L439.9120447999999 186.5"></path><path stroke-width="1" fill="none" stroke="#000000" stroke-dasharray="none" d="M291.74522239999993 196.5L439.9120447999999 196.5"></path><path stroke-width="1" fill="none" stroke="#000000" stroke-dasharray="none" d="M291.74522239999993 206.5L439.9120447999999 206.5"></path><rect stroke-width="0.3" fill="#000000" stroke="#000000" stroke-dasharray="none" x="439.9120447999999" y="166" width="1" height="41"></rect><g class="vf-stavenote" id="vf-auto3837458"><g class="vf-note" pointer-events="bounding-box"><g class="vf-stem" pointer-events="bounding-box"><path stroke-width="1.5" fill="none" stroke="#000000" stroke-dasharray="none" class="vf-stem" id="vf-auto3837458-stem" d="M309.49522239999993 171.5L309.49522239999993 206.5"></path></g><g class="vf-notehead" pointer-events="bounding-box"><path stroke-width="0.3" fill="#000000" stroke="none" stroke-dasharray="none" d="M308.74522239999993 171.5M316.10218239999995 166.27712C316.21450239999996 166.27712,316.38298239999995 166.27712,316.41106239999993 166.27712C316.41106239999993 166.27712,316.4391423999999 166.27712,316.4391423999999 166.27712C316.4391423999999 166.27712,316.6076223999999 166.27712,316.7480223999999 166.27712C319.27522239999996 166.41752,320.7634623999999 168.07424,320.7634623999999 170.15216C320.7634623999999 171.16304,320.42650239999995 172.31432,319.58410239999995 173.40944C317.9835423999999 175.5716,315.3721023999999 176.75096,313.0976223999999 176.75096C311.32858239999996 176.75096,309.81226239999995 176.04896,309.0821823999999 174.61688C308.85754239999994 174.05528,308.74522239999993 173.52176,308.74522239999993 172.93208C308.74522239999993 169.87136,312.17098239999996 166.47368,316.10218239999995 166.27712"></path></g></g><g class="vf-modifiers"></g></g><path stroke-width="1" fill="none" stroke="#000000" stroke-dasharray="none" d="M405.49522239999993 216.5L423.5134623999999 216.5"></path><g class="vf-stavenote" id="vf-auto3837466"><g class="vf-note" pointer-events="bounding-box"><g class="vf-stem" pointer-events="bounding-box"><path stroke-width="1.5" fill="none" stroke="#000000" stroke-dasharray="none" class="vf-stem" id="vf-auto3837466-stem" d="M419.7634623999999 221.5L419.7634623999999 186.5"></path></g><g class="vf-notehead" pointer-events="bounding-box"><path stroke-width="0.3" fill="#000000" stroke="none" stroke-dasharray="none" d="M408.49522239999993 221.5M415.85218239999995 216.27712C415.96450239999996 216.27712,416.13298239999995 216.27712,416.16106239999993 216.27712C416.16106239999993 216.27712,416.1891423999999 216.27712,416.1891423999999 216.27712C416.1891423999999 216.27712,416.3576223999999 216.27712,416.4980223999999 216.27712C419.02522239999996 216.41752,420.5134623999999 218.07424,420.5134623999999 220.15216C420.5134623999999 221.16304,420.17650239999995 222.31432,419.33410239999995 223.40944C417.7335423999999 225.5716,415.1221023999999 226.75096,412.8476223999999 226.75096C411.07858239999996 226.75096,409.56226239999995 226.04896,408.8321823999999 224.61688C408.60754239999994 224.05528,408.49522239999993 223.52176,408.49522239999993 222.93208C408.49522239999993 219.87136,411.92098239999996 216.47368,415.85218239999995 216.27712"></path></g></g><g class="vf-modifiers"></g></g><path stroke-width="1" fill="none" stroke="#000000" stroke-dasharray="none" d="M439.91204479999993 166.5L588.0788671999999 166.5"></path><path stroke-width="1" fill="none" stroke="#000000" stroke-dasharray="none" d="M439.91204479999993 176.5L588.0788671999999 176.5"></path><path stroke-width="1" fill="none" stroke="#000000" stroke-dasharray="none" d="M439.91204479999993 186.5L588.0788671999999 186.5"></path><path stroke-width="1" fill="none" stroke="#000000" stroke-dasharray="none" d="M439.91204479999993 196.5L588.0788671999999 196.5"></path><path stroke-width="1" fill="none" stroke="#000000" stroke-dasharray="none" d="M439.91204479999993 206.5L588.0788671999999 206.5"></path><rect stroke-width="0.3" fill="#000000" stroke="#000000" stroke-dasharray="none" x="588.0788671999999" y="166" width="1" height="41"></rect><path stroke-width="1" fill="none" stroke="#000000" stroke-dasharray="none" d="M487.16204479999993 216.5L505.1802847999999 216.5"></path><g class="vf-stavenote" id="vf-auto3837495"><g class="vf-note" pointer-events="bounding-box"><g class="vf-stem" pointer-events="bounding-box"><path stroke-width="1.5" fill="none" stroke="#000000" stroke-dasharray="none" class="vf-stem" id="vf-auto3837495-stem" d="M501.4302847999999 221.5L501.4302847999999 186.5"></path></g><g class="vf-notehead" pointer-events="bounding-box"><path stroke-width="0.3" fill="#000000" stroke="none" stroke-dasharray="none" d="M490.16204479999993 221.5M497.51900479999995 216.27712C497.63132479999996 216.27712,497.79980479999995 216.27712,497.82788479999994 216.27712C497.82788479999994 216.27712,497.8559647999999 216.27712,497.8559647999999 216.27712C497.8559647999999 216.27712,498.0244447999999 216.27712,498.1648447999999 216.27712C500.69204479999996 216.41752,502.1802847999999 218.07424,502.1802847999999 220.15216C502.1802847999999 221.16304,501.84332479999995 222.31432,501.00092479999995 223.40944C499.4003647999999 225.5716,496.7889247999999 226.75096,494.5144447999999 226.75096C492.74540479999996 226.75096,491.22908479999995 226.04896,490.4990047999999 224.61688C490.27436479999994 224.05528,490.16204479999993 223.52176,490.16204479999993 222.93208C490.16204479999993 219.87136,493.58780479999996 216.47368,497.51900479999995 216.27712"></path></g></g><g class="vf-modifiers"></g></g><g class="vf-stavenote" id="vf-auto3837503"><g class="vf-note" pointer-events="bounding-box"><g class="vf-stem" pointer-events="bounding-box"><path stroke-width="1.5" fill="none" stroke="#000000" stroke-dasharray="none" class="vf-stem" id="vf-auto3837503-stem" d="M557.4120447999999 171.5L557.4120447999999 206.5"></path></g><g class="vf-notehead" pointer-events="bounding-box"><path stroke-width="0.3" fill="#000000" stroke="none" stroke-dasharray="none" d="M556.6620447999999 171.5M564.0190047999998 166.27712C564.1313247999999 166.27712,564.2998047999998 166.27712,564.3278847999999 166.27712C564.3278847999999 166.27712,564.3559647999999 166.27712,564.3559647999999 166.27712C564.3559647999999 166.27712,564.5244447999999 166.27712,564.6648447999999 166.27712C567.1920447999998 166.41752,568.6802847999999 168.07424,568.6802847999999 170.15216C568.6802847999999 171.16304,568.3433247999999 172.31432,567.5009247999999 173.40944C565.9003647999999 175.5716,563.2889247999999 176.75096,561.0144447999999 176.75096C559.2454047999998 176.75096,557.7290847999999 176.04896,556.9990047999999 174.61688C556.7743647999998 174.05528,556.6620447999999 173.52176,556.6620447999999 172.93208C556.6620447999999 169.87136,560.0878047999998 166.47368,564.0190047999998 166.27712"></path></g></g><g class="vf-modifiers"></g></g><path stroke-width="1" fill="none" stroke="#000000" stroke-dasharray="none" d="M588.0788671999999 166.5L742.0456895999998 166.5"></path><path stroke-width="1" fill="none" stroke="#000000" stroke-dasharray="none" d="M588.0788671999999 176.5L742.0456895999998 176.5"></path><path stroke-width="1" fill="none" stroke="#000000" stroke-dasharray="none" d="M588.0788671999999 186.5L742.0456895999998 186.5"></path><path stroke-width="1" fill="none" stroke="#000000" stroke-dasharray="none" d="M588.0788671999999 196.5L742.0456895999998 196.5"></path><path stroke-width="1" fill="none" stroke="#000000" stroke-dasharray="none" d="M588.0788671999999 206.5L742.0456895999998 206.5"></path><rect stroke-width="0.3" fill="#000000" stroke="#000000" stroke-dasharray="none" x="737.0456895999998" y="166" width="1" height="41"></rect><rect stroke-width="0.3" fill="#000000" stroke="#000000" stroke-dasharray="none" x="740.0456895999998" y="166" width="3" height="41"></rect><path stroke-width="0.3" fill="#000000" stroke="none" stroke-dasharray="none" d="M736.0456895999998 182 A2 2 0 0 0 732.0456895999998 182M732.0456895999998 182 A2 2 0 0 0 736.0456895999998 182"></path><path stroke-width="0.3" fill="#000000" stroke="none" stroke-dasharray="none" d="M736.0456895999998 192 A2 2 0 0 0 732.0456895999998 192M732.0456895999998 192 A2 2 0 0 0 736.0456895999998 192"></path><g class="vf-stavenote" id="vf-auto3837533"><g class="vf-note" pointer-events="bounding-box"><g class="vf-stem" pointer-events="bounding-box"><path stroke-width="1.5" fill="none" stroke="#000000" stroke-dasharray="none" class="vf-stem" id="vf-auto3837533-stem" d="M709.3288671999999 176.5L709.3288671999999 211.5"></path></g><g class="vf-notehead" pointer-events="bounding-box"><path stroke-width="0.3" fill="#000000" stroke="none" stroke-dasharray="none" d="M708.5788671999999 176.5M715.9358271999998 171.27712C716.0481471999999 171.27712,716.2166271999998 171.27712,716.2447071999999 171.27712C716.2447071999999 171.27712,716.2727871999999 171.27712,716.2727871999999 171.27712C716.2727871999999 171.27712,716.4412671999999 171.27712,716.5816671999999 171.27712C719.1088671999998 171.41752,720.5971071999999 173.07424,720.5971071999999 175.15216C720.5971071999999 176.16304,720.2601471999999 177.31432,719.4177471999999 178.40944C717.8171871999999 180.5716,715.2057471999999 181.75096,712.9312671999999 181.75096C711.1622271999998 181.75096,709.6459071999999 181.04896,708.9158271999999 179.61688C708.6911871999998 179.05528,708.5788671999999 178.52176,708.5788671999999 177.93208C708.5788671999999 174.87136,712.0046271999998 171.47368,715.9358271999998 171.27712"></path></g></g><g class="vf-modifiers"></g></g><g class="vf-text"><text stroke-width="0.3" fill="#000000" stroke="none" stroke-dasharray="none" font-family="Times New Roman" font-size="23px" font-weight="bold" font-style="italic" x="158.4784" y="240.5">mf</text></g><path stroke-width="1" fill="none" stroke="#000000" stroke-dasharray="none" d="M70 259.3L291.74522239999993 259.3"></path><path stroke-width="1" fill="none" stroke="#000000" stroke-dasharray="none" d="M70 269.3L291.74522239999993 269.3"></path><path stroke-width="1" fill="none" stroke="#000000" stroke-dasharray="none" d="M70 279.3L291.74522239999993 279.3"></path><path stroke-width="1" fill="none" stroke="#000000" stroke-dasharray="none" d="M70 289.3L291.74522239999993 289.3"></path><path stroke-width="1" fill="none" stroke="#000000" stroke-dasharray="none" d="M70 299.3L291.74522239999993 299.3"></path><rect stroke-width="0.3" fill="#000000" stroke="#000000" stroke-dasharray="none" x="291.74522239999993" y="258.8" width="1" height="41"></rect><g class="vf-clef"><path stroke-width="0.3" fill="#000000" stroke="none" stroke-dasharray="none" d="M75 269.3M83.8416 259.2488C84.072 259.19120000000004,84.3024 259.19120000000004,84.5616 259.19120000000004C85.5696 259.19120000000004,86.7504 259.3064,87.7584 259.50800000000004C92.4816 260.48720000000003,95.736 263.684,96.3408 267.94640000000004C96.3984 268.4072,96.4272 268.8392,96.4272 269.3C96.4272 271.892,95.5344 275.2328,94.008 278.0264C90.3792 284.5928,83.7552 289.31600000000003,75.8064 291.044C75.6624 291.044,75.5472 291.07280000000003,75.4032 291.07280000000003C75.1152 291.07280000000003,74.9712 290.90000000000003,74.9712 290.6408C74.9712 290.3528,75.0288 290.26640000000003,75.6048 290.036C84.7056 286.60880000000003,90.7824 279.2072,91.3296 270.9128C91.3584 270.4808,91.3584 269.9912,91.3584 269.6168C91.3584 265.58480000000003,90.12 262.5896,87.7296 261.092C86.6928 260.4296,85.5696 260.1128,84.36 260.1128C81.6816 260.1128,78.9456 261.6392,77.6784 264.2024C77.6208 264.404,77.4192 264.836,77.4192 264.8648C77.4192 264.8648,77.4192 264.8648,77.4192 264.8648C77.4192 264.8648,77.448 264.836,77.5344 264.8072C78.168 264.404,78.8592 264.2024,79.5792 264.2024C80.5872 264.2024,81.6528 264.6344,82.4016 265.4408C83.0928 266.1896,83.4672 267.1976,83.4672 268.11920000000003C83.4672 269.9912,82.0848 271.892,79.9248 272.09360000000004C79.7808 272.09360000000004,79.6368 272.1224,79.4928 272.1224C77.1024 272.1224,75.1728 269.9336,75.1728 267.16880000000003C75.1728 267.1112,75.1728 267.0248,75.1728 266.99600000000004C75.288 262.87760000000003,79.0608 259.50800000000004,83.8416 259.2488M99.1632 263.108C99.2208 263.0792,99.2496 263.0792,99.336 263.0792C99.5376 263.0792,99.768 263.108,99.8256 263.16560000000004C100.54560000000001 263.3672,100.8912 264.0008,100.8912 264.60560000000004C100.8912 265.124,100.632 265.6424,100.11359999999999 265.9304C99.912 266.0744,99.6528 266.1032,99.39359999999999 266.1032C98.9904 266.1032,98.5584 265.9304,98.2704 265.55600000000004C98.03999999999999 265.26800000000003,97.9248 264.95120000000003,97.9248 264.6344C97.9248 263.9144,98.3856 263.19440000000003,99.1632 263.108M99.1632 272.5256C99.2208 272.5256,99.2496 272.5256,99.336 272.5256C99.5376 272.5256,99.768 272.5544,99.8256 272.612C100.54560000000001 272.8136,100.8912 273.4472,100.8912 274.052C100.8912 274.5704,100.632 275.0888,100.11359999999999 275.348C99.912 275.492,99.6528 275.5496,99.39359999999999 275.5496C98.9904 275.5496,98.5584 275.348,98.2704 275.0024C98.03999999999999 274.7144,97.9248 274.3976,97.9248 274.052C97.9248 273.332,98.3856 272.6408,99.1632 272.5256"></path></g><path stroke-width="0.3" fill="#000000" stroke="none" stroke-dasharray="none" d="M116 279.3M121.0112 260.9544C121.04 260.92560000000003,121.4432 260.92560000000003,122.6816 260.92560000000003C123.056 260.92560000000003,123.4592 260.92560000000003,123.9776 260.92560000000003L126.8864 260.92560000000003L126.9728 261.012C127.1168 261.0984,127.2032 261.24240000000003,127.2032 261.3576C127.2032 261.5304,127.1168 261.6456,127.0016 261.7608C126.9728 261.8472,126.7136 262.0776,126.5408 262.33680000000004L125.0144 264.09360000000004L123.056 266.3112L122.0192 267.492L120.464 269.2776L118.4192 271.6104C118.0736 272.0424,117.6992 272.38800000000003,117.6992 272.38800000000003C117.6992 272.38800000000003,117.6992 272.38800000000003,117.6992 272.38800000000003C117.6992 272.4456,117.9584 272.4456,120.3488 272.4456L122.9696 272.4456L122.9696 270.5736C122.9696 268.6728,122.9696 268.644,122.9984 268.6152C123.056 268.5288,123.3152 268.212,124.3232 267.0312L124.7264 266.5992L125.1296 266.16720000000004L125.7344 265.38960000000003L126.368 264.72720000000004L126.6848 264.324C126.8 264.1512,126.9728 264.1224,127.1168 264.1224C127.28960000000001 264.1224,127.4336 264.2088,127.52 264.3528C127.5488 264.4392,127.5488 264.4968,127.5488 266.628C127.5488 267.11760000000004,127.5488 267.7224,127.5488 268.4424L127.5488 272.4456L128.2688 272.4456C128.9312 272.4456,128.96 272.4456,129.0464 272.4744C129.2768 272.56080000000003,129.392 272.7912,129.392 273.0504C129.392 273.19440000000003,129.3632 273.3672,129.248 273.4824C129.0752 273.6264,129.0464 273.6264,128.2688 273.6264L127.5488 273.6264L127.5488 274.116C127.5776 275.58480000000003,127.8656 276.1608,128.9888 276.7656C129.392 276.9672,129.4784 277.0248,129.4784 277.31280000000004C129.4784 277.5144,129.42079999999999 277.6008,129.2768 277.716L129.1904 277.7448L125.2448 277.7448L121.328 277.7448L121.2416 277.716C121.0688 277.6008,121.04 277.5144,121.04 277.31280000000004C121.04 277.0248,121.0688 276.9672,121.5008 276.7656C122.624 276.1608,122.912 275.58480000000003,122.912 274.116L122.912 273.6264L119.6 273.6264C118.9952 273.684,118.5056 273.684,118.1024 273.684C116.288 273.684,116.2592 273.6264,116.2304 273.6264C116.0576 273.5688,116 273.396,116 273.19440000000003C116 273.19440000000003,116 273.19440000000003,116 273.19440000000003C116 272.9928,116 272.9928,116.576 272.3304C118.9952 269.3928,120.6944 265.1304,120.6944 261.732C120.6944 261.2136,120.7808 261.0408,121.0112 260.9544M122.7392 279.3288L122.768 279.3288L122.6816 279.3288L122.7392 279.3288M122.7392 259.9176L122.768 259.9176L122.6816 259.9176L122.7392 259.9176"></path><path stroke-width="0.3" fill="#000000" stroke="none" stroke-dasharray="none" d="M116 299.3M121.0112 280.9544C121.04 280.92560000000003,121.4432 280.92560000000003,122.6816 280.92560000000003C123.056 280.92560000000003,123.4592 280.92560000000003,123.9776 280.92560000000003L126.8864 280.92560000000003L126.9728 281.012C127.1168 281.0984,127.2032 281.24240000000003,127.2032 281.3576C127.2032 281.5304,127.1168 281.6456,127.0016 281.7608C126.9728 281.8472,126.7136 282.0776,126.5408 282.33680000000004L125.0144 284.09360000000004L123.056 286.3112L122.0192 287.492L120.464 289.2776L118.4192 291.6104C118.0736 292.0424,117.6992 292.38800000000003,117.6992 292.38800000000003C117.6992 292.38800000000003,117.6992 292.38800000000003,117.6992 292.38800000000003C117.6992 292.4456,117.9584 292.4456,120.3488 292.4456L122.9696 292.4456L122.9696 290.5736C122.9696 288.6728,122.9696 288.644,122.9984 288.6152C123.056 288.5288,123.3152 288.212,124.3232 287.0312L124.7264 286.5992L125.1296 286.16720000000004L125.7344 285.38960000000003L126.368 284.72720000000004L126.6848 284.324C126.8 284.1512,126.9728 284.1224,127.1168 284.1224C127.28960000000001 284.1224,127.4336 284.2088,127.52 284.3528C127.5488 284.4392,127.5488 284.4968,127.5488 286.628C127.5488 287.11760000000004,127.5488 287.7224,127.5488 288.4424L127.5488 292.4456L128.2688 292.4456C128.9312 292.4456,128.96 292.4456,129.0464 292.4744C129.2768 292.56080000000003,129.392 292.7912,129.392 293.0504C129.392 293.19440000000003,129.3632 293.3672,129.248 293.4824C129.0752 293.6264,129.0464 293.6264,128.2688 293.6264L127.5488 293.6264L127.5488 294.116C127.5776 295.58480000000003,127.8656 296.1608,128.9888 296.7656C129.392 296.9672,129.4784 297.0248,129.4784 297.31280000000004C129.4784 297.5144,129.42079999999999 297.6008,129.2768 297.716L129.1904 297.7448L125.2448 297.7448L121.328 297.7448L121.2416 297.716C121.0688 297.6008,121.04 297.5144,121.04 297.31280000000004C121.04 297.0248,121.0688 296.9672,121.5008 296.7656C122.624 296.1608,122.912 295.58480000000003,122.912 294.116L122.912 293.6264L119.6 293.6264C118.9952 293.684,118.5056 293.684,118.1024 293.684C116.288 293.684,116.2592 293.6264,116.2304 293.6264C116.0576 293.5688,116 293.396,116 293.19440000000003C116 293.19440000000003,116 293.19440000000003,116 293.19440000000003C116 292.9928,116 292.9928,116.576 292.3304C118.9952 289.3928,120.6944 285.1304,120.6944 281.732C120.6944 281.2136,120.7808 281.0408,121.0112 280.9544M122.7392 299.3288L122.768 299.3288L122.6816 299.3288L122.7392 299.3288M122.7392 279.9176L122.768 279.9176L122.6816 279.9176L122.7392 279.9176"></path><g class="vf-stavenote" id="vf-auto3837425"><g class="vf-note" pointer-events="bounding-box"><g class="vf-stem" pointer-events="bounding-box"><path stroke-width="1.5" fill="none" stroke="#000000" stroke-dasharray="none" class="vf-stem" id="vf-auto3837425-stem" d="M152.74663999999999 294.3L152.74663999999999 259.3"></path></g><g class="vf-notehead" pointer-events="bounding-box"><path stroke-width="0.3" fill="#000000" stroke="none" stroke-dasharray="none" d="M141.4784 294.3M148.83535999999998 289.07712000000004C148.94768 289.07712000000004,149.11615999999998 289.07712000000004,149.14424 289.07712000000004C149.14424 289.07712000000004,149.17231999999998 289.07712000000004,149.17231999999998 289.07712000000004C149.17231999999998 289.07712000000004,149.3408 289.07712000000004,149.4812 289.07712000000004C152.0084 289.21752000000004,153.49663999999999 290.87424,153.49663999999999 292.95216C153.49663999999999 293.96304000000003,153.15967999999998 295.11432,152.31727999999998 296.20944000000003C150.71671999999998 298.3716,148.10528 299.55096000000003,145.83079999999998 299.55096000000003C144.06176 299.55096000000003,142.54543999999999 298.84896000000003,141.81536 297.41688C141.59072 296.85528,141.4784 296.32176,141.4784 295.73208C141.4784 292.67136,144.90416 289.27368,148.83535999999998 289.07712000000004"></path></g></g><g class="vf-modifiers"></g></g><g class="vf-stavenote" id="vf-auto3837433"><g class="vf-note" pointer-events="bounding-box"><g class="vf-stem" pointer-events="bounding-box"><path stroke-width="1.5" fill="none" stroke="#000000" stroke-dasharray="none" class="vf-stem" id="vf-auto3837433-stem" d="M190.62704 289.3L190.62704 254.3"></path></g><g class="vf-notehead" pointer-events="bounding-box"><path stroke-width="0.3" fill="#000000" stroke="none" stroke-dasharray="none" d="M179.3588 289.3M186.71576 284.07712000000004C186.82808 284.07712000000004,186.99656 284.07712000000004,187.02464 284.07712000000004C187.02464 284.07712000000004,187.05272 284.07712000000004,187.05272 284.07712000000004C187.05272 284.07712000000004,187.2212 284.07712000000004,187.3616 284.07712000000004C189.8888 284.21752000000004,191.37704 285.87424,191.37704 287.95216C191.37704 288.96304000000003,191.04008 290.11432,190.19768 291.20944000000003C188.59712 293.3716,185.98568 294.55096000000003,183.7112 294.55096000000003C181.94216 294.55096000000003,180.42584 293.84896000000003,179.69576 292.41688C179.47112 291.85528,179.3588 291.32176,179.3588 290.73208C179.3588 287.67136,182.78456 284.27368,186.71576 284.07712000000004"></path></g></g><g class="vf-modifiers"></g></g><g class="vf-stavenote" id="vf-auto3837441"><g class="vf-note" pointer-events="bounding-box"><g class="vf-stem" pointer-events="bounding-box"><path stroke-width="1.5" fill="none" stroke="#000000" stroke-dasharray="none" class="vf-stem" id="vf-auto3837441-stem" d="M228.50743999999997 294.3L228.50743999999997 259.3"></path></g><g class="vf-notehead" pointer-events="bounding-box"><path stroke-width="0.3" fill="#000000" stroke="none" stroke-dasharray="none" d="M217.23919999999998 294.3M224.59615999999997 289.07712000000004C224.70847999999998 289.07712000000004,224.87696 289.07712000000004,224.90503999999999 289.07712000000004C224.90503999999999 289.07712000000004,224.93311999999997 289.07712000000004,224.93311999999997 289.07712000000004C224.93311999999997 289.07712000000004,225.1016 289.07712000000004,225.242 289.07712000000004C227.76919999999998 289.21752000000004,229.25743999999997 290.87424,229.25743999999997 292.95216C229.25743999999997 293.96304000000003,228.92048 295.11432,228.07807999999997 296.20944000000003C226.47751999999997 298.3716,223.86607999999998 299.55096000000003,221.59159999999997 299.55096000000003C219.82255999999998 299.55096000000003,218.30623999999997 298.84896000000003,217.57616 297.41688C217.35152 296.85528,217.23919999999998 296.32176,217.23919999999998 295.73208C217.23919999999998 292.67136,220.66495999999998 289.27368,224.59615999999997 289.07712000000004"></path></g></g><g class="vf-modifiers"></g></g><g class="vf-stavenote" id="vf-auto3837449"><g class="vf-note" pointer-events="bounding-box"><g class="vf-stem" pointer-events="bounding-box"><path stroke-width="1.5" fill="none" stroke="#000000" stroke-dasharray="none" class="vf-stem" id="vf-auto3837449-stem" d="M255.8696 274.3L255.8696 309.3"></path></g><g class="vf-notehead" pointer-events="bounding-box"><path stroke-width="0.3" fill="#000000" stroke="none" stroke-dasharray="none" d="M255.1196 274.3M262.47656 269.07712000000004C262.58888 269.07712000000004,262.75736 269.07712000000004,262.78544 269.07712000000004C262.78544 269.07712000000004,262.81352 269.07712000000004,262.81352 269.07712000000004C262.81352 269.07712000000004,262.98199999999997 269.07712000000004,263.12239999999997 269.07712000000004C265.64959999999996 269.21752000000004,267.13784 270.87424,267.13784 272.95216C267.13784 273.96304000000003,266.80088 275.11432,265.95848 276.20944000000003C264.35792 278.3716,261.74648 279.55096000000003,259.472 279.55096000000003C257.70296 279.55096000000003,256.18664 278.84896000000003,255.45656 277.41688C255.23192 276.85528,255.1196 276.32176,255.1196 275.73208C255.1196 272.67136,258.54536 269.27368,262.47656 269.07712000000004"></path></g></g><g class="vf-modifiers"></g></g><rect stroke-width="0.3" fill="#000000" stroke="#000000" stroke-dasharray="none" x="291.74522239999993" y="166.5" width="1" height="133.8"></rect><rect stroke-width="0.3" fill="#000000" stroke="#000000" stroke-dasharray="none" x="70" y="166.5" width="1" height="133.8"></rect><path stroke-width="1" fill="none" stroke="#000000" stroke-dasharray="none" d="M291.74522239999993 259.3L439.9120447999999 259.3"></path><path stroke-width="1" fill="none" stroke="#000000" stroke-dasharray="none" d="M291.74522239999993 269.3L439.9120447999999 269.3"></path><path stroke-width="1" fill="none" stroke="#000000" stroke-dasharray="none" d="M291.74522239999993 279.3L439.9120447999999 279.3"></path><path stroke-width="1" fill="none" stroke="#000000" stroke-dasharray="none" d="M291.74522239999993 289.3L439.9120447999999 289.3"></path><path stroke-width="1" fill="none" stroke="#000000" stroke-dasharray="none" d="M291.74522239999993 299.3L439.9120447999999 299.3"></path><rect stroke-width="0.3" fill="#000000" stroke="#000000" stroke-dasharray="none" x="439.9120447999999" y="258.8" width="1" height="41"></rect><g class="vf-stavenote" id="vf-auto3837476"><g class="vf-note" pointer-events="bounding-box"><g class="vf-stem" pointer-events="bounding-box"><path stroke-width="1.5" fill="none" stroke="#000000" stroke-dasharray="none" class="vf-stem" id="vf-auto3837476-stem" d="M353.2634623999999 284.3L353.2634623999999 249.3"></path></g><g class="vf-notehead" pointer-events="bounding-box"><path stroke-width="0.3" fill="#000000" stroke="none" stroke-dasharray="none" d="M341.99522239999993 284.3M349.35218239999995 279.07712000000004C349.46450239999996 279.07712000000004,349.63298239999995 279.07712000000004,349.66106239999993 279.07712000000004C349.66106239999993 279.07712000000004,349.6891423999999 279.07712000000004,349.6891423999999 279.07712000000004C349.6891423999999 279.07712000000004,349.8576223999999 279.07712000000004,349.9980223999999 279.07712000000004C352.52522239999996 279.21752000000004,354.0134623999999 280.87424,354.0134623999999 282.95216C354.0134623999999 283.96304000000003,353.67650239999995 285.11432,352.83410239999995 286.20944000000003C351.2335423999999 288.3716,348.6221023999999 289.55096000000003,346.3476223999999 289.55096000000003C344.57858239999996 289.55096000000003,343.06226239999995 288.84896000000003,342.3321823999999 287.41688C342.10754239999994 286.85528,341.99522239999993 286.32176,341.99522239999993 285.73208C341.99522239999993 282.67136,345.42098239999996 279.27368,349.35218239999995 279.07712000000004"></path></g></g><g class="vf-modifiers"></g></g><g class="vf-stavenote" id="vf-auto3837484"><g class="vf-note" pointer-events="bounding-box"><g class="vf-stem" pointer-events="bounding-box"><path stroke-width="1.5" fill="none" stroke="#000000" stroke-dasharray="none" class="vf-stem" id="vf-auto3837484-stem" d="M386.5134623999999 289.3L386.5134623999999 254.3"></path></g><g class="vf-notehead" pointer-events="bounding-box"><path stroke-width="0.3" fill="#000000" stroke="none" stroke-dasharray="none" d="M375.24522239999993 289.3M382.60218239999995 284.07712000000004C382.71450239999996 284.07712000000004,382.88298239999995 284.07712000000004,382.91106239999993 284.07712000000004C382.91106239999993 284.07712000000004,382.9391423999999 284.07712000000004,382.9391423999999 284.07712000000004C382.9391423999999 284.07712000000004,383.1076223999999 284.07712000000004,383.2480223999999 284.07712000000004C385.77522239999996 284.21752000000004,387.2634623999999 285.87424,387.2634623999999 287.95216C387.2634623999999 288.96304000000003,386.92650239999995 290.11432,386.08410239999995 291.20944000000003C384.4835423999999 293.3716,381.8721023999999 294.55096000000003,379.5976223999999 294.55096000000003C377.82858239999996 294.55096000000003,376.31226239999995 293.84896000000003,375.5821823999999 292.41688C375.35754239999994 291.85528,375.24522239999993 291.32176,375.24522239999993 290.73208C375.24522239999993 287.67136,378.67098239999996 284.27368,382.60218239999995 284.07712000000004"></path></g></g><g class="vf-modifiers"></g></g><rect stroke-width="0.3" fill="#000000" stroke="#000000" stroke-dasharray="none" x="439.9120447999999" y="166.5" width="1" height="133.8"></rect><path stroke-width="1" fill="none" stroke="#000000" stroke-dasharray="none" d="M439.91204479999993 259.3L588.0788671999999 259.3"></path><path stroke-width="1" fill="none" stroke="#000000" stroke-dasharray="none" d="M439.91204479999993 269.3L588.0788671999999 269.3"></path><path stroke-width="1" fill="none" stroke="#000000" stroke-dasharray="none" d="M439.91204479999993 279.3L588.0788671999999 279.3"></path><path stroke-width="1" fill="none" stroke="#000000" stroke-dasharray="none" d="M439.91204479999993 289.3L588.0788671999999 289.3"></path><path stroke-width="1" fill="none" stroke="#000000" stroke-dasharray="none" d="M439.91204479999993 299.3L588.0788671999999 299.3"></path><rect stroke-width="0.3" fill="#000000" stroke="#000000" stroke-dasharray="none" x="588.0788671999999" y="258.8" width="1" height="41"></rect><path stroke-width="1" fill="none" stroke="#000000" stroke-dasharray="none" d="M453.91204479999993 249.3L471.9302847999999 249.3"></path><g class="vf-stavenote" id="vf-auto3837514"><g class="vf-note" pointer-events="bounding-box"><g class="vf-stem" pointer-events="bounding-box"><path stroke-width="1.5" fill="none" stroke="#000000" stroke-dasharray="none" class="vf-stem" id="vf-auto3837514-stem" d="M457.66204479999993 244.3L457.66204479999993 279.3"></path></g><g class="vf-notehead" pointer-events="bounding-box"><path stroke-width="0.3" fill="#000000" stroke="none" stroke-dasharray="none" d="M456.91204479999993 244.3M464.26900479999995 239.07712C464.38132479999996 239.07712,464.54980479999995 239.07712,464.57788479999994 239.07712C464.57788479999994 239.07712,464.6059647999999 239.07712,464.6059647999999 239.07712C464.6059647999999 239.07712,464.7744447999999 239.07712,464.9148447999999 239.07712C467.44204479999996 239.21752,468.9302847999999 240.87424000000001,468.9302847999999 242.95216000000002C468.9302847999999 243.96304,468.59332479999995 245.11432000000002,467.75092479999995 246.20944C466.1503647999999 248.3716,463.5389247999999 249.55096,461.2644447999999 249.55096C459.49540479999996 249.55096,457.97908479999995 248.84896,457.2490047999999 247.41688000000002C457.02436479999994 246.85528000000002,456.91204479999993 246.32176,456.91204479999993 245.73208000000002C456.91204479999993 242.67136000000002,460.33780479999996 239.27368,464.26900479999995 239.07712"></path></g></g><g class="vf-modifiers"></g></g><path stroke-width="1" fill="none" stroke="#000000" stroke-dasharray="none" d="M520.4120447999999 249.3L538.4302847999999 249.3"></path><g class="vf-stavenote" id="vf-auto3837522"><g class="vf-note" pointer-events="bounding-box"><g class="vf-stem" pointer-events="bounding-box"><path stroke-width="1.5" fill="none" stroke="#000000" stroke-dasharray="none" class="vf-stem" id="vf-auto3837522-stem" d="M524.1620447999999 249.3L524.1620447999999 284.3"></path></g><g class="vf-notehead" pointer-events="bounding-box"><path stroke-width="0.3" fill="#000000" stroke="none" stroke-dasharray="none" d="M523.4120447999999 249.3M530.7690047999998 244.07712C530.8813247999999 244.07712,531.0498047999998 244.07712,531.0778847999999 244.07712C531.0778847999999 244.07712,531.1059647999999 244.07712,531.1059647999999 244.07712C531.1059647999999 244.07712,531.2744447999999 244.07712,531.4148447999999 244.07712C533.9420447999998 244.21752,535.4302847999999 245.87424000000001,535.4302847999999 247.95216000000002C535.4302847999999 248.96304,535.0933247999999 250.11432000000002,534.2509247999999 251.20944C532.6503647999999 253.3716,530.0389247999999 254.55096,527.7644447999999 254.55096C525.9954047999998 254.55096,524.4790847999999 253.84896,523.7490047999999 252.41688000000002C523.5243647999998 251.85528000000002,523.4120447999999 251.32176,523.4120447999999 250.73208000000002C523.4120447999999 247.67136000000002,526.8378047999998 244.27368,530.7690047999998 244.07712"></path></g></g><g class="vf-modifiers"></g></g><rect stroke-width="0.3" fill="#000000" stroke="#000000" stroke-dasharray="none" x="588.0788671999999" y="166.5" width="1" height="133.8"></rect><path stroke-width="1" fill="none" stroke="#000000" stroke-dasharray="none" d="M588.0788671999999 259.3L742.0456895999998 259.3"></path><path stroke-width="1" fill="none" stroke="#000000" stroke-dasharray="none" d="M588.0788671999999 269.3L742.0456895999998 269.3"></path><path stroke-width="1" fill="none" stroke="#000000" stroke-dasharray="none" d="M588.0788671999999 279.3L742.0456895999998 279.3"></path><path stroke-width="1" fill="none" stroke="#000000" stroke-dasharray="none" d="M588.0788671999999 289.3L742.0456895999998 289.3"></path><path stroke-width="1" fill="none" stroke="#000000" stroke-dasharray="none" d="M588.0788671999999 299.3L742.0456895999998 299.3"></path><rect stroke-width="0.3" fill="#000000" stroke="#000000" stroke-dasharray="none" x="737.0456895999998" y="258.8" width="1" height="41"></rect><rect stroke-width="0.3" fill="#000000" stroke="#000000" stroke-dasharray="none" x="740.0456895999998" y="258.8" width="3" height="41"></rect><path stroke-width="0.3" fill="#000000" stroke="none" stroke-dasharray="none" d="M736.0456895999998 274.8 A2 2 0 0 0 732.0456895999998 274.8M732.0456895999998 274.8 A2 2 0 0 0 736.0456895999998 274.8"></path><path stroke-width="0.3" fill="#000000" stroke="none" stroke-dasharray="none" d="M736.0456895999998 284.8 A2 2 0 0 0 732.0456895999998 284.8M732.0456895999998 284.8 A2 2 0 0 0 736.0456895999998 284.8"></path><g class="vf-stavenote" id="vf-auto3837544"><g class="vf-note" pointer-events="bounding-box"><g class="vf-stem" pointer-events="bounding-box"><path stroke-width="1.5" fill="none" stroke="#000000" stroke-dasharray="none" class="vf-stem" id="vf-auto3837544-stem" d="M616.3471071999999 289.3L616.3471071999999 254.3"></path></g><g class="vf-notehead" pointer-events="bounding-box"><path stroke-width="0.3" fill="#000000" stroke="none" stroke-dasharray="none" d="M605.0788671999999 289.3M612.4358271999998 284.07712000000004C612.5481471999999 284.07712000000004,612.7166271999998 284.07712000000004,612.7447071999999 284.07712000000004C612.7447071999999 284.07712000000004,612.7727871999999 284.07712000000004,612.7727871999999 284.07712000000004C612.7727871999999 284.07712000000004,612.9412671999999 284.07712000000004,613.0816671999999 284.07712000000004C615.6088671999998 284.21752000000004,617.0971071999999 285.87424,617.0971071999999 287.95216C617.0971071999999 288.96304000000003,616.7601471999999 290.11432,615.9177471999999 291.20944000000003C614.3171871999999 293.3716,611.7057471999999 294.55096000000003,609.4312671999999 294.55096000000003C607.6622271999998 294.55096000000003,606.1459071999999 293.84896000000003,605.4158271999999 292.41688C605.1911871999998 291.85528,605.0788671999999 291.32176,605.0788671999999 290.73208C605.0788671999999 287.67136,608.5046271999998 284.27368,612.4358271999998 284.07712000000004"></path></g></g><g class="vf-modifiers"></g></g><g class="vf-stavenote" id="vf-auto3837552"><g class="vf-note" pointer-events="bounding-box"><g class="vf-stem" pointer-events="bounding-box"><path stroke-width="1.5" fill="none" stroke="#000000" stroke-dasharray="none" class="vf-stem" id="vf-auto3837552-stem" d="M650.8471071999999 289.3L650.8471071999999 254.3"></path></g><g class="vf-notehead" pointer-events="bounding-box"><path stroke-width="0.3" fill="#000000" stroke="none" stroke-dasharray="none" d="M639.5788671999999 289.3M646.9358271999998 284.07712000000004C647.0481471999999 284.07712000000004,647.2166271999998 284.07712000000004,647.2447071999999 284.07712000000004C647.2447071999999 284.07712000000004,647.2727871999999 284.07712000000004,647.2727871999999 284.07712000000004C647.2727871999999 284.07712000000004,647.4412671999999 284.07712000000004,647.5816671999999 284.07712000000004C650.1088671999998 284.21752000000004,651.5971071999999 285.87424,651.5971071999999 287.95216C651.5971071999999 288.96304000000003,651.2601471999999 290.11432,650.4177471999999 291.20944000000003C648.8171871999999 293.3716,646.2057471999999 294.55096000000003,643.9312671999999 294.55096000000003C642.1622271999998 294.55096000000003,640.6459071999999 293.84896000000003,639.9158271999999 292.41688C639.6911871999998 291.85528,639.5788671999999 291.32176,639.5788671999999 290.73208C639.5788671999999 287.67136,643.0046271999998 284.27368,646.9358271999998 284.07712000000004"></path></g></g><g class="vf-modifiers"></g></g><g class="vf-stavenote" id="vf-auto3837560"><g class="vf-note" pointer-events="bounding-box"><g class="vf-stem" pointer-events="bounding-box"><path stroke-width="1.5" fill="none" stroke="#000000" stroke-dasharray="none" class="vf-stem" id="vf-auto3837560-stem" d="M674.8288671999999 259.3L674.8288671999999 294.3"></path></g><g class="vf-notehead" pointer-events="bounding-box"><path stroke-width="0.3" fill="#000000" stroke="none" stroke-dasharray="none" d="M674.0788671999999 259.3M681.4358271999998 254.07712C681.5481471999999 254.07712,681.7166271999998 254.07712,681.7447071999999 254.07712C681.7447071999999 254.07712,681.7727871999999 254.07712,681.7727871999999 254.07712C681.7727871999999 254.07712,681.9412671999999 254.07712,682.0816671999999 254.07712C684.6088671999998 254.21752,686.0971071999999 255.87424000000001,686.0971071999999 257.95216C686.0971071999999 258.96304000000003,685.7601471999999 260.11432,684.9177471999999 261.20944000000003C683.3171871999999 263.3716,680.7057471999999 264.55096000000003,678.4312671999999 264.55096000000003C676.6622271999998 264.55096000000003,675.1459071999999 263.84896000000003,674.4158271999999 262.41688C674.1911871999998 261.85528,674.0788671999999 261.32176,674.0788671999999 260.73208C674.0788671999999 257.67136,677.5046271999998 254.27368,681.4358271999998 254.07712"></path></g></g><g class="vf-modifiers"></g></g><rect stroke-width="0.3" fill="#000000" stroke="#000000" stroke-dasharray="none" x="737.0456895999998" y="166.5" width="1" height="133.8"></rect><rect stroke-width="0.3" fill="#000000" stroke="#000000" stroke-dasharray="none" x="740.0456895999998" y="166.5" width="3" height="133.8"></rect><path stroke-width="0.3" fill="#000000" stroke="none" stroke-dasharray="none" d="M68 166.5C45.2 193.26,81.2 215.337,56 233.4C81.2 251.46300000000002,45.2 273.54,68 300.3C44 273.54,72.8 251.46300000000002,56 233.4C72.8 215.337,44 193.26,68 166.5"></path><path stroke-width="1" fill="none" stroke="#000000" stroke-dasharray="none" d="M68 166.5C45.2 193.26,81.2 215.337,56 233.4C81.2 251.46300000000002,45.2 273.54,68 300.3C44 273.54,72.8 251.46300000000002,56 233.4C72.8 215.337,44 193.26,68 166.5"></path><g class="vf-text"><text stroke-width="0.3" fill="#000000" stroke="none" stroke-dasharray="none" font-family="Times New Roman" font-size="15px" font-weight="normal" font-style="normal" x="436.41204479999993" y="163.5">3</text></g></svg>