<svg xmlns="http://www.w3.org/2000/svg"  width="1470" height="396.79999999999995" viewBox="0 0 1470 396.79999999999995"><path stroke-width="1" fill="none" stroke="#000000" stroke-dasharray="none" d="M70 166.5L295.9452224 166.5"></path><path stroke-width="1" fill="none" stroke="#000000" stroke-dasharray="none" d="M70 176.5L295.9452224 176.5"></path><path stroke-width="1" fill="none" stroke="#000000" stroke-dasharray="none" d="M70 186.5L295.9452224 186.5"></path><path stroke-width="1" fill="none" stroke="#000000" stroke-dasharray="none" d="M70 196.5L295.9452224 196.5"></path><path stroke-width="1" fill="none" stroke="#000000" stroke-dasharray="none" d="M70 206.5L295.9452224 206.5"></path><rect stroke-width="0.3" fill="#000000" stroke="#000000" stroke-dasharray="none" x="295.9452224" y="166" width="1" height="41"></rect><g class="vf-clef"><path stroke-width="0.3" fill="#000000" stroke="none" stroke-dasharray="none" d="M75 196.5M89.0544 153.3288C89.112 153.3,89.1696 153.3,89.256 153.3C89.6016 153.3,90.0048 153.588,90.5808 154.308C92.9136 156.9864,94.5552 161.652,94.5552 165.4536C94.5552 165.7416,94.4976 165.972,94.4976 166.26C94.2384 170.7816,92.3952 174.4968,88.7376 178.0104L87.7584 178.9608L87.4128 179.3352L87.4128 179.4504L87.6144 180.3144L87.9312 181.8696L88.248 183.3096C88.68 185.268,88.8528 186.276,88.8528 186.276C88.8528 186.276,88.8528 186.276,88.8528 186.276C88.8528 186.276,88.968 186.276,89.112 186.2472C89.256 186.2472,89.7168 186.1896,90.2064 186.1896C90.55199999999999 186.1896,90.8976 186.2472,91.0704 186.2472C95.1312 186.7656,98.2704 189.6744,99.1632 193.764C99.336 194.4264,99.39359999999999 195.1464,99.39359999999999 195.8664C99.39359999999999 199.7544,97.0608 203.4696,93.1728 205.2264C92.94239999999999 205.3704,92.856 205.3992,92.856 205.3992L92.856 205.428C92.856 205.428,93.0288 206.0904,93.1728 206.8392L93.6048 209.028L94.008 210.7848C94.2384 211.908,94.3536 212.7144,94.3536 213.4344C94.3536 214.06799999999998,94.2672 214.644,94.1232 215.3064C93.144 219.3096,89.6592 221.7,86.0304 221.7C84.2448 221.7,82.4016 221.124,80.7888 219.828C79.3488 218.6184,78.7152 217.524,78.7152 216.084C78.7152 213.5496,80.76 211.764,82.8912 211.764C83.64 211.764,84.3888 211.99439999999998,85.1088 212.4264C86.3184 213.2616,86.8656 214.5288,86.8656 215.7672C86.8656 217.668,85.5408 219.54,83.2656 219.684L83.0352 219.684L83.208 219.79919999999998C84.1584 220.2024,85.1088 220.404,86.0304 220.404C88.3632 220.404,90.55199999999999 219.2232,91.8768 217.1784C92.62559999999999 216.0264,93.0288 214.6728,93.0288 213.3192C93.0288 212.8008,92.94239999999999 212.2824,92.8272 211.7064C92.8272 211.6488,92.74080000000001 211.188,92.62559999999999 210.756C91.992 207.6456,91.6176 205.8312,91.6176 205.8312C91.6176 205.8312,91.6176 205.8312,91.6176 205.8312C91.56 205.8312,91.4448 205.8312,91.3584 205.8888C91.0704 205.9464,90.4656 206.0904,90.2064 206.1192C89.5728 206.2056,88.968 206.2344,88.392 206.2344C82.74719999999999 206.2344,77.5056 202.4328,75.6912 196.8168C75.2304 195.3192,74.9712 193.8216,74.9712 192.324C74.9712 189.3288,75.9216 186.3912,77.7648 183.7704C79.7808 180.9192,81.7968 178.4712,84.2736 175.9368L85.13759999999999 175.044L84.936 173.9784L84.5616 172.2216L84.072 169.9752C83.928 169.14,83.7552 168.3336,83.7264 168.1608C83.5824 167.2104,83.496 166.2888,83.496 165.3384C83.496 161.7096,84.6768 158.22480000000002,86.8944 155.4312C87.5568 154.5672,88.7376 153.4152,89.0544 153.3288M90.8112 159.0312C90.7536 159.0312,90.6672 159.0312,90.5808 159.0312C89.4 159.0312,87.8736 160.1256,86.8368 161.7384C85.7712 163.32240000000002,85.224 165.4248,85.224 167.5848C85.224 168.1608,85.25280000000001 168.7656,85.3392 169.3704C85.4256 169.8024,85.45439999999999 170.0904,85.6848 171.12720000000002L86.088 172.9416C86.2032 173.4888,86.28960000000001 173.92079999999999,86.28960000000001 173.9784L86.28960000000001 173.9784C86.3184 173.9784,87.2112 172.9992,87.4992 172.6536C90.3792 169.3992,92.1072 165.972,92.4816 162.948C92.5104 162.66,92.5104 162.4296,92.5104 162.1416C92.5104 161.24880000000002,92.3952 160.38479999999998,92.1936 159.924C91.9632 159.4632,91.4448 159.0888,90.8112 159.0312M86.4624 181.2936C86.4048 180.8904,86.3184 180.5736,86.3184 180.516C86.3184 180.516,86.3184 180.516,86.28960000000001 180.516C86.232 180.516,84.9936 181.956,84.1296 182.964C82.6608 184.7496,81.1056 186.8808,80.472 187.9176C79.2624 189.9624,78.6576 192.2376,78.6576 194.484C78.6576 195.9528,78.9456 197.364,79.464 198.7176C81.0192 202.7208,84.5904 205.2264,88.4784 205.2264C88.9392 205.2264,89.4576 205.1976,89.9472 205.1112C90.5808 204.996,91.3584 204.7656,91.3584 204.6792L91.3584 204.6792C91.3584 204.6792,91.3008 204.3912,91.2144 204.0744L90.3792 199.956L89.7168 196.8744L89.2848 194.7432L88.824 192.6696C88.5936 191.4312,88.5072 191.1144,88.5072 191.1144C88.5072 191.1144,88.5072 191.0856,88.4784 191.0856C88.3056 191.0856,87.384 191.5464,86.9808 191.8344C85.4832 192.8712,84.7056 194.5128,84.7056 196.1256C84.7056 197.652,85.45439999999999 199.1784,86.8944 200.0712C87.2112 200.2728,87.3264 200.4456,87.3264 200.6472C87.3264 200.676,87.3264 200.7624,87.3264 200.7912C87.2688 201.1368,87.0672 201.2808,86.7792 201.2808C86.664 201.2808,86.52 201.252,86.3472 201.1656C83.6976 200.0136,81.912 197.2776,81.912 194.2824L81.912 194.2824C81.912 190.8264,84.072 187.8312,87.384 186.6504L87.5568 186.5928L87.2688 185.1528L86.4624 181.2936M90.7824 190.9128C90.55199999999999 190.88400000000001,90.3216 190.88400000000001,90.1488 190.88400000000001C90.0912 190.88400000000001,90.0048 190.88400000000001,89.9472 190.88400000000001L89.8032 190.88400000000001L89.9184 191.4024L90.5232 194.2248L90.8976 196.068L91.3008 197.8824L92.1072 201.8856L92.424 203.412C92.5392 203.8152,92.5968 204.1608,92.62559999999999 204.1608C92.62559999999999 204.1608,92.62559999999999 204.1608,92.62559999999999 204.1608C92.6544 204.1608,93.144 203.8728,93.4608 203.6424C94.9296 202.6056,96.024 200.9928,96.4272 199.3224C96.5712 198.7752,96.6288 198.1992,96.6288 197.652C96.6288 194.3112,94.152 191.2872,90.7824 190.9128"></path></g><path stroke-width="0.3" fill="#000000" stroke="none" stroke-dasharray="none" d="M116 186.5M121.0112 168.1544C121.04 168.1256,121.4432 168.1256,122.6816 168.1256C123.056 168.1256,123.4592 168.1256,123.9776 168.1256L126.8864 168.1256L126.9728 168.212C127.1168 168.29840000000002,127.2032 168.4424,127.2032 168.5576C127.2032 168.7304,127.1168 168.8456,127.0016 168.9608C126.9728 169.0472,126.7136 169.2776,126.5408 169.5368L125.0144 171.2936L123.056 173.5112L122.0192 174.692L120.464 176.4776L118.4192 178.8104C118.0736 179.2424,117.6992 179.588,117.6992 179.588C117.6992 179.588,117.6992 179.588,117.6992 179.588C117.6992 179.6456,117.9584 179.6456,120.3488 179.6456L122.9696 179.6456L122.9696 177.7736C122.9696 175.8728,122.9696 175.844,122.9984 175.8152C123.056 175.7288,123.3152 175.412,124.3232 174.2312L124.7264 173.7992L125.1296 173.3672L125.7344 172.5896L126.368 171.9272L126.6848 171.524C126.8 171.3512,126.9728 171.3224,127.1168 171.3224C127.28960000000001 171.3224,127.4336 171.4088,127.52 171.5528C127.5488 171.6392,127.5488 171.6968,127.5488 173.828C127.5488 174.3176,127.5488 174.9224,127.5488 175.6424L127.5488 179.6456L128.2688 179.6456C128.9312 179.6456,128.96 179.6456,129.0464 179.6744C129.2768 179.7608,129.392 179.9912,129.392 180.2504C129.392 180.3944,129.3632 180.5672,129.248 180.6824C129.0752 180.8264,129.0464 180.8264,128.2688 180.8264L127.5488 180.8264L127.5488 181.316C127.5776 182.7848,127.8656 183.3608,128.9888 183.9656C129.392 184.1672,129.4784 184.2248,129.4784 184.5128C129.4784 184.7144,129.42079999999999 184.8008,129.2768 184.916L129.1904 184.9448L125.2448 184.9448L121.328 184.9448L121.2416 184.916C121.0688 184.8008,121.04 184.7144,121.04 184.5128C121.04 184.2248,121.0688 184.1672,121.5008 183.9656C122.624 183.3608,122.912 182.7848,122.912 181.316L122.912 180.8264L119.6 180.8264C118.9952 180.88400000000001,118.5056 180.88400000000001,118.1024 180.88400000000001C116.288 180.88400000000001,116.2592 180.8264,116.2304 180.8264C116.0576 180.7688,116 180.596,116 180.3944C116 180.3944,116 180.3944,116 180.3944C116 180.1928,116 180.1928,116.576 179.5304C118.9952 176.5928,120.6944 172.3304,120.6944 168.93200000000002C120.6944 168.4136,120.7808 168.2408,121.0112 168.1544M122.7392 186.5288L122.768 186.5288L122.6816 186.5288L122.7392 186.5288M122.7392 167.1176L122.768 167.1176L122.6816 167.1176L122.7392 167.1176"></path><path stroke-width="0.3" fill="#000000" stroke="none" stroke-dasharray="none" d="M116 206.5M121.0112 188.1544C121.04 188.1256,121.4432 188.1256,122.6816 188.1256C123.056 188.1256,123.4592 188.1256,123.9776 188.1256L126.8864 188.1256L126.9728 188.212C127.1168 188.29840000000002,127.2032 188.4424,127.2032 188.5576C127.2032 188.7304,127.1168 188.8456,127.0016 188.9608C126.9728 189.0472,126.7136 189.2776,126.5408 189.5368L125.0144 191.2936L123.056 193.5112L122.0192 194.692L120.464 196.4776L118.4192 198.8104C118.0736 199.2424,117.6992 199.588,117.6992 199.588C117.6992 199.588,117.6992 199.588,117.6992 199.588C117.6992 199.6456,117.9584 199.6456,120.3488 199.6456L122.9696 199.6456L122.9696 197.7736C122.9696 195.8728,122.9696 195.844,122.9984 195.8152C123.056 195.7288,123.3152 195.412,124.3232 194.2312L124.7264 193.7992L125.1296 193.3672L125.7344 192.5896L126.368 191.9272L126.6848 191.524C126.8 191.3512,126.9728 191.3224,127.1168 191.3224C127.28960000000001 191.3224,127.4336 191.4088,127.52 191.5528C127.5488 191.6392,127.5488 191.6968,127.5488 193.828C127.5488 194.3176,127.5488 194.9224,127.5488 195.6424L127.5488 199.6456L128.2688 199.6456C128.9312 199.6456,128.96 199.6456,129.0464 199.6744C129.2768 199.7608,129.392 199.9912,129.392 200.2504C129.392 200.3944,129.3632 200.5672,129.248 200.6824C129.0752 200.8264,129.0464 200.8264,128.2688 200.8264L127.5488 200.8264L127.5488 201.316C127.5776 202.7848,127.8656 203.3608,128.9888 203.9656C129.392 204.1672,129.4784 204.2248,129.4784 204.5128C129.4784 204.7144,129.42079999999999 204.8008,129.2768 204.916L129.1904 204.9448L125.2448 204.9448L121.328 204.9448L121.2416 204.916C121.0688 204.8008,121.04 204.7144,121.04 204.5128C121.04 204.2248,121.0688 204.1672,121.5008 203.9656C122.624 203.3608,122.912 202.7848,122.912 201.316L122.912 200.8264L119.6 200.8264C118.9952 200.88400000000001,118.5056 200.88400000000001,118.1024 200.88400000000001C116.288 200.88400000000001,116.2592 200.8264,116.2304 200.8264C116.0576 200.7688,116 200.596,116 200.3944C116 200.3944,116 200.3944,116 200.3944C116 200.1928,116 200.1928,116.576 199.5304C118.9952 196.5928,120.6944 192.3304,120.6944 188.93200000000002C120.6944 188.4136,120.7808 188.2408,121.0112 188.1544M122.7392 206.5288L122.768 206.5288L122.6816 206.5288L122.7392 206.5288M122.7392 187.1176L122.768 187.1176L122.6816 187.1176L122.7392 187.1176"></path><g class="vf-stavenote" id="vf-auto4441499"><g class="vf-note" pointer-events="bounding-box"><g class="vf-stem" pointer-events="bounding-box"><path stroke-width="1.5" fill="none" stroke="#000000" stroke-dasharray="none" class="vf-stem" id="vf-auto4441499-stem" d="M230.50743999999997 201.5L230.50743999999997 166.5"></path></g><g class="vf-notehead" pointer-events="bounding-box"><path stroke-width="0.3" fill="#000000" stroke="none" stroke-dasharray="none" d="M219.23919999999998 201.5M226.59615999999997 196.27712C226.70847999999998 196.27712,226.87696 196.27712,226.90503999999999 196.27712C226.90503999999999 196.27712,226.93311999999997 196.27712,226.93311999999997 196.27712C226.93311999999997 196.27712,227.1016 196.27712,227.242 196.27712C229.76919999999998 196.41752,231.25743999999997 198.07424,231.25743999999997 200.15216C231.25743999999997 201.16304,230.92048 202.31432,230.07807999999997 203.40944C228.47751999999997 205.5716,225.86607999999998 206.75096,223.59159999999997 206.75096C221.82255999999998 206.75096,220.30623999999997 206.04896,219.57616 204.61688C219.35152 204.05528,219.23919999999998 203.52176,219.23919999999998 202.93208C219.23919999999998 199.87136,222.66495999999998 196.47368,226.59615999999997 196.27712"></path></g></g><g class="vf-modifiers"></g></g><path stroke-width="1" fill="none" stroke="#000000" stroke-dasharray="none" d="M295.9452224 166.5L452.5120447999999 166.5"></path><path stroke-width="1" fill="none" stroke="#000000" stroke-dasharray="none" d="M295.9452224 176.5L452.5120447999999 176.5"></path><path stroke-width="1" fill="none" stroke="#000000" stroke-dasharray="none" d="M295.9452224 186.5L452.5120447999999 186.5"></path><path stroke-width="1" fill="none" stroke="#000000" stroke-dasharray="none" d="M295.9452224 196.5L452.5120447999999 196.5"></path><path stroke-width="1" fill="none" stroke="#000000" stroke-dasharray="none" d="M295.9452224 206.5L452.5120447999999 206.5"></path><rect stroke-width="0.3" fill="#000000" stroke="#000000" stroke-dasharray="none" x="452.5120447999999" y="166" width="1" height="41"></rect><path stroke-width="1" fill="none" stroke="#000000" stroke-dasharray="none" d="M309.9452224 216.5L327.96346239999997 216.5"></path><g class="vf-stavenote" id="vf-auto4441536"><g class="vf-note" pointer-events="bounding-box"><g class="vf-stem" pointer-events="bounding-box"><path stroke-width="1.5" fill="none" stroke="#000000" stroke-dasharray="none" class="vf-stem" id="vf-auto4441536-stem" d="M324.21346239999997 216.5L324.21346239999997 181.5"></path></g><g class="vf-notehead" pointer-events="bounding-box"><path stroke-width="0.3" fill="#000000" stroke="none" stroke-dasharray="none" d="M312.9452224 216.5M320.3021824 211.27712C320.4145024 211.27712,320.5829824 211.27712,320.6110624 211.27712C320.6110624 211.27712,320.63914239999997 211.27712,320.63914239999997 211.27712C320.63914239999997 211.27712,320.80762239999996 211.27712,320.94802239999996 211.27712C323.4752224 211.41752,324.96346239999997 213.07424,324.96346239999997 215.15216C324.96346239999997 216.16304,324.6265024 217.31432,323.7841024 218.40944C322.18354239999996 220.5716,319.57210239999995 221.75096,317.29762239999997 221.75096C315.5285824 221.75096,314.0122624 221.04896,313.28218239999995 219.61688C313.0575424 219.05528,312.9452224 218.52176,312.9452224 217.93208C312.9452224 214.87136,316.3709824 211.47368,320.3021824 211.27712"></path></g></g><g class="vf-modifiers"></g></g><g class="vf-stavenote" id="vf-auto4441544"><g class="vf-note" pointer-events="bounding-box"><g class="vf-stem" pointer-events="bounding-box"><path stroke-width="1.5" fill="none" stroke="#000000" stroke-dasharray="none" class="vf-stem" id="vf-auto4441544-stem" d="M359.46346239999997 191.5L359.46346239999997 156.5"></path></g><g class="vf-notehead" pointer-events="bounding-box"><path stroke-width="0.3" fill="#000000" stroke="none" stroke-dasharray="none" d="M348.1952224 191.5M355.5521824 186.27712C355.6645024 186.27712,355.8329824 186.27712,355.8610624 186.27712C355.8610624 186.27712,355.88914239999997 186.27712,355.88914239999997 186.27712C355.88914239999997 186.27712,356.05762239999996 186.27712,356.19802239999996 186.27712C358.7252224 186.41752,360.21346239999997 188.07424,360.21346239999997 190.15216C360.21346239999997 191.16304,359.8765024 192.31432,359.0341024 193.40944C357.43354239999996 195.5716,354.82210239999995 196.75096,352.54762239999997 196.75096C350.7785824 196.75096,349.2622624 196.04896,348.53218239999995 194.61688C348.3075424 194.05528,348.1952224 193.52176,348.1952224 192.93208C348.1952224 189.87136,351.6209824 186.47368,355.5521824 186.27712"></path></g></g><g class="vf-modifiers"></g></g><g class="vf-stavenote" id="vf-auto4441552"><g class="vf-note" pointer-events="bounding-box"><g class="vf-stem" pointer-events="bounding-box"><path stroke-width="1.5" fill="none" stroke="#000000" stroke-dasharray="none" class="vf-stem" id="vf-auto4441552-stem" d="M394.71346239999997 196.5L394.71346239999997 161.5"></path></g><g class="vf-notehead" pointer-events="bounding-box"><path stroke-width="0.3" fill="#000000" stroke="none" stroke-dasharray="none" d="M383.4452224 196.5M390.8021824 191.27712C390.9145024 191.27712,391.0829824 191.27712,391.1110624 191.27712C391.1110624 191.27712,391.13914239999997 191.27712,391.13914239999997 191.27712C391.13914239999997 191.27712,391.30762239999996 191.27712,391.44802239999996 191.27712C393.9752224 191.41752,395.46346239999997 193.07424,395.46346239999997 195.15216C395.46346239999997 196.16304,395.1265024 197.31432,394.2841024 198.40944C392.68354239999996 200.5716,390.07210239999995 201.75096,387.79762239999997 201.75096C386.0285824 201.75096,384.5122624 201.04896,383.78218239999995 199.61688C383.5575424 199.05528,383.4452224 198.52176,383.4452224 197.93208C383.4452224 194.87136,386.8709824 191.47368,390.8021824 191.27712"></path></g></g><g class="vf-modifiers"></g></g><g class="vf-stavenote" id="vf-auto4441560"><g class="vf-note" pointer-events="bounding-box"><g class="vf-stem" pointer-events="bounding-box"><path stroke-width="1.5" fill="none" stroke="#000000" stroke-dasharray="none" class="vf-stem" id="vf-auto4441560-stem" d="M429.96346239999997 196.5L429.96346239999997 161.5"></path></g><g class="vf-notehead" pointer-events="bounding-box"><path stroke-width="0.3" fill="#000000" stroke="none" stroke-dasharray="none" d="M418.6952224 196.5M426.0521824 191.27712C426.1645024 191.27712,426.3329824 191.27712,426.3610624 191.27712C426.3610624 191.27712,426.38914239999997 191.27712,426.38914239999997 191.27712C426.38914239999997 191.27712,426.55762239999996 191.27712,426.69802239999996 191.27712C429.2252224 191.41752,430.71346239999997 193.07424,430.71346239999997 195.15216C430.71346239999997 196.16304,430.3765024 197.31432,429.5341024 198.40944C427.93354239999996 200.5716,425.32210239999995 201.75096,423.04762239999997 201.75096C421.2785824 201.75096,419.7622624 201.04896,419.03218239999995 199.61688C418.8075424 199.05528,418.6952224 198.52176,418.6952224 197.93208C418.6952224 194.87136,422.1209824 191.47368,426.0521824 191.27712"></path></g></g><g class="vf-modifiers"></g></g><path stroke-width="1" fill="none" stroke="#000000" stroke-dasharray="none" d="M452.5120447999999 166.5L600.6788671999998 166.5"></path><path stroke-width="1" fill="none" stroke="#000000" stroke-dasharray="none" d="M452.5120447999999 176.5L600.6788671999998 176.5"></path><path stroke-width="1" fill="none" stroke="#000000" stroke-dasharray="none" d="M452.5120447999999 186.5L600.6788671999998 186.5"></path><path stroke-width="1" fill="none" stroke="#000000" stroke-dasharray="none" d="M452.5120447999999 196.5L600.6788671999998 196.5"></path><path stroke-width="1" fill="none" stroke="#000000" stroke-dasharray="none" d="M452.5120447999999 206.5L600.6788671999998 206.5"></path><rect stroke-width="0.3" fill="#000000" stroke="#000000" stroke-dasharray="none" x="600.6788671999998" y="166" width="1" height="41"></rect><g class="vf-stavenote" id="vf-auto4441569"><g class="vf-note" pointer-events="bounding-box"><g class="vf-stem" pointer-events="bounding-box"><path stroke-width="1.5" fill="none" stroke="#000000" stroke-dasharray="none" class="vf-stem" id="vf-auto4441569-stem" d="M547.2802847999999 201.5L547.2802847999999 166.5"></path></g><g class="vf-notehead" pointer-events="bounding-box"><path stroke-width="0.3" fill="#000000" stroke="none" stroke-dasharray="none" d="M536.0120447999999 201.5M543.3690047999999 196.27712C543.4813247999999 196.27712,543.6498047999999 196.27712,543.6778847999999 196.27712C543.6778847999999 196.27712,543.7059648 196.27712,543.7059648 196.27712C543.7059648 196.27712,543.8744447999999 196.27712,544.0148447999999 196.27712C546.5420447999999 196.41752,548.0302847999999 198.07424,548.0302847999999 200.15216C548.0302847999999 201.16304,547.6933247999999 202.31432,546.8509247999999 203.40944C545.2503647999999 205.5716,542.6389247999999 206.75096,540.3644447999999 206.75096C538.5954047999999 206.75096,537.0790847999999 206.04896,536.3490047999999 204.61688C536.1243647999999 204.05528,536.0120447999999 203.52176,536.0120447999999 202.93208C536.0120447999999 199.87136,539.4378047999999 196.47368,543.3690047999999 196.27712"></path></g></g><g class="vf-modifiers"></g></g><g class="vf-stavenote" id="vf-auto4441577"><g class="vf-note" pointer-events="bounding-box"><g class="vf-stem" pointer-events="bounding-box"><path stroke-width="1.5" fill="none" stroke="#000000" stroke-dasharray="none" class="vf-stem" id="vf-auto4441577-stem" d="M570.0120447999999 176.5L570.0120447999999 211.5"></path></g><g class="vf-notehead" pointer-events="bounding-box"><path stroke-width="0.3" fill="#000000" stroke="none" stroke-dasharray="none" d="M569.2620447999999 176.5M576.6190047999999 171.27712C576.7313247999999 171.27712,576.8998047999999 171.27712,576.9278847999999 171.27712C576.9278847999999 171.27712,576.9559648 171.27712,576.9559648 171.27712C576.9559648 171.27712,577.1244447999999 171.27712,577.2648447999999 171.27712C579.7920447999999 171.41752,581.2802847999999 173.07424,581.2802847999999 175.15216C581.2802847999999 176.16304,580.9433247999999 177.31432,580.1009247999999 178.40944C578.5003647999999 180.5716,575.8889247999999 181.75096,573.6144447999999 181.75096C571.8454047999999 181.75096,570.3290847999999 181.04896,569.5990047999999 179.61688C569.3743647999999 179.05528,569.2620447999999 178.52176,569.2620447999999 177.93208C569.2620447999999 174.87136,572.6878047999999 171.47368,576.6190047999999 171.27712"></path></g></g><g class="vf-modifiers"></g></g><path stroke-width="1" fill="none" stroke="#000000" stroke-dasharray="none" d="M600.6788671999999 166.5L758.8456895999998 166.5"></path><path stroke-width="1" fill="none" stroke="#000000" stroke-dasharray="none" d="M600.6788671999999 176.5L758.8456895999998 176.5"></path><path stroke-width="1" fill="none" stroke="#000000" stroke-dasharray="none" d="M600.6788671999999 186.5L758.8456895999998 186.5"></path><path stroke-width="1" fill="none" stroke="#000000" stroke-dasharray="none" d="M600.6788671999999 196.5L758.8456895999998 196.5"></path><path stroke-width="1" fill="none" stroke="#000000" stroke-dasharray="none" d="M600.6788671999999 206.5L758.8456895999998 206.5"></path><rect stroke-width="0.3" fill="#000000" stroke="#000000" stroke-dasharray="none" x="753.8456895999998" y="166" width="1" height="41"></rect><rect stroke-width="0.3" fill="#000000" stroke="#000000" stroke-dasharray="none" x="756.8456895999998" y="166" width="3" height="41"></rect><path stroke-width="0.3" fill="#000000" stroke="none" stroke-dasharray="none" d="M752.8456895999998 182 A2 2 0 0 0 748.8456895999998 182M748.8456895999998 182 A2 2 0 0 0 752.8456895999998 182"></path><path stroke-width="0.3" fill="#000000" stroke="none" stroke-dasharray="none" d="M752.8456895999998 192 A2 2 0 0 0 748.8456895999998 192M748.8456895999998 192 A2 2 0 0 0 752.8456895999998 192"></path><g class="vf-stavenote" id="vf-auto4441605"><g class="vf-note" pointer-events="bounding-box"><g class="vf-stem" pointer-events="bounding-box"><path stroke-width="1.5" fill="none" stroke="#000000" stroke-dasharray="none" class="vf-stem" id="vf-auto4441605-stem" d="M654.1788671999999 166.5L654.1788671999999 201.5"></path></g><g class="vf-notehead" pointer-events="bounding-box"><path stroke-width="0.3" fill="#000000" stroke="none" stroke-dasharray="none" d="M653.4288671999999 166.5M660.7858271999999 161.27712C660.8981471999999 161.27712,661.0666271999999 161.27712,661.0947071999999 161.27712C661.0947071999999 161.27712,661.1227872 161.27712,661.1227872 161.27712C661.1227872 161.27712,661.2912671999999 161.27712,661.4316671999999 161.27712C663.9588671999999 161.41752,665.4471071999999 163.07424,665.4471071999999 165.15216C665.4471071999999 166.16304,665.1101471999999 167.31432,664.2677471999999 168.40944C662.6671872 170.5716,660.0557471999999 171.75096,657.7812671999999 171.75096C656.0122271999999 171.75096,654.4959071999999 171.04896,653.7658271999999 169.61688C653.5411871999999 169.05528,653.4288671999999 168.52176,653.4288671999999 167.93208C653.4288671999999 164.87136,656.8546271999999 161.47368,660.7858271999999 161.27712"></path></g></g><g class="vf-modifiers"></g></g><g class="vf-stavenote" id="vf-auto4441613"><g class="vf-note" pointer-events="bounding-box"><g class="vf-stem" pointer-events="bounding-box"><path stroke-width="1.5" fill="none" stroke="#000000" stroke-dasharray="none" class="vf-stem" id="vf-auto4441613-stem" d="M700.4471071999999 196.5L700.4471071999999 161.5"></path></g><g class="vf-notehead" pointer-events="bounding-box"><path stroke-width="0.3" fill="#000000" stroke="none" stroke-dasharray="none" d="M689.1788671999999 196.5M696.5358271999999 191.27712C696.6481471999999 191.27712,696.8166271999999 191.27712,696.8447071999999 191.27712C696.8447071999999 191.27712,696.8727872 191.27712,696.8727872 191.27712C696.8727872 191.27712,697.0412671999999 191.27712,697.1816671999999 191.27712C699.7088671999999 191.41752,701.1971071999999 193.07424,701.1971071999999 195.15216C701.1971071999999 196.16304,700.8601471999999 197.31432,700.0177471999999 198.40944C698.4171872 200.5716,695.8057471999999 201.75096,693.5312671999999 201.75096C691.7622271999999 201.75096,690.2459071999999 201.04896,689.5158271999999 199.61688C689.2911871999999 199.05528,689.1788671999999 198.52176,689.1788671999999 197.93208C689.1788671999999 194.87136,692.6046271999999 191.47368,696.5358271999999 191.27712"></path></g></g><g class="vf-modifiers"></g></g><g class="vf-text"><text stroke-width="0.3" fill="#000000" stroke="none" stroke-dasharray="none" font-family="Times New Roman" font-size="23px" font-weight="bold" font-style="italic" x="158.4784" y="240.5">mf</text></g><path stroke-width="1" fill="none" stroke="#000000" stroke-dasharray="none" d="M70 275.29999999999995L295.9452224 275.29999999999995"></path><path stroke-width="1" fill="none" stroke="#000000" stroke-dasharray="none" d="M70 285.29999999999995L295.9452224 285.29999999999995"></path><path stroke-width="1" fill="none" stroke="#000000" stroke-dasharray="none" d="M70 295.29999999999995L295.9452224 295.29999999999995"></path><path stroke-width="1" fill="none" stroke="#000000" stroke-dasharray="none" d="M70 305.29999999999995L295.9452224 305.29999999999995"></path><path stroke-width="1" fill="none" stroke="#000000" stroke-dasharray="none" d="M70 315.29999999999995L295.9452224 315.29999999999995"></path><rect stroke-width="0.3" fill="#000000" stroke="#000000" stroke-dasharray="none" x="295.9452224" y="274.79999999999995" width="1" height="41"></rect><g class="vf-clef"><path stroke-width="0.3" fill="#000000" stroke="none" stroke-dasharray="none" d="M75 285.29999999999995M83.8416 275.24879999999996C84.072 275.1912,84.3024 275.1912,84.5616 275.1912C85.5696 275.1912,86.7504 275.30639999999994,87.7584 275.508C92.4816 276.4872,95.736 279.68399999999997,96.3408 283.9464C96.3984 284.40719999999993,96.4272 284.83919999999995,96.4272 285.29999999999995C96.4272 287.89199999999994,95.5344 291.23279999999994,94.008 294.02639999999997C90.3792 300.59279999999995,83.7552 305.316,75.8064 307.044C75.6624 307.044,75.5472 307.0728,75.4032 307.0728C75.1152 307.0728,74.9712 306.9,74.9712 306.64079999999996C74.9712 306.35279999999995,75.0288 306.2664,75.6048 306.03599999999994C84.7056 302.6088,90.7824 295.20719999999994,91.3296 286.91279999999995C91.3584 286.48079999999993,91.3584 285.99119999999994,91.3584 285.61679999999996C91.3584 281.5848,90.12 278.58959999999996,87.7296 277.0919999999999C86.6928 276.42959999999994,85.5696 276.11279999999994,84.36 276.11279999999994C81.6816 276.11279999999994,78.9456 277.63919999999996,77.6784 280.20239999999995C77.6208 280.40399999999994,77.4192 280.83599999999996,77.4192 280.86479999999995C77.4192 280.86479999999995,77.4192 280.86479999999995,77.4192 280.86479999999995C77.4192 280.86479999999995,77.448 280.83599999999996,77.5344 280.80719999999997C78.168 280.40399999999994,78.8592 280.20239999999995,79.5792 280.20239999999995C80.5872 280.20239999999995,81.6528 280.63439999999997,82.4016 281.44079999999997C83.0928 282.1895999999999,83.4672 283.19759999999997,83.4672 284.1192C83.4672 285.99119999999994,82.0848 287.89199999999994,79.9248 288.0936C79.7808 288.0936,79.6368 288.12239999999997,79.4928 288.12239999999997C77.1024 288.12239999999997,75.1728 285.93359999999996,75.1728 283.1688C75.1728 283.11119999999994,75.1728 283.02479999999997,75.1728 282.996C75.288 278.8776,79.0608 275.508,83.8416 275.24879999999996M99.1632 279.10799999999995C99.2208 279.07919999999996,99.2496 279.07919999999996,99.336 279.07919999999996C99.5376 279.07919999999996,99.768 279.10799999999995,99.8256 279.1655999999999C100.54560000000001 279.36719999999997,100.8912 280.00079999999997,100.8912 280.6056C100.8912 281.12399999999997,100.632 281.64239999999995,100.11359999999999 281.93039999999996C99.912 282.07439999999997,99.6528 282.10319999999996,99.39359999999999 282.10319999999996C98.9904 282.10319999999996,98.5584 281.93039999999996,98.2704 281.5559999999999C98.03999999999999 281.268,97.9248 280.9512,97.9248 280.63439999999997C97.9248 279.91439999999994,98.3856 279.1944,99.1632 279.10799999999995M99.1632 288.52559999999994C99.2208 288.52559999999994,99.2496 288.52559999999994,99.336 288.52559999999994C99.5376 288.52559999999994,99.768 288.55439999999993,99.8256 288.61199999999997C100.54560000000001 288.81359999999995,100.8912 289.44719999999995,100.8912 290.05199999999996C100.8912 290.57039999999995,100.632 291.08879999999994,100.11359999999999 291.34799999999996C99.912 291.49199999999996,99.6528 291.54959999999994,99.39359999999999 291.54959999999994C98.9904 291.54959999999994,98.5584 291.34799999999996,98.2704 291.00239999999997C98.03999999999999 290.71439999999996,97.9248 290.39759999999995,97.9248 290.05199999999996C97.9248 289.33199999999994,98.3856 288.64079999999996,99.1632 288.52559999999994"></path></g><path stroke-width="0.3" fill="#000000" stroke="none" stroke-dasharray="none" d="M116 295.29999999999995M121.0112 276.95439999999996C121.04 276.9256,121.4432 276.9256,122.6816 276.9256C123.056 276.9256,123.4592 276.9256,123.9776 276.9256L126.8864 276.9256L126.9728 277.01199999999994C127.1168 277.09839999999997,127.2032 277.2424,127.2032 277.35759999999993C127.2032 277.53039999999993,127.1168 277.64559999999994,127.0016 277.76079999999996C126.9728 277.84719999999993,126.7136 278.07759999999996,126.5408 278.3367999999999L125.0144 280.0936L123.056 282.31119999999993L122.0192 283.49199999999996L120.464 285.27759999999995L118.4192 287.61039999999997C118.0736 288.04239999999993,117.6992 288.388,117.6992 288.388C117.6992 288.388,117.6992 288.388,117.6992 288.388C117.6992 288.44559999999996,117.9584 288.44559999999996,120.3488 288.44559999999996L122.9696 288.44559999999996L122.9696 286.57359999999994C122.9696 284.67279999999994,122.9696 284.64399999999995,122.9984 284.61519999999996C123.056 284.52879999999993,123.3152 284.21199999999993,124.3232 283.03119999999996L124.7264 282.59919999999994L125.1296 282.1672L125.7344 281.3896L126.368 280.7272L126.6848 280.32399999999996C126.8 280.15119999999996,126.9728 280.12239999999997,127.1168 280.12239999999997C127.28960000000001 280.12239999999997,127.4336 280.20879999999994,127.52 280.35279999999995C127.5488 280.43919999999997,127.5488 280.49679999999995,127.5488 282.62799999999993C127.5488 283.1176,127.5488 283.72239999999994,127.5488 284.44239999999996L127.5488 288.44559999999996L128.2688 288.44559999999996C128.9312 288.44559999999996,128.96 288.44559999999996,129.0464 288.47439999999995C129.2768 288.5608,129.392 288.79119999999995,129.392 289.05039999999997C129.392 289.1944,129.3632 289.36719999999997,129.248 289.4823999999999C129.0752 289.62639999999993,129.0464 289.62639999999993,128.2688 289.62639999999993L127.5488 289.62639999999993L127.5488 290.11599999999993C127.5776 291.5848,127.8656 292.16079999999994,128.9888 292.76559999999995C129.392 292.96719999999993,129.4784 293.02479999999997,129.4784 293.3128C129.4784 293.51439999999997,129.42079999999999 293.60079999999994,129.2768 293.71599999999995L129.1904 293.74479999999994L125.2448 293.74479999999994L121.328 293.74479999999994L121.2416 293.71599999999995C121.0688 293.60079999999994,121.04 293.51439999999997,121.04 293.3128C121.04 293.02479999999997,121.0688 292.96719999999993,121.5008 292.76559999999995C122.624 292.16079999999994,122.912 291.5848,122.912 290.11599999999993L122.912 289.62639999999993L119.6 289.62639999999993C118.9952 289.68399999999997,118.5056 289.68399999999997,118.1024 289.68399999999997C116.288 289.68399999999997,116.2592 289.62639999999993,116.2304 289.62639999999993C116.0576 289.56879999999995,116 289.39599999999996,116 289.1944C116 289.1944,116 289.1944,116 289.1944C116 288.99279999999993,116 288.99279999999993,116.576 288.33039999999994C118.9952 285.39279999999997,120.6944 281.13039999999995,120.6944 277.73199999999997C120.6944 277.21359999999993,120.7808 277.04079999999993,121.0112 276.95439999999996M122.7392 295.32879999999994L122.768 295.32879999999994L122.6816 295.32879999999994L122.7392 295.32879999999994M122.7392 275.91759999999994L122.768 275.91759999999994L122.6816 275.91759999999994L122.7392 275.91759999999994"></path><path stroke-width="0.3" fill="#000000" stroke="none" stroke-dasharray="none" d="M116 315.29999999999995M121.0112 296.95439999999996C121.04 296.9256,121.4432 296.9256,122.6816 296.9256C123.056 296.9256,123.4592 296.9256,123.9776 296.9256L126.8864 296.9256L126.9728 297.01199999999994C127.1168 297.09839999999997,127.2032 297.2424,127.2032 297.35759999999993C127.2032 297.53039999999993,127.1168 297.64559999999994,127.0016 297.76079999999996C126.9728 297.84719999999993,126.7136 298.07759999999996,126.5408 298.3367999999999L125.0144 300.0936L123.056 302.31119999999993L122.0192 303.49199999999996L120.464 305.27759999999995L118.4192 307.61039999999997C118.0736 308.04239999999993,117.6992 308.388,117.6992 308.388C117.6992 308.388,117.6992 308.388,117.6992 308.388C117.6992 308.44559999999996,117.9584 308.44559999999996,120.3488 308.44559999999996L122.9696 308.44559999999996L122.9696 306.57359999999994C122.9696 304.67279999999994,122.9696 304.64399999999995,122.9984 304.61519999999996C123.056 304.52879999999993,123.3152 304.21199999999993,124.3232 303.03119999999996L124.7264 302.59919999999994L125.1296 302.1672L125.7344 301.3896L126.368 300.7272L126.6848 300.32399999999996C126.8 300.15119999999996,126.9728 300.12239999999997,127.1168 300.12239999999997C127.28960000000001 300.12239999999997,127.4336 300.20879999999994,127.52 300.35279999999995C127.5488 300.43919999999997,127.5488 300.49679999999995,127.5488 302.62799999999993C127.5488 303.1176,127.5488 303.72239999999994,127.5488 304.44239999999996L127.5488 308.44559999999996L128.2688 308.44559999999996C128.9312 308.44559999999996,128.96 308.44559999999996,129.0464 308.47439999999995C129.2768 308.5608,129.392 308.79119999999995,129.392 309.05039999999997C129.392 309.1944,129.3632 309.36719999999997,129.248 309.4823999999999C129.0752 309.62639999999993,129.0464 309.62639999999993,128.2688 309.62639999999993L127.5488 309.62639999999993L127.5488 310.11599999999993C127.5776 311.5848,127.8656 312.16079999999994,128.9888 312.76559999999995C129.392 312.96719999999993,129.4784 313.02479999999997,129.4784 313.3128C129.4784 313.51439999999997,129.42079999999999 313.60079999999994,129.2768 313.71599999999995L129.1904 313.74479999999994L125.2448 313.74479999999994L121.328 313.74479999999994L121.2416 313.71599999999995C121.0688 313.60079999999994,121.04 313.51439999999997,121.04 313.3128C121.04 313.02479999999997,121.0688 312.96719999999993,121.5008 312.76559999999995C122.624 312.16079999999994,122.912 311.5848,122.912 310.11599999999993L122.912 309.62639999999993L119.6 309.62639999999993C118.9952 309.68399999999997,118.5056 309.68399999999997,118.1024 309.68399999999997C116.288 309.68399999999997,116.2592 309.62639999999993,116.2304 309.62639999999993C116.0576 309.56879999999995,116 309.39599999999996,116 309.1944C116 309.1944,116 309.1944,116 309.1944C116 308.99279999999993,116 308.99279999999993,116.576 308.33039999999994C118.9952 305.39279999999997,120.6944 301.13039999999995,120.6944 297.73199999999997C120.6944 297.21359999999993,120.7808 297.04079999999993,121.0112 296.95439999999996M122.7392 315.32879999999994L122.768 315.32879999999994L122.6816 315.32879999999994L122.7392 315.32879999999994M122.7392 295.91759999999994L122.768 295.91759999999994L122.6816 295.91759999999994L122.7392 295.91759999999994"></path><path stroke-width="1" fill="none" stroke="#000000" stroke-dasharray="none" d="M138.4784 265.29999999999995L156.49663999999999 265.29999999999995"></path><g class="vf-stavenote" id="vf-auto4441510"><g class="vf-note" pointer-events="bounding-box"><g class="vf-stem" pointer-events="bounding-box"><path stroke-width="1.5" fill="none" stroke="#000000" stroke-dasharray="none" class="vf-stem" id="vf-auto4441510-stem" d="M142.2284 260.29999999999995L142.2284 295.29999999999995"></path></g><g class="vf-notehead" pointer-events="bounding-box"><path stroke-width="0.3" fill="#000000" stroke="none" stroke-dasharray="none" d="M141.4784 260.29999999999995M148.83535999999998 255.07711999999995C148.94768 255.07711999999995,149.11615999999998 255.07711999999995,149.14424 255.07711999999995C149.14424 255.07711999999995,149.17231999999998 255.07711999999995,149.17231999999998 255.07711999999995C149.17231999999998 255.07711999999995,149.3408 255.07711999999995,149.4812 255.07711999999995C152.0084 255.21751999999995,153.49663999999999 256.87423999999993,153.49663999999999 258.95215999999994C153.49663999999999 259.96304,153.15967999999998 261.11431999999996,152.31727999999998 262.20944C150.71671999999998 264.37159999999994,148.10528 265.55096,145.83079999999998 265.55096C144.06176 265.55096,142.54543999999999 264.84896,141.81536 263.41687999999994C141.59072 262.85527999999994,141.4784 262.3217599999999,141.4784 261.73207999999994C141.4784 258.67135999999994,144.90416 255.27367999999996,148.83535999999998 255.07711999999995"></path></g></g><g class="vf-modifiers"></g></g><g class="vf-stavenote" id="vf-auto4441518"><g class="vf-note" pointer-events="bounding-box"><g class="vf-stem" pointer-events="bounding-box"><path stroke-width="1.5" fill="none" stroke="#000000" stroke-dasharray="none" class="vf-stem" id="vf-auto4441518-stem" d="M191.62704 315.29999999999995L191.62704 280.29999999999995"></path></g><g class="vf-notehead" pointer-events="bounding-box"><path stroke-width="0.3" fill="#000000" stroke="none" stroke-dasharray="none" d="M180.3588 315.29999999999995M187.71576 310.07712C187.82808 310.07712,187.99656 310.07712,188.02464 310.07712C188.02464 310.07712,188.05272 310.07712,188.05272 310.07712C188.05272 310.07712,188.2212 310.07712,188.3616 310.07712C190.8888 310.21752,192.37704 311.87423999999993,192.37704 313.95215999999994C192.37704 314.96304,192.04008 316.11431999999996,191.19768 317.20944C189.59712 319.37159999999994,186.98568 320.55096,184.7112 320.55096C182.94216 320.55096,181.42584 319.84896,180.69576 318.41687999999994C180.47112 317.85527999999994,180.3588 317.3217599999999,180.3588 316.73207999999994C180.3588 313.67135999999994,183.78456 310.27367999999996,187.71576 310.07712"></path></g></g><g class="vf-modifiers"></g></g><g class="vf-stavenote" id="vf-auto4441526"><g class="vf-note" pointer-events="bounding-box"><g class="vf-stem" pointer-events="bounding-box"><path stroke-width="1.5" fill="none" stroke="#000000" stroke-dasharray="none" class="vf-stem" id="vf-auto4441526-stem" d="M258.8696 275.29999999999995L258.8696 310.29999999999995"></path></g><g class="vf-notehead" pointer-events="bounding-box"><path stroke-width="0.3" fill="#000000" stroke="none" stroke-dasharray="none" d="M258.1196 275.29999999999995M265.47656 270.07712C265.58888 270.07712,265.75736 270.07712,265.78544 270.07712C265.78544 270.07712,265.81352 270.07712,265.81352 270.07712C265.81352 270.07712,265.98199999999997 270.07712,266.12239999999997 270.07712C268.64959999999996 270.21752,270.13784 271.87423999999993,270.13784 273.95215999999994C270.13784 274.96304,269.80088 276.11431999999996,268.95848 277.20944C267.35792 279.37159999999994,264.74648 280.55096,262.472 280.55096C260.70296 280.55096,259.18664 279.84896,258.45655999999997 278.41687999999994C258.23192 277.85527999999994,258.1196 277.3217599999999,258.1196 276.73207999999994C258.1196 273.67135999999994,261.54536 270.27367999999996,265.47656 270.07712"></path></g></g><g class="vf-modifiers"></g></g><rect stroke-width="0.3" fill="#000000" stroke="#000000" stroke-dasharray="none" x="295.9452224" y="166.5" width="1" height="149.79999999999995"></rect><rect stroke-width="0.3" fill="#000000" stroke="#000000" stroke-dasharray="none" x="70" y="166.5" width="1" height="149.79999999999995"></rect><path stroke-width="1" fill="none" stroke="#000000" stroke-dasharray="none" d="M295.9452224 275.29999999999995L452.5120447999999 275.29999999999995"></path><path stroke-width="1" fill="none" stroke="#000000" stroke-dasharray="none" d="M295.9452224 285.29999999999995L452.5120447999999 285.29999999999995"></path><path stroke-width="1" fill="none" stroke="#000000" stroke-dasharray="none" d="M295.9452224 295.29999999999995L452.5120447999999 295.29999999999995"></path><path stroke-width="1" fill="none" stroke="#000000" stroke-dasharray="none" d="M295.9452224 305.29999999999995L452.5120447999999 305.29999999999995"></path><path stroke-width="1" fill="none" stroke="#000000" stroke-dasharray="none" d="M295.9452224 315.29999999999995L452.5120447999999 315.29999999999995"></path><rect stroke-width="0.3" fill="#000000" stroke="#000000" stroke-dasharray="none" x="452.5120447999999" y="274.79999999999995" width="1" height="41"></rect><rect stroke-width="0.3" fill="#000000" stroke="#000000" stroke-dasharray="none" x="452.5120447999999" y="166.5" width="1" height="149.79999999999995"></rect><path stroke-width="1" fill="none" stroke="#000000" stroke-dasharray="none" d="M452.5120447999999 275.29999999999995L600.6788671999998 275.29999999999995"></path><path stroke-width="1" fill="none" stroke="#000000" stroke-dasharray="none" d="M452.5120447999999 285.29999999999995L600.6788671999998 285.29999999999995"></path><path stroke-width="1" fill="none" stroke="#000000" stroke-dasharray="none" d="M452.5120447999999 295.29999999999995L600.6788671999998 295.29999999999995"></path><path stroke-width="1" fill="none" stroke="#000000" stroke-dasharray="none" d="M452.5120447999999 305.29999999999995L600.6788671999998 305.29999999999995"></path><path stroke-width="1" fill="none" stroke="#000000" stroke-dasharray="none" d="M452.5120447999999 315.29999999999995L600.6788671999998 315.29999999999995"></path><rect stroke-width="0.3" fill="#000000" stroke="#000000" stroke-dasharray="none" x="600.6788671999998" y="274.79999999999995" width="1" height="41"></rect><path stroke-width="1" fill="none" stroke="#000000" stroke-dasharray="none" d="M466.5120447999999 265.29999999999995L484.5302847999999 265.29999999999995"></path><g class="vf-stavenote" id="vf-auto4441587"><g class="vf-note" pointer-events="bounding-box"><g class="vf-stem" pointer-events="bounding-box"><path stroke-width="1.5" fill="none" stroke="#000000" stroke-dasharray="none" class="vf-stem" id="vf-auto4441587-stem" d="M470.2620447999999 260.29999999999995L470.2620447999999 295.29999999999995"></path></g><g class="vf-notehead" pointer-events="bounding-box"><path stroke-width="0.3" fill="#000000" stroke="none" stroke-dasharray="none" d="M469.5120447999999 260.29999999999995M476.8690047999999 255.07711999999995C476.9813247999999 255.07711999999995,477.1498047999999 255.07711999999995,477.1778847999999 255.07711999999995C477.1778847999999 255.07711999999995,477.2059647999999 255.07711999999995,477.2059647999999 255.07711999999995C477.2059647999999 255.07711999999995,477.3744447999999 255.07711999999995,477.5148447999999 255.07711999999995C480.04204479999987 255.21751999999995,481.5302847999999 256.87423999999993,481.5302847999999 258.95215999999994C481.5302847999999 259.96304,481.1933247999999 261.11431999999996,480.3509247999999 262.20944C478.7503647999999 264.37159999999994,476.1389247999999 265.55096,473.8644447999999 265.55096C472.0954047999999 265.55096,470.5790847999999 264.84896,469.8490047999999 263.41687999999994C469.6243647999999 262.85527999999994,469.5120447999999 262.3217599999999,469.5120447999999 261.73207999999994C469.5120447999999 258.67135999999994,472.9378047999999 255.27367999999996,476.8690047999999 255.07711999999995"></path></g></g><g class="vf-modifiers"></g></g><g class="vf-stavenote" id="vf-auto4441595"><g class="vf-note" pointer-events="bounding-box"><g class="vf-stem" pointer-events="bounding-box"><path stroke-width="1.5" fill="none" stroke="#000000" stroke-dasharray="none" class="vf-stem" id="vf-auto4441595-stem" d="M503.5120447999999 275.29999999999995L503.5120447999999 310.29999999999995"></path></g><g class="vf-notehead" pointer-events="bounding-box"><path stroke-width="0.3" fill="#000000" stroke="none" stroke-dasharray="none" d="M502.7620447999999 275.29999999999995M510.1190047999999 270.07712C510.2313247999999 270.07712,510.3998047999999 270.07712,510.4278847999999 270.07712C510.4278847999999 270.07712,510.4559647999999 270.07712,510.4559647999999 270.07712C510.4559647999999 270.07712,510.6244447999999 270.07712,510.7648447999999 270.07712C513.2920447999999 270.21752,514.7802847999999 271.87423999999993,514.7802847999999 273.95215999999994C514.7802847999999 274.96304,514.4433247999999 276.11431999999996,513.6009247999999 277.20944C512.0003647999999 279.37159999999994,509.3889247999999 280.55096,507.1144447999999 280.55096C505.3454047999999 280.55096,503.8290847999999 279.84896,503.0990047999999 278.41687999999994C502.8743647999999 277.85527999999994,502.7620447999999 277.3217599999999,502.7620447999999 276.73207999999994C502.7620447999999 273.67135999999994,506.1878047999999 270.27367999999996,510.1190047999999 270.07712"></path></g></g><g class="vf-modifiers"></g></g><rect stroke-width="0.3" fill="#000000" stroke="#000000" stroke-dasharray="none" x="600.6788671999998" y="166.5" width="1" height="149.79999999999995"></rect><path stroke-width="1" fill="none" stroke="#000000" stroke-dasharray="none" d="M600.6788671999999 275.29999999999995L758.8456895999998 275.29999999999995"></path><path stroke-width="1" fill="none" stroke="#000000" stroke-dasharray="none" d="M600.6788671999999 285.29999999999995L758.8456895999998 285.29999999999995"></path><path stroke-width="1" fill="none" stroke="#000000" stroke-dasharray="none" d="M600.6788671999999 295.29999999999995L758.8456895999998 295.29999999999995"></path><path stroke-width="1" fill="none" stroke="#000000" stroke-dasharray="none" d="M600.6788671999999 305.29999999999995L758.8456895999998 305.29999999999995"></path><path stroke-width="1" fill="none" stroke="#000000" stroke-dasharray="none" d="M600.6788671999999 315.29999999999995L758.8456895999998 315.29999999999995"></path><rect stroke-width="0.3" fill="#000000" stroke="#000000" stroke-dasharray="none" x="753.8456895999998" y="274.79999999999995" width="1" height="41"></rect><rect stroke-width="0.3" fill="#000000" stroke="#000000" stroke-dasharray="none" x="756.8456895999998" y="274.79999999999995" width="3" height="41"></rect><path stroke-width="0.3" fill="#000000" stroke="none" stroke-dasharray="none" d="M752.8456895999998 290.79999999999995 A2 2 0 0 0 748.8456895999998 290.79999999999995M748.8456895999998 290.79999999999995 A2 2 0 0 0 752.8456895999998 290.79999999999995"></path><path stroke-width="0.3" fill="#000000" stroke="none" stroke-dasharray="none" d="M752.8456895999998 300.79999999999995 A2 2 0 0 0 748.8456895999998 300.79999999999995M748.8456895999998 300.79999999999995 A2 2 0 0 0 752.8456895999998 300.79999999999995"></path><g class="vf-stavenote" id="vf-auto4441624"><g class="vf-note" pointer-events="bounding-box"><g class="vf-stem" pointer-events="bounding-box"><path stroke-width="1.5" fill="none" stroke="#000000" stroke-dasharray="none" class="vf-stem" id="vf-auto4441624-stem" d="M628.9471071999999 310.29999999999995L628.9471071999999 275.29999999999995"></path></g><g class="vf-notehead" pointer-events="bounding-box"><path stroke-width="0.3" fill="#000000" stroke="none" stroke-dasharray="none" d="M617.6788671999999 310.29999999999995M625.0358271999999 305.07712C625.1481471999999 305.07712,625.3166271999999 305.07712,625.3447071999999 305.07712C625.3447071999999 305.07712,625.3727872 305.07712,625.3727872 305.07712C625.3727872 305.07712,625.5412671999999 305.07712,625.6816671999999 305.07712C628.2088671999999 305.21752,629.6971071999999 306.87423999999993,629.6971071999999 308.95215999999994C629.6971071999999 309.96304,629.3601471999999 311.11431999999996,628.5177471999999 312.20944C626.9171872 314.37159999999994,624.3057471999999 315.55096,622.0312671999999 315.55096C620.2622271999999 315.55096,618.7459071999999 314.84896,618.0158271999999 313.41687999999994C617.7911871999999 312.85527999999994,617.6788671999999 312.3217599999999,617.6788671999999 311.73207999999994C617.6788671999999 308.67135999999994,621.1046271999999 305.27367999999996,625.0358271999999 305.07712"></path></g></g><g class="vf-modifiers"></g></g><path stroke-width="1" fill="none" stroke="#000000" stroke-dasharray="none" d="M721.9288671999999 265.29999999999995L739.9471071999999 265.29999999999995"></path><g class="vf-stavenote" id="vf-auto4441632"><g class="vf-note" pointer-events="bounding-box"><g class="vf-stem" pointer-events="bounding-box"><path stroke-width="1.5" fill="none" stroke="#000000" stroke-dasharray="none" class="vf-stem" id="vf-auto4441632-stem" d="M725.6788671999999 265.29999999999995L725.6788671999999 300.29999999999995"></path></g><g class="vf-notehead" pointer-events="bounding-box"><path stroke-width="0.3" fill="#000000" stroke="none" stroke-dasharray="none" d="M724.9288671999999 265.29999999999995M732.2858271999999 260.07712C732.3981471999999 260.07712,732.5666271999999 260.07712,732.5947071999999 260.07712C732.5947071999999 260.07712,732.6227872 260.07712,732.6227872 260.07712C732.6227872 260.07712,732.7912671999999 260.07712,732.9316671999999 260.07712C735.4588671999999 260.21752,736.9471071999999 261.87423999999993,736.9471071999999 263.95215999999994C736.9471071999999 264.96304,736.6101471999999 266.11431999999996,735.7677471999999 267.20944C734.1671872 269.37159999999994,731.5557471999999 270.55096,729.2812671999999 270.55096C727.5122271999999 270.55096,725.9959071999999 269.84896,725.2658271999999 268.41687999999994C725.0411871999999 267.85527999999994,724.9288671999999 267.3217599999999,724.9288671999999 266.73207999999994C724.9288671999999 263.67135999999994,728.3546271999999 260.27367999999996,732.2858271999999 260.07712"></path></g></g><g class="vf-modifiers"></g></g><rect stroke-width="0.3" fill="#000000" stroke="#000000" stroke-dasharray="none" x="753.8456895999998" y="166.5" width="1" height="149.79999999999995"></rect><rect stroke-width="0.3" fill="#000000" stroke="#000000" stroke-dasharray="none" x="756.8456895999998" y="166.5" width="3" height="149.79999999999995"></rect><path stroke-width="0.3" fill="#000000" stroke="none" stroke-dasharray="none" d="M68 166.5C45.2 196.45999999999998,81.2 221.177,56 241.39999999999998C81.2 261.623,45.2 286.34,68 316.29999999999995C44 286.34,72.8 261.623,56 241.39999999999998C72.8 221.177,44 196.45999999999998,68 166.5"></path><path stroke-width="1" fill="none" stroke="#000000" stroke-dasharray="none" d="M68 166.5C45.2 196.45999999999998,81.2 221.177,56 241.39999999999998C81.2 261.623,45.2 286.34,68 316.29999999999995C44 286.34,72.8 261.623,56 241.39999999999998C72.8 221.177,44 196.45999999999998,68 166.5"></path><g class="vf-text"><text stroke-width="0.3" fill="#000000" stroke="none" stroke-dasharray="none" font-family="Times New Roman" font-size="15px" font-weight="normal" font-style="normal" x="449.0120447999999" y="163.5">3</text></g></svg>