<svg xmlns="http://www.w3.org/2000/svg"  width="1470" height="386.79999999999995" viewBox="0 0 1470 386.79999999999995"><path stroke-width="1" fill="none" stroke="#000000" stroke-dasharray="none" d="M70 166.5L304.34522239999995 166.5"></path><path stroke-width="1" fill="none" stroke="#000000" stroke-dasharray="none" d="M70 176.5L304.34522239999995 176.5"></path><path stroke-width="1" fill="none" stroke="#000000" stroke-dasharray="none" d="M70 186.5L304.34522239999995 186.5"></path><path stroke-width="1" fill="none" stroke="#000000" stroke-dasharray="none" d="M70 196.5L304.34522239999995 196.5"></path><path stroke-width="1" fill="none" stroke="#000000" stroke-dasharray="none" d="M70 206.5L304.34522239999995 206.5"></path><rect stroke-width="0.3" fill="#000000" stroke="#000000" stroke-dasharray="none" x="304.34522239999995" y="166" width="1" height="41"></rect><g class="vf-clef"><path stroke-width="0.3" fill="#000000" stroke="none" stroke-dasharray="none" d="M75 196.5M89.0544 153.3288C89.112 153.3,89.1696 153.3,89.256 153.3C89.6016 153.3,90.0048 153.588,90.5808 154.308C92.9136 156.9864,94.5552 161.652,94.5552 165.4536C94.5552 165.7416,94.4976 165.972,94.4976 166.26C94.2384 170.7816,92.3952 174.4968,88.7376 178.0104L87.7584 178.9608L87.4128 179.3352L87.4128 179.4504L87.6144 180.3144L87.9312 181.8696L88.248 183.3096C88.68 185.268,88.8528 186.276,88.8528 186.276C88.8528 186.276,88.8528 186.276,88.8528 186.276C88.8528 186.276,88.968 186.276,89.112 186.2472C89.256 186.2472,89.7168 186.1896,90.2064 186.1896C90.55199999999999 186.1896,90.8976 186.2472,91.0704 186.2472C95.1312 186.7656,98.2704 189.6744,99.1632 193.764C99.336 194.4264,99.39359999999999 195.1464,99.39359999999999 195.8664C99.39359999999999 199.7544,97.0608 203.4696,93.1728 205.2264C92.94239999999999 205.3704,92.856 205.3992,92.856 205.3992L92.856 205.428C92.856 205.428,93.0288 206.0904,93.1728 206.8392L93.6048 209.028L94.008 210.7848C94.2384 211.908,94.3536 212.7144,94.3536 213.4344C94.3536 214.06799999999998,94.2672 214.644,94.1232 215.3064C93.144 219.3096,89.6592 221.7,86.0304 221.7C84.2448 221.7,82.4016 221.124,80.7888 219.828C79.3488 218.6184,78.7152 217.524,78.7152 216.084C78.7152 213.5496,80.76 211.764,82.8912 211.764C83.64 211.764,84.3888 211.99439999999998,85.1088 212.4264C86.3184 213.2616,86.8656 214.5288,86.8656 215.7672C86.8656 217.668,85.5408 219.54,83.2656 219.684L83.0352 219.684L83.208 219.79919999999998C84.1584 220.2024,85.1088 220.404,86.0304 220.404C88.3632 220.404,90.55199999999999 219.2232,91.8768 217.1784C92.62559999999999 216.0264,93.0288 214.6728,93.0288 213.3192C93.0288 212.8008,92.94239999999999 212.2824,92.8272 211.7064C92.8272 211.6488,92.74080000000001 211.188,92.62559999999999 210.756C91.992 207.6456,91.6176 205.8312,91.6176 205.8312C91.6176 205.8312,91.6176 205.8312,91.6176 205.8312C91.56 205.8312,91.4448 205.8312,91.3584 205.8888C91.0704 205.9464,90.4656 206.0904,90.2064 206.1192C89.5728 206.2056,88.968 206.2344,88.392 206.2344C82.74719999999999 206.2344,77.5056 202.4328,75.6912 196.8168C75.2304 195.3192,74.9712 193.8216,74.9712 192.324C74.9712 189.3288,75.9216 186.3912,77.7648 183.7704C79.7808 180.9192,81.7968 178.4712,84.2736 175.9368L85.13759999999999 175.044L84.936 173.9784L84.5616 172.2216L84.072 169.9752C83.928 169.14,83.7552 168.3336,83.7264 168.1608C83.5824 167.2104,83.496 166.2888,83.496 165.3384C83.496 161.7096,84.6768 158.22480000000002,86.8944 155.4312C87.5568 154.5672,88.7376 153.4152,89.0544 153.3288M90.8112 159.0312C90.7536 159.0312,90.6672 159.0312,90.5808 159.0312C89.4 159.0312,87.8736 160.1256,86.8368 161.7384C85.7712 163.32240000000002,85.224 165.4248,85.224 167.5848C85.224 168.1608,85.25280000000001 168.7656,85.3392 169.3704C85.4256 169.8024,85.45439999999999 170.0904,85.6848 171.12720000000002L86.088 172.9416C86.2032 173.4888,86.28960000000001 173.92079999999999,86.28960000000001 173.9784L86.28960000000001 173.9784C86.3184 173.9784,87.2112 172.9992,87.4992 172.6536C90.3792 169.3992,92.1072 165.972,92.4816 162.948C92.5104 162.66,92.5104 162.4296,92.5104 162.1416C92.5104 161.24880000000002,92.3952 160.38479999999998,92.1936 159.924C91.9632 159.4632,91.4448 159.0888,90.8112 159.0312M86.4624 181.2936C86.4048 180.8904,86.3184 180.5736,86.3184 180.516C86.3184 180.516,86.3184 180.516,86.28960000000001 180.516C86.232 180.516,84.9936 181.956,84.1296 182.964C82.6608 184.7496,81.1056 186.8808,80.472 187.9176C79.2624 189.9624,78.6576 192.2376,78.6576 194.484C78.6576 195.9528,78.9456 197.364,79.464 198.7176C81.0192 202.7208,84.5904 205.2264,88.4784 205.2264C88.9392 205.2264,89.4576 205.1976,89.9472 205.1112C90.5808 204.996,91.3584 204.7656,91.3584 204.6792L91.3584 204.6792C91.3584 204.6792,91.3008 204.3912,91.2144 204.0744L90.3792 199.956L89.7168 196.8744L89.2848 194.7432L88.824 192.6696C88.5936 191.4312,88.5072 191.1144,88.5072 191.1144C88.5072 191.1144,88.5072 191.0856,88.4784 191.0856C88.3056 191.0856,87.384 191.5464,86.9808 191.8344C85.4832 192.8712,84.7056 194.5128,84.7056 196.1256C84.7056 197.652,85.45439999999999 199.1784,86.8944 200.0712C87.2112 200.2728,87.3264 200.4456,87.3264 200.6472C87.3264 200.676,87.3264 200.7624,87.3264 200.7912C87.2688 201.1368,87.0672 201.2808,86.7792 201.2808C86.664 201.2808,86.52 201.252,86.3472 201.1656C83.6976 200.0136,81.912 197.2776,81.912 194.2824L81.912 194.2824C81.912 190.8264,84.072 187.8312,87.384 186.6504L87.5568 186.5928L87.2688 185.1528L86.4624 181.2936M90.7824 190.9128C90.55199999999999 190.88400000000001,90.3216 190.88400000000001,90.1488 190.88400000000001C90.0912 190.88400000000001,90.0048 190.88400000000001,89.9472 190.88400000000001L89.8032 190.88400000000001L89.9184 191.4024L90.5232 194.2248L90.8976 196.068L91.3008 197.8824L92.1072 201.8856L92.424 203.412C92.5392 203.8152,92.5968 204.1608,92.62559999999999 204.1608C92.62559999999999 204.1608,92.62559999999999 204.1608,92.62559999999999 204.1608C92.6544 204.1608,93.144 203.8728,93.4608 203.6424C94.9296 202.6056,96.024 200.9928,96.4272 199.3224C96.5712 198.7752,96.6288 198.1992,96.6288 197.652C96.6288 194.3112,94.152 191.2872,90.7824 190.9128"></path></g><path stroke-width="0.3" fill="#000000" stroke="none" stroke-dasharray="none" d="M116 186.5M121.0112 168.1544C121.04 168.1256,121.4432 168.1256,122.6816 168.1256C123.056 168.1256,123.4592 168.1256,123.9776 168.1256L126.8864 168.1256L126.9728 168.212C127.1168 168.29840000000002,127.2032 168.4424,127.2032 168.5576C127.2032 168.7304,127.1168 168.8456,127.0016 168.9608C126.9728 169.0472,126.7136 169.2776,126.5408 169.5368L125.0144 171.2936L123.056 173.5112L122.0192 174.692L120.464 176.4776L118.4192 178.8104C118.0736 179.2424,117.6992 179.588,117.6992 179.588C117.6992 179.588,117.6992 179.588,117.6992 179.588C117.6992 179.6456,117.9584 179.6456,120.3488 179.6456L122.9696 179.6456L122.9696 177.7736C122.9696 175.8728,122.9696 175.844,122.9984 175.8152C123.056 175.7288,123.3152 175.412,124.3232 174.2312L124.7264 173.7992L125.1296 173.3672L125.7344 172.5896L126.368 171.9272L126.6848 171.524C126.8 171.3512,126.9728 171.3224,127.1168 171.3224C127.28960000000001 171.3224,127.4336 171.4088,127.52 171.5528C127.5488 171.6392,127.5488 171.6968,127.5488 173.828C127.5488 174.3176,127.5488 174.9224,127.5488 175.6424L127.5488 179.6456L128.2688 179.6456C128.9312 179.6456,128.96 179.6456,129.0464 179.6744C129.2768 179.7608,129.392 179.9912,129.392 180.2504C129.392 180.3944,129.3632 180.5672,129.248 180.6824C129.0752 180.8264,129.0464 180.8264,128.2688 180.8264L127.5488 180.8264L127.5488 181.316C127.5776 182.7848,127.8656 183.3608,128.9888 183.9656C129.392 184.1672,129.4784 184.2248,129.4784 184.5128C129.4784 184.7144,129.42079999999999 184.8008,129.2768 184.916L129.1904 184.9448L125.2448 184.9448L121.328 184.9448L121.2416 184.916C121.0688 184.8008,121.04 184.7144,121.04 184.5128C121.04 184.2248,121.0688 184.1672,121.5008 183.9656C122.624 183.3608,122.912 182.7848,122.912 181.316L122.912 180.8264L119.6 180.8264C118.9952 180.88400000000001,118.5056 180.88400000000001,118.1024 180.88400000000001C116.288 180.88400000000001,116.2592 180.8264,116.2304 180.8264C116.0576 180.7688,116 180.596,116 180.3944C116 180.3944,116 180.3944,116 180.3944C116 180.1928,116 180.1928,116.576 179.5304C118.9952 176.5928,120.6944 172.3304,120.6944 168.93200000000002C120.6944 168.4136,120.7808 168.2408,121.0112 168.1544M122.7392 186.5288L122.768 186.5288L122.6816 186.5288L122.7392 186.5288M122.7392 167.1176L122.768 167.1176L122.6816 167.1176L122.7392 167.1176"></path><path stroke-width="0.3" fill="#000000" stroke="none" stroke-dasharray="none" d="M116 206.5M121.0112 188.1544C121.04 188.1256,121.4432 188.1256,122.6816 188.1256C123.056 188.1256,123.4592 188.1256,123.9776 188.1256L126.8864 188.1256L126.9728 188.212C127.1168 188.29840000000002,127.2032 188.4424,127.2032 188.5576C127.2032 188.7304,127.1168 188.8456,127.0016 188.9608C126.9728 189.0472,126.7136 189.2776,126.5408 189.5368L125.0144 191.2936L123.056 193.5112L122.0192 194.692L120.464 196.4776L118.4192 198.8104C118.0736 199.2424,117.6992 199.588,117.6992 199.588C117.6992 199.588,117.6992 199.588,117.6992 199.588C117.6992 199.6456,117.9584 199.6456,120.3488 199.6456L122.9696 199.6456L122.9696 197.7736C122.9696 195.8728,122.9696 195.844,122.9984 195.8152C123.056 195.7288,123.3152 195.412,124.3232 194.2312L124.7264 193.7992L125.1296 193.3672L125.7344 192.5896L126.368 191.9272L126.6848 191.524C126.8 191.3512,126.9728 191.3224,127.1168 191.3224C127.28960000000001 191.3224,127.4336 191.4088,127.52 191.5528C127.5488 191.6392,127.5488 191.6968,127.5488 193.828C127.5488 194.3176,127.5488 194.9224,127.5488 195.6424L127.5488 199.6456L128.2688 199.6456C128.9312 199.6456,128.96 199.6456,129.0464 199.6744C129.2768 199.7608,129.392 199.9912,129.392 200.2504C129.392 200.3944,129.3632 200.5672,129.248 200.6824C129.0752 200.8264,129.0464 200.8264,128.2688 200.8264L127.5488 200.8264L127.5488 201.316C127.5776 202.7848,127.8656 203.3608,128.9888 203.9656C129.392 204.1672,129.4784 204.2248,129.4784 204.5128C129.4784 204.7144,129.42079999999999 204.8008,129.2768 204.916L129.1904 204.9448L125.2448 204.9448L121.328 204.9448L121.2416 204.916C121.0688 204.8008,121.04 204.7144,121.04 204.5128C121.04 204.2248,121.0688 204.1672,121.5008 203.9656C122.624 203.3608,122.912 202.7848,122.912 201.316L122.912 200.8264L119.6 200.8264C118.9952 200.88400000000001,118.5056 200.88400000000001,118.1024 200.88400000000001C116.288 200.88400000000001,116.2592 200.8264,116.2304 200.8264C116.0576 200.7688,116 200.596,116 200.3944C116 200.3944,116 200.3944,116 200.3944C116 200.1928,116 200.1928,116.576 199.5304C118.9952 196.5928,120.6944 192.3304,120.6944 188.93200000000002C120.6944 188.4136,120.7808 188.2408,121.0112 188.1544M122.7392 206.5288L122.768 206.5288L122.6816 206.5288L122.7392 206.5288M122.7392 187.1176L122.768 187.1176L122.6816 187.1176L122.7392 187.1176"></path><g class="vf-stavenote" id="vf-auto1999940"><g class="vf-note" pointer-events="bounding-box"><g class="vf-stem" pointer-events="bounding-box"><path stroke-width="1.5" fill="none" stroke="#000000" stroke-dasharray="none" class="vf-stem" id="vf-auto1999940-stem" d="M193.87704 201.5L193.87704 166.5"></path></g><g class="vf-notehead" pointer-events="bounding-box"><path stroke-width="0.3" fill="#000000" stroke="none" stroke-dasharray="none" d="M182.6088 201.5M189.96576 196.27712C190.07808 196.27712,190.24656 196.27712,190.27464 196.27712C190.27464 196.27712,190.30272 196.27712,190.30272 196.27712C190.30272 196.27712,190.4712 196.27712,190.6116 196.27712C193.1388 196.41752,194.62704 198.07424,194.62704 200.15216C194.62704 201.16304,194.29008 202.31432,193.44768 203.40944C191.84712 205.5716,189.23568 206.75096,186.9612 206.75096C185.19216 206.75096,183.67584 206.04896,182.94576 204.61688C182.72112 204.05528,182.6088 203.52176,182.6088 202.93208C182.6088 199.87136,186.03456 196.47368,189.96576 196.27712"></path></g></g><g class="vf-modifiers"></g></g><g class="vf-stavenote" id="vf-auto1999948"><g class="vf-note" pointer-events="bounding-box"><g class="vf-stem" pointer-events="bounding-box"><path stroke-width="1.5" fill="none" stroke="#000000" stroke-dasharray="none" class="vf-stem" id="vf-auto1999948-stem" d="M235.00743999999997 206.5L235.00743999999997 171.5"></path></g><g class="vf-notehead" pointer-events="bounding-box"><path stroke-width="0.3" fill="#000000" stroke="none" stroke-dasharray="none" d="M223.73919999999998 206.5M231.09615999999997 201.27712C231.20847999999998 201.27712,231.37696 201.27712,231.40503999999999 201.27712C231.40503999999999 201.27712,231.43311999999997 201.27712,231.43311999999997 201.27712C231.43311999999997 201.27712,231.6016 201.27712,231.742 201.27712C234.26919999999998 201.41752,235.75743999999997 203.07424,235.75743999999997 205.15216C235.75743999999997 206.16304,235.42048 207.31432,234.57807999999997 208.40944C232.97751999999997 210.5716,230.36607999999998 211.75096,228.09159999999997 211.75096C226.32255999999998 211.75096,224.80623999999997 211.04896,224.07616 209.61688C223.85152 209.05528,223.73919999999998 208.52176,223.73919999999998 207.93208C223.73919999999998 204.87136,227.16495999999998 201.47368,231.09615999999997 201.27712"></path></g></g><g class="vf-modifiers"></g></g><g class="vf-stavenote" id="vf-auto1999956"><g class="vf-note" pointer-events="bounding-box"><g class="vf-stem" pointer-events="bounding-box"><path stroke-width="1.5" fill="none" stroke="#000000" stroke-dasharray="none" class="vf-stem" id="vf-auto1999956-stem" d="M265.6196 181.5L265.6196 216.5"></path></g><g class="vf-notehead" pointer-events="bounding-box"><path stroke-width="0.3" fill="#000000" stroke="none" stroke-dasharray="none" d="M264.8696 181.5M272.22656 176.27712C272.33888 176.27712,272.50736 176.27712,272.53544 176.27712C272.53544 176.27712,272.56352 176.27712,272.56352 176.27712C272.56352 176.27712,272.73199999999997 176.27712,272.87239999999997 176.27712C275.39959999999996 176.41752,276.88784 178.07424,276.88784 180.15216C276.88784 181.16304,276.55088 182.31432,275.70848 183.40944C274.10792 185.5716,271.49648 186.75096,269.222 186.75096C267.45296 186.75096,265.93664 186.04896,265.20655999999997 184.61688C264.98192 184.05528,264.8696 183.52176,264.8696 182.93208C264.8696 179.87136,268.29536 176.47368,272.22656 176.27712"></path></g></g><g class="vf-modifiers"></g></g><path stroke-width="1" fill="none" stroke="#000000" stroke-dasharray="none" d="M304.34522239999995 166.5L452.5120447999999 166.5"></path><path stroke-width="1" fill="none" stroke="#000000" stroke-dasharray="none" d="M304.34522239999995 176.5L452.5120447999999 176.5"></path><path stroke-width="1" fill="none" stroke="#000000" stroke-dasharray="none" d="M304.34522239999995 186.5L452.5120447999999 186.5"></path><path stroke-width="1" fill="none" stroke="#000000" stroke-dasharray="none" d="M304.34522239999995 196.5L452.5120447999999 196.5"></path><path stroke-width="1" fill="none" stroke="#000000" stroke-dasharray="none" d="M304.34522239999995 206.5L452.5120447999999 206.5"></path><rect stroke-width="0.3" fill="#000000" stroke="#000000" stroke-dasharray="none" x="452.5120447999999" y="166" width="1" height="41"></rect><g class="vf-stavenote" id="vf-auto1999977"><g class="vf-note" pointer-events="bounding-box"><g class="vf-stem" pointer-events="bounding-box"><path stroke-width="1.5" fill="none" stroke="#000000" stroke-dasharray="none" class="vf-stem" id="vf-auto1999977-stem" d="M399.11346239999995 201.5L399.11346239999995 166.5"></path></g><g class="vf-notehead" pointer-events="bounding-box"><path stroke-width="0.3" fill="#000000" stroke="none" stroke-dasharray="none" d="M387.84522239999995 201.5M395.20218239999997 196.27712C395.3145024 196.27712,395.48298239999997 196.27712,395.51106239999996 196.27712C395.51106239999996 196.27712,395.53914239999995 196.27712,395.53914239999995 196.27712C395.53914239999995 196.27712,395.70762239999993 196.27712,395.84802239999993 196.27712C398.3752224 196.41752,399.86346239999995 198.07424,399.86346239999995 200.15216C399.86346239999995 201.16304,399.52650239999997 202.31432,398.6841024 203.40944C397.08354239999994 205.5716,394.4721023999999 206.75096,392.19762239999994 206.75096C390.4285824 206.75096,388.9122624 206.04896,388.18218239999993 204.61688C387.95754239999997 204.05528,387.84522239999995 203.52176,387.84522239999995 202.93208C387.84522239999995 199.87136,391.2709824 196.47368,395.20218239999997 196.27712"></path></g></g><g class="vf-modifiers"></g></g><path stroke-width="1" fill="none" stroke="#000000" stroke-dasharray="none" d="M418.09522239999995 216.5L436.11346239999995 216.5"></path><g class="vf-stavenote" id="vf-auto1999985"><g class="vf-note" pointer-events="bounding-box"><g class="vf-stem" pointer-events="bounding-box"><path stroke-width="1.5" fill="none" stroke="#000000" stroke-dasharray="none" class="vf-stem" id="vf-auto1999985-stem" d="M432.36346239999995 216.5L432.36346239999995 181.5"></path></g><g class="vf-notehead" pointer-events="bounding-box"><path stroke-width="0.3" fill="#000000" stroke="none" stroke-dasharray="none" d="M421.09522239999995 216.5M428.45218239999997 211.27712C428.5645024 211.27712,428.73298239999997 211.27712,428.76106239999996 211.27712C428.76106239999996 211.27712,428.78914239999995 211.27712,428.78914239999995 211.27712C428.78914239999995 211.27712,428.95762239999993 211.27712,429.09802239999993 211.27712C431.6252224 211.41752,433.11346239999995 213.07424,433.11346239999995 215.15216C433.11346239999995 216.16304,432.77650239999997 217.31432,431.9341024 218.40944C430.33354239999994 220.5716,427.7221023999999 221.75096,425.44762239999994 221.75096C423.6785824 221.75096,422.1622624 221.04896,421.43218239999993 219.61688C421.20754239999997 219.05528,421.09522239999995 218.52176,421.09522239999995 217.93208C421.09522239999995 214.87136,424.5209824 211.47368,428.45218239999997 211.27712"></path></g></g><g class="vf-modifiers"></g></g><path stroke-width="1" fill="none" stroke="#000000" stroke-dasharray="none" d="M452.5120447999999 166.5L600.6788671999998 166.5"></path><path stroke-width="1" fill="none" stroke="#000000" stroke-dasharray="none" d="M452.5120447999999 176.5L600.6788671999998 176.5"></path><path stroke-width="1" fill="none" stroke="#000000" stroke-dasharray="none" d="M452.5120447999999 186.5L600.6788671999998 186.5"></path><path stroke-width="1" fill="none" stroke="#000000" stroke-dasharray="none" d="M452.5120447999999 196.5L600.6788671999998 196.5"></path><path stroke-width="1" fill="none" stroke="#000000" stroke-dasharray="none" d="M452.5120447999999 206.5L600.6788671999998 206.5"></path><rect stroke-width="0.3" fill="#000000" stroke="#000000" stroke-dasharray="none" x="600.6788671999998" y="166" width="1" height="41"></rect><path stroke-width="1" fill="none" stroke="#000000" stroke-dasharray="none" d="M533.0120447999999 216.5L551.0302847999999 216.5"></path><g class="vf-stavenote" id="vf-auto2000013"><g class="vf-note" pointer-events="bounding-box"><g class="vf-stem" pointer-events="bounding-box"><path stroke-width="1.5" fill="none" stroke="#000000" stroke-dasharray="none" class="vf-stem" id="vf-auto2000013-stem" d="M547.2802847999999 216.5L547.2802847999999 181.5"></path></g><g class="vf-notehead" pointer-events="bounding-box"><path stroke-width="0.3" fill="#000000" stroke="none" stroke-dasharray="none" d="M536.0120447999999 216.5M543.3690047999999 211.27712C543.4813247999999 211.27712,543.6498047999999 211.27712,543.6778847999999 211.27712C543.6778847999999 211.27712,543.7059648 211.27712,543.7059648 211.27712C543.7059648 211.27712,543.8744447999999 211.27712,544.0148447999999 211.27712C546.5420447999999 211.41752,548.0302847999999 213.07424,548.0302847999999 215.15216C548.0302847999999 216.16304,547.6933247999999 217.31432,546.8509247999999 218.40944C545.2503647999999 220.5716,542.6389247999999 221.75096,540.3644447999999 221.75096C538.5954047999999 221.75096,537.0790847999999 221.04896,536.3490047999999 219.61688C536.1243647999999 219.05528,536.0120447999999 218.52176,536.0120447999999 217.93208C536.0120447999999 214.87136,539.4378047999999 211.47368,543.3690047999999 211.27712"></path></g></g><g class="vf-modifiers"></g></g><path stroke-width="1" fill="none" stroke="#000000" stroke-dasharray="none" d="M566.2620447999999 216.5L584.2802847999999 216.5"></path><g class="vf-stavenote" id="vf-auto2000021"><g class="vf-note" pointer-events="bounding-box"><g class="vf-stem" pointer-events="bounding-box"><path stroke-width="1.5" fill="none" stroke="#000000" stroke-dasharray="none" class="vf-stem" id="vf-auto2000021-stem" d="M580.5302847999999 221.5L580.5302847999999 186.5"></path></g><g class="vf-notehead" pointer-events="bounding-box"><path stroke-width="0.3" fill="#000000" stroke="none" stroke-dasharray="none" d="M569.2620447999999 221.5M576.6190047999999 216.27712C576.7313247999999 216.27712,576.8998047999999 216.27712,576.9278847999999 216.27712C576.9278847999999 216.27712,576.9559648 216.27712,576.9559648 216.27712C576.9559648 216.27712,577.1244447999999 216.27712,577.2648447999999 216.27712C579.7920447999999 216.41752,581.2802847999999 218.07424,581.2802847999999 220.15216C581.2802847999999 221.16304,580.9433247999999 222.31432,580.1009247999999 223.40944C578.5003647999999 225.5716,575.8889247999999 226.75096,573.6144447999999 226.75096C571.8454047999999 226.75096,570.3290847999999 226.04896,569.5990047999999 224.61688C569.3743647999999 224.05528,569.2620447999999 223.52176,569.2620447999999 222.93208C569.2620447999999 219.87136,572.6878047999999 216.47368,576.6190047999999 216.27712"></path></g></g><g class="vf-modifiers"></g></g><path stroke-width="1" fill="none" stroke="#000000" stroke-dasharray="none" d="M600.6788671999999 166.5L758.8456895999998 166.5"></path><path stroke-width="1" fill="none" stroke="#000000" stroke-dasharray="none" d="M600.6788671999999 176.5L758.8456895999998 176.5"></path><path stroke-width="1" fill="none" stroke="#000000" stroke-dasharray="none" d="M600.6788671999999 186.5L758.8456895999998 186.5"></path><path stroke-width="1" fill="none" stroke="#000000" stroke-dasharray="none" d="M600.6788671999999 196.5L758.8456895999998 196.5"></path><path stroke-width="1" fill="none" stroke="#000000" stroke-dasharray="none" d="M600.6788671999999 206.5L758.8456895999998 206.5"></path><rect stroke-width="0.3" fill="#000000" stroke="#000000" stroke-dasharray="none" x="753.8456895999998" y="166" width="1" height="41"></rect><rect stroke-width="0.3" fill="#000000" stroke="#000000" stroke-dasharray="none" x="756.8456895999998" y="166" width="3" height="41"></rect><path stroke-width="0.3" fill="#000000" stroke="none" stroke-dasharray="none" d="M752.8456895999998 182 A2 2 0 0 0 748.8456895999998 182M748.8456895999998 182 A2 2 0 0 0 752.8456895999998 182"></path><path stroke-width="0.3" fill="#000000" stroke="none" stroke-dasharray="none" d="M752.8456895999998 192 A2 2 0 0 0 748.8456895999998 192M748.8456895999998 192 A2 2 0 0 0 752.8456895999998 192"></path><g class="vf-stavenote" id="vf-auto2000049"><g class="vf-note" pointer-events="bounding-box"><g class="vf-stem" pointer-events="bounding-box"><path stroke-width="1.5" fill="none" stroke="#000000" stroke-dasharray="none" class="vf-stem" id="vf-auto2000049-stem" d="M700.4471071999999 201.5L700.4471071999999 166.5"></path></g><g class="vf-notehead" pointer-events="bounding-box"><path stroke-width="0.3" fill="#000000" stroke="none" stroke-dasharray="none" d="M689.1788671999999 201.5M696.5358271999999 196.27712C696.6481471999999 196.27712,696.8166271999999 196.27712,696.8447071999999 196.27712C696.8447071999999 196.27712,696.8727872 196.27712,696.8727872 196.27712C696.8727872 196.27712,697.0412671999999 196.27712,697.1816671999999 196.27712C699.7088671999999 196.41752,701.1971071999999 198.07424,701.1971071999999 200.15216C701.1971071999999 201.16304,700.8601471999999 202.31432,700.0177471999999 203.40944C698.4171872 205.5716,695.8057471999999 206.75096,693.5312671999999 206.75096C691.7622271999999 206.75096,690.2459071999999 206.04896,689.5158271999999 204.61688C689.2911871999999 204.05528,689.1788671999999 203.52176,689.1788671999999 202.93208C689.1788671999999 199.87136,692.6046271999999 196.47368,696.5358271999999 196.27712"></path></g></g><g class="vf-modifiers"></g></g><path stroke-width="1" fill="none" stroke="#000000" stroke-dasharray="none" d="M721.9288671999999 216.5L739.9471071999999 216.5"></path><g class="vf-stavenote" id="vf-auto2000057"><g class="vf-note" pointer-events="bounding-box"><g class="vf-stem" pointer-events="bounding-box"><path stroke-width="1.5" fill="none" stroke="#000000" stroke-dasharray="none" class="vf-stem" id="vf-auto2000057-stem" d="M736.1971071999999 221.5L736.1971071999999 186.5"></path></g><g class="vf-notehead" pointer-events="bounding-box"><path stroke-width="0.3" fill="#000000" stroke="none" stroke-dasharray="none" d="M724.9288671999999 221.5M732.2858271999999 216.27712C732.3981471999999 216.27712,732.5666271999999 216.27712,732.5947071999999 216.27712C732.5947071999999 216.27712,732.6227872 216.27712,732.6227872 216.27712C732.6227872 216.27712,732.7912671999999 216.27712,732.9316671999999 216.27712C735.4588671999999 216.41752,736.9471071999999 218.07424,736.9471071999999 220.15216C736.9471071999999 221.16304,736.6101471999999 222.31432,735.7677471999999 223.40944C734.1671872 225.5716,731.5557471999999 226.75096,729.2812671999999 226.75096C727.5122271999999 226.75096,725.9959071999999 226.04896,725.2658271999999 224.61688C725.0411871999999 224.05528,724.9288671999999 223.52176,724.9288671999999 222.93208C724.9288671999999 219.87136,728.3546271999999 216.47368,732.2858271999999 216.27712"></path></g></g><g class="vf-modifiers"></g></g><g class="vf-text"><text stroke-width="0.3" fill="#000000" stroke="none" stroke-dasharray="none" font-family="Times New Roman" font-size="23px" font-weight="bold" font-style="italic" x="158.4784" y="240.5">mf</text></g><path stroke-width="1" fill="none" stroke="#000000" stroke-dasharray="none" d="M70 265.29999999999995L304.34522239999995 265.29999999999995"></path><path stroke-width="1" fill="none" stroke="#000000" stroke-dasharray="none" d="M70 275.29999999999995L304.34522239999995 275.29999999999995"></path><path stroke-width="1" fill="none" stroke="#000000" stroke-dasharray="none" d="M70 285.29999999999995L304.34522239999995 285.29999999999995"></path><path stroke-width="1" fill="none" stroke="#000000" stroke-dasharray="none" d="M70 295.29999999999995L304.34522239999995 295.29999999999995"></path><path stroke-width="1" fill="none" stroke="#000000" stroke-dasharray="none" d="M70 305.29999999999995L304.34522239999995 305.29999999999995"></path><rect stroke-width="0.3" fill="#000000" stroke="#000000" stroke-dasharray="none" x="304.34522239999995" y="264.79999999999995" width="1" height="41"></rect><g class="vf-clef"><path stroke-width="0.3" fill="#000000" stroke="none" stroke-dasharray="none" d="M75 275.29999999999995M83.8416 265.24879999999996C84.072 265.1912,84.3024 265.1912,84.5616 265.1912C85.5696 265.1912,86.7504 265.30639999999994,87.7584 265.508C92.4816 266.4872,95.736 269.68399999999997,96.3408 273.9464C96.3984 274.40719999999993,96.4272 274.83919999999995,96.4272 275.29999999999995C96.4272 277.89199999999994,95.5344 281.23279999999994,94.008 284.02639999999997C90.3792 290.59279999999995,83.7552 295.316,75.8064 297.044C75.6624 297.044,75.5472 297.0728,75.4032 297.0728C75.1152 297.0728,74.9712 296.9,74.9712 296.64079999999996C74.9712 296.35279999999995,75.0288 296.2664,75.6048 296.03599999999994C84.7056 292.6088,90.7824 285.20719999999994,91.3296 276.91279999999995C91.3584 276.48079999999993,91.3584 275.99119999999994,91.3584 275.61679999999996C91.3584 271.5848,90.12 268.58959999999996,87.7296 267.0919999999999C86.6928 266.42959999999994,85.5696 266.11279999999994,84.36 266.11279999999994C81.6816 266.11279999999994,78.9456 267.63919999999996,77.6784 270.20239999999995C77.6208 270.40399999999994,77.4192 270.83599999999996,77.4192 270.86479999999995C77.4192 270.86479999999995,77.4192 270.86479999999995,77.4192 270.86479999999995C77.4192 270.86479999999995,77.448 270.83599999999996,77.5344 270.80719999999997C78.168 270.40399999999994,78.8592 270.20239999999995,79.5792 270.20239999999995C80.5872 270.20239999999995,81.6528 270.63439999999997,82.4016 271.44079999999997C83.0928 272.1895999999999,83.4672 273.19759999999997,83.4672 274.1192C83.4672 275.99119999999994,82.0848 277.89199999999994,79.9248 278.0936C79.7808 278.0936,79.6368 278.12239999999997,79.4928 278.12239999999997C77.1024 278.12239999999997,75.1728 275.93359999999996,75.1728 273.1688C75.1728 273.11119999999994,75.1728 273.02479999999997,75.1728 272.996C75.288 268.8776,79.0608 265.508,83.8416 265.24879999999996M99.1632 269.10799999999995C99.2208 269.07919999999996,99.2496 269.07919999999996,99.336 269.07919999999996C99.5376 269.07919999999996,99.768 269.10799999999995,99.8256 269.1655999999999C100.54560000000001 269.36719999999997,100.8912 270.00079999999997,100.8912 270.6056C100.8912 271.12399999999997,100.632 271.64239999999995,100.11359999999999 271.93039999999996C99.912 272.07439999999997,99.6528 272.10319999999996,99.39359999999999 272.10319999999996C98.9904 272.10319999999996,98.5584 271.93039999999996,98.2704 271.5559999999999C98.03999999999999 271.268,97.9248 270.9512,97.9248 270.63439999999997C97.9248 269.91439999999994,98.3856 269.1944,99.1632 269.10799999999995M99.1632 278.52559999999994C99.2208 278.52559999999994,99.2496 278.52559999999994,99.336 278.52559999999994C99.5376 278.52559999999994,99.768 278.55439999999993,99.8256 278.61199999999997C100.54560000000001 278.81359999999995,100.8912 279.44719999999995,100.8912 280.05199999999996C100.8912 280.57039999999995,100.632 281.08879999999994,100.11359999999999 281.34799999999996C99.912 281.49199999999996,99.6528 281.54959999999994,99.39359999999999 281.54959999999994C98.9904 281.54959999999994,98.5584 281.34799999999996,98.2704 281.00239999999997C98.03999999999999 280.71439999999996,97.9248 280.39759999999995,97.9248 280.05199999999996C97.9248 279.33199999999994,98.3856 278.64079999999996,99.1632 278.52559999999994"></path></g><path stroke-width="0.3" fill="#000000" stroke="none" stroke-dasharray="none" d="M116 285.29999999999995M121.0112 266.95439999999996C121.04 266.9256,121.4432 266.9256,122.6816 266.9256C123.056 266.9256,123.4592 266.9256,123.9776 266.9256L126.8864 266.9256L126.9728 267.01199999999994C127.1168 267.09839999999997,127.2032 267.2424,127.2032 267.35759999999993C127.2032 267.53039999999993,127.1168 267.64559999999994,127.0016 267.76079999999996C126.9728 267.84719999999993,126.7136 268.07759999999996,126.5408 268.3367999999999L125.0144 270.0936L123.056 272.31119999999993L122.0192 273.49199999999996L120.464 275.27759999999995L118.4192 277.61039999999997C118.0736 278.04239999999993,117.6992 278.388,117.6992 278.388C117.6992 278.388,117.6992 278.388,117.6992 278.388C117.6992 278.44559999999996,117.9584 278.44559999999996,120.3488 278.44559999999996L122.9696 278.44559999999996L122.9696 276.57359999999994C122.9696 274.67279999999994,122.9696 274.64399999999995,122.9984 274.61519999999996C123.056 274.52879999999993,123.3152 274.21199999999993,124.3232 273.03119999999996L124.7264 272.59919999999994L125.1296 272.1672L125.7344 271.3896L126.368 270.7272L126.6848 270.32399999999996C126.8 270.15119999999996,126.9728 270.12239999999997,127.1168 270.12239999999997C127.28960000000001 270.12239999999997,127.4336 270.20879999999994,127.52 270.35279999999995C127.5488 270.43919999999997,127.5488 270.49679999999995,127.5488 272.62799999999993C127.5488 273.1176,127.5488 273.72239999999994,127.5488 274.44239999999996L127.5488 278.44559999999996L128.2688 278.44559999999996C128.9312 278.44559999999996,128.96 278.44559999999996,129.0464 278.47439999999995C129.2768 278.5608,129.392 278.79119999999995,129.392 279.05039999999997C129.392 279.1944,129.3632 279.36719999999997,129.248 279.4823999999999C129.0752 279.62639999999993,129.0464 279.62639999999993,128.2688 279.62639999999993L127.5488 279.62639999999993L127.5488 280.11599999999993C127.5776 281.5848,127.8656 282.16079999999994,128.9888 282.76559999999995C129.392 282.96719999999993,129.4784 283.02479999999997,129.4784 283.3128C129.4784 283.51439999999997,129.42079999999999 283.60079999999994,129.2768 283.71599999999995L129.1904 283.74479999999994L125.2448 283.74479999999994L121.328 283.74479999999994L121.2416 283.71599999999995C121.0688 283.60079999999994,121.04 283.51439999999997,121.04 283.3128C121.04 283.02479999999997,121.0688 282.96719999999993,121.5008 282.76559999999995C122.624 282.16079999999994,122.912 281.5848,122.912 280.11599999999993L122.912 279.62639999999993L119.6 279.62639999999993C118.9952 279.68399999999997,118.5056 279.68399999999997,118.1024 279.68399999999997C116.288 279.68399999999997,116.2592 279.62639999999993,116.2304 279.62639999999993C116.0576 279.56879999999995,116 279.39599999999996,116 279.1944C116 279.1944,116 279.1944,116 279.1944C116 278.99279999999993,116 278.99279999999993,116.576 278.33039999999994C118.9952 275.39279999999997,120.6944 271.13039999999995,120.6944 267.73199999999997C120.6944 267.21359999999993,120.7808 267.04079999999993,121.0112 266.95439999999996M122.7392 285.32879999999994L122.768 285.32879999999994L122.6816 285.32879999999994L122.7392 285.32879999999994M122.7392 265.91759999999994L122.768 265.91759999999994L122.6816 265.91759999999994L122.7392 265.91759999999994"></path><path stroke-width="0.3" fill="#000000" stroke="none" stroke-dasharray="none" d="M116 305.29999999999995M121.0112 286.95439999999996C121.04 286.9256,121.4432 286.9256,122.6816 286.9256C123.056 286.9256,123.4592 286.9256,123.9776 286.9256L126.8864 286.9256L126.9728 287.01199999999994C127.1168 287.09839999999997,127.2032 287.2424,127.2032 287.35759999999993C127.2032 287.53039999999993,127.1168 287.64559999999994,127.0016 287.76079999999996C126.9728 287.84719999999993,126.7136 288.07759999999996,126.5408 288.3367999999999L125.0144 290.0936L123.056 292.31119999999993L122.0192 293.49199999999996L120.464 295.27759999999995L118.4192 297.61039999999997C118.0736 298.04239999999993,117.6992 298.388,117.6992 298.388C117.6992 298.388,117.6992 298.388,117.6992 298.388C117.6992 298.44559999999996,117.9584 298.44559999999996,120.3488 298.44559999999996L122.9696 298.44559999999996L122.9696 296.57359999999994C122.9696 294.67279999999994,122.9696 294.64399999999995,122.9984 294.61519999999996C123.056 294.52879999999993,123.3152 294.21199999999993,124.3232 293.03119999999996L124.7264 292.59919999999994L125.1296 292.1672L125.7344 291.3896L126.368 290.7272L126.6848 290.32399999999996C126.8 290.15119999999996,126.9728 290.12239999999997,127.1168 290.12239999999997C127.28960000000001 290.12239999999997,127.4336 290.20879999999994,127.52 290.35279999999995C127.5488 290.43919999999997,127.5488 290.49679999999995,127.5488 292.62799999999993C127.5488 293.1176,127.5488 293.72239999999994,127.5488 294.44239999999996L127.5488 298.44559999999996L128.2688 298.44559999999996C128.9312 298.44559999999996,128.96 298.44559999999996,129.0464 298.47439999999995C129.2768 298.5608,129.392 298.79119999999995,129.392 299.05039999999997C129.392 299.1944,129.3632 299.36719999999997,129.248 299.4823999999999C129.0752 299.62639999999993,129.0464 299.62639999999993,128.2688 299.62639999999993L127.5488 299.62639999999993L127.5488 300.11599999999993C127.5776 301.5848,127.8656 302.16079999999994,128.9888 302.76559999999995C129.392 302.96719999999993,129.4784 303.02479999999997,129.4784 303.3128C129.4784 303.51439999999997,129.42079999999999 303.60079999999994,129.2768 303.71599999999995L129.1904 303.74479999999994L125.2448 303.74479999999994L121.328 303.74479999999994L121.2416 303.71599999999995C121.0688 303.60079999999994,121.04 303.51439999999997,121.04 303.3128C121.04 303.02479999999997,121.0688 302.96719999999993,121.5008 302.76559999999995C122.624 302.16079999999994,122.912 301.5848,122.912 300.11599999999993L122.912 299.62639999999993L119.6 299.62639999999993C118.9952 299.68399999999997,118.5056 299.68399999999997,118.1024 299.68399999999997C116.288 299.68399999999997,116.2592 299.62639999999993,116.2304 299.62639999999993C116.0576 299.56879999999995,116 299.39599999999996,116 299.1944C116 299.1944,116 299.1944,116 299.1944C116 298.99279999999993,116 298.99279999999993,116.576 298.33039999999994C118.9952 295.39279999999997,120.6944 291.13039999999995,120.6944 287.73199999999997C120.6944 287.21359999999993,120.7808 287.04079999999993,121.0112 286.95439999999996M122.7392 305.32879999999994L122.768 305.32879999999994L122.6816 305.32879999999994L122.7392 305.32879999999994M122.7392 285.91759999999994L122.768 285.91759999999994L122.6816 285.91759999999994L122.7392 285.91759999999994"></path><g class="vf-stavenote" id="vf-auto1999966"><g class="vf-note" pointer-events="bounding-box"><g class="vf-stem" pointer-events="bounding-box"><path stroke-width="1.5" fill="none" stroke="#000000" stroke-dasharray="none" class="vf-stem" id="vf-auto1999966-stem" d="M142.2284 260.29999999999995L142.2284 295.29999999999995"></path></g><g class="vf-notehead" pointer-events="bounding-box"><path stroke-width="0.3" fill="#000000" stroke="none" stroke-dasharray="none" d="M141.4784 260.29999999999995M148.83535999999998 255.07711999999995C148.94768 255.07711999999995,149.11615999999998 255.07711999999995,149.14424 255.07711999999995C149.14424 255.07711999999995,149.17231999999998 255.07711999999995,149.17231999999998 255.07711999999995C149.17231999999998 255.07711999999995,149.3408 255.07711999999995,149.4812 255.07711999999995C152.0084 255.21751999999995,153.49663999999999 256.87423999999993,153.49663999999999 258.95215999999994C153.49663999999999 259.96304,153.15967999999998 261.11431999999996,152.31727999999998 262.20944C150.71671999999998 264.37159999999994,148.10528 265.55096,145.83079999999998 265.55096C144.06176 265.55096,142.54543999999999 264.84896,141.81536 263.41687999999994C141.59072 262.85527999999994,141.4784 262.3217599999999,141.4784 261.73207999999994C141.4784 258.67135999999994,144.90416 255.27367999999996,148.83535999999998 255.07711999999995"></path></g></g><g class="vf-modifiers"></g></g><rect stroke-width="0.3" fill="#000000" stroke="#000000" stroke-dasharray="none" x="304.34522239999995" y="166.5" width="1" height="139.79999999999995"></rect><rect stroke-width="0.3" fill="#000000" stroke="#000000" stroke-dasharray="none" x="70" y="166.5" width="1" height="139.79999999999995"></rect><path stroke-width="1" fill="none" stroke="#000000" stroke-dasharray="none" d="M304.34522239999995 265.29999999999995L452.5120447999999 265.29999999999995"></path><path stroke-width="1" fill="none" stroke="#000000" stroke-dasharray="none" d="M304.34522239999995 275.29999999999995L452.5120447999999 275.29999999999995"></path><path stroke-width="1" fill="none" stroke="#000000" stroke-dasharray="none" d="M304.34522239999995 285.29999999999995L452.5120447999999 285.29999999999995"></path><path stroke-width="1" fill="none" stroke="#000000" stroke-dasharray="none" d="M304.34522239999995 295.29999999999995L452.5120447999999 295.29999999999995"></path><path stroke-width="1" fill="none" stroke="#000000" stroke-dasharray="none" d="M304.34522239999995 305.29999999999995L452.5120447999999 305.29999999999995"></path><rect stroke-width="0.3" fill="#000000" stroke="#000000" stroke-dasharray="none" x="452.5120447999999" y="264.79999999999995" width="1" height="41"></rect><g class="vf-stavenote" id="vf-auto1999995"><g class="vf-note" pointer-events="bounding-box"><g class="vf-stem" pointer-events="bounding-box"><path stroke-width="1.5" fill="none" stroke="#000000" stroke-dasharray="none" class="vf-stem" id="vf-auto1999995-stem" d="M332.61346239999995 300.29999999999995L332.61346239999995 265.29999999999995"></path></g><g class="vf-notehead" pointer-events="bounding-box"><path stroke-width="0.3" fill="#000000" stroke="none" stroke-dasharray="none" d="M321.34522239999995 300.29999999999995M328.70218239999997 295.07712C328.8145024 295.07712,328.98298239999997 295.07712,329.01106239999996 295.07712C329.01106239999996 295.07712,329.03914239999995 295.07712,329.03914239999995 295.07712C329.03914239999995 295.07712,329.20762239999993 295.07712,329.34802239999993 295.07712C331.8752224 295.21752,333.36346239999995 296.87423999999993,333.36346239999995 298.95215999999994C333.36346239999995 299.96304,333.02650239999997 301.11431999999996,332.1841024 302.20944C330.58354239999994 304.37159999999994,327.9721023999999 305.55096,325.69762239999994 305.55096C323.9285824 305.55096,322.4122624 304.84896,321.68218239999993 303.41687999999994C321.45754239999997 302.85527999999994,321.34522239999995 302.3217599999999,321.34522239999995 301.73207999999994C321.34522239999995 298.67135999999994,324.7709824 295.27367999999996,328.70218239999997 295.07712"></path></g></g><g class="vf-modifiers"></g></g><g class="vf-stavenote" id="vf-auto2000003"><g class="vf-note" pointer-events="bounding-box"><g class="vf-stem" pointer-events="bounding-box"><path stroke-width="1.5" fill="none" stroke="#000000" stroke-dasharray="none" class="vf-stem" id="vf-auto2000003-stem" d="M355.34522239999995 275.29999999999995L355.34522239999995 310.29999999999995"></path></g><g class="vf-notehead" pointer-events="bounding-box"><path stroke-width="0.3" fill="#000000" stroke="none" stroke-dasharray="none" d="M354.59522239999995 275.29999999999995M361.95218239999997 270.07712C362.0645024 270.07712,362.23298239999997 270.07712,362.26106239999996 270.07712C362.26106239999996 270.07712,362.28914239999995 270.07712,362.28914239999995 270.07712C362.28914239999995 270.07712,362.45762239999993 270.07712,362.59802239999993 270.07712C365.1252224 270.21752,366.61346239999995 271.87423999999993,366.61346239999995 273.95215999999994C366.61346239999995 274.96304,366.27650239999997 276.11431999999996,365.4341024 277.20944C363.83354239999994 279.37159999999994,361.2221023999999 280.55096,358.94762239999994 280.55096C357.1785824 280.55096,355.6622624 279.84896,354.93218239999993 278.41687999999994C354.70754239999997 277.85527999999994,354.59522239999995 277.3217599999999,354.59522239999995 276.73207999999994C354.59522239999995 273.67135999999994,358.0209824 270.27367999999996,361.95218239999997 270.07712"></path></g></g><g class="vf-modifiers"></g></g><rect stroke-width="0.3" fill="#000000" stroke="#000000" stroke-dasharray="none" x="452.5120447999999" y="166.5" width="1" height="139.79999999999995"></rect><path stroke-width="1" fill="none" stroke="#000000" stroke-dasharray="none" d="M452.5120447999999 265.29999999999995L600.6788671999998 265.29999999999995"></path><path stroke-width="1" fill="none" stroke="#000000" stroke-dasharray="none" d="M452.5120447999999 275.29999999999995L600.6788671999998 275.29999999999995"></path><path stroke-width="1" fill="none" stroke="#000000" stroke-dasharray="none" d="M452.5120447999999 285.29999999999995L600.6788671999998 285.29999999999995"></path><path stroke-width="1" fill="none" stroke="#000000" stroke-dasharray="none" d="M452.5120447999999 295.29999999999995L600.6788671999998 295.29999999999995"></path><path stroke-width="1" fill="none" stroke="#000000" stroke-dasharray="none" d="M452.5120447999999 305.29999999999995L600.6788671999998 305.29999999999995"></path><rect stroke-width="0.3" fill="#000000" stroke="#000000" stroke-dasharray="none" x="600.6788671999998" y="264.79999999999995" width="1" height="41"></rect><g class="vf-stavenote" id="vf-auto2000031"><g class="vf-note" pointer-events="bounding-box"><g class="vf-stem" pointer-events="bounding-box"><path stroke-width="1.5" fill="none" stroke="#000000" stroke-dasharray="none" class="vf-stem" id="vf-auto2000031-stem" d="M480.7802847999999 295.29999999999995L480.7802847999999 260.29999999999995"></path></g><g class="vf-notehead" pointer-events="bounding-box"><path stroke-width="0.3" fill="#000000" stroke="none" stroke-dasharray="none" d="M469.5120447999999 295.29999999999995M476.8690047999999 290.07712C476.9813247999999 290.07712,477.1498047999999 290.07712,477.1778847999999 290.07712C477.1778847999999 290.07712,477.2059647999999 290.07712,477.2059647999999 290.07712C477.2059647999999 290.07712,477.3744447999999 290.07712,477.5148447999999 290.07712C480.04204479999987 290.21752,481.5302847999999 291.87423999999993,481.5302847999999 293.95215999999994C481.5302847999999 294.96304,481.1933247999999 296.11431999999996,480.3509247999999 297.20944C478.7503647999999 299.37159999999994,476.1389247999999 300.55096,473.8644447999999 300.55096C472.0954047999999 300.55096,470.5790847999999 299.84896,469.8490047999999 298.41687999999994C469.6243647999999 297.85527999999994,469.5120447999999 297.3217599999999,469.5120447999999 296.73207999999994C469.5120447999999 293.67135999999994,472.9378047999999 290.27367999999996,476.8690047999999 290.07712"></path></g></g><g class="vf-modifiers"></g></g><g class="vf-stavenote" id="vf-auto2000039"><g class="vf-note" pointer-events="bounding-box"><g class="vf-stem" pointer-events="bounding-box"><path stroke-width="1.5" fill="none" stroke="#000000" stroke-dasharray="none" class="vf-stem" id="vf-auto2000039-stem" d="M514.0302847999999 305.29999999999995L514.0302847999999 270.29999999999995"></path></g><g class="vf-notehead" pointer-events="bounding-box"><path stroke-width="0.3" fill="#000000" stroke="none" stroke-dasharray="none" d="M502.7620447999999 305.29999999999995M510.1190047999999 300.07712C510.2313247999999 300.07712,510.3998047999999 300.07712,510.4278847999999 300.07712C510.4278847999999 300.07712,510.4559647999999 300.07712,510.4559647999999 300.07712C510.4559647999999 300.07712,510.6244447999999 300.07712,510.7648447999999 300.07712C513.2920447999999 300.21752,514.7802847999999 301.87423999999993,514.7802847999999 303.95215999999994C514.7802847999999 304.96304,514.4433247999999 306.11431999999996,513.6009247999999 307.20944C512.0003647999999 309.37159999999994,509.3889247999999 310.55096,507.1144447999999 310.55096C505.3454047999999 310.55096,503.8290847999999 309.84896,503.0990047999999 308.41687999999994C502.8743647999999 307.85527999999994,502.7620447999999 307.3217599999999,502.7620447999999 306.73207999999994C502.7620447999999 303.67135999999994,506.1878047999999 300.27367999999996,510.1190047999999 300.07712"></path></g></g><g class="vf-modifiers"></g></g><rect stroke-width="0.3" fill="#000000" stroke="#000000" stroke-dasharray="none" x="600.6788671999998" y="166.5" width="1" height="139.79999999999995"></rect><path stroke-width="1" fill="none" stroke="#000000" stroke-dasharray="none" d="M600.6788671999999 265.29999999999995L758.8456895999998 265.29999999999995"></path><path stroke-width="1" fill="none" stroke="#000000" stroke-dasharray="none" d="M600.6788671999999 275.29999999999995L758.8456895999998 275.29999999999995"></path><path stroke-width="1" fill="none" stroke="#000000" stroke-dasharray="none" d="M600.6788671999999 285.29999999999995L758.8456895999998 285.29999999999995"></path><path stroke-width="1" fill="none" stroke="#000000" stroke-dasharray="none" d="M600.6788671999999 295.29999999999995L758.8456895999998 295.29999999999995"></path><path stroke-width="1" fill="none" stroke="#000000" stroke-dasharray="none" d="M600.6788671999999 305.29999999999995L758.8456895999998 305.29999999999995"></path><rect stroke-width="0.3" fill="#000000" stroke="#000000" stroke-dasharray="none" x="753.8456895999998" y="264.79999999999995" width="1" height="41"></rect><rect stroke-width="0.3" fill="#000000" stroke="#000000" stroke-dasharray="none" x="756.8456895999998" y="264.79999999999995" width="3" height="41"></rect><path stroke-width="0.3" fill="#000000" stroke="none" stroke-dasharray="none" d="M752.8456895999998 280.79999999999995 A2 2 0 0 0 748.8456895999998 280.79999999999995M748.8456895999998 280.79999999999995 A2 2 0 0 0 752.8456895999998 280.79999999999995"></path><path stroke-width="0.3" fill="#000000" stroke="none" stroke-dasharray="none" d="M752.8456895999998 290.79999999999995 A2 2 0 0 0 748.8456895999998 290.79999999999995M748.8456895999998 290.79999999999995 A2 2 0 0 0 752.8456895999998 290.79999999999995"></path><g class="vf-stavenote" id="vf-auto2000065"><g class="vf-note" pointer-events="bounding-box"><g class="vf-stem" pointer-events="bounding-box"><path stroke-width="1.5" fill="none" stroke="#000000" stroke-dasharray="none" class="vf-stem" id="vf-auto2000065-stem" d="M628.9471071999999 290.29999999999995L628.9471071999999 255.29999999999995"></path></g><g class="vf-notehead" pointer-events="bounding-box"><path stroke-width="0.3" fill="#000000" stroke="none" stroke-dasharray="none" d="M617.6788671999999 290.29999999999995M625.0358271999999 285.07712C625.1481471999999 285.07712,625.3166271999999 285.07712,625.3447071999999 285.07712C625.3447071999999 285.07712,625.3727872 285.07712,625.3727872 285.07712C625.3727872 285.07712,625.5412671999999 285.07712,625.6816671999999 285.07712C628.2088671999999 285.21752,629.6971071999999 286.87423999999993,629.6971071999999 288.95215999999994C629.6971071999999 289.96304,629.3601471999999 291.11431999999996,628.5177471999999 292.20944C626.9171872 294.37159999999994,624.3057471999999 295.55096,622.0312671999999 295.55096C620.2622271999999 295.55096,618.7459071999999 294.84896,618.0158271999999 293.41687999999994C617.7911871999999 292.85527999999994,617.6788671999999 292.3217599999999,617.6788671999999 291.73207999999994C617.6788671999999 288.67135999999994,621.1046271999999 285.27367999999996,625.0358271999999 285.07712"></path></g></g><g class="vf-modifiers"></g></g><g class="vf-stavenote" id="vf-auto2000073"><g class="vf-note" pointer-events="bounding-box"><g class="vf-stem" pointer-events="bounding-box"><path stroke-width="1.5" fill="none" stroke="#000000" stroke-dasharray="none" class="vf-stem" id="vf-auto2000073-stem" d="M664.6971071999999 300.29999999999995L664.6971071999999 265.29999999999995"></path></g><g class="vf-notehead" pointer-events="bounding-box"><path stroke-width="0.3" fill="#000000" stroke="none" stroke-dasharray="none" d="M653.4288671999999 300.29999999999995M660.7858271999999 295.07712C660.8981471999999 295.07712,661.0666271999999 295.07712,661.0947071999999 295.07712C661.0947071999999 295.07712,661.1227872 295.07712,661.1227872 295.07712C661.1227872 295.07712,661.2912671999999 295.07712,661.4316671999999 295.07712C663.9588671999999 295.21752,665.4471071999999 296.87423999999993,665.4471071999999 298.95215999999994C665.4471071999999 299.96304,665.1101471999999 301.11431999999996,664.2677471999999 302.20944C662.6671872 304.37159999999994,660.0557471999999 305.55096,657.7812671999999 305.55096C656.0122271999999 305.55096,654.4959071999999 304.84896,653.7658271999999 303.41687999999994C653.5411871999999 302.85527999999994,653.4288671999999 302.3217599999999,653.4288671999999 301.73207999999994C653.4288671999999 298.67135999999994,656.8546271999999 295.27367999999996,660.7858271999999 295.07712"></path></g></g><g class="vf-modifiers"></g></g><rect stroke-width="0.3" fill="#000000" stroke="#000000" stroke-dasharray="none" x="753.8456895999998" y="166.5" width="1" height="139.79999999999995"></rect><rect stroke-width="0.3" fill="#000000" stroke="#000000" stroke-dasharray="none" x="756.8456895999998" y="166.5" width="3" height="139.79999999999995"></rect><path stroke-width="0.3" fill="#000000" stroke="none" stroke-dasharray="none" d="M68 166.5C45.2 194.45999999999998,81.2 217.527,56 236.39999999999998C81.2 255.27299999999997,45.2 278.34,68 306.29999999999995C44 278.34,72.8 255.27299999999997,56 236.39999999999998C72.8 217.527,44 194.45999999999998,68 166.5"></path><path stroke-width="1" fill="none" stroke="#000000" stroke-dasharray="none" d="M68 166.5C45.2 194.45999999999998,81.2 217.527,56 236.39999999999998C81.2 255.27299999999997,45.2 278.34,68 306.29999999999995C44 278.34,72.8 255.27299999999997,56 236.39999999999998C72.8 217.527,44 194.45999999999998,68 166.5"></path><g class="vf-text"><text stroke-width="0.3" fill="#000000" stroke="none" stroke-dasharray="none" font-family="Times New Roman" font-size="15px" font-weight="normal" font-style="normal" x="449.0120447999999" y="163.5">3</text></g></svg>