<svg xmlns="http://www.w3.org/2000/svg"  width="1470" height="391.79999999999995" viewBox="0 0 1470 391.79999999999995"><path stroke-width="1" fill="none" stroke="#000000" stroke-dasharray="none" d="M70 166.5L300.14522239999997 166.5"></path><path stroke-width="1" fill="none" stroke="#000000" stroke-dasharray="none" d="M70 176.5L300.14522239999997 176.5"></path><path stroke-width="1" fill="none" stroke="#000000" stroke-dasharray="none" d="M70 186.5L300.14522239999997 186.5"></path><path stroke-width="1" fill="none" stroke="#000000" stroke-dasharray="none" d="M70 196.5L300.14522239999997 196.5"></path><path stroke-width="1" fill="none" stroke="#000000" stroke-dasharray="none" d="M70 206.5L300.14522239999997 206.5"></path><rect stroke-width="0.3" fill="#000000" stroke="#000000" stroke-dasharray="none" x="300.14522239999997" y="166" width="1" height="41"></rect><g class="vf-clef"><path stroke-width="0.3" fill="#000000" stroke="none" stroke-dasharray="none" d="M75 196.5M89.0544 153.3288C89.112 153.3,89.1696 153.3,89.256 153.3C89.6016 153.3,90.0048 153.588,90.5808 154.308C92.9136 156.9864,94.5552 161.652,94.5552 165.4536C94.5552 165.7416,94.4976 165.972,94.4976 166.26C94.2384 170.7816,92.3952 174.4968,88.7376 178.0104L87.7584 178.9608L87.4128 179.3352L87.4128 179.4504L87.6144 180.3144L87.9312 181.8696L88.248 183.3096C88.68 185.268,88.8528 186.276,88.8528 186.276C88.8528 186.276,88.8528 186.276,88.8528 186.276C88.8528 186.276,88.968 186.276,89.112 186.2472C89.256 186.2472,89.7168 186.1896,90.2064 186.1896C90.55199999999999 186.1896,90.8976 186.2472,91.0704 186.2472C95.1312 186.7656,98.2704 189.6744,99.1632 193.764C99.336 194.4264,99.39359999999999 195.1464,99.39359999999999 195.8664C99.39359999999999 199.7544,97.0608 203.4696,93.1728 205.2264C92.94239999999999 205.3704,92.856 205.3992,92.856 205.3992L92.856 205.428C92.856 205.428,93.0288 206.0904,93.1728 206.8392L93.6048 209.028L94.008 210.7848C94.2384 211.908,94.3536 212.7144,94.3536 213.4344C94.3536 214.06799999999998,94.2672 214.644,94.1232 215.3064C93.144 219.3096,89.6592 221.7,86.0304 221.7C84.2448 221.7,82.4016 221.124,80.7888 219.828C79.3488 218.6184,78.7152 217.524,78.7152 216.084C78.7152 213.5496,80.76 211.764,82.8912 211.764C83.64 211.764,84.3888 211.99439999999998,85.1088 212.4264C86.3184 213.2616,86.8656 214.5288,86.8656 215.7672C86.8656 217.668,85.5408 219.54,83.2656 219.684L83.0352 219.684L83.208 219.79919999999998C84.1584 220.2024,85.1088 220.404,86.0304 220.404C88.3632 220.404,90.55199999999999 219.2232,91.8768 217.1784C92.62559999999999 216.0264,93.0288 214.6728,93.0288 213.3192C93.0288 212.8008,92.94239999999999 212.2824,92.8272 211.7064C92.8272 211.6488,92.74080000000001 211.188,92.62559999999999 210.756C91.992 207.6456,91.6176 205.8312,91.6176 205.8312C91.6176 205.8312,91.6176 205.8312,91.6176 205.8312C91.56 205.8312,91.4448 205.8312,91.3584 205.8888C91.0704 205.9464,90.4656 206.0904,90.2064 206.1192C89.5728 206.2056,88.968 206.2344,88.392 206.2344C82.74719999999999 206.2344,77.5056 202.4328,75.6912 196.8168C75.2304 195.3192,74.9712 193.8216,74.9712 192.324C74.9712 189.3288,75.9216 186.3912,77.7648 183.7704C79.7808 180.9192,81.7968 178.4712,84.2736 175.9368L85.13759999999999 175.044L84.936 173.9784L84.5616 172.2216L84.072 169.9752C83.928 169.14,83.7552 168.3336,83.7264 168.1608C83.5824 167.2104,83.496 166.2888,83.496 165.3384C83.496 161.7096,84.6768 158.22480000000002,86.8944 155.4312C87.5568 154.5672,88.7376 153.4152,89.0544 153.3288M90.8112 159.0312C90.7536 159.0312,90.6672 159.0312,90.5808 159.0312C89.4 159.0312,87.8736 160.1256,86.8368 161.7384C85.7712 163.32240000000002,85.224 165.4248,85.224 167.5848C85.224 168.1608,85.25280000000001 168.7656,85.3392 169.3704C85.4256 169.8024,85.45439999999999 170.0904,85.6848 171.12720000000002L86.088 172.9416C86.2032 173.4888,86.28960000000001 173.92079999999999,86.28960000000001 173.9784L86.28960000000001 173.9784C86.3184 173.9784,87.2112 172.9992,87.4992 172.6536C90.3792 169.3992,92.1072 165.972,92.4816 162.948C92.5104 162.66,92.5104 162.4296,92.5104 162.1416C92.5104 161.24880000000002,92.3952 160.38479999999998,92.1936 159.924C91.9632 159.4632,91.4448 159.0888,90.8112 159.0312M86.4624 181.2936C86.4048 180.8904,86.3184 180.5736,86.3184 180.516C86.3184 180.516,86.3184 180.516,86.28960000000001 180.516C86.232 180.516,84.9936 181.956,84.1296 182.964C82.6608 184.7496,81.1056 186.8808,80.472 187.9176C79.2624 189.9624,78.6576 192.2376,78.6576 194.484C78.6576 195.9528,78.9456 197.364,79.464 198.7176C81.0192 202.7208,84.5904 205.2264,88.4784 205.2264C88.9392 205.2264,89.4576 205.1976,89.9472 205.1112C90.5808 204.996,91.3584 204.7656,91.3584 204.6792L91.3584 204.6792C91.3584 204.6792,91.3008 204.3912,91.2144 204.0744L90.3792 199.956L89.7168 196.8744L89.2848 194.7432L88.824 192.6696C88.5936 191.4312,88.5072 191.1144,88.5072 191.1144C88.5072 191.1144,88.5072 191.0856,88.4784 191.0856C88.3056 191.0856,87.384 191.5464,86.9808 191.8344C85.4832 192.8712,84.7056 194.5128,84.7056 196.1256C84.7056 197.652,85.45439999999999 199.1784,86.8944 200.0712C87.2112 200.2728,87.3264 200.4456,87.3264 200.6472C87.3264 200.676,87.3264 200.7624,87.3264 200.7912C87.2688 201.1368,87.0672 201.2808,86.7792 201.2808C86.664 201.2808,86.52 201.252,86.3472 201.1656C83.6976 200.0136,81.912 197.2776,81.912 194.2824L81.912 194.2824C81.912 190.8264,84.072 187.8312,87.384 186.6504L87.5568 186.5928L87.2688 185.1528L86.4624 181.2936M90.7824 190.9128C90.55199999999999 190.88400000000001,90.3216 190.88400000000001,90.1488 190.88400000000001C90.0912 190.88400000000001,90.0048 190.88400000000001,89.9472 190.88400000000001L89.8032 190.88400000000001L89.9184 191.4024L90.5232 194.2248L90.8976 196.068L91.3008 197.8824L92.1072 201.8856L92.424 203.412C92.5392 203.8152,92.5968 204.1608,92.62559999999999 204.1608C92.62559999999999 204.1608,92.62559999999999 204.1608,92.62559999999999 204.1608C92.6544 204.1608,93.144 203.8728,93.4608 203.6424C94.9296 202.6056,96.024 200.9928,96.4272 199.3224C96.5712 198.7752,96.6288 198.1992,96.6288 197.652C96.6288 194.3112,94.152 191.2872,90.7824 190.9128"></path></g><path stroke-width="0.3" fill="#000000" stroke="none" stroke-dasharray="none" d="M116 186.5M121.0112 168.1544C121.04 168.1256,121.4432 168.1256,122.6816 168.1256C123.056 168.1256,123.4592 168.1256,123.9776 168.1256L126.8864 168.1256L126.9728 168.212C127.1168 168.29840000000002,127.2032 168.4424,127.2032 168.5576C127.2032 168.7304,127.1168 168.8456,127.0016 168.9608C126.9728 169.0472,126.7136 169.2776,126.5408 169.5368L125.0144 171.2936L123.056 173.5112L122.0192 174.692L120.464 176.4776L118.4192 178.8104C118.0736 179.2424,117.6992 179.588,117.6992 179.588C117.6992 179.588,117.6992 179.588,117.6992 179.588C117.6992 179.6456,117.9584 179.6456,120.3488 179.6456L122.9696 179.6456L122.9696 177.7736C122.9696 175.8728,122.9696 175.844,122.9984 175.8152C123.056 175.7288,123.3152 175.412,124.3232 174.2312L124.7264 173.7992L125.1296 173.3672L125.7344 172.5896L126.368 171.9272L126.6848 171.524C126.8 171.3512,126.9728 171.3224,127.1168 171.3224C127.28960000000001 171.3224,127.4336 171.4088,127.52 171.5528C127.5488 171.6392,127.5488 171.6968,127.5488 173.828C127.5488 174.3176,127.5488 174.9224,127.5488 175.6424L127.5488 179.6456L128.2688 179.6456C128.9312 179.6456,128.96 179.6456,129.0464 179.6744C129.2768 179.7608,129.392 179.9912,129.392 180.2504C129.392 180.3944,129.3632 180.5672,129.248 180.6824C129.0752 180.8264,129.0464 180.8264,128.2688 180.8264L127.5488 180.8264L127.5488 181.316C127.5776 182.7848,127.8656 183.3608,128.9888 183.9656C129.392 184.1672,129.4784 184.2248,129.4784 184.5128C129.4784 184.7144,129.42079999999999 184.8008,129.2768 184.916L129.1904 184.9448L125.2448 184.9448L121.328 184.9448L121.2416 184.916C121.0688 184.8008,121.04 184.7144,121.04 184.5128C121.04 184.2248,121.0688 184.1672,121.5008 183.9656C122.624 183.3608,122.912 182.7848,122.912 181.316L122.912 180.8264L119.6 180.8264C118.9952 180.88400000000001,118.5056 180.88400000000001,118.1024 180.88400000000001C116.288 180.88400000000001,116.2592 180.8264,116.2304 180.8264C116.0576 180.7688,116 180.596,116 180.3944C116 180.3944,116 180.3944,116 180.3944C116 180.1928,116 180.1928,116.576 179.5304C118.9952 176.5928,120.6944 172.3304,120.6944 168.93200000000002C120.6944 168.4136,120.7808 168.2408,121.0112 168.1544M122.7392 186.5288L122.768 186.5288L122.6816 186.5288L122.7392 186.5288M122.7392 167.1176L122.768 167.1176L122.6816 167.1176L122.7392 167.1176"></path><path stroke-width="0.3" fill="#000000" stroke="none" stroke-dasharray="none" d="M116 206.5M121.0112 188.1544C121.04 188.1256,121.4432 188.1256,122.6816 188.1256C123.056 188.1256,123.4592 188.1256,123.9776 188.1256L126.8864 188.1256L126.9728 188.212C127.1168 188.29840000000002,127.2032 188.4424,127.2032 188.5576C127.2032 188.7304,127.1168 188.8456,127.0016 188.9608C126.9728 189.0472,126.7136 189.2776,126.5408 189.5368L125.0144 191.2936L123.056 193.5112L122.0192 194.692L120.464 196.4776L118.4192 198.8104C118.0736 199.2424,117.6992 199.588,117.6992 199.588C117.6992 199.588,117.6992 199.588,117.6992 199.588C117.6992 199.6456,117.9584 199.6456,120.3488 199.6456L122.9696 199.6456L122.9696 197.7736C122.9696 195.8728,122.9696 195.844,122.9984 195.8152C123.056 195.7288,123.3152 195.412,124.3232 194.2312L124.7264 193.7992L125.1296 193.3672L125.7344 192.5896L126.368 191.9272L126.6848 191.524C126.8 191.3512,126.9728 191.3224,127.1168 191.3224C127.28960000000001 191.3224,127.4336 191.4088,127.52 191.5528C127.5488 191.6392,127.5488 191.6968,127.5488 193.828C127.5488 194.3176,127.5488 194.9224,127.5488 195.6424L127.5488 199.6456L128.2688 199.6456C128.9312 199.6456,128.96 199.6456,129.0464 199.6744C129.2768 199.7608,129.392 199.9912,129.392 200.2504C129.392 200.3944,129.3632 200.5672,129.248 200.6824C129.0752 200.8264,129.0464 200.8264,128.2688 200.8264L127.5488 200.8264L127.5488 201.316C127.5776 202.7848,127.8656 203.3608,128.9888 203.9656C129.392 204.1672,129.4784 204.2248,129.4784 204.5128C129.4784 204.7144,129.42079999999999 204.8008,129.2768 204.916L129.1904 204.9448L125.2448 204.9448L121.328 204.9448L121.2416 204.916C121.0688 204.8008,121.04 204.7144,121.04 204.5128C121.04 204.2248,121.0688 204.1672,121.5008 203.9656C122.624 203.3608,122.912 202.7848,122.912 201.316L122.912 200.8264L119.6 200.8264C118.9952 200.88400000000001,118.5056 200.88400000000001,118.1024 200.88400000000001C116.288 200.88400000000001,116.2592 200.8264,116.2304 200.8264C116.0576 200.7688,116 200.596,116 200.3944C116 200.3944,116 200.3944,116 200.3944C116 200.1928,116 200.1928,116.576 199.5304C118.9952 196.5928,120.6944 192.3304,120.6944 188.93200000000002C120.6944 188.4136,120.7808 188.2408,121.0112 188.1544M122.7392 206.5288L122.768 206.5288L122.6816 206.5288L122.7392 206.5288M122.7392 187.1176L122.768 187.1176L122.6816 187.1176L122.7392 187.1176"></path><g class="vf-stavenote" id="vf-auto1946750"><g class="vf-note" pointer-events="bounding-box"><g class="vf-stem" pointer-events="bounding-box"><path stroke-width="1.5" fill="none" stroke="#000000" stroke-dasharray="none" class="vf-stem" id="vf-auto1946750-stem" d="M222.48919999999998 176.5L222.48919999999998 211.5"></path></g><g class="vf-notehead" pointer-events="bounding-box"><path stroke-width="0.3" fill="#000000" stroke="none" stroke-dasharray="none" d="M221.73919999999998 176.5M229.09615999999997 171.27712C229.20847999999998 171.27712,229.37696 171.27712,229.40503999999999 171.27712C229.40503999999999 171.27712,229.43311999999997 171.27712,229.43311999999997 171.27712C229.43311999999997 171.27712,229.6016 171.27712,229.742 171.27712C232.26919999999998 171.41752,233.75743999999997 173.07424,233.75743999999997 175.15216C233.75743999999997 176.16304,233.42048 177.31432,232.57807999999997 178.40944C230.97751999999997 180.5716,228.36607999999998 181.75096,226.09159999999997 181.75096C224.32255999999998 181.75096,222.80623999999997 181.04896,222.07616 179.61688C221.85152 179.05528,221.73919999999998 178.52176,221.73919999999998 177.93208C221.73919999999998 174.87136,225.16495999999998 171.47368,229.09615999999997 171.27712"></path></g></g><g class="vf-modifiers"></g></g><g class="vf-stavenote" id="vf-auto1946758"><g class="vf-note" pointer-events="bounding-box"><g class="vf-stem" pointer-events="bounding-box"><path stroke-width="1.5" fill="none" stroke="#000000" stroke-dasharray="none" class="vf-stem" id="vf-auto1946758-stem" d="M273.13784 201.5L273.13784 166.5"></path></g><g class="vf-notehead" pointer-events="bounding-box"><path stroke-width="0.3" fill="#000000" stroke="none" stroke-dasharray="none" d="M261.8696 201.5M269.22656 196.27712C269.33888 196.27712,269.50736 196.27712,269.53544 196.27712C269.53544 196.27712,269.56352 196.27712,269.56352 196.27712C269.56352 196.27712,269.73199999999997 196.27712,269.87239999999997 196.27712C272.39959999999996 196.41752,273.88784 198.07424,273.88784 200.15216C273.88784 201.16304,273.55088 202.31432,272.70848 203.40944C271.10792 205.5716,268.49648 206.75096,266.222 206.75096C264.45296 206.75096,262.93664 206.04896,262.20655999999997 204.61688C261.98192 204.05528,261.8696 203.52176,261.8696 202.93208C261.8696 199.87136,265.29536 196.47368,269.22656 196.27712"></path></g></g><g class="vf-modifiers"></g></g><path stroke-width="1" fill="none" stroke="#000000" stroke-dasharray="none" d="M300.14522239999997 166.5L448.3120447999999 166.5"></path><path stroke-width="1" fill="none" stroke="#000000" stroke-dasharray="none" d="M300.14522239999997 176.5L448.3120447999999 176.5"></path><path stroke-width="1" fill="none" stroke="#000000" stroke-dasharray="none" d="M300.14522239999997 186.5L448.3120447999999 186.5"></path><path stroke-width="1" fill="none" stroke="#000000" stroke-dasharray="none" d="M300.14522239999997 196.5L448.3120447999999 196.5"></path><path stroke-width="1" fill="none" stroke="#000000" stroke-dasharray="none" d="M300.14522239999997 206.5L448.3120447999999 206.5"></path><rect stroke-width="0.3" fill="#000000" stroke="#000000" stroke-dasharray="none" x="448.3120447999999" y="166" width="1" height="41"></rect><g class="vf-stavenote" id="vf-auto1946786"><g class="vf-note" pointer-events="bounding-box"><g class="vf-stem" pointer-events="bounding-box"><path stroke-width="1.5" fill="none" stroke="#000000" stroke-dasharray="none" class="vf-stem" id="vf-auto1946786-stem" d="M361.66346239999996 191.5L361.66346239999996 156.5"></path></g><g class="vf-notehead" pointer-events="bounding-box"><path stroke-width="0.3" fill="#000000" stroke="none" stroke-dasharray="none" d="M350.39522239999997 191.5M357.7521824 186.27712C357.8645024 186.27712,358.0329824 186.27712,358.06106239999997 186.27712C358.06106239999997 186.27712,358.08914239999996 186.27712,358.08914239999996 186.27712C358.08914239999996 186.27712,358.25762239999995 186.27712,358.39802239999995 186.27712C360.92522239999994 186.41752,362.41346239999996 188.07424,362.41346239999996 190.15216C362.41346239999996 191.16304,362.0765024 192.31432,361.2341024 193.40944C359.63354239999995 195.5716,357.0221024 196.75096,354.74762239999995 196.75096C352.9785824 196.75096,351.4622624 196.04896,350.73218239999994 194.61688C350.5075424 194.05528,350.39522239999997 193.52176,350.39522239999997 192.93208C350.39522239999997 189.87136,353.8209824 186.47368,357.7521824 186.27712"></path></g></g><g class="vf-modifiers"></g></g><g class="vf-stavenote" id="vf-auto1946794"><g class="vf-note" pointer-events="bounding-box"><g class="vf-stem" pointer-events="bounding-box"><path stroke-width="1.5" fill="none" stroke="#000000" stroke-dasharray="none" class="vf-stem" id="vf-auto1946794-stem" d="M428.16346239999996 211.5L428.16346239999996 176.5"></path></g><g class="vf-notehead" pointer-events="bounding-box"><path stroke-width="0.3" fill="#000000" stroke="none" stroke-dasharray="none" d="M416.89522239999997 211.5M424.2521824 206.27712C424.3645024 206.27712,424.5329824 206.27712,424.56106239999997 206.27712C424.56106239999997 206.27712,424.58914239999996 206.27712,424.58914239999996 206.27712C424.58914239999996 206.27712,424.75762239999995 206.27712,424.89802239999995 206.27712C427.42522239999994 206.41752,428.91346239999996 208.07424,428.91346239999996 210.15216C428.91346239999996 211.16304,428.5765024 212.31432,427.7341024 213.40944C426.13354239999995 215.5716,423.5221024 216.75096,421.24762239999995 216.75096C419.4785824 216.75096,417.9622624 216.04896,417.23218239999994 214.61688C417.0075424 214.05528,416.89522239999997 213.52176,416.89522239999997 212.93208C416.89522239999997 209.87136,420.3209824 206.47368,424.2521824 206.27712"></path></g></g><g class="vf-modifiers"></g></g><path stroke-width="1" fill="none" stroke="#000000" stroke-dasharray="none" d="M448.3120447999999 166.5L604.8788671999998 166.5"></path><path stroke-width="1" fill="none" stroke="#000000" stroke-dasharray="none" d="M448.3120447999999 176.5L604.8788671999998 176.5"></path><path stroke-width="1" fill="none" stroke="#000000" stroke-dasharray="none" d="M448.3120447999999 186.5L604.8788671999998 186.5"></path><path stroke-width="1" fill="none" stroke="#000000" stroke-dasharray="none" d="M448.3120447999999 196.5L604.8788671999998 196.5"></path><path stroke-width="1" fill="none" stroke="#000000" stroke-dasharray="none" d="M448.3120447999999 206.5L604.8788671999998 206.5"></path><rect stroke-width="0.3" fill="#000000" stroke="#000000" stroke-dasharray="none" x="604.8788671999998" y="166" width="1" height="41"></rect><g class="vf-stavenote" id="vf-auto1946824"><g class="vf-note" pointer-events="bounding-box"><g class="vf-stem" pointer-events="bounding-box"><path stroke-width="1.5" fill="none" stroke="#000000" stroke-dasharray="none" class="vf-stem" id="vf-auto1946824-stem" d="M476.5802847999999 201.5L476.5802847999999 166.5"></path></g><g class="vf-notehead" pointer-events="bounding-box"><path stroke-width="0.3" fill="#000000" stroke="none" stroke-dasharray="none" d="M465.3120447999999 201.5M472.6690047999999 196.27712C472.78132479999994 196.27712,472.9498047999999 196.27712,472.9778847999999 196.27712C472.9778847999999 196.27712,473.0059647999999 196.27712,473.0059647999999 196.27712C473.0059647999999 196.27712,473.1744447999999 196.27712,473.3148447999999 196.27712C475.84204479999994 196.41752,477.3302847999999 198.07424,477.3302847999999 200.15216C477.3302847999999 201.16304,476.9933247999999 202.31432,476.1509247999999 203.40944C474.5503647999999 205.5716,471.9389247999999 206.75096,469.6644447999999 206.75096C467.89540479999994 206.75096,466.37908479999993 206.04896,465.6490047999999 204.61688C465.4243647999999 204.05528,465.3120447999999 203.52176,465.3120447999999 202.93208C465.3120447999999 199.87136,468.73780479999994 196.47368,472.6690047999999 196.27712"></path></g></g><g class="vf-modifiers"></g></g><path stroke-width="1" fill="none" stroke="#000000" stroke-dasharray="none" d="M497.5620447999999 216.5L515.5802848 216.5"></path><g class="vf-stavenote" id="vf-auto1946832"><g class="vf-note" pointer-events="bounding-box"><g class="vf-stem" pointer-events="bounding-box"><path stroke-width="1.5" fill="none" stroke="#000000" stroke-dasharray="none" class="vf-stem" id="vf-auto1946832-stem" d="M511.83028479999996 221.5L511.83028479999996 186.5"></path></g><g class="vf-notehead" pointer-events="bounding-box"><path stroke-width="0.3" fill="#000000" stroke="none" stroke-dasharray="none" d="M500.5620447999999 221.5M507.9190047999999 216.27712C508.03132479999994 216.27712,508.1998047999999 216.27712,508.2278847999999 216.27712C508.2278847999999 216.27712,508.2559647999999 216.27712,508.2559647999999 216.27712C508.2559647999999 216.27712,508.4244447999999 216.27712,508.5648447999999 216.27712C511.09204479999994 216.41752,512.5802848 218.07424,512.5802848 220.15216C512.5802848 221.16304,512.2433247999999 222.31432,511.4009247999999 223.40944C509.8003647999999 225.5716,507.1889247999999 226.75096,504.9144447999999 226.75096C503.14540479999994 226.75096,501.62908479999993 226.04896,500.8990047999999 224.61688C500.6743647999999 224.05528,500.5620447999999 223.52176,500.5620447999999 222.93208C500.5620447999999 219.87136,503.98780479999994 216.47368,507.9190047999999 216.27712"></path></g></g><g class="vf-modifiers"></g></g><path stroke-width="1" fill="none" stroke="#000000" stroke-dasharray="none" d="M532.8120448 216.5L550.8302848 216.5"></path><g class="vf-stavenote" id="vf-auto1946840"><g class="vf-note" pointer-events="bounding-box"><g class="vf-stem" pointer-events="bounding-box"><path stroke-width="1.5" fill="none" stroke="#000000" stroke-dasharray="none" class="vf-stem" id="vf-auto1946840-stem" d="M547.0802848 216.5L547.0802848 181.5"></path></g><g class="vf-notehead" pointer-events="bounding-box"><path stroke-width="0.3" fill="#000000" stroke="none" stroke-dasharray="none" d="M535.8120448 216.5M543.1690047999999 211.27712C543.2813248 211.27712,543.4498047999999 211.27712,543.4778848 211.27712C543.4778848 211.27712,543.5059648 211.27712,543.5059648 211.27712C543.5059648 211.27712,543.6744448 211.27712,543.8148448 211.27712C546.3420447999999 211.41752,547.8302848 213.07424,547.8302848 215.15216C547.8302848 216.16304,547.4933248 217.31432,546.6509248 218.40944C545.0503648 220.5716,542.4389248 221.75096,540.1644448 221.75096C538.3954047999999 221.75096,536.8790848 221.04896,536.1490048 219.61688C535.9243647999999 219.05528,535.8120448 218.52176,535.8120448 217.93208C535.8120448 214.87136,539.2378047999999 211.47368,543.1690047999999 211.27712"></path></g></g><g class="vf-modifiers"></g></g><g class="vf-stavenote" id="vf-auto1946848"><g class="vf-note" pointer-events="bounding-box"><g class="vf-stem" pointer-events="bounding-box"><path stroke-width="1.5" fill="none" stroke="#000000" stroke-dasharray="none" class="vf-stem" id="vf-auto1946848-stem" d="M582.3302848 191.5L582.3302848 156.5"></path></g><g class="vf-notehead" pointer-events="bounding-box"><path stroke-width="0.3" fill="#000000" stroke="none" stroke-dasharray="none" d="M571.0620448 191.5M578.4190047999999 186.27712C578.5313248 186.27712,578.6998047999999 186.27712,578.7278848 186.27712C578.7278848 186.27712,578.7559648 186.27712,578.7559648 186.27712C578.7559648 186.27712,578.9244448 186.27712,579.0648448 186.27712C581.5920447999999 186.41752,583.0802848 188.07424,583.0802848 190.15216C583.0802848 191.16304,582.7433248 192.31432,581.9009248 193.40944C580.3003648 195.5716,577.6889248 196.75096,575.4144448 196.75096C573.6454047999999 196.75096,572.1290848 196.04896,571.3990048 194.61688C571.1743647999999 194.05528,571.0620448 193.52176,571.0620448 192.93208C571.0620448 189.87136,574.4878047999999 186.47368,578.4190047999999 186.27712"></path></g></g><g class="vf-modifiers"></g></g><path stroke-width="1" fill="none" stroke="#000000" stroke-dasharray="none" d="M604.8788671999998 166.5L763.0456895999998 166.5"></path><path stroke-width="1" fill="none" stroke="#000000" stroke-dasharray="none" d="M604.8788671999998 176.5L763.0456895999998 176.5"></path><path stroke-width="1" fill="none" stroke="#000000" stroke-dasharray="none" d="M604.8788671999998 186.5L763.0456895999998 186.5"></path><path stroke-width="1" fill="none" stroke="#000000" stroke-dasharray="none" d="M604.8788671999998 196.5L763.0456895999998 196.5"></path><path stroke-width="1" fill="none" stroke="#000000" stroke-dasharray="none" d="M604.8788671999998 206.5L763.0456895999998 206.5"></path><rect stroke-width="0.3" fill="#000000" stroke="#000000" stroke-dasharray="none" x="758.0456895999998" y="166" width="1" height="41"></rect><rect stroke-width="0.3" fill="#000000" stroke="#000000" stroke-dasharray="none" x="761.0456895999998" y="166" width="3" height="41"></rect><path stroke-width="0.3" fill="#000000" stroke="none" stroke-dasharray="none" d="M757.0456895999998 182 A2 2 0 0 0 753.0456895999998 182M753.0456895999998 182 A2 2 0 0 0 757.0456895999998 182"></path><path stroke-width="0.3" fill="#000000" stroke="none" stroke-dasharray="none" d="M757.0456895999998 192 A2 2 0 0 0 753.0456895999998 192M753.0456895999998 192 A2 2 0 0 0 757.0456895999998 192"></path><path stroke-width="1" fill="none" stroke="#000000" stroke-dasharray="none" d="M618.8788671999998 216.5L636.8971071999998 216.5"></path><g class="vf-stavenote" id="vf-auto1946857"><g class="vf-note" pointer-events="bounding-box"><g class="vf-stem" pointer-events="bounding-box"><path stroke-width="1.5" fill="none" stroke="#000000" stroke-dasharray="none" class="vf-stem" id="vf-auto1946857-stem" d="M633.1471071999998 216.5L633.1471071999998 181.5"></path></g><g class="vf-notehead" pointer-events="bounding-box"><path stroke-width="0.3" fill="#000000" stroke="none" stroke-dasharray="none" d="M621.8788671999998 216.5M629.2358271999998 211.27712C629.3481471999999 211.27712,629.5166271999998 211.27712,629.5447071999998 211.27712C629.5447071999998 211.27712,629.5727871999999 211.27712,629.5727871999999 211.27712C629.5727871999999 211.27712,629.7412671999998 211.27712,629.8816671999998 211.27712C632.4088671999998 211.41752,633.8971071999998 213.07424,633.8971071999998 215.15216C633.8971071999998 216.16304,633.5601471999998 217.31432,632.7177471999998 218.40944C631.1171871999999 220.5716,628.5057471999999 221.75096,626.2312671999998 221.75096C624.4622271999998 221.75096,622.9459071999999 221.04896,622.2158271999998 219.61688C621.9911871999998 219.05528,621.8788671999998 218.52176,621.8788671999998 217.93208C621.8788671999998 214.87136,625.3046271999998 211.47368,629.2358271999998 211.27712"></path></g></g><g class="vf-modifiers"></g></g><g class="vf-stavenote" id="vf-auto1946865"><g class="vf-note" pointer-events="bounding-box"><g class="vf-stem" pointer-events="bounding-box"><path stroke-width="1.5" fill="none" stroke="#000000" stroke-dasharray="none" class="vf-stem" id="vf-auto1946865-stem" d="M694.1288671999998 181.5L694.1288671999998 216.5"></path></g><g class="vf-notehead" pointer-events="bounding-box"><path stroke-width="0.3" fill="#000000" stroke="none" stroke-dasharray="none" d="M693.3788671999998 181.5M700.7358271999998 176.27712C700.8481471999999 176.27712,701.0166271999998 176.27712,701.0447071999998 176.27712C701.0447071999998 176.27712,701.0727871999999 176.27712,701.0727871999999 176.27712C701.0727871999999 176.27712,701.2412671999998 176.27712,701.3816671999998 176.27712C703.9088671999998 176.41752,705.3971071999998 178.07424,705.3971071999998 180.15216C705.3971071999998 181.16304,705.0601471999998 182.31432,704.2177471999998 183.40944C702.6171871999999 185.5716,700.0057471999999 186.75096,697.7312671999998 186.75096C695.9622271999998 186.75096,694.4459071999999 186.04896,693.7158271999998 184.61688C693.4911871999998 184.05528,693.3788671999998 183.52176,693.3788671999998 182.93208C693.3788671999998 179.87136,696.8046271999998 176.47368,700.7358271999998 176.27712"></path></g></g><g class="vf-modifiers"></g></g><g class="vf-text"><text stroke-width="0.3" fill="#000000" stroke="none" stroke-dasharray="none" font-family="Times New Roman" font-size="23px" font-weight="bold" font-style="italic" x="156.4784" y="240.5">mp</text></g><path stroke-width="1" fill="none" stroke="#000000" stroke-dasharray="none" d="M70 270.29999999999995L300.14522239999997 270.29999999999995"></path><path stroke-width="1" fill="none" stroke="#000000" stroke-dasharray="none" d="M70 280.29999999999995L300.14522239999997 280.29999999999995"></path><path stroke-width="1" fill="none" stroke="#000000" stroke-dasharray="none" d="M70 290.29999999999995L300.14522239999997 290.29999999999995"></path><path stroke-width="1" fill="none" stroke="#000000" stroke-dasharray="none" d="M70 300.29999999999995L300.14522239999997 300.29999999999995"></path><path stroke-width="1" fill="none" stroke="#000000" stroke-dasharray="none" d="M70 310.29999999999995L300.14522239999997 310.29999999999995"></path><rect stroke-width="0.3" fill="#000000" stroke="#000000" stroke-dasharray="none" x="300.14522239999997" y="269.79999999999995" width="1" height="41"></rect><g class="vf-clef"><path stroke-width="0.3" fill="#000000" stroke="none" stroke-dasharray="none" d="M75 280.29999999999995M83.8416 270.24879999999996C84.072 270.1912,84.3024 270.1912,84.5616 270.1912C85.5696 270.1912,86.7504 270.30639999999994,87.7584 270.508C92.4816 271.4872,95.736 274.68399999999997,96.3408 278.9464C96.3984 279.40719999999993,96.4272 279.83919999999995,96.4272 280.29999999999995C96.4272 282.89199999999994,95.5344 286.23279999999994,94.008 289.02639999999997C90.3792 295.59279999999995,83.7552 300.316,75.8064 302.044C75.6624 302.044,75.5472 302.0728,75.4032 302.0728C75.1152 302.0728,74.9712 301.9,74.9712 301.64079999999996C74.9712 301.35279999999995,75.0288 301.2664,75.6048 301.03599999999994C84.7056 297.6088,90.7824 290.20719999999994,91.3296 281.91279999999995C91.3584 281.48079999999993,91.3584 280.99119999999994,91.3584 280.61679999999996C91.3584 276.5848,90.12 273.58959999999996,87.7296 272.0919999999999C86.6928 271.42959999999994,85.5696 271.11279999999994,84.36 271.11279999999994C81.6816 271.11279999999994,78.9456 272.63919999999996,77.6784 275.20239999999995C77.6208 275.40399999999994,77.4192 275.83599999999996,77.4192 275.86479999999995C77.4192 275.86479999999995,77.4192 275.86479999999995,77.4192 275.86479999999995C77.4192 275.86479999999995,77.448 275.83599999999996,77.5344 275.80719999999997C78.168 275.40399999999994,78.8592 275.20239999999995,79.5792 275.20239999999995C80.5872 275.20239999999995,81.6528 275.63439999999997,82.4016 276.44079999999997C83.0928 277.1895999999999,83.4672 278.19759999999997,83.4672 279.1192C83.4672 280.99119999999994,82.0848 282.89199999999994,79.9248 283.0936C79.7808 283.0936,79.6368 283.12239999999997,79.4928 283.12239999999997C77.1024 283.12239999999997,75.1728 280.93359999999996,75.1728 278.1688C75.1728 278.11119999999994,75.1728 278.02479999999997,75.1728 277.996C75.288 273.8776,79.0608 270.508,83.8416 270.24879999999996M99.1632 274.10799999999995C99.2208 274.07919999999996,99.2496 274.07919999999996,99.336 274.07919999999996C99.5376 274.07919999999996,99.768 274.10799999999995,99.8256 274.1655999999999C100.54560000000001 274.36719999999997,100.8912 275.00079999999997,100.8912 275.6056C100.8912 276.12399999999997,100.632 276.64239999999995,100.11359999999999 276.93039999999996C99.912 277.07439999999997,99.6528 277.10319999999996,99.39359999999999 277.10319999999996C98.9904 277.10319999999996,98.5584 276.93039999999996,98.2704 276.5559999999999C98.03999999999999 276.268,97.9248 275.9512,97.9248 275.63439999999997C97.9248 274.91439999999994,98.3856 274.1944,99.1632 274.10799999999995M99.1632 283.52559999999994C99.2208 283.52559999999994,99.2496 283.52559999999994,99.336 283.52559999999994C99.5376 283.52559999999994,99.768 283.55439999999993,99.8256 283.61199999999997C100.54560000000001 283.81359999999995,100.8912 284.44719999999995,100.8912 285.05199999999996C100.8912 285.57039999999995,100.632 286.08879999999994,100.11359999999999 286.34799999999996C99.912 286.49199999999996,99.6528 286.54959999999994,99.39359999999999 286.54959999999994C98.9904 286.54959999999994,98.5584 286.34799999999996,98.2704 286.00239999999997C98.03999999999999 285.71439999999996,97.9248 285.39759999999995,97.9248 285.05199999999996C97.9248 284.33199999999994,98.3856 283.64079999999996,99.1632 283.52559999999994"></path></g><path stroke-width="0.3" fill="#000000" stroke="none" stroke-dasharray="none" d="M116 290.29999999999995M121.0112 271.95439999999996C121.04 271.9256,121.4432 271.9256,122.6816 271.9256C123.056 271.9256,123.4592 271.9256,123.9776 271.9256L126.8864 271.9256L126.9728 272.01199999999994C127.1168 272.09839999999997,127.2032 272.2424,127.2032 272.35759999999993C127.2032 272.53039999999993,127.1168 272.64559999999994,127.0016 272.76079999999996C126.9728 272.84719999999993,126.7136 273.07759999999996,126.5408 273.3367999999999L125.0144 275.0936L123.056 277.31119999999993L122.0192 278.49199999999996L120.464 280.27759999999995L118.4192 282.61039999999997C118.0736 283.04239999999993,117.6992 283.388,117.6992 283.388C117.6992 283.388,117.6992 283.388,117.6992 283.388C117.6992 283.44559999999996,117.9584 283.44559999999996,120.3488 283.44559999999996L122.9696 283.44559999999996L122.9696 281.57359999999994C122.9696 279.67279999999994,122.9696 279.64399999999995,122.9984 279.61519999999996C123.056 279.52879999999993,123.3152 279.21199999999993,124.3232 278.03119999999996L124.7264 277.59919999999994L125.1296 277.1672L125.7344 276.3896L126.368 275.7272L126.6848 275.32399999999996C126.8 275.15119999999996,126.9728 275.12239999999997,127.1168 275.12239999999997C127.28960000000001 275.12239999999997,127.4336 275.20879999999994,127.52 275.35279999999995C127.5488 275.43919999999997,127.5488 275.49679999999995,127.5488 277.62799999999993C127.5488 278.1176,127.5488 278.72239999999994,127.5488 279.44239999999996L127.5488 283.44559999999996L128.2688 283.44559999999996C128.9312 283.44559999999996,128.96 283.44559999999996,129.0464 283.47439999999995C129.2768 283.5608,129.392 283.79119999999995,129.392 284.05039999999997C129.392 284.1944,129.3632 284.36719999999997,129.248 284.4823999999999C129.0752 284.62639999999993,129.0464 284.62639999999993,128.2688 284.62639999999993L127.5488 284.62639999999993L127.5488 285.11599999999993C127.5776 286.5848,127.8656 287.16079999999994,128.9888 287.76559999999995C129.392 287.96719999999993,129.4784 288.02479999999997,129.4784 288.3128C129.4784 288.51439999999997,129.42079999999999 288.60079999999994,129.2768 288.71599999999995L129.1904 288.74479999999994L125.2448 288.74479999999994L121.328 288.74479999999994L121.2416 288.71599999999995C121.0688 288.60079999999994,121.04 288.51439999999997,121.04 288.3128C121.04 288.02479999999997,121.0688 287.96719999999993,121.5008 287.76559999999995C122.624 287.16079999999994,122.912 286.5848,122.912 285.11599999999993L122.912 284.62639999999993L119.6 284.62639999999993C118.9952 284.68399999999997,118.5056 284.68399999999997,118.1024 284.68399999999997C116.288 284.68399999999997,116.2592 284.62639999999993,116.2304 284.62639999999993C116.0576 284.56879999999995,116 284.39599999999996,116 284.1944C116 284.1944,116 284.1944,116 284.1944C116 283.99279999999993,116 283.99279999999993,116.576 283.33039999999994C118.9952 280.39279999999997,120.6944 276.13039999999995,120.6944 272.73199999999997C120.6944 272.21359999999993,120.7808 272.04079999999993,121.0112 271.95439999999996M122.7392 290.32879999999994L122.768 290.32879999999994L122.6816 290.32879999999994L122.7392 290.32879999999994M122.7392 270.91759999999994L122.768 270.91759999999994L122.6816 270.91759999999994L122.7392 270.91759999999994"></path><path stroke-width="0.3" fill="#000000" stroke="none" stroke-dasharray="none" d="M116 310.29999999999995M121.0112 291.95439999999996C121.04 291.9256,121.4432 291.9256,122.6816 291.9256C123.056 291.9256,123.4592 291.9256,123.9776 291.9256L126.8864 291.9256L126.9728 292.01199999999994C127.1168 292.09839999999997,127.2032 292.2424,127.2032 292.35759999999993C127.2032 292.53039999999993,127.1168 292.64559999999994,127.0016 292.76079999999996C126.9728 292.84719999999993,126.7136 293.07759999999996,126.5408 293.3367999999999L125.0144 295.0936L123.056 297.31119999999993L122.0192 298.49199999999996L120.464 300.27759999999995L118.4192 302.61039999999997C118.0736 303.04239999999993,117.6992 303.388,117.6992 303.388C117.6992 303.388,117.6992 303.388,117.6992 303.388C117.6992 303.44559999999996,117.9584 303.44559999999996,120.3488 303.44559999999996L122.9696 303.44559999999996L122.9696 301.57359999999994C122.9696 299.67279999999994,122.9696 299.64399999999995,122.9984 299.61519999999996C123.056 299.52879999999993,123.3152 299.21199999999993,124.3232 298.03119999999996L124.7264 297.59919999999994L125.1296 297.1672L125.7344 296.3896L126.368 295.7272L126.6848 295.32399999999996C126.8 295.15119999999996,126.9728 295.12239999999997,127.1168 295.12239999999997C127.28960000000001 295.12239999999997,127.4336 295.20879999999994,127.52 295.35279999999995C127.5488 295.43919999999997,127.5488 295.49679999999995,127.5488 297.62799999999993C127.5488 298.1176,127.5488 298.72239999999994,127.5488 299.44239999999996L127.5488 303.44559999999996L128.2688 303.44559999999996C128.9312 303.44559999999996,128.96 303.44559999999996,129.0464 303.47439999999995C129.2768 303.5608,129.392 303.79119999999995,129.392 304.05039999999997C129.392 304.1944,129.3632 304.36719999999997,129.248 304.4823999999999C129.0752 304.62639999999993,129.0464 304.62639999999993,128.2688 304.62639999999993L127.5488 304.62639999999993L127.5488 305.11599999999993C127.5776 306.5848,127.8656 307.16079999999994,128.9888 307.76559999999995C129.392 307.96719999999993,129.4784 308.02479999999997,129.4784 308.3128C129.4784 308.51439999999997,129.42079999999999 308.60079999999994,129.2768 308.71599999999995L129.1904 308.74479999999994L125.2448 308.74479999999994L121.328 308.74479999999994L121.2416 308.71599999999995C121.0688 308.60079999999994,121.04 308.51439999999997,121.04 308.3128C121.04 308.02479999999997,121.0688 307.96719999999993,121.5008 307.76559999999995C122.624 307.16079999999994,122.912 306.5848,122.912 305.11599999999993L122.912 304.62639999999993L119.6 304.62639999999993C118.9952 304.68399999999997,118.5056 304.68399999999997,118.1024 304.68399999999997C116.288 304.68399999999997,116.2592 304.62639999999993,116.2304 304.62639999999993C116.0576 304.56879999999995,116 304.39599999999996,116 304.1944C116 304.1944,116 304.1944,116 304.1944C116 303.99279999999993,116 303.99279999999993,116.576 303.33039999999994C118.9952 300.39279999999997,120.6944 296.13039999999995,120.6944 292.73199999999997C120.6944 292.21359999999993,120.7808 292.04079999999993,121.0112 291.95439999999996M122.7392 310.32879999999994L122.768 310.32879999999994L122.6816 310.32879999999994L122.7392 310.32879999999994M122.7392 290.91759999999994L122.768 290.91759999999994L122.6816 290.91759999999994L122.7392 290.91759999999994"></path><g class="vf-stavenote" id="vf-auto1946768"><g class="vf-note" pointer-events="bounding-box"><g class="vf-stem" pointer-events="bounding-box"><path stroke-width="1.5" fill="none" stroke="#000000" stroke-dasharray="none" class="vf-stem" id="vf-auto1946768-stem" d="M152.74663999999999 310.29999999999995L152.74663999999999 275.29999999999995"></path></g><g class="vf-notehead" pointer-events="bounding-box"><path stroke-width="0.3" fill="#000000" stroke="none" stroke-dasharray="none" d="M141.4784 310.29999999999995M148.83535999999998 305.07712C148.94768 305.07712,149.11615999999998 305.07712,149.14424 305.07712C149.14424 305.07712,149.17231999999998 305.07712,149.17231999999998 305.07712C149.17231999999998 305.07712,149.3408 305.07712,149.4812 305.07712C152.0084 305.21752,153.49663999999999 306.87423999999993,153.49663999999999 308.95215999999994C153.49663999999999 309.96304,153.15967999999998 311.11431999999996,152.31727999999998 312.20944C150.71671999999998 314.37159999999994,148.10528 315.55096,145.83079999999998 315.55096C144.06176 315.55096,142.54543999999999 314.84896,141.81536 313.41687999999994C141.59072 312.85527999999994,141.4784 312.3217599999999,141.4784 311.73207999999994C141.4784 308.67135999999994,144.90416 305.27367999999996,148.83535999999998 305.07712"></path></g></g><g class="vf-modifiers"></g></g><path stroke-width="1" fill="none" stroke="#000000" stroke-dasharray="none" d="M178.6088 260.29999999999995L196.62704 260.29999999999995"></path><g class="vf-stavenote" id="vf-auto1946776"><g class="vf-note" pointer-events="bounding-box"><g class="vf-stem" pointer-events="bounding-box"><path stroke-width="1.5" fill="none" stroke="#000000" stroke-dasharray="none" class="vf-stem" id="vf-auto1946776-stem" d="M182.3588 260.29999999999995L182.3588 295.29999999999995"></path></g><g class="vf-notehead" pointer-events="bounding-box"><path stroke-width="0.3" fill="#000000" stroke="none" stroke-dasharray="none" d="M181.6088 260.29999999999995M188.96576 255.07711999999995C189.07808 255.07711999999995,189.24656 255.07711999999995,189.27464 255.07711999999995C189.27464 255.07711999999995,189.30272 255.07711999999995,189.30272 255.07711999999995C189.30272 255.07711999999995,189.4712 255.07711999999995,189.6116 255.07711999999995C192.1388 255.21751999999995,193.62704 256.87423999999993,193.62704 258.95215999999994C193.62704 259.96304,193.29008 261.11431999999996,192.44768 262.20944C190.84712 264.37159999999994,188.23568 265.55096,185.9612 265.55096C184.19216 265.55096,182.67584 264.84896,181.94576 263.41687999999994C181.72112 262.85527999999994,181.6088 262.3217599999999,181.6088 261.73207999999994C181.6088 258.67135999999994,185.03456 255.27367999999996,188.96576 255.07711999999995"></path></g></g><g class="vf-modifiers"></g></g><rect stroke-width="0.3" fill="#000000" stroke="#000000" stroke-dasharray="none" x="300.14522239999997" y="166.5" width="1" height="144.79999999999995"></rect><rect stroke-width="0.3" fill="#000000" stroke="#000000" stroke-dasharray="none" x="70" y="166.5" width="1" height="144.79999999999995"></rect><path stroke-width="1" fill="none" stroke="#000000" stroke-dasharray="none" d="M300.14522239999997 270.29999999999995L448.3120447999999 270.29999999999995"></path><path stroke-width="1" fill="none" stroke="#000000" stroke-dasharray="none" d="M300.14522239999997 280.29999999999995L448.3120447999999 280.29999999999995"></path><path stroke-width="1" fill="none" stroke="#000000" stroke-dasharray="none" d="M300.14522239999997 290.29999999999995L448.3120447999999 290.29999999999995"></path><path stroke-width="1" fill="none" stroke="#000000" stroke-dasharray="none" d="M300.14522239999997 300.29999999999995L448.3120447999999 300.29999999999995"></path><path stroke-width="1" fill="none" stroke="#000000" stroke-dasharray="none" d="M300.14522239999997 310.29999999999995L448.3120447999999 310.29999999999995"></path><rect stroke-width="0.3" fill="#000000" stroke="#000000" stroke-dasharray="none" x="448.3120447999999" y="269.79999999999995" width="1" height="41"></rect><g class="vf-stavenote" id="vf-auto1946805"><g class="vf-note" pointer-events="bounding-box"><g class="vf-stem" pointer-events="bounding-box"><path stroke-width="1.5" fill="none" stroke="#000000" stroke-dasharray="none" class="vf-stem" id="vf-auto1946805-stem" d="M328.41346239999996 305.29999999999995L328.41346239999996 270.29999999999995"></path></g><g class="vf-notehead" pointer-events="bounding-box"><path stroke-width="0.3" fill="#000000" stroke="none" stroke-dasharray="none" d="M317.14522239999997 305.29999999999995M324.5021824 300.07712C324.6145024 300.07712,324.7829824 300.07712,324.81106239999997 300.07712C324.81106239999997 300.07712,324.83914239999996 300.07712,324.83914239999996 300.07712C324.83914239999996 300.07712,325.00762239999995 300.07712,325.14802239999995 300.07712C327.67522239999994 300.21752,329.16346239999996 301.87423999999993,329.16346239999996 303.95215999999994C329.16346239999996 304.96304,328.8265024 306.11431999999996,327.9841024 307.20944C326.38354239999995 309.37159999999994,323.7721024 310.55096,321.49762239999995 310.55096C319.7285824 310.55096,318.2122624 309.84896,317.48218239999994 308.41687999999994C317.2575424 307.85527999999994,317.14522239999997 307.3217599999999,317.14522239999997 306.73207999999994C317.14522239999997 303.67135999999994,320.5709824 300.27367999999996,324.5021824 300.07712"></path></g></g><g class="vf-modifiers"></g></g><g class="vf-stavenote" id="vf-auto1946813"><g class="vf-note" pointer-events="bounding-box"><g class="vf-stem" pointer-events="bounding-box"><path stroke-width="1.5" fill="none" stroke="#000000" stroke-dasharray="none" class="vf-stem" id="vf-auto1946813-stem" d="M384.39522239999997 280.29999999999995L384.39522239999997 315.29999999999995"></path></g><g class="vf-notehead" pointer-events="bounding-box"><path stroke-width="0.3" fill="#000000" stroke="none" stroke-dasharray="none" d="M383.64522239999997 280.29999999999995M391.0021824 275.07712C391.1145024 275.07712,391.2829824 275.07712,391.31106239999997 275.07712C391.31106239999997 275.07712,391.33914239999996 275.07712,391.33914239999996 275.07712C391.33914239999996 275.07712,391.50762239999995 275.07712,391.64802239999995 275.07712C394.17522239999994 275.21752,395.66346239999996 276.87423999999993,395.66346239999996 278.95215999999994C395.66346239999996 279.96304,395.3265024 281.11431999999996,394.4841024 282.20944C392.88354239999995 284.37159999999994,390.2721024 285.55096,387.99762239999995 285.55096C386.2285824 285.55096,384.7122624 284.84896,383.98218239999994 283.41687999999994C383.7575424 282.85527999999994,383.64522239999997 282.3217599999999,383.64522239999997 281.73207999999994C383.64522239999997 278.67135999999994,387.0709824 275.27367999999996,391.0021824 275.07712"></path></g></g><g class="vf-modifiers"></g></g><rect stroke-width="0.3" fill="#000000" stroke="#000000" stroke-dasharray="none" x="448.3120447999999" y="166.5" width="1" height="144.79999999999995"></rect><path stroke-width="1" fill="none" stroke="#000000" stroke-dasharray="none" d="M448.3120447999999 270.29999999999995L604.8788671999998 270.29999999999995"></path><path stroke-width="1" fill="none" stroke="#000000" stroke-dasharray="none" d="M448.3120447999999 280.29999999999995L604.8788671999998 280.29999999999995"></path><path stroke-width="1" fill="none" stroke="#000000" stroke-dasharray="none" d="M448.3120447999999 290.29999999999995L604.8788671999998 290.29999999999995"></path><path stroke-width="1" fill="none" stroke="#000000" stroke-dasharray="none" d="M448.3120447999999 300.29999999999995L604.8788671999998 300.29999999999995"></path><path stroke-width="1" fill="none" stroke="#000000" stroke-dasharray="none" d="M448.3120447999999 310.29999999999995L604.8788671999998 310.29999999999995"></path><rect stroke-width="0.3" fill="#000000" stroke="#000000" stroke-dasharray="none" x="604.8788671999998" y="269.79999999999995" width="1" height="41"></rect><rect stroke-width="0.3" fill="#000000" stroke="#000000" stroke-dasharray="none" x="604.8788671999998" y="166.5" width="1" height="144.79999999999995"></rect><path stroke-width="1" fill="none" stroke="#000000" stroke-dasharray="none" d="M604.8788671999998 270.29999999999995L763.0456895999998 270.29999999999995"></path><path stroke-width="1" fill="none" stroke="#000000" stroke-dasharray="none" d="M604.8788671999998 280.29999999999995L763.0456895999998 280.29999999999995"></path><path stroke-width="1" fill="none" stroke="#000000" stroke-dasharray="none" d="M604.8788671999998 290.29999999999995L763.0456895999998 290.29999999999995"></path><path stroke-width="1" fill="none" stroke="#000000" stroke-dasharray="none" d="M604.8788671999998 300.29999999999995L763.0456895999998 300.29999999999995"></path><path stroke-width="1" fill="none" stroke="#000000" stroke-dasharray="none" d="M604.8788671999998 310.29999999999995L763.0456895999998 310.29999999999995"></path><rect stroke-width="0.3" fill="#000000" stroke="#000000" stroke-dasharray="none" x="758.0456895999998" y="269.79999999999995" width="1" height="41"></rect><rect stroke-width="0.3" fill="#000000" stroke="#000000" stroke-dasharray="none" x="761.0456895999998" y="269.79999999999995" width="3" height="41"></rect><path stroke-width="0.3" fill="#000000" stroke="none" stroke-dasharray="none" d="M757.0456895999998 285.79999999999995 A2 2 0 0 0 753.0456895999998 285.79999999999995M753.0456895999998 285.79999999999995 A2 2 0 0 0 757.0456895999998 285.79999999999995"></path><path stroke-width="0.3" fill="#000000" stroke="none" stroke-dasharray="none" d="M757.0456895999998 295.79999999999995 A2 2 0 0 0 753.0456895999998 295.79999999999995M753.0456895999998 295.79999999999995 A2 2 0 0 0 757.0456895999998 295.79999999999995"></path><path stroke-width="1" fill="none" stroke="#000000" stroke-dasharray="none" d="M654.6288671999998 260.29999999999995L672.6471071999998 260.29999999999995"></path><g class="vf-stavenote" id="vf-auto1946876"><g class="vf-note" pointer-events="bounding-box"><g class="vf-stem" pointer-events="bounding-box"><path stroke-width="1.5" fill="none" stroke="#000000" stroke-dasharray="none" class="vf-stem" id="vf-auto1946876-stem" d="M658.3788671999998 255.29999999999995L658.3788671999998 290.29999999999995"></path></g><g class="vf-notehead" pointer-events="bounding-box"><path stroke-width="0.3" fill="#000000" stroke="none" stroke-dasharray="none" d="M657.6288671999998 255.29999999999995M664.9858271999998 250.07711999999995C665.0981471999999 250.07711999999995,665.2666271999998 250.07711999999995,665.2947071999998 250.07711999999995C665.2947071999998 250.07711999999995,665.3227871999999 250.07711999999995,665.3227871999999 250.07711999999995C665.3227871999999 250.07711999999995,665.4912671999998 250.07711999999995,665.6316671999998 250.07711999999995C668.1588671999998 250.21751999999995,669.6471071999998 251.87423999999996,669.6471071999998 253.95215999999996C669.6471071999998 254.96303999999995,669.3101471999998 256.11431999999996,668.4677471999998 257.20944C666.8671871999999 259.37159999999994,664.2557471999999 260.55096,661.9812671999998 260.55096C660.2122271999998 260.55096,658.6959071999999 259.84896,657.9658271999998 258.41687999999994C657.7411871999998 257.85527999999994,657.6288671999998 257.3217599999999,657.6288671999998 256.73207999999994C657.6288671999998 253.67135999999996,661.0546271999998 250.27367999999996,664.9858271999998 250.07711999999995"></path></g></g><g class="vf-modifiers"></g></g><g class="vf-stavenote" id="vf-auto1946884"><g class="vf-note" pointer-events="bounding-box"><g class="vf-stem" pointer-events="bounding-box"><path stroke-width="1.5" fill="none" stroke="#000000" stroke-dasharray="none" class="vf-stem" id="vf-auto1946884-stem" d="M740.3971071999998 300.29999999999995L740.3971071999998 265.29999999999995"></path></g><g class="vf-notehead" pointer-events="bounding-box"><path stroke-width="0.3" fill="#000000" stroke="none" stroke-dasharray="none" d="M729.1288671999998 300.29999999999995M736.4858271999998 295.07712C736.5981471999999 295.07712,736.7666271999998 295.07712,736.7947071999998 295.07712C736.7947071999998 295.07712,736.8227871999999 295.07712,736.8227871999999 295.07712C736.8227871999999 295.07712,736.9912671999998 295.07712,737.1316671999998 295.07712C739.6588671999998 295.21752,741.1471071999998 296.87423999999993,741.1471071999998 298.95215999999994C741.1471071999998 299.96304,740.8101471999998 301.11431999999996,739.9677471999998 302.20944C738.3671871999999 304.37159999999994,735.7557471999999 305.55096,733.4812671999998 305.55096C731.7122271999998 305.55096,730.1959071999999 304.84896,729.4658271999998 303.41687999999994C729.2411871999998 302.85527999999994,729.1288671999998 302.3217599999999,729.1288671999998 301.73207999999994C729.1288671999998 298.67135999999994,732.5546271999998 295.27367999999996,736.4858271999998 295.07712"></path></g></g><g class="vf-modifiers"></g></g><rect stroke-width="0.3" fill="#000000" stroke="#000000" stroke-dasharray="none" x="758.0456895999998" y="166.5" width="1" height="144.79999999999995"></rect><rect stroke-width="0.3" fill="#000000" stroke="#000000" stroke-dasharray="none" x="761.0456895999998" y="166.5" width="3" height="144.79999999999995"></rect><path stroke-width="0.3" fill="#000000" stroke="none" stroke-dasharray="none" d="M68 166.5C45.2 195.45999999999998,81.2 219.35199999999998,56 238.89999999999998C81.2 258.448,45.2 282.34,68 311.29999999999995C44 282.34,72.8 258.448,56 238.89999999999998C72.8 219.35199999999998,44 195.45999999999998,68 166.5"></path><path stroke-width="1" fill="none" stroke="#000000" stroke-dasharray="none" d="M68 166.5C45.2 195.45999999999998,81.2 219.35199999999998,56 238.89999999999998C81.2 258.448,45.2 282.34,68 311.29999999999995C44 282.34,72.8 258.448,56 238.89999999999998C72.8 219.35199999999998,44 195.45999999999998,68 166.5"></path><g class="vf-text"><text stroke-width="0.3" fill="#000000" stroke="none" stroke-dasharray="none" font-family="Times New Roman" font-size="15px" font-weight="normal" font-style="normal" x="444.81204479999985" y="163.5">3</text></g></svg>