<svg xmlns="http://www.w3.org/2000/svg"  width="1470" height="376.8" viewBox="0 0 1470 376.8"><path stroke-width="1" fill="none" stroke="#000000" stroke-dasharray="none" d="M70 166.5L304.34522239999995 166.5"></path><path stroke-width="1" fill="none" stroke="#000000" stroke-dasharray="none" d="M70 176.5L304.34522239999995 176.5"></path><path stroke-width="1" fill="none" stroke="#000000" stroke-dasharray="none" d="M70 186.5L304.34522239999995 186.5"></path><path stroke-width="1" fill="none" stroke="#000000" stroke-dasharray="none" d="M70 196.5L304.34522239999995 196.5"></path><path stroke-width="1" fill="none" stroke="#000000" stroke-dasharray="none" d="M70 206.5L304.34522239999995 206.5"></path><rect stroke-width="0.3" fill="#000000" stroke="#000000" stroke-dasharray="none" x="304.34522239999995" y="166" width="1" height="41"></rect><g class="vf-clef"><path stroke-width="0.3" fill="#000000" stroke="none" stroke-dasharray="none" d="M75 196.5M89.0544 153.3288C89.112 153.3,89.1696 153.3,89.256 153.3C89.6016 153.3,90.0048 153.588,90.5808 154.308C92.9136 156.9864,94.5552 161.652,94.5552 165.4536C94.5552 165.7416,94.4976 165.972,94.4976 166.26C94.2384 170.7816,92.3952 174.4968,88.7376 178.0104L87.7584 178.9608L87.4128 179.3352L87.4128 179.4504L87.6144 180.3144L87.9312 181.8696L88.248 183.3096C88.68 185.268,88.8528 186.276,88.8528 186.276C88.8528 186.276,88.8528 186.276,88.8528 186.276C88.8528 186.276,88.968 186.276,89.112 186.2472C89.256 186.2472,89.7168 186.1896,90.2064 186.1896C90.55199999999999 186.1896,90.8976 186.2472,91.0704 186.2472C95.1312 186.7656,98.2704 189.6744,99.1632 193.764C99.336 194.4264,99.39359999999999 195.1464,99.39359999999999 195.8664C99.39359999999999 199.7544,97.0608 203.4696,93.1728 205.2264C92.94239999999999 205.3704,92.856 205.3992,92.856 205.3992L92.856 205.428C92.856 205.428,93.0288 206.0904,93.1728 206.8392L93.6048 209.028L94.008 210.7848C94.2384 211.908,94.3536 212.7144,94.3536 213.4344C94.3536 214.06799999999998,94.2672 214.644,94.1232 215.3064C93.144 219.3096,89.6592 221.7,86.0304 221.7C84.2448 221.7,82.4016 221.124,80.7888 219.828C79.3488 218.6184,78.7152 217.524,78.7152 216.084C78.7152 213.5496,80.76 211.764,82.8912 211.764C83.64 211.764,84.3888 211.99439999999998,85.1088 212.4264C86.3184 213.2616,86.8656 214.5288,86.8656 215.7672C86.8656 217.668,85.5408 219.54,83.2656 219.684L83.0352 219.684L83.208 219.79919999999998C84.1584 220.2024,85.1088 220.404,86.0304 220.404C88.3632 220.404,90.55199999999999 219.2232,91.8768 217.1784C92.62559999999999 216.0264,93.0288 214.6728,93.0288 213.3192C93.0288 212.8008,92.94239999999999 212.2824,92.8272 211.7064C92.8272 211.6488,92.74080000000001 211.188,92.62559999999999 210.756C91.992 207.6456,91.6176 205.8312,91.6176 205.8312C91.6176 205.8312,91.6176 205.8312,91.6176 205.8312C91.56 205.8312,91.4448 205.8312,91.3584 205.8888C91.0704 205.9464,90.4656 206.0904,90.2064 206.1192C89.5728 206.2056,88.968 206.2344,88.392 206.2344C82.74719999999999 206.2344,77.5056 202.4328,75.6912 196.8168C75.2304 195.3192,74.9712 193.8216,74.9712 192.324C74.9712 189.3288,75.9216 186.3912,77.7648 183.7704C79.7808 180.9192,81.7968 178.4712,84.2736 175.9368L85.13759999999999 175.044L84.936 173.9784L84.5616 172.2216L84.072 169.9752C83.928 169.14,83.7552 168.3336,83.7264 168.1608C83.5824 167.2104,83.496 166.2888,83.496 165.3384C83.496 161.7096,84.6768 158.22480000000002,86.8944 155.4312C87.5568 154.5672,88.7376 153.4152,89.0544 153.3288M90.8112 159.0312C90.7536 159.0312,90.6672 159.0312,90.5808 159.0312C89.4 159.0312,87.8736 160.1256,86.8368 161.7384C85.7712 163.32240000000002,85.224 165.4248,85.224 167.5848C85.224 168.1608,85.25280000000001 168.7656,85.3392 169.3704C85.4256 169.8024,85.45439999999999 170.0904,85.6848 171.12720000000002L86.088 172.9416C86.2032 173.4888,86.28960000000001 173.92079999999999,86.28960000000001 173.9784L86.28960000000001 173.9784C86.3184 173.9784,87.2112 172.9992,87.4992 172.6536C90.3792 169.3992,92.1072 165.972,92.4816 162.948C92.5104 162.66,92.5104 162.4296,92.5104 162.1416C92.5104 161.24880000000002,92.3952 160.38479999999998,92.1936 159.924C91.9632 159.4632,91.4448 159.0888,90.8112 159.0312M86.4624 181.2936C86.4048 180.8904,86.3184 180.5736,86.3184 180.516C86.3184 180.516,86.3184 180.516,86.28960000000001 180.516C86.232 180.516,84.9936 181.956,84.1296 182.964C82.6608 184.7496,81.1056 186.8808,80.472 187.9176C79.2624 189.9624,78.6576 192.2376,78.6576 194.484C78.6576 195.9528,78.9456 197.364,79.464 198.7176C81.0192 202.7208,84.5904 205.2264,88.4784 205.2264C88.9392 205.2264,89.4576 205.1976,89.9472 205.1112C90.5808 204.996,91.3584 204.7656,91.3584 204.6792L91.3584 204.6792C91.3584 204.6792,91.3008 204.3912,91.2144 204.0744L90.3792 199.956L89.7168 196.8744L89.2848 194.7432L88.824 192.6696C88.5936 191.4312,88.5072 191.1144,88.5072 191.1144C88.5072 191.1144,88.5072 191.0856,88.4784 191.0856C88.3056 191.0856,87.384 191.5464,86.9808 191.8344C85.4832 192.8712,84.7056 194.5128,84.7056 196.1256C84.7056 197.652,85.45439999999999 199.1784,86.8944 200.0712C87.2112 200.2728,87.3264 200.4456,87.3264 200.6472C87.3264 200.676,87.3264 200.7624,87.3264 200.7912C87.2688 201.1368,87.0672 201.2808,86.7792 201.2808C86.664 201.2808,86.52 201.252,86.3472 201.1656C83.6976 200.0136,81.912 197.2776,81.912 194.2824L81.912 194.2824C81.912 190.8264,84.072 187.8312,87.384 186.6504L87.5568 186.5928L87.2688 185.1528L86.4624 181.2936M90.7824 190.9128C90.55199999999999 190.88400000000001,90.3216 190.88400000000001,90.1488 190.88400000000001C90.0912 190.88400000000001,90.0048 190.88400000000001,89.9472 190.88400000000001L89.8032 190.88400000000001L89.9184 191.4024L90.5232 194.2248L90.8976 196.068L91.3008 197.8824L92.1072 201.8856L92.424 203.412C92.5392 203.8152,92.5968 204.1608,92.62559999999999 204.1608C92.62559999999999 204.1608,92.62559999999999 204.1608,92.62559999999999 204.1608C92.6544 204.1608,93.144 203.8728,93.4608 203.6424C94.9296 202.6056,96.024 200.9928,96.4272 199.3224C96.5712 198.7752,96.6288 198.1992,96.6288 197.652C96.6288 194.3112,94.152 191.2872,90.7824 190.9128"></path></g><path stroke-width="0.3" fill="#000000" stroke="none" stroke-dasharray="none" d="M116 186.5M121.0112 168.1544C121.04 168.1256,121.4432 168.1256,122.6816 168.1256C123.056 168.1256,123.4592 168.1256,123.9776 168.1256L126.8864 168.1256L126.9728 168.212C127.1168 168.29840000000002,127.2032 168.4424,127.2032 168.5576C127.2032 168.7304,127.1168 168.8456,127.0016 168.9608C126.9728 169.0472,126.7136 169.2776,126.5408 169.5368L125.0144 171.2936L123.056 173.5112L122.0192 174.692L120.464 176.4776L118.4192 178.8104C118.0736 179.2424,117.6992 179.588,117.6992 179.588C117.6992 179.588,117.6992 179.588,117.6992 179.588C117.6992 179.6456,117.9584 179.6456,120.3488 179.6456L122.9696 179.6456L122.9696 177.7736C122.9696 175.8728,122.9696 175.844,122.9984 175.8152C123.056 175.7288,123.3152 175.412,124.3232 174.2312L124.7264 173.7992L125.1296 173.3672L125.7344 172.5896L126.368 171.9272L126.6848 171.524C126.8 171.3512,126.9728 171.3224,127.1168 171.3224C127.28960000000001 171.3224,127.4336 171.4088,127.52 171.5528C127.5488 171.6392,127.5488 171.6968,127.5488 173.828C127.5488 174.3176,127.5488 174.9224,127.5488 175.6424L127.5488 179.6456L128.2688 179.6456C128.9312 179.6456,128.96 179.6456,129.0464 179.6744C129.2768 179.7608,129.392 179.9912,129.392 180.2504C129.392 180.3944,129.3632 180.5672,129.248 180.6824C129.0752 180.8264,129.0464 180.8264,128.2688 180.8264L127.5488 180.8264L127.5488 181.316C127.5776 182.7848,127.8656 183.3608,128.9888 183.9656C129.392 184.1672,129.4784 184.2248,129.4784 184.5128C129.4784 184.7144,129.42079999999999 184.8008,129.2768 184.916L129.1904 184.9448L125.2448 184.9448L121.328 184.9448L121.2416 184.916C121.0688 184.8008,121.04 184.7144,121.04 184.5128C121.04 184.2248,121.0688 184.1672,121.5008 183.9656C122.624 183.3608,122.912 182.7848,122.912 181.316L122.912 180.8264L119.6 180.8264C118.9952 180.88400000000001,118.5056 180.88400000000001,118.1024 180.88400000000001C116.288 180.88400000000001,116.2592 180.8264,116.2304 180.8264C116.0576 180.7688,116 180.596,116 180.3944C116 180.3944,116 180.3944,116 180.3944C116 180.1928,116 180.1928,116.576 179.5304C118.9952 176.5928,120.6944 172.3304,120.6944 168.93200000000002C120.6944 168.4136,120.7808 168.2408,121.0112 168.1544M122.7392 186.5288L122.768 186.5288L122.6816 186.5288L122.7392 186.5288M122.7392 167.1176L122.768 167.1176L122.6816 167.1176L122.7392 167.1176"></path><path stroke-width="0.3" fill="#000000" stroke="none" stroke-dasharray="none" d="M116 206.5M121.0112 188.1544C121.04 188.1256,121.4432 188.1256,122.6816 188.1256C123.056 188.1256,123.4592 188.1256,123.9776 188.1256L126.8864 188.1256L126.9728 188.212C127.1168 188.29840000000002,127.2032 188.4424,127.2032 188.5576C127.2032 188.7304,127.1168 188.8456,127.0016 188.9608C126.9728 189.0472,126.7136 189.2776,126.5408 189.5368L125.0144 191.2936L123.056 193.5112L122.0192 194.692L120.464 196.4776L118.4192 198.8104C118.0736 199.2424,117.6992 199.588,117.6992 199.588C117.6992 199.588,117.6992 199.588,117.6992 199.588C117.6992 199.6456,117.9584 199.6456,120.3488 199.6456L122.9696 199.6456L122.9696 197.7736C122.9696 195.8728,122.9696 195.844,122.9984 195.8152C123.056 195.7288,123.3152 195.412,124.3232 194.2312L124.7264 193.7992L125.1296 193.3672L125.7344 192.5896L126.368 191.9272L126.6848 191.524C126.8 191.3512,126.9728 191.3224,127.1168 191.3224C127.28960000000001 191.3224,127.4336 191.4088,127.52 191.5528C127.5488 191.6392,127.5488 191.6968,127.5488 193.828C127.5488 194.3176,127.5488 194.9224,127.5488 195.6424L127.5488 199.6456L128.2688 199.6456C128.9312 199.6456,128.96 199.6456,129.0464 199.6744C129.2768 199.7608,129.392 199.9912,129.392 200.2504C129.392 200.3944,129.3632 200.5672,129.248 200.6824C129.0752 200.8264,129.0464 200.8264,128.2688 200.8264L127.5488 200.8264L127.5488 201.316C127.5776 202.7848,127.8656 203.3608,128.9888 203.9656C129.392 204.1672,129.4784 204.2248,129.4784 204.5128C129.4784 204.7144,129.42079999999999 204.8008,129.2768 204.916L129.1904 204.9448L125.2448 204.9448L121.328 204.9448L121.2416 204.916C121.0688 204.8008,121.04 204.7144,121.04 204.5128C121.04 204.2248,121.0688 204.1672,121.5008 203.9656C122.624 203.3608,122.912 202.7848,122.912 201.316L122.912 200.8264L119.6 200.8264C118.9952 200.88400000000001,118.5056 200.88400000000001,118.1024 200.88400000000001C116.288 200.88400000000001,116.2592 200.8264,116.2304 200.8264C116.0576 200.7688,116 200.596,116 200.3944C116 200.3944,116 200.3944,116 200.3944C116 200.1928,116 200.1928,116.576 199.5304C118.9952 196.5928,120.6944 192.3304,120.6944 188.93200000000002C120.6944 188.4136,120.7808 188.2408,121.0112 188.1544M122.7392 206.5288L122.768 206.5288L122.6816 206.5288L122.7392 206.5288M122.7392 187.1176L122.768 187.1176L122.6816 187.1176L122.7392 187.1176"></path><g class="vf-stavenote" id="vf-auto3038930"><g class="vf-note" pointer-events="bounding-box"><g class="vf-stem" pointer-events="bounding-box"><path stroke-width="1.5" fill="none" stroke="#000000" stroke-dasharray="none" class="vf-stem" id="vf-auto3038930-stem" d="M193.87704 206.5L193.87704 171.5"></path></g><g class="vf-notehead" pointer-events="bounding-box"><path stroke-width="0.3" fill="#000000" stroke="none" stroke-dasharray="none" d="M182.6088 206.5M189.96576 201.27712C190.07808 201.27712,190.24656 201.27712,190.27464 201.27712C190.27464 201.27712,190.30272 201.27712,190.30272 201.27712C190.30272 201.27712,190.4712 201.27712,190.6116 201.27712C193.1388 201.41752,194.62704 203.07424,194.62704 205.15216C194.62704 206.16304,194.29008 207.31432,193.44768 208.40944C191.84712 210.5716,189.23568 211.75096,186.9612 211.75096C185.19216 211.75096,183.67584 211.04896,182.94576 209.61688C182.72112 209.05528,182.6088 208.52176,182.6088 207.93208C182.6088 204.87136,186.03456 201.47368,189.96576 201.27712"></path></g></g><g class="vf-modifiers"></g></g><path stroke-width="1" fill="none" stroke="#000000" stroke-dasharray="none" d="M220.73919999999998 216.5L238.75743999999997 216.5"></path><g class="vf-stavenote" id="vf-auto3038938"><g class="vf-note" pointer-events="bounding-box"><g class="vf-stem" pointer-events="bounding-box"><path stroke-width="1.5" fill="none" stroke="#000000" stroke-dasharray="none" class="vf-stem" id="vf-auto3038938-stem" d="M235.00743999999997 221.5L235.00743999999997 186.5"></path></g><g class="vf-notehead" pointer-events="bounding-box"><path stroke-width="0.3" fill="#000000" stroke="none" stroke-dasharray="none" d="M223.73919999999998 221.5M231.09615999999997 216.27712C231.20847999999998 216.27712,231.37696 216.27712,231.40503999999999 216.27712C231.40503999999999 216.27712,231.43311999999997 216.27712,231.43311999999997 216.27712C231.43311999999997 216.27712,231.6016 216.27712,231.742 216.27712C234.26919999999998 216.41752,235.75743999999997 218.07424,235.75743999999997 220.15216C235.75743999999997 221.16304,235.42048 222.31432,234.57807999999997 223.40944C232.97751999999997 225.5716,230.36607999999998 226.75096,228.09159999999997 226.75096C226.32255999999998 226.75096,224.80623999999997 226.04896,224.07616 224.61688C223.85152 224.05528,223.73919999999998 223.52176,223.73919999999998 222.93208C223.73919999999998 219.87136,227.16495999999998 216.47368,231.09615999999997 216.27712"></path></g></g><g class="vf-modifiers"></g></g><g class="vf-stavenote" id="vf-auto3038946"><g class="vf-note" pointer-events="bounding-box"><g class="vf-stem" pointer-events="bounding-box"><path stroke-width="1.5" fill="none" stroke="#000000" stroke-dasharray="none" class="vf-stem" id="vf-auto3038946-stem" d="M276.13784 201.5L276.13784 166.5"></path></g><g class="vf-notehead" pointer-events="bounding-box"><path stroke-width="0.3" fill="#000000" stroke="none" stroke-dasharray="none" d="M264.8696 201.5M272.22656 196.27712C272.33888 196.27712,272.50736 196.27712,272.53544 196.27712C272.53544 196.27712,272.56352 196.27712,272.56352 196.27712C272.56352 196.27712,272.73199999999997 196.27712,272.87239999999997 196.27712C275.39959999999996 196.41752,276.88784 198.07424,276.88784 200.15216C276.88784 201.16304,276.55088 202.31432,275.70848 203.40944C274.10792 205.5716,271.49648 206.75096,269.222 206.75096C267.45296 206.75096,265.93664 206.04896,265.20655999999997 204.61688C264.98192 204.05528,264.8696 203.52176,264.8696 202.93208C264.8696 199.87136,268.29536 196.47368,272.22656 196.27712"></path></g></g><g class="vf-modifiers"></g></g><path stroke-width="1" fill="none" stroke="#000000" stroke-dasharray="none" d="M304.34522239999995 166.5L448.3120447999999 166.5"></path><path stroke-width="1" fill="none" stroke="#000000" stroke-dasharray="none" d="M304.34522239999995 176.5L448.3120447999999 176.5"></path><path stroke-width="1" fill="none" stroke="#000000" stroke-dasharray="none" d="M304.34522239999995 186.5L448.3120447999999 186.5"></path><path stroke-width="1" fill="none" stroke="#000000" stroke-dasharray="none" d="M304.34522239999995 196.5L448.3120447999999 196.5"></path><path stroke-width="1" fill="none" stroke="#000000" stroke-dasharray="none" d="M304.34522239999995 206.5L448.3120447999999 206.5"></path><rect stroke-width="0.3" fill="#000000" stroke="#000000" stroke-dasharray="none" x="448.3120447999999" y="166" width="1" height="41"></rect><g class="vf-stavenote" id="vf-auto3038967"><g class="vf-note" pointer-events="bounding-box"><g class="vf-stem" pointer-events="bounding-box"><path stroke-width="1.5" fill="none" stroke="#000000" stroke-dasharray="none" class="vf-stem" id="vf-auto3038967-stem" d="M332.61346239999995 201.5L332.61346239999995 166.5"></path></g><g class="vf-notehead" pointer-events="bounding-box"><path stroke-width="0.3" fill="#000000" stroke="none" stroke-dasharray="none" d="M321.34522239999995 201.5M328.70218239999997 196.27712C328.8145024 196.27712,328.98298239999997 196.27712,329.01106239999996 196.27712C329.01106239999996 196.27712,329.03914239999995 196.27712,329.03914239999995 196.27712C329.03914239999995 196.27712,329.20762239999993 196.27712,329.34802239999993 196.27712C331.8752224 196.41752,333.36346239999995 198.07424,333.36346239999995 200.15216C333.36346239999995 201.16304,333.02650239999997 202.31432,332.1841024 203.40944C330.58354239999994 205.5716,327.9721023999999 206.75096,325.69762239999994 206.75096C323.9285824 206.75096,322.4122624 206.04896,321.68218239999993 204.61688C321.45754239999997 204.05528,321.34522239999995 203.52176,321.34522239999995 202.93208C321.34522239999995 199.87136,324.7709824 196.47368,328.70218239999997 196.27712"></path></g></g><g class="vf-modifiers"></g></g><path stroke-width="1" fill="none" stroke="#000000" stroke-dasharray="none" d="M448.31204479999997 166.5L596.4788672 166.5"></path><path stroke-width="1" fill="none" stroke="#000000" stroke-dasharray="none" d="M448.31204479999997 176.5L596.4788672 176.5"></path><path stroke-width="1" fill="none" stroke="#000000" stroke-dasharray="none" d="M448.31204479999997 186.5L596.4788672 186.5"></path><path stroke-width="1" fill="none" stroke="#000000" stroke-dasharray="none" d="M448.31204479999997 196.5L596.4788672 196.5"></path><path stroke-width="1" fill="none" stroke="#000000" stroke-dasharray="none" d="M448.31204479999997 206.5L596.4788672 206.5"></path><rect stroke-width="0.3" fill="#000000" stroke="#000000" stroke-dasharray="none" x="596.4788672" y="166" width="1" height="41"></rect><g class="vf-stavenote" id="vf-auto3039004"><g class="vf-note" pointer-events="bounding-box"><g class="vf-stem" pointer-events="bounding-box"><path stroke-width="1.5" fill="none" stroke="#000000" stroke-dasharray="none" class="vf-stem" id="vf-auto3039004-stem" d="M509.83028479999996 206.5L509.83028479999996 171.5"></path></g><g class="vf-notehead" pointer-events="bounding-box"><path stroke-width="0.3" fill="#000000" stroke="none" stroke-dasharray="none" d="M498.56204479999997 206.5M505.9190048 201.27712C506.0313248 201.27712,506.1998048 201.27712,506.22788479999997 201.27712C506.22788479999997 201.27712,506.25596479999996 201.27712,506.25596479999996 201.27712C506.25596479999996 201.27712,506.42444479999995 201.27712,506.56484479999995 201.27712C509.09204479999994 201.41752,510.58028479999996 203.07424,510.58028479999996 205.15216C510.58028479999996 206.16304,510.2433248 207.31432,509.4009248 208.40944C507.80036479999995 210.5716,505.1889248 211.75096,502.91444479999996 211.75096C501.1454048 211.75096,499.6290848 211.04896,498.89900479999994 209.61688C498.6743648 209.05528,498.56204479999997 208.52176,498.56204479999997 207.93208C498.56204479999997 204.87136,501.9878048 201.47368,505.9190048 201.27712"></path></g></g><g class="vf-modifiers"></g></g><g class="vf-stavenote" id="vf-auto3039012"><g class="vf-note" pointer-events="bounding-box"><g class="vf-stem" pointer-events="bounding-box"><path stroke-width="1.5" fill="none" stroke="#000000" stroke-dasharray="none" class="vf-stem" id="vf-auto3039012-stem" d="M543.0802848 191.5L543.0802848 156.5"></path></g><g class="vf-notehead" pointer-events="bounding-box"><path stroke-width="0.3" fill="#000000" stroke="none" stroke-dasharray="none" d="M531.8120448 191.5M539.1690047999999 186.27712C539.2813248 186.27712,539.4498047999999 186.27712,539.4778848 186.27712C539.4778848 186.27712,539.5059648 186.27712,539.5059648 186.27712C539.5059648 186.27712,539.6744448 186.27712,539.8148448 186.27712C542.3420447999999 186.41752,543.8302848 188.07424,543.8302848 190.15216C543.8302848 191.16304,543.4933248 192.31432,542.6509248 193.40944C541.0503648 195.5716,538.4389248 196.75096,536.1644448 196.75096C534.3954047999999 196.75096,532.8790848 196.04896,532.1490048 194.61688C531.9243647999999 194.05528,531.8120448 193.52176,531.8120448 192.93208C531.8120448 189.87136,535.2378047999999 186.47368,539.1690047999999 186.27712"></path></g></g><g class="vf-modifiers"></g></g><path stroke-width="1" fill="none" stroke="#000000" stroke-dasharray="none" d="M596.4788671999999 166.5L750.4456895999998 166.5"></path><path stroke-width="1" fill="none" stroke="#000000" stroke-dasharray="none" d="M596.4788671999999 176.5L750.4456895999998 176.5"></path><path stroke-width="1" fill="none" stroke="#000000" stroke-dasharray="none" d="M596.4788671999999 186.5L750.4456895999998 186.5"></path><path stroke-width="1" fill="none" stroke="#000000" stroke-dasharray="none" d="M596.4788671999999 196.5L750.4456895999998 196.5"></path><path stroke-width="1" fill="none" stroke="#000000" stroke-dasharray="none" d="M596.4788671999999 206.5L750.4456895999998 206.5"></path><rect stroke-width="0.3" fill="#000000" stroke="#000000" stroke-dasharray="none" x="745.4456895999998" y="166" width="1" height="41"></rect><rect stroke-width="0.3" fill="#000000" stroke="#000000" stroke-dasharray="none" x="748.4456895999998" y="166" width="3" height="41"></rect><path stroke-width="0.3" fill="#000000" stroke="none" stroke-dasharray="none" d="M744.4456895999998 182 A2 2 0 0 0 740.4456895999998 182M740.4456895999998 182 A2 2 0 0 0 744.4456895999998 182"></path><path stroke-width="0.3" fill="#000000" stroke="none" stroke-dasharray="none" d="M744.4456895999998 192 A2 2 0 0 0 740.4456895999998 192M740.4456895999998 192 A2 2 0 0 0 744.4456895999998 192"></path><g class="vf-stavenote" id="vf-auto3039041"><g class="vf-note" pointer-events="bounding-box"><g class="vf-stem" pointer-events="bounding-box"><path stroke-width="1.5" fill="none" stroke="#000000" stroke-dasharray="none" class="vf-stem" id="vf-auto3039041-stem" d="M624.7471071999998 206.5L624.7471071999998 171.5"></path></g><g class="vf-notehead" pointer-events="bounding-box"><path stroke-width="0.3" fill="#000000" stroke="none" stroke-dasharray="none" d="M613.4788671999999 206.5M620.8358271999998 201.27712C620.9481471999999 201.27712,621.1166271999998 201.27712,621.1447071999999 201.27712C621.1447071999999 201.27712,621.1727871999999 201.27712,621.1727871999999 201.27712C621.1727871999999 201.27712,621.3412671999998 201.27712,621.4816671999998 201.27712C624.0088671999998 201.41752,625.4971071999998 203.07424,625.4971071999998 205.15216C625.4971071999998 206.16304,625.1601471999999 207.31432,624.3177471999999 208.40944C622.7171871999999 210.5716,620.1057471999999 211.75096,617.8312671999998 211.75096C616.0622271999998 211.75096,614.5459071999999 211.04896,613.8158271999998 209.61688C613.5911871999998 209.05528,613.4788671999999 208.52176,613.4788671999999 207.93208C613.4788671999999 204.87136,616.9046271999998 201.47368,620.8358271999998 201.27712"></path></g></g><g class="vf-modifiers"></g></g><g class="vf-text"><text stroke-width="0.3" fill="#000000" stroke="none" stroke-dasharray="none" font-family="Times New Roman" font-size="23px" font-weight="bold" font-style="italic" x="158.4784" y="240.5">mf</text></g><path stroke-width="1" fill="none" stroke="#000000" stroke-dasharray="none" d="M70 255.29999999999998L304.34522239999995 255.29999999999998"></path><path stroke-width="1" fill="none" stroke="#000000" stroke-dasharray="none" d="M70 265.29999999999995L304.34522239999995 265.29999999999995"></path><path stroke-width="1" fill="none" stroke="#000000" stroke-dasharray="none" d="M70 275.29999999999995L304.34522239999995 275.29999999999995"></path><path stroke-width="1" fill="none" stroke="#000000" stroke-dasharray="none" d="M70 285.29999999999995L304.34522239999995 285.29999999999995"></path><path stroke-width="1" fill="none" stroke="#000000" stroke-dasharray="none" d="M70 295.29999999999995L304.34522239999995 295.29999999999995"></path><rect stroke-width="0.3" fill="#000000" stroke="#000000" stroke-dasharray="none" x="304.34522239999995" y="254.79999999999998" width="1" height="40.99999999999997"></rect><g class="vf-clef"><path stroke-width="0.3" fill="#000000" stroke="none" stroke-dasharray="none" d="M75 265.29999999999995M83.8416 255.24879999999996C84.072 255.19119999999995,84.3024 255.19119999999995,84.5616 255.19119999999995C85.5696 255.19119999999995,86.7504 255.30639999999997,87.7584 255.50799999999995C92.4816 256.4872,95.736 259.68399999999997,96.3408 263.9464C96.3984 264.40719999999993,96.4272 264.83919999999995,96.4272 265.29999999999995C96.4272 267.89199999999994,95.5344 271.23279999999994,94.008 274.02639999999997C90.3792 280.59279999999995,83.7552 285.316,75.8064 287.044C75.6624 287.044,75.5472 287.0728,75.4032 287.0728C75.1152 287.0728,74.9712 286.9,74.9712 286.64079999999996C74.9712 286.35279999999995,75.0288 286.2664,75.6048 286.03599999999994C84.7056 282.6088,90.7824 275.20719999999994,91.3296 266.91279999999995C91.3584 266.48079999999993,91.3584 265.99119999999994,91.3584 265.61679999999996C91.3584 261.5848,90.12 258.58959999999996,87.7296 257.0919999999999C86.6928 256.42959999999994,85.5696 256.11279999999994,84.36 256.11279999999994C81.6816 256.11279999999994,78.9456 257.63919999999996,77.6784 260.20239999999995C77.6208 260.40399999999994,77.4192 260.83599999999996,77.4192 260.86479999999995C77.4192 260.86479999999995,77.4192 260.86479999999995,77.4192 260.86479999999995C77.4192 260.86479999999995,77.448 260.83599999999996,77.5344 260.80719999999997C78.168 260.40399999999994,78.8592 260.20239999999995,79.5792 260.20239999999995C80.5872 260.20239999999995,81.6528 260.63439999999997,82.4016 261.44079999999997C83.0928 262.1895999999999,83.4672 263.19759999999997,83.4672 264.1192C83.4672 265.99119999999994,82.0848 267.89199999999994,79.9248 268.0936C79.7808 268.0936,79.6368 268.12239999999997,79.4928 268.12239999999997C77.1024 268.12239999999997,75.1728 265.93359999999996,75.1728 263.1688C75.1728 263.11119999999994,75.1728 263.02479999999997,75.1728 262.996C75.288 258.8776,79.0608 255.50799999999995,83.8416 255.24879999999996M99.1632 259.10799999999995C99.2208 259.07919999999996,99.2496 259.07919999999996,99.336 259.07919999999996C99.5376 259.07919999999996,99.768 259.10799999999995,99.8256 259.1655999999999C100.54560000000001 259.36719999999997,100.8912 260.00079999999997,100.8912 260.6056C100.8912 261.12399999999997,100.632 261.64239999999995,100.11359999999999 261.93039999999996C99.912 262.07439999999997,99.6528 262.10319999999996,99.39359999999999 262.10319999999996C98.9904 262.10319999999996,98.5584 261.93039999999996,98.2704 261.5559999999999C98.03999999999999 261.268,97.9248 260.9512,97.9248 260.63439999999997C97.9248 259.91439999999994,98.3856 259.1944,99.1632 259.10799999999995M99.1632 268.52559999999994C99.2208 268.52559999999994,99.2496 268.52559999999994,99.336 268.52559999999994C99.5376 268.52559999999994,99.768 268.55439999999993,99.8256 268.61199999999997C100.54560000000001 268.81359999999995,100.8912 269.44719999999995,100.8912 270.05199999999996C100.8912 270.57039999999995,100.632 271.08879999999994,100.11359999999999 271.34799999999996C99.912 271.49199999999996,99.6528 271.54959999999994,99.39359999999999 271.54959999999994C98.9904 271.54959999999994,98.5584 271.34799999999996,98.2704 271.00239999999997C98.03999999999999 270.71439999999996,97.9248 270.39759999999995,97.9248 270.05199999999996C97.9248 269.33199999999994,98.3856 268.64079999999996,99.1632 268.52559999999994"></path></g><path stroke-width="0.3" fill="#000000" stroke="none" stroke-dasharray="none" d="M116 275.29999999999995M121.0112 256.95439999999996C121.04 256.9256,121.4432 256.9256,122.6816 256.9256C123.056 256.9256,123.4592 256.9256,123.9776 256.9256L126.8864 256.9256L126.9728 257.01199999999994C127.1168 257.09839999999997,127.2032 257.2424,127.2032 257.35759999999993C127.2032 257.53039999999993,127.1168 257.64559999999994,127.0016 257.76079999999996C126.9728 257.84719999999993,126.7136 258.07759999999996,126.5408 258.3367999999999L125.0144 260.0936L123.056 262.31119999999993L122.0192 263.49199999999996L120.464 265.27759999999995L118.4192 267.61039999999997C118.0736 268.04239999999993,117.6992 268.388,117.6992 268.388C117.6992 268.388,117.6992 268.388,117.6992 268.388C117.6992 268.44559999999996,117.9584 268.44559999999996,120.3488 268.44559999999996L122.9696 268.44559999999996L122.9696 266.57359999999994C122.9696 264.67279999999994,122.9696 264.64399999999995,122.9984 264.61519999999996C123.056 264.52879999999993,123.3152 264.21199999999993,124.3232 263.03119999999996L124.7264 262.59919999999994L125.1296 262.1672L125.7344 261.3896L126.368 260.7272L126.6848 260.32399999999996C126.8 260.15119999999996,126.9728 260.12239999999997,127.1168 260.12239999999997C127.28960000000001 260.12239999999997,127.4336 260.20879999999994,127.52 260.35279999999995C127.5488 260.43919999999997,127.5488 260.49679999999995,127.5488 262.62799999999993C127.5488 263.1176,127.5488 263.72239999999994,127.5488 264.44239999999996L127.5488 268.44559999999996L128.2688 268.44559999999996C128.9312 268.44559999999996,128.96 268.44559999999996,129.0464 268.47439999999995C129.2768 268.5608,129.392 268.79119999999995,129.392 269.05039999999997C129.392 269.1944,129.3632 269.36719999999997,129.248 269.4823999999999C129.0752 269.62639999999993,129.0464 269.62639999999993,128.2688 269.62639999999993L127.5488 269.62639999999993L127.5488 270.11599999999993C127.5776 271.5848,127.8656 272.16079999999994,128.9888 272.76559999999995C129.392 272.96719999999993,129.4784 273.02479999999997,129.4784 273.3128C129.4784 273.51439999999997,129.42079999999999 273.60079999999994,129.2768 273.71599999999995L129.1904 273.74479999999994L125.2448 273.74479999999994L121.328 273.74479999999994L121.2416 273.71599999999995C121.0688 273.60079999999994,121.04 273.51439999999997,121.04 273.3128C121.04 273.02479999999997,121.0688 272.96719999999993,121.5008 272.76559999999995C122.624 272.16079999999994,122.912 271.5848,122.912 270.11599999999993L122.912 269.62639999999993L119.6 269.62639999999993C118.9952 269.68399999999997,118.5056 269.68399999999997,118.1024 269.68399999999997C116.288 269.68399999999997,116.2592 269.62639999999993,116.2304 269.62639999999993C116.0576 269.56879999999995,116 269.39599999999996,116 269.1944C116 269.1944,116 269.1944,116 269.1944C116 268.99279999999993,116 268.99279999999993,116.576 268.33039999999994C118.9952 265.39279999999997,120.6944 261.13039999999995,120.6944 257.73199999999997C120.6944 257.21359999999993,120.7808 257.04079999999993,121.0112 256.95439999999996M122.7392 275.32879999999994L122.768 275.32879999999994L122.6816 275.32879999999994L122.7392 275.32879999999994M122.7392 255.91759999999996L122.768 255.91759999999996L122.6816 255.91759999999996L122.7392 255.91759999999996"></path><path stroke-width="0.3" fill="#000000" stroke="none" stroke-dasharray="none" d="M116 295.29999999999995M121.0112 276.95439999999996C121.04 276.9256,121.4432 276.9256,122.6816 276.9256C123.056 276.9256,123.4592 276.9256,123.9776 276.9256L126.8864 276.9256L126.9728 277.01199999999994C127.1168 277.09839999999997,127.2032 277.2424,127.2032 277.35759999999993C127.2032 277.53039999999993,127.1168 277.64559999999994,127.0016 277.76079999999996C126.9728 277.84719999999993,126.7136 278.07759999999996,126.5408 278.3367999999999L125.0144 280.0936L123.056 282.31119999999993L122.0192 283.49199999999996L120.464 285.27759999999995L118.4192 287.61039999999997C118.0736 288.04239999999993,117.6992 288.388,117.6992 288.388C117.6992 288.388,117.6992 288.388,117.6992 288.388C117.6992 288.44559999999996,117.9584 288.44559999999996,120.3488 288.44559999999996L122.9696 288.44559999999996L122.9696 286.57359999999994C122.9696 284.67279999999994,122.9696 284.64399999999995,122.9984 284.61519999999996C123.056 284.52879999999993,123.3152 284.21199999999993,124.3232 283.03119999999996L124.7264 282.59919999999994L125.1296 282.1672L125.7344 281.3896L126.368 280.7272L126.6848 280.32399999999996C126.8 280.15119999999996,126.9728 280.12239999999997,127.1168 280.12239999999997C127.28960000000001 280.12239999999997,127.4336 280.20879999999994,127.52 280.35279999999995C127.5488 280.43919999999997,127.5488 280.49679999999995,127.5488 282.62799999999993C127.5488 283.1176,127.5488 283.72239999999994,127.5488 284.44239999999996L127.5488 288.44559999999996L128.2688 288.44559999999996C128.9312 288.44559999999996,128.96 288.44559999999996,129.0464 288.47439999999995C129.2768 288.5608,129.392 288.79119999999995,129.392 289.05039999999997C129.392 289.1944,129.3632 289.36719999999997,129.248 289.4823999999999C129.0752 289.62639999999993,129.0464 289.62639999999993,128.2688 289.62639999999993L127.5488 289.62639999999993L127.5488 290.11599999999993C127.5776 291.5848,127.8656 292.16079999999994,128.9888 292.76559999999995C129.392 292.96719999999993,129.4784 293.02479999999997,129.4784 293.3128C129.4784 293.51439999999997,129.42079999999999 293.60079999999994,129.2768 293.71599999999995L129.1904 293.74479999999994L125.2448 293.74479999999994L121.328 293.74479999999994L121.2416 293.71599999999995C121.0688 293.60079999999994,121.04 293.51439999999997,121.04 293.3128C121.04 293.02479999999997,121.0688 292.96719999999993,121.5008 292.76559999999995C122.624 292.16079999999994,122.912 291.5848,122.912 290.11599999999993L122.912 289.62639999999993L119.6 289.62639999999993C118.9952 289.68399999999997,118.5056 289.68399999999997,118.1024 289.68399999999997C116.288 289.68399999999997,116.2592 289.62639999999993,116.2304 289.62639999999993C116.0576 289.56879999999995,116 289.39599999999996,116 289.1944C116 289.1944,116 289.1944,116 289.1944C116 288.99279999999993,116 288.99279999999993,116.576 288.33039999999994C118.9952 285.39279999999997,120.6944 281.13039999999995,120.6944 277.73199999999997C120.6944 277.21359999999993,120.7808 277.04079999999993,121.0112 276.95439999999996M122.7392 295.32879999999994L122.768 295.32879999999994L122.6816 295.32879999999994L122.7392 295.32879999999994M122.7392 275.91759999999994L122.768 275.91759999999994L122.6816 275.91759999999994L122.7392 275.91759999999994"></path><g class="vf-stavenote" id="vf-auto3038956"><g class="vf-note" pointer-events="bounding-box"><g class="vf-stem" pointer-events="bounding-box"><path stroke-width="1.5" fill="none" stroke="#000000" stroke-dasharray="none" class="vf-stem" id="vf-auto3038956-stem" d="M142.2284 260.29999999999995L142.2284 295.29999999999995"></path></g><g class="vf-notehead" pointer-events="bounding-box"><path stroke-width="0.3" fill="#000000" stroke="none" stroke-dasharray="none" d="M141.4784 260.29999999999995M148.83535999999998 255.07711999999995C148.94768 255.07711999999995,149.11615999999998 255.07711999999995,149.14424 255.07711999999995C149.14424 255.07711999999995,149.17231999999998 255.07711999999995,149.17231999999998 255.07711999999995C149.17231999999998 255.07711999999995,149.3408 255.07711999999995,149.4812 255.07711999999995C152.0084 255.21751999999995,153.49663999999999 256.87423999999993,153.49663999999999 258.95215999999994C153.49663999999999 259.96304,153.15967999999998 261.11431999999996,152.31727999999998 262.20944C150.71671999999998 264.37159999999994,148.10528 265.55096,145.83079999999998 265.55096C144.06176 265.55096,142.54543999999999 264.84896,141.81536 263.41687999999994C141.59072 262.85527999999994,141.4784 262.3217599999999,141.4784 261.73207999999994C141.4784 258.67135999999994,144.90416 255.27367999999996,148.83535999999998 255.07711999999995"></path></g></g><g class="vf-modifiers"></g></g><rect stroke-width="0.3" fill="#000000" stroke="#000000" stroke-dasharray="none" x="304.34522239999995" y="166.5" width="1" height="129.79999999999995"></rect><rect stroke-width="0.3" fill="#000000" stroke="#000000" stroke-dasharray="none" x="70" y="166.5" width="1" height="129.79999999999995"></rect><path stroke-width="1" fill="none" stroke="#000000" stroke-dasharray="none" d="M304.34522239999995 255.29999999999998L448.3120447999999 255.29999999999998"></path><path stroke-width="1" fill="none" stroke="#000000" stroke-dasharray="none" d="M304.34522239999995 265.29999999999995L448.3120447999999 265.29999999999995"></path><path stroke-width="1" fill="none" stroke="#000000" stroke-dasharray="none" d="M304.34522239999995 275.29999999999995L448.3120447999999 275.29999999999995"></path><path stroke-width="1" fill="none" stroke="#000000" stroke-dasharray="none" d="M304.34522239999995 285.29999999999995L448.3120447999999 285.29999999999995"></path><path stroke-width="1" fill="none" stroke="#000000" stroke-dasharray="none" d="M304.34522239999995 295.29999999999995L448.3120447999999 295.29999999999995"></path><rect stroke-width="0.3" fill="#000000" stroke="#000000" stroke-dasharray="none" x="448.3120447999999" y="254.79999999999998" width="1" height="40.99999999999997"></rect><g class="vf-stavenote" id="vf-auto3038978"><g class="vf-note" pointer-events="bounding-box"><g class="vf-stem" pointer-events="bounding-box"><path stroke-width="1.5" fill="none" stroke="#000000" stroke-dasharray="none" class="vf-stem" id="vf-auto3038978-stem" d="M354.09522239999995 260.29999999999995L354.09522239999995 295.29999999999995"></path></g><g class="vf-notehead" pointer-events="bounding-box"><path stroke-width="0.3" fill="#000000" stroke="none" stroke-dasharray="none" d="M353.34522239999995 260.29999999999995M360.70218239999997 255.07711999999995C360.8145024 255.07711999999995,360.98298239999997 255.07711999999995,361.01106239999996 255.07711999999995C361.01106239999996 255.07711999999995,361.03914239999995 255.07711999999995,361.03914239999995 255.07711999999995C361.03914239999995 255.07711999999995,361.20762239999993 255.07711999999995,361.34802239999993 255.07711999999995C363.8752224 255.21751999999995,365.36346239999995 256.87423999999993,365.36346239999995 258.95215999999994C365.36346239999995 259.96304,365.02650239999997 261.11431999999996,364.1841024 262.20944C362.58354239999994 264.37159999999994,359.9721023999999 265.55096,357.69762239999994 265.55096C355.9285824 265.55096,354.4122624 264.84896,353.68218239999993 263.41687999999994C353.45754239999997 262.85527999999994,353.34522239999995 262.3217599999999,353.34522239999995 261.73207999999994C353.34522239999995 258.67135999999994,356.7709824 255.27367999999996,360.70218239999997 255.07711999999995"></path></g></g><g class="vf-modifiers"></g></g><g class="vf-stavenote" id="vf-auto3038986"><g class="vf-note" pointer-events="bounding-box"><g class="vf-stem" pointer-events="bounding-box"><path stroke-width="1.5" fill="none" stroke="#000000" stroke-dasharray="none" class="vf-stem" id="vf-auto3038986-stem" d="M396.61346239999995 295.29999999999995L396.61346239999995 260.29999999999995"></path></g><g class="vf-notehead" pointer-events="bounding-box"><path stroke-width="0.3" fill="#000000" stroke="none" stroke-dasharray="none" d="M385.34522239999995 295.29999999999995M392.70218239999997 290.07712C392.8145024 290.07712,392.98298239999997 290.07712,393.01106239999996 290.07712C393.01106239999996 290.07712,393.03914239999995 290.07712,393.03914239999995 290.07712C393.03914239999995 290.07712,393.20762239999993 290.07712,393.34802239999993 290.07712C395.8752224 290.21752,397.36346239999995 291.87423999999993,397.36346239999995 293.95215999999994C397.36346239999995 294.96304,397.02650239999997 296.11431999999996,396.1841024 297.20944C394.58354239999994 299.37159999999994,391.9721023999999 300.55096,389.69762239999994 300.55096C387.9285824 300.55096,386.4122624 299.84896,385.68218239999993 298.41687999999994C385.45754239999997 297.85527999999994,385.34522239999995 297.3217599999999,385.34522239999995 296.73207999999994C385.34522239999995 293.67135999999994,388.7709824 290.27367999999996,392.70218239999997 290.07712"></path></g></g><g class="vf-modifiers"></g></g><g class="vf-stavenote" id="vf-auto3038994"><g class="vf-note" pointer-events="bounding-box"><g class="vf-stem" pointer-events="bounding-box"><path stroke-width="1.5" fill="none" stroke="#000000" stroke-dasharray="none" class="vf-stem" id="vf-auto3038994-stem" d="M428.61346239999995 290.29999999999995L428.61346239999995 255.29999999999995"></path></g><g class="vf-notehead" pointer-events="bounding-box"><path stroke-width="0.3" fill="#000000" stroke="none" stroke-dasharray="none" d="M417.34522239999995 290.29999999999995M424.70218239999997 285.07712C424.8145024 285.07712,424.98298239999997 285.07712,425.01106239999996 285.07712C425.01106239999996 285.07712,425.03914239999995 285.07712,425.03914239999995 285.07712C425.03914239999995 285.07712,425.20762239999993 285.07712,425.34802239999993 285.07712C427.8752224 285.21752,429.36346239999995 286.87423999999993,429.36346239999995 288.95215999999994C429.36346239999995 289.96304,429.02650239999997 291.11431999999996,428.1841024 292.20944C426.58354239999994 294.37159999999994,423.9721023999999 295.55096,421.69762239999994 295.55096C419.9285824 295.55096,418.4122624 294.84896,417.68218239999993 293.41687999999994C417.45754239999997 292.85527999999994,417.34522239999995 292.3217599999999,417.34522239999995 291.73207999999994C417.34522239999995 288.67135999999994,420.7709824 285.27367999999996,424.70218239999997 285.07712"></path></g></g><g class="vf-modifiers"></g></g><rect stroke-width="0.3" fill="#000000" stroke="#000000" stroke-dasharray="none" x="448.3120447999999" y="166.5" width="1" height="129.79999999999995"></rect><path stroke-width="1" fill="none" stroke="#000000" stroke-dasharray="none" d="M448.31204479999997 255.29999999999998L596.4788672 255.29999999999998"></path><path stroke-width="1" fill="none" stroke="#000000" stroke-dasharray="none" d="M448.31204479999997 265.29999999999995L596.4788672 265.29999999999995"></path><path stroke-width="1" fill="none" stroke="#000000" stroke-dasharray="none" d="M448.31204479999997 275.29999999999995L596.4788672 275.29999999999995"></path><path stroke-width="1" fill="none" stroke="#000000" stroke-dasharray="none" d="M448.31204479999997 285.29999999999995L596.4788672 285.29999999999995"></path><path stroke-width="1" fill="none" stroke="#000000" stroke-dasharray="none" d="M448.31204479999997 295.29999999999995L596.4788672 295.29999999999995"></path><rect stroke-width="0.3" fill="#000000" stroke="#000000" stroke-dasharray="none" x="596.4788672" y="254.79999999999998" width="1" height="40.99999999999997"></rect><path stroke-width="1" fill="none" stroke="#000000" stroke-dasharray="none" d="M462.31204479999997 245.29999999999995L480.33028479999996 245.29999999999995"></path><g class="vf-stavenote" id="vf-auto3039023"><g class="vf-note" pointer-events="bounding-box"><g class="vf-stem" pointer-events="bounding-box"><path stroke-width="1.5" fill="none" stroke="#000000" stroke-dasharray="none" class="vf-stem" id="vf-auto3039023-stem" d="M466.06204479999997 240.29999999999995L466.06204479999997 275.29999999999995"></path></g><g class="vf-notehead" pointer-events="bounding-box"><path stroke-width="0.3" fill="#000000" stroke="none" stroke-dasharray="none" d="M465.31204479999997 240.29999999999995M472.6690048 235.07711999999995C472.7813248 235.07711999999995,472.9498048 235.07711999999995,472.97788479999997 235.07711999999995C472.97788479999997 235.07711999999995,473.00596479999996 235.07711999999995,473.00596479999996 235.07711999999995C473.00596479999996 235.07711999999995,473.17444479999995 235.07711999999995,473.31484479999995 235.07711999999995C475.84204479999994 235.21751999999995,477.33028479999996 236.87423999999996,477.33028479999996 238.95215999999996C477.33028479999996 239.96303999999995,476.9933248 241.11431999999996,476.1509248 242.20943999999994C474.55036479999995 244.37159999999994,471.9389248 245.55095999999995,469.66444479999996 245.55095999999995C467.8954048 245.55095999999995,466.3790848 244.84895999999995,465.64900479999994 243.41687999999996C465.4243648 242.85527999999996,465.31204479999997 242.32175999999995,465.31204479999997 241.73207999999997C465.31204479999997 238.67135999999996,468.7378048 235.27367999999996,472.6690048 235.07711999999995"></path></g></g><g class="vf-modifiers"></g></g><path stroke-width="1" fill="none" stroke="#000000" stroke-dasharray="none" d="M562.0620448 245.29999999999995L580.0802848 245.29999999999995"></path><g class="vf-stavenote" id="vf-auto3039031"><g class="vf-note" pointer-events="bounding-box"><g class="vf-stem" pointer-events="bounding-box"><path stroke-width="1.5" fill="none" stroke="#000000" stroke-dasharray="none" class="vf-stem" id="vf-auto3039031-stem" d="M565.8120448 245.29999999999995L565.8120448 280.29999999999995"></path></g><g class="vf-notehead" pointer-events="bounding-box"><path stroke-width="0.3" fill="#000000" stroke="none" stroke-dasharray="none" d="M565.0620448 245.29999999999995M572.4190047999999 240.07711999999995C572.5313248 240.07711999999995,572.6998047999999 240.07711999999995,572.7278848 240.07711999999995C572.7278848 240.07711999999995,572.7559648 240.07711999999995,572.7559648 240.07711999999995C572.7559648 240.07711999999995,572.9244448 240.07711999999995,573.0648448 240.07711999999995C575.5920447999999 240.21751999999995,577.0802848 241.87423999999996,577.0802848 243.95215999999996C577.0802848 244.96303999999995,576.7433248 246.11431999999996,575.9009248 247.20943999999994C574.3003648 249.37159999999994,571.6889248 250.55095999999995,569.4144448 250.55095999999995C567.6454047999999 250.55095999999995,566.1290848 249.84895999999995,565.3990048 248.41687999999996C565.1743647999999 247.85527999999996,565.0620448 247.32175999999995,565.0620448 246.73207999999997C565.0620448 243.67135999999996,568.4878047999999 240.27367999999996,572.4190047999999 240.07711999999995"></path></g></g><g class="vf-modifiers"></g></g><rect stroke-width="0.3" fill="#000000" stroke="#000000" stroke-dasharray="none" x="596.4788672" y="166.5" width="1" height="129.79999999999995"></rect><path stroke-width="1" fill="none" stroke="#000000" stroke-dasharray="none" d="M596.4788671999999 255.29999999999998L750.4456895999998 255.29999999999998"></path><path stroke-width="1" fill="none" stroke="#000000" stroke-dasharray="none" d="M596.4788671999999 265.29999999999995L750.4456895999998 265.29999999999995"></path><path stroke-width="1" fill="none" stroke="#000000" stroke-dasharray="none" d="M596.4788671999999 275.29999999999995L750.4456895999998 275.29999999999995"></path><path stroke-width="1" fill="none" stroke="#000000" stroke-dasharray="none" d="M596.4788671999999 285.29999999999995L750.4456895999998 285.29999999999995"></path><path stroke-width="1" fill="none" stroke="#000000" stroke-dasharray="none" d="M596.4788671999999 295.29999999999995L750.4456895999998 295.29999999999995"></path><rect stroke-width="0.3" fill="#000000" stroke="#000000" stroke-dasharray="none" x="745.4456895999998" y="254.79999999999998" width="1" height="40.99999999999997"></rect><rect stroke-width="0.3" fill="#000000" stroke="#000000" stroke-dasharray="none" x="748.4456895999998" y="254.79999999999998" width="3" height="40.99999999999997"></rect><path stroke-width="0.3" fill="#000000" stroke="none" stroke-dasharray="none" d="M744.4456895999998 270.79999999999995 A2 2 0 0 0 740.4456895999998 270.79999999999995M740.4456895999998 270.79999999999995 A2 2 0 0 0 744.4456895999998 270.79999999999995"></path><path stroke-width="0.3" fill="#000000" stroke="none" stroke-dasharray="none" d="M744.4456895999998 280.79999999999995 A2 2 0 0 0 740.4456895999998 280.79999999999995M740.4456895999998 280.79999999999995 A2 2 0 0 0 744.4456895999998 280.79999999999995"></path><g class="vf-stavenote" id="vf-auto3039052"><g class="vf-note" pointer-events="bounding-box"><g class="vf-stem" pointer-events="bounding-box"><path stroke-width="1.5" fill="none" stroke="#000000" stroke-dasharray="none" class="vf-stem" id="vf-auto3039052-stem" d="M659.2471071999998 290.29999999999995L659.2471071999998 255.29999999999995"></path></g><g class="vf-notehead" pointer-events="bounding-box"><path stroke-width="0.3" fill="#000000" stroke="none" stroke-dasharray="none" d="M647.9788671999999 290.29999999999995M655.3358271999998 285.07712C655.4481471999999 285.07712,655.6166271999998 285.07712,655.6447071999999 285.07712C655.6447071999999 285.07712,655.6727871999999 285.07712,655.6727871999999 285.07712C655.6727871999999 285.07712,655.8412671999998 285.07712,655.9816671999998 285.07712C658.5088671999998 285.21752,659.9971071999998 286.87423999999993,659.9971071999998 288.95215999999994C659.9971071999998 289.96304,659.6601471999999 291.11431999999996,658.8177471999999 292.20944C657.2171871999999 294.37159999999994,654.6057471999999 295.55096,652.3312671999998 295.55096C650.5622271999998 295.55096,649.0459071999999 294.84896,648.3158271999998 293.41687999999994C648.0911871999998 292.85527999999994,647.9788671999999 292.3217599999999,647.9788671999999 291.73207999999994C647.9788671999999 288.67135999999994,651.4046271999998 285.27367999999996,655.3358271999998 285.07712"></path></g></g><g class="vf-modifiers"></g></g><g class="vf-stavenote" id="vf-auto3039060"><g class="vf-note" pointer-events="bounding-box"><g class="vf-stem" pointer-events="bounding-box"><path stroke-width="1.5" fill="none" stroke="#000000" stroke-dasharray="none" class="vf-stem" id="vf-auto3039060-stem" d="M683.2288671999999 250.29999999999995L683.2288671999999 285.29999999999995"></path></g><g class="vf-notehead" pointer-events="bounding-box"><path stroke-width="0.3" fill="#000000" stroke="none" stroke-dasharray="none" d="M682.4788671999999 250.29999999999995M689.8358271999998 245.07711999999995C689.9481471999999 245.07711999999995,690.1166271999998 245.07711999999995,690.1447071999999 245.07711999999995C690.1447071999999 245.07711999999995,690.1727871999999 245.07711999999995,690.1727871999999 245.07711999999995C690.1727871999999 245.07711999999995,690.3412671999998 245.07711999999995,690.4816671999998 245.07711999999995C693.0088671999998 245.21751999999995,694.4971071999998 246.87423999999996,694.4971071999998 248.95215999999996C694.4971071999998 249.96303999999995,694.1601471999999 251.11431999999996,693.3177471999999 252.20943999999994C691.7171871999999 254.37159999999994,689.1057471999999 255.55095999999995,686.8312671999998 255.55095999999995C685.0622271999998 255.55095999999995,683.5459071999999 254.84895999999995,682.8158271999998 253.41687999999996C682.5911871999998 252.85527999999996,682.4788671999999 252.32175999999995,682.4788671999999 251.73207999999997C682.4788671999999 248.67135999999996,685.9046271999998 245.27367999999996,689.8358271999998 245.07711999999995"></path></g></g><g class="vf-modifiers"></g></g><g class="vf-stavenote" id="vf-auto3039068"><g class="vf-note" pointer-events="bounding-box"><g class="vf-stem" pointer-events="bounding-box"><path stroke-width="1.5" fill="none" stroke="#000000" stroke-dasharray="none" class="vf-stem" id="vf-auto3039068-stem" d="M717.7288671999999 255.29999999999995L717.7288671999999 290.29999999999995"></path></g><g class="vf-notehead" pointer-events="bounding-box"><path stroke-width="0.3" fill="#000000" stroke="none" stroke-dasharray="none" d="M716.9788671999999 255.29999999999995M724.3358271999998 250.07711999999995C724.4481471999999 250.07711999999995,724.6166271999998 250.07711999999995,724.6447071999999 250.07711999999995C724.6447071999999 250.07711999999995,724.6727871999999 250.07711999999995,724.6727871999999 250.07711999999995C724.6727871999999 250.07711999999995,724.8412671999998 250.07711999999995,724.9816671999998 250.07711999999995C727.5088671999998 250.21751999999995,728.9971071999998 251.87423999999996,728.9971071999998 253.95215999999996C728.9971071999998 254.96303999999995,728.6601471999999 256.11431999999996,727.8177471999999 257.20944C726.2171871999999 259.37159999999994,723.6057471999999 260.55096,721.3312671999998 260.55096C719.5622271999998 260.55096,718.0459071999999 259.84896,717.3158271999998 258.41687999999994C717.0911871999998 257.85527999999994,716.9788671999999 257.3217599999999,716.9788671999999 256.73207999999994C716.9788671999999 253.67135999999996,720.4046271999998 250.27367999999996,724.3358271999998 250.07711999999995"></path></g></g><g class="vf-modifiers"></g></g><rect stroke-width="0.3" fill="#000000" stroke="#000000" stroke-dasharray="none" x="745.4456895999998" y="166.5" width="1" height="129.79999999999995"></rect><rect stroke-width="0.3" fill="#000000" stroke="#000000" stroke-dasharray="none" x="748.4456895999998" y="166.5" width="3" height="129.79999999999995"></rect><path stroke-width="0.3" fill="#000000" stroke="none" stroke-dasharray="none" d="M68 166.5C45.2 192.45999999999998,81.2 213.87699999999998,56 231.39999999999998C81.2 248.92299999999997,45.2 270.34,68 296.29999999999995C44 270.34,72.8 248.92299999999997,56 231.39999999999998C72.8 213.87699999999998,44 192.45999999999998,68 166.5"></path><path stroke-width="1" fill="none" stroke="#000000" stroke-dasharray="none" d="M68 166.5C45.2 192.45999999999998,81.2 213.87699999999998,56 231.39999999999998C81.2 248.92299999999997,45.2 270.34,68 296.29999999999995C44 270.34,72.8 248.92299999999997,56 231.39999999999998C72.8 213.87699999999998,44 192.45999999999998,68 166.5"></path><g class="vf-text"><text stroke-width="0.3" fill="#000000" stroke="none" stroke-dasharray="none" font-family="Times New Roman" font-size="15px" font-weight="normal" font-style="normal" x="444.81204479999997" y="163.5">3</text></g></svg>