<svg xmlns="http://www.w3.org/2000/svg"  width="1470" height="392.59999999999997" viewBox="0 0 1470 392.59999999999997"><path stroke-width="1" fill="none" stroke="#000000" stroke-dasharray="none" d="M70 166.5L295.9452224 166.5"></path><path stroke-width="1" fill="none" stroke="#000000" stroke-dasharray="none" d="M70 176.5L295.9452224 176.5"></path><path stroke-width="1" fill="none" stroke="#000000" stroke-dasharray="none" d="M70 186.5L295.9452224 186.5"></path><path stroke-width="1" fill="none" stroke="#000000" stroke-dasharray="none" d="M70 196.5L295.9452224 196.5"></path><path stroke-width="1" fill="none" stroke="#000000" stroke-dasharray="none" d="M70 206.5L295.9452224 206.5"></path><rect stroke-width="0.3" fill="#000000" stroke="#000000" stroke-dasharray="none" x="295.9452224" y="166" width="1" height="41"></rect><g class="vf-clef"><path stroke-width="0.3" fill="#000000" stroke="none" stroke-dasharray="none" d="M75 196.5M89.0544 153.3288C89.112 153.3,89.1696 153.3,89.256 153.3C89.6016 153.3,90.0048 153.588,90.5808 154.308C92.9136 156.9864,94.5552 161.652,94.5552 165.4536C94.5552 165.7416,94.4976 165.972,94.4976 166.26C94.2384 170.7816,92.3952 174.4968,88.7376 178.0104L87.7584 178.9608L87.4128 179.3352L87.4128 179.4504L87.6144 180.3144L87.9312 181.8696L88.248 183.3096C88.68 185.268,88.8528 186.276,88.8528 186.276C88.8528 186.276,88.8528 186.276,88.8528 186.276C88.8528 186.276,88.968 186.276,89.112 186.2472C89.256 186.2472,89.7168 186.1896,90.2064 186.1896C90.55199999999999 186.1896,90.8976 186.2472,91.0704 186.2472C95.1312 186.7656,98.2704 189.6744,99.1632 193.764C99.336 194.4264,99.39359999999999 195.1464,99.39359999999999 195.8664C99.39359999999999 199.7544,97.0608 203.4696,93.1728 205.2264C92.94239999999999 205.3704,92.856 205.3992,92.856 205.3992L92.856 205.428C92.856 205.428,93.0288 206.0904,93.1728 206.8392L93.6048 209.028L94.008 210.7848C94.2384 211.908,94.3536 212.7144,94.3536 213.4344C94.3536 214.06799999999998,94.2672 214.644,94.1232 215.3064C93.144 219.3096,89.6592 221.7,86.0304 221.7C84.2448 221.7,82.4016 221.124,80.7888 219.828C79.3488 218.6184,78.7152 217.524,78.7152 216.084C78.7152 213.5496,80.76 211.764,82.8912 211.764C83.64 211.764,84.3888 211.99439999999998,85.1088 212.4264C86.3184 213.2616,86.8656 214.5288,86.8656 215.7672C86.8656 217.668,85.5408 219.54,83.2656 219.684L83.0352 219.684L83.208 219.79919999999998C84.1584 220.2024,85.1088 220.404,86.0304 220.404C88.3632 220.404,90.55199999999999 219.2232,91.8768 217.1784C92.62559999999999 216.0264,93.0288 214.6728,93.0288 213.3192C93.0288 212.8008,92.94239999999999 212.2824,92.8272 211.7064C92.8272 211.6488,92.74080000000001 211.188,92.62559999999999 210.756C91.992 207.6456,91.6176 205.8312,91.6176 205.8312C91.6176 205.8312,91.6176 205.8312,91.6176 205.8312C91.56 205.8312,91.4448 205.8312,91.3584 205.8888C91.0704 205.9464,90.4656 206.0904,90.2064 206.1192C89.5728 206.2056,88.968 206.2344,88.392 206.2344C82.74719999999999 206.2344,77.5056 202.4328,75.6912 196.8168C75.2304 195.3192,74.9712 193.8216,74.9712 192.324C74.9712 189.3288,75.9216 186.3912,77.7648 183.7704C79.7808 180.9192,81.7968 178.4712,84.2736 175.9368L85.13759999999999 175.044L84.936 173.9784L84.5616 172.2216L84.072 169.9752C83.928 169.14,83.7552 168.3336,83.7264 168.1608C83.5824 167.2104,83.496 166.2888,83.496 165.3384C83.496 161.7096,84.6768 158.22480000000002,86.8944 155.4312C87.5568 154.5672,88.7376 153.4152,89.0544 153.3288M90.8112 159.0312C90.7536 159.0312,90.6672 159.0312,90.5808 159.0312C89.4 159.0312,87.8736 160.1256,86.8368 161.7384C85.7712 163.32240000000002,85.224 165.4248,85.224 167.5848C85.224 168.1608,85.25280000000001 168.7656,85.3392 169.3704C85.4256 169.8024,85.45439999999999 170.0904,85.6848 171.12720000000002L86.088 172.9416C86.2032 173.4888,86.28960000000001 173.92079999999999,86.28960000000001 173.9784L86.28960000000001 173.9784C86.3184 173.9784,87.2112 172.9992,87.4992 172.6536C90.3792 169.3992,92.1072 165.972,92.4816 162.948C92.5104 162.66,92.5104 162.4296,92.5104 162.1416C92.5104 161.24880000000002,92.3952 160.38479999999998,92.1936 159.924C91.9632 159.4632,91.4448 159.0888,90.8112 159.0312M86.4624 181.2936C86.4048 180.8904,86.3184 180.5736,86.3184 180.516C86.3184 180.516,86.3184 180.516,86.28960000000001 180.516C86.232 180.516,84.9936 181.956,84.1296 182.964C82.6608 184.7496,81.1056 186.8808,80.472 187.9176C79.2624 189.9624,78.6576 192.2376,78.6576 194.484C78.6576 195.9528,78.9456 197.364,79.464 198.7176C81.0192 202.7208,84.5904 205.2264,88.4784 205.2264C88.9392 205.2264,89.4576 205.1976,89.9472 205.1112C90.5808 204.996,91.3584 204.7656,91.3584 204.6792L91.3584 204.6792C91.3584 204.6792,91.3008 204.3912,91.2144 204.0744L90.3792 199.956L89.7168 196.8744L89.2848 194.7432L88.824 192.6696C88.5936 191.4312,88.5072 191.1144,88.5072 191.1144C88.5072 191.1144,88.5072 191.0856,88.4784 191.0856C88.3056 191.0856,87.384 191.5464,86.9808 191.8344C85.4832 192.8712,84.7056 194.5128,84.7056 196.1256C84.7056 197.652,85.45439999999999 199.1784,86.8944 200.0712C87.2112 200.2728,87.3264 200.4456,87.3264 200.6472C87.3264 200.676,87.3264 200.7624,87.3264 200.7912C87.2688 201.1368,87.0672 201.2808,86.7792 201.2808C86.664 201.2808,86.52 201.252,86.3472 201.1656C83.6976 200.0136,81.912 197.2776,81.912 194.2824L81.912 194.2824C81.912 190.8264,84.072 187.8312,87.384 186.6504L87.5568 186.5928L87.2688 185.1528L86.4624 181.2936M90.7824 190.9128C90.55199999999999 190.88400000000001,90.3216 190.88400000000001,90.1488 190.88400000000001C90.0912 190.88400000000001,90.0048 190.88400000000001,89.9472 190.88400000000001L89.8032 190.88400000000001L89.9184 191.4024L90.5232 194.2248L90.8976 196.068L91.3008 197.8824L92.1072 201.8856L92.424 203.412C92.5392 203.8152,92.5968 204.1608,92.62559999999999 204.1608C92.62559999999999 204.1608,92.62559999999999 204.1608,92.62559999999999 204.1608C92.6544 204.1608,93.144 203.8728,93.4608 203.6424C94.9296 202.6056,96.024 200.9928,96.4272 199.3224C96.5712 198.7752,96.6288 198.1992,96.6288 197.652C96.6288 194.3112,94.152 191.2872,90.7824 190.9128"></path></g><path stroke-width="0.3" fill="#000000" stroke="none" stroke-dasharray="none" d="M116 186.5M121.0112 168.1544C121.04 168.1256,121.4432 168.1256,122.6816 168.1256C123.056 168.1256,123.4592 168.1256,123.9776 168.1256L126.8864 168.1256L126.9728 168.212C127.1168 168.29840000000002,127.2032 168.4424,127.2032 168.5576C127.2032 168.7304,127.1168 168.8456,127.0016 168.9608C126.9728 169.0472,126.7136 169.2776,126.5408 169.5368L125.0144 171.2936L123.056 173.5112L122.0192 174.692L120.464 176.4776L118.4192 178.8104C118.0736 179.2424,117.6992 179.588,117.6992 179.588C117.6992 179.588,117.6992 179.588,117.6992 179.588C117.6992 179.6456,117.9584 179.6456,120.3488 179.6456L122.9696 179.6456L122.9696 177.7736C122.9696 175.8728,122.9696 175.844,122.9984 175.8152C123.056 175.7288,123.3152 175.412,124.3232 174.2312L124.7264 173.7992L125.1296 173.3672L125.7344 172.5896L126.368 171.9272L126.6848 171.524C126.8 171.3512,126.9728 171.3224,127.1168 171.3224C127.28960000000001 171.3224,127.4336 171.4088,127.52 171.5528C127.5488 171.6392,127.5488 171.6968,127.5488 173.828C127.5488 174.3176,127.5488 174.9224,127.5488 175.6424L127.5488 179.6456L128.2688 179.6456C128.9312 179.6456,128.96 179.6456,129.0464 179.6744C129.2768 179.7608,129.392 179.9912,129.392 180.2504C129.392 180.3944,129.3632 180.5672,129.248 180.6824C129.0752 180.8264,129.0464 180.8264,128.2688 180.8264L127.5488 180.8264L127.5488 181.316C127.5776 182.7848,127.8656 183.3608,128.9888 183.9656C129.392 184.1672,129.4784 184.2248,129.4784 184.5128C129.4784 184.7144,129.42079999999999 184.8008,129.2768 184.916L129.1904 184.9448L125.2448 184.9448L121.328 184.9448L121.2416 184.916C121.0688 184.8008,121.04 184.7144,121.04 184.5128C121.04 184.2248,121.0688 184.1672,121.5008 183.9656C122.624 183.3608,122.912 182.7848,122.912 181.316L122.912 180.8264L119.6 180.8264C118.9952 180.88400000000001,118.5056 180.88400000000001,118.1024 180.88400000000001C116.288 180.88400000000001,116.2592 180.8264,116.2304 180.8264C116.0576 180.7688,116 180.596,116 180.3944C116 180.3944,116 180.3944,116 180.3944C116 180.1928,116 180.1928,116.576 179.5304C118.9952 176.5928,120.6944 172.3304,120.6944 168.93200000000002C120.6944 168.4136,120.7808 168.2408,121.0112 168.1544M122.7392 186.5288L122.768 186.5288L122.6816 186.5288L122.7392 186.5288M122.7392 167.1176L122.768 167.1176L122.6816 167.1176L122.7392 167.1176"></path><path stroke-width="0.3" fill="#000000" stroke="none" stroke-dasharray="none" d="M116 206.5M121.0112 188.1544C121.04 188.1256,121.4432 188.1256,122.6816 188.1256C123.056 188.1256,123.4592 188.1256,123.9776 188.1256L126.8864 188.1256L126.9728 188.212C127.1168 188.29840000000002,127.2032 188.4424,127.2032 188.5576C127.2032 188.7304,127.1168 188.8456,127.0016 188.9608C126.9728 189.0472,126.7136 189.2776,126.5408 189.5368L125.0144 191.2936L123.056 193.5112L122.0192 194.692L120.464 196.4776L118.4192 198.8104C118.0736 199.2424,117.6992 199.588,117.6992 199.588C117.6992 199.588,117.6992 199.588,117.6992 199.588C117.6992 199.6456,117.9584 199.6456,120.3488 199.6456L122.9696 199.6456L122.9696 197.7736C122.9696 195.8728,122.9696 195.844,122.9984 195.8152C123.056 195.7288,123.3152 195.412,124.3232 194.2312L124.7264 193.7992L125.1296 193.3672L125.7344 192.5896L126.368 191.9272L126.6848 191.524C126.8 191.3512,126.9728 191.3224,127.1168 191.3224C127.28960000000001 191.3224,127.4336 191.4088,127.52 191.5528C127.5488 191.6392,127.5488 191.6968,127.5488 193.828C127.5488 194.3176,127.5488 194.9224,127.5488 195.6424L127.5488 199.6456L128.2688 199.6456C128.9312 199.6456,128.96 199.6456,129.0464 199.6744C129.2768 199.7608,129.392 199.9912,129.392 200.2504C129.392 200.3944,129.3632 200.5672,129.248 200.6824C129.0752 200.8264,129.0464 200.8264,128.2688 200.8264L127.5488 200.8264L127.5488 201.316C127.5776 202.7848,127.8656 203.3608,128.9888 203.9656C129.392 204.1672,129.4784 204.2248,129.4784 204.5128C129.4784 204.7144,129.42079999999999 204.8008,129.2768 204.916L129.1904 204.9448L125.2448 204.9448L121.328 204.9448L121.2416 204.916C121.0688 204.8008,121.04 204.7144,121.04 204.5128C121.04 204.2248,121.0688 204.1672,121.5008 203.9656C122.624 203.3608,122.912 202.7848,122.912 201.316L122.912 200.8264L119.6 200.8264C118.9952 200.88400000000001,118.5056 200.88400000000001,118.1024 200.88400000000001C116.288 200.88400000000001,116.2592 200.8264,116.2304 200.8264C116.0576 200.7688,116 200.596,116 200.3944C116 200.3944,116 200.3944,116 200.3944C116 200.1928,116 200.1928,116.576 199.5304C118.9952 196.5928,120.6944 192.3304,120.6944 188.93200000000002C120.6944 188.4136,120.7808 188.2408,121.0112 188.1544M122.7392 206.5288L122.768 206.5288L122.6816 206.5288L122.7392 206.5288M122.7392 187.1176L122.768 187.1176L122.6816 187.1176L122.7392 187.1176"></path><g class="vf-stavenote" id="vf-auto3285587"><g class="vf-note" pointer-events="bounding-box"><g class="vf-stem" pointer-events="bounding-box"><path stroke-width="1.5" fill="none" stroke="#000000" stroke-dasharray="none" class="vf-stem" id="vf-auto3285587-stem" d="M181.1088 186.5L181.1088 221.5"></path></g><g class="vf-notehead" pointer-events="bounding-box"><path stroke-width="0.3" fill="#000000" stroke="none" stroke-dasharray="none" d="M180.3588 186.5M187.71576 181.27712C187.82808 181.27712,187.99656 181.27712,188.02464 181.27712C188.02464 181.27712,188.05272 181.27712,188.05272 181.27712C188.05272 181.27712,188.2212 181.27712,188.3616 181.27712C190.8888 181.41752,192.37704 183.07424,192.37704 185.15216C192.37704 186.16304,192.04008 187.31432,191.19768 188.40944C189.59712 190.5716,186.98568 191.75096,184.7112 191.75096C182.94216 191.75096,181.42584 191.04896,180.69576 189.61688C180.47112 189.05528,180.3588 188.52176,180.3588 187.93208C180.3588 184.87136,183.78456 181.47368,187.71576 181.27712"></path></g></g><g class="vf-modifiers"></g></g><path stroke-width="1" fill="none" stroke="#000000" stroke-dasharray="none" d="M295.9452224 166.5L452.5120447999999 166.5"></path><path stroke-width="1" fill="none" stroke="#000000" stroke-dasharray="none" d="M295.9452224 176.5L452.5120447999999 176.5"></path><path stroke-width="1" fill="none" stroke="#000000" stroke-dasharray="none" d="M295.9452224 186.5L452.5120447999999 186.5"></path><path stroke-width="1" fill="none" stroke="#000000" stroke-dasharray="none" d="M295.9452224 196.5L452.5120447999999 196.5"></path><path stroke-width="1" fill="none" stroke="#000000" stroke-dasharray="none" d="M295.9452224 206.5L452.5120447999999 206.5"></path><rect stroke-width="0.3" fill="#000000" stroke="#000000" stroke-dasharray="none" x="452.5120447999999" y="166" width="1" height="41"></rect><g class="vf-stavenote" id="vf-auto3285624"><g class="vf-note" pointer-events="bounding-box"><g class="vf-stem" pointer-events="bounding-box"><path stroke-width="1.5" fill="none" stroke="#000000" stroke-dasharray="none" class="vf-stem" id="vf-auto3285624-stem" d="M324.21346239999997 196.5L324.21346239999997 161.5"></path></g><g class="vf-notehead" pointer-events="bounding-box"><path stroke-width="0.3" fill="#000000" stroke="none" stroke-dasharray="none" d="M312.9452224 196.5M320.3021824 191.27712C320.4145024 191.27712,320.5829824 191.27712,320.6110624 191.27712C320.6110624 191.27712,320.63914239999997 191.27712,320.63914239999997 191.27712C320.63914239999997 191.27712,320.80762239999996 191.27712,320.94802239999996 191.27712C323.4752224 191.41752,324.96346239999997 193.07424,324.96346239999997 195.15216C324.96346239999997 196.16304,324.6265024 197.31432,323.7841024 198.40944C322.18354239999996 200.5716,319.57210239999995 201.75096,317.29762239999997 201.75096C315.5285824 201.75096,314.0122624 201.04896,313.28218239999995 199.61688C313.0575424 199.05528,312.9452224 198.52176,312.9452224 197.93208C312.9452224 194.87136,316.3709824 191.47368,320.3021824 191.27712"></path></g></g><g class="vf-modifiers"></g></g><g class="vf-stavenote" id="vf-auto3285632"><g class="vf-note" pointer-events="bounding-box"><g class="vf-stem" pointer-events="bounding-box"><path stroke-width="1.5" fill="none" stroke="#000000" stroke-dasharray="none" class="vf-stem" id="vf-auto3285632-stem" d="M359.46346239999997 196.5L359.46346239999997 161.5"></path></g><g class="vf-notehead" pointer-events="bounding-box"><path stroke-width="0.3" fill="#000000" stroke="none" stroke-dasharray="none" d="M348.1952224 196.5M355.5521824 191.27712C355.6645024 191.27712,355.8329824 191.27712,355.8610624 191.27712C355.8610624 191.27712,355.88914239999997 191.27712,355.88914239999997 191.27712C355.88914239999997 191.27712,356.05762239999996 191.27712,356.19802239999996 191.27712C358.7252224 191.41752,360.21346239999997 193.07424,360.21346239999997 195.15216C360.21346239999997 196.16304,359.8765024 197.31432,359.0341024 198.40944C357.43354239999996 200.5716,354.82210239999995 201.75096,352.54762239999997 201.75096C350.7785824 201.75096,349.2622624 201.04896,348.53218239999995 199.61688C348.3075424 199.05528,348.1952224 198.52176,348.1952224 197.93208C348.1952224 194.87136,351.6209824 191.47368,355.5521824 191.27712"></path></g></g><g class="vf-modifiers"></g></g><g class="vf-stavenote" id="vf-auto3285640"><g class="vf-note" pointer-events="bounding-box"><g class="vf-stem" pointer-events="bounding-box"><path stroke-width="1.5" fill="none" stroke="#000000" stroke-dasharray="none" class="vf-stem" id="vf-auto3285640-stem" d="M384.1952224 176.5L384.1952224 211.5"></path></g><g class="vf-notehead" pointer-events="bounding-box"><path stroke-width="0.3" fill="#000000" stroke="none" stroke-dasharray="none" d="M383.4452224 176.5M390.8021824 171.27712C390.9145024 171.27712,391.0829824 171.27712,391.1110624 171.27712C391.1110624 171.27712,391.13914239999997 171.27712,391.13914239999997 171.27712C391.13914239999997 171.27712,391.30762239999996 171.27712,391.44802239999996 171.27712C393.9752224 171.41752,395.46346239999997 173.07424,395.46346239999997 175.15216C395.46346239999997 176.16304,395.1265024 177.31432,394.2841024 178.40944C392.68354239999996 180.5716,390.07210239999995 181.75096,387.79762239999997 181.75096C386.0285824 181.75096,384.5122624 181.04896,383.78218239999995 179.61688C383.5575424 179.05528,383.4452224 178.52176,383.4452224 177.93208C383.4452224 174.87136,386.8709824 171.47368,390.8021824 171.27712"></path></g></g><g class="vf-modifiers"></g></g><g class="vf-stavenote" id="vf-auto3285648"><g class="vf-note" pointer-events="bounding-box"><g class="vf-stem" pointer-events="bounding-box"><path stroke-width="1.5" fill="none" stroke="#000000" stroke-dasharray="none" class="vf-stem" id="vf-auto3285648-stem" d="M419.4452224 181.5L419.4452224 216.5"></path></g><g class="vf-notehead" pointer-events="bounding-box"><path stroke-width="0.3" fill="#000000" stroke="none" stroke-dasharray="none" d="M418.6952224 181.5M426.0521824 176.27712C426.1645024 176.27712,426.3329824 176.27712,426.3610624 176.27712C426.3610624 176.27712,426.38914239999997 176.27712,426.38914239999997 176.27712C426.38914239999997 176.27712,426.55762239999996 176.27712,426.69802239999996 176.27712C429.2252224 176.41752,430.71346239999997 178.07424,430.71346239999997 180.15216C430.71346239999997 181.16304,430.3765024 182.31432,429.5341024 183.40944C427.93354239999996 185.5716,425.32210239999995 186.75096,423.04762239999997 186.75096C421.2785824 186.75096,419.7622624 186.04896,419.03218239999995 184.61688C418.8075424 184.05528,418.6952224 183.52176,418.6952224 182.93208C418.6952224 179.87136,422.1209824 176.47368,426.0521824 176.27712"></path></g></g><g class="vf-modifiers"></g></g><path stroke-width="1" fill="none" stroke="#000000" stroke-dasharray="none" d="M452.5120447999999 166.5L604.8788671999998 166.5"></path><path stroke-width="1" fill="none" stroke="#000000" stroke-dasharray="none" d="M452.5120447999999 176.5L604.8788671999998 176.5"></path><path stroke-width="1" fill="none" stroke="#000000" stroke-dasharray="none" d="M452.5120447999999 186.5L604.8788671999998 186.5"></path><path stroke-width="1" fill="none" stroke="#000000" stroke-dasharray="none" d="M452.5120447999999 196.5L604.8788671999998 196.5"></path><path stroke-width="1" fill="none" stroke="#000000" stroke-dasharray="none" d="M452.5120447999999 206.5L604.8788671999998 206.5"></path><rect stroke-width="0.3" fill="#000000" stroke="#000000" stroke-dasharray="none" x="604.8788671999998" y="166" width="1" height="41"></rect><path stroke-width="1" fill="none" stroke="#000000" stroke-dasharray="none" d="M466.5120447999999 216.5L484.5302847999999 216.5"></path><g class="vf-stavenote" id="vf-auto3285657"><g class="vf-note" pointer-events="bounding-box"><g class="vf-stem" pointer-events="bounding-box"><path stroke-width="1.5" fill="none" stroke="#000000" stroke-dasharray="none" class="vf-stem" id="vf-auto3285657-stem" d="M480.7802847999999 216.5L480.7802847999999 181.5"></path></g><g class="vf-notehead" pointer-events="bounding-box"><path stroke-width="0.3" fill="#000000" stroke="none" stroke-dasharray="none" d="M469.5120447999999 216.5M476.8690047999999 211.27712C476.9813247999999 211.27712,477.1498047999999 211.27712,477.1778847999999 211.27712C477.1778847999999 211.27712,477.2059647999999 211.27712,477.2059647999999 211.27712C477.2059647999999 211.27712,477.3744447999999 211.27712,477.5148447999999 211.27712C480.04204479999987 211.41752,481.5302847999999 213.07424,481.5302847999999 215.15216C481.5302847999999 216.16304,481.1933247999999 217.31432,480.3509247999999 218.40944C478.7503647999999 220.5716,476.1389247999999 221.75096,473.8644447999999 221.75096C472.0954047999999 221.75096,470.5790847999999 221.04896,469.8490047999999 219.61688C469.6243647999999 219.05528,469.5120447999999 218.52176,469.5120447999999 217.93208C469.5120447999999 214.87136,472.9378047999999 211.47368,476.8690047999999 211.27712"></path></g></g><g class="vf-modifiers"></g></g><g class="vf-stavenote" id="vf-auto3285665"><g class="vf-note" pointer-events="bounding-box"><g class="vf-stem" pointer-events="bounding-box"><path stroke-width="1.5" fill="none" stroke="#000000" stroke-dasharray="none" class="vf-stem" id="vf-auto3285665-stem" d="M538.7620447999999 166.5L538.7620447999999 201.5"></path></g><g class="vf-notehead" pointer-events="bounding-box"><path stroke-width="0.3" fill="#000000" stroke="none" stroke-dasharray="none" d="M538.0120447999999 166.5M545.3690047999999 161.27712C545.4813247999999 161.27712,545.6498047999999 161.27712,545.6778847999999 161.27712C545.6778847999999 161.27712,545.7059648 161.27712,545.7059648 161.27712C545.7059648 161.27712,545.8744447999999 161.27712,546.0148447999999 161.27712C548.5420447999999 161.41752,550.0302847999999 163.07424,550.0302847999999 165.15216C550.0302847999999 166.16304,549.6933247999999 167.31432,548.8509247999999 168.40944C547.2503647999999 170.5716,544.6389247999999 171.75096,542.3644447999999 171.75096C540.5954047999999 171.75096,539.0790847999999 171.04896,538.3490047999999 169.61688C538.1243647999999 169.05528,538.0120447999999 168.52176,538.0120447999999 167.93208C538.0120447999999 164.87136,541.4378047999999 161.47368,545.3690047999999 161.27712"></path></g></g><g class="vf-modifiers"></g></g><g class="vf-stavenote" id="vf-auto3285673"><g class="vf-note" pointer-events="bounding-box"><g class="vf-stem" pointer-events="bounding-box"><path stroke-width="1.5" fill="none" stroke="#000000" stroke-dasharray="none" class="vf-stem" id="vf-auto3285673-stem" d="M573.0120447999999 166.5L573.0120447999999 201.5"></path></g><g class="vf-notehead" pointer-events="bounding-box"><path stroke-width="0.3" fill="#000000" stroke="none" stroke-dasharray="none" d="M572.2620447999999 166.5M579.6190047999999 161.27712C579.7313247999999 161.27712,579.8998047999999 161.27712,579.9278847999999 161.27712C579.9278847999999 161.27712,579.9559648 161.27712,579.9559648 161.27712C579.9559648 161.27712,580.1244447999999 161.27712,580.2648447999999 161.27712C582.7920447999999 161.41752,584.2802847999999 163.07424,584.2802847999999 165.15216C584.2802847999999 166.16304,583.9433247999999 167.31432,583.1009247999999 168.40944C581.5003647999999 170.5716,578.8889247999999 171.75096,576.6144447999999 171.75096C574.8454047999999 171.75096,573.3290847999999 171.04896,572.5990047999999 169.61688C572.3743647999999 169.05528,572.2620447999999 168.52176,572.2620447999999 167.93208C572.2620447999999 164.87136,575.6878047999999 161.47368,579.6190047999999 161.27712"></path></g></g><g class="vf-modifiers"></g></g><path stroke-width="1" fill="none" stroke="#000000" stroke-dasharray="none" d="M604.8788672 166.5L758.8456895999999 166.5"></path><path stroke-width="1" fill="none" stroke="#000000" stroke-dasharray="none" d="M604.8788672 176.5L758.8456895999999 176.5"></path><path stroke-width="1" fill="none" stroke="#000000" stroke-dasharray="none" d="M604.8788672 186.5L758.8456895999999 186.5"></path><path stroke-width="1" fill="none" stroke="#000000" stroke-dasharray="none" d="M604.8788672 196.5L758.8456895999999 196.5"></path><path stroke-width="1" fill="none" stroke="#000000" stroke-dasharray="none" d="M604.8788672 206.5L758.8456895999999 206.5"></path><rect stroke-width="0.3" fill="#000000" stroke="#000000" stroke-dasharray="none" x="753.8456895999999" y="166" width="1" height="41"></rect><rect stroke-width="0.3" fill="#000000" stroke="#000000" stroke-dasharray="none" x="756.8456895999999" y="166" width="3" height="41"></rect><path stroke-width="0.3" fill="#000000" stroke="none" stroke-dasharray="none" d="M752.8456895999999 182 A2 2 0 0 0 748.8456895999999 182M748.8456895999999 182 A2 2 0 0 0 752.8456895999999 182"></path><path stroke-width="0.3" fill="#000000" stroke="none" stroke-dasharray="none" d="M752.8456895999999 192 A2 2 0 0 0 748.8456895999999 192M748.8456895999999 192 A2 2 0 0 0 752.8456895999999 192"></path><g class="vf-stavenote" id="vf-auto3285694"><g class="vf-note" pointer-events="bounding-box"><g class="vf-stem" pointer-events="bounding-box"><path stroke-width="1.5" fill="none" stroke="#000000" stroke-dasharray="none" class="vf-stem" id="vf-auto3285694-stem" d="M667.6471071999999 211.5L667.6471071999999 176.5"></path></g><g class="vf-notehead" pointer-events="bounding-box"><path stroke-width="0.3" fill="#000000" stroke="none" stroke-dasharray="none" d="M656.3788672 211.5M663.7358271999999 206.27712C663.8481472 206.27712,664.0166271999999 206.27712,664.0447072 206.27712C664.0447072 206.27712,664.0727872 206.27712,664.0727872 206.27712C664.0727872 206.27712,664.2412671999999 206.27712,664.3816671999999 206.27712C666.9088671999999 206.41752,668.3971071999999 208.07424,668.3971071999999 210.15216C668.3971071999999 211.16304,668.0601472 212.31432,667.2177472 213.40944C665.6171872 215.5716,663.0057472 216.75096,660.7312671999999 216.75096C658.9622271999999 216.75096,657.4459072 216.04896,656.7158271999999 214.61688C656.4911871999999 214.05528,656.3788672 213.52176,656.3788672 212.93208C656.3788672 209.87136,659.8046271999999 206.47368,663.7358271999999 206.27712"></path></g></g><g class="vf-modifiers"></g></g><g class="vf-text"><text stroke-width="0.3" fill="#000000" stroke="none" stroke-dasharray="none" font-family="Times New Roman" font-size="23px" font-weight="bold" font-style="italic" x="159.9784" y="243.3">pp</text></g><path stroke-width="1" fill="none" stroke="#000000" stroke-dasharray="none" d="M70 272.1L295.9452224 272.1"></path><path stroke-width="1" fill="none" stroke="#000000" stroke-dasharray="none" d="M70 282.1L295.9452224 282.1"></path><path stroke-width="1" fill="none" stroke="#000000" stroke-dasharray="none" d="M70 292.1L295.9452224 292.1"></path><path stroke-width="1" fill="none" stroke="#000000" stroke-dasharray="none" d="M70 302.1L295.9452224 302.1"></path><path stroke-width="1" fill="none" stroke="#000000" stroke-dasharray="none" d="M70 312.1L295.9452224 312.1"></path><rect stroke-width="0.3" fill="#000000" stroke="#000000" stroke-dasharray="none" x="295.9452224" y="271.6" width="1" height="41"></rect><g class="vf-clef"><path stroke-width="0.3" fill="#000000" stroke="none" stroke-dasharray="none" d="M75 282.1M83.8416 272.0488C84.072 271.99120000000005,84.3024 271.99120000000005,84.5616 271.99120000000005C85.5696 271.99120000000005,86.7504 272.1064,87.7584 272.30800000000005C92.4816 273.28720000000004,95.736 276.48400000000004,96.3408 280.74640000000005C96.3984 281.2072,96.4272 281.6392,96.4272 282.1C96.4272 284.692,95.5344 288.0328,94.008 290.82640000000004C90.3792 297.3928,83.7552 302.11600000000004,75.8064 303.84400000000005C75.6624 303.84400000000005,75.5472 303.87280000000004,75.4032 303.87280000000004C75.1152 303.87280000000004,74.9712 303.70000000000005,74.9712 303.4408C74.9712 303.1528,75.0288 303.06640000000004,75.6048 302.836C84.7056 299.40880000000004,90.7824 292.0072,91.3296 283.7128C91.3584 283.2808,91.3584 282.7912,91.3584 282.4168C91.3584 278.38480000000004,90.12 275.38960000000003,87.7296 273.892C86.6928 273.2296,85.5696 272.9128,84.36 272.9128C81.6816 272.9128,78.9456 274.4392,77.6784 277.0024C77.6208 277.204,77.4192 277.636,77.4192 277.6648C77.4192 277.6648,77.4192 277.6648,77.4192 277.6648C77.4192 277.6648,77.448 277.636,77.5344 277.60720000000003C78.168 277.204,78.8592 277.0024,79.5792 277.0024C80.5872 277.0024,81.6528 277.43440000000004,82.4016 278.24080000000004C83.0928 278.9896,83.4672 279.99760000000003,83.4672 280.91920000000005C83.4672 282.7912,82.0848 284.692,79.9248 284.89360000000005C79.7808 284.89360000000005,79.6368 284.92240000000004,79.4928 284.92240000000004C77.1024 284.92240000000004,75.1728 282.7336,75.1728 279.96880000000004C75.1728 279.9112,75.1728 279.82480000000004,75.1728 279.79600000000005C75.288 275.67760000000004,79.0608 272.30800000000005,83.8416 272.0488M99.1632 275.908C99.2208 275.8792,99.2496 275.8792,99.336 275.8792C99.5376 275.8792,99.768 275.908,99.8256 275.9656C100.54560000000001 276.16720000000004,100.8912 276.80080000000004,100.8912 277.40560000000005C100.8912 277.92400000000004,100.632 278.4424,100.11359999999999 278.73040000000003C99.912 278.87440000000004,99.6528 278.9032,99.39359999999999 278.9032C98.9904 278.9032,98.5584 278.73040000000003,98.2704 278.356C98.03999999999999 278.06800000000004,97.9248 277.75120000000004,97.9248 277.43440000000004C97.9248 276.7144,98.3856 275.99440000000004,99.1632 275.908M99.1632 285.3256C99.2208 285.3256,99.2496 285.3256,99.336 285.3256C99.5376 285.3256,99.768 285.3544,99.8256 285.41200000000003C100.54560000000001 285.6136,100.8912 286.2472,100.8912 286.85200000000003C100.8912 287.3704,100.632 287.8888,100.11359999999999 288.148C99.912 288.29200000000003,99.6528 288.3496,99.39359999999999 288.3496C98.9904 288.3496,98.5584 288.148,98.2704 287.80240000000003C98.03999999999999 287.5144,97.9248 287.1976,97.9248 286.85200000000003C97.9248 286.132,98.3856 285.4408,99.1632 285.3256"></path></g><path stroke-width="0.3" fill="#000000" stroke="none" stroke-dasharray="none" d="M116 292.1M121.0112 273.75440000000003C121.04 273.72560000000004,121.4432 273.72560000000004,122.6816 273.72560000000004C123.056 273.72560000000004,123.4592 273.72560000000004,123.9776 273.72560000000004L126.8864 273.72560000000004L126.9728 273.812C127.1168 273.89840000000004,127.2032 274.04240000000004,127.2032 274.1576C127.2032 274.3304,127.1168 274.4456,127.0016 274.56080000000003C126.9728 274.6472,126.7136 274.87760000000003,126.5408 275.1368L125.0144 276.89360000000005L123.056 279.1112L122.0192 280.29200000000003L120.464 282.0776L118.4192 284.41040000000004C118.0736 284.8424,117.6992 285.18800000000005,117.6992 285.18800000000005C117.6992 285.18800000000005,117.6992 285.18800000000005,117.6992 285.18800000000005C117.6992 285.2456,117.9584 285.2456,120.3488 285.2456L122.9696 285.2456L122.9696 283.3736C122.9696 281.4728,122.9696 281.444,122.9984 281.4152C123.056 281.3288,123.3152 281.012,124.3232 279.8312L124.7264 279.3992L125.1296 278.96720000000005L125.7344 278.18960000000004L126.368 277.52720000000005L126.6848 277.124C126.8 276.95120000000003,126.9728 276.92240000000004,127.1168 276.92240000000004C127.28960000000001 276.92240000000004,127.4336 277.0088,127.52 277.1528C127.5488 277.23920000000004,127.5488 277.2968,127.5488 279.428C127.5488 279.91760000000005,127.5488 280.5224,127.5488 281.24240000000003L127.5488 285.2456L128.2688 285.2456C128.9312 285.2456,128.96 285.2456,129.0464 285.2744C129.2768 285.36080000000004,129.392 285.5912,129.392 285.85040000000004C129.392 285.99440000000004,129.3632 286.16720000000004,129.248 286.2824C129.0752 286.4264,129.0464 286.4264,128.2688 286.4264L127.5488 286.4264L127.5488 286.916C127.5776 288.38480000000004,127.8656 288.9608,128.9888 289.5656C129.392 289.7672,129.4784 289.82480000000004,129.4784 290.11280000000005C129.4784 290.31440000000003,129.42079999999999 290.4008,129.2768 290.516L129.1904 290.5448L125.2448 290.5448L121.328 290.5448L121.2416 290.516C121.0688 290.4008,121.04 290.31440000000003,121.04 290.11280000000005C121.04 289.82480000000004,121.0688 289.7672,121.5008 289.5656C122.624 288.9608,122.912 288.38480000000004,122.912 286.916L122.912 286.4264L119.6 286.4264C118.9952 286.48400000000004,118.5056 286.48400000000004,118.1024 286.48400000000004C116.288 286.48400000000004,116.2592 286.4264,116.2304 286.4264C116.0576 286.3688,116 286.196,116 285.99440000000004C116 285.99440000000004,116 285.99440000000004,116 285.99440000000004C116 285.7928,116 285.7928,116.576 285.1304C118.9952 282.19280000000003,120.6944 277.9304,120.6944 274.53200000000004C120.6944 274.0136,120.7808 273.8408,121.0112 273.75440000000003M122.7392 292.1288L122.768 292.1288L122.6816 292.1288L122.7392 292.1288M122.7392 272.7176L122.768 272.7176L122.6816 272.7176L122.7392 272.7176"></path><path stroke-width="0.3" fill="#000000" stroke="none" stroke-dasharray="none" d="M116 312.1M121.0112 293.75440000000003C121.04 293.72560000000004,121.4432 293.72560000000004,122.6816 293.72560000000004C123.056 293.72560000000004,123.4592 293.72560000000004,123.9776 293.72560000000004L126.8864 293.72560000000004L126.9728 293.812C127.1168 293.89840000000004,127.2032 294.04240000000004,127.2032 294.1576C127.2032 294.3304,127.1168 294.4456,127.0016 294.56080000000003C126.9728 294.6472,126.7136 294.87760000000003,126.5408 295.1368L125.0144 296.89360000000005L123.056 299.1112L122.0192 300.29200000000003L120.464 302.0776L118.4192 304.41040000000004C118.0736 304.8424,117.6992 305.18800000000005,117.6992 305.18800000000005C117.6992 305.18800000000005,117.6992 305.18800000000005,117.6992 305.18800000000005C117.6992 305.2456,117.9584 305.2456,120.3488 305.2456L122.9696 305.2456L122.9696 303.3736C122.9696 301.4728,122.9696 301.444,122.9984 301.4152C123.056 301.3288,123.3152 301.012,124.3232 299.8312L124.7264 299.3992L125.1296 298.96720000000005L125.7344 298.18960000000004L126.368 297.52720000000005L126.6848 297.124C126.8 296.95120000000003,126.9728 296.92240000000004,127.1168 296.92240000000004C127.28960000000001 296.92240000000004,127.4336 297.0088,127.52 297.1528C127.5488 297.23920000000004,127.5488 297.2968,127.5488 299.428C127.5488 299.91760000000005,127.5488 300.5224,127.5488 301.24240000000003L127.5488 305.2456L128.2688 305.2456C128.9312 305.2456,128.96 305.2456,129.0464 305.2744C129.2768 305.36080000000004,129.392 305.5912,129.392 305.85040000000004C129.392 305.99440000000004,129.3632 306.16720000000004,129.248 306.2824C129.0752 306.4264,129.0464 306.4264,128.2688 306.4264L127.5488 306.4264L127.5488 306.916C127.5776 308.38480000000004,127.8656 308.9608,128.9888 309.5656C129.392 309.7672,129.4784 309.82480000000004,129.4784 310.11280000000005C129.4784 310.31440000000003,129.42079999999999 310.4008,129.2768 310.516L129.1904 310.5448L125.2448 310.5448L121.328 310.5448L121.2416 310.516C121.0688 310.4008,121.04 310.31440000000003,121.04 310.11280000000005C121.04 309.82480000000004,121.0688 309.7672,121.5008 309.5656C122.624 308.9608,122.912 308.38480000000004,122.912 306.916L122.912 306.4264L119.6 306.4264C118.9952 306.48400000000004,118.5056 306.48400000000004,118.1024 306.48400000000004C116.288 306.48400000000004,116.2592 306.4264,116.2304 306.4264C116.0576 306.3688,116 306.196,116 305.99440000000004C116 305.99440000000004,116 305.99440000000004,116 305.99440000000004C116 305.7928,116 305.7928,116.576 305.1304C118.9952 302.19280000000003,120.6944 297.9304,120.6944 294.53200000000004C120.6944 294.0136,120.7808 293.8408,121.0112 293.75440000000003M122.7392 312.1288L122.768 312.1288L122.6816 312.1288L122.7392 312.1288M122.7392 292.7176L122.768 292.7176L122.6816 292.7176L122.7392 292.7176"></path><g class="vf-stavenote" id="vf-auto3285598"><g class="vf-note" pointer-events="bounding-box"><g class="vf-stem" pointer-events="bounding-box"><path stroke-width="1.5" fill="none" stroke="#000000" stroke-dasharray="none" class="vf-stem" id="vf-auto3285598-stem" d="M152.74663999999999 292.1L152.74663999999999 257.1"></path></g><g class="vf-notehead" pointer-events="bounding-box"><path stroke-width="0.3" fill="#000000" stroke="none" stroke-dasharray="none" d="M141.4784 292.1M148.83535999999998 286.87712000000005C148.94768 286.87712000000005,149.11615999999998 286.87712000000005,149.14424 286.87712000000005C149.14424 286.87712000000005,149.17231999999998 286.87712000000005,149.17231999999998 286.87712000000005C149.17231999999998 286.87712000000005,149.3408 286.87712000000005,149.4812 286.87712000000005C152.0084 287.01752000000005,153.49663999999999 288.67424,153.49663999999999 290.75216C153.49663999999999 291.76304000000005,153.15967999999998 292.91432000000003,152.31727999999998 294.00944000000004C150.71671999999998 296.1716,148.10528 297.35096000000004,145.83079999999998 297.35096000000004C144.06176 297.35096000000004,142.54543999999999 296.64896000000005,141.81536 295.21688C141.59072 294.65528,141.4784 294.12176,141.4784 293.53208C141.4784 290.47136,144.90416 287.07368,148.83535999999998 286.87712000000005"></path></g></g><g class="vf-modifiers"></g></g><path stroke-width="1" fill="none" stroke="#000000" stroke-dasharray="none" d="M216.23919999999998 262.1L234.25743999999997 262.1"></path><g class="vf-stavenote" id="vf-auto3285606"><g class="vf-note" pointer-events="bounding-box"><g class="vf-stem" pointer-events="bounding-box"><path stroke-width="1.5" fill="none" stroke="#000000" stroke-dasharray="none" class="vf-stem" id="vf-auto3285606-stem" d="M219.98919999999998 257.1L219.98919999999998 292.1"></path></g><g class="vf-notehead" pointer-events="bounding-box"><path stroke-width="0.3" fill="#000000" stroke="none" stroke-dasharray="none" d="M219.23919999999998 257.1M226.59615999999997 251.87712000000002C226.70847999999998 251.87712000000002,226.87696 251.87712000000002,226.90503999999999 251.87712000000002C226.90503999999999 251.87712000000002,226.93311999999997 251.87712000000002,226.93311999999997 251.87712000000002C226.93311999999997 251.87712000000002,227.1016 251.87712000000002,227.242 251.87712000000002C229.76919999999998 252.01752000000002,231.25743999999997 253.67424000000003,231.25743999999997 255.75216000000003C231.25743999999997 256.76304000000005,230.92048 257.91432000000003,230.07807999999997 259.00944000000004C228.47751999999997 261.1716,225.86607999999998 262.35096000000004,223.59159999999997 262.35096000000004C221.82255999999998 262.35096000000004,220.30623999999997 261.64896000000005,219.57616 260.21688C219.35152 259.65528,219.23919999999998 259.12176,219.23919999999998 258.53208C219.23919999999998 255.47136000000003,222.66495999999998 252.07368000000002,226.59615999999997 251.87712000000002"></path></g></g><g class="vf-modifiers"></g></g><g class="vf-stavenote" id="vf-auto3285614"><g class="vf-note" pointer-events="bounding-box"><g class="vf-stem" pointer-events="bounding-box"><path stroke-width="1.5" fill="none" stroke="#000000" stroke-dasharray="none" class="vf-stem" id="vf-auto3285614-stem" d="M258.8696 267.1L258.8696 302.1"></path></g><g class="vf-notehead" pointer-events="bounding-box"><path stroke-width="0.3" fill="#000000" stroke="none" stroke-dasharray="none" d="M258.1196 267.1M265.47656 261.87712000000005C265.58888 261.87712000000005,265.75736 261.87712000000005,265.78544 261.87712000000005C265.78544 261.87712000000005,265.81352 261.87712000000005,265.81352 261.87712000000005C265.81352 261.87712000000005,265.98199999999997 261.87712000000005,266.12239999999997 261.87712000000005C268.64959999999996 262.01752000000005,270.13784 263.67424,270.13784 265.75216C270.13784 266.76304000000005,269.80088 267.91432000000003,268.95848 269.00944000000004C267.35792 271.1716,264.74648 272.35096000000004,262.472 272.35096000000004C260.70296 272.35096000000004,259.18664 271.64896000000005,258.45655999999997 270.21688C258.23192 269.65528,258.1196 269.12176,258.1196 268.53208C258.1196 265.47136,261.54536 262.07368,265.47656 261.87712000000005"></path></g></g><g class="vf-modifiers"></g></g><rect stroke-width="0.3" fill="#000000" stroke="#000000" stroke-dasharray="none" x="295.9452224" y="166.5" width="1" height="146.60000000000002"></rect><rect stroke-width="0.3" fill="#000000" stroke="#000000" stroke-dasharray="none" x="70" y="166.5" width="1" height="146.60000000000002"></rect><path stroke-width="1" fill="none" stroke="#000000" stroke-dasharray="none" d="M295.9452224 272.1L452.5120447999999 272.1"></path><path stroke-width="1" fill="none" stroke="#000000" stroke-dasharray="none" d="M295.9452224 282.1L452.5120447999999 282.1"></path><path stroke-width="1" fill="none" stroke="#000000" stroke-dasharray="none" d="M295.9452224 292.1L452.5120447999999 292.1"></path><path stroke-width="1" fill="none" stroke="#000000" stroke-dasharray="none" d="M295.9452224 302.1L452.5120447999999 302.1"></path><path stroke-width="1" fill="none" stroke="#000000" stroke-dasharray="none" d="M295.9452224 312.1L452.5120447999999 312.1"></path><rect stroke-width="0.3" fill="#000000" stroke="#000000" stroke-dasharray="none" x="452.5120447999999" y="271.6" width="1" height="41"></rect><rect stroke-width="0.3" fill="#000000" stroke="#000000" stroke-dasharray="none" x="452.5120447999999" y="166.5" width="1" height="146.60000000000002"></rect><path stroke-width="1" fill="none" stroke="#000000" stroke-dasharray="none" d="M452.5120447999999 272.1L604.8788671999998 272.1"></path><path stroke-width="1" fill="none" stroke="#000000" stroke-dasharray="none" d="M452.5120447999999 282.1L604.8788671999998 282.1"></path><path stroke-width="1" fill="none" stroke="#000000" stroke-dasharray="none" d="M452.5120447999999 292.1L604.8788671999998 292.1"></path><path stroke-width="1" fill="none" stroke="#000000" stroke-dasharray="none" d="M452.5120447999999 302.1L604.8788671999998 302.1"></path><path stroke-width="1" fill="none" stroke="#000000" stroke-dasharray="none" d="M452.5120447999999 312.1L604.8788671999998 312.1"></path><rect stroke-width="0.3" fill="#000000" stroke="#000000" stroke-dasharray="none" x="604.8788671999998" y="271.6" width="1" height="41"></rect><path stroke-width="1" fill="none" stroke="#000000" stroke-dasharray="none" d="M500.7620447999999 262.1L518.7802847999999 262.1"></path><g class="vf-stavenote" id="vf-auto3285683"><g class="vf-note" pointer-events="bounding-box"><g class="vf-stem" pointer-events="bounding-box"><path stroke-width="1.5" fill="none" stroke="#000000" stroke-dasharray="none" class="vf-stem" id="vf-auto3285683-stem" d="M504.5120447999999 257.1L504.5120447999999 292.1"></path></g><g class="vf-notehead" pointer-events="bounding-box"><path stroke-width="0.3" fill="#000000" stroke="none" stroke-dasharray="none" d="M503.7620447999999 257.1M511.1190047999999 251.87712000000002C511.2313247999999 251.87712000000002,511.3998047999999 251.87712000000002,511.4278847999999 251.87712000000002C511.4278847999999 251.87712000000002,511.4559647999999 251.87712000000002,511.4559647999999 251.87712000000002C511.4559647999999 251.87712000000002,511.6244447999999 251.87712000000002,511.7648447999999 251.87712000000002C514.2920447999999 252.01752000000002,515.7802847999999 253.67424000000003,515.7802847999999 255.75216000000003C515.7802847999999 256.76304000000005,515.4433247999999 257.91432000000003,514.6009247999999 259.00944000000004C513.0003647999999 261.1716,510.3889247999999 262.35096000000004,508.1144447999999 262.35096000000004C506.3454047999999 262.35096000000004,504.8290847999999 261.64896000000005,504.0990047999999 260.21688C503.8743647999999 259.65528,503.7620447999999 259.12176,503.7620447999999 258.53208C503.7620447999999 255.47136000000003,507.1878047999999 252.07368000000002,511.1190047999999 251.87712000000002"></path></g></g><g class="vf-modifiers"></g></g><rect stroke-width="0.3" fill="#000000" stroke="#000000" stroke-dasharray="none" x="604.8788671999998" y="166.5" width="1" height="146.60000000000002"></rect><path stroke-width="1" fill="none" stroke="#000000" stroke-dasharray="none" d="M604.8788672 272.1L758.8456895999999 272.1"></path><path stroke-width="1" fill="none" stroke="#000000" stroke-dasharray="none" d="M604.8788672 282.1L758.8456895999999 282.1"></path><path stroke-width="1" fill="none" stroke="#000000" stroke-dasharray="none" d="M604.8788672 292.1L758.8456895999999 292.1"></path><path stroke-width="1" fill="none" stroke="#000000" stroke-dasharray="none" d="M604.8788672 302.1L758.8456895999999 302.1"></path><path stroke-width="1" fill="none" stroke="#000000" stroke-dasharray="none" d="M604.8788672 312.1L758.8456895999999 312.1"></path><rect stroke-width="0.3" fill="#000000" stroke="#000000" stroke-dasharray="none" x="753.8456895999999" y="271.6" width="1" height="41"></rect><rect stroke-width="0.3" fill="#000000" stroke="#000000" stroke-dasharray="none" x="756.8456895999999" y="271.6" width="3" height="41"></rect><path stroke-width="0.3" fill="#000000" stroke="none" stroke-dasharray="none" d="M752.8456895999999 287.6 A2 2 0 0 0 748.8456895999999 287.6M748.8456895999999 287.6 A2 2 0 0 0 752.8456895999999 287.6"></path><path stroke-width="0.3" fill="#000000" stroke="none" stroke-dasharray="none" d="M752.8456895999999 297.6 A2 2 0 0 0 748.8456895999999 297.6M748.8456895999999 297.6 A2 2 0 0 0 752.8456895999999 297.6"></path><g class="vf-stavenote" id="vf-auto3285705"><g class="vf-note" pointer-events="bounding-box"><g class="vf-stem" pointer-events="bounding-box"><path stroke-width="1.5" fill="none" stroke="#000000" stroke-dasharray="none" class="vf-stem" id="vf-auto3285705-stem" d="M622.6288672 267.1L622.6288672 302.1"></path></g><g class="vf-notehead" pointer-events="bounding-box"><path stroke-width="0.3" fill="#000000" stroke="none" stroke-dasharray="none" d="M621.8788672 267.1M629.2358271999999 261.87712000000005C629.3481472 261.87712000000005,629.5166271999999 261.87712000000005,629.5447072 261.87712000000005C629.5447072 261.87712000000005,629.5727872 261.87712000000005,629.5727872 261.87712000000005C629.5727872 261.87712000000005,629.7412671999999 261.87712000000005,629.8816671999999 261.87712000000005C632.4088671999999 262.01752000000005,633.8971071999999 263.67424,633.8971071999999 265.75216C633.8971071999999 266.76304000000005,633.5601472 267.91432000000003,632.7177472 269.00944000000004C631.1171872 271.1716,628.5057472 272.35096000000004,626.2312671999999 272.35096000000004C624.4622271999999 272.35096000000004,622.9459072 271.64896000000005,622.2158271999999 270.21688C621.9911871999999 269.65528,621.8788672 269.12176,621.8788672 268.53208C621.8788672 265.47136,625.3046271999999 262.07368,629.2358271999999 261.87712000000005"></path></g></g><g class="vf-modifiers"></g></g><path stroke-width="1" fill="none" stroke="#000000" stroke-dasharray="none" d="M687.8788672 262.1L705.8971071999999 262.1"></path><g class="vf-stavenote" id="vf-auto3285713"><g class="vf-note" pointer-events="bounding-box"><g class="vf-stem" pointer-events="bounding-box"><path stroke-width="1.5" fill="none" stroke="#000000" stroke-dasharray="none" class="vf-stem" id="vf-auto3285713-stem" d="M691.6288672 257.1L691.6288672 292.1"></path></g><g class="vf-notehead" pointer-events="bounding-box"><path stroke-width="0.3" fill="#000000" stroke="none" stroke-dasharray="none" d="M690.8788672 257.1M698.2358271999999 251.87712000000002C698.3481472 251.87712000000002,698.5166271999999 251.87712000000002,698.5447072 251.87712000000002C698.5447072 251.87712000000002,698.5727872 251.87712000000002,698.5727872 251.87712000000002C698.5727872 251.87712000000002,698.7412671999999 251.87712000000002,698.8816671999999 251.87712000000002C701.4088671999999 252.01752000000002,702.8971071999999 253.67424000000003,702.8971071999999 255.75216000000003C702.8971071999999 256.76304000000005,702.5601472 257.91432000000003,701.7177472 259.00944000000004C700.1171872 261.1716,697.5057472 262.35096000000004,695.2312671999999 262.35096000000004C693.4622271999999 262.35096000000004,691.9459072 261.64896000000005,691.2158271999999 260.21688C690.9911871999999 259.65528,690.8788672 259.12176,690.8788672 258.53208C690.8788672 255.47136000000003,694.3046271999999 252.07368000000002,698.2358271999999 251.87712000000002"></path></g></g><g class="vf-modifiers"></g></g><g class="vf-stavenote" id="vf-auto3285721"><g class="vf-note" pointer-events="bounding-box"><g class="vf-stem" pointer-events="bounding-box"><path stroke-width="1.5" fill="none" stroke="#000000" stroke-dasharray="none" class="vf-stem" id="vf-auto3285721-stem" d="M726.1288672 282.1L726.1288672 317.1"></path></g><g class="vf-notehead" pointer-events="bounding-box"><path stroke-width="0.3" fill="#000000" stroke="none" stroke-dasharray="none" d="M725.3788672 282.1M732.7358271999999 276.87712000000005C732.8481472 276.87712000000005,733.0166271999999 276.87712000000005,733.0447072 276.87712000000005C733.0447072 276.87712000000005,733.0727872 276.87712000000005,733.0727872 276.87712000000005C733.0727872 276.87712000000005,733.2412671999999 276.87712000000005,733.3816671999999 276.87712000000005C735.9088671999999 277.01752000000005,737.3971071999999 278.67424,737.3971071999999 280.75216C737.3971071999999 281.76304000000005,737.0601472 282.91432000000003,736.2177472 284.00944000000004C734.6171872 286.1716,732.0057472 287.35096000000004,729.7312671999999 287.35096000000004C727.9622271999999 287.35096000000004,726.4459072 286.64896000000005,725.7158271999999 285.21688C725.4911871999999 284.65528,725.3788672 284.12176,725.3788672 283.53208C725.3788672 280.47136,728.8046271999999 277.07368,732.7358271999999 276.87712000000005"></path></g></g><g class="vf-modifiers"></g></g><rect stroke-width="0.3" fill="#000000" stroke="#000000" stroke-dasharray="none" x="753.8456895999999" y="166.5" width="1" height="146.60000000000002"></rect><rect stroke-width="0.3" fill="#000000" stroke="#000000" stroke-dasharray="none" x="756.8456895999999" y="166.5" width="3" height="146.60000000000002"></rect><path stroke-width="0.3" fill="#000000" stroke="none" stroke-dasharray="none" d="M68 166.5C45.2 195.82,81.2 220.00900000000001,56 239.8C81.2 259.591,45.2 283.78000000000003,68 313.1C44 283.78000000000003,72.8 259.591,56 239.8C72.8 220.00900000000001,44 195.82,68 166.5"></path><path stroke-width="1" fill="none" stroke="#000000" stroke-dasharray="none" d="M68 166.5C45.2 195.82,81.2 220.00900000000001,56 239.8C81.2 259.591,45.2 283.78000000000003,68 313.1C44 283.78000000000003,72.8 259.591,56 239.8C72.8 220.00900000000001,44 195.82,68 166.5"></path><g class="vf-text"><text stroke-width="0.3" fill="#000000" stroke="none" stroke-dasharray="none" font-family="Times New Roman" font-size="15px" font-weight="normal" font-style="normal" x="449.0120447999999" y="163.5">3</text></g></svg>