<svg xmlns="http://www.w3.org/2000/svg"  width="1470" height="384.6" viewBox="0 0 1470 384.6"><path stroke-width="1" fill="none" stroke="#000000" stroke-dasharray="none" d="M70 166.5L304.34522239999995 166.5"></path><path stroke-width="1" fill="none" stroke="#000000" stroke-dasharray="none" d="M70 176.5L304.34522239999995 176.5"></path><path stroke-width="1" fill="none" stroke="#000000" stroke-dasharray="none" d="M70 186.5L304.34522239999995 186.5"></path><path stroke-width="1" fill="none" stroke="#000000" stroke-dasharray="none" d="M70 196.5L304.34522239999995 196.5"></path><path stroke-width="1" fill="none" stroke="#000000" stroke-dasharray="none" d="M70 206.5L304.34522239999995 206.5"></path><rect stroke-width="0.3" fill="#000000" stroke="#000000" stroke-dasharray="none" x="304.34522239999995" y="166" width="1" height="41"></rect><g class="vf-clef"><path stroke-width="0.3" fill="#000000" stroke="none" stroke-dasharray="none" d="M75 196.5M89.0544 153.3288C89.112 153.3,89.1696 153.3,89.256 153.3C89.6016 153.3,90.0048 153.588,90.5808 154.308C92.9136 156.9864,94.5552 161.652,94.5552 165.4536C94.5552 165.7416,94.4976 165.972,94.4976 166.26C94.2384 170.7816,92.3952 174.4968,88.7376 178.0104L87.7584 178.9608L87.4128 179.3352L87.4128 179.4504L87.6144 180.3144L87.9312 181.8696L88.248 183.3096C88.68 185.268,88.8528 186.276,88.8528 186.276C88.8528 186.276,88.8528 186.276,88.8528 186.276C88.8528 186.276,88.968 186.276,89.112 186.2472C89.256 186.2472,89.7168 186.1896,90.2064 186.1896C90.55199999999999 186.1896,90.8976 186.2472,91.0704 186.2472C95.1312 186.7656,98.2704 189.6744,99.1632 193.764C99.336 194.4264,99.39359999999999 195.1464,99.39359999999999 195.8664C99.39359999999999 199.7544,97.0608 203.4696,93.1728 205.2264C92.94239999999999 205.3704,92.856 205.3992,92.856 205.3992L92.856 205.428C92.856 205.428,93.0288 206.0904,93.1728 206.8392L93.6048 209.028L94.008 210.7848C94.2384 211.908,94.3536 212.7144,94.3536 213.4344C94.3536 214.06799999999998,94.2672 214.644,94.1232 215.3064C93.144 219.3096,89.6592 221.7,86.0304 221.7C84.2448 221.7,82.4016 221.124,80.7888 219.828C79.3488 218.6184,78.7152 217.524,78.7152 216.084C78.7152 213.5496,80.76 211.764,82.8912 211.764C83.64 211.764,84.3888 211.99439999999998,85.1088 212.4264C86.3184 213.2616,86.8656 214.5288,86.8656 215.7672C86.8656 217.668,85.5408 219.54,83.2656 219.684L83.0352 219.684L83.208 219.79919999999998C84.1584 220.2024,85.1088 220.404,86.0304 220.404C88.3632 220.404,90.55199999999999 219.2232,91.8768 217.1784C92.62559999999999 216.0264,93.0288 214.6728,93.0288 213.3192C93.0288 212.8008,92.94239999999999 212.2824,92.8272 211.7064C92.8272 211.6488,92.74080000000001 211.188,92.62559999999999 210.756C91.992 207.6456,91.6176 205.8312,91.6176 205.8312C91.6176 205.8312,91.6176 205.8312,91.6176 205.8312C91.56 205.8312,91.4448 205.8312,91.3584 205.8888C91.0704 205.9464,90.4656 206.0904,90.2064 206.1192C89.5728 206.2056,88.968 206.2344,88.392 206.2344C82.74719999999999 206.2344,77.5056 202.4328,75.6912 196.8168C75.2304 195.3192,74.9712 193.8216,74.9712 192.324C74.9712 189.3288,75.9216 186.3912,77.7648 183.7704C79.7808 180.9192,81.7968 178.4712,84.2736 175.9368L85.13759999999999 175.044L84.936 173.9784L84.5616 172.2216L84.072 169.9752C83.928 169.14,83.7552 168.3336,83.7264 168.1608C83.5824 167.2104,83.496 166.2888,83.496 165.3384C83.496 161.7096,84.6768 158.22480000000002,86.8944 155.4312C87.5568 154.5672,88.7376 153.4152,89.0544 153.3288M90.8112 159.0312C90.7536 159.0312,90.6672 159.0312,90.5808 159.0312C89.4 159.0312,87.8736 160.1256,86.8368 161.7384C85.7712 163.32240000000002,85.224 165.4248,85.224 167.5848C85.224 168.1608,85.25280000000001 168.7656,85.3392 169.3704C85.4256 169.8024,85.45439999999999 170.0904,85.6848 171.12720000000002L86.088 172.9416C86.2032 173.4888,86.28960000000001 173.92079999999999,86.28960000000001 173.9784L86.28960000000001 173.9784C86.3184 173.9784,87.2112 172.9992,87.4992 172.6536C90.3792 169.3992,92.1072 165.972,92.4816 162.948C92.5104 162.66,92.5104 162.4296,92.5104 162.1416C92.5104 161.24880000000002,92.3952 160.38479999999998,92.1936 159.924C91.9632 159.4632,91.4448 159.0888,90.8112 159.0312M86.4624 181.2936C86.4048 180.8904,86.3184 180.5736,86.3184 180.516C86.3184 180.516,86.3184 180.516,86.28960000000001 180.516C86.232 180.516,84.9936 181.956,84.1296 182.964C82.6608 184.7496,81.1056 186.8808,80.472 187.9176C79.2624 189.9624,78.6576 192.2376,78.6576 194.484C78.6576 195.9528,78.9456 197.364,79.464 198.7176C81.0192 202.7208,84.5904 205.2264,88.4784 205.2264C88.9392 205.2264,89.4576 205.1976,89.9472 205.1112C90.5808 204.996,91.3584 204.7656,91.3584 204.6792L91.3584 204.6792C91.3584 204.6792,91.3008 204.3912,91.2144 204.0744L90.3792 199.956L89.7168 196.8744L89.2848 194.7432L88.824 192.6696C88.5936 191.4312,88.5072 191.1144,88.5072 191.1144C88.5072 191.1144,88.5072 191.0856,88.4784 191.0856C88.3056 191.0856,87.384 191.5464,86.9808 191.8344C85.4832 192.8712,84.7056 194.5128,84.7056 196.1256C84.7056 197.652,85.45439999999999 199.1784,86.8944 200.0712C87.2112 200.2728,87.3264 200.4456,87.3264 200.6472C87.3264 200.676,87.3264 200.7624,87.3264 200.7912C87.2688 201.1368,87.0672 201.2808,86.7792 201.2808C86.664 201.2808,86.52 201.252,86.3472 201.1656C83.6976 200.0136,81.912 197.2776,81.912 194.2824L81.912 194.2824C81.912 190.8264,84.072 187.8312,87.384 186.6504L87.5568 186.5928L87.2688 185.1528L86.4624 181.2936M90.7824 190.9128C90.55199999999999 190.88400000000001,90.3216 190.88400000000001,90.1488 190.88400000000001C90.0912 190.88400000000001,90.0048 190.88400000000001,89.9472 190.88400000000001L89.8032 190.88400000000001L89.9184 191.4024L90.5232 194.2248L90.8976 196.068L91.3008 197.8824L92.1072 201.8856L92.424 203.412C92.5392 203.8152,92.5968 204.1608,92.62559999999999 204.1608C92.62559999999999 204.1608,92.62559999999999 204.1608,92.62559999999999 204.1608C92.6544 204.1608,93.144 203.8728,93.4608 203.6424C94.9296 202.6056,96.024 200.9928,96.4272 199.3224C96.5712 198.7752,96.6288 198.1992,96.6288 197.652C96.6288 194.3112,94.152 191.2872,90.7824 190.9128"></path></g><path stroke-width="0.3" fill="#000000" stroke="none" stroke-dasharray="none" d="M116 186.5M121.0112 168.1544C121.04 168.1256,121.4432 168.1256,122.6816 168.1256C123.056 168.1256,123.4592 168.1256,123.9776 168.1256L126.8864 168.1256L126.9728 168.212C127.1168 168.29840000000002,127.2032 168.4424,127.2032 168.5576C127.2032 168.7304,127.1168 168.8456,127.0016 168.9608C126.9728 169.0472,126.7136 169.2776,126.5408 169.5368L125.0144 171.2936L123.056 173.5112L122.0192 174.692L120.464 176.4776L118.4192 178.8104C118.0736 179.2424,117.6992 179.588,117.6992 179.588C117.6992 179.588,117.6992 179.588,117.6992 179.588C117.6992 179.6456,117.9584 179.6456,120.3488 179.6456L122.9696 179.6456L122.9696 177.7736C122.9696 175.8728,122.9696 175.844,122.9984 175.8152C123.056 175.7288,123.3152 175.412,124.3232 174.2312L124.7264 173.7992L125.1296 173.3672L125.7344 172.5896L126.368 171.9272L126.6848 171.524C126.8 171.3512,126.9728 171.3224,127.1168 171.3224C127.28960000000001 171.3224,127.4336 171.4088,127.52 171.5528C127.5488 171.6392,127.5488 171.6968,127.5488 173.828C127.5488 174.3176,127.5488 174.9224,127.5488 175.6424L127.5488 179.6456L128.2688 179.6456C128.9312 179.6456,128.96 179.6456,129.0464 179.6744C129.2768 179.7608,129.392 179.9912,129.392 180.2504C129.392 180.3944,129.3632 180.5672,129.248 180.6824C129.0752 180.8264,129.0464 180.8264,128.2688 180.8264L127.5488 180.8264L127.5488 181.316C127.5776 182.7848,127.8656 183.3608,128.9888 183.9656C129.392 184.1672,129.4784 184.2248,129.4784 184.5128C129.4784 184.7144,129.42079999999999 184.8008,129.2768 184.916L129.1904 184.9448L125.2448 184.9448L121.328 184.9448L121.2416 184.916C121.0688 184.8008,121.04 184.7144,121.04 184.5128C121.04 184.2248,121.0688 184.1672,121.5008 183.9656C122.624 183.3608,122.912 182.7848,122.912 181.316L122.912 180.8264L119.6 180.8264C118.9952 180.88400000000001,118.5056 180.88400000000001,118.1024 180.88400000000001C116.288 180.88400000000001,116.2592 180.8264,116.2304 180.8264C116.0576 180.7688,116 180.596,116 180.3944C116 180.3944,116 180.3944,116 180.3944C116 180.1928,116 180.1928,116.576 179.5304C118.9952 176.5928,120.6944 172.3304,120.6944 168.93200000000002C120.6944 168.4136,120.7808 168.2408,121.0112 168.1544M122.7392 186.5288L122.768 186.5288L122.6816 186.5288L122.7392 186.5288M122.7392 167.1176L122.768 167.1176L122.6816 167.1176L122.7392 167.1176"></path><path stroke-width="0.3" fill="#000000" stroke="none" stroke-dasharray="none" d="M116 206.5M121.0112 188.1544C121.04 188.1256,121.4432 188.1256,122.6816 188.1256C123.056 188.1256,123.4592 188.1256,123.9776 188.1256L126.8864 188.1256L126.9728 188.212C127.1168 188.29840000000002,127.2032 188.4424,127.2032 188.5576C127.2032 188.7304,127.1168 188.8456,127.0016 188.9608C126.9728 189.0472,126.7136 189.2776,126.5408 189.5368L125.0144 191.2936L123.056 193.5112L122.0192 194.692L120.464 196.4776L118.4192 198.8104C118.0736 199.2424,117.6992 199.588,117.6992 199.588C117.6992 199.588,117.6992 199.588,117.6992 199.588C117.6992 199.6456,117.9584 199.6456,120.3488 199.6456L122.9696 199.6456L122.9696 197.7736C122.9696 195.8728,122.9696 195.844,122.9984 195.8152C123.056 195.7288,123.3152 195.412,124.3232 194.2312L124.7264 193.7992L125.1296 193.3672L125.7344 192.5896L126.368 191.9272L126.6848 191.524C126.8 191.3512,126.9728 191.3224,127.1168 191.3224C127.28960000000001 191.3224,127.4336 191.4088,127.52 191.5528C127.5488 191.6392,127.5488 191.6968,127.5488 193.828C127.5488 194.3176,127.5488 194.9224,127.5488 195.6424L127.5488 199.6456L128.2688 199.6456C128.9312 199.6456,128.96 199.6456,129.0464 199.6744C129.2768 199.7608,129.392 199.9912,129.392 200.2504C129.392 200.3944,129.3632 200.5672,129.248 200.6824C129.0752 200.8264,129.0464 200.8264,128.2688 200.8264L127.5488 200.8264L127.5488 201.316C127.5776 202.7848,127.8656 203.3608,128.9888 203.9656C129.392 204.1672,129.4784 204.2248,129.4784 204.5128C129.4784 204.7144,129.42079999999999 204.8008,129.2768 204.916L129.1904 204.9448L125.2448 204.9448L121.328 204.9448L121.2416 204.916C121.0688 204.8008,121.04 204.7144,121.04 204.5128C121.04 204.2248,121.0688 204.1672,121.5008 203.9656C122.624 203.3608,122.912 202.7848,122.912 201.316L122.912 200.8264L119.6 200.8264C118.9952 200.88400000000001,118.5056 200.88400000000001,118.1024 200.88400000000001C116.288 200.88400000000001,116.2592 200.8264,116.2304 200.8264C116.0576 200.7688,116 200.596,116 200.3944C116 200.3944,116 200.3944,116 200.3944C116 200.1928,116 200.1928,116.576 199.5304C118.9952 196.5928,120.6944 192.3304,120.6944 188.93200000000002C120.6944 188.4136,120.7808 188.2408,121.0112 188.1544M122.7392 206.5288L122.768 206.5288L122.6816 206.5288L122.7392 206.5288M122.7392 187.1176L122.768 187.1176L122.6816 187.1176L122.7392 187.1176"></path><path stroke-width="1" fill="none" stroke="#000000" stroke-dasharray="none" d="M138.4784 216.5L156.49663999999999 216.5"></path><g class="vf-stavenote" id="vf-auto2272402"><g class="vf-note" pointer-events="bounding-box"><g class="vf-stem" pointer-events="bounding-box"><path stroke-width="1.5" fill="none" stroke="#000000" stroke-dasharray="none" class="vf-stem" id="vf-auto2272402-stem" d="M152.74663999999999 216.5L152.74663999999999 181.5"></path></g><g class="vf-notehead" pointer-events="bounding-box"><path stroke-width="0.3" fill="#000000" stroke="none" stroke-dasharray="none" d="M141.4784 216.5M148.83535999999998 211.27712C148.94768 211.27712,149.11615999999998 211.27712,149.14424 211.27712C149.14424 211.27712,149.17231999999998 211.27712,149.17231999999998 211.27712C149.17231999999998 211.27712,149.3408 211.27712,149.4812 211.27712C152.0084 211.41752,153.49663999999999 213.07424,153.49663999999999 215.15216C153.49663999999999 216.16304,153.15967999999998 217.31432,152.31727999999998 218.40944C150.71671999999998 220.5716,148.10528 221.75096,145.83079999999998 221.75096C144.06176 221.75096,142.54543999999999 221.04896,141.81536 219.61688C141.59072 219.05528,141.4784 218.52176,141.4784 217.93208C141.4784 214.87136,144.90416 211.47368,148.83535999999998 211.27712"></path></g></g><g class="vf-modifiers"></g></g><g class="vf-stavenote" id="vf-auto2272410"><g class="vf-note" pointer-events="bounding-box"><g class="vf-stem" pointer-events="bounding-box"><path stroke-width="1.5" fill="none" stroke="#000000" stroke-dasharray="none" class="vf-stem" id="vf-auto2272410-stem" d="M193.87704 196.5L193.87704 161.5"></path></g><g class="vf-notehead" pointer-events="bounding-box"><path stroke-width="0.3" fill="#000000" stroke="none" stroke-dasharray="none" d="M182.6088 196.5M189.96576 191.27712C190.07808 191.27712,190.24656 191.27712,190.27464 191.27712C190.27464 191.27712,190.30272 191.27712,190.30272 191.27712C190.30272 191.27712,190.4712 191.27712,190.6116 191.27712C193.1388 191.41752,194.62704 193.07424,194.62704 195.15216C194.62704 196.16304,194.29008 197.31432,193.44768 198.40944C191.84712 200.5716,189.23568 201.75096,186.9612 201.75096C185.19216 201.75096,183.67584 201.04896,182.94576 199.61688C182.72112 199.05528,182.6088 198.52176,182.6088 197.93208C182.6088 194.87136,186.03456 191.47368,189.96576 191.27712"></path></g></g><g class="vf-modifiers"></g></g><g class="vf-stavenote" id="vf-auto2272418"><g class="vf-note" pointer-events="bounding-box"><g class="vf-stem" pointer-events="bounding-box"><path stroke-width="1.5" fill="none" stroke="#000000" stroke-dasharray="none" class="vf-stem" id="vf-auto2272418-stem" d="M224.48919999999998 181.5L224.48919999999998 216.5"></path></g><g class="vf-notehead" pointer-events="bounding-box"><path stroke-width="0.3" fill="#000000" stroke="none" stroke-dasharray="none" d="M223.73919999999998 181.5M231.09615999999997 176.27712C231.20847999999998 176.27712,231.37696 176.27712,231.40503999999999 176.27712C231.40503999999999 176.27712,231.43311999999997 176.27712,231.43311999999997 176.27712C231.43311999999997 176.27712,231.6016 176.27712,231.742 176.27712C234.26919999999998 176.41752,235.75743999999997 178.07424,235.75743999999997 180.15216C235.75743999999997 181.16304,235.42048 182.31432,234.57807999999997 183.40944C232.97751999999997 185.5716,230.36607999999998 186.75096,228.09159999999997 186.75096C226.32255999999998 186.75096,224.80623999999997 186.04896,224.07616 184.61688C223.85152 184.05528,223.73919999999998 183.52176,223.73919999999998 182.93208C223.73919999999998 179.87136,227.16495999999998 176.47368,231.09615999999997 176.27712"></path></g></g><g class="vf-modifiers"></g></g><path stroke-width="1" fill="none" stroke="#000000" stroke-dasharray="none" d="M304.34522239999995 166.5L448.3120447999999 166.5"></path><path stroke-width="1" fill="none" stroke="#000000" stroke-dasharray="none" d="M304.34522239999995 176.5L448.3120447999999 176.5"></path><path stroke-width="1" fill="none" stroke="#000000" stroke-dasharray="none" d="M304.34522239999995 186.5L448.3120447999999 186.5"></path><path stroke-width="1" fill="none" stroke="#000000" stroke-dasharray="none" d="M304.34522239999995 196.5L448.3120447999999 196.5"></path><path stroke-width="1" fill="none" stroke="#000000" stroke-dasharray="none" d="M304.34522239999995 206.5L448.3120447999999 206.5"></path><rect stroke-width="0.3" fill="#000000" stroke="#000000" stroke-dasharray="none" x="448.3120447999999" y="166" width="1" height="41"></rect><g class="vf-stavenote" id="vf-auto2272439"><g class="vf-note" pointer-events="bounding-box"><g class="vf-stem" pointer-events="bounding-box"><path stroke-width="1.5" fill="none" stroke="#000000" stroke-dasharray="none" class="vf-stem" id="vf-auto2272439-stem" d="M354.09522239999995 166.5L354.09522239999995 201.5"></path></g><g class="vf-notehead" pointer-events="bounding-box"><path stroke-width="0.3" fill="#000000" stroke="none" stroke-dasharray="none" d="M353.34522239999995 166.5M360.70218239999997 161.27712C360.8145024 161.27712,360.98298239999997 161.27712,361.01106239999996 161.27712C361.01106239999996 161.27712,361.03914239999995 161.27712,361.03914239999995 161.27712C361.03914239999995 161.27712,361.20762239999993 161.27712,361.34802239999993 161.27712C363.8752224 161.41752,365.36346239999995 163.07424,365.36346239999995 165.15216C365.36346239999995 166.16304,365.02650239999997 167.31432,364.1841024 168.40944C362.58354239999994 170.5716,359.9721023999999 171.75096,357.69762239999994 171.75096C355.9285824 171.75096,354.4122624 171.04896,353.68218239999993 169.61688C353.45754239999997 169.05528,353.34522239999995 168.52176,353.34522239999995 167.93208C353.34522239999995 164.87136,356.7709824 161.47368,360.70218239999997 161.27712"></path></g></g><g class="vf-modifiers"></g></g><path stroke-width="1" fill="none" stroke="#000000" stroke-dasharray="none" d="M448.31204479999997 166.5L596.4788672 166.5"></path><path stroke-width="1" fill="none" stroke="#000000" stroke-dasharray="none" d="M448.31204479999997 176.5L596.4788672 176.5"></path><path stroke-width="1" fill="none" stroke="#000000" stroke-dasharray="none" d="M448.31204479999997 186.5L596.4788672 186.5"></path><path stroke-width="1" fill="none" stroke="#000000" stroke-dasharray="none" d="M448.31204479999997 196.5L596.4788672 196.5"></path><path stroke-width="1" fill="none" stroke="#000000" stroke-dasharray="none" d="M448.31204479999997 206.5L596.4788672 206.5"></path><rect stroke-width="0.3" fill="#000000" stroke="#000000" stroke-dasharray="none" x="596.4788672" y="166" width="1" height="41"></rect><g class="vf-stavenote" id="vf-auto2272476"><g class="vf-note" pointer-events="bounding-box"><g class="vf-stem" pointer-events="bounding-box"><path stroke-width="1.5" fill="none" stroke="#000000" stroke-dasharray="none" class="vf-stem" id="vf-auto2272476-stem" d="M509.83028479999996 206.5L509.83028479999996 171.5"></path></g><g class="vf-notehead" pointer-events="bounding-box"><path stroke-width="0.3" fill="#000000" stroke="none" stroke-dasharray="none" d="M498.56204479999997 206.5M505.9190048 201.27712C506.0313248 201.27712,506.1998048 201.27712,506.22788479999997 201.27712C506.22788479999997 201.27712,506.25596479999996 201.27712,506.25596479999996 201.27712C506.25596479999996 201.27712,506.42444479999995 201.27712,506.56484479999995 201.27712C509.09204479999994 201.41752,510.58028479999996 203.07424,510.58028479999996 205.15216C510.58028479999996 206.16304,510.2433248 207.31432,509.4009248 208.40944C507.80036479999995 210.5716,505.1889248 211.75096,502.91444479999996 211.75096C501.1454048 211.75096,499.6290848 211.04896,498.89900479999994 209.61688C498.6743648 209.05528,498.56204479999997 208.52176,498.56204479999997 207.93208C498.56204479999997 204.87136,501.9878048 201.47368,505.9190048 201.27712"></path></g></g><g class="vf-modifiers"></g></g><g class="vf-stavenote" id="vf-auto2272484"><g class="vf-note" pointer-events="bounding-box"><g class="vf-stem" pointer-events="bounding-box"><path stroke-width="1.5" fill="none" stroke="#000000" stroke-dasharray="none" class="vf-stem" id="vf-auto2272484-stem" d="M576.3302848 211.5L576.3302848 176.5"></path></g><g class="vf-notehead" pointer-events="bounding-box"><path stroke-width="0.3" fill="#000000" stroke="none" stroke-dasharray="none" d="M565.0620448 211.5M572.4190047999999 206.27712C572.5313248 206.27712,572.6998047999999 206.27712,572.7278848 206.27712C572.7278848 206.27712,572.7559648 206.27712,572.7559648 206.27712C572.7559648 206.27712,572.9244448 206.27712,573.0648448 206.27712C575.5920447999999 206.41752,577.0802848 208.07424,577.0802848 210.15216C577.0802848 211.16304,576.7433248 212.31432,575.9009248 213.40944C574.3003648 215.5716,571.6889248 216.75096,569.4144448 216.75096C567.6454047999999 216.75096,566.1290848 216.04896,565.3990048 214.61688C565.1743647999999 214.05528,565.0620448 213.52176,565.0620448 212.93208C565.0620448 209.87136,568.4878047999999 206.47368,572.4190047999999 206.27712"></path></g></g><g class="vf-modifiers"></g></g><path stroke-width="1" fill="none" stroke="#000000" stroke-dasharray="none" d="M596.4788671999999 166.5L754.6456895999997 166.5"></path><path stroke-width="1" fill="none" stroke="#000000" stroke-dasharray="none" d="M596.4788671999999 176.5L754.6456895999997 176.5"></path><path stroke-width="1" fill="none" stroke="#000000" stroke-dasharray="none" d="M596.4788671999999 186.5L754.6456895999997 186.5"></path><path stroke-width="1" fill="none" stroke="#000000" stroke-dasharray="none" d="M596.4788671999999 196.5L754.6456895999997 196.5"></path><path stroke-width="1" fill="none" stroke="#000000" stroke-dasharray="none" d="M596.4788671999999 206.5L754.6456895999997 206.5"></path><rect stroke-width="0.3" fill="#000000" stroke="#000000" stroke-dasharray="none" x="749.6456895999997" y="166" width="1" height="41"></rect><rect stroke-width="0.3" fill="#000000" stroke="#000000" stroke-dasharray="none" x="752.6456895999997" y="166" width="3" height="41"></rect><path stroke-width="0.3" fill="#000000" stroke="none" stroke-dasharray="none" d="M748.6456895999997 182 A2 2 0 0 0 744.6456895999997 182M744.6456895999997 182 A2 2 0 0 0 748.6456895999997 182"></path><path stroke-width="0.3" fill="#000000" stroke="none" stroke-dasharray="none" d="M748.6456895999997 192 A2 2 0 0 0 744.6456895999997 192M744.6456895999997 192 A2 2 0 0 0 748.6456895999997 192"></path><g class="vf-stavenote" id="vf-auto2272514"><g class="vf-note" pointer-events="bounding-box"><g class="vf-stem" pointer-events="bounding-box"><path stroke-width="1.5" fill="none" stroke="#000000" stroke-dasharray="none" class="vf-stem" id="vf-auto2272514-stem" d="M660.4971071999998 201.5L660.4971071999998 166.5"></path></g><g class="vf-notehead" pointer-events="bounding-box"><path stroke-width="0.3" fill="#000000" stroke="none" stroke-dasharray="none" d="M649.2288671999999 201.5M656.5858271999998 196.27712C656.6981471999999 196.27712,656.8666271999998 196.27712,656.8947071999999 196.27712C656.8947071999999 196.27712,656.9227871999999 196.27712,656.9227871999999 196.27712C656.9227871999999 196.27712,657.0912671999998 196.27712,657.2316671999998 196.27712C659.7588671999998 196.41752,661.2471071999998 198.07424,661.2471071999998 200.15216C661.2471071999998 201.16304,660.9101471999999 202.31432,660.0677471999999 203.40944C658.4671871999999 205.5716,655.8557471999999 206.75096,653.5812671999998 206.75096C651.8122271999998 206.75096,650.2959071999999 206.04896,649.5658271999998 204.61688C649.3411871999998 204.05528,649.2288671999999 203.52176,649.2288671999999 202.93208C649.2288671999999 199.87136,652.6546271999998 196.47368,656.5858271999998 196.27712"></path></g></g><g class="vf-modifiers"></g></g><g class="vf-stavenote" id="vf-auto2272522"><g class="vf-note" pointer-events="bounding-box"><g class="vf-stem" pointer-events="bounding-box"><path stroke-width="1.5" fill="none" stroke="#000000" stroke-dasharray="none" class="vf-stem" id="vf-auto2272522-stem" d="M696.2471071999998 201.5L696.2471071999998 166.5"></path></g><g class="vf-notehead" pointer-events="bounding-box"><path stroke-width="0.3" fill="#000000" stroke="none" stroke-dasharray="none" d="M684.9788671999999 201.5M692.3358271999998 196.27712C692.4481471999999 196.27712,692.6166271999998 196.27712,692.6447071999999 196.27712C692.6447071999999 196.27712,692.6727871999999 196.27712,692.6727871999999 196.27712C692.6727871999999 196.27712,692.8412671999998 196.27712,692.9816671999998 196.27712C695.5088671999998 196.41752,696.9971071999998 198.07424,696.9971071999998 200.15216C696.9971071999998 201.16304,696.6601471999999 202.31432,695.8177471999999 203.40944C694.2171871999999 205.5716,691.6057471999999 206.75096,689.3312671999998 206.75096C687.5622271999998 206.75096,686.0459071999999 206.04896,685.3158271999998 204.61688C685.0911871999998 204.05528,684.9788671999999 203.52176,684.9788671999999 202.93208C684.9788671999999 199.87136,688.4046271999998 196.47368,692.3358271999998 196.27712"></path></g></g><g class="vf-modifiers"></g></g><g class="vf-text"><text stroke-width="0.3" fill="#000000" stroke="none" stroke-dasharray="none" font-family="Times New Roman" font-size="23px" font-weight="bold" font-style="italic" x="141.48752" y="244.29999999999998">p</text></g><path stroke-width="1" fill="none" stroke="#000000" stroke-dasharray="none" d="M70 259.09999999999997L304.34522239999995 259.09999999999997"></path><path stroke-width="1" fill="none" stroke="#000000" stroke-dasharray="none" d="M70 269.09999999999997L304.34522239999995 269.09999999999997"></path><path stroke-width="1" fill="none" stroke="#000000" stroke-dasharray="none" d="M70 279.09999999999997L304.34522239999995 279.09999999999997"></path><path stroke-width="1" fill="none" stroke="#000000" stroke-dasharray="none" d="M70 289.09999999999997L304.34522239999995 289.09999999999997"></path><path stroke-width="1" fill="none" stroke="#000000" stroke-dasharray="none" d="M70 299.09999999999997L304.34522239999995 299.09999999999997"></path><rect stroke-width="0.3" fill="#000000" stroke="#000000" stroke-dasharray="none" x="304.34522239999995" y="258.59999999999997" width="1" height="41"></rect><g class="vf-clef"><path stroke-width="0.3" fill="#000000" stroke="none" stroke-dasharray="none" d="M75 269.09999999999997M83.8416 259.04879999999997C84.072 258.9912,84.3024 258.9912,84.5616 258.9912C85.5696 258.9912,86.7504 259.10639999999995,87.7584 259.308C92.4816 260.2872,95.736 263.484,96.3408 267.7464C96.3984 268.20719999999994,96.4272 268.63919999999996,96.4272 269.09999999999997C96.4272 271.69199999999995,95.5344 275.03279999999995,94.008 277.8264C90.3792 284.39279999999997,83.7552 289.116,75.8064 290.84399999999994C75.6624 290.84399999999994,75.5472 290.8728,75.4032 290.8728C75.1152 290.8728,74.9712 290.7,74.9712 290.44079999999997C74.9712 290.15279999999996,75.0288 290.0664,75.6048 289.83599999999996C84.7056 286.4088,90.7824 279.00719999999995,91.3296 270.71279999999996C91.3584 270.28079999999994,91.3584 269.79119999999995,91.3584 269.41679999999997C91.3584 265.3848,90.12 262.3896,87.7296 260.89199999999994C86.6928 260.22959999999995,85.5696 259.91279999999995,84.36 259.91279999999995C81.6816 259.91279999999995,78.9456 261.43919999999997,77.6784 264.00239999999997C77.6208 264.20399999999995,77.4192 264.63599999999997,77.4192 264.66479999999996C77.4192 264.66479999999996,77.4192 264.66479999999996,77.4192 264.66479999999996C77.4192 264.66479999999996,77.448 264.63599999999997,77.5344 264.6072C78.168 264.20399999999995,78.8592 264.00239999999997,79.5792 264.00239999999997C80.5872 264.00239999999997,81.6528 264.4344,82.4016 265.2408C83.0928 265.98959999999994,83.4672 266.9976,83.4672 267.9192C83.4672 269.79119999999995,82.0848 271.69199999999995,79.9248 271.8936C79.7808 271.8936,79.6368 271.9224,79.4928 271.9224C77.1024 271.9224,75.1728 269.73359999999997,75.1728 266.9688C75.1728 266.91119999999995,75.1728 266.8248,75.1728 266.796C75.288 262.6776,79.0608 259.308,83.8416 259.04879999999997M99.1632 262.90799999999996C99.2208 262.87919999999997,99.2496 262.87919999999997,99.336 262.87919999999997C99.5376 262.87919999999997,99.768 262.90799999999996,99.8256 262.9656C100.54560000000001 263.1672,100.8912 263.8008,100.8912 264.4056C100.8912 264.924,100.632 265.44239999999996,100.11359999999999 265.7304C99.912 265.8744,99.6528 265.90319999999997,99.39359999999999 265.90319999999997C98.9904 265.90319999999997,98.5584 265.7304,98.2704 265.356C98.03999999999999 265.068,97.9248 264.7512,97.9248 264.4344C97.9248 263.71439999999996,98.3856 262.9944,99.1632 262.90799999999996M99.1632 272.32559999999995C99.2208 272.32559999999995,99.2496 272.32559999999995,99.336 272.32559999999995C99.5376 272.32559999999995,99.768 272.35439999999994,99.8256 272.412C100.54560000000001 272.61359999999996,100.8912 273.24719999999996,100.8912 273.852C100.8912 274.37039999999996,100.632 274.88879999999995,100.11359999999999 275.14799999999997C99.912 275.292,99.6528 275.34959999999995,99.39359999999999 275.34959999999995C98.9904 275.34959999999995,98.5584 275.14799999999997,98.2704 274.8024C98.03999999999999 274.51439999999997,97.9248 274.19759999999997,97.9248 273.852C97.9248 273.13199999999995,98.3856 272.44079999999997,99.1632 272.32559999999995"></path></g><path stroke-width="0.3" fill="#000000" stroke="none" stroke-dasharray="none" d="M116 279.09999999999997M121.0112 260.7544C121.04 260.7256,121.4432 260.7256,122.6816 260.7256C123.056 260.7256,123.4592 260.7256,123.9776 260.7256L126.8864 260.7256L126.9728 260.81199999999995C127.1168 260.8984,127.2032 261.0424,127.2032 261.15759999999995C127.2032 261.33039999999994,127.1168 261.44559999999996,127.0016 261.5608C126.9728 261.64719999999994,126.7136 261.8776,126.5408 262.1368L125.0144 263.8936L123.056 266.11119999999994L122.0192 267.292L120.464 269.07759999999996L118.4192 271.4104C118.0736 271.84239999999994,117.6992 272.188,117.6992 272.188C117.6992 272.188,117.6992 272.188,117.6992 272.188C117.6992 272.24559999999997,117.9584 272.24559999999997,120.3488 272.24559999999997L122.9696 272.24559999999997L122.9696 270.37359999999995C122.9696 268.47279999999995,122.9696 268.44399999999996,122.9984 268.41519999999997C123.056 268.32879999999994,123.3152 268.01199999999994,124.3232 266.83119999999997L124.7264 266.39919999999995L125.1296 265.9672L125.7344 265.1896L126.368 264.5272L126.6848 264.12399999999997C126.8 263.9512,126.9728 263.9224,127.1168 263.9224C127.28960000000001 263.9224,127.4336 264.00879999999995,127.52 264.15279999999996C127.5488 264.2392,127.5488 264.29679999999996,127.5488 266.42799999999994C127.5488 266.9176,127.5488 267.52239999999995,127.5488 268.2424L127.5488 272.24559999999997L128.2688 272.24559999999997C128.9312 272.24559999999997,128.96 272.24559999999997,129.0464 272.27439999999996C129.2768 272.3608,129.392 272.59119999999996,129.392 272.8504C129.392 272.9944,129.3632 273.1672,129.248 273.28239999999994C129.0752 273.42639999999994,129.0464 273.42639999999994,128.2688 273.42639999999994L127.5488 273.42639999999994L127.5488 273.91599999999994C127.5776 275.3848,127.8656 275.96079999999995,128.9888 276.56559999999996C129.392 276.76719999999995,129.4784 276.8248,129.4784 277.1128C129.4784 277.3144,129.42079999999999 277.40079999999995,129.2768 277.51599999999996L129.1904 277.54479999999995L125.2448 277.54479999999995L121.328 277.54479999999995L121.2416 277.51599999999996C121.0688 277.40079999999995,121.04 277.3144,121.04 277.1128C121.04 276.8248,121.0688 276.76719999999995,121.5008 276.56559999999996C122.624 275.96079999999995,122.912 275.3848,122.912 273.91599999999994L122.912 273.42639999999994L119.6 273.42639999999994C118.9952 273.484,118.5056 273.484,118.1024 273.484C116.288 273.484,116.2592 273.42639999999994,116.2304 273.42639999999994C116.0576 273.36879999999996,116 273.19599999999997,116 272.9944C116 272.9944,116 272.9944,116 272.9944C116 272.79279999999994,116 272.79279999999994,116.576 272.13039999999995C118.9952 269.1928,120.6944 264.93039999999996,120.6944 261.532C120.6944 261.01359999999994,120.7808 260.84079999999994,121.0112 260.7544M122.7392 279.12879999999996L122.768 279.12879999999996L122.6816 279.12879999999996L122.7392 279.12879999999996M122.7392 259.71759999999995L122.768 259.71759999999995L122.6816 259.71759999999995L122.7392 259.71759999999995"></path><path stroke-width="0.3" fill="#000000" stroke="none" stroke-dasharray="none" d="M116 299.09999999999997M121.0112 280.7544C121.04 280.7256,121.4432 280.7256,122.6816 280.7256C123.056 280.7256,123.4592 280.7256,123.9776 280.7256L126.8864 280.7256L126.9728 280.81199999999995C127.1168 280.8984,127.2032 281.0424,127.2032 281.15759999999995C127.2032 281.33039999999994,127.1168 281.44559999999996,127.0016 281.5608C126.9728 281.64719999999994,126.7136 281.8776,126.5408 282.1368L125.0144 283.8936L123.056 286.11119999999994L122.0192 287.292L120.464 289.07759999999996L118.4192 291.4104C118.0736 291.84239999999994,117.6992 292.188,117.6992 292.188C117.6992 292.188,117.6992 292.188,117.6992 292.188C117.6992 292.24559999999997,117.9584 292.24559999999997,120.3488 292.24559999999997L122.9696 292.24559999999997L122.9696 290.37359999999995C122.9696 288.47279999999995,122.9696 288.44399999999996,122.9984 288.41519999999997C123.056 288.32879999999994,123.3152 288.01199999999994,124.3232 286.83119999999997L124.7264 286.39919999999995L125.1296 285.9672L125.7344 285.1896L126.368 284.5272L126.6848 284.12399999999997C126.8 283.9512,126.9728 283.9224,127.1168 283.9224C127.28960000000001 283.9224,127.4336 284.00879999999995,127.52 284.15279999999996C127.5488 284.2392,127.5488 284.29679999999996,127.5488 286.42799999999994C127.5488 286.9176,127.5488 287.52239999999995,127.5488 288.2424L127.5488 292.24559999999997L128.2688 292.24559999999997C128.9312 292.24559999999997,128.96 292.24559999999997,129.0464 292.27439999999996C129.2768 292.3608,129.392 292.59119999999996,129.392 292.8504C129.392 292.9944,129.3632 293.1672,129.248 293.28239999999994C129.0752 293.42639999999994,129.0464 293.42639999999994,128.2688 293.42639999999994L127.5488 293.42639999999994L127.5488 293.91599999999994C127.5776 295.3848,127.8656 295.96079999999995,128.9888 296.56559999999996C129.392 296.76719999999995,129.4784 296.8248,129.4784 297.1128C129.4784 297.3144,129.42079999999999 297.40079999999995,129.2768 297.51599999999996L129.1904 297.54479999999995L125.2448 297.54479999999995L121.328 297.54479999999995L121.2416 297.51599999999996C121.0688 297.40079999999995,121.04 297.3144,121.04 297.1128C121.04 296.8248,121.0688 296.76719999999995,121.5008 296.56559999999996C122.624 295.96079999999995,122.912 295.3848,122.912 293.91599999999994L122.912 293.42639999999994L119.6 293.42639999999994C118.9952 293.484,118.5056 293.484,118.1024 293.484C116.288 293.484,116.2592 293.42639999999994,116.2304 293.42639999999994C116.0576 293.36879999999996,116 293.19599999999997,116 292.9944C116 292.9944,116 292.9944,116 292.9944C116 292.79279999999994,116 292.79279999999994,116.576 292.13039999999995C118.9952 289.1928,120.6944 284.93039999999996,120.6944 281.532C120.6944 281.01359999999994,120.7808 280.84079999999994,121.0112 280.7544M122.7392 299.12879999999996L122.768 299.12879999999996L122.6816 299.12879999999996L122.7392 299.12879999999996M122.7392 279.71759999999995L122.768 279.71759999999995L122.6816 279.71759999999995L122.7392 279.71759999999995"></path><g class="vf-stavenote" id="vf-auto2272428"><g class="vf-note" pointer-events="bounding-box"><g class="vf-stem" pointer-events="bounding-box"><path stroke-width="1.5" fill="none" stroke="#000000" stroke-dasharray="none" class="vf-stem" id="vf-auto2272428-stem" d="M276.13784 279.09999999999997L276.13784 244.09999999999997"></path></g><g class="vf-notehead" pointer-events="bounding-box"><path stroke-width="0.3" fill="#000000" stroke="none" stroke-dasharray="none" d="M264.8696 279.09999999999997M272.22656 273.87712C272.33888 273.87712,272.50736 273.87712,272.53544 273.87712C272.53544 273.87712,272.56352 273.87712,272.56352 273.87712C272.56352 273.87712,272.73199999999997 273.87712,272.87239999999997 273.87712C275.39959999999996 274.01752,276.88784 275.67423999999994,276.88784 277.75215999999995C276.88784 278.76304,276.55088 279.91432,275.70848 281.00944C274.10792 283.17159999999996,271.49648 284.35096,269.222 284.35096C267.45296 284.35096,265.93664 283.64896,265.20655999999997 282.21687999999995C264.98192 281.65527999999995,264.8696 281.12175999999994,264.8696 280.53207999999995C264.8696 277.47135999999995,268.29536 274.07367999999997,272.22656 273.87712"></path></g></g><g class="vf-modifiers"></g></g><rect stroke-width="0.3" fill="#000000" stroke="#000000" stroke-dasharray="none" x="304.34522239999995" y="166.5" width="1" height="133.59999999999997"></rect><rect stroke-width="0.3" fill="#000000" stroke="#000000" stroke-dasharray="none" x="70" y="166.5" width="1" height="133.59999999999997"></rect><path stroke-width="1" fill="none" stroke="#000000" stroke-dasharray="none" d="M304.34522239999995 259.09999999999997L448.3120447999999 259.09999999999997"></path><path stroke-width="1" fill="none" stroke="#000000" stroke-dasharray="none" d="M304.34522239999995 269.09999999999997L448.3120447999999 269.09999999999997"></path><path stroke-width="1" fill="none" stroke="#000000" stroke-dasharray="none" d="M304.34522239999995 279.09999999999997L448.3120447999999 279.09999999999997"></path><path stroke-width="1" fill="none" stroke="#000000" stroke-dasharray="none" d="M304.34522239999995 289.09999999999997L448.3120447999999 289.09999999999997"></path><path stroke-width="1" fill="none" stroke="#000000" stroke-dasharray="none" d="M304.34522239999995 299.09999999999997L448.3120447999999 299.09999999999997"></path><rect stroke-width="0.3" fill="#000000" stroke="#000000" stroke-dasharray="none" x="448.3120447999999" y="258.59999999999997" width="1" height="41"></rect><g class="vf-stavenote" id="vf-auto2272450"><g class="vf-note" pointer-events="bounding-box"><g class="vf-stem" pointer-events="bounding-box"><path stroke-width="1.5" fill="none" stroke="#000000" stroke-dasharray="none" class="vf-stem" id="vf-auto2272450-stem" d="M332.61346239999995 299.09999999999997L332.61346239999995 264.09999999999997"></path></g><g class="vf-notehead" pointer-events="bounding-box"><path stroke-width="0.3" fill="#000000" stroke="none" stroke-dasharray="none" d="M321.34522239999995 299.09999999999997M328.70218239999997 293.87712C328.8145024 293.87712,328.98298239999997 293.87712,329.01106239999996 293.87712C329.01106239999996 293.87712,329.03914239999995 293.87712,329.03914239999995 293.87712C329.03914239999995 293.87712,329.20762239999993 293.87712,329.34802239999993 293.87712C331.8752224 294.01752,333.36346239999995 295.67423999999994,333.36346239999995 297.75215999999995C333.36346239999995 298.76304,333.02650239999997 299.91432,332.1841024 301.00944C330.58354239999994 303.17159999999996,327.9721023999999 304.35096,325.69762239999994 304.35096C323.9285824 304.35096,322.4122624 303.64896,321.68218239999993 302.21687999999995C321.45754239999997 301.65527999999995,321.34522239999995 301.12175999999994,321.34522239999995 300.53207999999995C321.34522239999995 297.47135999999995,324.7709824 294.07367999999997,328.70218239999997 293.87712"></path></g></g><g class="vf-modifiers"></g></g><g class="vf-stavenote" id="vf-auto2272458"><g class="vf-note" pointer-events="bounding-box"><g class="vf-stem" pointer-events="bounding-box"><path stroke-width="1.5" fill="none" stroke="#000000" stroke-dasharray="none" class="vf-stem" id="vf-auto2272458-stem" d="M386.09522239999995 274.09999999999997L386.09522239999995 309.09999999999997"></path></g><g class="vf-notehead" pointer-events="bounding-box"><path stroke-width="0.3" fill="#000000" stroke="none" stroke-dasharray="none" d="M385.34522239999995 274.09999999999997M392.70218239999997 268.87712C392.8145024 268.87712,392.98298239999997 268.87712,393.01106239999996 268.87712C393.01106239999996 268.87712,393.03914239999995 268.87712,393.03914239999995 268.87712C393.03914239999995 268.87712,393.20762239999993 268.87712,393.34802239999993 268.87712C395.8752224 269.01752,397.36346239999995 270.67423999999994,397.36346239999995 272.75215999999995C397.36346239999995 273.76304,397.02650239999997 274.91432,396.1841024 276.00944C394.58354239999994 278.17159999999996,391.9721023999999 279.35096,389.69762239999994 279.35096C387.9285824 279.35096,386.4122624 278.64896,385.68218239999993 277.21687999999995C385.45754239999997 276.65527999999995,385.34522239999995 276.12175999999994,385.34522239999995 275.53207999999995C385.34522239999995 272.47135999999995,388.7709824 269.07367999999997,392.70218239999997 268.87712"></path></g></g><g class="vf-modifiers"></g></g><g class="vf-stavenote" id="vf-auto2272466"><g class="vf-note" pointer-events="bounding-box"><g class="vf-stem" pointer-events="bounding-box"><path stroke-width="1.5" fill="none" stroke="#000000" stroke-dasharray="none" class="vf-stem" id="vf-auto2272466-stem" d="M428.61346239999995 294.09999999999997L428.61346239999995 259.09999999999997"></path></g><g class="vf-notehead" pointer-events="bounding-box"><path stroke-width="0.3" fill="#000000" stroke="none" stroke-dasharray="none" d="M417.34522239999995 294.09999999999997M424.70218239999997 288.87712C424.8145024 288.87712,424.98298239999997 288.87712,425.01106239999996 288.87712C425.01106239999996 288.87712,425.03914239999995 288.87712,425.03914239999995 288.87712C425.03914239999995 288.87712,425.20762239999993 288.87712,425.34802239999993 288.87712C427.8752224 289.01752,429.36346239999995 290.67423999999994,429.36346239999995 292.75215999999995C429.36346239999995 293.76304,429.02650239999997 294.91432,428.1841024 296.00944C426.58354239999994 298.17159999999996,423.9721023999999 299.35096,421.69762239999994 299.35096C419.9285824 299.35096,418.4122624 298.64896,417.68218239999993 297.21687999999995C417.45754239999997 296.65527999999995,417.34522239999995 296.12175999999994,417.34522239999995 295.53207999999995C417.34522239999995 292.47135999999995,420.7709824 289.07367999999997,424.70218239999997 288.87712"></path></g></g><g class="vf-modifiers"></g></g><rect stroke-width="0.3" fill="#000000" stroke="#000000" stroke-dasharray="none" x="448.3120447999999" y="166.5" width="1" height="133.59999999999997"></rect><path stroke-width="1" fill="none" stroke="#000000" stroke-dasharray="none" d="M448.31204479999997 259.09999999999997L596.4788672 259.09999999999997"></path><path stroke-width="1" fill="none" stroke="#000000" stroke-dasharray="none" d="M448.31204479999997 269.09999999999997L596.4788672 269.09999999999997"></path><path stroke-width="1" fill="none" stroke="#000000" stroke-dasharray="none" d="M448.31204479999997 279.09999999999997L596.4788672 279.09999999999997"></path><path stroke-width="1" fill="none" stroke="#000000" stroke-dasharray="none" d="M448.31204479999997 289.09999999999997L596.4788672 289.09999999999997"></path><path stroke-width="1" fill="none" stroke="#000000" stroke-dasharray="none" d="M448.31204479999997 299.09999999999997L596.4788672 299.09999999999997"></path><rect stroke-width="0.3" fill="#000000" stroke="#000000" stroke-dasharray="none" x="596.4788672" y="258.59999999999997" width="1" height="41"></rect><g class="vf-stavenote" id="vf-auto2272495"><g class="vf-note" pointer-events="bounding-box"><g class="vf-stem" pointer-events="bounding-box"><path stroke-width="1.5" fill="none" stroke="#000000" stroke-dasharray="none" class="vf-stem" id="vf-auto2272495-stem" d="M476.58028479999996 299.09999999999997L476.58028479999996 264.09999999999997"></path></g><g class="vf-notehead" pointer-events="bounding-box"><path stroke-width="0.3" fill="#000000" stroke="none" stroke-dasharray="none" d="M465.31204479999997 299.09999999999997M472.6690048 293.87712C472.7813248 293.87712,472.9498048 293.87712,472.97788479999997 293.87712C472.97788479999997 293.87712,473.00596479999996 293.87712,473.00596479999996 293.87712C473.00596479999996 293.87712,473.17444479999995 293.87712,473.31484479999995 293.87712C475.84204479999994 294.01752,477.33028479999996 295.67423999999994,477.33028479999996 297.75215999999995C477.33028479999996 298.76304,476.9933248 299.91432,476.1509248 301.00944C474.55036479999995 303.17159999999996,471.9389248 304.35096,469.66444479999996 304.35096C467.8954048 304.35096,466.3790848 303.64896,465.64900479999994 302.21687999999995C465.4243648 301.65527999999995,465.31204479999997 301.12175999999994,465.31204479999997 300.53207999999995C465.31204479999997 297.47135999999995,468.7378048 294.07367999999997,472.6690048 293.87712"></path></g></g><g class="vf-modifiers"></g></g><g class="vf-stavenote" id="vf-auto2272503"><g class="vf-note" pointer-events="bounding-box"><g class="vf-stem" pointer-events="bounding-box"><path stroke-width="1.5" fill="none" stroke="#000000" stroke-dasharray="none" class="vf-stem" id="vf-auto2272503-stem" d="M532.5620448 274.09999999999997L532.5620448 309.09999999999997"></path></g><g class="vf-notehead" pointer-events="bounding-box"><path stroke-width="0.3" fill="#000000" stroke="none" stroke-dasharray="none" d="M531.8120448 274.09999999999997M539.1690047999999 268.87712C539.2813248 268.87712,539.4498047999999 268.87712,539.4778848 268.87712C539.4778848 268.87712,539.5059648 268.87712,539.5059648 268.87712C539.5059648 268.87712,539.6744448 268.87712,539.8148448 268.87712C542.3420447999999 269.01752,543.8302848 270.67423999999994,543.8302848 272.75215999999995C543.8302848 273.76304,543.4933248 274.91432,542.6509248 276.00944C541.0503648 278.17159999999996,538.4389248 279.35096,536.1644448 279.35096C534.3954047999999 279.35096,532.8790848 278.64896,532.1490048 277.21687999999995C531.9243647999999 276.65527999999995,531.8120448 276.12175999999994,531.8120448 275.53207999999995C531.8120448 272.47135999999995,535.2378047999999 269.07367999999997,539.1690047999999 268.87712"></path></g></g><g class="vf-modifiers"></g></g><rect stroke-width="0.3" fill="#000000" stroke="#000000" stroke-dasharray="none" x="596.4788672" y="166.5" width="1" height="133.59999999999997"></rect><path stroke-width="1" fill="none" stroke="#000000" stroke-dasharray="none" d="M596.4788671999999 259.09999999999997L754.6456895999997 259.09999999999997"></path><path stroke-width="1" fill="none" stroke="#000000" stroke-dasharray="none" d="M596.4788671999999 269.09999999999997L754.6456895999997 269.09999999999997"></path><path stroke-width="1" fill="none" stroke="#000000" stroke-dasharray="none" d="M596.4788671999999 279.09999999999997L754.6456895999997 279.09999999999997"></path><path stroke-width="1" fill="none" stroke="#000000" stroke-dasharray="none" d="M596.4788671999999 289.09999999999997L754.6456895999997 289.09999999999997"></path><path stroke-width="1" fill="none" stroke="#000000" stroke-dasharray="none" d="M596.4788671999999 299.09999999999997L754.6456895999997 299.09999999999997"></path><rect stroke-width="0.3" fill="#000000" stroke="#000000" stroke-dasharray="none" x="749.6456895999997" y="258.59999999999997" width="1" height="41"></rect><rect stroke-width="0.3" fill="#000000" stroke="#000000" stroke-dasharray="none" x="752.6456895999997" y="258.59999999999997" width="3" height="41"></rect><path stroke-width="0.3" fill="#000000" stroke="none" stroke-dasharray="none" d="M748.6456895999997 274.59999999999997 A2 2 0 0 0 744.6456895999997 274.59999999999997M744.6456895999997 274.59999999999997 A2 2 0 0 0 748.6456895999997 274.59999999999997"></path><path stroke-width="0.3" fill="#000000" stroke="none" stroke-dasharray="none" d="M748.6456895999997 284.59999999999997 A2 2 0 0 0 744.6456895999997 284.59999999999997M744.6456895999997 284.59999999999997 A2 2 0 0 0 748.6456895999997 284.59999999999997"></path><g class="vf-stavenote" id="vf-auto2272533"><g class="vf-note" pointer-events="bounding-box"><g class="vf-stem" pointer-events="bounding-box"><path stroke-width="1.5" fill="none" stroke="#000000" stroke-dasharray="none" class="vf-stem" id="vf-auto2272533-stem" d="M624.7471071999998 294.09999999999997L624.7471071999998 259.09999999999997"></path></g><g class="vf-notehead" pointer-events="bounding-box"><path stroke-width="0.3" fill="#000000" stroke="none" stroke-dasharray="none" d="M613.4788671999999 294.09999999999997M620.8358271999998 288.87712C620.9481471999999 288.87712,621.1166271999998 288.87712,621.1447071999999 288.87712C621.1447071999999 288.87712,621.1727871999999 288.87712,621.1727871999999 288.87712C621.1727871999999 288.87712,621.3412671999998 288.87712,621.4816671999998 288.87712C624.0088671999998 289.01752,625.4971071999998 290.67423999999994,625.4971071999998 292.75215999999995C625.4971071999998 293.76304,625.1601471999999 294.91432,624.3177471999999 296.00944C622.7171871999999 298.17159999999996,620.1057471999999 299.35096,617.8312671999998 299.35096C616.0622271999998 299.35096,614.5459071999999 298.64896,613.8158271999998 297.21687999999995C613.5911871999998 296.65527999999995,613.4788671999999 296.12175999999994,613.4788671999999 295.53207999999995C613.4788671999999 292.47135999999995,616.9046271999998 289.07367999999997,620.8358271999998 288.87712"></path></g></g><g class="vf-modifiers"></g></g><g class="vf-stavenote" id="vf-auto2272541"><g class="vf-note" pointer-events="bounding-box"><g class="vf-stem" pointer-events="bounding-box"><path stroke-width="1.5" fill="none" stroke="#000000" stroke-dasharray="none" class="vf-stem" id="vf-auto2272541-stem" d="M721.4788671999999 269.09999999999997L721.4788671999999 304.09999999999997"></path></g><g class="vf-notehead" pointer-events="bounding-box"><path stroke-width="0.3" fill="#000000" stroke="none" stroke-dasharray="none" d="M720.7288671999999 269.09999999999997M728.0858271999998 263.87712C728.1981471999999 263.87712,728.3666271999998 263.87712,728.3947071999999 263.87712C728.3947071999999 263.87712,728.4227871999999 263.87712,728.4227871999999 263.87712C728.4227871999999 263.87712,728.5912671999998 263.87712,728.7316671999998 263.87712C731.2588671999998 264.01752,732.7471071999998 265.67423999999994,732.7471071999998 267.75215999999995C732.7471071999998 268.76304,732.4101471999999 269.91432,731.5677471999999 271.00944C729.9671871999999 273.17159999999996,727.3557471999999 274.35096,725.0812671999998 274.35096C723.3122271999998 274.35096,721.7959071999999 273.64896,721.0658271999998 272.21687999999995C720.8411871999998 271.65527999999995,720.7288671999999 271.12175999999994,720.7288671999999 270.53207999999995C720.7288671999999 267.47135999999995,724.1546271999998 264.07367999999997,728.0858271999998 263.87712"></path></g></g><g class="vf-modifiers"></g></g><rect stroke-width="0.3" fill="#000000" stroke="#000000" stroke-dasharray="none" x="749.6456895999997" y="166.5" width="1" height="133.59999999999997"></rect><rect stroke-width="0.3" fill="#000000" stroke="#000000" stroke-dasharray="none" x="752.6456895999997" y="166.5" width="3" height="133.59999999999997"></rect><path stroke-width="0.3" fill="#000000" stroke="none" stroke-dasharray="none" d="M68 166.5C45.2 193.22,81.2 215.26399999999998,56 233.29999999999998C81.2 251.33599999999998,45.2 273.38,68 300.09999999999997C44 273.38,72.8 251.33599999999998,56 233.29999999999998C72.8 215.26399999999998,44 193.22,68 166.5"></path><path stroke-width="1" fill="none" stroke="#000000" stroke-dasharray="none" d="M68 166.5C45.2 193.22,81.2 215.26399999999998,56 233.29999999999998C81.2 251.33599999999998,45.2 273.38,68 300.09999999999997C44 273.38,72.8 251.33599999999998,56 233.29999999999998C72.8 215.26399999999998,44 193.22,68 166.5"></path><g class="vf-text"><text stroke-width="0.3" fill="#000000" stroke="none" stroke-dasharray="none" font-family="Times New Roman" font-size="15px" font-weight="normal" font-style="normal" x="444.81204479999997" y="163.5">3</text></g></svg>