<svg xmlns="http://www.w3.org/2000/svg"  width="1470" height="376.8" viewBox="0 0 1470 376.8"><path stroke-width="1" fill="none" stroke="#000000" stroke-dasharray="none" d="M70 166.5L300.14522239999997 166.5"></path><path stroke-width="1" fill="none" stroke="#000000" stroke-dasharray="none" d="M70 176.5L300.14522239999997 176.5"></path><path stroke-width="1" fill="none" stroke="#000000" stroke-dasharray="none" d="M70 186.5L300.14522239999997 186.5"></path><path stroke-width="1" fill="none" stroke="#000000" stroke-dasharray="none" d="M70 196.5L300.14522239999997 196.5"></path><path stroke-width="1" fill="none" stroke="#000000" stroke-dasharray="none" d="M70 206.5L300.14522239999997 206.5"></path><rect stroke-width="0.3" fill="#000000" stroke="#000000" stroke-dasharray="none" x="300.14522239999997" y="166" width="1" height="41"></rect><g class="vf-clef"><path stroke-width="0.3" fill="#000000" stroke="none" stroke-dasharray="none" d="M75 196.5M89.0544 153.3288C89.112 153.3,89.1696 153.3,89.256 153.3C89.6016 153.3,90.0048 153.588,90.5808 154.308C92.9136 156.9864,94.5552 161.652,94.5552 165.4536C94.5552 165.7416,94.4976 165.972,94.4976 166.26C94.2384 170.7816,92.3952 174.4968,88.7376 178.0104L87.7584 178.9608L87.4128 179.3352L87.4128 179.4504L87.6144 180.3144L87.9312 181.8696L88.248 183.3096C88.68 185.268,88.8528 186.276,88.8528 186.276C88.8528 186.276,88.8528 186.276,88.8528 186.276C88.8528 186.276,88.968 186.276,89.112 186.2472C89.256 186.2472,89.7168 186.1896,90.2064 186.1896C90.55199999999999 186.1896,90.8976 186.2472,91.0704 186.2472C95.1312 186.7656,98.2704 189.6744,99.1632 193.764C99.336 194.4264,99.39359999999999 195.1464,99.39359999999999 195.8664C99.39359999999999 199.7544,97.0608 203.4696,93.1728 205.2264C92.94239999999999 205.3704,92.856 205.3992,92.856 205.3992L92.856 205.428C92.856 205.428,93.0288 206.0904,93.1728 206.8392L93.6048 209.028L94.008 210.7848C94.2384 211.908,94.3536 212.7144,94.3536 213.4344C94.3536 214.06799999999998,94.2672 214.644,94.1232 215.3064C93.144 219.3096,89.6592 221.7,86.0304 221.7C84.2448 221.7,82.4016 221.124,80.7888 219.828C79.3488 218.6184,78.7152 217.524,78.7152 216.084C78.7152 213.5496,80.76 211.764,82.8912 211.764C83.64 211.764,84.3888 211.99439999999998,85.1088 212.4264C86.3184 213.2616,86.8656 214.5288,86.8656 215.7672C86.8656 217.668,85.5408 219.54,83.2656 219.684L83.0352 219.684L83.208 219.79919999999998C84.1584 220.2024,85.1088 220.404,86.0304 220.404C88.3632 220.404,90.55199999999999 219.2232,91.8768 217.1784C92.62559999999999 216.0264,93.0288 214.6728,93.0288 213.3192C93.0288 212.8008,92.94239999999999 212.2824,92.8272 211.7064C92.8272 211.6488,92.74080000000001 211.188,92.62559999999999 210.756C91.992 207.6456,91.6176 205.8312,91.6176 205.8312C91.6176 205.8312,91.6176 205.8312,91.6176 205.8312C91.56 205.8312,91.4448 205.8312,91.3584 205.8888C91.0704 205.9464,90.4656 206.0904,90.2064 206.1192C89.5728 206.2056,88.968 206.2344,88.392 206.2344C82.74719999999999 206.2344,77.5056 202.4328,75.6912 196.8168C75.2304 195.3192,74.9712 193.8216,74.9712 192.324C74.9712 189.3288,75.9216 186.3912,77.7648 183.7704C79.7808 180.9192,81.7968 178.4712,84.2736 175.9368L85.13759999999999 175.044L84.936 173.9784L84.5616 172.2216L84.072 169.9752C83.928 169.14,83.7552 168.3336,83.7264 168.1608C83.5824 167.2104,83.496 166.2888,83.496 165.3384C83.496 161.7096,84.6768 158.22480000000002,86.8944 155.4312C87.5568 154.5672,88.7376 153.4152,89.0544 153.3288M90.8112 159.0312C90.7536 159.0312,90.6672 159.0312,90.5808 159.0312C89.4 159.0312,87.8736 160.1256,86.8368 161.7384C85.7712 163.32240000000002,85.224 165.4248,85.224 167.5848C85.224 168.1608,85.25280000000001 168.7656,85.3392 169.3704C85.4256 169.8024,85.45439999999999 170.0904,85.6848 171.12720000000002L86.088 172.9416C86.2032 173.4888,86.28960000000001 173.92079999999999,86.28960000000001 173.9784L86.28960000000001 173.9784C86.3184 173.9784,87.2112 172.9992,87.4992 172.6536C90.3792 169.3992,92.1072 165.972,92.4816 162.948C92.5104 162.66,92.5104 162.4296,92.5104 162.1416C92.5104 161.24880000000002,92.3952 160.38479999999998,92.1936 159.924C91.9632 159.4632,91.4448 159.0888,90.8112 159.0312M86.4624 181.2936C86.4048 180.8904,86.3184 180.5736,86.3184 180.516C86.3184 180.516,86.3184 180.516,86.28960000000001 180.516C86.232 180.516,84.9936 181.956,84.1296 182.964C82.6608 184.7496,81.1056 186.8808,80.472 187.9176C79.2624 189.9624,78.6576 192.2376,78.6576 194.484C78.6576 195.9528,78.9456 197.364,79.464 198.7176C81.0192 202.7208,84.5904 205.2264,88.4784 205.2264C88.9392 205.2264,89.4576 205.1976,89.9472 205.1112C90.5808 204.996,91.3584 204.7656,91.3584 204.6792L91.3584 204.6792C91.3584 204.6792,91.3008 204.3912,91.2144 204.0744L90.3792 199.956L89.7168 196.8744L89.2848 194.7432L88.824 192.6696C88.5936 191.4312,88.5072 191.1144,88.5072 191.1144C88.5072 191.1144,88.5072 191.0856,88.4784 191.0856C88.3056 191.0856,87.384 191.5464,86.9808 191.8344C85.4832 192.8712,84.7056 194.5128,84.7056 196.1256C84.7056 197.652,85.45439999999999 199.1784,86.8944 200.0712C87.2112 200.2728,87.3264 200.4456,87.3264 200.6472C87.3264 200.676,87.3264 200.7624,87.3264 200.7912C87.2688 201.1368,87.0672 201.2808,86.7792 201.2808C86.664 201.2808,86.52 201.252,86.3472 201.1656C83.6976 200.0136,81.912 197.2776,81.912 194.2824L81.912 194.2824C81.912 190.8264,84.072 187.8312,87.384 186.6504L87.5568 186.5928L87.2688 185.1528L86.4624 181.2936M90.7824 190.9128C90.55199999999999 190.88400000000001,90.3216 190.88400000000001,90.1488 190.88400000000001C90.0912 190.88400000000001,90.0048 190.88400000000001,89.9472 190.88400000000001L89.8032 190.88400000000001L89.9184 191.4024L90.5232 194.2248L90.8976 196.068L91.3008 197.8824L92.1072 201.8856L92.424 203.412C92.5392 203.8152,92.5968 204.1608,92.62559999999999 204.1608C92.62559999999999 204.1608,92.62559999999999 204.1608,92.62559999999999 204.1608C92.6544 204.1608,93.144 203.8728,93.4608 203.6424C94.9296 202.6056,96.024 200.9928,96.4272 199.3224C96.5712 198.7752,96.6288 198.1992,96.6288 197.652C96.6288 194.3112,94.152 191.2872,90.7824 190.9128"></path></g><path stroke-width="0.3" fill="#000000" stroke="none" stroke-dasharray="none" d="M116 186.5M121.0112 168.1544C121.04 168.1256,121.4432 168.1256,122.6816 168.1256C123.056 168.1256,123.4592 168.1256,123.9776 168.1256L126.8864 168.1256L126.9728 168.212C127.1168 168.29840000000002,127.2032 168.4424,127.2032 168.5576C127.2032 168.7304,127.1168 168.8456,127.0016 168.9608C126.9728 169.0472,126.7136 169.2776,126.5408 169.5368L125.0144 171.2936L123.056 173.5112L122.0192 174.692L120.464 176.4776L118.4192 178.8104C118.0736 179.2424,117.6992 179.588,117.6992 179.588C117.6992 179.588,117.6992 179.588,117.6992 179.588C117.6992 179.6456,117.9584 179.6456,120.3488 179.6456L122.9696 179.6456L122.9696 177.7736C122.9696 175.8728,122.9696 175.844,122.9984 175.8152C123.056 175.7288,123.3152 175.412,124.3232 174.2312L124.7264 173.7992L125.1296 173.3672L125.7344 172.5896L126.368 171.9272L126.6848 171.524C126.8 171.3512,126.9728 171.3224,127.1168 171.3224C127.28960000000001 171.3224,127.4336 171.4088,127.52 171.5528C127.5488 171.6392,127.5488 171.6968,127.5488 173.828C127.5488 174.3176,127.5488 174.9224,127.5488 175.6424L127.5488 179.6456L128.2688 179.6456C128.9312 179.6456,128.96 179.6456,129.0464 179.6744C129.2768 179.7608,129.392 179.9912,129.392 180.2504C129.392 180.3944,129.3632 180.5672,129.248 180.6824C129.0752 180.8264,129.0464 180.8264,128.2688 180.8264L127.5488 180.8264L127.5488 181.316C127.5776 182.7848,127.8656 183.3608,128.9888 183.9656C129.392 184.1672,129.4784 184.2248,129.4784 184.5128C129.4784 184.7144,129.42079999999999 184.8008,129.2768 184.916L129.1904 184.9448L125.2448 184.9448L121.328 184.9448L121.2416 184.916C121.0688 184.8008,121.04 184.7144,121.04 184.5128C121.04 184.2248,121.0688 184.1672,121.5008 183.9656C122.624 183.3608,122.912 182.7848,122.912 181.316L122.912 180.8264L119.6 180.8264C118.9952 180.88400000000001,118.5056 180.88400000000001,118.1024 180.88400000000001C116.288 180.88400000000001,116.2592 180.8264,116.2304 180.8264C116.0576 180.7688,116 180.596,116 180.3944C116 180.3944,116 180.3944,116 180.3944C116 180.1928,116 180.1928,116.576 179.5304C118.9952 176.5928,120.6944 172.3304,120.6944 168.93200000000002C120.6944 168.4136,120.7808 168.2408,121.0112 168.1544M122.7392 186.5288L122.768 186.5288L122.6816 186.5288L122.7392 186.5288M122.7392 167.1176L122.768 167.1176L122.6816 167.1176L122.7392 167.1176"></path><path stroke-width="0.3" fill="#000000" stroke="none" stroke-dasharray="none" d="M116 206.5M121.0112 188.1544C121.04 188.1256,121.4432 188.1256,122.6816 188.1256C123.056 188.1256,123.4592 188.1256,123.9776 188.1256L126.8864 188.1256L126.9728 188.212C127.1168 188.29840000000002,127.2032 188.4424,127.2032 188.5576C127.2032 188.7304,127.1168 188.8456,127.0016 188.9608C126.9728 189.0472,126.7136 189.2776,126.5408 189.5368L125.0144 191.2936L123.056 193.5112L122.0192 194.692L120.464 196.4776L118.4192 198.8104C118.0736 199.2424,117.6992 199.588,117.6992 199.588C117.6992 199.588,117.6992 199.588,117.6992 199.588C117.6992 199.6456,117.9584 199.6456,120.3488 199.6456L122.9696 199.6456L122.9696 197.7736C122.9696 195.8728,122.9696 195.844,122.9984 195.8152C123.056 195.7288,123.3152 195.412,124.3232 194.2312L124.7264 193.7992L125.1296 193.3672L125.7344 192.5896L126.368 191.9272L126.6848 191.524C126.8 191.3512,126.9728 191.3224,127.1168 191.3224C127.28960000000001 191.3224,127.4336 191.4088,127.52 191.5528C127.5488 191.6392,127.5488 191.6968,127.5488 193.828C127.5488 194.3176,127.5488 194.9224,127.5488 195.6424L127.5488 199.6456L128.2688 199.6456C128.9312 199.6456,128.96 199.6456,129.0464 199.6744C129.2768 199.7608,129.392 199.9912,129.392 200.2504C129.392 200.3944,129.3632 200.5672,129.248 200.6824C129.0752 200.8264,129.0464 200.8264,128.2688 200.8264L127.5488 200.8264L127.5488 201.316C127.5776 202.7848,127.8656 203.3608,128.9888 203.9656C129.392 204.1672,129.4784 204.2248,129.4784 204.5128C129.4784 204.7144,129.42079999999999 204.8008,129.2768 204.916L129.1904 204.9448L125.2448 204.9448L121.328 204.9448L121.2416 204.916C121.0688 204.8008,121.04 204.7144,121.04 204.5128C121.04 204.2248,121.0688 204.1672,121.5008 203.9656C122.624 203.3608,122.912 202.7848,122.912 201.316L122.912 200.8264L119.6 200.8264C118.9952 200.88400000000001,118.5056 200.88400000000001,118.1024 200.88400000000001C116.288 200.88400000000001,116.2592 200.8264,116.2304 200.8264C116.0576 200.7688,116 200.596,116 200.3944C116 200.3944,116 200.3944,116 200.3944C116 200.1928,116 200.1928,116.576 199.5304C118.9952 196.5928,120.6944 192.3304,120.6944 188.93200000000002C120.6944 188.4136,120.7808 188.2408,121.0112 188.1544M122.7392 206.5288L122.768 206.5288L122.6816 206.5288L122.7392 206.5288M122.7392 187.1176L122.768 187.1176L122.6816 187.1176L122.7392 187.1176"></path><g class="vf-stavenote" id="vf-auto1777067"><g class="vf-note" pointer-events="bounding-box"><g class="vf-stem" pointer-events="bounding-box"><path stroke-width="1.5" fill="none" stroke="#000000" stroke-dasharray="none" class="vf-stem" id="vf-auto1777067-stem" d="M152.74663999999999 206.5L152.74663999999999 171.5"></path></g><g class="vf-notehead" pointer-events="bounding-box"><path stroke-width="0.3" fill="#000000" stroke="none" stroke-dasharray="none" d="M141.4784 206.5M148.83535999999998 201.27712C148.94768 201.27712,149.11615999999998 201.27712,149.14424 201.27712C149.14424 201.27712,149.17231999999998 201.27712,149.17231999999998 201.27712C149.17231999999998 201.27712,149.3408 201.27712,149.4812 201.27712C152.0084 201.41752,153.49663999999999 203.07424,153.49663999999999 205.15216C153.49663999999999 206.16304,153.15967999999998 207.31432,152.31727999999998 208.40944C150.71671999999998 210.5716,148.10528 211.75096,145.83079999999998 211.75096C144.06176 211.75096,142.54543999999999 211.04896,141.81536 209.61688C141.59072 209.05528,141.4784 208.52176,141.4784 207.93208C141.4784 204.87136,144.90416 201.47368,148.83535999999998 201.27712"></path></g></g><g class="vf-modifiers"></g></g><path stroke-width="1" fill="none" stroke="#000000" stroke-dasharray="none" d="M178.6088 216.5L196.62704 216.5"></path><g class="vf-stavenote" id="vf-auto1777075"><g class="vf-note" pointer-events="bounding-box"><g class="vf-stem" pointer-events="bounding-box"><path stroke-width="1.5" fill="none" stroke="#000000" stroke-dasharray="none" class="vf-stem" id="vf-auto1777075-stem" d="M192.87704 221.5L192.87704 186.5"></path></g><g class="vf-notehead" pointer-events="bounding-box"><path stroke-width="0.3" fill="#000000" stroke="none" stroke-dasharray="none" d="M181.6088 221.5M188.96576 216.27712C189.07808 216.27712,189.24656 216.27712,189.27464 216.27712C189.27464 216.27712,189.30272 216.27712,189.30272 216.27712C189.30272 216.27712,189.4712 216.27712,189.6116 216.27712C192.1388 216.41752,193.62704 218.07424,193.62704 220.15216C193.62704 221.16304,193.29008 222.31432,192.44768 223.40944C190.84712 225.5716,188.23568 226.75096,185.9612 226.75096C184.19216 226.75096,182.67584 226.04896,181.94576 224.61688C181.72112 224.05528,181.6088 223.52176,181.6088 222.93208C181.6088 219.87136,185.03456 216.47368,188.96576 216.27712"></path></g></g><g class="vf-modifiers"></g></g><path stroke-width="1" fill="none" stroke="#000000" stroke-dasharray="none" d="M300.14522239999997 166.5L452.5120447999999 166.5"></path><path stroke-width="1" fill="none" stroke="#000000" stroke-dasharray="none" d="M300.14522239999997 176.5L452.5120447999999 176.5"></path><path stroke-width="1" fill="none" stroke="#000000" stroke-dasharray="none" d="M300.14522239999997 186.5L452.5120447999999 186.5"></path><path stroke-width="1" fill="none" stroke="#000000" stroke-dasharray="none" d="M300.14522239999997 196.5L452.5120447999999 196.5"></path><path stroke-width="1" fill="none" stroke="#000000" stroke-dasharray="none" d="M300.14522239999997 206.5L452.5120447999999 206.5"></path><rect stroke-width="0.3" fill="#000000" stroke="#000000" stroke-dasharray="none" x="452.5120447999999" y="166" width="1" height="41"></rect><g class="vf-stavenote" id="vf-auto1777103"><g class="vf-note" pointer-events="bounding-box"><g class="vf-stem" pointer-events="bounding-box"><path stroke-width="1.5" fill="none" stroke="#000000" stroke-dasharray="none" class="vf-stem" id="vf-auto1777103-stem" d="M328.41346239999996 211.5L328.41346239999996 176.5"></path></g><g class="vf-notehead" pointer-events="bounding-box"><path stroke-width="0.3" fill="#000000" stroke="none" stroke-dasharray="none" d="M317.14522239999997 211.5M324.5021824 206.27712C324.6145024 206.27712,324.7829824 206.27712,324.81106239999997 206.27712C324.81106239999997 206.27712,324.83914239999996 206.27712,324.83914239999996 206.27712C324.83914239999996 206.27712,325.00762239999995 206.27712,325.14802239999995 206.27712C327.67522239999994 206.41752,329.16346239999996 208.07424,329.16346239999996 210.15216C329.16346239999996 211.16304,328.8265024 212.31432,327.9841024 213.40944C326.38354239999995 215.5716,323.7721024 216.75096,321.49762239999995 216.75096C319.7285824 216.75096,318.2122624 216.04896,317.48218239999994 214.61688C317.2575424 214.05528,317.14522239999997 213.52176,317.14522239999997 212.93208C317.14522239999997 209.87136,320.5709824 206.47368,324.5021824 206.27712"></path></g></g><g class="vf-modifiers"></g></g><g class="vf-stavenote" id="vf-auto1777111"><g class="vf-note" pointer-events="bounding-box"><g class="vf-stem" pointer-events="bounding-box"><path stroke-width="1.5" fill="none" stroke="#000000" stroke-dasharray="none" class="vf-stem" id="vf-auto1777111-stem" d="M352.14522239999997 166.5L352.14522239999997 201.5"></path></g><g class="vf-notehead" pointer-events="bounding-box"><path stroke-width="0.3" fill="#000000" stroke="none" stroke-dasharray="none" d="M351.39522239999997 166.5M358.7521824 161.27712C358.8645024 161.27712,359.0329824 161.27712,359.06106239999997 161.27712C359.06106239999997 161.27712,359.08914239999996 161.27712,359.08914239999996 161.27712C359.08914239999996 161.27712,359.25762239999995 161.27712,359.39802239999995 161.27712C361.92522239999994 161.41752,363.41346239999996 163.07424,363.41346239999996 165.15216C363.41346239999996 166.16304,363.0765024 167.31432,362.2341024 168.40944C360.63354239999995 170.5716,358.0221024 171.75096,355.74762239999995 171.75096C353.9785824 171.75096,352.4622624 171.04896,351.73218239999994 169.61688C351.5075424 169.05528,351.39522239999997 168.52176,351.39522239999997 167.93208C351.39522239999997 164.87136,354.8209824 161.47368,358.7521824 161.27712"></path></g></g><g class="vf-modifiers"></g></g><g class="vf-stavenote" id="vf-auto1777119"><g class="vf-note" pointer-events="bounding-box"><g class="vf-stem" pointer-events="bounding-box"><path stroke-width="1.5" fill="none" stroke="#000000" stroke-dasharray="none" class="vf-stem" id="vf-auto1777119-stem" d="M431.16346239999996 211.5L431.16346239999996 176.5"></path></g><g class="vf-notehead" pointer-events="bounding-box"><path stroke-width="0.3" fill="#000000" stroke="none" stroke-dasharray="none" d="M419.89522239999997 211.5M427.2521824 206.27712C427.3645024 206.27712,427.5329824 206.27712,427.56106239999997 206.27712C427.56106239999997 206.27712,427.58914239999996 206.27712,427.58914239999996 206.27712C427.58914239999996 206.27712,427.75762239999995 206.27712,427.89802239999995 206.27712C430.42522239999994 206.41752,431.91346239999996 208.07424,431.91346239999996 210.15216C431.91346239999996 211.16304,431.5765024 212.31432,430.7341024 213.40944C429.13354239999995 215.5716,426.5221024 216.75096,424.24762239999995 216.75096C422.4785824 216.75096,420.9622624 216.04896,420.23218239999994 214.61688C420.0075424 214.05528,419.89522239999997 213.52176,419.89522239999997 212.93208C419.89522239999997 209.87136,423.3209824 206.47368,427.2521824 206.27712"></path></g></g><g class="vf-modifiers"></g></g><path stroke-width="1" fill="none" stroke="#000000" stroke-dasharray="none" d="M452.5120447999999 166.5L604.8788671999998 166.5"></path><path stroke-width="1" fill="none" stroke="#000000" stroke-dasharray="none" d="M452.5120447999999 176.5L604.8788671999998 176.5"></path><path stroke-width="1" fill="none" stroke="#000000" stroke-dasharray="none" d="M452.5120447999999 186.5L604.8788671999998 186.5"></path><path stroke-width="1" fill="none" stroke="#000000" stroke-dasharray="none" d="M452.5120447999999 196.5L604.8788671999998 196.5"></path><path stroke-width="1" fill="none" stroke="#000000" stroke-dasharray="none" d="M452.5120447999999 206.5L604.8788671999998 206.5"></path><rect stroke-width="0.3" fill="#000000" stroke="#000000" stroke-dasharray="none" x="604.8788671999998" y="166" width="1" height="41"></rect><g class="vf-stavenote" id="vf-auto1777140"><g class="vf-note" pointer-events="bounding-box"><g class="vf-stem" pointer-events="bounding-box"><path stroke-width="1.5" fill="none" stroke="#000000" stroke-dasharray="none" class="vf-stem" id="vf-auto1777140-stem" d="M480.7802847999999 201.5L480.7802847999999 166.5"></path></g><g class="vf-notehead" pointer-events="bounding-box"><path stroke-width="0.3" fill="#000000" stroke="none" stroke-dasharray="none" d="M469.5120447999999 201.5M476.8690047999999 196.27712C476.9813247999999 196.27712,477.1498047999999 196.27712,477.1778847999999 196.27712C477.1778847999999 196.27712,477.2059647999999 196.27712,477.2059647999999 196.27712C477.2059647999999 196.27712,477.3744447999999 196.27712,477.5148447999999 196.27712C480.04204479999987 196.41752,481.5302847999999 198.07424,481.5302847999999 200.15216C481.5302847999999 201.16304,481.1933247999999 202.31432,480.3509247999999 203.40944C478.7503647999999 205.5716,476.1389247999999 206.75096,473.8644447999999 206.75096C472.0954047999999 206.75096,470.5790847999999 206.04896,469.8490047999999 204.61688C469.6243647999999 204.05528,469.5120447999999 203.52176,469.5120447999999 202.93208C469.5120447999999 199.87136,472.9378047999999 196.47368,476.8690047999999 196.27712"></path></g></g><g class="vf-modifiers"></g></g><g class="vf-stavenote" id="vf-auto1777148"><g class="vf-note" pointer-events="bounding-box"><g class="vf-stem" pointer-events="bounding-box"><path stroke-width="1.5" fill="none" stroke="#000000" stroke-dasharray="none" class="vf-stem" id="vf-auto1777148-stem" d="M515.0302847999999 191.5L515.0302847999999 156.5"></path></g><g class="vf-notehead" pointer-events="bounding-box"><path stroke-width="0.3" fill="#000000" stroke="none" stroke-dasharray="none" d="M503.7620447999999 191.5M511.1190047999999 186.27712C511.2313247999999 186.27712,511.3998047999999 186.27712,511.4278847999999 186.27712C511.4278847999999 186.27712,511.4559647999999 186.27712,511.4559647999999 186.27712C511.4559647999999 186.27712,511.6244447999999 186.27712,511.7648447999999 186.27712C514.2920447999999 186.41752,515.7802847999999 188.07424,515.7802847999999 190.15216C515.7802847999999 191.16304,515.4433247999999 192.31432,514.6009247999999 193.40944C513.0003647999999 195.5716,510.3889247999999 196.75096,508.1144447999999 196.75096C506.3454047999999 196.75096,504.8290847999999 196.04896,504.0990047999999 194.61688C503.8743647999999 194.05528,503.7620447999999 193.52176,503.7620447999999 192.93208C503.7620447999999 189.87136,507.1878047999999 186.47368,511.1190047999999 186.27712"></path></g></g><g class="vf-modifiers"></g></g><g class="vf-stavenote" id="vf-auto1777156"><g class="vf-note" pointer-events="bounding-box"><g class="vf-stem" pointer-events="bounding-box"><path stroke-width="1.5" fill="none" stroke="#000000" stroke-dasharray="none" class="vf-stem" id="vf-auto1777156-stem" d="M538.7620447999999 166.5L538.7620447999999 201.5"></path></g><g class="vf-notehead" pointer-events="bounding-box"><path stroke-width="0.3" fill="#000000" stroke="none" stroke-dasharray="none" d="M538.0120447999999 166.5M545.3690047999999 161.27712C545.4813247999999 161.27712,545.6498047999999 161.27712,545.6778847999999 161.27712C545.6778847999999 161.27712,545.7059648 161.27712,545.7059648 161.27712C545.7059648 161.27712,545.8744447999999 161.27712,546.0148447999999 161.27712C548.5420447999999 161.41752,550.0302847999999 163.07424,550.0302847999999 165.15216C550.0302847999999 166.16304,549.6933247999999 167.31432,548.8509247999999 168.40944C547.2503647999999 170.5716,544.6389247999999 171.75096,542.3644447999999 171.75096C540.5954047999999 171.75096,539.0790847999999 171.04896,538.3490047999999 169.61688C538.1243647999999 169.05528,538.0120447999999 168.52176,538.0120447999999 167.93208C538.0120447999999 164.87136,541.4378047999999 161.47368,545.3690047999999 161.27712"></path></g></g><g class="vf-modifiers"></g></g><path stroke-width="1" fill="none" stroke="#000000" stroke-dasharray="none" d="M604.8788672 166.5L767.2456895999999 166.5"></path><path stroke-width="1" fill="none" stroke="#000000" stroke-dasharray="none" d="M604.8788672 176.5L767.2456895999999 176.5"></path><path stroke-width="1" fill="none" stroke="#000000" stroke-dasharray="none" d="M604.8788672 186.5L767.2456895999999 186.5"></path><path stroke-width="1" fill="none" stroke="#000000" stroke-dasharray="none" d="M604.8788672 196.5L767.2456895999999 196.5"></path><path stroke-width="1" fill="none" stroke="#000000" stroke-dasharray="none" d="M604.8788672 206.5L767.2456895999999 206.5"></path><rect stroke-width="0.3" fill="#000000" stroke="#000000" stroke-dasharray="none" x="762.2456895999999" y="166" width="1" height="41"></rect><rect stroke-width="0.3" fill="#000000" stroke="#000000" stroke-dasharray="none" x="765.2456895999999" y="166" width="3" height="41"></rect><path stroke-width="0.3" fill="#000000" stroke="none" stroke-dasharray="none" d="M761.2456895999999 182 A2 2 0 0 0 757.2456895999999 182M757.2456895999999 182 A2 2 0 0 0 761.2456895999999 182"></path><path stroke-width="0.3" fill="#000000" stroke="none" stroke-dasharray="none" d="M761.2456895999999 192 A2 2 0 0 0 757.2456895999999 192M757.2456895999999 192 A2 2 0 0 0 761.2456895999999 192"></path><g class="vf-stavenote" id="vf-auto1777177"><g class="vf-note" pointer-events="bounding-box"><g class="vf-stem" pointer-events="bounding-box"><path stroke-width="1.5" fill="none" stroke="#000000" stroke-dasharray="none" class="vf-stem" id="vf-auto1777177-stem" d="M633.1471071999999 211.5L633.1471071999999 176.5"></path></g><g class="vf-notehead" pointer-events="bounding-box"><path stroke-width="0.3" fill="#000000" stroke="none" stroke-dasharray="none" d="M621.8788672 211.5M629.2358271999999 206.27712C629.3481472 206.27712,629.5166271999999 206.27712,629.5447072 206.27712C629.5447072 206.27712,629.5727872 206.27712,629.5727872 206.27712C629.5727872 206.27712,629.7412671999999 206.27712,629.8816671999999 206.27712C632.4088671999999 206.41752,633.8971071999999 208.07424,633.8971071999999 210.15216C633.8971071999999 211.16304,633.5601472 212.31432,632.7177472 213.40944C631.1171872 215.5716,628.5057472 216.75096,626.2312671999999 216.75096C624.4622271999999 216.75096,622.9459072 216.04896,622.2158271999999 214.61688C621.9911871999999 214.05528,621.8788672 213.52176,621.8788672 212.93208C621.8788672 209.87136,625.3046271999999 206.47368,629.2358271999999 206.27712"></path></g></g><g class="vf-modifiers"></g></g><path stroke-width="1" fill="none" stroke="#000000" stroke-dasharray="none" d="M692.3788672 216.5L710.3971071999999 216.5"></path><g class="vf-stavenote" id="vf-auto1777185"><g class="vf-note" pointer-events="bounding-box"><g class="vf-stem" pointer-events="bounding-box"><path stroke-width="1.5" fill="none" stroke="#000000" stroke-dasharray="none" class="vf-stem" id="vf-auto1777185-stem" d="M706.6471071999999 221.5L706.6471071999999 186.5"></path></g><g class="vf-notehead" pointer-events="bounding-box"><path stroke-width="0.3" fill="#000000" stroke="none" stroke-dasharray="none" d="M695.3788672 221.5M702.7358271999999 216.27712C702.8481472 216.27712,703.0166271999999 216.27712,703.0447072 216.27712C703.0447072 216.27712,703.0727872 216.27712,703.0727872 216.27712C703.0727872 216.27712,703.2412671999999 216.27712,703.3816671999999 216.27712C705.9088671999999 216.41752,707.3971071999999 218.07424,707.3971071999999 220.15216C707.3971071999999 221.16304,707.0601472 222.31432,706.2177472 223.40944C704.6171872 225.5716,702.0057472 226.75096,699.7312671999999 226.75096C697.9622271999999 226.75096,696.4459072 226.04896,695.7158271999999 224.61688C695.4911871999999 224.05528,695.3788672 223.52176,695.3788672 222.93208C695.3788672 219.87136,698.8046271999999 216.47368,702.7358271999999 216.27712"></path></g></g><g class="vf-modifiers"></g></g><g class="vf-stavenote" id="vf-auto1777193"><g class="vf-note" pointer-events="bounding-box"><g class="vf-stem" pointer-events="bounding-box"><path stroke-width="1.5" fill="none" stroke="#000000" stroke-dasharray="none" class="vf-stem" id="vf-auto1777193-stem" d="M743.3971071999999 211.5L743.3971071999999 176.5"></path></g><g class="vf-notehead" pointer-events="bounding-box"><path stroke-width="0.3" fill="#000000" stroke="none" stroke-dasharray="none" d="M732.1288672 211.5M739.4858271999999 206.27712C739.5981472 206.27712,739.7666271999999 206.27712,739.7947072 206.27712C739.7947072 206.27712,739.8227872 206.27712,739.8227872 206.27712C739.8227872 206.27712,739.9912671999999 206.27712,740.1316671999999 206.27712C742.6588671999999 206.41752,744.1471071999999 208.07424,744.1471071999999 210.15216C744.1471071999999 211.16304,743.8101472 212.31432,742.9677472 213.40944C741.3671872 215.5716,738.7557472 216.75096,736.4812671999999 216.75096C734.7122271999999 216.75096,733.1959072 216.04896,732.4658271999999 214.61688C732.2411871999999 214.05528,732.1288672 213.52176,732.1288672 212.93208C732.1288672 209.87136,735.5546271999999 206.47368,739.4858271999999 206.27712"></path></g></g><g class="vf-modifiers"></g></g><g class="vf-text"><text stroke-width="0.3" fill="#000000" stroke="none" stroke-dasharray="none" font-family="Times New Roman" font-size="23px" font-weight="bold" font-style="italic" x="143.48752" y="240.5">f</text></g><path stroke-width="1" fill="none" stroke="#000000" stroke-dasharray="none" d="M70 255.29999999999998L300.14522239999997 255.29999999999998"></path><path stroke-width="1" fill="none" stroke="#000000" stroke-dasharray="none" d="M70 265.29999999999995L300.14522239999997 265.29999999999995"></path><path stroke-width="1" fill="none" stroke="#000000" stroke-dasharray="none" d="M70 275.29999999999995L300.14522239999997 275.29999999999995"></path><path stroke-width="1" fill="none" stroke="#000000" stroke-dasharray="none" d="M70 285.29999999999995L300.14522239999997 285.29999999999995"></path><path stroke-width="1" fill="none" stroke="#000000" stroke-dasharray="none" d="M70 295.29999999999995L300.14522239999997 295.29999999999995"></path><rect stroke-width="0.3" fill="#000000" stroke="#000000" stroke-dasharray="none" x="300.14522239999997" y="254.79999999999998" width="1" height="40.99999999999997"></rect><g class="vf-clef"><path stroke-width="0.3" fill="#000000" stroke="none" stroke-dasharray="none" d="M75 265.29999999999995M83.8416 255.24879999999996C84.072 255.19119999999995,84.3024 255.19119999999995,84.5616 255.19119999999995C85.5696 255.19119999999995,86.7504 255.30639999999997,87.7584 255.50799999999995C92.4816 256.4872,95.736 259.68399999999997,96.3408 263.9464C96.3984 264.40719999999993,96.4272 264.83919999999995,96.4272 265.29999999999995C96.4272 267.89199999999994,95.5344 271.23279999999994,94.008 274.02639999999997C90.3792 280.59279999999995,83.7552 285.316,75.8064 287.044C75.6624 287.044,75.5472 287.0728,75.4032 287.0728C75.1152 287.0728,74.9712 286.9,74.9712 286.64079999999996C74.9712 286.35279999999995,75.0288 286.2664,75.6048 286.03599999999994C84.7056 282.6088,90.7824 275.20719999999994,91.3296 266.91279999999995C91.3584 266.48079999999993,91.3584 265.99119999999994,91.3584 265.61679999999996C91.3584 261.5848,90.12 258.58959999999996,87.7296 257.0919999999999C86.6928 256.42959999999994,85.5696 256.11279999999994,84.36 256.11279999999994C81.6816 256.11279999999994,78.9456 257.63919999999996,77.6784 260.20239999999995C77.6208 260.40399999999994,77.4192 260.83599999999996,77.4192 260.86479999999995C77.4192 260.86479999999995,77.4192 260.86479999999995,77.4192 260.86479999999995C77.4192 260.86479999999995,77.448 260.83599999999996,77.5344 260.80719999999997C78.168 260.40399999999994,78.8592 260.20239999999995,79.5792 260.20239999999995C80.5872 260.20239999999995,81.6528 260.63439999999997,82.4016 261.44079999999997C83.0928 262.1895999999999,83.4672 263.19759999999997,83.4672 264.1192C83.4672 265.99119999999994,82.0848 267.89199999999994,79.9248 268.0936C79.7808 268.0936,79.6368 268.12239999999997,79.4928 268.12239999999997C77.1024 268.12239999999997,75.1728 265.93359999999996,75.1728 263.1688C75.1728 263.11119999999994,75.1728 263.02479999999997,75.1728 262.996C75.288 258.8776,79.0608 255.50799999999995,83.8416 255.24879999999996M99.1632 259.10799999999995C99.2208 259.07919999999996,99.2496 259.07919999999996,99.336 259.07919999999996C99.5376 259.07919999999996,99.768 259.10799999999995,99.8256 259.1655999999999C100.54560000000001 259.36719999999997,100.8912 260.00079999999997,100.8912 260.6056C100.8912 261.12399999999997,100.632 261.64239999999995,100.11359999999999 261.93039999999996C99.912 262.07439999999997,99.6528 262.10319999999996,99.39359999999999 262.10319999999996C98.9904 262.10319999999996,98.5584 261.93039999999996,98.2704 261.5559999999999C98.03999999999999 261.268,97.9248 260.9512,97.9248 260.63439999999997C97.9248 259.91439999999994,98.3856 259.1944,99.1632 259.10799999999995M99.1632 268.52559999999994C99.2208 268.52559999999994,99.2496 268.52559999999994,99.336 268.52559999999994C99.5376 268.52559999999994,99.768 268.55439999999993,99.8256 268.61199999999997C100.54560000000001 268.81359999999995,100.8912 269.44719999999995,100.8912 270.05199999999996C100.8912 270.57039999999995,100.632 271.08879999999994,100.11359999999999 271.34799999999996C99.912 271.49199999999996,99.6528 271.54959999999994,99.39359999999999 271.54959999999994C98.9904 271.54959999999994,98.5584 271.34799999999996,98.2704 271.00239999999997C98.03999999999999 270.71439999999996,97.9248 270.39759999999995,97.9248 270.05199999999996C97.9248 269.33199999999994,98.3856 268.64079999999996,99.1632 268.52559999999994"></path></g><path stroke-width="0.3" fill="#000000" stroke="none" stroke-dasharray="none" d="M116 275.29999999999995M121.0112 256.95439999999996C121.04 256.9256,121.4432 256.9256,122.6816 256.9256C123.056 256.9256,123.4592 256.9256,123.9776 256.9256L126.8864 256.9256L126.9728 257.01199999999994C127.1168 257.09839999999997,127.2032 257.2424,127.2032 257.35759999999993C127.2032 257.53039999999993,127.1168 257.64559999999994,127.0016 257.76079999999996C126.9728 257.84719999999993,126.7136 258.07759999999996,126.5408 258.3367999999999L125.0144 260.0936L123.056 262.31119999999993L122.0192 263.49199999999996L120.464 265.27759999999995L118.4192 267.61039999999997C118.0736 268.04239999999993,117.6992 268.388,117.6992 268.388C117.6992 268.388,117.6992 268.388,117.6992 268.388C117.6992 268.44559999999996,117.9584 268.44559999999996,120.3488 268.44559999999996L122.9696 268.44559999999996L122.9696 266.57359999999994C122.9696 264.67279999999994,122.9696 264.64399999999995,122.9984 264.61519999999996C123.056 264.52879999999993,123.3152 264.21199999999993,124.3232 263.03119999999996L124.7264 262.59919999999994L125.1296 262.1672L125.7344 261.3896L126.368 260.7272L126.6848 260.32399999999996C126.8 260.15119999999996,126.9728 260.12239999999997,127.1168 260.12239999999997C127.28960000000001 260.12239999999997,127.4336 260.20879999999994,127.52 260.35279999999995C127.5488 260.43919999999997,127.5488 260.49679999999995,127.5488 262.62799999999993C127.5488 263.1176,127.5488 263.72239999999994,127.5488 264.44239999999996L127.5488 268.44559999999996L128.2688 268.44559999999996C128.9312 268.44559999999996,128.96 268.44559999999996,129.0464 268.47439999999995C129.2768 268.5608,129.392 268.79119999999995,129.392 269.05039999999997C129.392 269.1944,129.3632 269.36719999999997,129.248 269.4823999999999C129.0752 269.62639999999993,129.0464 269.62639999999993,128.2688 269.62639999999993L127.5488 269.62639999999993L127.5488 270.11599999999993C127.5776 271.5848,127.8656 272.16079999999994,128.9888 272.76559999999995C129.392 272.96719999999993,129.4784 273.02479999999997,129.4784 273.3128C129.4784 273.51439999999997,129.42079999999999 273.60079999999994,129.2768 273.71599999999995L129.1904 273.74479999999994L125.2448 273.74479999999994L121.328 273.74479999999994L121.2416 273.71599999999995C121.0688 273.60079999999994,121.04 273.51439999999997,121.04 273.3128C121.04 273.02479999999997,121.0688 272.96719999999993,121.5008 272.76559999999995C122.624 272.16079999999994,122.912 271.5848,122.912 270.11599999999993L122.912 269.62639999999993L119.6 269.62639999999993C118.9952 269.68399999999997,118.5056 269.68399999999997,118.1024 269.68399999999997C116.288 269.68399999999997,116.2592 269.62639999999993,116.2304 269.62639999999993C116.0576 269.56879999999995,116 269.39599999999996,116 269.1944C116 269.1944,116 269.1944,116 269.1944C116 268.99279999999993,116 268.99279999999993,116.576 268.33039999999994C118.9952 265.39279999999997,120.6944 261.13039999999995,120.6944 257.73199999999997C120.6944 257.21359999999993,120.7808 257.04079999999993,121.0112 256.95439999999996M122.7392 275.32879999999994L122.768 275.32879999999994L122.6816 275.32879999999994L122.7392 275.32879999999994M122.7392 255.91759999999996L122.768 255.91759999999996L122.6816 255.91759999999996L122.7392 255.91759999999996"></path><path stroke-width="0.3" fill="#000000" stroke="none" stroke-dasharray="none" d="M116 295.29999999999995M121.0112 276.95439999999996C121.04 276.9256,121.4432 276.9256,122.6816 276.9256C123.056 276.9256,123.4592 276.9256,123.9776 276.9256L126.8864 276.9256L126.9728 277.01199999999994C127.1168 277.09839999999997,127.2032 277.2424,127.2032 277.35759999999993C127.2032 277.53039999999993,127.1168 277.64559999999994,127.0016 277.76079999999996C126.9728 277.84719999999993,126.7136 278.07759999999996,126.5408 278.3367999999999L125.0144 280.0936L123.056 282.31119999999993L122.0192 283.49199999999996L120.464 285.27759999999995L118.4192 287.61039999999997C118.0736 288.04239999999993,117.6992 288.388,117.6992 288.388C117.6992 288.388,117.6992 288.388,117.6992 288.388C117.6992 288.44559999999996,117.9584 288.44559999999996,120.3488 288.44559999999996L122.9696 288.44559999999996L122.9696 286.57359999999994C122.9696 284.67279999999994,122.9696 284.64399999999995,122.9984 284.61519999999996C123.056 284.52879999999993,123.3152 284.21199999999993,124.3232 283.03119999999996L124.7264 282.59919999999994L125.1296 282.1672L125.7344 281.3896L126.368 280.7272L126.6848 280.32399999999996C126.8 280.15119999999996,126.9728 280.12239999999997,127.1168 280.12239999999997C127.28960000000001 280.12239999999997,127.4336 280.20879999999994,127.52 280.35279999999995C127.5488 280.43919999999997,127.5488 280.49679999999995,127.5488 282.62799999999993C127.5488 283.1176,127.5488 283.72239999999994,127.5488 284.44239999999996L127.5488 288.44559999999996L128.2688 288.44559999999996C128.9312 288.44559999999996,128.96 288.44559999999996,129.0464 288.47439999999995C129.2768 288.5608,129.392 288.79119999999995,129.392 289.05039999999997C129.392 289.1944,129.3632 289.36719999999997,129.248 289.4823999999999C129.0752 289.62639999999993,129.0464 289.62639999999993,128.2688 289.62639999999993L127.5488 289.62639999999993L127.5488 290.11599999999993C127.5776 291.5848,127.8656 292.16079999999994,128.9888 292.76559999999995C129.392 292.96719999999993,129.4784 293.02479999999997,129.4784 293.3128C129.4784 293.51439999999997,129.42079999999999 293.60079999999994,129.2768 293.71599999999995L129.1904 293.74479999999994L125.2448 293.74479999999994L121.328 293.74479999999994L121.2416 293.71599999999995C121.0688 293.60079999999994,121.04 293.51439999999997,121.04 293.3128C121.04 293.02479999999997,121.0688 292.96719999999993,121.5008 292.76559999999995C122.624 292.16079999999994,122.912 291.5848,122.912 290.11599999999993L122.912 289.62639999999993L119.6 289.62639999999993C118.9952 289.68399999999997,118.5056 289.68399999999997,118.1024 289.68399999999997C116.288 289.68399999999997,116.2592 289.62639999999993,116.2304 289.62639999999993C116.0576 289.56879999999995,116 289.39599999999996,116 289.1944C116 289.1944,116 289.1944,116 289.1944C116 288.99279999999993,116 288.99279999999993,116.576 288.33039999999994C118.9952 285.39279999999997,120.6944 281.13039999999995,120.6944 277.73199999999997C120.6944 277.21359999999993,120.7808 277.04079999999993,121.0112 276.95439999999996M122.7392 295.32879999999994L122.768 295.32879999999994L122.6816 295.32879999999994L122.7392 295.32879999999994M122.7392 275.91759999999994L122.768 275.91759999999994L122.6816 275.91759999999994L122.7392 275.91759999999994"></path><g class="vf-stavenote" id="vf-auto1777085"><g class="vf-note" pointer-events="bounding-box"><g class="vf-stem" pointer-events="bounding-box"><path stroke-width="1.5" fill="none" stroke="#000000" stroke-dasharray="none" class="vf-stem" id="vf-auto1777085-stem" d="M222.48919999999998 255.29999999999995L222.48919999999998 290.29999999999995"></path></g><g class="vf-notehead" pointer-events="bounding-box"><path stroke-width="0.3" fill="#000000" stroke="none" stroke-dasharray="none" d="M221.73919999999998 255.29999999999995M229.09615999999997 250.07711999999995C229.20847999999998 250.07711999999995,229.37696 250.07711999999995,229.40503999999999 250.07711999999995C229.40503999999999 250.07711999999995,229.43311999999997 250.07711999999995,229.43311999999997 250.07711999999995C229.43311999999997 250.07711999999995,229.6016 250.07711999999995,229.742 250.07711999999995C232.26919999999998 250.21751999999995,233.75743999999997 251.87423999999996,233.75743999999997 253.95215999999996C233.75743999999997 254.96303999999995,233.42048 256.11431999999996,232.57807999999997 257.20944C230.97751999999997 259.37159999999994,228.36607999999998 260.55096,226.09159999999997 260.55096C224.32255999999998 260.55096,222.80623999999997 259.84896,222.07616 258.41687999999994C221.85152 257.85527999999994,221.73919999999998 257.3217599999999,221.73919999999998 256.73207999999994C221.73919999999998 253.67135999999996,225.16495999999998 250.27367999999996,229.09615999999997 250.07711999999995"></path></g></g><g class="vf-modifiers"></g></g><g class="vf-stavenote" id="vf-auto1777093"><g class="vf-note" pointer-events="bounding-box"><g class="vf-stem" pointer-events="bounding-box"><path stroke-width="1.5" fill="none" stroke="#000000" stroke-dasharray="none" class="vf-stem" id="vf-auto1777093-stem" d="M273.13784 275.29999999999995L273.13784 240.29999999999995"></path></g><g class="vf-notehead" pointer-events="bounding-box"><path stroke-width="0.3" fill="#000000" stroke="none" stroke-dasharray="none" d="M261.8696 275.29999999999995M269.22656 270.07712C269.33888 270.07712,269.50736 270.07712,269.53544 270.07712C269.53544 270.07712,269.56352 270.07712,269.56352 270.07712C269.56352 270.07712,269.73199999999997 270.07712,269.87239999999997 270.07712C272.39959999999996 270.21752,273.88784 271.87423999999993,273.88784 273.95215999999994C273.88784 274.96304,273.55088 276.11431999999996,272.70848 277.20944C271.10792 279.37159999999994,268.49648 280.55096,266.222 280.55096C264.45296 280.55096,262.93664 279.84896,262.20655999999997 278.41687999999994C261.98192 277.85527999999994,261.8696 277.3217599999999,261.8696 276.73207999999994C261.8696 273.67135999999994,265.29536 270.27367999999996,269.22656 270.07712"></path></g></g><g class="vf-modifiers"></g></g><rect stroke-width="0.3" fill="#000000" stroke="#000000" stroke-dasharray="none" x="300.14522239999997" y="166.5" width="1" height="129.79999999999995"></rect><rect stroke-width="0.3" fill="#000000" stroke="#000000" stroke-dasharray="none" x="70" y="166.5" width="1" height="129.79999999999995"></rect><path stroke-width="1" fill="none" stroke="#000000" stroke-dasharray="none" d="M300.14522239999997 255.29999999999998L452.5120447999999 255.29999999999998"></path><path stroke-width="1" fill="none" stroke="#000000" stroke-dasharray="none" d="M300.14522239999997 265.29999999999995L452.5120447999999 265.29999999999995"></path><path stroke-width="1" fill="none" stroke="#000000" stroke-dasharray="none" d="M300.14522239999997 275.29999999999995L452.5120447999999 275.29999999999995"></path><path stroke-width="1" fill="none" stroke="#000000" stroke-dasharray="none" d="M300.14522239999997 285.29999999999995L452.5120447999999 285.29999999999995"></path><path stroke-width="1" fill="none" stroke="#000000" stroke-dasharray="none" d="M300.14522239999997 295.29999999999995L452.5120447999999 295.29999999999995"></path><rect stroke-width="0.3" fill="#000000" stroke="#000000" stroke-dasharray="none" x="452.5120447999999" y="254.79999999999998" width="1" height="40.99999999999997"></rect><g class="vf-stavenote" id="vf-auto1777129"><g class="vf-note" pointer-events="bounding-box"><g class="vf-stem" pointer-events="bounding-box"><path stroke-width="1.5" fill="none" stroke="#000000" stroke-dasharray="none" class="vf-stem" id="vf-auto1777129-stem" d="M386.39522239999997 255.29999999999995L386.39522239999997 290.29999999999995"></path></g><g class="vf-notehead" pointer-events="bounding-box"><path stroke-width="0.3" fill="#000000" stroke="none" stroke-dasharray="none" d="M385.64522239999997 255.29999999999995M393.0021824 250.07711999999995C393.1145024 250.07711999999995,393.2829824 250.07711999999995,393.31106239999997 250.07711999999995C393.31106239999997 250.07711999999995,393.33914239999996 250.07711999999995,393.33914239999996 250.07711999999995C393.33914239999996 250.07711999999995,393.50762239999995 250.07711999999995,393.64802239999995 250.07711999999995C396.17522239999994 250.21751999999995,397.66346239999996 251.87423999999996,397.66346239999996 253.95215999999996C397.66346239999996 254.96303999999995,397.3265024 256.11431999999996,396.4841024 257.20944C394.88354239999995 259.37159999999994,392.2721024 260.55096,389.99762239999995 260.55096C388.2285824 260.55096,386.7122624 259.84896,385.98218239999994 258.41687999999994C385.7575424 257.85527999999994,385.64522239999997 257.3217599999999,385.64522239999997 256.73207999999994C385.64522239999997 253.67135999999996,389.0709824 250.27367999999996,393.0021824 250.07711999999995"></path></g></g><g class="vf-modifiers"></g></g><rect stroke-width="0.3" fill="#000000" stroke="#000000" stroke-dasharray="none" x="452.5120447999999" y="166.5" width="1" height="129.79999999999995"></rect><path stroke-width="1" fill="none" stroke="#000000" stroke-dasharray="none" d="M452.5120447999999 255.29999999999998L604.8788671999998 255.29999999999998"></path><path stroke-width="1" fill="none" stroke="#000000" stroke-dasharray="none" d="M452.5120447999999 265.29999999999995L604.8788671999998 265.29999999999995"></path><path stroke-width="1" fill="none" stroke="#000000" stroke-dasharray="none" d="M452.5120447999999 275.29999999999995L604.8788671999998 275.29999999999995"></path><path stroke-width="1" fill="none" stroke="#000000" stroke-dasharray="none" d="M452.5120447999999 285.29999999999995L604.8788671999998 285.29999999999995"></path><path stroke-width="1" fill="none" stroke="#000000" stroke-dasharray="none" d="M452.5120447999999 295.29999999999995L604.8788671999998 295.29999999999995"></path><rect stroke-width="0.3" fill="#000000" stroke="#000000" stroke-dasharray="none" x="604.8788671999998" y="254.79999999999998" width="1" height="40.99999999999997"></rect><g class="vf-stavenote" id="vf-auto1777166"><g class="vf-note" pointer-events="bounding-box"><g class="vf-stem" pointer-events="bounding-box"><path stroke-width="1.5" fill="none" stroke="#000000" stroke-dasharray="none" class="vf-stem" id="vf-auto1777166-stem" d="M583.5302847999999 295.29999999999995L583.5302847999999 260.29999999999995"></path></g><g class="vf-notehead" pointer-events="bounding-box"><path stroke-width="0.3" fill="#000000" stroke="none" stroke-dasharray="none" d="M572.2620447999999 295.29999999999995M579.6190047999999 290.07712C579.7313247999999 290.07712,579.8998047999999 290.07712,579.9278847999999 290.07712C579.9278847999999 290.07712,579.9559648 290.07712,579.9559648 290.07712C579.9559648 290.07712,580.1244447999999 290.07712,580.2648447999999 290.07712C582.7920447999999 290.21752,584.2802847999999 291.87423999999993,584.2802847999999 293.95215999999994C584.2802847999999 294.96304,583.9433247999999 296.11431999999996,583.1009247999999 297.20944C581.5003647999999 299.37159999999994,578.8889247999999 300.55096,576.6144447999999 300.55096C574.8454047999999 300.55096,573.3290847999999 299.84896,572.5990047999999 298.41687999999994C572.3743647999999 297.85527999999994,572.2620447999999 297.3217599999999,572.2620447999999 296.73207999999994C572.2620447999999 293.67135999999994,575.6878047999999 290.27367999999996,579.6190047999999 290.07712"></path></g></g><g class="vf-modifiers"></g></g><rect stroke-width="0.3" fill="#000000" stroke="#000000" stroke-dasharray="none" x="604.8788671999998" y="166.5" width="1" height="129.79999999999995"></rect><path stroke-width="1" fill="none" stroke="#000000" stroke-dasharray="none" d="M604.8788672 255.29999999999998L767.2456895999999 255.29999999999998"></path><path stroke-width="1" fill="none" stroke="#000000" stroke-dasharray="none" d="M604.8788672 265.29999999999995L767.2456895999999 265.29999999999995"></path><path stroke-width="1" fill="none" stroke="#000000" stroke-dasharray="none" d="M604.8788672 275.29999999999995L767.2456895999999 275.29999999999995"></path><path stroke-width="1" fill="none" stroke="#000000" stroke-dasharray="none" d="M604.8788672 285.29999999999995L767.2456895999999 285.29999999999995"></path><path stroke-width="1" fill="none" stroke="#000000" stroke-dasharray="none" d="M604.8788672 295.29999999999995L767.2456895999999 295.29999999999995"></path><rect stroke-width="0.3" fill="#000000" stroke="#000000" stroke-dasharray="none" x="762.2456895999999" y="254.79999999999998" width="1" height="40.99999999999997"></rect><rect stroke-width="0.3" fill="#000000" stroke="#000000" stroke-dasharray="none" x="765.2456895999999" y="254.79999999999998" width="3" height="40.99999999999997"></rect><path stroke-width="0.3" fill="#000000" stroke="none" stroke-dasharray="none" d="M761.2456895999999 270.79999999999995 A2 2 0 0 0 757.2456895999999 270.79999999999995M757.2456895999999 270.79999999999995 A2 2 0 0 0 761.2456895999999 270.79999999999995"></path><path stroke-width="0.3" fill="#000000" stroke="none" stroke-dasharray="none" d="M761.2456895999999 280.79999999999995 A2 2 0 0 0 757.2456895999999 280.79999999999995M757.2456895999999 280.79999999999995 A2 2 0 0 0 761.2456895999999 280.79999999999995"></path><g class="vf-stavenote" id="vf-auto1777201"><g class="vf-note" pointer-events="bounding-box"><g class="vf-stem" pointer-events="bounding-box"><path stroke-width="1.5" fill="none" stroke="#000000" stroke-dasharray="none" class="vf-stem" id="vf-auto1777201-stem" d="M669.8971071999999 290.29999999999995L669.8971071999999 255.29999999999995"></path></g><g class="vf-notehead" pointer-events="bounding-box"><path stroke-width="0.3" fill="#000000" stroke="none" stroke-dasharray="none" d="M658.6288672 290.29999999999995M665.9858271999999 285.07712C666.0981472 285.07712,666.2666271999999 285.07712,666.2947072 285.07712C666.2947072 285.07712,666.3227872 285.07712,666.3227872 285.07712C666.3227872 285.07712,666.4912671999999 285.07712,666.6316671999999 285.07712C669.1588671999999 285.21752,670.6471071999999 286.87423999999993,670.6471071999999 288.95215999999994C670.6471071999999 289.96304,670.3101472 291.11431999999996,669.4677472 292.20944C667.8671872 294.37159999999994,665.2557472 295.55096,662.9812671999999 295.55096C661.2122271999999 295.55096,659.6959072 294.84896,658.9658271999999 293.41687999999994C658.7411871999999 292.85527999999994,658.6288672 292.3217599999999,658.6288672 291.73207999999994C658.6288672 288.67135999999994,662.0546271999999 285.27367999999996,665.9858271999999 285.07712"></path></g></g><g class="vf-modifiers"></g></g><rect stroke-width="0.3" fill="#000000" stroke="#000000" stroke-dasharray="none" x="762.2456895999999" y="166.5" width="1" height="129.79999999999995"></rect><rect stroke-width="0.3" fill="#000000" stroke="#000000" stroke-dasharray="none" x="765.2456895999999" y="166.5" width="3" height="129.79999999999995"></rect><path stroke-width="0.3" fill="#000000" stroke="none" stroke-dasharray="none" d="M68 166.5C45.2 192.45999999999998,81.2 213.87699999999998,56 231.39999999999998C81.2 248.92299999999997,45.2 270.34,68 296.29999999999995C44 270.34,72.8 248.92299999999997,56 231.39999999999998C72.8 213.87699999999998,44 192.45999999999998,68 166.5"></path><path stroke-width="1" fill="none" stroke="#000000" stroke-dasharray="none" d="M68 166.5C45.2 192.45999999999998,81.2 213.87699999999998,56 231.39999999999998C81.2 248.92299999999997,45.2 270.34,68 296.29999999999995C44 270.34,72.8 248.92299999999997,56 231.39999999999998C72.8 213.87699999999998,44 192.45999999999998,68 166.5"></path><g class="vf-text"><text stroke-width="0.3" fill="#000000" stroke="none" stroke-dasharray="none" font-family="Times New Roman" font-size="15px" font-weight="normal" font-style="normal" x="449.0120447999999" y="163.5">3</text></g></svg>