<svg xmlns="http://www.w3.org/2000/svg"  width="1470" height="408.6" viewBox="0 0 1470 408.6"><path stroke-width="1" fill="none" stroke="#000000" stroke-dasharray="none" d="M70 166.5L300.14522239999997 166.5"></path><path stroke-width="1" fill="none" stroke="#000000" stroke-dasharray="none" d="M70 176.5L300.14522239999997 176.5"></path><path stroke-width="1" fill="none" stroke="#000000" stroke-dasharray="none" d="M70 186.5L300.14522239999997 186.5"></path><path stroke-width="1" fill="none" stroke="#000000" stroke-dasharray="none" d="M70 196.5L300.14522239999997 196.5"></path><path stroke-width="1" fill="none" stroke="#000000" stroke-dasharray="none" d="M70 206.5L300.14522239999997 206.5"></path><rect stroke-width="0.3" fill="#000000" stroke="#000000" stroke-dasharray="none" x="300.14522239999997" y="166" width="1" height="41"></rect><g class="vf-clef"><path stroke-width="0.3" fill="#000000" stroke="none" stroke-dasharray="none" d="M75 196.5M89.0544 153.3288C89.112 153.3,89.1696 153.3,89.256 153.3C89.6016 153.3,90.0048 153.588,90.5808 154.308C92.9136 156.9864,94.5552 161.652,94.5552 165.4536C94.5552 165.7416,94.4976 165.972,94.4976 166.26C94.2384 170.7816,92.3952 174.4968,88.7376 178.0104L87.7584 178.9608L87.4128 179.3352L87.4128 179.4504L87.6144 180.3144L87.9312 181.8696L88.248 183.3096C88.68 185.268,88.8528 186.276,88.8528 186.276C88.8528 186.276,88.8528 186.276,88.8528 186.276C88.8528 186.276,88.968 186.276,89.112 186.2472C89.256 186.2472,89.7168 186.1896,90.2064 186.1896C90.55199999999999 186.1896,90.8976 186.2472,91.0704 186.2472C95.1312 186.7656,98.2704 189.6744,99.1632 193.764C99.336 194.4264,99.39359999999999 195.1464,99.39359999999999 195.8664C99.39359999999999 199.7544,97.0608 203.4696,93.1728 205.2264C92.94239999999999 205.3704,92.856 205.3992,92.856 205.3992L92.856 205.428C92.856 205.428,93.0288 206.0904,93.1728 206.8392L93.6048 209.028L94.008 210.7848C94.2384 211.908,94.3536 212.7144,94.3536 213.4344C94.3536 214.06799999999998,94.2672 214.644,94.1232 215.3064C93.144 219.3096,89.6592 221.7,86.0304 221.7C84.2448 221.7,82.4016 221.124,80.7888 219.828C79.3488 218.6184,78.7152 217.524,78.7152 216.084C78.7152 213.5496,80.76 211.764,82.8912 211.764C83.64 211.764,84.3888 211.99439999999998,85.1088 212.4264C86.3184 213.2616,86.8656 214.5288,86.8656 215.7672C86.8656 217.668,85.5408 219.54,83.2656 219.684L83.0352 219.684L83.208 219.79919999999998C84.1584 220.2024,85.1088 220.404,86.0304 220.404C88.3632 220.404,90.55199999999999 219.2232,91.8768 217.1784C92.62559999999999 216.0264,93.0288 214.6728,93.0288 213.3192C93.0288 212.8008,92.94239999999999 212.2824,92.8272 211.7064C92.8272 211.6488,92.74080000000001 211.188,92.62559999999999 210.756C91.992 207.6456,91.6176 205.8312,91.6176 205.8312C91.6176 205.8312,91.6176 205.8312,91.6176 205.8312C91.56 205.8312,91.4448 205.8312,91.3584 205.8888C91.0704 205.9464,90.4656 206.0904,90.2064 206.1192C89.5728 206.2056,88.968 206.2344,88.392 206.2344C82.74719999999999 206.2344,77.5056 202.4328,75.6912 196.8168C75.2304 195.3192,74.9712 193.8216,74.9712 192.324C74.9712 189.3288,75.9216 186.3912,77.7648 183.7704C79.7808 180.9192,81.7968 178.4712,84.2736 175.9368L85.13759999999999 175.044L84.936 173.9784L84.5616 172.2216L84.072 169.9752C83.928 169.14,83.7552 168.3336,83.7264 168.1608C83.5824 167.2104,83.496 166.2888,83.496 165.3384C83.496 161.7096,84.6768 158.22480000000002,86.8944 155.4312C87.5568 154.5672,88.7376 153.4152,89.0544 153.3288M90.8112 159.0312C90.7536 159.0312,90.6672 159.0312,90.5808 159.0312C89.4 159.0312,87.8736 160.1256,86.8368 161.7384C85.7712 163.32240000000002,85.224 165.4248,85.224 167.5848C85.224 168.1608,85.25280000000001 168.7656,85.3392 169.3704C85.4256 169.8024,85.45439999999999 170.0904,85.6848 171.12720000000002L86.088 172.9416C86.2032 173.4888,86.28960000000001 173.92079999999999,86.28960000000001 173.9784L86.28960000000001 173.9784C86.3184 173.9784,87.2112 172.9992,87.4992 172.6536C90.3792 169.3992,92.1072 165.972,92.4816 162.948C92.5104 162.66,92.5104 162.4296,92.5104 162.1416C92.5104 161.24880000000002,92.3952 160.38479999999998,92.1936 159.924C91.9632 159.4632,91.4448 159.0888,90.8112 159.0312M86.4624 181.2936C86.4048 180.8904,86.3184 180.5736,86.3184 180.516C86.3184 180.516,86.3184 180.516,86.28960000000001 180.516C86.232 180.516,84.9936 181.956,84.1296 182.964C82.6608 184.7496,81.1056 186.8808,80.472 187.9176C79.2624 189.9624,78.6576 192.2376,78.6576 194.484C78.6576 195.9528,78.9456 197.364,79.464 198.7176C81.0192 202.7208,84.5904 205.2264,88.4784 205.2264C88.9392 205.2264,89.4576 205.1976,89.9472 205.1112C90.5808 204.996,91.3584 204.7656,91.3584 204.6792L91.3584 204.6792C91.3584 204.6792,91.3008 204.3912,91.2144 204.0744L90.3792 199.956L89.7168 196.8744L89.2848 194.7432L88.824 192.6696C88.5936 191.4312,88.5072 191.1144,88.5072 191.1144C88.5072 191.1144,88.5072 191.0856,88.4784 191.0856C88.3056 191.0856,87.384 191.5464,86.9808 191.8344C85.4832 192.8712,84.7056 194.5128,84.7056 196.1256C84.7056 197.652,85.45439999999999 199.1784,86.8944 200.0712C87.2112 200.2728,87.3264 200.4456,87.3264 200.6472C87.3264 200.676,87.3264 200.7624,87.3264 200.7912C87.2688 201.1368,87.0672 201.2808,86.7792 201.2808C86.664 201.2808,86.52 201.252,86.3472 201.1656C83.6976 200.0136,81.912 197.2776,81.912 194.2824L81.912 194.2824C81.912 190.8264,84.072 187.8312,87.384 186.6504L87.5568 186.5928L87.2688 185.1528L86.4624 181.2936M90.7824 190.9128C90.55199999999999 190.88400000000001,90.3216 190.88400000000001,90.1488 190.88400000000001C90.0912 190.88400000000001,90.0048 190.88400000000001,89.9472 190.88400000000001L89.8032 190.88400000000001L89.9184 191.4024L90.5232 194.2248L90.8976 196.068L91.3008 197.8824L92.1072 201.8856L92.424 203.412C92.5392 203.8152,92.5968 204.1608,92.62559999999999 204.1608C92.62559999999999 204.1608,92.62559999999999 204.1608,92.62559999999999 204.1608C92.6544 204.1608,93.144 203.8728,93.4608 203.6424C94.9296 202.6056,96.024 200.9928,96.4272 199.3224C96.5712 198.7752,96.6288 198.1992,96.6288 197.652C96.6288 194.3112,94.152 191.2872,90.7824 190.9128"></path></g><path stroke-width="0.3" fill="#000000" stroke="none" stroke-dasharray="none" d="M116 186.5M121.0112 168.1544C121.04 168.1256,121.4432 168.1256,122.6816 168.1256C123.056 168.1256,123.4592 168.1256,123.9776 168.1256L126.8864 168.1256L126.9728 168.212C127.1168 168.29840000000002,127.2032 168.4424,127.2032 168.5576C127.2032 168.7304,127.1168 168.8456,127.0016 168.9608C126.9728 169.0472,126.7136 169.2776,126.5408 169.5368L125.0144 171.2936L123.056 173.5112L122.0192 174.692L120.464 176.4776L118.4192 178.8104C118.0736 179.2424,117.6992 179.588,117.6992 179.588C117.6992 179.588,117.6992 179.588,117.6992 179.588C117.6992 179.6456,117.9584 179.6456,120.3488 179.6456L122.9696 179.6456L122.9696 177.7736C122.9696 175.8728,122.9696 175.844,122.9984 175.8152C123.056 175.7288,123.3152 175.412,124.3232 174.2312L124.7264 173.7992L125.1296 173.3672L125.7344 172.5896L126.368 171.9272L126.6848 171.524C126.8 171.3512,126.9728 171.3224,127.1168 171.3224C127.28960000000001 171.3224,127.4336 171.4088,127.52 171.5528C127.5488 171.6392,127.5488 171.6968,127.5488 173.828C127.5488 174.3176,127.5488 174.9224,127.5488 175.6424L127.5488 179.6456L128.2688 179.6456C128.9312 179.6456,128.96 179.6456,129.0464 179.6744C129.2768 179.7608,129.392 179.9912,129.392 180.2504C129.392 180.3944,129.3632 180.5672,129.248 180.6824C129.0752 180.8264,129.0464 180.8264,128.2688 180.8264L127.5488 180.8264L127.5488 181.316C127.5776 182.7848,127.8656 183.3608,128.9888 183.9656C129.392 184.1672,129.4784 184.2248,129.4784 184.5128C129.4784 184.7144,129.42079999999999 184.8008,129.2768 184.916L129.1904 184.9448L125.2448 184.9448L121.328 184.9448L121.2416 184.916C121.0688 184.8008,121.04 184.7144,121.04 184.5128C121.04 184.2248,121.0688 184.1672,121.5008 183.9656C122.624 183.3608,122.912 182.7848,122.912 181.316L122.912 180.8264L119.6 180.8264C118.9952 180.88400000000001,118.5056 180.88400000000001,118.1024 180.88400000000001C116.288 180.88400000000001,116.2592 180.8264,116.2304 180.8264C116.0576 180.7688,116 180.596,116 180.3944C116 180.3944,116 180.3944,116 180.3944C116 180.1928,116 180.1928,116.576 179.5304C118.9952 176.5928,120.6944 172.3304,120.6944 168.93200000000002C120.6944 168.4136,120.7808 168.2408,121.0112 168.1544M122.7392 186.5288L122.768 186.5288L122.6816 186.5288L122.7392 186.5288M122.7392 167.1176L122.768 167.1176L122.6816 167.1176L122.7392 167.1176"></path><path stroke-width="0.3" fill="#000000" stroke="none" stroke-dasharray="none" d="M116 206.5M121.0112 188.1544C121.04 188.1256,121.4432 188.1256,122.6816 188.1256C123.056 188.1256,123.4592 188.1256,123.9776 188.1256L126.8864 188.1256L126.9728 188.212C127.1168 188.29840000000002,127.2032 188.4424,127.2032 188.5576C127.2032 188.7304,127.1168 188.8456,127.0016 188.9608C126.9728 189.0472,126.7136 189.2776,126.5408 189.5368L125.0144 191.2936L123.056 193.5112L122.0192 194.692L120.464 196.4776L118.4192 198.8104C118.0736 199.2424,117.6992 199.588,117.6992 199.588C117.6992 199.588,117.6992 199.588,117.6992 199.588C117.6992 199.6456,117.9584 199.6456,120.3488 199.6456L122.9696 199.6456L122.9696 197.7736C122.9696 195.8728,122.9696 195.844,122.9984 195.8152C123.056 195.7288,123.3152 195.412,124.3232 194.2312L124.7264 193.7992L125.1296 193.3672L125.7344 192.5896L126.368 191.9272L126.6848 191.524C126.8 191.3512,126.9728 191.3224,127.1168 191.3224C127.28960000000001 191.3224,127.4336 191.4088,127.52 191.5528C127.5488 191.6392,127.5488 191.6968,127.5488 193.828C127.5488 194.3176,127.5488 194.9224,127.5488 195.6424L127.5488 199.6456L128.2688 199.6456C128.9312 199.6456,128.96 199.6456,129.0464 199.6744C129.2768 199.7608,129.392 199.9912,129.392 200.2504C129.392 200.3944,129.3632 200.5672,129.248 200.6824C129.0752 200.8264,129.0464 200.8264,128.2688 200.8264L127.5488 200.8264L127.5488 201.316C127.5776 202.7848,127.8656 203.3608,128.9888 203.9656C129.392 204.1672,129.4784 204.2248,129.4784 204.5128C129.4784 204.7144,129.42079999999999 204.8008,129.2768 204.916L129.1904 204.9448L125.2448 204.9448L121.328 204.9448L121.2416 204.916C121.0688 204.8008,121.04 204.7144,121.04 204.5128C121.04 204.2248,121.0688 204.1672,121.5008 203.9656C122.624 203.3608,122.912 202.7848,122.912 201.316L122.912 200.8264L119.6 200.8264C118.9952 200.88400000000001,118.5056 200.88400000000001,118.1024 200.88400000000001C116.288 200.88400000000001,116.2592 200.8264,116.2304 200.8264C116.0576 200.7688,116 200.596,116 200.3944C116 200.3944,116 200.3944,116 200.3944C116 200.1928,116 200.1928,116.576 199.5304C118.9952 196.5928,120.6944 192.3304,120.6944 188.93200000000002C120.6944 188.4136,120.7808 188.2408,121.0112 188.1544M122.7392 206.5288L122.768 206.5288L122.6816 206.5288L122.7392 206.5288M122.7392 187.1176L122.768 187.1176L122.6816 187.1176L122.7392 187.1176"></path><path stroke-width="1" fill="none" stroke="#000000" stroke-dasharray="none" d="M178.6088 216.5L196.62704 216.5"></path><g class="vf-stavenote" id="vf-auto1606897"><g class="vf-note" pointer-events="bounding-box"><g class="vf-stem" pointer-events="bounding-box"><path stroke-width="1.5" fill="none" stroke="#000000" stroke-dasharray="none" class="vf-stem" id="vf-auto1606897-stem" d="M192.87704 221.5L192.87704 186.5"></path></g><g class="vf-notehead" pointer-events="bounding-box"><path stroke-width="0.3" fill="#000000" stroke="none" stroke-dasharray="none" d="M181.6088 221.5M188.96576 216.27712C189.07808 216.27712,189.24656 216.27712,189.27464 216.27712C189.27464 216.27712,189.30272 216.27712,189.30272 216.27712C189.30272 216.27712,189.4712 216.27712,189.6116 216.27712C192.1388 216.41752,193.62704 218.07424,193.62704 220.15216C193.62704 221.16304,193.29008 222.31432,192.44768 223.40944C190.84712 225.5716,188.23568 226.75096,185.9612 226.75096C184.19216 226.75096,182.67584 226.04896,181.94576 224.61688C181.72112 224.05528,181.6088 223.52176,181.6088 222.93208C181.6088 219.87136,185.03456 216.47368,188.96576 216.27712"></path></g></g><g class="vf-modifiers"></g></g><g class="vf-stavenote" id="vf-auto1606905"><g class="vf-note" pointer-events="bounding-box"><g class="vf-stem" pointer-events="bounding-box"><path stroke-width="1.5" fill="none" stroke="#000000" stroke-dasharray="none" class="vf-stem" id="vf-auto1606905-stem" d="M233.00743999999997 191.5L233.00743999999997 156.5"></path></g><g class="vf-notehead" pointer-events="bounding-box"><path stroke-width="0.3" fill="#000000" stroke="none" stroke-dasharray="none" d="M221.73919999999998 191.5M229.09615999999997 186.27712C229.20847999999998 186.27712,229.37696 186.27712,229.40503999999999 186.27712C229.40503999999999 186.27712,229.43311999999997 186.27712,229.43311999999997 186.27712C229.43311999999997 186.27712,229.6016 186.27712,229.742 186.27712C232.26919999999998 186.41752,233.75743999999997 188.07424,233.75743999999997 190.15216C233.75743999999997 191.16304,233.42048 192.31432,232.57807999999997 193.40944C230.97751999999997 195.5716,228.36607999999998 196.75096,226.09159999999997 196.75096C224.32255999999998 196.75096,222.80623999999997 196.04896,222.07616 194.61688C221.85152 194.05528,221.73919999999998 193.52176,221.73919999999998 192.93208C221.73919999999998 189.87136,225.16495999999998 186.47368,229.09615999999997 186.27712"></path></g></g><g class="vf-modifiers"></g></g><path stroke-width="1" fill="none" stroke="#000000" stroke-dasharray="none" d="M300.14522239999997 166.5L439.91204479999993 166.5"></path><path stroke-width="1" fill="none" stroke="#000000" stroke-dasharray="none" d="M300.14522239999997 176.5L439.91204479999993 176.5"></path><path stroke-width="1" fill="none" stroke="#000000" stroke-dasharray="none" d="M300.14522239999997 186.5L439.91204479999993 186.5"></path><path stroke-width="1" fill="none" stroke="#000000" stroke-dasharray="none" d="M300.14522239999997 196.5L439.91204479999993 196.5"></path><path stroke-width="1" fill="none" stroke="#000000" stroke-dasharray="none" d="M300.14522239999997 206.5L439.91204479999993 206.5"></path><rect stroke-width="0.3" fill="#000000" stroke="#000000" stroke-dasharray="none" x="439.91204479999993" y="166" width="1" height="41"></rect><path stroke-width="1" fill="none" stroke="#000000" stroke-dasharray="none" d="M439.91204479999993 166.5L583.8788671999998 166.5"></path><path stroke-width="1" fill="none" stroke="#000000" stroke-dasharray="none" d="M439.91204479999993 176.5L583.8788671999998 176.5"></path><path stroke-width="1" fill="none" stroke="#000000" stroke-dasharray="none" d="M439.91204479999993 186.5L583.8788671999998 186.5"></path><path stroke-width="1" fill="none" stroke="#000000" stroke-dasharray="none" d="M439.91204479999993 196.5L583.8788671999998 196.5"></path><path stroke-width="1" fill="none" stroke="#000000" stroke-dasharray="none" d="M439.91204479999993 206.5L583.8788671999998 206.5"></path><rect stroke-width="0.3" fill="#000000" stroke="#000000" stroke-dasharray="none" x="583.8788671999998" y="166" width="1" height="41"></rect><path stroke-width="1" fill="none" stroke="#000000" stroke-dasharray="none" d="M485.91204479999993 216.5L503.9302847999999 216.5"></path><g class="vf-stavenote" id="vf-auto1606967"><g class="vf-note" pointer-events="bounding-box"><g class="vf-stem" pointer-events="bounding-box"><path stroke-width="1.5" fill="none" stroke="#000000" stroke-dasharray="none" class="vf-stem" id="vf-auto1606967-stem" d="M500.1802847999999 221.5L500.1802847999999 186.5"></path></g><g class="vf-notehead" pointer-events="bounding-box"><path stroke-width="0.3" fill="#000000" stroke="none" stroke-dasharray="none" d="M488.91204479999993 221.5M496.26900479999995 216.27712C496.38132479999996 216.27712,496.54980479999995 216.27712,496.57788479999994 216.27712C496.57788479999994 216.27712,496.6059647999999 216.27712,496.6059647999999 216.27712C496.6059647999999 216.27712,496.7744447999999 216.27712,496.9148447999999 216.27712C499.44204479999996 216.41752,500.9302847999999 218.07424,500.9302847999999 220.15216C500.9302847999999 221.16304,500.59332479999995 222.31432,499.75092479999995 223.40944C498.1503647999999 225.5716,495.5389247999999 226.75096,493.2644447999999 226.75096C491.49540479999996 226.75096,489.97908479999995 226.04896,489.2490047999999 224.61688C489.02436479999994 224.05528,488.91204479999993 223.52176,488.91204479999993 222.93208C488.91204479999993 219.87136,492.33780479999996 216.47368,496.26900479999995 216.27712"></path></g></g><g class="vf-modifiers"></g></g><path stroke-width="1" fill="none" stroke="#000000" stroke-dasharray="none" d="M583.8788672 166.5L742.0456895999998 166.5"></path><path stroke-width="1" fill="none" stroke="#000000" stroke-dasharray="none" d="M583.8788672 176.5L742.0456895999998 176.5"></path><path stroke-width="1" fill="none" stroke="#000000" stroke-dasharray="none" d="M583.8788672 186.5L742.0456895999998 186.5"></path><path stroke-width="1" fill="none" stroke="#000000" stroke-dasharray="none" d="M583.8788672 196.5L742.0456895999998 196.5"></path><path stroke-width="1" fill="none" stroke="#000000" stroke-dasharray="none" d="M583.8788672 206.5L742.0456895999998 206.5"></path><rect stroke-width="0.3" fill="#000000" stroke="#000000" stroke-dasharray="none" x="737.0456895999998" y="166" width="1" height="41"></rect><rect stroke-width="0.3" fill="#000000" stroke="#000000" stroke-dasharray="none" x="740.0456895999998" y="166" width="3" height="41"></rect><path stroke-width="0.3" fill="#000000" stroke="none" stroke-dasharray="none" d="M736.0456895999998 182 A2 2 0 0 0 732.0456895999998 182M732.0456895999998 182 A2 2 0 0 0 736.0456895999998 182"></path><path stroke-width="0.3" fill="#000000" stroke="none" stroke-dasharray="none" d="M736.0456895999998 192 A2 2 0 0 0 732.0456895999998 192M732.0456895999998 192 A2 2 0 0 0 736.0456895999998 192"></path><g class="vf-stavenote" id="vf-auto1607004"><g class="vf-note" pointer-events="bounding-box"><g class="vf-stem" pointer-events="bounding-box"><path stroke-width="1.5" fill="none" stroke="#000000" stroke-dasharray="none" class="vf-stem" id="vf-auto1607004-stem" d="M637.3788672 171.5L637.3788672 206.5"></path></g><g class="vf-notehead" pointer-events="bounding-box"><path stroke-width="0.3" fill="#000000" stroke="none" stroke-dasharray="none" d="M636.6288672 171.5M643.9858271999999 166.27712C644.0981472 166.27712,644.2666271999999 166.27712,644.2947072 166.27712C644.2947072 166.27712,644.3227872 166.27712,644.3227872 166.27712C644.3227872 166.27712,644.4912671999999 166.27712,644.6316671999999 166.27712C647.1588671999999 166.41752,648.6471071999999 168.07424,648.6471071999999 170.15216C648.6471071999999 171.16304,648.3101472 172.31432,647.4677472 173.40944C645.8671872 175.5716,643.2557472 176.75096,640.9812671999999 176.75096C639.2122271999999 176.75096,637.6959072 176.04896,636.9658271999999 174.61688C636.7411871999999 174.05528,636.6288672 173.52176,636.6288672 172.93208C636.6288672 169.87136,640.0546271999999 166.47368,643.9858271999999 166.27712"></path></g></g><g class="vf-modifiers"></g></g><g class="vf-stavenote" id="vf-auto1607012"><g class="vf-note" pointer-events="bounding-box"><g class="vf-stem" pointer-events="bounding-box"><path stroke-width="1.5" fill="none" stroke="#000000" stroke-dasharray="none" class="vf-stem" id="vf-auto1607012-stem" d="M683.6471071999999 196.5L683.6471071999999 161.5"></path></g><g class="vf-notehead" pointer-events="bounding-box"><path stroke-width="0.3" fill="#000000" stroke="none" stroke-dasharray="none" d="M672.3788672 196.5M679.7358271999999 191.27712C679.8481472 191.27712,680.0166271999999 191.27712,680.0447072 191.27712C680.0447072 191.27712,680.0727872 191.27712,680.0727872 191.27712C680.0727872 191.27712,680.2412671999999 191.27712,680.3816671999999 191.27712C682.9088671999999 191.41752,684.3971071999999 193.07424,684.3971071999999 195.15216C684.3971071999999 196.16304,684.0601472 197.31432,683.2177472 198.40944C681.6171872 200.5716,679.0057472 201.75096,676.7312671999999 201.75096C674.9622271999999 201.75096,673.4459072 201.04896,672.7158271999999 199.61688C672.4911871999999 199.05528,672.3788672 198.52176,672.3788672 197.93208C672.3788672 194.87136,675.8046271999999 191.47368,679.7358271999999 191.27712"></path></g></g><g class="vf-modifiers"></g></g><g class="vf-text"><text stroke-width="0.3" fill="#000000" stroke="none" stroke-dasharray="none" font-family="Times New Roman" font-size="23px" font-weight="bold" font-style="italic" x="165.4784" y="248.3">p</text></g><path stroke-width="1" fill="none" stroke="#000000" stroke-dasharray="none" d="M70 283.09999999999997L300.14522239999997 283.09999999999997"></path><path stroke-width="1" fill="none" stroke="#000000" stroke-dasharray="none" d="M70 293.09999999999997L300.14522239999997 293.09999999999997"></path><path stroke-width="1" fill="none" stroke="#000000" stroke-dasharray="none" d="M70 303.09999999999997L300.14522239999997 303.09999999999997"></path><path stroke-width="1" fill="none" stroke="#000000" stroke-dasharray="none" d="M70 313.09999999999997L300.14522239999997 313.09999999999997"></path><path stroke-width="1" fill="none" stroke="#000000" stroke-dasharray="none" d="M70 323.09999999999997L300.14522239999997 323.09999999999997"></path><rect stroke-width="0.3" fill="#000000" stroke="#000000" stroke-dasharray="none" x="300.14522239999997" y="282.59999999999997" width="1" height="41"></rect><g class="vf-clef"><path stroke-width="0.3" fill="#000000" stroke="none" stroke-dasharray="none" d="M75 293.09999999999997M83.8416 283.04879999999997C84.072 282.9912,84.3024 282.9912,84.5616 282.9912C85.5696 282.9912,86.7504 283.10639999999995,87.7584 283.308C92.4816 284.2872,95.736 287.484,96.3408 291.7464C96.3984 292.20719999999994,96.4272 292.63919999999996,96.4272 293.09999999999997C96.4272 295.69199999999995,95.5344 299.03279999999995,94.008 301.8264C90.3792 308.39279999999997,83.7552 313.116,75.8064 314.84399999999994C75.6624 314.84399999999994,75.5472 314.8728,75.4032 314.8728C75.1152 314.8728,74.9712 314.7,74.9712 314.44079999999997C74.9712 314.15279999999996,75.0288 314.0664,75.6048 313.83599999999996C84.7056 310.4088,90.7824 303.00719999999995,91.3296 294.71279999999996C91.3584 294.28079999999994,91.3584 293.79119999999995,91.3584 293.41679999999997C91.3584 289.3848,90.12 286.3896,87.7296 284.89199999999994C86.6928 284.22959999999995,85.5696 283.91279999999995,84.36 283.91279999999995C81.6816 283.91279999999995,78.9456 285.43919999999997,77.6784 288.00239999999997C77.6208 288.20399999999995,77.4192 288.63599999999997,77.4192 288.66479999999996C77.4192 288.66479999999996,77.4192 288.66479999999996,77.4192 288.66479999999996C77.4192 288.66479999999996,77.448 288.63599999999997,77.5344 288.6072C78.168 288.20399999999995,78.8592 288.00239999999997,79.5792 288.00239999999997C80.5872 288.00239999999997,81.6528 288.4344,82.4016 289.2408C83.0928 289.98959999999994,83.4672 290.9976,83.4672 291.9192C83.4672 293.79119999999995,82.0848 295.69199999999995,79.9248 295.8936C79.7808 295.8936,79.6368 295.9224,79.4928 295.9224C77.1024 295.9224,75.1728 293.73359999999997,75.1728 290.9688C75.1728 290.91119999999995,75.1728 290.8248,75.1728 290.796C75.288 286.6776,79.0608 283.308,83.8416 283.04879999999997M99.1632 286.90799999999996C99.2208 286.87919999999997,99.2496 286.87919999999997,99.336 286.87919999999997C99.5376 286.87919999999997,99.768 286.90799999999996,99.8256 286.9656C100.54560000000001 287.1672,100.8912 287.8008,100.8912 288.4056C100.8912 288.924,100.632 289.44239999999996,100.11359999999999 289.7304C99.912 289.8744,99.6528 289.90319999999997,99.39359999999999 289.90319999999997C98.9904 289.90319999999997,98.5584 289.7304,98.2704 289.356C98.03999999999999 289.068,97.9248 288.7512,97.9248 288.4344C97.9248 287.71439999999996,98.3856 286.9944,99.1632 286.90799999999996M99.1632 296.32559999999995C99.2208 296.32559999999995,99.2496 296.32559999999995,99.336 296.32559999999995C99.5376 296.32559999999995,99.768 296.35439999999994,99.8256 296.412C100.54560000000001 296.61359999999996,100.8912 297.24719999999996,100.8912 297.852C100.8912 298.37039999999996,100.632 298.88879999999995,100.11359999999999 299.14799999999997C99.912 299.292,99.6528 299.34959999999995,99.39359999999999 299.34959999999995C98.9904 299.34959999999995,98.5584 299.14799999999997,98.2704 298.8024C98.03999999999999 298.51439999999997,97.9248 298.19759999999997,97.9248 297.852C97.9248 297.13199999999995,98.3856 296.44079999999997,99.1632 296.32559999999995"></path></g><path stroke-width="0.3" fill="#000000" stroke="none" stroke-dasharray="none" d="M116 303.09999999999997M121.0112 284.7544C121.04 284.7256,121.4432 284.7256,122.6816 284.7256C123.056 284.7256,123.4592 284.7256,123.9776 284.7256L126.8864 284.7256L126.9728 284.81199999999995C127.1168 284.8984,127.2032 285.0424,127.2032 285.15759999999995C127.2032 285.33039999999994,127.1168 285.44559999999996,127.0016 285.5608C126.9728 285.64719999999994,126.7136 285.8776,126.5408 286.1368L125.0144 287.8936L123.056 290.11119999999994L122.0192 291.292L120.464 293.07759999999996L118.4192 295.4104C118.0736 295.84239999999994,117.6992 296.188,117.6992 296.188C117.6992 296.188,117.6992 296.188,117.6992 296.188C117.6992 296.24559999999997,117.9584 296.24559999999997,120.3488 296.24559999999997L122.9696 296.24559999999997L122.9696 294.37359999999995C122.9696 292.47279999999995,122.9696 292.44399999999996,122.9984 292.41519999999997C123.056 292.32879999999994,123.3152 292.01199999999994,124.3232 290.83119999999997L124.7264 290.39919999999995L125.1296 289.9672L125.7344 289.1896L126.368 288.5272L126.6848 288.12399999999997C126.8 287.9512,126.9728 287.9224,127.1168 287.9224C127.28960000000001 287.9224,127.4336 288.00879999999995,127.52 288.15279999999996C127.5488 288.2392,127.5488 288.29679999999996,127.5488 290.42799999999994C127.5488 290.9176,127.5488 291.52239999999995,127.5488 292.2424L127.5488 296.24559999999997L128.2688 296.24559999999997C128.9312 296.24559999999997,128.96 296.24559999999997,129.0464 296.27439999999996C129.2768 296.3608,129.392 296.59119999999996,129.392 296.8504C129.392 296.9944,129.3632 297.1672,129.248 297.28239999999994C129.0752 297.42639999999994,129.0464 297.42639999999994,128.2688 297.42639999999994L127.5488 297.42639999999994L127.5488 297.91599999999994C127.5776 299.3848,127.8656 299.96079999999995,128.9888 300.56559999999996C129.392 300.76719999999995,129.4784 300.8248,129.4784 301.1128C129.4784 301.3144,129.42079999999999 301.40079999999995,129.2768 301.51599999999996L129.1904 301.54479999999995L125.2448 301.54479999999995L121.328 301.54479999999995L121.2416 301.51599999999996C121.0688 301.40079999999995,121.04 301.3144,121.04 301.1128C121.04 300.8248,121.0688 300.76719999999995,121.5008 300.56559999999996C122.624 299.96079999999995,122.912 299.3848,122.912 297.91599999999994L122.912 297.42639999999994L119.6 297.42639999999994C118.9952 297.484,118.5056 297.484,118.1024 297.484C116.288 297.484,116.2592 297.42639999999994,116.2304 297.42639999999994C116.0576 297.36879999999996,116 297.19599999999997,116 296.9944C116 296.9944,116 296.9944,116 296.9944C116 296.79279999999994,116 296.79279999999994,116.576 296.13039999999995C118.9952 293.1928,120.6944 288.93039999999996,120.6944 285.532C120.6944 285.01359999999994,120.7808 284.84079999999994,121.0112 284.7544M122.7392 303.12879999999996L122.768 303.12879999999996L122.6816 303.12879999999996L122.7392 303.12879999999996M122.7392 283.71759999999995L122.768 283.71759999999995L122.6816 283.71759999999995L122.7392 283.71759999999995"></path><path stroke-width="0.3" fill="#000000" stroke="none" stroke-dasharray="none" d="M116 323.09999999999997M121.0112 304.7544C121.04 304.7256,121.4432 304.7256,122.6816 304.7256C123.056 304.7256,123.4592 304.7256,123.9776 304.7256L126.8864 304.7256L126.9728 304.81199999999995C127.1168 304.8984,127.2032 305.0424,127.2032 305.15759999999995C127.2032 305.33039999999994,127.1168 305.44559999999996,127.0016 305.5608C126.9728 305.64719999999994,126.7136 305.8776,126.5408 306.1368L125.0144 307.8936L123.056 310.11119999999994L122.0192 311.292L120.464 313.07759999999996L118.4192 315.4104C118.0736 315.84239999999994,117.6992 316.188,117.6992 316.188C117.6992 316.188,117.6992 316.188,117.6992 316.188C117.6992 316.24559999999997,117.9584 316.24559999999997,120.3488 316.24559999999997L122.9696 316.24559999999997L122.9696 314.37359999999995C122.9696 312.47279999999995,122.9696 312.44399999999996,122.9984 312.41519999999997C123.056 312.32879999999994,123.3152 312.01199999999994,124.3232 310.83119999999997L124.7264 310.39919999999995L125.1296 309.9672L125.7344 309.1896L126.368 308.5272L126.6848 308.12399999999997C126.8 307.9512,126.9728 307.9224,127.1168 307.9224C127.28960000000001 307.9224,127.4336 308.00879999999995,127.52 308.15279999999996C127.5488 308.2392,127.5488 308.29679999999996,127.5488 310.42799999999994C127.5488 310.9176,127.5488 311.52239999999995,127.5488 312.2424L127.5488 316.24559999999997L128.2688 316.24559999999997C128.9312 316.24559999999997,128.96 316.24559999999997,129.0464 316.27439999999996C129.2768 316.3608,129.392 316.59119999999996,129.392 316.8504C129.392 316.9944,129.3632 317.1672,129.248 317.28239999999994C129.0752 317.42639999999994,129.0464 317.42639999999994,128.2688 317.42639999999994L127.5488 317.42639999999994L127.5488 317.91599999999994C127.5776 319.3848,127.8656 319.96079999999995,128.9888 320.56559999999996C129.392 320.76719999999995,129.4784 320.8248,129.4784 321.1128C129.4784 321.3144,129.42079999999999 321.40079999999995,129.2768 321.51599999999996L129.1904 321.54479999999995L125.2448 321.54479999999995L121.328 321.54479999999995L121.2416 321.51599999999996C121.0688 321.40079999999995,121.04 321.3144,121.04 321.1128C121.04 320.8248,121.0688 320.76719999999995,121.5008 320.56559999999996C122.624 319.96079999999995,122.912 319.3848,122.912 317.91599999999994L122.912 317.42639999999994L119.6 317.42639999999994C118.9952 317.484,118.5056 317.484,118.1024 317.484C116.288 317.484,116.2592 317.42639999999994,116.2304 317.42639999999994C116.0576 317.36879999999996,116 317.19599999999997,116 316.9944C116 316.9944,116 316.9944,116 316.9944C116 316.79279999999994,116 316.79279999999994,116.576 316.13039999999995C118.9952 313.1928,120.6944 308.93039999999996,120.6944 305.532C120.6944 305.01359999999994,120.7808 304.84079999999994,121.0112 304.7544M122.7392 323.12879999999996L122.768 323.12879999999996L122.6816 323.12879999999996L122.7392 323.12879999999996M122.7392 303.71759999999995L122.768 303.71759999999995L122.6816 303.71759999999995L122.7392 303.71759999999995"></path><path stroke-width="1" fill="none" stroke="#000000" stroke-dasharray="none" d="M138.4784 273.09999999999997L156.49663999999999 273.09999999999997"></path><g class="vf-stavenote" id="vf-auto1606916"><g class="vf-note" pointer-events="bounding-box"><g class="vf-stem" pointer-events="bounding-box"><path stroke-width="1.5" fill="none" stroke="#000000" stroke-dasharray="none" class="vf-stem" id="vf-auto1606916-stem" d="M142.2284 268.09999999999997L142.2284 303.09999999999997"></path></g><g class="vf-notehead" pointer-events="bounding-box"><path stroke-width="0.3" fill="#000000" stroke="none" stroke-dasharray="none" d="M141.4784 268.09999999999997M148.83535999999998 262.87712C148.94768 262.87712,149.11615999999998 262.87712,149.14424 262.87712C149.14424 262.87712,149.17231999999998 262.87712,149.17231999999998 262.87712C149.17231999999998 262.87712,149.3408 262.87712,149.4812 262.87712C152.0084 263.01752,153.49663999999999 264.67423999999994,153.49663999999999 266.75215999999995C153.49663999999999 267.76304,153.15967999999998 268.91432,152.31727999999998 270.00944C150.71671999999998 272.17159999999996,148.10528 273.35096,145.83079999999998 273.35096C144.06176 273.35096,142.54543999999999 272.64896,141.81536 271.21687999999995C141.59072 270.65527999999995,141.4784 270.12175999999994,141.4784 269.53207999999995C141.4784 266.47135999999995,144.90416 263.07367999999997,148.83535999999998 262.87712"></path></g></g><g class="vf-modifiers"></g></g><g class="vf-stavenote" id="vf-auto1606924"><g class="vf-note" pointer-events="bounding-box"><g class="vf-stem" pointer-events="bounding-box"><path stroke-width="1.5" fill="none" stroke="#000000" stroke-dasharray="none" class="vf-stem" id="vf-auto1606924-stem" d="M262.6196 288.09999999999997L262.6196 323.09999999999997"></path></g><g class="vf-notehead" pointer-events="bounding-box"><path stroke-width="0.3" fill="#000000" stroke="none" stroke-dasharray="none" d="M261.8696 288.09999999999997M269.22656 282.87712C269.33888 282.87712,269.50736 282.87712,269.53544 282.87712C269.53544 282.87712,269.56352 282.87712,269.56352 282.87712C269.56352 282.87712,269.73199999999997 282.87712,269.87239999999997 282.87712C272.39959999999996 283.01752,273.88784 284.67423999999994,273.88784 286.75215999999995C273.88784 287.76304,273.55088 288.91432,272.70848 290.00944C271.10792 292.17159999999996,268.49648 293.35096,266.222 293.35096C264.45296 293.35096,262.93664 292.64896,262.20655999999997 291.21687999999995C261.98192 290.65527999999995,261.8696 290.12175999999994,261.8696 289.53207999999995C261.8696 286.47135999999995,265.29536 283.07367999999997,269.22656 282.87712"></path></g></g><g class="vf-modifiers"></g></g><rect stroke-width="0.3" fill="#000000" stroke="#000000" stroke-dasharray="none" x="300.14522239999997" y="166.5" width="1" height="157.59999999999997"></rect><rect stroke-width="0.3" fill="#000000" stroke="#000000" stroke-dasharray="none" x="70" y="166.5" width="1" height="157.59999999999997"></rect><path stroke-width="1" fill="none" stroke="#000000" stroke-dasharray="none" d="M300.14522239999997 283.09999999999997L439.91204479999993 283.09999999999997"></path><path stroke-width="1" fill="none" stroke="#000000" stroke-dasharray="none" d="M300.14522239999997 293.09999999999997L439.91204479999993 293.09999999999997"></path><path stroke-width="1" fill="none" stroke="#000000" stroke-dasharray="none" d="M300.14522239999997 303.09999999999997L439.91204479999993 303.09999999999997"></path><path stroke-width="1" fill="none" stroke="#000000" stroke-dasharray="none" d="M300.14522239999997 313.09999999999997L439.91204479999993 313.09999999999997"></path><path stroke-width="1" fill="none" stroke="#000000" stroke-dasharray="none" d="M300.14522239999997 323.09999999999997L439.91204479999993 323.09999999999997"></path><rect stroke-width="0.3" fill="#000000" stroke="#000000" stroke-dasharray="none" x="439.91204479999993" y="282.59999999999997" width="1" height="41"></rect><g class="vf-stavenote" id="vf-auto1606934"><g class="vf-note" pointer-events="bounding-box"><g class="vf-stem" pointer-events="bounding-box"><path stroke-width="1.5" fill="none" stroke="#000000" stroke-dasharray="none" class="vf-stem" id="vf-auto1606934-stem" d="M328.41346239999996 318.09999999999997L328.41346239999996 283.09999999999997"></path></g><g class="vf-notehead" pointer-events="bounding-box"><path stroke-width="0.3" fill="#000000" stroke="none" stroke-dasharray="none" d="M317.14522239999997 318.09999999999997M324.5021824 312.87712C324.6145024 312.87712,324.7829824 312.87712,324.81106239999997 312.87712C324.81106239999997 312.87712,324.83914239999996 312.87712,324.83914239999996 312.87712C324.83914239999996 312.87712,325.00762239999995 312.87712,325.14802239999995 312.87712C327.67522239999994 313.01752,329.16346239999996 314.67423999999994,329.16346239999996 316.75215999999995C329.16346239999996 317.76304,328.8265024 318.91432,327.9841024 320.00944C326.38354239999995 322.17159999999996,323.7721024 323.35096,321.49762239999995 323.35096C319.7285824 323.35096,318.2122624 322.64896,317.48218239999994 321.21687999999995C317.2575424 320.65527999999995,317.14522239999997 320.12175999999994,317.14522239999997 319.53207999999995C317.14522239999997 316.47135999999995,320.5709824 313.07367999999997,324.5021824 312.87712"></path></g></g><g class="vf-modifiers"></g></g><g class="vf-stavenote" id="vf-auto1606942"><g class="vf-note" pointer-events="bounding-box"><g class="vf-stem" pointer-events="bounding-box"><path stroke-width="1.5" fill="none" stroke="#000000" stroke-dasharray="none" class="vf-stem" id="vf-auto1606942-stem" d="M348.89522239999997 298.09999999999997L348.89522239999997 333.09999999999997"></path></g><g class="vf-notehead" pointer-events="bounding-box"><path stroke-width="0.3" fill="#000000" stroke="none" stroke-dasharray="none" d="M348.14522239999997 298.09999999999997M355.5021824 292.87712C355.6145024 292.87712,355.7829824 292.87712,355.81106239999997 292.87712C355.81106239999997 292.87712,355.83914239999996 292.87712,355.83914239999996 292.87712C355.83914239999996 292.87712,356.00762239999995 292.87712,356.14802239999995 292.87712C358.67522239999994 293.01752,360.16346239999996 294.67423999999994,360.16346239999996 296.75215999999995C360.16346239999996 297.76304,359.8265024 298.91432,358.9841024 300.00944C357.38354239999995 302.17159999999996,354.7721024 303.35096,352.49762239999995 303.35096C350.7285824 303.35096,349.2122624 302.64896,348.48218239999994 301.21687999999995C348.2575424 300.65527999999995,348.14522239999997 300.12175999999994,348.14522239999997 299.53207999999995C348.14522239999997 296.47135999999995,351.5709824 293.07367999999997,355.5021824 292.87712"></path></g></g><g class="vf-modifiers"></g></g><path stroke-width="1" fill="none" stroke="#000000" stroke-dasharray="none" d="M376.14522239999997 273.09999999999997L394.16346239999996 273.09999999999997"></path><g class="vf-stavenote" id="vf-auto1606950"><g class="vf-note" pointer-events="bounding-box"><g class="vf-stem" pointer-events="bounding-box"><path stroke-width="1.5" fill="none" stroke="#000000" stroke-dasharray="none" class="vf-stem" id="vf-auto1606950-stem" d="M379.89522239999997 273.09999999999997L379.89522239999997 308.09999999999997"></path></g><g class="vf-notehead" pointer-events="bounding-box"><path stroke-width="0.3" fill="#000000" stroke="none" stroke-dasharray="none" d="M379.14522239999997 273.09999999999997M386.5021824 267.87712C386.6145024 267.87712,386.7829824 267.87712,386.81106239999997 267.87712C386.81106239999997 267.87712,386.83914239999996 267.87712,386.83914239999996 267.87712C386.83914239999996 267.87712,387.00762239999995 267.87712,387.14802239999995 267.87712C389.67522239999994 268.01752,391.16346239999996 269.67423999999994,391.16346239999996 271.75215999999995C391.16346239999996 272.76304,390.8265024 273.91432,389.9841024 275.00944C388.38354239999995 277.17159999999996,385.7721024 278.35096,383.49762239999995 278.35096C381.7285824 278.35096,380.2122624 277.64896,379.48218239999994 276.21687999999995C379.2575424 275.65527999999995,379.14522239999997 275.12175999999994,379.14522239999997 274.53207999999995C379.14522239999997 271.47135999999995,382.5709824 268.07367999999997,386.5021824 267.87712"></path></g></g><g class="vf-modifiers"></g></g><g class="vf-stavenote" id="vf-auto1606958"><g class="vf-note" pointer-events="bounding-box"><g class="vf-stem" pointer-events="bounding-box"><path stroke-width="1.5" fill="none" stroke="#000000" stroke-dasharray="none" class="vf-stem" id="vf-auto1606958-stem" d="M410.89522239999997 288.09999999999997L410.89522239999997 323.09999999999997"></path></g><g class="vf-notehead" pointer-events="bounding-box"><path stroke-width="0.3" fill="#000000" stroke="none" stroke-dasharray="none" d="M410.14522239999997 288.09999999999997M417.5021824 282.87712C417.6145024 282.87712,417.7829824 282.87712,417.81106239999997 282.87712C417.81106239999997 282.87712,417.83914239999996 282.87712,417.83914239999996 282.87712C417.83914239999996 282.87712,418.00762239999995 282.87712,418.14802239999995 282.87712C420.67522239999994 283.01752,422.16346239999996 284.67423999999994,422.16346239999996 286.75215999999995C422.16346239999996 287.76304,421.8265024 288.91432,420.9841024 290.00944C419.38354239999995 292.17159999999996,416.7721024 293.35096,414.49762239999995 293.35096C412.7285824 293.35096,411.2122624 292.64896,410.48218239999994 291.21687999999995C410.2575424 290.65527999999995,410.14522239999997 290.12175999999994,410.14522239999997 289.53207999999995C410.14522239999997 286.47135999999995,413.5709824 283.07367999999997,417.5021824 282.87712"></path></g></g><g class="vf-modifiers"></g></g><rect stroke-width="0.3" fill="#000000" stroke="#000000" stroke-dasharray="none" x="439.91204479999993" y="166.5" width="1" height="157.59999999999997"></rect><path stroke-width="1" fill="none" stroke="#000000" stroke-dasharray="none" d="M439.91204479999993 283.09999999999997L583.8788671999998 283.09999999999997"></path><path stroke-width="1" fill="none" stroke="#000000" stroke-dasharray="none" d="M439.91204479999993 293.09999999999997L583.8788671999998 293.09999999999997"></path><path stroke-width="1" fill="none" stroke="#000000" stroke-dasharray="none" d="M439.91204479999993 303.09999999999997L583.8788671999998 303.09999999999997"></path><path stroke-width="1" fill="none" stroke="#000000" stroke-dasharray="none" d="M439.91204479999993 313.09999999999997L583.8788671999998 313.09999999999997"></path><path stroke-width="1" fill="none" stroke="#000000" stroke-dasharray="none" d="M439.91204479999993 323.09999999999997L583.8788671999998 323.09999999999997"></path><rect stroke-width="0.3" fill="#000000" stroke="#000000" stroke-dasharray="none" x="583.8788671999998" y="282.59999999999997" width="1" height="41"></rect><g class="vf-stavenote" id="vf-auto1606978"><g class="vf-note" pointer-events="bounding-box"><g class="vf-stem" pointer-events="bounding-box"><path stroke-width="1.5" fill="none" stroke="#000000" stroke-dasharray="none" class="vf-stem" id="vf-auto1606978-stem" d="M457.66204479999993 298.09999999999997L457.66204479999993 333.09999999999997"></path></g><g class="vf-notehead" pointer-events="bounding-box"><path stroke-width="0.3" fill="#000000" stroke="none" stroke-dasharray="none" d="M456.91204479999993 298.09999999999997M464.26900479999995 292.87712C464.38132479999996 292.87712,464.54980479999995 292.87712,464.57788479999994 292.87712C464.57788479999994 292.87712,464.6059647999999 292.87712,464.6059647999999 292.87712C464.6059647999999 292.87712,464.7744447999999 292.87712,464.9148447999999 292.87712C467.44204479999996 293.01752,468.9302847999999 294.67423999999994,468.9302847999999 296.75215999999995C468.9302847999999 297.76304,468.59332479999995 298.91432,467.75092479999995 300.00944C466.1503647999999 302.17159999999996,463.5389247999999 303.35096,461.2644447999999 303.35096C459.49540479999996 303.35096,457.97908479999995 302.64896,457.2490047999999 301.21687999999995C457.02436479999994 300.65527999999995,456.91204479999993 300.12175999999994,456.91204479999993 299.53207999999995C456.91204479999993 296.47135999999995,460.33780479999996 293.07367999999997,464.26900479999995 292.87712"></path></g></g><g class="vf-modifiers"></g></g><g class="vf-stavenote" id="vf-auto1606986"><g class="vf-note" pointer-events="bounding-box"><g class="vf-stem" pointer-events="bounding-box"><path stroke-width="1.5" fill="none" stroke="#000000" stroke-dasharray="none" class="vf-stem" id="vf-auto1606986-stem" d="M521.6620447999999 288.09999999999997L521.6620447999999 323.09999999999997"></path></g><g class="vf-notehead" pointer-events="bounding-box"><path stroke-width="0.3" fill="#000000" stroke="none" stroke-dasharray="none" d="M520.9120447999999 288.09999999999997M528.2690047999998 282.87712C528.3813247999999 282.87712,528.5498047999998 282.87712,528.5778847999999 282.87712C528.5778847999999 282.87712,528.6059647999999 282.87712,528.6059647999999 282.87712C528.6059647999999 282.87712,528.7744447999999 282.87712,528.9148447999999 282.87712C531.4420447999998 283.01752,532.9302847999999 284.67423999999994,532.9302847999999 286.75215999999995C532.9302847999999 287.76304,532.5933247999999 288.91432,531.7509247999999 290.00944C530.1503647999999 292.17159999999996,527.5389247999999 293.35096,525.2644447999999 293.35096C523.4954047999998 293.35096,521.9790847999999 292.64896,521.2490047999999 291.21687999999995C521.0243647999998 290.65527999999995,520.9120447999999 290.12175999999994,520.9120447999999 289.53207999999995C520.9120447999999 286.47135999999995,524.3378047999998 283.07367999999997,528.2690047999998 282.87712"></path></g></g><g class="vf-modifiers"></g></g><g class="vf-stavenote" id="vf-auto1606994"><g class="vf-note" pointer-events="bounding-box"><g class="vf-stem" pointer-events="bounding-box"><path stroke-width="1.5" fill="none" stroke="#000000" stroke-dasharray="none" class="vf-stem" id="vf-auto1606994-stem" d="M553.6620447999999 283.09999999999997L553.6620447999999 318.09999999999997"></path></g><g class="vf-notehead" pointer-events="bounding-box"><path stroke-width="0.3" fill="#000000" stroke="none" stroke-dasharray="none" d="M552.9120447999999 283.09999999999997M560.2690047999998 277.87712C560.3813247999999 277.87712,560.5498047999998 277.87712,560.5778847999999 277.87712C560.5778847999999 277.87712,560.6059647999999 277.87712,560.6059647999999 277.87712C560.6059647999999 277.87712,560.7744447999999 277.87712,560.9148447999999 277.87712C563.4420447999998 278.01752,564.9302847999999 279.67423999999994,564.9302847999999 281.75215999999995C564.9302847999999 282.76304,564.5933247999999 283.91432,563.7509247999999 285.00944C562.1503647999999 287.17159999999996,559.5389247999999 288.35096,557.2644447999999 288.35096C555.4954047999998 288.35096,553.9790847999999 287.64896,553.2490047999999 286.21687999999995C553.0243647999998 285.65527999999995,552.9120447999999 285.12175999999994,552.9120447999999 284.53207999999995C552.9120447999999 281.47135999999995,556.3378047999998 278.07367999999997,560.2690047999998 277.87712"></path></g></g><g class="vf-modifiers"></g></g><rect stroke-width="0.3" fill="#000000" stroke="#000000" stroke-dasharray="none" x="583.8788671999998" y="166.5" width="1" height="157.59999999999997"></rect><path stroke-width="1" fill="none" stroke="#000000" stroke-dasharray="none" d="M583.8788672 283.09999999999997L742.0456895999998 283.09999999999997"></path><path stroke-width="1" fill="none" stroke="#000000" stroke-dasharray="none" d="M583.8788672 293.09999999999997L742.0456895999998 293.09999999999997"></path><path stroke-width="1" fill="none" stroke="#000000" stroke-dasharray="none" d="M583.8788672 303.09999999999997L742.0456895999998 303.09999999999997"></path><path stroke-width="1" fill="none" stroke="#000000" stroke-dasharray="none" d="M583.8788672 313.09999999999997L742.0456895999998 313.09999999999997"></path><path stroke-width="1" fill="none" stroke="#000000" stroke-dasharray="none" d="M583.8788672 323.09999999999997L742.0456895999998 323.09999999999997"></path><rect stroke-width="0.3" fill="#000000" stroke="#000000" stroke-dasharray="none" x="737.0456895999998" y="282.59999999999997" width="1" height="41"></rect><rect stroke-width="0.3" fill="#000000" stroke="#000000" stroke-dasharray="none" x="740.0456895999998" y="282.59999999999997" width="3" height="41"></rect><path stroke-width="0.3" fill="#000000" stroke="none" stroke-dasharray="none" d="M736.0456895999998 298.59999999999997 A2 2 0 0 0 732.0456895999998 298.59999999999997M732.0456895999998 298.59999999999997 A2 2 0 0 0 736.0456895999998 298.59999999999997"></path><path stroke-width="0.3" fill="#000000" stroke="none" stroke-dasharray="none" d="M736.0456895999998 308.59999999999997 A2 2 0 0 0 732.0456895999998 308.59999999999997M732.0456895999998 308.59999999999997 A2 2 0 0 0 736.0456895999998 308.59999999999997"></path><path stroke-width="1" fill="none" stroke="#000000" stroke-dasharray="none" d="M597.8788672 273.09999999999997L615.8971071999999 273.09999999999997"></path><g class="vf-stavenote" id="vf-auto1607023"><g class="vf-note" pointer-events="bounding-box"><g class="vf-stem" pointer-events="bounding-box"><path stroke-width="1.5" fill="none" stroke="#000000" stroke-dasharray="none" class="vf-stem" id="vf-auto1607023-stem" d="M601.6288672 268.09999999999997L601.6288672 303.09999999999997"></path></g><g class="vf-notehead" pointer-events="bounding-box"><path stroke-width="0.3" fill="#000000" stroke="none" stroke-dasharray="none" d="M600.8788672 268.09999999999997M608.2358271999999 262.87712C608.3481472 262.87712,608.5166271999999 262.87712,608.5447072 262.87712C608.5447072 262.87712,608.5727872 262.87712,608.5727872 262.87712C608.5727872 262.87712,608.7412671999999 262.87712,608.8816671999999 262.87712C611.4088671999999 263.01752,612.8971071999999 264.67423999999994,612.8971071999999 266.75215999999995C612.8971071999999 267.76304,612.5601472 268.91432,611.7177472 270.00944C610.1171872 272.17159999999996,607.5057472 273.35096,605.2312671999999 273.35096C603.4622271999999 273.35096,601.9459072 272.64896,601.2158271999999 271.21687999999995C600.9911871999999 270.65527999999995,600.8788672 270.12175999999994,600.8788672 269.53207999999995C600.8788672 266.47135999999995,604.3046271999999 263.07367999999997,608.2358271999999 262.87712"></path></g></g><g class="vf-modifiers"></g></g><g class="vf-stavenote" id="vf-auto1607031"><g class="vf-note" pointer-events="bounding-box"><g class="vf-stem" pointer-events="bounding-box"><path stroke-width="1.5" fill="none" stroke="#000000" stroke-dasharray="none" class="vf-stem" id="vf-auto1607031-stem" d="M719.3971071999999 323.09999999999997L719.3971071999999 288.09999999999997"></path></g><g class="vf-notehead" pointer-events="bounding-box"><path stroke-width="0.3" fill="#000000" stroke="none" stroke-dasharray="none" d="M708.1288672 323.09999999999997M715.4858271999999 317.87712C715.5981472 317.87712,715.7666271999999 317.87712,715.7947072 317.87712C715.7947072 317.87712,715.8227872 317.87712,715.8227872 317.87712C715.8227872 317.87712,715.9912671999999 317.87712,716.1316671999999 317.87712C718.6588671999999 318.01752,720.1471071999999 319.67423999999994,720.1471071999999 321.75215999999995C720.1471071999999 322.76304,719.8101472 323.91432,718.9677472 325.00944C717.3671872 327.17159999999996,714.7557472 328.35096,712.4812671999999 328.35096C710.7122271999999 328.35096,709.1959072 327.64896,708.4658271999999 326.21687999999995C708.2411871999999 325.65527999999995,708.1288672 325.12175999999994,708.1288672 324.53207999999995C708.1288672 321.47135999999995,711.5546271999999 318.07367999999997,715.4858271999999 317.87712"></path></g></g><g class="vf-modifiers"></g></g><rect stroke-width="0.3" fill="#000000" stroke="#000000" stroke-dasharray="none" x="737.0456895999998" y="166.5" width="1" height="157.59999999999997"></rect><rect stroke-width="0.3" fill="#000000" stroke="#000000" stroke-dasharray="none" x="740.0456895999998" y="166.5" width="3" height="157.59999999999997"></rect><path stroke-width="0.3" fill="#000000" stroke="none" stroke-dasharray="none" d="M68 166.5C45.2 198.01999999999998,81.2 224.024,56 245.29999999999998C81.2 266.57599999999996,45.2 292.58,68 324.09999999999997C44 292.58,72.8 266.57599999999996,56 245.29999999999998C72.8 224.024,44 198.01999999999998,68 166.5"></path><path stroke-width="1" fill="none" stroke="#000000" stroke-dasharray="none" d="M68 166.5C45.2 198.01999999999998,81.2 224.024,56 245.29999999999998C81.2 266.57599999999996,45.2 292.58,68 324.09999999999997C44 292.58,72.8 266.57599999999996,56 245.29999999999998C72.8 224.024,44 198.01999999999998,68 166.5"></path><g class="vf-text"><text stroke-width="0.3" fill="#000000" stroke="none" stroke-dasharray="none" font-family="Times New Roman" font-size="15px" font-weight="normal" font-style="normal" x="436.41204479999993" y="163.5">3</text></g></svg>