<svg xmlns="http://www.w3.org/2000/svg"  width="1470" height="389.79999999999995" viewBox="0 0 1470 389.79999999999995"><path stroke-width="1" fill="none" stroke="#000000" stroke-dasharray="none" d="M70 166.5L295.9452224 166.5"></path><path stroke-width="1" fill="none" stroke="#000000" stroke-dasharray="none" d="M70 176.5L295.9452224 176.5"></path><path stroke-width="1" fill="none" stroke="#000000" stroke-dasharray="none" d="M70 186.5L295.9452224 186.5"></path><path stroke-width="1" fill="none" stroke="#000000" stroke-dasharray="none" d="M70 196.5L295.9452224 196.5"></path><path stroke-width="1" fill="none" stroke="#000000" stroke-dasharray="none" d="M70 206.5L295.9452224 206.5"></path><rect stroke-width="0.3" fill="#000000" stroke="#000000" stroke-dasharray="none" x="295.9452224" y="166" width="1" height="41"></rect><g class="vf-clef"><path stroke-width="0.3" fill="#000000" stroke="none" stroke-dasharray="none" d="M75 196.5M89.0544 153.3288C89.112 153.3,89.1696 153.3,89.256 153.3C89.6016 153.3,90.0048 153.588,90.5808 154.308C92.9136 156.9864,94.5552 161.652,94.5552 165.4536C94.5552 165.7416,94.4976 165.972,94.4976 166.26C94.2384 170.7816,92.3952 174.4968,88.7376 178.0104L87.7584 178.9608L87.4128 179.3352L87.4128 179.4504L87.6144 180.3144L87.9312 181.8696L88.248 183.3096C88.68 185.268,88.8528 186.276,88.8528 186.276C88.8528 186.276,88.8528 186.276,88.8528 186.276C88.8528 186.276,88.968 186.276,89.112 186.2472C89.256 186.2472,89.7168 186.1896,90.2064 186.1896C90.55199999999999 186.1896,90.8976 186.2472,91.0704 186.2472C95.1312 186.7656,98.2704 189.6744,99.1632 193.764C99.336 194.4264,99.39359999999999 195.1464,99.39359999999999 195.8664C99.39359999999999 199.7544,97.0608 203.4696,93.1728 205.2264C92.94239999999999 205.3704,92.856 205.3992,92.856 205.3992L92.856 205.428C92.856 205.428,93.0288 206.0904,93.1728 206.8392L93.6048 209.028L94.008 210.7848C94.2384 211.908,94.3536 212.7144,94.3536 213.4344C94.3536 214.06799999999998,94.2672 214.644,94.1232 215.3064C93.144 219.3096,89.6592 221.7,86.0304 221.7C84.2448 221.7,82.4016 221.124,80.7888 219.828C79.3488 218.6184,78.7152 217.524,78.7152 216.084C78.7152 213.5496,80.76 211.764,82.8912 211.764C83.64 211.764,84.3888 211.99439999999998,85.1088 212.4264C86.3184 213.2616,86.8656 214.5288,86.8656 215.7672C86.8656 217.668,85.5408 219.54,83.2656 219.684L83.0352 219.684L83.208 219.79919999999998C84.1584 220.2024,85.1088 220.404,86.0304 220.404C88.3632 220.404,90.55199999999999 219.2232,91.8768 217.1784C92.62559999999999 216.0264,93.0288 214.6728,93.0288 213.3192C93.0288 212.8008,92.94239999999999 212.2824,92.8272 211.7064C92.8272 211.6488,92.74080000000001 211.188,92.62559999999999 210.756C91.992 207.6456,91.6176 205.8312,91.6176 205.8312C91.6176 205.8312,91.6176 205.8312,91.6176 205.8312C91.56 205.8312,91.4448 205.8312,91.3584 205.8888C91.0704 205.9464,90.4656 206.0904,90.2064 206.1192C89.5728 206.2056,88.968 206.2344,88.392 206.2344C82.74719999999999 206.2344,77.5056 202.4328,75.6912 196.8168C75.2304 195.3192,74.9712 193.8216,74.9712 192.324C74.9712 189.3288,75.9216 186.3912,77.7648 183.7704C79.7808 180.9192,81.7968 178.4712,84.2736 175.9368L85.13759999999999 175.044L84.936 173.9784L84.5616 172.2216L84.072 169.9752C83.928 169.14,83.7552 168.3336,83.7264 168.1608C83.5824 167.2104,83.496 166.2888,83.496 165.3384C83.496 161.7096,84.6768 158.22480000000002,86.8944 155.4312C87.5568 154.5672,88.7376 153.4152,89.0544 153.3288M90.8112 159.0312C90.7536 159.0312,90.6672 159.0312,90.5808 159.0312C89.4 159.0312,87.8736 160.1256,86.8368 161.7384C85.7712 163.32240000000002,85.224 165.4248,85.224 167.5848C85.224 168.1608,85.25280000000001 168.7656,85.3392 169.3704C85.4256 169.8024,85.45439999999999 170.0904,85.6848 171.12720000000002L86.088 172.9416C86.2032 173.4888,86.28960000000001 173.92079999999999,86.28960000000001 173.9784L86.28960000000001 173.9784C86.3184 173.9784,87.2112 172.9992,87.4992 172.6536C90.3792 169.3992,92.1072 165.972,92.4816 162.948C92.5104 162.66,92.5104 162.4296,92.5104 162.1416C92.5104 161.24880000000002,92.3952 160.38479999999998,92.1936 159.924C91.9632 159.4632,91.4448 159.0888,90.8112 159.0312M86.4624 181.2936C86.4048 180.8904,86.3184 180.5736,86.3184 180.516C86.3184 180.516,86.3184 180.516,86.28960000000001 180.516C86.232 180.516,84.9936 181.956,84.1296 182.964C82.6608 184.7496,81.1056 186.8808,80.472 187.9176C79.2624 189.9624,78.6576 192.2376,78.6576 194.484C78.6576 195.9528,78.9456 197.364,79.464 198.7176C81.0192 202.7208,84.5904 205.2264,88.4784 205.2264C88.9392 205.2264,89.4576 205.1976,89.9472 205.1112C90.5808 204.996,91.3584 204.7656,91.3584 204.6792L91.3584 204.6792C91.3584 204.6792,91.3008 204.3912,91.2144 204.0744L90.3792 199.956L89.7168 196.8744L89.2848 194.7432L88.824 192.6696C88.5936 191.4312,88.5072 191.1144,88.5072 191.1144C88.5072 191.1144,88.5072 191.0856,88.4784 191.0856C88.3056 191.0856,87.384 191.5464,86.9808 191.8344C85.4832 192.8712,84.7056 194.5128,84.7056 196.1256C84.7056 197.652,85.45439999999999 199.1784,86.8944 200.0712C87.2112 200.2728,87.3264 200.4456,87.3264 200.6472C87.3264 200.676,87.3264 200.7624,87.3264 200.7912C87.2688 201.1368,87.0672 201.2808,86.7792 201.2808C86.664 201.2808,86.52 201.252,86.3472 201.1656C83.6976 200.0136,81.912 197.2776,81.912 194.2824L81.912 194.2824C81.912 190.8264,84.072 187.8312,87.384 186.6504L87.5568 186.5928L87.2688 185.1528L86.4624 181.2936M90.7824 190.9128C90.55199999999999 190.88400000000001,90.3216 190.88400000000001,90.1488 190.88400000000001C90.0912 190.88400000000001,90.0048 190.88400000000001,89.9472 190.88400000000001L89.8032 190.88400000000001L89.9184 191.4024L90.5232 194.2248L90.8976 196.068L91.3008 197.8824L92.1072 201.8856L92.424 203.412C92.5392 203.8152,92.5968 204.1608,92.62559999999999 204.1608C92.62559999999999 204.1608,92.62559999999999 204.1608,92.62559999999999 204.1608C92.6544 204.1608,93.144 203.8728,93.4608 203.6424C94.9296 202.6056,96.024 200.9928,96.4272 199.3224C96.5712 198.7752,96.6288 198.1992,96.6288 197.652C96.6288 194.3112,94.152 191.2872,90.7824 190.9128"></path></g><path stroke-width="0.3" fill="#000000" stroke="none" stroke-dasharray="none" d="M116 186.5M121.0112 168.1544C121.04 168.1256,121.4432 168.1256,122.6816 168.1256C123.056 168.1256,123.4592 168.1256,123.9776 168.1256L126.8864 168.1256L126.9728 168.212C127.1168 168.29840000000002,127.2032 168.4424,127.2032 168.5576C127.2032 168.7304,127.1168 168.8456,127.0016 168.9608C126.9728 169.0472,126.7136 169.2776,126.5408 169.5368L125.0144 171.2936L123.056 173.5112L122.0192 174.692L120.464 176.4776L118.4192 178.8104C118.0736 179.2424,117.6992 179.588,117.6992 179.588C117.6992 179.588,117.6992 179.588,117.6992 179.588C117.6992 179.6456,117.9584 179.6456,120.3488 179.6456L122.9696 179.6456L122.9696 177.7736C122.9696 175.8728,122.9696 175.844,122.9984 175.8152C123.056 175.7288,123.3152 175.412,124.3232 174.2312L124.7264 173.7992L125.1296 173.3672L125.7344 172.5896L126.368 171.9272L126.6848 171.524C126.8 171.3512,126.9728 171.3224,127.1168 171.3224C127.28960000000001 171.3224,127.4336 171.4088,127.52 171.5528C127.5488 171.6392,127.5488 171.6968,127.5488 173.828C127.5488 174.3176,127.5488 174.9224,127.5488 175.6424L127.5488 179.6456L128.2688 179.6456C128.9312 179.6456,128.96 179.6456,129.0464 179.6744C129.2768 179.7608,129.392 179.9912,129.392 180.2504C129.392 180.3944,129.3632 180.5672,129.248 180.6824C129.0752 180.8264,129.0464 180.8264,128.2688 180.8264L127.5488 180.8264L127.5488 181.316C127.5776 182.7848,127.8656 183.3608,128.9888 183.9656C129.392 184.1672,129.4784 184.2248,129.4784 184.5128C129.4784 184.7144,129.42079999999999 184.8008,129.2768 184.916L129.1904 184.9448L125.2448 184.9448L121.328 184.9448L121.2416 184.916C121.0688 184.8008,121.04 184.7144,121.04 184.5128C121.04 184.2248,121.0688 184.1672,121.5008 183.9656C122.624 183.3608,122.912 182.7848,122.912 181.316L122.912 180.8264L119.6 180.8264C118.9952 180.88400000000001,118.5056 180.88400000000001,118.1024 180.88400000000001C116.288 180.88400000000001,116.2592 180.8264,116.2304 180.8264C116.0576 180.7688,116 180.596,116 180.3944C116 180.3944,116 180.3944,116 180.3944C116 180.1928,116 180.1928,116.576 179.5304C118.9952 176.5928,120.6944 172.3304,120.6944 168.93200000000002C120.6944 168.4136,120.7808 168.2408,121.0112 168.1544M122.7392 186.5288L122.768 186.5288L122.6816 186.5288L122.7392 186.5288M122.7392 167.1176L122.768 167.1176L122.6816 167.1176L122.7392 167.1176"></path><path stroke-width="0.3" fill="#000000" stroke="none" stroke-dasharray="none" d="M116 206.5M121.0112 188.1544C121.04 188.1256,121.4432 188.1256,122.6816 188.1256C123.056 188.1256,123.4592 188.1256,123.9776 188.1256L126.8864 188.1256L126.9728 188.212C127.1168 188.29840000000002,127.2032 188.4424,127.2032 188.5576C127.2032 188.7304,127.1168 188.8456,127.0016 188.9608C126.9728 189.0472,126.7136 189.2776,126.5408 189.5368L125.0144 191.2936L123.056 193.5112L122.0192 194.692L120.464 196.4776L118.4192 198.8104C118.0736 199.2424,117.6992 199.588,117.6992 199.588C117.6992 199.588,117.6992 199.588,117.6992 199.588C117.6992 199.6456,117.9584 199.6456,120.3488 199.6456L122.9696 199.6456L122.9696 197.7736C122.9696 195.8728,122.9696 195.844,122.9984 195.8152C123.056 195.7288,123.3152 195.412,124.3232 194.2312L124.7264 193.7992L125.1296 193.3672L125.7344 192.5896L126.368 191.9272L126.6848 191.524C126.8 191.3512,126.9728 191.3224,127.1168 191.3224C127.28960000000001 191.3224,127.4336 191.4088,127.52 191.5528C127.5488 191.6392,127.5488 191.6968,127.5488 193.828C127.5488 194.3176,127.5488 194.9224,127.5488 195.6424L127.5488 199.6456L128.2688 199.6456C128.9312 199.6456,128.96 199.6456,129.0464 199.6744C129.2768 199.7608,129.392 199.9912,129.392 200.2504C129.392 200.3944,129.3632 200.5672,129.248 200.6824C129.0752 200.8264,129.0464 200.8264,128.2688 200.8264L127.5488 200.8264L127.5488 201.316C127.5776 202.7848,127.8656 203.3608,128.9888 203.9656C129.392 204.1672,129.4784 204.2248,129.4784 204.5128C129.4784 204.7144,129.42079999999999 204.8008,129.2768 204.916L129.1904 204.9448L125.2448 204.9448L121.328 204.9448L121.2416 204.916C121.0688 204.8008,121.04 204.7144,121.04 204.5128C121.04 204.2248,121.0688 204.1672,121.5008 203.9656C122.624 203.3608,122.912 202.7848,122.912 201.316L122.912 200.8264L119.6 200.8264C118.9952 200.88400000000001,118.5056 200.88400000000001,118.1024 200.88400000000001C116.288 200.88400000000001,116.2592 200.8264,116.2304 200.8264C116.0576 200.7688,116 200.596,116 200.3944C116 200.3944,116 200.3944,116 200.3944C116 200.1928,116 200.1928,116.576 199.5304C118.9952 196.5928,120.6944 192.3304,120.6944 188.93200000000002C120.6944 188.4136,120.7808 188.2408,121.0112 188.1544M122.7392 206.5288L122.768 206.5288L122.6816 206.5288L122.7392 206.5288M122.7392 187.1176L122.768 187.1176L122.6816 187.1176L122.7392 187.1176"></path><g class="vf-stavenote" id="vf-auto4668026"><g class="vf-note" pointer-events="bounding-box"><g class="vf-stem" pointer-events="bounding-box"><path stroke-width="1.5" fill="none" stroke="#000000" stroke-dasharray="none" class="vf-stem" id="vf-auto4668026-stem" d="M258.8696 181.5L258.8696 216.5"></path></g><g class="vf-notehead" pointer-events="bounding-box"><path stroke-width="0.3" fill="#000000" stroke="none" stroke-dasharray="none" d="M258.1196 181.5M265.47656 176.27712C265.58888 176.27712,265.75736 176.27712,265.78544 176.27712C265.78544 176.27712,265.81352 176.27712,265.81352 176.27712C265.81352 176.27712,265.98199999999997 176.27712,266.12239999999997 176.27712C268.64959999999996 176.41752,270.13784 178.07424,270.13784 180.15216C270.13784 181.16304,269.80088 182.31432,268.95848 183.40944C267.35792 185.5716,264.74648 186.75096,262.472 186.75096C260.70296 186.75096,259.18664 186.04896,258.45655999999997 184.61688C258.23192 184.05528,258.1196 183.52176,258.1196 182.93208C258.1196 179.87136,261.54536 176.47368,265.47656 176.27712"></path></g></g><g class="vf-modifiers"></g></g><path stroke-width="1" fill="none" stroke="#000000" stroke-dasharray="none" d="M295.9452224 166.5L439.91204479999993 166.5"></path><path stroke-width="1" fill="none" stroke="#000000" stroke-dasharray="none" d="M295.9452224 176.5L439.91204479999993 176.5"></path><path stroke-width="1" fill="none" stroke="#000000" stroke-dasharray="none" d="M295.9452224 186.5L439.91204479999993 186.5"></path><path stroke-width="1" fill="none" stroke="#000000" stroke-dasharray="none" d="M295.9452224 196.5L439.91204479999993 196.5"></path><path stroke-width="1" fill="none" stroke="#000000" stroke-dasharray="none" d="M295.9452224 206.5L439.91204479999993 206.5"></path><rect stroke-width="0.3" fill="#000000" stroke="#000000" stroke-dasharray="none" x="439.91204479999993" y="166" width="1" height="41"></rect><g class="vf-stavenote" id="vf-auto4668063"><g class="vf-note" pointer-events="bounding-box"><g class="vf-stem" pointer-events="bounding-box"><path stroke-width="1.5" fill="none" stroke="#000000" stroke-dasharray="none" class="vf-stem" id="vf-auto4668063-stem" d="M324.21346239999997 206.5L324.21346239999997 171.5"></path></g><g class="vf-notehead" pointer-events="bounding-box"><path stroke-width="0.3" fill="#000000" stroke="none" stroke-dasharray="none" d="M312.9452224 206.5M320.3021824 201.27712C320.4145024 201.27712,320.5829824 201.27712,320.6110624 201.27712C320.6110624 201.27712,320.63914239999997 201.27712,320.63914239999997 201.27712C320.63914239999997 201.27712,320.80762239999996 201.27712,320.94802239999996 201.27712C323.4752224 201.41752,324.96346239999997 203.07424,324.96346239999997 205.15216C324.96346239999997 206.16304,324.6265024 207.31432,323.7841024 208.40944C322.18354239999996 210.5716,319.57210239999995 211.75096,317.29762239999997 211.75096C315.5285824 211.75096,314.0122624 211.04896,313.28218239999995 209.61688C313.0575424 209.05528,312.9452224 208.52176,312.9452224 207.93208C312.9452224 204.87136,316.3709824 201.47368,320.3021824 201.27712"></path></g></g><g class="vf-modifiers"></g></g><path stroke-width="1" fill="none" stroke="#000000" stroke-dasharray="none" d="M439.91204479999993 166.5L583.8788671999998 166.5"></path><path stroke-width="1" fill="none" stroke="#000000" stroke-dasharray="none" d="M439.91204479999993 176.5L583.8788671999998 176.5"></path><path stroke-width="1" fill="none" stroke="#000000" stroke-dasharray="none" d="M439.91204479999993 186.5L583.8788671999998 186.5"></path><path stroke-width="1" fill="none" stroke="#000000" stroke-dasharray="none" d="M439.91204479999993 196.5L583.8788671999998 196.5"></path><path stroke-width="1" fill="none" stroke="#000000" stroke-dasharray="none" d="M439.91204479999993 206.5L583.8788671999998 206.5"></path><rect stroke-width="0.3" fill="#000000" stroke="#000000" stroke-dasharray="none" x="583.8788671999998" y="166" width="1" height="41"></rect><g class="vf-stavenote" id="vf-auto4668100"><g class="vf-note" pointer-events="bounding-box"><g class="vf-stem" pointer-events="bounding-box"><path stroke-width="1.5" fill="none" stroke="#000000" stroke-dasharray="none" class="vf-stem" id="vf-auto4668100-stem" d="M489.66204479999993 166.5L489.66204479999993 201.5"></path></g><g class="vf-notehead" pointer-events="bounding-box"><path stroke-width="0.3" fill="#000000" stroke="none" stroke-dasharray="none" d="M488.91204479999993 166.5M496.26900479999995 161.27712C496.38132479999996 161.27712,496.54980479999995 161.27712,496.57788479999994 161.27712C496.57788479999994 161.27712,496.6059647999999 161.27712,496.6059647999999 161.27712C496.6059647999999 161.27712,496.7744447999999 161.27712,496.9148447999999 161.27712C499.44204479999996 161.41752,500.9302847999999 163.07424,500.9302847999999 165.15216C500.9302847999999 166.16304,500.59332479999995 167.31432,499.75092479999995 168.40944C498.1503647999999 170.5716,495.5389247999999 171.75096,493.2644447999999 171.75096C491.49540479999996 171.75096,489.97908479999995 171.04896,489.2490047999999 169.61688C489.02436479999994 169.05528,488.91204479999993 168.52176,488.91204479999993 167.93208C488.91204479999993 164.87136,492.33780479999996 161.47368,496.26900479999995 161.27712"></path></g></g><g class="vf-modifiers"></g></g><path stroke-width="1" fill="none" stroke="#000000" stroke-dasharray="none" d="M583.8788672 166.5L737.8456895999999 166.5"></path><path stroke-width="1" fill="none" stroke="#000000" stroke-dasharray="none" d="M583.8788672 176.5L737.8456895999999 176.5"></path><path stroke-width="1" fill="none" stroke="#000000" stroke-dasharray="none" d="M583.8788672 186.5L737.8456895999999 186.5"></path><path stroke-width="1" fill="none" stroke="#000000" stroke-dasharray="none" d="M583.8788672 196.5L737.8456895999999 196.5"></path><path stroke-width="1" fill="none" stroke="#000000" stroke-dasharray="none" d="M583.8788672 206.5L737.8456895999999 206.5"></path><rect stroke-width="0.3" fill="#000000" stroke="#000000" stroke-dasharray="none" x="732.8456895999999" y="166" width="1" height="41"></rect><rect stroke-width="0.3" fill="#000000" stroke="#000000" stroke-dasharray="none" x="735.8456895999999" y="166" width="3" height="41"></rect><path stroke-width="0.3" fill="#000000" stroke="none" stroke-dasharray="none" d="M731.8456895999999 182 A2 2 0 0 0 727.8456895999999 182M727.8456895999999 182 A2 2 0 0 0 731.8456895999999 182"></path><path stroke-width="0.3" fill="#000000" stroke="none" stroke-dasharray="none" d="M731.8456895999999 192 A2 2 0 0 0 727.8456895999999 192M727.8456895999999 192 A2 2 0 0 0 731.8456895999999 192"></path><g class="vf-stavenote" id="vf-auto4668137"><g class="vf-note" pointer-events="bounding-box"><g class="vf-stem" pointer-events="bounding-box"><path stroke-width="1.5" fill="none" stroke="#000000" stroke-dasharray="none" class="vf-stem" id="vf-auto4668137-stem" d="M636.1288672 176.5L636.1288672 211.5"></path></g><g class="vf-notehead" pointer-events="bounding-box"><path stroke-width="0.3" fill="#000000" stroke="none" stroke-dasharray="none" d="M635.3788672 176.5M642.7358271999999 171.27712C642.8481472 171.27712,643.0166271999999 171.27712,643.0447072 171.27712C643.0447072 171.27712,643.0727872 171.27712,643.0727872 171.27712C643.0727872 171.27712,643.2412671999999 171.27712,643.3816671999999 171.27712C645.9088671999999 171.41752,647.3971071999999 173.07424,647.3971071999999 175.15216C647.3971071999999 176.16304,647.0601472 177.31432,646.2177472 178.40944C644.6171872 180.5716,642.0057472 181.75096,639.7312671999999 181.75096C637.9622271999999 181.75096,636.4459072 181.04896,635.7158271999999 179.61688C635.4911871999999 179.05528,635.3788672 178.52176,635.3788672 177.93208C635.3788672 174.87136,638.8046271999999 171.47368,642.7358271999999 171.27712"></path></g></g><g class="vf-modifiers"></g></g><g class="vf-text"><text stroke-width="0.3" fill="#000000" stroke="none" stroke-dasharray="none" font-family="Times New Roman" font-size="23px" font-weight="bold" font-style="italic" x="156.4784" y="240.5">mp</text></g><path stroke-width="1" fill="none" stroke="#000000" stroke-dasharray="none" d="M70 264.3L295.9452224 264.3"></path><path stroke-width="1" fill="none" stroke="#000000" stroke-dasharray="none" d="M70 274.3L295.9452224 274.3"></path><path stroke-width="1" fill="none" stroke="#000000" stroke-dasharray="none" d="M70 284.3L295.9452224 284.3"></path><path stroke-width="1" fill="none" stroke="#000000" stroke-dasharray="none" d="M70 294.3L295.9452224 294.3"></path><path stroke-width="1" fill="none" stroke="#000000" stroke-dasharray="none" d="M70 304.3L295.9452224 304.3"></path><rect stroke-width="0.3" fill="#000000" stroke="#000000" stroke-dasharray="none" x="295.9452224" y="263.8" width="1" height="41"></rect><g class="vf-clef"><path stroke-width="0.3" fill="#000000" stroke="none" stroke-dasharray="none" d="M75 274.3M83.8416 264.2488C84.072 264.19120000000004,84.3024 264.19120000000004,84.5616 264.19120000000004C85.5696 264.19120000000004,86.7504 264.3064,87.7584 264.50800000000004C92.4816 265.48720000000003,95.736 268.684,96.3408 272.94640000000004C96.3984 273.4072,96.4272 273.8392,96.4272 274.3C96.4272 276.892,95.5344 280.2328,94.008 283.0264C90.3792 289.5928,83.7552 294.31600000000003,75.8064 296.044C75.6624 296.044,75.5472 296.07280000000003,75.4032 296.07280000000003C75.1152 296.07280000000003,74.9712 295.90000000000003,74.9712 295.6408C74.9712 295.3528,75.0288 295.26640000000003,75.6048 295.036C84.7056 291.60880000000003,90.7824 284.2072,91.3296 275.9128C91.3584 275.4808,91.3584 274.9912,91.3584 274.6168C91.3584 270.58480000000003,90.12 267.5896,87.7296 266.092C86.6928 265.4296,85.5696 265.1128,84.36 265.1128C81.6816 265.1128,78.9456 266.6392,77.6784 269.2024C77.6208 269.404,77.4192 269.836,77.4192 269.8648C77.4192 269.8648,77.4192 269.8648,77.4192 269.8648C77.4192 269.8648,77.448 269.836,77.5344 269.8072C78.168 269.404,78.8592 269.2024,79.5792 269.2024C80.5872 269.2024,81.6528 269.6344,82.4016 270.4408C83.0928 271.1896,83.4672 272.1976,83.4672 273.11920000000003C83.4672 274.9912,82.0848 276.892,79.9248 277.09360000000004C79.7808 277.09360000000004,79.6368 277.1224,79.4928 277.1224C77.1024 277.1224,75.1728 274.9336,75.1728 272.16880000000003C75.1728 272.1112,75.1728 272.0248,75.1728 271.99600000000004C75.288 267.87760000000003,79.0608 264.50800000000004,83.8416 264.2488M99.1632 268.108C99.2208 268.0792,99.2496 268.0792,99.336 268.0792C99.5376 268.0792,99.768 268.108,99.8256 268.16560000000004C100.54560000000001 268.3672,100.8912 269.0008,100.8912 269.60560000000004C100.8912 270.124,100.632 270.6424,100.11359999999999 270.9304C99.912 271.0744,99.6528 271.1032,99.39359999999999 271.1032C98.9904 271.1032,98.5584 270.9304,98.2704 270.55600000000004C98.03999999999999 270.26800000000003,97.9248 269.95120000000003,97.9248 269.6344C97.9248 268.9144,98.3856 268.19440000000003,99.1632 268.108M99.1632 277.5256C99.2208 277.5256,99.2496 277.5256,99.336 277.5256C99.5376 277.5256,99.768 277.5544,99.8256 277.612C100.54560000000001 277.8136,100.8912 278.4472,100.8912 279.052C100.8912 279.5704,100.632 280.0888,100.11359999999999 280.348C99.912 280.492,99.6528 280.5496,99.39359999999999 280.5496C98.9904 280.5496,98.5584 280.348,98.2704 280.0024C98.03999999999999 279.7144,97.9248 279.3976,97.9248 279.052C97.9248 278.332,98.3856 277.6408,99.1632 277.5256"></path></g><path stroke-width="0.3" fill="#000000" stroke="none" stroke-dasharray="none" d="M116 284.3M121.0112 265.9544C121.04 265.92560000000003,121.4432 265.92560000000003,122.6816 265.92560000000003C123.056 265.92560000000003,123.4592 265.92560000000003,123.9776 265.92560000000003L126.8864 265.92560000000003L126.9728 266.012C127.1168 266.0984,127.2032 266.24240000000003,127.2032 266.3576C127.2032 266.5304,127.1168 266.6456,127.0016 266.7608C126.9728 266.8472,126.7136 267.0776,126.5408 267.33680000000004L125.0144 269.09360000000004L123.056 271.3112L122.0192 272.492L120.464 274.2776L118.4192 276.6104C118.0736 277.0424,117.6992 277.38800000000003,117.6992 277.38800000000003C117.6992 277.38800000000003,117.6992 277.38800000000003,117.6992 277.38800000000003C117.6992 277.4456,117.9584 277.4456,120.3488 277.4456L122.9696 277.4456L122.9696 275.5736C122.9696 273.6728,122.9696 273.644,122.9984 273.6152C123.056 273.5288,123.3152 273.212,124.3232 272.0312L124.7264 271.5992L125.1296 271.16720000000004L125.7344 270.38960000000003L126.368 269.72720000000004L126.6848 269.324C126.8 269.1512,126.9728 269.1224,127.1168 269.1224C127.28960000000001 269.1224,127.4336 269.2088,127.52 269.3528C127.5488 269.4392,127.5488 269.4968,127.5488 271.628C127.5488 272.11760000000004,127.5488 272.7224,127.5488 273.4424L127.5488 277.4456L128.2688 277.4456C128.9312 277.4456,128.96 277.4456,129.0464 277.4744C129.2768 277.56080000000003,129.392 277.7912,129.392 278.0504C129.392 278.19440000000003,129.3632 278.3672,129.248 278.4824C129.0752 278.6264,129.0464 278.6264,128.2688 278.6264L127.5488 278.6264L127.5488 279.116C127.5776 280.58480000000003,127.8656 281.1608,128.9888 281.7656C129.392 281.9672,129.4784 282.0248,129.4784 282.31280000000004C129.4784 282.5144,129.42079999999999 282.6008,129.2768 282.716L129.1904 282.7448L125.2448 282.7448L121.328 282.7448L121.2416 282.716C121.0688 282.6008,121.04 282.5144,121.04 282.31280000000004C121.04 282.0248,121.0688 281.9672,121.5008 281.7656C122.624 281.1608,122.912 280.58480000000003,122.912 279.116L122.912 278.6264L119.6 278.6264C118.9952 278.684,118.5056 278.684,118.1024 278.684C116.288 278.684,116.2592 278.6264,116.2304 278.6264C116.0576 278.5688,116 278.396,116 278.19440000000003C116 278.19440000000003,116 278.19440000000003,116 278.19440000000003C116 277.9928,116 277.9928,116.576 277.3304C118.9952 274.3928,120.6944 270.1304,120.6944 266.732C120.6944 266.2136,120.7808 266.0408,121.0112 265.9544M122.7392 284.3288L122.768 284.3288L122.6816 284.3288L122.7392 284.3288M122.7392 264.9176L122.768 264.9176L122.6816 264.9176L122.7392 264.9176"></path><path stroke-width="0.3" fill="#000000" stroke="none" stroke-dasharray="none" d="M116 304.3M121.0112 285.9544C121.04 285.92560000000003,121.4432 285.92560000000003,122.6816 285.92560000000003C123.056 285.92560000000003,123.4592 285.92560000000003,123.9776 285.92560000000003L126.8864 285.92560000000003L126.9728 286.012C127.1168 286.0984,127.2032 286.24240000000003,127.2032 286.3576C127.2032 286.5304,127.1168 286.6456,127.0016 286.7608C126.9728 286.8472,126.7136 287.0776,126.5408 287.33680000000004L125.0144 289.09360000000004L123.056 291.3112L122.0192 292.492L120.464 294.2776L118.4192 296.6104C118.0736 297.0424,117.6992 297.38800000000003,117.6992 297.38800000000003C117.6992 297.38800000000003,117.6992 297.38800000000003,117.6992 297.38800000000003C117.6992 297.4456,117.9584 297.4456,120.3488 297.4456L122.9696 297.4456L122.9696 295.5736C122.9696 293.6728,122.9696 293.644,122.9984 293.6152C123.056 293.5288,123.3152 293.212,124.3232 292.0312L124.7264 291.5992L125.1296 291.16720000000004L125.7344 290.38960000000003L126.368 289.72720000000004L126.6848 289.324C126.8 289.1512,126.9728 289.1224,127.1168 289.1224C127.28960000000001 289.1224,127.4336 289.2088,127.52 289.3528C127.5488 289.4392,127.5488 289.4968,127.5488 291.628C127.5488 292.11760000000004,127.5488 292.7224,127.5488 293.4424L127.5488 297.4456L128.2688 297.4456C128.9312 297.4456,128.96 297.4456,129.0464 297.4744C129.2768 297.56080000000003,129.392 297.7912,129.392 298.0504C129.392 298.19440000000003,129.3632 298.3672,129.248 298.4824C129.0752 298.6264,129.0464 298.6264,128.2688 298.6264L127.5488 298.6264L127.5488 299.116C127.5776 300.58480000000003,127.8656 301.1608,128.9888 301.7656C129.392 301.9672,129.4784 302.0248,129.4784 302.31280000000004C129.4784 302.5144,129.42079999999999 302.6008,129.2768 302.716L129.1904 302.7448L125.2448 302.7448L121.328 302.7448L121.2416 302.716C121.0688 302.6008,121.04 302.5144,121.04 302.31280000000004C121.04 302.0248,121.0688 301.9672,121.5008 301.7656C122.624 301.1608,122.912 300.58480000000003,122.912 299.116L122.912 298.6264L119.6 298.6264C118.9952 298.684,118.5056 298.684,118.1024 298.684C116.288 298.684,116.2592 298.6264,116.2304 298.6264C116.0576 298.5688,116 298.396,116 298.19440000000003C116 298.19440000000003,116 298.19440000000003,116 298.19440000000003C116 297.9928,116 297.9928,116.576 297.3304C118.9952 294.3928,120.6944 290.1304,120.6944 286.732C120.6944 286.2136,120.7808 286.0408,121.0112 285.9544M122.7392 304.3288L122.768 304.3288L122.6816 304.3288L122.7392 304.3288M122.7392 284.9176L122.768 284.9176L122.6816 284.9176L122.7392 284.9176"></path><g class="vf-stavenote" id="vf-auto4668037"><g class="vf-note" pointer-events="bounding-box"><g class="vf-stem" pointer-events="bounding-box"><path stroke-width="1.5" fill="none" stroke="#000000" stroke-dasharray="none" class="vf-stem" id="vf-auto4668037-stem" d="M152.74663999999999 289.3L152.74663999999999 254.3"></path></g><g class="vf-notehead" pointer-events="bounding-box"><path stroke-width="0.3" fill="#000000" stroke="none" stroke-dasharray="none" d="M141.4784 289.3M148.83535999999998 284.07712000000004C148.94768 284.07712000000004,149.11615999999998 284.07712000000004,149.14424 284.07712000000004C149.14424 284.07712000000004,149.17231999999998 284.07712000000004,149.17231999999998 284.07712000000004C149.17231999999998 284.07712000000004,149.3408 284.07712000000004,149.4812 284.07712000000004C152.0084 284.21752000000004,153.49663999999999 285.87424,153.49663999999999 287.95216C153.49663999999999 288.96304000000003,153.15967999999998 290.11432,152.31727999999998 291.20944000000003C150.71671999999998 293.3716,148.10528 294.55096000000003,145.83079999999998 294.55096000000003C144.06176 294.55096000000003,142.54543999999999 293.84896000000003,141.81536 292.41688C141.59072 291.85528,141.4784 291.32176,141.4784 290.73208C141.4784 287.67136,144.90416 284.27368,148.83535999999998 284.07712000000004"></path></g></g><g class="vf-modifiers"></g></g><g class="vf-stavenote" id="vf-auto4668045"><g class="vf-note" pointer-events="bounding-box"><g class="vf-stem" pointer-events="bounding-box"><path stroke-width="1.5" fill="none" stroke="#000000" stroke-dasharray="none" class="vf-stem" id="vf-auto4668045-stem" d="M181.1088 264.3L181.1088 299.3"></path></g><g class="vf-notehead" pointer-events="bounding-box"><path stroke-width="0.3" fill="#000000" stroke="none" stroke-dasharray="none" d="M180.3588 264.3M187.71576 259.07712000000004C187.82808 259.07712000000004,187.99656 259.07712000000004,188.02464 259.07712000000004C188.02464 259.07712000000004,188.05272 259.07712000000004,188.05272 259.07712000000004C188.05272 259.07712000000004,188.2212 259.07712000000004,188.3616 259.07712000000004C190.8888 259.21752000000004,192.37704 260.87424,192.37704 262.95216C192.37704 263.96304000000003,192.04008 265.11432,191.19768 266.20944000000003C189.59712 268.3716,186.98568 269.55096000000003,184.7112 269.55096000000003C182.94216 269.55096000000003,181.42584 268.84896000000003,180.69576 267.41688C180.47112 266.85528,180.3588 266.32176,180.3588 265.73208C180.3588 262.67136,183.78456 259.27368,187.71576 259.07712000000004"></path></g></g><g class="vf-modifiers"></g></g><g class="vf-stavenote" id="vf-auto4668053"><g class="vf-note" pointer-events="bounding-box"><g class="vf-stem" pointer-events="bounding-box"><path stroke-width="1.5" fill="none" stroke="#000000" stroke-dasharray="none" class="vf-stem" id="vf-auto4668053-stem" d="M230.50743999999997 284.3L230.50743999999997 249.3"></path></g><g class="vf-notehead" pointer-events="bounding-box"><path stroke-width="0.3" fill="#000000" stroke="none" stroke-dasharray="none" d="M219.23919999999998 284.3M226.59615999999997 279.07712000000004C226.70847999999998 279.07712000000004,226.87696 279.07712000000004,226.90503999999999 279.07712000000004C226.90503999999999 279.07712000000004,226.93311999999997 279.07712000000004,226.93311999999997 279.07712000000004C226.93311999999997 279.07712000000004,227.1016 279.07712000000004,227.242 279.07712000000004C229.76919999999998 279.21752000000004,231.25743999999997 280.87424,231.25743999999997 282.95216C231.25743999999997 283.96304000000003,230.92048 285.11432,230.07807999999997 286.20944000000003C228.47751999999997 288.3716,225.86607999999998 289.55096000000003,223.59159999999997 289.55096000000003C221.82255999999998 289.55096000000003,220.30623999999997 288.84896000000003,219.57616 287.41688C219.35152 286.85528,219.23919999999998 286.32176,219.23919999999998 285.73208C219.23919999999998 282.67136,222.66495999999998 279.27368,226.59615999999997 279.07712000000004"></path></g></g><g class="vf-modifiers"></g></g><rect stroke-width="0.3" fill="#000000" stroke="#000000" stroke-dasharray="none" x="295.9452224" y="166.5" width="1" height="138.8"></rect><rect stroke-width="0.3" fill="#000000" stroke="#000000" stroke-dasharray="none" x="70" y="166.5" width="1" height="138.8"></rect><path stroke-width="1" fill="none" stroke="#000000" stroke-dasharray="none" d="M295.9452224 264.3L439.91204479999993 264.3"></path><path stroke-width="1" fill="none" stroke="#000000" stroke-dasharray="none" d="M295.9452224 274.3L439.91204479999993 274.3"></path><path stroke-width="1" fill="none" stroke="#000000" stroke-dasharray="none" d="M295.9452224 284.3L439.91204479999993 284.3"></path><path stroke-width="1" fill="none" stroke="#000000" stroke-dasharray="none" d="M295.9452224 294.3L439.91204479999993 294.3"></path><path stroke-width="1" fill="none" stroke="#000000" stroke-dasharray="none" d="M295.9452224 304.3L439.91204479999993 304.3"></path><rect stroke-width="0.3" fill="#000000" stroke="#000000" stroke-dasharray="none" x="439.91204479999993" y="263.8" width="1" height="41"></rect><g class="vf-stavenote" id="vf-auto4668074"><g class="vf-note" pointer-events="bounding-box"><g class="vf-stem" pointer-events="bounding-box"><path stroke-width="1.5" fill="none" stroke="#000000" stroke-dasharray="none" class="vf-stem" id="vf-auto4668074-stem" d="M345.6952224 274.3L345.6952224 309.3"></path></g><g class="vf-notehead" pointer-events="bounding-box"><path stroke-width="0.3" fill="#000000" stroke="none" stroke-dasharray="none" d="M344.9452224 274.3M352.3021824 269.07712000000004C352.4145024 269.07712000000004,352.5829824 269.07712000000004,352.6110624 269.07712000000004C352.6110624 269.07712000000004,352.63914239999997 269.07712000000004,352.63914239999997 269.07712000000004C352.63914239999997 269.07712000000004,352.80762239999996 269.07712000000004,352.94802239999996 269.07712000000004C355.4752224 269.21752000000004,356.96346239999997 270.87424,356.96346239999997 272.95216C356.96346239999997 273.96304000000003,356.6265024 275.11432,355.7841024 276.20944000000003C354.18354239999996 278.3716,351.57210239999995 279.55096000000003,349.29762239999997 279.55096000000003C347.5285824 279.55096000000003,346.0122624 278.84896000000003,345.28218239999995 277.41688C345.0575424 276.85528,344.9452224 276.32176,344.9452224 275.73208C344.9452224 272.67136,348.3709824 269.27368,352.3021824 269.07712000000004"></path></g></g><g class="vf-modifiers"></g></g><g class="vf-stavenote" id="vf-auto4668082"><g class="vf-note" pointer-events="bounding-box"><g class="vf-stem" pointer-events="bounding-box"><path stroke-width="1.5" fill="none" stroke="#000000" stroke-dasharray="none" class="vf-stem" id="vf-auto4668082-stem" d="M377.6952224 264.3L377.6952224 299.3"></path></g><g class="vf-notehead" pointer-events="bounding-box"><path stroke-width="0.3" fill="#000000" stroke="none" stroke-dasharray="none" d="M376.9452224 264.3M384.3021824 259.07712000000004C384.4145024 259.07712000000004,384.5829824 259.07712000000004,384.6110624 259.07712000000004C384.6110624 259.07712000000004,384.63914239999997 259.07712000000004,384.63914239999997 259.07712000000004C384.63914239999997 259.07712000000004,384.80762239999996 259.07712000000004,384.94802239999996 259.07712000000004C387.4752224 259.21752000000004,388.96346239999997 260.87424,388.96346239999997 262.95216C388.96346239999997 263.96304000000003,388.6265024 265.11432,387.7841024 266.20944000000003C386.18354239999996 268.3716,383.57210239999995 269.55096000000003,381.29762239999997 269.55096000000003C379.5285824 269.55096000000003,378.0122624 268.84896000000003,377.28218239999995 267.41688C377.0575424 266.85528,376.9452224 266.32176,376.9452224 265.73208C376.9452224 262.67136,380.3709824 259.27368,384.3021824 259.07712000000004"></path></g></g><g class="vf-modifiers"></g></g><g class="vf-stavenote" id="vf-auto4668090"><g class="vf-note" pointer-events="bounding-box"><g class="vf-stem" pointer-events="bounding-box"><path stroke-width="1.5" fill="none" stroke="#000000" stroke-dasharray="none" class="vf-stem" id="vf-auto4668090-stem" d="M409.6952224 279.3L409.6952224 314.3"></path></g><g class="vf-notehead" pointer-events="bounding-box"><path stroke-width="0.3" fill="#000000" stroke="none" stroke-dasharray="none" d="M408.9452224 279.3M416.3021824 274.07712000000004C416.4145024 274.07712000000004,416.5829824 274.07712000000004,416.6110624 274.07712000000004C416.6110624 274.07712000000004,416.63914239999997 274.07712000000004,416.63914239999997 274.07712000000004C416.63914239999997 274.07712000000004,416.80762239999996 274.07712000000004,416.94802239999996 274.07712000000004C419.4752224 274.21752000000004,420.96346239999997 275.87424,420.96346239999997 277.95216C420.96346239999997 278.96304000000003,420.6265024 280.11432,419.7841024 281.20944000000003C418.18354239999996 283.3716,415.57210239999995 284.55096000000003,413.29762239999997 284.55096000000003C411.5285824 284.55096000000003,410.0122624 283.84896000000003,409.28218239999995 282.41688C409.0575424 281.85528,408.9452224 281.32176,408.9452224 280.73208C408.9452224 277.67136,412.3709824 274.27368,416.3021824 274.07712000000004"></path></g></g><g class="vf-modifiers"></g></g><rect stroke-width="0.3" fill="#000000" stroke="#000000" stroke-dasharray="none" x="439.91204479999993" y="166.5" width="1" height="138.8"></rect><path stroke-width="1" fill="none" stroke="#000000" stroke-dasharray="none" d="M439.91204479999993 264.3L583.8788671999998 264.3"></path><path stroke-width="1" fill="none" stroke="#000000" stroke-dasharray="none" d="M439.91204479999993 274.3L583.8788671999998 274.3"></path><path stroke-width="1" fill="none" stroke="#000000" stroke-dasharray="none" d="M439.91204479999993 284.3L583.8788671999998 284.3"></path><path stroke-width="1" fill="none" stroke="#000000" stroke-dasharray="none" d="M439.91204479999993 294.3L583.8788671999998 294.3"></path><path stroke-width="1" fill="none" stroke="#000000" stroke-dasharray="none" d="M439.91204479999993 304.3L583.8788671999998 304.3"></path><rect stroke-width="0.3" fill="#000000" stroke="#000000" stroke-dasharray="none" x="583.8788671999998" y="263.8" width="1" height="41"></rect><g class="vf-stavenote" id="vf-auto4668111"><g class="vf-note" pointer-events="bounding-box"><g class="vf-stem" pointer-events="bounding-box"><path stroke-width="1.5" fill="none" stroke="#000000" stroke-dasharray="none" class="vf-stem" id="vf-auto4668111-stem" d="M468.1802847999999 304.3L468.1802847999999 269.3"></path></g><g class="vf-notehead" pointer-events="bounding-box"><path stroke-width="0.3" fill="#000000" stroke="none" stroke-dasharray="none" d="M456.91204479999993 304.3M464.26900479999995 299.07712000000004C464.38132479999996 299.07712000000004,464.54980479999995 299.07712000000004,464.57788479999994 299.07712000000004C464.57788479999994 299.07712000000004,464.6059647999999 299.07712000000004,464.6059647999999 299.07712000000004C464.6059647999999 299.07712000000004,464.7744447999999 299.07712000000004,464.9148447999999 299.07712000000004C467.44204479999996 299.21752000000004,468.9302847999999 300.87424,468.9302847999999 302.95216C468.9302847999999 303.96304000000003,468.59332479999995 305.11432,467.75092479999995 306.20944000000003C466.1503647999999 308.3716,463.5389247999999 309.55096000000003,461.2644447999999 309.55096000000003C459.49540479999996 309.55096000000003,457.97908479999995 308.84896000000003,457.2490047999999 307.41688C457.02436479999994 306.85528,456.91204479999993 306.32176,456.91204479999993 305.73208C456.91204479999993 302.67136,460.33780479999996 299.27368,464.26900479999995 299.07712000000004"></path></g></g><g class="vf-modifiers"></g></g><g class="vf-stavenote" id="vf-auto4668119"><g class="vf-note" pointer-events="bounding-box"><g class="vf-stem" pointer-events="bounding-box"><path stroke-width="1.5" fill="none" stroke="#000000" stroke-dasharray="none" class="vf-stem" id="vf-auto4668119-stem" d="M521.6620447999999 259.3L521.6620447999999 294.3"></path></g><g class="vf-notehead" pointer-events="bounding-box"><path stroke-width="0.3" fill="#000000" stroke="none" stroke-dasharray="none" d="M520.9120447999999 259.3M528.2690047999998 254.07712C528.3813247999999 254.07712,528.5498047999998 254.07712,528.5778847999999 254.07712C528.5778847999999 254.07712,528.6059647999999 254.07712,528.6059647999999 254.07712C528.6059647999999 254.07712,528.7744447999999 254.07712,528.9148447999999 254.07712C531.4420447999998 254.21752,532.9302847999999 255.87424000000001,532.9302847999999 257.95216C532.9302847999999 258.96304000000003,532.5933247999999 260.11432,531.7509247999999 261.20944000000003C530.1503647999999 263.3716,527.5389247999999 264.55096000000003,525.2644447999999 264.55096000000003C523.4954047999998 264.55096000000003,521.9790847999999 263.84896000000003,521.2490047999999 262.41688C521.0243647999998 261.85528,520.9120447999999 261.32176,520.9120447999999 260.73208C520.9120447999999 257.67136,524.3378047999998 254.27368,528.2690047999998 254.07712"></path></g></g><g class="vf-modifiers"></g></g><g class="vf-stavenote" id="vf-auto4668127"><g class="vf-note" pointer-events="bounding-box"><g class="vf-stem" pointer-events="bounding-box"><path stroke-width="1.5" fill="none" stroke="#000000" stroke-dasharray="none" class="vf-stem" id="vf-auto4668127-stem" d="M564.1802847999999 284.3L564.1802847999999 249.3"></path></g><g class="vf-notehead" pointer-events="bounding-box"><path stroke-width="0.3" fill="#000000" stroke="none" stroke-dasharray="none" d="M552.9120447999999 284.3M560.2690047999998 279.07712000000004C560.3813247999999 279.07712000000004,560.5498047999998 279.07712000000004,560.5778847999999 279.07712000000004C560.5778847999999 279.07712000000004,560.6059647999999 279.07712000000004,560.6059647999999 279.07712000000004C560.6059647999999 279.07712000000004,560.7744447999999 279.07712000000004,560.9148447999999 279.07712000000004C563.4420447999998 279.21752000000004,564.9302847999999 280.87424,564.9302847999999 282.95216C564.9302847999999 283.96304000000003,564.5933247999999 285.11432,563.7509247999999 286.20944000000003C562.1503647999999 288.3716,559.5389247999999 289.55096000000003,557.2644447999999 289.55096000000003C555.4954047999998 289.55096000000003,553.9790847999999 288.84896000000003,553.2490047999999 287.41688C553.0243647999998 286.85528,552.9120447999999 286.32176,552.9120447999999 285.73208C552.9120447999999 282.67136,556.3378047999998 279.27368,560.2690047999998 279.07712000000004"></path></g></g><g class="vf-modifiers"></g></g><rect stroke-width="0.3" fill="#000000" stroke="#000000" stroke-dasharray="none" x="583.8788671999998" y="166.5" width="1" height="138.8"></rect><path stroke-width="1" fill="none" stroke="#000000" stroke-dasharray="none" d="M583.8788672 264.3L737.8456895999999 264.3"></path><path stroke-width="1" fill="none" stroke="#000000" stroke-dasharray="none" d="M583.8788672 274.3L737.8456895999999 274.3"></path><path stroke-width="1" fill="none" stroke="#000000" stroke-dasharray="none" d="M583.8788672 284.3L737.8456895999999 284.3"></path><path stroke-width="1" fill="none" stroke="#000000" stroke-dasharray="none" d="M583.8788672 294.3L737.8456895999999 294.3"></path><path stroke-width="1" fill="none" stroke="#000000" stroke-dasharray="none" d="M583.8788672 304.3L737.8456895999999 304.3"></path><rect stroke-width="0.3" fill="#000000" stroke="#000000" stroke-dasharray="none" x="732.8456895999999" y="263.8" width="1" height="41"></rect><rect stroke-width="0.3" fill="#000000" stroke="#000000" stroke-dasharray="none" x="735.8456895999999" y="263.8" width="3" height="41"></rect><path stroke-width="0.3" fill="#000000" stroke="none" stroke-dasharray="none" d="M731.8456895999999 279.8 A2 2 0 0 0 727.8456895999999 279.8M727.8456895999999 279.8 A2 2 0 0 0 731.8456895999999 279.8"></path><path stroke-width="0.3" fill="#000000" stroke="none" stroke-dasharray="none" d="M731.8456895999999 289.8 A2 2 0 0 0 727.8456895999999 289.8M727.8456895999999 289.8 A2 2 0 0 0 731.8456895999999 289.8"></path><g class="vf-stavenote" id="vf-auto4668148"><g class="vf-note" pointer-events="bounding-box"><g class="vf-stem" pointer-events="bounding-box"><path stroke-width="1.5" fill="none" stroke="#000000" stroke-dasharray="none" class="vf-stem" id="vf-auto4668148-stem" d="M612.1471071999999 294.3L612.1471071999999 259.3"></path></g><g class="vf-notehead" pointer-events="bounding-box"><path stroke-width="0.3" fill="#000000" stroke="none" stroke-dasharray="none" d="M600.8788672 294.3M608.2358271999999 289.07712000000004C608.3481472 289.07712000000004,608.5166271999999 289.07712000000004,608.5447072 289.07712000000004C608.5447072 289.07712000000004,608.5727872 289.07712000000004,608.5727872 289.07712000000004C608.5727872 289.07712000000004,608.7412671999999 289.07712000000004,608.8816671999999 289.07712000000004C611.4088671999999 289.21752000000004,612.8971071999999 290.87424,612.8971071999999 292.95216C612.8971071999999 293.96304000000003,612.5601472 295.11432,611.7177472 296.20944000000003C610.1171872 298.3716,607.5057472 299.55096000000003,605.2312671999999 299.55096000000003C603.4622271999999 299.55096000000003,601.9459072 298.84896000000003,601.2158271999999 297.41688C600.9911871999999 296.85528,600.8788672 296.32176,600.8788672 295.73208C600.8788672 292.67136,604.3046271999999 289.27368,608.2358271999999 289.07712000000004"></path></g></g><g class="vf-modifiers"></g></g><g class="vf-stavenote" id="vf-auto4668156"><g class="vf-note" pointer-events="bounding-box"><g class="vf-stem" pointer-events="bounding-box"><path stroke-width="1.5" fill="none" stroke="#000000" stroke-dasharray="none" class="vf-stem" id="vf-auto4668156-stem" d="M681.1471071999999 304.3L681.1471071999999 269.3"></path></g><g class="vf-notehead" pointer-events="bounding-box"><path stroke-width="0.3" fill="#000000" stroke="none" stroke-dasharray="none" d="M669.8788672 304.3M677.2358271999999 299.07712000000004C677.3481472 299.07712000000004,677.5166271999999 299.07712000000004,677.5447072 299.07712000000004C677.5447072 299.07712000000004,677.5727872 299.07712000000004,677.5727872 299.07712000000004C677.5727872 299.07712000000004,677.7412671999999 299.07712000000004,677.8816671999999 299.07712000000004C680.4088671999999 299.21752000000004,681.8971071999999 300.87424,681.8971071999999 302.95216C681.8971071999999 303.96304000000003,681.5601472 305.11432,680.7177472 306.20944000000003C679.1171872 308.3716,676.5057472 309.55096000000003,674.2312671999999 309.55096000000003C672.4622271999999 309.55096000000003,670.9459072 308.84896000000003,670.2158271999999 307.41688C669.9911871999999 306.85528,669.8788672 306.32176,669.8788672 305.73208C669.8788672 302.67136,673.3046271999999 299.27368,677.2358271999999 299.07712000000004"></path></g></g><g class="vf-modifiers"></g></g><g class="vf-stavenote" id="vf-auto4668164"><g class="vf-note" pointer-events="bounding-box"><g class="vf-stem" pointer-events="bounding-box"><path stroke-width="1.5" fill="none" stroke="#000000" stroke-dasharray="none" class="vf-stem" id="vf-auto4668164-stem" d="M715.6471071999999 299.3L715.6471071999999 264.3"></path></g><g class="vf-notehead" pointer-events="bounding-box"><path stroke-width="0.3" fill="#000000" stroke="none" stroke-dasharray="none" d="M704.3788672 299.3M711.7358271999999 294.07712000000004C711.8481472 294.07712000000004,712.0166271999999 294.07712000000004,712.0447072 294.07712000000004C712.0447072 294.07712000000004,712.0727872 294.07712000000004,712.0727872 294.07712000000004C712.0727872 294.07712000000004,712.2412671999999 294.07712000000004,712.3816671999999 294.07712000000004C714.9088671999999 294.21752000000004,716.3971071999999 295.87424,716.3971071999999 297.95216C716.3971071999999 298.96304000000003,716.0601472 300.11432,715.2177472 301.20944000000003C713.6171872 303.3716,711.0057472 304.55096000000003,708.7312671999999 304.55096000000003C706.9622271999999 304.55096000000003,705.4459072 303.84896000000003,704.7158271999999 302.41688C704.4911871999999 301.85528,704.3788672 301.32176,704.3788672 300.73208C704.3788672 297.67136,707.8046271999999 294.27368,711.7358271999999 294.07712000000004"></path></g></g><g class="vf-modifiers"></g></g><rect stroke-width="0.3" fill="#000000" stroke="#000000" stroke-dasharray="none" x="732.8456895999999" y="166.5" width="1" height="138.8"></rect><rect stroke-width="0.3" fill="#000000" stroke="#000000" stroke-dasharray="none" x="735.8456895999999" y="166.5" width="3" height="138.8"></rect><path stroke-width="0.3" fill="#000000" stroke="none" stroke-dasharray="none" d="M68 166.5C45.2 194.26,81.2 217.162,56 235.9C81.2 254.638,45.2 277.54,68 305.3C44 277.54,72.8 254.638,56 235.9C72.8 217.162,44 194.26,68 166.5"></path><path stroke-width="1" fill="none" stroke="#000000" stroke-dasharray="none" d="M68 166.5C45.2 194.26,81.2 217.162,56 235.9C81.2 254.638,45.2 277.54,68 305.3C44 277.54,72.8 254.638,56 235.9C72.8 217.162,44 194.26,68 166.5"></path><g class="vf-text"><text stroke-width="0.3" fill="#000000" stroke="none" stroke-dasharray="none" font-family="Times New Roman" font-size="15px" font-weight="normal" font-style="normal" x="436.41204479999993" y="163.5">3</text></g></svg>