<svg xmlns="http://www.w3.org/2000/svg"  width="1470" height="395.79999999999995" viewBox="0 0 1470 395.79999999999995"><path stroke-width="1" fill="none" stroke="#000000" stroke-dasharray="none" d="M70 166.5L295.9452224 166.5"></path><path stroke-width="1" fill="none" stroke="#000000" stroke-dasharray="none" d="M70 176.5L295.9452224 176.5"></path><path stroke-width="1" fill="none" stroke="#000000" stroke-dasharray="none" d="M70 186.5L295.9452224 186.5"></path><path stroke-width="1" fill="none" stroke="#000000" stroke-dasharray="none" d="M70 196.5L295.9452224 196.5"></path><path stroke-width="1" fill="none" stroke="#000000" stroke-dasharray="none" d="M70 206.5L295.9452224 206.5"></path><rect stroke-width="0.3" fill="#000000" stroke="#000000" stroke-dasharray="none" x="295.9452224" y="166" width="1" height="41"></rect><g class="vf-clef"><path stroke-width="0.3" fill="#000000" stroke="none" stroke-dasharray="none" d="M75 196.5M89.0544 153.3288C89.112 153.3,89.1696 153.3,89.256 153.3C89.6016 153.3,90.0048 153.588,90.5808 154.308C92.9136 156.9864,94.5552 161.652,94.5552 165.4536C94.5552 165.7416,94.4976 165.972,94.4976 166.26C94.2384 170.7816,92.3952 174.4968,88.7376 178.0104L87.7584 178.9608L87.4128 179.3352L87.4128 179.4504L87.6144 180.3144L87.9312 181.8696L88.248 183.3096C88.68 185.268,88.8528 186.276,88.8528 186.276C88.8528 186.276,88.8528 186.276,88.8528 186.276C88.8528 186.276,88.968 186.276,89.112 186.2472C89.256 186.2472,89.7168 186.1896,90.2064 186.1896C90.55199999999999 186.1896,90.8976 186.2472,91.0704 186.2472C95.1312 186.7656,98.2704 189.6744,99.1632 193.764C99.336 194.4264,99.39359999999999 195.1464,99.39359999999999 195.8664C99.39359999999999 199.7544,97.0608 203.4696,93.1728 205.2264C92.94239999999999 205.3704,92.856 205.3992,92.856 205.3992L92.856 205.428C92.856 205.428,93.0288 206.0904,93.1728 206.8392L93.6048 209.028L94.008 210.7848C94.2384 211.908,94.3536 212.7144,94.3536 213.4344C94.3536 214.06799999999998,94.2672 214.644,94.1232 215.3064C93.144 219.3096,89.6592 221.7,86.0304 221.7C84.2448 221.7,82.4016 221.124,80.7888 219.828C79.3488 218.6184,78.7152 217.524,78.7152 216.084C78.7152 213.5496,80.76 211.764,82.8912 211.764C83.64 211.764,84.3888 211.99439999999998,85.1088 212.4264C86.3184 213.2616,86.8656 214.5288,86.8656 215.7672C86.8656 217.668,85.5408 219.54,83.2656 219.684L83.0352 219.684L83.208 219.79919999999998C84.1584 220.2024,85.1088 220.404,86.0304 220.404C88.3632 220.404,90.55199999999999 219.2232,91.8768 217.1784C92.62559999999999 216.0264,93.0288 214.6728,93.0288 213.3192C93.0288 212.8008,92.94239999999999 212.2824,92.8272 211.7064C92.8272 211.6488,92.74080000000001 211.188,92.62559999999999 210.756C91.992 207.6456,91.6176 205.8312,91.6176 205.8312C91.6176 205.8312,91.6176 205.8312,91.6176 205.8312C91.56 205.8312,91.4448 205.8312,91.3584 205.8888C91.0704 205.9464,90.4656 206.0904,90.2064 206.1192C89.5728 206.2056,88.968 206.2344,88.392 206.2344C82.74719999999999 206.2344,77.5056 202.4328,75.6912 196.8168C75.2304 195.3192,74.9712 193.8216,74.9712 192.324C74.9712 189.3288,75.9216 186.3912,77.7648 183.7704C79.7808 180.9192,81.7968 178.4712,84.2736 175.9368L85.13759999999999 175.044L84.936 173.9784L84.5616 172.2216L84.072 169.9752C83.928 169.14,83.7552 168.3336,83.7264 168.1608C83.5824 167.2104,83.496 166.2888,83.496 165.3384C83.496 161.7096,84.6768 158.22480000000002,86.8944 155.4312C87.5568 154.5672,88.7376 153.4152,89.0544 153.3288M90.8112 159.0312C90.7536 159.0312,90.6672 159.0312,90.5808 159.0312C89.4 159.0312,87.8736 160.1256,86.8368 161.7384C85.7712 163.32240000000002,85.224 165.4248,85.224 167.5848C85.224 168.1608,85.25280000000001 168.7656,85.3392 169.3704C85.4256 169.8024,85.45439999999999 170.0904,85.6848 171.12720000000002L86.088 172.9416C86.2032 173.4888,86.28960000000001 173.92079999999999,86.28960000000001 173.9784L86.28960000000001 173.9784C86.3184 173.9784,87.2112 172.9992,87.4992 172.6536C90.3792 169.3992,92.1072 165.972,92.4816 162.948C92.5104 162.66,92.5104 162.4296,92.5104 162.1416C92.5104 161.24880000000002,92.3952 160.38479999999998,92.1936 159.924C91.9632 159.4632,91.4448 159.0888,90.8112 159.0312M86.4624 181.2936C86.4048 180.8904,86.3184 180.5736,86.3184 180.516C86.3184 180.516,86.3184 180.516,86.28960000000001 180.516C86.232 180.516,84.9936 181.956,84.1296 182.964C82.6608 184.7496,81.1056 186.8808,80.472 187.9176C79.2624 189.9624,78.6576 192.2376,78.6576 194.484C78.6576 195.9528,78.9456 197.364,79.464 198.7176C81.0192 202.7208,84.5904 205.2264,88.4784 205.2264C88.9392 205.2264,89.4576 205.1976,89.9472 205.1112C90.5808 204.996,91.3584 204.7656,91.3584 204.6792L91.3584 204.6792C91.3584 204.6792,91.3008 204.3912,91.2144 204.0744L90.3792 199.956L89.7168 196.8744L89.2848 194.7432L88.824 192.6696C88.5936 191.4312,88.5072 191.1144,88.5072 191.1144C88.5072 191.1144,88.5072 191.0856,88.4784 191.0856C88.3056 191.0856,87.384 191.5464,86.9808 191.8344C85.4832 192.8712,84.7056 194.5128,84.7056 196.1256C84.7056 197.652,85.45439999999999 199.1784,86.8944 200.0712C87.2112 200.2728,87.3264 200.4456,87.3264 200.6472C87.3264 200.676,87.3264 200.7624,87.3264 200.7912C87.2688 201.1368,87.0672 201.2808,86.7792 201.2808C86.664 201.2808,86.52 201.252,86.3472 201.1656C83.6976 200.0136,81.912 197.2776,81.912 194.2824L81.912 194.2824C81.912 190.8264,84.072 187.8312,87.384 186.6504L87.5568 186.5928L87.2688 185.1528L86.4624 181.2936M90.7824 190.9128C90.55199999999999 190.88400000000001,90.3216 190.88400000000001,90.1488 190.88400000000001C90.0912 190.88400000000001,90.0048 190.88400000000001,89.9472 190.88400000000001L89.8032 190.88400000000001L89.9184 191.4024L90.5232 194.2248L90.8976 196.068L91.3008 197.8824L92.1072 201.8856L92.424 203.412C92.5392 203.8152,92.5968 204.1608,92.62559999999999 204.1608C92.62559999999999 204.1608,92.62559999999999 204.1608,92.62559999999999 204.1608C92.6544 204.1608,93.144 203.8728,93.4608 203.6424C94.9296 202.6056,96.024 200.9928,96.4272 199.3224C96.5712 198.7752,96.6288 198.1992,96.6288 197.652C96.6288 194.3112,94.152 191.2872,90.7824 190.9128"></path></g><path stroke-width="0.3" fill="#000000" stroke="none" stroke-dasharray="none" d="M116 186.5M121.0112 168.1544C121.04 168.1256,121.4432 168.1256,122.6816 168.1256C123.056 168.1256,123.4592 168.1256,123.9776 168.1256L126.8864 168.1256L126.9728 168.212C127.1168 168.29840000000002,127.2032 168.4424,127.2032 168.5576C127.2032 168.7304,127.1168 168.8456,127.0016 168.9608C126.9728 169.0472,126.7136 169.2776,126.5408 169.5368L125.0144 171.2936L123.056 173.5112L122.0192 174.692L120.464 176.4776L118.4192 178.8104C118.0736 179.2424,117.6992 179.588,117.6992 179.588C117.6992 179.588,117.6992 179.588,117.6992 179.588C117.6992 179.6456,117.9584 179.6456,120.3488 179.6456L122.9696 179.6456L122.9696 177.7736C122.9696 175.8728,122.9696 175.844,122.9984 175.8152C123.056 175.7288,123.3152 175.412,124.3232 174.2312L124.7264 173.7992L125.1296 173.3672L125.7344 172.5896L126.368 171.9272L126.6848 171.524C126.8 171.3512,126.9728 171.3224,127.1168 171.3224C127.28960000000001 171.3224,127.4336 171.4088,127.52 171.5528C127.5488 171.6392,127.5488 171.6968,127.5488 173.828C127.5488 174.3176,127.5488 174.9224,127.5488 175.6424L127.5488 179.6456L128.2688 179.6456C128.9312 179.6456,128.96 179.6456,129.0464 179.6744C129.2768 179.7608,129.392 179.9912,129.392 180.2504C129.392 180.3944,129.3632 180.5672,129.248 180.6824C129.0752 180.8264,129.0464 180.8264,128.2688 180.8264L127.5488 180.8264L127.5488 181.316C127.5776 182.7848,127.8656 183.3608,128.9888 183.9656C129.392 184.1672,129.4784 184.2248,129.4784 184.5128C129.4784 184.7144,129.42079999999999 184.8008,129.2768 184.916L129.1904 184.9448L125.2448 184.9448L121.328 184.9448L121.2416 184.916C121.0688 184.8008,121.04 184.7144,121.04 184.5128C121.04 184.2248,121.0688 184.1672,121.5008 183.9656C122.624 183.3608,122.912 182.7848,122.912 181.316L122.912 180.8264L119.6 180.8264C118.9952 180.88400000000001,118.5056 180.88400000000001,118.1024 180.88400000000001C116.288 180.88400000000001,116.2592 180.8264,116.2304 180.8264C116.0576 180.7688,116 180.596,116 180.3944C116 180.3944,116 180.3944,116 180.3944C116 180.1928,116 180.1928,116.576 179.5304C118.9952 176.5928,120.6944 172.3304,120.6944 168.93200000000002C120.6944 168.4136,120.7808 168.2408,121.0112 168.1544M122.7392 186.5288L122.768 186.5288L122.6816 186.5288L122.7392 186.5288M122.7392 167.1176L122.768 167.1176L122.6816 167.1176L122.7392 167.1176"></path><path stroke-width="0.3" fill="#000000" stroke="none" stroke-dasharray="none" d="M116 206.5M121.0112 188.1544C121.04 188.1256,121.4432 188.1256,122.6816 188.1256C123.056 188.1256,123.4592 188.1256,123.9776 188.1256L126.8864 188.1256L126.9728 188.212C127.1168 188.29840000000002,127.2032 188.4424,127.2032 188.5576C127.2032 188.7304,127.1168 188.8456,127.0016 188.9608C126.9728 189.0472,126.7136 189.2776,126.5408 189.5368L125.0144 191.2936L123.056 193.5112L122.0192 194.692L120.464 196.4776L118.4192 198.8104C118.0736 199.2424,117.6992 199.588,117.6992 199.588C117.6992 199.588,117.6992 199.588,117.6992 199.588C117.6992 199.6456,117.9584 199.6456,120.3488 199.6456L122.9696 199.6456L122.9696 197.7736C122.9696 195.8728,122.9696 195.844,122.9984 195.8152C123.056 195.7288,123.3152 195.412,124.3232 194.2312L124.7264 193.7992L125.1296 193.3672L125.7344 192.5896L126.368 191.9272L126.6848 191.524C126.8 191.3512,126.9728 191.3224,127.1168 191.3224C127.28960000000001 191.3224,127.4336 191.4088,127.52 191.5528C127.5488 191.6392,127.5488 191.6968,127.5488 193.828C127.5488 194.3176,127.5488 194.9224,127.5488 195.6424L127.5488 199.6456L128.2688 199.6456C128.9312 199.6456,128.96 199.6456,129.0464 199.6744C129.2768 199.7608,129.392 199.9912,129.392 200.2504C129.392 200.3944,129.3632 200.5672,129.248 200.6824C129.0752 200.8264,129.0464 200.8264,128.2688 200.8264L127.5488 200.8264L127.5488 201.316C127.5776 202.7848,127.8656 203.3608,128.9888 203.9656C129.392 204.1672,129.4784 204.2248,129.4784 204.5128C129.4784 204.7144,129.42079999999999 204.8008,129.2768 204.916L129.1904 204.9448L125.2448 204.9448L121.328 204.9448L121.2416 204.916C121.0688 204.8008,121.04 204.7144,121.04 204.5128C121.04 204.2248,121.0688 204.1672,121.5008 203.9656C122.624 203.3608,122.912 202.7848,122.912 201.316L122.912 200.8264L119.6 200.8264C118.9952 200.88400000000001,118.5056 200.88400000000001,118.1024 200.88400000000001C116.288 200.88400000000001,116.2592 200.8264,116.2304 200.8264C116.0576 200.7688,116 200.596,116 200.3944C116 200.3944,116 200.3944,116 200.3944C116 200.1928,116 200.1928,116.576 199.5304C118.9952 196.5928,120.6944 192.3304,120.6944 188.93200000000002C120.6944 188.4136,120.7808 188.2408,121.0112 188.1544M122.7392 206.5288L122.768 206.5288L122.6816 206.5288L122.7392 206.5288M122.7392 187.1176L122.768 187.1176L122.6816 187.1176L122.7392 187.1176"></path><g class="vf-stavenote" id="vf-auto4364780"><g class="vf-note" pointer-events="bounding-box"><g class="vf-stem" pointer-events="bounding-box"><path stroke-width="1.5" fill="none" stroke="#000000" stroke-dasharray="none" class="vf-stem" id="vf-auto4364780-stem" d="M269.38784 196.5L269.38784 161.5"></path></g><g class="vf-notehead" pointer-events="bounding-box"><path stroke-width="0.3" fill="#000000" stroke="none" stroke-dasharray="none" d="M258.1196 196.5M265.47656 191.27712C265.58888 191.27712,265.75736 191.27712,265.78544 191.27712C265.78544 191.27712,265.81352 191.27712,265.81352 191.27712C265.81352 191.27712,265.98199999999997 191.27712,266.12239999999997 191.27712C268.64959999999996 191.41752,270.13784 193.07424,270.13784 195.15216C270.13784 196.16304,269.80088 197.31432,268.95848 198.40944C267.35792 200.5716,264.74648 201.75096,262.472 201.75096C260.70296 201.75096,259.18664 201.04896,258.45655999999997 199.61688C258.23192 199.05528,258.1196 198.52176,258.1196 197.93208C258.1196 194.87136,261.54536 191.47368,265.47656 191.27712"></path></g></g><g class="vf-modifiers"></g></g><path stroke-width="1" fill="none" stroke="#000000" stroke-dasharray="none" d="M295.9452224 166.5L452.5120447999999 166.5"></path><path stroke-width="1" fill="none" stroke="#000000" stroke-dasharray="none" d="M295.9452224 176.5L452.5120447999999 176.5"></path><path stroke-width="1" fill="none" stroke="#000000" stroke-dasharray="none" d="M295.9452224 186.5L452.5120447999999 186.5"></path><path stroke-width="1" fill="none" stroke="#000000" stroke-dasharray="none" d="M295.9452224 196.5L452.5120447999999 196.5"></path><path stroke-width="1" fill="none" stroke="#000000" stroke-dasharray="none" d="M295.9452224 206.5L452.5120447999999 206.5"></path><rect stroke-width="0.3" fill="#000000" stroke="#000000" stroke-dasharray="none" x="452.5120447999999" y="166" width="1" height="41"></rect><g class="vf-stavenote" id="vf-auto4364817"><g class="vf-note" pointer-events="bounding-box"><g class="vf-stem" pointer-events="bounding-box"><path stroke-width="1.5" fill="none" stroke="#000000" stroke-dasharray="none" class="vf-stem" id="vf-auto4364817-stem" d="M324.21346239999997 211.5L324.21346239999997 176.5"></path></g><g class="vf-notehead" pointer-events="bounding-box"><path stroke-width="0.3" fill="#000000" stroke="none" stroke-dasharray="none" d="M312.9452224 211.5M320.3021824 206.27712C320.4145024 206.27712,320.5829824 206.27712,320.6110624 206.27712C320.6110624 206.27712,320.63914239999997 206.27712,320.63914239999997 206.27712C320.63914239999997 206.27712,320.80762239999996 206.27712,320.94802239999996 206.27712C323.4752224 206.41752,324.96346239999997 208.07424,324.96346239999997 210.15216C324.96346239999997 211.16304,324.6265024 212.31432,323.7841024 213.40944C322.18354239999996 215.5716,319.57210239999995 216.75096,317.29762239999997 216.75096C315.5285824 216.75096,314.0122624 216.04896,313.28218239999995 214.61688C313.0575424 214.05528,312.9452224 213.52176,312.9452224 212.93208C312.9452224 209.87136,316.3709824 206.47368,320.3021824 206.27712"></path></g></g><g class="vf-modifiers"></g></g><g class="vf-stavenote" id="vf-auto4364825"><g class="vf-note" pointer-events="bounding-box"><g class="vf-stem" pointer-events="bounding-box"><path stroke-width="1.5" fill="none" stroke="#000000" stroke-dasharray="none" class="vf-stem" id="vf-auto4364825-stem" d="M348.9452224 181.5L348.9452224 216.5"></path></g><g class="vf-notehead" pointer-events="bounding-box"><path stroke-width="0.3" fill="#000000" stroke="none" stroke-dasharray="none" d="M348.1952224 181.5M355.5521824 176.27712C355.6645024 176.27712,355.8329824 176.27712,355.8610624 176.27712C355.8610624 176.27712,355.88914239999997 176.27712,355.88914239999997 176.27712C355.88914239999997 176.27712,356.05762239999996 176.27712,356.19802239999996 176.27712C358.7252224 176.41752,360.21346239999997 178.07424,360.21346239999997 180.15216C360.21346239999997 181.16304,359.8765024 182.31432,359.0341024 183.40944C357.43354239999996 185.5716,354.82210239999995 186.75096,352.54762239999997 186.75096C350.7785824 186.75096,349.2622624 186.04896,348.53218239999995 184.61688C348.3075424 184.05528,348.1952224 183.52176,348.1952224 182.93208C348.1952224 179.87136,351.6209824 176.47368,355.5521824 176.27712"></path></g></g><g class="vf-modifiers"></g></g><path stroke-width="1" fill="none" stroke="#000000" stroke-dasharray="none" d="M380.4452224 216.5L398.46346239999997 216.5"></path><g class="vf-stavenote" id="vf-auto4364833"><g class="vf-note" pointer-events="bounding-box"><g class="vf-stem" pointer-events="bounding-box"><path stroke-width="1.5" fill="none" stroke="#000000" stroke-dasharray="none" class="vf-stem" id="vf-auto4364833-stem" d="M394.71346239999997 216.5L394.71346239999997 181.5"></path></g><g class="vf-notehead" pointer-events="bounding-box"><path stroke-width="0.3" fill="#000000" stroke="none" stroke-dasharray="none" d="M383.4452224 216.5M390.8021824 211.27712C390.9145024 211.27712,391.0829824 211.27712,391.1110624 211.27712C391.1110624 211.27712,391.13914239999997 211.27712,391.13914239999997 211.27712C391.13914239999997 211.27712,391.30762239999996 211.27712,391.44802239999996 211.27712C393.9752224 211.41752,395.46346239999997 213.07424,395.46346239999997 215.15216C395.46346239999997 216.16304,395.1265024 217.31432,394.2841024 218.40944C392.68354239999996 220.5716,390.07210239999995 221.75096,387.79762239999997 221.75096C386.0285824 221.75096,384.5122624 221.04896,383.78218239999995 219.61688C383.5575424 219.05528,383.4452224 218.52176,383.4452224 217.93208C383.4452224 214.87136,386.8709824 211.47368,390.8021824 211.27712"></path></g></g><g class="vf-modifiers"></g></g><path stroke-width="1" fill="none" stroke="#000000" stroke-dasharray="none" d="M415.6952224 216.5L433.71346239999997 216.5"></path><g class="vf-stavenote" id="vf-auto4364841"><g class="vf-note" pointer-events="bounding-box"><g class="vf-stem" pointer-events="bounding-box"><path stroke-width="1.5" fill="none" stroke="#000000" stroke-dasharray="none" class="vf-stem" id="vf-auto4364841-stem" d="M429.96346239999997 221.5L429.96346239999997 186.5"></path></g><g class="vf-notehead" pointer-events="bounding-box"><path stroke-width="0.3" fill="#000000" stroke="none" stroke-dasharray="none" d="M418.6952224 221.5M426.0521824 216.27712C426.1645024 216.27712,426.3329824 216.27712,426.3610624 216.27712C426.3610624 216.27712,426.38914239999997 216.27712,426.38914239999997 216.27712C426.38914239999997 216.27712,426.55762239999996 216.27712,426.69802239999996 216.27712C429.2252224 216.41752,430.71346239999997 218.07424,430.71346239999997 220.15216C430.71346239999997 221.16304,430.3765024 222.31432,429.5341024 223.40944C427.93354239999996 225.5716,425.32210239999995 226.75096,423.04762239999997 226.75096C421.2785824 226.75096,419.7622624 226.04896,419.03218239999995 224.61688C418.8075424 224.05528,418.6952224 223.52176,418.6952224 222.93208C418.6952224 219.87136,422.1209824 216.47368,426.0521824 216.27712"></path></g></g><g class="vf-modifiers"></g></g><path stroke-width="1" fill="none" stroke="#000000" stroke-dasharray="none" d="M452.5120447999999 166.5L592.2788671999999 166.5"></path><path stroke-width="1" fill="none" stroke="#000000" stroke-dasharray="none" d="M452.5120447999999 176.5L592.2788671999999 176.5"></path><path stroke-width="1" fill="none" stroke="#000000" stroke-dasharray="none" d="M452.5120447999999 186.5L592.2788671999999 186.5"></path><path stroke-width="1" fill="none" stroke="#000000" stroke-dasharray="none" d="M452.5120447999999 196.5L592.2788671999999 196.5"></path><path stroke-width="1" fill="none" stroke="#000000" stroke-dasharray="none" d="M452.5120447999999 206.5L592.2788671999999 206.5"></path><rect stroke-width="0.3" fill="#000000" stroke="#000000" stroke-dasharray="none" x="592.2788671999999" y="166" width="1" height="41"></rect><path stroke-width="1" fill="none" stroke="#000000" stroke-dasharray="none" d="M592.2788671999999 166.5L742.0456895999998 166.5"></path><path stroke-width="1" fill="none" stroke="#000000" stroke-dasharray="none" d="M592.2788671999999 176.5L742.0456895999998 176.5"></path><path stroke-width="1" fill="none" stroke="#000000" stroke-dasharray="none" d="M592.2788671999999 186.5L742.0456895999998 186.5"></path><path stroke-width="1" fill="none" stroke="#000000" stroke-dasharray="none" d="M592.2788671999999 196.5L742.0456895999998 196.5"></path><path stroke-width="1" fill="none" stroke="#000000" stroke-dasharray="none" d="M592.2788671999999 206.5L742.0456895999998 206.5"></path><rect stroke-width="0.3" fill="#000000" stroke="#000000" stroke-dasharray="none" x="737.0456895999998" y="166" width="1" height="41"></rect><rect stroke-width="0.3" fill="#000000" stroke="#000000" stroke-dasharray="none" x="740.0456895999998" y="166" width="3" height="41"></rect><path stroke-width="0.3" fill="#000000" stroke="none" stroke-dasharray="none" d="M736.0456895999998 182 A2 2 0 0 0 732.0456895999998 182M732.0456895999998 182 A2 2 0 0 0 736.0456895999998 182"></path><path stroke-width="0.3" fill="#000000" stroke="none" stroke-dasharray="none" d="M736.0456895999998 192 A2 2 0 0 0 732.0456895999998 192M732.0456895999998 192 A2 2 0 0 0 736.0456895999998 192"></path><g class="vf-text"><text stroke-width="0.3" fill="#000000" stroke="none" stroke-dasharray="none" font-family="Times New Roman" font-size="23px" font-weight="bold" font-style="italic" x="165.4784" y="240.5">p</text></g><path stroke-width="1" fill="none" stroke="#000000" stroke-dasharray="none" d="M70 270.29999999999995L295.9452224 270.29999999999995"></path><path stroke-width="1" fill="none" stroke="#000000" stroke-dasharray="none" d="M70 280.29999999999995L295.9452224 280.29999999999995"></path><path stroke-width="1" fill="none" stroke="#000000" stroke-dasharray="none" d="M70 290.29999999999995L295.9452224 290.29999999999995"></path><path stroke-width="1" fill="none" stroke="#000000" stroke-dasharray="none" d="M70 300.29999999999995L295.9452224 300.29999999999995"></path><path stroke-width="1" fill="none" stroke="#000000" stroke-dasharray="none" d="M70 310.29999999999995L295.9452224 310.29999999999995"></path><rect stroke-width="0.3" fill="#000000" stroke="#000000" stroke-dasharray="none" x="295.9452224" y="269.79999999999995" width="1" height="41"></rect><g class="vf-clef"><path stroke-width="0.3" fill="#000000" stroke="none" stroke-dasharray="none" d="M75 280.29999999999995M83.8416 270.24879999999996C84.072 270.1912,84.3024 270.1912,84.5616 270.1912C85.5696 270.1912,86.7504 270.30639999999994,87.7584 270.508C92.4816 271.4872,95.736 274.68399999999997,96.3408 278.9464C96.3984 279.40719999999993,96.4272 279.83919999999995,96.4272 280.29999999999995C96.4272 282.89199999999994,95.5344 286.23279999999994,94.008 289.02639999999997C90.3792 295.59279999999995,83.7552 300.316,75.8064 302.044C75.6624 302.044,75.5472 302.0728,75.4032 302.0728C75.1152 302.0728,74.9712 301.9,74.9712 301.64079999999996C74.9712 301.35279999999995,75.0288 301.2664,75.6048 301.03599999999994C84.7056 297.6088,90.7824 290.20719999999994,91.3296 281.91279999999995C91.3584 281.48079999999993,91.3584 280.99119999999994,91.3584 280.61679999999996C91.3584 276.5848,90.12 273.58959999999996,87.7296 272.0919999999999C86.6928 271.42959999999994,85.5696 271.11279999999994,84.36 271.11279999999994C81.6816 271.11279999999994,78.9456 272.63919999999996,77.6784 275.20239999999995C77.6208 275.40399999999994,77.4192 275.83599999999996,77.4192 275.86479999999995C77.4192 275.86479999999995,77.4192 275.86479999999995,77.4192 275.86479999999995C77.4192 275.86479999999995,77.448 275.83599999999996,77.5344 275.80719999999997C78.168 275.40399999999994,78.8592 275.20239999999995,79.5792 275.20239999999995C80.5872 275.20239999999995,81.6528 275.63439999999997,82.4016 276.44079999999997C83.0928 277.1895999999999,83.4672 278.19759999999997,83.4672 279.1192C83.4672 280.99119999999994,82.0848 282.89199999999994,79.9248 283.0936C79.7808 283.0936,79.6368 283.12239999999997,79.4928 283.12239999999997C77.1024 283.12239999999997,75.1728 280.93359999999996,75.1728 278.1688C75.1728 278.11119999999994,75.1728 278.02479999999997,75.1728 277.996C75.288 273.8776,79.0608 270.508,83.8416 270.24879999999996M99.1632 274.10799999999995C99.2208 274.07919999999996,99.2496 274.07919999999996,99.336 274.07919999999996C99.5376 274.07919999999996,99.768 274.10799999999995,99.8256 274.1655999999999C100.54560000000001 274.36719999999997,100.8912 275.00079999999997,100.8912 275.6056C100.8912 276.12399999999997,100.632 276.64239999999995,100.11359999999999 276.93039999999996C99.912 277.07439999999997,99.6528 277.10319999999996,99.39359999999999 277.10319999999996C98.9904 277.10319999999996,98.5584 276.93039999999996,98.2704 276.5559999999999C98.03999999999999 276.268,97.9248 275.9512,97.9248 275.63439999999997C97.9248 274.91439999999994,98.3856 274.1944,99.1632 274.10799999999995M99.1632 283.52559999999994C99.2208 283.52559999999994,99.2496 283.52559999999994,99.336 283.52559999999994C99.5376 283.52559999999994,99.768 283.55439999999993,99.8256 283.61199999999997C100.54560000000001 283.81359999999995,100.8912 284.44719999999995,100.8912 285.05199999999996C100.8912 285.57039999999995,100.632 286.08879999999994,100.11359999999999 286.34799999999996C99.912 286.49199999999996,99.6528 286.54959999999994,99.39359999999999 286.54959999999994C98.9904 286.54959999999994,98.5584 286.34799999999996,98.2704 286.00239999999997C98.03999999999999 285.71439999999996,97.9248 285.39759999999995,97.9248 285.05199999999996C97.9248 284.33199999999994,98.3856 283.64079999999996,99.1632 283.52559999999994"></path></g><path stroke-width="0.3" fill="#000000" stroke="none" stroke-dasharray="none" d="M116 290.29999999999995M121.0112 271.95439999999996C121.04 271.9256,121.4432 271.9256,122.6816 271.9256C123.056 271.9256,123.4592 271.9256,123.9776 271.9256L126.8864 271.9256L126.9728 272.01199999999994C127.1168 272.09839999999997,127.2032 272.2424,127.2032 272.35759999999993C127.2032 272.53039999999993,127.1168 272.64559999999994,127.0016 272.76079999999996C126.9728 272.84719999999993,126.7136 273.07759999999996,126.5408 273.3367999999999L125.0144 275.0936L123.056 277.31119999999993L122.0192 278.49199999999996L120.464 280.27759999999995L118.4192 282.61039999999997C118.0736 283.04239999999993,117.6992 283.388,117.6992 283.388C117.6992 283.388,117.6992 283.388,117.6992 283.388C117.6992 283.44559999999996,117.9584 283.44559999999996,120.3488 283.44559999999996L122.9696 283.44559999999996L122.9696 281.57359999999994C122.9696 279.67279999999994,122.9696 279.64399999999995,122.9984 279.61519999999996C123.056 279.52879999999993,123.3152 279.21199999999993,124.3232 278.03119999999996L124.7264 277.59919999999994L125.1296 277.1672L125.7344 276.3896L126.368 275.7272L126.6848 275.32399999999996C126.8 275.15119999999996,126.9728 275.12239999999997,127.1168 275.12239999999997C127.28960000000001 275.12239999999997,127.4336 275.20879999999994,127.52 275.35279999999995C127.5488 275.43919999999997,127.5488 275.49679999999995,127.5488 277.62799999999993C127.5488 278.1176,127.5488 278.72239999999994,127.5488 279.44239999999996L127.5488 283.44559999999996L128.2688 283.44559999999996C128.9312 283.44559999999996,128.96 283.44559999999996,129.0464 283.47439999999995C129.2768 283.5608,129.392 283.79119999999995,129.392 284.05039999999997C129.392 284.1944,129.3632 284.36719999999997,129.248 284.4823999999999C129.0752 284.62639999999993,129.0464 284.62639999999993,128.2688 284.62639999999993L127.5488 284.62639999999993L127.5488 285.11599999999993C127.5776 286.5848,127.8656 287.16079999999994,128.9888 287.76559999999995C129.392 287.96719999999993,129.4784 288.02479999999997,129.4784 288.3128C129.4784 288.51439999999997,129.42079999999999 288.60079999999994,129.2768 288.71599999999995L129.1904 288.74479999999994L125.2448 288.74479999999994L121.328 288.74479999999994L121.2416 288.71599999999995C121.0688 288.60079999999994,121.04 288.51439999999997,121.04 288.3128C121.04 288.02479999999997,121.0688 287.96719999999993,121.5008 287.76559999999995C122.624 287.16079999999994,122.912 286.5848,122.912 285.11599999999993L122.912 284.62639999999993L119.6 284.62639999999993C118.9952 284.68399999999997,118.5056 284.68399999999997,118.1024 284.68399999999997C116.288 284.68399999999997,116.2592 284.62639999999993,116.2304 284.62639999999993C116.0576 284.56879999999995,116 284.39599999999996,116 284.1944C116 284.1944,116 284.1944,116 284.1944C116 283.99279999999993,116 283.99279999999993,116.576 283.33039999999994C118.9952 280.39279999999997,120.6944 276.13039999999995,120.6944 272.73199999999997C120.6944 272.21359999999993,120.7808 272.04079999999993,121.0112 271.95439999999996M122.7392 290.32879999999994L122.768 290.32879999999994L122.6816 290.32879999999994L122.7392 290.32879999999994M122.7392 270.91759999999994L122.768 270.91759999999994L122.6816 270.91759999999994L122.7392 270.91759999999994"></path><path stroke-width="0.3" fill="#000000" stroke="none" stroke-dasharray="none" d="M116 310.29999999999995M121.0112 291.95439999999996C121.04 291.9256,121.4432 291.9256,122.6816 291.9256C123.056 291.9256,123.4592 291.9256,123.9776 291.9256L126.8864 291.9256L126.9728 292.01199999999994C127.1168 292.09839999999997,127.2032 292.2424,127.2032 292.35759999999993C127.2032 292.53039999999993,127.1168 292.64559999999994,127.0016 292.76079999999996C126.9728 292.84719999999993,126.7136 293.07759999999996,126.5408 293.3367999999999L125.0144 295.0936L123.056 297.31119999999993L122.0192 298.49199999999996L120.464 300.27759999999995L118.4192 302.61039999999997C118.0736 303.04239999999993,117.6992 303.388,117.6992 303.388C117.6992 303.388,117.6992 303.388,117.6992 303.388C117.6992 303.44559999999996,117.9584 303.44559999999996,120.3488 303.44559999999996L122.9696 303.44559999999996L122.9696 301.57359999999994C122.9696 299.67279999999994,122.9696 299.64399999999995,122.9984 299.61519999999996C123.056 299.52879999999993,123.3152 299.21199999999993,124.3232 298.03119999999996L124.7264 297.59919999999994L125.1296 297.1672L125.7344 296.3896L126.368 295.7272L126.6848 295.32399999999996C126.8 295.15119999999996,126.9728 295.12239999999997,127.1168 295.12239999999997C127.28960000000001 295.12239999999997,127.4336 295.20879999999994,127.52 295.35279999999995C127.5488 295.43919999999997,127.5488 295.49679999999995,127.5488 297.62799999999993C127.5488 298.1176,127.5488 298.72239999999994,127.5488 299.44239999999996L127.5488 303.44559999999996L128.2688 303.44559999999996C128.9312 303.44559999999996,128.96 303.44559999999996,129.0464 303.47439999999995C129.2768 303.5608,129.392 303.79119999999995,129.392 304.05039999999997C129.392 304.1944,129.3632 304.36719999999997,129.248 304.4823999999999C129.0752 304.62639999999993,129.0464 304.62639999999993,128.2688 304.62639999999993L127.5488 304.62639999999993L127.5488 305.11599999999993C127.5776 306.5848,127.8656 307.16079999999994,128.9888 307.76559999999995C129.392 307.96719999999993,129.4784 308.02479999999997,129.4784 308.3128C129.4784 308.51439999999997,129.42079999999999 308.60079999999994,129.2768 308.71599999999995L129.1904 308.74479999999994L125.2448 308.74479999999994L121.328 308.74479999999994L121.2416 308.71599999999995C121.0688 308.60079999999994,121.04 308.51439999999997,121.04 308.3128C121.04 308.02479999999997,121.0688 307.96719999999993,121.5008 307.76559999999995C122.624 307.16079999999994,122.912 306.5848,122.912 305.11599999999993L122.912 304.62639999999993L119.6 304.62639999999993C118.9952 304.68399999999997,118.5056 304.68399999999997,118.1024 304.68399999999997C116.288 304.68399999999997,116.2592 304.62639999999993,116.2304 304.62639999999993C116.0576 304.56879999999995,116 304.39599999999996,116 304.1944C116 304.1944,116 304.1944,116 304.1944C116 303.99279999999993,116 303.99279999999993,116.576 303.33039999999994C118.9952 300.39279999999997,120.6944 296.13039999999995,120.6944 292.73199999999997C120.6944 292.21359999999993,120.7808 292.04079999999993,121.0112 291.95439999999996M122.7392 310.32879999999994L122.768 310.32879999999994L122.6816 310.32879999999994L122.7392 310.32879999999994M122.7392 290.91759999999994L122.768 290.91759999999994L122.6816 290.91759999999994L122.7392 290.91759999999994"></path><path stroke-width="1" fill="none" stroke="#000000" stroke-dasharray="none" d="M138.4784 260.29999999999995L156.49663999999999 260.29999999999995"></path><g class="vf-stavenote" id="vf-auto4364791"><g class="vf-note" pointer-events="bounding-box"><g class="vf-stem" pointer-events="bounding-box"><path stroke-width="1.5" fill="none" stroke="#000000" stroke-dasharray="none" class="vf-stem" id="vf-auto4364791-stem" d="M142.2284 260.29999999999995L142.2284 295.29999999999995"></path></g><g class="vf-notehead" pointer-events="bounding-box"><path stroke-width="0.3" fill="#000000" stroke="none" stroke-dasharray="none" d="M141.4784 260.29999999999995M148.83535999999998 255.07711999999995C148.94768 255.07711999999995,149.11615999999998 255.07711999999995,149.14424 255.07711999999995C149.14424 255.07711999999995,149.17231999999998 255.07711999999995,149.17231999999998 255.07711999999995C149.17231999999998 255.07711999999995,149.3408 255.07711999999995,149.4812 255.07711999999995C152.0084 255.21751999999995,153.49663999999999 256.87423999999993,153.49663999999999 258.95215999999994C153.49663999999999 259.96304,153.15967999999998 261.11431999999996,152.31727999999998 262.20944C150.71671999999998 264.37159999999994,148.10528 265.55096,145.83079999999998 265.55096C144.06176 265.55096,142.54543999999999 264.84896,141.81536 263.41687999999994C141.59072 262.85527999999994,141.4784 262.3217599999999,141.4784 261.73207999999994C141.4784 258.67135999999994,144.90416 255.27367999999996,148.83535999999998 255.07711999999995"></path></g></g><g class="vf-modifiers"></g></g><g class="vf-stavenote" id="vf-auto4364799"><g class="vf-note" pointer-events="bounding-box"><g class="vf-stem" pointer-events="bounding-box"><path stroke-width="1.5" fill="none" stroke="#000000" stroke-dasharray="none" class="vf-stem" id="vf-auto4364799-stem" d="M191.62704 290.29999999999995L191.62704 255.29999999999995"></path></g><g class="vf-notehead" pointer-events="bounding-box"><path stroke-width="0.3" fill="#000000" stroke="none" stroke-dasharray="none" d="M180.3588 290.29999999999995M187.71576 285.07712C187.82808 285.07712,187.99656 285.07712,188.02464 285.07712C188.02464 285.07712,188.05272 285.07712,188.05272 285.07712C188.05272 285.07712,188.2212 285.07712,188.3616 285.07712C190.8888 285.21752,192.37704 286.87423999999993,192.37704 288.95215999999994C192.37704 289.96304,192.04008 291.11431999999996,191.19768 292.20944C189.59712 294.37159999999994,186.98568 295.55096,184.7112 295.55096C182.94216 295.55096,181.42584 294.84896,180.69576 293.41687999999994C180.47112 292.85527999999994,180.3588 292.3217599999999,180.3588 291.73207999999994C180.3588 288.67135999999994,183.78456 285.27367999999996,187.71576 285.07712"></path></g></g><g class="vf-modifiers"></g></g><g class="vf-stavenote" id="vf-auto4364807"><g class="vf-note" pointer-events="bounding-box"><g class="vf-stem" pointer-events="bounding-box"><path stroke-width="1.5" fill="none" stroke="#000000" stroke-dasharray="none" class="vf-stem" id="vf-auto4364807-stem" d="M219.98919999999998 270.29999999999995L219.98919999999998 305.29999999999995"></path></g><g class="vf-notehead" pointer-events="bounding-box"><path stroke-width="0.3" fill="#000000" stroke="none" stroke-dasharray="none" d="M219.23919999999998 270.29999999999995M226.59615999999997 265.07712C226.70847999999998 265.07712,226.87696 265.07712,226.90503999999999 265.07712C226.90503999999999 265.07712,226.93311999999997 265.07712,226.93311999999997 265.07712C226.93311999999997 265.07712,227.1016 265.07712,227.242 265.07712C229.76919999999998 265.21752,231.25743999999997 266.87423999999993,231.25743999999997 268.95215999999994C231.25743999999997 269.96304,230.92048 271.11431999999996,230.07807999999997 272.20944C228.47751999999997 274.37159999999994,225.86607999999998 275.55096,223.59159999999997 275.55096C221.82255999999998 275.55096,220.30623999999997 274.84896,219.57616 273.41687999999994C219.35152 272.85527999999994,219.23919999999998 272.3217599999999,219.23919999999998 271.73207999999994C219.23919999999998 268.67135999999994,222.66495999999998 265.27367999999996,226.59615999999997 265.07712"></path></g></g><g class="vf-modifiers"></g></g><rect stroke-width="0.3" fill="#000000" stroke="#000000" stroke-dasharray="none" x="295.9452224" y="166.5" width="1" height="144.79999999999995"></rect><rect stroke-width="0.3" fill="#000000" stroke="#000000" stroke-dasharray="none" x="70" y="166.5" width="1" height="144.79999999999995"></rect><path stroke-width="1" fill="none" stroke="#000000" stroke-dasharray="none" d="M295.9452224 270.29999999999995L452.5120447999999 270.29999999999995"></path><path stroke-width="1" fill="none" stroke="#000000" stroke-dasharray="none" d="M295.9452224 280.29999999999995L452.5120447999999 280.29999999999995"></path><path stroke-width="1" fill="none" stroke="#000000" stroke-dasharray="none" d="M295.9452224 290.29999999999995L452.5120447999999 290.29999999999995"></path><path stroke-width="1" fill="none" stroke="#000000" stroke-dasharray="none" d="M295.9452224 300.29999999999995L452.5120447999999 300.29999999999995"></path><path stroke-width="1" fill="none" stroke="#000000" stroke-dasharray="none" d="M295.9452224 310.29999999999995L452.5120447999999 310.29999999999995"></path><rect stroke-width="0.3" fill="#000000" stroke="#000000" stroke-dasharray="none" x="452.5120447999999" y="269.79999999999995" width="1" height="41"></rect><rect stroke-width="0.3" fill="#000000" stroke="#000000" stroke-dasharray="none" x="452.5120447999999" y="166.5" width="1" height="144.79999999999995"></rect><path stroke-width="1" fill="none" stroke="#000000" stroke-dasharray="none" d="M452.5120447999999 270.29999999999995L592.2788671999999 270.29999999999995"></path><path stroke-width="1" fill="none" stroke="#000000" stroke-dasharray="none" d="M452.5120447999999 280.29999999999995L592.2788671999999 280.29999999999995"></path><path stroke-width="1" fill="none" stroke="#000000" stroke-dasharray="none" d="M452.5120447999999 290.29999999999995L592.2788671999999 290.29999999999995"></path><path stroke-width="1" fill="none" stroke="#000000" stroke-dasharray="none" d="M452.5120447999999 300.29999999999995L592.2788671999999 300.29999999999995"></path><path stroke-width="1" fill="none" stroke="#000000" stroke-dasharray="none" d="M452.5120447999999 310.29999999999995L592.2788671999999 310.29999999999995"></path><rect stroke-width="0.3" fill="#000000" stroke="#000000" stroke-dasharray="none" x="592.2788671999999" y="269.79999999999995" width="1" height="41"></rect><g class="vf-stavenote" id="vf-auto4364850"><g class="vf-note" pointer-events="bounding-box"><g class="vf-stem" pointer-events="bounding-box"><path stroke-width="1.5" fill="none" stroke="#000000" stroke-dasharray="none" class="vf-stem" id="vf-auto4364850-stem" d="M470.2620447999999 280.29999999999995L470.2620447999999 315.29999999999995"></path></g><g class="vf-notehead" pointer-events="bounding-box"><path stroke-width="0.3" fill="#000000" stroke="none" stroke-dasharray="none" d="M469.5120447999999 280.29999999999995M476.8690047999999 275.07712C476.9813247999999 275.07712,477.1498047999999 275.07712,477.1778847999999 275.07712C477.1778847999999 275.07712,477.2059647999999 275.07712,477.2059647999999 275.07712C477.2059647999999 275.07712,477.3744447999999 275.07712,477.5148447999999 275.07712C480.04204479999987 275.21752,481.5302847999999 276.87423999999993,481.5302847999999 278.95215999999994C481.5302847999999 279.96304,481.1933247999999 281.11431999999996,480.3509247999999 282.20944C478.7503647999999 284.37159999999994,476.1389247999999 285.55096,473.8644447999999 285.55096C472.0954047999999 285.55096,470.5790847999999 284.84896,469.8490047999999 283.41687999999994C469.6243647999999 282.85527999999994,469.5120447999999 282.3217599999999,469.5120447999999 281.73207999999994C469.5120447999999 278.67135999999994,472.9378047999999 275.27367999999996,476.8690047999999 275.07712"></path></g></g><g class="vf-modifiers"></g></g><g class="vf-stavenote" id="vf-auto4364858"><g class="vf-note" pointer-events="bounding-box"><g class="vf-stem" pointer-events="bounding-box"><path stroke-width="1.5" fill="none" stroke="#000000" stroke-dasharray="none" class="vf-stem" id="vf-auto4364858-stem" d="M501.2620447999999 275.29999999999995L501.2620447999999 310.29999999999995"></path></g><g class="vf-notehead" pointer-events="bounding-box"><path stroke-width="0.3" fill="#000000" stroke="none" stroke-dasharray="none" d="M500.5120447999999 275.29999999999995M507.8690047999999 270.07712C507.9813247999999 270.07712,508.1498047999999 270.07712,508.1778847999999 270.07712C508.1778847999999 270.07712,508.2059647999999 270.07712,508.2059647999999 270.07712C508.2059647999999 270.07712,508.3744447999999 270.07712,508.5148447999999 270.07712C511.04204479999987 270.21752,512.5302847999999 271.87423999999993,512.5302847999999 273.95215999999994C512.5302847999999 274.96304,512.1933247999999 276.11431999999996,511.3509247999999 277.20944C509.7503647999999 279.37159999999994,507.1389247999999 280.55096,504.8644447999999 280.55096C503.0954047999999 280.55096,501.5790847999999 279.84896,500.8490047999999 278.41687999999994C500.6243647999999 277.85527999999994,500.5120447999999 277.3217599999999,500.5120447999999 276.73207999999994C500.5120447999999 273.67135999999994,503.9378047999999 270.27367999999996,507.8690047999999 270.07712"></path></g></g><g class="vf-modifiers"></g></g><g class="vf-stavenote" id="vf-auto4364866"><g class="vf-note" pointer-events="bounding-box"><g class="vf-stem" pointer-events="bounding-box"><path stroke-width="1.5" fill="none" stroke="#000000" stroke-dasharray="none" class="vf-stem" id="vf-auto4364866-stem" d="M542.7802847999999 310.29999999999995L542.7802847999999 275.29999999999995"></path></g><g class="vf-notehead" pointer-events="bounding-box"><path stroke-width="0.3" fill="#000000" stroke="none" stroke-dasharray="none" d="M531.5120447999999 310.29999999999995M538.8690047999999 305.07712C538.9813247999999 305.07712,539.1498047999999 305.07712,539.1778847999999 305.07712C539.1778847999999 305.07712,539.2059648 305.07712,539.2059648 305.07712C539.2059648 305.07712,539.3744447999999 305.07712,539.5148447999999 305.07712C542.0420447999999 305.21752,543.5302847999999 306.87423999999993,543.5302847999999 308.95215999999994C543.5302847999999 309.96304,543.1933247999999 311.11431999999996,542.3509247999999 312.20944C540.7503647999999 314.37159999999994,538.1389247999999 315.55096,535.8644447999999 315.55096C534.0954047999999 315.55096,532.5790847999999 314.84896,531.8490047999999 313.41687999999994C531.6243647999999 312.85527999999994,531.5120447999999 312.3217599999999,531.5120447999999 311.73207999999994C531.5120447999999 308.67135999999994,534.9378047999999 305.27367999999996,538.8690047999999 305.07712"></path></g></g><g class="vf-modifiers"></g></g><g class="vf-stavenote" id="vf-auto4364874"><g class="vf-note" pointer-events="bounding-box"><g class="vf-stem" pointer-events="bounding-box"><path stroke-width="1.5" fill="none" stroke="#000000" stroke-dasharray="none" class="vf-stem" id="vf-auto4364874-stem" d="M573.7802847999999 295.29999999999995L573.7802847999999 260.29999999999995"></path></g><g class="vf-notehead" pointer-events="bounding-box"><path stroke-width="0.3" fill="#000000" stroke="none" stroke-dasharray="none" d="M562.5120447999999 295.29999999999995M569.8690047999999 290.07712C569.9813247999999 290.07712,570.1498047999999 290.07712,570.1778847999999 290.07712C570.1778847999999 290.07712,570.2059648 290.07712,570.2059648 290.07712C570.2059648 290.07712,570.3744447999999 290.07712,570.5148447999999 290.07712C573.0420447999999 290.21752,574.5302847999999 291.87423999999993,574.5302847999999 293.95215999999994C574.5302847999999 294.96304,574.1933247999999 296.11431999999996,573.3509247999999 297.20944C571.7503647999999 299.37159999999994,569.1389247999999 300.55096,566.8644447999999 300.55096C565.0954047999999 300.55096,563.5790847999999 299.84896,562.8490047999999 298.41687999999994C562.6243647999999 297.85527999999994,562.5120447999999 297.3217599999999,562.5120447999999 296.73207999999994C562.5120447999999 293.67135999999994,565.9378047999999 290.27367999999996,569.8690047999999 290.07712"></path></g></g><g class="vf-modifiers"></g></g><rect stroke-width="0.3" fill="#000000" stroke="#000000" stroke-dasharray="none" x="592.2788671999999" y="166.5" width="1" height="144.79999999999995"></rect><path stroke-width="1" fill="none" stroke="#000000" stroke-dasharray="none" d="M592.2788671999999 270.29999999999995L742.0456895999998 270.29999999999995"></path><path stroke-width="1" fill="none" stroke="#000000" stroke-dasharray="none" d="M592.2788671999999 280.29999999999995L742.0456895999998 280.29999999999995"></path><path stroke-width="1" fill="none" stroke="#000000" stroke-dasharray="none" d="M592.2788671999999 290.29999999999995L742.0456895999998 290.29999999999995"></path><path stroke-width="1" fill="none" stroke="#000000" stroke-dasharray="none" d="M592.2788671999999 300.29999999999995L742.0456895999998 300.29999999999995"></path><path stroke-width="1" fill="none" stroke="#000000" stroke-dasharray="none" d="M592.2788671999999 310.29999999999995L742.0456895999998 310.29999999999995"></path><rect stroke-width="0.3" fill="#000000" stroke="#000000" stroke-dasharray="none" x="737.0456895999998" y="269.79999999999995" width="1" height="41"></rect><rect stroke-width="0.3" fill="#000000" stroke="#000000" stroke-dasharray="none" x="740.0456895999998" y="269.79999999999995" width="3" height="41"></rect><path stroke-width="0.3" fill="#000000" stroke="none" stroke-dasharray="none" d="M736.0456895999998 285.79999999999995 A2 2 0 0 0 732.0456895999998 285.79999999999995M732.0456895999998 285.79999999999995 A2 2 0 0 0 736.0456895999998 285.79999999999995"></path><path stroke-width="0.3" fill="#000000" stroke="none" stroke-dasharray="none" d="M736.0456895999998 295.79999999999995 A2 2 0 0 0 732.0456895999998 295.79999999999995M732.0456895999998 295.79999999999995 A2 2 0 0 0 736.0456895999998 295.79999999999995"></path><g class="vf-stavenote" id="vf-auto4364883"><g class="vf-note" pointer-events="bounding-box"><g class="vf-stem" pointer-events="bounding-box"><path stroke-width="1.5" fill="none" stroke="#000000" stroke-dasharray="none" class="vf-stem" id="vf-auto4364883-stem" d="M610.0288671999999 265.29999999999995L610.0288671999999 300.29999999999995"></path></g><g class="vf-notehead" pointer-events="bounding-box"><path stroke-width="0.3" fill="#000000" stroke="none" stroke-dasharray="none" d="M609.2788671999999 265.29999999999995M616.6358271999999 260.07712C616.7481472 260.07712,616.9166271999999 260.07712,616.9447071999999 260.07712C616.9447071999999 260.07712,616.9727872 260.07712,616.9727872 260.07712C616.9727872 260.07712,617.1412671999999 260.07712,617.2816671999999 260.07712C619.8088671999999 260.21752,621.2971071999999 261.87423999999993,621.2971071999999 263.95215999999994C621.2971071999999 264.96304,620.9601471999999 266.11431999999996,620.1177471999999 267.20944C618.5171872 269.37159999999994,615.9057472 270.55096,613.6312671999999 270.55096C611.8622271999999 270.55096,610.3459071999999 269.84896,609.6158271999999 268.41687999999994C609.3911871999999 267.85527999999994,609.2788671999999 267.3217599999999,609.2788671999999 266.73207999999994C609.2788671999999 263.67135999999994,612.7046271999999 260.27367999999996,616.6358271999999 260.07712"></path></g></g><g class="vf-modifiers"></g></g><g class="vf-stavenote" id="vf-auto4364891"><g class="vf-note" pointer-events="bounding-box"><g class="vf-stem" pointer-events="bounding-box"><path stroke-width="1.5" fill="none" stroke="#000000" stroke-dasharray="none" class="vf-stem" id="vf-auto4364891-stem" d="M643.5288671999999 285.29999999999995L643.5288671999999 320.29999999999995"></path></g><g class="vf-notehead" pointer-events="bounding-box"><path stroke-width="0.3" fill="#000000" stroke="none" stroke-dasharray="none" d="M642.7788671999999 285.29999999999995M650.1358271999999 280.07712C650.2481472 280.07712,650.4166271999999 280.07712,650.4447071999999 280.07712C650.4447071999999 280.07712,650.4727872 280.07712,650.4727872 280.07712C650.4727872 280.07712,650.6412671999999 280.07712,650.7816671999999 280.07712C653.3088671999999 280.21752,654.7971071999999 281.87423999999993,654.7971071999999 283.95215999999994C654.7971071999999 284.96304,654.4601471999999 286.11431999999996,653.6177471999999 287.20944C652.0171872 289.37159999999994,649.4057472 290.55096,647.1312671999999 290.55096C645.3622271999999 290.55096,643.8459071999999 289.84896,643.1158271999999 288.41687999999994C642.8911871999999 287.85527999999994,642.7788671999999 287.3217599999999,642.7788671999999 286.73207999999994C642.7788671999999 283.67135999999994,646.2046271999999 280.27367999999996,650.1358271999999 280.07712"></path></g></g><g class="vf-modifiers"></g></g><g class="vf-stavenote" id="vf-auto4364899"><g class="vf-note" pointer-events="bounding-box"><g class="vf-stem" pointer-events="bounding-box"><path stroke-width="1.5" fill="none" stroke="#000000" stroke-dasharray="none" class="vf-stem" id="vf-auto4364899-stem" d="M687.5471071999999 290.29999999999995L687.5471071999999 255.29999999999995"></path></g><g class="vf-notehead" pointer-events="bounding-box"><path stroke-width="0.3" fill="#000000" stroke="none" stroke-dasharray="none" d="M676.2788671999999 290.29999999999995M683.6358271999999 285.07712C683.7481472 285.07712,683.9166271999999 285.07712,683.9447071999999 285.07712C683.9447071999999 285.07712,683.9727872 285.07712,683.9727872 285.07712C683.9727872 285.07712,684.1412671999999 285.07712,684.2816671999999 285.07712C686.8088671999999 285.21752,688.2971071999999 286.87423999999993,688.2971071999999 288.95215999999994C688.2971071999999 289.96304,687.9601471999999 291.11431999999996,687.1177471999999 292.20944C685.5171872 294.37159999999994,682.9057472 295.55096,680.6312671999999 295.55096C678.8622271999999 295.55096,677.3459071999999 294.84896,676.6158271999999 293.41687999999994C676.3911871999999 292.85527999999994,676.2788671999999 292.3217599999999,676.2788671999999 291.73207999999994C676.2788671999999 288.67135999999994,679.7046271999999 285.27367999999996,683.6358271999999 285.07712"></path></g></g><g class="vf-modifiers"></g></g><g class="vf-stavenote" id="vf-auto4364907"><g class="vf-note" pointer-events="bounding-box"><g class="vf-stem" pointer-events="bounding-box"><path stroke-width="1.5" fill="none" stroke="#000000" stroke-dasharray="none" class="vf-stem" id="vf-auto4364907-stem" d="M710.5288671999999 275.29999999999995L710.5288671999999 310.29999999999995"></path></g><g class="vf-notehead" pointer-events="bounding-box"><path stroke-width="0.3" fill="#000000" stroke="none" stroke-dasharray="none" d="M709.7788671999999 275.29999999999995M717.1358271999999 270.07712C717.2481472 270.07712,717.4166271999999 270.07712,717.4447071999999 270.07712C717.4447071999999 270.07712,717.4727872 270.07712,717.4727872 270.07712C717.4727872 270.07712,717.6412671999999 270.07712,717.7816671999999 270.07712C720.3088671999999 270.21752,721.7971071999999 271.87423999999993,721.7971071999999 273.95215999999994C721.7971071999999 274.96304,721.4601471999999 276.11431999999996,720.6177471999999 277.20944C719.0171872 279.37159999999994,716.4057472 280.55096,714.1312671999999 280.55096C712.3622271999999 280.55096,710.8459071999999 279.84896,710.1158271999999 278.41687999999994C709.8911871999999 277.85527999999994,709.7788671999999 277.3217599999999,709.7788671999999 276.73207999999994C709.7788671999999 273.67135999999994,713.2046271999999 270.27367999999996,717.1358271999999 270.07712"></path></g></g><g class="vf-modifiers"></g></g><rect stroke-width="0.3" fill="#000000" stroke="#000000" stroke-dasharray="none" x="737.0456895999998" y="166.5" width="1" height="144.79999999999995"></rect><rect stroke-width="0.3" fill="#000000" stroke="#000000" stroke-dasharray="none" x="740.0456895999998" y="166.5" width="3" height="144.79999999999995"></rect><path stroke-width="0.3" fill="#000000" stroke="none" stroke-dasharray="none" d="M68 166.5C45.2 195.45999999999998,81.2 219.35199999999998,56 238.89999999999998C81.2 258.448,45.2 282.34,68 311.29999999999995C44 282.34,72.8 258.448,56 238.89999999999998C72.8 219.35199999999998,44 195.45999999999998,68 166.5"></path><path stroke-width="1" fill="none" stroke="#000000" stroke-dasharray="none" d="M68 166.5C45.2 195.45999999999998,81.2 219.35199999999998,56 238.89999999999998C81.2 258.448,45.2 282.34,68 311.29999999999995C44 282.34,72.8 258.448,56 238.89999999999998C72.8 219.35199999999998,44 195.45999999999998,68 166.5"></path><g class="vf-text"><text stroke-width="0.3" fill="#000000" stroke="none" stroke-dasharray="none" font-family="Times New Roman" font-size="15px" font-weight="normal" font-style="normal" x="449.0120447999999" y="163.5">3</text></g></svg>