<svg xmlns="http://www.w3.org/2000/svg"  width="1280" height="399.5999999999999" viewBox="0 0 1280 399.5999999999999"><path stroke-width="1" fill="none" stroke="#000000" stroke-dasharray="none" d="M70 166.5L295.9452224 166.5"></path><path stroke-width="1" fill="none" stroke="#000000" stroke-dasharray="none" d="M70 176.5L295.9452224 176.5"></path><path stroke-width="1" fill="none" stroke="#000000" stroke-dasharray="none" d="M70 186.5L295.9452224 186.5"></path><path stroke-width="1" fill="none" stroke="#000000" stroke-dasharray="none" d="M70 196.5L295.9452224 196.5"></path><path stroke-width="1" fill="none" stroke="#000000" stroke-dasharray="none" d="M70 206.5L295.9452224 206.5"></path><rect stroke-width="0.3" fill="#000000" stroke="#000000" stroke-dasharray="none" x="295.9452224" y="166" width="1" height="41"></rect><g class="vf-clef"><path stroke-width="0.3" fill="#000000" stroke="none" stroke-dasharray="none" d="M75 196.5M89.0544 153.3288C89.112 153.3,89.1696 153.3,89.256 153.3C89.6016 153.3,90.0048 153.588,90.5808 154.308C92.9136 156.9864,94.5552 161.652,94.5552 165.4536C94.5552 165.7416,94.4976 165.972,94.4976 166.26C94.2384 170.7816,92.3952 174.4968,88.7376 178.0104L87.7584 178.9608L87.4128 179.3352L87.4128 179.4504L87.6144 180.3144L87.9312 181.8696L88.248 183.3096C88.68 185.268,88.8528 186.276,88.8528 186.276C88.8528 186.276,88.8528 186.276,88.8528 186.276C88.8528 186.276,88.968 186.276,89.112 186.2472C89.256 186.2472,89.7168 186.1896,90.2064 186.1896C90.55199999999999 186.1896,90.8976 186.2472,91.0704 186.2472C95.1312 186.7656,98.2704 189.6744,99.1632 193.764C99.336 194.4264,99.39359999999999 195.1464,99.39359999999999 195.8664C99.39359999999999 199.7544,97.0608 203.4696,93.1728 205.2264C92.94239999999999 205.3704,92.856 205.3992,92.856 205.3992L92.856 205.428C92.856 205.428,93.0288 206.0904,93.1728 206.8392L93.6048 209.028L94.008 210.7848C94.2384 211.908,94.3536 212.7144,94.3536 213.4344C94.3536 214.06799999999998,94.2672 214.644,94.1232 215.3064C93.144 219.3096,89.6592 221.7,86.0304 221.7C84.2448 221.7,82.4016 221.124,80.7888 219.828C79.3488 218.6184,78.7152 217.524,78.7152 216.084C78.7152 213.5496,80.76 211.764,82.8912 211.764C83.64 211.764,84.3888 211.99439999999998,85.1088 212.4264C86.3184 213.2616,86.8656 214.5288,86.8656 215.7672C86.8656 217.668,85.5408 219.54,83.2656 219.684L83.0352 219.684L83.208 219.79919999999998C84.1584 220.2024,85.1088 220.404,86.0304 220.404C88.3632 220.404,90.55199999999999 219.2232,91.8768 217.1784C92.62559999999999 216.0264,93.0288 214.6728,93.0288 213.3192C93.0288 212.8008,92.94239999999999 212.2824,92.8272 211.7064C92.8272 211.6488,92.74080000000001 211.188,92.62559999999999 210.756C91.992 207.6456,91.6176 205.8312,91.6176 205.8312C91.6176 205.8312,91.6176 205.8312,91.6176 205.8312C91.56 205.8312,91.4448 205.8312,91.3584 205.8888C91.0704 205.9464,90.4656 206.0904,90.2064 206.1192C89.5728 206.2056,88.968 206.2344,88.392 206.2344C82.74719999999999 206.2344,77.5056 202.4328,75.6912 196.8168C75.2304 195.3192,74.9712 193.8216,74.9712 192.324C74.9712 189.3288,75.9216 186.3912,77.7648 183.7704C79.7808 180.9192,81.7968 178.4712,84.2736 175.9368L85.13759999999999 175.044L84.936 173.9784L84.5616 172.2216L84.072 169.9752C83.928 169.14,83.7552 168.3336,83.7264 168.1608C83.5824 167.2104,83.496 166.2888,83.496 165.3384C83.496 161.7096,84.6768 158.22480000000002,86.8944 155.4312C87.5568 154.5672,88.7376 153.4152,89.0544 153.3288M90.8112 159.0312C90.7536 159.0312,90.6672 159.0312,90.5808 159.0312C89.4 159.0312,87.8736 160.1256,86.8368 161.7384C85.7712 163.32240000000002,85.224 165.4248,85.224 167.5848C85.224 168.1608,85.25280000000001 168.7656,85.3392 169.3704C85.4256 169.8024,85.45439999999999 170.0904,85.6848 171.12720000000002L86.088 172.9416C86.2032 173.4888,86.28960000000001 173.92079999999999,86.28960000000001 173.9784L86.28960000000001 173.9784C86.3184 173.9784,87.2112 172.9992,87.4992 172.6536C90.3792 169.3992,92.1072 165.972,92.4816 162.948C92.5104 162.66,92.5104 162.4296,92.5104 162.1416C92.5104 161.24880000000002,92.3952 160.38479999999998,92.1936 159.924C91.9632 159.4632,91.4448 159.0888,90.8112 159.0312M86.4624 181.2936C86.4048 180.8904,86.3184 180.5736,86.3184 180.516C86.3184 180.516,86.3184 180.516,86.28960000000001 180.516C86.232 180.516,84.9936 181.956,84.1296 182.964C82.6608 184.7496,81.1056 186.8808,80.472 187.9176C79.2624 189.9624,78.6576 192.2376,78.6576 194.484C78.6576 195.9528,78.9456 197.364,79.464 198.7176C81.0192 202.7208,84.5904 205.2264,88.4784 205.2264C88.9392 205.2264,89.4576 205.1976,89.9472 205.1112C90.5808 204.996,91.3584 204.7656,91.3584 204.6792L91.3584 204.6792C91.3584 204.6792,91.3008 204.3912,91.2144 204.0744L90.3792 199.956L89.7168 196.8744L89.2848 194.7432L88.824 192.6696C88.5936 191.4312,88.5072 191.1144,88.5072 191.1144C88.5072 191.1144,88.5072 191.0856,88.4784 191.0856C88.3056 191.0856,87.384 191.5464,86.9808 191.8344C85.4832 192.8712,84.7056 194.5128,84.7056 196.1256C84.7056 197.652,85.45439999999999 199.1784,86.8944 200.0712C87.2112 200.2728,87.3264 200.4456,87.3264 200.6472C87.3264 200.676,87.3264 200.7624,87.3264 200.7912C87.2688 201.1368,87.0672 201.2808,86.7792 201.2808C86.664 201.2808,86.52 201.252,86.3472 201.1656C83.6976 200.0136,81.912 197.2776,81.912 194.2824L81.912 194.2824C81.912 190.8264,84.072 187.8312,87.384 186.6504L87.5568 186.5928L87.2688 185.1528L86.4624 181.2936M90.7824 190.9128C90.55199999999999 190.88400000000001,90.3216 190.88400000000001,90.1488 190.88400000000001C90.0912 190.88400000000001,90.0048 190.88400000000001,89.9472 190.88400000000001L89.8032 190.88400000000001L89.9184 191.4024L90.5232 194.2248L90.8976 196.068L91.3008 197.8824L92.1072 201.8856L92.424 203.412C92.5392 203.8152,92.5968 204.1608,92.62559999999999 204.1608C92.62559999999999 204.1608,92.62559999999999 204.1608,92.62559999999999 204.1608C92.6544 204.1608,93.144 203.8728,93.4608 203.6424C94.9296 202.6056,96.024 200.9928,96.4272 199.3224C96.5712 198.7752,96.6288 198.1992,96.6288 197.652C96.6288 194.3112,94.152 191.2872,90.7824 190.9128"></path></g><path stroke-width="0.3" fill="#000000" stroke="none" stroke-dasharray="none" d="M116 186.5M121.0112 168.1544C121.04 168.1256,121.4432 168.1256,122.6816 168.1256C123.056 168.1256,123.4592 168.1256,123.9776 168.1256L126.8864 168.1256L126.9728 168.212C127.1168 168.29840000000002,127.2032 168.4424,127.2032 168.5576C127.2032 168.7304,127.1168 168.8456,127.0016 168.9608C126.9728 169.0472,126.7136 169.2776,126.5408 169.5368L125.0144 171.2936L123.056 173.5112L122.0192 174.692L120.464 176.4776L118.4192 178.8104C118.0736 179.2424,117.6992 179.588,117.6992 179.588C117.6992 179.588,117.6992 179.588,117.6992 179.588C117.6992 179.6456,117.9584 179.6456,120.3488 179.6456L122.9696 179.6456L122.9696 177.7736C122.9696 175.8728,122.9696 175.844,122.9984 175.8152C123.056 175.7288,123.3152 175.412,124.3232 174.2312L124.7264 173.7992L125.1296 173.3672L125.7344 172.5896L126.368 171.9272L126.6848 171.524C126.8 171.3512,126.9728 171.3224,127.1168 171.3224C127.28960000000001 171.3224,127.4336 171.4088,127.52 171.5528C127.5488 171.6392,127.5488 171.6968,127.5488 173.828C127.5488 174.3176,127.5488 174.9224,127.5488 175.6424L127.5488 179.6456L128.2688 179.6456C128.9312 179.6456,128.96 179.6456,129.0464 179.6744C129.2768 179.7608,129.392 179.9912,129.392 180.2504C129.392 180.3944,129.3632 180.5672,129.248 180.6824C129.0752 180.8264,129.0464 180.8264,128.2688 180.8264L127.5488 180.8264L127.5488 181.316C127.5776 182.7848,127.8656 183.3608,128.9888 183.9656C129.392 184.1672,129.4784 184.2248,129.4784 184.5128C129.4784 184.7144,129.42079999999999 184.8008,129.2768 184.916L129.1904 184.9448L125.2448 184.9448L121.328 184.9448L121.2416 184.916C121.0688 184.8008,121.04 184.7144,121.04 184.5128C121.04 184.2248,121.0688 184.1672,121.5008 183.9656C122.624 183.3608,122.912 182.7848,122.912 181.316L122.912 180.8264L119.6 180.8264C118.9952 180.88400000000001,118.5056 180.88400000000001,118.1024 180.88400000000001C116.288 180.88400000000001,116.2592 180.8264,116.2304 180.8264C116.0576 180.7688,116 180.596,116 180.3944C116 180.3944,116 180.3944,116 180.3944C116 180.1928,116 180.1928,116.576 179.5304C118.9952 176.5928,120.6944 172.3304,120.6944 168.93200000000002C120.6944 168.4136,120.7808 168.2408,121.0112 168.1544M122.7392 186.5288L122.768 186.5288L122.6816 186.5288L122.7392 186.5288M122.7392 167.1176L122.768 167.1176L122.6816 167.1176L122.7392 167.1176"></path><path stroke-width="0.3" fill="#000000" stroke="none" stroke-dasharray="none" d="M116 206.5M121.0112 188.1544C121.04 188.1256,121.4432 188.1256,122.6816 188.1256C123.056 188.1256,123.4592 188.1256,123.9776 188.1256L126.8864 188.1256L126.9728 188.212C127.1168 188.29840000000002,127.2032 188.4424,127.2032 188.5576C127.2032 188.7304,127.1168 188.8456,127.0016 188.9608C126.9728 189.0472,126.7136 189.2776,126.5408 189.5368L125.0144 191.2936L123.056 193.5112L122.0192 194.692L120.464 196.4776L118.4192 198.8104C118.0736 199.2424,117.6992 199.588,117.6992 199.588C117.6992 199.588,117.6992 199.588,117.6992 199.588C117.6992 199.6456,117.9584 199.6456,120.3488 199.6456L122.9696 199.6456L122.9696 197.7736C122.9696 195.8728,122.9696 195.844,122.9984 195.8152C123.056 195.7288,123.3152 195.412,124.3232 194.2312L124.7264 193.7992L125.1296 193.3672L125.7344 192.5896L126.368 191.9272L126.6848 191.524C126.8 191.3512,126.9728 191.3224,127.1168 191.3224C127.28960000000001 191.3224,127.4336 191.4088,127.52 191.5528C127.5488 191.6392,127.5488 191.6968,127.5488 193.828C127.5488 194.3176,127.5488 194.9224,127.5488 195.6424L127.5488 199.6456L128.2688 199.6456C128.9312 199.6456,128.96 199.6456,129.0464 199.6744C129.2768 199.7608,129.392 199.9912,129.392 200.2504C129.392 200.3944,129.3632 200.5672,129.248 200.6824C129.0752 200.8264,129.0464 200.8264,128.2688 200.8264L127.5488 200.8264L127.5488 201.316C127.5776 202.7848,127.8656 203.3608,128.9888 203.9656C129.392 204.1672,129.4784 204.2248,129.4784 204.5128C129.4784 204.7144,129.42079999999999 204.8008,129.2768 204.916L129.1904 204.9448L125.2448 204.9448L121.328 204.9448L121.2416 204.916C121.0688 204.8008,121.04 204.7144,121.04 204.5128C121.04 204.2248,121.0688 204.1672,121.5008 203.9656C122.624 203.3608,122.912 202.7848,122.912 201.316L122.912 200.8264L119.6 200.8264C118.9952 200.88400000000001,118.5056 200.88400000000001,118.1024 200.88400000000001C116.288 200.88400000000001,116.2592 200.8264,116.2304 200.8264C116.0576 200.7688,116 200.596,116 200.3944C116 200.3944,116 200.3944,116 200.3944C116 200.1928,116 200.1928,116.576 199.5304C118.9952 196.5928,120.6944 192.3304,120.6944 188.93200000000002C120.6944 188.4136,120.7808 188.2408,121.0112 188.1544M122.7392 206.5288L122.768 206.5288L122.6816 206.5288L122.7392 206.5288M122.7392 187.1176L122.768 187.1176L122.6816 187.1176L122.7392 187.1176"></path><path stroke-width="1" fill="none" stroke="#000000" stroke-dasharray="none" d="M177.3588 216.5L195.37704 216.5"></path><g class="vf-stavenote" id="vf-auto111938"><g class="vf-note" pointer-events="bounding-box"><g class="vf-stem" pointer-events="bounding-box"><path stroke-width="1.5" fill="none" stroke="#000000" stroke-dasharray="none" class="vf-stem" id="vf-auto111938-stem" d="M191.62704 221.5L191.62704 186.5"></path></g><g class="vf-notehead" pointer-events="bounding-box"><path stroke-width="0.3" fill="#000000" stroke="none" stroke-dasharray="none" d="M180.3588 221.5M187.71576 216.27712C187.82808 216.27712,187.99656 216.27712,188.02464 216.27712C188.02464 216.27712,188.05272 216.27712,188.05272 216.27712C188.05272 216.27712,188.2212 216.27712,188.3616 216.27712C190.8888 216.41752,192.37704 218.07424,192.37704 220.15216C192.37704 221.16304,192.04008 222.31432,191.19768 223.40944C189.59712 225.5716,186.98568 226.75096,184.7112 226.75096C182.94216 226.75096,181.42584 226.04896,180.69576 224.61688C180.47112 224.05528,180.3588 223.52176,180.3588 222.93208C180.3588 219.87136,183.78456 216.47368,187.71576 216.27712"></path></g></g><g class="vf-modifiers"></g></g><path stroke-width="1" fill="none" stroke="#000000" stroke-dasharray="none" d="M295.9452224 166.5L448.31204479999997 166.5"></path><path stroke-width="1" fill="none" stroke="#000000" stroke-dasharray="none" d="M295.9452224 176.5L448.31204479999997 176.5"></path><path stroke-width="1" fill="none" stroke="#000000" stroke-dasharray="none" d="M295.9452224 186.5L448.31204479999997 186.5"></path><path stroke-width="1" fill="none" stroke="#000000" stroke-dasharray="none" d="M295.9452224 196.5L448.31204479999997 196.5"></path><path stroke-width="1" fill="none" stroke="#000000" stroke-dasharray="none" d="M295.9452224 206.5L448.31204479999997 206.5"></path><rect stroke-width="0.3" fill="#000000" stroke="#000000" stroke-dasharray="none" x="448.31204479999997" y="166" width="1" height="41"></rect><g class="vf-stavenote" id="vf-auto111975"><g class="vf-note" pointer-events="bounding-box"><g class="vf-stem" pointer-events="bounding-box"><path stroke-width="1.5" fill="none" stroke="#000000" stroke-dasharray="none" class="vf-stem" id="vf-auto111975-stem" d="M324.21346239999997 211.5L324.21346239999997 176.5"></path></g><g class="vf-notehead" pointer-events="bounding-box"><path stroke-width="0.3" fill="#000000" stroke="none" stroke-dasharray="none" d="M312.9452224 211.5M320.3021824 206.27712C320.4145024 206.27712,320.5829824 206.27712,320.6110624 206.27712C320.6110624 206.27712,320.63914239999997 206.27712,320.63914239999997 206.27712C320.63914239999997 206.27712,320.80762239999996 206.27712,320.94802239999996 206.27712C323.4752224 206.41752,324.96346239999997 208.07424,324.96346239999997 210.15216C324.96346239999997 211.16304,324.6265024 212.31432,323.7841024 213.40944C322.18354239999996 215.5716,319.57210239999995 216.75096,317.29762239999997 216.75096C315.5285824 216.75096,314.0122624 216.04896,313.28218239999995 214.61688C313.0575424 214.05528,312.9452224 213.52176,312.9452224 212.93208C312.9452224 209.87136,316.3709824 206.47368,320.3021824 206.27712"></path></g></g><g class="vf-modifiers"></g></g><g class="vf-stavenote" id="vf-auto111983"><g class="vf-note" pointer-events="bounding-box"><g class="vf-stem" pointer-events="bounding-box"><path stroke-width="1.5" fill="none" stroke="#000000" stroke-dasharray="none" class="vf-stem" id="vf-auto111983-stem" d="M347.9452224 186.5L347.9452224 221.5"></path></g><g class="vf-notehead" pointer-events="bounding-box"><path stroke-width="0.3" fill="#000000" stroke="none" stroke-dasharray="none" d="M347.1952224 186.5M354.5521824 181.27712C354.6645024 181.27712,354.8329824 181.27712,354.8610624 181.27712C354.8610624 181.27712,354.88914239999997 181.27712,354.88914239999997 181.27712C354.88914239999997 181.27712,355.05762239999996 181.27712,355.19802239999996 181.27712C357.7252224 181.41752,359.21346239999997 183.07424,359.21346239999997 185.15216C359.21346239999997 186.16304,358.8765024 187.31432,358.0341024 188.40944C356.43354239999996 190.5716,353.82210239999995 191.75096,351.54762239999997 191.75096C349.7785824 191.75096,348.2622624 191.04896,347.53218239999995 189.61688C347.3075424 189.05528,347.1952224 188.52176,347.1952224 187.93208C347.1952224 184.87136,350.6209824 181.47368,354.5521824 181.27712"></path></g></g><g class="vf-modifiers"></g></g><g class="vf-stavenote" id="vf-auto111991"><g class="vf-note" pointer-events="bounding-box"><g class="vf-stem" pointer-events="bounding-box"><path stroke-width="1.5" fill="none" stroke="#000000" stroke-dasharray="none" class="vf-stem" id="vf-auto111991-stem" d="M416.4452224 171.5L416.4452224 206.5"></path></g><g class="vf-notehead" pointer-events="bounding-box"><path stroke-width="0.3" fill="#000000" stroke="none" stroke-dasharray="none" d="M415.6952224 171.5M423.0521824 166.27712C423.1645024 166.27712,423.3329824 166.27712,423.3610624 166.27712C423.3610624 166.27712,423.38914239999997 166.27712,423.38914239999997 166.27712C423.38914239999997 166.27712,423.55762239999996 166.27712,423.69802239999996 166.27712C426.2252224 166.41752,427.71346239999997 168.07424,427.71346239999997 170.15216C427.71346239999997 171.16304,427.3765024 172.31432,426.5341024 173.40944C424.93354239999996 175.5716,422.32210239999995 176.75096,420.04762239999997 176.75096C418.2785824 176.75096,416.7622624 176.04896,416.03218239999995 174.61688C415.8075424 174.05528,415.6952224 173.52176,415.6952224 172.93208C415.6952224 169.87136,419.1209824 166.47368,423.0521824 166.27712"></path></g></g><g class="vf-modifiers"></g></g><path stroke-width="1" fill="none" stroke="#000000" stroke-dasharray="none" d="M448.31204479999997 166.5L596.4788672 166.5"></path><path stroke-width="1" fill="none" stroke="#000000" stroke-dasharray="none" d="M448.31204479999997 176.5L596.4788672 176.5"></path><path stroke-width="1" fill="none" stroke="#000000" stroke-dasharray="none" d="M448.31204479999997 186.5L596.4788672 186.5"></path><path stroke-width="1" fill="none" stroke="#000000" stroke-dasharray="none" d="M448.31204479999997 196.5L596.4788672 196.5"></path><path stroke-width="1" fill="none" stroke="#000000" stroke-dasharray="none" d="M448.31204479999997 206.5L596.4788672 206.5"></path><rect stroke-width="0.3" fill="#000000" stroke="#000000" stroke-dasharray="none" x="596.4788672" y="166" width="1" height="41"></rect><g class="vf-stavenote" id="vf-auto112012"><g class="vf-note" pointer-events="bounding-box"><g class="vf-stem" pointer-events="bounding-box"><path stroke-width="1.5" fill="none" stroke="#000000" stroke-dasharray="none" class="vf-stem" id="vf-auto112012-stem" d="M532.5620448 186.5L532.5620448 221.5"></path></g><g class="vf-notehead" pointer-events="bounding-box"><path stroke-width="0.3" fill="#000000" stroke="none" stroke-dasharray="none" d="M531.8120448 186.5M539.1690047999999 181.27712C539.2813248 181.27712,539.4498047999999 181.27712,539.4778848 181.27712C539.4778848 181.27712,539.5059648 181.27712,539.5059648 181.27712C539.5059648 181.27712,539.6744448 181.27712,539.8148448 181.27712C542.3420447999999 181.41752,543.8302848 183.07424,543.8302848 185.15216C543.8302848 186.16304,543.4933248 187.31432,542.6509248 188.40944C541.0503648 190.5716,538.4389248 191.75096,536.1644448 191.75096C534.3954047999999 191.75096,532.8790848 191.04896,532.1490048 189.61688C531.9243647999999 189.05528,531.8120448 188.52176,531.8120448 187.93208C531.8120448 184.87136,535.2378047999999 181.47368,539.1690047999999 181.27712"></path></g></g><g class="vf-modifiers"></g></g><path stroke-width="1" fill="none" stroke="#000000" stroke-dasharray="none" d="M562.0620448 216.5L580.0802848 216.5"></path><g class="vf-stavenote" id="vf-auto112020"><g class="vf-note" pointer-events="bounding-box"><g class="vf-stem" pointer-events="bounding-box"><path stroke-width="1.5" fill="none" stroke="#000000" stroke-dasharray="none" class="vf-stem" id="vf-auto112020-stem" d="M576.3302848 221.5L576.3302848 186.5"></path></g><g class="vf-notehead" pointer-events="bounding-box"><path stroke-width="0.3" fill="#000000" stroke="none" stroke-dasharray="none" d="M565.0620448 221.5M572.4190047999999 216.27712C572.5313248 216.27712,572.6998047999999 216.27712,572.7278848 216.27712C572.7278848 216.27712,572.7559648 216.27712,572.7559648 216.27712C572.7559648 216.27712,572.9244448 216.27712,573.0648448 216.27712C575.5920447999999 216.41752,577.0802848 218.07424,577.0802848 220.15216C577.0802848 221.16304,576.7433248 222.31432,575.9009248 223.40944C574.3003648 225.5716,571.6889248 226.75096,569.4144448 226.75096C567.6454047999999 226.75096,566.1290848 226.04896,565.3990048 224.61688C565.1743647999999 224.05528,565.0620448 223.52176,565.0620448 222.93208C565.0620448 219.87136,568.4878047999999 216.47368,572.4190047999999 216.27712"></path></g></g><g class="vf-modifiers"></g></g><path stroke-width="1" fill="none" stroke="#000000" stroke-dasharray="none" d="M596.4788671999999 166.5L758.8456895999998 166.5"></path><path stroke-width="1" fill="none" stroke="#000000" stroke-dasharray="none" d="M596.4788671999999 176.5L758.8456895999998 176.5"></path><path stroke-width="1" fill="none" stroke="#000000" stroke-dasharray="none" d="M596.4788671999999 186.5L758.8456895999998 186.5"></path><path stroke-width="1" fill="none" stroke="#000000" stroke-dasharray="none" d="M596.4788671999999 196.5L758.8456895999998 196.5"></path><path stroke-width="1" fill="none" stroke="#000000" stroke-dasharray="none" d="M596.4788671999999 206.5L758.8456895999998 206.5"></path><rect stroke-width="0.3" fill="#000000" stroke="#000000" stroke-dasharray="none" x="753.8456895999998" y="166" width="1" height="41"></rect><rect stroke-width="0.3" fill="#000000" stroke="#000000" stroke-dasharray="none" x="756.8456895999998" y="166" width="3" height="41"></rect><path stroke-width="0.3" fill="#000000" stroke="none" stroke-dasharray="none" d="M752.8456895999998 182 A2 2 0 0 0 748.8456895999998 182M748.8456895999998 182 A2 2 0 0 0 752.8456895999998 182"></path><path stroke-width="0.3" fill="#000000" stroke="none" stroke-dasharray="none" d="M752.8456895999998 192 A2 2 0 0 0 748.8456895999998 192M748.8456895999998 192 A2 2 0 0 0 752.8456895999998 192"></path><g class="vf-stavenote" id="vf-auto112048"><g class="vf-note" pointer-events="bounding-box"><g class="vf-stem" pointer-events="bounding-box"><path stroke-width="1.5" fill="none" stroke="#000000" stroke-dasharray="none" class="vf-stem" id="vf-auto112048-stem" d="M624.7471071999998 196.5L624.7471071999998 161.5"></path></g><g class="vf-notehead" pointer-events="bounding-box"><path stroke-width="0.3" fill="#000000" stroke="none" stroke-dasharray="none" d="M613.4788671999999 196.5M620.8358271999998 191.27712C620.9481471999999 191.27712,621.1166271999998 191.27712,621.1447071999999 191.27712C621.1447071999999 191.27712,621.1727871999999 191.27712,621.1727871999999 191.27712C621.1727871999999 191.27712,621.3412671999998 191.27712,621.4816671999998 191.27712C624.0088671999998 191.41752,625.4971071999998 193.07424,625.4971071999998 195.15216C625.4971071999998 196.16304,625.1601471999999 197.31432,624.3177471999999 198.40944C622.7171871999999 200.5716,620.1057471999999 201.75096,617.8312671999998 201.75096C616.0622271999998 201.75096,614.5459071999999 201.04896,613.8158271999998 199.61688C613.5911871999998 199.05528,613.4788671999999 198.52176,613.4788671999999 197.93208C613.4788671999999 194.87136,616.9046271999998 191.47368,620.8358271999998 191.27712"></path></g></g><g class="vf-modifiers"></g></g><g class="vf-stavenote" id="vf-auto112056"><g class="vf-note" pointer-events="bounding-box"><g class="vf-stem" pointer-events="bounding-box"><path stroke-width="1.5" fill="none" stroke="#000000" stroke-dasharray="none" class="vf-stem" id="vf-auto112056-stem" d="M650.9788671999999 166.5L650.9788671999999 201.5"></path></g><g class="vf-notehead" pointer-events="bounding-box"><path stroke-width="0.3" fill="#000000" stroke="none" stroke-dasharray="none" d="M650.2288671999999 166.5M657.5858271999998 161.27712C657.6981471999999 161.27712,657.8666271999998 161.27712,657.8947071999999 161.27712C657.8947071999999 161.27712,657.9227871999999 161.27712,657.9227871999999 161.27712C657.9227871999999 161.27712,658.0912671999998 161.27712,658.2316671999998 161.27712C660.7588671999998 161.41752,662.2471071999998 163.07424,662.2471071999998 165.15216C662.2471071999998 166.16304,661.9101471999999 167.31432,661.0677471999999 168.40944C659.4671871999999 170.5716,656.8557471999999 171.75096,654.5812671999998 171.75096C652.8122271999998 171.75096,651.2959071999999 171.04896,650.5658271999998 169.61688C650.3411871999998 169.05528,650.2288671999999 168.52176,650.2288671999999 167.93208C650.2288671999999 164.87136,653.6546271999998 161.47368,657.5858271999998 161.27712"></path></g></g><g class="vf-modifiers"></g></g><path stroke-width="1" fill="none" stroke="#000000" stroke-dasharray="none" d="M720.7288671999999 216.5L738.7471071999998 216.5"></path><g class="vf-stavenote" id="vf-auto112064"><g class="vf-note" pointer-events="bounding-box"><g class="vf-stem" pointer-events="bounding-box"><path stroke-width="1.5" fill="none" stroke="#000000" stroke-dasharray="none" class="vf-stem" id="vf-auto112064-stem" d="M734.9971071999998 221.5L734.9971071999998 186.5"></path></g><g class="vf-notehead" pointer-events="bounding-box"><path stroke-width="0.3" fill="#000000" stroke="none" stroke-dasharray="none" d="M723.7288671999999 221.5M731.0858271999998 216.27712C731.1981471999999 216.27712,731.3666271999998 216.27712,731.3947071999999 216.27712C731.3947071999999 216.27712,731.4227871999999 216.27712,731.4227871999999 216.27712C731.4227871999999 216.27712,731.5912671999998 216.27712,731.7316671999998 216.27712C734.2588671999998 216.41752,735.7471071999998 218.07424,735.7471071999998 220.15216C735.7471071999998 221.16304,735.4101471999999 222.31432,734.5677471999999 223.40944C732.9671871999999 225.5716,730.3557471999999 226.75096,728.0812671999998 226.75096C726.3122271999998 226.75096,724.7959071999999 226.04896,724.0658271999998 224.61688C723.8411871999998 224.05528,723.7288671999999 223.52176,723.7288671999999 222.93208C723.7288671999999 219.87136,727.1546271999998 216.47368,731.0858271999998 216.27712"></path></g></g><g class="vf-modifiers"></g></g><g class="vf-text"><text stroke-width="0.3" fill="#000000" stroke="none" stroke-dasharray="none" font-family="Times New Roman" font-size="23px" font-weight="bold" font-style="italic" x="165.4784" y="248.3">p</text></g><path stroke-width="1" fill="none" stroke="#000000" stroke-dasharray="none" d="M70 278.09999999999997L295.9452224 278.09999999999997"></path><path stroke-width="1" fill="none" stroke="#000000" stroke-dasharray="none" d="M70 288.09999999999997L295.9452224 288.09999999999997"></path><path stroke-width="1" fill="none" stroke="#000000" stroke-dasharray="none" d="M70 298.09999999999997L295.9452224 298.09999999999997"></path><path stroke-width="1" fill="none" stroke="#000000" stroke-dasharray="none" d="M70 308.09999999999997L295.9452224 308.09999999999997"></path><path stroke-width="1" fill="none" stroke="#000000" stroke-dasharray="none" d="M70 318.09999999999997L295.9452224 318.09999999999997"></path><rect stroke-width="0.3" fill="#000000" stroke="#000000" stroke-dasharray="none" x="295.9452224" y="277.59999999999997" width="1" height="41"></rect><g class="vf-clef"><path stroke-width="0.3" fill="#000000" stroke="none" stroke-dasharray="none" d="M75 288.09999999999997M83.8416 278.04879999999997C84.072 277.9912,84.3024 277.9912,84.5616 277.9912C85.5696 277.9912,86.7504 278.10639999999995,87.7584 278.308C92.4816 279.2872,95.736 282.484,96.3408 286.7464C96.3984 287.20719999999994,96.4272 287.63919999999996,96.4272 288.09999999999997C96.4272 290.69199999999995,95.5344 294.03279999999995,94.008 296.8264C90.3792 303.39279999999997,83.7552 308.116,75.8064 309.84399999999994C75.6624 309.84399999999994,75.5472 309.8728,75.4032 309.8728C75.1152 309.8728,74.9712 309.7,74.9712 309.44079999999997C74.9712 309.15279999999996,75.0288 309.0664,75.6048 308.83599999999996C84.7056 305.4088,90.7824 298.00719999999995,91.3296 289.71279999999996C91.3584 289.28079999999994,91.3584 288.79119999999995,91.3584 288.41679999999997C91.3584 284.3848,90.12 281.3896,87.7296 279.89199999999994C86.6928 279.22959999999995,85.5696 278.91279999999995,84.36 278.91279999999995C81.6816 278.91279999999995,78.9456 280.43919999999997,77.6784 283.00239999999997C77.6208 283.20399999999995,77.4192 283.63599999999997,77.4192 283.66479999999996C77.4192 283.66479999999996,77.4192 283.66479999999996,77.4192 283.66479999999996C77.4192 283.66479999999996,77.448 283.63599999999997,77.5344 283.6072C78.168 283.20399999999995,78.8592 283.00239999999997,79.5792 283.00239999999997C80.5872 283.00239999999997,81.6528 283.4344,82.4016 284.2408C83.0928 284.98959999999994,83.4672 285.9976,83.4672 286.9192C83.4672 288.79119999999995,82.0848 290.69199999999995,79.9248 290.8936C79.7808 290.8936,79.6368 290.9224,79.4928 290.9224C77.1024 290.9224,75.1728 288.73359999999997,75.1728 285.9688C75.1728 285.91119999999995,75.1728 285.8248,75.1728 285.796C75.288 281.6776,79.0608 278.308,83.8416 278.04879999999997M99.1632 281.90799999999996C99.2208 281.87919999999997,99.2496 281.87919999999997,99.336 281.87919999999997C99.5376 281.87919999999997,99.768 281.90799999999996,99.8256 281.9656C100.54560000000001 282.1672,100.8912 282.8008,100.8912 283.4056C100.8912 283.924,100.632 284.44239999999996,100.11359999999999 284.7304C99.912 284.8744,99.6528 284.90319999999997,99.39359999999999 284.90319999999997C98.9904 284.90319999999997,98.5584 284.7304,98.2704 284.356C98.03999999999999 284.068,97.9248 283.7512,97.9248 283.4344C97.9248 282.71439999999996,98.3856 281.9944,99.1632 281.90799999999996M99.1632 291.32559999999995C99.2208 291.32559999999995,99.2496 291.32559999999995,99.336 291.32559999999995C99.5376 291.32559999999995,99.768 291.35439999999994,99.8256 291.412C100.54560000000001 291.61359999999996,100.8912 292.24719999999996,100.8912 292.852C100.8912 293.37039999999996,100.632 293.88879999999995,100.11359999999999 294.14799999999997C99.912 294.292,99.6528 294.34959999999995,99.39359999999999 294.34959999999995C98.9904 294.34959999999995,98.5584 294.14799999999997,98.2704 293.8024C98.03999999999999 293.51439999999997,97.9248 293.19759999999997,97.9248 292.852C97.9248 292.13199999999995,98.3856 291.44079999999997,99.1632 291.32559999999995"></path></g><path stroke-width="0.3" fill="#000000" stroke="none" stroke-dasharray="none" d="M116 298.09999999999997M121.0112 279.7544C121.04 279.7256,121.4432 279.7256,122.6816 279.7256C123.056 279.7256,123.4592 279.7256,123.9776 279.7256L126.8864 279.7256L126.9728 279.81199999999995C127.1168 279.8984,127.2032 280.0424,127.2032 280.15759999999995C127.2032 280.33039999999994,127.1168 280.44559999999996,127.0016 280.5608C126.9728 280.64719999999994,126.7136 280.8776,126.5408 281.1368L125.0144 282.8936L123.056 285.11119999999994L122.0192 286.292L120.464 288.07759999999996L118.4192 290.4104C118.0736 290.84239999999994,117.6992 291.188,117.6992 291.188C117.6992 291.188,117.6992 291.188,117.6992 291.188C117.6992 291.24559999999997,117.9584 291.24559999999997,120.3488 291.24559999999997L122.9696 291.24559999999997L122.9696 289.37359999999995C122.9696 287.47279999999995,122.9696 287.44399999999996,122.9984 287.41519999999997C123.056 287.32879999999994,123.3152 287.01199999999994,124.3232 285.83119999999997L124.7264 285.39919999999995L125.1296 284.9672L125.7344 284.1896L126.368 283.5272L126.6848 283.12399999999997C126.8 282.9512,126.9728 282.9224,127.1168 282.9224C127.28960000000001 282.9224,127.4336 283.00879999999995,127.52 283.15279999999996C127.5488 283.2392,127.5488 283.29679999999996,127.5488 285.42799999999994C127.5488 285.9176,127.5488 286.52239999999995,127.5488 287.2424L127.5488 291.24559999999997L128.2688 291.24559999999997C128.9312 291.24559999999997,128.96 291.24559999999997,129.0464 291.27439999999996C129.2768 291.3608,129.392 291.59119999999996,129.392 291.8504C129.392 291.9944,129.3632 292.1672,129.248 292.28239999999994C129.0752 292.42639999999994,129.0464 292.42639999999994,128.2688 292.42639999999994L127.5488 292.42639999999994L127.5488 292.91599999999994C127.5776 294.3848,127.8656 294.96079999999995,128.9888 295.56559999999996C129.392 295.76719999999995,129.4784 295.8248,129.4784 296.1128C129.4784 296.3144,129.42079999999999 296.40079999999995,129.2768 296.51599999999996L129.1904 296.54479999999995L125.2448 296.54479999999995L121.328 296.54479999999995L121.2416 296.51599999999996C121.0688 296.40079999999995,121.04 296.3144,121.04 296.1128C121.04 295.8248,121.0688 295.76719999999995,121.5008 295.56559999999996C122.624 294.96079999999995,122.912 294.3848,122.912 292.91599999999994L122.912 292.42639999999994L119.6 292.42639999999994C118.9952 292.484,118.5056 292.484,118.1024 292.484C116.288 292.484,116.2592 292.42639999999994,116.2304 292.42639999999994C116.0576 292.36879999999996,116 292.19599999999997,116 291.9944C116 291.9944,116 291.9944,116 291.9944C116 291.79279999999994,116 291.79279999999994,116.576 291.13039999999995C118.9952 288.1928,120.6944 283.93039999999996,120.6944 280.532C120.6944 280.01359999999994,120.7808 279.84079999999994,121.0112 279.7544M122.7392 298.12879999999996L122.768 298.12879999999996L122.6816 298.12879999999996L122.7392 298.12879999999996M122.7392 278.71759999999995L122.768 278.71759999999995L122.6816 278.71759999999995L122.7392 278.71759999999995"></path><path stroke-width="0.3" fill="#000000" stroke="none" stroke-dasharray="none" d="M116 318.09999999999997M121.0112 299.7544C121.04 299.7256,121.4432 299.7256,122.6816 299.7256C123.056 299.7256,123.4592 299.7256,123.9776 299.7256L126.8864 299.7256L126.9728 299.81199999999995C127.1168 299.8984,127.2032 300.0424,127.2032 300.15759999999995C127.2032 300.33039999999994,127.1168 300.44559999999996,127.0016 300.5608C126.9728 300.64719999999994,126.7136 300.8776,126.5408 301.1368L125.0144 302.8936L123.056 305.11119999999994L122.0192 306.292L120.464 308.07759999999996L118.4192 310.4104C118.0736 310.84239999999994,117.6992 311.188,117.6992 311.188C117.6992 311.188,117.6992 311.188,117.6992 311.188C117.6992 311.24559999999997,117.9584 311.24559999999997,120.3488 311.24559999999997L122.9696 311.24559999999997L122.9696 309.37359999999995C122.9696 307.47279999999995,122.9696 307.44399999999996,122.9984 307.41519999999997C123.056 307.32879999999994,123.3152 307.01199999999994,124.3232 305.83119999999997L124.7264 305.39919999999995L125.1296 304.9672L125.7344 304.1896L126.368 303.5272L126.6848 303.12399999999997C126.8 302.9512,126.9728 302.9224,127.1168 302.9224C127.28960000000001 302.9224,127.4336 303.00879999999995,127.52 303.15279999999996C127.5488 303.2392,127.5488 303.29679999999996,127.5488 305.42799999999994C127.5488 305.9176,127.5488 306.52239999999995,127.5488 307.2424L127.5488 311.24559999999997L128.2688 311.24559999999997C128.9312 311.24559999999997,128.96 311.24559999999997,129.0464 311.27439999999996C129.2768 311.3608,129.392 311.59119999999996,129.392 311.8504C129.392 311.9944,129.3632 312.1672,129.248 312.28239999999994C129.0752 312.42639999999994,129.0464 312.42639999999994,128.2688 312.42639999999994L127.5488 312.42639999999994L127.5488 312.91599999999994C127.5776 314.3848,127.8656 314.96079999999995,128.9888 315.56559999999996C129.392 315.76719999999995,129.4784 315.8248,129.4784 316.1128C129.4784 316.3144,129.42079999999999 316.40079999999995,129.2768 316.51599999999996L129.1904 316.54479999999995L125.2448 316.54479999999995L121.328 316.54479999999995L121.2416 316.51599999999996C121.0688 316.40079999999995,121.04 316.3144,121.04 316.1128C121.04 315.8248,121.0688 315.76719999999995,121.5008 315.56559999999996C122.624 314.96079999999995,122.912 314.3848,122.912 312.91599999999994L122.912 312.42639999999994L119.6 312.42639999999994C118.9952 312.484,118.5056 312.484,118.1024 312.484C116.288 312.484,116.2592 312.42639999999994,116.2304 312.42639999999994C116.0576 312.36879999999996,116 312.19599999999997,116 311.9944C116 311.9944,116 311.9944,116 311.9944C116 311.79279999999994,116 311.79279999999994,116.576 311.13039999999995C118.9952 308.1928,120.6944 303.93039999999996,120.6944 300.532C120.6944 300.01359999999994,120.7808 299.84079999999994,121.0112 299.7544M122.7392 318.12879999999996L122.768 318.12879999999996L122.6816 318.12879999999996L122.7392 318.12879999999996M122.7392 298.71759999999995L122.768 298.71759999999995L122.6816 298.71759999999995L122.7392 298.71759999999995"></path><path stroke-width="1" fill="none" stroke="#000000" stroke-dasharray="none" d="M138.4784 268.09999999999997L156.49663999999999 268.09999999999997"></path><g class="vf-stavenote" id="vf-auto111949"><g class="vf-note" pointer-events="bounding-box"><g class="vf-stem" pointer-events="bounding-box"><path stroke-width="1.5" fill="none" stroke="#000000" stroke-dasharray="none" class="vf-stem" id="vf-auto111949-stem" d="M142.2284 268.09999999999997L142.2284 303.09999999999997"></path></g><g class="vf-notehead" pointer-events="bounding-box"><path stroke-width="0.3" fill="#000000" stroke="none" stroke-dasharray="none" d="M141.4784 268.09999999999997M148.83535999999998 262.87712C148.94768 262.87712,149.11615999999998 262.87712,149.14424 262.87712C149.14424 262.87712,149.17231999999998 262.87712,149.17231999999998 262.87712C149.17231999999998 262.87712,149.3408 262.87712,149.4812 262.87712C152.0084 263.01752,153.49663999999999 264.67423999999994,153.49663999999999 266.75215999999995C153.49663999999999 267.76304,153.15967999999998 268.91432,152.31727999999998 270.00944C150.71671999999998 272.17159999999996,148.10528 273.35096,145.83079999999998 273.35096C144.06176 273.35096,142.54543999999999 272.64896,141.81536 271.21687999999995C141.59072 270.65527999999995,141.4784 270.12175999999994,141.4784 269.53207999999995C141.4784 266.47135999999995,144.90416 263.07367999999997,148.83535999999998 262.87712"></path></g></g><g class="vf-modifiers"></g></g><g class="vf-stavenote" id="vf-auto111957"><g class="vf-note" pointer-events="bounding-box"><g class="vf-stem" pointer-events="bounding-box"><path stroke-width="1.5" fill="none" stroke="#000000" stroke-dasharray="none" class="vf-stem" id="vf-auto111957-stem" d="M230.50743999999997 298.09999999999997L230.50743999999997 263.09999999999997"></path></g><g class="vf-notehead" pointer-events="bounding-box"><path stroke-width="0.3" fill="#000000" stroke="none" stroke-dasharray="none" d="M219.23919999999998 298.09999999999997M226.59615999999997 292.87712C226.70847999999998 292.87712,226.87696 292.87712,226.90503999999999 292.87712C226.90503999999999 292.87712,226.93311999999997 292.87712,226.93311999999997 292.87712C226.93311999999997 292.87712,227.1016 292.87712,227.242 292.87712C229.76919999999998 293.01752,231.25743999999997 294.67423999999994,231.25743999999997 296.75215999999995C231.25743999999997 297.76304,230.92048 298.91432,230.07807999999997 300.00944C228.47751999999997 302.17159999999996,225.86607999999998 303.35096,223.59159999999997 303.35096C221.82255999999998 303.35096,220.30623999999997 302.64896,219.57616 301.21687999999995C219.35152 300.65527999999995,219.23919999999998 300.12175999999994,219.23919999999998 299.53207999999995C219.23919999999998 296.47135999999995,222.66495999999998 293.07367999999997,226.59615999999997 292.87712"></path></g></g><g class="vf-modifiers"></g></g><g class="vf-stavenote" id="vf-auto111965"><g class="vf-note" pointer-events="bounding-box"><g class="vf-stem" pointer-events="bounding-box"><path stroke-width="1.5" fill="none" stroke="#000000" stroke-dasharray="none" class="vf-stem" id="vf-auto111965-stem" d="M258.8696 288.09999999999997L258.8696 323.09999999999997"></path></g><g class="vf-notehead" pointer-events="bounding-box"><path stroke-width="0.3" fill="#000000" stroke="none" stroke-dasharray="none" d="M258.1196 288.09999999999997M265.47656 282.87712C265.58888 282.87712,265.75736 282.87712,265.78544 282.87712C265.78544 282.87712,265.81352 282.87712,265.81352 282.87712C265.81352 282.87712,265.98199999999997 282.87712,266.12239999999997 282.87712C268.64959999999996 283.01752,270.13784 284.67423999999994,270.13784 286.75215999999995C270.13784 287.76304,269.80088 288.91432,268.95848 290.00944C267.35792 292.17159999999996,264.74648 293.35096,262.472 293.35096C260.70296 293.35096,259.18664 292.64896,258.45655999999997 291.21687999999995C258.23192 290.65527999999995,258.1196 290.12175999999994,258.1196 289.53207999999995C258.1196 286.47135999999995,261.54536 283.07367999999997,265.47656 282.87712"></path></g></g><g class="vf-modifiers"></g></g><rect stroke-width="0.3" fill="#000000" stroke="#000000" stroke-dasharray="none" x="295.9452224" y="166.5" width="1" height="152.59999999999997"></rect><rect stroke-width="0.3" fill="#000000" stroke="#000000" stroke-dasharray="none" x="70" y="166.5" width="1" height="152.59999999999997"></rect><path stroke-width="1" fill="none" stroke="#000000" stroke-dasharray="none" d="M295.9452224 278.09999999999997L448.31204479999997 278.09999999999997"></path><path stroke-width="1" fill="none" stroke="#000000" stroke-dasharray="none" d="M295.9452224 288.09999999999997L448.31204479999997 288.09999999999997"></path><path stroke-width="1" fill="none" stroke="#000000" stroke-dasharray="none" d="M295.9452224 298.09999999999997L448.31204479999997 298.09999999999997"></path><path stroke-width="1" fill="none" stroke="#000000" stroke-dasharray="none" d="M295.9452224 308.09999999999997L448.31204479999997 308.09999999999997"></path><path stroke-width="1" fill="none" stroke="#000000" stroke-dasharray="none" d="M295.9452224 318.09999999999997L448.31204479999997 318.09999999999997"></path><rect stroke-width="0.3" fill="#000000" stroke="#000000" stroke-dasharray="none" x="448.31204479999997" y="277.59999999999997" width="1" height="41"></rect><g class="vf-stavenote" id="vf-auto112001"><g class="vf-note" pointer-events="bounding-box"><g class="vf-stem" pointer-events="bounding-box"><path stroke-width="1.5" fill="none" stroke="#000000" stroke-dasharray="none" class="vf-stem" id="vf-auto112001-stem" d="M392.71346239999997 318.09999999999997L392.71346239999997 283.09999999999997"></path></g><g class="vf-notehead" pointer-events="bounding-box"><path stroke-width="0.3" fill="#000000" stroke="none" stroke-dasharray="none" d="M381.4452224 318.09999999999997M388.8021824 312.87712C388.9145024 312.87712,389.0829824 312.87712,389.1110624 312.87712C389.1110624 312.87712,389.13914239999997 312.87712,389.13914239999997 312.87712C389.13914239999997 312.87712,389.30762239999996 312.87712,389.44802239999996 312.87712C391.9752224 313.01752,393.46346239999997 314.67423999999994,393.46346239999997 316.75215999999995C393.46346239999997 317.76304,393.1265024 318.91432,392.2841024 320.00944C390.68354239999996 322.17159999999996,388.07210239999995 323.35096,385.79762239999997 323.35096C384.0285824 323.35096,382.5122624 322.64896,381.78218239999995 321.21687999999995C381.5575424 320.65527999999995,381.4452224 320.12175999999994,381.4452224 319.53207999999995C381.4452224 316.47135999999995,384.8709824 313.07367999999997,388.8021824 312.87712"></path></g></g><g class="vf-modifiers"></g></g><rect stroke-width="0.3" fill="#000000" stroke="#000000" stroke-dasharray="none" x="448.31204479999997" y="166.5" width="1" height="152.59999999999997"></rect><path stroke-width="1" fill="none" stroke="#000000" stroke-dasharray="none" d="M448.31204479999997 278.09999999999997L596.4788672 278.09999999999997"></path><path stroke-width="1" fill="none" stroke="#000000" stroke-dasharray="none" d="M448.31204479999997 288.09999999999997L596.4788672 288.09999999999997"></path><path stroke-width="1" fill="none" stroke="#000000" stroke-dasharray="none" d="M448.31204479999997 298.09999999999997L596.4788672 298.09999999999997"></path><path stroke-width="1" fill="none" stroke="#000000" stroke-dasharray="none" d="M448.31204479999997 308.09999999999997L596.4788672 308.09999999999997"></path><path stroke-width="1" fill="none" stroke="#000000" stroke-dasharray="none" d="M448.31204479999997 318.09999999999997L596.4788672 318.09999999999997"></path><rect stroke-width="0.3" fill="#000000" stroke="#000000" stroke-dasharray="none" x="596.4788672" y="277.59999999999997" width="1" height="41"></rect><g class="vf-stavenote" id="vf-auto112030"><g class="vf-note" pointer-events="bounding-box"><g class="vf-stem" pointer-events="bounding-box"><path stroke-width="1.5" fill="none" stroke="#000000" stroke-dasharray="none" class="vf-stem" id="vf-auto112030-stem" d="M466.06204479999997 278.09999999999997L466.06204479999997 313.09999999999997"></path></g><g class="vf-notehead" pointer-events="bounding-box"><path stroke-width="0.3" fill="#000000" stroke="none" stroke-dasharray="none" d="M465.31204479999997 278.09999999999997M472.6690048 272.87712C472.7813248 272.87712,472.9498048 272.87712,472.97788479999997 272.87712C472.97788479999997 272.87712,473.00596479999996 272.87712,473.00596479999996 272.87712C473.00596479999996 272.87712,473.17444479999995 272.87712,473.31484479999995 272.87712C475.84204479999994 273.01752,477.33028479999996 274.67423999999994,477.33028479999996 276.75215999999995C477.33028479999996 277.76304,476.9933248 278.91432,476.1509248 280.00944C474.55036479999995 282.17159999999996,471.9389248 283.35096,469.66444479999996 283.35096C467.8954048 283.35096,466.3790848 282.64896,465.64900479999994 281.21687999999995C465.4243648 280.65527999999995,465.31204479999997 280.12175999999994,465.31204479999997 279.53207999999995C465.31204479999997 276.47135999999995,468.7378048 273.07367999999997,472.6690048 272.87712"></path></g></g><g class="vf-modifiers"></g></g><g class="vf-stavenote" id="vf-auto112038"><g class="vf-note" pointer-events="bounding-box"><g class="vf-stem" pointer-events="bounding-box"><path stroke-width="1.5" fill="none" stroke="#000000" stroke-dasharray="none" class="vf-stem" id="vf-auto112038-stem" d="M499.31204479999997 283.09999999999997L499.31204479999997 318.09999999999997"></path></g><g class="vf-notehead" pointer-events="bounding-box"><path stroke-width="0.3" fill="#000000" stroke="none" stroke-dasharray="none" d="M498.56204479999997 283.09999999999997M505.9190048 277.87712C506.0313248 277.87712,506.1998048 277.87712,506.22788479999997 277.87712C506.22788479999997 277.87712,506.25596479999996 277.87712,506.25596479999996 277.87712C506.25596479999996 277.87712,506.42444479999995 277.87712,506.56484479999995 277.87712C509.09204479999994 278.01752,510.58028479999996 279.67423999999994,510.58028479999996 281.75215999999995C510.58028479999996 282.76304,510.2433248 283.91432,509.4009248 285.00944C507.80036479999995 287.17159999999996,505.1889248 288.35096,502.91444479999996 288.35096C501.1454048 288.35096,499.6290848 287.64896,498.89900479999994 286.21687999999995C498.6743648 285.65527999999995,498.56204479999997 285.12175999999994,498.56204479999997 284.53207999999995C498.56204479999997 281.47135999999995,501.9878048 278.07367999999997,505.9190048 277.87712"></path></g></g><g class="vf-modifiers"></g></g><rect stroke-width="0.3" fill="#000000" stroke="#000000" stroke-dasharray="none" x="596.4788672" y="166.5" width="1" height="152.59999999999997"></rect><path stroke-width="1" fill="none" stroke="#000000" stroke-dasharray="none" d="M596.4788671999999 278.09999999999997L758.8456895999998 278.09999999999997"></path><path stroke-width="1" fill="none" stroke="#000000" stroke-dasharray="none" d="M596.4788671999999 288.09999999999997L758.8456895999998 288.09999999999997"></path><path stroke-width="1" fill="none" stroke="#000000" stroke-dasharray="none" d="M596.4788671999999 298.09999999999997L758.8456895999998 298.09999999999997"></path><path stroke-width="1" fill="none" stroke="#000000" stroke-dasharray="none" d="M596.4788671999999 308.09999999999997L758.8456895999998 308.09999999999997"></path><path stroke-width="1" fill="none" stroke="#000000" stroke-dasharray="none" d="M596.4788671999999 318.09999999999997L758.8456895999998 318.09999999999997"></path><rect stroke-width="0.3" fill="#000000" stroke="#000000" stroke-dasharray="none" x="753.8456895999998" y="277.59999999999997" width="1" height="41"></rect><rect stroke-width="0.3" fill="#000000" stroke="#000000" stroke-dasharray="none" x="756.8456895999998" y="277.59999999999997" width="3" height="41"></rect><path stroke-width="0.3" fill="#000000" stroke="none" stroke-dasharray="none" d="M752.8456895999998 293.59999999999997 A2 2 0 0 0 748.8456895999998 293.59999999999997M748.8456895999998 293.59999999999997 A2 2 0 0 0 752.8456895999998 293.59999999999997"></path><path stroke-width="0.3" fill="#000000" stroke="none" stroke-dasharray="none" d="M752.8456895999998 303.59999999999997 A2 2 0 0 0 748.8456895999998 303.59999999999997M748.8456895999998 303.59999999999997 A2 2 0 0 0 752.8456895999998 303.59999999999997"></path><g class="vf-stavenote" id="vf-auto112074"><g class="vf-note" pointer-events="bounding-box"><g class="vf-stem" pointer-events="bounding-box"><path stroke-width="1.5" fill="none" stroke="#000000" stroke-dasharray="none" class="vf-stem" id="vf-auto112074-stem" d="M687.7288671999999 288.09999999999997L687.7288671999999 323.09999999999997"></path></g><g class="vf-notehead" pointer-events="bounding-box"><path stroke-width="0.3" fill="#000000" stroke="none" stroke-dasharray="none" d="M686.9788671999999 288.09999999999997M694.3358271999998 282.87712C694.4481471999999 282.87712,694.6166271999998 282.87712,694.6447071999999 282.87712C694.6447071999999 282.87712,694.6727871999999 282.87712,694.6727871999999 282.87712C694.6727871999999 282.87712,694.8412671999998 282.87712,694.9816671999998 282.87712C697.5088671999998 283.01752,698.9971071999998 284.67423999999994,698.9971071999998 286.75215999999995C698.9971071999998 287.76304,698.6601471999999 288.91432,697.8177471999999 290.00944C696.2171871999999 292.17159999999996,693.6057471999999 293.35096,691.3312671999998 293.35096C689.5622271999998 293.35096,688.0459071999999 292.64896,687.3158271999998 291.21687999999995C687.0911871999998 290.65527999999995,686.9788671999999 290.12175999999994,686.9788671999999 289.53207999999995C686.9788671999999 286.47135999999995,690.4046271999998 283.07367999999997,694.3358271999998 282.87712"></path></g></g><g class="vf-modifiers"></g></g><rect stroke-width="0.3" fill="#000000" stroke="#000000" stroke-dasharray="none" x="753.8456895999998" y="166.5" width="1" height="152.59999999999997"></rect><rect stroke-width="0.3" fill="#000000" stroke="#000000" stroke-dasharray="none" x="756.8456895999998" y="166.5" width="3" height="152.59999999999997"></rect><path stroke-width="0.3" fill="#000000" stroke="none" stroke-dasharray="none" d="M68 166.5C45.2 197.01999999999998,81.2 222.19899999999998,56 242.79999999999998C81.2 263.40099999999995,45.2 288.58,68 319.09999999999997C44 288.58,72.8 263.40099999999995,56 242.79999999999998C72.8 222.19899999999998,44 197.01999999999998,68 166.5"></path><path stroke-width="1" fill="none" stroke="#000000" stroke-dasharray="none" d="M68 166.5C45.2 197.01999999999998,81.2 222.19899999999998,56 242.79999999999998C81.2 263.40099999999995,45.2 288.58,68 319.09999999999997C44 288.58,72.8 263.40099999999995,56 242.79999999999998C72.8 222.19899999999998,44 197.01999999999998,68 166.5"></path><g class="vf-text"><text stroke-width="0.3" fill="#000000" stroke="none" stroke-dasharray="none" font-family="Times New Roman" font-size="15px" font-weight="normal" font-style="normal" x="444.81204479999997" y="163.5">3</text></g></svg>