<svg xmlns="http://www.w3.org/2000/svg"  width="1470" height="390.79999999999995" viewBox="0 0 1470 390.79999999999995"><path stroke-width="1" fill="none" stroke="#000000" stroke-dasharray="none" d="M70 166.5L300.14522239999997 166.5"></path><path stroke-width="1" fill="none" stroke="#000000" stroke-dasharray="none" d="M70 176.5L300.14522239999997 176.5"></path><path stroke-width="1" fill="none" stroke="#000000" stroke-dasharray="none" d="M70 186.5L300.14522239999997 186.5"></path><path stroke-width="1" fill="none" stroke="#000000" stroke-dasharray="none" d="M70 196.5L300.14522239999997 196.5"></path><path stroke-width="1" fill="none" stroke="#000000" stroke-dasharray="none" d="M70 206.5L300.14522239999997 206.5"></path><rect stroke-width="0.3" fill="#000000" stroke="#000000" stroke-dasharray="none" x="300.14522239999997" y="166" width="1" height="41"></rect><g class="vf-clef"><path stroke-width="0.3" fill="#000000" stroke="none" stroke-dasharray="none" d="M75 196.5M89.0544 153.3288C89.112 153.3,89.1696 153.3,89.256 153.3C89.6016 153.3,90.0048 153.588,90.5808 154.308C92.9136 156.9864,94.5552 161.652,94.5552 165.4536C94.5552 165.7416,94.4976 165.972,94.4976 166.26C94.2384 170.7816,92.3952 174.4968,88.7376 178.0104L87.7584 178.9608L87.4128 179.3352L87.4128 179.4504L87.6144 180.3144L87.9312 181.8696L88.248 183.3096C88.68 185.268,88.8528 186.276,88.8528 186.276C88.8528 186.276,88.8528 186.276,88.8528 186.276C88.8528 186.276,88.968 186.276,89.112 186.2472C89.256 186.2472,89.7168 186.1896,90.2064 186.1896C90.55199999999999 186.1896,90.8976 186.2472,91.0704 186.2472C95.1312 186.7656,98.2704 189.6744,99.1632 193.764C99.336 194.4264,99.39359999999999 195.1464,99.39359999999999 195.8664C99.39359999999999 199.7544,97.0608 203.4696,93.1728 205.2264C92.94239999999999 205.3704,92.856 205.3992,92.856 205.3992L92.856 205.428C92.856 205.428,93.0288 206.0904,93.1728 206.8392L93.6048 209.028L94.008 210.7848C94.2384 211.908,94.3536 212.7144,94.3536 213.4344C94.3536 214.06799999999998,94.2672 214.644,94.1232 215.3064C93.144 219.3096,89.6592 221.7,86.0304 221.7C84.2448 221.7,82.4016 221.124,80.7888 219.828C79.3488 218.6184,78.7152 217.524,78.7152 216.084C78.7152 213.5496,80.76 211.764,82.8912 211.764C83.64 211.764,84.3888 211.99439999999998,85.1088 212.4264C86.3184 213.2616,86.8656 214.5288,86.8656 215.7672C86.8656 217.668,85.5408 219.54,83.2656 219.684L83.0352 219.684L83.208 219.79919999999998C84.1584 220.2024,85.1088 220.404,86.0304 220.404C88.3632 220.404,90.55199999999999 219.2232,91.8768 217.1784C92.62559999999999 216.0264,93.0288 214.6728,93.0288 213.3192C93.0288 212.8008,92.94239999999999 212.2824,92.8272 211.7064C92.8272 211.6488,92.74080000000001 211.188,92.62559999999999 210.756C91.992 207.6456,91.6176 205.8312,91.6176 205.8312C91.6176 205.8312,91.6176 205.8312,91.6176 205.8312C91.56 205.8312,91.4448 205.8312,91.3584 205.8888C91.0704 205.9464,90.4656 206.0904,90.2064 206.1192C89.5728 206.2056,88.968 206.2344,88.392 206.2344C82.74719999999999 206.2344,77.5056 202.4328,75.6912 196.8168C75.2304 195.3192,74.9712 193.8216,74.9712 192.324C74.9712 189.3288,75.9216 186.3912,77.7648 183.7704C79.7808 180.9192,81.7968 178.4712,84.2736 175.9368L85.13759999999999 175.044L84.936 173.9784L84.5616 172.2216L84.072 169.9752C83.928 169.14,83.7552 168.3336,83.7264 168.1608C83.5824 167.2104,83.496 166.2888,83.496 165.3384C83.496 161.7096,84.6768 158.22480000000002,86.8944 155.4312C87.5568 154.5672,88.7376 153.4152,89.0544 153.3288M90.8112 159.0312C90.7536 159.0312,90.6672 159.0312,90.5808 159.0312C89.4 159.0312,87.8736 160.1256,86.8368 161.7384C85.7712 163.32240000000002,85.224 165.4248,85.224 167.5848C85.224 168.1608,85.25280000000001 168.7656,85.3392 169.3704C85.4256 169.8024,85.45439999999999 170.0904,85.6848 171.12720000000002L86.088 172.9416C86.2032 173.4888,86.28960000000001 173.92079999999999,86.28960000000001 173.9784L86.28960000000001 173.9784C86.3184 173.9784,87.2112 172.9992,87.4992 172.6536C90.3792 169.3992,92.1072 165.972,92.4816 162.948C92.5104 162.66,92.5104 162.4296,92.5104 162.1416C92.5104 161.24880000000002,92.3952 160.38479999999998,92.1936 159.924C91.9632 159.4632,91.4448 159.0888,90.8112 159.0312M86.4624 181.2936C86.4048 180.8904,86.3184 180.5736,86.3184 180.516C86.3184 180.516,86.3184 180.516,86.28960000000001 180.516C86.232 180.516,84.9936 181.956,84.1296 182.964C82.6608 184.7496,81.1056 186.8808,80.472 187.9176C79.2624 189.9624,78.6576 192.2376,78.6576 194.484C78.6576 195.9528,78.9456 197.364,79.464 198.7176C81.0192 202.7208,84.5904 205.2264,88.4784 205.2264C88.9392 205.2264,89.4576 205.1976,89.9472 205.1112C90.5808 204.996,91.3584 204.7656,91.3584 204.6792L91.3584 204.6792C91.3584 204.6792,91.3008 204.3912,91.2144 204.0744L90.3792 199.956L89.7168 196.8744L89.2848 194.7432L88.824 192.6696C88.5936 191.4312,88.5072 191.1144,88.5072 191.1144C88.5072 191.1144,88.5072 191.0856,88.4784 191.0856C88.3056 191.0856,87.384 191.5464,86.9808 191.8344C85.4832 192.8712,84.7056 194.5128,84.7056 196.1256C84.7056 197.652,85.45439999999999 199.1784,86.8944 200.0712C87.2112 200.2728,87.3264 200.4456,87.3264 200.6472C87.3264 200.676,87.3264 200.7624,87.3264 200.7912C87.2688 201.1368,87.0672 201.2808,86.7792 201.2808C86.664 201.2808,86.52 201.252,86.3472 201.1656C83.6976 200.0136,81.912 197.2776,81.912 194.2824L81.912 194.2824C81.912 190.8264,84.072 187.8312,87.384 186.6504L87.5568 186.5928L87.2688 185.1528L86.4624 181.2936M90.7824 190.9128C90.55199999999999 190.88400000000001,90.3216 190.88400000000001,90.1488 190.88400000000001C90.0912 190.88400000000001,90.0048 190.88400000000001,89.9472 190.88400000000001L89.8032 190.88400000000001L89.9184 191.4024L90.5232 194.2248L90.8976 196.068L91.3008 197.8824L92.1072 201.8856L92.424 203.412C92.5392 203.8152,92.5968 204.1608,92.62559999999999 204.1608C92.62559999999999 204.1608,92.62559999999999 204.1608,92.62559999999999 204.1608C92.6544 204.1608,93.144 203.8728,93.4608 203.6424C94.9296 202.6056,96.024 200.9928,96.4272 199.3224C96.5712 198.7752,96.6288 198.1992,96.6288 197.652C96.6288 194.3112,94.152 191.2872,90.7824 190.9128"></path></g><path stroke-width="0.3" fill="#000000" stroke="none" stroke-dasharray="none" d="M116 186.5M121.0112 168.1544C121.04 168.1256,121.4432 168.1256,122.6816 168.1256C123.056 168.1256,123.4592 168.1256,123.9776 168.1256L126.8864 168.1256L126.9728 168.212C127.1168 168.29840000000002,127.2032 168.4424,127.2032 168.5576C127.2032 168.7304,127.1168 168.8456,127.0016 168.9608C126.9728 169.0472,126.7136 169.2776,126.5408 169.5368L125.0144 171.2936L123.056 173.5112L122.0192 174.692L120.464 176.4776L118.4192 178.8104C118.0736 179.2424,117.6992 179.588,117.6992 179.588C117.6992 179.588,117.6992 179.588,117.6992 179.588C117.6992 179.6456,117.9584 179.6456,120.3488 179.6456L122.9696 179.6456L122.9696 177.7736C122.9696 175.8728,122.9696 175.844,122.9984 175.8152C123.056 175.7288,123.3152 175.412,124.3232 174.2312L124.7264 173.7992L125.1296 173.3672L125.7344 172.5896L126.368 171.9272L126.6848 171.524C126.8 171.3512,126.9728 171.3224,127.1168 171.3224C127.28960000000001 171.3224,127.4336 171.4088,127.52 171.5528C127.5488 171.6392,127.5488 171.6968,127.5488 173.828C127.5488 174.3176,127.5488 174.9224,127.5488 175.6424L127.5488 179.6456L128.2688 179.6456C128.9312 179.6456,128.96 179.6456,129.0464 179.6744C129.2768 179.7608,129.392 179.9912,129.392 180.2504C129.392 180.3944,129.3632 180.5672,129.248 180.6824C129.0752 180.8264,129.0464 180.8264,128.2688 180.8264L127.5488 180.8264L127.5488 181.316C127.5776 182.7848,127.8656 183.3608,128.9888 183.9656C129.392 184.1672,129.4784 184.2248,129.4784 184.5128C129.4784 184.7144,129.42079999999999 184.8008,129.2768 184.916L129.1904 184.9448L125.2448 184.9448L121.328 184.9448L121.2416 184.916C121.0688 184.8008,121.04 184.7144,121.04 184.5128C121.04 184.2248,121.0688 184.1672,121.5008 183.9656C122.624 183.3608,122.912 182.7848,122.912 181.316L122.912 180.8264L119.6 180.8264C118.9952 180.88400000000001,118.5056 180.88400000000001,118.1024 180.88400000000001C116.288 180.88400000000001,116.2592 180.8264,116.2304 180.8264C116.0576 180.7688,116 180.596,116 180.3944C116 180.3944,116 180.3944,116 180.3944C116 180.1928,116 180.1928,116.576 179.5304C118.9952 176.5928,120.6944 172.3304,120.6944 168.93200000000002C120.6944 168.4136,120.7808 168.2408,121.0112 168.1544M122.7392 186.5288L122.768 186.5288L122.6816 186.5288L122.7392 186.5288M122.7392 167.1176L122.768 167.1176L122.6816 167.1176L122.7392 167.1176"></path><path stroke-width="0.3" fill="#000000" stroke="none" stroke-dasharray="none" d="M116 206.5M121.0112 188.1544C121.04 188.1256,121.4432 188.1256,122.6816 188.1256C123.056 188.1256,123.4592 188.1256,123.9776 188.1256L126.8864 188.1256L126.9728 188.212C127.1168 188.29840000000002,127.2032 188.4424,127.2032 188.5576C127.2032 188.7304,127.1168 188.8456,127.0016 188.9608C126.9728 189.0472,126.7136 189.2776,126.5408 189.5368L125.0144 191.2936L123.056 193.5112L122.0192 194.692L120.464 196.4776L118.4192 198.8104C118.0736 199.2424,117.6992 199.588,117.6992 199.588C117.6992 199.588,117.6992 199.588,117.6992 199.588C117.6992 199.6456,117.9584 199.6456,120.3488 199.6456L122.9696 199.6456L122.9696 197.7736C122.9696 195.8728,122.9696 195.844,122.9984 195.8152C123.056 195.7288,123.3152 195.412,124.3232 194.2312L124.7264 193.7992L125.1296 193.3672L125.7344 192.5896L126.368 191.9272L126.6848 191.524C126.8 191.3512,126.9728 191.3224,127.1168 191.3224C127.28960000000001 191.3224,127.4336 191.4088,127.52 191.5528C127.5488 191.6392,127.5488 191.6968,127.5488 193.828C127.5488 194.3176,127.5488 194.9224,127.5488 195.6424L127.5488 199.6456L128.2688 199.6456C128.9312 199.6456,128.96 199.6456,129.0464 199.6744C129.2768 199.7608,129.392 199.9912,129.392 200.2504C129.392 200.3944,129.3632 200.5672,129.248 200.6824C129.0752 200.8264,129.0464 200.8264,128.2688 200.8264L127.5488 200.8264L127.5488 201.316C127.5776 202.7848,127.8656 203.3608,128.9888 203.9656C129.392 204.1672,129.4784 204.2248,129.4784 204.5128C129.4784 204.7144,129.42079999999999 204.8008,129.2768 204.916L129.1904 204.9448L125.2448 204.9448L121.328 204.9448L121.2416 204.916C121.0688 204.8008,121.04 204.7144,121.04 204.5128C121.04 204.2248,121.0688 204.1672,121.5008 203.9656C122.624 203.3608,122.912 202.7848,122.912 201.316L122.912 200.8264L119.6 200.8264C118.9952 200.88400000000001,118.5056 200.88400000000001,118.1024 200.88400000000001C116.288 200.88400000000001,116.2592 200.8264,116.2304 200.8264C116.0576 200.7688,116 200.596,116 200.3944C116 200.3944,116 200.3944,116 200.3944C116 200.1928,116 200.1928,116.576 199.5304C118.9952 196.5928,120.6944 192.3304,120.6944 188.93200000000002C120.6944 188.4136,120.7808 188.2408,121.0112 188.1544M122.7392 206.5288L122.768 206.5288L122.6816 206.5288L122.7392 206.5288M122.7392 187.1176L122.768 187.1176L122.6816 187.1176L122.7392 187.1176"></path><g class="vf-stavenote" id="vf-auto1287458"><g class="vf-note" pointer-events="bounding-box"><g class="vf-stem" pointer-events="bounding-box"><path stroke-width="1.5" fill="none" stroke="#000000" stroke-dasharray="none" class="vf-stem" id="vf-auto1287458-stem" d="M222.48919999999998 166.5L222.48919999999998 201.5"></path></g><g class="vf-notehead" pointer-events="bounding-box"><path stroke-width="0.3" fill="#000000" stroke="none" stroke-dasharray="none" d="M221.73919999999998 166.5M229.09615999999997 161.27712C229.20847999999998 161.27712,229.37696 161.27712,229.40503999999999 161.27712C229.40503999999999 161.27712,229.43311999999997 161.27712,229.43311999999997 161.27712C229.43311999999997 161.27712,229.6016 161.27712,229.742 161.27712C232.26919999999998 161.41752,233.75743999999997 163.07424,233.75743999999997 165.15216C233.75743999999997 166.16304,233.42048 167.31432,232.57807999999997 168.40944C230.97751999999997 170.5716,228.36607999999998 171.75096,226.09159999999997 171.75096C224.32255999999998 171.75096,222.80623999999997 171.04896,222.07616 169.61688C221.85152 169.05528,221.73919999999998 168.52176,221.73919999999998 167.93208C221.73919999999998 164.87136,225.16495999999998 161.47368,229.09615999999997 161.27712"></path></g></g><g class="vf-modifiers"></g></g><g class="vf-stavenote" id="vf-auto1287466"><g class="vf-note" pointer-events="bounding-box"><g class="vf-stem" pointer-events="bounding-box"><path stroke-width="1.5" fill="none" stroke="#000000" stroke-dasharray="none" class="vf-stem" id="vf-auto1287466-stem" d="M262.6196 181.5L262.6196 216.5"></path></g><g class="vf-notehead" pointer-events="bounding-box"><path stroke-width="0.3" fill="#000000" stroke="none" stroke-dasharray="none" d="M261.8696 181.5M269.22656 176.27712C269.33888 176.27712,269.50736 176.27712,269.53544 176.27712C269.53544 176.27712,269.56352 176.27712,269.56352 176.27712C269.56352 176.27712,269.73199999999997 176.27712,269.87239999999997 176.27712C272.39959999999996 176.41752,273.88784 178.07424,273.88784 180.15216C273.88784 181.16304,273.55088 182.31432,272.70848 183.40944C271.10792 185.5716,268.49648 186.75096,266.222 186.75096C264.45296 186.75096,262.93664 186.04896,262.20655999999997 184.61688C261.98192 184.05528,261.8696 183.52176,261.8696 182.93208C261.8696 179.87136,265.29536 176.47368,269.22656 176.27712"></path></g></g><g class="vf-modifiers"></g></g><path stroke-width="1" fill="none" stroke="#000000" stroke-dasharray="none" d="M300.14522239999997 166.5L452.5120447999999 166.5"></path><path stroke-width="1" fill="none" stroke="#000000" stroke-dasharray="none" d="M300.14522239999997 176.5L452.5120447999999 176.5"></path><path stroke-width="1" fill="none" stroke="#000000" stroke-dasharray="none" d="M300.14522239999997 186.5L452.5120447999999 186.5"></path><path stroke-width="1" fill="none" stroke="#000000" stroke-dasharray="none" d="M300.14522239999997 196.5L452.5120447999999 196.5"></path><path stroke-width="1" fill="none" stroke="#000000" stroke-dasharray="none" d="M300.14522239999997 206.5L452.5120447999999 206.5"></path><rect stroke-width="0.3" fill="#000000" stroke="#000000" stroke-dasharray="none" x="452.5120447999999" y="166" width="1" height="41"></rect><g class="vf-stavenote" id="vf-auto1287494"><g class="vf-note" pointer-events="bounding-box"><g class="vf-stem" pointer-events="bounding-box"><path stroke-width="1.5" fill="none" stroke="#000000" stroke-dasharray="none" class="vf-stem" id="vf-auto1287494-stem" d="M328.41346239999996 201.5L328.41346239999996 166.5"></path></g><g class="vf-notehead" pointer-events="bounding-box"><path stroke-width="0.3" fill="#000000" stroke="none" stroke-dasharray="none" d="M317.14522239999997 201.5M324.5021824 196.27712C324.6145024 196.27712,324.7829824 196.27712,324.81106239999997 196.27712C324.81106239999997 196.27712,324.83914239999996 196.27712,324.83914239999996 196.27712C324.83914239999996 196.27712,325.00762239999995 196.27712,325.14802239999995 196.27712C327.67522239999994 196.41752,329.16346239999996 198.07424,329.16346239999996 200.15216C329.16346239999996 201.16304,328.8265024 202.31432,327.9841024 203.40944C326.38354239999995 205.5716,323.7721024 206.75096,321.49762239999995 206.75096C319.7285824 206.75096,318.2122624 206.04896,317.48218239999994 204.61688C317.2575424 204.05528,317.14522239999997 203.52176,317.14522239999997 202.93208C317.14522239999997 199.87136,320.5709824 196.47368,324.5021824 196.27712"></path></g></g><g class="vf-modifiers"></g></g><g class="vf-stavenote" id="vf-auto1287502"><g class="vf-note" pointer-events="bounding-box"><g class="vf-stem" pointer-events="bounding-box"><path stroke-width="1.5" fill="none" stroke="#000000" stroke-dasharray="none" class="vf-stem" id="vf-auto1287502-stem" d="M386.39522239999997 166.5L386.39522239999997 201.5"></path></g><g class="vf-notehead" pointer-events="bounding-box"><path stroke-width="0.3" fill="#000000" stroke="none" stroke-dasharray="none" d="M385.64522239999997 166.5M393.0021824 161.27712C393.1145024 161.27712,393.2829824 161.27712,393.31106239999997 161.27712C393.31106239999997 161.27712,393.33914239999996 161.27712,393.33914239999996 161.27712C393.33914239999996 161.27712,393.50762239999995 161.27712,393.64802239999995 161.27712C396.17522239999994 161.41752,397.66346239999996 163.07424,397.66346239999996 165.15216C397.66346239999996 166.16304,397.3265024 167.31432,396.4841024 168.40944C394.88354239999995 170.5716,392.2721024 171.75096,389.99762239999995 171.75096C388.2285824 171.75096,386.7122624 171.04896,385.98218239999994 169.61688C385.7575424 169.05528,385.64522239999997 168.52176,385.64522239999997 167.93208C385.64522239999997 164.87136,389.0709824 161.47368,393.0021824 161.27712"></path></g></g><g class="vf-modifiers"></g></g><g class="vf-stavenote" id="vf-auto1287510"><g class="vf-note" pointer-events="bounding-box"><g class="vf-stem" pointer-events="bounding-box"><path stroke-width="1.5" fill="none" stroke="#000000" stroke-dasharray="none" class="vf-stem" id="vf-auto1287510-stem" d="M420.64522239999997 171.5L420.64522239999997 206.5"></path></g><g class="vf-notehead" pointer-events="bounding-box"><path stroke-width="0.3" fill="#000000" stroke="none" stroke-dasharray="none" d="M419.89522239999997 171.5M427.2521824 166.27712C427.3645024 166.27712,427.5329824 166.27712,427.56106239999997 166.27712C427.56106239999997 166.27712,427.58914239999996 166.27712,427.58914239999996 166.27712C427.58914239999996 166.27712,427.75762239999995 166.27712,427.89802239999995 166.27712C430.42522239999994 166.41752,431.91346239999996 168.07424,431.91346239999996 170.15216C431.91346239999996 171.16304,431.5765024 172.31432,430.7341024 173.40944C429.13354239999995 175.5716,426.5221024 176.75096,424.24762239999995 176.75096C422.4785824 176.75096,420.9622624 176.04896,420.23218239999994 174.61688C420.0075424 174.05528,419.89522239999997 173.52176,419.89522239999997 172.93208C419.89522239999997 169.87136,423.3209824 166.47368,427.2521824 166.27712"></path></g></g><g class="vf-modifiers"></g></g><path stroke-width="1" fill="none" stroke="#000000" stroke-dasharray="none" d="M452.5120447999999 166.5L596.4788671999999 166.5"></path><path stroke-width="1" fill="none" stroke="#000000" stroke-dasharray="none" d="M452.5120447999999 176.5L596.4788671999999 176.5"></path><path stroke-width="1" fill="none" stroke="#000000" stroke-dasharray="none" d="M452.5120447999999 186.5L596.4788671999999 186.5"></path><path stroke-width="1" fill="none" stroke="#000000" stroke-dasharray="none" d="M452.5120447999999 196.5L596.4788671999999 196.5"></path><path stroke-width="1" fill="none" stroke="#000000" stroke-dasharray="none" d="M452.5120447999999 206.5L596.4788671999999 206.5"></path><rect stroke-width="0.3" fill="#000000" stroke="#000000" stroke-dasharray="none" x="596.4788671999999" y="166" width="1" height="41"></rect><g class="vf-stavenote" id="vf-auto1287531"><g class="vf-note" pointer-events="bounding-box"><g class="vf-stem" pointer-events="bounding-box"><path stroke-width="1.5" fill="none" stroke="#000000" stroke-dasharray="none" class="vf-stem" id="vf-auto1287531-stem" d="M502.2620447999999 166.5L502.2620447999999 201.5"></path></g><g class="vf-notehead" pointer-events="bounding-box"><path stroke-width="0.3" fill="#000000" stroke="none" stroke-dasharray="none" d="M501.5120447999999 166.5M508.8690047999999 161.27712C508.9813247999999 161.27712,509.1498047999999 161.27712,509.1778847999999 161.27712C509.1778847999999 161.27712,509.2059647999999 161.27712,509.2059647999999 161.27712C509.2059647999999 161.27712,509.3744447999999 161.27712,509.5148447999999 161.27712C512.0420447999999 161.41752,513.5302847999999 163.07424,513.5302847999999 165.15216C513.5302847999999 166.16304,513.1933247999999 167.31432,512.3509247999999 168.40944C510.7503647999999 170.5716,508.1389247999999 171.75096,505.8644447999999 171.75096C504.0954047999999 171.75096,502.5790847999999 171.04896,501.8490047999999 169.61688C501.6243647999999 169.05528,501.5120447999999 168.52176,501.5120447999999 167.93208C501.5120447999999 164.87136,504.9378047999999 161.47368,508.8690047999999 161.27712"></path></g></g><g class="vf-modifiers"></g></g><path stroke-width="1" fill="none" stroke="#000000" stroke-dasharray="none" d="M596.4788671999999 166.5L754.6456895999997 166.5"></path><path stroke-width="1" fill="none" stroke="#000000" stroke-dasharray="none" d="M596.4788671999999 176.5L754.6456895999997 176.5"></path><path stroke-width="1" fill="none" stroke="#000000" stroke-dasharray="none" d="M596.4788671999999 186.5L754.6456895999997 186.5"></path><path stroke-width="1" fill="none" stroke="#000000" stroke-dasharray="none" d="M596.4788671999999 196.5L754.6456895999997 196.5"></path><path stroke-width="1" fill="none" stroke="#000000" stroke-dasharray="none" d="M596.4788671999999 206.5L754.6456895999997 206.5"></path><rect stroke-width="0.3" fill="#000000" stroke="#000000" stroke-dasharray="none" x="749.6456895999997" y="166" width="1" height="41"></rect><rect stroke-width="0.3" fill="#000000" stroke="#000000" stroke-dasharray="none" x="752.6456895999997" y="166" width="3" height="41"></rect><path stroke-width="0.3" fill="#000000" stroke="none" stroke-dasharray="none" d="M748.6456895999997 182 A2 2 0 0 0 744.6456895999997 182M744.6456895999997 182 A2 2 0 0 0 748.6456895999997 182"></path><path stroke-width="0.3" fill="#000000" stroke="none" stroke-dasharray="none" d="M748.6456895999997 192 A2 2 0 0 0 744.6456895999997 192M744.6456895999997 192 A2 2 0 0 0 748.6456895999997 192"></path><g class="vf-stavenote" id="vf-auto1287568"><g class="vf-note" pointer-events="bounding-box"><g class="vf-stem" pointer-events="bounding-box"><path stroke-width="1.5" fill="none" stroke="#000000" stroke-dasharray="none" class="vf-stem" id="vf-auto1287568-stem" d="M685.7288671999999 181.5L685.7288671999999 216.5"></path></g><g class="vf-notehead" pointer-events="bounding-box"><path stroke-width="0.3" fill="#000000" stroke="none" stroke-dasharray="none" d="M684.9788671999999 181.5M692.3358271999998 176.27712C692.4481471999999 176.27712,692.6166271999998 176.27712,692.6447071999999 176.27712C692.6447071999999 176.27712,692.6727871999999 176.27712,692.6727871999999 176.27712C692.6727871999999 176.27712,692.8412671999998 176.27712,692.9816671999998 176.27712C695.5088671999998 176.41752,696.9971071999998 178.07424,696.9971071999998 180.15216C696.9971071999998 181.16304,696.6601471999999 182.31432,695.8177471999999 183.40944C694.2171871999999 185.5716,691.6057471999999 186.75096,689.3312671999998 186.75096C687.5622271999998 186.75096,686.0459071999999 186.04896,685.3158271999998 184.61688C685.0911871999998 184.05528,684.9788671999999 183.52176,684.9788671999999 182.93208C684.9788671999999 179.87136,688.4046271999998 176.47368,692.3358271999998 176.27712"></path></g></g><g class="vf-modifiers"></g></g><g class="vf-stavenote" id="vf-auto1287576"><g class="vf-note" pointer-events="bounding-box"><g class="vf-stem" pointer-events="bounding-box"><path stroke-width="1.5" fill="none" stroke="#000000" stroke-dasharray="none" class="vf-stem" id="vf-auto1287576-stem" d="M731.9971071999998 201.5L731.9971071999998 166.5"></path></g><g class="vf-notehead" pointer-events="bounding-box"><path stroke-width="0.3" fill="#000000" stroke="none" stroke-dasharray="none" d="M720.7288671999999 201.5M728.0858271999998 196.27712C728.1981471999999 196.27712,728.3666271999998 196.27712,728.3947071999999 196.27712C728.3947071999999 196.27712,728.4227871999999 196.27712,728.4227871999999 196.27712C728.4227871999999 196.27712,728.5912671999998 196.27712,728.7316671999998 196.27712C731.2588671999998 196.41752,732.7471071999998 198.07424,732.7471071999998 200.15216C732.7471071999998 201.16304,732.4101471999999 202.31432,731.5677471999999 203.40944C729.9671871999999 205.5716,727.3557471999999 206.75096,725.0812671999998 206.75096C723.3122271999998 206.75096,721.7959071999999 206.04896,721.0658271999998 204.61688C720.8411871999998 204.05528,720.7288671999999 203.52176,720.7288671999999 202.93208C720.7288671999999 199.87136,724.1546271999998 196.47368,728.0858271999998 196.27712"></path></g></g><g class="vf-modifiers"></g></g><g class="vf-text"><text stroke-width="0.3" fill="#000000" stroke="none" stroke-dasharray="none" font-family="Times New Roman" font-size="23px" font-weight="bold" font-style="italic" x="156.4784" y="240.5">mp</text></g><path stroke-width="1" fill="none" stroke="#000000" stroke-dasharray="none" d="M70 269.3L300.14522239999997 269.3"></path><path stroke-width="1" fill="none" stroke="#000000" stroke-dasharray="none" d="M70 279.3L300.14522239999997 279.3"></path><path stroke-width="1" fill="none" stroke="#000000" stroke-dasharray="none" d="M70 289.3L300.14522239999997 289.3"></path><path stroke-width="1" fill="none" stroke="#000000" stroke-dasharray="none" d="M70 299.3L300.14522239999997 299.3"></path><path stroke-width="1" fill="none" stroke="#000000" stroke-dasharray="none" d="M70 309.3L300.14522239999997 309.3"></path><rect stroke-width="0.3" fill="#000000" stroke="#000000" stroke-dasharray="none" x="300.14522239999997" y="268.8" width="1" height="41"></rect><g class="vf-clef"><path stroke-width="0.3" fill="#000000" stroke="none" stroke-dasharray="none" d="M75 279.3M83.8416 269.2488C84.072 269.19120000000004,84.3024 269.19120000000004,84.5616 269.19120000000004C85.5696 269.19120000000004,86.7504 269.3064,87.7584 269.50800000000004C92.4816 270.48720000000003,95.736 273.684,96.3408 277.94640000000004C96.3984 278.4072,96.4272 278.8392,96.4272 279.3C96.4272 281.892,95.5344 285.2328,94.008 288.0264C90.3792 294.5928,83.7552 299.31600000000003,75.8064 301.044C75.6624 301.044,75.5472 301.07280000000003,75.4032 301.07280000000003C75.1152 301.07280000000003,74.9712 300.90000000000003,74.9712 300.6408C74.9712 300.3528,75.0288 300.26640000000003,75.6048 300.036C84.7056 296.60880000000003,90.7824 289.2072,91.3296 280.9128C91.3584 280.4808,91.3584 279.9912,91.3584 279.6168C91.3584 275.58480000000003,90.12 272.5896,87.7296 271.092C86.6928 270.4296,85.5696 270.1128,84.36 270.1128C81.6816 270.1128,78.9456 271.6392,77.6784 274.2024C77.6208 274.404,77.4192 274.836,77.4192 274.8648C77.4192 274.8648,77.4192 274.8648,77.4192 274.8648C77.4192 274.8648,77.448 274.836,77.5344 274.8072C78.168 274.404,78.8592 274.2024,79.5792 274.2024C80.5872 274.2024,81.6528 274.6344,82.4016 275.4408C83.0928 276.1896,83.4672 277.1976,83.4672 278.11920000000003C83.4672 279.9912,82.0848 281.892,79.9248 282.09360000000004C79.7808 282.09360000000004,79.6368 282.1224,79.4928 282.1224C77.1024 282.1224,75.1728 279.9336,75.1728 277.16880000000003C75.1728 277.1112,75.1728 277.0248,75.1728 276.99600000000004C75.288 272.87760000000003,79.0608 269.50800000000004,83.8416 269.2488M99.1632 273.108C99.2208 273.0792,99.2496 273.0792,99.336 273.0792C99.5376 273.0792,99.768 273.108,99.8256 273.16560000000004C100.54560000000001 273.3672,100.8912 274.0008,100.8912 274.60560000000004C100.8912 275.124,100.632 275.6424,100.11359999999999 275.9304C99.912 276.0744,99.6528 276.1032,99.39359999999999 276.1032C98.9904 276.1032,98.5584 275.9304,98.2704 275.55600000000004C98.03999999999999 275.26800000000003,97.9248 274.95120000000003,97.9248 274.6344C97.9248 273.9144,98.3856 273.19440000000003,99.1632 273.108M99.1632 282.5256C99.2208 282.5256,99.2496 282.5256,99.336 282.5256C99.5376 282.5256,99.768 282.5544,99.8256 282.612C100.54560000000001 282.8136,100.8912 283.4472,100.8912 284.052C100.8912 284.5704,100.632 285.0888,100.11359999999999 285.348C99.912 285.492,99.6528 285.5496,99.39359999999999 285.5496C98.9904 285.5496,98.5584 285.348,98.2704 285.0024C98.03999999999999 284.7144,97.9248 284.3976,97.9248 284.052C97.9248 283.332,98.3856 282.6408,99.1632 282.5256"></path></g><path stroke-width="0.3" fill="#000000" stroke="none" stroke-dasharray="none" d="M116 289.3M121.0112 270.9544C121.04 270.92560000000003,121.4432 270.92560000000003,122.6816 270.92560000000003C123.056 270.92560000000003,123.4592 270.92560000000003,123.9776 270.92560000000003L126.8864 270.92560000000003L126.9728 271.012C127.1168 271.0984,127.2032 271.24240000000003,127.2032 271.3576C127.2032 271.5304,127.1168 271.6456,127.0016 271.7608C126.9728 271.8472,126.7136 272.0776,126.5408 272.33680000000004L125.0144 274.09360000000004L123.056 276.3112L122.0192 277.492L120.464 279.2776L118.4192 281.6104C118.0736 282.0424,117.6992 282.38800000000003,117.6992 282.38800000000003C117.6992 282.38800000000003,117.6992 282.38800000000003,117.6992 282.38800000000003C117.6992 282.4456,117.9584 282.4456,120.3488 282.4456L122.9696 282.4456L122.9696 280.5736C122.9696 278.6728,122.9696 278.644,122.9984 278.6152C123.056 278.5288,123.3152 278.212,124.3232 277.0312L124.7264 276.5992L125.1296 276.16720000000004L125.7344 275.38960000000003L126.368 274.72720000000004L126.6848 274.324C126.8 274.1512,126.9728 274.1224,127.1168 274.1224C127.28960000000001 274.1224,127.4336 274.2088,127.52 274.3528C127.5488 274.4392,127.5488 274.4968,127.5488 276.628C127.5488 277.11760000000004,127.5488 277.7224,127.5488 278.4424L127.5488 282.4456L128.2688 282.4456C128.9312 282.4456,128.96 282.4456,129.0464 282.4744C129.2768 282.56080000000003,129.392 282.7912,129.392 283.0504C129.392 283.19440000000003,129.3632 283.3672,129.248 283.4824C129.0752 283.6264,129.0464 283.6264,128.2688 283.6264L127.5488 283.6264L127.5488 284.116C127.5776 285.58480000000003,127.8656 286.1608,128.9888 286.7656C129.392 286.9672,129.4784 287.0248,129.4784 287.31280000000004C129.4784 287.5144,129.42079999999999 287.6008,129.2768 287.716L129.1904 287.7448L125.2448 287.7448L121.328 287.7448L121.2416 287.716C121.0688 287.6008,121.04 287.5144,121.04 287.31280000000004C121.04 287.0248,121.0688 286.9672,121.5008 286.7656C122.624 286.1608,122.912 285.58480000000003,122.912 284.116L122.912 283.6264L119.6 283.6264C118.9952 283.684,118.5056 283.684,118.1024 283.684C116.288 283.684,116.2592 283.6264,116.2304 283.6264C116.0576 283.5688,116 283.396,116 283.19440000000003C116 283.19440000000003,116 283.19440000000003,116 283.19440000000003C116 282.9928,116 282.9928,116.576 282.3304C118.9952 279.3928,120.6944 275.1304,120.6944 271.732C120.6944 271.2136,120.7808 271.0408,121.0112 270.9544M122.7392 289.3288L122.768 289.3288L122.6816 289.3288L122.7392 289.3288M122.7392 269.9176L122.768 269.9176L122.6816 269.9176L122.7392 269.9176"></path><path stroke-width="0.3" fill="#000000" stroke="none" stroke-dasharray="none" d="M116 309.3M121.0112 290.9544C121.04 290.92560000000003,121.4432 290.92560000000003,122.6816 290.92560000000003C123.056 290.92560000000003,123.4592 290.92560000000003,123.9776 290.92560000000003L126.8864 290.92560000000003L126.9728 291.012C127.1168 291.0984,127.2032 291.24240000000003,127.2032 291.3576C127.2032 291.5304,127.1168 291.6456,127.0016 291.7608C126.9728 291.8472,126.7136 292.0776,126.5408 292.33680000000004L125.0144 294.09360000000004L123.056 296.3112L122.0192 297.492L120.464 299.2776L118.4192 301.6104C118.0736 302.0424,117.6992 302.38800000000003,117.6992 302.38800000000003C117.6992 302.38800000000003,117.6992 302.38800000000003,117.6992 302.38800000000003C117.6992 302.4456,117.9584 302.4456,120.3488 302.4456L122.9696 302.4456L122.9696 300.5736C122.9696 298.6728,122.9696 298.644,122.9984 298.6152C123.056 298.5288,123.3152 298.212,124.3232 297.0312L124.7264 296.5992L125.1296 296.16720000000004L125.7344 295.38960000000003L126.368 294.72720000000004L126.6848 294.324C126.8 294.1512,126.9728 294.1224,127.1168 294.1224C127.28960000000001 294.1224,127.4336 294.2088,127.52 294.3528C127.5488 294.4392,127.5488 294.4968,127.5488 296.628C127.5488 297.11760000000004,127.5488 297.7224,127.5488 298.4424L127.5488 302.4456L128.2688 302.4456C128.9312 302.4456,128.96 302.4456,129.0464 302.4744C129.2768 302.56080000000003,129.392 302.7912,129.392 303.0504C129.392 303.19440000000003,129.3632 303.3672,129.248 303.4824C129.0752 303.6264,129.0464 303.6264,128.2688 303.6264L127.5488 303.6264L127.5488 304.116C127.5776 305.58480000000003,127.8656 306.1608,128.9888 306.7656C129.392 306.9672,129.4784 307.0248,129.4784 307.31280000000004C129.4784 307.5144,129.42079999999999 307.6008,129.2768 307.716L129.1904 307.7448L125.2448 307.7448L121.328 307.7448L121.2416 307.716C121.0688 307.6008,121.04 307.5144,121.04 307.31280000000004C121.04 307.0248,121.0688 306.9672,121.5008 306.7656C122.624 306.1608,122.912 305.58480000000003,122.912 304.116L122.912 303.6264L119.6 303.6264C118.9952 303.684,118.5056 303.684,118.1024 303.684C116.288 303.684,116.2592 303.6264,116.2304 303.6264C116.0576 303.5688,116 303.396,116 303.19440000000003C116 303.19440000000003,116 303.19440000000003,116 303.19440000000003C116 302.9928,116 302.9928,116.576 302.3304C118.9952 299.3928,120.6944 295.1304,120.6944 291.732C120.6944 291.2136,120.7808 291.0408,121.0112 290.9544M122.7392 309.3288L122.768 309.3288L122.6816 309.3288L122.7392 309.3288M122.7392 289.9176L122.768 289.9176L122.6816 289.9176L122.7392 289.9176"></path><g class="vf-stavenote" id="vf-auto1287476"><g class="vf-note" pointer-events="bounding-box"><g class="vf-stem" pointer-events="bounding-box"><path stroke-width="1.5" fill="none" stroke="#000000" stroke-dasharray="none" class="vf-stem" id="vf-auto1287476-stem" d="M152.74663999999999 289.3L152.74663999999999 254.3"></path></g><g class="vf-notehead" pointer-events="bounding-box"><path stroke-width="0.3" fill="#000000" stroke="none" stroke-dasharray="none" d="M141.4784 289.3M148.83535999999998 284.07712000000004C148.94768 284.07712000000004,149.11615999999998 284.07712000000004,149.14424 284.07712000000004C149.14424 284.07712000000004,149.17231999999998 284.07712000000004,149.17231999999998 284.07712000000004C149.17231999999998 284.07712000000004,149.3408 284.07712000000004,149.4812 284.07712000000004C152.0084 284.21752000000004,153.49663999999999 285.87424,153.49663999999999 287.95216C153.49663999999999 288.96304000000003,153.15967999999998 290.11432,152.31727999999998 291.20944000000003C150.71671999999998 293.3716,148.10528 294.55096000000003,145.83079999999998 294.55096000000003C144.06176 294.55096000000003,142.54543999999999 293.84896000000003,141.81536 292.41688C141.59072 291.85528,141.4784 291.32176,141.4784 290.73208C141.4784 287.67136,144.90416 284.27368,148.83535999999998 284.07712000000004"></path></g></g><g class="vf-modifiers"></g></g><g class="vf-stavenote" id="vf-auto1287484"><g class="vf-note" pointer-events="bounding-box"><g class="vf-stem" pointer-events="bounding-box"><path stroke-width="1.5" fill="none" stroke="#000000" stroke-dasharray="none" class="vf-stem" id="vf-auto1287484-stem" d="M192.87704 299.3L192.87704 264.3"></path></g><g class="vf-notehead" pointer-events="bounding-box"><path stroke-width="0.3" fill="#000000" stroke="none" stroke-dasharray="none" d="M181.6088 299.3M188.96576 294.07712000000004C189.07808 294.07712000000004,189.24656 294.07712000000004,189.27464 294.07712000000004C189.27464 294.07712000000004,189.30272 294.07712000000004,189.30272 294.07712000000004C189.30272 294.07712000000004,189.4712 294.07712000000004,189.6116 294.07712000000004C192.1388 294.21752000000004,193.62704 295.87424,193.62704 297.95216C193.62704 298.96304000000003,193.29008 300.11432,192.44768 301.20944000000003C190.84712 303.3716,188.23568 304.55096000000003,185.9612 304.55096000000003C184.19216 304.55096000000003,182.67584 303.84896000000003,181.94576 302.41688C181.72112 301.85528,181.6088 301.32176,181.6088 300.73208C181.6088 297.67136,185.03456 294.27368,188.96576 294.07712000000004"></path></g></g><g class="vf-modifiers"></g></g><rect stroke-width="0.3" fill="#000000" stroke="#000000" stroke-dasharray="none" x="300.14522239999997" y="166.5" width="1" height="143.8"></rect><rect stroke-width="0.3" fill="#000000" stroke="#000000" stroke-dasharray="none" x="70" y="166.5" width="1" height="143.8"></rect><path stroke-width="1" fill="none" stroke="#000000" stroke-dasharray="none" d="M300.14522239999997 269.3L452.5120447999999 269.3"></path><path stroke-width="1" fill="none" stroke="#000000" stroke-dasharray="none" d="M300.14522239999997 279.3L452.5120447999999 279.3"></path><path stroke-width="1" fill="none" stroke="#000000" stroke-dasharray="none" d="M300.14522239999997 289.3L452.5120447999999 289.3"></path><path stroke-width="1" fill="none" stroke="#000000" stroke-dasharray="none" d="M300.14522239999997 299.3L452.5120447999999 299.3"></path><path stroke-width="1" fill="none" stroke="#000000" stroke-dasharray="none" d="M300.14522239999997 309.3L452.5120447999999 309.3"></path><rect stroke-width="0.3" fill="#000000" stroke="#000000" stroke-dasharray="none" x="452.5120447999999" y="268.8" width="1" height="41"></rect><g class="vf-stavenote" id="vf-auto1287520"><g class="vf-note" pointer-events="bounding-box"><g class="vf-stem" pointer-events="bounding-box"><path stroke-width="1.5" fill="none" stroke="#000000" stroke-dasharray="none" class="vf-stem" id="vf-auto1287520-stem" d="M352.14522239999997 279.3L352.14522239999997 314.3"></path></g><g class="vf-notehead" pointer-events="bounding-box"><path stroke-width="0.3" fill="#000000" stroke="none" stroke-dasharray="none" d="M351.39522239999997 279.3M358.7521824 274.07712000000004C358.8645024 274.07712000000004,359.0329824 274.07712000000004,359.06106239999997 274.07712000000004C359.06106239999997 274.07712000000004,359.08914239999996 274.07712000000004,359.08914239999996 274.07712000000004C359.08914239999996 274.07712000000004,359.25762239999995 274.07712000000004,359.39802239999995 274.07712000000004C361.92522239999994 274.21752000000004,363.41346239999996 275.87424,363.41346239999996 277.95216C363.41346239999996 278.96304000000003,363.0765024 280.11432,362.2341024 281.20944000000003C360.63354239999995 283.3716,358.0221024 284.55096000000003,355.74762239999995 284.55096000000003C353.9785824 284.55096000000003,352.4622624 283.84896000000003,351.73218239999994 282.41688C351.5075424 281.85528,351.39522239999997 281.32176,351.39522239999997 280.73208C351.39522239999997 277.67136,354.8209824 274.27368,358.7521824 274.07712000000004"></path></g></g><g class="vf-modifiers"></g></g><rect stroke-width="0.3" fill="#000000" stroke="#000000" stroke-dasharray="none" x="452.5120447999999" y="166.5" width="1" height="143.8"></rect><path stroke-width="1" fill="none" stroke="#000000" stroke-dasharray="none" d="M452.5120447999999 269.3L596.4788671999999 269.3"></path><path stroke-width="1" fill="none" stroke="#000000" stroke-dasharray="none" d="M452.5120447999999 279.3L596.4788671999999 279.3"></path><path stroke-width="1" fill="none" stroke="#000000" stroke-dasharray="none" d="M452.5120447999999 289.3L596.4788671999999 289.3"></path><path stroke-width="1" fill="none" stroke="#000000" stroke-dasharray="none" d="M452.5120447999999 299.3L596.4788671999999 299.3"></path><path stroke-width="1" fill="none" stroke="#000000" stroke-dasharray="none" d="M452.5120447999999 309.3L596.4788671999999 309.3"></path><rect stroke-width="0.3" fill="#000000" stroke="#000000" stroke-dasharray="none" x="596.4788671999999" y="268.8" width="1" height="41"></rect><g class="vf-stavenote" id="vf-auto1287542"><g class="vf-note" pointer-events="bounding-box"><g class="vf-stem" pointer-events="bounding-box"><path stroke-width="1.5" fill="none" stroke="#000000" stroke-dasharray="none" class="vf-stem" id="vf-auto1287542-stem" d="M480.7802847999999 309.3L480.7802847999999 274.3"></path></g><g class="vf-notehead" pointer-events="bounding-box"><path stroke-width="0.3" fill="#000000" stroke="none" stroke-dasharray="none" d="M469.5120447999999 309.3M476.8690047999999 304.07712000000004C476.9813247999999 304.07712000000004,477.1498047999999 304.07712000000004,477.1778847999999 304.07712000000004C477.1778847999999 304.07712000000004,477.2059647999999 304.07712000000004,477.2059647999999 304.07712000000004C477.2059647999999 304.07712000000004,477.3744447999999 304.07712000000004,477.5148447999999 304.07712000000004C480.04204479999987 304.21752000000004,481.5302847999999 305.87424,481.5302847999999 307.95216C481.5302847999999 308.96304000000003,481.1933247999999 310.11432,480.3509247999999 311.20944000000003C478.7503647999999 313.3716,476.1389247999999 314.55096000000003,473.8644447999999 314.55096000000003C472.0954047999999 314.55096000000003,470.5790847999999 313.84896000000003,469.8490047999999 312.41688C469.6243647999999 311.85528,469.5120447999999 311.32176,469.5120447999999 310.73208C469.5120447999999 307.67136,472.9378047999999 304.27368,476.8690047999999 304.07712000000004"></path></g></g><g class="vf-modifiers"></g></g><g class="vf-stavenote" id="vf-auto1287550"><g class="vf-note" pointer-events="bounding-box"><g class="vf-stem" pointer-events="bounding-box"><path stroke-width="1.5" fill="none" stroke="#000000" stroke-dasharray="none" class="vf-stem" id="vf-auto1287550-stem" d="M544.7802847999999 289.3L544.7802847999999 254.3"></path></g><g class="vf-notehead" pointer-events="bounding-box"><path stroke-width="0.3" fill="#000000" stroke="none" stroke-dasharray="none" d="M533.5120447999999 289.3M540.8690047999999 284.07712000000004C540.9813247999999 284.07712000000004,541.1498047999999 284.07712000000004,541.1778847999999 284.07712000000004C541.1778847999999 284.07712000000004,541.2059648 284.07712000000004,541.2059648 284.07712000000004C541.2059648 284.07712000000004,541.3744447999999 284.07712000000004,541.5148447999999 284.07712000000004C544.0420447999999 284.21752000000004,545.5302847999999 285.87424,545.5302847999999 287.95216C545.5302847999999 288.96304000000003,545.1933247999999 290.11432,544.3509247999999 291.20944000000003C542.7503647999999 293.3716,540.1389247999999 294.55096000000003,537.8644447999999 294.55096000000003C536.0954047999999 294.55096000000003,534.5790847999999 293.84896000000003,533.8490047999999 292.41688C533.6243647999999 291.85528,533.5120447999999 291.32176,533.5120447999999 290.73208C533.5120447999999 287.67136,536.9378047999999 284.27368,540.8690047999999 284.07712000000004"></path></g></g><g class="vf-modifiers"></g></g><g class="vf-stavenote" id="vf-auto1287558"><g class="vf-note" pointer-events="bounding-box"><g class="vf-stem" pointer-events="bounding-box"><path stroke-width="1.5" fill="none" stroke="#000000" stroke-dasharray="none" class="vf-stem" id="vf-auto1287558-stem" d="M576.7802847999999 294.3L576.7802847999999 259.3"></path></g><g class="vf-notehead" pointer-events="bounding-box"><path stroke-width="0.3" fill="#000000" stroke="none" stroke-dasharray="none" d="M565.5120447999999 294.3M572.8690047999999 289.07712000000004C572.9813247999999 289.07712000000004,573.1498047999999 289.07712000000004,573.1778847999999 289.07712000000004C573.1778847999999 289.07712000000004,573.2059648 289.07712000000004,573.2059648 289.07712000000004C573.2059648 289.07712000000004,573.3744447999999 289.07712000000004,573.5148447999999 289.07712000000004C576.0420447999999 289.21752000000004,577.5302847999999 290.87424,577.5302847999999 292.95216C577.5302847999999 293.96304000000003,577.1933247999999 295.11432,576.3509247999999 296.20944000000003C574.7503647999999 298.3716,572.1389247999999 299.55096000000003,569.8644447999999 299.55096000000003C568.0954047999999 299.55096000000003,566.5790847999999 298.84896000000003,565.8490047999999 297.41688C565.6243647999999 296.85528,565.5120447999999 296.32176,565.5120447999999 295.73208C565.5120447999999 292.67136,568.9378047999999 289.27368,572.8690047999999 289.07712000000004"></path></g></g><g class="vf-modifiers"></g></g><rect stroke-width="0.3" fill="#000000" stroke="#000000" stroke-dasharray="none" x="596.4788671999999" y="166.5" width="1" height="143.8"></rect><path stroke-width="1" fill="none" stroke="#000000" stroke-dasharray="none" d="M596.4788671999999 269.3L754.6456895999997 269.3"></path><path stroke-width="1" fill="none" stroke="#000000" stroke-dasharray="none" d="M596.4788671999999 279.3L754.6456895999997 279.3"></path><path stroke-width="1" fill="none" stroke="#000000" stroke-dasharray="none" d="M596.4788671999999 289.3L754.6456895999997 289.3"></path><path stroke-width="1" fill="none" stroke="#000000" stroke-dasharray="none" d="M596.4788671999999 299.3L754.6456895999997 299.3"></path><path stroke-width="1" fill="none" stroke="#000000" stroke-dasharray="none" d="M596.4788671999999 309.3L754.6456895999997 309.3"></path><rect stroke-width="0.3" fill="#000000" stroke="#000000" stroke-dasharray="none" x="749.6456895999997" y="268.8" width="1" height="41"></rect><rect stroke-width="0.3" fill="#000000" stroke="#000000" stroke-dasharray="none" x="752.6456895999997" y="268.8" width="3" height="41"></rect><path stroke-width="0.3" fill="#000000" stroke="none" stroke-dasharray="none" d="M748.6456895999997 284.8 A2 2 0 0 0 744.6456895999997 284.8M744.6456895999997 284.8 A2 2 0 0 0 748.6456895999997 284.8"></path><path stroke-width="0.3" fill="#000000" stroke="none" stroke-dasharray="none" d="M748.6456895999997 294.8 A2 2 0 0 0 744.6456895999997 294.8M744.6456895999997 294.8 A2 2 0 0 0 748.6456895999997 294.8"></path><g class="vf-stavenote" id="vf-auto1287586"><g class="vf-note" pointer-events="bounding-box"><g class="vf-stem" pointer-events="bounding-box"><path stroke-width="1.5" fill="none" stroke="#000000" stroke-dasharray="none" class="vf-stem" id="vf-auto1287586-stem" d="M624.7471071999998 294.3L624.7471071999998 259.3"></path></g><g class="vf-notehead" pointer-events="bounding-box"><path stroke-width="0.3" fill="#000000" stroke="none" stroke-dasharray="none" d="M613.4788671999999 294.3M620.8358271999998 289.07712000000004C620.9481471999999 289.07712000000004,621.1166271999998 289.07712000000004,621.1447071999999 289.07712000000004C621.1447071999999 289.07712000000004,621.1727871999999 289.07712000000004,621.1727871999999 289.07712000000004C621.1727871999999 289.07712000000004,621.3412671999998 289.07712000000004,621.4816671999998 289.07712000000004C624.0088671999998 289.21752000000004,625.4971071999998 290.87424,625.4971071999998 292.95216C625.4971071999998 293.96304000000003,625.1601471999999 295.11432,624.3177471999999 296.20944000000003C622.7171871999999 298.3716,620.1057471999999 299.55096000000003,617.8312671999998 299.55096000000003C616.0622271999998 299.55096000000003,614.5459071999999 298.84896000000003,613.8158271999998 297.41688C613.5911871999998 296.85528,613.4788671999999 296.32176,613.4788671999999 295.73208C613.4788671999999 292.67136,616.9046271999998 289.27368,620.8358271999998 289.07712000000004"></path></g></g><g class="vf-modifiers"></g></g><g class="vf-stavenote" id="vf-auto1287594"><g class="vf-note" pointer-events="bounding-box"><g class="vf-stem" pointer-events="bounding-box"><path stroke-width="1.5" fill="none" stroke="#000000" stroke-dasharray="none" class="vf-stem" id="vf-auto1287594-stem" d="M660.4971071999998 309.3L660.4971071999998 274.3"></path></g><g class="vf-notehead" pointer-events="bounding-box"><path stroke-width="0.3" fill="#000000" stroke="none" stroke-dasharray="none" d="M649.2288671999999 309.3M656.5858271999998 304.07712000000004C656.6981471999999 304.07712000000004,656.8666271999998 304.07712000000004,656.8947071999999 304.07712000000004C656.8947071999999 304.07712000000004,656.9227871999999 304.07712000000004,656.9227871999999 304.07712000000004C656.9227871999999 304.07712000000004,657.0912671999998 304.07712000000004,657.2316671999998 304.07712000000004C659.7588671999998 304.21752000000004,661.2471071999998 305.87424,661.2471071999998 307.95216C661.2471071999998 308.96304000000003,660.9101471999999 310.11432,660.0677471999999 311.20944000000003C658.4671871999999 313.3716,655.8557471999999 314.55096000000003,653.5812671999998 314.55096000000003C651.8122271999998 314.55096000000003,650.2959071999999 313.84896000000003,649.5658271999998 312.41688C649.3411871999998 311.85528,649.2288671999999 311.32176,649.2288671999999 310.73208C649.2288671999999 307.67136,652.6546271999998 304.27368,656.5858271999998 304.07712000000004"></path></g></g><g class="vf-modifiers"></g></g><rect stroke-width="0.3" fill="#000000" stroke="#000000" stroke-dasharray="none" x="749.6456895999997" y="166.5" width="1" height="143.8"></rect><rect stroke-width="0.3" fill="#000000" stroke="#000000" stroke-dasharray="none" x="752.6456895999997" y="166.5" width="3" height="143.8"></rect><path stroke-width="0.3" fill="#000000" stroke="none" stroke-dasharray="none" d="M68 166.5C45.2 195.26,81.2 218.987,56 238.4C81.2 257.813,45.2 281.54,68 310.3C44 281.54,72.8 257.813,56 238.4C72.8 218.987,44 195.26,68 166.5"></path><path stroke-width="1" fill="none" stroke="#000000" stroke-dasharray="none" d="M68 166.5C45.2 195.26,81.2 218.987,56 238.4C81.2 257.813,45.2 281.54,68 310.3C44 281.54,72.8 257.813,56 238.4C72.8 218.987,44 195.26,68 166.5"></path><g class="vf-text"><text stroke-width="0.3" fill="#000000" stroke="none" stroke-dasharray="none" font-family="Times New Roman" font-size="15px" font-weight="normal" font-style="normal" x="449.0120447999999" y="163.5">3</text></g></svg>