<svg xmlns="http://www.w3.org/2000/svg"  width="1470" height="395.79999999999995" viewBox="0 0 1470 395.79999999999995"><path stroke-width="1" fill="none" stroke="#000000" stroke-dasharray="none" d="M70 166.5L291.74522239999993 166.5"></path><path stroke-width="1" fill="none" stroke="#000000" stroke-dasharray="none" d="M70 176.5L291.74522239999993 176.5"></path><path stroke-width="1" fill="none" stroke="#000000" stroke-dasharray="none" d="M70 186.5L291.74522239999993 186.5"></path><path stroke-width="1" fill="none" stroke="#000000" stroke-dasharray="none" d="M70 196.5L291.74522239999993 196.5"></path><path stroke-width="1" fill="none" stroke="#000000" stroke-dasharray="none" d="M70 206.5L291.74522239999993 206.5"></path><rect stroke-width="0.3" fill="#000000" stroke="#000000" stroke-dasharray="none" x="291.74522239999993" y="166" width="1" height="41"></rect><g class="vf-clef"><path stroke-width="0.3" fill="#000000" stroke="none" stroke-dasharray="none" d="M75 196.5M89.0544 153.3288C89.112 153.3,89.1696 153.3,89.256 153.3C89.6016 153.3,90.0048 153.588,90.5808 154.308C92.9136 156.9864,94.5552 161.652,94.5552 165.4536C94.5552 165.7416,94.4976 165.972,94.4976 166.26C94.2384 170.7816,92.3952 174.4968,88.7376 178.0104L87.7584 178.9608L87.4128 179.3352L87.4128 179.4504L87.6144 180.3144L87.9312 181.8696L88.248 183.3096C88.68 185.268,88.8528 186.276,88.8528 186.276C88.8528 186.276,88.8528 186.276,88.8528 186.276C88.8528 186.276,88.968 186.276,89.112 186.2472C89.256 186.2472,89.7168 186.1896,90.2064 186.1896C90.55199999999999 186.1896,90.8976 186.2472,91.0704 186.2472C95.1312 186.7656,98.2704 189.6744,99.1632 193.764C99.336 194.4264,99.39359999999999 195.1464,99.39359999999999 195.8664C99.39359999999999 199.7544,97.0608 203.4696,93.1728 205.2264C92.94239999999999 205.3704,92.856 205.3992,92.856 205.3992L92.856 205.428C92.856 205.428,93.0288 206.0904,93.1728 206.8392L93.6048 209.028L94.008 210.7848C94.2384 211.908,94.3536 212.7144,94.3536 213.4344C94.3536 214.06799999999998,94.2672 214.644,94.1232 215.3064C93.144 219.3096,89.6592 221.7,86.0304 221.7C84.2448 221.7,82.4016 221.124,80.7888 219.828C79.3488 218.6184,78.7152 217.524,78.7152 216.084C78.7152 213.5496,80.76 211.764,82.8912 211.764C83.64 211.764,84.3888 211.99439999999998,85.1088 212.4264C86.3184 213.2616,86.8656 214.5288,86.8656 215.7672C86.8656 217.668,85.5408 219.54,83.2656 219.684L83.0352 219.684L83.208 219.79919999999998C84.1584 220.2024,85.1088 220.404,86.0304 220.404C88.3632 220.404,90.55199999999999 219.2232,91.8768 217.1784C92.62559999999999 216.0264,93.0288 214.6728,93.0288 213.3192C93.0288 212.8008,92.94239999999999 212.2824,92.8272 211.7064C92.8272 211.6488,92.74080000000001 211.188,92.62559999999999 210.756C91.992 207.6456,91.6176 205.8312,91.6176 205.8312C91.6176 205.8312,91.6176 205.8312,91.6176 205.8312C91.56 205.8312,91.4448 205.8312,91.3584 205.8888C91.0704 205.9464,90.4656 206.0904,90.2064 206.1192C89.5728 206.2056,88.968 206.2344,88.392 206.2344C82.74719999999999 206.2344,77.5056 202.4328,75.6912 196.8168C75.2304 195.3192,74.9712 193.8216,74.9712 192.324C74.9712 189.3288,75.9216 186.3912,77.7648 183.7704C79.7808 180.9192,81.7968 178.4712,84.2736 175.9368L85.13759999999999 175.044L84.936 173.9784L84.5616 172.2216L84.072 169.9752C83.928 169.14,83.7552 168.3336,83.7264 168.1608C83.5824 167.2104,83.496 166.2888,83.496 165.3384C83.496 161.7096,84.6768 158.22480000000002,86.8944 155.4312C87.5568 154.5672,88.7376 153.4152,89.0544 153.3288M90.8112 159.0312C90.7536 159.0312,90.6672 159.0312,90.5808 159.0312C89.4 159.0312,87.8736 160.1256,86.8368 161.7384C85.7712 163.32240000000002,85.224 165.4248,85.224 167.5848C85.224 168.1608,85.25280000000001 168.7656,85.3392 169.3704C85.4256 169.8024,85.45439999999999 170.0904,85.6848 171.12720000000002L86.088 172.9416C86.2032 173.4888,86.28960000000001 173.92079999999999,86.28960000000001 173.9784L86.28960000000001 173.9784C86.3184 173.9784,87.2112 172.9992,87.4992 172.6536C90.3792 169.3992,92.1072 165.972,92.4816 162.948C92.5104 162.66,92.5104 162.4296,92.5104 162.1416C92.5104 161.24880000000002,92.3952 160.38479999999998,92.1936 159.924C91.9632 159.4632,91.4448 159.0888,90.8112 159.0312M86.4624 181.2936C86.4048 180.8904,86.3184 180.5736,86.3184 180.516C86.3184 180.516,86.3184 180.516,86.28960000000001 180.516C86.232 180.516,84.9936 181.956,84.1296 182.964C82.6608 184.7496,81.1056 186.8808,80.472 187.9176C79.2624 189.9624,78.6576 192.2376,78.6576 194.484C78.6576 195.9528,78.9456 197.364,79.464 198.7176C81.0192 202.7208,84.5904 205.2264,88.4784 205.2264C88.9392 205.2264,89.4576 205.1976,89.9472 205.1112C90.5808 204.996,91.3584 204.7656,91.3584 204.6792L91.3584 204.6792C91.3584 204.6792,91.3008 204.3912,91.2144 204.0744L90.3792 199.956L89.7168 196.8744L89.2848 194.7432L88.824 192.6696C88.5936 191.4312,88.5072 191.1144,88.5072 191.1144C88.5072 191.1144,88.5072 191.0856,88.4784 191.0856C88.3056 191.0856,87.384 191.5464,86.9808 191.8344C85.4832 192.8712,84.7056 194.5128,84.7056 196.1256C84.7056 197.652,85.45439999999999 199.1784,86.8944 200.0712C87.2112 200.2728,87.3264 200.4456,87.3264 200.6472C87.3264 200.676,87.3264 200.7624,87.3264 200.7912C87.2688 201.1368,87.0672 201.2808,86.7792 201.2808C86.664 201.2808,86.52 201.252,86.3472 201.1656C83.6976 200.0136,81.912 197.2776,81.912 194.2824L81.912 194.2824C81.912 190.8264,84.072 187.8312,87.384 186.6504L87.5568 186.5928L87.2688 185.1528L86.4624 181.2936M90.7824 190.9128C90.55199999999999 190.88400000000001,90.3216 190.88400000000001,90.1488 190.88400000000001C90.0912 190.88400000000001,90.0048 190.88400000000001,89.9472 190.88400000000001L89.8032 190.88400000000001L89.9184 191.4024L90.5232 194.2248L90.8976 196.068L91.3008 197.8824L92.1072 201.8856L92.424 203.412C92.5392 203.8152,92.5968 204.1608,92.62559999999999 204.1608C92.62559999999999 204.1608,92.62559999999999 204.1608,92.62559999999999 204.1608C92.6544 204.1608,93.144 203.8728,93.4608 203.6424C94.9296 202.6056,96.024 200.9928,96.4272 199.3224C96.5712 198.7752,96.6288 198.1992,96.6288 197.652C96.6288 194.3112,94.152 191.2872,90.7824 190.9128"></path></g><path stroke-width="0.3" fill="#000000" stroke="none" stroke-dasharray="none" d="M116 186.5M121.0112 168.1544C121.04 168.1256,121.4432 168.1256,122.6816 168.1256C123.056 168.1256,123.4592 168.1256,123.9776 168.1256L126.8864 168.1256L126.9728 168.212C127.1168 168.29840000000002,127.2032 168.4424,127.2032 168.5576C127.2032 168.7304,127.1168 168.8456,127.0016 168.9608C126.9728 169.0472,126.7136 169.2776,126.5408 169.5368L125.0144 171.2936L123.056 173.5112L122.0192 174.692L120.464 176.4776L118.4192 178.8104C118.0736 179.2424,117.6992 179.588,117.6992 179.588C117.6992 179.588,117.6992 179.588,117.6992 179.588C117.6992 179.6456,117.9584 179.6456,120.3488 179.6456L122.9696 179.6456L122.9696 177.7736C122.9696 175.8728,122.9696 175.844,122.9984 175.8152C123.056 175.7288,123.3152 175.412,124.3232 174.2312L124.7264 173.7992L125.1296 173.3672L125.7344 172.5896L126.368 171.9272L126.6848 171.524C126.8 171.3512,126.9728 171.3224,127.1168 171.3224C127.28960000000001 171.3224,127.4336 171.4088,127.52 171.5528C127.5488 171.6392,127.5488 171.6968,127.5488 173.828C127.5488 174.3176,127.5488 174.9224,127.5488 175.6424L127.5488 179.6456L128.2688 179.6456C128.9312 179.6456,128.96 179.6456,129.0464 179.6744C129.2768 179.7608,129.392 179.9912,129.392 180.2504C129.392 180.3944,129.3632 180.5672,129.248 180.6824C129.0752 180.8264,129.0464 180.8264,128.2688 180.8264L127.5488 180.8264L127.5488 181.316C127.5776 182.7848,127.8656 183.3608,128.9888 183.9656C129.392 184.1672,129.4784 184.2248,129.4784 184.5128C129.4784 184.7144,129.42079999999999 184.8008,129.2768 184.916L129.1904 184.9448L125.2448 184.9448L121.328 184.9448L121.2416 184.916C121.0688 184.8008,121.04 184.7144,121.04 184.5128C121.04 184.2248,121.0688 184.1672,121.5008 183.9656C122.624 183.3608,122.912 182.7848,122.912 181.316L122.912 180.8264L119.6 180.8264C118.9952 180.88400000000001,118.5056 180.88400000000001,118.1024 180.88400000000001C116.288 180.88400000000001,116.2592 180.8264,116.2304 180.8264C116.0576 180.7688,116 180.596,116 180.3944C116 180.3944,116 180.3944,116 180.3944C116 180.1928,116 180.1928,116.576 179.5304C118.9952 176.5928,120.6944 172.3304,120.6944 168.93200000000002C120.6944 168.4136,120.7808 168.2408,121.0112 168.1544M122.7392 186.5288L122.768 186.5288L122.6816 186.5288L122.7392 186.5288M122.7392 167.1176L122.768 167.1176L122.6816 167.1176L122.7392 167.1176"></path><path stroke-width="0.3" fill="#000000" stroke="none" stroke-dasharray="none" d="M116 206.5M121.0112 188.1544C121.04 188.1256,121.4432 188.1256,122.6816 188.1256C123.056 188.1256,123.4592 188.1256,123.9776 188.1256L126.8864 188.1256L126.9728 188.212C127.1168 188.29840000000002,127.2032 188.4424,127.2032 188.5576C127.2032 188.7304,127.1168 188.8456,127.0016 188.9608C126.9728 189.0472,126.7136 189.2776,126.5408 189.5368L125.0144 191.2936L123.056 193.5112L122.0192 194.692L120.464 196.4776L118.4192 198.8104C118.0736 199.2424,117.6992 199.588,117.6992 199.588C117.6992 199.588,117.6992 199.588,117.6992 199.588C117.6992 199.6456,117.9584 199.6456,120.3488 199.6456L122.9696 199.6456L122.9696 197.7736C122.9696 195.8728,122.9696 195.844,122.9984 195.8152C123.056 195.7288,123.3152 195.412,124.3232 194.2312L124.7264 193.7992L125.1296 193.3672L125.7344 192.5896L126.368 191.9272L126.6848 191.524C126.8 191.3512,126.9728 191.3224,127.1168 191.3224C127.28960000000001 191.3224,127.4336 191.4088,127.52 191.5528C127.5488 191.6392,127.5488 191.6968,127.5488 193.828C127.5488 194.3176,127.5488 194.9224,127.5488 195.6424L127.5488 199.6456L128.2688 199.6456C128.9312 199.6456,128.96 199.6456,129.0464 199.6744C129.2768 199.7608,129.392 199.9912,129.392 200.2504C129.392 200.3944,129.3632 200.5672,129.248 200.6824C129.0752 200.8264,129.0464 200.8264,128.2688 200.8264L127.5488 200.8264L127.5488 201.316C127.5776 202.7848,127.8656 203.3608,128.9888 203.9656C129.392 204.1672,129.4784 204.2248,129.4784 204.5128C129.4784 204.7144,129.42079999999999 204.8008,129.2768 204.916L129.1904 204.9448L125.2448 204.9448L121.328 204.9448L121.2416 204.916C121.0688 204.8008,121.04 204.7144,121.04 204.5128C121.04 204.2248,121.0688 204.1672,121.5008 203.9656C122.624 203.3608,122.912 202.7848,122.912 201.316L122.912 200.8264L119.6 200.8264C118.9952 200.88400000000001,118.5056 200.88400000000001,118.1024 200.88400000000001C116.288 200.88400000000001,116.2592 200.8264,116.2304 200.8264C116.0576 200.7688,116 200.596,116 200.3944C116 200.3944,116 200.3944,116 200.3944C116 200.1928,116 200.1928,116.576 199.5304C118.9952 196.5928,120.6944 192.3304,120.6944 188.93200000000002C120.6944 188.4136,120.7808 188.2408,121.0112 188.1544M122.7392 206.5288L122.768 206.5288L122.6816 206.5288L122.7392 206.5288M122.7392 187.1176L122.768 187.1176L122.6816 187.1176L122.7392 187.1176"></path><path stroke-width="1" fill="none" stroke="#000000" stroke-dasharray="none" d="M291.74522239999993 166.5L435.7120447999999 166.5"></path><path stroke-width="1" fill="none" stroke="#000000" stroke-dasharray="none" d="M291.74522239999993 176.5L435.7120447999999 176.5"></path><path stroke-width="1" fill="none" stroke="#000000" stroke-dasharray="none" d="M291.74522239999993 186.5L435.7120447999999 186.5"></path><path stroke-width="1" fill="none" stroke="#000000" stroke-dasharray="none" d="M291.74522239999993 196.5L435.7120447999999 196.5"></path><path stroke-width="1" fill="none" stroke="#000000" stroke-dasharray="none" d="M291.74522239999993 206.5L435.7120447999999 206.5"></path><rect stroke-width="0.3" fill="#000000" stroke="#000000" stroke-dasharray="none" x="435.7120447999999" y="166" width="1" height="41"></rect><g class="vf-stavenote" id="vf-auto2935294"><g class="vf-note" pointer-events="bounding-box"><g class="vf-stem" pointer-events="bounding-box"><path stroke-width="1.5" fill="none" stroke="#000000" stroke-dasharray="none" class="vf-stem" id="vf-auto2935294-stem" d="M341.49522239999993 171.5L341.49522239999993 206.5"></path></g><g class="vf-notehead" pointer-events="bounding-box"><path stroke-width="0.3" fill="#000000" stroke="none" stroke-dasharray="none" d="M340.74522239999993 171.5M348.10218239999995 166.27712C348.21450239999996 166.27712,348.38298239999995 166.27712,348.41106239999993 166.27712C348.41106239999993 166.27712,348.4391423999999 166.27712,348.4391423999999 166.27712C348.4391423999999 166.27712,348.6076223999999 166.27712,348.7480223999999 166.27712C351.27522239999996 166.41752,352.7634623999999 168.07424,352.7634623999999 170.15216C352.7634623999999 171.16304,352.42650239999995 172.31432,351.58410239999995 173.40944C349.9835423999999 175.5716,347.3721023999999 176.75096,345.0976223999999 176.75096C343.32858239999996 176.75096,341.81226239999995 176.04896,341.0821823999999 174.61688C340.85754239999994 174.05528,340.74522239999993 173.52176,340.74522239999993 172.93208C340.74522239999993 169.87136,344.17098239999996 166.47368,348.10218239999995 166.27712"></path></g></g><g class="vf-modifiers"></g></g><path stroke-width="1" fill="none" stroke="#000000" stroke-dasharray="none" d="M435.71204479999994 166.5L583.8788671999998 166.5"></path><path stroke-width="1" fill="none" stroke="#000000" stroke-dasharray="none" d="M435.71204479999994 176.5L583.8788671999998 176.5"></path><path stroke-width="1" fill="none" stroke="#000000" stroke-dasharray="none" d="M435.71204479999994 186.5L583.8788671999998 186.5"></path><path stroke-width="1" fill="none" stroke="#000000" stroke-dasharray="none" d="M435.71204479999994 196.5L583.8788671999998 196.5"></path><path stroke-width="1" fill="none" stroke="#000000" stroke-dasharray="none" d="M435.71204479999994 206.5L583.8788671999998 206.5"></path><rect stroke-width="0.3" fill="#000000" stroke="#000000" stroke-dasharray="none" x="583.8788671999998" y="166" width="1" height="41"></rect><g class="vf-stavenote" id="vf-auto2935331"><g class="vf-note" pointer-events="bounding-box"><g class="vf-stem" pointer-events="bounding-box"><path stroke-width="1.5" fill="none" stroke="#000000" stroke-dasharray="none" class="vf-stem" id="vf-auto2935331-stem" d="M530.4802847999999 201.5L530.4802847999999 166.5"></path></g><g class="vf-notehead" pointer-events="bounding-box"><path stroke-width="0.3" fill="#000000" stroke="none" stroke-dasharray="none" d="M519.2120448 201.5M526.5690047999999 196.27712C526.6813248 196.27712,526.8498047999999 196.27712,526.8778848 196.27712C526.8778848 196.27712,526.9059648 196.27712,526.9059648 196.27712C526.9059648 196.27712,527.0744447999999 196.27712,527.2148447999999 196.27712C529.7420447999999 196.41752,531.2302847999999 198.07424,531.2302847999999 200.15216C531.2302847999999 201.16304,530.8933248 202.31432,530.0509248 203.40944C528.4503648 205.5716,525.8389248 206.75096,523.5644447999999 206.75096C521.7954047999999 206.75096,520.2790848 206.04896,519.5490047999999 204.61688C519.3243647999999 204.05528,519.2120448 203.52176,519.2120448 202.93208C519.2120448 199.87136,522.6378047999999 196.47368,526.5690047999999 196.27712"></path></g></g><g class="vf-modifiers"></g></g><g class="vf-stavenote" id="vf-auto2935339"><g class="vf-note" pointer-events="bounding-box"><g class="vf-stem" pointer-events="bounding-box"><path stroke-width="1.5" fill="none" stroke="#000000" stroke-dasharray="none" class="vf-stem" id="vf-auto2935339-stem" d="M553.2120448 181.5L553.2120448 216.5"></path></g><g class="vf-notehead" pointer-events="bounding-box"><path stroke-width="0.3" fill="#000000" stroke="none" stroke-dasharray="none" d="M552.4620448 181.5M559.8190047999999 176.27712C559.9313248 176.27712,560.0998047999999 176.27712,560.1278848 176.27712C560.1278848 176.27712,560.1559648 176.27712,560.1559648 176.27712C560.1559648 176.27712,560.3244447999999 176.27712,560.4648447999999 176.27712C562.9920447999999 176.41752,564.4802847999999 178.07424,564.4802847999999 180.15216C564.4802847999999 181.16304,564.1433248 182.31432,563.3009248 183.40944C561.7003648 185.5716,559.0889248 186.75096,556.8144447999999 186.75096C555.0454047999999 186.75096,553.5290848 186.04896,552.7990047999999 184.61688C552.5743647999999 184.05528,552.4620448 183.52176,552.4620448 182.93208C552.4620448 179.87136,555.8878047999999 176.47368,559.8190047999999 176.27712"></path></g></g><g class="vf-modifiers"></g></g><path stroke-width="1" fill="none" stroke="#000000" stroke-dasharray="none" d="M583.8788671999998 166.5L742.0456895999998 166.5"></path><path stroke-width="1" fill="none" stroke="#000000" stroke-dasharray="none" d="M583.8788671999998 176.5L742.0456895999998 176.5"></path><path stroke-width="1" fill="none" stroke="#000000" stroke-dasharray="none" d="M583.8788671999998 186.5L742.0456895999998 186.5"></path><path stroke-width="1" fill="none" stroke="#000000" stroke-dasharray="none" d="M583.8788671999998 196.5L742.0456895999998 196.5"></path><path stroke-width="1" fill="none" stroke="#000000" stroke-dasharray="none" d="M583.8788671999998 206.5L742.0456895999998 206.5"></path><rect stroke-width="0.3" fill="#000000" stroke="#000000" stroke-dasharray="none" x="737.0456895999998" y="166" width="1" height="41"></rect><rect stroke-width="0.3" fill="#000000" stroke="#000000" stroke-dasharray="none" x="740.0456895999998" y="166" width="3" height="41"></rect><path stroke-width="0.3" fill="#000000" stroke="none" stroke-dasharray="none" d="M736.0456895999998 182 A2 2 0 0 0 732.0456895999998 182M732.0456895999998 182 A2 2 0 0 0 736.0456895999998 182"></path><path stroke-width="0.3" fill="#000000" stroke="none" stroke-dasharray="none" d="M736.0456895999998 192 A2 2 0 0 0 732.0456895999998 192M732.0456895999998 192 A2 2 0 0 0 736.0456895999998 192"></path><path stroke-width="1" fill="none" stroke="#000000" stroke-dasharray="none" d="M597.8788671999998 216.5L615.8971071999998 216.5"></path><g class="vf-stavenote" id="vf-auto2935367"><g class="vf-note" pointer-events="bounding-box"><g class="vf-stem" pointer-events="bounding-box"><path stroke-width="1.5" fill="none" stroke="#000000" stroke-dasharray="none" class="vf-stem" id="vf-auto2935367-stem" d="M612.1471071999998 221.5L612.1471071999998 186.5"></path></g><g class="vf-notehead" pointer-events="bounding-box"><path stroke-width="0.3" fill="#000000" stroke="none" stroke-dasharray="none" d="M600.8788671999998 221.5M608.2358271999998 216.27712C608.3481471999999 216.27712,608.5166271999998 216.27712,608.5447071999998 216.27712C608.5447071999998 216.27712,608.5727871999999 216.27712,608.5727871999999 216.27712C608.5727871999999 216.27712,608.7412671999998 216.27712,608.8816671999998 216.27712C611.4088671999998 216.41752,612.8971071999998 218.07424,612.8971071999998 220.15216C612.8971071999998 221.16304,612.5601471999998 222.31432,611.7177471999998 223.40944C610.1171871999999 225.5716,607.5057471999999 226.75096,605.2312671999998 226.75096C603.4622271999998 226.75096,601.9459071999999 226.04896,601.2158271999998 224.61688C600.9911871999998 224.05528,600.8788671999998 223.52176,600.8788671999998 222.93208C600.8788671999998 219.87136,604.3046271999998 216.47368,608.2358271999998 216.27712"></path></g></g><g class="vf-modifiers"></g></g><g class="vf-stavenote" id="vf-auto2935375"><g class="vf-note" pointer-events="bounding-box"><g class="vf-stem" pointer-events="bounding-box"><path stroke-width="1.5" fill="none" stroke="#000000" stroke-dasharray="none" class="vf-stem" id="vf-auto2935375-stem" d="M637.3788671999998 171.5L637.3788671999998 206.5"></path></g><g class="vf-notehead" pointer-events="bounding-box"><path stroke-width="0.3" fill="#000000" stroke="none" stroke-dasharray="none" d="M636.6288671999998 171.5M643.9858271999998 166.27712C644.0981471999999 166.27712,644.2666271999998 166.27712,644.2947071999998 166.27712C644.2947071999998 166.27712,644.3227871999999 166.27712,644.3227871999999 166.27712C644.3227871999999 166.27712,644.4912671999998 166.27712,644.6316671999998 166.27712C647.1588671999998 166.41752,648.6471071999998 168.07424,648.6471071999998 170.15216C648.6471071999998 171.16304,648.3101471999998 172.31432,647.4677471999998 173.40944C645.8671871999999 175.5716,643.2557471999999 176.75096,640.9812671999998 176.75096C639.2122271999998 176.75096,637.6959071999999 176.04896,636.9658271999998 174.61688C636.7411871999998 174.05528,636.6288671999998 173.52176,636.6288671999998 172.93208C636.6288671999998 169.87136,640.0546271999998 166.47368,643.9858271999998 166.27712"></path></g></g><g class="vf-modifiers"></g></g><g class="vf-text"><text stroke-width="0.3" fill="#000000" stroke="none" stroke-dasharray="none" font-family="Times New Roman" font-size="23px" font-weight="bold" font-style="italic" x="159.9784" y="240.5">pp</text></g><path stroke-width="1" fill="none" stroke="#000000" stroke-dasharray="none" d="M70 270.29999999999995L291.74522239999993 270.29999999999995"></path><path stroke-width="1" fill="none" stroke="#000000" stroke-dasharray="none" d="M70 280.29999999999995L291.74522239999993 280.29999999999995"></path><path stroke-width="1" fill="none" stroke="#000000" stroke-dasharray="none" d="M70 290.29999999999995L291.74522239999993 290.29999999999995"></path><path stroke-width="1" fill="none" stroke="#000000" stroke-dasharray="none" d="M70 300.29999999999995L291.74522239999993 300.29999999999995"></path><path stroke-width="1" fill="none" stroke="#000000" stroke-dasharray="none" d="M70 310.29999999999995L291.74522239999993 310.29999999999995"></path><rect stroke-width="0.3" fill="#000000" stroke="#000000" stroke-dasharray="none" x="291.74522239999993" y="269.79999999999995" width="1" height="41"></rect><g class="vf-clef"><path stroke-width="0.3" fill="#000000" stroke="none" stroke-dasharray="none" d="M75 280.29999999999995M83.8416 270.24879999999996C84.072 270.1912,84.3024 270.1912,84.5616 270.1912C85.5696 270.1912,86.7504 270.30639999999994,87.7584 270.508C92.4816 271.4872,95.736 274.68399999999997,96.3408 278.9464C96.3984 279.40719999999993,96.4272 279.83919999999995,96.4272 280.29999999999995C96.4272 282.89199999999994,95.5344 286.23279999999994,94.008 289.02639999999997C90.3792 295.59279999999995,83.7552 300.316,75.8064 302.044C75.6624 302.044,75.5472 302.0728,75.4032 302.0728C75.1152 302.0728,74.9712 301.9,74.9712 301.64079999999996C74.9712 301.35279999999995,75.0288 301.2664,75.6048 301.03599999999994C84.7056 297.6088,90.7824 290.20719999999994,91.3296 281.91279999999995C91.3584 281.48079999999993,91.3584 280.99119999999994,91.3584 280.61679999999996C91.3584 276.5848,90.12 273.58959999999996,87.7296 272.0919999999999C86.6928 271.42959999999994,85.5696 271.11279999999994,84.36 271.11279999999994C81.6816 271.11279999999994,78.9456 272.63919999999996,77.6784 275.20239999999995C77.6208 275.40399999999994,77.4192 275.83599999999996,77.4192 275.86479999999995C77.4192 275.86479999999995,77.4192 275.86479999999995,77.4192 275.86479999999995C77.4192 275.86479999999995,77.448 275.83599999999996,77.5344 275.80719999999997C78.168 275.40399999999994,78.8592 275.20239999999995,79.5792 275.20239999999995C80.5872 275.20239999999995,81.6528 275.63439999999997,82.4016 276.44079999999997C83.0928 277.1895999999999,83.4672 278.19759999999997,83.4672 279.1192C83.4672 280.99119999999994,82.0848 282.89199999999994,79.9248 283.0936C79.7808 283.0936,79.6368 283.12239999999997,79.4928 283.12239999999997C77.1024 283.12239999999997,75.1728 280.93359999999996,75.1728 278.1688C75.1728 278.11119999999994,75.1728 278.02479999999997,75.1728 277.996C75.288 273.8776,79.0608 270.508,83.8416 270.24879999999996M99.1632 274.10799999999995C99.2208 274.07919999999996,99.2496 274.07919999999996,99.336 274.07919999999996C99.5376 274.07919999999996,99.768 274.10799999999995,99.8256 274.1655999999999C100.54560000000001 274.36719999999997,100.8912 275.00079999999997,100.8912 275.6056C100.8912 276.12399999999997,100.632 276.64239999999995,100.11359999999999 276.93039999999996C99.912 277.07439999999997,99.6528 277.10319999999996,99.39359999999999 277.10319999999996C98.9904 277.10319999999996,98.5584 276.93039999999996,98.2704 276.5559999999999C98.03999999999999 276.268,97.9248 275.9512,97.9248 275.63439999999997C97.9248 274.91439999999994,98.3856 274.1944,99.1632 274.10799999999995M99.1632 283.52559999999994C99.2208 283.52559999999994,99.2496 283.52559999999994,99.336 283.52559999999994C99.5376 283.52559999999994,99.768 283.55439999999993,99.8256 283.61199999999997C100.54560000000001 283.81359999999995,100.8912 284.44719999999995,100.8912 285.05199999999996C100.8912 285.57039999999995,100.632 286.08879999999994,100.11359999999999 286.34799999999996C99.912 286.49199999999996,99.6528 286.54959999999994,99.39359999999999 286.54959999999994C98.9904 286.54959999999994,98.5584 286.34799999999996,98.2704 286.00239999999997C98.03999999999999 285.71439999999996,97.9248 285.39759999999995,97.9248 285.05199999999996C97.9248 284.33199999999994,98.3856 283.64079999999996,99.1632 283.52559999999994"></path></g><path stroke-width="0.3" fill="#000000" stroke="none" stroke-dasharray="none" d="M116 290.29999999999995M121.0112 271.95439999999996C121.04 271.9256,121.4432 271.9256,122.6816 271.9256C123.056 271.9256,123.4592 271.9256,123.9776 271.9256L126.8864 271.9256L126.9728 272.01199999999994C127.1168 272.09839999999997,127.2032 272.2424,127.2032 272.35759999999993C127.2032 272.53039999999993,127.1168 272.64559999999994,127.0016 272.76079999999996C126.9728 272.84719999999993,126.7136 273.07759999999996,126.5408 273.3367999999999L125.0144 275.0936L123.056 277.31119999999993L122.0192 278.49199999999996L120.464 280.27759999999995L118.4192 282.61039999999997C118.0736 283.04239999999993,117.6992 283.388,117.6992 283.388C117.6992 283.388,117.6992 283.388,117.6992 283.388C117.6992 283.44559999999996,117.9584 283.44559999999996,120.3488 283.44559999999996L122.9696 283.44559999999996L122.9696 281.57359999999994C122.9696 279.67279999999994,122.9696 279.64399999999995,122.9984 279.61519999999996C123.056 279.52879999999993,123.3152 279.21199999999993,124.3232 278.03119999999996L124.7264 277.59919999999994L125.1296 277.1672L125.7344 276.3896L126.368 275.7272L126.6848 275.32399999999996C126.8 275.15119999999996,126.9728 275.12239999999997,127.1168 275.12239999999997C127.28960000000001 275.12239999999997,127.4336 275.20879999999994,127.52 275.35279999999995C127.5488 275.43919999999997,127.5488 275.49679999999995,127.5488 277.62799999999993C127.5488 278.1176,127.5488 278.72239999999994,127.5488 279.44239999999996L127.5488 283.44559999999996L128.2688 283.44559999999996C128.9312 283.44559999999996,128.96 283.44559999999996,129.0464 283.47439999999995C129.2768 283.5608,129.392 283.79119999999995,129.392 284.05039999999997C129.392 284.1944,129.3632 284.36719999999997,129.248 284.4823999999999C129.0752 284.62639999999993,129.0464 284.62639999999993,128.2688 284.62639999999993L127.5488 284.62639999999993L127.5488 285.11599999999993C127.5776 286.5848,127.8656 287.16079999999994,128.9888 287.76559999999995C129.392 287.96719999999993,129.4784 288.02479999999997,129.4784 288.3128C129.4784 288.51439999999997,129.42079999999999 288.60079999999994,129.2768 288.71599999999995L129.1904 288.74479999999994L125.2448 288.74479999999994L121.328 288.74479999999994L121.2416 288.71599999999995C121.0688 288.60079999999994,121.04 288.51439999999997,121.04 288.3128C121.04 288.02479999999997,121.0688 287.96719999999993,121.5008 287.76559999999995C122.624 287.16079999999994,122.912 286.5848,122.912 285.11599999999993L122.912 284.62639999999993L119.6 284.62639999999993C118.9952 284.68399999999997,118.5056 284.68399999999997,118.1024 284.68399999999997C116.288 284.68399999999997,116.2592 284.62639999999993,116.2304 284.62639999999993C116.0576 284.56879999999995,116 284.39599999999996,116 284.1944C116 284.1944,116 284.1944,116 284.1944C116 283.99279999999993,116 283.99279999999993,116.576 283.33039999999994C118.9952 280.39279999999997,120.6944 276.13039999999995,120.6944 272.73199999999997C120.6944 272.21359999999993,120.7808 272.04079999999993,121.0112 271.95439999999996M122.7392 290.32879999999994L122.768 290.32879999999994L122.6816 290.32879999999994L122.7392 290.32879999999994M122.7392 270.91759999999994L122.768 270.91759999999994L122.6816 270.91759999999994L122.7392 270.91759999999994"></path><path stroke-width="0.3" fill="#000000" stroke="none" stroke-dasharray="none" d="M116 310.29999999999995M121.0112 291.95439999999996C121.04 291.9256,121.4432 291.9256,122.6816 291.9256C123.056 291.9256,123.4592 291.9256,123.9776 291.9256L126.8864 291.9256L126.9728 292.01199999999994C127.1168 292.09839999999997,127.2032 292.2424,127.2032 292.35759999999993C127.2032 292.53039999999993,127.1168 292.64559999999994,127.0016 292.76079999999996C126.9728 292.84719999999993,126.7136 293.07759999999996,126.5408 293.3367999999999L125.0144 295.0936L123.056 297.31119999999993L122.0192 298.49199999999996L120.464 300.27759999999995L118.4192 302.61039999999997C118.0736 303.04239999999993,117.6992 303.388,117.6992 303.388C117.6992 303.388,117.6992 303.388,117.6992 303.388C117.6992 303.44559999999996,117.9584 303.44559999999996,120.3488 303.44559999999996L122.9696 303.44559999999996L122.9696 301.57359999999994C122.9696 299.67279999999994,122.9696 299.64399999999995,122.9984 299.61519999999996C123.056 299.52879999999993,123.3152 299.21199999999993,124.3232 298.03119999999996L124.7264 297.59919999999994L125.1296 297.1672L125.7344 296.3896L126.368 295.7272L126.6848 295.32399999999996C126.8 295.15119999999996,126.9728 295.12239999999997,127.1168 295.12239999999997C127.28960000000001 295.12239999999997,127.4336 295.20879999999994,127.52 295.35279999999995C127.5488 295.43919999999997,127.5488 295.49679999999995,127.5488 297.62799999999993C127.5488 298.1176,127.5488 298.72239999999994,127.5488 299.44239999999996L127.5488 303.44559999999996L128.2688 303.44559999999996C128.9312 303.44559999999996,128.96 303.44559999999996,129.0464 303.47439999999995C129.2768 303.5608,129.392 303.79119999999995,129.392 304.05039999999997C129.392 304.1944,129.3632 304.36719999999997,129.248 304.4823999999999C129.0752 304.62639999999993,129.0464 304.62639999999993,128.2688 304.62639999999993L127.5488 304.62639999999993L127.5488 305.11599999999993C127.5776 306.5848,127.8656 307.16079999999994,128.9888 307.76559999999995C129.392 307.96719999999993,129.4784 308.02479999999997,129.4784 308.3128C129.4784 308.51439999999997,129.42079999999999 308.60079999999994,129.2768 308.71599999999995L129.1904 308.74479999999994L125.2448 308.74479999999994L121.328 308.74479999999994L121.2416 308.71599999999995C121.0688 308.60079999999994,121.04 308.51439999999997,121.04 308.3128C121.04 308.02479999999997,121.0688 307.96719999999993,121.5008 307.76559999999995C122.624 307.16079999999994,122.912 306.5848,122.912 305.11599999999993L122.912 304.62639999999993L119.6 304.62639999999993C118.9952 304.68399999999997,118.5056 304.68399999999997,118.1024 304.68399999999997C116.288 304.68399999999997,116.2592 304.62639999999993,116.2304 304.62639999999993C116.0576 304.56879999999995,116 304.39599999999996,116 304.1944C116 304.1944,116 304.1944,116 304.1944C116 303.99279999999993,116 303.99279999999993,116.576 303.33039999999994C118.9952 300.39279999999997,120.6944 296.13039999999995,120.6944 292.73199999999997C120.6944 292.21359999999993,120.7808 292.04079999999993,121.0112 291.95439999999996M122.7392 310.32879999999994L122.768 310.32879999999994L122.6816 310.32879999999994L122.7392 310.32879999999994M122.7392 290.91759999999994L122.768 290.91759999999994L122.6816 290.91759999999994L122.7392 290.91759999999994"></path><g class="vf-stavenote" id="vf-auto2935261"><g class="vf-note" pointer-events="bounding-box"><g class="vf-stem" pointer-events="bounding-box"><path stroke-width="1.5" fill="none" stroke="#000000" stroke-dasharray="none" class="vf-stem" id="vf-auto2935261-stem" d="M142.2284 275.29999999999995L142.2284 310.29999999999995"></path></g><g class="vf-notehead" pointer-events="bounding-box"><path stroke-width="0.3" fill="#000000" stroke="none" stroke-dasharray="none" d="M141.4784 275.29999999999995M148.83535999999998 270.07712C148.94768 270.07712,149.11615999999998 270.07712,149.14424 270.07712C149.14424 270.07712,149.17231999999998 270.07712,149.17231999999998 270.07712C149.17231999999998 270.07712,149.3408 270.07712,149.4812 270.07712C152.0084 270.21752,153.49663999999999 271.87423999999993,153.49663999999999 273.95215999999994C153.49663999999999 274.96304,153.15967999999998 276.11431999999996,152.31727999999998 277.20944C150.71671999999998 279.37159999999994,148.10528 280.55096,145.83079999999998 280.55096C144.06176 280.55096,142.54543999999999 279.84896,141.81536 278.41687999999994C141.59072 277.85527999999994,141.4784 277.3217599999999,141.4784 276.73207999999994C141.4784 273.67135999999994,144.90416 270.27367999999996,148.83535999999998 270.07712"></path></g></g><g class="vf-modifiers"></g></g><path stroke-width="1" fill="none" stroke="#000000" stroke-dasharray="none" d="M176.3588 260.29999999999995L194.37704 260.29999999999995"></path><g class="vf-stavenote" id="vf-auto2935269"><g class="vf-note" pointer-events="bounding-box"><g class="vf-stem" pointer-events="bounding-box"><path stroke-width="1.5" fill="none" stroke="#000000" stroke-dasharray="none" class="vf-stem" id="vf-auto2935269-stem" d="M180.1088 260.29999999999995L180.1088 295.29999999999995"></path></g><g class="vf-notehead" pointer-events="bounding-box"><path stroke-width="0.3" fill="#000000" stroke="none" stroke-dasharray="none" d="M179.3588 260.29999999999995M186.71576 255.07711999999995C186.82808 255.07711999999995,186.99656 255.07711999999995,187.02464 255.07711999999995C187.02464 255.07711999999995,187.05272 255.07711999999995,187.05272 255.07711999999995C187.05272 255.07711999999995,187.2212 255.07711999999995,187.3616 255.07711999999995C189.8888 255.21751999999995,191.37704 256.87423999999993,191.37704 258.95215999999994C191.37704 259.96304,191.04008 261.11431999999996,190.19768 262.20944C188.59712 264.37159999999994,185.98568 265.55096,183.7112 265.55096C181.94216 265.55096,180.42584 264.84896,179.69576 263.41687999999994C179.47112 262.85527999999994,179.3588 262.3217599999999,179.3588 261.73207999999994C179.3588 258.67135999999994,182.78456 255.27367999999996,186.71576 255.07711999999995"></path></g></g><g class="vf-modifiers"></g></g><g class="vf-stavenote" id="vf-auto2935277"><g class="vf-note" pointer-events="bounding-box"><g class="vf-stem" pointer-events="bounding-box"><path stroke-width="1.5" fill="none" stroke="#000000" stroke-dasharray="none" class="vf-stem" id="vf-auto2935277-stem" d="M228.50743999999997 295.29999999999995L228.50743999999997 260.29999999999995"></path></g><g class="vf-notehead" pointer-events="bounding-box"><path stroke-width="0.3" fill="#000000" stroke="none" stroke-dasharray="none" d="M217.23919999999998 295.29999999999995M224.59615999999997 290.07712C224.70847999999998 290.07712,224.87696 290.07712,224.90503999999999 290.07712C224.90503999999999 290.07712,224.93311999999997 290.07712,224.93311999999997 290.07712C224.93311999999997 290.07712,225.1016 290.07712,225.242 290.07712C227.76919999999998 290.21752,229.25743999999997 291.87423999999993,229.25743999999997 293.95215999999994C229.25743999999997 294.96304,228.92048 296.11431999999996,228.07807999999997 297.20944C226.47751999999997 299.37159999999994,223.86607999999998 300.55096,221.59159999999997 300.55096C219.82255999999998 300.55096,218.30623999999997 299.84896,217.57616 298.41687999999994C217.35152 297.85527999999994,217.23919999999998 297.3217599999999,217.23919999999998 296.73207999999994C217.23919999999998 293.67135999999994,220.66495999999998 290.27367999999996,224.59615999999997 290.07712"></path></g></g><g class="vf-modifiers"></g></g><g class="vf-stavenote" id="vf-auto2935285"><g class="vf-note" pointer-events="bounding-box"><g class="vf-stem" pointer-events="bounding-box"><path stroke-width="1.5" fill="none" stroke="#000000" stroke-dasharray="none" class="vf-stem" id="vf-auto2935285-stem" d="M266.38784 295.29999999999995L266.38784 260.29999999999995"></path></g><g class="vf-notehead" pointer-events="bounding-box"><path stroke-width="0.3" fill="#000000" stroke="none" stroke-dasharray="none" d="M255.1196 295.29999999999995M262.47656 290.07712C262.58888 290.07712,262.75736 290.07712,262.78544 290.07712C262.78544 290.07712,262.81352 290.07712,262.81352 290.07712C262.81352 290.07712,262.98199999999997 290.07712,263.12239999999997 290.07712C265.64959999999996 290.21752,267.13784 291.87423999999993,267.13784 293.95215999999994C267.13784 294.96304,266.80088 296.11431999999996,265.95848 297.20944C264.35792 299.37159999999994,261.74648 300.55096,259.472 300.55096C257.70296 300.55096,256.18664 299.84896,255.45656 298.41687999999994C255.23192 297.85527999999994,255.1196 297.3217599999999,255.1196 296.73207999999994C255.1196 293.67135999999994,258.54536 290.27367999999996,262.47656 290.07712"></path></g></g><g class="vf-modifiers"></g></g><rect stroke-width="0.3" fill="#000000" stroke="#000000" stroke-dasharray="none" x="291.74522239999993" y="166.5" width="1" height="144.79999999999995"></rect><rect stroke-width="0.3" fill="#000000" stroke="#000000" stroke-dasharray="none" x="70" y="166.5" width="1" height="144.79999999999995"></rect><path stroke-width="1" fill="none" stroke="#000000" stroke-dasharray="none" d="M291.74522239999993 270.29999999999995L435.7120447999999 270.29999999999995"></path><path stroke-width="1" fill="none" stroke="#000000" stroke-dasharray="none" d="M291.74522239999993 280.29999999999995L435.7120447999999 280.29999999999995"></path><path stroke-width="1" fill="none" stroke="#000000" stroke-dasharray="none" d="M291.74522239999993 290.29999999999995L435.7120447999999 290.29999999999995"></path><path stroke-width="1" fill="none" stroke="#000000" stroke-dasharray="none" d="M291.74522239999993 300.29999999999995L435.7120447999999 300.29999999999995"></path><path stroke-width="1" fill="none" stroke="#000000" stroke-dasharray="none" d="M291.74522239999993 310.29999999999995L435.7120447999999 310.29999999999995"></path><rect stroke-width="0.3" fill="#000000" stroke="#000000" stroke-dasharray="none" x="435.7120447999999" y="269.79999999999995" width="1" height="41"></rect><g class="vf-stavenote" id="vf-auto2935305"><g class="vf-note" pointer-events="bounding-box"><g class="vf-stem" pointer-events="bounding-box"><path stroke-width="1.5" fill="none" stroke="#000000" stroke-dasharray="none" class="vf-stem" id="vf-auto2935305-stem" d="M309.49522239999993 285.29999999999995L309.49522239999993 320.29999999999995"></path></g><g class="vf-notehead" pointer-events="bounding-box"><path stroke-width="0.3" fill="#000000" stroke="none" stroke-dasharray="none" d="M308.74522239999993 285.29999999999995M316.10218239999995 280.07712C316.21450239999996 280.07712,316.38298239999995 280.07712,316.41106239999993 280.07712C316.41106239999993 280.07712,316.4391423999999 280.07712,316.4391423999999 280.07712C316.4391423999999 280.07712,316.6076223999999 280.07712,316.7480223999999 280.07712C319.27522239999996 280.21752,320.7634623999999 281.87423999999993,320.7634623999999 283.95215999999994C320.7634623999999 284.96304,320.42650239999995 286.11431999999996,319.58410239999995 287.20944C317.9835423999999 289.37159999999994,315.3721023999999 290.55096,313.0976223999999 290.55096C311.32858239999996 290.55096,309.81226239999995 289.84896,309.0821823999999 288.41687999999994C308.85754239999994 287.85527999999994,308.74522239999993 287.3217599999999,308.74522239999993 286.73207999999994C308.74522239999993 283.67135999999994,312.17098239999996 280.27367999999996,316.10218239999995 280.07712"></path></g></g><g class="vf-modifiers"></g></g><g class="vf-stavenote" id="vf-auto2935313"><g class="vf-note" pointer-events="bounding-box"><g class="vf-stem" pointer-events="bounding-box"><path stroke-width="1.5" fill="none" stroke="#000000" stroke-dasharray="none" class="vf-stem" id="vf-auto2935313-stem" d="M384.0134623999999 295.29999999999995L384.0134623999999 260.29999999999995"></path></g><g class="vf-notehead" pointer-events="bounding-box"><path stroke-width="0.3" fill="#000000" stroke="none" stroke-dasharray="none" d="M372.74522239999993 295.29999999999995M380.10218239999995 290.07712C380.21450239999996 290.07712,380.38298239999995 290.07712,380.41106239999993 290.07712C380.41106239999993 290.07712,380.4391423999999 290.07712,380.4391423999999 290.07712C380.4391423999999 290.07712,380.6076223999999 290.07712,380.7480223999999 290.07712C383.27522239999996 290.21752,384.7634623999999 291.87423999999993,384.7634623999999 293.95215999999994C384.7634623999999 294.96304,384.42650239999995 296.11431999999996,383.58410239999995 297.20944C381.9835423999999 299.37159999999994,379.3721023999999 300.55096,377.0976223999999 300.55096C375.32858239999996 300.55096,373.81226239999995 299.84896,373.0821823999999 298.41687999999994C372.85754239999994 297.85527999999994,372.74522239999993 297.3217599999999,372.74522239999993 296.73207999999994C372.74522239999993 293.67135999999994,376.17098239999996 290.27367999999996,380.10218239999995 290.07712"></path></g></g><g class="vf-modifiers"></g></g><g class="vf-stavenote" id="vf-auto2935321"><g class="vf-note" pointer-events="bounding-box"><g class="vf-stem" pointer-events="bounding-box"><path stroke-width="1.5" fill="none" stroke="#000000" stroke-dasharray="none" class="vf-stem" id="vf-auto2935321-stem" d="M405.49522239999993 270.29999999999995L405.49522239999993 305.29999999999995"></path></g><g class="vf-notehead" pointer-events="bounding-box"><path stroke-width="0.3" fill="#000000" stroke="none" stroke-dasharray="none" d="M404.74522239999993 270.29999999999995M412.10218239999995 265.07712C412.21450239999996 265.07712,412.38298239999995 265.07712,412.41106239999993 265.07712C412.41106239999993 265.07712,412.4391423999999 265.07712,412.4391423999999 265.07712C412.4391423999999 265.07712,412.6076223999999 265.07712,412.7480223999999 265.07712C415.27522239999996 265.21752,416.7634623999999 266.87423999999993,416.7634623999999 268.95215999999994C416.7634623999999 269.96304,416.42650239999995 271.11431999999996,415.58410239999995 272.20944C413.9835423999999 274.37159999999994,411.3721023999999 275.55096,409.0976223999999 275.55096C407.32858239999996 275.55096,405.81226239999995 274.84896,405.0821823999999 273.41687999999994C404.85754239999994 272.85527999999994,404.74522239999993 272.3217599999999,404.74522239999993 271.73207999999994C404.74522239999993 268.67135999999994,408.17098239999996 265.27367999999996,412.10218239999995 265.07712"></path></g></g><g class="vf-modifiers"></g></g><rect stroke-width="0.3" fill="#000000" stroke="#000000" stroke-dasharray="none" x="435.7120447999999" y="166.5" width="1" height="144.79999999999995"></rect><path stroke-width="1" fill="none" stroke="#000000" stroke-dasharray="none" d="M435.71204479999994 270.29999999999995L583.8788671999998 270.29999999999995"></path><path stroke-width="1" fill="none" stroke="#000000" stroke-dasharray="none" d="M435.71204479999994 280.29999999999995L583.8788671999998 280.29999999999995"></path><path stroke-width="1" fill="none" stroke="#000000" stroke-dasharray="none" d="M435.71204479999994 290.29999999999995L583.8788671999998 290.29999999999995"></path><path stroke-width="1" fill="none" stroke="#000000" stroke-dasharray="none" d="M435.71204479999994 300.29999999999995L583.8788671999998 300.29999999999995"></path><path stroke-width="1" fill="none" stroke="#000000" stroke-dasharray="none" d="M435.71204479999994 310.29999999999995L583.8788671999998 310.29999999999995"></path><rect stroke-width="0.3" fill="#000000" stroke="#000000" stroke-dasharray="none" x="583.8788671999998" y="269.79999999999995" width="1" height="41"></rect><g class="vf-stavenote" id="vf-auto2935349"><g class="vf-note" pointer-events="bounding-box"><g class="vf-stem" pointer-events="bounding-box"><path stroke-width="1.5" fill="none" stroke="#000000" stroke-dasharray="none" class="vf-stem" id="vf-auto2935349-stem" d="M463.98028479999994 290.29999999999995L463.98028479999994 255.29999999999995"></path></g><g class="vf-notehead" pointer-events="bounding-box"><path stroke-width="0.3" fill="#000000" stroke="none" stroke-dasharray="none" d="M452.71204479999994 290.29999999999995M460.06900479999996 285.07712C460.18132479999997 285.07712,460.34980479999996 285.07712,460.37788479999995 285.07712C460.37788479999995 285.07712,460.40596479999994 285.07712,460.40596479999994 285.07712C460.40596479999994 285.07712,460.5744447999999 285.07712,460.7148447999999 285.07712C463.2420447999999 285.21752,464.73028479999994 286.87423999999993,464.73028479999994 288.95215999999994C464.73028479999994 289.96304,464.39332479999996 291.11431999999996,463.55092479999996 292.20944C461.95036479999993 294.37159999999994,459.3389248 295.55096,457.06444479999993 295.55096C455.2954048 295.55096,453.77908479999996 294.84896,453.0490047999999 293.41687999999994C452.82436479999996 292.85527999999994,452.71204479999994 292.3217599999999,452.71204479999994 291.73207999999994C452.71204479999994 288.67135999999994,456.13780479999997 285.27367999999996,460.06900479999996 285.07712"></path></g></g><g class="vf-modifiers"></g></g><g class="vf-stavenote" id="vf-auto2935357"><g class="vf-note" pointer-events="bounding-box"><g class="vf-stem" pointer-events="bounding-box"><path stroke-width="1.5" fill="none" stroke="#000000" stroke-dasharray="none" class="vf-stem" id="vf-auto2935357-stem" d="M497.23028479999994 290.29999999999995L497.23028479999994 255.29999999999995"></path></g><g class="vf-notehead" pointer-events="bounding-box"><path stroke-width="0.3" fill="#000000" stroke="none" stroke-dasharray="none" d="M485.96204479999994 290.29999999999995M493.31900479999996 285.07712C493.43132479999997 285.07712,493.59980479999996 285.07712,493.62788479999995 285.07712C493.62788479999995 285.07712,493.65596479999994 285.07712,493.65596479999994 285.07712C493.65596479999994 285.07712,493.8244447999999 285.07712,493.9648447999999 285.07712C496.4920447999999 285.21752,497.98028479999994 286.87423999999993,497.98028479999994 288.95215999999994C497.98028479999994 289.96304,497.64332479999996 291.11431999999996,496.80092479999996 292.20944C495.20036479999993 294.37159999999994,492.5889248 295.55096,490.31444479999993 295.55096C488.5454048 295.55096,487.02908479999996 294.84896,486.2990047999999 293.41687999999994C486.07436479999996 292.85527999999994,485.96204479999994 292.3217599999999,485.96204479999994 291.73207999999994C485.96204479999994 288.67135999999994,489.38780479999997 285.27367999999996,493.31900479999996 285.07712"></path></g></g><g class="vf-modifiers"></g></g><rect stroke-width="0.3" fill="#000000" stroke="#000000" stroke-dasharray="none" x="583.8788671999998" y="166.5" width="1" height="144.79999999999995"></rect><path stroke-width="1" fill="none" stroke="#000000" stroke-dasharray="none" d="M583.8788671999998 270.29999999999995L742.0456895999998 270.29999999999995"></path><path stroke-width="1" fill="none" stroke="#000000" stroke-dasharray="none" d="M583.8788671999998 280.29999999999995L742.0456895999998 280.29999999999995"></path><path stroke-width="1" fill="none" stroke="#000000" stroke-dasharray="none" d="M583.8788671999998 290.29999999999995L742.0456895999998 290.29999999999995"></path><path stroke-width="1" fill="none" stroke="#000000" stroke-dasharray="none" d="M583.8788671999998 300.29999999999995L742.0456895999998 300.29999999999995"></path><path stroke-width="1" fill="none" stroke="#000000" stroke-dasharray="none" d="M583.8788671999998 310.29999999999995L742.0456895999998 310.29999999999995"></path><rect stroke-width="0.3" fill="#000000" stroke="#000000" stroke-dasharray="none" x="737.0456895999998" y="269.79999999999995" width="1" height="41"></rect><rect stroke-width="0.3" fill="#000000" stroke="#000000" stroke-dasharray="none" x="740.0456895999998" y="269.79999999999995" width="3" height="41"></rect><path stroke-width="0.3" fill="#000000" stroke="none" stroke-dasharray="none" d="M736.0456895999998 285.79999999999995 A2 2 0 0 0 732.0456895999998 285.79999999999995M732.0456895999998 285.79999999999995 A2 2 0 0 0 736.0456895999998 285.79999999999995"></path><path stroke-width="0.3" fill="#000000" stroke="none" stroke-dasharray="none" d="M736.0456895999998 295.79999999999995 A2 2 0 0 0 732.0456895999998 295.79999999999995M732.0456895999998 295.79999999999995 A2 2 0 0 0 736.0456895999998 295.79999999999995"></path><g class="vf-stavenote" id="vf-auto2935385"><g class="vf-note" pointer-events="bounding-box"><g class="vf-stem" pointer-events="bounding-box"><path stroke-width="1.5" fill="none" stroke="#000000" stroke-dasharray="none" class="vf-stem" id="vf-auto2935385-stem" d="M683.6471071999998 305.29999999999995L683.6471071999998 270.29999999999995"></path></g><g class="vf-notehead" pointer-events="bounding-box"><path stroke-width="0.3" fill="#000000" stroke="none" stroke-dasharray="none" d="M672.3788671999998 305.29999999999995M679.7358271999998 300.07712C679.8481471999999 300.07712,680.0166271999998 300.07712,680.0447071999998 300.07712C680.0447071999998 300.07712,680.0727871999999 300.07712,680.0727871999999 300.07712C680.0727871999999 300.07712,680.2412671999998 300.07712,680.3816671999998 300.07712C682.9088671999998 300.21752,684.3971071999998 301.87423999999993,684.3971071999998 303.95215999999994C684.3971071999998 304.96304,684.0601471999998 306.11431999999996,683.2177471999998 307.20944C681.6171871999999 309.37159999999994,679.0057471999999 310.55096,676.7312671999998 310.55096C674.9622271999998 310.55096,673.4459071999999 309.84896,672.7158271999998 308.41687999999994C672.4911871999998 307.85527999999994,672.3788671999998 307.3217599999999,672.3788671999998 306.73207999999994C672.3788671999998 303.67135999999994,675.8046271999998 300.27367999999996,679.7358271999998 300.07712"></path></g></g><g class="vf-modifiers"></g></g><path stroke-width="1" fill="none" stroke="#000000" stroke-dasharray="none" d="M705.1288671999998 260.29999999999995L723.1471071999998 260.29999999999995"></path><g class="vf-stavenote" id="vf-auto2935393"><g class="vf-note" pointer-events="bounding-box"><g class="vf-stem" pointer-events="bounding-box"><path stroke-width="1.5" fill="none" stroke="#000000" stroke-dasharray="none" class="vf-stem" id="vf-auto2935393-stem" d="M708.8788671999998 260.29999999999995L708.8788671999998 295.29999999999995"></path></g><g class="vf-notehead" pointer-events="bounding-box"><path stroke-width="0.3" fill="#000000" stroke="none" stroke-dasharray="none" d="M708.1288671999998 260.29999999999995M715.4858271999998 255.07711999999995C715.5981471999999 255.07711999999995,715.7666271999998 255.07711999999995,715.7947071999998 255.07711999999995C715.7947071999998 255.07711999999995,715.8227871999999 255.07711999999995,715.8227871999999 255.07711999999995C715.8227871999999 255.07711999999995,715.9912671999998 255.07711999999995,716.1316671999998 255.07711999999995C718.6588671999998 255.21751999999995,720.1471071999998 256.87423999999993,720.1471071999998 258.95215999999994C720.1471071999998 259.96304,719.8101471999998 261.11431999999996,718.9677471999998 262.20944C717.3671871999999 264.37159999999994,714.7557471999999 265.55096,712.4812671999998 265.55096C710.7122271999998 265.55096,709.1959071999999 264.84896,708.4658271999998 263.41687999999994C708.2411871999998 262.85527999999994,708.1288671999998 262.3217599999999,708.1288671999998 261.73207999999994C708.1288671999998 258.67135999999994,711.5546271999998 255.27367999999996,715.4858271999998 255.07711999999995"></path></g></g><g class="vf-modifiers"></g></g><rect stroke-width="0.3" fill="#000000" stroke="#000000" stroke-dasharray="none" x="737.0456895999998" y="166.5" width="1" height="144.79999999999995"></rect><rect stroke-width="0.3" fill="#000000" stroke="#000000" stroke-dasharray="none" x="740.0456895999998" y="166.5" width="3" height="144.79999999999995"></rect><path stroke-width="0.3" fill="#000000" stroke="none" stroke-dasharray="none" d="M68 166.5C45.2 195.45999999999998,81.2 219.35199999999998,56 238.89999999999998C81.2 258.448,45.2 282.34,68 311.29999999999995C44 282.34,72.8 258.448,56 238.89999999999998C72.8 219.35199999999998,44 195.45999999999998,68 166.5"></path><path stroke-width="1" fill="none" stroke="#000000" stroke-dasharray="none" d="M68 166.5C45.2 195.45999999999998,81.2 219.35199999999998,56 238.89999999999998C81.2 258.448,45.2 282.34,68 311.29999999999995C44 282.34,72.8 258.448,56 238.89999999999998C72.8 219.35199999999998,44 195.45999999999998,68 166.5"></path><g class="vf-text"><text stroke-width="0.3" fill="#000000" stroke="none" stroke-dasharray="none" font-family="Times New Roman" font-size="15px" font-weight="normal" font-style="normal" x="432.2120447999999" y="163.5">3</text></g></svg>