<svg xmlns="http://www.w3.org/2000/svg"  width="1280" height="395.79999999999995" viewBox="0 0 1280 395.79999999999995"><path stroke-width="1" fill="none" stroke="#000000" stroke-dasharray="none" d="M70 166.5L300.14522239999997 166.5"></path><path stroke-width="1" fill="none" stroke="#000000" stroke-dasharray="none" d="M70 176.5L300.14522239999997 176.5"></path><path stroke-width="1" fill="none" stroke="#000000" stroke-dasharray="none" d="M70 186.5L300.14522239999997 186.5"></path><path stroke-width="1" fill="none" stroke="#000000" stroke-dasharray="none" d="M70 196.5L300.14522239999997 196.5"></path><path stroke-width="1" fill="none" stroke="#000000" stroke-dasharray="none" d="M70 206.5L300.14522239999997 206.5"></path><rect stroke-width="0.3" fill="#000000" stroke="#000000" stroke-dasharray="none" x="300.14522239999997" y="166" width="1" height="41"></rect><g class="vf-clef"><path stroke-width="0.3" fill="#000000" stroke="none" stroke-dasharray="none" d="M75 196.5M89.0544 153.3288C89.112 153.3,89.1696 153.3,89.256 153.3C89.6016 153.3,90.0048 153.588,90.5808 154.308C92.9136 156.9864,94.5552 161.652,94.5552 165.4536C94.5552 165.7416,94.4976 165.972,94.4976 166.26C94.2384 170.7816,92.3952 174.4968,88.7376 178.0104L87.7584 178.9608L87.4128 179.3352L87.4128 179.4504L87.6144 180.3144L87.9312 181.8696L88.248 183.3096C88.68 185.268,88.8528 186.276,88.8528 186.276C88.8528 186.276,88.8528 186.276,88.8528 186.276C88.8528 186.276,88.968 186.276,89.112 186.2472C89.256 186.2472,89.7168 186.1896,90.2064 186.1896C90.55199999999999 186.1896,90.8976 186.2472,91.0704 186.2472C95.1312 186.7656,98.2704 189.6744,99.1632 193.764C99.336 194.4264,99.39359999999999 195.1464,99.39359999999999 195.8664C99.39359999999999 199.7544,97.0608 203.4696,93.1728 205.2264C92.94239999999999 205.3704,92.856 205.3992,92.856 205.3992L92.856 205.428C92.856 205.428,93.0288 206.0904,93.1728 206.8392L93.6048 209.028L94.008 210.7848C94.2384 211.908,94.3536 212.7144,94.3536 213.4344C94.3536 214.06799999999998,94.2672 214.644,94.1232 215.3064C93.144 219.3096,89.6592 221.7,86.0304 221.7C84.2448 221.7,82.4016 221.124,80.7888 219.828C79.3488 218.6184,78.7152 217.524,78.7152 216.084C78.7152 213.5496,80.76 211.764,82.8912 211.764C83.64 211.764,84.3888 211.99439999999998,85.1088 212.4264C86.3184 213.2616,86.8656 214.5288,86.8656 215.7672C86.8656 217.668,85.5408 219.54,83.2656 219.684L83.0352 219.684L83.208 219.79919999999998C84.1584 220.2024,85.1088 220.404,86.0304 220.404C88.3632 220.404,90.55199999999999 219.2232,91.8768 217.1784C92.62559999999999 216.0264,93.0288 214.6728,93.0288 213.3192C93.0288 212.8008,92.94239999999999 212.2824,92.8272 211.7064C92.8272 211.6488,92.74080000000001 211.188,92.62559999999999 210.756C91.992 207.6456,91.6176 205.8312,91.6176 205.8312C91.6176 205.8312,91.6176 205.8312,91.6176 205.8312C91.56 205.8312,91.4448 205.8312,91.3584 205.8888C91.0704 205.9464,90.4656 206.0904,90.2064 206.1192C89.5728 206.2056,88.968 206.2344,88.392 206.2344C82.74719999999999 206.2344,77.5056 202.4328,75.6912 196.8168C75.2304 195.3192,74.9712 193.8216,74.9712 192.324C74.9712 189.3288,75.9216 186.3912,77.7648 183.7704C79.7808 180.9192,81.7968 178.4712,84.2736 175.9368L85.13759999999999 175.044L84.936 173.9784L84.5616 172.2216L84.072 169.9752C83.928 169.14,83.7552 168.3336,83.7264 168.1608C83.5824 167.2104,83.496 166.2888,83.496 165.3384C83.496 161.7096,84.6768 158.22480000000002,86.8944 155.4312C87.5568 154.5672,88.7376 153.4152,89.0544 153.3288M90.8112 159.0312C90.7536 159.0312,90.6672 159.0312,90.5808 159.0312C89.4 159.0312,87.8736 160.1256,86.8368 161.7384C85.7712 163.32240000000002,85.224 165.4248,85.224 167.5848C85.224 168.1608,85.25280000000001 168.7656,85.3392 169.3704C85.4256 169.8024,85.45439999999999 170.0904,85.6848 171.12720000000002L86.088 172.9416C86.2032 173.4888,86.28960000000001 173.92079999999999,86.28960000000001 173.9784L86.28960000000001 173.9784C86.3184 173.9784,87.2112 172.9992,87.4992 172.6536C90.3792 169.3992,92.1072 165.972,92.4816 162.948C92.5104 162.66,92.5104 162.4296,92.5104 162.1416C92.5104 161.24880000000002,92.3952 160.38479999999998,92.1936 159.924C91.9632 159.4632,91.4448 159.0888,90.8112 159.0312M86.4624 181.2936C86.4048 180.8904,86.3184 180.5736,86.3184 180.516C86.3184 180.516,86.3184 180.516,86.28960000000001 180.516C86.232 180.516,84.9936 181.956,84.1296 182.964C82.6608 184.7496,81.1056 186.8808,80.472 187.9176C79.2624 189.9624,78.6576 192.2376,78.6576 194.484C78.6576 195.9528,78.9456 197.364,79.464 198.7176C81.0192 202.7208,84.5904 205.2264,88.4784 205.2264C88.9392 205.2264,89.4576 205.1976,89.9472 205.1112C90.5808 204.996,91.3584 204.7656,91.3584 204.6792L91.3584 204.6792C91.3584 204.6792,91.3008 204.3912,91.2144 204.0744L90.3792 199.956L89.7168 196.8744L89.2848 194.7432L88.824 192.6696C88.5936 191.4312,88.5072 191.1144,88.5072 191.1144C88.5072 191.1144,88.5072 191.0856,88.4784 191.0856C88.3056 191.0856,87.384 191.5464,86.9808 191.8344C85.4832 192.8712,84.7056 194.5128,84.7056 196.1256C84.7056 197.652,85.45439999999999 199.1784,86.8944 200.0712C87.2112 200.2728,87.3264 200.4456,87.3264 200.6472C87.3264 200.676,87.3264 200.7624,87.3264 200.7912C87.2688 201.1368,87.0672 201.2808,86.7792 201.2808C86.664 201.2808,86.52 201.252,86.3472 201.1656C83.6976 200.0136,81.912 197.2776,81.912 194.2824L81.912 194.2824C81.912 190.8264,84.072 187.8312,87.384 186.6504L87.5568 186.5928L87.2688 185.1528L86.4624 181.2936M90.7824 190.9128C90.55199999999999 190.88400000000001,90.3216 190.88400000000001,90.1488 190.88400000000001C90.0912 190.88400000000001,90.0048 190.88400000000001,89.9472 190.88400000000001L89.8032 190.88400000000001L89.9184 191.4024L90.5232 194.2248L90.8976 196.068L91.3008 197.8824L92.1072 201.8856L92.424 203.412C92.5392 203.8152,92.5968 204.1608,92.62559999999999 204.1608C92.62559999999999 204.1608,92.62559999999999 204.1608,92.62559999999999 204.1608C92.6544 204.1608,93.144 203.8728,93.4608 203.6424C94.9296 202.6056,96.024 200.9928,96.4272 199.3224C96.5712 198.7752,96.6288 198.1992,96.6288 197.652C96.6288 194.3112,94.152 191.2872,90.7824 190.9128"></path></g><path stroke-width="0.3" fill="#000000" stroke="none" stroke-dasharray="none" d="M116 186.5M121.0112 168.1544C121.04 168.1256,121.4432 168.1256,122.6816 168.1256C123.056 168.1256,123.4592 168.1256,123.9776 168.1256L126.8864 168.1256L126.9728 168.212C127.1168 168.29840000000002,127.2032 168.4424,127.2032 168.5576C127.2032 168.7304,127.1168 168.8456,127.0016 168.9608C126.9728 169.0472,126.7136 169.2776,126.5408 169.5368L125.0144 171.2936L123.056 173.5112L122.0192 174.692L120.464 176.4776L118.4192 178.8104C118.0736 179.2424,117.6992 179.588,117.6992 179.588C117.6992 179.588,117.6992 179.588,117.6992 179.588C117.6992 179.6456,117.9584 179.6456,120.3488 179.6456L122.9696 179.6456L122.9696 177.7736C122.9696 175.8728,122.9696 175.844,122.9984 175.8152C123.056 175.7288,123.3152 175.412,124.3232 174.2312L124.7264 173.7992L125.1296 173.3672L125.7344 172.5896L126.368 171.9272L126.6848 171.524C126.8 171.3512,126.9728 171.3224,127.1168 171.3224C127.28960000000001 171.3224,127.4336 171.4088,127.52 171.5528C127.5488 171.6392,127.5488 171.6968,127.5488 173.828C127.5488 174.3176,127.5488 174.9224,127.5488 175.6424L127.5488 179.6456L128.2688 179.6456C128.9312 179.6456,128.96 179.6456,129.0464 179.6744C129.2768 179.7608,129.392 179.9912,129.392 180.2504C129.392 180.3944,129.3632 180.5672,129.248 180.6824C129.0752 180.8264,129.0464 180.8264,128.2688 180.8264L127.5488 180.8264L127.5488 181.316C127.5776 182.7848,127.8656 183.3608,128.9888 183.9656C129.392 184.1672,129.4784 184.2248,129.4784 184.5128C129.4784 184.7144,129.42079999999999 184.8008,129.2768 184.916L129.1904 184.9448L125.2448 184.9448L121.328 184.9448L121.2416 184.916C121.0688 184.8008,121.04 184.7144,121.04 184.5128C121.04 184.2248,121.0688 184.1672,121.5008 183.9656C122.624 183.3608,122.912 182.7848,122.912 181.316L122.912 180.8264L119.6 180.8264C118.9952 180.88400000000001,118.5056 180.88400000000001,118.1024 180.88400000000001C116.288 180.88400000000001,116.2592 180.8264,116.2304 180.8264C116.0576 180.7688,116 180.596,116 180.3944C116 180.3944,116 180.3944,116 180.3944C116 180.1928,116 180.1928,116.576 179.5304C118.9952 176.5928,120.6944 172.3304,120.6944 168.93200000000002C120.6944 168.4136,120.7808 168.2408,121.0112 168.1544M122.7392 186.5288L122.768 186.5288L122.6816 186.5288L122.7392 186.5288M122.7392 167.1176L122.768 167.1176L122.6816 167.1176L122.7392 167.1176"></path><path stroke-width="0.3" fill="#000000" stroke="none" stroke-dasharray="none" d="M116 206.5M121.0112 188.1544C121.04 188.1256,121.4432 188.1256,122.6816 188.1256C123.056 188.1256,123.4592 188.1256,123.9776 188.1256L126.8864 188.1256L126.9728 188.212C127.1168 188.29840000000002,127.2032 188.4424,127.2032 188.5576C127.2032 188.7304,127.1168 188.8456,127.0016 188.9608C126.9728 189.0472,126.7136 189.2776,126.5408 189.5368L125.0144 191.2936L123.056 193.5112L122.0192 194.692L120.464 196.4776L118.4192 198.8104C118.0736 199.2424,117.6992 199.588,117.6992 199.588C117.6992 199.588,117.6992 199.588,117.6992 199.588C117.6992 199.6456,117.9584 199.6456,120.3488 199.6456L122.9696 199.6456L122.9696 197.7736C122.9696 195.8728,122.9696 195.844,122.9984 195.8152C123.056 195.7288,123.3152 195.412,124.3232 194.2312L124.7264 193.7992L125.1296 193.3672L125.7344 192.5896L126.368 191.9272L126.6848 191.524C126.8 191.3512,126.9728 191.3224,127.1168 191.3224C127.28960000000001 191.3224,127.4336 191.4088,127.52 191.5528C127.5488 191.6392,127.5488 191.6968,127.5488 193.828C127.5488 194.3176,127.5488 194.9224,127.5488 195.6424L127.5488 199.6456L128.2688 199.6456C128.9312 199.6456,128.96 199.6456,129.0464 199.6744C129.2768 199.7608,129.392 199.9912,129.392 200.2504C129.392 200.3944,129.3632 200.5672,129.248 200.6824C129.0752 200.8264,129.0464 200.8264,128.2688 200.8264L127.5488 200.8264L127.5488 201.316C127.5776 202.7848,127.8656 203.3608,128.9888 203.9656C129.392 204.1672,129.4784 204.2248,129.4784 204.5128C129.4784 204.7144,129.42079999999999 204.8008,129.2768 204.916L129.1904 204.9448L125.2448 204.9448L121.328 204.9448L121.2416 204.916C121.0688 204.8008,121.04 204.7144,121.04 204.5128C121.04 204.2248,121.0688 204.1672,121.5008 203.9656C122.624 203.3608,122.912 202.7848,122.912 201.316L122.912 200.8264L119.6 200.8264C118.9952 200.88400000000001,118.5056 200.88400000000001,118.1024 200.88400000000001C116.288 200.88400000000001,116.2592 200.8264,116.2304 200.8264C116.0576 200.7688,116 200.596,116 200.3944C116 200.3944,116 200.3944,116 200.3944C116 200.1928,116 200.1928,116.576 199.5304C118.9952 196.5928,120.6944 192.3304,120.6944 188.93200000000002C120.6944 188.4136,120.7808 188.2408,121.0112 188.1544M122.7392 206.5288L122.768 206.5288L122.6816 206.5288L122.7392 206.5288M122.7392 187.1176L122.768 187.1176L122.6816 187.1176L122.7392 187.1176"></path><g class="vf-stavenote" id="vf-auto906244"><g class="vf-note" pointer-events="bounding-box"><g class="vf-stem" pointer-events="bounding-box"><path stroke-width="1.5" fill="none" stroke="#000000" stroke-dasharray="none" class="vf-stem" id="vf-auto906244-stem" d="M222.48919999999998 186.5L222.48919999999998 221.5"></path></g><g class="vf-notehead" pointer-events="bounding-box"><path stroke-width="0.3" fill="#000000" stroke="none" stroke-dasharray="none" d="M221.73919999999998 186.5M229.09615999999997 181.27712C229.20847999999998 181.27712,229.37696 181.27712,229.40503999999999 181.27712C229.40503999999999 181.27712,229.43311999999997 181.27712,229.43311999999997 181.27712C229.43311999999997 181.27712,229.6016 181.27712,229.742 181.27712C232.26919999999998 181.41752,233.75743999999997 183.07424,233.75743999999997 185.15216C233.75743999999997 186.16304,233.42048 187.31432,232.57807999999997 188.40944C230.97751999999997 190.5716,228.36607999999998 191.75096,226.09159999999997 191.75096C224.32255999999998 191.75096,222.80623999999997 191.04896,222.07616 189.61688C221.85152 189.05528,221.73919999999998 188.52176,221.73919999999998 187.93208C221.73919999999998 184.87136,225.16495999999998 181.47368,229.09615999999997 181.27712"></path></g></g><g class="vf-modifiers"></g></g><g class="vf-stavenote" id="vf-auto906252"><g class="vf-note" pointer-events="bounding-box"><g class="vf-stem" pointer-events="bounding-box"><path stroke-width="1.5" fill="none" stroke="#000000" stroke-dasharray="none" class="vf-stem" id="vf-auto906252-stem" d="M273.13784 201.5L273.13784 166.5"></path></g><g class="vf-notehead" pointer-events="bounding-box"><path stroke-width="0.3" fill="#000000" stroke="none" stroke-dasharray="none" d="M261.8696 201.5M269.22656 196.27712C269.33888 196.27712,269.50736 196.27712,269.53544 196.27712C269.53544 196.27712,269.56352 196.27712,269.56352 196.27712C269.56352 196.27712,269.73199999999997 196.27712,269.87239999999997 196.27712C272.39959999999996 196.41752,273.88784 198.07424,273.88784 200.15216C273.88784 201.16304,273.55088 202.31432,272.70848 203.40944C271.10792 205.5716,268.49648 206.75096,266.222 206.75096C264.45296 206.75096,262.93664 206.04896,262.20655999999997 204.61688C261.98192 204.05528,261.8696 203.52176,261.8696 202.93208C261.8696 199.87136,265.29536 196.47368,269.22656 196.27712"></path></g></g><g class="vf-modifiers"></g></g><path stroke-width="1" fill="none" stroke="#000000" stroke-dasharray="none" d="M300.14522239999997 166.5L448.3120447999999 166.5"></path><path stroke-width="1" fill="none" stroke="#000000" stroke-dasharray="none" d="M300.14522239999997 176.5L448.3120447999999 176.5"></path><path stroke-width="1" fill="none" stroke="#000000" stroke-dasharray="none" d="M300.14522239999997 186.5L448.3120447999999 186.5"></path><path stroke-width="1" fill="none" stroke="#000000" stroke-dasharray="none" d="M300.14522239999997 196.5L448.3120447999999 196.5"></path><path stroke-width="1" fill="none" stroke="#000000" stroke-dasharray="none" d="M300.14522239999997 206.5L448.3120447999999 206.5"></path><rect stroke-width="0.3" fill="#000000" stroke="#000000" stroke-dasharray="none" x="448.3120447999999" y="166" width="1" height="41"></rect><g class="vf-stavenote" id="vf-auto906280"><g class="vf-note" pointer-events="bounding-box"><g class="vf-stem" pointer-events="bounding-box"><path stroke-width="1.5" fill="none" stroke="#000000" stroke-dasharray="none" class="vf-stem" id="vf-auto906280-stem" d="M384.39522239999997 176.5L384.39522239999997 211.5"></path></g><g class="vf-notehead" pointer-events="bounding-box"><path stroke-width="0.3" fill="#000000" stroke="none" stroke-dasharray="none" d="M383.64522239999997 176.5M391.0021824 171.27712C391.1145024 171.27712,391.2829824 171.27712,391.31106239999997 171.27712C391.31106239999997 171.27712,391.33914239999996 171.27712,391.33914239999996 171.27712C391.33914239999996 171.27712,391.50762239999995 171.27712,391.64802239999995 171.27712C394.17522239999994 171.41752,395.66346239999996 173.07424,395.66346239999996 175.15216C395.66346239999996 176.16304,395.3265024 177.31432,394.4841024 178.40944C392.88354239999995 180.5716,390.2721024 181.75096,387.99762239999995 181.75096C386.2285824 181.75096,384.7122624 181.04896,383.98218239999994 179.61688C383.7575424 179.05528,383.64522239999997 178.52176,383.64522239999997 177.93208C383.64522239999997 174.87136,387.0709824 171.47368,391.0021824 171.27712"></path></g></g><g class="vf-modifiers"></g></g><path stroke-width="1" fill="none" stroke="#000000" stroke-dasharray="none" d="M413.89522239999997 216.5L431.91346239999996 216.5"></path><g class="vf-stavenote" id="vf-auto906288"><g class="vf-note" pointer-events="bounding-box"><g class="vf-stem" pointer-events="bounding-box"><path stroke-width="1.5" fill="none" stroke="#000000" stroke-dasharray="none" class="vf-stem" id="vf-auto906288-stem" d="M428.16346239999996 216.5L428.16346239999996 181.5"></path></g><g class="vf-notehead" pointer-events="bounding-box"><path stroke-width="0.3" fill="#000000" stroke="none" stroke-dasharray="none" d="M416.89522239999997 216.5M424.2521824 211.27712C424.3645024 211.27712,424.5329824 211.27712,424.56106239999997 211.27712C424.56106239999997 211.27712,424.58914239999996 211.27712,424.58914239999996 211.27712C424.58914239999996 211.27712,424.75762239999995 211.27712,424.89802239999995 211.27712C427.42522239999994 211.41752,428.91346239999996 213.07424,428.91346239999996 215.15216C428.91346239999996 216.16304,428.5765024 217.31432,427.7341024 218.40944C426.13354239999995 220.5716,423.5221024 221.75096,421.24762239999995 221.75096C419.4785824 221.75096,417.9622624 221.04896,417.23218239999994 219.61688C417.0075424 219.05528,416.89522239999997 218.52176,416.89522239999997 217.93208C416.89522239999997 214.87136,420.3209824 211.47368,424.2521824 211.27712"></path></g></g><g class="vf-modifiers"></g></g><path stroke-width="1" fill="none" stroke="#000000" stroke-dasharray="none" d="M448.3120447999999 166.5L596.4788671999999 166.5"></path><path stroke-width="1" fill="none" stroke="#000000" stroke-dasharray="none" d="M448.3120447999999 176.5L596.4788671999999 176.5"></path><path stroke-width="1" fill="none" stroke="#000000" stroke-dasharray="none" d="M448.3120447999999 186.5L596.4788671999999 186.5"></path><path stroke-width="1" fill="none" stroke="#000000" stroke-dasharray="none" d="M448.3120447999999 196.5L596.4788671999999 196.5"></path><path stroke-width="1" fill="none" stroke="#000000" stroke-dasharray="none" d="M448.3120447999999 206.5L596.4788671999999 206.5"></path><rect stroke-width="0.3" fill="#000000" stroke="#000000" stroke-dasharray="none" x="596.4788671999999" y="166" width="1" height="41"></rect><g class="vf-stavenote" id="vf-auto906316"><g class="vf-note" pointer-events="bounding-box"><g class="vf-stem" pointer-events="bounding-box"><path stroke-width="1.5" fill="none" stroke="#000000" stroke-dasharray="none" class="vf-stem" id="vf-auto906316-stem" d="M476.5802847999999 191.5L476.5802847999999 156.5"></path></g><g class="vf-notehead" pointer-events="bounding-box"><path stroke-width="0.3" fill="#000000" stroke="none" stroke-dasharray="none" d="M465.3120447999999 191.5M472.6690047999999 186.27712C472.78132479999994 186.27712,472.9498047999999 186.27712,472.9778847999999 186.27712C472.9778847999999 186.27712,473.0059647999999 186.27712,473.0059647999999 186.27712C473.0059647999999 186.27712,473.1744447999999 186.27712,473.3148447999999 186.27712C475.84204479999994 186.41752,477.3302847999999 188.07424,477.3302847999999 190.15216C477.3302847999999 191.16304,476.9933247999999 192.31432,476.1509247999999 193.40944C474.5503647999999 195.5716,471.9389247999999 196.75096,469.6644447999999 196.75096C467.89540479999994 196.75096,466.37908479999993 196.04896,465.6490047999999 194.61688C465.4243647999999 194.05528,465.3120447999999 193.52176,465.3120447999999 192.93208C465.3120447999999 189.87136,468.73780479999994 186.47368,472.6690047999999 186.27712"></path></g></g><g class="vf-modifiers"></g></g><g class="vf-stavenote" id="vf-auto906324"><g class="vf-note" pointer-events="bounding-box"><g class="vf-stem" pointer-events="bounding-box"><path stroke-width="1.5" fill="none" stroke="#000000" stroke-dasharray="none" class="vf-stem" id="vf-auto906324-stem" d="M576.3302848 211.5L576.3302848 176.5"></path></g><g class="vf-notehead" pointer-events="bounding-box"><path stroke-width="0.3" fill="#000000" stroke="none" stroke-dasharray="none" d="M565.0620448 211.5M572.4190047999999 206.27712C572.5313248 206.27712,572.6998047999999 206.27712,572.7278848 206.27712C572.7278848 206.27712,572.7559648 206.27712,572.7559648 206.27712C572.7559648 206.27712,572.9244448 206.27712,573.0648448 206.27712C575.5920447999999 206.41752,577.0802848 208.07424,577.0802848 210.15216C577.0802848 211.16304,576.7433248 212.31432,575.9009248 213.40944C574.3003648 215.5716,571.6889248 216.75096,569.4144448 216.75096C567.6454047999999 216.75096,566.1290848 216.04896,565.3990048 214.61688C565.1743647999999 214.05528,565.0620448 213.52176,565.0620448 212.93208C565.0620448 209.87136,568.4878047999999 206.47368,572.4190047999999 206.27712"></path></g></g><g class="vf-modifiers"></g></g><path stroke-width="1" fill="none" stroke="#000000" stroke-dasharray="none" d="M596.4788671999999 166.5L746.2456895999999 166.5"></path><path stroke-width="1" fill="none" stroke="#000000" stroke-dasharray="none" d="M596.4788671999999 176.5L746.2456895999999 176.5"></path><path stroke-width="1" fill="none" stroke="#000000" stroke-dasharray="none" d="M596.4788671999999 186.5L746.2456895999999 186.5"></path><path stroke-width="1" fill="none" stroke="#000000" stroke-dasharray="none" d="M596.4788671999999 196.5L746.2456895999999 196.5"></path><path stroke-width="1" fill="none" stroke="#000000" stroke-dasharray="none" d="M596.4788671999999 206.5L746.2456895999999 206.5"></path><rect stroke-width="0.3" fill="#000000" stroke="#000000" stroke-dasharray="none" x="741.2456895999999" y="166" width="1" height="41"></rect><rect stroke-width="0.3" fill="#000000" stroke="#000000" stroke-dasharray="none" x="744.2456895999999" y="166" width="3" height="41"></rect><path stroke-width="0.3" fill="#000000" stroke="none" stroke-dasharray="none" d="M740.2456895999999 182 A2 2 0 0 0 736.2456895999999 182M736.2456895999999 182 A2 2 0 0 0 740.2456895999999 182"></path><path stroke-width="0.3" fill="#000000" stroke="none" stroke-dasharray="none" d="M740.2456895999999 192 A2 2 0 0 0 736.2456895999999 192M736.2456895999999 192 A2 2 0 0 0 740.2456895999999 192"></path><g class="vf-text"><text stroke-width="0.3" fill="#000000" stroke="none" stroke-dasharray="none" font-family="Times New Roman" font-size="23px" font-weight="bold" font-style="italic" x="159.9784" y="240.5">pp</text></g><path stroke-width="1" fill="none" stroke="#000000" stroke-dasharray="none" d="M70 270.29999999999995L300.14522239999997 270.29999999999995"></path><path stroke-width="1" fill="none" stroke="#000000" stroke-dasharray="none" d="M70 280.29999999999995L300.14522239999997 280.29999999999995"></path><path stroke-width="1" fill="none" stroke="#000000" stroke-dasharray="none" d="M70 290.29999999999995L300.14522239999997 290.29999999999995"></path><path stroke-width="1" fill="none" stroke="#000000" stroke-dasharray="none" d="M70 300.29999999999995L300.14522239999997 300.29999999999995"></path><path stroke-width="1" fill="none" stroke="#000000" stroke-dasharray="none" d="M70 310.29999999999995L300.14522239999997 310.29999999999995"></path><rect stroke-width="0.3" fill="#000000" stroke="#000000" stroke-dasharray="none" x="300.14522239999997" y="269.79999999999995" width="1" height="41"></rect><g class="vf-clef"><path stroke-width="0.3" fill="#000000" stroke="none" stroke-dasharray="none" d="M75 280.29999999999995M83.8416 270.24879999999996C84.072 270.1912,84.3024 270.1912,84.5616 270.1912C85.5696 270.1912,86.7504 270.30639999999994,87.7584 270.508C92.4816 271.4872,95.736 274.68399999999997,96.3408 278.9464C96.3984 279.40719999999993,96.4272 279.83919999999995,96.4272 280.29999999999995C96.4272 282.89199999999994,95.5344 286.23279999999994,94.008 289.02639999999997C90.3792 295.59279999999995,83.7552 300.316,75.8064 302.044C75.6624 302.044,75.5472 302.0728,75.4032 302.0728C75.1152 302.0728,74.9712 301.9,74.9712 301.64079999999996C74.9712 301.35279999999995,75.0288 301.2664,75.6048 301.03599999999994C84.7056 297.6088,90.7824 290.20719999999994,91.3296 281.91279999999995C91.3584 281.48079999999993,91.3584 280.99119999999994,91.3584 280.61679999999996C91.3584 276.5848,90.12 273.58959999999996,87.7296 272.0919999999999C86.6928 271.42959999999994,85.5696 271.11279999999994,84.36 271.11279999999994C81.6816 271.11279999999994,78.9456 272.63919999999996,77.6784 275.20239999999995C77.6208 275.40399999999994,77.4192 275.83599999999996,77.4192 275.86479999999995C77.4192 275.86479999999995,77.4192 275.86479999999995,77.4192 275.86479999999995C77.4192 275.86479999999995,77.448 275.83599999999996,77.5344 275.80719999999997C78.168 275.40399999999994,78.8592 275.20239999999995,79.5792 275.20239999999995C80.5872 275.20239999999995,81.6528 275.63439999999997,82.4016 276.44079999999997C83.0928 277.1895999999999,83.4672 278.19759999999997,83.4672 279.1192C83.4672 280.99119999999994,82.0848 282.89199999999994,79.9248 283.0936C79.7808 283.0936,79.6368 283.12239999999997,79.4928 283.12239999999997C77.1024 283.12239999999997,75.1728 280.93359999999996,75.1728 278.1688C75.1728 278.11119999999994,75.1728 278.02479999999997,75.1728 277.996C75.288 273.8776,79.0608 270.508,83.8416 270.24879999999996M99.1632 274.10799999999995C99.2208 274.07919999999996,99.2496 274.07919999999996,99.336 274.07919999999996C99.5376 274.07919999999996,99.768 274.10799999999995,99.8256 274.1655999999999C100.54560000000001 274.36719999999997,100.8912 275.00079999999997,100.8912 275.6056C100.8912 276.12399999999997,100.632 276.64239999999995,100.11359999999999 276.93039999999996C99.912 277.07439999999997,99.6528 277.10319999999996,99.39359999999999 277.10319999999996C98.9904 277.10319999999996,98.5584 276.93039999999996,98.2704 276.5559999999999C98.03999999999999 276.268,97.9248 275.9512,97.9248 275.63439999999997C97.9248 274.91439999999994,98.3856 274.1944,99.1632 274.10799999999995M99.1632 283.52559999999994C99.2208 283.52559999999994,99.2496 283.52559999999994,99.336 283.52559999999994C99.5376 283.52559999999994,99.768 283.55439999999993,99.8256 283.61199999999997C100.54560000000001 283.81359999999995,100.8912 284.44719999999995,100.8912 285.05199999999996C100.8912 285.57039999999995,100.632 286.08879999999994,100.11359999999999 286.34799999999996C99.912 286.49199999999996,99.6528 286.54959999999994,99.39359999999999 286.54959999999994C98.9904 286.54959999999994,98.5584 286.34799999999996,98.2704 286.00239999999997C98.03999999999999 285.71439999999996,97.9248 285.39759999999995,97.9248 285.05199999999996C97.9248 284.33199999999994,98.3856 283.64079999999996,99.1632 283.52559999999994"></path></g><path stroke-width="0.3" fill="#000000" stroke="none" stroke-dasharray="none" d="M116 290.29999999999995M121.0112 271.95439999999996C121.04 271.9256,121.4432 271.9256,122.6816 271.9256C123.056 271.9256,123.4592 271.9256,123.9776 271.9256L126.8864 271.9256L126.9728 272.01199999999994C127.1168 272.09839999999997,127.2032 272.2424,127.2032 272.35759999999993C127.2032 272.53039999999993,127.1168 272.64559999999994,127.0016 272.76079999999996C126.9728 272.84719999999993,126.7136 273.07759999999996,126.5408 273.3367999999999L125.0144 275.0936L123.056 277.31119999999993L122.0192 278.49199999999996L120.464 280.27759999999995L118.4192 282.61039999999997C118.0736 283.04239999999993,117.6992 283.388,117.6992 283.388C117.6992 283.388,117.6992 283.388,117.6992 283.388C117.6992 283.44559999999996,117.9584 283.44559999999996,120.3488 283.44559999999996L122.9696 283.44559999999996L122.9696 281.57359999999994C122.9696 279.67279999999994,122.9696 279.64399999999995,122.9984 279.61519999999996C123.056 279.52879999999993,123.3152 279.21199999999993,124.3232 278.03119999999996L124.7264 277.59919999999994L125.1296 277.1672L125.7344 276.3896L126.368 275.7272L126.6848 275.32399999999996C126.8 275.15119999999996,126.9728 275.12239999999997,127.1168 275.12239999999997C127.28960000000001 275.12239999999997,127.4336 275.20879999999994,127.52 275.35279999999995C127.5488 275.43919999999997,127.5488 275.49679999999995,127.5488 277.62799999999993C127.5488 278.1176,127.5488 278.72239999999994,127.5488 279.44239999999996L127.5488 283.44559999999996L128.2688 283.44559999999996C128.9312 283.44559999999996,128.96 283.44559999999996,129.0464 283.47439999999995C129.2768 283.5608,129.392 283.79119999999995,129.392 284.05039999999997C129.392 284.1944,129.3632 284.36719999999997,129.248 284.4823999999999C129.0752 284.62639999999993,129.0464 284.62639999999993,128.2688 284.62639999999993L127.5488 284.62639999999993L127.5488 285.11599999999993C127.5776 286.5848,127.8656 287.16079999999994,128.9888 287.76559999999995C129.392 287.96719999999993,129.4784 288.02479999999997,129.4784 288.3128C129.4784 288.51439999999997,129.42079999999999 288.60079999999994,129.2768 288.71599999999995L129.1904 288.74479999999994L125.2448 288.74479999999994L121.328 288.74479999999994L121.2416 288.71599999999995C121.0688 288.60079999999994,121.04 288.51439999999997,121.04 288.3128C121.04 288.02479999999997,121.0688 287.96719999999993,121.5008 287.76559999999995C122.624 287.16079999999994,122.912 286.5848,122.912 285.11599999999993L122.912 284.62639999999993L119.6 284.62639999999993C118.9952 284.68399999999997,118.5056 284.68399999999997,118.1024 284.68399999999997C116.288 284.68399999999997,116.2592 284.62639999999993,116.2304 284.62639999999993C116.0576 284.56879999999995,116 284.39599999999996,116 284.1944C116 284.1944,116 284.1944,116 284.1944C116 283.99279999999993,116 283.99279999999993,116.576 283.33039999999994C118.9952 280.39279999999997,120.6944 276.13039999999995,120.6944 272.73199999999997C120.6944 272.21359999999993,120.7808 272.04079999999993,121.0112 271.95439999999996M122.7392 290.32879999999994L122.768 290.32879999999994L122.6816 290.32879999999994L122.7392 290.32879999999994M122.7392 270.91759999999994L122.768 270.91759999999994L122.6816 270.91759999999994L122.7392 270.91759999999994"></path><path stroke-width="0.3" fill="#000000" stroke="none" stroke-dasharray="none" d="M116 310.29999999999995M121.0112 291.95439999999996C121.04 291.9256,121.4432 291.9256,122.6816 291.9256C123.056 291.9256,123.4592 291.9256,123.9776 291.9256L126.8864 291.9256L126.9728 292.01199999999994C127.1168 292.09839999999997,127.2032 292.2424,127.2032 292.35759999999993C127.2032 292.53039999999993,127.1168 292.64559999999994,127.0016 292.76079999999996C126.9728 292.84719999999993,126.7136 293.07759999999996,126.5408 293.3367999999999L125.0144 295.0936L123.056 297.31119999999993L122.0192 298.49199999999996L120.464 300.27759999999995L118.4192 302.61039999999997C118.0736 303.04239999999993,117.6992 303.388,117.6992 303.388C117.6992 303.388,117.6992 303.388,117.6992 303.388C117.6992 303.44559999999996,117.9584 303.44559999999996,120.3488 303.44559999999996L122.9696 303.44559999999996L122.9696 301.57359999999994C122.9696 299.67279999999994,122.9696 299.64399999999995,122.9984 299.61519999999996C123.056 299.52879999999993,123.3152 299.21199999999993,124.3232 298.03119999999996L124.7264 297.59919999999994L125.1296 297.1672L125.7344 296.3896L126.368 295.7272L126.6848 295.32399999999996C126.8 295.15119999999996,126.9728 295.12239999999997,127.1168 295.12239999999997C127.28960000000001 295.12239999999997,127.4336 295.20879999999994,127.52 295.35279999999995C127.5488 295.43919999999997,127.5488 295.49679999999995,127.5488 297.62799999999993C127.5488 298.1176,127.5488 298.72239999999994,127.5488 299.44239999999996L127.5488 303.44559999999996L128.2688 303.44559999999996C128.9312 303.44559999999996,128.96 303.44559999999996,129.0464 303.47439999999995C129.2768 303.5608,129.392 303.79119999999995,129.392 304.05039999999997C129.392 304.1944,129.3632 304.36719999999997,129.248 304.4823999999999C129.0752 304.62639999999993,129.0464 304.62639999999993,128.2688 304.62639999999993L127.5488 304.62639999999993L127.5488 305.11599999999993C127.5776 306.5848,127.8656 307.16079999999994,128.9888 307.76559999999995C129.392 307.96719999999993,129.4784 308.02479999999997,129.4784 308.3128C129.4784 308.51439999999997,129.42079999999999 308.60079999999994,129.2768 308.71599999999995L129.1904 308.74479999999994L125.2448 308.74479999999994L121.328 308.74479999999994L121.2416 308.71599999999995C121.0688 308.60079999999994,121.04 308.51439999999997,121.04 308.3128C121.04 308.02479999999997,121.0688 307.96719999999993,121.5008 307.76559999999995C122.624 307.16079999999994,122.912 306.5848,122.912 305.11599999999993L122.912 304.62639999999993L119.6 304.62639999999993C118.9952 304.68399999999997,118.5056 304.68399999999997,118.1024 304.68399999999997C116.288 304.68399999999997,116.2592 304.62639999999993,116.2304 304.62639999999993C116.0576 304.56879999999995,116 304.39599999999996,116 304.1944C116 304.1944,116 304.1944,116 304.1944C116 303.99279999999993,116 303.99279999999993,116.576 303.33039999999994C118.9952 300.39279999999997,120.6944 296.13039999999995,120.6944 292.73199999999997C120.6944 292.21359999999993,120.7808 292.04079999999993,121.0112 291.95439999999996M122.7392 310.32879999999994L122.768 310.32879999999994L122.6816 310.32879999999994L122.7392 310.32879999999994M122.7392 290.91759999999994L122.768 290.91759999999994L122.6816 290.91759999999994L122.7392 290.91759999999994"></path><path stroke-width="1" fill="none" stroke="#000000" stroke-dasharray="none" d="M138.4784 260.29999999999995L156.49663999999999 260.29999999999995"></path><g class="vf-stavenote" id="vf-auto906262"><g class="vf-note" pointer-events="bounding-box"><g class="vf-stem" pointer-events="bounding-box"><path stroke-width="1.5" fill="none" stroke="#000000" stroke-dasharray="none" class="vf-stem" id="vf-auto906262-stem" d="M142.2284 260.29999999999995L142.2284 295.29999999999995"></path></g><g class="vf-notehead" pointer-events="bounding-box"><path stroke-width="0.3" fill="#000000" stroke="none" stroke-dasharray="none" d="M141.4784 260.29999999999995M148.83535999999998 255.07711999999995C148.94768 255.07711999999995,149.11615999999998 255.07711999999995,149.14424 255.07711999999995C149.14424 255.07711999999995,149.17231999999998 255.07711999999995,149.17231999999998 255.07711999999995C149.17231999999998 255.07711999999995,149.3408 255.07711999999995,149.4812 255.07711999999995C152.0084 255.21751999999995,153.49663999999999 256.87423999999993,153.49663999999999 258.95215999999994C153.49663999999999 259.96304,153.15967999999998 261.11431999999996,152.31727999999998 262.20944C150.71671999999998 264.37159999999994,148.10528 265.55096,145.83079999999998 265.55096C144.06176 265.55096,142.54543999999999 264.84896,141.81536 263.41687999999994C141.59072 262.85527999999994,141.4784 262.3217599999999,141.4784 261.73207999999994C141.4784 258.67135999999994,144.90416 255.27367999999996,148.83535999999998 255.07711999999995"></path></g></g><g class="vf-modifiers"></g></g><g class="vf-stavenote" id="vf-auto906270"><g class="vf-note" pointer-events="bounding-box"><g class="vf-stem" pointer-events="bounding-box"><path stroke-width="1.5" fill="none" stroke="#000000" stroke-dasharray="none" class="vf-stem" id="vf-auto906270-stem" d="M182.3588 275.29999999999995L182.3588 310.29999999999995"></path></g><g class="vf-notehead" pointer-events="bounding-box"><path stroke-width="0.3" fill="#000000" stroke="none" stroke-dasharray="none" d="M181.6088 275.29999999999995M188.96576 270.07712C189.07808 270.07712,189.24656 270.07712,189.27464 270.07712C189.27464 270.07712,189.30272 270.07712,189.30272 270.07712C189.30272 270.07712,189.4712 270.07712,189.6116 270.07712C192.1388 270.21752,193.62704 271.87423999999993,193.62704 273.95215999999994C193.62704 274.96304,193.29008 276.11431999999996,192.44768 277.20944C190.84712 279.37159999999994,188.23568 280.55096,185.9612 280.55096C184.19216 280.55096,182.67584 279.84896,181.94576 278.41687999999994C181.72112 277.85527999999994,181.6088 277.3217599999999,181.6088 276.73207999999994C181.6088 273.67135999999994,185.03456 270.27367999999996,188.96576 270.07712"></path></g></g><g class="vf-modifiers"></g></g><rect stroke-width="0.3" fill="#000000" stroke="#000000" stroke-dasharray="none" x="300.14522239999997" y="166.5" width="1" height="144.79999999999995"></rect><rect stroke-width="0.3" fill="#000000" stroke="#000000" stroke-dasharray="none" x="70" y="166.5" width="1" height="144.79999999999995"></rect><path stroke-width="1" fill="none" stroke="#000000" stroke-dasharray="none" d="M300.14522239999997 270.29999999999995L448.3120447999999 270.29999999999995"></path><path stroke-width="1" fill="none" stroke="#000000" stroke-dasharray="none" d="M300.14522239999997 280.29999999999995L448.3120447999999 280.29999999999995"></path><path stroke-width="1" fill="none" stroke="#000000" stroke-dasharray="none" d="M300.14522239999997 290.29999999999995L448.3120447999999 290.29999999999995"></path><path stroke-width="1" fill="none" stroke="#000000" stroke-dasharray="none" d="M300.14522239999997 300.29999999999995L448.3120447999999 300.29999999999995"></path><path stroke-width="1" fill="none" stroke="#000000" stroke-dasharray="none" d="M300.14522239999997 310.29999999999995L448.3120447999999 310.29999999999995"></path><rect stroke-width="0.3" fill="#000000" stroke="#000000" stroke-dasharray="none" x="448.3120447999999" y="269.79999999999995" width="1" height="41"></rect><path stroke-width="1" fill="none" stroke="#000000" stroke-dasharray="none" d="M314.14522239999997 260.29999999999995L332.16346239999996 260.29999999999995"></path><g class="vf-stavenote" id="vf-auto906298"><g class="vf-note" pointer-events="bounding-box"><g class="vf-stem" pointer-events="bounding-box"><path stroke-width="1.5" fill="none" stroke="#000000" stroke-dasharray="none" class="vf-stem" id="vf-auto906298-stem" d="M317.89522239999997 260.29999999999995L317.89522239999997 295.29999999999995"></path></g><g class="vf-notehead" pointer-events="bounding-box"><path stroke-width="0.3" fill="#000000" stroke="none" stroke-dasharray="none" d="M317.14522239999997 260.29999999999995M324.5021824 255.07711999999995C324.6145024 255.07711999999995,324.7829824 255.07711999999995,324.81106239999997 255.07711999999995C324.81106239999997 255.07711999999995,324.83914239999996 255.07711999999995,324.83914239999996 255.07711999999995C324.83914239999996 255.07711999999995,325.00762239999995 255.07711999999995,325.14802239999995 255.07711999999995C327.67522239999994 255.21751999999995,329.16346239999996 256.87423999999993,329.16346239999996 258.95215999999994C329.16346239999996 259.96304,328.8265024 261.11431999999996,327.9841024 262.20944C326.38354239999995 264.37159999999994,323.7721024 265.55096,321.49762239999995 265.55096C319.7285824 265.55096,318.2122624 264.84896,317.48218239999994 263.41687999999994C317.2575424 262.85527999999994,317.14522239999997 262.3217599999999,317.14522239999997 261.73207999999994C317.14522239999997 258.67135999999994,320.5709824 255.27367999999996,324.5021824 255.07711999999995"></path></g></g><g class="vf-modifiers"></g></g><g class="vf-stavenote" id="vf-auto906306"><g class="vf-note" pointer-events="bounding-box"><g class="vf-stem" pointer-events="bounding-box"><path stroke-width="1.5" fill="none" stroke="#000000" stroke-dasharray="none" class="vf-stem" id="vf-auto906306-stem" d="M361.66346239999996 295.29999999999995L361.66346239999996 260.29999999999995"></path></g><g class="vf-notehead" pointer-events="bounding-box"><path stroke-width="0.3" fill="#000000" stroke="none" stroke-dasharray="none" d="M350.39522239999997 295.29999999999995M357.7521824 290.07712C357.8645024 290.07712,358.0329824 290.07712,358.06106239999997 290.07712C358.06106239999997 290.07712,358.08914239999996 290.07712,358.08914239999996 290.07712C358.08914239999996 290.07712,358.25762239999995 290.07712,358.39802239999995 290.07712C360.92522239999994 290.21752,362.41346239999996 291.87423999999993,362.41346239999996 293.95215999999994C362.41346239999996 294.96304,362.0765024 296.11431999999996,361.2341024 297.20944C359.63354239999995 299.37159999999994,357.0221024 300.55096,354.74762239999995 300.55096C352.9785824 300.55096,351.4622624 299.84896,350.73218239999994 298.41687999999994C350.5075424 297.85527999999994,350.39522239999997 297.3217599999999,350.39522239999997 296.73207999999994C350.39522239999997 293.67135999999994,353.8209824 290.27367999999996,357.7521824 290.07712"></path></g></g><g class="vf-modifiers"></g></g><rect stroke-width="0.3" fill="#000000" stroke="#000000" stroke-dasharray="none" x="448.3120447999999" y="166.5" width="1" height="144.79999999999995"></rect><path stroke-width="1" fill="none" stroke="#000000" stroke-dasharray="none" d="M448.3120447999999 270.29999999999995L596.4788671999999 270.29999999999995"></path><path stroke-width="1" fill="none" stroke="#000000" stroke-dasharray="none" d="M448.3120447999999 280.29999999999995L596.4788671999999 280.29999999999995"></path><path stroke-width="1" fill="none" stroke="#000000" stroke-dasharray="none" d="M448.3120447999999 290.29999999999995L596.4788671999999 290.29999999999995"></path><path stroke-width="1" fill="none" stroke="#000000" stroke-dasharray="none" d="M448.3120447999999 300.29999999999995L596.4788671999999 300.29999999999995"></path><path stroke-width="1" fill="none" stroke="#000000" stroke-dasharray="none" d="M448.3120447999999 310.29999999999995L596.4788671999999 310.29999999999995"></path><rect stroke-width="0.3" fill="#000000" stroke="#000000" stroke-dasharray="none" x="596.4788671999999" y="269.79999999999995" width="1" height="41"></rect><g class="vf-stavenote" id="vf-auto906334"><g class="vf-note" pointer-events="bounding-box"><g class="vf-stem" pointer-events="bounding-box"><path stroke-width="1.5" fill="none" stroke="#000000" stroke-dasharray="none" class="vf-stem" id="vf-auto906334-stem" d="M499.3120447999999 285.29999999999995L499.3120447999999 320.29999999999995"></path></g><g class="vf-notehead" pointer-events="bounding-box"><path stroke-width="0.3" fill="#000000" stroke="none" stroke-dasharray="none" d="M498.5620447999999 285.29999999999995M505.9190047999999 280.07712C506.03132479999994 280.07712,506.1998047999999 280.07712,506.2278847999999 280.07712C506.2278847999999 280.07712,506.2559647999999 280.07712,506.2559647999999 280.07712C506.2559647999999 280.07712,506.4244447999999 280.07712,506.5648447999999 280.07712C509.09204479999994 280.21752,510.5802847999999 281.87423999999993,510.5802847999999 283.95215999999994C510.5802847999999 284.96304,510.2433247999999 286.11431999999996,509.4009247999999 287.20944C507.8003647999999 289.37159999999994,505.1889247999999 290.55096,502.9144447999999 290.55096C501.14540479999994 290.55096,499.62908479999993 289.84896,498.8990047999999 288.41687999999994C498.6743647999999 287.85527999999994,498.5620447999999 287.3217599999999,498.5620447999999 286.73207999999994C498.5620447999999 283.67135999999994,501.98780479999994 280.27367999999996,505.9190047999999 280.07712"></path></g></g><g class="vf-modifiers"></g></g><g class="vf-stavenote" id="vf-auto906342"><g class="vf-note" pointer-events="bounding-box"><g class="vf-stem" pointer-events="bounding-box"><path stroke-width="1.5" fill="none" stroke="#000000" stroke-dasharray="none" class="vf-stem" id="vf-auto906342-stem" d="M543.0802848 300.29999999999995L543.0802848 265.29999999999995"></path></g><g class="vf-notehead" pointer-events="bounding-box"><path stroke-width="0.3" fill="#000000" stroke="none" stroke-dasharray="none" d="M531.8120448 300.29999999999995M539.1690047999999 295.07712C539.2813248 295.07712,539.4498047999999 295.07712,539.4778848 295.07712C539.4778848 295.07712,539.5059648 295.07712,539.5059648 295.07712C539.5059648 295.07712,539.6744448 295.07712,539.8148448 295.07712C542.3420447999999 295.21752,543.8302848 296.87423999999993,543.8302848 298.95215999999994C543.8302848 299.96304,543.4933248 301.11431999999996,542.6509248 302.20944C541.0503648 304.37159999999994,538.4389248 305.55096,536.1644448 305.55096C534.3954047999999 305.55096,532.8790848 304.84896,532.1490048 303.41687999999994C531.9243647999999 302.85527999999994,531.8120448 302.3217599999999,531.8120448 301.73207999999994C531.8120448 298.67135999999994,535.2378047999999 295.27367999999996,539.1690047999999 295.07712"></path></g></g><g class="vf-modifiers"></g></g><rect stroke-width="0.3" fill="#000000" stroke="#000000" stroke-dasharray="none" x="596.4788671999999" y="166.5" width="1" height="144.79999999999995"></rect><path stroke-width="1" fill="none" stroke="#000000" stroke-dasharray="none" d="M596.4788671999999 270.29999999999995L746.2456895999999 270.29999999999995"></path><path stroke-width="1" fill="none" stroke="#000000" stroke-dasharray="none" d="M596.4788671999999 280.29999999999995L746.2456895999999 280.29999999999995"></path><path stroke-width="1" fill="none" stroke="#000000" stroke-dasharray="none" d="M596.4788671999999 290.29999999999995L746.2456895999999 290.29999999999995"></path><path stroke-width="1" fill="none" stroke="#000000" stroke-dasharray="none" d="M596.4788671999999 300.29999999999995L746.2456895999999 300.29999999999995"></path><path stroke-width="1" fill="none" stroke="#000000" stroke-dasharray="none" d="M596.4788671999999 310.29999999999995L746.2456895999999 310.29999999999995"></path><rect stroke-width="0.3" fill="#000000" stroke="#000000" stroke-dasharray="none" x="741.2456895999999" y="269.79999999999995" width="1" height="41"></rect><rect stroke-width="0.3" fill="#000000" stroke="#000000" stroke-dasharray="none" x="744.2456895999999" y="269.79999999999995" width="3" height="41"></rect><path stroke-width="0.3" fill="#000000" stroke="none" stroke-dasharray="none" d="M740.2456895999999 285.79999999999995 A2 2 0 0 0 736.2456895999999 285.79999999999995M736.2456895999999 285.79999999999995 A2 2 0 0 0 740.2456895999999 285.79999999999995"></path><path stroke-width="0.3" fill="#000000" stroke="none" stroke-dasharray="none" d="M740.2456895999999 295.79999999999995 A2 2 0 0 0 736.2456895999999 295.79999999999995M736.2456895999999 295.79999999999995 A2 2 0 0 0 740.2456895999999 295.79999999999995"></path><g class="vf-stavenote" id="vf-auto906353"><g class="vf-note" pointer-events="bounding-box"><g class="vf-stem" pointer-events="bounding-box"><path stroke-width="1.5" fill="none" stroke="#000000" stroke-dasharray="none" class="vf-stem" id="vf-auto906353-stem" d="M624.7471071999998 300.29999999999995L624.7471071999998 265.29999999999995"></path></g><g class="vf-notehead" pointer-events="bounding-box"><path stroke-width="0.3" fill="#000000" stroke="none" stroke-dasharray="none" d="M613.4788671999999 300.29999999999995M620.8358271999998 295.07712C620.9481471999999 295.07712,621.1166271999998 295.07712,621.1447071999999 295.07712C621.1447071999999 295.07712,621.1727871999999 295.07712,621.1727871999999 295.07712C621.1727871999999 295.07712,621.3412671999998 295.07712,621.4816671999998 295.07712C624.0088671999998 295.21752,625.4971071999998 296.87423999999993,625.4971071999998 298.95215999999994C625.4971071999998 299.96304,625.1601471999999 301.11431999999996,624.3177471999999 302.20944C622.7171871999999 304.37159999999994,620.1057471999999 305.55096,617.8312671999998 305.55096C616.0622271999998 305.55096,614.5459071999999 304.84896,613.8158271999998 303.41687999999994C613.5911871999998 302.85527999999994,613.4788671999999 302.3217599999999,613.4788671999999 301.73207999999994C613.4788671999999 298.67135999999994,616.9046271999998 295.27367999999996,620.8358271999998 295.07712"></path></g></g><g class="vf-modifiers"></g></g><path stroke-width="1" fill="none" stroke="#000000" stroke-dasharray="none" d="M643.9788671999999 260.29999999999995L661.9971071999998 260.29999999999995"></path><g class="vf-stavenote" id="vf-auto906361"><g class="vf-note" pointer-events="bounding-box"><g class="vf-stem" pointer-events="bounding-box"><path stroke-width="1.5" fill="none" stroke="#000000" stroke-dasharray="none" class="vf-stem" id="vf-auto906361-stem" d="M647.7288671999999 255.29999999999995L647.7288671999999 290.29999999999995"></path></g><g class="vf-notehead" pointer-events="bounding-box"><path stroke-width="0.3" fill="#000000" stroke="none" stroke-dasharray="none" d="M646.9788671999999 255.29999999999995M654.3358271999998 250.07711999999995C654.4481471999999 250.07711999999995,654.6166271999998 250.07711999999995,654.6447071999999 250.07711999999995C654.6447071999999 250.07711999999995,654.6727871999999 250.07711999999995,654.6727871999999 250.07711999999995C654.6727871999999 250.07711999999995,654.8412671999998 250.07711999999995,654.9816671999998 250.07711999999995C657.5088671999998 250.21751999999995,658.9971071999998 251.87423999999996,658.9971071999998 253.95215999999996C658.9971071999998 254.96303999999995,658.6601471999999 256.11431999999996,657.8177471999999 257.20944C656.2171871999999 259.37159999999994,653.6057471999999 260.55096,651.3312671999998 260.55096C649.5622271999998 260.55096,648.0459071999999 259.84896,647.3158271999998 258.41687999999994C647.0911871999998 257.85527999999994,646.9788671999999 257.3217599999999,646.9788671999999 256.73207999999994C646.9788671999999 253.67135999999996,650.4046271999998 250.27367999999996,654.3358271999998 250.07711999999995"></path></g></g><g class="vf-modifiers"></g></g><g class="vf-stavenote" id="vf-auto906369"><g class="vf-note" pointer-events="bounding-box"><g class="vf-stem" pointer-events="bounding-box"><path stroke-width="1.5" fill="none" stroke="#000000" stroke-dasharray="none" class="vf-stem" id="vf-auto906369-stem" d="M691.7471071999998 290.29999999999995L691.7471071999998 255.29999999999995"></path></g><g class="vf-notehead" pointer-events="bounding-box"><path stroke-width="0.3" fill="#000000" stroke="none" stroke-dasharray="none" d="M680.4788671999999 290.29999999999995M687.8358271999998 285.07712C687.9481471999999 285.07712,688.1166271999998 285.07712,688.1447071999999 285.07712C688.1447071999999 285.07712,688.1727871999999 285.07712,688.1727871999999 285.07712C688.1727871999999 285.07712,688.3412671999998 285.07712,688.4816671999998 285.07712C691.0088671999998 285.21752,692.4971071999998 286.87423999999993,692.4971071999998 288.95215999999994C692.4971071999998 289.96304,692.1601471999999 291.11431999999996,691.3177471999999 292.20944C689.7171871999999 294.37159999999994,687.1057471999999 295.55096,684.8312671999998 295.55096C683.0622271999998 295.55096,681.5459071999999 294.84896,680.8158271999998 293.41687999999994C680.5911871999998 292.85527999999994,680.4788671999999 292.3217599999999,680.4788671999999 291.73207999999994C680.4788671999999 288.67135999999994,683.9046271999998 285.27367999999996,687.8358271999998 285.07712"></path></g></g><g class="vf-modifiers"></g></g><g class="vf-stavenote" id="vf-auto906377"><g class="vf-note" pointer-events="bounding-box"><g class="vf-stem" pointer-events="bounding-box"><path stroke-width="1.5" fill="none" stroke="#000000" stroke-dasharray="none" class="vf-stem" id="vf-auto906377-stem" d="M714.7288671999999 265.29999999999995L714.7288671999999 300.29999999999995"></path></g><g class="vf-notehead" pointer-events="bounding-box"><path stroke-width="0.3" fill="#000000" stroke="none" stroke-dasharray="none" d="M713.9788671999999 265.29999999999995M721.3358271999998 260.07712C721.4481471999999 260.07712,721.6166271999998 260.07712,721.6447071999999 260.07712C721.6447071999999 260.07712,721.6727871999999 260.07712,721.6727871999999 260.07712C721.6727871999999 260.07712,721.8412671999998 260.07712,721.9816671999998 260.07712C724.5088671999998 260.21752,725.9971071999998 261.87423999999993,725.9971071999998 263.95215999999994C725.9971071999998 264.96304,725.6601471999999 266.11431999999996,724.8177471999999 267.20944C723.2171871999999 269.37159999999994,720.6057471999999 270.55096,718.3312671999998 270.55096C716.5622271999998 270.55096,715.0459071999999 269.84896,714.3158271999998 268.41687999999994C714.0911871999998 267.85527999999994,713.9788671999999 267.3217599999999,713.9788671999999 266.73207999999994C713.9788671999999 263.67135999999994,717.4046271999998 260.27367999999996,721.3358271999998 260.07712"></path></g></g><g class="vf-modifiers"></g></g><rect stroke-width="0.3" fill="#000000" stroke="#000000" stroke-dasharray="none" x="741.2456895999999" y="166.5" width="1" height="144.79999999999995"></rect><rect stroke-width="0.3" fill="#000000" stroke="#000000" stroke-dasharray="none" x="744.2456895999999" y="166.5" width="3" height="144.79999999999995"></rect><path stroke-width="0.3" fill="#000000" stroke="none" stroke-dasharray="none" d="M68 166.5C45.2 195.45999999999998,81.2 219.35199999999998,56 238.89999999999998C81.2 258.448,45.2 282.34,68 311.29999999999995C44 282.34,72.8 258.448,56 238.89999999999998C72.8 219.35199999999998,44 195.45999999999998,68 166.5"></path><path stroke-width="1" fill="none" stroke="#000000" stroke-dasharray="none" d="M68 166.5C45.2 195.45999999999998,81.2 219.35199999999998,56 238.89999999999998C81.2 258.448,45.2 282.34,68 311.29999999999995C44 282.34,72.8 258.448,56 238.89999999999998C72.8 219.35199999999998,44 195.45999999999998,68 166.5"></path><g class="vf-text"><text stroke-width="0.3" fill="#000000" stroke="none" stroke-dasharray="none" font-family="Times New Roman" font-size="15px" font-weight="normal" font-style="normal" x="444.81204479999985" y="163.5">3</text></g></svg>