<svg xmlns="http://www.w3.org/2000/svg"  width="1470" height="394.79999999999995" viewBox="0 0 1470 394.79999999999995"><path stroke-width="1" fill="none" stroke="#000000" stroke-dasharray="none" d="M70 166.5L291.74522239999993 166.5"></path><path stroke-width="1" fill="none" stroke="#000000" stroke-dasharray="none" d="M70 176.5L291.74522239999993 176.5"></path><path stroke-width="1" fill="none" stroke="#000000" stroke-dasharray="none" d="M70 186.5L291.74522239999993 186.5"></path><path stroke-width="1" fill="none" stroke="#000000" stroke-dasharray="none" d="M70 196.5L291.74522239999993 196.5"></path><path stroke-width="1" fill="none" stroke="#000000" stroke-dasharray="none" d="M70 206.5L291.74522239999993 206.5"></path><rect stroke-width="0.3" fill="#000000" stroke="#000000" stroke-dasharray="none" x="291.74522239999993" y="166" width="1" height="41"></rect><g class="vf-clef"><path stroke-width="0.3" fill="#000000" stroke="none" stroke-dasharray="none" d="M75 196.5M89.0544 153.3288C89.112 153.3,89.1696 153.3,89.256 153.3C89.6016 153.3,90.0048 153.588,90.5808 154.308C92.9136 156.9864,94.5552 161.652,94.5552 165.4536C94.5552 165.7416,94.4976 165.972,94.4976 166.26C94.2384 170.7816,92.3952 174.4968,88.7376 178.0104L87.7584 178.9608L87.4128 179.3352L87.4128 179.4504L87.6144 180.3144L87.9312 181.8696L88.248 183.3096C88.68 185.268,88.8528 186.276,88.8528 186.276C88.8528 186.276,88.8528 186.276,88.8528 186.276C88.8528 186.276,88.968 186.276,89.112 186.2472C89.256 186.2472,89.7168 186.1896,90.2064 186.1896C90.55199999999999 186.1896,90.8976 186.2472,91.0704 186.2472C95.1312 186.7656,98.2704 189.6744,99.1632 193.764C99.336 194.4264,99.39359999999999 195.1464,99.39359999999999 195.8664C99.39359999999999 199.7544,97.0608 203.4696,93.1728 205.2264C92.94239999999999 205.3704,92.856 205.3992,92.856 205.3992L92.856 205.428C92.856 205.428,93.0288 206.0904,93.1728 206.8392L93.6048 209.028L94.008 210.7848C94.2384 211.908,94.3536 212.7144,94.3536 213.4344C94.3536 214.06799999999998,94.2672 214.644,94.1232 215.3064C93.144 219.3096,89.6592 221.7,86.0304 221.7C84.2448 221.7,82.4016 221.124,80.7888 219.828C79.3488 218.6184,78.7152 217.524,78.7152 216.084C78.7152 213.5496,80.76 211.764,82.8912 211.764C83.64 211.764,84.3888 211.99439999999998,85.1088 212.4264C86.3184 213.2616,86.8656 214.5288,86.8656 215.7672C86.8656 217.668,85.5408 219.54,83.2656 219.684L83.0352 219.684L83.208 219.79919999999998C84.1584 220.2024,85.1088 220.404,86.0304 220.404C88.3632 220.404,90.55199999999999 219.2232,91.8768 217.1784C92.62559999999999 216.0264,93.0288 214.6728,93.0288 213.3192C93.0288 212.8008,92.94239999999999 212.2824,92.8272 211.7064C92.8272 211.6488,92.74080000000001 211.188,92.62559999999999 210.756C91.992 207.6456,91.6176 205.8312,91.6176 205.8312C91.6176 205.8312,91.6176 205.8312,91.6176 205.8312C91.56 205.8312,91.4448 205.8312,91.3584 205.8888C91.0704 205.9464,90.4656 206.0904,90.2064 206.1192C89.5728 206.2056,88.968 206.2344,88.392 206.2344C82.74719999999999 206.2344,77.5056 202.4328,75.6912 196.8168C75.2304 195.3192,74.9712 193.8216,74.9712 192.324C74.9712 189.3288,75.9216 186.3912,77.7648 183.7704C79.7808 180.9192,81.7968 178.4712,84.2736 175.9368L85.13759999999999 175.044L84.936 173.9784L84.5616 172.2216L84.072 169.9752C83.928 169.14,83.7552 168.3336,83.7264 168.1608C83.5824 167.2104,83.496 166.2888,83.496 165.3384C83.496 161.7096,84.6768 158.22480000000002,86.8944 155.4312C87.5568 154.5672,88.7376 153.4152,89.0544 153.3288M90.8112 159.0312C90.7536 159.0312,90.6672 159.0312,90.5808 159.0312C89.4 159.0312,87.8736 160.1256,86.8368 161.7384C85.7712 163.32240000000002,85.224 165.4248,85.224 167.5848C85.224 168.1608,85.25280000000001 168.7656,85.3392 169.3704C85.4256 169.8024,85.45439999999999 170.0904,85.6848 171.12720000000002L86.088 172.9416C86.2032 173.4888,86.28960000000001 173.92079999999999,86.28960000000001 173.9784L86.28960000000001 173.9784C86.3184 173.9784,87.2112 172.9992,87.4992 172.6536C90.3792 169.3992,92.1072 165.972,92.4816 162.948C92.5104 162.66,92.5104 162.4296,92.5104 162.1416C92.5104 161.24880000000002,92.3952 160.38479999999998,92.1936 159.924C91.9632 159.4632,91.4448 159.0888,90.8112 159.0312M86.4624 181.2936C86.4048 180.8904,86.3184 180.5736,86.3184 180.516C86.3184 180.516,86.3184 180.516,86.28960000000001 180.516C86.232 180.516,84.9936 181.956,84.1296 182.964C82.6608 184.7496,81.1056 186.8808,80.472 187.9176C79.2624 189.9624,78.6576 192.2376,78.6576 194.484C78.6576 195.9528,78.9456 197.364,79.464 198.7176C81.0192 202.7208,84.5904 205.2264,88.4784 205.2264C88.9392 205.2264,89.4576 205.1976,89.9472 205.1112C90.5808 204.996,91.3584 204.7656,91.3584 204.6792L91.3584 204.6792C91.3584 204.6792,91.3008 204.3912,91.2144 204.0744L90.3792 199.956L89.7168 196.8744L89.2848 194.7432L88.824 192.6696C88.5936 191.4312,88.5072 191.1144,88.5072 191.1144C88.5072 191.1144,88.5072 191.0856,88.4784 191.0856C88.3056 191.0856,87.384 191.5464,86.9808 191.8344C85.4832 192.8712,84.7056 194.5128,84.7056 196.1256C84.7056 197.652,85.45439999999999 199.1784,86.8944 200.0712C87.2112 200.2728,87.3264 200.4456,87.3264 200.6472C87.3264 200.676,87.3264 200.7624,87.3264 200.7912C87.2688 201.1368,87.0672 201.2808,86.7792 201.2808C86.664 201.2808,86.52 201.252,86.3472 201.1656C83.6976 200.0136,81.912 197.2776,81.912 194.2824L81.912 194.2824C81.912 190.8264,84.072 187.8312,87.384 186.6504L87.5568 186.5928L87.2688 185.1528L86.4624 181.2936M90.7824 190.9128C90.55199999999999 190.88400000000001,90.3216 190.88400000000001,90.1488 190.88400000000001C90.0912 190.88400000000001,90.0048 190.88400000000001,89.9472 190.88400000000001L89.8032 190.88400000000001L89.9184 191.4024L90.5232 194.2248L90.8976 196.068L91.3008 197.8824L92.1072 201.8856L92.424 203.412C92.5392 203.8152,92.5968 204.1608,92.62559999999999 204.1608C92.62559999999999 204.1608,92.62559999999999 204.1608,92.62559999999999 204.1608C92.6544 204.1608,93.144 203.8728,93.4608 203.6424C94.9296 202.6056,96.024 200.9928,96.4272 199.3224C96.5712 198.7752,96.6288 198.1992,96.6288 197.652C96.6288 194.3112,94.152 191.2872,90.7824 190.9128"></path></g><path stroke-width="0.3" fill="#000000" stroke="none" stroke-dasharray="none" d="M116 186.5M121.0112 168.1544C121.04 168.1256,121.4432 168.1256,122.6816 168.1256C123.056 168.1256,123.4592 168.1256,123.9776 168.1256L126.8864 168.1256L126.9728 168.212C127.1168 168.29840000000002,127.2032 168.4424,127.2032 168.5576C127.2032 168.7304,127.1168 168.8456,127.0016 168.9608C126.9728 169.0472,126.7136 169.2776,126.5408 169.5368L125.0144 171.2936L123.056 173.5112L122.0192 174.692L120.464 176.4776L118.4192 178.8104C118.0736 179.2424,117.6992 179.588,117.6992 179.588C117.6992 179.588,117.6992 179.588,117.6992 179.588C117.6992 179.6456,117.9584 179.6456,120.3488 179.6456L122.9696 179.6456L122.9696 177.7736C122.9696 175.8728,122.9696 175.844,122.9984 175.8152C123.056 175.7288,123.3152 175.412,124.3232 174.2312L124.7264 173.7992L125.1296 173.3672L125.7344 172.5896L126.368 171.9272L126.6848 171.524C126.8 171.3512,126.9728 171.3224,127.1168 171.3224C127.28960000000001 171.3224,127.4336 171.4088,127.52 171.5528C127.5488 171.6392,127.5488 171.6968,127.5488 173.828C127.5488 174.3176,127.5488 174.9224,127.5488 175.6424L127.5488 179.6456L128.2688 179.6456C128.9312 179.6456,128.96 179.6456,129.0464 179.6744C129.2768 179.7608,129.392 179.9912,129.392 180.2504C129.392 180.3944,129.3632 180.5672,129.248 180.6824C129.0752 180.8264,129.0464 180.8264,128.2688 180.8264L127.5488 180.8264L127.5488 181.316C127.5776 182.7848,127.8656 183.3608,128.9888 183.9656C129.392 184.1672,129.4784 184.2248,129.4784 184.5128C129.4784 184.7144,129.42079999999999 184.8008,129.2768 184.916L129.1904 184.9448L125.2448 184.9448L121.328 184.9448L121.2416 184.916C121.0688 184.8008,121.04 184.7144,121.04 184.5128C121.04 184.2248,121.0688 184.1672,121.5008 183.9656C122.624 183.3608,122.912 182.7848,122.912 181.316L122.912 180.8264L119.6 180.8264C118.9952 180.88400000000001,118.5056 180.88400000000001,118.1024 180.88400000000001C116.288 180.88400000000001,116.2592 180.8264,116.2304 180.8264C116.0576 180.7688,116 180.596,116 180.3944C116 180.3944,116 180.3944,116 180.3944C116 180.1928,116 180.1928,116.576 179.5304C118.9952 176.5928,120.6944 172.3304,120.6944 168.93200000000002C120.6944 168.4136,120.7808 168.2408,121.0112 168.1544M122.7392 186.5288L122.768 186.5288L122.6816 186.5288L122.7392 186.5288M122.7392 167.1176L122.768 167.1176L122.6816 167.1176L122.7392 167.1176"></path><path stroke-width="0.3" fill="#000000" stroke="none" stroke-dasharray="none" d="M116 206.5M121.0112 188.1544C121.04 188.1256,121.4432 188.1256,122.6816 188.1256C123.056 188.1256,123.4592 188.1256,123.9776 188.1256L126.8864 188.1256L126.9728 188.212C127.1168 188.29840000000002,127.2032 188.4424,127.2032 188.5576C127.2032 188.7304,127.1168 188.8456,127.0016 188.9608C126.9728 189.0472,126.7136 189.2776,126.5408 189.5368L125.0144 191.2936L123.056 193.5112L122.0192 194.692L120.464 196.4776L118.4192 198.8104C118.0736 199.2424,117.6992 199.588,117.6992 199.588C117.6992 199.588,117.6992 199.588,117.6992 199.588C117.6992 199.6456,117.9584 199.6456,120.3488 199.6456L122.9696 199.6456L122.9696 197.7736C122.9696 195.8728,122.9696 195.844,122.9984 195.8152C123.056 195.7288,123.3152 195.412,124.3232 194.2312L124.7264 193.7992L125.1296 193.3672L125.7344 192.5896L126.368 191.9272L126.6848 191.524C126.8 191.3512,126.9728 191.3224,127.1168 191.3224C127.28960000000001 191.3224,127.4336 191.4088,127.52 191.5528C127.5488 191.6392,127.5488 191.6968,127.5488 193.828C127.5488 194.3176,127.5488 194.9224,127.5488 195.6424L127.5488 199.6456L128.2688 199.6456C128.9312 199.6456,128.96 199.6456,129.0464 199.6744C129.2768 199.7608,129.392 199.9912,129.392 200.2504C129.392 200.3944,129.3632 200.5672,129.248 200.6824C129.0752 200.8264,129.0464 200.8264,128.2688 200.8264L127.5488 200.8264L127.5488 201.316C127.5776 202.7848,127.8656 203.3608,128.9888 203.9656C129.392 204.1672,129.4784 204.2248,129.4784 204.5128C129.4784 204.7144,129.42079999999999 204.8008,129.2768 204.916L129.1904 204.9448L125.2448 204.9448L121.328 204.9448L121.2416 204.916C121.0688 204.8008,121.04 204.7144,121.04 204.5128C121.04 204.2248,121.0688 204.1672,121.5008 203.9656C122.624 203.3608,122.912 202.7848,122.912 201.316L122.912 200.8264L119.6 200.8264C118.9952 200.88400000000001,118.5056 200.88400000000001,118.1024 200.88400000000001C116.288 200.88400000000001,116.2592 200.8264,116.2304 200.8264C116.0576 200.7688,116 200.596,116 200.3944C116 200.3944,116 200.3944,116 200.3944C116 200.1928,116 200.1928,116.576 199.5304C118.9952 196.5928,120.6944 192.3304,120.6944 188.93200000000002C120.6944 188.4136,120.7808 188.2408,121.0112 188.1544M122.7392 206.5288L122.768 206.5288L122.6816 206.5288L122.7392 206.5288M122.7392 187.1176L122.768 187.1176L122.6816 187.1176L122.7392 187.1176"></path><path stroke-width="1" fill="none" stroke="#000000" stroke-dasharray="none" d="M291.74522239999993 166.5L439.9120447999999 166.5"></path><path stroke-width="1" fill="none" stroke="#000000" stroke-dasharray="none" d="M291.74522239999993 176.5L439.9120447999999 176.5"></path><path stroke-width="1" fill="none" stroke="#000000" stroke-dasharray="none" d="M291.74522239999993 186.5L439.9120447999999 186.5"></path><path stroke-width="1" fill="none" stroke="#000000" stroke-dasharray="none" d="M291.74522239999993 196.5L439.9120447999999 196.5"></path><path stroke-width="1" fill="none" stroke="#000000" stroke-dasharray="none" d="M291.74522239999993 206.5L439.9120447999999 206.5"></path><rect stroke-width="0.3" fill="#000000" stroke="#000000" stroke-dasharray="none" x="439.9120447999999" y="166" width="1" height="41"></rect><g class="vf-stavenote" id="vf-auto2340120"><g class="vf-note" pointer-events="bounding-box"><g class="vf-stem" pointer-events="bounding-box"><path stroke-width="1.5" fill="none" stroke="#000000" stroke-dasharray="none" class="vf-stem" id="vf-auto2340120-stem" d="M309.49522239999993 181.5L309.49522239999993 216.5"></path></g><g class="vf-notehead" pointer-events="bounding-box"><path stroke-width="0.3" fill="#000000" stroke="none" stroke-dasharray="none" d="M308.74522239999993 181.5M316.10218239999995 176.27712C316.21450239999996 176.27712,316.38298239999995 176.27712,316.41106239999993 176.27712C316.41106239999993 176.27712,316.4391423999999 176.27712,316.4391423999999 176.27712C316.4391423999999 176.27712,316.6076223999999 176.27712,316.7480223999999 176.27712C319.27522239999996 176.41752,320.7634623999999 178.07424,320.7634623999999 180.15216C320.7634623999999 181.16304,320.42650239999995 182.31432,319.58410239999995 183.40944C317.9835423999999 185.5716,315.3721023999999 186.75096,313.0976223999999 186.75096C311.32858239999996 186.75096,309.81226239999995 186.04896,309.0821823999999 184.61688C308.85754239999994 184.05528,308.74522239999993 183.52176,308.74522239999993 182.93208C308.74522239999993 179.87136,312.17098239999996 176.47368,316.10218239999995 176.27712"></path></g></g><g class="vf-modifiers"></g></g><g class="vf-stavenote" id="vf-auto2340128"><g class="vf-note" pointer-events="bounding-box"><g class="vf-stem" pointer-events="bounding-box"><path stroke-width="1.5" fill="none" stroke="#000000" stroke-dasharray="none" class="vf-stem" id="vf-auto2340128-stem" d="M375.99522239999993 181.5L375.99522239999993 216.5"></path></g><g class="vf-notehead" pointer-events="bounding-box"><path stroke-width="0.3" fill="#000000" stroke="none" stroke-dasharray="none" d="M375.24522239999993 181.5M382.60218239999995 176.27712C382.71450239999996 176.27712,382.88298239999995 176.27712,382.91106239999993 176.27712C382.91106239999993 176.27712,382.9391423999999 176.27712,382.9391423999999 176.27712C382.9391423999999 176.27712,383.1076223999999 176.27712,383.2480223999999 176.27712C385.77522239999996 176.41752,387.2634623999999 178.07424,387.2634623999999 180.15216C387.2634623999999 181.16304,386.92650239999995 182.31432,386.08410239999995 183.40944C384.4835423999999 185.5716,381.8721023999999 186.75096,379.5976223999999 186.75096C377.82858239999996 186.75096,376.31226239999995 186.04896,375.5821823999999 184.61688C375.35754239999994 184.05528,375.24522239999993 183.52176,375.24522239999993 182.93208C375.24522239999993 179.87136,378.67098239999996 176.47368,382.60218239999995 176.27712"></path></g></g><g class="vf-modifiers"></g></g><path stroke-width="1" fill="none" stroke="#000000" stroke-dasharray="none" d="M439.91204479999993 166.5L592.2788671999999 166.5"></path><path stroke-width="1" fill="none" stroke="#000000" stroke-dasharray="none" d="M439.91204479999993 176.5L592.2788671999999 176.5"></path><path stroke-width="1" fill="none" stroke="#000000" stroke-dasharray="none" d="M439.91204479999993 186.5L592.2788671999999 186.5"></path><path stroke-width="1" fill="none" stroke="#000000" stroke-dasharray="none" d="M439.91204479999993 196.5L592.2788671999999 196.5"></path><path stroke-width="1" fill="none" stroke="#000000" stroke-dasharray="none" d="M439.91204479999993 206.5L592.2788671999999 206.5"></path><rect stroke-width="0.3" fill="#000000" stroke="#000000" stroke-dasharray="none" x="592.2788671999999" y="166" width="1" height="41"></rect><g class="vf-stavenote" id="vf-auto2340158"><g class="vf-note" pointer-events="bounding-box"><g class="vf-stem" pointer-events="bounding-box"><path stroke-width="1.5" fill="none" stroke="#000000" stroke-dasharray="none" class="vf-stem" id="vf-auto2340158-stem" d="M457.66204479999993 176.5L457.66204479999993 211.5"></path></g><g class="vf-notehead" pointer-events="bounding-box"><path stroke-width="0.3" fill="#000000" stroke="none" stroke-dasharray="none" d="M456.91204479999993 176.5M464.26900479999995 171.27712C464.38132479999996 171.27712,464.54980479999995 171.27712,464.57788479999994 171.27712C464.57788479999994 171.27712,464.6059647999999 171.27712,464.6059647999999 171.27712C464.6059647999999 171.27712,464.7744447999999 171.27712,464.9148447999999 171.27712C467.44204479999996 171.41752,468.9302847999999 173.07424,468.9302847999999 175.15216C468.9302847999999 176.16304,468.59332479999995 177.31432,467.75092479999995 178.40944C466.1503647999999 180.5716,463.5389247999999 181.75096,461.2644447999999 181.75096C459.49540479999996 181.75096,457.97908479999995 181.04896,457.2490047999999 179.61688C457.02436479999994 179.05528,456.91204479999993 178.52176,456.91204479999993 177.93208C456.91204479999993 174.87136,460.33780479999996 171.47368,464.26900479999995 171.27712"></path></g></g><g class="vf-modifiers"></g></g><g class="vf-stavenote" id="vf-auto2340166"><g class="vf-note" pointer-events="bounding-box"><g class="vf-stem" pointer-events="bounding-box"><path stroke-width="1.5" fill="none" stroke="#000000" stroke-dasharray="none" class="vf-stem" id="vf-auto2340166-stem" d="M536.6802847999999 211.5L536.6802847999999 176.5"></path></g><g class="vf-notehead" pointer-events="bounding-box"><path stroke-width="0.3" fill="#000000" stroke="none" stroke-dasharray="none" d="M525.4120447999999 211.5M532.7690047999998 206.27712C532.8813247999999 206.27712,533.0498047999998 206.27712,533.0778847999999 206.27712C533.0778847999999 206.27712,533.1059647999999 206.27712,533.1059647999999 206.27712C533.1059647999999 206.27712,533.2744447999999 206.27712,533.4148447999999 206.27712C535.9420447999998 206.41752,537.4302847999999 208.07424,537.4302847999999 210.15216C537.4302847999999 211.16304,537.0933247999999 212.31432,536.2509247999999 213.40944C534.6503647999999 215.5716,532.0389247999999 216.75096,529.7644447999999 216.75096C527.9954047999998 216.75096,526.4790847999999 216.04896,525.7490047999999 214.61688C525.5243647999998 214.05528,525.4120447999999 213.52176,525.4120447999999 212.93208C525.4120447999999 209.87136,528.8378047999998 206.47368,532.7690047999998 206.27712"></path></g></g><g class="vf-modifiers"></g></g><path stroke-width="1" fill="none" stroke="#000000" stroke-dasharray="none" d="M556.6620447999999 216.5L574.6802847999999 216.5"></path><g class="vf-stavenote" id="vf-auto2340174"><g class="vf-note" pointer-events="bounding-box"><g class="vf-stem" pointer-events="bounding-box"><path stroke-width="1.5" fill="none" stroke="#000000" stroke-dasharray="none" class="vf-stem" id="vf-auto2340174-stem" d="M570.9302847999999 221.5L570.9302847999999 186.5"></path></g><g class="vf-notehead" pointer-events="bounding-box"><path stroke-width="0.3" fill="#000000" stroke="none" stroke-dasharray="none" d="M559.6620447999999 221.5M567.0190047999998 216.27712C567.1313247999999 216.27712,567.2998047999998 216.27712,567.3278847999999 216.27712C567.3278847999999 216.27712,567.3559647999999 216.27712,567.3559647999999 216.27712C567.3559647999999 216.27712,567.5244447999999 216.27712,567.6648447999999 216.27712C570.1920447999998 216.41752,571.6802847999999 218.07424,571.6802847999999 220.15216C571.6802847999999 221.16304,571.3433247999999 222.31432,570.5009247999999 223.40944C568.9003647999999 225.5716,566.2889247999999 226.75096,564.0144447999999 226.75096C562.2454047999998 226.75096,560.7290847999999 226.04896,559.9990047999999 224.61688C559.7743647999998 224.05528,559.6620447999999 223.52176,559.6620447999999 222.93208C559.6620447999999 219.87136,563.0878047999998 216.47368,567.0190047999998 216.27712"></path></g></g><g class="vf-modifiers"></g></g><path stroke-width="1" fill="none" stroke="#000000" stroke-dasharray="none" d="M592.2788671999999 166.5L758.8456895999999 166.5"></path><path stroke-width="1" fill="none" stroke="#000000" stroke-dasharray="none" d="M592.2788671999999 176.5L758.8456895999999 176.5"></path><path stroke-width="1" fill="none" stroke="#000000" stroke-dasharray="none" d="M592.2788671999999 186.5L758.8456895999999 186.5"></path><path stroke-width="1" fill="none" stroke="#000000" stroke-dasharray="none" d="M592.2788671999999 196.5L758.8456895999999 196.5"></path><path stroke-width="1" fill="none" stroke="#000000" stroke-dasharray="none" d="M592.2788671999999 206.5L758.8456895999999 206.5"></path><rect stroke-width="0.3" fill="#000000" stroke="#000000" stroke-dasharray="none" x="753.8456895999999" y="166" width="1" height="41"></rect><rect stroke-width="0.3" fill="#000000" stroke="#000000" stroke-dasharray="none" x="756.8456895999999" y="166" width="3" height="41"></rect><path stroke-width="0.3" fill="#000000" stroke="none" stroke-dasharray="none" d="M752.8456895999999 182 A2 2 0 0 0 748.8456895999999 182M748.8456895999999 182 A2 2 0 0 0 752.8456895999999 182"></path><path stroke-width="0.3" fill="#000000" stroke="none" stroke-dasharray="none" d="M752.8456895999999 192 A2 2 0 0 0 748.8456895999999 192M748.8456895999999 192 A2 2 0 0 0 752.8456895999999 192"></path><g class="vf-stavenote" id="vf-auto2340195"><g class="vf-note" pointer-events="bounding-box"><g class="vf-stem" pointer-events="bounding-box"><path stroke-width="1.5" fill="none" stroke="#000000" stroke-dasharray="none" class="vf-stem" id="vf-auto2340195-stem" d="M620.5471071999999 211.5L620.5471071999999 176.5"></path></g><g class="vf-notehead" pointer-events="bounding-box"><path stroke-width="0.3" fill="#000000" stroke="none" stroke-dasharray="none" d="M609.2788671999999 211.5M616.6358271999999 206.27712C616.7481472 206.27712,616.9166271999999 206.27712,616.9447071999999 206.27712C616.9447071999999 206.27712,616.9727872 206.27712,616.9727872 206.27712C616.9727872 206.27712,617.1412671999999 206.27712,617.2816671999999 206.27712C619.8088671999999 206.41752,621.2971071999999 208.07424,621.2971071999999 210.15216C621.2971071999999 211.16304,620.9601471999999 212.31432,620.1177471999999 213.40944C618.5171872 215.5716,615.9057472 216.75096,613.6312671999999 216.75096C611.8622271999999 216.75096,610.3459071999999 216.04896,609.6158271999999 214.61688C609.3911871999999 214.05528,609.2788671999999 213.52176,609.2788671999999 212.93208C609.2788671999999 209.87136,612.7046271999999 206.47368,616.6358271999999 206.27712"></path></g></g><g class="vf-modifiers"></g></g><g class="vf-stavenote" id="vf-auto2340203"><g class="vf-note" pointer-events="bounding-box"><g class="vf-stem" pointer-events="bounding-box"><path stroke-width="1.5" fill="none" stroke="#000000" stroke-dasharray="none" class="vf-stem" id="vf-auto2340203-stem" d="M658.2971071999999 201.5L658.2971071999999 166.5"></path></g><g class="vf-notehead" pointer-events="bounding-box"><path stroke-width="0.3" fill="#000000" stroke="none" stroke-dasharray="none" d="M647.0288671999999 201.5M654.3858271999999 196.27712C654.4981472 196.27712,654.6666271999999 196.27712,654.6947071999999 196.27712C654.6947071999999 196.27712,654.7227872 196.27712,654.7227872 196.27712C654.7227872 196.27712,654.8912671999999 196.27712,655.0316671999999 196.27712C657.5588671999999 196.41752,659.0471071999999 198.07424,659.0471071999999 200.15216C659.0471071999999 201.16304,658.7101471999999 202.31432,657.8677471999999 203.40944C656.2671872 205.5716,653.6557472 206.75096,651.3812671999999 206.75096C649.6122271999999 206.75096,648.0959071999999 206.04896,647.3658271999999 204.61688C647.1411871999999 204.05528,647.0288671999999 203.52176,647.0288671999999 202.93208C647.0288671999999 199.87136,650.4546271999999 196.47368,654.3858271999999 196.27712"></path></g></g><g class="vf-modifiers"></g></g><path stroke-width="1" fill="none" stroke="#000000" stroke-dasharray="none" d="M681.7788671999999 216.5L699.7971071999999 216.5"></path><g class="vf-stavenote" id="vf-auto2340211"><g class="vf-note" pointer-events="bounding-box"><g class="vf-stem" pointer-events="bounding-box"><path stroke-width="1.5" fill="none" stroke="#000000" stroke-dasharray="none" class="vf-stem" id="vf-auto2340211-stem" d="M696.0471071999999 216.5L696.0471071999999 181.5"></path></g><g class="vf-notehead" pointer-events="bounding-box"><path stroke-width="0.3" fill="#000000" stroke="none" stroke-dasharray="none" d="M684.7788671999999 216.5M692.1358271999999 211.27712C692.2481472 211.27712,692.4166271999999 211.27712,692.4447071999999 211.27712C692.4447071999999 211.27712,692.4727872 211.27712,692.4727872 211.27712C692.4727872 211.27712,692.6412671999999 211.27712,692.7816671999999 211.27712C695.3088671999999 211.41752,696.7971071999999 213.07424,696.7971071999999 215.15216C696.7971071999999 216.16304,696.4601471999999 217.31432,695.6177471999999 218.40944C694.0171872 220.5716,691.4057472 221.75096,689.1312671999999 221.75096C687.3622271999999 221.75096,685.8459071999999 221.04896,685.1158271999999 219.61688C684.8911871999999 219.05528,684.7788671999999 218.52176,684.7788671999999 217.93208C684.7788671999999 214.87136,688.2046271999999 211.47368,692.1358271999999 211.27712"></path></g></g><g class="vf-modifiers"></g></g><g class="vf-stavenote" id="vf-auto2340219"><g class="vf-note" pointer-events="bounding-box"><g class="vf-stem" pointer-events="bounding-box"><path stroke-width="1.5" fill="none" stroke="#000000" stroke-dasharray="none" class="vf-stem" id="vf-auto2340219-stem" d="M733.7971071999999 191.5L733.7971071999999 156.5"></path></g><g class="vf-notehead" pointer-events="bounding-box"><path stroke-width="0.3" fill="#000000" stroke="none" stroke-dasharray="none" d="M722.5288671999999 191.5M729.8858271999999 186.27712C729.9981472 186.27712,730.1666271999999 186.27712,730.1947071999999 186.27712C730.1947071999999 186.27712,730.2227872 186.27712,730.2227872 186.27712C730.2227872 186.27712,730.3912671999999 186.27712,730.5316671999999 186.27712C733.0588671999999 186.41752,734.5471071999999 188.07424,734.5471071999999 190.15216C734.5471071999999 191.16304,734.2101471999999 192.31432,733.3677471999999 193.40944C731.7671872 195.5716,729.1557472 196.75096,726.8812671999999 196.75096C725.1122271999999 196.75096,723.5959071999999 196.04896,722.8658271999999 194.61688C722.6411871999999 194.05528,722.5288671999999 193.52176,722.5288671999999 192.93208C722.5288671999999 189.87136,725.9546271999999 186.47368,729.8858271999999 186.27712"></path></g></g><g class="vf-modifiers"></g></g><g class="vf-text"><text stroke-width="0.3" fill="#000000" stroke="none" stroke-dasharray="none" font-family="Times New Roman" font-size="23px" font-weight="bold" font-style="italic" x="159.9784" y="240.5">pp</text></g><path stroke-width="1" fill="none" stroke="#000000" stroke-dasharray="none" d="M70 269.3L291.74522239999993 269.3"></path><path stroke-width="1" fill="none" stroke="#000000" stroke-dasharray="none" d="M70 279.3L291.74522239999993 279.3"></path><path stroke-width="1" fill="none" stroke="#000000" stroke-dasharray="none" d="M70 289.3L291.74522239999993 289.3"></path><path stroke-width="1" fill="none" stroke="#000000" stroke-dasharray="none" d="M70 299.3L291.74522239999993 299.3"></path><path stroke-width="1" fill="none" stroke="#000000" stroke-dasharray="none" d="M70 309.3L291.74522239999993 309.3"></path><rect stroke-width="0.3" fill="#000000" stroke="#000000" stroke-dasharray="none" x="291.74522239999993" y="268.8" width="1" height="41"></rect><g class="vf-clef"><path stroke-width="0.3" fill="#000000" stroke="none" stroke-dasharray="none" d="M75 279.3M83.8416 269.2488C84.072 269.19120000000004,84.3024 269.19120000000004,84.5616 269.19120000000004C85.5696 269.19120000000004,86.7504 269.3064,87.7584 269.50800000000004C92.4816 270.48720000000003,95.736 273.684,96.3408 277.94640000000004C96.3984 278.4072,96.4272 278.8392,96.4272 279.3C96.4272 281.892,95.5344 285.2328,94.008 288.0264C90.3792 294.5928,83.7552 299.31600000000003,75.8064 301.044C75.6624 301.044,75.5472 301.07280000000003,75.4032 301.07280000000003C75.1152 301.07280000000003,74.9712 300.90000000000003,74.9712 300.6408C74.9712 300.3528,75.0288 300.26640000000003,75.6048 300.036C84.7056 296.60880000000003,90.7824 289.2072,91.3296 280.9128C91.3584 280.4808,91.3584 279.9912,91.3584 279.6168C91.3584 275.58480000000003,90.12 272.5896,87.7296 271.092C86.6928 270.4296,85.5696 270.1128,84.36 270.1128C81.6816 270.1128,78.9456 271.6392,77.6784 274.2024C77.6208 274.404,77.4192 274.836,77.4192 274.8648C77.4192 274.8648,77.4192 274.8648,77.4192 274.8648C77.4192 274.8648,77.448 274.836,77.5344 274.8072C78.168 274.404,78.8592 274.2024,79.5792 274.2024C80.5872 274.2024,81.6528 274.6344,82.4016 275.4408C83.0928 276.1896,83.4672 277.1976,83.4672 278.11920000000003C83.4672 279.9912,82.0848 281.892,79.9248 282.09360000000004C79.7808 282.09360000000004,79.6368 282.1224,79.4928 282.1224C77.1024 282.1224,75.1728 279.9336,75.1728 277.16880000000003C75.1728 277.1112,75.1728 277.0248,75.1728 276.99600000000004C75.288 272.87760000000003,79.0608 269.50800000000004,83.8416 269.2488M99.1632 273.108C99.2208 273.0792,99.2496 273.0792,99.336 273.0792C99.5376 273.0792,99.768 273.108,99.8256 273.16560000000004C100.54560000000001 273.3672,100.8912 274.0008,100.8912 274.60560000000004C100.8912 275.124,100.632 275.6424,100.11359999999999 275.9304C99.912 276.0744,99.6528 276.1032,99.39359999999999 276.1032C98.9904 276.1032,98.5584 275.9304,98.2704 275.55600000000004C98.03999999999999 275.26800000000003,97.9248 274.95120000000003,97.9248 274.6344C97.9248 273.9144,98.3856 273.19440000000003,99.1632 273.108M99.1632 282.5256C99.2208 282.5256,99.2496 282.5256,99.336 282.5256C99.5376 282.5256,99.768 282.5544,99.8256 282.612C100.54560000000001 282.8136,100.8912 283.4472,100.8912 284.052C100.8912 284.5704,100.632 285.0888,100.11359999999999 285.348C99.912 285.492,99.6528 285.5496,99.39359999999999 285.5496C98.9904 285.5496,98.5584 285.348,98.2704 285.0024C98.03999999999999 284.7144,97.9248 284.3976,97.9248 284.052C97.9248 283.332,98.3856 282.6408,99.1632 282.5256"></path></g><path stroke-width="0.3" fill="#000000" stroke="none" stroke-dasharray="none" d="M116 289.3M121.0112 270.9544C121.04 270.92560000000003,121.4432 270.92560000000003,122.6816 270.92560000000003C123.056 270.92560000000003,123.4592 270.92560000000003,123.9776 270.92560000000003L126.8864 270.92560000000003L126.9728 271.012C127.1168 271.0984,127.2032 271.24240000000003,127.2032 271.3576C127.2032 271.5304,127.1168 271.6456,127.0016 271.7608C126.9728 271.8472,126.7136 272.0776,126.5408 272.33680000000004L125.0144 274.09360000000004L123.056 276.3112L122.0192 277.492L120.464 279.2776L118.4192 281.6104C118.0736 282.0424,117.6992 282.38800000000003,117.6992 282.38800000000003C117.6992 282.38800000000003,117.6992 282.38800000000003,117.6992 282.38800000000003C117.6992 282.4456,117.9584 282.4456,120.3488 282.4456L122.9696 282.4456L122.9696 280.5736C122.9696 278.6728,122.9696 278.644,122.9984 278.6152C123.056 278.5288,123.3152 278.212,124.3232 277.0312L124.7264 276.5992L125.1296 276.16720000000004L125.7344 275.38960000000003L126.368 274.72720000000004L126.6848 274.324C126.8 274.1512,126.9728 274.1224,127.1168 274.1224C127.28960000000001 274.1224,127.4336 274.2088,127.52 274.3528C127.5488 274.4392,127.5488 274.4968,127.5488 276.628C127.5488 277.11760000000004,127.5488 277.7224,127.5488 278.4424L127.5488 282.4456L128.2688 282.4456C128.9312 282.4456,128.96 282.4456,129.0464 282.4744C129.2768 282.56080000000003,129.392 282.7912,129.392 283.0504C129.392 283.19440000000003,129.3632 283.3672,129.248 283.4824C129.0752 283.6264,129.0464 283.6264,128.2688 283.6264L127.5488 283.6264L127.5488 284.116C127.5776 285.58480000000003,127.8656 286.1608,128.9888 286.7656C129.392 286.9672,129.4784 287.0248,129.4784 287.31280000000004C129.4784 287.5144,129.42079999999999 287.6008,129.2768 287.716L129.1904 287.7448L125.2448 287.7448L121.328 287.7448L121.2416 287.716C121.0688 287.6008,121.04 287.5144,121.04 287.31280000000004C121.04 287.0248,121.0688 286.9672,121.5008 286.7656C122.624 286.1608,122.912 285.58480000000003,122.912 284.116L122.912 283.6264L119.6 283.6264C118.9952 283.684,118.5056 283.684,118.1024 283.684C116.288 283.684,116.2592 283.6264,116.2304 283.6264C116.0576 283.5688,116 283.396,116 283.19440000000003C116 283.19440000000003,116 283.19440000000003,116 283.19440000000003C116 282.9928,116 282.9928,116.576 282.3304C118.9952 279.3928,120.6944 275.1304,120.6944 271.732C120.6944 271.2136,120.7808 271.0408,121.0112 270.9544M122.7392 289.3288L122.768 289.3288L122.6816 289.3288L122.7392 289.3288M122.7392 269.9176L122.768 269.9176L122.6816 269.9176L122.7392 269.9176"></path><path stroke-width="0.3" fill="#000000" stroke="none" stroke-dasharray="none" d="M116 309.3M121.0112 290.9544C121.04 290.92560000000003,121.4432 290.92560000000003,122.6816 290.92560000000003C123.056 290.92560000000003,123.4592 290.92560000000003,123.9776 290.92560000000003L126.8864 290.92560000000003L126.9728 291.012C127.1168 291.0984,127.2032 291.24240000000003,127.2032 291.3576C127.2032 291.5304,127.1168 291.6456,127.0016 291.7608C126.9728 291.8472,126.7136 292.0776,126.5408 292.33680000000004L125.0144 294.09360000000004L123.056 296.3112L122.0192 297.492L120.464 299.2776L118.4192 301.6104C118.0736 302.0424,117.6992 302.38800000000003,117.6992 302.38800000000003C117.6992 302.38800000000003,117.6992 302.38800000000003,117.6992 302.38800000000003C117.6992 302.4456,117.9584 302.4456,120.3488 302.4456L122.9696 302.4456L122.9696 300.5736C122.9696 298.6728,122.9696 298.644,122.9984 298.6152C123.056 298.5288,123.3152 298.212,124.3232 297.0312L124.7264 296.5992L125.1296 296.16720000000004L125.7344 295.38960000000003L126.368 294.72720000000004L126.6848 294.324C126.8 294.1512,126.9728 294.1224,127.1168 294.1224C127.28960000000001 294.1224,127.4336 294.2088,127.52 294.3528C127.5488 294.4392,127.5488 294.4968,127.5488 296.628C127.5488 297.11760000000004,127.5488 297.7224,127.5488 298.4424L127.5488 302.4456L128.2688 302.4456C128.9312 302.4456,128.96 302.4456,129.0464 302.4744C129.2768 302.56080000000003,129.392 302.7912,129.392 303.0504C129.392 303.19440000000003,129.3632 303.3672,129.248 303.4824C129.0752 303.6264,129.0464 303.6264,128.2688 303.6264L127.5488 303.6264L127.5488 304.116C127.5776 305.58480000000003,127.8656 306.1608,128.9888 306.7656C129.392 306.9672,129.4784 307.0248,129.4784 307.31280000000004C129.4784 307.5144,129.42079999999999 307.6008,129.2768 307.716L129.1904 307.7448L125.2448 307.7448L121.328 307.7448L121.2416 307.716C121.0688 307.6008,121.04 307.5144,121.04 307.31280000000004C121.04 307.0248,121.0688 306.9672,121.5008 306.7656C122.624 306.1608,122.912 305.58480000000003,122.912 304.116L122.912 303.6264L119.6 303.6264C118.9952 303.684,118.5056 303.684,118.1024 303.684C116.288 303.684,116.2592 303.6264,116.2304 303.6264C116.0576 303.5688,116 303.396,116 303.19440000000003C116 303.19440000000003,116 303.19440000000003,116 303.19440000000003C116 302.9928,116 302.9928,116.576 302.3304C118.9952 299.3928,120.6944 295.1304,120.6944 291.732C120.6944 291.2136,120.7808 291.0408,121.0112 290.9544M122.7392 309.3288L122.768 309.3288L122.6816 309.3288L122.7392 309.3288M122.7392 289.9176L122.768 289.9176L122.6816 289.9176L122.7392 289.9176"></path><g class="vf-stavenote" id="vf-auto2340087"><g class="vf-note" pointer-events="bounding-box"><g class="vf-stem" pointer-events="bounding-box"><path stroke-width="1.5" fill="none" stroke="#000000" stroke-dasharray="none" class="vf-stem" id="vf-auto2340087-stem" d="M152.74663999999999 304.3L152.74663999999999 269.3"></path></g><g class="vf-notehead" pointer-events="bounding-box"><path stroke-width="0.3" fill="#000000" stroke="none" stroke-dasharray="none" d="M141.4784 304.3M148.83535999999998 299.07712000000004C148.94768 299.07712000000004,149.11615999999998 299.07712000000004,149.14424 299.07712000000004C149.14424 299.07712000000004,149.17231999999998 299.07712000000004,149.17231999999998 299.07712000000004C149.17231999999998 299.07712000000004,149.3408 299.07712000000004,149.4812 299.07712000000004C152.0084 299.21752000000004,153.49663999999999 300.87424,153.49663999999999 302.95216C153.49663999999999 303.96304000000003,153.15967999999998 305.11432,152.31727999999998 306.20944000000003C150.71671999999998 308.3716,148.10528 309.55096000000003,145.83079999999998 309.55096000000003C144.06176 309.55096000000003,142.54543999999999 308.84896000000003,141.81536 307.41688C141.59072 306.85528,141.4784 306.32176,141.4784 305.73208C141.4784 302.67136,144.90416 299.27368,148.83535999999998 299.07712000000004"></path></g></g><g class="vf-modifiers"></g></g><g class="vf-stavenote" id="vf-auto2340095"><g class="vf-note" pointer-events="bounding-box"><g class="vf-stem" pointer-events="bounding-box"><path stroke-width="1.5" fill="none" stroke="#000000" stroke-dasharray="none" class="vf-stem" id="vf-auto2340095-stem" d="M190.62704 289.3L190.62704 254.3"></path></g><g class="vf-notehead" pointer-events="bounding-box"><path stroke-width="0.3" fill="#000000" stroke="none" stroke-dasharray="none" d="M179.3588 289.3M186.71576 284.07712000000004C186.82808 284.07712000000004,186.99656 284.07712000000004,187.02464 284.07712000000004C187.02464 284.07712000000004,187.05272 284.07712000000004,187.05272 284.07712000000004C187.05272 284.07712000000004,187.2212 284.07712000000004,187.3616 284.07712000000004C189.8888 284.21752000000004,191.37704 285.87424,191.37704 287.95216C191.37704 288.96304000000003,191.04008 290.11432,190.19768 291.20944000000003C188.59712 293.3716,185.98568 294.55096000000003,183.7112 294.55096000000003C181.94216 294.55096000000003,180.42584 293.84896000000003,179.69576 292.41688C179.47112 291.85528,179.3588 291.32176,179.3588 290.73208C179.3588 287.67136,182.78456 284.27368,186.71576 284.07712000000004"></path></g></g><g class="vf-modifiers"></g></g><g class="vf-stavenote" id="vf-auto2340103"><g class="vf-note" pointer-events="bounding-box"><g class="vf-stem" pointer-events="bounding-box"><path stroke-width="1.5" fill="none" stroke="#000000" stroke-dasharray="none" class="vf-stem" id="vf-auto2340103-stem" d="M228.50743999999997 299.3L228.50743999999997 264.3"></path></g><g class="vf-notehead" pointer-events="bounding-box"><path stroke-width="0.3" fill="#000000" stroke="none" stroke-dasharray="none" d="M217.23919999999998 299.3M224.59615999999997 294.07712000000004C224.70847999999998 294.07712000000004,224.87696 294.07712000000004,224.90503999999999 294.07712000000004C224.90503999999999 294.07712000000004,224.93311999999997 294.07712000000004,224.93311999999997 294.07712000000004C224.93311999999997 294.07712000000004,225.1016 294.07712000000004,225.242 294.07712000000004C227.76919999999998 294.21752000000004,229.25743999999997 295.87424,229.25743999999997 297.95216C229.25743999999997 298.96304000000003,228.92048 300.11432,228.07807999999997 301.20944000000003C226.47751999999997 303.3716,223.86607999999998 304.55096000000003,221.59159999999997 304.55096000000003C219.82255999999998 304.55096000000003,218.30623999999997 303.84896000000003,217.57616 302.41688C217.35152 301.85528,217.23919999999998 301.32176,217.23919999999998 300.73208C217.23919999999998 297.67136,220.66495999999998 294.27368,224.59615999999997 294.07712000000004"></path></g></g><g class="vf-modifiers"></g></g><g class="vf-stavenote" id="vf-auto2340111"><g class="vf-note" pointer-events="bounding-box"><g class="vf-stem" pointer-events="bounding-box"><path stroke-width="1.5" fill="none" stroke="#000000" stroke-dasharray="none" class="vf-stem" id="vf-auto2340111-stem" d="M255.8696 269.3L255.8696 304.3"></path></g><g class="vf-notehead" pointer-events="bounding-box"><path stroke-width="0.3" fill="#000000" stroke="none" stroke-dasharray="none" d="M255.1196 269.3M262.47656 264.07712000000004C262.58888 264.07712000000004,262.75736 264.07712000000004,262.78544 264.07712000000004C262.78544 264.07712000000004,262.81352 264.07712000000004,262.81352 264.07712000000004C262.81352 264.07712000000004,262.98199999999997 264.07712000000004,263.12239999999997 264.07712000000004C265.64959999999996 264.21752000000004,267.13784 265.87424,267.13784 267.95216C267.13784 268.96304000000003,266.80088 270.11432,265.95848 271.20944000000003C264.35792 273.3716,261.74648 274.55096000000003,259.472 274.55096000000003C257.70296 274.55096000000003,256.18664 273.84896000000003,255.45656 272.41688C255.23192 271.85528,255.1196 271.32176,255.1196 270.73208C255.1196 267.67136,258.54536 264.27368,262.47656 264.07712000000004"></path></g></g><g class="vf-modifiers"></g></g><rect stroke-width="0.3" fill="#000000" stroke="#000000" stroke-dasharray="none" x="291.74522239999993" y="166.5" width="1" height="143.8"></rect><rect stroke-width="0.3" fill="#000000" stroke="#000000" stroke-dasharray="none" x="70" y="166.5" width="1" height="143.8"></rect><path stroke-width="1" fill="none" stroke="#000000" stroke-dasharray="none" d="M291.74522239999993 269.3L439.9120447999999 269.3"></path><path stroke-width="1" fill="none" stroke="#000000" stroke-dasharray="none" d="M291.74522239999993 279.3L439.9120447999999 279.3"></path><path stroke-width="1" fill="none" stroke="#000000" stroke-dasharray="none" d="M291.74522239999993 289.3L439.9120447999999 289.3"></path><path stroke-width="1" fill="none" stroke="#000000" stroke-dasharray="none" d="M291.74522239999993 299.3L439.9120447999999 299.3"></path><path stroke-width="1" fill="none" stroke="#000000" stroke-dasharray="none" d="M291.74522239999993 309.3L439.9120447999999 309.3"></path><rect stroke-width="0.3" fill="#000000" stroke="#000000" stroke-dasharray="none" x="439.9120447999999" y="268.8" width="1" height="41"></rect><g class="vf-stavenote" id="vf-auto2340139"><g class="vf-note" pointer-events="bounding-box"><g class="vf-stem" pointer-events="bounding-box"><path stroke-width="1.5" fill="none" stroke="#000000" stroke-dasharray="none" class="vf-stem" id="vf-auto2340139-stem" d="M353.2634623999999 309.3L353.2634623999999 274.3"></path></g><g class="vf-notehead" pointer-events="bounding-box"><path stroke-width="0.3" fill="#000000" stroke="none" stroke-dasharray="none" d="M341.99522239999993 309.3M349.35218239999995 304.07712000000004C349.46450239999996 304.07712000000004,349.63298239999995 304.07712000000004,349.66106239999993 304.07712000000004C349.66106239999993 304.07712000000004,349.6891423999999 304.07712000000004,349.6891423999999 304.07712000000004C349.6891423999999 304.07712000000004,349.8576223999999 304.07712000000004,349.9980223999999 304.07712000000004C352.52522239999996 304.21752000000004,354.0134623999999 305.87424,354.0134623999999 307.95216C354.0134623999999 308.96304000000003,353.67650239999995 310.11432,352.83410239999995 311.20944000000003C351.2335423999999 313.3716,348.6221023999999 314.55096000000003,346.3476223999999 314.55096000000003C344.57858239999996 314.55096000000003,343.06226239999995 313.84896000000003,342.3321823999999 312.41688C342.10754239999994 311.85528,341.99522239999993 311.32176,341.99522239999993 310.73208C341.99522239999993 307.67136,345.42098239999996 304.27368,349.35218239999995 304.07712000000004"></path></g></g><g class="vf-modifiers"></g></g><g class="vf-stavenote" id="vf-auto2340147"><g class="vf-note" pointer-events="bounding-box"><g class="vf-stem" pointer-events="bounding-box"><path stroke-width="1.5" fill="none" stroke="#000000" stroke-dasharray="none" class="vf-stem" id="vf-auto2340147-stem" d="M409.24522239999993 284.3L409.24522239999993 319.3"></path></g><g class="vf-notehead" pointer-events="bounding-box"><path stroke-width="0.3" fill="#000000" stroke="none" stroke-dasharray="none" d="M408.49522239999993 284.3M415.85218239999995 279.07712000000004C415.96450239999996 279.07712000000004,416.13298239999995 279.07712000000004,416.16106239999993 279.07712000000004C416.16106239999993 279.07712000000004,416.1891423999999 279.07712000000004,416.1891423999999 279.07712000000004C416.1891423999999 279.07712000000004,416.3576223999999 279.07712000000004,416.4980223999999 279.07712000000004C419.02522239999996 279.21752000000004,420.5134623999999 280.87424,420.5134623999999 282.95216C420.5134623999999 283.96304000000003,420.17650239999995 285.11432,419.33410239999995 286.20944000000003C417.7335423999999 288.3716,415.1221023999999 289.55096000000003,412.8476223999999 289.55096000000003C411.07858239999996 289.55096000000003,409.56226239999995 288.84896000000003,408.8321823999999 287.41688C408.60754239999994 286.85528,408.49522239999993 286.32176,408.49522239999993 285.73208C408.49522239999993 282.67136,411.92098239999996 279.27368,415.85218239999995 279.07712000000004"></path></g></g><g class="vf-modifiers"></g></g><rect stroke-width="0.3" fill="#000000" stroke="#000000" stroke-dasharray="none" x="439.9120447999999" y="166.5" width="1" height="143.8"></rect><path stroke-width="1" fill="none" stroke="#000000" stroke-dasharray="none" d="M439.91204479999993 269.3L592.2788671999999 269.3"></path><path stroke-width="1" fill="none" stroke="#000000" stroke-dasharray="none" d="M439.91204479999993 279.3L592.2788671999999 279.3"></path><path stroke-width="1" fill="none" stroke="#000000" stroke-dasharray="none" d="M439.91204479999993 289.3L592.2788671999999 289.3"></path><path stroke-width="1" fill="none" stroke="#000000" stroke-dasharray="none" d="M439.91204479999993 299.3L592.2788671999999 299.3"></path><path stroke-width="1" fill="none" stroke="#000000" stroke-dasharray="none" d="M439.91204479999993 309.3L592.2788671999999 309.3"></path><rect stroke-width="0.3" fill="#000000" stroke="#000000" stroke-dasharray="none" x="592.2788671999999" y="268.8" width="1" height="41"></rect><g class="vf-stavenote" id="vf-auto2340184"><g class="vf-note" pointer-events="bounding-box"><g class="vf-stem" pointer-events="bounding-box"><path stroke-width="1.5" fill="none" stroke="#000000" stroke-dasharray="none" class="vf-stem" id="vf-auto2340184-stem" d="M491.91204479999993 284.3L491.91204479999993 319.3"></path></g><g class="vf-notehead" pointer-events="bounding-box"><path stroke-width="0.3" fill="#000000" stroke="none" stroke-dasharray="none" d="M491.16204479999993 284.3M498.51900479999995 279.07712000000004C498.63132479999996 279.07712000000004,498.79980479999995 279.07712000000004,498.82788479999994 279.07712000000004C498.82788479999994 279.07712000000004,498.8559647999999 279.07712000000004,498.8559647999999 279.07712000000004C498.8559647999999 279.07712000000004,499.0244447999999 279.07712000000004,499.1648447999999 279.07712000000004C501.69204479999996 279.21752000000004,503.1802847999999 280.87424,503.1802847999999 282.95216C503.1802847999999 283.96304000000003,502.84332479999995 285.11432,502.00092479999995 286.20944000000003C500.4003647999999 288.3716,497.7889247999999 289.55096000000003,495.5144447999999 289.55096000000003C493.74540479999996 289.55096000000003,492.22908479999995 288.84896000000003,491.4990047999999 287.41688C491.27436479999994 286.85528,491.16204479999993 286.32176,491.16204479999993 285.73208C491.16204479999993 282.67136,494.58780479999996 279.27368,498.51900479999995 279.07712000000004"></path></g></g><g class="vf-modifiers"></g></g><rect stroke-width="0.3" fill="#000000" stroke="#000000" stroke-dasharray="none" x="592.2788671999999" y="166.5" width="1" height="143.8"></rect><path stroke-width="1" fill="none" stroke="#000000" stroke-dasharray="none" d="M592.2788671999999 269.3L758.8456895999999 269.3"></path><path stroke-width="1" fill="none" stroke="#000000" stroke-dasharray="none" d="M592.2788671999999 279.3L758.8456895999999 279.3"></path><path stroke-width="1" fill="none" stroke="#000000" stroke-dasharray="none" d="M592.2788671999999 289.3L758.8456895999999 289.3"></path><path stroke-width="1" fill="none" stroke="#000000" stroke-dasharray="none" d="M592.2788671999999 299.3L758.8456895999999 299.3"></path><path stroke-width="1" fill="none" stroke="#000000" stroke-dasharray="none" d="M592.2788671999999 309.3L758.8456895999999 309.3"></path><rect stroke-width="0.3" fill="#000000" stroke="#000000" stroke-dasharray="none" x="753.8456895999999" y="268.8" width="1" height="41"></rect><rect stroke-width="0.3" fill="#000000" stroke="#000000" stroke-dasharray="none" x="756.8456895999999" y="268.8" width="3" height="41"></rect><path stroke-width="0.3" fill="#000000" stroke="none" stroke-dasharray="none" d="M752.8456895999999 284.8 A2 2 0 0 0 748.8456895999999 284.8M748.8456895999999 284.8 A2 2 0 0 0 752.8456895999999 284.8"></path><path stroke-width="0.3" fill="#000000" stroke="none" stroke-dasharray="none" d="M752.8456895999999 294.8 A2 2 0 0 0 748.8456895999999 294.8M748.8456895999999 294.8 A2 2 0 0 0 752.8456895999999 294.8"></path><rect stroke-width="0.3" fill="#000000" stroke="#000000" stroke-dasharray="none" x="753.8456895999999" y="166.5" width="1" height="143.8"></rect><rect stroke-width="0.3" fill="#000000" stroke="#000000" stroke-dasharray="none" x="756.8456895999999" y="166.5" width="3" height="143.8"></rect><path stroke-width="0.3" fill="#000000" stroke="none" stroke-dasharray="none" d="M68 166.5C45.2 195.26,81.2 218.987,56 238.4C81.2 257.813,45.2 281.54,68 310.3C44 281.54,72.8 257.813,56 238.4C72.8 218.987,44 195.26,68 166.5"></path><path stroke-width="1" fill="none" stroke="#000000" stroke-dasharray="none" d="M68 166.5C45.2 195.26,81.2 218.987,56 238.4C81.2 257.813,45.2 281.54,68 310.3C44 281.54,72.8 257.813,56 238.4C72.8 218.987,44 195.26,68 166.5"></path><g class="vf-text"><text stroke-width="0.3" fill="#000000" stroke="none" stroke-dasharray="none" font-family="Times New Roman" font-size="15px" font-weight="normal" font-style="normal" x="436.41204479999993" y="163.5">3</text></g></svg>