<svg xmlns="http://www.w3.org/2000/svg"  width="1470" height="394.5999999999999" viewBox="0 0 1470 394.5999999999999"><path stroke-width="1" fill="none" stroke="#000000" stroke-dasharray="none" d="M70 166.5L295.9452224 166.5"></path><path stroke-width="1" fill="none" stroke="#000000" stroke-dasharray="none" d="M70 176.5L295.9452224 176.5"></path><path stroke-width="1" fill="none" stroke="#000000" stroke-dasharray="none" d="M70 186.5L295.9452224 186.5"></path><path stroke-width="1" fill="none" stroke="#000000" stroke-dasharray="none" d="M70 196.5L295.9452224 196.5"></path><path stroke-width="1" fill="none" stroke="#000000" stroke-dasharray="none" d="M70 206.5L295.9452224 206.5"></path><rect stroke-width="0.3" fill="#000000" stroke="#000000" stroke-dasharray="none" x="295.9452224" y="166" width="1" height="41"></rect><g class="vf-clef"><path stroke-width="0.3" fill="#000000" stroke="none" stroke-dasharray="none" d="M75 196.5M89.0544 153.3288C89.112 153.3,89.1696 153.3,89.256 153.3C89.6016 153.3,90.0048 153.588,90.5808 154.308C92.9136 156.9864,94.5552 161.652,94.5552 165.4536C94.5552 165.7416,94.4976 165.972,94.4976 166.26C94.2384 170.7816,92.3952 174.4968,88.7376 178.0104L87.7584 178.9608L87.4128 179.3352L87.4128 179.4504L87.6144 180.3144L87.9312 181.8696L88.248 183.3096C88.68 185.268,88.8528 186.276,88.8528 186.276C88.8528 186.276,88.8528 186.276,88.8528 186.276C88.8528 186.276,88.968 186.276,89.112 186.2472C89.256 186.2472,89.7168 186.1896,90.2064 186.1896C90.55199999999999 186.1896,90.8976 186.2472,91.0704 186.2472C95.1312 186.7656,98.2704 189.6744,99.1632 193.764C99.336 194.4264,99.39359999999999 195.1464,99.39359999999999 195.8664C99.39359999999999 199.7544,97.0608 203.4696,93.1728 205.2264C92.94239999999999 205.3704,92.856 205.3992,92.856 205.3992L92.856 205.428C92.856 205.428,93.0288 206.0904,93.1728 206.8392L93.6048 209.028L94.008 210.7848C94.2384 211.908,94.3536 212.7144,94.3536 213.4344C94.3536 214.06799999999998,94.2672 214.644,94.1232 215.3064C93.144 219.3096,89.6592 221.7,86.0304 221.7C84.2448 221.7,82.4016 221.124,80.7888 219.828C79.3488 218.6184,78.7152 217.524,78.7152 216.084C78.7152 213.5496,80.76 211.764,82.8912 211.764C83.64 211.764,84.3888 211.99439999999998,85.1088 212.4264C86.3184 213.2616,86.8656 214.5288,86.8656 215.7672C86.8656 217.668,85.5408 219.54,83.2656 219.684L83.0352 219.684L83.208 219.79919999999998C84.1584 220.2024,85.1088 220.404,86.0304 220.404C88.3632 220.404,90.55199999999999 219.2232,91.8768 217.1784C92.62559999999999 216.0264,93.0288 214.6728,93.0288 213.3192C93.0288 212.8008,92.94239999999999 212.2824,92.8272 211.7064C92.8272 211.6488,92.74080000000001 211.188,92.62559999999999 210.756C91.992 207.6456,91.6176 205.8312,91.6176 205.8312C91.6176 205.8312,91.6176 205.8312,91.6176 205.8312C91.56 205.8312,91.4448 205.8312,91.3584 205.8888C91.0704 205.9464,90.4656 206.0904,90.2064 206.1192C89.5728 206.2056,88.968 206.2344,88.392 206.2344C82.74719999999999 206.2344,77.5056 202.4328,75.6912 196.8168C75.2304 195.3192,74.9712 193.8216,74.9712 192.324C74.9712 189.3288,75.9216 186.3912,77.7648 183.7704C79.7808 180.9192,81.7968 178.4712,84.2736 175.9368L85.13759999999999 175.044L84.936 173.9784L84.5616 172.2216L84.072 169.9752C83.928 169.14,83.7552 168.3336,83.7264 168.1608C83.5824 167.2104,83.496 166.2888,83.496 165.3384C83.496 161.7096,84.6768 158.22480000000002,86.8944 155.4312C87.5568 154.5672,88.7376 153.4152,89.0544 153.3288M90.8112 159.0312C90.7536 159.0312,90.6672 159.0312,90.5808 159.0312C89.4 159.0312,87.8736 160.1256,86.8368 161.7384C85.7712 163.32240000000002,85.224 165.4248,85.224 167.5848C85.224 168.1608,85.25280000000001 168.7656,85.3392 169.3704C85.4256 169.8024,85.45439999999999 170.0904,85.6848 171.12720000000002L86.088 172.9416C86.2032 173.4888,86.28960000000001 173.92079999999999,86.28960000000001 173.9784L86.28960000000001 173.9784C86.3184 173.9784,87.2112 172.9992,87.4992 172.6536C90.3792 169.3992,92.1072 165.972,92.4816 162.948C92.5104 162.66,92.5104 162.4296,92.5104 162.1416C92.5104 161.24880000000002,92.3952 160.38479999999998,92.1936 159.924C91.9632 159.4632,91.4448 159.0888,90.8112 159.0312M86.4624 181.2936C86.4048 180.8904,86.3184 180.5736,86.3184 180.516C86.3184 180.516,86.3184 180.516,86.28960000000001 180.516C86.232 180.516,84.9936 181.956,84.1296 182.964C82.6608 184.7496,81.1056 186.8808,80.472 187.9176C79.2624 189.9624,78.6576 192.2376,78.6576 194.484C78.6576 195.9528,78.9456 197.364,79.464 198.7176C81.0192 202.7208,84.5904 205.2264,88.4784 205.2264C88.9392 205.2264,89.4576 205.1976,89.9472 205.1112C90.5808 204.996,91.3584 204.7656,91.3584 204.6792L91.3584 204.6792C91.3584 204.6792,91.3008 204.3912,91.2144 204.0744L90.3792 199.956L89.7168 196.8744L89.2848 194.7432L88.824 192.6696C88.5936 191.4312,88.5072 191.1144,88.5072 191.1144C88.5072 191.1144,88.5072 191.0856,88.4784 191.0856C88.3056 191.0856,87.384 191.5464,86.9808 191.8344C85.4832 192.8712,84.7056 194.5128,84.7056 196.1256C84.7056 197.652,85.45439999999999 199.1784,86.8944 200.0712C87.2112 200.2728,87.3264 200.4456,87.3264 200.6472C87.3264 200.676,87.3264 200.7624,87.3264 200.7912C87.2688 201.1368,87.0672 201.2808,86.7792 201.2808C86.664 201.2808,86.52 201.252,86.3472 201.1656C83.6976 200.0136,81.912 197.2776,81.912 194.2824L81.912 194.2824C81.912 190.8264,84.072 187.8312,87.384 186.6504L87.5568 186.5928L87.2688 185.1528L86.4624 181.2936M90.7824 190.9128C90.55199999999999 190.88400000000001,90.3216 190.88400000000001,90.1488 190.88400000000001C90.0912 190.88400000000001,90.0048 190.88400000000001,89.9472 190.88400000000001L89.8032 190.88400000000001L89.9184 191.4024L90.5232 194.2248L90.8976 196.068L91.3008 197.8824L92.1072 201.8856L92.424 203.412C92.5392 203.8152,92.5968 204.1608,92.62559999999999 204.1608C92.62559999999999 204.1608,92.62559999999999 204.1608,92.62559999999999 204.1608C92.6544 204.1608,93.144 203.8728,93.4608 203.6424C94.9296 202.6056,96.024 200.9928,96.4272 199.3224C96.5712 198.7752,96.6288 198.1992,96.6288 197.652C96.6288 194.3112,94.152 191.2872,90.7824 190.9128"></path></g><path stroke-width="0.3" fill="#000000" stroke="none" stroke-dasharray="none" d="M116 186.5M121.0112 168.1544C121.04 168.1256,121.4432 168.1256,122.6816 168.1256C123.056 168.1256,123.4592 168.1256,123.9776 168.1256L126.8864 168.1256L126.9728 168.212C127.1168 168.29840000000002,127.2032 168.4424,127.2032 168.5576C127.2032 168.7304,127.1168 168.8456,127.0016 168.9608C126.9728 169.0472,126.7136 169.2776,126.5408 169.5368L125.0144 171.2936L123.056 173.5112L122.0192 174.692L120.464 176.4776L118.4192 178.8104C118.0736 179.2424,117.6992 179.588,117.6992 179.588C117.6992 179.588,117.6992 179.588,117.6992 179.588C117.6992 179.6456,117.9584 179.6456,120.3488 179.6456L122.9696 179.6456L122.9696 177.7736C122.9696 175.8728,122.9696 175.844,122.9984 175.8152C123.056 175.7288,123.3152 175.412,124.3232 174.2312L124.7264 173.7992L125.1296 173.3672L125.7344 172.5896L126.368 171.9272L126.6848 171.524C126.8 171.3512,126.9728 171.3224,127.1168 171.3224C127.28960000000001 171.3224,127.4336 171.4088,127.52 171.5528C127.5488 171.6392,127.5488 171.6968,127.5488 173.828C127.5488 174.3176,127.5488 174.9224,127.5488 175.6424L127.5488 179.6456L128.2688 179.6456C128.9312 179.6456,128.96 179.6456,129.0464 179.6744C129.2768 179.7608,129.392 179.9912,129.392 180.2504C129.392 180.3944,129.3632 180.5672,129.248 180.6824C129.0752 180.8264,129.0464 180.8264,128.2688 180.8264L127.5488 180.8264L127.5488 181.316C127.5776 182.7848,127.8656 183.3608,128.9888 183.9656C129.392 184.1672,129.4784 184.2248,129.4784 184.5128C129.4784 184.7144,129.42079999999999 184.8008,129.2768 184.916L129.1904 184.9448L125.2448 184.9448L121.328 184.9448L121.2416 184.916C121.0688 184.8008,121.04 184.7144,121.04 184.5128C121.04 184.2248,121.0688 184.1672,121.5008 183.9656C122.624 183.3608,122.912 182.7848,122.912 181.316L122.912 180.8264L119.6 180.8264C118.9952 180.88400000000001,118.5056 180.88400000000001,118.1024 180.88400000000001C116.288 180.88400000000001,116.2592 180.8264,116.2304 180.8264C116.0576 180.7688,116 180.596,116 180.3944C116 180.3944,116 180.3944,116 180.3944C116 180.1928,116 180.1928,116.576 179.5304C118.9952 176.5928,120.6944 172.3304,120.6944 168.93200000000002C120.6944 168.4136,120.7808 168.2408,121.0112 168.1544M122.7392 186.5288L122.768 186.5288L122.6816 186.5288L122.7392 186.5288M122.7392 167.1176L122.768 167.1176L122.6816 167.1176L122.7392 167.1176"></path><path stroke-width="0.3" fill="#000000" stroke="none" stroke-dasharray="none" d="M116 206.5M121.0112 188.1544C121.04 188.1256,121.4432 188.1256,122.6816 188.1256C123.056 188.1256,123.4592 188.1256,123.9776 188.1256L126.8864 188.1256L126.9728 188.212C127.1168 188.29840000000002,127.2032 188.4424,127.2032 188.5576C127.2032 188.7304,127.1168 188.8456,127.0016 188.9608C126.9728 189.0472,126.7136 189.2776,126.5408 189.5368L125.0144 191.2936L123.056 193.5112L122.0192 194.692L120.464 196.4776L118.4192 198.8104C118.0736 199.2424,117.6992 199.588,117.6992 199.588C117.6992 199.588,117.6992 199.588,117.6992 199.588C117.6992 199.6456,117.9584 199.6456,120.3488 199.6456L122.9696 199.6456L122.9696 197.7736C122.9696 195.8728,122.9696 195.844,122.9984 195.8152C123.056 195.7288,123.3152 195.412,124.3232 194.2312L124.7264 193.7992L125.1296 193.3672L125.7344 192.5896L126.368 191.9272L126.6848 191.524C126.8 191.3512,126.9728 191.3224,127.1168 191.3224C127.28960000000001 191.3224,127.4336 191.4088,127.52 191.5528C127.5488 191.6392,127.5488 191.6968,127.5488 193.828C127.5488 194.3176,127.5488 194.9224,127.5488 195.6424L127.5488 199.6456L128.2688 199.6456C128.9312 199.6456,128.96 199.6456,129.0464 199.6744C129.2768 199.7608,129.392 199.9912,129.392 200.2504C129.392 200.3944,129.3632 200.5672,129.248 200.6824C129.0752 200.8264,129.0464 200.8264,128.2688 200.8264L127.5488 200.8264L127.5488 201.316C127.5776 202.7848,127.8656 203.3608,128.9888 203.9656C129.392 204.1672,129.4784 204.2248,129.4784 204.5128C129.4784 204.7144,129.42079999999999 204.8008,129.2768 204.916L129.1904 204.9448L125.2448 204.9448L121.328 204.9448L121.2416 204.916C121.0688 204.8008,121.04 204.7144,121.04 204.5128C121.04 204.2248,121.0688 204.1672,121.5008 203.9656C122.624 203.3608,122.912 202.7848,122.912 201.316L122.912 200.8264L119.6 200.8264C118.9952 200.88400000000001,118.5056 200.88400000000001,118.1024 200.88400000000001C116.288 200.88400000000001,116.2592 200.8264,116.2304 200.8264C116.0576 200.7688,116 200.596,116 200.3944C116 200.3944,116 200.3944,116 200.3944C116 200.1928,116 200.1928,116.576 199.5304C118.9952 196.5928,120.6944 192.3304,120.6944 188.93200000000002C120.6944 188.4136,120.7808 188.2408,121.0112 188.1544M122.7392 206.5288L122.768 206.5288L122.6816 206.5288L122.7392 206.5288M122.7392 187.1176L122.768 187.1176L122.6816 187.1176L122.7392 187.1176"></path><path stroke-width="1" fill="none" stroke="#000000" stroke-dasharray="none" d="M177.3588 216.5L195.37704 216.5"></path><g class="vf-stavenote" id="vf-auto998686"><g class="vf-note" pointer-events="bounding-box"><g class="vf-stem" pointer-events="bounding-box"><path stroke-width="1.5" fill="none" stroke="#000000" stroke-dasharray="none" class="vf-stem" id="vf-auto998686-stem" d="M191.62704 216.5L191.62704 181.5"></path></g><g class="vf-notehead" pointer-events="bounding-box"><path stroke-width="0.3" fill="#000000" stroke="none" stroke-dasharray="none" d="M180.3588 216.5M187.71576 211.27712C187.82808 211.27712,187.99656 211.27712,188.02464 211.27712C188.02464 211.27712,188.05272 211.27712,188.05272 211.27712C188.05272 211.27712,188.2212 211.27712,188.3616 211.27712C190.8888 211.41752,192.37704 213.07424,192.37704 215.15216C192.37704 216.16304,192.04008 217.31432,191.19768 218.40944C189.59712 220.5716,186.98568 221.75096,184.7112 221.75096C182.94216 221.75096,181.42584 221.04896,180.69576 219.61688C180.47112 219.05528,180.3588 218.52176,180.3588 217.93208C180.3588 214.87136,183.78456 211.47368,187.71576 211.27712"></path></g></g><g class="vf-modifiers"></g></g><path stroke-width="1" fill="none" stroke="#000000" stroke-dasharray="none" d="M295.9452224 166.5L439.91204479999993 166.5"></path><path stroke-width="1" fill="none" stroke="#000000" stroke-dasharray="none" d="M295.9452224 176.5L439.91204479999993 176.5"></path><path stroke-width="1" fill="none" stroke="#000000" stroke-dasharray="none" d="M295.9452224 186.5L439.91204479999993 186.5"></path><path stroke-width="1" fill="none" stroke="#000000" stroke-dasharray="none" d="M295.9452224 196.5L439.91204479999993 196.5"></path><path stroke-width="1" fill="none" stroke="#000000" stroke-dasharray="none" d="M295.9452224 206.5L439.91204479999993 206.5"></path><rect stroke-width="0.3" fill="#000000" stroke="#000000" stroke-dasharray="none" x="439.91204479999993" y="166" width="1" height="41"></rect><g class="vf-stavenote" id="vf-auto998723"><g class="vf-note" pointer-events="bounding-box"><g class="vf-stem" pointer-events="bounding-box"><path stroke-width="1.5" fill="none" stroke="#000000" stroke-dasharray="none" class="vf-stem" id="vf-auto998723-stem" d="M356.21346239999997 201.5L356.21346239999997 166.5"></path></g><g class="vf-notehead" pointer-events="bounding-box"><path stroke-width="0.3" fill="#000000" stroke="none" stroke-dasharray="none" d="M344.9452224 201.5M352.3021824 196.27712C352.4145024 196.27712,352.5829824 196.27712,352.6110624 196.27712C352.6110624 196.27712,352.63914239999997 196.27712,352.63914239999997 196.27712C352.63914239999997 196.27712,352.80762239999996 196.27712,352.94802239999996 196.27712C355.4752224 196.41752,356.96346239999997 198.07424,356.96346239999997 200.15216C356.96346239999997 201.16304,356.6265024 202.31432,355.7841024 203.40944C354.18354239999996 205.5716,351.57210239999995 206.75096,349.29762239999997 206.75096C347.5285824 206.75096,346.0122624 206.04896,345.28218239999995 204.61688C345.0575424 204.05528,344.9452224 203.52176,344.9452224 202.93208C344.9452224 199.87136,348.3709824 196.47368,352.3021824 196.27712"></path></g></g><g class="vf-modifiers"></g></g><path stroke-width="1" fill="none" stroke="#000000" stroke-dasharray="none" d="M439.91204479999993 166.5L588.0788671999999 166.5"></path><path stroke-width="1" fill="none" stroke="#000000" stroke-dasharray="none" d="M439.91204479999993 176.5L588.0788671999999 176.5"></path><path stroke-width="1" fill="none" stroke="#000000" stroke-dasharray="none" d="M439.91204479999993 186.5L588.0788671999999 186.5"></path><path stroke-width="1" fill="none" stroke="#000000" stroke-dasharray="none" d="M439.91204479999993 196.5L588.0788671999999 196.5"></path><path stroke-width="1" fill="none" stroke="#000000" stroke-dasharray="none" d="M439.91204479999993 206.5L588.0788671999999 206.5"></path><rect stroke-width="0.3" fill="#000000" stroke="#000000" stroke-dasharray="none" x="588.0788671999999" y="166" width="1" height="41"></rect><g class="vf-stavenote" id="vf-auto998760"><g class="vf-note" pointer-events="bounding-box"><g class="vf-stem" pointer-events="bounding-box"><path stroke-width="1.5" fill="none" stroke="#000000" stroke-dasharray="none" class="vf-stem" id="vf-auto998760-stem" d="M457.66204479999993 166.5L457.66204479999993 201.5"></path></g><g class="vf-notehead" pointer-events="bounding-box"><path stroke-width="0.3" fill="#000000" stroke="none" stroke-dasharray="none" d="M456.91204479999993 166.5M464.26900479999995 161.27712C464.38132479999996 161.27712,464.54980479999995 161.27712,464.57788479999994 161.27712C464.57788479999994 161.27712,464.6059647999999 161.27712,464.6059647999999 161.27712C464.6059647999999 161.27712,464.7744447999999 161.27712,464.9148447999999 161.27712C467.44204479999996 161.41752,468.9302847999999 163.07424,468.9302847999999 165.15216C468.9302847999999 166.16304,468.59332479999995 167.31432,467.75092479999995 168.40944C466.1503647999999 170.5716,463.5389247999999 171.75096,461.2644447999999 171.75096C459.49540479999996 171.75096,457.97908479999995 171.04896,457.2490047999999 169.61688C457.02436479999994 169.05528,456.91204479999993 168.52176,456.91204479999993 167.93208C456.91204479999993 164.87136,460.33780479999996 161.47368,464.26900479999995 161.27712"></path></g></g><g class="vf-modifiers"></g></g><g class="vf-stavenote" id="vf-auto998768"><g class="vf-note" pointer-events="bounding-box"><g class="vf-stem" pointer-events="bounding-box"><path stroke-width="1.5" fill="none" stroke="#000000" stroke-dasharray="none" class="vf-stem" id="vf-auto998768-stem" d="M501.4302847999999 191.5L501.4302847999999 156.5"></path></g><g class="vf-notehead" pointer-events="bounding-box"><path stroke-width="0.3" fill="#000000" stroke="none" stroke-dasharray="none" d="M490.16204479999993 191.5M497.51900479999995 186.27712C497.63132479999996 186.27712,497.79980479999995 186.27712,497.82788479999994 186.27712C497.82788479999994 186.27712,497.8559647999999 186.27712,497.8559647999999 186.27712C497.8559647999999 186.27712,498.0244447999999 186.27712,498.1648447999999 186.27712C500.69204479999996 186.41752,502.1802847999999 188.07424,502.1802847999999 190.15216C502.1802847999999 191.16304,501.84332479999995 192.31432,501.00092479999995 193.40944C499.4003647999999 195.5716,496.7889247999999 196.75096,494.5144447999999 196.75096C492.74540479999996 196.75096,491.22908479999995 196.04896,490.4990047999999 194.61688C490.27436479999994 194.05528,490.16204479999993 193.52176,490.16204479999993 192.93208C490.16204479999993 189.87136,493.58780479999996 186.47368,497.51900479999995 186.27712"></path></g></g><g class="vf-modifiers"></g></g><path stroke-width="1" fill="none" stroke="#000000" stroke-dasharray="none" d="M588.0788671999999 166.5L742.0456895999998 166.5"></path><path stroke-width="1" fill="none" stroke="#000000" stroke-dasharray="none" d="M588.0788671999999 176.5L742.0456895999998 176.5"></path><path stroke-width="1" fill="none" stroke="#000000" stroke-dasharray="none" d="M588.0788671999999 186.5L742.0456895999998 186.5"></path><path stroke-width="1" fill="none" stroke="#000000" stroke-dasharray="none" d="M588.0788671999999 196.5L742.0456895999998 196.5"></path><path stroke-width="1" fill="none" stroke="#000000" stroke-dasharray="none" d="M588.0788671999999 206.5L742.0456895999998 206.5"></path><rect stroke-width="0.3" fill="#000000" stroke="#000000" stroke-dasharray="none" x="737.0456895999998" y="166" width="1" height="41"></rect><rect stroke-width="0.3" fill="#000000" stroke="#000000" stroke-dasharray="none" x="740.0456895999998" y="166" width="3" height="41"></rect><path stroke-width="0.3" fill="#000000" stroke="none" stroke-dasharray="none" d="M736.0456895999998 182 A2 2 0 0 0 732.0456895999998 182M732.0456895999998 182 A2 2 0 0 0 736.0456895999998 182"></path><path stroke-width="0.3" fill="#000000" stroke="none" stroke-dasharray="none" d="M736.0456895999998 192 A2 2 0 0 0 732.0456895999998 192M732.0456895999998 192 A2 2 0 0 0 736.0456895999998 192"></path><g class="vf-stavenote" id="vf-auto998796"><g class="vf-note" pointer-events="bounding-box"><g class="vf-stem" pointer-events="bounding-box"><path stroke-width="1.5" fill="none" stroke="#000000" stroke-dasharray="none" class="vf-stem" id="vf-auto998796-stem" d="M640.3288671999999 181.5L640.3288671999999 216.5"></path></g><g class="vf-notehead" pointer-events="bounding-box"><path stroke-width="0.3" fill="#000000" stroke="none" stroke-dasharray="none" d="M639.5788671999999 181.5M646.9358271999998 176.27712C647.0481471999999 176.27712,647.2166271999998 176.27712,647.2447071999999 176.27712C647.2447071999999 176.27712,647.2727871999999 176.27712,647.2727871999999 176.27712C647.2727871999999 176.27712,647.4412671999999 176.27712,647.5816671999999 176.27712C650.1088671999998 176.41752,651.5971071999999 178.07424,651.5971071999999 180.15216C651.5971071999999 181.16304,651.2601471999999 182.31432,650.4177471999999 183.40944C648.8171871999999 185.5716,646.2057471999999 186.75096,643.9312671999999 186.75096C642.1622271999998 186.75096,640.6459071999999 186.04896,639.9158271999999 184.61688C639.6911871999998 184.05528,639.5788671999999 183.52176,639.5788671999999 182.93208C639.5788671999999 179.87136,643.0046271999998 176.47368,646.9358271999998 176.27712"></path></g></g><g class="vf-modifiers"></g></g><g class="vf-text"><text stroke-width="0.3" fill="#000000" stroke="none" stroke-dasharray="none" font-family="Times New Roman" font-size="23px" font-weight="bold" font-style="italic" x="156.4784" y="244.29999999999998">mp</text></g><path stroke-width="1" fill="none" stroke="#000000" stroke-dasharray="none" d="M70 273.09999999999997L295.9452224 273.09999999999997"></path><path stroke-width="1" fill="none" stroke="#000000" stroke-dasharray="none" d="M70 283.09999999999997L295.9452224 283.09999999999997"></path><path stroke-width="1" fill="none" stroke="#000000" stroke-dasharray="none" d="M70 293.09999999999997L295.9452224 293.09999999999997"></path><path stroke-width="1" fill="none" stroke="#000000" stroke-dasharray="none" d="M70 303.09999999999997L295.9452224 303.09999999999997"></path><path stroke-width="1" fill="none" stroke="#000000" stroke-dasharray="none" d="M70 313.09999999999997L295.9452224 313.09999999999997"></path><rect stroke-width="0.3" fill="#000000" stroke="#000000" stroke-dasharray="none" x="295.9452224" y="272.59999999999997" width="1" height="41"></rect><g class="vf-clef"><path stroke-width="0.3" fill="#000000" stroke="none" stroke-dasharray="none" d="M75 283.09999999999997M83.8416 273.04879999999997C84.072 272.9912,84.3024 272.9912,84.5616 272.9912C85.5696 272.9912,86.7504 273.10639999999995,87.7584 273.308C92.4816 274.2872,95.736 277.484,96.3408 281.7464C96.3984 282.20719999999994,96.4272 282.63919999999996,96.4272 283.09999999999997C96.4272 285.69199999999995,95.5344 289.03279999999995,94.008 291.8264C90.3792 298.39279999999997,83.7552 303.116,75.8064 304.84399999999994C75.6624 304.84399999999994,75.5472 304.8728,75.4032 304.8728C75.1152 304.8728,74.9712 304.7,74.9712 304.44079999999997C74.9712 304.15279999999996,75.0288 304.0664,75.6048 303.83599999999996C84.7056 300.4088,90.7824 293.00719999999995,91.3296 284.71279999999996C91.3584 284.28079999999994,91.3584 283.79119999999995,91.3584 283.41679999999997C91.3584 279.3848,90.12 276.3896,87.7296 274.89199999999994C86.6928 274.22959999999995,85.5696 273.91279999999995,84.36 273.91279999999995C81.6816 273.91279999999995,78.9456 275.43919999999997,77.6784 278.00239999999997C77.6208 278.20399999999995,77.4192 278.63599999999997,77.4192 278.66479999999996C77.4192 278.66479999999996,77.4192 278.66479999999996,77.4192 278.66479999999996C77.4192 278.66479999999996,77.448 278.63599999999997,77.5344 278.6072C78.168 278.20399999999995,78.8592 278.00239999999997,79.5792 278.00239999999997C80.5872 278.00239999999997,81.6528 278.4344,82.4016 279.2408C83.0928 279.98959999999994,83.4672 280.9976,83.4672 281.9192C83.4672 283.79119999999995,82.0848 285.69199999999995,79.9248 285.8936C79.7808 285.8936,79.6368 285.9224,79.4928 285.9224C77.1024 285.9224,75.1728 283.73359999999997,75.1728 280.9688C75.1728 280.91119999999995,75.1728 280.8248,75.1728 280.796C75.288 276.6776,79.0608 273.308,83.8416 273.04879999999997M99.1632 276.90799999999996C99.2208 276.87919999999997,99.2496 276.87919999999997,99.336 276.87919999999997C99.5376 276.87919999999997,99.768 276.90799999999996,99.8256 276.9656C100.54560000000001 277.1672,100.8912 277.8008,100.8912 278.4056C100.8912 278.924,100.632 279.44239999999996,100.11359999999999 279.7304C99.912 279.8744,99.6528 279.90319999999997,99.39359999999999 279.90319999999997C98.9904 279.90319999999997,98.5584 279.7304,98.2704 279.356C98.03999999999999 279.068,97.9248 278.7512,97.9248 278.4344C97.9248 277.71439999999996,98.3856 276.9944,99.1632 276.90799999999996M99.1632 286.32559999999995C99.2208 286.32559999999995,99.2496 286.32559999999995,99.336 286.32559999999995C99.5376 286.32559999999995,99.768 286.35439999999994,99.8256 286.412C100.54560000000001 286.61359999999996,100.8912 287.24719999999996,100.8912 287.852C100.8912 288.37039999999996,100.632 288.88879999999995,100.11359999999999 289.14799999999997C99.912 289.292,99.6528 289.34959999999995,99.39359999999999 289.34959999999995C98.9904 289.34959999999995,98.5584 289.14799999999997,98.2704 288.8024C98.03999999999999 288.51439999999997,97.9248 288.19759999999997,97.9248 287.852C97.9248 287.13199999999995,98.3856 286.44079999999997,99.1632 286.32559999999995"></path></g><path stroke-width="0.3" fill="#000000" stroke="none" stroke-dasharray="none" d="M116 293.09999999999997M121.0112 274.7544C121.04 274.7256,121.4432 274.7256,122.6816 274.7256C123.056 274.7256,123.4592 274.7256,123.9776 274.7256L126.8864 274.7256L126.9728 274.81199999999995C127.1168 274.8984,127.2032 275.0424,127.2032 275.15759999999995C127.2032 275.33039999999994,127.1168 275.44559999999996,127.0016 275.5608C126.9728 275.64719999999994,126.7136 275.8776,126.5408 276.1368L125.0144 277.8936L123.056 280.11119999999994L122.0192 281.292L120.464 283.07759999999996L118.4192 285.4104C118.0736 285.84239999999994,117.6992 286.188,117.6992 286.188C117.6992 286.188,117.6992 286.188,117.6992 286.188C117.6992 286.24559999999997,117.9584 286.24559999999997,120.3488 286.24559999999997L122.9696 286.24559999999997L122.9696 284.37359999999995C122.9696 282.47279999999995,122.9696 282.44399999999996,122.9984 282.41519999999997C123.056 282.32879999999994,123.3152 282.01199999999994,124.3232 280.83119999999997L124.7264 280.39919999999995L125.1296 279.9672L125.7344 279.1896L126.368 278.5272L126.6848 278.12399999999997C126.8 277.9512,126.9728 277.9224,127.1168 277.9224C127.28960000000001 277.9224,127.4336 278.00879999999995,127.52 278.15279999999996C127.5488 278.2392,127.5488 278.29679999999996,127.5488 280.42799999999994C127.5488 280.9176,127.5488 281.52239999999995,127.5488 282.2424L127.5488 286.24559999999997L128.2688 286.24559999999997C128.9312 286.24559999999997,128.96 286.24559999999997,129.0464 286.27439999999996C129.2768 286.3608,129.392 286.59119999999996,129.392 286.8504C129.392 286.9944,129.3632 287.1672,129.248 287.28239999999994C129.0752 287.42639999999994,129.0464 287.42639999999994,128.2688 287.42639999999994L127.5488 287.42639999999994L127.5488 287.91599999999994C127.5776 289.3848,127.8656 289.96079999999995,128.9888 290.56559999999996C129.392 290.76719999999995,129.4784 290.8248,129.4784 291.1128C129.4784 291.3144,129.42079999999999 291.40079999999995,129.2768 291.51599999999996L129.1904 291.54479999999995L125.2448 291.54479999999995L121.328 291.54479999999995L121.2416 291.51599999999996C121.0688 291.40079999999995,121.04 291.3144,121.04 291.1128C121.04 290.8248,121.0688 290.76719999999995,121.5008 290.56559999999996C122.624 289.96079999999995,122.912 289.3848,122.912 287.91599999999994L122.912 287.42639999999994L119.6 287.42639999999994C118.9952 287.484,118.5056 287.484,118.1024 287.484C116.288 287.484,116.2592 287.42639999999994,116.2304 287.42639999999994C116.0576 287.36879999999996,116 287.19599999999997,116 286.9944C116 286.9944,116 286.9944,116 286.9944C116 286.79279999999994,116 286.79279999999994,116.576 286.13039999999995C118.9952 283.1928,120.6944 278.93039999999996,120.6944 275.532C120.6944 275.01359999999994,120.7808 274.84079999999994,121.0112 274.7544M122.7392 293.12879999999996L122.768 293.12879999999996L122.6816 293.12879999999996L122.7392 293.12879999999996M122.7392 273.71759999999995L122.768 273.71759999999995L122.6816 273.71759999999995L122.7392 273.71759999999995"></path><path stroke-width="0.3" fill="#000000" stroke="none" stroke-dasharray="none" d="M116 313.09999999999997M121.0112 294.7544C121.04 294.7256,121.4432 294.7256,122.6816 294.7256C123.056 294.7256,123.4592 294.7256,123.9776 294.7256L126.8864 294.7256L126.9728 294.81199999999995C127.1168 294.8984,127.2032 295.0424,127.2032 295.15759999999995C127.2032 295.33039999999994,127.1168 295.44559999999996,127.0016 295.5608C126.9728 295.64719999999994,126.7136 295.8776,126.5408 296.1368L125.0144 297.8936L123.056 300.11119999999994L122.0192 301.292L120.464 303.07759999999996L118.4192 305.4104C118.0736 305.84239999999994,117.6992 306.188,117.6992 306.188C117.6992 306.188,117.6992 306.188,117.6992 306.188C117.6992 306.24559999999997,117.9584 306.24559999999997,120.3488 306.24559999999997L122.9696 306.24559999999997L122.9696 304.37359999999995C122.9696 302.47279999999995,122.9696 302.44399999999996,122.9984 302.41519999999997C123.056 302.32879999999994,123.3152 302.01199999999994,124.3232 300.83119999999997L124.7264 300.39919999999995L125.1296 299.9672L125.7344 299.1896L126.368 298.5272L126.6848 298.12399999999997C126.8 297.9512,126.9728 297.9224,127.1168 297.9224C127.28960000000001 297.9224,127.4336 298.00879999999995,127.52 298.15279999999996C127.5488 298.2392,127.5488 298.29679999999996,127.5488 300.42799999999994C127.5488 300.9176,127.5488 301.52239999999995,127.5488 302.2424L127.5488 306.24559999999997L128.2688 306.24559999999997C128.9312 306.24559999999997,128.96 306.24559999999997,129.0464 306.27439999999996C129.2768 306.3608,129.392 306.59119999999996,129.392 306.8504C129.392 306.9944,129.3632 307.1672,129.248 307.28239999999994C129.0752 307.42639999999994,129.0464 307.42639999999994,128.2688 307.42639999999994L127.5488 307.42639999999994L127.5488 307.91599999999994C127.5776 309.3848,127.8656 309.96079999999995,128.9888 310.56559999999996C129.392 310.76719999999995,129.4784 310.8248,129.4784 311.1128C129.4784 311.3144,129.42079999999999 311.40079999999995,129.2768 311.51599999999996L129.1904 311.54479999999995L125.2448 311.54479999999995L121.328 311.54479999999995L121.2416 311.51599999999996C121.0688 311.40079999999995,121.04 311.3144,121.04 311.1128C121.04 310.8248,121.0688 310.76719999999995,121.5008 310.56559999999996C122.624 309.96079999999995,122.912 309.3848,122.912 307.91599999999994L122.912 307.42639999999994L119.6 307.42639999999994C118.9952 307.484,118.5056 307.484,118.1024 307.484C116.288 307.484,116.2592 307.42639999999994,116.2304 307.42639999999994C116.0576 307.36879999999996,116 307.19599999999997,116 306.9944C116 306.9944,116 306.9944,116 306.9944C116 306.79279999999994,116 306.79279999999994,116.576 306.13039999999995C118.9952 303.1928,120.6944 298.93039999999996,120.6944 295.532C120.6944 295.01359999999994,120.7808 294.84079999999994,121.0112 294.7544M122.7392 313.12879999999996L122.768 313.12879999999996L122.6816 313.12879999999996L122.7392 313.12879999999996M122.7392 293.71759999999995L122.768 293.71759999999995L122.6816 293.71759999999995L122.7392 293.71759999999995"></path><g class="vf-stavenote" id="vf-auto998697"><g class="vf-note" pointer-events="bounding-box"><g class="vf-stem" pointer-events="bounding-box"><path stroke-width="1.5" fill="none" stroke="#000000" stroke-dasharray="none" class="vf-stem" id="vf-auto998697-stem" d="M152.74663999999999 293.09999999999997L152.74663999999999 258.09999999999997"></path></g><g class="vf-notehead" pointer-events="bounding-box"><path stroke-width="0.3" fill="#000000" stroke="none" stroke-dasharray="none" d="M141.4784 293.09999999999997M148.83535999999998 287.87712C148.94768 287.87712,149.11615999999998 287.87712,149.14424 287.87712C149.14424 287.87712,149.17231999999998 287.87712,149.17231999999998 287.87712C149.17231999999998 287.87712,149.3408 287.87712,149.4812 287.87712C152.0084 288.01752,153.49663999999999 289.67423999999994,153.49663999999999 291.75215999999995C153.49663999999999 292.76304,153.15967999999998 293.91432,152.31727999999998 295.00944C150.71671999999998 297.17159999999996,148.10528 298.35096,145.83079999999998 298.35096C144.06176 298.35096,142.54543999999999 297.64896,141.81536 296.21687999999995C141.59072 295.65527999999995,141.4784 295.12175999999994,141.4784 294.53207999999995C141.4784 291.47135999999995,144.90416 288.07367999999997,148.83535999999998 287.87712"></path></g></g><g class="vf-modifiers"></g></g><g class="vf-stavenote" id="vf-auto998705"><g class="vf-note" pointer-events="bounding-box"><g class="vf-stem" pointer-events="bounding-box"><path stroke-width="1.5" fill="none" stroke="#000000" stroke-dasharray="none" class="vf-stem" id="vf-auto998705-stem" d="M230.50743999999997 303.09999999999997L230.50743999999997 268.09999999999997"></path></g><g class="vf-notehead" pointer-events="bounding-box"><path stroke-width="0.3" fill="#000000" stroke="none" stroke-dasharray="none" d="M219.23919999999998 303.09999999999997M226.59615999999997 297.87712C226.70847999999998 297.87712,226.87696 297.87712,226.90503999999999 297.87712C226.90503999999999 297.87712,226.93311999999997 297.87712,226.93311999999997 297.87712C226.93311999999997 297.87712,227.1016 297.87712,227.242 297.87712C229.76919999999998 298.01752,231.25743999999997 299.67423999999994,231.25743999999997 301.75215999999995C231.25743999999997 302.76304,230.92048 303.91432,230.07807999999997 305.00944C228.47751999999997 307.17159999999996,225.86607999999998 308.35096,223.59159999999997 308.35096C221.82255999999998 308.35096,220.30623999999997 307.64896,219.57616 306.21687999999995C219.35152 305.65527999999995,219.23919999999998 305.12175999999994,219.23919999999998 304.53207999999995C219.23919999999998 301.47135999999995,222.66495999999998 298.07367999999997,226.59615999999997 297.87712"></path></g></g><g class="vf-modifiers"></g></g><path stroke-width="1" fill="none" stroke="#000000" stroke-dasharray="none" d="M255.1196 263.09999999999997L273.13784 263.09999999999997"></path><g class="vf-stavenote" id="vf-auto998713"><g class="vf-note" pointer-events="bounding-box"><g class="vf-stem" pointer-events="bounding-box"><path stroke-width="1.5" fill="none" stroke="#000000" stroke-dasharray="none" class="vf-stem" id="vf-auto998713-stem" d="M258.8696 258.09999999999997L258.8696 293.09999999999997"></path></g><g class="vf-notehead" pointer-events="bounding-box"><path stroke-width="0.3" fill="#000000" stroke="none" stroke-dasharray="none" d="M258.1196 258.09999999999997M265.47656 252.87711999999996C265.58888 252.87711999999996,265.75736 252.87711999999996,265.78544 252.87711999999996C265.78544 252.87711999999996,265.81352 252.87711999999996,265.81352 252.87711999999996C265.81352 252.87711999999996,265.98199999999997 252.87711999999996,266.12239999999997 252.87711999999996C268.64959999999996 253.01751999999996,270.13784 254.67423999999997,270.13784 256.75215999999995C270.13784 257.76304,269.80088 258.91432,268.95848 260.00944C267.35792 262.17159999999996,264.74648 263.35096,262.472 263.35096C260.70296 263.35096,259.18664 262.64896,258.45655999999997 261.21687999999995C258.23192 260.65527999999995,258.1196 260.12175999999994,258.1196 259.53207999999995C258.1196 256.47135999999995,261.54536 253.07367999999997,265.47656 252.87711999999996"></path></g></g><g class="vf-modifiers"></g></g><rect stroke-width="0.3" fill="#000000" stroke="#000000" stroke-dasharray="none" x="295.9452224" y="166.5" width="1" height="147.59999999999997"></rect><rect stroke-width="0.3" fill="#000000" stroke="#000000" stroke-dasharray="none" x="70" y="166.5" width="1" height="147.59999999999997"></rect><path stroke-width="1" fill="none" stroke="#000000" stroke-dasharray="none" d="M295.9452224 273.09999999999997L439.91204479999993 273.09999999999997"></path><path stroke-width="1" fill="none" stroke="#000000" stroke-dasharray="none" d="M295.9452224 283.09999999999997L439.91204479999993 283.09999999999997"></path><path stroke-width="1" fill="none" stroke="#000000" stroke-dasharray="none" d="M295.9452224 293.09999999999997L439.91204479999993 293.09999999999997"></path><path stroke-width="1" fill="none" stroke="#000000" stroke-dasharray="none" d="M295.9452224 303.09999999999997L439.91204479999993 303.09999999999997"></path><path stroke-width="1" fill="none" stroke="#000000" stroke-dasharray="none" d="M295.9452224 313.09999999999997L439.91204479999993 313.09999999999997"></path><rect stroke-width="0.3" fill="#000000" stroke="#000000" stroke-dasharray="none" x="439.91204479999993" y="272.59999999999997" width="1" height="41"></rect><path stroke-width="1" fill="none" stroke="#000000" stroke-dasharray="none" d="M309.9452224 263.09999999999997L327.96346239999997 263.09999999999997"></path><g class="vf-stavenote" id="vf-auto998734"><g class="vf-note" pointer-events="bounding-box"><g class="vf-stem" pointer-events="bounding-box"><path stroke-width="1.5" fill="none" stroke="#000000" stroke-dasharray="none" class="vf-stem" id="vf-auto998734-stem" d="M313.6952224 263.09999999999997L313.6952224 298.09999999999997"></path></g><g class="vf-notehead" pointer-events="bounding-box"><path stroke-width="0.3" fill="#000000" stroke="none" stroke-dasharray="none" d="M312.9452224 263.09999999999997M320.3021824 257.87712C320.4145024 257.87712,320.5829824 257.87712,320.6110624 257.87712C320.6110624 257.87712,320.63914239999997 257.87712,320.63914239999997 257.87712C320.63914239999997 257.87712,320.80762239999996 257.87712,320.94802239999996 257.87712C323.4752224 258.01752,324.96346239999997 259.67423999999994,324.96346239999997 261.75215999999995C324.96346239999997 262.76304,324.6265024 263.91432,323.7841024 265.00944C322.18354239999996 267.17159999999996,319.57210239999995 268.35096,317.29762239999997 268.35096C315.5285824 268.35096,314.0122624 267.64896,313.28218239999995 266.21687999999995C313.0575424 265.65527999999995,312.9452224 265.12175999999994,312.9452224 264.53207999999995C312.9452224 261.47135999999995,316.3709824 258.07367999999997,320.3021824 257.87712"></path></g></g><g class="vf-modifiers"></g></g><g class="vf-stavenote" id="vf-auto998742"><g class="vf-note" pointer-events="bounding-box"><g class="vf-stem" pointer-events="bounding-box"><path stroke-width="1.5" fill="none" stroke="#000000" stroke-dasharray="none" class="vf-stem" id="vf-auto998742-stem" d="M388.21346239999997 308.09999999999997L388.21346239999997 273.09999999999997"></path></g><g class="vf-notehead" pointer-events="bounding-box"><path stroke-width="0.3" fill="#000000" stroke="none" stroke-dasharray="none" d="M376.9452224 308.09999999999997M384.3021824 302.87712C384.4145024 302.87712,384.5829824 302.87712,384.6110624 302.87712C384.6110624 302.87712,384.63914239999997 302.87712,384.63914239999997 302.87712C384.63914239999997 302.87712,384.80762239999996 302.87712,384.94802239999996 302.87712C387.4752224 303.01752,388.96346239999997 304.67423999999994,388.96346239999997 306.75215999999995C388.96346239999997 307.76304,388.6265024 308.91432,387.7841024 310.00944C386.18354239999996 312.17159999999996,383.57210239999995 313.35096,381.29762239999997 313.35096C379.5285824 313.35096,378.0122624 312.64896,377.28218239999995 311.21687999999995C377.0575424 310.65527999999995,376.9452224 310.12175999999994,376.9452224 309.53207999999995C376.9452224 306.47135999999995,380.3709824 303.07367999999997,384.3021824 302.87712"></path></g></g><g class="vf-modifiers"></g></g><g class="vf-stavenote" id="vf-auto998750"><g class="vf-note" pointer-events="bounding-box"><g class="vf-stem" pointer-events="bounding-box"><path stroke-width="1.5" fill="none" stroke="#000000" stroke-dasharray="none" class="vf-stem" id="vf-auto998750-stem" d="M409.6952224 283.09999999999997L409.6952224 318.09999999999997"></path></g><g class="vf-notehead" pointer-events="bounding-box"><path stroke-width="0.3" fill="#000000" stroke="none" stroke-dasharray="none" d="M408.9452224 283.09999999999997M416.3021824 277.87712C416.4145024 277.87712,416.5829824 277.87712,416.6110624 277.87712C416.6110624 277.87712,416.63914239999997 277.87712,416.63914239999997 277.87712C416.63914239999997 277.87712,416.80762239999996 277.87712,416.94802239999996 277.87712C419.4752224 278.01752,420.96346239999997 279.67423999999994,420.96346239999997 281.75215999999995C420.96346239999997 282.76304,420.6265024 283.91432,419.7841024 285.00944C418.18354239999996 287.17159999999996,415.57210239999995 288.35096,413.29762239999997 288.35096C411.5285824 288.35096,410.0122624 287.64896,409.28218239999995 286.21687999999995C409.0575424 285.65527999999995,408.9452224 285.12175999999994,408.9452224 284.53207999999995C408.9452224 281.47135999999995,412.3709824 278.07367999999997,416.3021824 277.87712"></path></g></g><g class="vf-modifiers"></g></g><rect stroke-width="0.3" fill="#000000" stroke="#000000" stroke-dasharray="none" x="439.91204479999993" y="166.5" width="1" height="147.59999999999997"></rect><path stroke-width="1" fill="none" stroke="#000000" stroke-dasharray="none" d="M439.91204479999993 273.09999999999997L588.0788671999999 273.09999999999997"></path><path stroke-width="1" fill="none" stroke="#000000" stroke-dasharray="none" d="M439.91204479999993 283.09999999999997L588.0788671999999 283.09999999999997"></path><path stroke-width="1" fill="none" stroke="#000000" stroke-dasharray="none" d="M439.91204479999993 293.09999999999997L588.0788671999999 293.09999999999997"></path><path stroke-width="1" fill="none" stroke="#000000" stroke-dasharray="none" d="M439.91204479999993 303.09999999999997L588.0788671999999 303.09999999999997"></path><path stroke-width="1" fill="none" stroke="#000000" stroke-dasharray="none" d="M439.91204479999993 313.09999999999997L588.0788671999999 313.09999999999997"></path><rect stroke-width="0.3" fill="#000000" stroke="#000000" stroke-dasharray="none" x="588.0788671999999" y="272.59999999999997" width="1" height="41"></rect><g class="vf-stavenote" id="vf-auto998778"><g class="vf-note" pointer-events="bounding-box"><g class="vf-stem" pointer-events="bounding-box"><path stroke-width="1.5" fill="none" stroke="#000000" stroke-dasharray="none" class="vf-stem" id="vf-auto998778-stem" d="M534.6802847999999 313.09999999999997L534.6802847999999 278.09999999999997"></path></g><g class="vf-notehead" pointer-events="bounding-box"><path stroke-width="0.3" fill="#000000" stroke="none" stroke-dasharray="none" d="M523.4120447999999 313.09999999999997M530.7690047999998 307.87712C530.8813247999999 307.87712,531.0498047999998 307.87712,531.0778847999999 307.87712C531.0778847999999 307.87712,531.1059647999999 307.87712,531.1059647999999 307.87712C531.1059647999999 307.87712,531.2744447999999 307.87712,531.4148447999999 307.87712C533.9420447999998 308.01752,535.4302847999999 309.67423999999994,535.4302847999999 311.75215999999995C535.4302847999999 312.76304,535.0933247999999 313.91432,534.2509247999999 315.00944C532.6503647999999 317.17159999999996,530.0389247999999 318.35096,527.7644447999999 318.35096C525.9954047999998 318.35096,524.4790847999999 317.64896,523.7490047999999 316.21687999999995C523.5243647999998 315.65527999999995,523.4120447999999 315.12175999999994,523.4120447999999 314.53207999999995C523.4120447999999 311.47135999999995,526.8378047999998 308.07367999999997,530.7690047999998 307.87712"></path></g></g><g class="vf-modifiers"></g></g><path stroke-width="1" fill="none" stroke="#000000" stroke-dasharray="none" d="M553.6620447999999 263.09999999999997L571.6802847999999 263.09999999999997"></path><g class="vf-stavenote" id="vf-auto998786"><g class="vf-note" pointer-events="bounding-box"><g class="vf-stem" pointer-events="bounding-box"><path stroke-width="1.5" fill="none" stroke="#000000" stroke-dasharray="none" class="vf-stem" id="vf-auto998786-stem" d="M557.4120447999999 263.09999999999997L557.4120447999999 298.09999999999997"></path></g><g class="vf-notehead" pointer-events="bounding-box"><path stroke-width="0.3" fill="#000000" stroke="none" stroke-dasharray="none" d="M556.6620447999999 263.09999999999997M564.0190047999998 257.87712C564.1313247999999 257.87712,564.2998047999998 257.87712,564.3278847999999 257.87712C564.3278847999999 257.87712,564.3559647999999 257.87712,564.3559647999999 257.87712C564.3559647999999 257.87712,564.5244447999999 257.87712,564.6648447999999 257.87712C567.1920447999998 258.01752,568.6802847999999 259.67423999999994,568.6802847999999 261.75215999999995C568.6802847999999 262.76304,568.3433247999999 263.91432,567.5009247999999 265.00944C565.9003647999999 267.17159999999996,563.2889247999999 268.35096,561.0144447999999 268.35096C559.2454047999998 268.35096,557.7290847999999 267.64896,556.9990047999999 266.21687999999995C556.7743647999998 265.65527999999995,556.6620447999999 265.12175999999994,556.6620447999999 264.53207999999995C556.6620447999999 261.47135999999995,560.0878047999998 258.07367999999997,564.0190047999998 257.87712"></path></g></g><g class="vf-modifiers"></g></g><rect stroke-width="0.3" fill="#000000" stroke="#000000" stroke-dasharray="none" x="588.0788671999999" y="166.5" width="1" height="147.59999999999997"></rect><path stroke-width="1" fill="none" stroke="#000000" stroke-dasharray="none" d="M588.0788671999999 273.09999999999997L742.0456895999998 273.09999999999997"></path><path stroke-width="1" fill="none" stroke="#000000" stroke-dasharray="none" d="M588.0788671999999 283.09999999999997L742.0456895999998 283.09999999999997"></path><path stroke-width="1" fill="none" stroke="#000000" stroke-dasharray="none" d="M588.0788671999999 293.09999999999997L742.0456895999998 293.09999999999997"></path><path stroke-width="1" fill="none" stroke="#000000" stroke-dasharray="none" d="M588.0788671999999 303.09999999999997L742.0456895999998 303.09999999999997"></path><path stroke-width="1" fill="none" stroke="#000000" stroke-dasharray="none" d="M588.0788671999999 313.09999999999997L742.0456895999998 313.09999999999997"></path><rect stroke-width="0.3" fill="#000000" stroke="#000000" stroke-dasharray="none" x="737.0456895999998" y="272.59999999999997" width="1" height="41"></rect><rect stroke-width="0.3" fill="#000000" stroke="#000000" stroke-dasharray="none" x="740.0456895999998" y="272.59999999999997" width="3" height="41"></rect><path stroke-width="0.3" fill="#000000" stroke="none" stroke-dasharray="none" d="M736.0456895999998 288.59999999999997 A2 2 0 0 0 732.0456895999998 288.59999999999997M732.0456895999998 288.59999999999997 A2 2 0 0 0 736.0456895999998 288.59999999999997"></path><path stroke-width="0.3" fill="#000000" stroke="none" stroke-dasharray="none" d="M736.0456895999998 298.59999999999997 A2 2 0 0 0 732.0456895999998 298.59999999999997M732.0456895999998 298.59999999999997 A2 2 0 0 0 736.0456895999998 298.59999999999997"></path><g class="vf-stavenote" id="vf-auto998807"><g class="vf-note" pointer-events="bounding-box"><g class="vf-stem" pointer-events="bounding-box"><path stroke-width="1.5" fill="none" stroke="#000000" stroke-dasharray="none" class="vf-stem" id="vf-auto998807-stem" d="M616.3471071999999 313.09999999999997L616.3471071999999 278.09999999999997"></path></g><g class="vf-notehead" pointer-events="bounding-box"><path stroke-width="0.3" fill="#000000" stroke="none" stroke-dasharray="none" d="M605.0788671999999 313.09999999999997M612.4358271999998 307.87712C612.5481471999999 307.87712,612.7166271999998 307.87712,612.7447071999999 307.87712C612.7447071999999 307.87712,612.7727871999999 307.87712,612.7727871999999 307.87712C612.7727871999999 307.87712,612.9412671999999 307.87712,613.0816671999999 307.87712C615.6088671999998 308.01752,617.0971071999999 309.67423999999994,617.0971071999999 311.75215999999995C617.0971071999999 312.76304,616.7601471999999 313.91432,615.9177471999999 315.00944C614.3171871999999 317.17159999999996,611.7057471999999 318.35096,609.4312671999999 318.35096C607.6622271999998 318.35096,606.1459071999999 317.64896,605.4158271999999 316.21687999999995C605.1911871999998 315.65527999999995,605.0788671999999 315.12175999999994,605.0788671999999 314.53207999999995C605.0788671999999 311.47135999999995,608.5046271999998 308.07367999999997,612.4358271999998 307.87712"></path></g></g><g class="vf-modifiers"></g></g><g class="vf-stavenote" id="vf-auto998815"><g class="vf-note" pointer-events="bounding-box"><g class="vf-stem" pointer-events="bounding-box"><path stroke-width="1.5" fill="none" stroke="#000000" stroke-dasharray="none" class="vf-stem" id="vf-auto998815-stem" d="M674.8288671999999 278.09999999999997L674.8288671999999 313.09999999999997"></path></g><g class="vf-notehead" pointer-events="bounding-box"><path stroke-width="0.3" fill="#000000" stroke="none" stroke-dasharray="none" d="M674.0788671999999 278.09999999999997M681.4358271999998 272.87712C681.5481471999999 272.87712,681.7166271999998 272.87712,681.7447071999999 272.87712C681.7447071999999 272.87712,681.7727871999999 272.87712,681.7727871999999 272.87712C681.7727871999999 272.87712,681.9412671999999 272.87712,682.0816671999999 272.87712C684.6088671999998 273.01752,686.0971071999999 274.67423999999994,686.0971071999999 276.75215999999995C686.0971071999999 277.76304,685.7601471999999 278.91432,684.9177471999999 280.00944C683.3171871999999 282.17159999999996,680.7057471999999 283.35096,678.4312671999999 283.35096C676.6622271999998 283.35096,675.1459071999999 282.64896,674.4158271999999 281.21687999999995C674.1911871999998 280.65527999999995,674.0788671999999 280.12175999999994,674.0788671999999 279.53207999999995C674.0788671999999 276.47135999999995,677.5046271999998 273.07367999999997,681.4358271999998 272.87712"></path></g></g><g class="vf-modifiers"></g></g><path stroke-width="1" fill="none" stroke="#000000" stroke-dasharray="none" d="M705.5788671999999 263.09999999999997L723.5971071999999 263.09999999999997"></path><g class="vf-stavenote" id="vf-auto998823"><g class="vf-note" pointer-events="bounding-box"><g class="vf-stem" pointer-events="bounding-box"><path stroke-width="1.5" fill="none" stroke="#000000" stroke-dasharray="none" class="vf-stem" id="vf-auto998823-stem" d="M709.3288671999999 263.09999999999997L709.3288671999999 298.09999999999997"></path></g><g class="vf-notehead" pointer-events="bounding-box"><path stroke-width="0.3" fill="#000000" stroke="none" stroke-dasharray="none" d="M708.5788671999999 263.09999999999997M715.9358271999998 257.87712C716.0481471999999 257.87712,716.2166271999998 257.87712,716.2447071999999 257.87712C716.2447071999999 257.87712,716.2727871999999 257.87712,716.2727871999999 257.87712C716.2727871999999 257.87712,716.4412671999999 257.87712,716.5816671999999 257.87712C719.1088671999998 258.01752,720.5971071999999 259.67423999999994,720.5971071999999 261.75215999999995C720.5971071999999 262.76304,720.2601471999999 263.91432,719.4177471999999 265.00944C717.8171871999999 267.17159999999996,715.2057471999999 268.35096,712.9312671999999 268.35096C711.1622271999998 268.35096,709.6459071999999 267.64896,708.9158271999999 266.21687999999995C708.6911871999998 265.65527999999995,708.5788671999999 265.12175999999994,708.5788671999999 264.53207999999995C708.5788671999999 261.47135999999995,712.0046271999998 258.07367999999997,715.9358271999998 257.87712"></path></g></g><g class="vf-modifiers"></g></g><rect stroke-width="0.3" fill="#000000" stroke="#000000" stroke-dasharray="none" x="737.0456895999998" y="166.5" width="1" height="147.59999999999997"></rect><rect stroke-width="0.3" fill="#000000" stroke="#000000" stroke-dasharray="none" x="740.0456895999998" y="166.5" width="3" height="147.59999999999997"></rect><path stroke-width="0.3" fill="#000000" stroke="none" stroke-dasharray="none" d="M68 166.5C45.2 196.01999999999998,81.2 220.374,56 240.29999999999998C81.2 260.226,45.2 284.58,68 314.09999999999997C44 284.58,72.8 260.226,56 240.29999999999998C72.8 220.374,44 196.01999999999998,68 166.5"></path><path stroke-width="1" fill="none" stroke="#000000" stroke-dasharray="none" d="M68 166.5C45.2 196.01999999999998,81.2 220.374,56 240.29999999999998C81.2 260.226,45.2 284.58,68 314.09999999999997C44 284.58,72.8 260.226,56 240.29999999999998C72.8 220.374,44 196.01999999999998,68 166.5"></path><g class="vf-text"><text stroke-width="0.3" fill="#000000" stroke="none" stroke-dasharray="none" font-family="Times New Roman" font-size="15px" font-weight="normal" font-style="normal" x="436.41204479999993" y="163.5">3</text></g></svg>