<svg xmlns="http://www.w3.org/2000/svg"  width="1280" height="375.79999999999995" viewBox="0 0 1280 375.79999999999995"><path stroke-width="1" fill="none" stroke="#000000" stroke-dasharray="none" d="M70 166.5L308.54522239999994 166.5"></path><path stroke-width="1" fill="none" stroke="#000000" stroke-dasharray="none" d="M70 176.5L308.54522239999994 176.5"></path><path stroke-width="1" fill="none" stroke="#000000" stroke-dasharray="none" d="M70 186.5L308.54522239999994 186.5"></path><path stroke-width="1" fill="none" stroke="#000000" stroke-dasharray="none" d="M70 196.5L308.54522239999994 196.5"></path><path stroke-width="1" fill="none" stroke="#000000" stroke-dasharray="none" d="M70 206.5L308.54522239999994 206.5"></path><rect stroke-width="0.3" fill="#000000" stroke="#000000" stroke-dasharray="none" x="308.54522239999994" y="166" width="1" height="41"></rect><g class="vf-clef"><path stroke-width="0.3" fill="#000000" stroke="none" stroke-dasharray="none" d="M75 196.5M89.0544 153.3288C89.112 153.3,89.1696 153.3,89.256 153.3C89.6016 153.3,90.0048 153.588,90.5808 154.308C92.9136 156.9864,94.5552 161.652,94.5552 165.4536C94.5552 165.7416,94.4976 165.972,94.4976 166.26C94.2384 170.7816,92.3952 174.4968,88.7376 178.0104L87.7584 178.9608L87.4128 179.3352L87.4128 179.4504L87.6144 180.3144L87.9312 181.8696L88.248 183.3096C88.68 185.268,88.8528 186.276,88.8528 186.276C88.8528 186.276,88.8528 186.276,88.8528 186.276C88.8528 186.276,88.968 186.276,89.112 186.2472C89.256 186.2472,89.7168 186.1896,90.2064 186.1896C90.55199999999999 186.1896,90.8976 186.2472,91.0704 186.2472C95.1312 186.7656,98.2704 189.6744,99.1632 193.764C99.336 194.4264,99.39359999999999 195.1464,99.39359999999999 195.8664C99.39359999999999 199.7544,97.0608 203.4696,93.1728 205.2264C92.94239999999999 205.3704,92.856 205.3992,92.856 205.3992L92.856 205.428C92.856 205.428,93.0288 206.0904,93.1728 206.8392L93.6048 209.028L94.008 210.7848C94.2384 211.908,94.3536 212.7144,94.3536 213.4344C94.3536 214.06799999999998,94.2672 214.644,94.1232 215.3064C93.144 219.3096,89.6592 221.7,86.0304 221.7C84.2448 221.7,82.4016 221.124,80.7888 219.828C79.3488 218.6184,78.7152 217.524,78.7152 216.084C78.7152 213.5496,80.76 211.764,82.8912 211.764C83.64 211.764,84.3888 211.99439999999998,85.1088 212.4264C86.3184 213.2616,86.8656 214.5288,86.8656 215.7672C86.8656 217.668,85.5408 219.54,83.2656 219.684L83.0352 219.684L83.208 219.79919999999998C84.1584 220.2024,85.1088 220.404,86.0304 220.404C88.3632 220.404,90.55199999999999 219.2232,91.8768 217.1784C92.62559999999999 216.0264,93.0288 214.6728,93.0288 213.3192C93.0288 212.8008,92.94239999999999 212.2824,92.8272 211.7064C92.8272 211.6488,92.74080000000001 211.188,92.62559999999999 210.756C91.992 207.6456,91.6176 205.8312,91.6176 205.8312C91.6176 205.8312,91.6176 205.8312,91.6176 205.8312C91.56 205.8312,91.4448 205.8312,91.3584 205.8888C91.0704 205.9464,90.4656 206.0904,90.2064 206.1192C89.5728 206.2056,88.968 206.2344,88.392 206.2344C82.74719999999999 206.2344,77.5056 202.4328,75.6912 196.8168C75.2304 195.3192,74.9712 193.8216,74.9712 192.324C74.9712 189.3288,75.9216 186.3912,77.7648 183.7704C79.7808 180.9192,81.7968 178.4712,84.2736 175.9368L85.13759999999999 175.044L84.936 173.9784L84.5616 172.2216L84.072 169.9752C83.928 169.14,83.7552 168.3336,83.7264 168.1608C83.5824 167.2104,83.496 166.2888,83.496 165.3384C83.496 161.7096,84.6768 158.22480000000002,86.8944 155.4312C87.5568 154.5672,88.7376 153.4152,89.0544 153.3288M90.8112 159.0312C90.7536 159.0312,90.6672 159.0312,90.5808 159.0312C89.4 159.0312,87.8736 160.1256,86.8368 161.7384C85.7712 163.32240000000002,85.224 165.4248,85.224 167.5848C85.224 168.1608,85.25280000000001 168.7656,85.3392 169.3704C85.4256 169.8024,85.45439999999999 170.0904,85.6848 171.12720000000002L86.088 172.9416C86.2032 173.4888,86.28960000000001 173.92079999999999,86.28960000000001 173.9784L86.28960000000001 173.9784C86.3184 173.9784,87.2112 172.9992,87.4992 172.6536C90.3792 169.3992,92.1072 165.972,92.4816 162.948C92.5104 162.66,92.5104 162.4296,92.5104 162.1416C92.5104 161.24880000000002,92.3952 160.38479999999998,92.1936 159.924C91.9632 159.4632,91.4448 159.0888,90.8112 159.0312M86.4624 181.2936C86.4048 180.8904,86.3184 180.5736,86.3184 180.516C86.3184 180.516,86.3184 180.516,86.28960000000001 180.516C86.232 180.516,84.9936 181.956,84.1296 182.964C82.6608 184.7496,81.1056 186.8808,80.472 187.9176C79.2624 189.9624,78.6576 192.2376,78.6576 194.484C78.6576 195.9528,78.9456 197.364,79.464 198.7176C81.0192 202.7208,84.5904 205.2264,88.4784 205.2264C88.9392 205.2264,89.4576 205.1976,89.9472 205.1112C90.5808 204.996,91.3584 204.7656,91.3584 204.6792L91.3584 204.6792C91.3584 204.6792,91.3008 204.3912,91.2144 204.0744L90.3792 199.956L89.7168 196.8744L89.2848 194.7432L88.824 192.6696C88.5936 191.4312,88.5072 191.1144,88.5072 191.1144C88.5072 191.1144,88.5072 191.0856,88.4784 191.0856C88.3056 191.0856,87.384 191.5464,86.9808 191.8344C85.4832 192.8712,84.7056 194.5128,84.7056 196.1256C84.7056 197.652,85.45439999999999 199.1784,86.8944 200.0712C87.2112 200.2728,87.3264 200.4456,87.3264 200.6472C87.3264 200.676,87.3264 200.7624,87.3264 200.7912C87.2688 201.1368,87.0672 201.2808,86.7792 201.2808C86.664 201.2808,86.52 201.252,86.3472 201.1656C83.6976 200.0136,81.912 197.2776,81.912 194.2824L81.912 194.2824C81.912 190.8264,84.072 187.8312,87.384 186.6504L87.5568 186.5928L87.2688 185.1528L86.4624 181.2936M90.7824 190.9128C90.55199999999999 190.88400000000001,90.3216 190.88400000000001,90.1488 190.88400000000001C90.0912 190.88400000000001,90.0048 190.88400000000001,89.9472 190.88400000000001L89.8032 190.88400000000001L89.9184 191.4024L90.5232 194.2248L90.8976 196.068L91.3008 197.8824L92.1072 201.8856L92.424 203.412C92.5392 203.8152,92.5968 204.1608,92.62559999999999 204.1608C92.62559999999999 204.1608,92.62559999999999 204.1608,92.62559999999999 204.1608C92.6544 204.1608,93.144 203.8728,93.4608 203.6424C94.9296 202.6056,96.024 200.9928,96.4272 199.3224C96.5712 198.7752,96.6288 198.1992,96.6288 197.652C96.6288 194.3112,94.152 191.2872,90.7824 190.9128"></path></g><path stroke-width="0.3" fill="#000000" stroke="none" stroke-dasharray="none" d="M116 186.5M121.0112 168.1544C121.04 168.1256,121.4432 168.1256,122.6816 168.1256C123.056 168.1256,123.4592 168.1256,123.9776 168.1256L126.8864 168.1256L126.9728 168.212C127.1168 168.29840000000002,127.2032 168.4424,127.2032 168.5576C127.2032 168.7304,127.1168 168.8456,127.0016 168.9608C126.9728 169.0472,126.7136 169.2776,126.5408 169.5368L125.0144 171.2936L123.056 173.5112L122.0192 174.692L120.464 176.4776L118.4192 178.8104C118.0736 179.2424,117.6992 179.588,117.6992 179.588C117.6992 179.588,117.6992 179.588,117.6992 179.588C117.6992 179.6456,117.9584 179.6456,120.3488 179.6456L122.9696 179.6456L122.9696 177.7736C122.9696 175.8728,122.9696 175.844,122.9984 175.8152C123.056 175.7288,123.3152 175.412,124.3232 174.2312L124.7264 173.7992L125.1296 173.3672L125.7344 172.5896L126.368 171.9272L126.6848 171.524C126.8 171.3512,126.9728 171.3224,127.1168 171.3224C127.28960000000001 171.3224,127.4336 171.4088,127.52 171.5528C127.5488 171.6392,127.5488 171.6968,127.5488 173.828C127.5488 174.3176,127.5488 174.9224,127.5488 175.6424L127.5488 179.6456L128.2688 179.6456C128.9312 179.6456,128.96 179.6456,129.0464 179.6744C129.2768 179.7608,129.392 179.9912,129.392 180.2504C129.392 180.3944,129.3632 180.5672,129.248 180.6824C129.0752 180.8264,129.0464 180.8264,128.2688 180.8264L127.5488 180.8264L127.5488 181.316C127.5776 182.7848,127.8656 183.3608,128.9888 183.9656C129.392 184.1672,129.4784 184.2248,129.4784 184.5128C129.4784 184.7144,129.42079999999999 184.8008,129.2768 184.916L129.1904 184.9448L125.2448 184.9448L121.328 184.9448L121.2416 184.916C121.0688 184.8008,121.04 184.7144,121.04 184.5128C121.04 184.2248,121.0688 184.1672,121.5008 183.9656C122.624 183.3608,122.912 182.7848,122.912 181.316L122.912 180.8264L119.6 180.8264C118.9952 180.88400000000001,118.5056 180.88400000000001,118.1024 180.88400000000001C116.288 180.88400000000001,116.2592 180.8264,116.2304 180.8264C116.0576 180.7688,116 180.596,116 180.3944C116 180.3944,116 180.3944,116 180.3944C116 180.1928,116 180.1928,116.576 179.5304C118.9952 176.5928,120.6944 172.3304,120.6944 168.93200000000002C120.6944 168.4136,120.7808 168.2408,121.0112 168.1544M122.7392 186.5288L122.768 186.5288L122.6816 186.5288L122.7392 186.5288M122.7392 167.1176L122.768 167.1176L122.6816 167.1176L122.7392 167.1176"></path><path stroke-width="0.3" fill="#000000" stroke="none" stroke-dasharray="none" d="M116 206.5M121.0112 188.1544C121.04 188.1256,121.4432 188.1256,122.6816 188.1256C123.056 188.1256,123.4592 188.1256,123.9776 188.1256L126.8864 188.1256L126.9728 188.212C127.1168 188.29840000000002,127.2032 188.4424,127.2032 188.5576C127.2032 188.7304,127.1168 188.8456,127.0016 188.9608C126.9728 189.0472,126.7136 189.2776,126.5408 189.5368L125.0144 191.2936L123.056 193.5112L122.0192 194.692L120.464 196.4776L118.4192 198.8104C118.0736 199.2424,117.6992 199.588,117.6992 199.588C117.6992 199.588,117.6992 199.588,117.6992 199.588C117.6992 199.6456,117.9584 199.6456,120.3488 199.6456L122.9696 199.6456L122.9696 197.7736C122.9696 195.8728,122.9696 195.844,122.9984 195.8152C123.056 195.7288,123.3152 195.412,124.3232 194.2312L124.7264 193.7992L125.1296 193.3672L125.7344 192.5896L126.368 191.9272L126.6848 191.524C126.8 191.3512,126.9728 191.3224,127.1168 191.3224C127.28960000000001 191.3224,127.4336 191.4088,127.52 191.5528C127.5488 191.6392,127.5488 191.6968,127.5488 193.828C127.5488 194.3176,127.5488 194.9224,127.5488 195.6424L127.5488 199.6456L128.2688 199.6456C128.9312 199.6456,128.96 199.6456,129.0464 199.6744C129.2768 199.7608,129.392 199.9912,129.392 200.2504C129.392 200.3944,129.3632 200.5672,129.248 200.6824C129.0752 200.8264,129.0464 200.8264,128.2688 200.8264L127.5488 200.8264L127.5488 201.316C127.5776 202.7848,127.8656 203.3608,128.9888 203.9656C129.392 204.1672,129.4784 204.2248,129.4784 204.5128C129.4784 204.7144,129.42079999999999 204.8008,129.2768 204.916L129.1904 204.9448L125.2448 204.9448L121.328 204.9448L121.2416 204.916C121.0688 204.8008,121.04 204.7144,121.04 204.5128C121.04 204.2248,121.0688 204.1672,121.5008 203.9656C122.624 203.3608,122.912 202.7848,122.912 201.316L122.912 200.8264L119.6 200.8264C118.9952 200.88400000000001,118.5056 200.88400000000001,118.1024 200.88400000000001C116.288 200.88400000000001,116.2592 200.8264,116.2304 200.8264C116.0576 200.7688,116 200.596,116 200.3944C116 200.3944,116 200.3944,116 200.3944C116 200.1928,116 200.1928,116.576 199.5304C118.9952 196.5928,120.6944 192.3304,120.6944 188.93200000000002C120.6944 188.4136,120.7808 188.2408,121.0112 188.1544M122.7392 206.5288L122.768 206.5288L122.6816 206.5288L122.7392 206.5288M122.7392 187.1176L122.768 187.1176L122.6816 187.1176L122.7392 187.1176"></path><g class="vf-stavenote" id="vf-auto370739"><g class="vf-note" pointer-events="bounding-box"><g class="vf-stem" pointer-events="bounding-box"><path stroke-width="1.5" fill="none" stroke="#000000" stroke-dasharray="none" class="vf-stem" id="vf-auto370739-stem" d="M142.2284 181.5L142.2284 216.5"></path></g><g class="vf-notehead" pointer-events="bounding-box"><path stroke-width="0.3" fill="#000000" stroke="none" stroke-dasharray="none" d="M141.4784 181.5M148.83535999999998 176.27712C148.94768 176.27712,149.11615999999998 176.27712,149.14424 176.27712C149.14424 176.27712,149.17231999999998 176.27712,149.17231999999998 176.27712C149.17231999999998 176.27712,149.3408 176.27712,149.4812 176.27712C152.0084 176.41752,153.49663999999999 178.07424,153.49663999999999 180.15216C153.49663999999999 181.16304,153.15967999999998 182.31432,152.31727999999998 183.40944C150.71671999999998 185.5716,148.10528 186.75096,145.83079999999998 186.75096C144.06176 186.75096,142.54543999999999 186.04896,141.81536 184.61688C141.59072 184.05528,141.4784 183.52176,141.4784 182.93208C141.4784 179.87136,144.90416 176.47368,148.83535999999998 176.27712"></path></g></g><g class="vf-modifiers"></g></g><path stroke-width="1" fill="none" stroke="#000000" stroke-dasharray="none" d="M180.6088 216.5L198.62704 216.5"></path><g class="vf-stavenote" id="vf-auto370747"><g class="vf-note" pointer-events="bounding-box"><g class="vf-stem" pointer-events="bounding-box"><path stroke-width="1.5" fill="none" stroke="#000000" stroke-dasharray="none" class="vf-stem" id="vf-auto370747-stem" d="M194.87704 216.5L194.87704 181.5"></path></g><g class="vf-notehead" pointer-events="bounding-box"><path stroke-width="0.3" fill="#000000" stroke="none" stroke-dasharray="none" d="M183.6088 216.5M190.96576 211.27712C191.07808 211.27712,191.24656 211.27712,191.27464 211.27712C191.27464 211.27712,191.30272 211.27712,191.30272 211.27712C191.30272 211.27712,191.4712 211.27712,191.6116 211.27712C194.1388 211.41752,195.62704 213.07424,195.62704 215.15216C195.62704 216.16304,195.29008 217.31432,194.44768 218.40944C192.84712 220.5716,190.23568 221.75096,187.9612 221.75096C186.19216 221.75096,184.67584 221.04896,183.94576 219.61688C183.72112 219.05528,183.6088 218.52176,183.6088 217.93208C183.6088 214.87136,187.03456 211.47368,190.96576 211.27712"></path></g></g><g class="vf-modifiers"></g></g><g class="vf-stavenote" id="vf-auto370755"><g class="vf-note" pointer-events="bounding-box"><g class="vf-stem" pointer-events="bounding-box"><path stroke-width="1.5" fill="none" stroke="#000000" stroke-dasharray="none" class="vf-stem" id="vf-auto370755-stem" d="M226.48919999999998 186.5L226.48919999999998 221.5"></path></g><g class="vf-notehead" pointer-events="bounding-box"><path stroke-width="0.3" fill="#000000" stroke="none" stroke-dasharray="none" d="M225.73919999999998 186.5M233.09615999999997 181.27712C233.20847999999998 181.27712,233.37696 181.27712,233.40503999999999 181.27712C233.40503999999999 181.27712,233.43311999999997 181.27712,233.43311999999997 181.27712C233.43311999999997 181.27712,233.6016 181.27712,233.742 181.27712C236.26919999999998 181.41752,237.75743999999997 183.07424,237.75743999999997 185.15216C237.75743999999997 186.16304,237.42048 187.31432,236.57807999999997 188.40944C234.97751999999997 190.5716,232.36607999999998 191.75096,230.09159999999997 191.75096C228.32255999999998 191.75096,226.80623999999997 191.04896,226.07616 189.61688C225.85152 189.05528,225.73919999999998 188.52176,225.73919999999998 187.93208C225.73919999999998 184.87136,229.16495999999998 181.47368,233.09615999999997 181.27712"></path></g></g><g class="vf-modifiers"></g></g><g class="vf-stavenote" id="vf-auto370763"><g class="vf-note" pointer-events="bounding-box"><g class="vf-stem" pointer-events="bounding-box"><path stroke-width="1.5" fill="none" stroke="#000000" stroke-dasharray="none" class="vf-stem" id="vf-auto370763-stem" d="M279.13784 191.5L279.13784 156.5"></path></g><g class="vf-notehead" pointer-events="bounding-box"><path stroke-width="0.3" fill="#000000" stroke="none" stroke-dasharray="none" d="M267.8696 191.5M275.22656 186.27712C275.33888 186.27712,275.50736 186.27712,275.53544 186.27712C275.53544 186.27712,275.56352 186.27712,275.56352 186.27712C275.56352 186.27712,275.73199999999997 186.27712,275.87239999999997 186.27712C278.39959999999996 186.41752,279.88784 188.07424,279.88784 190.15216C279.88784 191.16304,279.55088 192.31432,278.70848 193.40944C277.10792 195.5716,274.49648 196.75096,272.222 196.75096C270.45296 196.75096,268.93664 196.04896,268.20655999999997 194.61688C267.98192 194.05528,267.8696 193.52176,267.8696 192.93208C267.8696 189.87136,271.29536 186.47368,275.22656 186.27712"></path></g></g><g class="vf-modifiers"></g></g><path stroke-width="1" fill="none" stroke="#000000" stroke-dasharray="none" d="M308.54522239999994 166.5L460.9120447999999 166.5"></path><path stroke-width="1" fill="none" stroke="#000000" stroke-dasharray="none" d="M308.54522239999994 176.5L460.9120447999999 176.5"></path><path stroke-width="1" fill="none" stroke="#000000" stroke-dasharray="none" d="M308.54522239999994 186.5L460.9120447999999 186.5"></path><path stroke-width="1" fill="none" stroke="#000000" stroke-dasharray="none" d="M308.54522239999994 196.5L460.9120447999999 196.5"></path><path stroke-width="1" fill="none" stroke="#000000" stroke-dasharray="none" d="M308.54522239999994 206.5L460.9120447999999 206.5"></path><rect stroke-width="0.3" fill="#000000" stroke="#000000" stroke-dasharray="none" x="460.9120447999999" y="166" width="1" height="41"></rect><g class="vf-stavenote" id="vf-auto370772"><g class="vf-note" pointer-events="bounding-box"><g class="vf-stem" pointer-events="bounding-box"><path stroke-width="1.5" fill="none" stroke="#000000" stroke-dasharray="none" class="vf-stem" id="vf-auto370772-stem" d="M336.81346239999993 201.5L336.81346239999993 166.5"></path></g><g class="vf-notehead" pointer-events="bounding-box"><path stroke-width="0.3" fill="#000000" stroke="none" stroke-dasharray="none" d="M325.54522239999994 201.5M332.90218239999996 196.27712C333.01450239999997 196.27712,333.18298239999996 196.27712,333.21106239999995 196.27712C333.21106239999995 196.27712,333.23914239999993 196.27712,333.23914239999993 196.27712C333.23914239999993 196.27712,333.4076223999999 196.27712,333.5480223999999 196.27712C336.0752223999999 196.41752,337.56346239999993 198.07424,337.56346239999993 200.15216C337.56346239999993 201.16304,337.22650239999996 202.31432,336.38410239999996 203.40944C334.78354239999993 205.5716,332.17210239999997 206.75096,329.89762239999993 206.75096C328.12858239999997 206.75096,326.61226239999996 206.04896,325.8821823999999 204.61688C325.65754239999995 204.05528,325.54522239999994 203.52176,325.54522239999994 202.93208C325.54522239999994 199.87136,328.97098239999997 196.47368,332.90218239999996 196.27712"></path></g></g><g class="vf-modifiers"></g></g><path stroke-width="1" fill="none" stroke="#000000" stroke-dasharray="none" d="M356.79522239999994 216.5L374.81346239999993 216.5"></path><g class="vf-stavenote" id="vf-auto370780"><g class="vf-note" pointer-events="bounding-box"><g class="vf-stem" pointer-events="bounding-box"><path stroke-width="1.5" fill="none" stroke="#000000" stroke-dasharray="none" class="vf-stem" id="vf-auto370780-stem" d="M371.06346239999993 221.5L371.06346239999993 186.5"></path></g><g class="vf-notehead" pointer-events="bounding-box"><path stroke-width="0.3" fill="#000000" stroke="none" stroke-dasharray="none" d="M359.79522239999994 221.5M367.15218239999996 216.27712C367.26450239999997 216.27712,367.43298239999996 216.27712,367.46106239999995 216.27712C367.46106239999995 216.27712,367.48914239999993 216.27712,367.48914239999993 216.27712C367.48914239999993 216.27712,367.6576223999999 216.27712,367.7980223999999 216.27712C370.3252223999999 216.41752,371.81346239999993 218.07424,371.81346239999993 220.15216C371.81346239999993 221.16304,371.47650239999996 222.31432,370.63410239999996 223.40944C369.03354239999993 225.5716,366.42210239999997 226.75096,364.14762239999993 226.75096C362.37858239999997 226.75096,360.86226239999996 226.04896,360.1321823999999 224.61688C359.90754239999995 224.05528,359.79522239999994 223.52176,359.79522239999994 222.93208C359.79522239999994 219.87136,363.22098239999997 216.47368,367.15218239999996 216.27712"></path></g></g><g class="vf-modifiers"></g></g><g class="vf-stavenote" id="vf-auto370788"><g class="vf-note" pointer-events="bounding-box"><g class="vf-stem" pointer-events="bounding-box"><path stroke-width="1.5" fill="none" stroke="#000000" stroke-dasharray="none" class="vf-stem" id="vf-auto370788-stem" d="M405.31346239999993 211.5L405.31346239999993 176.5"></path></g><g class="vf-notehead" pointer-events="bounding-box"><path stroke-width="0.3" fill="#000000" stroke="none" stroke-dasharray="none" d="M394.04522239999994 211.5M401.40218239999996 206.27712C401.51450239999997 206.27712,401.68298239999996 206.27712,401.71106239999995 206.27712C401.71106239999995 206.27712,401.73914239999993 206.27712,401.73914239999993 206.27712C401.73914239999993 206.27712,401.9076223999999 206.27712,402.0480223999999 206.27712C404.5752223999999 206.41752,406.06346239999993 208.07424,406.06346239999993 210.15216C406.06346239999993 211.16304,405.72650239999996 212.31432,404.88410239999996 213.40944C403.28354239999993 215.5716,400.67210239999997 216.75096,398.39762239999993 216.75096C396.62858239999997 216.75096,395.11226239999996 216.04896,394.3821823999999 214.61688C394.15754239999995 214.05528,394.04522239999994 213.52176,394.04522239999994 212.93208C394.04522239999994 209.87136,397.47098239999997 206.47368,401.40218239999996 206.27712"></path></g></g><g class="vf-modifiers"></g></g><path stroke-width="1" fill="none" stroke="#000000" stroke-dasharray="none" d="M460.9120447999999 166.5L609.0788671999999 166.5"></path><path stroke-width="1" fill="none" stroke="#000000" stroke-dasharray="none" d="M460.9120447999999 176.5L609.0788671999999 176.5"></path><path stroke-width="1" fill="none" stroke="#000000" stroke-dasharray="none" d="M460.9120447999999 186.5L609.0788671999999 186.5"></path><path stroke-width="1" fill="none" stroke="#000000" stroke-dasharray="none" d="M460.9120447999999 196.5L609.0788671999999 196.5"></path><path stroke-width="1" fill="none" stroke="#000000" stroke-dasharray="none" d="M460.9120447999999 206.5L609.0788671999999 206.5"></path><rect stroke-width="0.3" fill="#000000" stroke="#000000" stroke-dasharray="none" x="609.0788671999999" y="166" width="1" height="41"></rect><g class="vf-stavenote" id="vf-auto370809"><g class="vf-note" pointer-events="bounding-box"><g class="vf-stem" pointer-events="bounding-box"><path stroke-width="1.5" fill="none" stroke="#000000" stroke-dasharray="none" class="vf-stem" id="vf-auto370809-stem" d="M478.6620447999999 186.5L478.6620447999999 221.5"></path></g><g class="vf-notehead" pointer-events="bounding-box"><path stroke-width="0.3" fill="#000000" stroke="none" stroke-dasharray="none" d="M477.9120447999999 186.5M485.2690047999999 181.27712C485.3813247999999 181.27712,485.5498047999999 181.27712,485.5778847999999 181.27712C485.5778847999999 181.27712,485.60596479999987 181.27712,485.60596479999987 181.27712C485.60596479999987 181.27712,485.77444479999986 181.27712,485.91484479999986 181.27712C488.44204479999985 181.41752,489.93028479999987 183.07424,489.93028479999987 185.15216C489.93028479999987 186.16304,489.5933247999999 187.31432,488.7509247999999 188.40944C487.15036479999986 190.5716,484.5389247999999 191.75096,482.26444479999986 191.75096C480.4954047999999 191.75096,478.9790847999999 191.04896,478.24900479999985 189.61688C478.0243647999999 189.05528,477.9120447999999 188.52176,477.9120447999999 187.93208C477.9120447999999 184.87136,481.3378047999999 181.47368,485.2690047999999 181.27712"></path></g></g><g class="vf-modifiers"></g></g><path stroke-width="1" fill="none" stroke="#000000" stroke-dasharray="none" d="M541.4120447999999 216.5L559.4302847999999 216.5"></path><g class="vf-stavenote" id="vf-auto370817"><g class="vf-note" pointer-events="bounding-box"><g class="vf-stem" pointer-events="bounding-box"><path stroke-width="1.5" fill="none" stroke="#000000" stroke-dasharray="none" class="vf-stem" id="vf-auto370817-stem" d="M555.6802847999999 221.5L555.6802847999999 186.5"></path></g><g class="vf-notehead" pointer-events="bounding-box"><path stroke-width="0.3" fill="#000000" stroke="none" stroke-dasharray="none" d="M544.4120447999999 221.5M551.7690047999998 216.27712C551.8813247999999 216.27712,552.0498047999998 216.27712,552.0778847999999 216.27712C552.0778847999999 216.27712,552.1059647999999 216.27712,552.1059647999999 216.27712C552.1059647999999 216.27712,552.2744447999999 216.27712,552.4148447999999 216.27712C554.9420447999998 216.41752,556.4302847999999 218.07424,556.4302847999999 220.15216C556.4302847999999 221.16304,556.0933247999999 222.31432,555.2509247999999 223.40944C553.6503647999999 225.5716,551.0389247999999 226.75096,548.7644447999999 226.75096C546.9954047999998 226.75096,545.4790847999999 226.04896,544.7490047999999 224.61688C544.5243647999998 224.05528,544.4120447999999 223.52176,544.4120447999999 222.93208C544.4120447999999 219.87136,547.8378047999998 216.47368,551.7690047999998 216.27712"></path></g></g><g class="vf-modifiers"></g></g><path stroke-width="1" fill="none" stroke="#000000" stroke-dasharray="none" d="M609.0788671999998 166.5L775.6456895999997 166.5"></path><path stroke-width="1" fill="none" stroke="#000000" stroke-dasharray="none" d="M609.0788671999998 176.5L775.6456895999997 176.5"></path><path stroke-width="1" fill="none" stroke="#000000" stroke-dasharray="none" d="M609.0788671999998 186.5L775.6456895999997 186.5"></path><path stroke-width="1" fill="none" stroke="#000000" stroke-dasharray="none" d="M609.0788671999998 196.5L775.6456895999997 196.5"></path><path stroke-width="1" fill="none" stroke="#000000" stroke-dasharray="none" d="M609.0788671999998 206.5L775.6456895999997 206.5"></path><rect stroke-width="0.3" fill="#000000" stroke="#000000" stroke-dasharray="none" x="770.6456895999997" y="166" width="1" height="41"></rect><rect stroke-width="0.3" fill="#000000" stroke="#000000" stroke-dasharray="none" x="773.6456895999997" y="166" width="3" height="41"></rect><path stroke-width="0.3" fill="#000000" stroke="none" stroke-dasharray="none" d="M769.6456895999997 182 A2 2 0 0 0 765.6456895999997 182M765.6456895999997 182 A2 2 0 0 0 769.6456895999997 182"></path><path stroke-width="0.3" fill="#000000" stroke="none" stroke-dasharray="none" d="M769.6456895999997 192 A2 2 0 0 0 765.6456895999997 192M765.6456895999997 192 A2 2 0 0 0 769.6456895999997 192"></path><g class="vf-stavenote" id="vf-auto370847"><g class="vf-note" pointer-events="bounding-box"><g class="vf-stem" pointer-events="bounding-box"><path stroke-width="1.5" fill="none" stroke="#000000" stroke-dasharray="none" class="vf-stem" id="vf-auto370847-stem" d="M626.8288671999998 176.5L626.8288671999998 211.5"></path></g><g class="vf-notehead" pointer-events="bounding-box"><path stroke-width="0.3" fill="#000000" stroke="none" stroke-dasharray="none" d="M626.0788671999998 176.5M633.4358271999997 171.27712C633.5481471999998 171.27712,633.7166271999997 171.27712,633.7447071999998 171.27712C633.7447071999998 171.27712,633.7727871999998 171.27712,633.7727871999998 171.27712C633.7727871999998 171.27712,633.9412671999997 171.27712,634.0816671999997 171.27712C636.6088671999997 171.41752,638.0971071999998 173.07424,638.0971071999998 175.15216C638.0971071999998 176.16304,637.7601471999998 177.31432,636.9177471999998 178.40944C635.3171871999998 180.5716,632.7057471999998 181.75096,630.4312671999998 181.75096C628.6622271999997 181.75096,627.1459071999998 181.04896,626.4158271999997 179.61688C626.1911871999997 179.05528,626.0788671999998 178.52176,626.0788671999998 177.93208C626.0788671999998 174.87136,629.5046271999997 171.47368,633.4358271999997 171.27712"></path></g></g><g class="vf-modifiers"></g></g><g class="vf-stavenote" id="vf-auto370855"><g class="vf-note" pointer-events="bounding-box"><g class="vf-stem" pointer-events="bounding-box"><path stroke-width="1.5" fill="none" stroke="#000000" stroke-dasharray="none" class="vf-stem" id="vf-auto370855-stem" d="M664.5788671999998 186.5L664.5788671999998 221.5"></path></g><g class="vf-notehead" pointer-events="bounding-box"><path stroke-width="0.3" fill="#000000" stroke="none" stroke-dasharray="none" d="M663.8288671999998 186.5M671.1858271999997 181.27712C671.2981471999998 181.27712,671.4666271999997 181.27712,671.4947071999998 181.27712C671.4947071999998 181.27712,671.5227871999998 181.27712,671.5227871999998 181.27712C671.5227871999998 181.27712,671.6912671999997 181.27712,671.8316671999997 181.27712C674.3588671999997 181.41752,675.8471071999998 183.07424,675.8471071999998 185.15216C675.8471071999998 186.16304,675.5101471999998 187.31432,674.6677471999998 188.40944C673.0671871999998 190.5716,670.4557471999998 191.75096,668.1812671999998 191.75096C666.4122271999997 191.75096,664.8959071999998 191.04896,664.1658271999997 189.61688C663.9411871999997 189.05528,663.8288671999998 188.52176,663.8288671999998 187.93208C663.8288671999998 184.87136,667.2546271999997 181.47368,671.1858271999997 181.27712"></path></g></g><g class="vf-modifiers"></g></g><g class="vf-stavenote" id="vf-auto370863"><g class="vf-note" pointer-events="bounding-box"><g class="vf-stem" pointer-events="bounding-box"><path stroke-width="1.5" fill="none" stroke="#000000" stroke-dasharray="none" class="vf-stem" id="vf-auto370863-stem" d="M712.8471071999998 196.5L712.8471071999998 161.5"></path></g><g class="vf-notehead" pointer-events="bounding-box"><path stroke-width="0.3" fill="#000000" stroke="none" stroke-dasharray="none" d="M701.5788671999998 196.5M708.9358271999997 191.27712C709.0481471999998 191.27712,709.2166271999997 191.27712,709.2447071999998 191.27712C709.2447071999998 191.27712,709.2727871999998 191.27712,709.2727871999998 191.27712C709.2727871999998 191.27712,709.4412671999997 191.27712,709.5816671999997 191.27712C712.1088671999997 191.41752,713.5971071999998 193.07424,713.5971071999998 195.15216C713.5971071999998 196.16304,713.2601471999998 197.31432,712.4177471999998 198.40944C710.8171871999998 200.5716,708.2057471999998 201.75096,705.9312671999998 201.75096C704.1622271999997 201.75096,702.6459071999998 201.04896,701.9158271999997 199.61688C701.6911871999997 199.05528,701.5788671999998 198.52176,701.5788671999998 197.93208C701.5788671999998 194.87136,705.0046271999997 191.47368,708.9358271999997 191.27712"></path></g></g><g class="vf-modifiers"></g></g><path stroke-width="1" fill="none" stroke="#000000" stroke-dasharray="none" d="M736.3288671999998 216.5L754.3471071999998 216.5"></path><g class="vf-stavenote" id="vf-auto370871"><g class="vf-note" pointer-events="bounding-box"><g class="vf-stem" pointer-events="bounding-box"><path stroke-width="1.5" fill="none" stroke="#000000" stroke-dasharray="none" class="vf-stem" id="vf-auto370871-stem" d="M750.5971071999998 221.5L750.5971071999998 186.5"></path></g><g class="vf-notehead" pointer-events="bounding-box"><path stroke-width="0.3" fill="#000000" stroke="none" stroke-dasharray="none" d="M739.3288671999998 221.5M746.6858271999997 216.27712C746.7981471999998 216.27712,746.9666271999997 216.27712,746.9947071999998 216.27712C746.9947071999998 216.27712,747.0227871999998 216.27712,747.0227871999998 216.27712C747.0227871999998 216.27712,747.1912671999997 216.27712,747.3316671999997 216.27712C749.8588671999997 216.41752,751.3471071999998 218.07424,751.3471071999998 220.15216C751.3471071999998 221.16304,751.0101471999998 222.31432,750.1677471999998 223.40944C748.5671871999998 225.5716,745.9557471999998 226.75096,743.6812671999998 226.75096C741.9122271999997 226.75096,740.3959071999998 226.04896,739.6658271999997 224.61688C739.4411871999997 224.05528,739.3288671999998 223.52176,739.3288671999998 222.93208C739.3288671999998 219.87136,742.7546271999997 216.47368,746.6858271999997 216.27712"></path></g></g><g class="vf-modifiers"></g></g><g class="vf-text"><text stroke-width="0.3" fill="#000000" stroke="none" stroke-dasharray="none" font-family="Times New Roman" font-size="23px" font-weight="bold" font-style="italic" x="132.48752" y="240.5">mp</text></g><path stroke-width="1" fill="none" stroke="#000000" stroke-dasharray="none" d="M70 255.29999999999998L308.54522239999994 255.29999999999998"></path><path stroke-width="1" fill="none" stroke="#000000" stroke-dasharray="none" d="M70 265.29999999999995L308.54522239999994 265.29999999999995"></path><path stroke-width="1" fill="none" stroke="#000000" stroke-dasharray="none" d="M70 275.29999999999995L308.54522239999994 275.29999999999995"></path><path stroke-width="1" fill="none" stroke="#000000" stroke-dasharray="none" d="M70 285.29999999999995L308.54522239999994 285.29999999999995"></path><path stroke-width="1" fill="none" stroke="#000000" stroke-dasharray="none" d="M70 295.29999999999995L308.54522239999994 295.29999999999995"></path><rect stroke-width="0.3" fill="#000000" stroke="#000000" stroke-dasharray="none" x="308.54522239999994" y="254.79999999999998" width="1" height="40.99999999999997"></rect><g class="vf-clef"><path stroke-width="0.3" fill="#000000" stroke="none" stroke-dasharray="none" d="M75 265.29999999999995M83.8416 255.24879999999996C84.072 255.19119999999995,84.3024 255.19119999999995,84.5616 255.19119999999995C85.5696 255.19119999999995,86.7504 255.30639999999997,87.7584 255.50799999999995C92.4816 256.4872,95.736 259.68399999999997,96.3408 263.9464C96.3984 264.40719999999993,96.4272 264.83919999999995,96.4272 265.29999999999995C96.4272 267.89199999999994,95.5344 271.23279999999994,94.008 274.02639999999997C90.3792 280.59279999999995,83.7552 285.316,75.8064 287.044C75.6624 287.044,75.5472 287.0728,75.4032 287.0728C75.1152 287.0728,74.9712 286.9,74.9712 286.64079999999996C74.9712 286.35279999999995,75.0288 286.2664,75.6048 286.03599999999994C84.7056 282.6088,90.7824 275.20719999999994,91.3296 266.91279999999995C91.3584 266.48079999999993,91.3584 265.99119999999994,91.3584 265.61679999999996C91.3584 261.5848,90.12 258.58959999999996,87.7296 257.0919999999999C86.6928 256.42959999999994,85.5696 256.11279999999994,84.36 256.11279999999994C81.6816 256.11279999999994,78.9456 257.63919999999996,77.6784 260.20239999999995C77.6208 260.40399999999994,77.4192 260.83599999999996,77.4192 260.86479999999995C77.4192 260.86479999999995,77.4192 260.86479999999995,77.4192 260.86479999999995C77.4192 260.86479999999995,77.448 260.83599999999996,77.5344 260.80719999999997C78.168 260.40399999999994,78.8592 260.20239999999995,79.5792 260.20239999999995C80.5872 260.20239999999995,81.6528 260.63439999999997,82.4016 261.44079999999997C83.0928 262.1895999999999,83.4672 263.19759999999997,83.4672 264.1192C83.4672 265.99119999999994,82.0848 267.89199999999994,79.9248 268.0936C79.7808 268.0936,79.6368 268.12239999999997,79.4928 268.12239999999997C77.1024 268.12239999999997,75.1728 265.93359999999996,75.1728 263.1688C75.1728 263.11119999999994,75.1728 263.02479999999997,75.1728 262.996C75.288 258.8776,79.0608 255.50799999999995,83.8416 255.24879999999996M99.1632 259.10799999999995C99.2208 259.07919999999996,99.2496 259.07919999999996,99.336 259.07919999999996C99.5376 259.07919999999996,99.768 259.10799999999995,99.8256 259.1655999999999C100.54560000000001 259.36719999999997,100.8912 260.00079999999997,100.8912 260.6056C100.8912 261.12399999999997,100.632 261.64239999999995,100.11359999999999 261.93039999999996C99.912 262.07439999999997,99.6528 262.10319999999996,99.39359999999999 262.10319999999996C98.9904 262.10319999999996,98.5584 261.93039999999996,98.2704 261.5559999999999C98.03999999999999 261.268,97.9248 260.9512,97.9248 260.63439999999997C97.9248 259.91439999999994,98.3856 259.1944,99.1632 259.10799999999995M99.1632 268.52559999999994C99.2208 268.52559999999994,99.2496 268.52559999999994,99.336 268.52559999999994C99.5376 268.52559999999994,99.768 268.55439999999993,99.8256 268.61199999999997C100.54560000000001 268.81359999999995,100.8912 269.44719999999995,100.8912 270.05199999999996C100.8912 270.57039999999995,100.632 271.08879999999994,100.11359999999999 271.34799999999996C99.912 271.49199999999996,99.6528 271.54959999999994,99.39359999999999 271.54959999999994C98.9904 271.54959999999994,98.5584 271.34799999999996,98.2704 271.00239999999997C98.03999999999999 270.71439999999996,97.9248 270.39759999999995,97.9248 270.05199999999996C97.9248 269.33199999999994,98.3856 268.64079999999996,99.1632 268.52559999999994"></path></g><path stroke-width="0.3" fill="#000000" stroke="none" stroke-dasharray="none" d="M116 275.29999999999995M121.0112 256.95439999999996C121.04 256.9256,121.4432 256.9256,122.6816 256.9256C123.056 256.9256,123.4592 256.9256,123.9776 256.9256L126.8864 256.9256L126.9728 257.01199999999994C127.1168 257.09839999999997,127.2032 257.2424,127.2032 257.35759999999993C127.2032 257.53039999999993,127.1168 257.64559999999994,127.0016 257.76079999999996C126.9728 257.84719999999993,126.7136 258.07759999999996,126.5408 258.3367999999999L125.0144 260.0936L123.056 262.31119999999993L122.0192 263.49199999999996L120.464 265.27759999999995L118.4192 267.61039999999997C118.0736 268.04239999999993,117.6992 268.388,117.6992 268.388C117.6992 268.388,117.6992 268.388,117.6992 268.388C117.6992 268.44559999999996,117.9584 268.44559999999996,120.3488 268.44559999999996L122.9696 268.44559999999996L122.9696 266.57359999999994C122.9696 264.67279999999994,122.9696 264.64399999999995,122.9984 264.61519999999996C123.056 264.52879999999993,123.3152 264.21199999999993,124.3232 263.03119999999996L124.7264 262.59919999999994L125.1296 262.1672L125.7344 261.3896L126.368 260.7272L126.6848 260.32399999999996C126.8 260.15119999999996,126.9728 260.12239999999997,127.1168 260.12239999999997C127.28960000000001 260.12239999999997,127.4336 260.20879999999994,127.52 260.35279999999995C127.5488 260.43919999999997,127.5488 260.49679999999995,127.5488 262.62799999999993C127.5488 263.1176,127.5488 263.72239999999994,127.5488 264.44239999999996L127.5488 268.44559999999996L128.2688 268.44559999999996C128.9312 268.44559999999996,128.96 268.44559999999996,129.0464 268.47439999999995C129.2768 268.5608,129.392 268.79119999999995,129.392 269.05039999999997C129.392 269.1944,129.3632 269.36719999999997,129.248 269.4823999999999C129.0752 269.62639999999993,129.0464 269.62639999999993,128.2688 269.62639999999993L127.5488 269.62639999999993L127.5488 270.11599999999993C127.5776 271.5848,127.8656 272.16079999999994,128.9888 272.76559999999995C129.392 272.96719999999993,129.4784 273.02479999999997,129.4784 273.3128C129.4784 273.51439999999997,129.42079999999999 273.60079999999994,129.2768 273.71599999999995L129.1904 273.74479999999994L125.2448 273.74479999999994L121.328 273.74479999999994L121.2416 273.71599999999995C121.0688 273.60079999999994,121.04 273.51439999999997,121.04 273.3128C121.04 273.02479999999997,121.0688 272.96719999999993,121.5008 272.76559999999995C122.624 272.16079999999994,122.912 271.5848,122.912 270.11599999999993L122.912 269.62639999999993L119.6 269.62639999999993C118.9952 269.68399999999997,118.5056 269.68399999999997,118.1024 269.68399999999997C116.288 269.68399999999997,116.2592 269.62639999999993,116.2304 269.62639999999993C116.0576 269.56879999999995,116 269.39599999999996,116 269.1944C116 269.1944,116 269.1944,116 269.1944C116 268.99279999999993,116 268.99279999999993,116.576 268.33039999999994C118.9952 265.39279999999997,120.6944 261.13039999999995,120.6944 257.73199999999997C120.6944 257.21359999999993,120.7808 257.04079999999993,121.0112 256.95439999999996M122.7392 275.32879999999994L122.768 275.32879999999994L122.6816 275.32879999999994L122.7392 275.32879999999994M122.7392 255.91759999999996L122.768 255.91759999999996L122.6816 255.91759999999996L122.7392 255.91759999999996"></path><path stroke-width="0.3" fill="#000000" stroke="none" stroke-dasharray="none" d="M116 295.29999999999995M121.0112 276.95439999999996C121.04 276.9256,121.4432 276.9256,122.6816 276.9256C123.056 276.9256,123.4592 276.9256,123.9776 276.9256L126.8864 276.9256L126.9728 277.01199999999994C127.1168 277.09839999999997,127.2032 277.2424,127.2032 277.35759999999993C127.2032 277.53039999999993,127.1168 277.64559999999994,127.0016 277.76079999999996C126.9728 277.84719999999993,126.7136 278.07759999999996,126.5408 278.3367999999999L125.0144 280.0936L123.056 282.31119999999993L122.0192 283.49199999999996L120.464 285.27759999999995L118.4192 287.61039999999997C118.0736 288.04239999999993,117.6992 288.388,117.6992 288.388C117.6992 288.388,117.6992 288.388,117.6992 288.388C117.6992 288.44559999999996,117.9584 288.44559999999996,120.3488 288.44559999999996L122.9696 288.44559999999996L122.9696 286.57359999999994C122.9696 284.67279999999994,122.9696 284.64399999999995,122.9984 284.61519999999996C123.056 284.52879999999993,123.3152 284.21199999999993,124.3232 283.03119999999996L124.7264 282.59919999999994L125.1296 282.1672L125.7344 281.3896L126.368 280.7272L126.6848 280.32399999999996C126.8 280.15119999999996,126.9728 280.12239999999997,127.1168 280.12239999999997C127.28960000000001 280.12239999999997,127.4336 280.20879999999994,127.52 280.35279999999995C127.5488 280.43919999999997,127.5488 280.49679999999995,127.5488 282.62799999999993C127.5488 283.1176,127.5488 283.72239999999994,127.5488 284.44239999999996L127.5488 288.44559999999996L128.2688 288.44559999999996C128.9312 288.44559999999996,128.96 288.44559999999996,129.0464 288.47439999999995C129.2768 288.5608,129.392 288.79119999999995,129.392 289.05039999999997C129.392 289.1944,129.3632 289.36719999999997,129.248 289.4823999999999C129.0752 289.62639999999993,129.0464 289.62639999999993,128.2688 289.62639999999993L127.5488 289.62639999999993L127.5488 290.11599999999993C127.5776 291.5848,127.8656 292.16079999999994,128.9888 292.76559999999995C129.392 292.96719999999993,129.4784 293.02479999999997,129.4784 293.3128C129.4784 293.51439999999997,129.42079999999999 293.60079999999994,129.2768 293.71599999999995L129.1904 293.74479999999994L125.2448 293.74479999999994L121.328 293.74479999999994L121.2416 293.71599999999995C121.0688 293.60079999999994,121.04 293.51439999999997,121.04 293.3128C121.04 293.02479999999997,121.0688 292.96719999999993,121.5008 292.76559999999995C122.624 292.16079999999994,122.912 291.5848,122.912 290.11599999999993L122.912 289.62639999999993L119.6 289.62639999999993C118.9952 289.68399999999997,118.5056 289.68399999999997,118.1024 289.68399999999997C116.288 289.68399999999997,116.2592 289.62639999999993,116.2304 289.62639999999993C116.0576 289.56879999999995,116 289.39599999999996,116 289.1944C116 289.1944,116 289.1944,116 289.1944C116 288.99279999999993,116 288.99279999999993,116.576 288.33039999999994C118.9952 285.39279999999997,120.6944 281.13039999999995,120.6944 277.73199999999997C120.6944 277.21359999999993,120.7808 277.04079999999993,121.0112 276.95439999999996M122.7392 295.32879999999994L122.768 295.32879999999994L122.6816 295.32879999999994L122.7392 295.32879999999994M122.7392 275.91759999999994L122.768 275.91759999999994L122.6816 275.91759999999994L122.7392 275.91759999999994"></path><rect stroke-width="0.3" fill="#000000" stroke="#000000" stroke-dasharray="none" x="308.54522239999994" y="166.5" width="1" height="129.79999999999995"></rect><rect stroke-width="0.3" fill="#000000" stroke="#000000" stroke-dasharray="none" x="70" y="166.5" width="1" height="129.79999999999995"></rect><path stroke-width="1" fill="none" stroke="#000000" stroke-dasharray="none" d="M308.54522239999994 255.29999999999998L460.9120447999999 255.29999999999998"></path><path stroke-width="1" fill="none" stroke="#000000" stroke-dasharray="none" d="M308.54522239999994 265.29999999999995L460.9120447999999 265.29999999999995"></path><path stroke-width="1" fill="none" stroke="#000000" stroke-dasharray="none" d="M308.54522239999994 275.29999999999995L460.9120447999999 275.29999999999995"></path><path stroke-width="1" fill="none" stroke="#000000" stroke-dasharray="none" d="M308.54522239999994 285.29999999999995L460.9120447999999 285.29999999999995"></path><path stroke-width="1" fill="none" stroke="#000000" stroke-dasharray="none" d="M308.54522239999994 295.29999999999995L460.9120447999999 295.29999999999995"></path><rect stroke-width="0.3" fill="#000000" stroke="#000000" stroke-dasharray="none" x="460.9120447999999" y="254.79999999999998" width="1" height="40.99999999999997"></rect><g class="vf-stavenote" id="vf-auto370798"><g class="vf-note" pointer-events="bounding-box"><g class="vf-stem" pointer-events="bounding-box"><path stroke-width="1.5" fill="none" stroke="#000000" stroke-dasharray="none" class="vf-stem" id="vf-auto370798-stem" d="M429.04522239999994 265.29999999999995L429.04522239999994 300.29999999999995"></path></g><g class="vf-notehead" pointer-events="bounding-box"><path stroke-width="0.3" fill="#000000" stroke="none" stroke-dasharray="none" d="M428.29522239999994 265.29999999999995M435.65218239999996 260.07712C435.76450239999997 260.07712,435.93298239999996 260.07712,435.96106239999995 260.07712C435.96106239999995 260.07712,435.98914239999993 260.07712,435.98914239999993 260.07712C435.98914239999993 260.07712,436.1576223999999 260.07712,436.2980223999999 260.07712C438.8252223999999 260.21752,440.31346239999993 261.87423999999993,440.31346239999993 263.95215999999994C440.31346239999993 264.96304,439.97650239999996 266.11431999999996,439.13410239999996 267.20944C437.53354239999993 269.37159999999994,434.92210239999997 270.55096,432.64762239999993 270.55096C430.87858239999997 270.55096,429.36226239999996 269.84896,428.6321823999999 268.41687999999994C428.40754239999995 267.85527999999994,428.29522239999994 267.3217599999999,428.29522239999994 266.73207999999994C428.29522239999994 263.67135999999994,431.72098239999997 260.27367999999996,435.65218239999996 260.07712"></path></g></g><g class="vf-modifiers"></g></g><rect stroke-width="0.3" fill="#000000" stroke="#000000" stroke-dasharray="none" x="460.9120447999999" y="166.5" width="1" height="129.79999999999995"></rect><path stroke-width="1" fill="none" stroke="#000000" stroke-dasharray="none" d="M460.9120447999999 255.29999999999998L609.0788671999999 255.29999999999998"></path><path stroke-width="1" fill="none" stroke="#000000" stroke-dasharray="none" d="M460.9120447999999 265.29999999999995L609.0788671999999 265.29999999999995"></path><path stroke-width="1" fill="none" stroke="#000000" stroke-dasharray="none" d="M460.9120447999999 275.29999999999995L609.0788671999999 275.29999999999995"></path><path stroke-width="1" fill="none" stroke="#000000" stroke-dasharray="none" d="M460.9120447999999 285.29999999999995L609.0788671999999 285.29999999999995"></path><path stroke-width="1" fill="none" stroke="#000000" stroke-dasharray="none" d="M460.9120447999999 295.29999999999995L609.0788671999999 295.29999999999995"></path><rect stroke-width="0.3" fill="#000000" stroke="#000000" stroke-dasharray="none" x="609.0788671999999" y="254.79999999999998" width="1" height="40.99999999999997"></rect><g class="vf-stavenote" id="vf-auto370828"><g class="vf-note" pointer-events="bounding-box"><g class="vf-stem" pointer-events="bounding-box"><path stroke-width="1.5" fill="none" stroke="#000000" stroke-dasharray="none" class="vf-stem" id="vf-auto370828-stem" d="M511.9120447999999 255.29999999999995L511.9120447999999 290.29999999999995"></path></g><g class="vf-notehead" pointer-events="bounding-box"><path stroke-width="0.3" fill="#000000" stroke="none" stroke-dasharray="none" d="M511.1620447999999 255.29999999999995M518.5190047999998 250.07711999999995C518.6313247999999 250.07711999999995,518.7998047999998 250.07711999999995,518.8278847999999 250.07711999999995C518.8278847999999 250.07711999999995,518.8559647999999 250.07711999999995,518.8559647999999 250.07711999999995C518.8559647999999 250.07711999999995,519.0244447999999 250.07711999999995,519.1648447999999 250.07711999999995C521.6920447999998 250.21751999999995,523.1802847999999 251.87423999999996,523.1802847999999 253.95215999999996C523.1802847999999 254.96303999999995,522.8433247999999 256.11431999999996,522.0009247999999 257.20944C520.4003647999999 259.37159999999994,517.7889247999999 260.55096,515.5144447999999 260.55096C513.7454047999998 260.55096,512.2290847999999 259.84896,511.49900479999985 258.41687999999994C511.2743647999999 257.85527999999994,511.1620447999999 257.3217599999999,511.1620447999999 256.73207999999994C511.1620447999999 253.67135999999996,514.5878047999998 250.27367999999996,518.5190047999998 250.07711999999995"></path></g></g><g class="vf-modifiers"></g></g><g class="vf-stavenote" id="vf-auto370836"><g class="vf-note" pointer-events="bounding-box"><g class="vf-stem" pointer-events="bounding-box"><path stroke-width="1.5" fill="none" stroke="#000000" stroke-dasharray="none" class="vf-stem" id="vf-auto370836-stem" d="M588.9302847999999 285.29999999999995L588.9302847999999 250.29999999999995"></path></g><g class="vf-notehead" pointer-events="bounding-box"><path stroke-width="0.3" fill="#000000" stroke="none" stroke-dasharray="none" d="M577.6620447999999 285.29999999999995M585.0190047999998 280.07712C585.1313247999999 280.07712,585.2998047999998 280.07712,585.3278847999999 280.07712C585.3278847999999 280.07712,585.3559647999999 280.07712,585.3559647999999 280.07712C585.3559647999999 280.07712,585.5244447999999 280.07712,585.6648447999999 280.07712C588.1920447999998 280.21752,589.6802847999999 281.87423999999993,589.6802847999999 283.95215999999994C589.6802847999999 284.96304,589.3433247999999 286.11431999999996,588.5009247999999 287.20944C586.9003647999999 289.37159999999994,584.2889247999999 290.55096,582.0144447999999 290.55096C580.2454047999998 290.55096,578.7290847999999 289.84896,577.9990047999999 288.41687999999994C577.7743647999998 287.85527999999994,577.6620447999999 287.3217599999999,577.6620447999999 286.73207999999994C577.6620447999999 283.67135999999994,581.0878047999998 280.27367999999996,585.0190047999998 280.07712"></path></g></g><g class="vf-modifiers"></g></g><rect stroke-width="0.3" fill="#000000" stroke="#000000" stroke-dasharray="none" x="609.0788671999999" y="166.5" width="1" height="129.79999999999995"></rect><path stroke-width="1" fill="none" stroke="#000000" stroke-dasharray="none" d="M609.0788671999998 255.29999999999998L775.6456895999997 255.29999999999998"></path><path stroke-width="1" fill="none" stroke="#000000" stroke-dasharray="none" d="M609.0788671999998 265.29999999999995L775.6456895999997 265.29999999999995"></path><path stroke-width="1" fill="none" stroke="#000000" stroke-dasharray="none" d="M609.0788671999998 275.29999999999995L775.6456895999997 275.29999999999995"></path><path stroke-width="1" fill="none" stroke="#000000" stroke-dasharray="none" d="M609.0788671999998 285.29999999999995L775.6456895999997 285.29999999999995"></path><path stroke-width="1" fill="none" stroke="#000000" stroke-dasharray="none" d="M609.0788671999998 295.29999999999995L775.6456895999997 295.29999999999995"></path><rect stroke-width="0.3" fill="#000000" stroke="#000000" stroke-dasharray="none" x="770.6456895999997" y="254.79999999999998" width="1" height="40.99999999999997"></rect><rect stroke-width="0.3" fill="#000000" stroke="#000000" stroke-dasharray="none" x="773.6456895999997" y="254.79999999999998" width="3" height="40.99999999999997"></rect><path stroke-width="0.3" fill="#000000" stroke="none" stroke-dasharray="none" d="M769.6456895999997 270.79999999999995 A2 2 0 0 0 765.6456895999997 270.79999999999995M765.6456895999997 270.79999999999995 A2 2 0 0 0 769.6456895999997 270.79999999999995"></path><path stroke-width="0.3" fill="#000000" stroke="none" stroke-dasharray="none" d="M769.6456895999997 280.79999999999995 A2 2 0 0 0 765.6456895999997 280.79999999999995M765.6456895999997 280.79999999999995 A2 2 0 0 0 769.6456895999997 280.79999999999995"></path><rect stroke-width="0.3" fill="#000000" stroke="#000000" stroke-dasharray="none" x="770.6456895999997" y="166.5" width="1" height="129.79999999999995"></rect><rect stroke-width="0.3" fill="#000000" stroke="#000000" stroke-dasharray="none" x="773.6456895999997" y="166.5" width="3" height="129.79999999999995"></rect><path stroke-width="0.3" fill="#000000" stroke="none" stroke-dasharray="none" d="M68 166.5C45.2 192.45999999999998,81.2 213.87699999999998,56 231.39999999999998C81.2 248.92299999999997,45.2 270.34,68 296.29999999999995C44 270.34,72.8 248.92299999999997,56 231.39999999999998C72.8 213.87699999999998,44 192.45999999999998,68 166.5"></path><path stroke-width="1" fill="none" stroke="#000000" stroke-dasharray="none" d="M68 166.5C45.2 192.45999999999998,81.2 213.87699999999998,56 231.39999999999998C81.2 248.92299999999997,45.2 270.34,68 296.29999999999995C44 270.34,72.8 248.92299999999997,56 231.39999999999998C72.8 213.87699999999998,44 192.45999999999998,68 166.5"></path><g class="vf-text"><text stroke-width="0.3" fill="#000000" stroke="none" stroke-dasharray="none" font-family="Times New Roman" font-size="15px" font-weight="normal" font-style="normal" x="457.4120447999999" y="163.5">3</text></g></svg>