<svg xmlns="http://www.w3.org/2000/svg"  width="1470" height="394.5999999999999" viewBox="0 0 1470 394.5999999999999"><path stroke-width="1" fill="none" stroke="#000000" stroke-dasharray="none" d="M70 166.5L300.14522239999997 166.5"></path><path stroke-width="1" fill="none" stroke="#000000" stroke-dasharray="none" d="M70 176.5L300.14522239999997 176.5"></path><path stroke-width="1" fill="none" stroke="#000000" stroke-dasharray="none" d="M70 186.5L300.14522239999997 186.5"></path><path stroke-width="1" fill="none" stroke="#000000" stroke-dasharray="none" d="M70 196.5L300.14522239999997 196.5"></path><path stroke-width="1" fill="none" stroke="#000000" stroke-dasharray="none" d="M70 206.5L300.14522239999997 206.5"></path><rect stroke-width="0.3" fill="#000000" stroke="#000000" stroke-dasharray="none" x="300.14522239999997" y="166" width="1" height="41"></rect><g class="vf-clef"><path stroke-width="0.3" fill="#000000" stroke="none" stroke-dasharray="none" d="M75 196.5M89.0544 153.3288C89.112 153.3,89.1696 153.3,89.256 153.3C89.6016 153.3,90.0048 153.588,90.5808 154.308C92.9136 156.9864,94.5552 161.652,94.5552 165.4536C94.5552 165.7416,94.4976 165.972,94.4976 166.26C94.2384 170.7816,92.3952 174.4968,88.7376 178.0104L87.7584 178.9608L87.4128 179.3352L87.4128 179.4504L87.6144 180.3144L87.9312 181.8696L88.248 183.3096C88.68 185.268,88.8528 186.276,88.8528 186.276C88.8528 186.276,88.8528 186.276,88.8528 186.276C88.8528 186.276,88.968 186.276,89.112 186.2472C89.256 186.2472,89.7168 186.1896,90.2064 186.1896C90.55199999999999 186.1896,90.8976 186.2472,91.0704 186.2472C95.1312 186.7656,98.2704 189.6744,99.1632 193.764C99.336 194.4264,99.39359999999999 195.1464,99.39359999999999 195.8664C99.39359999999999 199.7544,97.0608 203.4696,93.1728 205.2264C92.94239999999999 205.3704,92.856 205.3992,92.856 205.3992L92.856 205.428C92.856 205.428,93.0288 206.0904,93.1728 206.8392L93.6048 209.028L94.008 210.7848C94.2384 211.908,94.3536 212.7144,94.3536 213.4344C94.3536 214.06799999999998,94.2672 214.644,94.1232 215.3064C93.144 219.3096,89.6592 221.7,86.0304 221.7C84.2448 221.7,82.4016 221.124,80.7888 219.828C79.3488 218.6184,78.7152 217.524,78.7152 216.084C78.7152 213.5496,80.76 211.764,82.8912 211.764C83.64 211.764,84.3888 211.99439999999998,85.1088 212.4264C86.3184 213.2616,86.8656 214.5288,86.8656 215.7672C86.8656 217.668,85.5408 219.54,83.2656 219.684L83.0352 219.684L83.208 219.79919999999998C84.1584 220.2024,85.1088 220.404,86.0304 220.404C88.3632 220.404,90.55199999999999 219.2232,91.8768 217.1784C92.62559999999999 216.0264,93.0288 214.6728,93.0288 213.3192C93.0288 212.8008,92.94239999999999 212.2824,92.8272 211.7064C92.8272 211.6488,92.74080000000001 211.188,92.62559999999999 210.756C91.992 207.6456,91.6176 205.8312,91.6176 205.8312C91.6176 205.8312,91.6176 205.8312,91.6176 205.8312C91.56 205.8312,91.4448 205.8312,91.3584 205.8888C91.0704 205.9464,90.4656 206.0904,90.2064 206.1192C89.5728 206.2056,88.968 206.2344,88.392 206.2344C82.74719999999999 206.2344,77.5056 202.4328,75.6912 196.8168C75.2304 195.3192,74.9712 193.8216,74.9712 192.324C74.9712 189.3288,75.9216 186.3912,77.7648 183.7704C79.7808 180.9192,81.7968 178.4712,84.2736 175.9368L85.13759999999999 175.044L84.936 173.9784L84.5616 172.2216L84.072 169.9752C83.928 169.14,83.7552 168.3336,83.7264 168.1608C83.5824 167.2104,83.496 166.2888,83.496 165.3384C83.496 161.7096,84.6768 158.22480000000002,86.8944 155.4312C87.5568 154.5672,88.7376 153.4152,89.0544 153.3288M90.8112 159.0312C90.7536 159.0312,90.6672 159.0312,90.5808 159.0312C89.4 159.0312,87.8736 160.1256,86.8368 161.7384C85.7712 163.32240000000002,85.224 165.4248,85.224 167.5848C85.224 168.1608,85.25280000000001 168.7656,85.3392 169.3704C85.4256 169.8024,85.45439999999999 170.0904,85.6848 171.12720000000002L86.088 172.9416C86.2032 173.4888,86.28960000000001 173.92079999999999,86.28960000000001 173.9784L86.28960000000001 173.9784C86.3184 173.9784,87.2112 172.9992,87.4992 172.6536C90.3792 169.3992,92.1072 165.972,92.4816 162.948C92.5104 162.66,92.5104 162.4296,92.5104 162.1416C92.5104 161.24880000000002,92.3952 160.38479999999998,92.1936 159.924C91.9632 159.4632,91.4448 159.0888,90.8112 159.0312M86.4624 181.2936C86.4048 180.8904,86.3184 180.5736,86.3184 180.516C86.3184 180.516,86.3184 180.516,86.28960000000001 180.516C86.232 180.516,84.9936 181.956,84.1296 182.964C82.6608 184.7496,81.1056 186.8808,80.472 187.9176C79.2624 189.9624,78.6576 192.2376,78.6576 194.484C78.6576 195.9528,78.9456 197.364,79.464 198.7176C81.0192 202.7208,84.5904 205.2264,88.4784 205.2264C88.9392 205.2264,89.4576 205.1976,89.9472 205.1112C90.5808 204.996,91.3584 204.7656,91.3584 204.6792L91.3584 204.6792C91.3584 204.6792,91.3008 204.3912,91.2144 204.0744L90.3792 199.956L89.7168 196.8744L89.2848 194.7432L88.824 192.6696C88.5936 191.4312,88.5072 191.1144,88.5072 191.1144C88.5072 191.1144,88.5072 191.0856,88.4784 191.0856C88.3056 191.0856,87.384 191.5464,86.9808 191.8344C85.4832 192.8712,84.7056 194.5128,84.7056 196.1256C84.7056 197.652,85.45439999999999 199.1784,86.8944 200.0712C87.2112 200.2728,87.3264 200.4456,87.3264 200.6472C87.3264 200.676,87.3264 200.7624,87.3264 200.7912C87.2688 201.1368,87.0672 201.2808,86.7792 201.2808C86.664 201.2808,86.52 201.252,86.3472 201.1656C83.6976 200.0136,81.912 197.2776,81.912 194.2824L81.912 194.2824C81.912 190.8264,84.072 187.8312,87.384 186.6504L87.5568 186.5928L87.2688 185.1528L86.4624 181.2936M90.7824 190.9128C90.55199999999999 190.88400000000001,90.3216 190.88400000000001,90.1488 190.88400000000001C90.0912 190.88400000000001,90.0048 190.88400000000001,89.9472 190.88400000000001L89.8032 190.88400000000001L89.9184 191.4024L90.5232 194.2248L90.8976 196.068L91.3008 197.8824L92.1072 201.8856L92.424 203.412C92.5392 203.8152,92.5968 204.1608,92.62559999999999 204.1608C92.62559999999999 204.1608,92.62559999999999 204.1608,92.62559999999999 204.1608C92.6544 204.1608,93.144 203.8728,93.4608 203.6424C94.9296 202.6056,96.024 200.9928,96.4272 199.3224C96.5712 198.7752,96.6288 198.1992,96.6288 197.652C96.6288 194.3112,94.152 191.2872,90.7824 190.9128"></path></g><path stroke-width="0.3" fill="#000000" stroke="none" stroke-dasharray="none" d="M116 186.5M121.0112 168.1544C121.04 168.1256,121.4432 168.1256,122.6816 168.1256C123.056 168.1256,123.4592 168.1256,123.9776 168.1256L126.8864 168.1256L126.9728 168.212C127.1168 168.29840000000002,127.2032 168.4424,127.2032 168.5576C127.2032 168.7304,127.1168 168.8456,127.0016 168.9608C126.9728 169.0472,126.7136 169.2776,126.5408 169.5368L125.0144 171.2936L123.056 173.5112L122.0192 174.692L120.464 176.4776L118.4192 178.8104C118.0736 179.2424,117.6992 179.588,117.6992 179.588C117.6992 179.588,117.6992 179.588,117.6992 179.588C117.6992 179.6456,117.9584 179.6456,120.3488 179.6456L122.9696 179.6456L122.9696 177.7736C122.9696 175.8728,122.9696 175.844,122.9984 175.8152C123.056 175.7288,123.3152 175.412,124.3232 174.2312L124.7264 173.7992L125.1296 173.3672L125.7344 172.5896L126.368 171.9272L126.6848 171.524C126.8 171.3512,126.9728 171.3224,127.1168 171.3224C127.28960000000001 171.3224,127.4336 171.4088,127.52 171.5528C127.5488 171.6392,127.5488 171.6968,127.5488 173.828C127.5488 174.3176,127.5488 174.9224,127.5488 175.6424L127.5488 179.6456L128.2688 179.6456C128.9312 179.6456,128.96 179.6456,129.0464 179.6744C129.2768 179.7608,129.392 179.9912,129.392 180.2504C129.392 180.3944,129.3632 180.5672,129.248 180.6824C129.0752 180.8264,129.0464 180.8264,128.2688 180.8264L127.5488 180.8264L127.5488 181.316C127.5776 182.7848,127.8656 183.3608,128.9888 183.9656C129.392 184.1672,129.4784 184.2248,129.4784 184.5128C129.4784 184.7144,129.42079999999999 184.8008,129.2768 184.916L129.1904 184.9448L125.2448 184.9448L121.328 184.9448L121.2416 184.916C121.0688 184.8008,121.04 184.7144,121.04 184.5128C121.04 184.2248,121.0688 184.1672,121.5008 183.9656C122.624 183.3608,122.912 182.7848,122.912 181.316L122.912 180.8264L119.6 180.8264C118.9952 180.88400000000001,118.5056 180.88400000000001,118.1024 180.88400000000001C116.288 180.88400000000001,116.2592 180.8264,116.2304 180.8264C116.0576 180.7688,116 180.596,116 180.3944C116 180.3944,116 180.3944,116 180.3944C116 180.1928,116 180.1928,116.576 179.5304C118.9952 176.5928,120.6944 172.3304,120.6944 168.93200000000002C120.6944 168.4136,120.7808 168.2408,121.0112 168.1544M122.7392 186.5288L122.768 186.5288L122.6816 186.5288L122.7392 186.5288M122.7392 167.1176L122.768 167.1176L122.6816 167.1176L122.7392 167.1176"></path><path stroke-width="0.3" fill="#000000" stroke="none" stroke-dasharray="none" d="M116 206.5M121.0112 188.1544C121.04 188.1256,121.4432 188.1256,122.6816 188.1256C123.056 188.1256,123.4592 188.1256,123.9776 188.1256L126.8864 188.1256L126.9728 188.212C127.1168 188.29840000000002,127.2032 188.4424,127.2032 188.5576C127.2032 188.7304,127.1168 188.8456,127.0016 188.9608C126.9728 189.0472,126.7136 189.2776,126.5408 189.5368L125.0144 191.2936L123.056 193.5112L122.0192 194.692L120.464 196.4776L118.4192 198.8104C118.0736 199.2424,117.6992 199.588,117.6992 199.588C117.6992 199.588,117.6992 199.588,117.6992 199.588C117.6992 199.6456,117.9584 199.6456,120.3488 199.6456L122.9696 199.6456L122.9696 197.7736C122.9696 195.8728,122.9696 195.844,122.9984 195.8152C123.056 195.7288,123.3152 195.412,124.3232 194.2312L124.7264 193.7992L125.1296 193.3672L125.7344 192.5896L126.368 191.9272L126.6848 191.524C126.8 191.3512,126.9728 191.3224,127.1168 191.3224C127.28960000000001 191.3224,127.4336 191.4088,127.52 191.5528C127.5488 191.6392,127.5488 191.6968,127.5488 193.828C127.5488 194.3176,127.5488 194.9224,127.5488 195.6424L127.5488 199.6456L128.2688 199.6456C128.9312 199.6456,128.96 199.6456,129.0464 199.6744C129.2768 199.7608,129.392 199.9912,129.392 200.2504C129.392 200.3944,129.3632 200.5672,129.248 200.6824C129.0752 200.8264,129.0464 200.8264,128.2688 200.8264L127.5488 200.8264L127.5488 201.316C127.5776 202.7848,127.8656 203.3608,128.9888 203.9656C129.392 204.1672,129.4784 204.2248,129.4784 204.5128C129.4784 204.7144,129.42079999999999 204.8008,129.2768 204.916L129.1904 204.9448L125.2448 204.9448L121.328 204.9448L121.2416 204.916C121.0688 204.8008,121.04 204.7144,121.04 204.5128C121.04 204.2248,121.0688 204.1672,121.5008 203.9656C122.624 203.3608,122.912 202.7848,122.912 201.316L122.912 200.8264L119.6 200.8264C118.9952 200.88400000000001,118.5056 200.88400000000001,118.1024 200.88400000000001C116.288 200.88400000000001,116.2592 200.8264,116.2304 200.8264C116.0576 200.7688,116 200.596,116 200.3944C116 200.3944,116 200.3944,116 200.3944C116 200.1928,116 200.1928,116.576 199.5304C118.9952 196.5928,120.6944 192.3304,120.6944 188.93200000000002C120.6944 188.4136,120.7808 188.2408,121.0112 188.1544M122.7392 206.5288L122.768 206.5288L122.6816 206.5288L122.7392 206.5288M122.7392 187.1176L122.768 187.1176L122.6816 187.1176L122.7392 187.1176"></path><path stroke-width="1" fill="none" stroke="#000000" stroke-dasharray="none" d="M178.6088 216.5L196.62704 216.5"></path><g class="vf-stavenote" id="vf-auto1057516"><g class="vf-note" pointer-events="bounding-box"><g class="vf-stem" pointer-events="bounding-box"><path stroke-width="1.5" fill="none" stroke="#000000" stroke-dasharray="none" class="vf-stem" id="vf-auto1057516-stem" d="M192.87704 221.5L192.87704 186.5"></path></g><g class="vf-notehead" pointer-events="bounding-box"><path stroke-width="0.3" fill="#000000" stroke="none" stroke-dasharray="none" d="M181.6088 221.5M188.96576 216.27712C189.07808 216.27712,189.24656 216.27712,189.27464 216.27712C189.27464 216.27712,189.30272 216.27712,189.30272 216.27712C189.30272 216.27712,189.4712 216.27712,189.6116 216.27712C192.1388 216.41752,193.62704 218.07424,193.62704 220.15216C193.62704 221.16304,193.29008 222.31432,192.44768 223.40944C190.84712 225.5716,188.23568 226.75096,185.9612 226.75096C184.19216 226.75096,182.67584 226.04896,181.94576 224.61688C181.72112 224.05528,181.6088 223.52176,181.6088 222.93208C181.6088 219.87136,185.03456 216.47368,188.96576 216.27712"></path></g></g><g class="vf-modifiers"></g></g><g class="vf-stavenote" id="vf-auto1057524"><g class="vf-note" pointer-events="bounding-box"><g class="vf-stem" pointer-events="bounding-box"><path stroke-width="1.5" fill="none" stroke="#000000" stroke-dasharray="none" class="vf-stem" id="vf-auto1057524-stem" d="M222.48919999999998 171.5L222.48919999999998 206.5"></path></g><g class="vf-notehead" pointer-events="bounding-box"><path stroke-width="0.3" fill="#000000" stroke="none" stroke-dasharray="none" d="M221.73919999999998 171.5M229.09615999999997 166.27712C229.20847999999998 166.27712,229.37696 166.27712,229.40503999999999 166.27712C229.40503999999999 166.27712,229.43311999999997 166.27712,229.43311999999997 166.27712C229.43311999999997 166.27712,229.6016 166.27712,229.742 166.27712C232.26919999999998 166.41752,233.75743999999997 168.07424,233.75743999999997 170.15216C233.75743999999997 171.16304,233.42048 172.31432,232.57807999999997 173.40944C230.97751999999997 175.5716,228.36607999999998 176.75096,226.09159999999997 176.75096C224.32255999999998 176.75096,222.80623999999997 176.04896,222.07616 174.61688C221.85152 174.05528,221.73919999999998 173.52176,221.73919999999998 172.93208C221.73919999999998 169.87136,225.16495999999998 166.47368,229.09615999999997 166.27712"></path></g></g><g class="vf-modifiers"></g></g><path stroke-width="1" fill="none" stroke="#000000" stroke-dasharray="none" d="M300.14522239999997 166.5L444.1120447999999 166.5"></path><path stroke-width="1" fill="none" stroke="#000000" stroke-dasharray="none" d="M300.14522239999997 176.5L444.1120447999999 176.5"></path><path stroke-width="1" fill="none" stroke="#000000" stroke-dasharray="none" d="M300.14522239999997 186.5L444.1120447999999 186.5"></path><path stroke-width="1" fill="none" stroke="#000000" stroke-dasharray="none" d="M300.14522239999997 196.5L444.1120447999999 196.5"></path><path stroke-width="1" fill="none" stroke="#000000" stroke-dasharray="none" d="M300.14522239999997 206.5L444.1120447999999 206.5"></path><rect stroke-width="0.3" fill="#000000" stroke="#000000" stroke-dasharray="none" x="444.1120447999999" y="166" width="1" height="41"></rect><path stroke-width="1" fill="none" stroke="#000000" stroke-dasharray="none" d="M314.14522239999997 216.5L332.16346239999996 216.5"></path><g class="vf-stavenote" id="vf-auto1057553"><g class="vf-note" pointer-events="bounding-box"><g class="vf-stem" pointer-events="bounding-box"><path stroke-width="1.5" fill="none" stroke="#000000" stroke-dasharray="none" class="vf-stem" id="vf-auto1057553-stem" d="M328.41346239999996 216.5L328.41346239999996 181.5"></path></g><g class="vf-notehead" pointer-events="bounding-box"><path stroke-width="0.3" fill="#000000" stroke="none" stroke-dasharray="none" d="M317.14522239999997 216.5M324.5021824 211.27712C324.6145024 211.27712,324.7829824 211.27712,324.81106239999997 211.27712C324.81106239999997 211.27712,324.83914239999996 211.27712,324.83914239999996 211.27712C324.83914239999996 211.27712,325.00762239999995 211.27712,325.14802239999995 211.27712C327.67522239999994 211.41752,329.16346239999996 213.07424,329.16346239999996 215.15216C329.16346239999996 216.16304,328.8265024 217.31432,327.9841024 218.40944C326.38354239999995 220.5716,323.7721024 221.75096,321.49762239999995 221.75096C319.7285824 221.75096,318.2122624 221.04896,317.48218239999994 219.61688C317.2575424 219.05528,317.14522239999997 218.52176,317.14522239999997 217.93208C317.14522239999997 214.87136,320.5709824 211.47368,324.5021824 211.27712"></path></g></g><g class="vf-modifiers"></g></g><path stroke-width="1" fill="none" stroke="#000000" stroke-dasharray="none" d="M444.1120447999999 166.5L596.4788671999999 166.5"></path><path stroke-width="1" fill="none" stroke="#000000" stroke-dasharray="none" d="M444.1120447999999 176.5L596.4788671999999 176.5"></path><path stroke-width="1" fill="none" stroke="#000000" stroke-dasharray="none" d="M444.1120447999999 186.5L596.4788671999999 186.5"></path><path stroke-width="1" fill="none" stroke="#000000" stroke-dasharray="none" d="M444.1120447999999 196.5L596.4788671999999 196.5"></path><path stroke-width="1" fill="none" stroke="#000000" stroke-dasharray="none" d="M444.1120447999999 206.5L596.4788671999999 206.5"></path><rect stroke-width="0.3" fill="#000000" stroke="#000000" stroke-dasharray="none" x="596.4788671999999" y="166" width="1" height="41"></rect><path stroke-width="1" fill="none" stroke="#000000" stroke-dasharray="none" d="M492.3620447999999 216.5L510.3802847999999 216.5"></path><g class="vf-stavenote" id="vf-auto1057590"><g class="vf-note" pointer-events="bounding-box"><g class="vf-stem" pointer-events="bounding-box"><path stroke-width="1.5" fill="none" stroke="#000000" stroke-dasharray="none" class="vf-stem" id="vf-auto1057590-stem" d="M506.6302847999999 221.5L506.6302847999999 186.5"></path></g><g class="vf-notehead" pointer-events="bounding-box"><path stroke-width="0.3" fill="#000000" stroke="none" stroke-dasharray="none" d="M495.3620447999999 221.5M502.71900479999994 216.27712C502.83132479999995 216.27712,502.99980479999994 216.27712,503.0278847999999 216.27712C503.0278847999999 216.27712,503.0559647999999 216.27712,503.0559647999999 216.27712C503.0559647999999 216.27712,503.2244447999999 216.27712,503.3648447999999 216.27712C505.8920447999999 216.41752,507.3802847999999 218.07424,507.3802847999999 220.15216C507.3802847999999 221.16304,507.04332479999994 222.31432,506.20092479999994 223.40944C504.6003647999999 225.5716,501.98892479999995 226.75096,499.7144447999999 226.75096C497.94540479999995 226.75096,496.42908479999994 226.04896,495.6990047999999 224.61688C495.47436479999993 224.05528,495.3620447999999 223.52176,495.3620447999999 222.93208C495.3620447999999 219.87136,498.78780479999995 216.47368,502.71900479999994 216.27712"></path></g></g><g class="vf-modifiers"></g></g><g class="vf-stavenote" id="vf-auto1057598"><g class="vf-note" pointer-events="bounding-box"><g class="vf-stem" pointer-events="bounding-box"><path stroke-width="1.5" fill="none" stroke="#000000" stroke-dasharray="none" class="vf-stem" id="vf-auto1057598-stem" d="M530.3620447999999 171.5L530.3620447999999 206.5"></path></g><g class="vf-notehead" pointer-events="bounding-box"><path stroke-width="0.3" fill="#000000" stroke="none" stroke-dasharray="none" d="M529.6120447999999 171.5M536.9690047999999 166.27712C537.0813248 166.27712,537.2498047999999 166.27712,537.2778847999999 166.27712C537.2778847999999 166.27712,537.3059648 166.27712,537.3059648 166.27712C537.3059648 166.27712,537.4744447999999 166.27712,537.6148447999999 166.27712C540.1420447999999 166.41752,541.6302847999999 168.07424,541.6302847999999 170.15216C541.6302847999999 171.16304,541.2933247999999 172.31432,540.4509247999999 173.40944C538.8503648 175.5716,536.2389248 176.75096,533.9644447999999 176.75096C532.1954047999999 176.75096,530.6790847999999 176.04896,529.9490047999999 174.61688C529.7243647999999 174.05528,529.6120447999999 173.52176,529.6120447999999 172.93208C529.6120447999999 169.87136,533.0378047999999 166.47368,536.9690047999999 166.27712"></path></g></g><g class="vf-modifiers"></g></g><g class="vf-stavenote" id="vf-auto1057606"><g class="vf-note" pointer-events="bounding-box"><g class="vf-stem" pointer-events="bounding-box"><path stroke-width="1.5" fill="none" stroke="#000000" stroke-dasharray="none" class="vf-stem" id="vf-auto1057606-stem" d="M575.1302847999999 191.5L575.1302847999999 156.5"></path></g><g class="vf-notehead" pointer-events="bounding-box"><path stroke-width="0.3" fill="#000000" stroke="none" stroke-dasharray="none" d="M563.8620447999999 191.5M571.2190047999999 186.27712C571.3313248 186.27712,571.4998047999999 186.27712,571.5278847999999 186.27712C571.5278847999999 186.27712,571.5559648 186.27712,571.5559648 186.27712C571.5559648 186.27712,571.7244447999999 186.27712,571.8648447999999 186.27712C574.3920447999999 186.41752,575.8802847999999 188.07424,575.8802847999999 190.15216C575.8802847999999 191.16304,575.5433247999999 192.31432,574.7009247999999 193.40944C573.1003648 195.5716,570.4889248 196.75096,568.2144447999999 196.75096C566.4454047999999 196.75096,564.9290847999999 196.04896,564.1990047999999 194.61688C563.9743647999999 194.05528,563.8620447999999 193.52176,563.8620447999999 192.93208C563.8620447999999 189.87136,567.2878047999999 186.47368,571.2190047999999 186.27712"></path></g></g><g class="vf-modifiers"></g></g><path stroke-width="1" fill="none" stroke="#000000" stroke-dasharray="none" d="M596.4788671999999 166.5L758.8456895999998 166.5"></path><path stroke-width="1" fill="none" stroke="#000000" stroke-dasharray="none" d="M596.4788671999999 176.5L758.8456895999998 176.5"></path><path stroke-width="1" fill="none" stroke="#000000" stroke-dasharray="none" d="M596.4788671999999 186.5L758.8456895999998 186.5"></path><path stroke-width="1" fill="none" stroke="#000000" stroke-dasharray="none" d="M596.4788671999999 196.5L758.8456895999998 196.5"></path><path stroke-width="1" fill="none" stroke="#000000" stroke-dasharray="none" d="M596.4788671999999 206.5L758.8456895999998 206.5"></path><rect stroke-width="0.3" fill="#000000" stroke="#000000" stroke-dasharray="none" x="753.8456895999998" y="166" width="1" height="41"></rect><rect stroke-width="0.3" fill="#000000" stroke="#000000" stroke-dasharray="none" x="756.8456895999998" y="166" width="3" height="41"></rect><path stroke-width="0.3" fill="#000000" stroke="none" stroke-dasharray="none" d="M752.8456895999998 182 A2 2 0 0 0 748.8456895999998 182M748.8456895999998 182 A2 2 0 0 0 752.8456895999998 182"></path><path stroke-width="0.3" fill="#000000" stroke="none" stroke-dasharray="none" d="M752.8456895999998 192 A2 2 0 0 0 748.8456895999998 192M748.8456895999998 192 A2 2 0 0 0 752.8456895999998 192"></path><g class="vf-stavenote" id="vf-auto1057627"><g class="vf-note" pointer-events="bounding-box"><g class="vf-stem" pointer-events="bounding-box"><path stroke-width="1.5" fill="none" stroke="#000000" stroke-dasharray="none" class="vf-stem" id="vf-auto1057627-stem" d="M624.7471071999998 191.5L624.7471071999998 156.5"></path></g><g class="vf-notehead" pointer-events="bounding-box"><path stroke-width="0.3" fill="#000000" stroke="none" stroke-dasharray="none" d="M613.4788671999999 191.5M620.8358271999998 186.27712C620.9481471999999 186.27712,621.1166271999998 186.27712,621.1447071999999 186.27712C621.1447071999999 186.27712,621.1727871999999 186.27712,621.1727871999999 186.27712C621.1727871999999 186.27712,621.3412671999998 186.27712,621.4816671999998 186.27712C624.0088671999998 186.41752,625.4971071999998 188.07424,625.4971071999998 190.15216C625.4971071999998 191.16304,625.1601471999999 192.31432,624.3177471999999 193.40944C622.7171871999999 195.5716,620.1057471999999 196.75096,617.8312671999998 196.75096C616.0622271999998 196.75096,614.5459071999999 196.04896,613.8158271999998 194.61688C613.5911871999998 194.05528,613.4788671999999 193.52176,613.4788671999999 192.93208C613.4788671999999 189.87136,616.9046271999998 186.47368,620.8358271999998 186.27712"></path></g></g><g class="vf-modifiers"></g></g><g class="vf-stavenote" id="vf-auto1057635"><g class="vf-note" pointer-events="bounding-box"><g class="vf-stem" pointer-events="bounding-box"><path stroke-width="1.5" fill="none" stroke="#000000" stroke-dasharray="none" class="vf-stem" id="vf-auto1057635-stem" d="M650.9788671999999 181.5L650.9788671999999 216.5"></path></g><g class="vf-notehead" pointer-events="bounding-box"><path stroke-width="0.3" fill="#000000" stroke="none" stroke-dasharray="none" d="M650.2288671999999 181.5M657.5858271999998 176.27712C657.6981471999999 176.27712,657.8666271999998 176.27712,657.8947071999999 176.27712C657.8947071999999 176.27712,657.9227871999999 176.27712,657.9227871999999 176.27712C657.9227871999999 176.27712,658.0912671999998 176.27712,658.2316671999998 176.27712C660.7588671999998 176.41752,662.2471071999998 178.07424,662.2471071999998 180.15216C662.2471071999998 181.16304,661.9101471999999 182.31432,661.0677471999999 183.40944C659.4671871999999 185.5716,656.8557471999999 186.75096,654.5812671999998 186.75096C652.8122271999998 186.75096,651.2959071999999 186.04896,650.5658271999998 184.61688C650.3411871999998 184.05528,650.2288671999999 183.52176,650.2288671999999 182.93208C650.2288671999999 179.87136,653.6546271999998 176.47368,657.5858271999998 176.27712"></path></g></g><g class="vf-modifiers"></g></g><g class="vf-stavenote" id="vf-auto1057643"><g class="vf-note" pointer-events="bounding-box"><g class="vf-stem" pointer-events="bounding-box"><path stroke-width="1.5" fill="none" stroke="#000000" stroke-dasharray="none" class="vf-stem" id="vf-auto1057643-stem" d="M724.4788671999999 181.5L724.4788671999999 216.5"></path></g><g class="vf-notehead" pointer-events="bounding-box"><path stroke-width="0.3" fill="#000000" stroke="none" stroke-dasharray="none" d="M723.7288671999999 181.5M731.0858271999998 176.27712C731.1981471999999 176.27712,731.3666271999998 176.27712,731.3947071999999 176.27712C731.3947071999999 176.27712,731.4227871999999 176.27712,731.4227871999999 176.27712C731.4227871999999 176.27712,731.5912671999998 176.27712,731.7316671999998 176.27712C734.2588671999998 176.41752,735.7471071999998 178.07424,735.7471071999998 180.15216C735.7471071999998 181.16304,735.4101471999999 182.31432,734.5677471999999 183.40944C732.9671871999999 185.5716,730.3557471999999 186.75096,728.0812671999998 186.75096C726.3122271999998 186.75096,724.7959071999999 186.04896,724.0658271999998 184.61688C723.8411871999998 184.05528,723.7288671999999 183.52176,723.7288671999999 182.93208C723.7288671999999 179.87136,727.1546271999998 176.47368,731.0858271999998 176.27712"></path></g></g><g class="vf-modifiers"></g></g><g class="vf-text"><text stroke-width="0.3" fill="#000000" stroke="none" stroke-dasharray="none" font-family="Times New Roman" font-size="23px" font-weight="bold" font-style="italic" x="159.9784" y="249.29999999999998">pp</text></g><path stroke-width="1" fill="none" stroke="#000000" stroke-dasharray="none" d="M70 273.09999999999997L300.14522239999997 273.09999999999997"></path><path stroke-width="1" fill="none" stroke="#000000" stroke-dasharray="none" d="M70 283.09999999999997L300.14522239999997 283.09999999999997"></path><path stroke-width="1" fill="none" stroke="#000000" stroke-dasharray="none" d="M70 293.09999999999997L300.14522239999997 293.09999999999997"></path><path stroke-width="1" fill="none" stroke="#000000" stroke-dasharray="none" d="M70 303.09999999999997L300.14522239999997 303.09999999999997"></path><path stroke-width="1" fill="none" stroke="#000000" stroke-dasharray="none" d="M70 313.09999999999997L300.14522239999997 313.09999999999997"></path><rect stroke-width="0.3" fill="#000000" stroke="#000000" stroke-dasharray="none" x="300.14522239999997" y="272.59999999999997" width="1" height="41"></rect><g class="vf-clef"><path stroke-width="0.3" fill="#000000" stroke="none" stroke-dasharray="none" d="M75 283.09999999999997M83.8416 273.04879999999997C84.072 272.9912,84.3024 272.9912,84.5616 272.9912C85.5696 272.9912,86.7504 273.10639999999995,87.7584 273.308C92.4816 274.2872,95.736 277.484,96.3408 281.7464C96.3984 282.20719999999994,96.4272 282.63919999999996,96.4272 283.09999999999997C96.4272 285.69199999999995,95.5344 289.03279999999995,94.008 291.8264C90.3792 298.39279999999997,83.7552 303.116,75.8064 304.84399999999994C75.6624 304.84399999999994,75.5472 304.8728,75.4032 304.8728C75.1152 304.8728,74.9712 304.7,74.9712 304.44079999999997C74.9712 304.15279999999996,75.0288 304.0664,75.6048 303.83599999999996C84.7056 300.4088,90.7824 293.00719999999995,91.3296 284.71279999999996C91.3584 284.28079999999994,91.3584 283.79119999999995,91.3584 283.41679999999997C91.3584 279.3848,90.12 276.3896,87.7296 274.89199999999994C86.6928 274.22959999999995,85.5696 273.91279999999995,84.36 273.91279999999995C81.6816 273.91279999999995,78.9456 275.43919999999997,77.6784 278.00239999999997C77.6208 278.20399999999995,77.4192 278.63599999999997,77.4192 278.66479999999996C77.4192 278.66479999999996,77.4192 278.66479999999996,77.4192 278.66479999999996C77.4192 278.66479999999996,77.448 278.63599999999997,77.5344 278.6072C78.168 278.20399999999995,78.8592 278.00239999999997,79.5792 278.00239999999997C80.5872 278.00239999999997,81.6528 278.4344,82.4016 279.2408C83.0928 279.98959999999994,83.4672 280.9976,83.4672 281.9192C83.4672 283.79119999999995,82.0848 285.69199999999995,79.9248 285.8936C79.7808 285.8936,79.6368 285.9224,79.4928 285.9224C77.1024 285.9224,75.1728 283.73359999999997,75.1728 280.9688C75.1728 280.91119999999995,75.1728 280.8248,75.1728 280.796C75.288 276.6776,79.0608 273.308,83.8416 273.04879999999997M99.1632 276.90799999999996C99.2208 276.87919999999997,99.2496 276.87919999999997,99.336 276.87919999999997C99.5376 276.87919999999997,99.768 276.90799999999996,99.8256 276.9656C100.54560000000001 277.1672,100.8912 277.8008,100.8912 278.4056C100.8912 278.924,100.632 279.44239999999996,100.11359999999999 279.7304C99.912 279.8744,99.6528 279.90319999999997,99.39359999999999 279.90319999999997C98.9904 279.90319999999997,98.5584 279.7304,98.2704 279.356C98.03999999999999 279.068,97.9248 278.7512,97.9248 278.4344C97.9248 277.71439999999996,98.3856 276.9944,99.1632 276.90799999999996M99.1632 286.32559999999995C99.2208 286.32559999999995,99.2496 286.32559999999995,99.336 286.32559999999995C99.5376 286.32559999999995,99.768 286.35439999999994,99.8256 286.412C100.54560000000001 286.61359999999996,100.8912 287.24719999999996,100.8912 287.852C100.8912 288.37039999999996,100.632 288.88879999999995,100.11359999999999 289.14799999999997C99.912 289.292,99.6528 289.34959999999995,99.39359999999999 289.34959999999995C98.9904 289.34959999999995,98.5584 289.14799999999997,98.2704 288.8024C98.03999999999999 288.51439999999997,97.9248 288.19759999999997,97.9248 287.852C97.9248 287.13199999999995,98.3856 286.44079999999997,99.1632 286.32559999999995"></path></g><path stroke-width="0.3" fill="#000000" stroke="none" stroke-dasharray="none" d="M116 293.09999999999997M121.0112 274.7544C121.04 274.7256,121.4432 274.7256,122.6816 274.7256C123.056 274.7256,123.4592 274.7256,123.9776 274.7256L126.8864 274.7256L126.9728 274.81199999999995C127.1168 274.8984,127.2032 275.0424,127.2032 275.15759999999995C127.2032 275.33039999999994,127.1168 275.44559999999996,127.0016 275.5608C126.9728 275.64719999999994,126.7136 275.8776,126.5408 276.1368L125.0144 277.8936L123.056 280.11119999999994L122.0192 281.292L120.464 283.07759999999996L118.4192 285.4104C118.0736 285.84239999999994,117.6992 286.188,117.6992 286.188C117.6992 286.188,117.6992 286.188,117.6992 286.188C117.6992 286.24559999999997,117.9584 286.24559999999997,120.3488 286.24559999999997L122.9696 286.24559999999997L122.9696 284.37359999999995C122.9696 282.47279999999995,122.9696 282.44399999999996,122.9984 282.41519999999997C123.056 282.32879999999994,123.3152 282.01199999999994,124.3232 280.83119999999997L124.7264 280.39919999999995L125.1296 279.9672L125.7344 279.1896L126.368 278.5272L126.6848 278.12399999999997C126.8 277.9512,126.9728 277.9224,127.1168 277.9224C127.28960000000001 277.9224,127.4336 278.00879999999995,127.52 278.15279999999996C127.5488 278.2392,127.5488 278.29679999999996,127.5488 280.42799999999994C127.5488 280.9176,127.5488 281.52239999999995,127.5488 282.2424L127.5488 286.24559999999997L128.2688 286.24559999999997C128.9312 286.24559999999997,128.96 286.24559999999997,129.0464 286.27439999999996C129.2768 286.3608,129.392 286.59119999999996,129.392 286.8504C129.392 286.9944,129.3632 287.1672,129.248 287.28239999999994C129.0752 287.42639999999994,129.0464 287.42639999999994,128.2688 287.42639999999994L127.5488 287.42639999999994L127.5488 287.91599999999994C127.5776 289.3848,127.8656 289.96079999999995,128.9888 290.56559999999996C129.392 290.76719999999995,129.4784 290.8248,129.4784 291.1128C129.4784 291.3144,129.42079999999999 291.40079999999995,129.2768 291.51599999999996L129.1904 291.54479999999995L125.2448 291.54479999999995L121.328 291.54479999999995L121.2416 291.51599999999996C121.0688 291.40079999999995,121.04 291.3144,121.04 291.1128C121.04 290.8248,121.0688 290.76719999999995,121.5008 290.56559999999996C122.624 289.96079999999995,122.912 289.3848,122.912 287.91599999999994L122.912 287.42639999999994L119.6 287.42639999999994C118.9952 287.484,118.5056 287.484,118.1024 287.484C116.288 287.484,116.2592 287.42639999999994,116.2304 287.42639999999994C116.0576 287.36879999999996,116 287.19599999999997,116 286.9944C116 286.9944,116 286.9944,116 286.9944C116 286.79279999999994,116 286.79279999999994,116.576 286.13039999999995C118.9952 283.1928,120.6944 278.93039999999996,120.6944 275.532C120.6944 275.01359999999994,120.7808 274.84079999999994,121.0112 274.7544M122.7392 293.12879999999996L122.768 293.12879999999996L122.6816 293.12879999999996L122.7392 293.12879999999996M122.7392 273.71759999999995L122.768 273.71759999999995L122.6816 273.71759999999995L122.7392 273.71759999999995"></path><path stroke-width="0.3" fill="#000000" stroke="none" stroke-dasharray="none" d="M116 313.09999999999997M121.0112 294.7544C121.04 294.7256,121.4432 294.7256,122.6816 294.7256C123.056 294.7256,123.4592 294.7256,123.9776 294.7256L126.8864 294.7256L126.9728 294.81199999999995C127.1168 294.8984,127.2032 295.0424,127.2032 295.15759999999995C127.2032 295.33039999999994,127.1168 295.44559999999996,127.0016 295.5608C126.9728 295.64719999999994,126.7136 295.8776,126.5408 296.1368L125.0144 297.8936L123.056 300.11119999999994L122.0192 301.292L120.464 303.07759999999996L118.4192 305.4104C118.0736 305.84239999999994,117.6992 306.188,117.6992 306.188C117.6992 306.188,117.6992 306.188,117.6992 306.188C117.6992 306.24559999999997,117.9584 306.24559999999997,120.3488 306.24559999999997L122.9696 306.24559999999997L122.9696 304.37359999999995C122.9696 302.47279999999995,122.9696 302.44399999999996,122.9984 302.41519999999997C123.056 302.32879999999994,123.3152 302.01199999999994,124.3232 300.83119999999997L124.7264 300.39919999999995L125.1296 299.9672L125.7344 299.1896L126.368 298.5272L126.6848 298.12399999999997C126.8 297.9512,126.9728 297.9224,127.1168 297.9224C127.28960000000001 297.9224,127.4336 298.00879999999995,127.52 298.15279999999996C127.5488 298.2392,127.5488 298.29679999999996,127.5488 300.42799999999994C127.5488 300.9176,127.5488 301.52239999999995,127.5488 302.2424L127.5488 306.24559999999997L128.2688 306.24559999999997C128.9312 306.24559999999997,128.96 306.24559999999997,129.0464 306.27439999999996C129.2768 306.3608,129.392 306.59119999999996,129.392 306.8504C129.392 306.9944,129.3632 307.1672,129.248 307.28239999999994C129.0752 307.42639999999994,129.0464 307.42639999999994,128.2688 307.42639999999994L127.5488 307.42639999999994L127.5488 307.91599999999994C127.5776 309.3848,127.8656 309.96079999999995,128.9888 310.56559999999996C129.392 310.76719999999995,129.4784 310.8248,129.4784 311.1128C129.4784 311.3144,129.42079999999999 311.40079999999995,129.2768 311.51599999999996L129.1904 311.54479999999995L125.2448 311.54479999999995L121.328 311.54479999999995L121.2416 311.51599999999996C121.0688 311.40079999999995,121.04 311.3144,121.04 311.1128C121.04 310.8248,121.0688 310.76719999999995,121.5008 310.56559999999996C122.624 309.96079999999995,122.912 309.3848,122.912 307.91599999999994L122.912 307.42639999999994L119.6 307.42639999999994C118.9952 307.484,118.5056 307.484,118.1024 307.484C116.288 307.484,116.2592 307.42639999999994,116.2304 307.42639999999994C116.0576 307.36879999999996,116 307.19599999999997,116 306.9944C116 306.9944,116 306.9944,116 306.9944C116 306.79279999999994,116 306.79279999999994,116.576 306.13039999999995C118.9952 303.1928,120.6944 298.93039999999996,120.6944 295.532C120.6944 295.01359999999994,120.7808 294.84079999999994,121.0112 294.7544M122.7392 313.12879999999996L122.768 313.12879999999996L122.6816 313.12879999999996L122.7392 313.12879999999996M122.7392 293.71759999999995L122.768 293.71759999999995L122.6816 293.71759999999995L122.7392 293.71759999999995"></path><g class="vf-stavenote" id="vf-auto1057535"><g class="vf-note" pointer-events="bounding-box"><g class="vf-stem" pointer-events="bounding-box"><path stroke-width="1.5" fill="none" stroke="#000000" stroke-dasharray="none" class="vf-stem" id="vf-auto1057535-stem" d="M152.74663999999999 298.09999999999997L152.74663999999999 263.09999999999997"></path></g><g class="vf-notehead" pointer-events="bounding-box"><path stroke-width="0.3" fill="#000000" stroke="none" stroke-dasharray="none" d="M141.4784 298.09999999999997M148.83535999999998 292.87712C148.94768 292.87712,149.11615999999998 292.87712,149.14424 292.87712C149.14424 292.87712,149.17231999999998 292.87712,149.17231999999998 292.87712C149.17231999999998 292.87712,149.3408 292.87712,149.4812 292.87712C152.0084 293.01752,153.49663999999999 294.67423999999994,153.49663999999999 296.75215999999995C153.49663999999999 297.76304,153.15967999999998 298.91432,152.31727999999998 300.00944C150.71671999999998 302.17159999999996,148.10528 303.35096,145.83079999999998 303.35096C144.06176 303.35096,142.54543999999999 302.64896,141.81536 301.21687999999995C141.59072 300.65527999999995,141.4784 300.12175999999994,141.4784 299.53207999999995C141.4784 296.47135999999995,144.90416 293.07367999999997,148.83535999999998 292.87712"></path></g></g><g class="vf-modifiers"></g></g><g class="vf-stavenote" id="vf-auto1057543"><g class="vf-note" pointer-events="bounding-box"><g class="vf-stem" pointer-events="bounding-box"><path stroke-width="1.5" fill="none" stroke="#000000" stroke-dasharray="none" class="vf-stem" id="vf-auto1057543-stem" d="M262.6196 268.09999999999997L262.6196 303.09999999999997"></path></g><g class="vf-notehead" pointer-events="bounding-box"><path stroke-width="0.3" fill="#000000" stroke="none" stroke-dasharray="none" d="M261.8696 268.09999999999997M269.22656 262.87712C269.33888 262.87712,269.50736 262.87712,269.53544 262.87712C269.53544 262.87712,269.56352 262.87712,269.56352 262.87712C269.56352 262.87712,269.73199999999997 262.87712,269.87239999999997 262.87712C272.39959999999996 263.01752,273.88784 264.67423999999994,273.88784 266.75215999999995C273.88784 267.76304,273.55088 268.91432,272.70848 270.00944C271.10792 272.17159999999996,268.49648 273.35096,266.222 273.35096C264.45296 273.35096,262.93664 272.64896,262.20655999999997 271.21687999999995C261.98192 270.65527999999995,261.8696 270.12175999999994,261.8696 269.53207999999995C261.8696 266.47135999999995,265.29536 263.07367999999997,269.22656 262.87712"></path></g></g><g class="vf-modifiers"></g></g><rect stroke-width="0.3" fill="#000000" stroke="#000000" stroke-dasharray="none" x="300.14522239999997" y="166.5" width="1" height="147.59999999999997"></rect><rect stroke-width="0.3" fill="#000000" stroke="#000000" stroke-dasharray="none" x="70" y="166.5" width="1" height="147.59999999999997"></rect><path stroke-width="1" fill="none" stroke="#000000" stroke-dasharray="none" d="M300.14522239999997 273.09999999999997L444.1120447999999 273.09999999999997"></path><path stroke-width="1" fill="none" stroke="#000000" stroke-dasharray="none" d="M300.14522239999997 283.09999999999997L444.1120447999999 283.09999999999997"></path><path stroke-width="1" fill="none" stroke="#000000" stroke-dasharray="none" d="M300.14522239999997 293.09999999999997L444.1120447999999 293.09999999999997"></path><path stroke-width="1" fill="none" stroke="#000000" stroke-dasharray="none" d="M300.14522239999997 303.09999999999997L444.1120447999999 303.09999999999997"></path><path stroke-width="1" fill="none" stroke="#000000" stroke-dasharray="none" d="M300.14522239999997 313.09999999999997L444.1120447999999 313.09999999999997"></path><rect stroke-width="0.3" fill="#000000" stroke="#000000" stroke-dasharray="none" x="444.1120447999999" y="272.59999999999997" width="1" height="41"></rect><g class="vf-stavenote" id="vf-auto1057564"><g class="vf-note" pointer-events="bounding-box"><g class="vf-stem" pointer-events="bounding-box"><path stroke-width="1.5" fill="none" stroke="#000000" stroke-dasharray="none" class="vf-stem" id="vf-auto1057564-stem" d="M360.41346239999996 313.09999999999997L360.41346239999996 278.09999999999997"></path></g><g class="vf-notehead" pointer-events="bounding-box"><path stroke-width="0.3" fill="#000000" stroke="none" stroke-dasharray="none" d="M349.14522239999997 313.09999999999997M356.5021824 307.87712C356.6145024 307.87712,356.7829824 307.87712,356.81106239999997 307.87712C356.81106239999997 307.87712,356.83914239999996 307.87712,356.83914239999996 307.87712C356.83914239999996 307.87712,357.00762239999995 307.87712,357.14802239999995 307.87712C359.67522239999994 308.01752,361.16346239999996 309.67423999999994,361.16346239999996 311.75215999999995C361.16346239999996 312.76304,360.8265024 313.91432,359.9841024 315.00944C358.38354239999995 317.17159999999996,355.7721024 318.35096,353.49762239999995 318.35096C351.7285824 318.35096,350.2122624 317.64896,349.48218239999994 316.21687999999995C349.2575424 315.65527999999995,349.14522239999997 315.12175999999994,349.14522239999997 314.53207999999995C349.14522239999997 311.47135999999995,352.5709824 308.07367999999997,356.5021824 307.87712"></path></g></g><g class="vf-modifiers"></g></g><g class="vf-stavenote" id="vf-auto1057572"><g class="vf-note" pointer-events="bounding-box"><g class="vf-stem" pointer-events="bounding-box"><path stroke-width="1.5" fill="none" stroke="#000000" stroke-dasharray="none" class="vf-stem" id="vf-auto1057572-stem" d="M381.89522239999997 268.09999999999997L381.89522239999997 303.09999999999997"></path></g><g class="vf-notehead" pointer-events="bounding-box"><path stroke-width="0.3" fill="#000000" stroke="none" stroke-dasharray="none" d="M381.14522239999997 268.09999999999997M388.5021824 262.87712C388.6145024 262.87712,388.7829824 262.87712,388.81106239999997 262.87712C388.81106239999997 262.87712,388.83914239999996 262.87712,388.83914239999996 262.87712C388.83914239999996 262.87712,389.00762239999995 262.87712,389.14802239999995 262.87712C391.67522239999994 263.01752,393.16346239999996 264.67423999999994,393.16346239999996 266.75215999999995C393.16346239999996 267.76304,392.8265024 268.91432,391.9841024 270.00944C390.38354239999995 272.17159999999996,387.7721024 273.35096,385.49762239999995 273.35096C383.7285824 273.35096,382.2122624 272.64896,381.48218239999994 271.21687999999995C381.2575424 270.65527999999995,381.14522239999997 270.12175999999994,381.14522239999997 269.53207999999995C381.14522239999997 266.47135999999995,384.5709824 263.07367999999997,388.5021824 262.87712"></path></g></g><g class="vf-modifiers"></g></g><g class="vf-stavenote" id="vf-auto1057580"><g class="vf-note" pointer-events="bounding-box"><g class="vf-stem" pointer-events="bounding-box"><path stroke-width="1.5" fill="none" stroke="#000000" stroke-dasharray="none" class="vf-stem" id="vf-auto1057580-stem" d="M424.41346239999996 303.09999999999997L424.41346239999996 268.09999999999997"></path></g><g class="vf-notehead" pointer-events="bounding-box"><path stroke-width="0.3" fill="#000000" stroke="none" stroke-dasharray="none" d="M413.14522239999997 303.09999999999997M420.5021824 297.87712C420.6145024 297.87712,420.7829824 297.87712,420.81106239999997 297.87712C420.81106239999997 297.87712,420.83914239999996 297.87712,420.83914239999996 297.87712C420.83914239999996 297.87712,421.00762239999995 297.87712,421.14802239999995 297.87712C423.67522239999994 298.01752,425.16346239999996 299.67423999999994,425.16346239999996 301.75215999999995C425.16346239999996 302.76304,424.8265024 303.91432,423.9841024 305.00944C422.38354239999995 307.17159999999996,419.7721024 308.35096,417.49762239999995 308.35096C415.7285824 308.35096,414.2122624 307.64896,413.48218239999994 306.21687999999995C413.2575424 305.65527999999995,413.14522239999997 305.12175999999994,413.14522239999997 304.53207999999995C413.14522239999997 301.47135999999995,416.5709824 298.07367999999997,420.5021824 297.87712"></path></g></g><g class="vf-modifiers"></g></g><rect stroke-width="0.3" fill="#000000" stroke="#000000" stroke-dasharray="none" x="444.1120447999999" y="166.5" width="1" height="147.59999999999997"></rect><path stroke-width="1" fill="none" stroke="#000000" stroke-dasharray="none" d="M444.1120447999999 273.09999999999997L596.4788671999999 273.09999999999997"></path><path stroke-width="1" fill="none" stroke="#000000" stroke-dasharray="none" d="M444.1120447999999 283.09999999999997L596.4788671999999 283.09999999999997"></path><path stroke-width="1" fill="none" stroke="#000000" stroke-dasharray="none" d="M444.1120447999999 293.09999999999997L596.4788671999999 293.09999999999997"></path><path stroke-width="1" fill="none" stroke="#000000" stroke-dasharray="none" d="M444.1120447999999 303.09999999999997L596.4788671999999 303.09999999999997"></path><path stroke-width="1" fill="none" stroke="#000000" stroke-dasharray="none" d="M444.1120447999999 313.09999999999997L596.4788671999999 313.09999999999997"></path><rect stroke-width="0.3" fill="#000000" stroke="#000000" stroke-dasharray="none" x="596.4788671999999" y="272.59999999999997" width="1" height="41"></rect><g class="vf-stavenote" id="vf-auto1057616"><g class="vf-note" pointer-events="bounding-box"><g class="vf-stem" pointer-events="bounding-box"><path stroke-width="1.5" fill="none" stroke="#000000" stroke-dasharray="none" class="vf-stem" id="vf-auto1057616-stem" d="M472.3802847999999 308.09999999999997L472.3802847999999 273.09999999999997"></path></g><g class="vf-notehead" pointer-events="bounding-box"><path stroke-width="0.3" fill="#000000" stroke="none" stroke-dasharray="none" d="M461.1120447999999 308.09999999999997M468.46900479999994 302.87712C468.58132479999995 302.87712,468.74980479999994 302.87712,468.7778847999999 302.87712C468.7778847999999 302.87712,468.8059647999999 302.87712,468.8059647999999 302.87712C468.8059647999999 302.87712,468.9744447999999 302.87712,469.1148447999999 302.87712C471.6420447999999 303.01752,473.1302847999999 304.67423999999994,473.1302847999999 306.75215999999995C473.1302847999999 307.76304,472.79332479999994 308.91432,471.95092479999994 310.00944C470.3503647999999 312.17159999999996,467.73892479999995 313.35096,465.4644447999999 313.35096C463.69540479999995 313.35096,462.17908479999994 312.64896,461.4490047999999 311.21687999999995C461.22436479999993 310.65527999999995,461.1120447999999 310.12175999999994,461.1120447999999 309.53207999999995C461.1120447999999 306.47135999999995,464.53780479999995 303.07367999999997,468.46900479999994 302.87712"></path></g></g><g class="vf-modifiers"></g></g><rect stroke-width="0.3" fill="#000000" stroke="#000000" stroke-dasharray="none" x="596.4788671999999" y="166.5" width="1" height="147.59999999999997"></rect><path stroke-width="1" fill="none" stroke="#000000" stroke-dasharray="none" d="M596.4788671999999 273.09999999999997L758.8456895999998 273.09999999999997"></path><path stroke-width="1" fill="none" stroke="#000000" stroke-dasharray="none" d="M596.4788671999999 283.09999999999997L758.8456895999998 283.09999999999997"></path><path stroke-width="1" fill="none" stroke="#000000" stroke-dasharray="none" d="M596.4788671999999 293.09999999999997L758.8456895999998 293.09999999999997"></path><path stroke-width="1" fill="none" stroke="#000000" stroke-dasharray="none" d="M596.4788671999999 303.09999999999997L758.8456895999998 303.09999999999997"></path><path stroke-width="1" fill="none" stroke="#000000" stroke-dasharray="none" d="M596.4788671999999 313.09999999999997L758.8456895999998 313.09999999999997"></path><rect stroke-width="0.3" fill="#000000" stroke="#000000" stroke-dasharray="none" x="753.8456895999998" y="272.59999999999997" width="1" height="41"></rect><rect stroke-width="0.3" fill="#000000" stroke="#000000" stroke-dasharray="none" x="756.8456895999998" y="272.59999999999997" width="3" height="41"></rect><path stroke-width="0.3" fill="#000000" stroke="none" stroke-dasharray="none" d="M752.8456895999998 288.59999999999997 A2 2 0 0 0 748.8456895999998 288.59999999999997M748.8456895999998 288.59999999999997 A2 2 0 0 0 752.8456895999998 288.59999999999997"></path><path stroke-width="0.3" fill="#000000" stroke="none" stroke-dasharray="none" d="M752.8456895999998 298.59999999999997 A2 2 0 0 0 748.8456895999998 298.59999999999997M748.8456895999998 298.59999999999997 A2 2 0 0 0 752.8456895999998 298.59999999999997"></path><g class="vf-stavenote" id="vf-auto1057653"><g class="vf-note" pointer-events="bounding-box"><g class="vf-stem" pointer-events="bounding-box"><path stroke-width="1.5" fill="none" stroke="#000000" stroke-dasharray="none" class="vf-stem" id="vf-auto1057653-stem" d="M687.7288671999999 273.09999999999997L687.7288671999999 308.09999999999997"></path></g><g class="vf-notehead" pointer-events="bounding-box"><path stroke-width="0.3" fill="#000000" stroke="none" stroke-dasharray="none" d="M686.9788671999999 273.09999999999997M694.3358271999998 267.87712C694.4481471999999 267.87712,694.6166271999998 267.87712,694.6447071999999 267.87712C694.6447071999999 267.87712,694.6727871999999 267.87712,694.6727871999999 267.87712C694.6727871999999 267.87712,694.8412671999998 267.87712,694.9816671999998 267.87712C697.5088671999998 268.01752,698.9971071999998 269.67423999999994,698.9971071999998 271.75215999999995C698.9971071999998 272.76304,698.6601471999999 273.91432,697.8177471999999 275.00944C696.2171871999999 277.17159999999996,693.6057471999999 278.35096,691.3312671999998 278.35096C689.5622271999998 278.35096,688.0459071999999 277.64896,687.3158271999998 276.21687999999995C687.0911871999998 275.65527999999995,686.9788671999999 275.12175999999994,686.9788671999999 274.53207999999995C686.9788671999999 271.47135999999995,690.4046271999998 268.07367999999997,694.3358271999998 267.87712"></path></g></g><g class="vf-modifiers"></g></g><rect stroke-width="0.3" fill="#000000" stroke="#000000" stroke-dasharray="none" x="753.8456895999998" y="166.5" width="1" height="147.59999999999997"></rect><rect stroke-width="0.3" fill="#000000" stroke="#000000" stroke-dasharray="none" x="756.8456895999998" y="166.5" width="3" height="147.59999999999997"></rect><path stroke-width="0.3" fill="#000000" stroke="none" stroke-dasharray="none" d="M68 166.5C45.2 196.01999999999998,81.2 220.374,56 240.29999999999998C81.2 260.226,45.2 284.58,68 314.09999999999997C44 284.58,72.8 260.226,56 240.29999999999998C72.8 220.374,44 196.01999999999998,68 166.5"></path><path stroke-width="1" fill="none" stroke="#000000" stroke-dasharray="none" d="M68 166.5C45.2 196.01999999999998,81.2 220.374,56 240.29999999999998C81.2 260.226,45.2 284.58,68 314.09999999999997C44 284.58,72.8 260.226,56 240.29999999999998C72.8 220.374,44 196.01999999999998,68 166.5"></path><g class="vf-text"><text stroke-width="0.3" fill="#000000" stroke="none" stroke-dasharray="none" font-family="Times New Roman" font-size="15px" font-weight="normal" font-style="normal" x="440.6120447999999" y="163.5">3</text></g></svg>