<svg xmlns="http://www.w3.org/2000/svg"  width="1280" height="383.6" viewBox="0 0 1280 383.6"><path stroke-width="1" fill="none" stroke="#000000" stroke-dasharray="none" d="M70 166.5L304.34522239999995 166.5"></path><path stroke-width="1" fill="none" stroke="#000000" stroke-dasharray="none" d="M70 176.5L304.34522239999995 176.5"></path><path stroke-width="1" fill="none" stroke="#000000" stroke-dasharray="none" d="M70 186.5L304.34522239999995 186.5"></path><path stroke-width="1" fill="none" stroke="#000000" stroke-dasharray="none" d="M70 196.5L304.34522239999995 196.5"></path><path stroke-width="1" fill="none" stroke="#000000" stroke-dasharray="none" d="M70 206.5L304.34522239999995 206.5"></path><rect stroke-width="0.3" fill="#000000" stroke="#000000" stroke-dasharray="none" x="304.34522239999995" y="166" width="1" height="41"></rect><g class="vf-clef"><path stroke-width="0.3" fill="#000000" stroke="none" stroke-dasharray="none" d="M75 196.5M89.0544 153.3288C89.112 153.3,89.1696 153.3,89.256 153.3C89.6016 153.3,90.0048 153.588,90.5808 154.308C92.9136 156.9864,94.5552 161.652,94.5552 165.4536C94.5552 165.7416,94.4976 165.972,94.4976 166.26C94.2384 170.7816,92.3952 174.4968,88.7376 178.0104L87.7584 178.9608L87.4128 179.3352L87.4128 179.4504L87.6144 180.3144L87.9312 181.8696L88.248 183.3096C88.68 185.268,88.8528 186.276,88.8528 186.276C88.8528 186.276,88.8528 186.276,88.8528 186.276C88.8528 186.276,88.968 186.276,89.112 186.2472C89.256 186.2472,89.7168 186.1896,90.2064 186.1896C90.55199999999999 186.1896,90.8976 186.2472,91.0704 186.2472C95.1312 186.7656,98.2704 189.6744,99.1632 193.764C99.336 194.4264,99.39359999999999 195.1464,99.39359999999999 195.8664C99.39359999999999 199.7544,97.0608 203.4696,93.1728 205.2264C92.94239999999999 205.3704,92.856 205.3992,92.856 205.3992L92.856 205.428C92.856 205.428,93.0288 206.0904,93.1728 206.8392L93.6048 209.028L94.008 210.7848C94.2384 211.908,94.3536 212.7144,94.3536 213.4344C94.3536 214.06799999999998,94.2672 214.644,94.1232 215.3064C93.144 219.3096,89.6592 221.7,86.0304 221.7C84.2448 221.7,82.4016 221.124,80.7888 219.828C79.3488 218.6184,78.7152 217.524,78.7152 216.084C78.7152 213.5496,80.76 211.764,82.8912 211.764C83.64 211.764,84.3888 211.99439999999998,85.1088 212.4264C86.3184 213.2616,86.8656 214.5288,86.8656 215.7672C86.8656 217.668,85.5408 219.54,83.2656 219.684L83.0352 219.684L83.208 219.79919999999998C84.1584 220.2024,85.1088 220.404,86.0304 220.404C88.3632 220.404,90.55199999999999 219.2232,91.8768 217.1784C92.62559999999999 216.0264,93.0288 214.6728,93.0288 213.3192C93.0288 212.8008,92.94239999999999 212.2824,92.8272 211.7064C92.8272 211.6488,92.74080000000001 211.188,92.62559999999999 210.756C91.992 207.6456,91.6176 205.8312,91.6176 205.8312C91.6176 205.8312,91.6176 205.8312,91.6176 205.8312C91.56 205.8312,91.4448 205.8312,91.3584 205.8888C91.0704 205.9464,90.4656 206.0904,90.2064 206.1192C89.5728 206.2056,88.968 206.2344,88.392 206.2344C82.74719999999999 206.2344,77.5056 202.4328,75.6912 196.8168C75.2304 195.3192,74.9712 193.8216,74.9712 192.324C74.9712 189.3288,75.9216 186.3912,77.7648 183.7704C79.7808 180.9192,81.7968 178.4712,84.2736 175.9368L85.13759999999999 175.044L84.936 173.9784L84.5616 172.2216L84.072 169.9752C83.928 169.14,83.7552 168.3336,83.7264 168.1608C83.5824 167.2104,83.496 166.2888,83.496 165.3384C83.496 161.7096,84.6768 158.22480000000002,86.8944 155.4312C87.5568 154.5672,88.7376 153.4152,89.0544 153.3288M90.8112 159.0312C90.7536 159.0312,90.6672 159.0312,90.5808 159.0312C89.4 159.0312,87.8736 160.1256,86.8368 161.7384C85.7712 163.32240000000002,85.224 165.4248,85.224 167.5848C85.224 168.1608,85.25280000000001 168.7656,85.3392 169.3704C85.4256 169.8024,85.45439999999999 170.0904,85.6848 171.12720000000002L86.088 172.9416C86.2032 173.4888,86.28960000000001 173.92079999999999,86.28960000000001 173.9784L86.28960000000001 173.9784C86.3184 173.9784,87.2112 172.9992,87.4992 172.6536C90.3792 169.3992,92.1072 165.972,92.4816 162.948C92.5104 162.66,92.5104 162.4296,92.5104 162.1416C92.5104 161.24880000000002,92.3952 160.38479999999998,92.1936 159.924C91.9632 159.4632,91.4448 159.0888,90.8112 159.0312M86.4624 181.2936C86.4048 180.8904,86.3184 180.5736,86.3184 180.516C86.3184 180.516,86.3184 180.516,86.28960000000001 180.516C86.232 180.516,84.9936 181.956,84.1296 182.964C82.6608 184.7496,81.1056 186.8808,80.472 187.9176C79.2624 189.9624,78.6576 192.2376,78.6576 194.484C78.6576 195.9528,78.9456 197.364,79.464 198.7176C81.0192 202.7208,84.5904 205.2264,88.4784 205.2264C88.9392 205.2264,89.4576 205.1976,89.9472 205.1112C90.5808 204.996,91.3584 204.7656,91.3584 204.6792L91.3584 204.6792C91.3584 204.6792,91.3008 204.3912,91.2144 204.0744L90.3792 199.956L89.7168 196.8744L89.2848 194.7432L88.824 192.6696C88.5936 191.4312,88.5072 191.1144,88.5072 191.1144C88.5072 191.1144,88.5072 191.0856,88.4784 191.0856C88.3056 191.0856,87.384 191.5464,86.9808 191.8344C85.4832 192.8712,84.7056 194.5128,84.7056 196.1256C84.7056 197.652,85.45439999999999 199.1784,86.8944 200.0712C87.2112 200.2728,87.3264 200.4456,87.3264 200.6472C87.3264 200.676,87.3264 200.7624,87.3264 200.7912C87.2688 201.1368,87.0672 201.2808,86.7792 201.2808C86.664 201.2808,86.52 201.252,86.3472 201.1656C83.6976 200.0136,81.912 197.2776,81.912 194.2824L81.912 194.2824C81.912 190.8264,84.072 187.8312,87.384 186.6504L87.5568 186.5928L87.2688 185.1528L86.4624 181.2936M90.7824 190.9128C90.55199999999999 190.88400000000001,90.3216 190.88400000000001,90.1488 190.88400000000001C90.0912 190.88400000000001,90.0048 190.88400000000001,89.9472 190.88400000000001L89.8032 190.88400000000001L89.9184 191.4024L90.5232 194.2248L90.8976 196.068L91.3008 197.8824L92.1072 201.8856L92.424 203.412C92.5392 203.8152,92.5968 204.1608,92.62559999999999 204.1608C92.62559999999999 204.1608,92.62559999999999 204.1608,92.62559999999999 204.1608C92.6544 204.1608,93.144 203.8728,93.4608 203.6424C94.9296 202.6056,96.024 200.9928,96.4272 199.3224C96.5712 198.7752,96.6288 198.1992,96.6288 197.652C96.6288 194.3112,94.152 191.2872,90.7824 190.9128"></path></g><path stroke-width="0.3" fill="#000000" stroke="none" stroke-dasharray="none" d="M116 186.5M121.0112 168.1544C121.04 168.1256,121.4432 168.1256,122.6816 168.1256C123.056 168.1256,123.4592 168.1256,123.9776 168.1256L126.8864 168.1256L126.9728 168.212C127.1168 168.29840000000002,127.2032 168.4424,127.2032 168.5576C127.2032 168.7304,127.1168 168.8456,127.0016 168.9608C126.9728 169.0472,126.7136 169.2776,126.5408 169.5368L125.0144 171.2936L123.056 173.5112L122.0192 174.692L120.464 176.4776L118.4192 178.8104C118.0736 179.2424,117.6992 179.588,117.6992 179.588C117.6992 179.588,117.6992 179.588,117.6992 179.588C117.6992 179.6456,117.9584 179.6456,120.3488 179.6456L122.9696 179.6456L122.9696 177.7736C122.9696 175.8728,122.9696 175.844,122.9984 175.8152C123.056 175.7288,123.3152 175.412,124.3232 174.2312L124.7264 173.7992L125.1296 173.3672L125.7344 172.5896L126.368 171.9272L126.6848 171.524C126.8 171.3512,126.9728 171.3224,127.1168 171.3224C127.28960000000001 171.3224,127.4336 171.4088,127.52 171.5528C127.5488 171.6392,127.5488 171.6968,127.5488 173.828C127.5488 174.3176,127.5488 174.9224,127.5488 175.6424L127.5488 179.6456L128.2688 179.6456C128.9312 179.6456,128.96 179.6456,129.0464 179.6744C129.2768 179.7608,129.392 179.9912,129.392 180.2504C129.392 180.3944,129.3632 180.5672,129.248 180.6824C129.0752 180.8264,129.0464 180.8264,128.2688 180.8264L127.5488 180.8264L127.5488 181.316C127.5776 182.7848,127.8656 183.3608,128.9888 183.9656C129.392 184.1672,129.4784 184.2248,129.4784 184.5128C129.4784 184.7144,129.42079999999999 184.8008,129.2768 184.916L129.1904 184.9448L125.2448 184.9448L121.328 184.9448L121.2416 184.916C121.0688 184.8008,121.04 184.7144,121.04 184.5128C121.04 184.2248,121.0688 184.1672,121.5008 183.9656C122.624 183.3608,122.912 182.7848,122.912 181.316L122.912 180.8264L119.6 180.8264C118.9952 180.88400000000001,118.5056 180.88400000000001,118.1024 180.88400000000001C116.288 180.88400000000001,116.2592 180.8264,116.2304 180.8264C116.0576 180.7688,116 180.596,116 180.3944C116 180.3944,116 180.3944,116 180.3944C116 180.1928,116 180.1928,116.576 179.5304C118.9952 176.5928,120.6944 172.3304,120.6944 168.93200000000002C120.6944 168.4136,120.7808 168.2408,121.0112 168.1544M122.7392 186.5288L122.768 186.5288L122.6816 186.5288L122.7392 186.5288M122.7392 167.1176L122.768 167.1176L122.6816 167.1176L122.7392 167.1176"></path><path stroke-width="0.3" fill="#000000" stroke="none" stroke-dasharray="none" d="M116 206.5M121.0112 188.1544C121.04 188.1256,121.4432 188.1256,122.6816 188.1256C123.056 188.1256,123.4592 188.1256,123.9776 188.1256L126.8864 188.1256L126.9728 188.212C127.1168 188.29840000000002,127.2032 188.4424,127.2032 188.5576C127.2032 188.7304,127.1168 188.8456,127.0016 188.9608C126.9728 189.0472,126.7136 189.2776,126.5408 189.5368L125.0144 191.2936L123.056 193.5112L122.0192 194.692L120.464 196.4776L118.4192 198.8104C118.0736 199.2424,117.6992 199.588,117.6992 199.588C117.6992 199.588,117.6992 199.588,117.6992 199.588C117.6992 199.6456,117.9584 199.6456,120.3488 199.6456L122.9696 199.6456L122.9696 197.7736C122.9696 195.8728,122.9696 195.844,122.9984 195.8152C123.056 195.7288,123.3152 195.412,124.3232 194.2312L124.7264 193.7992L125.1296 193.3672L125.7344 192.5896L126.368 191.9272L126.6848 191.524C126.8 191.3512,126.9728 191.3224,127.1168 191.3224C127.28960000000001 191.3224,127.4336 191.4088,127.52 191.5528C127.5488 191.6392,127.5488 191.6968,127.5488 193.828C127.5488 194.3176,127.5488 194.9224,127.5488 195.6424L127.5488 199.6456L128.2688 199.6456C128.9312 199.6456,128.96 199.6456,129.0464 199.6744C129.2768 199.7608,129.392 199.9912,129.392 200.2504C129.392 200.3944,129.3632 200.5672,129.248 200.6824C129.0752 200.8264,129.0464 200.8264,128.2688 200.8264L127.5488 200.8264L127.5488 201.316C127.5776 202.7848,127.8656 203.3608,128.9888 203.9656C129.392 204.1672,129.4784 204.2248,129.4784 204.5128C129.4784 204.7144,129.42079999999999 204.8008,129.2768 204.916L129.1904 204.9448L125.2448 204.9448L121.328 204.9448L121.2416 204.916C121.0688 204.8008,121.04 204.7144,121.04 204.5128C121.04 204.2248,121.0688 204.1672,121.5008 203.9656C122.624 203.3608,122.912 202.7848,122.912 201.316L122.912 200.8264L119.6 200.8264C118.9952 200.88400000000001,118.5056 200.88400000000001,118.1024 200.88400000000001C116.288 200.88400000000001,116.2592 200.8264,116.2304 200.8264C116.0576 200.7688,116 200.596,116 200.3944C116 200.3944,116 200.3944,116 200.3944C116 200.1928,116 200.1928,116.576 199.5304C118.9952 196.5928,120.6944 192.3304,120.6944 188.93200000000002C120.6944 188.4136,120.7808 188.2408,121.0112 188.1544M122.7392 206.5288L122.768 206.5288L122.6816 206.5288L122.7392 206.5288M122.7392 187.1176L122.768 187.1176L122.6816 187.1176L122.7392 187.1176"></path><g class="vf-stavenote" id="vf-auto715138"><g class="vf-note" pointer-events="bounding-box"><g class="vf-stem" pointer-events="bounding-box"><path stroke-width="1.5" fill="none" stroke="#000000" stroke-dasharray="none" class="vf-stem" id="vf-auto715138-stem" d="M183.3588 186.5L183.3588 221.5"></path></g><g class="vf-notehead" pointer-events="bounding-box"><path stroke-width="0.3" fill="#000000" stroke="none" stroke-dasharray="none" d="M182.6088 186.5M189.96576 181.27712C190.07808 181.27712,190.24656 181.27712,190.27464 181.27712C190.27464 181.27712,190.30272 181.27712,190.30272 181.27712C190.30272 181.27712,190.4712 181.27712,190.6116 181.27712C193.1388 181.41752,194.62704 183.07424,194.62704 185.15216C194.62704 186.16304,194.29008 187.31432,193.44768 188.40944C191.84712 190.5716,189.23568 191.75096,186.9612 191.75096C185.19216 191.75096,183.67584 191.04896,182.94576 189.61688C182.72112 189.05528,182.6088 188.52176,182.6088 187.93208C182.6088 184.87136,186.03456 181.47368,189.96576 181.27712"></path></g></g><g class="vf-modifiers"></g></g><g class="vf-stavenote" id="vf-auto715146"><g class="vf-note" pointer-events="bounding-box"><g class="vf-stem" pointer-events="bounding-box"><path stroke-width="1.5" fill="none" stroke="#000000" stroke-dasharray="none" class="vf-stem" id="vf-auto715146-stem" d="M224.48919999999998 176.5L224.48919999999998 211.5"></path></g><g class="vf-notehead" pointer-events="bounding-box"><path stroke-width="0.3" fill="#000000" stroke="none" stroke-dasharray="none" d="M223.73919999999998 176.5M231.09615999999997 171.27712C231.20847999999998 171.27712,231.37696 171.27712,231.40503999999999 171.27712C231.40503999999999 171.27712,231.43311999999997 171.27712,231.43311999999997 171.27712C231.43311999999997 171.27712,231.6016 171.27712,231.742 171.27712C234.26919999999998 171.41752,235.75743999999997 173.07424,235.75743999999997 175.15216C235.75743999999997 176.16304,235.42048 177.31432,234.57807999999997 178.40944C232.97751999999997 180.5716,230.36607999999998 181.75096,228.09159999999997 181.75096C226.32255999999998 181.75096,224.80623999999997 181.04896,224.07616 179.61688C223.85152 179.05528,223.73919999999998 178.52176,223.73919999999998 177.93208C223.73919999999998 174.87136,227.16495999999998 171.47368,231.09615999999997 171.27712"></path></g></g><g class="vf-modifiers"></g></g><g class="vf-stavenote" id="vf-auto715154"><g class="vf-note" pointer-events="bounding-box"><g class="vf-stem" pointer-events="bounding-box"><path stroke-width="1.5" fill="none" stroke="#000000" stroke-dasharray="none" class="vf-stem" id="vf-auto715154-stem" d="M276.13784 211.5L276.13784 176.5"></path></g><g class="vf-notehead" pointer-events="bounding-box"><path stroke-width="0.3" fill="#000000" stroke="none" stroke-dasharray="none" d="M264.8696 211.5M272.22656 206.27712C272.33888 206.27712,272.50736 206.27712,272.53544 206.27712C272.53544 206.27712,272.56352 206.27712,272.56352 206.27712C272.56352 206.27712,272.73199999999997 206.27712,272.87239999999997 206.27712C275.39959999999996 206.41752,276.88784 208.07424,276.88784 210.15216C276.88784 211.16304,276.55088 212.31432,275.70848 213.40944C274.10792 215.5716,271.49648 216.75096,269.222 216.75096C267.45296 216.75096,265.93664 216.04896,265.20655999999997 214.61688C264.98192 214.05528,264.8696 213.52176,264.8696 212.93208C264.8696 209.87136,268.29536 206.47368,272.22656 206.27712"></path></g></g><g class="vf-modifiers"></g></g><path stroke-width="1" fill="none" stroke="#000000" stroke-dasharray="none" d="M304.34522239999995 166.5L456.71204479999994 166.5"></path><path stroke-width="1" fill="none" stroke="#000000" stroke-dasharray="none" d="M304.34522239999995 176.5L456.71204479999994 176.5"></path><path stroke-width="1" fill="none" stroke="#000000" stroke-dasharray="none" d="M304.34522239999995 186.5L456.71204479999994 186.5"></path><path stroke-width="1" fill="none" stroke="#000000" stroke-dasharray="none" d="M304.34522239999995 196.5L456.71204479999994 196.5"></path><path stroke-width="1" fill="none" stroke="#000000" stroke-dasharray="none" d="M304.34522239999995 206.5L456.71204479999994 206.5"></path><rect stroke-width="0.3" fill="#000000" stroke="#000000" stroke-dasharray="none" x="456.71204479999994" y="166" width="1" height="41"></rect><g class="vf-stavenote" id="vf-auto715175"><g class="vf-note" pointer-events="bounding-box"><g class="vf-stem" pointer-events="bounding-box"><path stroke-width="1.5" fill="none" stroke="#000000" stroke-dasharray="none" class="vf-stem" id="vf-auto715175-stem" d="M332.61346239999995 201.5L332.61346239999995 166.5"></path></g><g class="vf-notehead" pointer-events="bounding-box"><path stroke-width="0.3" fill="#000000" stroke="none" stroke-dasharray="none" d="M321.34522239999995 201.5M328.70218239999997 196.27712C328.8145024 196.27712,328.98298239999997 196.27712,329.01106239999996 196.27712C329.01106239999996 196.27712,329.03914239999995 196.27712,329.03914239999995 196.27712C329.03914239999995 196.27712,329.20762239999993 196.27712,329.34802239999993 196.27712C331.8752224 196.41752,333.36346239999995 198.07424,333.36346239999995 200.15216C333.36346239999995 201.16304,333.02650239999997 202.31432,332.1841024 203.40944C330.58354239999994 205.5716,327.9721023999999 206.75096,325.69762239999994 206.75096C323.9285824 206.75096,322.4122624 206.04896,321.68218239999993 204.61688C321.45754239999997 204.05528,321.34522239999995 203.52176,321.34522239999995 202.93208C321.34522239999995 199.87136,324.7709824 196.47368,328.70218239999997 196.27712"></path></g></g><g class="vf-modifiers"></g></g><g class="vf-stavenote" id="vf-auto715183"><g class="vf-note" pointer-events="bounding-box"><g class="vf-stem" pointer-events="bounding-box"><path stroke-width="1.5" fill="none" stroke="#000000" stroke-dasharray="none" class="vf-stem" id="vf-auto715183-stem" d="M401.11346239999995 211.5L401.11346239999995 176.5"></path></g><g class="vf-notehead" pointer-events="bounding-box"><path stroke-width="0.3" fill="#000000" stroke="none" stroke-dasharray="none" d="M389.84522239999995 211.5M397.20218239999997 206.27712C397.3145024 206.27712,397.48298239999997 206.27712,397.51106239999996 206.27712C397.51106239999996 206.27712,397.53914239999995 206.27712,397.53914239999995 206.27712C397.53914239999995 206.27712,397.70762239999993 206.27712,397.84802239999993 206.27712C400.3752224 206.41752,401.86346239999995 208.07424,401.86346239999995 210.15216C401.86346239999995 211.16304,401.52650239999997 212.31432,400.6841024 213.40944C399.08354239999994 215.5716,396.4721023999999 216.75096,394.19762239999994 216.75096C392.4285824 216.75096,390.9122624 216.04896,390.18218239999993 214.61688C389.95754239999997 214.05528,389.84522239999995 213.52176,389.84522239999995 212.93208C389.84522239999995 209.87136,393.2709824 206.47368,397.20218239999997 206.27712"></path></g></g><g class="vf-modifiers"></g></g><g class="vf-stavenote" id="vf-auto715191"><g class="vf-note" pointer-events="bounding-box"><g class="vf-stem" pointer-events="bounding-box"><path stroke-width="1.5" fill="none" stroke="#000000" stroke-dasharray="none" class="vf-stem" id="vf-auto715191-stem" d="M424.84522239999995 171.5L424.84522239999995 206.5"></path></g><g class="vf-notehead" pointer-events="bounding-box"><path stroke-width="0.3" fill="#000000" stroke="none" stroke-dasharray="none" d="M424.09522239999995 171.5M431.45218239999997 166.27712C431.5645024 166.27712,431.73298239999997 166.27712,431.76106239999996 166.27712C431.76106239999996 166.27712,431.78914239999995 166.27712,431.78914239999995 166.27712C431.78914239999995 166.27712,431.95762239999993 166.27712,432.09802239999993 166.27712C434.6252224 166.41752,436.11346239999995 168.07424,436.11346239999995 170.15216C436.11346239999995 171.16304,435.77650239999997 172.31432,434.9341024 173.40944C433.33354239999994 175.5716,430.7221023999999 176.75096,428.44762239999994 176.75096C426.6785824 176.75096,425.1622624 176.04896,424.43218239999993 174.61688C424.20754239999997 174.05528,424.09522239999995 173.52176,424.09522239999995 172.93208C424.09522239999995 169.87136,427.5209824 166.47368,431.45218239999997 166.27712"></path></g></g><g class="vf-modifiers"></g></g><path stroke-width="1" fill="none" stroke="#000000" stroke-dasharray="none" d="M456.71204479999994 166.5L609.0788671999999 166.5"></path><path stroke-width="1" fill="none" stroke="#000000" stroke-dasharray="none" d="M456.71204479999994 176.5L609.0788671999999 176.5"></path><path stroke-width="1" fill="none" stroke="#000000" stroke-dasharray="none" d="M456.71204479999994 186.5L609.0788671999999 186.5"></path><path stroke-width="1" fill="none" stroke="#000000" stroke-dasharray="none" d="M456.71204479999994 196.5L609.0788671999999 196.5"></path><path stroke-width="1" fill="none" stroke="#000000" stroke-dasharray="none" d="M456.71204479999994 206.5L609.0788671999999 206.5"></path><rect stroke-width="0.3" fill="#000000" stroke="#000000" stroke-dasharray="none" x="609.0788671999999" y="166" width="1" height="41"></rect><g class="vf-stavenote" id="vf-auto715212"><g class="vf-note" pointer-events="bounding-box"><g class="vf-stem" pointer-events="bounding-box"><path stroke-width="1.5" fill="none" stroke="#000000" stroke-dasharray="none" class="vf-stem" id="vf-auto715212-stem" d="M474.46204479999994 171.5L474.46204479999994 206.5"></path></g><g class="vf-notehead" pointer-events="bounding-box"><path stroke-width="0.3" fill="#000000" stroke="none" stroke-dasharray="none" d="M473.71204479999994 171.5M481.06900479999996 166.27712C481.18132479999997 166.27712,481.34980479999996 166.27712,481.37788479999995 166.27712C481.37788479999995 166.27712,481.40596479999994 166.27712,481.40596479999994 166.27712C481.40596479999994 166.27712,481.5744447999999 166.27712,481.7148447999999 166.27712C484.2420447999999 166.41752,485.73028479999994 168.07424,485.73028479999994 170.15216C485.73028479999994 171.16304,485.39332479999996 172.31432,484.55092479999996 173.40944C482.95036479999993 175.5716,480.3389248 176.75096,478.06444479999993 176.75096C476.2954048 176.75096,474.77908479999996 176.04896,474.0490047999999 174.61688C473.82436479999996 174.05528,473.71204479999994 173.52176,473.71204479999994 172.93208C473.71204479999994 169.87136,477.13780479999997 166.47368,481.06900479999996 166.27712"></path></g></g><g class="vf-modifiers"></g></g><g class="vf-stavenote" id="vf-auto715220"><g class="vf-note" pointer-events="bounding-box"><g class="vf-stem" pointer-events="bounding-box"><path stroke-width="1.5" fill="none" stroke="#000000" stroke-dasharray="none" class="vf-stem" id="vf-auto715220-stem" d="M508.71204479999994 166.5L508.71204479999994 201.5"></path></g><g class="vf-notehead" pointer-events="bounding-box"><path stroke-width="0.3" fill="#000000" stroke="none" stroke-dasharray="none" d="M507.96204479999994 166.5M515.3190047999999 161.27712C515.4313248 161.27712,515.5998047999999 161.27712,515.6278848 161.27712C515.6278848 161.27712,515.6559648 161.27712,515.6559648 161.27712C515.6559648 161.27712,515.8244447999999 161.27712,515.9648447999999 161.27712C518.4920447999999 161.41752,519.9802847999999 163.07424,519.9802847999999 165.15216C519.9802847999999 166.16304,519.6433248 167.31432,518.8009248 168.40944C517.2003648 170.5716,514.5889248 171.75096,512.3144447999999 171.75096C510.5454048 171.75096,509.02908479999996 171.04896,508.2990047999999 169.61688C508.07436479999996 169.05528,507.96204479999994 168.52176,507.96204479999994 167.93208C507.96204479999994 164.87136,511.38780479999997 161.47368,515.3190047999999 161.27712"></path></g></g><g class="vf-modifiers"></g></g><g class="vf-stavenote" id="vf-auto715228"><g class="vf-note" pointer-events="bounding-box"><g class="vf-stem" pointer-events="bounding-box"><path stroke-width="1.5" fill="none" stroke="#000000" stroke-dasharray="none" class="vf-stem" id="vf-auto715228-stem" d="M577.2120448 171.5L577.2120448 206.5"></path></g><g class="vf-notehead" pointer-events="bounding-box"><path stroke-width="0.3" fill="#000000" stroke="none" stroke-dasharray="none" d="M576.4620448 171.5M583.8190047999999 166.27712C583.9313248 166.27712,584.0998047999999 166.27712,584.1278848 166.27712C584.1278848 166.27712,584.1559648 166.27712,584.1559648 166.27712C584.1559648 166.27712,584.3244447999999 166.27712,584.4648447999999 166.27712C586.9920447999999 166.41752,588.4802847999999 168.07424,588.4802847999999 170.15216C588.4802847999999 171.16304,588.1433248 172.31432,587.3009248 173.40944C585.7003648 175.5716,583.0889248 176.75096,580.8144447999999 176.75096C579.0454047999999 176.75096,577.5290848 176.04896,576.7990047999999 174.61688C576.5743647999999 174.05528,576.4620448 173.52176,576.4620448 172.93208C576.4620448 169.87136,579.8878047999999 166.47368,583.8190047999999 166.27712"></path></g></g><g class="vf-modifiers"></g></g><path stroke-width="1" fill="none" stroke="#000000" stroke-dasharray="none" d="M609.0788671999999 166.5L763.0456895999998 166.5"></path><path stroke-width="1" fill="none" stroke="#000000" stroke-dasharray="none" d="M609.0788671999999 176.5L763.0456895999998 176.5"></path><path stroke-width="1" fill="none" stroke="#000000" stroke-dasharray="none" d="M609.0788671999999 186.5L763.0456895999998 186.5"></path><path stroke-width="1" fill="none" stroke="#000000" stroke-dasharray="none" d="M609.0788671999999 196.5L763.0456895999998 196.5"></path><path stroke-width="1" fill="none" stroke="#000000" stroke-dasharray="none" d="M609.0788671999999 206.5L763.0456895999998 206.5"></path><rect stroke-width="0.3" fill="#000000" stroke="#000000" stroke-dasharray="none" x="758.0456895999998" y="166" width="1" height="41"></rect><rect stroke-width="0.3" fill="#000000" stroke="#000000" stroke-dasharray="none" x="761.0456895999998" y="166" width="3" height="41"></rect><path stroke-width="0.3" fill="#000000" stroke="none" stroke-dasharray="none" d="M757.0456895999998 182 A2 2 0 0 0 753.0456895999998 182M753.0456895999998 182 A2 2 0 0 0 757.0456895999998 182"></path><path stroke-width="0.3" fill="#000000" stroke="none" stroke-dasharray="none" d="M757.0456895999998 192 A2 2 0 0 0 753.0456895999998 192M753.0456895999998 192 A2 2 0 0 0 757.0456895999998 192"></path><g class="vf-stavenote" id="vf-auto715249"><g class="vf-note" pointer-events="bounding-box"><g class="vf-stem" pointer-events="bounding-box"><path stroke-width="1.5" fill="none" stroke="#000000" stroke-dasharray="none" class="vf-stem" id="vf-auto715249-stem" d="M695.8288671999999 186.5L695.8288671999999 221.5"></path></g><g class="vf-notehead" pointer-events="bounding-box"><path stroke-width="0.3" fill="#000000" stroke="none" stroke-dasharray="none" d="M695.0788671999999 186.5M702.4358271999998 181.27712C702.5481471999999 181.27712,702.7166271999998 181.27712,702.7447071999999 181.27712C702.7447071999999 181.27712,702.7727871999999 181.27712,702.7727871999999 181.27712C702.7727871999999 181.27712,702.9412671999999 181.27712,703.0816671999999 181.27712C705.6088671999998 181.41752,707.0971071999999 183.07424,707.0971071999999 185.15216C707.0971071999999 186.16304,706.7601471999999 187.31432,705.9177471999999 188.40944C704.3171871999999 190.5716,701.7057471999999 191.75096,699.4312671999999 191.75096C697.6622271999998 191.75096,696.1459071999999 191.04896,695.4158271999999 189.61688C695.1911871999998 189.05528,695.0788671999999 188.52176,695.0788671999999 187.93208C695.0788671999999 184.87136,698.5046271999998 181.47368,702.4358271999998 181.27712"></path></g></g><g class="vf-modifiers"></g></g><g class="vf-text"><text stroke-width="0.3" fill="#000000" stroke="none" stroke-dasharray="none" font-family="Times New Roman" font-size="23px" font-weight="bold" font-style="italic" x="156.4784" y="243.3">mp</text></g><path stroke-width="1" fill="none" stroke="#000000" stroke-dasharray="none" d="M70 258.09999999999997L304.34522239999995 258.09999999999997"></path><path stroke-width="1" fill="none" stroke="#000000" stroke-dasharray="none" d="M70 268.09999999999997L304.34522239999995 268.09999999999997"></path><path stroke-width="1" fill="none" stroke="#000000" stroke-dasharray="none" d="M70 278.09999999999997L304.34522239999995 278.09999999999997"></path><path stroke-width="1" fill="none" stroke="#000000" stroke-dasharray="none" d="M70 288.09999999999997L304.34522239999995 288.09999999999997"></path><path stroke-width="1" fill="none" stroke="#000000" stroke-dasharray="none" d="M70 298.09999999999997L304.34522239999995 298.09999999999997"></path><rect stroke-width="0.3" fill="#000000" stroke="#000000" stroke-dasharray="none" x="304.34522239999995" y="257.59999999999997" width="1" height="41"></rect><g class="vf-clef"><path stroke-width="0.3" fill="#000000" stroke="none" stroke-dasharray="none" d="M75 268.09999999999997M83.8416 258.04879999999997C84.072 257.9912,84.3024 257.9912,84.5616 257.9912C85.5696 257.9912,86.7504 258.10639999999995,87.7584 258.308C92.4816 259.2872,95.736 262.484,96.3408 266.7464C96.3984 267.20719999999994,96.4272 267.63919999999996,96.4272 268.09999999999997C96.4272 270.69199999999995,95.5344 274.03279999999995,94.008 276.8264C90.3792 283.39279999999997,83.7552 288.116,75.8064 289.84399999999994C75.6624 289.84399999999994,75.5472 289.8728,75.4032 289.8728C75.1152 289.8728,74.9712 289.7,74.9712 289.44079999999997C74.9712 289.15279999999996,75.0288 289.0664,75.6048 288.83599999999996C84.7056 285.4088,90.7824 278.00719999999995,91.3296 269.71279999999996C91.3584 269.28079999999994,91.3584 268.79119999999995,91.3584 268.41679999999997C91.3584 264.3848,90.12 261.3896,87.7296 259.89199999999994C86.6928 259.22959999999995,85.5696 258.91279999999995,84.36 258.91279999999995C81.6816 258.91279999999995,78.9456 260.43919999999997,77.6784 263.00239999999997C77.6208 263.20399999999995,77.4192 263.63599999999997,77.4192 263.66479999999996C77.4192 263.66479999999996,77.4192 263.66479999999996,77.4192 263.66479999999996C77.4192 263.66479999999996,77.448 263.63599999999997,77.5344 263.6072C78.168 263.20399999999995,78.8592 263.00239999999997,79.5792 263.00239999999997C80.5872 263.00239999999997,81.6528 263.4344,82.4016 264.2408C83.0928 264.98959999999994,83.4672 265.9976,83.4672 266.9192C83.4672 268.79119999999995,82.0848 270.69199999999995,79.9248 270.8936C79.7808 270.8936,79.6368 270.9224,79.4928 270.9224C77.1024 270.9224,75.1728 268.73359999999997,75.1728 265.9688C75.1728 265.91119999999995,75.1728 265.8248,75.1728 265.796C75.288 261.6776,79.0608 258.308,83.8416 258.04879999999997M99.1632 261.90799999999996C99.2208 261.87919999999997,99.2496 261.87919999999997,99.336 261.87919999999997C99.5376 261.87919999999997,99.768 261.90799999999996,99.8256 261.9656C100.54560000000001 262.1672,100.8912 262.8008,100.8912 263.4056C100.8912 263.924,100.632 264.44239999999996,100.11359999999999 264.7304C99.912 264.8744,99.6528 264.90319999999997,99.39359999999999 264.90319999999997C98.9904 264.90319999999997,98.5584 264.7304,98.2704 264.356C98.03999999999999 264.068,97.9248 263.7512,97.9248 263.4344C97.9248 262.71439999999996,98.3856 261.9944,99.1632 261.90799999999996M99.1632 271.32559999999995C99.2208 271.32559999999995,99.2496 271.32559999999995,99.336 271.32559999999995C99.5376 271.32559999999995,99.768 271.35439999999994,99.8256 271.412C100.54560000000001 271.61359999999996,100.8912 272.24719999999996,100.8912 272.852C100.8912 273.37039999999996,100.632 273.88879999999995,100.11359999999999 274.14799999999997C99.912 274.292,99.6528 274.34959999999995,99.39359999999999 274.34959999999995C98.9904 274.34959999999995,98.5584 274.14799999999997,98.2704 273.8024C98.03999999999999 273.51439999999997,97.9248 273.19759999999997,97.9248 272.852C97.9248 272.13199999999995,98.3856 271.44079999999997,99.1632 271.32559999999995"></path></g><path stroke-width="0.3" fill="#000000" stroke="none" stroke-dasharray="none" d="M116 278.09999999999997M121.0112 259.7544C121.04 259.7256,121.4432 259.7256,122.6816 259.7256C123.056 259.7256,123.4592 259.7256,123.9776 259.7256L126.8864 259.7256L126.9728 259.81199999999995C127.1168 259.8984,127.2032 260.0424,127.2032 260.15759999999995C127.2032 260.33039999999994,127.1168 260.44559999999996,127.0016 260.5608C126.9728 260.64719999999994,126.7136 260.8776,126.5408 261.1368L125.0144 262.8936L123.056 265.11119999999994L122.0192 266.292L120.464 268.07759999999996L118.4192 270.4104C118.0736 270.84239999999994,117.6992 271.188,117.6992 271.188C117.6992 271.188,117.6992 271.188,117.6992 271.188C117.6992 271.24559999999997,117.9584 271.24559999999997,120.3488 271.24559999999997L122.9696 271.24559999999997L122.9696 269.37359999999995C122.9696 267.47279999999995,122.9696 267.44399999999996,122.9984 267.41519999999997C123.056 267.32879999999994,123.3152 267.01199999999994,124.3232 265.83119999999997L124.7264 265.39919999999995L125.1296 264.9672L125.7344 264.1896L126.368 263.5272L126.6848 263.12399999999997C126.8 262.9512,126.9728 262.9224,127.1168 262.9224C127.28960000000001 262.9224,127.4336 263.00879999999995,127.52 263.15279999999996C127.5488 263.2392,127.5488 263.29679999999996,127.5488 265.42799999999994C127.5488 265.9176,127.5488 266.52239999999995,127.5488 267.2424L127.5488 271.24559999999997L128.2688 271.24559999999997C128.9312 271.24559999999997,128.96 271.24559999999997,129.0464 271.27439999999996C129.2768 271.3608,129.392 271.59119999999996,129.392 271.8504C129.392 271.9944,129.3632 272.1672,129.248 272.28239999999994C129.0752 272.42639999999994,129.0464 272.42639999999994,128.2688 272.42639999999994L127.5488 272.42639999999994L127.5488 272.91599999999994C127.5776 274.3848,127.8656 274.96079999999995,128.9888 275.56559999999996C129.392 275.76719999999995,129.4784 275.8248,129.4784 276.1128C129.4784 276.3144,129.42079999999999 276.40079999999995,129.2768 276.51599999999996L129.1904 276.54479999999995L125.2448 276.54479999999995L121.328 276.54479999999995L121.2416 276.51599999999996C121.0688 276.40079999999995,121.04 276.3144,121.04 276.1128C121.04 275.8248,121.0688 275.76719999999995,121.5008 275.56559999999996C122.624 274.96079999999995,122.912 274.3848,122.912 272.91599999999994L122.912 272.42639999999994L119.6 272.42639999999994C118.9952 272.484,118.5056 272.484,118.1024 272.484C116.288 272.484,116.2592 272.42639999999994,116.2304 272.42639999999994C116.0576 272.36879999999996,116 272.19599999999997,116 271.9944C116 271.9944,116 271.9944,116 271.9944C116 271.79279999999994,116 271.79279999999994,116.576 271.13039999999995C118.9952 268.1928,120.6944 263.93039999999996,120.6944 260.532C120.6944 260.01359999999994,120.7808 259.84079999999994,121.0112 259.7544M122.7392 278.12879999999996L122.768 278.12879999999996L122.6816 278.12879999999996L122.7392 278.12879999999996M122.7392 258.71759999999995L122.768 258.71759999999995L122.6816 258.71759999999995L122.7392 258.71759999999995"></path><path stroke-width="0.3" fill="#000000" stroke="none" stroke-dasharray="none" d="M116 298.09999999999997M121.0112 279.7544C121.04 279.7256,121.4432 279.7256,122.6816 279.7256C123.056 279.7256,123.4592 279.7256,123.9776 279.7256L126.8864 279.7256L126.9728 279.81199999999995C127.1168 279.8984,127.2032 280.0424,127.2032 280.15759999999995C127.2032 280.33039999999994,127.1168 280.44559999999996,127.0016 280.5608C126.9728 280.64719999999994,126.7136 280.8776,126.5408 281.1368L125.0144 282.8936L123.056 285.11119999999994L122.0192 286.292L120.464 288.07759999999996L118.4192 290.4104C118.0736 290.84239999999994,117.6992 291.188,117.6992 291.188C117.6992 291.188,117.6992 291.188,117.6992 291.188C117.6992 291.24559999999997,117.9584 291.24559999999997,120.3488 291.24559999999997L122.9696 291.24559999999997L122.9696 289.37359999999995C122.9696 287.47279999999995,122.9696 287.44399999999996,122.9984 287.41519999999997C123.056 287.32879999999994,123.3152 287.01199999999994,124.3232 285.83119999999997L124.7264 285.39919999999995L125.1296 284.9672L125.7344 284.1896L126.368 283.5272L126.6848 283.12399999999997C126.8 282.9512,126.9728 282.9224,127.1168 282.9224C127.28960000000001 282.9224,127.4336 283.00879999999995,127.52 283.15279999999996C127.5488 283.2392,127.5488 283.29679999999996,127.5488 285.42799999999994C127.5488 285.9176,127.5488 286.52239999999995,127.5488 287.2424L127.5488 291.24559999999997L128.2688 291.24559999999997C128.9312 291.24559999999997,128.96 291.24559999999997,129.0464 291.27439999999996C129.2768 291.3608,129.392 291.59119999999996,129.392 291.8504C129.392 291.9944,129.3632 292.1672,129.248 292.28239999999994C129.0752 292.42639999999994,129.0464 292.42639999999994,128.2688 292.42639999999994L127.5488 292.42639999999994L127.5488 292.91599999999994C127.5776 294.3848,127.8656 294.96079999999995,128.9888 295.56559999999996C129.392 295.76719999999995,129.4784 295.8248,129.4784 296.1128C129.4784 296.3144,129.42079999999999 296.40079999999995,129.2768 296.51599999999996L129.1904 296.54479999999995L125.2448 296.54479999999995L121.328 296.54479999999995L121.2416 296.51599999999996C121.0688 296.40079999999995,121.04 296.3144,121.04 296.1128C121.04 295.8248,121.0688 295.76719999999995,121.5008 295.56559999999996C122.624 294.96079999999995,122.912 294.3848,122.912 292.91599999999994L122.912 292.42639999999994L119.6 292.42639999999994C118.9952 292.484,118.5056 292.484,118.1024 292.484C116.288 292.484,116.2592 292.42639999999994,116.2304 292.42639999999994C116.0576 292.36879999999996,116 292.19599999999997,116 291.9944C116 291.9944,116 291.9944,116 291.9944C116 291.79279999999994,116 291.79279999999994,116.576 291.13039999999995C118.9952 288.1928,120.6944 283.93039999999996,120.6944 280.532C120.6944 280.01359999999994,120.7808 279.84079999999994,121.0112 279.7544M122.7392 298.12879999999996L122.768 298.12879999999996L122.6816 298.12879999999996L122.7392 298.12879999999996M122.7392 278.71759999999995L122.768 278.71759999999995L122.6816 278.71759999999995L122.7392 278.71759999999995"></path><g class="vf-stavenote" id="vf-auto715164"><g class="vf-note" pointer-events="bounding-box"><g class="vf-stem" pointer-events="bounding-box"><path stroke-width="1.5" fill="none" stroke="#000000" stroke-dasharray="none" class="vf-stem" id="vf-auto715164-stem" d="M152.74663999999999 293.09999999999997L152.74663999999999 258.09999999999997"></path></g><g class="vf-notehead" pointer-events="bounding-box"><path stroke-width="0.3" fill="#000000" stroke="none" stroke-dasharray="none" d="M141.4784 293.09999999999997M148.83535999999998 287.87712C148.94768 287.87712,149.11615999999998 287.87712,149.14424 287.87712C149.14424 287.87712,149.17231999999998 287.87712,149.17231999999998 287.87712C149.17231999999998 287.87712,149.3408 287.87712,149.4812 287.87712C152.0084 288.01752,153.49663999999999 289.67423999999994,153.49663999999999 291.75215999999995C153.49663999999999 292.76304,153.15967999999998 293.91432,152.31727999999998 295.00944C150.71671999999998 297.17159999999996,148.10528 298.35096,145.83079999999998 298.35096C144.06176 298.35096,142.54543999999999 297.64896,141.81536 296.21687999999995C141.59072 295.65527999999995,141.4784 295.12175999999994,141.4784 294.53207999999995C141.4784 291.47135999999995,144.90416 288.07367999999997,148.83535999999998 287.87712"></path></g></g><g class="vf-modifiers"></g></g><rect stroke-width="0.3" fill="#000000" stroke="#000000" stroke-dasharray="none" x="304.34522239999995" y="166.5" width="1" height="132.59999999999997"></rect><rect stroke-width="0.3" fill="#000000" stroke="#000000" stroke-dasharray="none" x="70" y="166.5" width="1" height="132.59999999999997"></rect><path stroke-width="1" fill="none" stroke="#000000" stroke-dasharray="none" d="M304.34522239999995 258.09999999999997L456.71204479999994 258.09999999999997"></path><path stroke-width="1" fill="none" stroke="#000000" stroke-dasharray="none" d="M304.34522239999995 268.09999999999997L456.71204479999994 268.09999999999997"></path><path stroke-width="1" fill="none" stroke="#000000" stroke-dasharray="none" d="M304.34522239999995 278.09999999999997L456.71204479999994 278.09999999999997"></path><path stroke-width="1" fill="none" stroke="#000000" stroke-dasharray="none" d="M304.34522239999995 288.09999999999997L456.71204479999994 288.09999999999997"></path><path stroke-width="1" fill="none" stroke="#000000" stroke-dasharray="none" d="M304.34522239999995 298.09999999999997L456.71204479999994 298.09999999999997"></path><rect stroke-width="0.3" fill="#000000" stroke="#000000" stroke-dasharray="none" x="456.71204479999994" y="257.59999999999997" width="1" height="41"></rect><g class="vf-stavenote" id="vf-auto715201"><g class="vf-note" pointer-events="bounding-box"><g class="vf-stem" pointer-events="bounding-box"><path stroke-width="1.5" fill="none" stroke="#000000" stroke-dasharray="none" class="vf-stem" id="vf-auto715201-stem" d="M356.34522239999995 268.09999999999997L356.34522239999995 303.09999999999997"></path></g><g class="vf-notehead" pointer-events="bounding-box"><path stroke-width="0.3" fill="#000000" stroke="none" stroke-dasharray="none" d="M355.59522239999995 268.09999999999997M362.95218239999997 262.87712C363.0645024 262.87712,363.23298239999997 262.87712,363.26106239999996 262.87712C363.26106239999996 262.87712,363.28914239999995 262.87712,363.28914239999995 262.87712C363.28914239999995 262.87712,363.45762239999993 262.87712,363.59802239999993 262.87712C366.1252224 263.01752,367.61346239999995 264.67423999999994,367.61346239999995 266.75215999999995C367.61346239999995 267.76304,367.27650239999997 268.91432,366.4341024 270.00944C364.83354239999994 272.17159999999996,362.2221023999999 273.35096,359.94762239999994 273.35096C358.1785824 273.35096,356.6622624 272.64896,355.93218239999993 271.21687999999995C355.70754239999997 270.65527999999995,355.59522239999995 270.12175999999994,355.59522239999995 269.53207999999995C355.59522239999995 266.47135999999995,359.0209824 263.07367999999997,362.95218239999997 262.87712"></path></g></g><g class="vf-modifiers"></g></g><rect stroke-width="0.3" fill="#000000" stroke="#000000" stroke-dasharray="none" x="456.71204479999994" y="166.5" width="1" height="132.59999999999997"></rect><path stroke-width="1" fill="none" stroke="#000000" stroke-dasharray="none" d="M456.71204479999994 258.09999999999997L609.0788671999999 258.09999999999997"></path><path stroke-width="1" fill="none" stroke="#000000" stroke-dasharray="none" d="M456.71204479999994 268.09999999999997L609.0788671999999 268.09999999999997"></path><path stroke-width="1" fill="none" stroke="#000000" stroke-dasharray="none" d="M456.71204479999994 278.09999999999997L609.0788671999999 278.09999999999997"></path><path stroke-width="1" fill="none" stroke="#000000" stroke-dasharray="none" d="M456.71204479999994 288.09999999999997L609.0788671999999 288.09999999999997"></path><path stroke-width="1" fill="none" stroke="#000000" stroke-dasharray="none" d="M456.71204479999994 298.09999999999997L609.0788671999999 298.09999999999997"></path><rect stroke-width="0.3" fill="#000000" stroke="#000000" stroke-dasharray="none" x="609.0788671999999" y="257.59999999999997" width="1" height="41"></rect><g class="vf-stavenote" id="vf-auto715238"><g class="vf-note" pointer-events="bounding-box"><g class="vf-stem" pointer-events="bounding-box"><path stroke-width="1.5" fill="none" stroke="#000000" stroke-dasharray="none" class="vf-stem" id="vf-auto715238-stem" d="M542.9620448 273.09999999999997L542.9620448 308.09999999999997"></path></g><g class="vf-notehead" pointer-events="bounding-box"><path stroke-width="0.3" fill="#000000" stroke="none" stroke-dasharray="none" d="M542.2120448 273.09999999999997M549.5690047999999 267.87712C549.6813248 267.87712,549.8498047999999 267.87712,549.8778848 267.87712C549.8778848 267.87712,549.9059648 267.87712,549.9059648 267.87712C549.9059648 267.87712,550.0744447999999 267.87712,550.2148447999999 267.87712C552.7420447999999 268.01752,554.2302847999999 269.67423999999994,554.2302847999999 271.75215999999995C554.2302847999999 272.76304,553.8933248 273.91432,553.0509248 275.00944C551.4503648 277.17159999999996,548.8389248 278.35096,546.5644447999999 278.35096C544.7954047999999 278.35096,543.2790848 277.64896,542.5490047999999 276.21687999999995C542.3243647999999 275.65527999999995,542.2120448 275.12175999999994,542.2120448 274.53207999999995C542.2120448 271.47135999999995,545.6378047999999 268.07367999999997,549.5690047999999 267.87712"></path></g></g><g class="vf-modifiers"></g></g><rect stroke-width="0.3" fill="#000000" stroke="#000000" stroke-dasharray="none" x="609.0788671999999" y="166.5" width="1" height="132.59999999999997"></rect><path stroke-width="1" fill="none" stroke="#000000" stroke-dasharray="none" d="M609.0788671999999 258.09999999999997L763.0456895999998 258.09999999999997"></path><path stroke-width="1" fill="none" stroke="#000000" stroke-dasharray="none" d="M609.0788671999999 268.09999999999997L763.0456895999998 268.09999999999997"></path><path stroke-width="1" fill="none" stroke="#000000" stroke-dasharray="none" d="M609.0788671999999 278.09999999999997L763.0456895999998 278.09999999999997"></path><path stroke-width="1" fill="none" stroke="#000000" stroke-dasharray="none" d="M609.0788671999999 288.09999999999997L763.0456895999998 288.09999999999997"></path><path stroke-width="1" fill="none" stroke="#000000" stroke-dasharray="none" d="M609.0788671999999 298.09999999999997L763.0456895999998 298.09999999999997"></path><rect stroke-width="0.3" fill="#000000" stroke="#000000" stroke-dasharray="none" x="758.0456895999998" y="257.59999999999997" width="1" height="41"></rect><rect stroke-width="0.3" fill="#000000" stroke="#000000" stroke-dasharray="none" x="761.0456895999998" y="257.59999999999997" width="3" height="41"></rect><path stroke-width="0.3" fill="#000000" stroke="none" stroke-dasharray="none" d="M757.0456895999998 273.59999999999997 A2 2 0 0 0 753.0456895999998 273.59999999999997M753.0456895999998 273.59999999999997 A2 2 0 0 0 757.0456895999998 273.59999999999997"></path><path stroke-width="0.3" fill="#000000" stroke="none" stroke-dasharray="none" d="M757.0456895999998 283.59999999999997 A2 2 0 0 0 753.0456895999998 283.59999999999997M753.0456895999998 283.59999999999997 A2 2 0 0 0 757.0456895999998 283.59999999999997"></path><g class="vf-stavenote" id="vf-auto715260"><g class="vf-note" pointer-events="bounding-box"><g class="vf-stem" pointer-events="bounding-box"><path stroke-width="1.5" fill="none" stroke="#000000" stroke-dasharray="none" class="vf-stem" id="vf-auto715260-stem" d="M637.3471071999999 278.09999999999997L637.3471071999999 243.09999999999997"></path></g><g class="vf-notehead" pointer-events="bounding-box"><path stroke-width="0.3" fill="#000000" stroke="none" stroke-dasharray="none" d="M626.0788671999999 278.09999999999997M633.4358271999998 272.87712C633.5481471999999 272.87712,633.7166271999998 272.87712,633.7447071999999 272.87712C633.7447071999999 272.87712,633.7727871999999 272.87712,633.7727871999999 272.87712C633.7727871999999 272.87712,633.9412671999999 272.87712,634.0816671999999 272.87712C636.6088671999998 273.01752,638.0971071999999 274.67423999999994,638.0971071999999 276.75215999999995C638.0971071999999 277.76304,637.7601471999999 278.91432,636.9177471999999 280.00944C635.3171871999999 282.17159999999996,632.7057471999999 283.35096,630.4312671999999 283.35096C628.6622271999998 283.35096,627.1459071999999 282.64896,626.4158271999999 281.21687999999995C626.1911871999998 280.65527999999995,626.0788671999999 280.12175999999994,626.0788671999999 279.53207999999995C626.0788671999999 276.47135999999995,629.5046271999998 273.07367999999997,633.4358271999998 272.87712"></path></g></g><g class="vf-modifiers"></g></g><g class="vf-stavenote" id="vf-auto715268"><g class="vf-note" pointer-events="bounding-box"><g class="vf-stem" pointer-events="bounding-box"><path stroke-width="1.5" fill="none" stroke="#000000" stroke-dasharray="none" class="vf-stem" id="vf-auto715268-stem" d="M671.8471071999999 283.09999999999997L671.8471071999999 248.09999999999997"></path></g><g class="vf-notehead" pointer-events="bounding-box"><path stroke-width="0.3" fill="#000000" stroke="none" stroke-dasharray="none" d="M660.5788671999999 283.09999999999997M667.9358271999998 277.87712C668.0481471999999 277.87712,668.2166271999998 277.87712,668.2447071999999 277.87712C668.2447071999999 277.87712,668.2727871999999 277.87712,668.2727871999999 277.87712C668.2727871999999 277.87712,668.4412671999999 277.87712,668.5816671999999 277.87712C671.1088671999998 278.01752,672.5971071999999 279.67423999999994,672.5971071999999 281.75215999999995C672.5971071999999 282.76304,672.2601471999999 283.91432,671.4177471999999 285.00944C669.8171871999999 287.17159999999996,667.2057471999999 288.35096,664.9312671999999 288.35096C663.1622271999998 288.35096,661.6459071999999 287.64896,660.9158271999999 286.21687999999995C660.6911871999998 285.65527999999995,660.5788671999999 285.12175999999994,660.5788671999999 284.53207999999995C660.5788671999999 281.47135999999995,664.0046271999998 278.07367999999997,667.9358271999998 277.87712"></path></g></g><g class="vf-modifiers"></g></g><g class="vf-stavenote" id="vf-auto715276"><g class="vf-note" pointer-events="bounding-box"><g class="vf-stem" pointer-events="bounding-box"><path stroke-width="1.5" fill="none" stroke="#000000" stroke-dasharray="none" class="vf-stem" id="vf-auto715276-stem" d="M730.3288671999999 268.09999999999997L730.3288671999999 303.09999999999997"></path></g><g class="vf-notehead" pointer-events="bounding-box"><path stroke-width="0.3" fill="#000000" stroke="none" stroke-dasharray="none" d="M729.5788671999999 268.09999999999997M736.9358271999998 262.87712C737.0481471999999 262.87712,737.2166271999998 262.87712,737.2447071999999 262.87712C737.2447071999999 262.87712,737.2727871999999 262.87712,737.2727871999999 262.87712C737.2727871999999 262.87712,737.4412671999999 262.87712,737.5816671999999 262.87712C740.1088671999998 263.01752,741.5971071999999 264.67423999999994,741.5971071999999 266.75215999999995C741.5971071999999 267.76304,741.2601471999999 268.91432,740.4177471999999 270.00944C738.8171871999999 272.17159999999996,736.2057471999999 273.35096,733.9312671999999 273.35096C732.1622271999998 273.35096,730.6459071999999 272.64896,729.9158271999999 271.21687999999995C729.6911871999998 270.65527999999995,729.5788671999999 270.12175999999994,729.5788671999999 269.53207999999995C729.5788671999999 266.47135999999995,733.0046271999998 263.07367999999997,736.9358271999998 262.87712"></path></g></g><g class="vf-modifiers"></g></g><rect stroke-width="0.3" fill="#000000" stroke="#000000" stroke-dasharray="none" x="758.0456895999998" y="166.5" width="1" height="132.59999999999997"></rect><rect stroke-width="0.3" fill="#000000" stroke="#000000" stroke-dasharray="none" x="761.0456895999998" y="166.5" width="3" height="132.59999999999997"></rect><path stroke-width="0.3" fill="#000000" stroke="none" stroke-dasharray="none" d="M68 166.5C45.2 193.01999999999998,81.2 214.899,56 232.79999999999998C81.2 250.70099999999996,45.2 272.58,68 299.09999999999997C44 272.58,72.8 250.70099999999996,56 232.79999999999998C72.8 214.899,44 193.01999999999998,68 166.5"></path><path stroke-width="1" fill="none" stroke="#000000" stroke-dasharray="none" d="M68 166.5C45.2 193.01999999999998,81.2 214.899,56 232.79999999999998C81.2 250.70099999999996,45.2 272.58,68 299.09999999999997C44 272.58,72.8 250.70099999999996,56 232.79999999999998C72.8 214.899,44 193.01999999999998,68 166.5"></path><g class="vf-text"><text stroke-width="0.3" fill="#000000" stroke="none" stroke-dasharray="none" font-family="Times New Roman" font-size="15px" font-weight="normal" font-style="normal" x="453.21204479999994" y="163.5">3</text></g></svg>