<svg xmlns="http://www.w3.org/2000/svg"  width="1470" height="385.79999999999995" viewBox="0 0 1470 385.79999999999995"><path stroke-width="1" fill="none" stroke="#000000" stroke-dasharray="none" d="M70 166.5L304.34522239999995 166.5"></path><path stroke-width="1" fill="none" stroke="#000000" stroke-dasharray="none" d="M70 176.5L304.34522239999995 176.5"></path><path stroke-width="1" fill="none" stroke="#000000" stroke-dasharray="none" d="M70 186.5L304.34522239999995 186.5"></path><path stroke-width="1" fill="none" stroke="#000000" stroke-dasharray="none" d="M70 196.5L304.34522239999995 196.5"></path><path stroke-width="1" fill="none" stroke="#000000" stroke-dasharray="none" d="M70 206.5L304.34522239999995 206.5"></path><rect stroke-width="0.3" fill="#000000" stroke="#000000" stroke-dasharray="none" x="304.34522239999995" y="166" width="1" height="41"></rect><g class="vf-clef"><path stroke-width="0.3" fill="#000000" stroke="none" stroke-dasharray="none" d="M75 196.5M89.0544 153.3288C89.112 153.3,89.1696 153.3,89.256 153.3C89.6016 153.3,90.0048 153.588,90.5808 154.308C92.9136 156.9864,94.5552 161.652,94.5552 165.4536C94.5552 165.7416,94.4976 165.972,94.4976 166.26C94.2384 170.7816,92.3952 174.4968,88.7376 178.0104L87.7584 178.9608L87.4128 179.3352L87.4128 179.4504L87.6144 180.3144L87.9312 181.8696L88.248 183.3096C88.68 185.268,88.8528 186.276,88.8528 186.276C88.8528 186.276,88.8528 186.276,88.8528 186.276C88.8528 186.276,88.968 186.276,89.112 186.2472C89.256 186.2472,89.7168 186.1896,90.2064 186.1896C90.55199999999999 186.1896,90.8976 186.2472,91.0704 186.2472C95.1312 186.7656,98.2704 189.6744,99.1632 193.764C99.336 194.4264,99.39359999999999 195.1464,99.39359999999999 195.8664C99.39359999999999 199.7544,97.0608 203.4696,93.1728 205.2264C92.94239999999999 205.3704,92.856 205.3992,92.856 205.3992L92.856 205.428C92.856 205.428,93.0288 206.0904,93.1728 206.8392L93.6048 209.028L94.008 210.7848C94.2384 211.908,94.3536 212.7144,94.3536 213.4344C94.3536 214.06799999999998,94.2672 214.644,94.1232 215.3064C93.144 219.3096,89.6592 221.7,86.0304 221.7C84.2448 221.7,82.4016 221.124,80.7888 219.828C79.3488 218.6184,78.7152 217.524,78.7152 216.084C78.7152 213.5496,80.76 211.764,82.8912 211.764C83.64 211.764,84.3888 211.99439999999998,85.1088 212.4264C86.3184 213.2616,86.8656 214.5288,86.8656 215.7672C86.8656 217.668,85.5408 219.54,83.2656 219.684L83.0352 219.684L83.208 219.79919999999998C84.1584 220.2024,85.1088 220.404,86.0304 220.404C88.3632 220.404,90.55199999999999 219.2232,91.8768 217.1784C92.62559999999999 216.0264,93.0288 214.6728,93.0288 213.3192C93.0288 212.8008,92.94239999999999 212.2824,92.8272 211.7064C92.8272 211.6488,92.74080000000001 211.188,92.62559999999999 210.756C91.992 207.6456,91.6176 205.8312,91.6176 205.8312C91.6176 205.8312,91.6176 205.8312,91.6176 205.8312C91.56 205.8312,91.4448 205.8312,91.3584 205.8888C91.0704 205.9464,90.4656 206.0904,90.2064 206.1192C89.5728 206.2056,88.968 206.2344,88.392 206.2344C82.74719999999999 206.2344,77.5056 202.4328,75.6912 196.8168C75.2304 195.3192,74.9712 193.8216,74.9712 192.324C74.9712 189.3288,75.9216 186.3912,77.7648 183.7704C79.7808 180.9192,81.7968 178.4712,84.2736 175.9368L85.13759999999999 175.044L84.936 173.9784L84.5616 172.2216L84.072 169.9752C83.928 169.14,83.7552 168.3336,83.7264 168.1608C83.5824 167.2104,83.496 166.2888,83.496 165.3384C83.496 161.7096,84.6768 158.22480000000002,86.8944 155.4312C87.5568 154.5672,88.7376 153.4152,89.0544 153.3288M90.8112 159.0312C90.7536 159.0312,90.6672 159.0312,90.5808 159.0312C89.4 159.0312,87.8736 160.1256,86.8368 161.7384C85.7712 163.32240000000002,85.224 165.4248,85.224 167.5848C85.224 168.1608,85.25280000000001 168.7656,85.3392 169.3704C85.4256 169.8024,85.45439999999999 170.0904,85.6848 171.12720000000002L86.088 172.9416C86.2032 173.4888,86.28960000000001 173.92079999999999,86.28960000000001 173.9784L86.28960000000001 173.9784C86.3184 173.9784,87.2112 172.9992,87.4992 172.6536C90.3792 169.3992,92.1072 165.972,92.4816 162.948C92.5104 162.66,92.5104 162.4296,92.5104 162.1416C92.5104 161.24880000000002,92.3952 160.38479999999998,92.1936 159.924C91.9632 159.4632,91.4448 159.0888,90.8112 159.0312M86.4624 181.2936C86.4048 180.8904,86.3184 180.5736,86.3184 180.516C86.3184 180.516,86.3184 180.516,86.28960000000001 180.516C86.232 180.516,84.9936 181.956,84.1296 182.964C82.6608 184.7496,81.1056 186.8808,80.472 187.9176C79.2624 189.9624,78.6576 192.2376,78.6576 194.484C78.6576 195.9528,78.9456 197.364,79.464 198.7176C81.0192 202.7208,84.5904 205.2264,88.4784 205.2264C88.9392 205.2264,89.4576 205.1976,89.9472 205.1112C90.5808 204.996,91.3584 204.7656,91.3584 204.6792L91.3584 204.6792C91.3584 204.6792,91.3008 204.3912,91.2144 204.0744L90.3792 199.956L89.7168 196.8744L89.2848 194.7432L88.824 192.6696C88.5936 191.4312,88.5072 191.1144,88.5072 191.1144C88.5072 191.1144,88.5072 191.0856,88.4784 191.0856C88.3056 191.0856,87.384 191.5464,86.9808 191.8344C85.4832 192.8712,84.7056 194.5128,84.7056 196.1256C84.7056 197.652,85.45439999999999 199.1784,86.8944 200.0712C87.2112 200.2728,87.3264 200.4456,87.3264 200.6472C87.3264 200.676,87.3264 200.7624,87.3264 200.7912C87.2688 201.1368,87.0672 201.2808,86.7792 201.2808C86.664 201.2808,86.52 201.252,86.3472 201.1656C83.6976 200.0136,81.912 197.2776,81.912 194.2824L81.912 194.2824C81.912 190.8264,84.072 187.8312,87.384 186.6504L87.5568 186.5928L87.2688 185.1528L86.4624 181.2936M90.7824 190.9128C90.55199999999999 190.88400000000001,90.3216 190.88400000000001,90.1488 190.88400000000001C90.0912 190.88400000000001,90.0048 190.88400000000001,89.9472 190.88400000000001L89.8032 190.88400000000001L89.9184 191.4024L90.5232 194.2248L90.8976 196.068L91.3008 197.8824L92.1072 201.8856L92.424 203.412C92.5392 203.8152,92.5968 204.1608,92.62559999999999 204.1608C92.62559999999999 204.1608,92.62559999999999 204.1608,92.62559999999999 204.1608C92.6544 204.1608,93.144 203.8728,93.4608 203.6424C94.9296 202.6056,96.024 200.9928,96.4272 199.3224C96.5712 198.7752,96.6288 198.1992,96.6288 197.652C96.6288 194.3112,94.152 191.2872,90.7824 190.9128"></path></g><path stroke-width="0.3" fill="#000000" stroke="none" stroke-dasharray="none" d="M116 186.5M121.0112 168.1544C121.04 168.1256,121.4432 168.1256,122.6816 168.1256C123.056 168.1256,123.4592 168.1256,123.9776 168.1256L126.8864 168.1256L126.9728 168.212C127.1168 168.29840000000002,127.2032 168.4424,127.2032 168.5576C127.2032 168.7304,127.1168 168.8456,127.0016 168.9608C126.9728 169.0472,126.7136 169.2776,126.5408 169.5368L125.0144 171.2936L123.056 173.5112L122.0192 174.692L120.464 176.4776L118.4192 178.8104C118.0736 179.2424,117.6992 179.588,117.6992 179.588C117.6992 179.588,117.6992 179.588,117.6992 179.588C117.6992 179.6456,117.9584 179.6456,120.3488 179.6456L122.9696 179.6456L122.9696 177.7736C122.9696 175.8728,122.9696 175.844,122.9984 175.8152C123.056 175.7288,123.3152 175.412,124.3232 174.2312L124.7264 173.7992L125.1296 173.3672L125.7344 172.5896L126.368 171.9272L126.6848 171.524C126.8 171.3512,126.9728 171.3224,127.1168 171.3224C127.28960000000001 171.3224,127.4336 171.4088,127.52 171.5528C127.5488 171.6392,127.5488 171.6968,127.5488 173.828C127.5488 174.3176,127.5488 174.9224,127.5488 175.6424L127.5488 179.6456L128.2688 179.6456C128.9312 179.6456,128.96 179.6456,129.0464 179.6744C129.2768 179.7608,129.392 179.9912,129.392 180.2504C129.392 180.3944,129.3632 180.5672,129.248 180.6824C129.0752 180.8264,129.0464 180.8264,128.2688 180.8264L127.5488 180.8264L127.5488 181.316C127.5776 182.7848,127.8656 183.3608,128.9888 183.9656C129.392 184.1672,129.4784 184.2248,129.4784 184.5128C129.4784 184.7144,129.42079999999999 184.8008,129.2768 184.916L129.1904 184.9448L125.2448 184.9448L121.328 184.9448L121.2416 184.916C121.0688 184.8008,121.04 184.7144,121.04 184.5128C121.04 184.2248,121.0688 184.1672,121.5008 183.9656C122.624 183.3608,122.912 182.7848,122.912 181.316L122.912 180.8264L119.6 180.8264C118.9952 180.88400000000001,118.5056 180.88400000000001,118.1024 180.88400000000001C116.288 180.88400000000001,116.2592 180.8264,116.2304 180.8264C116.0576 180.7688,116 180.596,116 180.3944C116 180.3944,116 180.3944,116 180.3944C116 180.1928,116 180.1928,116.576 179.5304C118.9952 176.5928,120.6944 172.3304,120.6944 168.93200000000002C120.6944 168.4136,120.7808 168.2408,121.0112 168.1544M122.7392 186.5288L122.768 186.5288L122.6816 186.5288L122.7392 186.5288M122.7392 167.1176L122.768 167.1176L122.6816 167.1176L122.7392 167.1176"></path><path stroke-width="0.3" fill="#000000" stroke="none" stroke-dasharray="none" d="M116 206.5M121.0112 188.1544C121.04 188.1256,121.4432 188.1256,122.6816 188.1256C123.056 188.1256,123.4592 188.1256,123.9776 188.1256L126.8864 188.1256L126.9728 188.212C127.1168 188.29840000000002,127.2032 188.4424,127.2032 188.5576C127.2032 188.7304,127.1168 188.8456,127.0016 188.9608C126.9728 189.0472,126.7136 189.2776,126.5408 189.5368L125.0144 191.2936L123.056 193.5112L122.0192 194.692L120.464 196.4776L118.4192 198.8104C118.0736 199.2424,117.6992 199.588,117.6992 199.588C117.6992 199.588,117.6992 199.588,117.6992 199.588C117.6992 199.6456,117.9584 199.6456,120.3488 199.6456L122.9696 199.6456L122.9696 197.7736C122.9696 195.8728,122.9696 195.844,122.9984 195.8152C123.056 195.7288,123.3152 195.412,124.3232 194.2312L124.7264 193.7992L125.1296 193.3672L125.7344 192.5896L126.368 191.9272L126.6848 191.524C126.8 191.3512,126.9728 191.3224,127.1168 191.3224C127.28960000000001 191.3224,127.4336 191.4088,127.52 191.5528C127.5488 191.6392,127.5488 191.6968,127.5488 193.828C127.5488 194.3176,127.5488 194.9224,127.5488 195.6424L127.5488 199.6456L128.2688 199.6456C128.9312 199.6456,128.96 199.6456,129.0464 199.6744C129.2768 199.7608,129.392 199.9912,129.392 200.2504C129.392 200.3944,129.3632 200.5672,129.248 200.6824C129.0752 200.8264,129.0464 200.8264,128.2688 200.8264L127.5488 200.8264L127.5488 201.316C127.5776 202.7848,127.8656 203.3608,128.9888 203.9656C129.392 204.1672,129.4784 204.2248,129.4784 204.5128C129.4784 204.7144,129.42079999999999 204.8008,129.2768 204.916L129.1904 204.9448L125.2448 204.9448L121.328 204.9448L121.2416 204.916C121.0688 204.8008,121.04 204.7144,121.04 204.5128C121.04 204.2248,121.0688 204.1672,121.5008 203.9656C122.624 203.3608,122.912 202.7848,122.912 201.316L122.912 200.8264L119.6 200.8264C118.9952 200.88400000000001,118.5056 200.88400000000001,118.1024 200.88400000000001C116.288 200.88400000000001,116.2592 200.8264,116.2304 200.8264C116.0576 200.7688,116 200.596,116 200.3944C116 200.3944,116 200.3944,116 200.3944C116 200.1928,116 200.1928,116.576 199.5304C118.9952 196.5928,120.6944 192.3304,120.6944 188.93200000000002C120.6944 188.4136,120.7808 188.2408,121.0112 188.1544M122.7392 206.5288L122.768 206.5288L122.6816 206.5288L122.7392 206.5288M122.7392 187.1176L122.768 187.1176L122.6816 187.1176L122.7392 187.1176"></path><g class="vf-stavenote" id="vf-auto4578187"><g class="vf-note" pointer-events="bounding-box"><g class="vf-stem" pointer-events="bounding-box"><path stroke-width="1.5" fill="none" stroke="#000000" stroke-dasharray="none" class="vf-stem" id="vf-auto4578187-stem" d="M193.87704 191.5L193.87704 156.5"></path></g><g class="vf-notehead" pointer-events="bounding-box"><path stroke-width="0.3" fill="#000000" stroke="none" stroke-dasharray="none" d="M182.6088 191.5M189.96576 186.27712C190.07808 186.27712,190.24656 186.27712,190.27464 186.27712C190.27464 186.27712,190.30272 186.27712,190.30272 186.27712C190.30272 186.27712,190.4712 186.27712,190.6116 186.27712C193.1388 186.41752,194.62704 188.07424,194.62704 190.15216C194.62704 191.16304,194.29008 192.31432,193.44768 193.40944C191.84712 195.5716,189.23568 196.75096,186.9612 196.75096C185.19216 196.75096,183.67584 196.04896,182.94576 194.61688C182.72112 194.05528,182.6088 193.52176,182.6088 192.93208C182.6088 189.87136,186.03456 186.47368,189.96576 186.27712"></path></g></g><g class="vf-modifiers"></g></g><g class="vf-stavenote" id="vf-auto4578195"><g class="vf-note" pointer-events="bounding-box"><g class="vf-stem" pointer-events="bounding-box"><path stroke-width="1.5" fill="none" stroke="#000000" stroke-dasharray="none" class="vf-stem" id="vf-auto4578195-stem" d="M235.00743999999997 206.5L235.00743999999997 171.5"></path></g><g class="vf-notehead" pointer-events="bounding-box"><path stroke-width="0.3" fill="#000000" stroke="none" stroke-dasharray="none" d="M223.73919999999998 206.5M231.09615999999997 201.27712C231.20847999999998 201.27712,231.37696 201.27712,231.40503999999999 201.27712C231.40503999999999 201.27712,231.43311999999997 201.27712,231.43311999999997 201.27712C231.43311999999997 201.27712,231.6016 201.27712,231.742 201.27712C234.26919999999998 201.41752,235.75743999999997 203.07424,235.75743999999997 205.15216C235.75743999999997 206.16304,235.42048 207.31432,234.57807999999997 208.40944C232.97751999999997 210.5716,230.36607999999998 211.75096,228.09159999999997 211.75096C226.32255999999998 211.75096,224.80623999999997 211.04896,224.07616 209.61688C223.85152 209.05528,223.73919999999998 208.52176,223.73919999999998 207.93208C223.73919999999998 204.87136,227.16495999999998 201.47368,231.09615999999997 201.27712"></path></g></g><g class="vf-modifiers"></g></g><g class="vf-stavenote" id="vf-auto4578203"><g class="vf-note" pointer-events="bounding-box"><g class="vf-stem" pointer-events="bounding-box"><path stroke-width="1.5" fill="none" stroke="#000000" stroke-dasharray="none" class="vf-stem" id="vf-auto4578203-stem" d="M265.6196 186.5L265.6196 221.5"></path></g><g class="vf-notehead" pointer-events="bounding-box"><path stroke-width="0.3" fill="#000000" stroke="none" stroke-dasharray="none" d="M264.8696 186.5M272.22656 181.27712C272.33888 181.27712,272.50736 181.27712,272.53544 181.27712C272.53544 181.27712,272.56352 181.27712,272.56352 181.27712C272.56352 181.27712,272.73199999999997 181.27712,272.87239999999997 181.27712C275.39959999999996 181.41752,276.88784 183.07424,276.88784 185.15216C276.88784 186.16304,276.55088 187.31432,275.70848 188.40944C274.10792 190.5716,271.49648 191.75096,269.222 191.75096C267.45296 191.75096,265.93664 191.04896,265.20655999999997 189.61688C264.98192 189.05528,264.8696 188.52176,264.8696 187.93208C264.8696 184.87136,268.29536 181.47368,272.22656 181.27712"></path></g></g><g class="vf-modifiers"></g></g><path stroke-width="1" fill="none" stroke="#000000" stroke-dasharray="none" d="M304.34522239999995 166.5L456.71204479999994 166.5"></path><path stroke-width="1" fill="none" stroke="#000000" stroke-dasharray="none" d="M304.34522239999995 176.5L456.71204479999994 176.5"></path><path stroke-width="1" fill="none" stroke="#000000" stroke-dasharray="none" d="M304.34522239999995 186.5L456.71204479999994 186.5"></path><path stroke-width="1" fill="none" stroke="#000000" stroke-dasharray="none" d="M304.34522239999995 196.5L456.71204479999994 196.5"></path><path stroke-width="1" fill="none" stroke="#000000" stroke-dasharray="none" d="M304.34522239999995 206.5L456.71204479999994 206.5"></path><rect stroke-width="0.3" fill="#000000" stroke="#000000" stroke-dasharray="none" x="456.71204479999994" y="166" width="1" height="41"></rect><g class="vf-stavenote" id="vf-auto4578224"><g class="vf-note" pointer-events="bounding-box"><g class="vf-stem" pointer-events="bounding-box"><path stroke-width="1.5" fill="none" stroke="#000000" stroke-dasharray="none" class="vf-stem" id="vf-auto4578224-stem" d="M366.86346239999995 201.5L366.86346239999995 166.5"></path></g><g class="vf-notehead" pointer-events="bounding-box"><path stroke-width="0.3" fill="#000000" stroke="none" stroke-dasharray="none" d="M355.59522239999995 201.5M362.95218239999997 196.27712C363.0645024 196.27712,363.23298239999997 196.27712,363.26106239999996 196.27712C363.26106239999996 196.27712,363.28914239999995 196.27712,363.28914239999995 196.27712C363.28914239999995 196.27712,363.45762239999993 196.27712,363.59802239999993 196.27712C366.1252224 196.41752,367.61346239999995 198.07424,367.61346239999995 200.15216C367.61346239999995 201.16304,367.27650239999997 202.31432,366.4341024 203.40944C364.83354239999994 205.5716,362.2221023999999 206.75096,359.94762239999994 206.75096C358.1785824 206.75096,356.6622624 206.04896,355.93218239999993 204.61688C355.70754239999997 204.05528,355.59522239999995 203.52176,355.59522239999995 202.93208C355.59522239999995 199.87136,359.0209824 196.47368,362.95218239999997 196.27712"></path></g></g><g class="vf-modifiers"></g></g><g class="vf-stavenote" id="vf-auto4578232"><g class="vf-note" pointer-events="bounding-box"><g class="vf-stem" pointer-events="bounding-box"><path stroke-width="1.5" fill="none" stroke="#000000" stroke-dasharray="none" class="vf-stem" id="vf-auto4578232-stem" d="M390.59522239999995 186.5L390.59522239999995 221.5"></path></g><g class="vf-notehead" pointer-events="bounding-box"><path stroke-width="0.3" fill="#000000" stroke="none" stroke-dasharray="none" d="M389.84522239999995 186.5M397.20218239999997 181.27712C397.3145024 181.27712,397.48298239999997 181.27712,397.51106239999996 181.27712C397.51106239999996 181.27712,397.53914239999995 181.27712,397.53914239999995 181.27712C397.53914239999995 181.27712,397.70762239999993 181.27712,397.84802239999993 181.27712C400.3752224 181.41752,401.86346239999995 183.07424,401.86346239999995 185.15216C401.86346239999995 186.16304,401.52650239999997 187.31432,400.6841024 188.40944C399.08354239999994 190.5716,396.4721023999999 191.75096,394.19762239999994 191.75096C392.4285824 191.75096,390.9122624 191.04896,390.18218239999993 189.61688C389.95754239999997 189.05528,389.84522239999995 188.52176,389.84522239999995 187.93208C389.84522239999995 184.87136,393.2709824 181.47368,397.20218239999997 181.27712"></path></g></g><g class="vf-modifiers"></g></g><path stroke-width="1" fill="none" stroke="#000000" stroke-dasharray="none" d="M421.09522239999995 216.5L439.11346239999995 216.5"></path><g class="vf-stavenote" id="vf-auto4578240"><g class="vf-note" pointer-events="bounding-box"><g class="vf-stem" pointer-events="bounding-box"><path stroke-width="1.5" fill="none" stroke="#000000" stroke-dasharray="none" class="vf-stem" id="vf-auto4578240-stem" d="M435.36346239999995 221.5L435.36346239999995 186.5"></path></g><g class="vf-notehead" pointer-events="bounding-box"><path stroke-width="0.3" fill="#000000" stroke="none" stroke-dasharray="none" d="M424.09522239999995 221.5M431.45218239999997 216.27712C431.5645024 216.27712,431.73298239999997 216.27712,431.76106239999996 216.27712C431.76106239999996 216.27712,431.78914239999995 216.27712,431.78914239999995 216.27712C431.78914239999995 216.27712,431.95762239999993 216.27712,432.09802239999993 216.27712C434.6252224 216.41752,436.11346239999995 218.07424,436.11346239999995 220.15216C436.11346239999995 221.16304,435.77650239999997 222.31432,434.9341024 223.40944C433.33354239999994 225.5716,430.7221023999999 226.75096,428.44762239999994 226.75096C426.6785824 226.75096,425.1622624 226.04896,424.43218239999993 224.61688C424.20754239999997 224.05528,424.09522239999995 223.52176,424.09522239999995 222.93208C424.09522239999995 219.87136,427.5209824 216.47368,431.45218239999997 216.27712"></path></g></g><g class="vf-modifiers"></g></g><path stroke-width="1" fill="none" stroke="#000000" stroke-dasharray="none" d="M456.71204479999994 166.5L604.8788671999998 166.5"></path><path stroke-width="1" fill="none" stroke="#000000" stroke-dasharray="none" d="M456.71204479999994 176.5L604.8788671999998 176.5"></path><path stroke-width="1" fill="none" stroke="#000000" stroke-dasharray="none" d="M456.71204479999994 186.5L604.8788671999998 186.5"></path><path stroke-width="1" fill="none" stroke="#000000" stroke-dasharray="none" d="M456.71204479999994 196.5L604.8788671999998 196.5"></path><path stroke-width="1" fill="none" stroke="#000000" stroke-dasharray="none" d="M456.71204479999994 206.5L604.8788671999998 206.5"></path><rect stroke-width="0.3" fill="#000000" stroke="#000000" stroke-dasharray="none" x="604.8788671999998" y="166" width="1" height="41"></rect><g class="vf-stavenote" id="vf-auto4578261"><g class="vf-note" pointer-events="bounding-box"><g class="vf-stem" pointer-events="bounding-box"><path stroke-width="1.5" fill="none" stroke="#000000" stroke-dasharray="none" class="vf-stem" id="vf-auto4578261-stem" d="M484.98028479999994 191.5L484.98028479999994 156.5"></path></g><g class="vf-notehead" pointer-events="bounding-box"><path stroke-width="0.3" fill="#000000" stroke="none" stroke-dasharray="none" d="M473.71204479999994 191.5M481.06900479999996 186.27712C481.18132479999997 186.27712,481.34980479999996 186.27712,481.37788479999995 186.27712C481.37788479999995 186.27712,481.40596479999994 186.27712,481.40596479999994 186.27712C481.40596479999994 186.27712,481.5744447999999 186.27712,481.7148447999999 186.27712C484.2420447999999 186.41752,485.73028479999994 188.07424,485.73028479999994 190.15216C485.73028479999994 191.16304,485.39332479999996 192.31432,484.55092479999996 193.40944C482.95036479999993 195.5716,480.3389248 196.75096,478.06444479999993 196.75096C476.2954048 196.75096,474.77908479999996 196.04896,474.0490047999999 194.61688C473.82436479999996 194.05528,473.71204479999994 193.52176,473.71204479999994 192.93208C473.71204479999994 189.87136,477.13780479999997 186.47368,481.06900479999996 186.27712"></path></g></g><g class="vf-modifiers"></g></g><g class="vf-stavenote" id="vf-auto4578269"><g class="vf-note" pointer-events="bounding-box"><g class="vf-stem" pointer-events="bounding-box"><path stroke-width="1.5" fill="none" stroke="#000000" stroke-dasharray="none" class="vf-stem" id="vf-auto4578269-stem" d="M574.2120448 186.5L574.2120448 221.5"></path></g><g class="vf-notehead" pointer-events="bounding-box"><path stroke-width="0.3" fill="#000000" stroke="none" stroke-dasharray="none" d="M573.4620448 186.5M580.8190047999999 181.27712C580.9313248 181.27712,581.0998047999999 181.27712,581.1278848 181.27712C581.1278848 181.27712,581.1559648 181.27712,581.1559648 181.27712C581.1559648 181.27712,581.3244447999999 181.27712,581.4648447999999 181.27712C583.9920447999999 181.41752,585.4802847999999 183.07424,585.4802847999999 185.15216C585.4802847999999 186.16304,585.1433248 187.31432,584.3009248 188.40944C582.7003648 190.5716,580.0889248 191.75096,577.8144447999999 191.75096C576.0454047999999 191.75096,574.5290848 191.04896,573.7990047999999 189.61688C573.5743647999999 189.05528,573.4620448 188.52176,573.4620448 187.93208C573.4620448 184.87136,576.8878047999999 181.47368,580.8190047999999 181.27712"></path></g></g><g class="vf-modifiers"></g></g><path stroke-width="1" fill="none" stroke="#000000" stroke-dasharray="none" d="M604.8788672 166.5L758.8456895999999 166.5"></path><path stroke-width="1" fill="none" stroke="#000000" stroke-dasharray="none" d="M604.8788672 176.5L758.8456895999999 176.5"></path><path stroke-width="1" fill="none" stroke="#000000" stroke-dasharray="none" d="M604.8788672 186.5L758.8456895999999 186.5"></path><path stroke-width="1" fill="none" stroke="#000000" stroke-dasharray="none" d="M604.8788672 196.5L758.8456895999999 196.5"></path><path stroke-width="1" fill="none" stroke="#000000" stroke-dasharray="none" d="M604.8788672 206.5L758.8456895999999 206.5"></path><rect stroke-width="0.3" fill="#000000" stroke="#000000" stroke-dasharray="none" x="753.8456895999999" y="166" width="1" height="41"></rect><rect stroke-width="0.3" fill="#000000" stroke="#000000" stroke-dasharray="none" x="756.8456895999999" y="166" width="3" height="41"></rect><path stroke-width="0.3" fill="#000000" stroke="none" stroke-dasharray="none" d="M752.8456895999999 182 A2 2 0 0 0 748.8456895999999 182M748.8456895999999 182 A2 2 0 0 0 752.8456895999999 182"></path><path stroke-width="0.3" fill="#000000" stroke="none" stroke-dasharray="none" d="M752.8456895999999 192 A2 2 0 0 0 748.8456895999999 192M748.8456895999999 192 A2 2 0 0 0 752.8456895999999 192"></path><g class="vf-stavenote" id="vf-auto4578298"><g class="vf-note" pointer-events="bounding-box"><g class="vf-stem" pointer-events="bounding-box"><path stroke-width="1.5" fill="none" stroke="#000000" stroke-dasharray="none" class="vf-stem" id="vf-auto4578298-stem" d="M736.6471071999999 206.5L736.6471071999999 171.5"></path></g><g class="vf-notehead" pointer-events="bounding-box"><path stroke-width="0.3" fill="#000000" stroke="none" stroke-dasharray="none" d="M725.3788672 206.5M732.7358271999999 201.27712C732.8481472 201.27712,733.0166271999999 201.27712,733.0447072 201.27712C733.0447072 201.27712,733.0727872 201.27712,733.0727872 201.27712C733.0727872 201.27712,733.2412671999999 201.27712,733.3816671999999 201.27712C735.9088671999999 201.41752,737.3971071999999 203.07424,737.3971071999999 205.15216C737.3971071999999 206.16304,737.0601472 207.31432,736.2177472 208.40944C734.6171872 210.5716,732.0057472 211.75096,729.7312671999999 211.75096C727.9622271999999 211.75096,726.4459072 211.04896,725.7158271999999 209.61688C725.4911871999999 209.05528,725.3788672 208.52176,725.3788672 207.93208C725.3788672 204.87136,728.8046271999999 201.47368,732.7358271999999 201.27712"></path></g></g><g class="vf-modifiers"></g></g><g class="vf-text"><text stroke-width="0.3" fill="#000000" stroke="none" stroke-dasharray="none" font-family="Times New Roman" font-size="23px" font-weight="bold" font-style="italic" x="167.4784" y="240.5">f</text></g><path stroke-width="1" fill="none" stroke="#000000" stroke-dasharray="none" d="M70 264.3L304.34522239999995 264.3"></path><path stroke-width="1" fill="none" stroke="#000000" stroke-dasharray="none" d="M70 274.3L304.34522239999995 274.3"></path><path stroke-width="1" fill="none" stroke="#000000" stroke-dasharray="none" d="M70 284.3L304.34522239999995 284.3"></path><path stroke-width="1" fill="none" stroke="#000000" stroke-dasharray="none" d="M70 294.3L304.34522239999995 294.3"></path><path stroke-width="1" fill="none" stroke="#000000" stroke-dasharray="none" d="M70 304.3L304.34522239999995 304.3"></path><rect stroke-width="0.3" fill="#000000" stroke="#000000" stroke-dasharray="none" x="304.34522239999995" y="263.8" width="1" height="41"></rect><g class="vf-clef"><path stroke-width="0.3" fill="#000000" stroke="none" stroke-dasharray="none" d="M75 274.3M83.8416 264.2488C84.072 264.19120000000004,84.3024 264.19120000000004,84.5616 264.19120000000004C85.5696 264.19120000000004,86.7504 264.3064,87.7584 264.50800000000004C92.4816 265.48720000000003,95.736 268.684,96.3408 272.94640000000004C96.3984 273.4072,96.4272 273.8392,96.4272 274.3C96.4272 276.892,95.5344 280.2328,94.008 283.0264C90.3792 289.5928,83.7552 294.31600000000003,75.8064 296.044C75.6624 296.044,75.5472 296.07280000000003,75.4032 296.07280000000003C75.1152 296.07280000000003,74.9712 295.90000000000003,74.9712 295.6408C74.9712 295.3528,75.0288 295.26640000000003,75.6048 295.036C84.7056 291.60880000000003,90.7824 284.2072,91.3296 275.9128C91.3584 275.4808,91.3584 274.9912,91.3584 274.6168C91.3584 270.58480000000003,90.12 267.5896,87.7296 266.092C86.6928 265.4296,85.5696 265.1128,84.36 265.1128C81.6816 265.1128,78.9456 266.6392,77.6784 269.2024C77.6208 269.404,77.4192 269.836,77.4192 269.8648C77.4192 269.8648,77.4192 269.8648,77.4192 269.8648C77.4192 269.8648,77.448 269.836,77.5344 269.8072C78.168 269.404,78.8592 269.2024,79.5792 269.2024C80.5872 269.2024,81.6528 269.6344,82.4016 270.4408C83.0928 271.1896,83.4672 272.1976,83.4672 273.11920000000003C83.4672 274.9912,82.0848 276.892,79.9248 277.09360000000004C79.7808 277.09360000000004,79.6368 277.1224,79.4928 277.1224C77.1024 277.1224,75.1728 274.9336,75.1728 272.16880000000003C75.1728 272.1112,75.1728 272.0248,75.1728 271.99600000000004C75.288 267.87760000000003,79.0608 264.50800000000004,83.8416 264.2488M99.1632 268.108C99.2208 268.0792,99.2496 268.0792,99.336 268.0792C99.5376 268.0792,99.768 268.108,99.8256 268.16560000000004C100.54560000000001 268.3672,100.8912 269.0008,100.8912 269.60560000000004C100.8912 270.124,100.632 270.6424,100.11359999999999 270.9304C99.912 271.0744,99.6528 271.1032,99.39359999999999 271.1032C98.9904 271.1032,98.5584 270.9304,98.2704 270.55600000000004C98.03999999999999 270.26800000000003,97.9248 269.95120000000003,97.9248 269.6344C97.9248 268.9144,98.3856 268.19440000000003,99.1632 268.108M99.1632 277.5256C99.2208 277.5256,99.2496 277.5256,99.336 277.5256C99.5376 277.5256,99.768 277.5544,99.8256 277.612C100.54560000000001 277.8136,100.8912 278.4472,100.8912 279.052C100.8912 279.5704,100.632 280.0888,100.11359999999999 280.348C99.912 280.492,99.6528 280.5496,99.39359999999999 280.5496C98.9904 280.5496,98.5584 280.348,98.2704 280.0024C98.03999999999999 279.7144,97.9248 279.3976,97.9248 279.052C97.9248 278.332,98.3856 277.6408,99.1632 277.5256"></path></g><path stroke-width="0.3" fill="#000000" stroke="none" stroke-dasharray="none" d="M116 284.3M121.0112 265.9544C121.04 265.92560000000003,121.4432 265.92560000000003,122.6816 265.92560000000003C123.056 265.92560000000003,123.4592 265.92560000000003,123.9776 265.92560000000003L126.8864 265.92560000000003L126.9728 266.012C127.1168 266.0984,127.2032 266.24240000000003,127.2032 266.3576C127.2032 266.5304,127.1168 266.6456,127.0016 266.7608C126.9728 266.8472,126.7136 267.0776,126.5408 267.33680000000004L125.0144 269.09360000000004L123.056 271.3112L122.0192 272.492L120.464 274.2776L118.4192 276.6104C118.0736 277.0424,117.6992 277.38800000000003,117.6992 277.38800000000003C117.6992 277.38800000000003,117.6992 277.38800000000003,117.6992 277.38800000000003C117.6992 277.4456,117.9584 277.4456,120.3488 277.4456L122.9696 277.4456L122.9696 275.5736C122.9696 273.6728,122.9696 273.644,122.9984 273.6152C123.056 273.5288,123.3152 273.212,124.3232 272.0312L124.7264 271.5992L125.1296 271.16720000000004L125.7344 270.38960000000003L126.368 269.72720000000004L126.6848 269.324C126.8 269.1512,126.9728 269.1224,127.1168 269.1224C127.28960000000001 269.1224,127.4336 269.2088,127.52 269.3528C127.5488 269.4392,127.5488 269.4968,127.5488 271.628C127.5488 272.11760000000004,127.5488 272.7224,127.5488 273.4424L127.5488 277.4456L128.2688 277.4456C128.9312 277.4456,128.96 277.4456,129.0464 277.4744C129.2768 277.56080000000003,129.392 277.7912,129.392 278.0504C129.392 278.19440000000003,129.3632 278.3672,129.248 278.4824C129.0752 278.6264,129.0464 278.6264,128.2688 278.6264L127.5488 278.6264L127.5488 279.116C127.5776 280.58480000000003,127.8656 281.1608,128.9888 281.7656C129.392 281.9672,129.4784 282.0248,129.4784 282.31280000000004C129.4784 282.5144,129.42079999999999 282.6008,129.2768 282.716L129.1904 282.7448L125.2448 282.7448L121.328 282.7448L121.2416 282.716C121.0688 282.6008,121.04 282.5144,121.04 282.31280000000004C121.04 282.0248,121.0688 281.9672,121.5008 281.7656C122.624 281.1608,122.912 280.58480000000003,122.912 279.116L122.912 278.6264L119.6 278.6264C118.9952 278.684,118.5056 278.684,118.1024 278.684C116.288 278.684,116.2592 278.6264,116.2304 278.6264C116.0576 278.5688,116 278.396,116 278.19440000000003C116 278.19440000000003,116 278.19440000000003,116 278.19440000000003C116 277.9928,116 277.9928,116.576 277.3304C118.9952 274.3928,120.6944 270.1304,120.6944 266.732C120.6944 266.2136,120.7808 266.0408,121.0112 265.9544M122.7392 284.3288L122.768 284.3288L122.6816 284.3288L122.7392 284.3288M122.7392 264.9176L122.768 264.9176L122.6816 264.9176L122.7392 264.9176"></path><path stroke-width="0.3" fill="#000000" stroke="none" stroke-dasharray="none" d="M116 304.3M121.0112 285.9544C121.04 285.92560000000003,121.4432 285.92560000000003,122.6816 285.92560000000003C123.056 285.92560000000003,123.4592 285.92560000000003,123.9776 285.92560000000003L126.8864 285.92560000000003L126.9728 286.012C127.1168 286.0984,127.2032 286.24240000000003,127.2032 286.3576C127.2032 286.5304,127.1168 286.6456,127.0016 286.7608C126.9728 286.8472,126.7136 287.0776,126.5408 287.33680000000004L125.0144 289.09360000000004L123.056 291.3112L122.0192 292.492L120.464 294.2776L118.4192 296.6104C118.0736 297.0424,117.6992 297.38800000000003,117.6992 297.38800000000003C117.6992 297.38800000000003,117.6992 297.38800000000003,117.6992 297.38800000000003C117.6992 297.4456,117.9584 297.4456,120.3488 297.4456L122.9696 297.4456L122.9696 295.5736C122.9696 293.6728,122.9696 293.644,122.9984 293.6152C123.056 293.5288,123.3152 293.212,124.3232 292.0312L124.7264 291.5992L125.1296 291.16720000000004L125.7344 290.38960000000003L126.368 289.72720000000004L126.6848 289.324C126.8 289.1512,126.9728 289.1224,127.1168 289.1224C127.28960000000001 289.1224,127.4336 289.2088,127.52 289.3528C127.5488 289.4392,127.5488 289.4968,127.5488 291.628C127.5488 292.11760000000004,127.5488 292.7224,127.5488 293.4424L127.5488 297.4456L128.2688 297.4456C128.9312 297.4456,128.96 297.4456,129.0464 297.4744C129.2768 297.56080000000003,129.392 297.7912,129.392 298.0504C129.392 298.19440000000003,129.3632 298.3672,129.248 298.4824C129.0752 298.6264,129.0464 298.6264,128.2688 298.6264L127.5488 298.6264L127.5488 299.116C127.5776 300.58480000000003,127.8656 301.1608,128.9888 301.7656C129.392 301.9672,129.4784 302.0248,129.4784 302.31280000000004C129.4784 302.5144,129.42079999999999 302.6008,129.2768 302.716L129.1904 302.7448L125.2448 302.7448L121.328 302.7448L121.2416 302.716C121.0688 302.6008,121.04 302.5144,121.04 302.31280000000004C121.04 302.0248,121.0688 301.9672,121.5008 301.7656C122.624 301.1608,122.912 300.58480000000003,122.912 299.116L122.912 298.6264L119.6 298.6264C118.9952 298.684,118.5056 298.684,118.1024 298.684C116.288 298.684,116.2592 298.6264,116.2304 298.6264C116.0576 298.5688,116 298.396,116 298.19440000000003C116 298.19440000000003,116 298.19440000000003,116 298.19440000000003C116 297.9928,116 297.9928,116.576 297.3304C118.9952 294.3928,120.6944 290.1304,120.6944 286.732C120.6944 286.2136,120.7808 286.0408,121.0112 285.9544M122.7392 304.3288L122.768 304.3288L122.6816 304.3288L122.7392 304.3288M122.7392 284.9176L122.768 284.9176L122.6816 284.9176L122.7392 284.9176"></path><g class="vf-stavenote" id="vf-auto4578213"><g class="vf-note" pointer-events="bounding-box"><g class="vf-stem" pointer-events="bounding-box"><path stroke-width="1.5" fill="none" stroke="#000000" stroke-dasharray="none" class="vf-stem" id="vf-auto4578213-stem" d="M152.74663999999999 289.3L152.74663999999999 254.3"></path></g><g class="vf-notehead" pointer-events="bounding-box"><path stroke-width="0.3" fill="#000000" stroke="none" stroke-dasharray="none" d="M141.4784 289.3M148.83535999999998 284.07712000000004C148.94768 284.07712000000004,149.11615999999998 284.07712000000004,149.14424 284.07712000000004C149.14424 284.07712000000004,149.17231999999998 284.07712000000004,149.17231999999998 284.07712000000004C149.17231999999998 284.07712000000004,149.3408 284.07712000000004,149.4812 284.07712000000004C152.0084 284.21752000000004,153.49663999999999 285.87424,153.49663999999999 287.95216C153.49663999999999 288.96304000000003,153.15967999999998 290.11432,152.31727999999998 291.20944000000003C150.71671999999998 293.3716,148.10528 294.55096000000003,145.83079999999998 294.55096000000003C144.06176 294.55096000000003,142.54543999999999 293.84896000000003,141.81536 292.41688C141.59072 291.85528,141.4784 291.32176,141.4784 290.73208C141.4784 287.67136,144.90416 284.27368,148.83535999999998 284.07712000000004"></path></g></g><g class="vf-modifiers"></g></g><rect stroke-width="0.3" fill="#000000" stroke="#000000" stroke-dasharray="none" x="304.34522239999995" y="166.5" width="1" height="138.8"></rect><rect stroke-width="0.3" fill="#000000" stroke="#000000" stroke-dasharray="none" x="70" y="166.5" width="1" height="138.8"></rect><path stroke-width="1" fill="none" stroke="#000000" stroke-dasharray="none" d="M304.34522239999995 264.3L456.71204479999994 264.3"></path><path stroke-width="1" fill="none" stroke="#000000" stroke-dasharray="none" d="M304.34522239999995 274.3L456.71204479999994 274.3"></path><path stroke-width="1" fill="none" stroke="#000000" stroke-dasharray="none" d="M304.34522239999995 284.3L456.71204479999994 284.3"></path><path stroke-width="1" fill="none" stroke="#000000" stroke-dasharray="none" d="M304.34522239999995 294.3L456.71204479999994 294.3"></path><path stroke-width="1" fill="none" stroke="#000000" stroke-dasharray="none" d="M304.34522239999995 304.3L456.71204479999994 304.3"></path><rect stroke-width="0.3" fill="#000000" stroke="#000000" stroke-dasharray="none" x="456.71204479999994" y="263.8" width="1" height="41"></rect><g class="vf-stavenote" id="vf-auto4578250"><g class="vf-note" pointer-events="bounding-box"><g class="vf-stem" pointer-events="bounding-box"><path stroke-width="1.5" fill="none" stroke="#000000" stroke-dasharray="none" class="vf-stem" id="vf-auto4578250-stem" d="M332.61346239999995 289.3L332.61346239999995 254.3"></path></g><g class="vf-notehead" pointer-events="bounding-box"><path stroke-width="0.3" fill="#000000" stroke="none" stroke-dasharray="none" d="M321.34522239999995 289.3M328.70218239999997 284.07712000000004C328.8145024 284.07712000000004,328.98298239999997 284.07712000000004,329.01106239999996 284.07712000000004C329.01106239999996 284.07712000000004,329.03914239999995 284.07712000000004,329.03914239999995 284.07712000000004C329.03914239999995 284.07712000000004,329.20762239999993 284.07712000000004,329.34802239999993 284.07712000000004C331.8752224 284.21752000000004,333.36346239999995 285.87424,333.36346239999995 287.95216C333.36346239999995 288.96304000000003,333.02650239999997 290.11432,332.1841024 291.20944000000003C330.58354239999994 293.3716,327.9721023999999 294.55096000000003,325.69762239999994 294.55096000000003C323.9285824 294.55096000000003,322.4122624 293.84896000000003,321.68218239999993 292.41688C321.45754239999997 291.85528,321.34522239999995 291.32176,321.34522239999995 290.73208C321.34522239999995 287.67136,324.7709824 284.27368,328.70218239999997 284.07712000000004"></path></g></g><g class="vf-modifiers"></g></g><rect stroke-width="0.3" fill="#000000" stroke="#000000" stroke-dasharray="none" x="456.71204479999994" y="166.5" width="1" height="138.8"></rect><path stroke-width="1" fill="none" stroke="#000000" stroke-dasharray="none" d="M456.71204479999994 264.3L604.8788671999998 264.3"></path><path stroke-width="1" fill="none" stroke="#000000" stroke-dasharray="none" d="M456.71204479999994 274.3L604.8788671999998 274.3"></path><path stroke-width="1" fill="none" stroke="#000000" stroke-dasharray="none" d="M456.71204479999994 284.3L604.8788671999998 284.3"></path><path stroke-width="1" fill="none" stroke="#000000" stroke-dasharray="none" d="M456.71204479999994 294.3L604.8788671999998 294.3"></path><path stroke-width="1" fill="none" stroke="#000000" stroke-dasharray="none" d="M456.71204479999994 304.3L604.8788671999998 304.3"></path><rect stroke-width="0.3" fill="#000000" stroke="#000000" stroke-dasharray="none" x="604.8788671999998" y="263.8" width="1" height="41"></rect><g class="vf-stavenote" id="vf-auto4578279"><g class="vf-note" pointer-events="bounding-box"><g class="vf-stem" pointer-events="bounding-box"><path stroke-width="1.5" fill="none" stroke="#000000" stroke-dasharray="none" class="vf-stem" id="vf-auto4578279-stem" d="M518.2302847999999 304.3L518.2302847999999 269.3"></path></g><g class="vf-notehead" pointer-events="bounding-box"><path stroke-width="0.3" fill="#000000" stroke="none" stroke-dasharray="none" d="M506.96204479999994 304.3M514.3190047999999 299.07712000000004C514.4313248 299.07712000000004,514.5998047999999 299.07712000000004,514.6278848 299.07712000000004C514.6278848 299.07712000000004,514.6559648 299.07712000000004,514.6559648 299.07712000000004C514.6559648 299.07712000000004,514.8244447999999 299.07712000000004,514.9648447999999 299.07712000000004C517.4920447999999 299.21752000000004,518.9802847999999 300.87424,518.9802847999999 302.95216C518.9802847999999 303.96304000000003,518.6433248 305.11432,517.8009248 306.20944000000003C516.2003648 308.3716,513.5889248 309.55096000000003,511.31444479999993 309.55096000000003C509.5454048 309.55096000000003,508.02908479999996 308.84896000000003,507.2990047999999 307.41688C507.07436479999996 306.85528,506.96204479999994 306.32176,506.96204479999994 305.73208C506.96204479999994 302.67136,510.38780479999997 299.27368,514.3190047999999 299.07712000000004"></path></g></g><g class="vf-modifiers"></g></g><g class="vf-stavenote" id="vf-auto4578287"><g class="vf-note" pointer-events="bounding-box"><g class="vf-stem" pointer-events="bounding-box"><path stroke-width="1.5" fill="none" stroke="#000000" stroke-dasharray="none" class="vf-stem" id="vf-auto4578287-stem" d="M540.9620448 264.3L540.9620448 299.3"></path></g><g class="vf-notehead" pointer-events="bounding-box"><path stroke-width="0.3" fill="#000000" stroke="none" stroke-dasharray="none" d="M540.2120448 264.3M547.5690047999999 259.07712000000004C547.6813248 259.07712000000004,547.8498047999999 259.07712000000004,547.8778848 259.07712000000004C547.8778848 259.07712000000004,547.9059648 259.07712000000004,547.9059648 259.07712000000004C547.9059648 259.07712000000004,548.0744447999999 259.07712000000004,548.2148447999999 259.07712000000004C550.7420447999999 259.21752000000004,552.2302847999999 260.87424,552.2302847999999 262.95216C552.2302847999999 263.96304000000003,551.8933248 265.11432,551.0509248 266.20944000000003C549.4503648 268.3716,546.8389248 269.55096000000003,544.5644447999999 269.55096000000003C542.7954047999999 269.55096000000003,541.2790848 268.84896000000003,540.5490047999999 267.41688C540.3243647999999 266.85528,540.2120448 266.32176,540.2120448 265.73208C540.2120448 262.67136,543.6378047999999 259.27368,547.5690047999999 259.07712000000004"></path></g></g><g class="vf-modifiers"></g></g><rect stroke-width="0.3" fill="#000000" stroke="#000000" stroke-dasharray="none" x="604.8788671999998" y="166.5" width="1" height="138.8"></rect><path stroke-width="1" fill="none" stroke="#000000" stroke-dasharray="none" d="M604.8788672 264.3L758.8456895999999 264.3"></path><path stroke-width="1" fill="none" stroke="#000000" stroke-dasharray="none" d="M604.8788672 274.3L758.8456895999999 274.3"></path><path stroke-width="1" fill="none" stroke="#000000" stroke-dasharray="none" d="M604.8788672 284.3L758.8456895999999 284.3"></path><path stroke-width="1" fill="none" stroke="#000000" stroke-dasharray="none" d="M604.8788672 294.3L758.8456895999999 294.3"></path><path stroke-width="1" fill="none" stroke="#000000" stroke-dasharray="none" d="M604.8788672 304.3L758.8456895999999 304.3"></path><rect stroke-width="0.3" fill="#000000" stroke="#000000" stroke-dasharray="none" x="753.8456895999999" y="263.8" width="1" height="41"></rect><rect stroke-width="0.3" fill="#000000" stroke="#000000" stroke-dasharray="none" x="756.8456895999999" y="263.8" width="3" height="41"></rect><path stroke-width="0.3" fill="#000000" stroke="none" stroke-dasharray="none" d="M752.8456895999999 279.8 A2 2 0 0 0 748.8456895999999 279.8M748.8456895999999 279.8 A2 2 0 0 0 752.8456895999999 279.8"></path><path stroke-width="0.3" fill="#000000" stroke="none" stroke-dasharray="none" d="M752.8456895999999 289.8 A2 2 0 0 0 748.8456895999999 289.8M748.8456895999999 289.8 A2 2 0 0 0 752.8456895999999 289.8"></path><g class="vf-stavenote" id="vf-auto4578307"><g class="vf-note" pointer-events="bounding-box"><g class="vf-stem" pointer-events="bounding-box"><path stroke-width="1.5" fill="none" stroke="#000000" stroke-dasharray="none" class="vf-stem" id="vf-auto4578307-stem" d="M622.6288672 259.3L622.6288672 294.3"></path></g><g class="vf-notehead" pointer-events="bounding-box"><path stroke-width="0.3" fill="#000000" stroke="none" stroke-dasharray="none" d="M621.8788672 259.3M629.2358271999999 254.07712C629.3481472 254.07712,629.5166271999999 254.07712,629.5447072 254.07712C629.5447072 254.07712,629.5727872 254.07712,629.5727872 254.07712C629.5727872 254.07712,629.7412671999999 254.07712,629.8816671999999 254.07712C632.4088671999999 254.21752,633.8971071999999 255.87424000000001,633.8971071999999 257.95216C633.8971071999999 258.96304000000003,633.5601472 260.11432,632.7177472 261.20944000000003C631.1171872 263.3716,628.5057472 264.55096000000003,626.2312671999999 264.55096000000003C624.4622271999999 264.55096000000003,622.9459072 263.84896000000003,622.2158271999999 262.41688C621.9911871999999 261.85528,621.8788672 261.32176,621.8788672 260.73208C621.8788672 257.67136,625.3046271999999 254.27368,629.2358271999999 254.07712"></path></g></g><g class="vf-modifiers"></g></g><g class="vf-stavenote" id="vf-auto4578315"><g class="vf-note" pointer-events="bounding-box"><g class="vf-stem" pointer-events="bounding-box"><path stroke-width="1.5" fill="none" stroke="#000000" stroke-dasharray="none" class="vf-stem" id="vf-auto4578315-stem" d="M667.6471071999999 299.3L667.6471071999999 264.3"></path></g><g class="vf-notehead" pointer-events="bounding-box"><path stroke-width="0.3" fill="#000000" stroke="none" stroke-dasharray="none" d="M656.3788672 299.3M663.7358271999999 294.07712000000004C663.8481472 294.07712000000004,664.0166271999999 294.07712000000004,664.0447072 294.07712000000004C664.0447072 294.07712000000004,664.0727872 294.07712000000004,664.0727872 294.07712000000004C664.0727872 294.07712000000004,664.2412671999999 294.07712000000004,664.3816671999999 294.07712000000004C666.9088671999999 294.21752000000004,668.3971071999999 295.87424,668.3971071999999 297.95216C668.3971071999999 298.96304000000003,668.0601472 300.11432,667.2177472 301.20944000000003C665.6171872 303.3716,663.0057472 304.55096000000003,660.7312671999999 304.55096000000003C658.9622271999999 304.55096000000003,657.4459072 303.84896000000003,656.7158271999999 302.41688C656.4911871999999 301.85528,656.3788672 301.32176,656.3788672 300.73208C656.3788672 297.67136,659.8046271999999 294.27368,663.7358271999999 294.07712000000004"></path></g></g><g class="vf-modifiers"></g></g><g class="vf-stavenote" id="vf-auto4578323"><g class="vf-note" pointer-events="bounding-box"><g class="vf-stem" pointer-events="bounding-box"><path stroke-width="1.5" fill="none" stroke="#000000" stroke-dasharray="none" class="vf-stem" id="vf-auto4578323-stem" d="M691.6288672 269.3L691.6288672 304.3"></path></g><g class="vf-notehead" pointer-events="bounding-box"><path stroke-width="0.3" fill="#000000" stroke="none" stroke-dasharray="none" d="M690.8788672 269.3M698.2358271999999 264.07712000000004C698.3481472 264.07712000000004,698.5166271999999 264.07712000000004,698.5447072 264.07712000000004C698.5447072 264.07712000000004,698.5727872 264.07712000000004,698.5727872 264.07712000000004C698.5727872 264.07712000000004,698.7412671999999 264.07712000000004,698.8816671999999 264.07712000000004C701.4088671999999 264.21752000000004,702.8971071999999 265.87424,702.8971071999999 267.95216C702.8971071999999 268.96304000000003,702.5601472 270.11432,701.7177472 271.20944000000003C700.1171872 273.3716,697.5057472 274.55096000000003,695.2312671999999 274.55096000000003C693.4622271999999 274.55096000000003,691.9459072 273.84896000000003,691.2158271999999 272.41688C690.9911871999999 271.85528,690.8788672 271.32176,690.8788672 270.73208C690.8788672 267.67136,694.3046271999999 264.27368,698.2358271999999 264.07712000000004"></path></g></g><g class="vf-modifiers"></g></g><rect stroke-width="0.3" fill="#000000" stroke="#000000" stroke-dasharray="none" x="753.8456895999999" y="166.5" width="1" height="138.8"></rect><rect stroke-width="0.3" fill="#000000" stroke="#000000" stroke-dasharray="none" x="756.8456895999999" y="166.5" width="3" height="138.8"></rect><path stroke-width="0.3" fill="#000000" stroke="none" stroke-dasharray="none" d="M68 166.5C45.2 194.26,81.2 217.162,56 235.9C81.2 254.638,45.2 277.54,68 305.3C44 277.54,72.8 254.638,56 235.9C72.8 217.162,44 194.26,68 166.5"></path><path stroke-width="1" fill="none" stroke="#000000" stroke-dasharray="none" d="M68 166.5C45.2 194.26,81.2 217.162,56 235.9C81.2 254.638,45.2 277.54,68 305.3C44 277.54,72.8 254.638,56 235.9C72.8 217.162,44 194.26,68 166.5"></path><g class="vf-text"><text stroke-width="0.3" fill="#000000" stroke="none" stroke-dasharray="none" font-family="Times New Roman" font-size="15px" font-weight="normal" font-style="normal" x="453.21204479999994" y="163.5">3</text></g></svg>