<svg xmlns="http://www.w3.org/2000/svg"  width="1280" height="379.6" viewBox="0 0 1280 379.6"><path stroke-width="1" fill="none" stroke="#000000" stroke-dasharray="none" d="M70 166.5L295.9452224 166.5"></path><path stroke-width="1" fill="none" stroke="#000000" stroke-dasharray="none" d="M70 176.5L295.9452224 176.5"></path><path stroke-width="1" fill="none" stroke="#000000" stroke-dasharray="none" d="M70 186.5L295.9452224 186.5"></path><path stroke-width="1" fill="none" stroke="#000000" stroke-dasharray="none" d="M70 196.5L295.9452224 196.5"></path><path stroke-width="1" fill="none" stroke="#000000" stroke-dasharray="none" d="M70 206.5L295.9452224 206.5"></path><rect stroke-width="0.3" fill="#000000" stroke="#000000" stroke-dasharray="none" x="295.9452224" y="166" width="1" height="41"></rect><g class="vf-clef"><path stroke-width="0.3" fill="#000000" stroke="none" stroke-dasharray="none" d="M75 196.5M89.0544 153.3288C89.112 153.3,89.1696 153.3,89.256 153.3C89.6016 153.3,90.0048 153.588,90.5808 154.308C92.9136 156.9864,94.5552 161.652,94.5552 165.4536C94.5552 165.7416,94.4976 165.972,94.4976 166.26C94.2384 170.7816,92.3952 174.4968,88.7376 178.0104L87.7584 178.9608L87.4128 179.3352L87.4128 179.4504L87.6144 180.3144L87.9312 181.8696L88.248 183.3096C88.68 185.268,88.8528 186.276,88.8528 186.276C88.8528 186.276,88.8528 186.276,88.8528 186.276C88.8528 186.276,88.968 186.276,89.112 186.2472C89.256 186.2472,89.7168 186.1896,90.2064 186.1896C90.55199999999999 186.1896,90.8976 186.2472,91.0704 186.2472C95.1312 186.7656,98.2704 189.6744,99.1632 193.764C99.336 194.4264,99.39359999999999 195.1464,99.39359999999999 195.8664C99.39359999999999 199.7544,97.0608 203.4696,93.1728 205.2264C92.94239999999999 205.3704,92.856 205.3992,92.856 205.3992L92.856 205.428C92.856 205.428,93.0288 206.0904,93.1728 206.8392L93.6048 209.028L94.008 210.7848C94.2384 211.908,94.3536 212.7144,94.3536 213.4344C94.3536 214.06799999999998,94.2672 214.644,94.1232 215.3064C93.144 219.3096,89.6592 221.7,86.0304 221.7C84.2448 221.7,82.4016 221.124,80.7888 219.828C79.3488 218.6184,78.7152 217.524,78.7152 216.084C78.7152 213.5496,80.76 211.764,82.8912 211.764C83.64 211.764,84.3888 211.99439999999998,85.1088 212.4264C86.3184 213.2616,86.8656 214.5288,86.8656 215.7672C86.8656 217.668,85.5408 219.54,83.2656 219.684L83.0352 219.684L83.208 219.79919999999998C84.1584 220.2024,85.1088 220.404,86.0304 220.404C88.3632 220.404,90.55199999999999 219.2232,91.8768 217.1784C92.62559999999999 216.0264,93.0288 214.6728,93.0288 213.3192C93.0288 212.8008,92.94239999999999 212.2824,92.8272 211.7064C92.8272 211.6488,92.74080000000001 211.188,92.62559999999999 210.756C91.992 207.6456,91.6176 205.8312,91.6176 205.8312C91.6176 205.8312,91.6176 205.8312,91.6176 205.8312C91.56 205.8312,91.4448 205.8312,91.3584 205.8888C91.0704 205.9464,90.4656 206.0904,90.2064 206.1192C89.5728 206.2056,88.968 206.2344,88.392 206.2344C82.74719999999999 206.2344,77.5056 202.4328,75.6912 196.8168C75.2304 195.3192,74.9712 193.8216,74.9712 192.324C74.9712 189.3288,75.9216 186.3912,77.7648 183.7704C79.7808 180.9192,81.7968 178.4712,84.2736 175.9368L85.13759999999999 175.044L84.936 173.9784L84.5616 172.2216L84.072 169.9752C83.928 169.14,83.7552 168.3336,83.7264 168.1608C83.5824 167.2104,83.496 166.2888,83.496 165.3384C83.496 161.7096,84.6768 158.22480000000002,86.8944 155.4312C87.5568 154.5672,88.7376 153.4152,89.0544 153.3288M90.8112 159.0312C90.7536 159.0312,90.6672 159.0312,90.5808 159.0312C89.4 159.0312,87.8736 160.1256,86.8368 161.7384C85.7712 163.32240000000002,85.224 165.4248,85.224 167.5848C85.224 168.1608,85.25280000000001 168.7656,85.3392 169.3704C85.4256 169.8024,85.45439999999999 170.0904,85.6848 171.12720000000002L86.088 172.9416C86.2032 173.4888,86.28960000000001 173.92079999999999,86.28960000000001 173.9784L86.28960000000001 173.9784C86.3184 173.9784,87.2112 172.9992,87.4992 172.6536C90.3792 169.3992,92.1072 165.972,92.4816 162.948C92.5104 162.66,92.5104 162.4296,92.5104 162.1416C92.5104 161.24880000000002,92.3952 160.38479999999998,92.1936 159.924C91.9632 159.4632,91.4448 159.0888,90.8112 159.0312M86.4624 181.2936C86.4048 180.8904,86.3184 180.5736,86.3184 180.516C86.3184 180.516,86.3184 180.516,86.28960000000001 180.516C86.232 180.516,84.9936 181.956,84.1296 182.964C82.6608 184.7496,81.1056 186.8808,80.472 187.9176C79.2624 189.9624,78.6576 192.2376,78.6576 194.484C78.6576 195.9528,78.9456 197.364,79.464 198.7176C81.0192 202.7208,84.5904 205.2264,88.4784 205.2264C88.9392 205.2264,89.4576 205.1976,89.9472 205.1112C90.5808 204.996,91.3584 204.7656,91.3584 204.6792L91.3584 204.6792C91.3584 204.6792,91.3008 204.3912,91.2144 204.0744L90.3792 199.956L89.7168 196.8744L89.2848 194.7432L88.824 192.6696C88.5936 191.4312,88.5072 191.1144,88.5072 191.1144C88.5072 191.1144,88.5072 191.0856,88.4784 191.0856C88.3056 191.0856,87.384 191.5464,86.9808 191.8344C85.4832 192.8712,84.7056 194.5128,84.7056 196.1256C84.7056 197.652,85.45439999999999 199.1784,86.8944 200.0712C87.2112 200.2728,87.3264 200.4456,87.3264 200.6472C87.3264 200.676,87.3264 200.7624,87.3264 200.7912C87.2688 201.1368,87.0672 201.2808,86.7792 201.2808C86.664 201.2808,86.52 201.252,86.3472 201.1656C83.6976 200.0136,81.912 197.2776,81.912 194.2824L81.912 194.2824C81.912 190.8264,84.072 187.8312,87.384 186.6504L87.5568 186.5928L87.2688 185.1528L86.4624 181.2936M90.7824 190.9128C90.55199999999999 190.88400000000001,90.3216 190.88400000000001,90.1488 190.88400000000001C90.0912 190.88400000000001,90.0048 190.88400000000001,89.9472 190.88400000000001L89.8032 190.88400000000001L89.9184 191.4024L90.5232 194.2248L90.8976 196.068L91.3008 197.8824L92.1072 201.8856L92.424 203.412C92.5392 203.8152,92.5968 204.1608,92.62559999999999 204.1608C92.62559999999999 204.1608,92.62559999999999 204.1608,92.62559999999999 204.1608C92.6544 204.1608,93.144 203.8728,93.4608 203.6424C94.9296 202.6056,96.024 200.9928,96.4272 199.3224C96.5712 198.7752,96.6288 198.1992,96.6288 197.652C96.6288 194.3112,94.152 191.2872,90.7824 190.9128"></path></g><path stroke-width="0.3" fill="#000000" stroke="none" stroke-dasharray="none" d="M116 186.5M121.0112 168.1544C121.04 168.1256,121.4432 168.1256,122.6816 168.1256C123.056 168.1256,123.4592 168.1256,123.9776 168.1256L126.8864 168.1256L126.9728 168.212C127.1168 168.29840000000002,127.2032 168.4424,127.2032 168.5576C127.2032 168.7304,127.1168 168.8456,127.0016 168.9608C126.9728 169.0472,126.7136 169.2776,126.5408 169.5368L125.0144 171.2936L123.056 173.5112L122.0192 174.692L120.464 176.4776L118.4192 178.8104C118.0736 179.2424,117.6992 179.588,117.6992 179.588C117.6992 179.588,117.6992 179.588,117.6992 179.588C117.6992 179.6456,117.9584 179.6456,120.3488 179.6456L122.9696 179.6456L122.9696 177.7736C122.9696 175.8728,122.9696 175.844,122.9984 175.8152C123.056 175.7288,123.3152 175.412,124.3232 174.2312L124.7264 173.7992L125.1296 173.3672L125.7344 172.5896L126.368 171.9272L126.6848 171.524C126.8 171.3512,126.9728 171.3224,127.1168 171.3224C127.28960000000001 171.3224,127.4336 171.4088,127.52 171.5528C127.5488 171.6392,127.5488 171.6968,127.5488 173.828C127.5488 174.3176,127.5488 174.9224,127.5488 175.6424L127.5488 179.6456L128.2688 179.6456C128.9312 179.6456,128.96 179.6456,129.0464 179.6744C129.2768 179.7608,129.392 179.9912,129.392 180.2504C129.392 180.3944,129.3632 180.5672,129.248 180.6824C129.0752 180.8264,129.0464 180.8264,128.2688 180.8264L127.5488 180.8264L127.5488 181.316C127.5776 182.7848,127.8656 183.3608,128.9888 183.9656C129.392 184.1672,129.4784 184.2248,129.4784 184.5128C129.4784 184.7144,129.42079999999999 184.8008,129.2768 184.916L129.1904 184.9448L125.2448 184.9448L121.328 184.9448L121.2416 184.916C121.0688 184.8008,121.04 184.7144,121.04 184.5128C121.04 184.2248,121.0688 184.1672,121.5008 183.9656C122.624 183.3608,122.912 182.7848,122.912 181.316L122.912 180.8264L119.6 180.8264C118.9952 180.88400000000001,118.5056 180.88400000000001,118.1024 180.88400000000001C116.288 180.88400000000001,116.2592 180.8264,116.2304 180.8264C116.0576 180.7688,116 180.596,116 180.3944C116 180.3944,116 180.3944,116 180.3944C116 180.1928,116 180.1928,116.576 179.5304C118.9952 176.5928,120.6944 172.3304,120.6944 168.93200000000002C120.6944 168.4136,120.7808 168.2408,121.0112 168.1544M122.7392 186.5288L122.768 186.5288L122.6816 186.5288L122.7392 186.5288M122.7392 167.1176L122.768 167.1176L122.6816 167.1176L122.7392 167.1176"></path><path stroke-width="0.3" fill="#000000" stroke="none" stroke-dasharray="none" d="M116 206.5M121.0112 188.1544C121.04 188.1256,121.4432 188.1256,122.6816 188.1256C123.056 188.1256,123.4592 188.1256,123.9776 188.1256L126.8864 188.1256L126.9728 188.212C127.1168 188.29840000000002,127.2032 188.4424,127.2032 188.5576C127.2032 188.7304,127.1168 188.8456,127.0016 188.9608C126.9728 189.0472,126.7136 189.2776,126.5408 189.5368L125.0144 191.2936L123.056 193.5112L122.0192 194.692L120.464 196.4776L118.4192 198.8104C118.0736 199.2424,117.6992 199.588,117.6992 199.588C117.6992 199.588,117.6992 199.588,117.6992 199.588C117.6992 199.6456,117.9584 199.6456,120.3488 199.6456L122.9696 199.6456L122.9696 197.7736C122.9696 195.8728,122.9696 195.844,122.9984 195.8152C123.056 195.7288,123.3152 195.412,124.3232 194.2312L124.7264 193.7992L125.1296 193.3672L125.7344 192.5896L126.368 191.9272L126.6848 191.524C126.8 191.3512,126.9728 191.3224,127.1168 191.3224C127.28960000000001 191.3224,127.4336 191.4088,127.52 191.5528C127.5488 191.6392,127.5488 191.6968,127.5488 193.828C127.5488 194.3176,127.5488 194.9224,127.5488 195.6424L127.5488 199.6456L128.2688 199.6456C128.9312 199.6456,128.96 199.6456,129.0464 199.6744C129.2768 199.7608,129.392 199.9912,129.392 200.2504C129.392 200.3944,129.3632 200.5672,129.248 200.6824C129.0752 200.8264,129.0464 200.8264,128.2688 200.8264L127.5488 200.8264L127.5488 201.316C127.5776 202.7848,127.8656 203.3608,128.9888 203.9656C129.392 204.1672,129.4784 204.2248,129.4784 204.5128C129.4784 204.7144,129.42079999999999 204.8008,129.2768 204.916L129.1904 204.9448L125.2448 204.9448L121.328 204.9448L121.2416 204.916C121.0688 204.8008,121.04 204.7144,121.04 204.5128C121.04 204.2248,121.0688 204.1672,121.5008 203.9656C122.624 203.3608,122.912 202.7848,122.912 201.316L122.912 200.8264L119.6 200.8264C118.9952 200.88400000000001,118.5056 200.88400000000001,118.1024 200.88400000000001C116.288 200.88400000000001,116.2592 200.8264,116.2304 200.8264C116.0576 200.7688,116 200.596,116 200.3944C116 200.3944,116 200.3944,116 200.3944C116 200.1928,116 200.1928,116.576 199.5304C118.9952 196.5928,120.6944 192.3304,120.6944 188.93200000000002C120.6944 188.4136,120.7808 188.2408,121.0112 188.1544M122.7392 206.5288L122.768 206.5288L122.6816 206.5288L122.7392 206.5288M122.7392 187.1176L122.768 187.1176L122.6816 187.1176L122.7392 187.1176"></path><path stroke-width="1" fill="none" stroke="#000000" stroke-dasharray="none" d="M138.4784 216.5L156.49663999999999 216.5"></path><g class="vf-stavenote" id="vf-auto497465"><g class="vf-note" pointer-events="bounding-box"><g class="vf-stem" pointer-events="bounding-box"><path stroke-width="1.5" fill="none" stroke="#000000" stroke-dasharray="none" class="vf-stem" id="vf-auto497465-stem" d="M152.74663999999999 216.5L152.74663999999999 181.5"></path></g><g class="vf-notehead" pointer-events="bounding-box"><path stroke-width="0.3" fill="#000000" stroke="none" stroke-dasharray="none" d="M141.4784 216.5M148.83535999999998 211.27712C148.94768 211.27712,149.11615999999998 211.27712,149.14424 211.27712C149.14424 211.27712,149.17231999999998 211.27712,149.17231999999998 211.27712C149.17231999999998 211.27712,149.3408 211.27712,149.4812 211.27712C152.0084 211.41752,153.49663999999999 213.07424,153.49663999999999 215.15216C153.49663999999999 216.16304,153.15967999999998 217.31432,152.31727999999998 218.40944C150.71671999999998 220.5716,148.10528 221.75096,145.83079999999998 221.75096C144.06176 221.75096,142.54543999999999 221.04896,141.81536 219.61688C141.59072 219.05528,141.4784 218.52176,141.4784 217.93208C141.4784 214.87136,144.90416 211.47368,148.83535999999998 211.27712"></path></g></g><g class="vf-modifiers"></g></g><path stroke-width="1" fill="none" stroke="#000000" stroke-dasharray="none" d="M295.9452224 166.5L435.71204479999994 166.5"></path><path stroke-width="1" fill="none" stroke="#000000" stroke-dasharray="none" d="M295.9452224 176.5L435.71204479999994 176.5"></path><path stroke-width="1" fill="none" stroke="#000000" stroke-dasharray="none" d="M295.9452224 186.5L435.71204479999994 186.5"></path><path stroke-width="1" fill="none" stroke="#000000" stroke-dasharray="none" d="M295.9452224 196.5L435.71204479999994 196.5"></path><path stroke-width="1" fill="none" stroke="#000000" stroke-dasharray="none" d="M295.9452224 206.5L435.71204479999994 206.5"></path><rect stroke-width="0.3" fill="#000000" stroke="#000000" stroke-dasharray="none" x="435.71204479999994" y="166" width="1" height="41"></rect><path stroke-width="1" fill="none" stroke="#000000" stroke-dasharray="none" d="M435.71204479999994 166.5L583.8788671999998 166.5"></path><path stroke-width="1" fill="none" stroke="#000000" stroke-dasharray="none" d="M435.71204479999994 176.5L583.8788671999998 176.5"></path><path stroke-width="1" fill="none" stroke="#000000" stroke-dasharray="none" d="M435.71204479999994 186.5L583.8788671999998 186.5"></path><path stroke-width="1" fill="none" stroke="#000000" stroke-dasharray="none" d="M435.71204479999994 196.5L583.8788671999998 196.5"></path><path stroke-width="1" fill="none" stroke="#000000" stroke-dasharray="none" d="M435.71204479999994 206.5L583.8788671999998 206.5"></path><rect stroke-width="0.3" fill="#000000" stroke="#000000" stroke-dasharray="none" x="583.8788671999998" y="166" width="1" height="41"></rect><g class="vf-stavenote" id="vf-auto497535"><g class="vf-note" pointer-events="bounding-box"><g class="vf-stem" pointer-events="bounding-box"><path stroke-width="1.5" fill="none" stroke="#000000" stroke-dasharray="none" class="vf-stem" id="vf-auto497535-stem" d="M530.4802847999999 191.5L530.4802847999999 156.5"></path></g><g class="vf-notehead" pointer-events="bounding-box"><path stroke-width="0.3" fill="#000000" stroke="none" stroke-dasharray="none" d="M519.2120448 191.5M526.5690047999999 186.27712C526.6813248 186.27712,526.8498047999999 186.27712,526.8778848 186.27712C526.8778848 186.27712,526.9059648 186.27712,526.9059648 186.27712C526.9059648 186.27712,527.0744447999999 186.27712,527.2148447999999 186.27712C529.7420447999999 186.41752,531.2302847999999 188.07424,531.2302847999999 190.15216C531.2302847999999 191.16304,530.8933248 192.31432,530.0509248 193.40944C528.4503648 195.5716,525.8389248 196.75096,523.5644447999999 196.75096C521.7954047999999 196.75096,520.2790848 196.04896,519.5490047999999 194.61688C519.3243647999999 194.05528,519.2120448 193.52176,519.2120448 192.93208C519.2120448 189.87136,522.6378047999999 186.47368,526.5690047999999 186.27712"></path></g></g><g class="vf-modifiers"></g></g><path stroke-width="1" fill="none" stroke="#000000" stroke-dasharray="none" d="M549.4620448 216.5L567.4802847999999 216.5"></path><g class="vf-stavenote" id="vf-auto497543"><g class="vf-note" pointer-events="bounding-box"><g class="vf-stem" pointer-events="bounding-box"><path stroke-width="1.5" fill="none" stroke="#000000" stroke-dasharray="none" class="vf-stem" id="vf-auto497543-stem" d="M563.7302847999999 216.5L563.7302847999999 181.5"></path></g><g class="vf-notehead" pointer-events="bounding-box"><path stroke-width="0.3" fill="#000000" stroke="none" stroke-dasharray="none" d="M552.4620448 216.5M559.8190047999999 211.27712C559.9313248 211.27712,560.0998047999999 211.27712,560.1278848 211.27712C560.1278848 211.27712,560.1559648 211.27712,560.1559648 211.27712C560.1559648 211.27712,560.3244447999999 211.27712,560.4648447999999 211.27712C562.9920447999999 211.41752,564.4802847999999 213.07424,564.4802847999999 215.15216C564.4802847999999 216.16304,564.1433248 217.31432,563.3009248 218.40944C561.7003648 220.5716,559.0889248 221.75096,556.8144447999999 221.75096C555.0454047999999 221.75096,553.5290848 221.04896,552.7990047999999 219.61688C552.5743647999999 219.05528,552.4620448 218.52176,552.4620448 217.93208C552.4620448 214.87136,555.8878047999999 211.47368,559.8190047999999 211.27712"></path></g></g><g class="vf-modifiers"></g></g><path stroke-width="1" fill="none" stroke="#000000" stroke-dasharray="none" d="M583.8788671999998 166.5L742.0456895999998 166.5"></path><path stroke-width="1" fill="none" stroke="#000000" stroke-dasharray="none" d="M583.8788671999998 176.5L742.0456895999998 176.5"></path><path stroke-width="1" fill="none" stroke="#000000" stroke-dasharray="none" d="M583.8788671999998 186.5L742.0456895999998 186.5"></path><path stroke-width="1" fill="none" stroke="#000000" stroke-dasharray="none" d="M583.8788671999998 196.5L742.0456895999998 196.5"></path><path stroke-width="1" fill="none" stroke="#000000" stroke-dasharray="none" d="M583.8788671999998 206.5L742.0456895999998 206.5"></path><rect stroke-width="0.3" fill="#000000" stroke="#000000" stroke-dasharray="none" x="737.0456895999998" y="166" width="1" height="41"></rect><rect stroke-width="0.3" fill="#000000" stroke="#000000" stroke-dasharray="none" x="740.0456895999998" y="166" width="3" height="41"></rect><path stroke-width="0.3" fill="#000000" stroke="none" stroke-dasharray="none" d="M736.0456895999998 182 A2 2 0 0 0 732.0456895999998 182M732.0456895999998 182 A2 2 0 0 0 736.0456895999998 182"></path><path stroke-width="0.3" fill="#000000" stroke="none" stroke-dasharray="none" d="M736.0456895999998 192 A2 2 0 0 0 732.0456895999998 192M732.0456895999998 192 A2 2 0 0 0 736.0456895999998 192"></path><g class="vf-stavenote" id="vf-auto497571"><g class="vf-note" pointer-events="bounding-box"><g class="vf-stem" pointer-events="bounding-box"><path stroke-width="1.5" fill="none" stroke="#000000" stroke-dasharray="none" class="vf-stem" id="vf-auto497571-stem" d="M673.1288671999998 166.5L673.1288671999998 201.5"></path></g><g class="vf-notehead" pointer-events="bounding-box"><path stroke-width="0.3" fill="#000000" stroke="none" stroke-dasharray="none" d="M672.3788671999998 166.5M679.7358271999998 161.27712C679.8481471999999 161.27712,680.0166271999998 161.27712,680.0447071999998 161.27712C680.0447071999998 161.27712,680.0727871999999 161.27712,680.0727871999999 161.27712C680.0727871999999 161.27712,680.2412671999998 161.27712,680.3816671999998 161.27712C682.9088671999998 161.41752,684.3971071999998 163.07424,684.3971071999998 165.15216C684.3971071999998 166.16304,684.0601471999998 167.31432,683.2177471999998 168.40944C681.6171871999999 170.5716,679.0057471999999 171.75096,676.7312671999998 171.75096C674.9622271999998 171.75096,673.4459071999999 171.04896,672.7158271999998 169.61688C672.4911871999998 169.05528,672.3788671999998 168.52176,672.3788671999998 167.93208C672.3788671999998 164.87136,675.8046271999998 161.47368,679.7358271999998 161.27712"></path></g></g><g class="vf-modifiers"></g></g><g class="vf-stavenote" id="vf-auto497579"><g class="vf-note" pointer-events="bounding-box"><g class="vf-stem" pointer-events="bounding-box"><path stroke-width="1.5" fill="none" stroke="#000000" stroke-dasharray="none" class="vf-stem" id="vf-auto497579-stem" d="M719.3971071999998 191.5L719.3971071999998 156.5"></path></g><g class="vf-notehead" pointer-events="bounding-box"><path stroke-width="0.3" fill="#000000" stroke="none" stroke-dasharray="none" d="M708.1288671999998 191.5M715.4858271999998 186.27712C715.5981471999999 186.27712,715.7666271999998 186.27712,715.7947071999998 186.27712C715.7947071999998 186.27712,715.8227871999999 186.27712,715.8227871999999 186.27712C715.8227871999999 186.27712,715.9912671999998 186.27712,716.1316671999998 186.27712C718.6588671999998 186.41752,720.1471071999998 188.07424,720.1471071999998 190.15216C720.1471071999998 191.16304,719.8101471999998 192.31432,718.9677471999998 193.40944C717.3671871999999 195.5716,714.7557471999999 196.75096,712.4812671999998 196.75096C710.7122271999998 196.75096,709.1959071999999 196.04896,708.4658271999998 194.61688C708.2411871999998 194.05528,708.1288671999998 193.52176,708.1288671999998 192.93208C708.1288671999998 189.87136,711.5546271999998 186.47368,715.4858271999998 186.27712"></path></g></g><g class="vf-modifiers"></g></g><g class="vf-text"><text stroke-width="0.3" fill="#000000" stroke="none" stroke-dasharray="none" font-family="Times New Roman" font-size="23px" font-weight="bold" font-style="italic" x="132.48752" y="244.29999999999998">mp</text></g><path stroke-width="1" fill="none" stroke="#000000" stroke-dasharray="none" d="M70 263.09999999999997L295.9452224 263.09999999999997"></path><path stroke-width="1" fill="none" stroke="#000000" stroke-dasharray="none" d="M70 273.09999999999997L295.9452224 273.09999999999997"></path><path stroke-width="1" fill="none" stroke="#000000" stroke-dasharray="none" d="M70 283.09999999999997L295.9452224 283.09999999999997"></path><path stroke-width="1" fill="none" stroke="#000000" stroke-dasharray="none" d="M70 293.09999999999997L295.9452224 293.09999999999997"></path><path stroke-width="1" fill="none" stroke="#000000" stroke-dasharray="none" d="M70 303.09999999999997L295.9452224 303.09999999999997"></path><rect stroke-width="0.3" fill="#000000" stroke="#000000" stroke-dasharray="none" x="295.9452224" y="262.59999999999997" width="1" height="41"></rect><g class="vf-clef"><path stroke-width="0.3" fill="#000000" stroke="none" stroke-dasharray="none" d="M75 273.09999999999997M83.8416 263.04879999999997C84.072 262.9912,84.3024 262.9912,84.5616 262.9912C85.5696 262.9912,86.7504 263.10639999999995,87.7584 263.308C92.4816 264.2872,95.736 267.484,96.3408 271.7464C96.3984 272.20719999999994,96.4272 272.63919999999996,96.4272 273.09999999999997C96.4272 275.69199999999995,95.5344 279.03279999999995,94.008 281.8264C90.3792 288.39279999999997,83.7552 293.116,75.8064 294.84399999999994C75.6624 294.84399999999994,75.5472 294.8728,75.4032 294.8728C75.1152 294.8728,74.9712 294.7,74.9712 294.44079999999997C74.9712 294.15279999999996,75.0288 294.0664,75.6048 293.83599999999996C84.7056 290.4088,90.7824 283.00719999999995,91.3296 274.71279999999996C91.3584 274.28079999999994,91.3584 273.79119999999995,91.3584 273.41679999999997C91.3584 269.3848,90.12 266.3896,87.7296 264.89199999999994C86.6928 264.22959999999995,85.5696 263.91279999999995,84.36 263.91279999999995C81.6816 263.91279999999995,78.9456 265.43919999999997,77.6784 268.00239999999997C77.6208 268.20399999999995,77.4192 268.63599999999997,77.4192 268.66479999999996C77.4192 268.66479999999996,77.4192 268.66479999999996,77.4192 268.66479999999996C77.4192 268.66479999999996,77.448 268.63599999999997,77.5344 268.6072C78.168 268.20399999999995,78.8592 268.00239999999997,79.5792 268.00239999999997C80.5872 268.00239999999997,81.6528 268.4344,82.4016 269.2408C83.0928 269.98959999999994,83.4672 270.9976,83.4672 271.9192C83.4672 273.79119999999995,82.0848 275.69199999999995,79.9248 275.8936C79.7808 275.8936,79.6368 275.9224,79.4928 275.9224C77.1024 275.9224,75.1728 273.73359999999997,75.1728 270.9688C75.1728 270.91119999999995,75.1728 270.8248,75.1728 270.796C75.288 266.6776,79.0608 263.308,83.8416 263.04879999999997M99.1632 266.90799999999996C99.2208 266.87919999999997,99.2496 266.87919999999997,99.336 266.87919999999997C99.5376 266.87919999999997,99.768 266.90799999999996,99.8256 266.9656C100.54560000000001 267.1672,100.8912 267.8008,100.8912 268.4056C100.8912 268.924,100.632 269.44239999999996,100.11359999999999 269.7304C99.912 269.8744,99.6528 269.90319999999997,99.39359999999999 269.90319999999997C98.9904 269.90319999999997,98.5584 269.7304,98.2704 269.356C98.03999999999999 269.068,97.9248 268.7512,97.9248 268.4344C97.9248 267.71439999999996,98.3856 266.9944,99.1632 266.90799999999996M99.1632 276.32559999999995C99.2208 276.32559999999995,99.2496 276.32559999999995,99.336 276.32559999999995C99.5376 276.32559999999995,99.768 276.35439999999994,99.8256 276.412C100.54560000000001 276.61359999999996,100.8912 277.24719999999996,100.8912 277.852C100.8912 278.37039999999996,100.632 278.88879999999995,100.11359999999999 279.14799999999997C99.912 279.292,99.6528 279.34959999999995,99.39359999999999 279.34959999999995C98.9904 279.34959999999995,98.5584 279.14799999999997,98.2704 278.8024C98.03999999999999 278.51439999999997,97.9248 278.19759999999997,97.9248 277.852C97.9248 277.13199999999995,98.3856 276.44079999999997,99.1632 276.32559999999995"></path></g><path stroke-width="0.3" fill="#000000" stroke="none" stroke-dasharray="none" d="M116 283.09999999999997M121.0112 264.7544C121.04 264.7256,121.4432 264.7256,122.6816 264.7256C123.056 264.7256,123.4592 264.7256,123.9776 264.7256L126.8864 264.7256L126.9728 264.81199999999995C127.1168 264.8984,127.2032 265.0424,127.2032 265.15759999999995C127.2032 265.33039999999994,127.1168 265.44559999999996,127.0016 265.5608C126.9728 265.64719999999994,126.7136 265.8776,126.5408 266.1368L125.0144 267.8936L123.056 270.11119999999994L122.0192 271.292L120.464 273.07759999999996L118.4192 275.4104C118.0736 275.84239999999994,117.6992 276.188,117.6992 276.188C117.6992 276.188,117.6992 276.188,117.6992 276.188C117.6992 276.24559999999997,117.9584 276.24559999999997,120.3488 276.24559999999997L122.9696 276.24559999999997L122.9696 274.37359999999995C122.9696 272.47279999999995,122.9696 272.44399999999996,122.9984 272.41519999999997C123.056 272.32879999999994,123.3152 272.01199999999994,124.3232 270.83119999999997L124.7264 270.39919999999995L125.1296 269.9672L125.7344 269.1896L126.368 268.5272L126.6848 268.12399999999997C126.8 267.9512,126.9728 267.9224,127.1168 267.9224C127.28960000000001 267.9224,127.4336 268.00879999999995,127.52 268.15279999999996C127.5488 268.2392,127.5488 268.29679999999996,127.5488 270.42799999999994C127.5488 270.9176,127.5488 271.52239999999995,127.5488 272.2424L127.5488 276.24559999999997L128.2688 276.24559999999997C128.9312 276.24559999999997,128.96 276.24559999999997,129.0464 276.27439999999996C129.2768 276.3608,129.392 276.59119999999996,129.392 276.8504C129.392 276.9944,129.3632 277.1672,129.248 277.28239999999994C129.0752 277.42639999999994,129.0464 277.42639999999994,128.2688 277.42639999999994L127.5488 277.42639999999994L127.5488 277.91599999999994C127.5776 279.3848,127.8656 279.96079999999995,128.9888 280.56559999999996C129.392 280.76719999999995,129.4784 280.8248,129.4784 281.1128C129.4784 281.3144,129.42079999999999 281.40079999999995,129.2768 281.51599999999996L129.1904 281.54479999999995L125.2448 281.54479999999995L121.328 281.54479999999995L121.2416 281.51599999999996C121.0688 281.40079999999995,121.04 281.3144,121.04 281.1128C121.04 280.8248,121.0688 280.76719999999995,121.5008 280.56559999999996C122.624 279.96079999999995,122.912 279.3848,122.912 277.91599999999994L122.912 277.42639999999994L119.6 277.42639999999994C118.9952 277.484,118.5056 277.484,118.1024 277.484C116.288 277.484,116.2592 277.42639999999994,116.2304 277.42639999999994C116.0576 277.36879999999996,116 277.19599999999997,116 276.9944C116 276.9944,116 276.9944,116 276.9944C116 276.79279999999994,116 276.79279999999994,116.576 276.13039999999995C118.9952 273.1928,120.6944 268.93039999999996,120.6944 265.532C120.6944 265.01359999999994,120.7808 264.84079999999994,121.0112 264.7544M122.7392 283.12879999999996L122.768 283.12879999999996L122.6816 283.12879999999996L122.7392 283.12879999999996M122.7392 263.71759999999995L122.768 263.71759999999995L122.6816 263.71759999999995L122.7392 263.71759999999995"></path><path stroke-width="0.3" fill="#000000" stroke="none" stroke-dasharray="none" d="M116 303.09999999999997M121.0112 284.7544C121.04 284.7256,121.4432 284.7256,122.6816 284.7256C123.056 284.7256,123.4592 284.7256,123.9776 284.7256L126.8864 284.7256L126.9728 284.81199999999995C127.1168 284.8984,127.2032 285.0424,127.2032 285.15759999999995C127.2032 285.33039999999994,127.1168 285.44559999999996,127.0016 285.5608C126.9728 285.64719999999994,126.7136 285.8776,126.5408 286.1368L125.0144 287.8936L123.056 290.11119999999994L122.0192 291.292L120.464 293.07759999999996L118.4192 295.4104C118.0736 295.84239999999994,117.6992 296.188,117.6992 296.188C117.6992 296.188,117.6992 296.188,117.6992 296.188C117.6992 296.24559999999997,117.9584 296.24559999999997,120.3488 296.24559999999997L122.9696 296.24559999999997L122.9696 294.37359999999995C122.9696 292.47279999999995,122.9696 292.44399999999996,122.9984 292.41519999999997C123.056 292.32879999999994,123.3152 292.01199999999994,124.3232 290.83119999999997L124.7264 290.39919999999995L125.1296 289.9672L125.7344 289.1896L126.368 288.5272L126.6848 288.12399999999997C126.8 287.9512,126.9728 287.9224,127.1168 287.9224C127.28960000000001 287.9224,127.4336 288.00879999999995,127.52 288.15279999999996C127.5488 288.2392,127.5488 288.29679999999996,127.5488 290.42799999999994C127.5488 290.9176,127.5488 291.52239999999995,127.5488 292.2424L127.5488 296.24559999999997L128.2688 296.24559999999997C128.9312 296.24559999999997,128.96 296.24559999999997,129.0464 296.27439999999996C129.2768 296.3608,129.392 296.59119999999996,129.392 296.8504C129.392 296.9944,129.3632 297.1672,129.248 297.28239999999994C129.0752 297.42639999999994,129.0464 297.42639999999994,128.2688 297.42639999999994L127.5488 297.42639999999994L127.5488 297.91599999999994C127.5776 299.3848,127.8656 299.96079999999995,128.9888 300.56559999999996C129.392 300.76719999999995,129.4784 300.8248,129.4784 301.1128C129.4784 301.3144,129.42079999999999 301.40079999999995,129.2768 301.51599999999996L129.1904 301.54479999999995L125.2448 301.54479999999995L121.328 301.54479999999995L121.2416 301.51599999999996C121.0688 301.40079999999995,121.04 301.3144,121.04 301.1128C121.04 300.8248,121.0688 300.76719999999995,121.5008 300.56559999999996C122.624 299.96079999999995,122.912 299.3848,122.912 297.91599999999994L122.912 297.42639999999994L119.6 297.42639999999994C118.9952 297.484,118.5056 297.484,118.1024 297.484C116.288 297.484,116.2592 297.42639999999994,116.2304 297.42639999999994C116.0576 297.36879999999996,116 297.19599999999997,116 296.9944C116 296.9944,116 296.9944,116 296.9944C116 296.79279999999994,116 296.79279999999994,116.576 296.13039999999995C118.9952 293.1928,120.6944 288.93039999999996,120.6944 285.532C120.6944 285.01359999999994,120.7808 284.84079999999994,121.0112 284.7544M122.7392 303.12879999999996L122.768 303.12879999999996L122.6816 303.12879999999996L122.7392 303.12879999999996M122.7392 283.71759999999995L122.768 283.71759999999995L122.6816 283.71759999999995L122.7392 283.71759999999995"></path><g class="vf-stavenote" id="vf-auto497476"><g class="vf-note" pointer-events="bounding-box"><g class="vf-stem" pointer-events="bounding-box"><path stroke-width="1.5" fill="none" stroke="#000000" stroke-dasharray="none" class="vf-stem" id="vf-auto497476-stem" d="M181.1088 263.09999999999997L181.1088 298.09999999999997"></path></g><g class="vf-notehead" pointer-events="bounding-box"><path stroke-width="0.3" fill="#000000" stroke="none" stroke-dasharray="none" d="M180.3588 263.09999999999997M187.71576 257.87712C187.82808 257.87712,187.99656 257.87712,188.02464 257.87712C188.02464 257.87712,188.05272 257.87712,188.05272 257.87712C188.05272 257.87712,188.2212 257.87712,188.3616 257.87712C190.8888 258.01752,192.37704 259.67423999999994,192.37704 261.75215999999995C192.37704 262.76304,192.04008 263.91432,191.19768 265.00944C189.59712 267.17159999999996,186.98568 268.35096,184.7112 268.35096C182.94216 268.35096,181.42584 267.64896,180.69576 266.21687999999995C180.47112 265.65527999999995,180.3588 265.12175999999994,180.3588 264.53207999999995C180.3588 261.47135999999995,183.78456 258.07367999999997,187.71576 257.87712"></path></g></g><g class="vf-modifiers"></g></g><g class="vf-stavenote" id="vf-auto497484"><g class="vf-note" pointer-events="bounding-box"><g class="vf-stem" pointer-events="bounding-box"><path stroke-width="1.5" fill="none" stroke="#000000" stroke-dasharray="none" class="vf-stem" id="vf-auto497484-stem" d="M230.50743999999997 288.09999999999997L230.50743999999997 253.09999999999997"></path></g><g class="vf-notehead" pointer-events="bounding-box"><path stroke-width="0.3" fill="#000000" stroke="none" stroke-dasharray="none" d="M219.23919999999998 288.09999999999997M226.59615999999997 282.87712C226.70847999999998 282.87712,226.87696 282.87712,226.90503999999999 282.87712C226.90503999999999 282.87712,226.93311999999997 282.87712,226.93311999999997 282.87712C226.93311999999997 282.87712,227.1016 282.87712,227.242 282.87712C229.76919999999998 283.01752,231.25743999999997 284.67423999999994,231.25743999999997 286.75215999999995C231.25743999999997 287.76304,230.92048 288.91432,230.07807999999997 290.00944C228.47751999999997 292.17159999999996,225.86607999999998 293.35096,223.59159999999997 293.35096C221.82255999999998 293.35096,220.30623999999997 292.64896,219.57616 291.21687999999995C219.35152 290.65527999999995,219.23919999999998 290.12175999999994,219.23919999999998 289.53207999999995C219.23919999999998 286.47135999999995,222.66495999999998 283.07367999999997,226.59615999999997 282.87712"></path></g></g><g class="vf-modifiers"></g></g><g class="vf-stavenote" id="vf-auto497492"><g class="vf-note" pointer-events="bounding-box"><g class="vf-stem" pointer-events="bounding-box"><path stroke-width="1.5" fill="none" stroke="#000000" stroke-dasharray="none" class="vf-stem" id="vf-auto497492-stem" d="M269.38784 288.09999999999997L269.38784 253.09999999999997"></path></g><g class="vf-notehead" pointer-events="bounding-box"><path stroke-width="0.3" fill="#000000" stroke="none" stroke-dasharray="none" d="M258.1196 288.09999999999997M265.47656 282.87712C265.58888 282.87712,265.75736 282.87712,265.78544 282.87712C265.78544 282.87712,265.81352 282.87712,265.81352 282.87712C265.81352 282.87712,265.98199999999997 282.87712,266.12239999999997 282.87712C268.64959999999996 283.01752,270.13784 284.67423999999994,270.13784 286.75215999999995C270.13784 287.76304,269.80088 288.91432,268.95848 290.00944C267.35792 292.17159999999996,264.74648 293.35096,262.472 293.35096C260.70296 293.35096,259.18664 292.64896,258.45655999999997 291.21687999999995C258.23192 290.65527999999995,258.1196 290.12175999999994,258.1196 289.53207999999995C258.1196 286.47135999999995,261.54536 283.07367999999997,265.47656 282.87712"></path></g></g><g class="vf-modifiers"></g></g><rect stroke-width="0.3" fill="#000000" stroke="#000000" stroke-dasharray="none" x="295.9452224" y="166.5" width="1" height="137.59999999999997"></rect><rect stroke-width="0.3" fill="#000000" stroke="#000000" stroke-dasharray="none" x="70" y="166.5" width="1" height="137.59999999999997"></rect><path stroke-width="1" fill="none" stroke="#000000" stroke-dasharray="none" d="M295.9452224 263.09999999999997L435.71204479999994 263.09999999999997"></path><path stroke-width="1" fill="none" stroke="#000000" stroke-dasharray="none" d="M295.9452224 273.09999999999997L435.71204479999994 273.09999999999997"></path><path stroke-width="1" fill="none" stroke="#000000" stroke-dasharray="none" d="M295.9452224 283.09999999999997L435.71204479999994 283.09999999999997"></path><path stroke-width="1" fill="none" stroke="#000000" stroke-dasharray="none" d="M295.9452224 293.09999999999997L435.71204479999994 293.09999999999997"></path><path stroke-width="1" fill="none" stroke="#000000" stroke-dasharray="none" d="M295.9452224 303.09999999999997L435.71204479999994 303.09999999999997"></path><rect stroke-width="0.3" fill="#000000" stroke="#000000" stroke-dasharray="none" x="435.71204479999994" y="262.59999999999997" width="1" height="41"></rect><g class="vf-stavenote" id="vf-auto497502"><g class="vf-note" pointer-events="bounding-box"><g class="vf-stem" pointer-events="bounding-box"><path stroke-width="1.5" fill="none" stroke="#000000" stroke-dasharray="none" class="vf-stem" id="vf-auto497502-stem" d="M324.21346239999997 293.09999999999997L324.21346239999997 258.09999999999997"></path></g><g class="vf-notehead" pointer-events="bounding-box"><path stroke-width="0.3" fill="#000000" stroke="none" stroke-dasharray="none" d="M312.9452224 293.09999999999997M320.3021824 287.87712C320.4145024 287.87712,320.5829824 287.87712,320.6110624 287.87712C320.6110624 287.87712,320.63914239999997 287.87712,320.63914239999997 287.87712C320.63914239999997 287.87712,320.80762239999996 287.87712,320.94802239999996 287.87712C323.4752224 288.01752,324.96346239999997 289.67423999999994,324.96346239999997 291.75215999999995C324.96346239999997 292.76304,324.6265024 293.91432,323.7841024 295.00944C322.18354239999996 297.17159999999996,319.57210239999995 298.35096,317.29762239999997 298.35096C315.5285824 298.35096,314.0122624 297.64896,313.28218239999995 296.21687999999995C313.0575424 295.65527999999995,312.9452224 295.12175999999994,312.9452224 294.53207999999995C312.9452224 291.47135999999995,316.3709824 288.07367999999997,320.3021824 287.87712"></path></g></g><g class="vf-modifiers"></g></g><g class="vf-stavenote" id="vf-auto497510"><g class="vf-note" pointer-events="bounding-box"><g class="vf-stem" pointer-events="bounding-box"><path stroke-width="1.5" fill="none" stroke="#000000" stroke-dasharray="none" class="vf-stem" id="vf-auto497510-stem" d="M355.21346239999997 293.09999999999997L355.21346239999997 258.09999999999997"></path></g><g class="vf-notehead" pointer-events="bounding-box"><path stroke-width="0.3" fill="#000000" stroke="none" stroke-dasharray="none" d="M343.9452224 293.09999999999997M351.3021824 287.87712C351.4145024 287.87712,351.5829824 287.87712,351.6110624 287.87712C351.6110624 287.87712,351.63914239999997 287.87712,351.63914239999997 287.87712C351.63914239999997 287.87712,351.80762239999996 287.87712,351.94802239999996 287.87712C354.4752224 288.01752,355.96346239999997 289.67423999999994,355.96346239999997 291.75215999999995C355.96346239999997 292.76304,355.6265024 293.91432,354.7841024 295.00944C353.18354239999996 297.17159999999996,350.57210239999995 298.35096,348.29762239999997 298.35096C346.5285824 298.35096,345.0122624 297.64896,344.28218239999995 296.21687999999995C344.0575424 295.65527999999995,343.9452224 295.12175999999994,343.9452224 294.53207999999995C343.9452224 291.47135999999995,347.3709824 288.07367999999997,351.3021824 287.87712"></path></g></g><g class="vf-modifiers"></g></g><g class="vf-stavenote" id="vf-auto497518"><g class="vf-note" pointer-events="bounding-box"><g class="vf-stem" pointer-events="bounding-box"><path stroke-width="1.5" fill="none" stroke="#000000" stroke-dasharray="none" class="vf-stem" id="vf-auto497518-stem" d="M386.21346239999997 293.09999999999997L386.21346239999997 258.09999999999997"></path></g><g class="vf-notehead" pointer-events="bounding-box"><path stroke-width="0.3" fill="#000000" stroke="none" stroke-dasharray="none" d="M374.9452224 293.09999999999997M382.3021824 287.87712C382.4145024 287.87712,382.5829824 287.87712,382.6110624 287.87712C382.6110624 287.87712,382.63914239999997 287.87712,382.63914239999997 287.87712C382.63914239999997 287.87712,382.80762239999996 287.87712,382.94802239999996 287.87712C385.4752224 288.01752,386.96346239999997 289.67423999999994,386.96346239999997 291.75215999999995C386.96346239999997 292.76304,386.6265024 293.91432,385.7841024 295.00944C384.18354239999996 297.17159999999996,381.57210239999995 298.35096,379.29762239999997 298.35096C377.5285824 298.35096,376.0122624 297.64896,375.28218239999995 296.21687999999995C375.0575424 295.65527999999995,374.9452224 295.12175999999994,374.9452224 294.53207999999995C374.9452224 291.47135999999995,378.3709824 288.07367999999997,382.3021824 287.87712"></path></g></g><g class="vf-modifiers"></g></g><g class="vf-stavenote" id="vf-auto497526"><g class="vf-note" pointer-events="bounding-box"><g class="vf-stem" pointer-events="bounding-box"><path stroke-width="1.5" fill="none" stroke="#000000" stroke-dasharray="none" class="vf-stem" id="vf-auto497526-stem" d="M417.21346239999997 283.09999999999997L417.21346239999997 248.09999999999997"></path></g><g class="vf-notehead" pointer-events="bounding-box"><path stroke-width="0.3" fill="#000000" stroke="none" stroke-dasharray="none" d="M405.9452224 283.09999999999997M413.3021824 277.87712C413.4145024 277.87712,413.5829824 277.87712,413.6110624 277.87712C413.6110624 277.87712,413.63914239999997 277.87712,413.63914239999997 277.87712C413.63914239999997 277.87712,413.80762239999996 277.87712,413.94802239999996 277.87712C416.4752224 278.01752,417.96346239999997 279.67423999999994,417.96346239999997 281.75215999999995C417.96346239999997 282.76304,417.6265024 283.91432,416.7841024 285.00944C415.18354239999996 287.17159999999996,412.57210239999995 288.35096,410.29762239999997 288.35096C408.5285824 288.35096,407.0122624 287.64896,406.28218239999995 286.21687999999995C406.0575424 285.65527999999995,405.9452224 285.12175999999994,405.9452224 284.53207999999995C405.9452224 281.47135999999995,409.3709824 278.07367999999997,413.3021824 277.87712"></path></g></g><g class="vf-modifiers"></g></g><rect stroke-width="0.3" fill="#000000" stroke="#000000" stroke-dasharray="none" x="435.71204479999994" y="166.5" width="1" height="137.59999999999997"></rect><path stroke-width="1" fill="none" stroke="#000000" stroke-dasharray="none" d="M435.71204479999994 263.09999999999997L583.8788671999998 263.09999999999997"></path><path stroke-width="1" fill="none" stroke="#000000" stroke-dasharray="none" d="M435.71204479999994 273.09999999999997L583.8788671999998 273.09999999999997"></path><path stroke-width="1" fill="none" stroke="#000000" stroke-dasharray="none" d="M435.71204479999994 283.09999999999997L583.8788671999998 283.09999999999997"></path><path stroke-width="1" fill="none" stroke="#000000" stroke-dasharray="none" d="M435.71204479999994 293.09999999999997L583.8788671999998 293.09999999999997"></path><path stroke-width="1" fill="none" stroke="#000000" stroke-dasharray="none" d="M435.71204479999994 303.09999999999997L583.8788671999998 303.09999999999997"></path><rect stroke-width="0.3" fill="#000000" stroke="#000000" stroke-dasharray="none" x="583.8788671999998" y="262.59999999999997" width="1" height="41"></rect><path stroke-width="1" fill="none" stroke="#000000" stroke-dasharray="none" d="M449.71204479999994 253.09999999999997L467.73028479999994 253.09999999999997"></path><g class="vf-stavenote" id="vf-auto497553"><g class="vf-note" pointer-events="bounding-box"><g class="vf-stem" pointer-events="bounding-box"><path stroke-width="1.5" fill="none" stroke="#000000" stroke-dasharray="none" class="vf-stem" id="vf-auto497553-stem" d="M453.46204479999994 248.09999999999997L453.46204479999994 283.09999999999997"></path></g><g class="vf-notehead" pointer-events="bounding-box"><path stroke-width="0.3" fill="#000000" stroke="none" stroke-dasharray="none" d="M452.71204479999994 248.09999999999997M460.06900479999996 242.87711999999996C460.18132479999997 242.87711999999996,460.34980479999996 242.87711999999996,460.37788479999995 242.87711999999996C460.37788479999995 242.87711999999996,460.40596479999994 242.87711999999996,460.40596479999994 242.87711999999996C460.40596479999994 242.87711999999996,460.5744447999999 242.87711999999996,460.7148447999999 242.87711999999996C463.2420447999999 243.01751999999996,464.73028479999994 244.67423999999997,464.73028479999994 246.75215999999998C464.73028479999994 247.76303999999996,464.39332479999996 248.91431999999998,463.55092479999996 250.00943999999996C461.95036479999993 252.17159999999996,459.3389248 253.35095999999996,457.06444479999993 253.35095999999996C455.2954048 253.35095999999996,453.77908479999996 252.64895999999996,453.0490047999999 251.21687999999997C452.82436479999996 250.65527999999998,452.71204479999994 250.12175999999997,452.71204479999994 249.53207999999998C452.71204479999994 246.47135999999998,456.13780479999997 243.07367999999997,460.06900479999996 242.87711999999996"></path></g></g><g class="vf-modifiers"></g></g><g class="vf-stavenote" id="vf-auto497561"><g class="vf-note" pointer-events="bounding-box"><g class="vf-stem" pointer-events="bounding-box"><path stroke-width="1.5" fill="none" stroke="#000000" stroke-dasharray="none" class="vf-stem" id="vf-auto497561-stem" d="M497.23028479999994 288.09999999999997L497.23028479999994 253.09999999999997"></path></g><g class="vf-notehead" pointer-events="bounding-box"><path stroke-width="0.3" fill="#000000" stroke="none" stroke-dasharray="none" d="M485.96204479999994 288.09999999999997M493.31900479999996 282.87712C493.43132479999997 282.87712,493.59980479999996 282.87712,493.62788479999995 282.87712C493.62788479999995 282.87712,493.65596479999994 282.87712,493.65596479999994 282.87712C493.65596479999994 282.87712,493.8244447999999 282.87712,493.9648447999999 282.87712C496.4920447999999 283.01752,497.98028479999994 284.67423999999994,497.98028479999994 286.75215999999995C497.98028479999994 287.76304,497.64332479999996 288.91432,496.80092479999996 290.00944C495.20036479999993 292.17159999999996,492.5889248 293.35096,490.31444479999993 293.35096C488.5454048 293.35096,487.02908479999996 292.64896,486.2990047999999 291.21687999999995C486.07436479999996 290.65527999999995,485.96204479999994 290.12175999999994,485.96204479999994 289.53207999999995C485.96204479999994 286.47135999999995,489.38780479999997 283.07367999999997,493.31900479999996 282.87712"></path></g></g><g class="vf-modifiers"></g></g><rect stroke-width="0.3" fill="#000000" stroke="#000000" stroke-dasharray="none" x="583.8788671999998" y="166.5" width="1" height="137.59999999999997"></rect><path stroke-width="1" fill="none" stroke="#000000" stroke-dasharray="none" d="M583.8788671999998 263.09999999999997L742.0456895999998 263.09999999999997"></path><path stroke-width="1" fill="none" stroke="#000000" stroke-dasharray="none" d="M583.8788671999998 273.09999999999997L742.0456895999998 273.09999999999997"></path><path stroke-width="1" fill="none" stroke="#000000" stroke-dasharray="none" d="M583.8788671999998 283.09999999999997L742.0456895999998 283.09999999999997"></path><path stroke-width="1" fill="none" stroke="#000000" stroke-dasharray="none" d="M583.8788671999998 293.09999999999997L742.0456895999998 293.09999999999997"></path><path stroke-width="1" fill="none" stroke="#000000" stroke-dasharray="none" d="M583.8788671999998 303.09999999999997L742.0456895999998 303.09999999999997"></path><rect stroke-width="0.3" fill="#000000" stroke="#000000" stroke-dasharray="none" x="737.0456895999998" y="262.59999999999997" width="1" height="41"></rect><rect stroke-width="0.3" fill="#000000" stroke="#000000" stroke-dasharray="none" x="740.0456895999998" y="262.59999999999997" width="3" height="41"></rect><path stroke-width="0.3" fill="#000000" stroke="none" stroke-dasharray="none" d="M736.0456895999998 278.59999999999997 A2 2 0 0 0 732.0456895999998 278.59999999999997M732.0456895999998 278.59999999999997 A2 2 0 0 0 736.0456895999998 278.59999999999997"></path><path stroke-width="0.3" fill="#000000" stroke="none" stroke-dasharray="none" d="M736.0456895999998 288.59999999999997 A2 2 0 0 0 732.0456895999998 288.59999999999997M732.0456895999998 288.59999999999997 A2 2 0 0 0 736.0456895999998 288.59999999999997"></path><g class="vf-stavenote" id="vf-auto497589"><g class="vf-note" pointer-events="bounding-box"><g class="vf-stem" pointer-events="bounding-box"><path stroke-width="1.5" fill="none" stroke="#000000" stroke-dasharray="none" class="vf-stem" id="vf-auto497589-stem" d="M601.6288671999998 263.09999999999997L601.6288671999998 298.09999999999997"></path></g><g class="vf-notehead" pointer-events="bounding-box"><path stroke-width="0.3" fill="#000000" stroke="none" stroke-dasharray="none" d="M600.8788671999998 263.09999999999997M608.2358271999998 257.87712C608.3481471999999 257.87712,608.5166271999998 257.87712,608.5447071999998 257.87712C608.5447071999998 257.87712,608.5727871999999 257.87712,608.5727871999999 257.87712C608.5727871999999 257.87712,608.7412671999998 257.87712,608.8816671999998 257.87712C611.4088671999998 258.01752,612.8971071999998 259.67423999999994,612.8971071999998 261.75215999999995C612.8971071999998 262.76304,612.5601471999998 263.91432,611.7177471999998 265.00944C610.1171871999999 267.17159999999996,607.5057471999999 268.35096,605.2312671999998 268.35096C603.4622271999998 268.35096,601.9459071999999 267.64896,601.2158271999998 266.21687999999995C600.9911871999998 265.65527999999995,600.8788671999998 265.12175999999994,600.8788671999998 264.53207999999995C600.8788671999998 261.47135999999995,604.3046271999998 258.07367999999997,608.2358271999998 257.87712"></path></g></g><g class="vf-modifiers"></g></g><g class="vf-stavenote" id="vf-auto497597"><g class="vf-note" pointer-events="bounding-box"><g class="vf-stem" pointer-events="bounding-box"><path stroke-width="1.5" fill="none" stroke="#000000" stroke-dasharray="none" class="vf-stem" id="vf-auto497597-stem" d="M647.8971071999998 298.09999999999997L647.8971071999998 263.09999999999997"></path></g><g class="vf-notehead" pointer-events="bounding-box"><path stroke-width="0.3" fill="#000000" stroke="none" stroke-dasharray="none" d="M636.6288671999998 298.09999999999997M643.9858271999998 292.87712C644.0981471999999 292.87712,644.2666271999998 292.87712,644.2947071999998 292.87712C644.2947071999998 292.87712,644.3227871999999 292.87712,644.3227871999999 292.87712C644.3227871999999 292.87712,644.4912671999998 292.87712,644.6316671999998 292.87712C647.1588671999998 293.01752,648.6471071999998 294.67423999999994,648.6471071999998 296.75215999999995C648.6471071999998 297.76304,648.3101471999998 298.91432,647.4677471999998 300.00944C645.8671871999999 302.17159999999996,643.2557471999999 303.35096,640.9812671999998 303.35096C639.2122271999998 303.35096,637.6959071999999 302.64896,636.9658271999998 301.21687999999995C636.7411871999998 300.65527999999995,636.6288671999998 300.12175999999994,636.6288671999998 299.53207999999995C636.6288671999998 296.47135999999995,640.0546271999998 293.07367999999997,643.9858271999998 292.87712"></path></g></g><g class="vf-modifiers"></g></g><rect stroke-width="0.3" fill="#000000" stroke="#000000" stroke-dasharray="none" x="737.0456895999998" y="166.5" width="1" height="137.59999999999997"></rect><rect stroke-width="0.3" fill="#000000" stroke="#000000" stroke-dasharray="none" x="740.0456895999998" y="166.5" width="3" height="137.59999999999997"></rect><path stroke-width="0.3" fill="#000000" stroke="none" stroke-dasharray="none" d="M68 166.5C45.2 194.01999999999998,81.2 216.724,56 235.29999999999998C81.2 253.87599999999998,45.2 276.58,68 304.09999999999997C44 276.58,72.8 253.87599999999998,56 235.29999999999998C72.8 216.724,44 194.01999999999998,68 166.5"></path><path stroke-width="1" fill="none" stroke="#000000" stroke-dasharray="none" d="M68 166.5C45.2 194.01999999999998,81.2 216.724,56 235.29999999999998C81.2 253.87599999999998,45.2 276.58,68 304.09999999999997C44 276.58,72.8 253.87599999999998,56 235.29999999999998C72.8 216.724,44 194.01999999999998,68 166.5"></path><g class="vf-text"><text stroke-width="0.3" fill="#000000" stroke="none" stroke-dasharray="none" font-family="Times New Roman" font-size="15px" font-weight="normal" font-style="normal" x="432.2120447999999" y="163.5">3</text></g></svg>