<svg xmlns="http://www.w3.org/2000/svg"  width="1470" height="393.6" viewBox="0 0 1470 393.6"><path stroke-width="1" fill="none" stroke="#000000" stroke-dasharray="none" d="M70 166.5L300.14522239999997 166.5"></path><path stroke-width="1" fill="none" stroke="#000000" stroke-dasharray="none" d="M70 176.5L300.14522239999997 176.5"></path><path stroke-width="1" fill="none" stroke="#000000" stroke-dasharray="none" d="M70 186.5L300.14522239999997 186.5"></path><path stroke-width="1" fill="none" stroke="#000000" stroke-dasharray="none" d="M70 196.5L300.14522239999997 196.5"></path><path stroke-width="1" fill="none" stroke="#000000" stroke-dasharray="none" d="M70 206.5L300.14522239999997 206.5"></path><rect stroke-width="0.3" fill="#000000" stroke="#000000" stroke-dasharray="none" x="300.14522239999997" y="166" width="1" height="41"></rect><g class="vf-clef"><path stroke-width="0.3" fill="#000000" stroke="none" stroke-dasharray="none" d="M75 196.5M89.0544 153.3288C89.112 153.3,89.1696 153.3,89.256 153.3C89.6016 153.3,90.0048 153.588,90.5808 154.308C92.9136 156.9864,94.5552 161.652,94.5552 165.4536C94.5552 165.7416,94.4976 165.972,94.4976 166.26C94.2384 170.7816,92.3952 174.4968,88.7376 178.0104L87.7584 178.9608L87.4128 179.3352L87.4128 179.4504L87.6144 180.3144L87.9312 181.8696L88.248 183.3096C88.68 185.268,88.8528 186.276,88.8528 186.276C88.8528 186.276,88.8528 186.276,88.8528 186.276C88.8528 186.276,88.968 186.276,89.112 186.2472C89.256 186.2472,89.7168 186.1896,90.2064 186.1896C90.55199999999999 186.1896,90.8976 186.2472,91.0704 186.2472C95.1312 186.7656,98.2704 189.6744,99.1632 193.764C99.336 194.4264,99.39359999999999 195.1464,99.39359999999999 195.8664C99.39359999999999 199.7544,97.0608 203.4696,93.1728 205.2264C92.94239999999999 205.3704,92.856 205.3992,92.856 205.3992L92.856 205.428C92.856 205.428,93.0288 206.0904,93.1728 206.8392L93.6048 209.028L94.008 210.7848C94.2384 211.908,94.3536 212.7144,94.3536 213.4344C94.3536 214.06799999999998,94.2672 214.644,94.1232 215.3064C93.144 219.3096,89.6592 221.7,86.0304 221.7C84.2448 221.7,82.4016 221.124,80.7888 219.828C79.3488 218.6184,78.7152 217.524,78.7152 216.084C78.7152 213.5496,80.76 211.764,82.8912 211.764C83.64 211.764,84.3888 211.99439999999998,85.1088 212.4264C86.3184 213.2616,86.8656 214.5288,86.8656 215.7672C86.8656 217.668,85.5408 219.54,83.2656 219.684L83.0352 219.684L83.208 219.79919999999998C84.1584 220.2024,85.1088 220.404,86.0304 220.404C88.3632 220.404,90.55199999999999 219.2232,91.8768 217.1784C92.62559999999999 216.0264,93.0288 214.6728,93.0288 213.3192C93.0288 212.8008,92.94239999999999 212.2824,92.8272 211.7064C92.8272 211.6488,92.74080000000001 211.188,92.62559999999999 210.756C91.992 207.6456,91.6176 205.8312,91.6176 205.8312C91.6176 205.8312,91.6176 205.8312,91.6176 205.8312C91.56 205.8312,91.4448 205.8312,91.3584 205.8888C91.0704 205.9464,90.4656 206.0904,90.2064 206.1192C89.5728 206.2056,88.968 206.2344,88.392 206.2344C82.74719999999999 206.2344,77.5056 202.4328,75.6912 196.8168C75.2304 195.3192,74.9712 193.8216,74.9712 192.324C74.9712 189.3288,75.9216 186.3912,77.7648 183.7704C79.7808 180.9192,81.7968 178.4712,84.2736 175.9368L85.13759999999999 175.044L84.936 173.9784L84.5616 172.2216L84.072 169.9752C83.928 169.14,83.7552 168.3336,83.7264 168.1608C83.5824 167.2104,83.496 166.2888,83.496 165.3384C83.496 161.7096,84.6768 158.22480000000002,86.8944 155.4312C87.5568 154.5672,88.7376 153.4152,89.0544 153.3288M90.8112 159.0312C90.7536 159.0312,90.6672 159.0312,90.5808 159.0312C89.4 159.0312,87.8736 160.1256,86.8368 161.7384C85.7712 163.32240000000002,85.224 165.4248,85.224 167.5848C85.224 168.1608,85.25280000000001 168.7656,85.3392 169.3704C85.4256 169.8024,85.45439999999999 170.0904,85.6848 171.12720000000002L86.088 172.9416C86.2032 173.4888,86.28960000000001 173.92079999999999,86.28960000000001 173.9784L86.28960000000001 173.9784C86.3184 173.9784,87.2112 172.9992,87.4992 172.6536C90.3792 169.3992,92.1072 165.972,92.4816 162.948C92.5104 162.66,92.5104 162.4296,92.5104 162.1416C92.5104 161.24880000000002,92.3952 160.38479999999998,92.1936 159.924C91.9632 159.4632,91.4448 159.0888,90.8112 159.0312M86.4624 181.2936C86.4048 180.8904,86.3184 180.5736,86.3184 180.516C86.3184 180.516,86.3184 180.516,86.28960000000001 180.516C86.232 180.516,84.9936 181.956,84.1296 182.964C82.6608 184.7496,81.1056 186.8808,80.472 187.9176C79.2624 189.9624,78.6576 192.2376,78.6576 194.484C78.6576 195.9528,78.9456 197.364,79.464 198.7176C81.0192 202.7208,84.5904 205.2264,88.4784 205.2264C88.9392 205.2264,89.4576 205.1976,89.9472 205.1112C90.5808 204.996,91.3584 204.7656,91.3584 204.6792L91.3584 204.6792C91.3584 204.6792,91.3008 204.3912,91.2144 204.0744L90.3792 199.956L89.7168 196.8744L89.2848 194.7432L88.824 192.6696C88.5936 191.4312,88.5072 191.1144,88.5072 191.1144C88.5072 191.1144,88.5072 191.0856,88.4784 191.0856C88.3056 191.0856,87.384 191.5464,86.9808 191.8344C85.4832 192.8712,84.7056 194.5128,84.7056 196.1256C84.7056 197.652,85.45439999999999 199.1784,86.8944 200.0712C87.2112 200.2728,87.3264 200.4456,87.3264 200.6472C87.3264 200.676,87.3264 200.7624,87.3264 200.7912C87.2688 201.1368,87.0672 201.2808,86.7792 201.2808C86.664 201.2808,86.52 201.252,86.3472 201.1656C83.6976 200.0136,81.912 197.2776,81.912 194.2824L81.912 194.2824C81.912 190.8264,84.072 187.8312,87.384 186.6504L87.5568 186.5928L87.2688 185.1528L86.4624 181.2936M90.7824 190.9128C90.55199999999999 190.88400000000001,90.3216 190.88400000000001,90.1488 190.88400000000001C90.0912 190.88400000000001,90.0048 190.88400000000001,89.9472 190.88400000000001L89.8032 190.88400000000001L89.9184 191.4024L90.5232 194.2248L90.8976 196.068L91.3008 197.8824L92.1072 201.8856L92.424 203.412C92.5392 203.8152,92.5968 204.1608,92.62559999999999 204.1608C92.62559999999999 204.1608,92.62559999999999 204.1608,92.62559999999999 204.1608C92.6544 204.1608,93.144 203.8728,93.4608 203.6424C94.9296 202.6056,96.024 200.9928,96.4272 199.3224C96.5712 198.7752,96.6288 198.1992,96.6288 197.652C96.6288 194.3112,94.152 191.2872,90.7824 190.9128"></path></g><path stroke-width="0.3" fill="#000000" stroke="none" stroke-dasharray="none" d="M116 186.5M121.0112 168.1544C121.04 168.1256,121.4432 168.1256,122.6816 168.1256C123.056 168.1256,123.4592 168.1256,123.9776 168.1256L126.8864 168.1256L126.9728 168.212C127.1168 168.29840000000002,127.2032 168.4424,127.2032 168.5576C127.2032 168.7304,127.1168 168.8456,127.0016 168.9608C126.9728 169.0472,126.7136 169.2776,126.5408 169.5368L125.0144 171.2936L123.056 173.5112L122.0192 174.692L120.464 176.4776L118.4192 178.8104C118.0736 179.2424,117.6992 179.588,117.6992 179.588C117.6992 179.588,117.6992 179.588,117.6992 179.588C117.6992 179.6456,117.9584 179.6456,120.3488 179.6456L122.9696 179.6456L122.9696 177.7736C122.9696 175.8728,122.9696 175.844,122.9984 175.8152C123.056 175.7288,123.3152 175.412,124.3232 174.2312L124.7264 173.7992L125.1296 173.3672L125.7344 172.5896L126.368 171.9272L126.6848 171.524C126.8 171.3512,126.9728 171.3224,127.1168 171.3224C127.28960000000001 171.3224,127.4336 171.4088,127.52 171.5528C127.5488 171.6392,127.5488 171.6968,127.5488 173.828C127.5488 174.3176,127.5488 174.9224,127.5488 175.6424L127.5488 179.6456L128.2688 179.6456C128.9312 179.6456,128.96 179.6456,129.0464 179.6744C129.2768 179.7608,129.392 179.9912,129.392 180.2504C129.392 180.3944,129.3632 180.5672,129.248 180.6824C129.0752 180.8264,129.0464 180.8264,128.2688 180.8264L127.5488 180.8264L127.5488 181.316C127.5776 182.7848,127.8656 183.3608,128.9888 183.9656C129.392 184.1672,129.4784 184.2248,129.4784 184.5128C129.4784 184.7144,129.42079999999999 184.8008,129.2768 184.916L129.1904 184.9448L125.2448 184.9448L121.328 184.9448L121.2416 184.916C121.0688 184.8008,121.04 184.7144,121.04 184.5128C121.04 184.2248,121.0688 184.1672,121.5008 183.9656C122.624 183.3608,122.912 182.7848,122.912 181.316L122.912 180.8264L119.6 180.8264C118.9952 180.88400000000001,118.5056 180.88400000000001,118.1024 180.88400000000001C116.288 180.88400000000001,116.2592 180.8264,116.2304 180.8264C116.0576 180.7688,116 180.596,116 180.3944C116 180.3944,116 180.3944,116 180.3944C116 180.1928,116 180.1928,116.576 179.5304C118.9952 176.5928,120.6944 172.3304,120.6944 168.93200000000002C120.6944 168.4136,120.7808 168.2408,121.0112 168.1544M122.7392 186.5288L122.768 186.5288L122.6816 186.5288L122.7392 186.5288M122.7392 167.1176L122.768 167.1176L122.6816 167.1176L122.7392 167.1176"></path><path stroke-width="0.3" fill="#000000" stroke="none" stroke-dasharray="none" d="M116 206.5M121.0112 188.1544C121.04 188.1256,121.4432 188.1256,122.6816 188.1256C123.056 188.1256,123.4592 188.1256,123.9776 188.1256L126.8864 188.1256L126.9728 188.212C127.1168 188.29840000000002,127.2032 188.4424,127.2032 188.5576C127.2032 188.7304,127.1168 188.8456,127.0016 188.9608C126.9728 189.0472,126.7136 189.2776,126.5408 189.5368L125.0144 191.2936L123.056 193.5112L122.0192 194.692L120.464 196.4776L118.4192 198.8104C118.0736 199.2424,117.6992 199.588,117.6992 199.588C117.6992 199.588,117.6992 199.588,117.6992 199.588C117.6992 199.6456,117.9584 199.6456,120.3488 199.6456L122.9696 199.6456L122.9696 197.7736C122.9696 195.8728,122.9696 195.844,122.9984 195.8152C123.056 195.7288,123.3152 195.412,124.3232 194.2312L124.7264 193.7992L125.1296 193.3672L125.7344 192.5896L126.368 191.9272L126.6848 191.524C126.8 191.3512,126.9728 191.3224,127.1168 191.3224C127.28960000000001 191.3224,127.4336 191.4088,127.52 191.5528C127.5488 191.6392,127.5488 191.6968,127.5488 193.828C127.5488 194.3176,127.5488 194.9224,127.5488 195.6424L127.5488 199.6456L128.2688 199.6456C128.9312 199.6456,128.96 199.6456,129.0464 199.6744C129.2768 199.7608,129.392 199.9912,129.392 200.2504C129.392 200.3944,129.3632 200.5672,129.248 200.6824C129.0752 200.8264,129.0464 200.8264,128.2688 200.8264L127.5488 200.8264L127.5488 201.316C127.5776 202.7848,127.8656 203.3608,128.9888 203.9656C129.392 204.1672,129.4784 204.2248,129.4784 204.5128C129.4784 204.7144,129.42079999999999 204.8008,129.2768 204.916L129.1904 204.9448L125.2448 204.9448L121.328 204.9448L121.2416 204.916C121.0688 204.8008,121.04 204.7144,121.04 204.5128C121.04 204.2248,121.0688 204.1672,121.5008 203.9656C122.624 203.3608,122.912 202.7848,122.912 201.316L122.912 200.8264L119.6 200.8264C118.9952 200.88400000000001,118.5056 200.88400000000001,118.1024 200.88400000000001C116.288 200.88400000000001,116.2592 200.8264,116.2304 200.8264C116.0576 200.7688,116 200.596,116 200.3944C116 200.3944,116 200.3944,116 200.3944C116 200.1928,116 200.1928,116.576 199.5304C118.9952 196.5928,120.6944 192.3304,120.6944 188.93200000000002C120.6944 188.4136,120.7808 188.2408,121.0112 188.1544M122.7392 206.5288L122.768 206.5288L122.6816 206.5288L122.7392 206.5288M122.7392 187.1176L122.768 187.1176L122.6816 187.1176L122.7392 187.1176"></path><path stroke-width="1" fill="none" stroke="#000000" stroke-dasharray="none" d="M178.6088 216.5L196.62704 216.5"></path><g class="vf-stavenote" id="vf-auto4369136"><g class="vf-note" pointer-events="bounding-box"><g class="vf-stem" pointer-events="bounding-box"><path stroke-width="1.5" fill="none" stroke="#000000" stroke-dasharray="none" class="vf-stem" id="vf-auto4369136-stem" d="M192.87704 221.5L192.87704 186.5"></path></g><g class="vf-notehead" pointer-events="bounding-box"><path stroke-width="0.3" fill="#000000" stroke="none" stroke-dasharray="none" d="M181.6088 221.5M188.96576 216.27712C189.07808 216.27712,189.24656 216.27712,189.27464 216.27712C189.27464 216.27712,189.30272 216.27712,189.30272 216.27712C189.30272 216.27712,189.4712 216.27712,189.6116 216.27712C192.1388 216.41752,193.62704 218.07424,193.62704 220.15216C193.62704 221.16304,193.29008 222.31432,192.44768 223.40944C190.84712 225.5716,188.23568 226.75096,185.9612 226.75096C184.19216 226.75096,182.67584 226.04896,181.94576 224.61688C181.72112 224.05528,181.6088 223.52176,181.6088 222.93208C181.6088 219.87136,185.03456 216.47368,188.96576 216.27712"></path></g></g><g class="vf-modifiers"></g></g><g class="vf-stavenote" id="vf-auto4369144"><g class="vf-note" pointer-events="bounding-box"><g class="vf-stem" pointer-events="bounding-box"><path stroke-width="1.5" fill="none" stroke="#000000" stroke-dasharray="none" class="vf-stem" id="vf-auto4369144-stem" d="M273.13784 206.5L273.13784 171.5"></path></g><g class="vf-notehead" pointer-events="bounding-box"><path stroke-width="0.3" fill="#000000" stroke="none" stroke-dasharray="none" d="M261.8696 206.5M269.22656 201.27712C269.33888 201.27712,269.50736 201.27712,269.53544 201.27712C269.53544 201.27712,269.56352 201.27712,269.56352 201.27712C269.56352 201.27712,269.73199999999997 201.27712,269.87239999999997 201.27712C272.39959999999996 201.41752,273.88784 203.07424,273.88784 205.15216C273.88784 206.16304,273.55088 207.31432,272.70848 208.40944C271.10792 210.5716,268.49648 211.75096,266.222 211.75096C264.45296 211.75096,262.93664 211.04896,262.20655999999997 209.61688C261.98192 209.05528,261.8696 208.52176,261.8696 207.93208C261.8696 204.87136,265.29536 201.47368,269.22656 201.27712"></path></g></g><g class="vf-modifiers"></g></g><path stroke-width="1" fill="none" stroke="#000000" stroke-dasharray="none" d="M300.14522239999997 166.5L452.5120447999999 166.5"></path><path stroke-width="1" fill="none" stroke="#000000" stroke-dasharray="none" d="M300.14522239999997 176.5L452.5120447999999 176.5"></path><path stroke-width="1" fill="none" stroke="#000000" stroke-dasharray="none" d="M300.14522239999997 186.5L452.5120447999999 186.5"></path><path stroke-width="1" fill="none" stroke="#000000" stroke-dasharray="none" d="M300.14522239999997 196.5L452.5120447999999 196.5"></path><path stroke-width="1" fill="none" stroke="#000000" stroke-dasharray="none" d="M300.14522239999997 206.5L452.5120447999999 206.5"></path><rect stroke-width="0.3" fill="#000000" stroke="#000000" stroke-dasharray="none" x="452.5120447999999" y="166" width="1" height="41"></rect><g class="vf-stavenote" id="vf-auto4369174"><g class="vf-note" pointer-events="bounding-box"><g class="vf-stem" pointer-events="bounding-box"><path stroke-width="1.5" fill="none" stroke="#000000" stroke-dasharray="none" class="vf-stem" id="vf-auto4369174-stem" d="M317.89522239999997 186.5L317.89522239999997 221.5"></path></g><g class="vf-notehead" pointer-events="bounding-box"><path stroke-width="0.3" fill="#000000" stroke="none" stroke-dasharray="none" d="M317.14522239999997 186.5M324.5021824 181.27712C324.6145024 181.27712,324.7829824 181.27712,324.81106239999997 181.27712C324.81106239999997 181.27712,324.83914239999996 181.27712,324.83914239999996 181.27712C324.83914239999996 181.27712,325.00762239999995 181.27712,325.14802239999995 181.27712C327.67522239999994 181.41752,329.16346239999996 183.07424,329.16346239999996 185.15216C329.16346239999996 186.16304,328.8265024 187.31432,327.9841024 188.40944C326.38354239999995 190.5716,323.7721024 191.75096,321.49762239999995 191.75096C319.7285824 191.75096,318.2122624 191.04896,317.48218239999994 189.61688C317.2575424 189.05528,317.14522239999997 188.52176,317.14522239999997 187.93208C317.14522239999997 184.87136,320.5709824 181.47368,324.5021824 181.27712"></path></g></g><g class="vf-modifiers"></g></g><g class="vf-stavenote" id="vf-auto4369182"><g class="vf-note" pointer-events="bounding-box"><g class="vf-stem" pointer-events="bounding-box"><path stroke-width="1.5" fill="none" stroke="#000000" stroke-dasharray="none" class="vf-stem" id="vf-auto4369182-stem" d="M352.14522239999997 186.5L352.14522239999997 221.5"></path></g><g class="vf-notehead" pointer-events="bounding-box"><path stroke-width="0.3" fill="#000000" stroke="none" stroke-dasharray="none" d="M351.39522239999997 186.5M358.7521824 181.27712C358.8645024 181.27712,359.0329824 181.27712,359.06106239999997 181.27712C359.06106239999997 181.27712,359.08914239999996 181.27712,359.08914239999996 181.27712C359.08914239999996 181.27712,359.25762239999995 181.27712,359.39802239999995 181.27712C361.92522239999994 181.41752,363.41346239999996 183.07424,363.41346239999996 185.15216C363.41346239999996 186.16304,363.0765024 187.31432,362.2341024 188.40944C360.63354239999995 190.5716,358.0221024 191.75096,355.74762239999995 191.75096C353.9785824 191.75096,352.4622624 191.04896,351.73218239999994 189.61688C351.5075424 189.05528,351.39522239999997 188.52176,351.39522239999997 187.93208C351.39522239999997 184.87136,354.8209824 181.47368,358.7521824 181.27712"></path></g></g><g class="vf-modifiers"></g></g><g class="vf-stavenote" id="vf-auto4369190"><g class="vf-note" pointer-events="bounding-box"><g class="vf-stem" pointer-events="bounding-box"><path stroke-width="1.5" fill="none" stroke="#000000" stroke-dasharray="none" class="vf-stem" id="vf-auto4369190-stem" d="M431.16346239999996 206.5L431.16346239999996 171.5"></path></g><g class="vf-notehead" pointer-events="bounding-box"><path stroke-width="0.3" fill="#000000" stroke="none" stroke-dasharray="none" d="M419.89522239999997 206.5M427.2521824 201.27712C427.3645024 201.27712,427.5329824 201.27712,427.56106239999997 201.27712C427.56106239999997 201.27712,427.58914239999996 201.27712,427.58914239999996 201.27712C427.58914239999996 201.27712,427.75762239999995 201.27712,427.89802239999995 201.27712C430.42522239999994 201.41752,431.91346239999996 203.07424,431.91346239999996 205.15216C431.91346239999996 206.16304,431.5765024 207.31432,430.7341024 208.40944C429.13354239999995 210.5716,426.5221024 211.75096,424.24762239999995 211.75096C422.4785824 211.75096,420.9622624 211.04896,420.23218239999994 209.61688C420.0075424 209.05528,419.89522239999997 208.52176,419.89522239999997 207.93208C419.89522239999997 204.87136,423.3209824 201.47368,427.2521824 201.27712"></path></g></g><g class="vf-modifiers"></g></g><path stroke-width="1" fill="none" stroke="#000000" stroke-dasharray="none" d="M452.5120447999999 166.5L600.6788671999998 166.5"></path><path stroke-width="1" fill="none" stroke="#000000" stroke-dasharray="none" d="M452.5120447999999 176.5L600.6788671999998 176.5"></path><path stroke-width="1" fill="none" stroke="#000000" stroke-dasharray="none" d="M452.5120447999999 186.5L600.6788671999998 186.5"></path><path stroke-width="1" fill="none" stroke="#000000" stroke-dasharray="none" d="M452.5120447999999 196.5L600.6788671999998 196.5"></path><path stroke-width="1" fill="none" stroke="#000000" stroke-dasharray="none" d="M452.5120447999999 206.5L600.6788671999998 206.5"></path><rect stroke-width="0.3" fill="#000000" stroke="#000000" stroke-dasharray="none" x="600.6788671999998" y="166" width="1" height="41"></rect><path stroke-width="1" fill="none" stroke="#000000" stroke-dasharray="none" d="M499.7620447999999 216.5L517.7802847999999 216.5"></path><g class="vf-stavenote" id="vf-auto4369211"><g class="vf-note" pointer-events="bounding-box"><g class="vf-stem" pointer-events="bounding-box"><path stroke-width="1.5" fill="none" stroke="#000000" stroke-dasharray="none" class="vf-stem" id="vf-auto4369211-stem" d="M514.0302847999999 221.5L514.0302847999999 186.5"></path></g><g class="vf-notehead" pointer-events="bounding-box"><path stroke-width="0.3" fill="#000000" stroke="none" stroke-dasharray="none" d="M502.7620447999999 221.5M510.1190047999999 216.27712C510.2313247999999 216.27712,510.3998047999999 216.27712,510.4278847999999 216.27712C510.4278847999999 216.27712,510.4559647999999 216.27712,510.4559647999999 216.27712C510.4559647999999 216.27712,510.6244447999999 216.27712,510.7648447999999 216.27712C513.2920447999999 216.41752,514.7802847999999 218.07424,514.7802847999999 220.15216C514.7802847999999 221.16304,514.4433247999999 222.31432,513.6009247999999 223.40944C512.0003647999999 225.5716,509.3889247999999 226.75096,507.1144447999999 226.75096C505.3454047999999 226.75096,503.8290847999999 226.04896,503.0990047999999 224.61688C502.8743647999999 224.05528,502.7620447999999 223.52176,502.7620447999999 222.93208C502.7620447999999 219.87136,506.1878047999999 216.47368,510.1190047999999 216.27712"></path></g></g><g class="vf-modifiers"></g></g><g class="vf-stavenote" id="vf-auto4369219"><g class="vf-note" pointer-events="bounding-box"><g class="vf-stem" pointer-events="bounding-box"><path stroke-width="1.5" fill="none" stroke="#000000" stroke-dasharray="none" class="vf-stem" id="vf-auto4369219-stem" d="M547.2802847999999 211.5L547.2802847999999 176.5"></path></g><g class="vf-notehead" pointer-events="bounding-box"><path stroke-width="0.3" fill="#000000" stroke="none" stroke-dasharray="none" d="M536.0120447999999 211.5M543.3690047999999 206.27712C543.4813247999999 206.27712,543.6498047999999 206.27712,543.6778847999999 206.27712C543.6778847999999 206.27712,543.7059648 206.27712,543.7059648 206.27712C543.7059648 206.27712,543.8744447999999 206.27712,544.0148447999999 206.27712C546.5420447999999 206.41752,548.0302847999999 208.07424,548.0302847999999 210.15216C548.0302847999999 211.16304,547.6933247999999 212.31432,546.8509247999999 213.40944C545.2503647999999 215.5716,542.6389247999999 216.75096,540.3644447999999 216.75096C538.5954047999999 216.75096,537.0790847999999 216.04896,536.3490047999999 214.61688C536.1243647999999 214.05528,536.0120447999999 213.52176,536.0120447999999 212.93208C536.0120447999999 209.87136,539.4378047999999 206.47368,543.3690047999999 206.27712"></path></g></g><g class="vf-modifiers"></g></g><path stroke-width="1" fill="none" stroke="#000000" stroke-dasharray="none" d="M600.6788671999999 166.5L754.6456895999999 166.5"></path><path stroke-width="1" fill="none" stroke="#000000" stroke-dasharray="none" d="M600.6788671999999 176.5L754.6456895999999 176.5"></path><path stroke-width="1" fill="none" stroke="#000000" stroke-dasharray="none" d="M600.6788671999999 186.5L754.6456895999999 186.5"></path><path stroke-width="1" fill="none" stroke="#000000" stroke-dasharray="none" d="M600.6788671999999 196.5L754.6456895999999 196.5"></path><path stroke-width="1" fill="none" stroke="#000000" stroke-dasharray="none" d="M600.6788671999999 206.5L754.6456895999999 206.5"></path><rect stroke-width="0.3" fill="#000000" stroke="#000000" stroke-dasharray="none" x="749.6456895999999" y="166" width="1" height="41"></rect><rect stroke-width="0.3" fill="#000000" stroke="#000000" stroke-dasharray="none" x="752.6456895999999" y="166" width="3" height="41"></rect><path stroke-width="0.3" fill="#000000" stroke="none" stroke-dasharray="none" d="M748.6456895999999 182 A2 2 0 0 0 744.6456895999999 182M744.6456895999999 182 A2 2 0 0 0 748.6456895999999 182"></path><path stroke-width="0.3" fill="#000000" stroke="none" stroke-dasharray="none" d="M748.6456895999999 192 A2 2 0 0 0 744.6456895999999 192M744.6456895999999 192 A2 2 0 0 0 748.6456895999999 192"></path><path stroke-width="1" fill="none" stroke="#000000" stroke-dasharray="none" d="M718.1788671999999 216.5L736.1971071999999 216.5"></path><g class="vf-stavenote" id="vf-auto4369248"><g class="vf-note" pointer-events="bounding-box"><g class="vf-stem" pointer-events="bounding-box"><path stroke-width="1.5" fill="none" stroke="#000000" stroke-dasharray="none" class="vf-stem" id="vf-auto4369248-stem" d="M732.4471071999999 221.5L732.4471071999999 186.5"></path></g><g class="vf-notehead" pointer-events="bounding-box"><path stroke-width="0.3" fill="#000000" stroke="none" stroke-dasharray="none" d="M721.1788671999999 221.5M728.5358271999999 216.27712C728.6481471999999 216.27712,728.8166271999999 216.27712,728.8447071999999 216.27712C728.8447071999999 216.27712,728.8727872 216.27712,728.8727872 216.27712C728.8727872 216.27712,729.0412671999999 216.27712,729.1816671999999 216.27712C731.7088671999999 216.41752,733.1971071999999 218.07424,733.1971071999999 220.15216C733.1971071999999 221.16304,732.8601471999999 222.31432,732.0177471999999 223.40944C730.4171872 225.5716,727.8057471999999 226.75096,725.5312671999999 226.75096C723.7622271999999 226.75096,722.2459071999999 226.04896,721.5158271999999 224.61688C721.2911871999999 224.05528,721.1788671999999 223.52176,721.1788671999999 222.93208C721.1788671999999 219.87136,724.6046271999999 216.47368,728.5358271999999 216.27712"></path></g></g><g class="vf-modifiers"></g></g><g class="vf-text"><text stroke-width="0.3" fill="#000000" stroke="none" stroke-dasharray="none" font-family="Times New Roman" font-size="23px" font-weight="bold" font-style="italic" x="159.9784" y="249.29999999999998">pp</text></g><path stroke-width="1" fill="none" stroke="#000000" stroke-dasharray="none" d="M70 268.09999999999997L300.14522239999997 268.09999999999997"></path><path stroke-width="1" fill="none" stroke="#000000" stroke-dasharray="none" d="M70 278.09999999999997L300.14522239999997 278.09999999999997"></path><path stroke-width="1" fill="none" stroke="#000000" stroke-dasharray="none" d="M70 288.09999999999997L300.14522239999997 288.09999999999997"></path><path stroke-width="1" fill="none" stroke="#000000" stroke-dasharray="none" d="M70 298.09999999999997L300.14522239999997 298.09999999999997"></path><path stroke-width="1" fill="none" stroke="#000000" stroke-dasharray="none" d="M70 308.09999999999997L300.14522239999997 308.09999999999997"></path><rect stroke-width="0.3" fill="#000000" stroke="#000000" stroke-dasharray="none" x="300.14522239999997" y="267.59999999999997" width="1" height="41"></rect><g class="vf-clef"><path stroke-width="0.3" fill="#000000" stroke="none" stroke-dasharray="none" d="M75 278.09999999999997M83.8416 268.04879999999997C84.072 267.9912,84.3024 267.9912,84.5616 267.9912C85.5696 267.9912,86.7504 268.10639999999995,87.7584 268.308C92.4816 269.2872,95.736 272.484,96.3408 276.7464C96.3984 277.20719999999994,96.4272 277.63919999999996,96.4272 278.09999999999997C96.4272 280.69199999999995,95.5344 284.03279999999995,94.008 286.8264C90.3792 293.39279999999997,83.7552 298.116,75.8064 299.84399999999994C75.6624 299.84399999999994,75.5472 299.8728,75.4032 299.8728C75.1152 299.8728,74.9712 299.7,74.9712 299.44079999999997C74.9712 299.15279999999996,75.0288 299.0664,75.6048 298.83599999999996C84.7056 295.4088,90.7824 288.00719999999995,91.3296 279.71279999999996C91.3584 279.28079999999994,91.3584 278.79119999999995,91.3584 278.41679999999997C91.3584 274.3848,90.12 271.3896,87.7296 269.89199999999994C86.6928 269.22959999999995,85.5696 268.91279999999995,84.36 268.91279999999995C81.6816 268.91279999999995,78.9456 270.43919999999997,77.6784 273.00239999999997C77.6208 273.20399999999995,77.4192 273.63599999999997,77.4192 273.66479999999996C77.4192 273.66479999999996,77.4192 273.66479999999996,77.4192 273.66479999999996C77.4192 273.66479999999996,77.448 273.63599999999997,77.5344 273.6072C78.168 273.20399999999995,78.8592 273.00239999999997,79.5792 273.00239999999997C80.5872 273.00239999999997,81.6528 273.4344,82.4016 274.2408C83.0928 274.98959999999994,83.4672 275.9976,83.4672 276.9192C83.4672 278.79119999999995,82.0848 280.69199999999995,79.9248 280.8936C79.7808 280.8936,79.6368 280.9224,79.4928 280.9224C77.1024 280.9224,75.1728 278.73359999999997,75.1728 275.9688C75.1728 275.91119999999995,75.1728 275.8248,75.1728 275.796C75.288 271.6776,79.0608 268.308,83.8416 268.04879999999997M99.1632 271.90799999999996C99.2208 271.87919999999997,99.2496 271.87919999999997,99.336 271.87919999999997C99.5376 271.87919999999997,99.768 271.90799999999996,99.8256 271.9656C100.54560000000001 272.1672,100.8912 272.8008,100.8912 273.4056C100.8912 273.924,100.632 274.44239999999996,100.11359999999999 274.7304C99.912 274.8744,99.6528 274.90319999999997,99.39359999999999 274.90319999999997C98.9904 274.90319999999997,98.5584 274.7304,98.2704 274.356C98.03999999999999 274.068,97.9248 273.7512,97.9248 273.4344C97.9248 272.71439999999996,98.3856 271.9944,99.1632 271.90799999999996M99.1632 281.32559999999995C99.2208 281.32559999999995,99.2496 281.32559999999995,99.336 281.32559999999995C99.5376 281.32559999999995,99.768 281.35439999999994,99.8256 281.412C100.54560000000001 281.61359999999996,100.8912 282.24719999999996,100.8912 282.852C100.8912 283.37039999999996,100.632 283.88879999999995,100.11359999999999 284.14799999999997C99.912 284.292,99.6528 284.34959999999995,99.39359999999999 284.34959999999995C98.9904 284.34959999999995,98.5584 284.14799999999997,98.2704 283.8024C98.03999999999999 283.51439999999997,97.9248 283.19759999999997,97.9248 282.852C97.9248 282.13199999999995,98.3856 281.44079999999997,99.1632 281.32559999999995"></path></g><path stroke-width="0.3" fill="#000000" stroke="none" stroke-dasharray="none" d="M116 288.09999999999997M121.0112 269.7544C121.04 269.7256,121.4432 269.7256,122.6816 269.7256C123.056 269.7256,123.4592 269.7256,123.9776 269.7256L126.8864 269.7256L126.9728 269.81199999999995C127.1168 269.8984,127.2032 270.0424,127.2032 270.15759999999995C127.2032 270.33039999999994,127.1168 270.44559999999996,127.0016 270.5608C126.9728 270.64719999999994,126.7136 270.8776,126.5408 271.1368L125.0144 272.8936L123.056 275.11119999999994L122.0192 276.292L120.464 278.07759999999996L118.4192 280.4104C118.0736 280.84239999999994,117.6992 281.188,117.6992 281.188C117.6992 281.188,117.6992 281.188,117.6992 281.188C117.6992 281.24559999999997,117.9584 281.24559999999997,120.3488 281.24559999999997L122.9696 281.24559999999997L122.9696 279.37359999999995C122.9696 277.47279999999995,122.9696 277.44399999999996,122.9984 277.41519999999997C123.056 277.32879999999994,123.3152 277.01199999999994,124.3232 275.83119999999997L124.7264 275.39919999999995L125.1296 274.9672L125.7344 274.1896L126.368 273.5272L126.6848 273.12399999999997C126.8 272.9512,126.9728 272.9224,127.1168 272.9224C127.28960000000001 272.9224,127.4336 273.00879999999995,127.52 273.15279999999996C127.5488 273.2392,127.5488 273.29679999999996,127.5488 275.42799999999994C127.5488 275.9176,127.5488 276.52239999999995,127.5488 277.2424L127.5488 281.24559999999997L128.2688 281.24559999999997C128.9312 281.24559999999997,128.96 281.24559999999997,129.0464 281.27439999999996C129.2768 281.3608,129.392 281.59119999999996,129.392 281.8504C129.392 281.9944,129.3632 282.1672,129.248 282.28239999999994C129.0752 282.42639999999994,129.0464 282.42639999999994,128.2688 282.42639999999994L127.5488 282.42639999999994L127.5488 282.91599999999994C127.5776 284.3848,127.8656 284.96079999999995,128.9888 285.56559999999996C129.392 285.76719999999995,129.4784 285.8248,129.4784 286.1128C129.4784 286.3144,129.42079999999999 286.40079999999995,129.2768 286.51599999999996L129.1904 286.54479999999995L125.2448 286.54479999999995L121.328 286.54479999999995L121.2416 286.51599999999996C121.0688 286.40079999999995,121.04 286.3144,121.04 286.1128C121.04 285.8248,121.0688 285.76719999999995,121.5008 285.56559999999996C122.624 284.96079999999995,122.912 284.3848,122.912 282.91599999999994L122.912 282.42639999999994L119.6 282.42639999999994C118.9952 282.484,118.5056 282.484,118.1024 282.484C116.288 282.484,116.2592 282.42639999999994,116.2304 282.42639999999994C116.0576 282.36879999999996,116 282.19599999999997,116 281.9944C116 281.9944,116 281.9944,116 281.9944C116 281.79279999999994,116 281.79279999999994,116.576 281.13039999999995C118.9952 278.1928,120.6944 273.93039999999996,120.6944 270.532C120.6944 270.01359999999994,120.7808 269.84079999999994,121.0112 269.7544M122.7392 288.12879999999996L122.768 288.12879999999996L122.6816 288.12879999999996L122.7392 288.12879999999996M122.7392 268.71759999999995L122.768 268.71759999999995L122.6816 268.71759999999995L122.7392 268.71759999999995"></path><path stroke-width="0.3" fill="#000000" stroke="none" stroke-dasharray="none" d="M116 308.09999999999997M121.0112 289.7544C121.04 289.7256,121.4432 289.7256,122.6816 289.7256C123.056 289.7256,123.4592 289.7256,123.9776 289.7256L126.8864 289.7256L126.9728 289.81199999999995C127.1168 289.8984,127.2032 290.0424,127.2032 290.15759999999995C127.2032 290.33039999999994,127.1168 290.44559999999996,127.0016 290.5608C126.9728 290.64719999999994,126.7136 290.8776,126.5408 291.1368L125.0144 292.8936L123.056 295.11119999999994L122.0192 296.292L120.464 298.07759999999996L118.4192 300.4104C118.0736 300.84239999999994,117.6992 301.188,117.6992 301.188C117.6992 301.188,117.6992 301.188,117.6992 301.188C117.6992 301.24559999999997,117.9584 301.24559999999997,120.3488 301.24559999999997L122.9696 301.24559999999997L122.9696 299.37359999999995C122.9696 297.47279999999995,122.9696 297.44399999999996,122.9984 297.41519999999997C123.056 297.32879999999994,123.3152 297.01199999999994,124.3232 295.83119999999997L124.7264 295.39919999999995L125.1296 294.9672L125.7344 294.1896L126.368 293.5272L126.6848 293.12399999999997C126.8 292.9512,126.9728 292.9224,127.1168 292.9224C127.28960000000001 292.9224,127.4336 293.00879999999995,127.52 293.15279999999996C127.5488 293.2392,127.5488 293.29679999999996,127.5488 295.42799999999994C127.5488 295.9176,127.5488 296.52239999999995,127.5488 297.2424L127.5488 301.24559999999997L128.2688 301.24559999999997C128.9312 301.24559999999997,128.96 301.24559999999997,129.0464 301.27439999999996C129.2768 301.3608,129.392 301.59119999999996,129.392 301.8504C129.392 301.9944,129.3632 302.1672,129.248 302.28239999999994C129.0752 302.42639999999994,129.0464 302.42639999999994,128.2688 302.42639999999994L127.5488 302.42639999999994L127.5488 302.91599999999994C127.5776 304.3848,127.8656 304.96079999999995,128.9888 305.56559999999996C129.392 305.76719999999995,129.4784 305.8248,129.4784 306.1128C129.4784 306.3144,129.42079999999999 306.40079999999995,129.2768 306.51599999999996L129.1904 306.54479999999995L125.2448 306.54479999999995L121.328 306.54479999999995L121.2416 306.51599999999996C121.0688 306.40079999999995,121.04 306.3144,121.04 306.1128C121.04 305.8248,121.0688 305.76719999999995,121.5008 305.56559999999996C122.624 304.96079999999995,122.912 304.3848,122.912 302.91599999999994L122.912 302.42639999999994L119.6 302.42639999999994C118.9952 302.484,118.5056 302.484,118.1024 302.484C116.288 302.484,116.2592 302.42639999999994,116.2304 302.42639999999994C116.0576 302.36879999999996,116 302.19599999999997,116 301.9944C116 301.9944,116 301.9944,116 301.9944C116 301.79279999999994,116 301.79279999999994,116.576 301.13039999999995C118.9952 298.1928,120.6944 293.93039999999996,120.6944 290.532C120.6944 290.01359999999994,120.7808 289.84079999999994,121.0112 289.7544M122.7392 308.12879999999996L122.768 308.12879999999996L122.6816 308.12879999999996L122.7392 308.12879999999996M122.7392 288.71759999999995L122.768 288.71759999999995L122.6816 288.71759999999995L122.7392 288.71759999999995"></path><g class="vf-stavenote" id="vf-auto4369155"><g class="vf-note" pointer-events="bounding-box"><g class="vf-stem" pointer-events="bounding-box"><path stroke-width="1.5" fill="none" stroke="#000000" stroke-dasharray="none" class="vf-stem" id="vf-auto4369155-stem" d="M152.74663999999999 298.09999999999997L152.74663999999999 263.09999999999997"></path></g><g class="vf-notehead" pointer-events="bounding-box"><path stroke-width="0.3" fill="#000000" stroke="none" stroke-dasharray="none" d="M141.4784 298.09999999999997M148.83535999999998 292.87712C148.94768 292.87712,149.11615999999998 292.87712,149.14424 292.87712C149.14424 292.87712,149.17231999999998 292.87712,149.17231999999998 292.87712C149.17231999999998 292.87712,149.3408 292.87712,149.4812 292.87712C152.0084 293.01752,153.49663999999999 294.67423999999994,153.49663999999999 296.75215999999995C153.49663999999999 297.76304,153.15967999999998 298.91432,152.31727999999998 300.00944C150.71671999999998 302.17159999999996,148.10528 303.35096,145.83079999999998 303.35096C144.06176 303.35096,142.54543999999999 302.64896,141.81536 301.21687999999995C141.59072 300.65527999999995,141.4784 300.12175999999994,141.4784 299.53207999999995C141.4784 296.47135999999995,144.90416 293.07367999999997,148.83535999999998 292.87712"></path></g></g><g class="vf-modifiers"></g></g><g class="vf-stavenote" id="vf-auto4369163"><g class="vf-note" pointer-events="bounding-box"><g class="vf-stem" pointer-events="bounding-box"><path stroke-width="1.5" fill="none" stroke="#000000" stroke-dasharray="none" class="vf-stem" id="vf-auto4369163-stem" d="M222.48919999999998 283.09999999999997L222.48919999999998 318.09999999999997"></path></g><g class="vf-notehead" pointer-events="bounding-box"><path stroke-width="0.3" fill="#000000" stroke="none" stroke-dasharray="none" d="M221.73919999999998 283.09999999999997M229.09615999999997 277.87712C229.20847999999998 277.87712,229.37696 277.87712,229.40503999999999 277.87712C229.40503999999999 277.87712,229.43311999999997 277.87712,229.43311999999997 277.87712C229.43311999999997 277.87712,229.6016 277.87712,229.742 277.87712C232.26919999999998 278.01752,233.75743999999997 279.67423999999994,233.75743999999997 281.75215999999995C233.75743999999997 282.76304,233.42048 283.91432,232.57807999999997 285.00944C230.97751999999997 287.17159999999996,228.36607999999998 288.35096,226.09159999999997 288.35096C224.32255999999998 288.35096,222.80623999999997 287.64896,222.07616 286.21687999999995C221.85152 285.65527999999995,221.73919999999998 285.12175999999994,221.73919999999998 284.53207999999995C221.73919999999998 281.47135999999995,225.16495999999998 278.07367999999997,229.09615999999997 277.87712"></path></g></g><g class="vf-modifiers"></g></g><rect stroke-width="0.3" fill="#000000" stroke="#000000" stroke-dasharray="none" x="300.14522239999997" y="166.5" width="1" height="142.59999999999997"></rect><rect stroke-width="0.3" fill="#000000" stroke="#000000" stroke-dasharray="none" x="70" y="166.5" width="1" height="142.59999999999997"></rect><path stroke-width="1" fill="none" stroke="#000000" stroke-dasharray="none" d="M300.14522239999997 268.09999999999997L452.5120447999999 268.09999999999997"></path><path stroke-width="1" fill="none" stroke="#000000" stroke-dasharray="none" d="M300.14522239999997 278.09999999999997L452.5120447999999 278.09999999999997"></path><path stroke-width="1" fill="none" stroke="#000000" stroke-dasharray="none" d="M300.14522239999997 288.09999999999997L452.5120447999999 288.09999999999997"></path><path stroke-width="1" fill="none" stroke="#000000" stroke-dasharray="none" d="M300.14522239999997 298.09999999999997L452.5120447999999 298.09999999999997"></path><path stroke-width="1" fill="none" stroke="#000000" stroke-dasharray="none" d="M300.14522239999997 308.09999999999997L452.5120447999999 308.09999999999997"></path><rect stroke-width="0.3" fill="#000000" stroke="#000000" stroke-dasharray="none" x="452.5120447999999" y="267.59999999999997" width="1" height="41"></rect><path stroke-width="1" fill="none" stroke="#000000" stroke-dasharray="none" d="M382.64522239999997 258.09999999999997L400.66346239999996 258.09999999999997"></path><g class="vf-stavenote" id="vf-auto4369200"><g class="vf-note" pointer-events="bounding-box"><g class="vf-stem" pointer-events="bounding-box"><path stroke-width="1.5" fill="none" stroke="#000000" stroke-dasharray="none" class="vf-stem" id="vf-auto4369200-stem" d="M386.39522239999997 258.09999999999997L386.39522239999997 293.09999999999997"></path></g><g class="vf-notehead" pointer-events="bounding-box"><path stroke-width="0.3" fill="#000000" stroke="none" stroke-dasharray="none" d="M385.64522239999997 258.09999999999997M393.0021824 252.87711999999996C393.1145024 252.87711999999996,393.2829824 252.87711999999996,393.31106239999997 252.87711999999996C393.31106239999997 252.87711999999996,393.33914239999996 252.87711999999996,393.33914239999996 252.87711999999996C393.33914239999996 252.87711999999996,393.50762239999995 252.87711999999996,393.64802239999995 252.87711999999996C396.17522239999994 253.01751999999996,397.66346239999996 254.67423999999997,397.66346239999996 256.75215999999995C397.66346239999996 257.76304,397.3265024 258.91432,396.4841024 260.00944C394.88354239999995 262.17159999999996,392.2721024 263.35096,389.99762239999995 263.35096C388.2285824 263.35096,386.7122624 262.64896,385.98218239999994 261.21687999999995C385.7575424 260.65527999999995,385.64522239999997 260.12175999999994,385.64522239999997 259.53207999999995C385.64522239999997 256.47135999999995,389.0709824 253.07367999999997,393.0021824 252.87711999999996"></path></g></g><g class="vf-modifiers"></g></g><rect stroke-width="0.3" fill="#000000" stroke="#000000" stroke-dasharray="none" x="452.5120447999999" y="166.5" width="1" height="142.59999999999997"></rect><path stroke-width="1" fill="none" stroke="#000000" stroke-dasharray="none" d="M452.5120447999999 268.09999999999997L600.6788671999998 268.09999999999997"></path><path stroke-width="1" fill="none" stroke="#000000" stroke-dasharray="none" d="M452.5120447999999 278.09999999999997L600.6788671999998 278.09999999999997"></path><path stroke-width="1" fill="none" stroke="#000000" stroke-dasharray="none" d="M452.5120447999999 288.09999999999997L600.6788671999998 288.09999999999997"></path><path stroke-width="1" fill="none" stroke="#000000" stroke-dasharray="none" d="M452.5120447999999 298.09999999999997L600.6788671999998 298.09999999999997"></path><path stroke-width="1" fill="none" stroke="#000000" stroke-dasharray="none" d="M452.5120447999999 308.09999999999997L600.6788671999998 308.09999999999997"></path><rect stroke-width="0.3" fill="#000000" stroke="#000000" stroke-dasharray="none" x="600.6788671999998" y="267.59999999999997" width="1" height="41"></rect><g class="vf-stavenote" id="vf-auto4369230"><g class="vf-note" pointer-events="bounding-box"><g class="vf-stem" pointer-events="bounding-box"><path stroke-width="1.5" fill="none" stroke="#000000" stroke-dasharray="none" class="vf-stem" id="vf-auto4369230-stem" d="M480.7802847999999 298.09999999999997L480.7802847999999 263.09999999999997"></path></g><g class="vf-notehead" pointer-events="bounding-box"><path stroke-width="0.3" fill="#000000" stroke="none" stroke-dasharray="none" d="M469.5120447999999 298.09999999999997M476.8690047999999 292.87712C476.9813247999999 292.87712,477.1498047999999 292.87712,477.1778847999999 292.87712C477.1778847999999 292.87712,477.2059647999999 292.87712,477.2059647999999 292.87712C477.2059647999999 292.87712,477.3744447999999 292.87712,477.5148447999999 292.87712C480.04204479999987 293.01752,481.5302847999999 294.67423999999994,481.5302847999999 296.75215999999995C481.5302847999999 297.76304,481.1933247999999 298.91432,480.3509247999999 300.00944C478.7503647999999 302.17159999999996,476.1389247999999 303.35096,473.8644447999999 303.35096C472.0954047999999 303.35096,470.5790847999999 302.64896,469.8490047999999 301.21687999999995C469.6243647999999 300.65527999999995,469.5120447999999 300.12175999999994,469.5120447999999 299.53207999999995C469.5120447999999 296.47135999999995,472.9378047999999 293.07367999999997,476.8690047999999 292.87712"></path></g></g><g class="vf-modifiers"></g></g><g class="vf-stavenote" id="vf-auto4369238"><g class="vf-note" pointer-events="bounding-box"><g class="vf-stem" pointer-events="bounding-box"><path stroke-width="1.5" fill="none" stroke="#000000" stroke-dasharray="none" class="vf-stem" id="vf-auto4369238-stem" d="M580.5302847999999 288.09999999999997L580.5302847999999 253.09999999999997"></path></g><g class="vf-notehead" pointer-events="bounding-box"><path stroke-width="0.3" fill="#000000" stroke="none" stroke-dasharray="none" d="M569.2620447999999 288.09999999999997M576.6190047999999 282.87712C576.7313247999999 282.87712,576.8998047999999 282.87712,576.9278847999999 282.87712C576.9278847999999 282.87712,576.9559648 282.87712,576.9559648 282.87712C576.9559648 282.87712,577.1244447999999 282.87712,577.2648447999999 282.87712C579.7920447999999 283.01752,581.2802847999999 284.67423999999994,581.2802847999999 286.75215999999995C581.2802847999999 287.76304,580.9433247999999 288.91432,580.1009247999999 290.00944C578.5003647999999 292.17159999999996,575.8889247999999 293.35096,573.6144447999999 293.35096C571.8454047999999 293.35096,570.3290847999999 292.64896,569.5990047999999 291.21687999999995C569.3743647999999 290.65527999999995,569.2620447999999 290.12175999999994,569.2620447999999 289.53207999999995C569.2620447999999 286.47135999999995,572.6878047999999 283.07367999999997,576.6190047999999 282.87712"></path></g></g><g class="vf-modifiers"></g></g><rect stroke-width="0.3" fill="#000000" stroke="#000000" stroke-dasharray="none" x="600.6788671999998" y="166.5" width="1" height="142.59999999999997"></rect><path stroke-width="1" fill="none" stroke="#000000" stroke-dasharray="none" d="M600.6788671999999 268.09999999999997L754.6456895999999 268.09999999999997"></path><path stroke-width="1" fill="none" stroke="#000000" stroke-dasharray="none" d="M600.6788671999999 278.09999999999997L754.6456895999999 278.09999999999997"></path><path stroke-width="1" fill="none" stroke="#000000" stroke-dasharray="none" d="M600.6788671999999 288.09999999999997L754.6456895999999 288.09999999999997"></path><path stroke-width="1" fill="none" stroke="#000000" stroke-dasharray="none" d="M600.6788671999999 298.09999999999997L754.6456895999999 298.09999999999997"></path><path stroke-width="1" fill="none" stroke="#000000" stroke-dasharray="none" d="M600.6788671999999 308.09999999999997L754.6456895999999 308.09999999999997"></path><rect stroke-width="0.3" fill="#000000" stroke="#000000" stroke-dasharray="none" x="749.6456895999999" y="267.59999999999997" width="1" height="41"></rect><rect stroke-width="0.3" fill="#000000" stroke="#000000" stroke-dasharray="none" x="752.6456895999999" y="267.59999999999997" width="3" height="41"></rect><path stroke-width="0.3" fill="#000000" stroke="none" stroke-dasharray="none" d="M748.6456895999999 283.59999999999997 A2 2 0 0 0 744.6456895999999 283.59999999999997M744.6456895999999 283.59999999999997 A2 2 0 0 0 748.6456895999999 283.59999999999997"></path><path stroke-width="0.3" fill="#000000" stroke="none" stroke-dasharray="none" d="M748.6456895999999 293.59999999999997 A2 2 0 0 0 744.6456895999999 293.59999999999997M744.6456895999999 293.59999999999997 A2 2 0 0 0 748.6456895999999 293.59999999999997"></path><g class="vf-stavenote" id="vf-auto4369257"><g class="vf-note" pointer-events="bounding-box"><g class="vf-stem" pointer-events="bounding-box"><path stroke-width="1.5" fill="none" stroke="#000000" stroke-dasharray="none" class="vf-stem" id="vf-auto4369257-stem" d="M628.9471071999999 288.09999999999997L628.9471071999999 253.09999999999997"></path></g><g class="vf-notehead" pointer-events="bounding-box"><path stroke-width="0.3" fill="#000000" stroke="none" stroke-dasharray="none" d="M617.6788671999999 288.09999999999997M625.0358271999999 282.87712C625.1481471999999 282.87712,625.3166271999999 282.87712,625.3447071999999 282.87712C625.3447071999999 282.87712,625.3727872 282.87712,625.3727872 282.87712C625.3727872 282.87712,625.5412671999999 282.87712,625.6816671999999 282.87712C628.2088671999999 283.01752,629.6971071999999 284.67423999999994,629.6971071999999 286.75215999999995C629.6971071999999 287.76304,629.3601471999999 288.91432,628.5177471999999 290.00944C626.9171872 292.17159999999996,624.3057471999999 293.35096,622.0312671999999 293.35096C620.2622271999999 293.35096,618.7459071999999 292.64896,618.0158271999999 291.21687999999995C617.7911871999999 290.65527999999995,617.6788671999999 290.12175999999994,617.6788671999999 289.53207999999995C617.6788671999999 286.47135999999995,621.1046271999999 283.07367999999997,625.0358271999999 282.87712"></path></g></g><g class="vf-modifiers"></g></g><g class="vf-stavenote" id="vf-auto4369265"><g class="vf-note" pointer-events="bounding-box"><g class="vf-stem" pointer-events="bounding-box"><path stroke-width="1.5" fill="none" stroke="#000000" stroke-dasharray="none" class="vf-stem" id="vf-auto4369265-stem" d="M652.9288671999999 273.09999999999997L652.9288671999999 308.09999999999997"></path></g><g class="vf-notehead" pointer-events="bounding-box"><path stroke-width="0.3" fill="#000000" stroke="none" stroke-dasharray="none" d="M652.1788671999999 273.09999999999997M659.5358271999999 267.87712C659.6481471999999 267.87712,659.8166271999999 267.87712,659.8447071999999 267.87712C659.8447071999999 267.87712,659.8727872 267.87712,659.8727872 267.87712C659.8727872 267.87712,660.0412671999999 267.87712,660.1816671999999 267.87712C662.7088671999999 268.01752,664.1971071999999 269.67423999999994,664.1971071999999 271.75215999999995C664.1971071999999 272.76304,663.8601471999999 273.91432,663.0177471999999 275.00944C661.4171872 277.17159999999996,658.8057471999999 278.35096,656.5312671999999 278.35096C654.7622271999999 278.35096,653.2459071999999 277.64896,652.5158271999999 276.21687999999995C652.2911871999999 275.65527999999995,652.1788671999999 275.12175999999994,652.1788671999999 274.53207999999995C652.1788671999999 271.47135999999995,655.6046271999999 268.07367999999997,659.5358271999999 267.87712"></path></g></g><g class="vf-modifiers"></g></g><g class="vf-stavenote" id="vf-auto4369273"><g class="vf-note" pointer-events="bounding-box"><g class="vf-stem" pointer-events="bounding-box"><path stroke-width="1.5" fill="none" stroke="#000000" stroke-dasharray="none" class="vf-stem" id="vf-auto4369273-stem" d="M687.4288671999999 263.09999999999997L687.4288671999999 298.09999999999997"></path></g><g class="vf-notehead" pointer-events="bounding-box"><path stroke-width="0.3" fill="#000000" stroke="none" stroke-dasharray="none" d="M686.6788671999999 263.09999999999997M694.0358271999999 257.87712C694.1481471999999 257.87712,694.3166271999999 257.87712,694.3447071999999 257.87712C694.3447071999999 257.87712,694.3727872 257.87712,694.3727872 257.87712C694.3727872 257.87712,694.5412671999999 257.87712,694.6816671999999 257.87712C697.2088671999999 258.01752,698.6971071999999 259.67423999999994,698.6971071999999 261.75215999999995C698.6971071999999 262.76304,698.3601471999999 263.91432,697.5177471999999 265.00944C695.9171872 267.17159999999996,693.3057471999999 268.35096,691.0312671999999 268.35096C689.2622271999999 268.35096,687.7459071999999 267.64896,687.0158271999999 266.21687999999995C686.7911871999999 265.65527999999995,686.6788671999999 265.12175999999994,686.6788671999999 264.53207999999995C686.6788671999999 261.47135999999995,690.1046271999999 258.07367999999997,694.0358271999999 257.87712"></path></g></g><g class="vf-modifiers"></g></g><rect stroke-width="0.3" fill="#000000" stroke="#000000" stroke-dasharray="none" x="749.6456895999999" y="166.5" width="1" height="142.59999999999997"></rect><rect stroke-width="0.3" fill="#000000" stroke="#000000" stroke-dasharray="none" x="752.6456895999999" y="166.5" width="3" height="142.59999999999997"></rect><path stroke-width="0.3" fill="#000000" stroke="none" stroke-dasharray="none" d="M68 166.5C45.2 195.01999999999998,81.2 218.54899999999998,56 237.79999999999998C81.2 257.051,45.2 280.58,68 309.09999999999997C44 280.58,72.8 257.051,56 237.79999999999998C72.8 218.54899999999998,44 195.01999999999998,68 166.5"></path><path stroke-width="1" fill="none" stroke="#000000" stroke-dasharray="none" d="M68 166.5C45.2 195.01999999999998,81.2 218.54899999999998,56 237.79999999999998C81.2 257.051,45.2 280.58,68 309.09999999999997C44 280.58,72.8 257.051,56 237.79999999999998C72.8 218.54899999999998,44 195.01999999999998,68 166.5"></path><g class="vf-text"><text stroke-width="0.3" fill="#000000" stroke="none" stroke-dasharray="none" font-family="Times New Roman" font-size="15px" font-weight="normal" font-style="normal" x="449.0120447999999" y="163.5">3</text></g></svg>