<svg xmlns="http://www.w3.org/2000/svg"  width="1470" height="380.79999999999995" viewBox="0 0 1470 380.79999999999995"><path stroke-width="1" fill="none" stroke="#000000" stroke-dasharray="none" d="M70 166.5L355.83023359999993 166.5"></path><path stroke-width="1" fill="none" stroke="#000000" stroke-dasharray="none" d="M70 176.5L355.83023359999993 176.5"></path><path stroke-width="1" fill="none" stroke="#000000" stroke-dasharray="none" d="M70 186.5L355.83023359999993 186.5"></path><path stroke-width="1" fill="none" stroke="#000000" stroke-dasharray="none" d="M70 196.5L355.83023359999993 196.5"></path><path stroke-width="1" fill="none" stroke="#000000" stroke-dasharray="none" d="M70 206.5L355.83023359999993 206.5"></path><rect stroke-width="0.3" fill="#000000" stroke="#000000" stroke-dasharray="none" x="355.83023359999993" y="166" width="1" height="41"></rect><g class="vf-clef"><path stroke-width="0.3" fill="#000000" stroke="none" stroke-dasharray="none" d="M75 196.5M89.0544 153.3288C89.112 153.3,89.1696 153.3,89.256 153.3C89.6016 153.3,90.0048 153.588,90.5808 154.308C92.9136 156.9864,94.5552 161.652,94.5552 165.4536C94.5552 165.7416,94.4976 165.972,94.4976 166.26C94.2384 170.7816,92.3952 174.4968,88.7376 178.0104L87.7584 178.9608L87.4128 179.3352L87.4128 179.4504L87.6144 180.3144L87.9312 181.8696L88.248 183.3096C88.68 185.268,88.8528 186.276,88.8528 186.276C88.8528 186.276,88.8528 186.276,88.8528 186.276C88.8528 186.276,88.968 186.276,89.112 186.2472C89.256 186.2472,89.7168 186.1896,90.2064 186.1896C90.55199999999999 186.1896,90.8976 186.2472,91.0704 186.2472C95.1312 186.7656,98.2704 189.6744,99.1632 193.764C99.336 194.4264,99.39359999999999 195.1464,99.39359999999999 195.8664C99.39359999999999 199.7544,97.0608 203.4696,93.1728 205.2264C92.94239999999999 205.3704,92.856 205.3992,92.856 205.3992L92.856 205.428C92.856 205.428,93.0288 206.0904,93.1728 206.8392L93.6048 209.028L94.008 210.7848C94.2384 211.908,94.3536 212.7144,94.3536 213.4344C94.3536 214.06799999999998,94.2672 214.644,94.1232 215.3064C93.144 219.3096,89.6592 221.7,86.0304 221.7C84.2448 221.7,82.4016 221.124,80.7888 219.828C79.3488 218.6184,78.7152 217.524,78.7152 216.084C78.7152 213.5496,80.76 211.764,82.8912 211.764C83.64 211.764,84.3888 211.99439999999998,85.1088 212.4264C86.3184 213.2616,86.8656 214.5288,86.8656 215.7672C86.8656 217.668,85.5408 219.54,83.2656 219.684L83.0352 219.684L83.208 219.79919999999998C84.1584 220.2024,85.1088 220.404,86.0304 220.404C88.3632 220.404,90.55199999999999 219.2232,91.8768 217.1784C92.62559999999999 216.0264,93.0288 214.6728,93.0288 213.3192C93.0288 212.8008,92.94239999999999 212.2824,92.8272 211.7064C92.8272 211.6488,92.74080000000001 211.188,92.62559999999999 210.756C91.992 207.6456,91.6176 205.8312,91.6176 205.8312C91.6176 205.8312,91.6176 205.8312,91.6176 205.8312C91.56 205.8312,91.4448 205.8312,91.3584 205.8888C91.0704 205.9464,90.4656 206.0904,90.2064 206.1192C89.5728 206.2056,88.968 206.2344,88.392 206.2344C82.74719999999999 206.2344,77.5056 202.4328,75.6912 196.8168C75.2304 195.3192,74.9712 193.8216,74.9712 192.324C74.9712 189.3288,75.9216 186.3912,77.7648 183.7704C79.7808 180.9192,81.7968 178.4712,84.2736 175.9368L85.13759999999999 175.044L84.936 173.9784L84.5616 172.2216L84.072 169.9752C83.928 169.14,83.7552 168.3336,83.7264 168.1608C83.5824 167.2104,83.496 166.2888,83.496 165.3384C83.496 161.7096,84.6768 158.22480000000002,86.8944 155.4312C87.5568 154.5672,88.7376 153.4152,89.0544 153.3288M90.8112 159.0312C90.7536 159.0312,90.6672 159.0312,90.5808 159.0312C89.4 159.0312,87.8736 160.1256,86.8368 161.7384C85.7712 163.32240000000002,85.224 165.4248,85.224 167.5848C85.224 168.1608,85.25280000000001 168.7656,85.3392 169.3704C85.4256 169.8024,85.45439999999999 170.0904,85.6848 171.12720000000002L86.088 172.9416C86.2032 173.4888,86.28960000000001 173.92079999999999,86.28960000000001 173.9784L86.28960000000001 173.9784C86.3184 173.9784,87.2112 172.9992,87.4992 172.6536C90.3792 169.3992,92.1072 165.972,92.4816 162.948C92.5104 162.66,92.5104 162.4296,92.5104 162.1416C92.5104 161.24880000000002,92.3952 160.38479999999998,92.1936 159.924C91.9632 159.4632,91.4448 159.0888,90.8112 159.0312M86.4624 181.2936C86.4048 180.8904,86.3184 180.5736,86.3184 180.516C86.3184 180.516,86.3184 180.516,86.28960000000001 180.516C86.232 180.516,84.9936 181.956,84.1296 182.964C82.6608 184.7496,81.1056 186.8808,80.472 187.9176C79.2624 189.9624,78.6576 192.2376,78.6576 194.484C78.6576 195.9528,78.9456 197.364,79.464 198.7176C81.0192 202.7208,84.5904 205.2264,88.4784 205.2264C88.9392 205.2264,89.4576 205.1976,89.9472 205.1112C90.5808 204.996,91.3584 204.7656,91.3584 204.6792L91.3584 204.6792C91.3584 204.6792,91.3008 204.3912,91.2144 204.0744L90.3792 199.956L89.7168 196.8744L89.2848 194.7432L88.824 192.6696C88.5936 191.4312,88.5072 191.1144,88.5072 191.1144C88.5072 191.1144,88.5072 191.0856,88.4784 191.0856C88.3056 191.0856,87.384 191.5464,86.9808 191.8344C85.4832 192.8712,84.7056 194.5128,84.7056 196.1256C84.7056 197.652,85.45439999999999 199.1784,86.8944 200.0712C87.2112 200.2728,87.3264 200.4456,87.3264 200.6472C87.3264 200.676,87.3264 200.7624,87.3264 200.7912C87.2688 201.1368,87.0672 201.2808,86.7792 201.2808C86.664 201.2808,86.52 201.252,86.3472 201.1656C83.6976 200.0136,81.912 197.2776,81.912 194.2824L81.912 194.2824C81.912 190.8264,84.072 187.8312,87.384 186.6504L87.5568 186.5928L87.2688 185.1528L86.4624 181.2936M90.7824 190.9128C90.55199999999999 190.88400000000001,90.3216 190.88400000000001,90.1488 190.88400000000001C90.0912 190.88400000000001,90.0048 190.88400000000001,89.9472 190.88400000000001L89.8032 190.88400000000001L89.9184 191.4024L90.5232 194.2248L90.8976 196.068L91.3008 197.8824L92.1072 201.8856L92.424 203.412C92.5392 203.8152,92.5968 204.1608,92.62559999999999 204.1608C92.62559999999999 204.1608,92.62559999999999 204.1608,92.62559999999999 204.1608C92.6544 204.1608,93.144 203.8728,93.4608 203.6424C94.9296 202.6056,96.024 200.9928,96.4272 199.3224C96.5712 198.7752,96.6288 198.1992,96.6288 197.652C96.6288 194.3112,94.152 191.2872,90.7824 190.9128"></path></g><path stroke-width="0.3" fill="#000000" stroke="none" stroke-dasharray="none" d="M116 186.5M123.344 167.8376C123.4592 167.8376,123.6608 167.8376,123.8912 167.8376C124.2944 167.8376,124.8416 167.8376,125.0432 167.8952C126.7712 168.1544,128.6144 169.3928,128.96 170.516C129.0464 170.7752,129.0752 171.00560000000002,129.0752 171.236C129.0752 172.532,127.9808 173.5112,126.8 173.5112C126.3392 173.5112,125.8784 173.39600000000002,125.4464 173.0504C124.928 172.5896,124.64 172.0136,124.64 171.3512C124.64 170.4584,125.1872 169.5368,126.13759999999999 169.2776C126.224 169.2776,126.25280000000001 169.2488,126.25280000000001 169.2488C126.25280000000001 169.2488,126.224 169.1912,126.13759999999999 169.1624C125.504 168.8744,124.8704 168.7592,124.2944 168.7592C123.4016 168.7592,122.624 169.076,122.048 169.6808C121.4432 170.4008,121.0112 171.8696,120.7232 174.0296C120.6944 174.548,120.608 175.5272,120.608 175.7288C120.608 175.7288,120.608 175.7288,120.608 175.7288C120.608 175.7288,120.608 175.7288,120.608 175.7288C120.608 175.7288,120.7232 175.6712,120.83840000000001 175.6424C121.76 175.268,122.5664 175.124,123.4304 175.124C124.4672 175.124,125.4464 175.3544,126.5408 175.9304C128.5568 176.9096,129.68 178.3496,129.68 180.0776C129.68 180.308,129.6224 180.5672,129.5936 180.8264C129.3056 182.4392,128.0672 183.764,126.0512 184.628C125.1296 185.0312,124.2944 185.2616,123.4592 185.2616C122.624 185.2616,121.76 185.0024,120.8096 184.5128C118.304 183.2456,116.576 180.88400000000001,116.1152 178.148C116.0288 177.6008,116 177.0536,116 176.4488C116 175.2392,116.1728 174.0296,116.576 173.0504C117.6704 170.2856,120.464 168.1544,123.344 167.8376M123.74719999999999 176.0456C123.632 176.0456,123.5168 176.0456,123.4016 176.0456C122.7968 176.0456,122.336 176.2472,122.048 176.564C121.6448 177.1688,121.35679999999999 178.6664,121.35679999999999 179.9912C121.35679999999999 180.2792,121.35679999999999 180.5672,121.3856 180.7976C121.5008 182.1512,121.8176 183.2744,122.1344 183.764C122.3648 184.1096,122.8544 184.3112,123.4016 184.3112C123.5168 184.3112,123.6608 184.3112,123.776 184.2824C124.6112 184.1672,124.928 183.6488,125.2448 182.0072C125.3888 181.2296,125.4752 180.5672,125.4752 179.9048C125.4752 179.2424,125.3888 178.6088,125.2448 177.8312C124.9568 176.6504,124.5824 176.1608,123.74719999999999 176.0456M122.7968 186.5288L122.8544 186.5288L122.768 186.5288L122.7968 186.5288M122.7968 167.1176L122.8544 167.1176L122.768 167.1176L122.7968 167.1176"></path><path stroke-width="0.3" fill="#000000" stroke="none" stroke-dasharray="none" d="M116.1008 206.5M121.11200000000001 188.1544C121.14080000000001 188.1256,121.54400000000001 188.1256,122.78240000000001 188.1256C123.1568 188.1256,123.56 188.1256,124.0784 188.1256L126.9872 188.1256L127.0736 188.212C127.2176 188.29840000000002,127.304 188.4424,127.304 188.5576C127.304 188.7304,127.2176 188.8456,127.1024 188.9608C127.0736 189.0472,126.8144 189.2776,126.64160000000001 189.5368L125.1152 191.2936L123.1568 193.5112L122.12 194.692L120.5648 196.4776L118.52000000000001 198.8104C118.1744 199.2424,117.80000000000001 199.588,117.80000000000001 199.588C117.80000000000001 199.588,117.80000000000001 199.588,117.80000000000001 199.588C117.80000000000001 199.6456,118.0592 199.6456,120.4496 199.6456L123.0704 199.6456L123.0704 197.7736C123.0704 195.8728,123.0704 195.844,123.09920000000001 195.8152C123.1568 195.7288,123.41600000000001 195.412,124.424 194.2312L124.8272 193.7992L125.2304 193.3672L125.8352 192.5896L126.4688 191.9272L126.7856 191.524C126.9008 191.3512,127.0736 191.3224,127.2176 191.3224C127.3904 191.3224,127.5344 191.4088,127.6208 191.5528C127.6496 191.6392,127.6496 191.6968,127.6496 193.828C127.6496 194.3176,127.6496 194.9224,127.6496 195.6424L127.6496 199.6456L128.3696 199.6456C129.032 199.6456,129.0608 199.6456,129.1472 199.6744C129.3776 199.7608,129.49280000000002 199.9912,129.49280000000002 200.2504C129.49280000000002 200.3944,129.464 200.5672,129.3488 200.6824C129.17600000000002 200.8264,129.1472 200.8264,128.3696 200.8264L127.6496 200.8264L127.6496 201.316C127.67840000000001 202.7848,127.96640000000001 203.3608,129.08960000000002 203.9656C129.49280000000002 204.1672,129.57920000000001 204.2248,129.57920000000001 204.5128C129.57920000000001 204.7144,129.5216 204.8008,129.3776 204.916L129.2912 204.9448L125.3456 204.9448L121.42880000000001 204.9448L121.34240000000001 204.916C121.1696 204.8008,121.14080000000001 204.7144,121.14080000000001 204.5128C121.14080000000001 204.2248,121.1696 204.1672,121.6016 203.9656C122.7248 203.3608,123.01280000000001 202.7848,123.01280000000001 201.316L123.01280000000001 200.8264L119.7008 200.8264C119.096 200.88400000000001,118.60640000000001 200.88400000000001,118.20320000000001 200.88400000000001C116.3888 200.88400000000001,116.36000000000001 200.8264,116.33120000000001 200.8264C116.1584 200.7688,116.1008 200.596,116.1008 200.3944C116.1008 200.3944,116.1008 200.3944,116.1008 200.3944C116.1008 200.1928,116.1008 200.1928,116.6768 199.5304C119.096 196.5928,120.79520000000001 192.3304,120.79520000000001 188.93200000000002C120.79520000000001 188.4136,120.8816 188.2408,121.11200000000001 188.1544M122.84 206.5288L122.86880000000001 206.5288L122.78240000000001 206.5288L122.84 206.5288M122.84 187.1176L122.86880000000001 187.1176L122.78240000000001 187.1176L122.84 187.1176"></path><g class="vf-stavenote" id="vf-auto2992111"><g class="vf-note" pointer-events="bounding-box"><g class="vf-stem" pointer-events="bounding-box"><path stroke-width="1.5" fill="none" stroke="#000000" stroke-dasharray="none" class="vf-stem" id="vf-auto2992111-stem" d="M142.43 181.5L142.43 216.5"></path></g><g class="vf-notehead" pointer-events="bounding-box"><path stroke-width="0.3" fill="#000000" stroke="none" stroke-dasharray="none" d="M141.68 181.5M149.03696 176.27712C149.14928 176.27712,149.31776000000002 176.27712,149.34584 176.27712C149.34584 176.27712,149.37392 176.27712,149.37392 176.27712C149.37392 176.27712,149.54240000000001 176.27712,149.68280000000001 176.27712C152.21 176.41752,153.69824 178.07424,153.69824 180.15216C153.69824 181.16304,153.36128000000002 182.31432,152.51888 183.40944C150.91832 185.5716,148.30688 186.75096,146.0324 186.75096C144.26336 186.75096,142.74704 186.04896,142.01696 184.61688C141.79232000000002 184.05528,141.68 183.52176,141.68 182.93208C141.68 179.87136,145.10576 176.47368,149.03696 176.27712"></path></g></g><g class="vf-modifiers"></g></g><g class="vf-stavenote" id="vf-auto2992119"><g class="vf-note" pointer-events="bounding-box"><g class="vf-stem" pointer-events="bounding-box"><path stroke-width="1.5" fill="none" stroke="#000000" stroke-dasharray="none" class="vf-stem" id="vf-auto2992119-stem" d="M178.31666666666666 186.5L178.31666666666666 221.5"></path></g><g class="vf-notehead" pointer-events="bounding-box"><path stroke-width="0.3" fill="#000000" stroke="none" stroke-dasharray="none" d="M177.56666666666666 186.5M184.92362666666665 181.27712C185.03594666666666 181.27712,185.20442666666668 181.27712,185.23250666666667 181.27712C185.23250666666667 181.27712,185.26058666666665 181.27712,185.26058666666665 181.27712C185.26058666666665 181.27712,185.42906666666667 181.27712,185.56946666666667 181.27712C188.09666666666666 181.41752,189.58490666666665 183.07424,189.58490666666665 185.15216C189.58490666666665 186.16304,189.24794666666668 187.31432,188.40554666666665 188.40944C186.80498666666665 190.5716,184.19354666666666 191.75096,181.91906666666665 191.75096C180.15002666666666 191.75096,178.63370666666665 191.04896,177.90362666666667 189.61688C177.67898666666667 189.05528,177.56666666666666 188.52176,177.56666666666666 187.93208C177.56666666666666 184.87136,180.99242666666666 181.47368,184.92362666666665 181.27712"></path></g></g><g class="vf-modifiers"></g></g><g class="vf-stavenote" id="vf-auto2992127"><g class="vf-note" pointer-events="bounding-box"><g class="vf-stem" pointer-events="bounding-box"><path stroke-width="1.5" fill="none" stroke="#000000" stroke-dasharray="none" class="vf-stem" id="vf-auto2992127-stem" d="M250.09 166.5L250.09 201.5"></path></g><g class="vf-notehead" pointer-events="bounding-box"><path stroke-width="0.3" fill="#000000" stroke="none" stroke-dasharray="none" d="M249.34 166.5M256.69696 161.27712C256.80928 161.27712,256.97776 161.27712,257.00584 161.27712C257.00584 161.27712,257.03392 161.27712,257.03392 161.27712C257.03392 161.27712,257.2024 161.27712,257.3428 161.27712C259.87 161.41752,261.35824 163.07424,261.35824 165.15216C261.35824 166.16304,261.02128 167.31432,260.17888 168.40944C258.57832 170.5716,255.96688 171.75096,253.6924 171.75096C251.92336 171.75096,250.40704 171.04896,249.67696 169.61688C249.45232000000001 169.05528,249.34 168.52176,249.34 167.93208C249.34 164.87136,252.76576 161.47368,256.69696 161.27712"></path></g></g><g class="vf-modifiers"></g></g><g class="vf-stavenote" id="vf-auto2992135"><g class="vf-note" pointer-events="bounding-box"><g class="vf-stem" pointer-events="bounding-box"><path stroke-width="1.5" fill="none" stroke="#000000" stroke-dasharray="none" class="vf-stem" id="vf-auto2992135-stem" d="M296.4949066666667 206.5L296.4949066666667 171.5"></path></g><g class="vf-notehead" pointer-events="bounding-box"><path stroke-width="0.3" fill="#000000" stroke="none" stroke-dasharray="none" d="M285.2266666666667 206.5M292.5836266666667 201.27712C292.6959466666667 201.27712,292.8644266666667 201.27712,292.8925066666667 201.27712C292.8925066666667 201.27712,292.9205866666667 201.27712,292.9205866666667 201.27712C292.9205866666667 201.27712,293.08906666666667 201.27712,293.22946666666667 201.27712C295.75666666666666 201.41752,297.2449066666667 203.07424,297.2449066666667 205.15216C297.2449066666667 206.16304,296.9079466666667 207.31432,296.0655466666667 208.40944C294.4649866666667 210.5716,291.8535466666667 211.75096,289.5790666666667 211.75096C287.8100266666667 211.75096,286.2937066666667 211.04896,285.56362666666666 209.61688C285.3389866666667 209.05528,285.2266666666667 208.52176,285.2266666666667 207.93208C285.2266666666667 204.87136,288.6524266666667 201.47368,292.5836266666667 201.27712"></path></g></g><g class="vf-modifiers"></g></g><g class="vf-stavenote" id="vf-auto2992143"><g class="vf-note" pointer-events="bounding-box"><g class="vf-stem" pointer-events="bounding-box"><path stroke-width="1.5" fill="none" stroke="#000000" stroke-dasharray="none" class="vf-stem" id="vf-auto2992143-stem" d="M321.86333333333334 186.5L321.86333333333334 221.5"></path></g><g class="vf-notehead" pointer-events="bounding-box"><path stroke-width="0.3" fill="#000000" stroke="none" stroke-dasharray="none" d="M321.11333333333334 186.5M328.47029333333336 181.27712C328.58261333333337 181.27712,328.75109333333336 181.27712,328.77917333333335 181.27712C328.77917333333335 181.27712,328.80725333333334 181.27712,328.80725333333334 181.27712C328.80725333333334 181.27712,328.9757333333333 181.27712,329.1161333333333 181.27712C331.6433333333333 181.41752,333.13157333333334 183.07424,333.13157333333334 185.15216C333.13157333333334 186.16304,332.79461333333336 187.31432,331.95221333333336 188.40944C330.35165333333333 190.5716,327.7402133333334 191.75096,325.46573333333333 191.75096C323.69669333333337 191.75096,322.18037333333336 191.04896,321.4502933333333 189.61688C321.22565333333336 189.05528,321.11333333333334 188.52176,321.11333333333334 187.93208C321.11333333333334 184.87136,324.53909333333337 181.47368,328.47029333333336 181.27712"></path></g></g><g class="vf-modifiers"></g></g><path stroke-width="1" fill="none" stroke="#000000" stroke-dasharray="none" d="M355.8302336 166.5L546.8804671999999 166.5"></path><path stroke-width="1" fill="none" stroke="#000000" stroke-dasharray="none" d="M355.8302336 176.5L546.8804671999999 176.5"></path><path stroke-width="1" fill="none" stroke="#000000" stroke-dasharray="none" d="M355.8302336 186.5L546.8804671999999 186.5"></path><path stroke-width="1" fill="none" stroke="#000000" stroke-dasharray="none" d="M355.8302336 196.5L546.8804671999999 196.5"></path><path stroke-width="1" fill="none" stroke="#000000" stroke-dasharray="none" d="M355.8302336 206.5L546.8804671999999 206.5"></path><rect stroke-width="0.3" fill="#000000" stroke="#000000" stroke-dasharray="none" x="546.8804671999999" y="166" width="1" height="41"></rect><g class="vf-stavenote" id="vf-auto2992165"><g class="vf-note" pointer-events="bounding-box"><g class="vf-stem" pointer-events="bounding-box"><path stroke-width="1.5" fill="none" stroke="#000000" stroke-dasharray="none" class="vf-stem" id="vf-auto2992165-stem" d="M413.4318069333333 196.5L413.4318069333333 161.5"></path></g><g class="vf-notehead" pointer-events="bounding-box"><path stroke-width="0.3" fill="#000000" stroke="none" stroke-dasharray="none" d="M402.1635669333333 196.5M409.5205269333333 191.27712C409.6328469333333 191.27712,409.8013269333333 191.27712,409.8294069333333 191.27712C409.8294069333333 191.27712,409.8574869333333 191.27712,409.8574869333333 191.27712C409.8574869333333 191.27712,410.0259669333333 191.27712,410.1663669333333 191.27712C412.6935669333333 191.41752,414.1818069333333 193.07424,414.1818069333333 195.15216C414.1818069333333 196.16304,413.8448469333333 197.31432,413.0024469333333 198.40944C411.4018869333333 200.5716,408.7904469333333 201.75096,406.5159669333333 201.75096C404.7469269333333 201.75096,403.2306069333333 201.04896,402.5005269333333 199.61688C402.2758869333333 199.05528,402.1635669333333 198.52176,402.1635669333333 197.93208C402.1635669333333 194.87136,405.5893269333333 191.47368,409.5205269333333 191.27712"></path></g></g><g class="vf-modifiers"></g></g><path stroke-width="1" fill="none" stroke="#000000" stroke-dasharray="none" d="M487.1635669333333 216.5L505.1818069333333 216.5"></path><g class="vf-stavenote" id="vf-auto2992173"><g class="vf-note" pointer-events="bounding-box"><g class="vf-stem" pointer-events="bounding-box"><path stroke-width="1.5" fill="none" stroke="#000000" stroke-dasharray="none" class="vf-stem" id="vf-auto2992173-stem" d="M501.4318069333333 221.5L501.4318069333333 186.5"></path></g><g class="vf-notehead" pointer-events="bounding-box"><path stroke-width="0.3" fill="#000000" stroke="none" stroke-dasharray="none" d="M490.1635669333333 221.5M497.5205269333333 216.27712C497.6328469333333 216.27712,497.8013269333333 216.27712,497.8294069333333 216.27712C497.8294069333333 216.27712,497.8574869333333 216.27712,497.8574869333333 216.27712C497.8574869333333 216.27712,498.0259669333333 216.27712,498.1663669333333 216.27712C500.6935669333333 216.41752,502.1818069333333 218.07424,502.1818069333333 220.15216C502.1818069333333 221.16304,501.8448469333333 222.31432,501.0024469333333 223.40944C499.4018869333333 225.5716,496.7904469333333 226.75096,494.5159669333333 226.75096C492.7469269333333 226.75096,491.2306069333333 226.04896,490.5005269333333 224.61688C490.2758869333333 224.05528,490.1635669333333 223.52176,490.1635669333333 222.93208C490.1635669333333 219.87136,493.5893269333333 216.47368,497.5205269333333 216.27712"></path></g></g><g class="vf-modifiers"></g></g><path stroke-width="1" fill="none" stroke="#000000" stroke-dasharray="none" d="M546.8804671999999 166.5L746.3307007999998 166.5"></path><path stroke-width="1" fill="none" stroke="#000000" stroke-dasharray="none" d="M546.8804671999999 176.5L746.3307007999998 176.5"></path><path stroke-width="1" fill="none" stroke="#000000" stroke-dasharray="none" d="M546.8804671999999 186.5L746.3307007999998 186.5"></path><path stroke-width="1" fill="none" stroke="#000000" stroke-dasharray="none" d="M546.8804671999999 196.5L746.3307007999998 196.5"></path><path stroke-width="1" fill="none" stroke="#000000" stroke-dasharray="none" d="M546.8804671999999 206.5L746.3307007999998 206.5"></path><rect stroke-width="0.3" fill="#000000" stroke="#000000" stroke-dasharray="none" x="746.3307007999998" y="166" width="1" height="41"></rect><g class="vf-stavenote" id="vf-auto2992220"><g class="vf-note" pointer-events="bounding-box"><g class="vf-stem" pointer-events="bounding-box"><path stroke-width="1.5" fill="none" stroke="#000000" stroke-dasharray="none" class="vf-stem" id="vf-auto2992220-stem" d="M575.1487071999999 201.5L575.1487071999999 166.5"></path></g><g class="vf-notehead" pointer-events="bounding-box"><path stroke-width="0.3" fill="#000000" stroke="none" stroke-dasharray="none" d="M563.8804671999999 201.5M571.2374271999998 196.27712C571.3497471999999 196.27712,571.5182271999998 196.27712,571.5463071999999 196.27712C571.5463071999999 196.27712,571.5743871999999 196.27712,571.5743871999999 196.27712C571.5743871999999 196.27712,571.7428671999999 196.27712,571.8832671999999 196.27712C574.4104671999999 196.41752,575.8987071999999 198.07424,575.8987071999999 200.15216C575.8987071999999 201.16304,575.5617471999999 202.31432,574.7193471999999 203.40944C573.1187871999999 205.5716,570.5073471999999 206.75096,568.2328671999999 206.75096C566.4638271999999 206.75096,564.9475071999999 206.04896,564.2174271999999 204.61688C563.9927871999998 204.05528,563.8804671999999 203.52176,563.8804671999999 202.93208C563.8804671999999 199.87136,567.3062271999999 196.47368,571.2374271999998 196.27712"></path></g></g><g class="vf-modifiers"></g></g><g class="vf-stavenote" id="vf-auto2992228"><g class="vf-note" pointer-events="bounding-box"><g class="vf-stem" pointer-events="bounding-box"><path stroke-width="1.5" fill="none" stroke="#000000" stroke-dasharray="none" class="vf-stem" id="vf-auto2992228-stem" d="M636.4820405333332 206.5L636.4820405333332 171.5"></path></g><g class="vf-notehead" pointer-events="bounding-box"><path stroke-width="0.3" fill="#000000" stroke="none" stroke-dasharray="none" d="M625.2138005333333 206.5M632.5707605333332 201.27712C632.6830805333333 201.27712,632.8515605333332 201.27712,632.8796405333333 201.27712C632.8796405333333 201.27712,632.9077205333333 201.27712,632.9077205333333 201.27712C632.9077205333333 201.27712,633.0762005333332 201.27712,633.2166005333332 201.27712C635.7438005333332 201.41752,637.2320405333332 203.07424,637.2320405333332 205.15216C637.2320405333332 206.16304,636.8950805333333 207.31432,636.0526805333333 208.40944C634.4521205333333 210.5716,631.8406805333333 211.75096,629.5662005333332 211.75096C627.7971605333332 211.75096,626.2808405333333 211.04896,625.5507605333332 209.61688C625.3261205333332 209.05528,625.2138005333333 208.52176,625.2138005333333 207.93208C625.2138005333333 204.87136,628.6395605333332 201.47368,632.5707605333332 201.27712"></path></g></g><g class="vf-modifiers"></g></g><g class="vf-stavenote" id="vf-auto2992236"><g class="vf-note" pointer-events="bounding-box"><g class="vf-stem" pointer-events="bounding-box"><path stroke-width="1.5" fill="none" stroke="#000000" stroke-dasharray="none" class="vf-stem" id="vf-auto2992236-stem" d="M667.1487071999999 206.5L667.1487071999999 171.5"></path></g><g class="vf-notehead" pointer-events="bounding-box"><path stroke-width="0.3" fill="#000000" stroke="none" stroke-dasharray="none" d="M655.8804671999999 206.5M663.2374271999998 201.27712C663.3497471999999 201.27712,663.5182271999998 201.27712,663.5463071999999 201.27712C663.5463071999999 201.27712,663.5743871999999 201.27712,663.5743871999999 201.27712C663.5743871999999 201.27712,663.7428671999999 201.27712,663.8832671999999 201.27712C666.4104671999999 201.41752,667.8987071999999 203.07424,667.8987071999999 205.15216C667.8987071999999 206.16304,667.5617471999999 207.31432,666.7193471999999 208.40944C665.1187871999999 210.5716,662.5073471999999 211.75096,660.2328671999999 211.75096C658.4638271999999 211.75096,656.9475071999999 211.04896,656.2174271999999 209.61688C655.9927871999998 209.05528,655.8804671999999 208.52176,655.8804671999999 207.93208C655.8804671999999 204.87136,659.3062271999999 201.47368,663.2374271999998 201.27712"></path></g></g><g class="vf-modifiers"></g></g><g class="vf-stavenote" id="vf-auto2992244"><g class="vf-note" pointer-events="bounding-box"><g class="vf-stem" pointer-events="bounding-box"><path stroke-width="1.5" fill="none" stroke="#000000" stroke-dasharray="none" class="vf-stem" id="vf-auto2992244-stem" d="M717.9638005333333 171.5L717.9638005333333 206.5"></path></g><g class="vf-notehead" pointer-events="bounding-box"><path stroke-width="0.3" fill="#000000" stroke="none" stroke-dasharray="none" d="M717.2138005333333 171.5M724.5707605333332 166.27712C724.6830805333333 166.27712,724.8515605333332 166.27712,724.8796405333333 166.27712C724.8796405333333 166.27712,724.9077205333333 166.27712,724.9077205333333 166.27712C724.9077205333333 166.27712,725.0762005333332 166.27712,725.2166005333332 166.27712C727.7438005333332 166.41752,729.2320405333332 168.07424,729.2320405333332 170.15216C729.2320405333332 171.16304,728.8950805333333 172.31432,728.0526805333333 173.40944C726.4521205333333 175.5716,723.8406805333333 176.75096,721.5662005333332 176.75096C719.7971605333332 176.75096,718.2808405333333 176.04896,717.5507605333332 174.61688C717.3261205333332 174.05528,717.2138005333333 173.52176,717.2138005333333 172.93208C717.2138005333333 169.87136,720.6395605333332 166.47368,724.5707605333332 166.27712"></path></g></g><g class="vf-modifiers"></g></g><path stroke-width="1" fill="none" stroke="#000000" stroke-dasharray="none" d="M746.3307007999998 166.5L933.1809343999998 166.5"></path><path stroke-width="1" fill="none" stroke="#000000" stroke-dasharray="none" d="M746.3307007999998 176.5L933.1809343999998 176.5"></path><path stroke-width="1" fill="none" stroke="#000000" stroke-dasharray="none" d="M746.3307007999998 186.5L933.1809343999998 186.5"></path><path stroke-width="1" fill="none" stroke="#000000" stroke-dasharray="none" d="M746.3307007999998 196.5L933.1809343999998 196.5"></path><path stroke-width="1" fill="none" stroke="#000000" stroke-dasharray="none" d="M746.3307007999998 206.5L933.1809343999998 206.5"></path><rect stroke-width="0.3" fill="#000000" stroke="#000000" stroke-dasharray="none" x="928.1809343999998" y="166" width="1" height="41"></rect><rect stroke-width="0.3" fill="#000000" stroke="#000000" stroke-dasharray="none" x="931.1809343999998" y="166" width="3" height="41"></rect><g class="vf-stavenote" id="vf-auto2992275"><g class="vf-note" pointer-events="bounding-box"><g class="vf-stem" pointer-events="bounding-box"><path stroke-width="1.5" fill="none" stroke="#000000" stroke-dasharray="none" class="vf-stem" id="vf-auto2992275-stem" d="M821.0807007999998 166.5L821.0807007999998 201.5"></path></g><g class="vf-notehead" pointer-events="bounding-box"><path stroke-width="0.3" fill="#000000" stroke="none" stroke-dasharray="none" d="M820.3307007999998 166.5M827.6876607999998 161.27712C827.7999807999998 161.27712,827.9684607999998 161.27712,827.9965407999998 161.27712C827.9965407999998 161.27712,828.0246207999999 161.27712,828.0246207999999 161.27712C828.0246207999999 161.27712,828.1931007999998 161.27712,828.3335007999998 161.27712C830.8607007999998 161.41752,832.3489407999998 163.07424,832.3489407999998 165.15216C832.3489407999998 166.16304,832.0119807999998 167.31432,831.1695807999998 168.40944C829.5690207999999 170.5716,826.9575807999998 171.75096,824.6831007999998 171.75096C822.9140607999998 171.75096,821.3977407999998 171.04896,820.6676607999998 169.61688C820.4430207999998 169.05528,820.3307007999998 168.52176,820.3307007999998 167.93208C820.3307007999998 164.87136,823.7564607999998 161.47368,827.6876607999998 161.27712"></path></g></g><g class="vf-modifiers"></g></g><g class="vf-text"><text stroke-width="0.3" fill="#000000" stroke="none" stroke-dasharray="none" font-family="Times New Roman" font-size="23px" font-weight="bold" font-style="italic" x="132.68912" y="240.5">mp</text></g><path stroke-width="1" fill="none" stroke="#000000" stroke-dasharray="none" d="M70 255.29999999999998L355.83023359999993 255.29999999999998"></path><path stroke-width="1" fill="none" stroke="#000000" stroke-dasharray="none" d="M70 265.29999999999995L355.83023359999993 265.29999999999995"></path><path stroke-width="1" fill="none" stroke="#000000" stroke-dasharray="none" d="M70 275.29999999999995L355.83023359999993 275.29999999999995"></path><path stroke-width="1" fill="none" stroke="#000000" stroke-dasharray="none" d="M70 285.29999999999995L355.83023359999993 285.29999999999995"></path><path stroke-width="1" fill="none" stroke="#000000" stroke-dasharray="none" d="M70 295.29999999999995L355.83023359999993 295.29999999999995"></path><rect stroke-width="0.3" fill="#000000" stroke="#000000" stroke-dasharray="none" x="355.83023359999993" y="254.79999999999998" width="1" height="40.99999999999997"></rect><g class="vf-clef"><path stroke-width="0.3" fill="#000000" stroke="none" stroke-dasharray="none" d="M75 265.29999999999995M83.8416 255.24879999999996C84.072 255.19119999999995,84.3024 255.19119999999995,84.5616 255.19119999999995C85.5696 255.19119999999995,86.7504 255.30639999999997,87.7584 255.50799999999995C92.4816 256.4872,95.736 259.68399999999997,96.3408 263.9464C96.3984 264.40719999999993,96.4272 264.83919999999995,96.4272 265.29999999999995C96.4272 267.89199999999994,95.5344 271.23279999999994,94.008 274.02639999999997C90.3792 280.59279999999995,83.7552 285.316,75.8064 287.044C75.6624 287.044,75.5472 287.0728,75.4032 287.0728C75.1152 287.0728,74.9712 286.9,74.9712 286.64079999999996C74.9712 286.35279999999995,75.0288 286.2664,75.6048 286.03599999999994C84.7056 282.6088,90.7824 275.20719999999994,91.3296 266.91279999999995C91.3584 266.48079999999993,91.3584 265.99119999999994,91.3584 265.61679999999996C91.3584 261.5848,90.12 258.58959999999996,87.7296 257.0919999999999C86.6928 256.42959999999994,85.5696 256.11279999999994,84.36 256.11279999999994C81.6816 256.11279999999994,78.9456 257.63919999999996,77.6784 260.20239999999995C77.6208 260.40399999999994,77.4192 260.83599999999996,77.4192 260.86479999999995C77.4192 260.86479999999995,77.4192 260.86479999999995,77.4192 260.86479999999995C77.4192 260.86479999999995,77.448 260.83599999999996,77.5344 260.80719999999997C78.168 260.40399999999994,78.8592 260.20239999999995,79.5792 260.20239999999995C80.5872 260.20239999999995,81.6528 260.63439999999997,82.4016 261.44079999999997C83.0928 262.1895999999999,83.4672 263.19759999999997,83.4672 264.1192C83.4672 265.99119999999994,82.0848 267.89199999999994,79.9248 268.0936C79.7808 268.0936,79.6368 268.12239999999997,79.4928 268.12239999999997C77.1024 268.12239999999997,75.1728 265.93359999999996,75.1728 263.1688C75.1728 263.11119999999994,75.1728 263.02479999999997,75.1728 262.996C75.288 258.8776,79.0608 255.50799999999995,83.8416 255.24879999999996M99.1632 259.10799999999995C99.2208 259.07919999999996,99.2496 259.07919999999996,99.336 259.07919999999996C99.5376 259.07919999999996,99.768 259.10799999999995,99.8256 259.1655999999999C100.54560000000001 259.36719999999997,100.8912 260.00079999999997,100.8912 260.6056C100.8912 261.12399999999997,100.632 261.64239999999995,100.11359999999999 261.93039999999996C99.912 262.07439999999997,99.6528 262.10319999999996,99.39359999999999 262.10319999999996C98.9904 262.10319999999996,98.5584 261.93039999999996,98.2704 261.5559999999999C98.03999999999999 261.268,97.9248 260.9512,97.9248 260.63439999999997C97.9248 259.91439999999994,98.3856 259.1944,99.1632 259.10799999999995M99.1632 268.52559999999994C99.2208 268.52559999999994,99.2496 268.52559999999994,99.336 268.52559999999994C99.5376 268.52559999999994,99.768 268.55439999999993,99.8256 268.61199999999997C100.54560000000001 268.81359999999995,100.8912 269.44719999999995,100.8912 270.05199999999996C100.8912 270.57039999999995,100.632 271.08879999999994,100.11359999999999 271.34799999999996C99.912 271.49199999999996,99.6528 271.54959999999994,99.39359999999999 271.54959999999994C98.9904 271.54959999999994,98.5584 271.34799999999996,98.2704 271.00239999999997C98.03999999999999 270.71439999999996,97.9248 270.39759999999995,97.9248 270.05199999999996C97.9248 269.33199999999994,98.3856 268.64079999999996,99.1632 268.52559999999994"></path></g><path stroke-width="0.3" fill="#000000" stroke="none" stroke-dasharray="none" d="M116 275.29999999999995M123.344 256.63759999999996C123.4592 256.63759999999996,123.6608 256.63759999999996,123.8912 256.63759999999996C124.2944 256.63759999999996,124.8416 256.63759999999996,125.0432 256.69519999999994C126.7712 256.95439999999996,128.6144 258.1928,128.96 259.316C129.0464 259.57519999999994,129.0752 259.80559999999997,129.0752 260.03599999999994C129.0752 261.33199999999994,127.9808 262.31119999999993,126.8 262.31119999999993C126.3392 262.31119999999993,125.8784 262.19599999999997,125.4464 261.8504C124.928 261.3896,124.64 260.81359999999995,124.64 260.15119999999996C124.64 259.25839999999994,125.1872 258.3367999999999,126.13759999999999 258.07759999999996C126.224 258.07759999999996,126.25280000000001 258.04879999999997,126.25280000000001 258.04879999999997C126.25280000000001 258.04879999999997,126.224 257.99119999999994,126.13759999999999 257.96239999999995C125.504 257.67439999999993,124.8704 257.5592,124.2944 257.5592C123.4016 257.5592,122.624 257.876,122.048 258.48079999999993C121.4432 259.20079999999996,121.0112 260.66959999999995,120.7232 262.82959999999997C120.6944 263.34799999999996,120.608 264.32719999999995,120.608 264.52879999999993C120.608 264.52879999999993,120.608 264.52879999999993,120.608 264.52879999999993C120.608 264.52879999999993,120.608 264.52879999999993,120.608 264.52879999999993C120.608 264.52879999999993,120.7232 264.47119999999995,120.83840000000001 264.44239999999996C121.76 264.068,122.5664 263.924,123.4304 263.924C124.4672 263.924,125.4464 264.15439999999995,126.5408 264.7304C128.5568 265.70959999999997,129.68 267.14959999999996,129.68 268.8776C129.68 269.10799999999995,129.6224 269.36719999999997,129.5936 269.62639999999993C129.3056 271.2392,128.0672 272.56399999999996,126.0512 273.42799999999994C125.1296 273.83119999999997,124.2944 274.06159999999994,123.4592 274.06159999999994C122.624 274.06159999999994,121.76 273.8024,120.8096 273.3128C118.304 272.0456,116.576 269.68399999999997,116.1152 266.948C116.0288 266.40079999999995,116 265.8536,116 265.24879999999996C116 264.03919999999994,116.1728 262.82959999999997,116.576 261.8504C117.6704 259.08559999999994,120.464 256.95439999999996,123.344 256.63759999999996M123.74719999999999 264.84559999999993C123.632 264.84559999999993,123.5168 264.84559999999993,123.4016 264.84559999999993C122.7968 264.84559999999993,122.336 265.0472,122.048 265.364C121.6448 265.96879999999993,121.35679999999999 267.46639999999996,121.35679999999999 268.79119999999995C121.35679999999999 269.07919999999996,121.35679999999999 269.36719999999997,121.3856 269.59759999999994C121.5008 270.9512,121.8176 272.07439999999997,122.1344 272.56399999999996C122.3648 272.90959999999995,122.8544 273.11119999999994,123.4016 273.11119999999994C123.5168 273.11119999999994,123.6608 273.11119999999994,123.776 273.08239999999995C124.6112 272.96719999999993,124.928 272.44879999999995,125.2448 270.80719999999997C125.3888 270.02959999999996,125.4752 269.36719999999997,125.4752 268.7048C125.4752 268.04239999999993,125.3888 267.4087999999999,125.2448 266.6312C124.9568 265.45039999999995,124.5824 264.96079999999995,123.74719999999999 264.84559999999993M122.7968 275.32879999999994L122.8544 275.32879999999994L122.768 275.32879999999994L122.7968 275.32879999999994M122.7968 255.91759999999996L122.8544 255.91759999999996L122.768 255.91759999999996L122.7968 255.91759999999996"></path><path stroke-width="0.3" fill="#000000" stroke="none" stroke-dasharray="none" d="M116.1008 295.29999999999995M121.11200000000001 276.95439999999996C121.14080000000001 276.9256,121.54400000000001 276.9256,122.78240000000001 276.9256C123.1568 276.9256,123.56 276.9256,124.0784 276.9256L126.9872 276.9256L127.0736 277.01199999999994C127.2176 277.09839999999997,127.304 277.2424,127.304 277.35759999999993C127.304 277.53039999999993,127.2176 277.64559999999994,127.1024 277.76079999999996C127.0736 277.84719999999993,126.8144 278.07759999999996,126.64160000000001 278.3367999999999L125.1152 280.0936L123.1568 282.31119999999993L122.12 283.49199999999996L120.5648 285.27759999999995L118.52000000000001 287.61039999999997C118.1744 288.04239999999993,117.80000000000001 288.388,117.80000000000001 288.388C117.80000000000001 288.388,117.80000000000001 288.388,117.80000000000001 288.388C117.80000000000001 288.44559999999996,118.0592 288.44559999999996,120.4496 288.44559999999996L123.0704 288.44559999999996L123.0704 286.57359999999994C123.0704 284.67279999999994,123.0704 284.64399999999995,123.09920000000001 284.61519999999996C123.1568 284.52879999999993,123.41600000000001 284.21199999999993,124.424 283.03119999999996L124.8272 282.59919999999994L125.2304 282.1672L125.8352 281.3896L126.4688 280.7272L126.7856 280.32399999999996C126.9008 280.15119999999996,127.0736 280.12239999999997,127.2176 280.12239999999997C127.3904 280.12239999999997,127.5344 280.20879999999994,127.6208 280.35279999999995C127.6496 280.43919999999997,127.6496 280.49679999999995,127.6496 282.62799999999993C127.6496 283.1176,127.6496 283.72239999999994,127.6496 284.44239999999996L127.6496 288.44559999999996L128.3696 288.44559999999996C129.032 288.44559999999996,129.0608 288.44559999999996,129.1472 288.47439999999995C129.3776 288.5608,129.49280000000002 288.79119999999995,129.49280000000002 289.05039999999997C129.49280000000002 289.1944,129.464 289.36719999999997,129.3488 289.4823999999999C129.17600000000002 289.62639999999993,129.1472 289.62639999999993,128.3696 289.62639999999993L127.6496 289.62639999999993L127.6496 290.11599999999993C127.67840000000001 291.5848,127.96640000000001 292.16079999999994,129.08960000000002 292.76559999999995C129.49280000000002 292.96719999999993,129.57920000000001 293.02479999999997,129.57920000000001 293.3128C129.57920000000001 293.51439999999997,129.5216 293.60079999999994,129.3776 293.71599999999995L129.2912 293.74479999999994L125.3456 293.74479999999994L121.42880000000001 293.74479999999994L121.34240000000001 293.71599999999995C121.1696 293.60079999999994,121.14080000000001 293.51439999999997,121.14080000000001 293.3128C121.14080000000001 293.02479999999997,121.1696 292.96719999999993,121.6016 292.76559999999995C122.7248 292.16079999999994,123.01280000000001 291.5848,123.01280000000001 290.11599999999993L123.01280000000001 289.62639999999993L119.7008 289.62639999999993C119.096 289.68399999999997,118.60640000000001 289.68399999999997,118.20320000000001 289.68399999999997C116.3888 289.68399999999997,116.36000000000001 289.62639999999993,116.33120000000001 289.62639999999993C116.1584 289.56879999999995,116.1008 289.39599999999996,116.1008 289.1944C116.1008 289.1944,116.1008 289.1944,116.1008 289.1944C116.1008 288.99279999999993,116.1008 288.99279999999993,116.6768 288.33039999999994C119.096 285.39279999999997,120.79520000000001 281.13039999999995,120.79520000000001 277.73199999999997C120.79520000000001 277.21359999999993,120.8816 277.04079999999993,121.11200000000001 276.95439999999996M122.84 295.32879999999994L122.86880000000001 295.32879999999994L122.78240000000001 295.32879999999994L122.84 295.32879999999994M122.84 275.91759999999994L122.86880000000001 275.91759999999994L122.78240000000001 275.91759999999994L122.84 275.91759999999994"></path><g class="vf-stavenote" id="vf-auto2992153"><g class="vf-note" pointer-events="bounding-box"><g class="vf-stem" pointer-events="bounding-box"><path stroke-width="1.5" fill="none" stroke="#000000" stroke-dasharray="none" class="vf-stem" id="vf-auto2992153-stem" d="M214.20333333333335 250.29999999999995L214.20333333333335 285.29999999999995"></path></g><g class="vf-notehead" pointer-events="bounding-box"><path stroke-width="0.3" fill="#000000" stroke="none" stroke-dasharray="none" d="M213.45333333333335 250.29999999999995M220.81029333333333 245.07711999999995C220.92261333333335 245.07711999999995,221.09109333333333 245.07711999999995,221.11917333333335 245.07711999999995C221.11917333333335 245.07711999999995,221.14725333333334 245.07711999999995,221.14725333333334 245.07711999999995C221.14725333333334 245.07711999999995,221.31573333333336 245.07711999999995,221.45613333333336 245.07711999999995C223.98333333333335 245.21751999999995,225.47157333333334 246.87423999999996,225.47157333333334 248.95215999999996C225.47157333333334 249.96303999999995,225.13461333333333 251.11431999999996,224.29221333333334 252.20943999999994C222.69165333333333 254.37159999999994,220.08021333333335 255.55095999999995,217.80573333333334 255.55095999999995C216.03669333333335 255.55095999999995,214.52037333333334 254.84895999999995,213.79029333333335 253.41687999999996C213.56565333333336 252.85527999999996,213.45333333333335 252.32175999999995,213.45333333333335 251.73207999999997C213.45333333333335 248.67135999999996,216.87909333333334 245.27367999999996,220.81029333333333 245.07711999999995"></path></g></g><g class="vf-modifiers"></g></g><rect stroke-width="0.3" fill="#000000" stroke="#000000" stroke-dasharray="none" x="355.83023359999993" y="166.5" width="1" height="129.79999999999995"></rect><rect stroke-width="0.3" fill="#000000" stroke="#000000" stroke-dasharray="none" x="70" y="166.5" width="1" height="129.79999999999995"></rect><path stroke-width="1" fill="none" stroke="#000000" stroke-dasharray="none" d="M355.8302336 255.29999999999998L546.8804671999999 255.29999999999998"></path><path stroke-width="1" fill="none" stroke="#000000" stroke-dasharray="none" d="M355.8302336 265.29999999999995L546.8804671999999 265.29999999999995"></path><path stroke-width="1" fill="none" stroke="#000000" stroke-dasharray="none" d="M355.8302336 275.29999999999995L546.8804671999999 275.29999999999995"></path><path stroke-width="1" fill="none" stroke="#000000" stroke-dasharray="none" d="M355.8302336 285.29999999999995L546.8804671999999 285.29999999999995"></path><path stroke-width="1" fill="none" stroke="#000000" stroke-dasharray="none" d="M355.8302336 295.29999999999995L546.8804671999999 295.29999999999995"></path><rect stroke-width="0.3" fill="#000000" stroke="#000000" stroke-dasharray="none" x="546.8804671999999" y="254.79999999999998" width="1" height="40.99999999999997"></rect><g class="vf-stavenote" id="vf-auto2992185"><g class="vf-note" pointer-events="bounding-box"><g class="vf-stem" pointer-events="bounding-box"><path stroke-width="1.5" fill="none" stroke="#000000" stroke-dasharray="none" class="vf-stem" id="vf-auto2992185-stem" d="M384.0984736 290.29999999999995L384.0984736 255.29999999999995"></path></g><g class="vf-notehead" pointer-events="bounding-box"><path stroke-width="0.3" fill="#000000" stroke="none" stroke-dasharray="none" d="M372.8302336 290.29999999999995M380.1871936 285.07712C380.2995136 285.07712,380.4679936 285.07712,380.4960736 285.07712C380.4960736 285.07712,380.5241536 285.07712,380.5241536 285.07712C380.5241536 285.07712,380.69263359999997 285.07712,380.83303359999996 285.07712C383.3602336 285.21752,384.8484736 286.87423999999993,384.8484736 288.95215999999994C384.8484736 289.96304,384.5115136 291.11431999999996,383.6691136 292.20944C382.0685536 294.37159999999994,379.45711359999996 295.55096,377.1826336 295.55096C375.4135936 295.55096,373.8972736 294.84896,373.16719359999996 293.41687999999994C372.9425536 292.85527999999994,372.8302336 292.3217599999999,372.8302336 291.73207999999994C372.8302336 288.67135999999994,376.2559936 285.27367999999996,380.1871936 285.07712"></path></g></g><g class="vf-modifiers"></g></g><g class="vf-stavenote" id="vf-auto2992193"><g class="vf-note" pointer-events="bounding-box"><g class="vf-stem" pointer-events="bounding-box"><path stroke-width="1.5" fill="none" stroke="#000000" stroke-dasharray="none" class="vf-stem" id="vf-auto2992193-stem" d="M432.24690026666667 255.29999999999995L432.24690026666667 290.29999999999995"></path></g><g class="vf-notehead" pointer-events="bounding-box"><path stroke-width="0.3" fill="#000000" stroke="none" stroke-dasharray="none" d="M431.49690026666667 255.29999999999995M438.8538602666667 250.07711999999995C438.9661802666667 250.07711999999995,439.1346602666667 250.07711999999995,439.1627402666667 250.07711999999995C439.1627402666667 250.07711999999995,439.19082026666666 250.07711999999995,439.19082026666666 250.07711999999995C439.19082026666666 250.07711999999995,439.35930026666665 250.07711999999995,439.49970026666665 250.07711999999995C442.02690026666664 250.21751999999995,443.51514026666666 251.87423999999996,443.51514026666666 253.95215999999996C443.51514026666666 254.96303999999995,443.1781802666667 256.11431999999996,442.3357802666667 257.20944C440.73522026666666 259.37159999999994,438.1237802666667 260.55096,435.84930026666666 260.55096C434.0802602666667 260.55096,432.5639402666667 259.84896,431.83386026666665 258.41687999999994C431.6092202666667 257.85527999999994,431.49690026666667 257.3217599999999,431.49690026666667 256.73207999999994C431.49690026666667 253.67135999999996,434.9226602666667 250.27367999999996,438.8538602666667 250.07711999999995"></path></g></g><g class="vf-modifiers"></g></g><g class="vf-stavenote" id="vf-auto2992201"><g class="vf-note" pointer-events="bounding-box"><g class="vf-stem" pointer-events="bounding-box"><path stroke-width="1.5" fill="none" stroke="#000000" stroke-dasharray="none" class="vf-stem" id="vf-auto2992201-stem" d="M472.0984736 280.29999999999995L472.0984736 245.29999999999995"></path></g><g class="vf-notehead" pointer-events="bounding-box"><path stroke-width="0.3" fill="#000000" stroke="none" stroke-dasharray="none" d="M460.8302336 280.29999999999995M468.1871936 275.07712C468.2995136 275.07712,468.4679936 275.07712,468.4960736 275.07712C468.4960736 275.07712,468.5241536 275.07712,468.5241536 275.07712C468.5241536 275.07712,468.69263359999997 275.07712,468.83303359999996 275.07712C471.3602336 275.21752,472.8484736 276.87423999999993,472.8484736 278.95215999999994C472.8484736 279.96304,472.5115136 281.11431999999996,471.6691136 282.20944C470.0685536 284.37159999999994,467.45711359999996 285.55096,465.1826336 285.55096C463.4135936 285.55096,461.8972736 284.84896,461.16719359999996 283.41687999999994C460.9425536 282.85527999999994,460.8302336 282.3217599999999,460.8302336 281.73207999999994C460.8302336 278.67135999999994,464.2559936 275.27367999999996,468.1871936 275.07712"></path></g></g><g class="vf-modifiers"></g></g><g class="vf-stavenote" id="vf-auto2992209"><g class="vf-note" pointer-events="bounding-box"><g class="vf-stem" pointer-events="bounding-box"><path stroke-width="1.5" fill="none" stroke="#000000" stroke-dasharray="none" class="vf-stem" id="vf-auto2992209-stem" d="M530.7651402666667 290.29999999999995L530.7651402666667 255.29999999999995"></path></g><g class="vf-notehead" pointer-events="bounding-box"><path stroke-width="0.3" fill="#000000" stroke="none" stroke-dasharray="none" d="M519.4969002666667 290.29999999999995M526.8538602666666 285.07712C526.9661802666667 285.07712,527.1346602666666 285.07712,527.1627402666667 285.07712C527.1627402666667 285.07712,527.1908202666667 285.07712,527.1908202666667 285.07712C527.1908202666667 285.07712,527.3593002666667 285.07712,527.4997002666667 285.07712C530.0269002666666 285.21752,531.5151402666667 286.87423999999993,531.5151402666667 288.95215999999994C531.5151402666667 289.96304,531.1781802666667 291.11431999999996,530.3357802666667 292.20944C528.7352202666667 294.37159999999994,526.1237802666667 295.55096,523.8493002666667 295.55096C522.0802602666666 295.55096,520.5639402666667 294.84896,519.8338602666666 293.41687999999994C519.6092202666666 292.85527999999994,519.4969002666667 292.3217599999999,519.4969002666667 291.73207999999994C519.4969002666667 288.67135999999994,522.9226602666666 285.27367999999996,526.8538602666666 285.07712"></path></g></g><g class="vf-modifiers"></g></g><rect stroke-width="0.3" fill="#000000" stroke="#000000" stroke-dasharray="none" x="546.8804671999999" y="166.5" width="1" height="129.79999999999995"></rect><path stroke-width="1" fill="none" stroke="#000000" stroke-dasharray="none" d="M546.8804671999999 255.29999999999998L746.3307007999998 255.29999999999998"></path><path stroke-width="1" fill="none" stroke="#000000" stroke-dasharray="none" d="M546.8804671999999 265.29999999999995L746.3307007999998 265.29999999999995"></path><path stroke-width="1" fill="none" stroke="#000000" stroke-dasharray="none" d="M546.8804671999999 275.29999999999995L746.3307007999998 275.29999999999995"></path><path stroke-width="1" fill="none" stroke="#000000" stroke-dasharray="none" d="M546.8804671999999 285.29999999999995L746.3307007999998 285.29999999999995"></path><path stroke-width="1" fill="none" stroke="#000000" stroke-dasharray="none" d="M546.8804671999999 295.29999999999995L746.3307007999998 295.29999999999995"></path><rect stroke-width="0.3" fill="#000000" stroke="#000000" stroke-dasharray="none" x="746.3307007999998" y="254.79999999999998" width="1" height="40.99999999999997"></rect><g class="vf-stavenote" id="vf-auto2992255"><g class="vf-note" pointer-events="bounding-box"><g class="vf-stem" pointer-events="bounding-box"><path stroke-width="1.5" fill="none" stroke="#000000" stroke-dasharray="none" class="vf-stem" id="vf-auto2992255-stem" d="M595.2971338666665 270.29999999999995L595.2971338666665 305.29999999999995"></path></g><g class="vf-notehead" pointer-events="bounding-box"><path stroke-width="0.3" fill="#000000" stroke="none" stroke-dasharray="none" d="M594.5471338666665 270.29999999999995M601.9040938666665 265.07712C602.0164138666665 265.07712,602.1848938666665 265.07712,602.2129738666665 265.07712C602.2129738666665 265.07712,602.2410538666666 265.07712,602.2410538666666 265.07712C602.2410538666666 265.07712,602.4095338666665 265.07712,602.5499338666665 265.07712C605.0771338666665 265.21752,606.5653738666665 266.87423999999993,606.5653738666665 268.95215999999994C606.5653738666665 269.96304,606.2284138666665 271.11431999999996,605.3860138666665 272.20944C603.7854538666666 274.37159999999994,601.1740138666665 275.55096,598.8995338666665 275.55096C597.1304938666665 275.55096,595.6141738666665 274.84896,594.8840938666665 273.41687999999994C594.6594538666665 272.85527999999994,594.5471338666665 272.3217599999999,594.5471338666665 271.73207999999994C594.5471338666665 268.67135999999994,597.9728938666665 265.27367999999996,601.9040938666665 265.07712"></path></g></g><g class="vf-modifiers"></g></g><g class="vf-stavenote" id="vf-auto2992263"><g class="vf-note" pointer-events="bounding-box"><g class="vf-stem" pointer-events="bounding-box"><path stroke-width="1.5" fill="none" stroke="#000000" stroke-dasharray="none" class="vf-stem" id="vf-auto2992263-stem" d="M687.2971338666666 255.29999999999995L687.2971338666666 290.29999999999995"></path></g><g class="vf-notehead" pointer-events="bounding-box"><path stroke-width="0.3" fill="#000000" stroke="none" stroke-dasharray="none" d="M686.5471338666666 255.29999999999995M693.9040938666666 250.07711999999995C694.0164138666667 250.07711999999995,694.1848938666666 250.07711999999995,694.2129738666666 250.07711999999995C694.2129738666666 250.07711999999995,694.2410538666667 250.07711999999995,694.2410538666667 250.07711999999995C694.2410538666667 250.07711999999995,694.4095338666666 250.07711999999995,694.5499338666666 250.07711999999995C697.0771338666666 250.21751999999995,698.5653738666666 251.87423999999996,698.5653738666666 253.95215999999996C698.5653738666666 254.96303999999995,698.2284138666666 256.11431999999996,697.3860138666666 257.20944C695.7854538666667 259.37159999999994,693.1740138666667 260.55096,690.8995338666666 260.55096C689.1304938666666 260.55096,687.6141738666666 259.84896,686.8840938666666 258.41687999999994C686.6594538666666 257.85527999999994,686.5471338666666 257.3217599999999,686.5471338666666 256.73207999999994C686.5471338666666 253.67135999999996,689.9728938666666 250.27367999999996,693.9040938666666 250.07711999999995"></path></g></g><g class="vf-modifiers"></g></g><rect stroke-width="0.3" fill="#000000" stroke="#000000" stroke-dasharray="none" x="746.3307007999998" y="166.5" width="1" height="129.79999999999995"></rect><path stroke-width="1" fill="none" stroke="#000000" stroke-dasharray="none" d="M746.3307007999998 255.29999999999998L933.1809343999998 255.29999999999998"></path><path stroke-width="1" fill="none" stroke="#000000" stroke-dasharray="none" d="M746.3307007999998 265.29999999999995L933.1809343999998 265.29999999999995"></path><path stroke-width="1" fill="none" stroke="#000000" stroke-dasharray="none" d="M746.3307007999998 275.29999999999995L933.1809343999998 275.29999999999995"></path><path stroke-width="1" fill="none" stroke="#000000" stroke-dasharray="none" d="M746.3307007999998 285.29999999999995L933.1809343999998 285.29999999999995"></path><path stroke-width="1" fill="none" stroke="#000000" stroke-dasharray="none" d="M746.3307007999998 295.29999999999995L933.1809343999998 295.29999999999995"></path><rect stroke-width="0.3" fill="#000000" stroke="#000000" stroke-dasharray="none" x="928.1809343999998" y="254.79999999999998" width="1" height="40.99999999999997"></rect><rect stroke-width="0.3" fill="#000000" stroke="#000000" stroke-dasharray="none" x="931.1809343999998" y="254.79999999999998" width="3" height="40.99999999999997"></rect><path stroke-width="1" fill="none" stroke="#000000" stroke-dasharray="none" d="M760.3307007999998 245.29999999999995L778.3489407999998 245.29999999999995"></path><g class="vf-stavenote" id="vf-auto2992287"><g class="vf-note" pointer-events="bounding-box"><g class="vf-stem" pointer-events="bounding-box"><path stroke-width="1.5" fill="none" stroke="#000000" stroke-dasharray="none" class="vf-stem" id="vf-auto2992287-stem" d="M764.0807007999998 240.29999999999995L764.0807007999998 275.29999999999995"></path></g><g class="vf-notehead" pointer-events="bounding-box"><path stroke-width="0.3" fill="#000000" stroke="none" stroke-dasharray="none" d="M763.3307007999998 240.29999999999995M770.6876607999998 235.07711999999995C770.7999807999998 235.07711999999995,770.9684607999998 235.07711999999995,770.9965407999998 235.07711999999995C770.9965407999998 235.07711999999995,771.0246207999999 235.07711999999995,771.0246207999999 235.07711999999995C771.0246207999999 235.07711999999995,771.1931007999998 235.07711999999995,771.3335007999998 235.07711999999995C773.8607007999998 235.21751999999995,775.3489407999998 236.87423999999996,775.3489407999998 238.95215999999996C775.3489407999998 239.96303999999995,775.0119807999998 241.11431999999996,774.1695807999998 242.20943999999994C772.5690207999999 244.37159999999994,769.9575807999998 245.55095999999995,767.6831007999998 245.55095999999995C765.9140607999998 245.55095999999995,764.3977407999998 244.84895999999995,763.6676607999998 243.41687999999996C763.4430207999998 242.85527999999996,763.3307007999998 242.32175999999995,763.3307007999998 241.73207999999997C763.3307007999998 238.67135999999996,766.7564607999998 235.27367999999996,770.6876607999998 235.07711999999995"></path></g></g><g class="vf-modifiers"></g></g><g class="vf-stavenote" id="vf-auto2992295"><g class="vf-note" pointer-events="bounding-box"><g class="vf-stem" pointer-events="bounding-box"><path stroke-width="1.5" fill="none" stroke="#000000" stroke-dasharray="none" class="vf-stem" id="vf-auto2992295-stem" d="M792.5807007999998 255.29999999999995L792.5807007999998 290.29999999999995"></path></g><g class="vf-notehead" pointer-events="bounding-box"><path stroke-width="0.3" fill="#000000" stroke="none" stroke-dasharray="none" d="M791.8307007999998 255.29999999999995M799.1876607999998 250.07711999999995C799.2999807999998 250.07711999999995,799.4684607999998 250.07711999999995,799.4965407999998 250.07711999999995C799.4965407999998 250.07711999999995,799.5246207999999 250.07711999999995,799.5246207999999 250.07711999999995C799.5246207999999 250.07711999999995,799.6931007999998 250.07711999999995,799.8335007999998 250.07711999999995C802.3607007999998 250.21751999999995,803.8489407999998 251.87423999999996,803.8489407999998 253.95215999999996C803.8489407999998 254.96303999999995,803.5119807999998 256.11431999999996,802.6695807999998 257.20944C801.0690207999999 259.37159999999994,798.4575807999998 260.55096,796.1831007999998 260.55096C794.4140607999998 260.55096,792.8977407999998 259.84896,792.1676607999998 258.41687999999994C791.9430207999998 257.85527999999994,791.8307007999998 257.3217599999999,791.8307007999998 256.73207999999994C791.8307007999998 253.67135999999996,795.2564607999998 250.27367999999996,799.1876607999998 250.07711999999995"></path></g></g><g class="vf-modifiers"></g></g><g class="vf-stavenote" id="vf-auto2992303"><g class="vf-note" pointer-events="bounding-box"><g class="vf-stem" pointer-events="bounding-box"><path stroke-width="1.5" fill="none" stroke="#000000" stroke-dasharray="none" class="vf-stem" id="vf-auto2992303-stem" d="M860.0989407999998 295.29999999999995L860.0989407999998 260.29999999999995"></path></g><g class="vf-notehead" pointer-events="bounding-box"><path stroke-width="0.3" fill="#000000" stroke="none" stroke-dasharray="none" d="M848.8307007999998 295.29999999999995M856.1876607999998 290.07712C856.2999807999998 290.07712,856.4684607999998 290.07712,856.4965407999998 290.07712C856.4965407999998 290.07712,856.5246207999999 290.07712,856.5246207999999 290.07712C856.5246207999999 290.07712,856.6931007999998 290.07712,856.8335007999998 290.07712C859.3607007999998 290.21752,860.8489407999998 291.87423999999993,860.8489407999998 293.95215999999994C860.8489407999998 294.96304,860.5119807999998 296.11431999999996,859.6695807999998 297.20944C858.0690207999999 299.37159999999994,855.4575807999998 300.55096,853.1831007999998 300.55096C851.4140607999998 300.55096,849.8977407999998 299.84896,849.1676607999998 298.41687999999994C848.9430207999998 297.85527999999994,848.8307007999998 297.3217599999999,848.8307007999998 296.73207999999994C848.8307007999998 293.67135999999994,852.2564607999998 290.27367999999996,856.1876607999998 290.07712"></path></g></g><g class="vf-modifiers"></g></g><g class="vf-stavenote" id="vf-auto2992311"><g class="vf-note" pointer-events="bounding-box"><g class="vf-stem" pointer-events="bounding-box"><path stroke-width="1.5" fill="none" stroke="#000000" stroke-dasharray="none" class="vf-stem" id="vf-auto2992311-stem" d="M888.5989407999998 295.29999999999995L888.5989407999998 260.29999999999995"></path></g><g class="vf-notehead" pointer-events="bounding-box"><path stroke-width="0.3" fill="#000000" stroke="none" stroke-dasharray="none" d="M877.3307007999998 295.29999999999995M884.6876607999998 290.07712C884.7999807999998 290.07712,884.9684607999998 290.07712,884.9965407999998 290.07712C884.9965407999998 290.07712,885.0246207999999 290.07712,885.0246207999999 290.07712C885.0246207999999 290.07712,885.1931007999998 290.07712,885.3335007999998 290.07712C887.8607007999998 290.21752,889.3489407999998 291.87423999999993,889.3489407999998 293.95215999999994C889.3489407999998 294.96304,889.0119807999998 296.11431999999996,888.1695807999998 297.20944C886.5690207999999 299.37159999999994,883.9575807999998 300.55096,881.6831007999998 300.55096C879.9140607999998 300.55096,878.3977407999998 299.84896,877.6676607999998 298.41687999999994C877.4430207999998 297.85527999999994,877.3307007999998 297.3217599999999,877.3307007999998 296.73207999999994C877.3307007999998 293.67135999999994,880.7564607999998 290.27367999999996,884.6876607999998 290.07712"></path></g></g><g class="vf-modifiers"></g></g><path stroke-width="1" fill="none" stroke="#000000" stroke-dasharray="none" d="M902.8307007999998 245.29999999999995L920.8489407999998 245.29999999999995"></path><g class="vf-stavenote" id="vf-auto2992319"><g class="vf-note" pointer-events="bounding-box"><g class="vf-stem" pointer-events="bounding-box"><path stroke-width="1.5" fill="none" stroke="#000000" stroke-dasharray="none" class="vf-stem" id="vf-auto2992319-stem" d="M906.5807007999998 245.29999999999995L906.5807007999998 280.29999999999995"></path></g><g class="vf-notehead" pointer-events="bounding-box"><path stroke-width="0.3" fill="#000000" stroke="none" stroke-dasharray="none" d="M905.8307007999998 245.29999999999995M913.1876607999998 240.07711999999995C913.2999807999998 240.07711999999995,913.4684607999998 240.07711999999995,913.4965407999998 240.07711999999995C913.4965407999998 240.07711999999995,913.5246207999999 240.07711999999995,913.5246207999999 240.07711999999995C913.5246207999999 240.07711999999995,913.6931007999998 240.07711999999995,913.8335007999998 240.07711999999995C916.3607007999998 240.21751999999995,917.8489407999998 241.87423999999996,917.8489407999998 243.95215999999996C917.8489407999998 244.96303999999995,917.5119807999998 246.11431999999996,916.6695807999998 247.20943999999994C915.0690207999999 249.37159999999994,912.4575807999998 250.55095999999995,910.1831007999998 250.55095999999995C908.4140607999998 250.55095999999995,906.8977407999998 249.84895999999995,906.1676607999998 248.41687999999996C905.9430207999998 247.85527999999996,905.8307007999998 247.32175999999995,905.8307007999998 246.73207999999997C905.8307007999998 243.67135999999996,909.2564607999998 240.27367999999996,913.1876607999998 240.07711999999995"></path></g></g><g class="vf-modifiers"></g></g><rect stroke-width="0.3" fill="#000000" stroke="#000000" stroke-dasharray="none" x="928.1809343999998" y="166.5" width="1" height="129.79999999999995"></rect><rect stroke-width="0.3" fill="#000000" stroke="#000000" stroke-dasharray="none" x="931.1809343999998" y="166.5" width="3" height="129.79999999999995"></rect><path stroke-width="0.3" fill="#000000" stroke="none" stroke-dasharray="none" d="M68 166.5C45.2 192.45999999999998,81.2 213.87699999999998,56 231.39999999999998C81.2 248.92299999999997,45.2 270.34,68 296.29999999999995C44 270.34,72.8 248.92299999999997,56 231.39999999999998C72.8 213.87699999999998,44 192.45999999999998,68 166.5"></path><path stroke-width="1" fill="none" stroke="#000000" stroke-dasharray="none" d="M68 166.5C45.2 192.45999999999998,81.2 213.87699999999998,56 231.39999999999998C81.2 248.92299999999997,45.2 270.34,68 296.29999999999995C44 270.34,72.8 248.92299999999997,56 231.39999999999998C72.8 213.87699999999998,44 192.45999999999998,68 166.5"></path><g class="vf-text"><text stroke-width="0.3" fill="#000000" stroke="none" stroke-dasharray="none" font-family="Times New Roman" font-size="15px" font-weight="normal" font-style="normal" x="543.3804671999999" y="163.5">3</text></g></svg>