<svg xmlns="http://www.w3.org/2000/svg"  width="1470" height="391.79999999999995" viewBox="0 0 1470 391.79999999999995"><path stroke-width="1" fill="none" stroke="#000000" stroke-dasharray="none" d="M70 166.5L339.0302336 166.5"></path><path stroke-width="1" fill="none" stroke="#000000" stroke-dasharray="none" d="M70 176.5L339.0302336 176.5"></path><path stroke-width="1" fill="none" stroke="#000000" stroke-dasharray="none" d="M70 186.5L339.0302336 186.5"></path><path stroke-width="1" fill="none" stroke="#000000" stroke-dasharray="none" d="M70 196.5L339.0302336 196.5"></path><path stroke-width="1" fill="none" stroke="#000000" stroke-dasharray="none" d="M70 206.5L339.0302336 206.5"></path><rect stroke-width="0.3" fill="#000000" stroke="#000000" stroke-dasharray="none" x="339.0302336" y="166" width="1" height="41"></rect><g class="vf-clef"><path stroke-width="0.3" fill="#000000" stroke="none" stroke-dasharray="none" d="M75 196.5M89.0544 153.3288C89.112 153.3,89.1696 153.3,89.256 153.3C89.6016 153.3,90.0048 153.588,90.5808 154.308C92.9136 156.9864,94.5552 161.652,94.5552 165.4536C94.5552 165.7416,94.4976 165.972,94.4976 166.26C94.2384 170.7816,92.3952 174.4968,88.7376 178.0104L87.7584 178.9608L87.4128 179.3352L87.4128 179.4504L87.6144 180.3144L87.9312 181.8696L88.248 183.3096C88.68 185.268,88.8528 186.276,88.8528 186.276C88.8528 186.276,88.8528 186.276,88.8528 186.276C88.8528 186.276,88.968 186.276,89.112 186.2472C89.256 186.2472,89.7168 186.1896,90.2064 186.1896C90.55199999999999 186.1896,90.8976 186.2472,91.0704 186.2472C95.1312 186.7656,98.2704 189.6744,99.1632 193.764C99.336 194.4264,99.39359999999999 195.1464,99.39359999999999 195.8664C99.39359999999999 199.7544,97.0608 203.4696,93.1728 205.2264C92.94239999999999 205.3704,92.856 205.3992,92.856 205.3992L92.856 205.428C92.856 205.428,93.0288 206.0904,93.1728 206.8392L93.6048 209.028L94.008 210.7848C94.2384 211.908,94.3536 212.7144,94.3536 213.4344C94.3536 214.06799999999998,94.2672 214.644,94.1232 215.3064C93.144 219.3096,89.6592 221.7,86.0304 221.7C84.2448 221.7,82.4016 221.124,80.7888 219.828C79.3488 218.6184,78.7152 217.524,78.7152 216.084C78.7152 213.5496,80.76 211.764,82.8912 211.764C83.64 211.764,84.3888 211.99439999999998,85.1088 212.4264C86.3184 213.2616,86.8656 214.5288,86.8656 215.7672C86.8656 217.668,85.5408 219.54,83.2656 219.684L83.0352 219.684L83.208 219.79919999999998C84.1584 220.2024,85.1088 220.404,86.0304 220.404C88.3632 220.404,90.55199999999999 219.2232,91.8768 217.1784C92.62559999999999 216.0264,93.0288 214.6728,93.0288 213.3192C93.0288 212.8008,92.94239999999999 212.2824,92.8272 211.7064C92.8272 211.6488,92.74080000000001 211.188,92.62559999999999 210.756C91.992 207.6456,91.6176 205.8312,91.6176 205.8312C91.6176 205.8312,91.6176 205.8312,91.6176 205.8312C91.56 205.8312,91.4448 205.8312,91.3584 205.8888C91.0704 205.9464,90.4656 206.0904,90.2064 206.1192C89.5728 206.2056,88.968 206.2344,88.392 206.2344C82.74719999999999 206.2344,77.5056 202.4328,75.6912 196.8168C75.2304 195.3192,74.9712 193.8216,74.9712 192.324C74.9712 189.3288,75.9216 186.3912,77.7648 183.7704C79.7808 180.9192,81.7968 178.4712,84.2736 175.9368L85.13759999999999 175.044L84.936 173.9784L84.5616 172.2216L84.072 169.9752C83.928 169.14,83.7552 168.3336,83.7264 168.1608C83.5824 167.2104,83.496 166.2888,83.496 165.3384C83.496 161.7096,84.6768 158.22480000000002,86.8944 155.4312C87.5568 154.5672,88.7376 153.4152,89.0544 153.3288M90.8112 159.0312C90.7536 159.0312,90.6672 159.0312,90.5808 159.0312C89.4 159.0312,87.8736 160.1256,86.8368 161.7384C85.7712 163.32240000000002,85.224 165.4248,85.224 167.5848C85.224 168.1608,85.25280000000001 168.7656,85.3392 169.3704C85.4256 169.8024,85.45439999999999 170.0904,85.6848 171.12720000000002L86.088 172.9416C86.2032 173.4888,86.28960000000001 173.92079999999999,86.28960000000001 173.9784L86.28960000000001 173.9784C86.3184 173.9784,87.2112 172.9992,87.4992 172.6536C90.3792 169.3992,92.1072 165.972,92.4816 162.948C92.5104 162.66,92.5104 162.4296,92.5104 162.1416C92.5104 161.24880000000002,92.3952 160.38479999999998,92.1936 159.924C91.9632 159.4632,91.4448 159.0888,90.8112 159.0312M86.4624 181.2936C86.4048 180.8904,86.3184 180.5736,86.3184 180.516C86.3184 180.516,86.3184 180.516,86.28960000000001 180.516C86.232 180.516,84.9936 181.956,84.1296 182.964C82.6608 184.7496,81.1056 186.8808,80.472 187.9176C79.2624 189.9624,78.6576 192.2376,78.6576 194.484C78.6576 195.9528,78.9456 197.364,79.464 198.7176C81.0192 202.7208,84.5904 205.2264,88.4784 205.2264C88.9392 205.2264,89.4576 205.1976,89.9472 205.1112C90.5808 204.996,91.3584 204.7656,91.3584 204.6792L91.3584 204.6792C91.3584 204.6792,91.3008 204.3912,91.2144 204.0744L90.3792 199.956L89.7168 196.8744L89.2848 194.7432L88.824 192.6696C88.5936 191.4312,88.5072 191.1144,88.5072 191.1144C88.5072 191.1144,88.5072 191.0856,88.4784 191.0856C88.3056 191.0856,87.384 191.5464,86.9808 191.8344C85.4832 192.8712,84.7056 194.5128,84.7056 196.1256C84.7056 197.652,85.45439999999999 199.1784,86.8944 200.0712C87.2112 200.2728,87.3264 200.4456,87.3264 200.6472C87.3264 200.676,87.3264 200.7624,87.3264 200.7912C87.2688 201.1368,87.0672 201.2808,86.7792 201.2808C86.664 201.2808,86.52 201.252,86.3472 201.1656C83.6976 200.0136,81.912 197.2776,81.912 194.2824L81.912 194.2824C81.912 190.8264,84.072 187.8312,87.384 186.6504L87.5568 186.5928L87.2688 185.1528L86.4624 181.2936M90.7824 190.9128C90.55199999999999 190.88400000000001,90.3216 190.88400000000001,90.1488 190.88400000000001C90.0912 190.88400000000001,90.0048 190.88400000000001,89.9472 190.88400000000001L89.8032 190.88400000000001L89.9184 191.4024L90.5232 194.2248L90.8976 196.068L91.3008 197.8824L92.1072 201.8856L92.424 203.412C92.5392 203.8152,92.5968 204.1608,92.62559999999999 204.1608C92.62559999999999 204.1608,92.62559999999999 204.1608,92.62559999999999 204.1608C92.6544 204.1608,93.144 203.8728,93.4608 203.6424C94.9296 202.6056,96.024 200.9928,96.4272 199.3224C96.5712 198.7752,96.6288 198.1992,96.6288 197.652C96.6288 194.3112,94.152 191.2872,90.7824 190.9128"></path></g><path stroke-width="0.3" fill="#000000" stroke="none" stroke-dasharray="none" d="M116 186.5M123.344 167.8376C123.4592 167.8376,123.6608 167.8376,123.8912 167.8376C124.2944 167.8376,124.8416 167.8376,125.0432 167.8952C126.7712 168.1544,128.6144 169.3928,128.96 170.516C129.0464 170.7752,129.0752 171.00560000000002,129.0752 171.236C129.0752 172.532,127.9808 173.5112,126.8 173.5112C126.3392 173.5112,125.8784 173.39600000000002,125.4464 173.0504C124.928 172.5896,124.64 172.0136,124.64 171.3512C124.64 170.4584,125.1872 169.5368,126.13759999999999 169.2776C126.224 169.2776,126.25280000000001 169.2488,126.25280000000001 169.2488C126.25280000000001 169.2488,126.224 169.1912,126.13759999999999 169.1624C125.504 168.8744,124.8704 168.7592,124.2944 168.7592C123.4016 168.7592,122.624 169.076,122.048 169.6808C121.4432 170.4008,121.0112 171.8696,120.7232 174.0296C120.6944 174.548,120.608 175.5272,120.608 175.7288C120.608 175.7288,120.608 175.7288,120.608 175.7288C120.608 175.7288,120.608 175.7288,120.608 175.7288C120.608 175.7288,120.7232 175.6712,120.83840000000001 175.6424C121.76 175.268,122.5664 175.124,123.4304 175.124C124.4672 175.124,125.4464 175.3544,126.5408 175.9304C128.5568 176.9096,129.68 178.3496,129.68 180.0776C129.68 180.308,129.6224 180.5672,129.5936 180.8264C129.3056 182.4392,128.0672 183.764,126.0512 184.628C125.1296 185.0312,124.2944 185.2616,123.4592 185.2616C122.624 185.2616,121.76 185.0024,120.8096 184.5128C118.304 183.2456,116.576 180.88400000000001,116.1152 178.148C116.0288 177.6008,116 177.0536,116 176.4488C116 175.2392,116.1728 174.0296,116.576 173.0504C117.6704 170.2856,120.464 168.1544,123.344 167.8376M123.74719999999999 176.0456C123.632 176.0456,123.5168 176.0456,123.4016 176.0456C122.7968 176.0456,122.336 176.2472,122.048 176.564C121.6448 177.1688,121.35679999999999 178.6664,121.35679999999999 179.9912C121.35679999999999 180.2792,121.35679999999999 180.5672,121.3856 180.7976C121.5008 182.1512,121.8176 183.2744,122.1344 183.764C122.3648 184.1096,122.8544 184.3112,123.4016 184.3112C123.5168 184.3112,123.6608 184.3112,123.776 184.2824C124.6112 184.1672,124.928 183.6488,125.2448 182.0072C125.3888 181.2296,125.4752 180.5672,125.4752 179.9048C125.4752 179.2424,125.3888 178.6088,125.2448 177.8312C124.9568 176.6504,124.5824 176.1608,123.74719999999999 176.0456M122.7968 186.5288L122.8544 186.5288L122.768 186.5288L122.7968 186.5288M122.7968 167.1176L122.8544 167.1176L122.768 167.1176L122.7968 167.1176"></path><path stroke-width="0.3" fill="#000000" stroke="none" stroke-dasharray="none" d="M116.1008 206.5M121.11200000000001 188.1544C121.14080000000001 188.1256,121.54400000000001 188.1256,122.78240000000001 188.1256C123.1568 188.1256,123.56 188.1256,124.0784 188.1256L126.9872 188.1256L127.0736 188.212C127.2176 188.29840000000002,127.304 188.4424,127.304 188.5576C127.304 188.7304,127.2176 188.8456,127.1024 188.9608C127.0736 189.0472,126.8144 189.2776,126.64160000000001 189.5368L125.1152 191.2936L123.1568 193.5112L122.12 194.692L120.5648 196.4776L118.52000000000001 198.8104C118.1744 199.2424,117.80000000000001 199.588,117.80000000000001 199.588C117.80000000000001 199.588,117.80000000000001 199.588,117.80000000000001 199.588C117.80000000000001 199.6456,118.0592 199.6456,120.4496 199.6456L123.0704 199.6456L123.0704 197.7736C123.0704 195.8728,123.0704 195.844,123.09920000000001 195.8152C123.1568 195.7288,123.41600000000001 195.412,124.424 194.2312L124.8272 193.7992L125.2304 193.3672L125.8352 192.5896L126.4688 191.9272L126.7856 191.524C126.9008 191.3512,127.0736 191.3224,127.2176 191.3224C127.3904 191.3224,127.5344 191.4088,127.6208 191.5528C127.6496 191.6392,127.6496 191.6968,127.6496 193.828C127.6496 194.3176,127.6496 194.9224,127.6496 195.6424L127.6496 199.6456L128.3696 199.6456C129.032 199.6456,129.0608 199.6456,129.1472 199.6744C129.3776 199.7608,129.49280000000002 199.9912,129.49280000000002 200.2504C129.49280000000002 200.3944,129.464 200.5672,129.3488 200.6824C129.17600000000002 200.8264,129.1472 200.8264,128.3696 200.8264L127.6496 200.8264L127.6496 201.316C127.67840000000001 202.7848,127.96640000000001 203.3608,129.08960000000002 203.9656C129.49280000000002 204.1672,129.57920000000001 204.2248,129.57920000000001 204.5128C129.57920000000001 204.7144,129.5216 204.8008,129.3776 204.916L129.2912 204.9448L125.3456 204.9448L121.42880000000001 204.9448L121.34240000000001 204.916C121.1696 204.8008,121.14080000000001 204.7144,121.14080000000001 204.5128C121.14080000000001 204.2248,121.1696 204.1672,121.6016 203.9656C122.7248 203.3608,123.01280000000001 202.7848,123.01280000000001 201.316L123.01280000000001 200.8264L119.7008 200.8264C119.096 200.88400000000001,118.60640000000001 200.88400000000001,118.20320000000001 200.88400000000001C116.3888 200.88400000000001,116.36000000000001 200.8264,116.33120000000001 200.8264C116.1584 200.7688,116.1008 200.596,116.1008 200.3944C116.1008 200.3944,116.1008 200.3944,116.1008 200.3944C116.1008 200.1928,116.1008 200.1928,116.6768 199.5304C119.096 196.5928,120.79520000000001 192.3304,120.79520000000001 188.93200000000002C120.79520000000001 188.4136,120.8816 188.2408,121.11200000000001 188.1544M122.84 206.5288L122.86880000000001 206.5288L122.78240000000001 206.5288L122.84 206.5288M122.84 187.1176L122.86880000000001 187.1176L122.78240000000001 187.1176L122.84 187.1176"></path><g class="vf-stavenote" id="vf-auto2553763"><g class="vf-note" pointer-events="bounding-box"><g class="vf-stem" pointer-events="bounding-box"><path stroke-width="1.5" fill="none" stroke="#000000" stroke-dasharray="none" class="vf-stem" id="vf-auto2553763-stem" d="M319.04823999999996 211.5L319.04823999999996 176.5"></path></g><g class="vf-notehead" pointer-events="bounding-box"><path stroke-width="0.3" fill="#000000" stroke="none" stroke-dasharray="none" d="M307.78 211.5M315.13696 206.27712C315.24928 206.27712,315.41776 206.27712,315.44584 206.27712C315.44584 206.27712,315.47391999999996 206.27712,315.47391999999996 206.27712C315.47391999999996 206.27712,315.64239999999995 206.27712,315.78279999999995 206.27712C318.30999999999995 206.41752,319.79823999999996 208.07424,319.79823999999996 210.15216C319.79823999999996 211.16304,319.46128 212.31432,318.61888 213.40944C317.01831999999996 215.5716,314.40688 216.75096,312.13239999999996 216.75096C310.36336 216.75096,308.84704 216.04896,308.11695999999995 214.61688C307.89232 214.05528,307.78 213.52176,307.78 212.93208C307.78 209.87136,311.20576 206.47368,315.13696 206.27712"></path></g></g><g class="vf-modifiers"></g></g><path stroke-width="1" fill="none" stroke="#000000" stroke-dasharray="none" d="M339.0302335999999 166.5L534.2804671999999 166.5"></path><path stroke-width="1" fill="none" stroke="#000000" stroke-dasharray="none" d="M339.0302335999999 176.5L534.2804671999999 176.5"></path><path stroke-width="1" fill="none" stroke="#000000" stroke-dasharray="none" d="M339.0302335999999 186.5L534.2804671999999 186.5"></path><path stroke-width="1" fill="none" stroke="#000000" stroke-dasharray="none" d="M339.0302335999999 196.5L534.2804671999999 196.5"></path><path stroke-width="1" fill="none" stroke="#000000" stroke-dasharray="none" d="M339.0302335999999 206.5L534.2804671999999 206.5"></path><rect stroke-width="0.3" fill="#000000" stroke="#000000" stroke-dasharray="none" x="534.2804671999999" y="166" width="1" height="41"></rect><g class="vf-stavenote" id="vf-auto2553816"><g class="vf-note" pointer-events="bounding-box"><g class="vf-stem" pointer-events="bounding-box"><path stroke-width="1.5" fill="none" stroke="#000000" stroke-dasharray="none" class="vf-stem" id="vf-auto2553816-stem" d="M367.2984735999999 206.5L367.2984735999999 171.5"></path></g><g class="vf-notehead" pointer-events="bounding-box"><path stroke-width="0.3" fill="#000000" stroke="none" stroke-dasharray="none" d="M356.0302335999999 206.5M363.38719359999993 201.27712C363.49951359999994 201.27712,363.66799359999993 201.27712,363.6960735999999 201.27712C363.6960735999999 201.27712,363.7241535999999 201.27712,363.7241535999999 201.27712C363.7241535999999 201.27712,363.8926335999999 201.27712,364.0330335999999 201.27712C366.56023359999995 201.41752,368.0484735999999 203.07424,368.0484735999999 205.15216C368.0484735999999 206.16304,367.71151359999993 207.31432,366.86911359999993 208.40944C365.2685535999999 210.5716,362.6571135999999 211.75096,360.3826335999999 211.75096C358.61359359999994 211.75096,357.09727359999994 211.04896,356.3671935999999 209.61688C356.1425535999999 209.05528,356.0302335999999 208.52176,356.0302335999999 207.93208C356.0302335999999 204.87136,359.45599359999994 201.47368,363.38719359999993 201.27712"></path></g></g><g class="vf-modifiers"></g></g><g class="vf-stavenote" id="vf-auto2553824"><g class="vf-note" pointer-events="bounding-box"><g class="vf-stem" pointer-events="bounding-box"><path stroke-width="1.5" fill="none" stroke="#000000" stroke-dasharray="none" class="vf-stem" id="vf-auto2553824-stem" d="M386.7802335999999 181.5L386.7802335999999 216.5"></path></g><g class="vf-notehead" pointer-events="bounding-box"><path stroke-width="0.3" fill="#000000" stroke="none" stroke-dasharray="none" d="M386.0302335999999 181.5M393.38719359999993 176.27712C393.49951359999994 176.27712,393.66799359999993 176.27712,393.6960735999999 176.27712C393.6960735999999 176.27712,393.7241535999999 176.27712,393.7241535999999 176.27712C393.7241535999999 176.27712,393.8926335999999 176.27712,394.0330335999999 176.27712C396.56023359999995 176.41752,398.0484735999999 178.07424,398.0484735999999 180.15216C398.0484735999999 181.16304,397.71151359999993 182.31432,396.86911359999993 183.40944C395.2685535999999 185.5716,392.6571135999999 186.75096,390.3826335999999 186.75096C388.61359359999994 186.75096,387.09727359999994 186.04896,386.3671935999999 184.61688C386.1425535999999 184.05528,386.0302335999999 183.52176,386.0302335999999 182.93208C386.0302335999999 179.87136,389.45599359999994 176.47368,393.38719359999993 176.27712"></path></g></g><g class="vf-modifiers"></g></g><g class="vf-stavenote" id="vf-auto2553832"><g class="vf-note" pointer-events="bounding-box"><g class="vf-stem" pointer-events="bounding-box"><path stroke-width="1.5" fill="none" stroke="#000000" stroke-dasharray="none" class="vf-stem" id="vf-auto2553832-stem" d="M457.2984735999999 206.5L457.2984735999999 171.5"></path></g><g class="vf-notehead" pointer-events="bounding-box"><path stroke-width="0.3" fill="#000000" stroke="none" stroke-dasharray="none" d="M446.0302335999999 206.5M453.38719359999993 201.27712C453.49951359999994 201.27712,453.66799359999993 201.27712,453.6960735999999 201.27712C453.6960735999999 201.27712,453.7241535999999 201.27712,453.7241535999999 201.27712C453.7241535999999 201.27712,453.8926335999999 201.27712,454.0330335999999 201.27712C456.56023359999995 201.41752,458.0484735999999 203.07424,458.0484735999999 205.15216C458.0484735999999 206.16304,457.71151359999993 207.31432,456.86911359999993 208.40944C455.2685535999999 210.5716,452.6571135999999 211.75096,450.3826335999999 211.75096C448.61359359999994 211.75096,447.09727359999994 211.04896,446.3671935999999 209.61688C446.1425535999999 209.05528,446.0302335999999 208.52176,446.0302335999999 207.93208C446.0302335999999 204.87136,449.45599359999994 201.47368,453.38719359999993 201.27712"></path></g></g><g class="vf-modifiers"></g></g><path stroke-width="1" fill="none" stroke="#000000" stroke-dasharray="none" d="M534.2804671999999 166.5L725.3307007999998 166.5"></path><path stroke-width="1" fill="none" stroke="#000000" stroke-dasharray="none" d="M534.2804671999999 176.5L725.3307007999998 176.5"></path><path stroke-width="1" fill="none" stroke="#000000" stroke-dasharray="none" d="M534.2804671999999 186.5L725.3307007999998 186.5"></path><path stroke-width="1" fill="none" stroke="#000000" stroke-dasharray="none" d="M534.2804671999999 196.5L725.3307007999998 196.5"></path><path stroke-width="1" fill="none" stroke="#000000" stroke-dasharray="none" d="M534.2804671999999 206.5L725.3307007999998 206.5"></path><rect stroke-width="0.3" fill="#000000" stroke="#000000" stroke-dasharray="none" x="725.3307007999998" y="166" width="1" height="41"></rect><path stroke-width="1" fill="none" stroke="#000000" stroke-dasharray="none" d="M606.9471338666665 216.5L624.9653738666665 216.5"></path><g class="vf-stavenote" id="vf-auto2553870"><g class="vf-note" pointer-events="bounding-box"><g class="vf-stem" pointer-events="bounding-box"><path stroke-width="1.5" fill="none" stroke="#000000" stroke-dasharray="none" class="vf-stem" id="vf-auto2553870-stem" d="M621.2153738666665 216.5L621.2153738666665 181.5"></path></g><g class="vf-notehead" pointer-events="bounding-box"><path stroke-width="0.3" fill="#000000" stroke="none" stroke-dasharray="none" d="M609.9471338666665 216.5M617.3040938666664 211.27712C617.4164138666665 211.27712,617.5848938666664 211.27712,617.6129738666665 211.27712C617.6129738666665 211.27712,617.6410538666665 211.27712,617.6410538666665 211.27712C617.6410538666665 211.27712,617.8095338666665 211.27712,617.9499338666665 211.27712C620.4771338666665 211.41752,621.9653738666665 213.07424,621.9653738666665 215.15216C621.9653738666665 216.16304,621.6284138666665 217.31432,620.7860138666665 218.40944C619.1854538666665 220.5716,616.5740138666665 221.75096,614.2995338666665 221.75096C612.5304938666665 221.75096,611.0141738666665 221.04896,610.2840938666665 219.61688C610.0594538666664 219.05528,609.9471338666665 218.52176,609.9471338666665 217.93208C609.9471338666665 214.87136,613.3728938666665 211.47368,617.3040938666664 211.27712"></path></g></g><g class="vf-modifiers"></g></g><path stroke-width="1" fill="none" stroke="#000000" stroke-dasharray="none" d="M636.2804671999999 216.5L654.2987071999999 216.5"></path><g class="vf-stavenote" id="vf-auto2553878"><g class="vf-note" pointer-events="bounding-box"><g class="vf-stem" pointer-events="bounding-box"><path stroke-width="1.5" fill="none" stroke="#000000" stroke-dasharray="none" class="vf-stem" id="vf-auto2553878-stem" d="M650.5487071999999 216.5L650.5487071999999 181.5"></path></g><g class="vf-notehead" pointer-events="bounding-box"><path stroke-width="0.3" fill="#000000" stroke="none" stroke-dasharray="none" d="M639.2804671999999 216.5M646.6374271999998 211.27712C646.7497471999999 211.27712,646.9182271999998 211.27712,646.9463071999999 211.27712C646.9463071999999 211.27712,646.9743871999999 211.27712,646.9743871999999 211.27712C646.9743871999999 211.27712,647.1428671999998 211.27712,647.2832671999998 211.27712C649.8104671999998 211.41752,651.2987071999999 213.07424,651.2987071999999 215.15216C651.2987071999999 216.16304,650.9617471999999 217.31432,650.1193471999999 218.40944C648.5187871999999 220.5716,645.9073471999999 221.75096,643.6328671999999 221.75096C641.8638271999998 221.75096,640.3475071999999 221.04896,639.6174271999998 219.61688C639.3927871999998 219.05528,639.2804671999999 218.52176,639.2804671999999 217.93208C639.2804671999999 214.87136,642.7062271999998 211.47368,646.6374271999998 211.27712"></path></g></g><g class="vf-modifiers"></g></g><path stroke-width="1" fill="none" stroke="#000000" stroke-dasharray="none" d="M725.3307007999999 166.5L930.5809343999999 166.5"></path><path stroke-width="1" fill="none" stroke="#000000" stroke-dasharray="none" d="M725.3307007999999 176.5L930.5809343999999 176.5"></path><path stroke-width="1" fill="none" stroke="#000000" stroke-dasharray="none" d="M725.3307007999999 186.5L930.5809343999999 186.5"></path><path stroke-width="1" fill="none" stroke="#000000" stroke-dasharray="none" d="M725.3307007999999 196.5L930.5809343999999 196.5"></path><path stroke-width="1" fill="none" stroke="#000000" stroke-dasharray="none" d="M725.3307007999999 206.5L930.5809343999999 206.5"></path><rect stroke-width="0.3" fill="#000000" stroke="#000000" stroke-dasharray="none" x="925.5809343999999" y="166" width="1" height="41"></rect><rect stroke-width="0.3" fill="#000000" stroke="#000000" stroke-dasharray="none" x="928.5809343999999" y="166" width="3" height="41"></rect><path stroke-width="0.3" fill="#000000" stroke="none" stroke-dasharray="none" d="M924.5809343999999 182 A2 2 0 0 0 920.5809343999999 182M920.5809343999999 182 A2 2 0 0 0 924.5809343999999 182"></path><path stroke-width="0.3" fill="#000000" stroke="none" stroke-dasharray="none" d="M924.5809343999999 192 A2 2 0 0 0 920.5809343999999 192M920.5809343999999 192 A2 2 0 0 0 924.5809343999999 192"></path><g class="vf-stavenote" id="vf-auto2553923"><g class="vf-note" pointer-events="bounding-box"><g class="vf-stem" pointer-events="bounding-box"><path stroke-width="1.5" fill="none" stroke="#000000" stroke-dasharray="none" class="vf-stem" id="vf-auto2553923-stem" d="M743.0807007999999 181.5L743.0807007999999 216.5"></path></g><g class="vf-notehead" pointer-events="bounding-box"><path stroke-width="0.3" fill="#000000" stroke="none" stroke-dasharray="none" d="M742.3307007999999 181.5M749.6876607999999 176.27712C749.7999808 176.27712,749.9684607999999 176.27712,749.9965407999999 176.27712C749.9965407999999 176.27712,750.0246208 176.27712,750.0246208 176.27712C750.0246208 176.27712,750.1931007999999 176.27712,750.3335007999999 176.27712C752.8607007999999 176.41752,754.3489407999999 178.07424,754.3489407999999 180.15216C754.3489407999999 181.16304,754.0119808 182.31432,753.1695808 183.40944C751.5690208 185.5716,748.9575808 186.75096,746.6831007999999 186.75096C744.9140607999999 186.75096,743.3977408 186.04896,742.6676607999999 184.61688C742.4430207999999 184.05528,742.3307007999999 183.52176,742.3307007999999 182.93208C742.3307007999999 179.87136,745.7564607999999 176.47368,749.6876607999999 176.27712"></path></g></g><g class="vf-modifiers"></g></g><g class="vf-stavenote" id="vf-auto2553931"><g class="vf-note" pointer-events="bounding-box"><g class="vf-stem" pointer-events="bounding-box"><path stroke-width="1.5" fill="none" stroke="#000000" stroke-dasharray="none" class="vf-stem" id="vf-auto2553931-stem" d="M785.2656074666666 201.5L785.2656074666666 166.5"></path></g><g class="vf-notehead" pointer-events="bounding-box"><path stroke-width="0.3" fill="#000000" stroke="none" stroke-dasharray="none" d="M773.9973674666666 201.5M781.3543274666665 196.27712C781.4666474666666 196.27712,781.6351274666665 196.27712,781.6632074666666 196.27712C781.6632074666666 196.27712,781.6912874666666 196.27712,781.6912874666666 196.27712C781.6912874666666 196.27712,781.8597674666665 196.27712,782.0001674666665 196.27712C784.5273674666665 196.41752,786.0156074666666 198.07424,786.0156074666666 200.15216C786.0156074666666 201.16304,785.6786474666666 202.31432,784.8362474666666 203.40944C783.2356874666666 205.5716,780.6242474666666 206.75096,778.3497674666665 206.75096C776.5807274666665 206.75096,775.0644074666666 206.04896,774.3343274666665 204.61688C774.1096874666665 204.05528,773.9973674666666 203.52176,773.9973674666666 202.93208C773.9973674666666 199.87136,777.4231274666665 196.47368,781.3543274666665 196.27712"></path></g></g><g class="vf-modifiers"></g></g><g class="vf-stavenote" id="vf-auto2553939"><g class="vf-note" pointer-events="bounding-box"><g class="vf-stem" pointer-events="bounding-box"><path stroke-width="1.5" fill="none" stroke="#000000" stroke-dasharray="none" class="vf-stem" id="vf-auto2553939-stem" d="M838.0807007999999 176.5L838.0807007999999 211.5"></path></g><g class="vf-notehead" pointer-events="bounding-box"><path stroke-width="0.3" fill="#000000" stroke="none" stroke-dasharray="none" d="M837.3307007999999 176.5M844.6876607999999 171.27712C844.7999808 171.27712,844.9684607999999 171.27712,844.9965407999999 171.27712C844.9965407999999 171.27712,845.0246208 171.27712,845.0246208 171.27712C845.0246208 171.27712,845.1931007999999 171.27712,845.3335007999999 171.27712C847.8607007999999 171.41752,849.3489407999999 173.07424,849.3489407999999 175.15216C849.3489407999999 176.16304,849.0119808 177.31432,848.1695808 178.40944C846.5690208 180.5716,843.9575808 181.75096,841.6831007999999 181.75096C839.9140607999999 181.75096,838.3977408 181.04896,837.6676607999999 179.61688C837.4430207999999 179.05528,837.3307007999999 178.52176,837.3307007999999 177.93208C837.3307007999999 174.87136,840.7564607999999 171.47368,844.6876607999999 171.27712"></path></g></g><g class="vf-modifiers"></g></g><g class="vf-text"><text stroke-width="0.3" fill="#000000" stroke="none" stroke-dasharray="none" font-family="Times New Roman" font-size="23px" font-weight="bold" font-style="italic" x="160.18" y="240.5">pp</text></g><path stroke-width="1" fill="none" stroke="#000000" stroke-dasharray="none" d="M70 270.29999999999995L339.0302336 270.29999999999995"></path><path stroke-width="1" fill="none" stroke="#000000" stroke-dasharray="none" d="M70 280.29999999999995L339.0302336 280.29999999999995"></path><path stroke-width="1" fill="none" stroke="#000000" stroke-dasharray="none" d="M70 290.29999999999995L339.0302336 290.29999999999995"></path><path stroke-width="1" fill="none" stroke="#000000" stroke-dasharray="none" d="M70 300.29999999999995L339.0302336 300.29999999999995"></path><path stroke-width="1" fill="none" stroke="#000000" stroke-dasharray="none" d="M70 310.29999999999995L339.0302336 310.29999999999995"></path><rect stroke-width="0.3" fill="#000000" stroke="#000000" stroke-dasharray="none" x="339.0302336" y="269.79999999999995" width="1" height="41"></rect><g class="vf-clef"><path stroke-width="0.3" fill="#000000" stroke="none" stroke-dasharray="none" d="M75 280.29999999999995M83.8416 270.24879999999996C84.072 270.1912,84.3024 270.1912,84.5616 270.1912C85.5696 270.1912,86.7504 270.30639999999994,87.7584 270.508C92.4816 271.4872,95.736 274.68399999999997,96.3408 278.9464C96.3984 279.40719999999993,96.4272 279.83919999999995,96.4272 280.29999999999995C96.4272 282.89199999999994,95.5344 286.23279999999994,94.008 289.02639999999997C90.3792 295.59279999999995,83.7552 300.316,75.8064 302.044C75.6624 302.044,75.5472 302.0728,75.4032 302.0728C75.1152 302.0728,74.9712 301.9,74.9712 301.64079999999996C74.9712 301.35279999999995,75.0288 301.2664,75.6048 301.03599999999994C84.7056 297.6088,90.7824 290.20719999999994,91.3296 281.91279999999995C91.3584 281.48079999999993,91.3584 280.99119999999994,91.3584 280.61679999999996C91.3584 276.5848,90.12 273.58959999999996,87.7296 272.0919999999999C86.6928 271.42959999999994,85.5696 271.11279999999994,84.36 271.11279999999994C81.6816 271.11279999999994,78.9456 272.63919999999996,77.6784 275.20239999999995C77.6208 275.40399999999994,77.4192 275.83599999999996,77.4192 275.86479999999995C77.4192 275.86479999999995,77.4192 275.86479999999995,77.4192 275.86479999999995C77.4192 275.86479999999995,77.448 275.83599999999996,77.5344 275.80719999999997C78.168 275.40399999999994,78.8592 275.20239999999995,79.5792 275.20239999999995C80.5872 275.20239999999995,81.6528 275.63439999999997,82.4016 276.44079999999997C83.0928 277.1895999999999,83.4672 278.19759999999997,83.4672 279.1192C83.4672 280.99119999999994,82.0848 282.89199999999994,79.9248 283.0936C79.7808 283.0936,79.6368 283.12239999999997,79.4928 283.12239999999997C77.1024 283.12239999999997,75.1728 280.93359999999996,75.1728 278.1688C75.1728 278.11119999999994,75.1728 278.02479999999997,75.1728 277.996C75.288 273.8776,79.0608 270.508,83.8416 270.24879999999996M99.1632 274.10799999999995C99.2208 274.07919999999996,99.2496 274.07919999999996,99.336 274.07919999999996C99.5376 274.07919999999996,99.768 274.10799999999995,99.8256 274.1655999999999C100.54560000000001 274.36719999999997,100.8912 275.00079999999997,100.8912 275.6056C100.8912 276.12399999999997,100.632 276.64239999999995,100.11359999999999 276.93039999999996C99.912 277.07439999999997,99.6528 277.10319999999996,99.39359999999999 277.10319999999996C98.9904 277.10319999999996,98.5584 276.93039999999996,98.2704 276.5559999999999C98.03999999999999 276.268,97.9248 275.9512,97.9248 275.63439999999997C97.9248 274.91439999999994,98.3856 274.1944,99.1632 274.10799999999995M99.1632 283.52559999999994C99.2208 283.52559999999994,99.2496 283.52559999999994,99.336 283.52559999999994C99.5376 283.52559999999994,99.768 283.55439999999993,99.8256 283.61199999999997C100.54560000000001 283.81359999999995,100.8912 284.44719999999995,100.8912 285.05199999999996C100.8912 285.57039999999995,100.632 286.08879999999994,100.11359999999999 286.34799999999996C99.912 286.49199999999996,99.6528 286.54959999999994,99.39359999999999 286.54959999999994C98.9904 286.54959999999994,98.5584 286.34799999999996,98.2704 286.00239999999997C98.03999999999999 285.71439999999996,97.9248 285.39759999999995,97.9248 285.05199999999996C97.9248 284.33199999999994,98.3856 283.64079999999996,99.1632 283.52559999999994"></path></g><path stroke-width="0.3" fill="#000000" stroke="none" stroke-dasharray="none" d="M116 290.29999999999995M123.344 271.63759999999996C123.4592 271.63759999999996,123.6608 271.63759999999996,123.8912 271.63759999999996C124.2944 271.63759999999996,124.8416 271.63759999999996,125.0432 271.69519999999994C126.7712 271.95439999999996,128.6144 273.1928,128.96 274.316C129.0464 274.57519999999994,129.0752 274.80559999999997,129.0752 275.03599999999994C129.0752 276.33199999999994,127.9808 277.31119999999993,126.8 277.31119999999993C126.3392 277.31119999999993,125.8784 277.19599999999997,125.4464 276.8504C124.928 276.3896,124.64 275.81359999999995,124.64 275.15119999999996C124.64 274.25839999999994,125.1872 273.3367999999999,126.13759999999999 273.07759999999996C126.224 273.07759999999996,126.25280000000001 273.04879999999997,126.25280000000001 273.04879999999997C126.25280000000001 273.04879999999997,126.224 272.99119999999994,126.13759999999999 272.96239999999995C125.504 272.67439999999993,124.8704 272.5592,124.2944 272.5592C123.4016 272.5592,122.624 272.876,122.048 273.48079999999993C121.4432 274.20079999999996,121.0112 275.66959999999995,120.7232 277.82959999999997C120.6944 278.34799999999996,120.608 279.32719999999995,120.608 279.52879999999993C120.608 279.52879999999993,120.608 279.52879999999993,120.608 279.52879999999993C120.608 279.52879999999993,120.608 279.52879999999993,120.608 279.52879999999993C120.608 279.52879999999993,120.7232 279.47119999999995,120.83840000000001 279.44239999999996C121.76 279.068,122.5664 278.924,123.4304 278.924C124.4672 278.924,125.4464 279.15439999999995,126.5408 279.7304C128.5568 280.70959999999997,129.68 282.14959999999996,129.68 283.8776C129.68 284.10799999999995,129.6224 284.36719999999997,129.5936 284.62639999999993C129.3056 286.2392,128.0672 287.56399999999996,126.0512 288.42799999999994C125.1296 288.83119999999997,124.2944 289.06159999999994,123.4592 289.06159999999994C122.624 289.06159999999994,121.76 288.8024,120.8096 288.3128C118.304 287.0456,116.576 284.68399999999997,116.1152 281.948C116.0288 281.40079999999995,116 280.8536,116 280.24879999999996C116 279.03919999999994,116.1728 277.82959999999997,116.576 276.8504C117.6704 274.08559999999994,120.464 271.95439999999996,123.344 271.63759999999996M123.74719999999999 279.84559999999993C123.632 279.84559999999993,123.5168 279.84559999999993,123.4016 279.84559999999993C122.7968 279.84559999999993,122.336 280.0472,122.048 280.364C121.6448 280.96879999999993,121.35679999999999 282.46639999999996,121.35679999999999 283.79119999999995C121.35679999999999 284.07919999999996,121.35679999999999 284.36719999999997,121.3856 284.59759999999994C121.5008 285.9512,121.8176 287.07439999999997,122.1344 287.56399999999996C122.3648 287.90959999999995,122.8544 288.11119999999994,123.4016 288.11119999999994C123.5168 288.11119999999994,123.6608 288.11119999999994,123.776 288.08239999999995C124.6112 287.96719999999993,124.928 287.44879999999995,125.2448 285.80719999999997C125.3888 285.02959999999996,125.4752 284.36719999999997,125.4752 283.7048C125.4752 283.04239999999993,125.3888 282.4087999999999,125.2448 281.6312C124.9568 280.45039999999995,124.5824 279.96079999999995,123.74719999999999 279.84559999999993M122.7968 290.32879999999994L122.8544 290.32879999999994L122.768 290.32879999999994L122.7968 290.32879999999994M122.7968 270.91759999999994L122.8544 270.91759999999994L122.768 270.91759999999994L122.7968 270.91759999999994"></path><path stroke-width="0.3" fill="#000000" stroke="none" stroke-dasharray="none" d="M116.1008 310.29999999999995M121.11200000000001 291.95439999999996C121.14080000000001 291.9256,121.54400000000001 291.9256,122.78240000000001 291.9256C123.1568 291.9256,123.56 291.9256,124.0784 291.9256L126.9872 291.9256L127.0736 292.01199999999994C127.2176 292.09839999999997,127.304 292.2424,127.304 292.35759999999993C127.304 292.53039999999993,127.2176 292.64559999999994,127.1024 292.76079999999996C127.0736 292.84719999999993,126.8144 293.07759999999996,126.64160000000001 293.3367999999999L125.1152 295.0936L123.1568 297.31119999999993L122.12 298.49199999999996L120.5648 300.27759999999995L118.52000000000001 302.61039999999997C118.1744 303.04239999999993,117.80000000000001 303.388,117.80000000000001 303.388C117.80000000000001 303.388,117.80000000000001 303.388,117.80000000000001 303.388C117.80000000000001 303.44559999999996,118.0592 303.44559999999996,120.4496 303.44559999999996L123.0704 303.44559999999996L123.0704 301.57359999999994C123.0704 299.67279999999994,123.0704 299.64399999999995,123.09920000000001 299.61519999999996C123.1568 299.52879999999993,123.41600000000001 299.21199999999993,124.424 298.03119999999996L124.8272 297.59919999999994L125.2304 297.1672L125.8352 296.3896L126.4688 295.7272L126.7856 295.32399999999996C126.9008 295.15119999999996,127.0736 295.12239999999997,127.2176 295.12239999999997C127.3904 295.12239999999997,127.5344 295.20879999999994,127.6208 295.35279999999995C127.6496 295.43919999999997,127.6496 295.49679999999995,127.6496 297.62799999999993C127.6496 298.1176,127.6496 298.72239999999994,127.6496 299.44239999999996L127.6496 303.44559999999996L128.3696 303.44559999999996C129.032 303.44559999999996,129.0608 303.44559999999996,129.1472 303.47439999999995C129.3776 303.5608,129.49280000000002 303.79119999999995,129.49280000000002 304.05039999999997C129.49280000000002 304.1944,129.464 304.36719999999997,129.3488 304.4823999999999C129.17600000000002 304.62639999999993,129.1472 304.62639999999993,128.3696 304.62639999999993L127.6496 304.62639999999993L127.6496 305.11599999999993C127.67840000000001 306.5848,127.96640000000001 307.16079999999994,129.08960000000002 307.76559999999995C129.49280000000002 307.96719999999993,129.57920000000001 308.02479999999997,129.57920000000001 308.3128C129.57920000000001 308.51439999999997,129.5216 308.60079999999994,129.3776 308.71599999999995L129.2912 308.74479999999994L125.3456 308.74479999999994L121.42880000000001 308.74479999999994L121.34240000000001 308.71599999999995C121.1696 308.60079999999994,121.14080000000001 308.51439999999997,121.14080000000001 308.3128C121.14080000000001 308.02479999999997,121.1696 307.96719999999993,121.6016 307.76559999999995C122.7248 307.16079999999994,123.01280000000001 306.5848,123.01280000000001 305.11599999999993L123.01280000000001 304.62639999999993L119.7008 304.62639999999993C119.096 304.68399999999997,118.60640000000001 304.68399999999997,118.20320000000001 304.68399999999997C116.3888 304.68399999999997,116.36000000000001 304.62639999999993,116.33120000000001 304.62639999999993C116.1584 304.56879999999995,116.1008 304.39599999999996,116.1008 304.1944C116.1008 304.1944,116.1008 304.1944,116.1008 304.1944C116.1008 303.99279999999993,116.1008 303.99279999999993,116.6768 303.33039999999994C119.096 300.39279999999997,120.79520000000001 296.13039999999995,120.79520000000001 292.73199999999997C120.79520000000001 292.21359999999993,120.8816 292.04079999999993,121.11200000000001 291.95439999999996M122.84 310.32879999999994L122.86880000000001 310.32879999999994L122.78240000000001 310.32879999999994L122.84 310.32879999999994M122.84 290.91759999999994L122.86880000000001 290.91759999999994L122.78240000000001 290.91759999999994L122.84 290.91759999999994"></path><g class="vf-stavenote" id="vf-auto2553774"><g class="vf-note" pointer-events="bounding-box"><g class="vf-stem" pointer-events="bounding-box"><path stroke-width="1.5" fill="none" stroke="#000000" stroke-dasharray="none" class="vf-stem" id="vf-auto2553774-stem" d="M152.94824 290.29999999999995L152.94824 255.29999999999995"></path></g><g class="vf-notehead" pointer-events="bounding-box"><path stroke-width="0.3" fill="#000000" stroke="none" stroke-dasharray="none" d="M141.68 290.29999999999995M149.03696 285.07712C149.14928 285.07712,149.31776000000002 285.07712,149.34584 285.07712C149.34584 285.07712,149.37392 285.07712,149.37392 285.07712C149.37392 285.07712,149.54240000000001 285.07712,149.68280000000001 285.07712C152.21 285.21752,153.69824 286.87423999999993,153.69824 288.95215999999994C153.69824 289.96304,153.36128000000002 291.11431999999996,152.51888 292.20944C150.91832 294.37159999999994,148.30688 295.55096,146.0324 295.55096C144.26336 295.55096,142.74704 294.84896,142.01696 293.41687999999994C141.79232000000002 292.85527999999994,141.68 292.3217599999999,141.68 291.73207999999994C141.68 288.67135999999994,145.10576 285.27367999999996,149.03696 285.07712"></path></g></g><g class="vf-modifiers"></g></g><path stroke-width="1" fill="none" stroke="#000000" stroke-dasharray="none" d="M171.9 260.29999999999995L189.91824 260.29999999999995"></path><g class="vf-stavenote" id="vf-auto2553782"><g class="vf-note" pointer-events="bounding-box"><g class="vf-stem" pointer-events="bounding-box"><path stroke-width="1.5" fill="none" stroke="#000000" stroke-dasharray="none" class="vf-stem" id="vf-auto2553782-stem" d="M175.65 260.29999999999995L175.65 295.29999999999995"></path></g><g class="vf-notehead" pointer-events="bounding-box"><path stroke-width="0.3" fill="#000000" stroke="none" stroke-dasharray="none" d="M174.9 260.29999999999995M182.25696 255.07711999999995C182.36928 255.07711999999995,182.53776 255.07711999999995,182.56584 255.07711999999995C182.56584 255.07711999999995,182.59392 255.07711999999995,182.59392 255.07711999999995C182.59392 255.07711999999995,182.7624 255.07711999999995,182.9028 255.07711999999995C185.43 255.21751999999995,186.91824 256.87423999999993,186.91824 258.95215999999994C186.91824 259.96304,186.58128 261.11431999999996,185.73888 262.20944C184.13832 264.37159999999994,181.52688 265.55096,179.2524 265.55096C177.48336 265.55096,175.96704 264.84896,175.23696 263.41687999999994C175.01232000000002 262.85527999999994,174.9 262.3217599999999,174.9 261.73207999999994C174.9 258.67135999999994,178.32576 255.27367999999996,182.25696 255.07711999999995"></path></g></g><g class="vf-modifiers"></g></g><g class="vf-stavenote" id="vf-auto2553790"><g class="vf-note" pointer-events="bounding-box"><g class="vf-stem" pointer-events="bounding-box"><path stroke-width="1.5" fill="none" stroke="#000000" stroke-dasharray="none" class="vf-stem" id="vf-auto2553790-stem" d="M219.38824 295.29999999999995L219.38824 260.29999999999995"></path></g><g class="vf-notehead" pointer-events="bounding-box"><path stroke-width="0.3" fill="#000000" stroke="none" stroke-dasharray="none" d="M208.12 295.29999999999995M215.47696 290.07712C215.58928 290.07712,215.75776000000002 290.07712,215.78584 290.07712C215.78584 290.07712,215.81392 290.07712,215.81392 290.07712C215.81392 290.07712,215.9824 290.07712,216.1228 290.07712C218.65 290.21752,220.13824 291.87423999999993,220.13824 293.95215999999994C220.13824 294.96304,219.80128000000002 296.11431999999996,218.95888 297.20944C217.35832 299.37159999999994,214.74688 300.55096,212.4724 300.55096C210.70336 300.55096,209.18704 299.84896,208.45696 298.41687999999994C208.23232000000002 297.85527999999994,208.12 297.3217599999999,208.12 296.73207999999994C208.12 293.67135999999994,211.54576 290.27367999999996,215.47696 290.07712"></path></g></g><g class="vf-modifiers"></g></g><g class="vf-stavenote" id="vf-auto2553798"><g class="vf-note" pointer-events="bounding-box"><g class="vf-stem" pointer-events="bounding-box"><path stroke-width="1.5" fill="none" stroke="#000000" stroke-dasharray="none" class="vf-stem" id="vf-auto2553798-stem" d="M242.09 265.29999999999995L242.09 300.29999999999995"></path></g><g class="vf-notehead" pointer-events="bounding-box"><path stroke-width="0.3" fill="#000000" stroke="none" stroke-dasharray="none" d="M241.34 265.29999999999995M248.69696 260.07712C248.80928 260.07712,248.97776 260.07712,249.00584 260.07712C249.00584 260.07712,249.03392 260.07712,249.03392 260.07712C249.03392 260.07712,249.2024 260.07712,249.3428 260.07712C251.87 260.21752,253.35824 261.87423999999993,253.35824 263.95215999999994C253.35824 264.96304,253.02128 266.11431999999996,252.17888 267.20944C250.57832 269.37159999999994,247.96688 270.55096,245.6924 270.55096C243.92336 270.55096,242.40704 269.84896,241.67696 268.41687999999994C241.45232000000001 267.85527999999994,241.34 267.3217599999999,241.34 266.73207999999994C241.34 263.67135999999994,244.76576 260.27367999999996,248.69696 260.07712"></path></g></g><g class="vf-modifiers"></g></g><path stroke-width="1" fill="none" stroke="#000000" stroke-dasharray="none" d="M271.56 260.29999999999995L289.57824 260.29999999999995"></path><g class="vf-stavenote" id="vf-auto2553806"><g class="vf-note" pointer-events="bounding-box"><g class="vf-stem" pointer-events="bounding-box"><path stroke-width="1.5" fill="none" stroke="#000000" stroke-dasharray="none" class="vf-stem" id="vf-auto2553806-stem" d="M275.31 260.29999999999995L275.31 295.29999999999995"></path></g><g class="vf-notehead" pointer-events="bounding-box"><path stroke-width="0.3" fill="#000000" stroke="none" stroke-dasharray="none" d="M274.56 260.29999999999995M281.91696 255.07711999999995C282.02928 255.07711999999995,282.19776 255.07711999999995,282.22584 255.07711999999995C282.22584 255.07711999999995,282.25392 255.07711999999995,282.25392 255.07711999999995C282.25392 255.07711999999995,282.4224 255.07711999999995,282.5628 255.07711999999995C285.09000000000003 255.21751999999995,286.57824 256.87423999999993,286.57824 258.95215999999994C286.57824 259.96304,286.24128 261.11431999999996,285.39888 262.20944C283.79832 264.37159999999994,281.18688 265.55096,278.9124 265.55096C277.14336000000003 265.55096,275.62704 264.84896,274.89696 263.41687999999994C274.67232 262.85527999999994,274.56 262.3217599999999,274.56 261.73207999999994C274.56 258.67135999999994,277.98576 255.27367999999996,281.91696 255.07711999999995"></path></g></g><g class="vf-modifiers"></g></g><rect stroke-width="0.3" fill="#000000" stroke="#000000" stroke-dasharray="none" x="339.0302336" y="166.5" width="1" height="144.79999999999995"></rect><rect stroke-width="0.3" fill="#000000" stroke="#000000" stroke-dasharray="none" x="70" y="166.5" width="1" height="144.79999999999995"></rect><path stroke-width="1" fill="none" stroke="#000000" stroke-dasharray="none" d="M339.0302335999999 270.29999999999995L534.2804671999999 270.29999999999995"></path><path stroke-width="1" fill="none" stroke="#000000" stroke-dasharray="none" d="M339.0302335999999 280.29999999999995L534.2804671999999 280.29999999999995"></path><path stroke-width="1" fill="none" stroke="#000000" stroke-dasharray="none" d="M339.0302335999999 290.29999999999995L534.2804671999999 290.29999999999995"></path><path stroke-width="1" fill="none" stroke="#000000" stroke-dasharray="none" d="M339.0302335999999 300.29999999999995L534.2804671999999 300.29999999999995"></path><path stroke-width="1" fill="none" stroke="#000000" stroke-dasharray="none" d="M339.0302335999999 310.29999999999995L534.2804671999999 310.29999999999995"></path><rect stroke-width="0.3" fill="#000000" stroke="#000000" stroke-dasharray="none" x="534.2804671999999" y="269.79999999999995" width="1" height="41"></rect><g class="vf-stavenote" id="vf-auto2553843"><g class="vf-note" pointer-events="bounding-box"><g class="vf-stem" pointer-events="bounding-box"><path stroke-width="1.5" fill="none" stroke="#000000" stroke-dasharray="none" class="vf-stem" id="vf-auto2553843-stem" d="M427.2984735999999 295.29999999999995L427.2984735999999 260.29999999999995"></path></g><g class="vf-notehead" pointer-events="bounding-box"><path stroke-width="0.3" fill="#000000" stroke="none" stroke-dasharray="none" d="M416.0302335999999 295.29999999999995M423.38719359999993 290.07712C423.49951359999994 290.07712,423.66799359999993 290.07712,423.6960735999999 290.07712C423.6960735999999 290.07712,423.7241535999999 290.07712,423.7241535999999 290.07712C423.7241535999999 290.07712,423.8926335999999 290.07712,424.0330335999999 290.07712C426.56023359999995 290.21752,428.0484735999999 291.87423999999993,428.0484735999999 293.95215999999994C428.0484735999999 294.96304,427.71151359999993 296.11431999999996,426.86911359999993 297.20944C425.2685535999999 299.37159999999994,422.6571135999999 300.55096,420.3826335999999 300.55096C418.61359359999994 300.55096,417.09727359999994 299.84896,416.3671935999999 298.41687999999994C416.1425535999999 297.85527999999994,416.0302335999999 297.3217599999999,416.0302335999999 296.73207999999994C416.0302335999999 293.67135999999994,419.45599359999994 290.27367999999996,423.38719359999993 290.07712"></path></g></g><g class="vf-modifiers"></g></g><g class="vf-stavenote" id="vf-auto2553851"><g class="vf-note" pointer-events="bounding-box"><g class="vf-stem" pointer-events="bounding-box"><path stroke-width="1.5" fill="none" stroke="#000000" stroke-dasharray="none" class="vf-stem" id="vf-auto2553851-stem" d="M476.7802335999999 275.29999999999995L476.7802335999999 310.29999999999995"></path></g><g class="vf-notehead" pointer-events="bounding-box"><path stroke-width="0.3" fill="#000000" stroke="none" stroke-dasharray="none" d="M476.0302335999999 275.29999999999995M483.38719359999993 270.07712C483.49951359999994 270.07712,483.66799359999993 270.07712,483.6960735999999 270.07712C483.6960735999999 270.07712,483.7241535999999 270.07712,483.7241535999999 270.07712C483.7241535999999 270.07712,483.8926335999999 270.07712,484.0330335999999 270.07712C486.56023359999995 270.21752,488.0484735999999 271.87423999999993,488.0484735999999 273.95215999999994C488.0484735999999 274.96304,487.71151359999993 276.11431999999996,486.86911359999993 277.20944C485.2685535999999 279.37159999999994,482.6571135999999 280.55096,480.3826335999999 280.55096C478.61359359999994 280.55096,477.09727359999994 279.84896,476.3671935999999 278.41687999999994C476.1425535999999 277.85527999999994,476.0302335999999 277.3217599999999,476.0302335999999 276.73207999999994C476.0302335999999 273.67135999999994,479.45599359999994 270.27367999999996,483.38719359999993 270.07712"></path></g></g><g class="vf-modifiers"></g></g><path stroke-width="1" fill="none" stroke="#000000" stroke-dasharray="none" d="M503.0302335999999 260.29999999999995L521.0484736 260.29999999999995"></path><g class="vf-stavenote" id="vf-auto2553859"><g class="vf-note" pointer-events="bounding-box"><g class="vf-stem" pointer-events="bounding-box"><path stroke-width="1.5" fill="none" stroke="#000000" stroke-dasharray="none" class="vf-stem" id="vf-auto2553859-stem" d="M506.7802335999999 260.29999999999995L506.7802335999999 295.29999999999995"></path></g><g class="vf-notehead" pointer-events="bounding-box"><path stroke-width="0.3" fill="#000000" stroke="none" stroke-dasharray="none" d="M506.0302335999999 260.29999999999995M513.3871935999999 255.07711999999995C513.4995135999999 255.07711999999995,513.6679935999999 255.07711999999995,513.6960735999999 255.07711999999995C513.6960735999999 255.07711999999995,513.7241535999999 255.07711999999995,513.7241535999999 255.07711999999995C513.7241535999999 255.07711999999995,513.8926336 255.07711999999995,514.0330336 255.07711999999995C516.5602336 255.21751999999995,518.0484736 256.87423999999993,518.0484736 258.95215999999994C518.0484736 259.96304,517.7115135999999 261.11431999999996,516.8691135999999 262.20944C515.2685535999999 264.37159999999994,512.6571135999999 265.55096,510.3826335999999 265.55096C508.61359359999994 265.55096,507.09727359999994 264.84896,506.3671935999999 263.41687999999994C506.1425535999999 262.85527999999994,506.0302335999999 262.3217599999999,506.0302335999999 261.73207999999994C506.0302335999999 258.67135999999994,509.45599359999994 255.27367999999996,513.3871935999999 255.07711999999995"></path></g></g><g class="vf-modifiers"></g></g><rect stroke-width="0.3" fill="#000000" stroke="#000000" stroke-dasharray="none" x="534.2804671999999" y="166.5" width="1" height="144.79999999999995"></rect><path stroke-width="1" fill="none" stroke="#000000" stroke-dasharray="none" d="M534.2804671999999 270.29999999999995L725.3307007999998 270.29999999999995"></path><path stroke-width="1" fill="none" stroke="#000000" stroke-dasharray="none" d="M534.2804671999999 280.29999999999995L725.3307007999998 280.29999999999995"></path><path stroke-width="1" fill="none" stroke="#000000" stroke-dasharray="none" d="M534.2804671999999 290.29999999999995L725.3307007999998 290.29999999999995"></path><path stroke-width="1" fill="none" stroke="#000000" stroke-dasharray="none" d="M534.2804671999999 300.29999999999995L725.3307007999998 300.29999999999995"></path><path stroke-width="1" fill="none" stroke="#000000" stroke-dasharray="none" d="M534.2804671999999 310.29999999999995L725.3307007999998 310.29999999999995"></path><rect stroke-width="0.3" fill="#000000" stroke="#000000" stroke-dasharray="none" x="725.3307007999998" y="269.79999999999995" width="1" height="41"></rect><g class="vf-stavenote" id="vf-auto2553889"><g class="vf-note" pointer-events="bounding-box"><g class="vf-stem" pointer-events="bounding-box"><path stroke-width="1.5" fill="none" stroke="#000000" stroke-dasharray="none" class="vf-stem" id="vf-auto2553889-stem" d="M562.5487071999999 295.29999999999995L562.5487071999999 260.29999999999995"></path></g><g class="vf-notehead" pointer-events="bounding-box"><path stroke-width="0.3" fill="#000000" stroke="none" stroke-dasharray="none" d="M551.2804671999999 295.29999999999995M558.6374271999998 290.07712C558.7497471999999 290.07712,558.9182271999998 290.07712,558.9463071999999 290.07712C558.9463071999999 290.07712,558.9743871999999 290.07712,558.9743871999999 290.07712C558.9743871999999 290.07712,559.1428671999998 290.07712,559.2832671999998 290.07712C561.8104671999998 290.21752,563.2987071999999 291.87423999999993,563.2987071999999 293.95215999999994C563.2987071999999 294.96304,562.9617471999999 296.11431999999996,562.1193471999999 297.20944C560.5187871999999 299.37159999999994,557.9073471999999 300.55096,555.6328671999999 300.55096C553.8638271999998 300.55096,552.3475071999999 299.84896,551.6174271999998 298.41687999999994C551.3927871999998 297.85527999999994,551.2804671999999 297.3217599999999,551.2804671999999 296.73207999999994C551.2804671999999 293.67135999999994,554.7062271999998 290.27367999999996,558.6374271999998 290.07712"></path></g></g><g class="vf-modifiers"></g></g><path stroke-width="1" fill="none" stroke="#000000" stroke-dasharray="none" d="M577.6138005333332 260.29999999999995L595.6320405333332 260.29999999999995"></path><g class="vf-stavenote" id="vf-auto2553897"><g class="vf-note" pointer-events="bounding-box"><g class="vf-stem" pointer-events="bounding-box"><path stroke-width="1.5" fill="none" stroke="#000000" stroke-dasharray="none" class="vf-stem" id="vf-auto2553897-stem" d="M581.3638005333332 260.29999999999995L581.3638005333332 295.29999999999995"></path></g><g class="vf-notehead" pointer-events="bounding-box"><path stroke-width="0.3" fill="#000000" stroke="none" stroke-dasharray="none" d="M580.6138005333332 260.29999999999995M587.9707605333332 255.07711999999995C588.0830805333333 255.07711999999995,588.2515605333332 255.07711999999995,588.2796405333332 255.07711999999995C588.2796405333332 255.07711999999995,588.3077205333333 255.07711999999995,588.3077205333333 255.07711999999995C588.3077205333333 255.07711999999995,588.4762005333332 255.07711999999995,588.6166005333332 255.07711999999995C591.1438005333332 255.21751999999995,592.6320405333332 256.87423999999993,592.6320405333332 258.95215999999994C592.6320405333332 259.96304,592.2950805333332 261.11431999999996,591.4526805333333 262.20944C589.8521205333333 264.37159999999994,587.2406805333333 265.55096,584.9662005333332 265.55096C583.1971605333332 265.55096,581.6808405333333 264.84896,580.9507605333332 263.41687999999994C580.7261205333332 262.85527999999994,580.6138005333332 262.3217599999999,580.6138005333332 261.73207999999994C580.6138005333332 258.67135999999994,584.0395605333332 255.27367999999996,587.9707605333332 255.07711999999995"></path></g></g><g class="vf-modifiers"></g></g><g class="vf-stavenote" id="vf-auto2553905"><g class="vf-note" pointer-events="bounding-box"><g class="vf-stem" pointer-events="bounding-box"><path stroke-width="1.5" fill="none" stroke="#000000" stroke-dasharray="none" class="vf-stem" id="vf-auto2553905-stem" d="M669.3638005333332 270.29999999999995L669.3638005333332 305.29999999999995"></path></g><g class="vf-notehead" pointer-events="bounding-box"><path stroke-width="0.3" fill="#000000" stroke="none" stroke-dasharray="none" d="M668.6138005333332 270.29999999999995M675.9707605333332 265.07712C676.0830805333333 265.07712,676.2515605333332 265.07712,676.2796405333332 265.07712C676.2796405333332 265.07712,676.3077205333333 265.07712,676.3077205333333 265.07712C676.3077205333333 265.07712,676.4762005333332 265.07712,676.6166005333332 265.07712C679.1438005333332 265.21752,680.6320405333332 266.87423999999993,680.6320405333332 268.95215999999994C680.6320405333332 269.96304,680.2950805333332 271.11431999999996,679.4526805333333 272.20944C677.8521205333333 274.37159999999994,675.2406805333333 275.55096,672.9662005333332 275.55096C671.1971605333332 275.55096,669.6808405333333 274.84896,668.9507605333332 273.41687999999994C668.7261205333332 272.85527999999994,668.6138005333332 272.3217599999999,668.6138005333332 271.73207999999994C668.6138005333332 268.67135999999994,672.0395605333332 265.27367999999996,675.9707605333332 265.07712"></path></g></g><g class="vf-modifiers"></g></g><path stroke-width="1" fill="none" stroke="#000000" stroke-dasharray="none" d="M694.9471338666665 260.29999999999995L712.9653738666665 260.29999999999995"></path><g class="vf-stavenote" id="vf-auto2553913"><g class="vf-note" pointer-events="bounding-box"><g class="vf-stem" pointer-events="bounding-box"><path stroke-width="1.5" fill="none" stroke="#000000" stroke-dasharray="none" class="vf-stem" id="vf-auto2553913-stem" d="M698.6971338666665 260.29999999999995L698.6971338666665 295.29999999999995"></path></g><g class="vf-notehead" pointer-events="bounding-box"><path stroke-width="0.3" fill="#000000" stroke="none" stroke-dasharray="none" d="M697.9471338666665 260.29999999999995M705.3040938666664 255.07711999999995C705.4164138666665 255.07711999999995,705.5848938666664 255.07711999999995,705.6129738666665 255.07711999999995C705.6129738666665 255.07711999999995,705.6410538666665 255.07711999999995,705.6410538666665 255.07711999999995C705.6410538666665 255.07711999999995,705.8095338666665 255.07711999999995,705.9499338666665 255.07711999999995C708.4771338666665 255.21751999999995,709.9653738666665 256.87423999999993,709.9653738666665 258.95215999999994C709.9653738666665 259.96304,709.6284138666665 261.11431999999996,708.7860138666665 262.20944C707.1854538666665 264.37159999999994,704.5740138666665 265.55096,702.2995338666665 265.55096C700.5304938666665 265.55096,699.0141738666665 264.84896,698.2840938666665 263.41687999999994C698.0594538666664 262.85527999999994,697.9471338666665 262.3217599999999,697.9471338666665 261.73207999999994C697.9471338666665 258.67135999999994,701.3728938666665 255.27367999999996,705.3040938666664 255.07711999999995"></path></g></g><g class="vf-modifiers"></g></g><rect stroke-width="0.3" fill="#000000" stroke="#000000" stroke-dasharray="none" x="725.3307007999998" y="166.5" width="1" height="144.79999999999995"></rect><path stroke-width="1" fill="none" stroke="#000000" stroke-dasharray="none" d="M725.3307007999999 270.29999999999995L930.5809343999999 270.29999999999995"></path><path stroke-width="1" fill="none" stroke="#000000" stroke-dasharray="none" d="M725.3307007999999 280.29999999999995L930.5809343999999 280.29999999999995"></path><path stroke-width="1" fill="none" stroke="#000000" stroke-dasharray="none" d="M725.3307007999999 290.29999999999995L930.5809343999999 290.29999999999995"></path><path stroke-width="1" fill="none" stroke="#000000" stroke-dasharray="none" d="M725.3307007999999 300.29999999999995L930.5809343999999 300.29999999999995"></path><path stroke-width="1" fill="none" stroke="#000000" stroke-dasharray="none" d="M725.3307007999999 310.29999999999995L930.5809343999999 310.29999999999995"></path><rect stroke-width="0.3" fill="#000000" stroke="#000000" stroke-dasharray="none" x="925.5809343999999" y="269.79999999999995" width="1" height="41"></rect><rect stroke-width="0.3" fill="#000000" stroke="#000000" stroke-dasharray="none" x="928.5809343999999" y="269.79999999999995" width="3" height="41"></rect><path stroke-width="0.3" fill="#000000" stroke="none" stroke-dasharray="none" d="M924.5809343999999 285.79999999999995 A2 2 0 0 0 920.5809343999999 285.79999999999995M920.5809343999999 285.79999999999995 A2 2 0 0 0 924.5809343999999 285.79999999999995"></path><path stroke-width="0.3" fill="#000000" stroke="none" stroke-dasharray="none" d="M924.5809343999999 295.79999999999995 A2 2 0 0 0 920.5809343999999 295.79999999999995M920.5809343999999 295.79999999999995 A2 2 0 0 0 924.5809343999999 295.79999999999995"></path><g class="vf-stavenote" id="vf-auto2553950"><g class="vf-note" pointer-events="bounding-box"><g class="vf-stem" pointer-events="bounding-box"><path stroke-width="1.5" fill="none" stroke="#000000" stroke-dasharray="none" class="vf-stem" id="vf-auto2553950-stem" d="M816.9322741333333 310.29999999999995L816.9322741333333 275.29999999999995"></path></g><g class="vf-notehead" pointer-events="bounding-box"><path stroke-width="0.3" fill="#000000" stroke="none" stroke-dasharray="none" d="M805.6640341333333 310.29999999999995M813.0209941333333 305.07712C813.1333141333333 305.07712,813.3017941333333 305.07712,813.3298741333333 305.07712C813.3298741333333 305.07712,813.3579541333334 305.07712,813.3579541333334 305.07712C813.3579541333334 305.07712,813.5264341333333 305.07712,813.6668341333333 305.07712C816.1940341333333 305.21752,817.6822741333333 306.87423999999993,817.6822741333333 308.95215999999994C817.6822741333333 309.96304,817.3453141333333 311.11431999999996,816.5029141333333 312.20944C814.9023541333333 314.37159999999994,812.2909141333333 315.55096,810.0164341333333 315.55096C808.2473941333333 315.55096,806.7310741333333 314.84896,806.0009941333333 313.41687999999994C805.7763541333333 312.85527999999994,805.6640341333333 312.3217599999999,805.6640341333333 311.73207999999994C805.6640341333333 308.67135999999994,809.0897941333333 305.27367999999996,813.0209941333333 305.07712"></path></g></g><g class="vf-modifiers"></g></g><g class="vf-stavenote" id="vf-auto2553958"><g class="vf-note" pointer-events="bounding-box"><g class="vf-stem" pointer-events="bounding-box"><path stroke-width="1.5" fill="none" stroke="#000000" stroke-dasharray="none" class="vf-stem" id="vf-auto2553958-stem" d="M880.2656074666667 290.29999999999995L880.2656074666667 255.29999999999995"></path></g><g class="vf-notehead" pointer-events="bounding-box"><path stroke-width="0.3" fill="#000000" stroke="none" stroke-dasharray="none" d="M868.9973674666667 290.29999999999995M876.3543274666666 285.07712C876.4666474666667 285.07712,876.6351274666666 285.07712,876.6632074666667 285.07712C876.6632074666667 285.07712,876.6912874666667 285.07712,876.6912874666667 285.07712C876.6912874666667 285.07712,876.8597674666667 285.07712,877.0001674666667 285.07712C879.5273674666666 285.21752,881.0156074666667 286.87423999999993,881.0156074666667 288.95215999999994C881.0156074666667 289.96304,880.6786474666667 291.11431999999996,879.8362474666667 292.20944C878.2356874666667 294.37159999999994,875.6242474666667 295.55096,873.3497674666667 295.55096C871.5807274666666 295.55096,870.0644074666667 294.84896,869.3343274666667 293.41687999999994C869.1096874666666 292.85527999999994,868.9973674666667 292.3217599999999,868.9973674666667 291.73207999999994C868.9973674666667 288.67135999999994,872.4231274666666 285.27367999999996,876.3543274666666 285.07712"></path></g></g><g class="vf-modifiers"></g></g><g class="vf-stavenote" id="vf-auto2553966"><g class="vf-note" pointer-events="bounding-box"><g class="vf-stem" pointer-events="bounding-box"><path stroke-width="1.5" fill="none" stroke="#000000" stroke-dasharray="none" class="vf-stem" id="vf-auto2553966-stem" d="M901.4140341333333 275.29999999999995L901.4140341333333 310.29999999999995"></path></g><g class="vf-notehead" pointer-events="bounding-box"><path stroke-width="0.3" fill="#000000" stroke="none" stroke-dasharray="none" d="M900.6640341333333 275.29999999999995M908.0209941333333 270.07712C908.1333141333333 270.07712,908.3017941333333 270.07712,908.3298741333333 270.07712C908.3298741333333 270.07712,908.3579541333334 270.07712,908.3579541333334 270.07712C908.3579541333334 270.07712,908.5264341333333 270.07712,908.6668341333333 270.07712C911.1940341333333 270.21752,912.6822741333333 271.87423999999993,912.6822741333333 273.95215999999994C912.6822741333333 274.96304,912.3453141333333 276.11431999999996,911.5029141333333 277.20944C909.9023541333333 279.37159999999994,907.2909141333333 280.55096,905.0164341333333 280.55096C903.2473941333333 280.55096,901.7310741333333 279.84896,901.0009941333333 278.41687999999994C900.7763541333333 277.85527999999994,900.6640341333333 277.3217599999999,900.6640341333333 276.73207999999994C900.6640341333333 273.67135999999994,904.0897941333333 270.27367999999996,908.0209941333333 270.07712"></path></g></g><g class="vf-modifiers"></g></g><rect stroke-width="0.3" fill="#000000" stroke="#000000" stroke-dasharray="none" x="925.5809343999999" y="166.5" width="1" height="144.79999999999995"></rect><rect stroke-width="0.3" fill="#000000" stroke="#000000" stroke-dasharray="none" x="928.5809343999999" y="166.5" width="3" height="144.79999999999995"></rect><path stroke-width="0.3" fill="#000000" stroke="none" stroke-dasharray="none" d="M68 166.5C45.2 195.45999999999998,81.2 219.35199999999998,56 238.89999999999998C81.2 258.448,45.2 282.34,68 311.29999999999995C44 282.34,72.8 258.448,56 238.89999999999998C72.8 219.35199999999998,44 195.45999999999998,68 166.5"></path><path stroke-width="1" fill="none" stroke="#000000" stroke-dasharray="none" d="M68 166.5C45.2 195.45999999999998,81.2 219.35199999999998,56 238.89999999999998C81.2 258.448,45.2 282.34,68 311.29999999999995C44 282.34,72.8 258.448,56 238.89999999999998C72.8 219.35199999999998,44 195.45999999999998,68 166.5"></path><g class="vf-text"><text stroke-width="0.3" fill="#000000" stroke="none" stroke-dasharray="none" font-family="Times New Roman" font-size="15px" font-weight="normal" font-style="normal" x="530.7804671999999" y="163.5">3</text></g></svg>