<svg xmlns="http://www.w3.org/2000/svg"  width="1470" height="371.8" viewBox="0 0 1470 371.8"><path stroke-width="1" fill="none" stroke="#000000" stroke-dasharray="none" d="M70 166.5L351.63023359999994 166.5"></path><path stroke-width="1" fill="none" stroke="#000000" stroke-dasharray="none" d="M70 176.5L351.63023359999994 176.5"></path><path stroke-width="1" fill="none" stroke="#000000" stroke-dasharray="none" d="M70 186.5L351.63023359999994 186.5"></path><path stroke-width="1" fill="none" stroke="#000000" stroke-dasharray="none" d="M70 196.5L351.63023359999994 196.5"></path><path stroke-width="1" fill="none" stroke="#000000" stroke-dasharray="none" d="M70 206.5L351.63023359999994 206.5"></path><rect stroke-width="0.3" fill="#000000" stroke="#000000" stroke-dasharray="none" x="351.63023359999994" y="166" width="1" height="41"></rect><g class="vf-clef"><path stroke-width="0.3" fill="#000000" stroke="none" stroke-dasharray="none" d="M75 196.5M89.0544 153.3288C89.112 153.3,89.1696 153.3,89.256 153.3C89.6016 153.3,90.0048 153.588,90.5808 154.308C92.9136 156.9864,94.5552 161.652,94.5552 165.4536C94.5552 165.7416,94.4976 165.972,94.4976 166.26C94.2384 170.7816,92.3952 174.4968,88.7376 178.0104L87.7584 178.9608L87.4128 179.3352L87.4128 179.4504L87.6144 180.3144L87.9312 181.8696L88.248 183.3096C88.68 185.268,88.8528 186.276,88.8528 186.276C88.8528 186.276,88.8528 186.276,88.8528 186.276C88.8528 186.276,88.968 186.276,89.112 186.2472C89.256 186.2472,89.7168 186.1896,90.2064 186.1896C90.55199999999999 186.1896,90.8976 186.2472,91.0704 186.2472C95.1312 186.7656,98.2704 189.6744,99.1632 193.764C99.336 194.4264,99.39359999999999 195.1464,99.39359999999999 195.8664C99.39359999999999 199.7544,97.0608 203.4696,93.1728 205.2264C92.94239999999999 205.3704,92.856 205.3992,92.856 205.3992L92.856 205.428C92.856 205.428,93.0288 206.0904,93.1728 206.8392L93.6048 209.028L94.008 210.7848C94.2384 211.908,94.3536 212.7144,94.3536 213.4344C94.3536 214.06799999999998,94.2672 214.644,94.1232 215.3064C93.144 219.3096,89.6592 221.7,86.0304 221.7C84.2448 221.7,82.4016 221.124,80.7888 219.828C79.3488 218.6184,78.7152 217.524,78.7152 216.084C78.7152 213.5496,80.76 211.764,82.8912 211.764C83.64 211.764,84.3888 211.99439999999998,85.1088 212.4264C86.3184 213.2616,86.8656 214.5288,86.8656 215.7672C86.8656 217.668,85.5408 219.54,83.2656 219.684L83.0352 219.684L83.208 219.79919999999998C84.1584 220.2024,85.1088 220.404,86.0304 220.404C88.3632 220.404,90.55199999999999 219.2232,91.8768 217.1784C92.62559999999999 216.0264,93.0288 214.6728,93.0288 213.3192C93.0288 212.8008,92.94239999999999 212.2824,92.8272 211.7064C92.8272 211.6488,92.74080000000001 211.188,92.62559999999999 210.756C91.992 207.6456,91.6176 205.8312,91.6176 205.8312C91.6176 205.8312,91.6176 205.8312,91.6176 205.8312C91.56 205.8312,91.4448 205.8312,91.3584 205.8888C91.0704 205.9464,90.4656 206.0904,90.2064 206.1192C89.5728 206.2056,88.968 206.2344,88.392 206.2344C82.74719999999999 206.2344,77.5056 202.4328,75.6912 196.8168C75.2304 195.3192,74.9712 193.8216,74.9712 192.324C74.9712 189.3288,75.9216 186.3912,77.7648 183.7704C79.7808 180.9192,81.7968 178.4712,84.2736 175.9368L85.13759999999999 175.044L84.936 173.9784L84.5616 172.2216L84.072 169.9752C83.928 169.14,83.7552 168.3336,83.7264 168.1608C83.5824 167.2104,83.496 166.2888,83.496 165.3384C83.496 161.7096,84.6768 158.22480000000002,86.8944 155.4312C87.5568 154.5672,88.7376 153.4152,89.0544 153.3288M90.8112 159.0312C90.7536 159.0312,90.6672 159.0312,90.5808 159.0312C89.4 159.0312,87.8736 160.1256,86.8368 161.7384C85.7712 163.32240000000002,85.224 165.4248,85.224 167.5848C85.224 168.1608,85.25280000000001 168.7656,85.3392 169.3704C85.4256 169.8024,85.45439999999999 170.0904,85.6848 171.12720000000002L86.088 172.9416C86.2032 173.4888,86.28960000000001 173.92079999999999,86.28960000000001 173.9784L86.28960000000001 173.9784C86.3184 173.9784,87.2112 172.9992,87.4992 172.6536C90.3792 169.3992,92.1072 165.972,92.4816 162.948C92.5104 162.66,92.5104 162.4296,92.5104 162.1416C92.5104 161.24880000000002,92.3952 160.38479999999998,92.1936 159.924C91.9632 159.4632,91.4448 159.0888,90.8112 159.0312M86.4624 181.2936C86.4048 180.8904,86.3184 180.5736,86.3184 180.516C86.3184 180.516,86.3184 180.516,86.28960000000001 180.516C86.232 180.516,84.9936 181.956,84.1296 182.964C82.6608 184.7496,81.1056 186.8808,80.472 187.9176C79.2624 189.9624,78.6576 192.2376,78.6576 194.484C78.6576 195.9528,78.9456 197.364,79.464 198.7176C81.0192 202.7208,84.5904 205.2264,88.4784 205.2264C88.9392 205.2264,89.4576 205.1976,89.9472 205.1112C90.5808 204.996,91.3584 204.7656,91.3584 204.6792L91.3584 204.6792C91.3584 204.6792,91.3008 204.3912,91.2144 204.0744L90.3792 199.956L89.7168 196.8744L89.2848 194.7432L88.824 192.6696C88.5936 191.4312,88.5072 191.1144,88.5072 191.1144C88.5072 191.1144,88.5072 191.0856,88.4784 191.0856C88.3056 191.0856,87.384 191.5464,86.9808 191.8344C85.4832 192.8712,84.7056 194.5128,84.7056 196.1256C84.7056 197.652,85.45439999999999 199.1784,86.8944 200.0712C87.2112 200.2728,87.3264 200.4456,87.3264 200.6472C87.3264 200.676,87.3264 200.7624,87.3264 200.7912C87.2688 201.1368,87.0672 201.2808,86.7792 201.2808C86.664 201.2808,86.52 201.252,86.3472 201.1656C83.6976 200.0136,81.912 197.2776,81.912 194.2824L81.912 194.2824C81.912 190.8264,84.072 187.8312,87.384 186.6504L87.5568 186.5928L87.2688 185.1528L86.4624 181.2936M90.7824 190.9128C90.55199999999999 190.88400000000001,90.3216 190.88400000000001,90.1488 190.88400000000001C90.0912 190.88400000000001,90.0048 190.88400000000001,89.9472 190.88400000000001L89.8032 190.88400000000001L89.9184 191.4024L90.5232 194.2248L90.8976 196.068L91.3008 197.8824L92.1072 201.8856L92.424 203.412C92.5392 203.8152,92.5968 204.1608,92.62559999999999 204.1608C92.62559999999999 204.1608,92.62559999999999 204.1608,92.62559999999999 204.1608C92.6544 204.1608,93.144 203.8728,93.4608 203.6424C94.9296 202.6056,96.024 200.9928,96.4272 199.3224C96.5712 198.7752,96.6288 198.1992,96.6288 197.652C96.6288 194.3112,94.152 191.2872,90.7824 190.9128"></path></g><path stroke-width="0.3" fill="#000000" stroke="none" stroke-dasharray="none" d="M116 186.5M123.344 167.8376C123.4592 167.8376,123.6608 167.8376,123.8912 167.8376C124.2944 167.8376,124.8416 167.8376,125.0432 167.8952C126.7712 168.1544,128.6144 169.3928,128.96 170.516C129.0464 170.7752,129.0752 171.00560000000002,129.0752 171.236C129.0752 172.532,127.9808 173.5112,126.8 173.5112C126.3392 173.5112,125.8784 173.39600000000002,125.4464 173.0504C124.928 172.5896,124.64 172.0136,124.64 171.3512C124.64 170.4584,125.1872 169.5368,126.13759999999999 169.2776C126.224 169.2776,126.25280000000001 169.2488,126.25280000000001 169.2488C126.25280000000001 169.2488,126.224 169.1912,126.13759999999999 169.1624C125.504 168.8744,124.8704 168.7592,124.2944 168.7592C123.4016 168.7592,122.624 169.076,122.048 169.6808C121.4432 170.4008,121.0112 171.8696,120.7232 174.0296C120.6944 174.548,120.608 175.5272,120.608 175.7288C120.608 175.7288,120.608 175.7288,120.608 175.7288C120.608 175.7288,120.608 175.7288,120.608 175.7288C120.608 175.7288,120.7232 175.6712,120.83840000000001 175.6424C121.76 175.268,122.5664 175.124,123.4304 175.124C124.4672 175.124,125.4464 175.3544,126.5408 175.9304C128.5568 176.9096,129.68 178.3496,129.68 180.0776C129.68 180.308,129.6224 180.5672,129.5936 180.8264C129.3056 182.4392,128.0672 183.764,126.0512 184.628C125.1296 185.0312,124.2944 185.2616,123.4592 185.2616C122.624 185.2616,121.76 185.0024,120.8096 184.5128C118.304 183.2456,116.576 180.88400000000001,116.1152 178.148C116.0288 177.6008,116 177.0536,116 176.4488C116 175.2392,116.1728 174.0296,116.576 173.0504C117.6704 170.2856,120.464 168.1544,123.344 167.8376M123.74719999999999 176.0456C123.632 176.0456,123.5168 176.0456,123.4016 176.0456C122.7968 176.0456,122.336 176.2472,122.048 176.564C121.6448 177.1688,121.35679999999999 178.6664,121.35679999999999 179.9912C121.35679999999999 180.2792,121.35679999999999 180.5672,121.3856 180.7976C121.5008 182.1512,121.8176 183.2744,122.1344 183.764C122.3648 184.1096,122.8544 184.3112,123.4016 184.3112C123.5168 184.3112,123.6608 184.3112,123.776 184.2824C124.6112 184.1672,124.928 183.6488,125.2448 182.0072C125.3888 181.2296,125.4752 180.5672,125.4752 179.9048C125.4752 179.2424,125.3888 178.6088,125.2448 177.8312C124.9568 176.6504,124.5824 176.1608,123.74719999999999 176.0456M122.7968 186.5288L122.8544 186.5288L122.768 186.5288L122.7968 186.5288M122.7968 167.1176L122.8544 167.1176L122.768 167.1176L122.7968 167.1176"></path><path stroke-width="0.3" fill="#000000" stroke="none" stroke-dasharray="none" d="M116.1008 206.5M121.11200000000001 188.1544C121.14080000000001 188.1256,121.54400000000001 188.1256,122.78240000000001 188.1256C123.1568 188.1256,123.56 188.1256,124.0784 188.1256L126.9872 188.1256L127.0736 188.212C127.2176 188.29840000000002,127.304 188.4424,127.304 188.5576C127.304 188.7304,127.2176 188.8456,127.1024 188.9608C127.0736 189.0472,126.8144 189.2776,126.64160000000001 189.5368L125.1152 191.2936L123.1568 193.5112L122.12 194.692L120.5648 196.4776L118.52000000000001 198.8104C118.1744 199.2424,117.80000000000001 199.588,117.80000000000001 199.588C117.80000000000001 199.588,117.80000000000001 199.588,117.80000000000001 199.588C117.80000000000001 199.6456,118.0592 199.6456,120.4496 199.6456L123.0704 199.6456L123.0704 197.7736C123.0704 195.8728,123.0704 195.844,123.09920000000001 195.8152C123.1568 195.7288,123.41600000000001 195.412,124.424 194.2312L124.8272 193.7992L125.2304 193.3672L125.8352 192.5896L126.4688 191.9272L126.7856 191.524C126.9008 191.3512,127.0736 191.3224,127.2176 191.3224C127.3904 191.3224,127.5344 191.4088,127.6208 191.5528C127.6496 191.6392,127.6496 191.6968,127.6496 193.828C127.6496 194.3176,127.6496 194.9224,127.6496 195.6424L127.6496 199.6456L128.3696 199.6456C129.032 199.6456,129.0608 199.6456,129.1472 199.6744C129.3776 199.7608,129.49280000000002 199.9912,129.49280000000002 200.2504C129.49280000000002 200.3944,129.464 200.5672,129.3488 200.6824C129.17600000000002 200.8264,129.1472 200.8264,128.3696 200.8264L127.6496 200.8264L127.6496 201.316C127.67840000000001 202.7848,127.96640000000001 203.3608,129.08960000000002 203.9656C129.49280000000002 204.1672,129.57920000000001 204.2248,129.57920000000001 204.5128C129.57920000000001 204.7144,129.5216 204.8008,129.3776 204.916L129.2912 204.9448L125.3456 204.9448L121.42880000000001 204.9448L121.34240000000001 204.916C121.1696 204.8008,121.14080000000001 204.7144,121.14080000000001 204.5128C121.14080000000001 204.2248,121.1696 204.1672,121.6016 203.9656C122.7248 203.3608,123.01280000000001 202.7848,123.01280000000001 201.316L123.01280000000001 200.8264L119.7008 200.8264C119.096 200.88400000000001,118.60640000000001 200.88400000000001,118.20320000000001 200.88400000000001C116.3888 200.88400000000001,116.36000000000001 200.8264,116.33120000000001 200.8264C116.1584 200.7688,116.1008 200.596,116.1008 200.3944C116.1008 200.3944,116.1008 200.3944,116.1008 200.3944C116.1008 200.1928,116.1008 200.1928,116.6768 199.5304C119.096 196.5928,120.79520000000001 192.3304,120.79520000000001 188.93200000000002C120.79520000000001 188.4136,120.8816 188.2408,121.11200000000001 188.1544M122.84 206.5288L122.86880000000001 206.5288L122.78240000000001 206.5288L122.84 206.5288M122.84 187.1176L122.86880000000001 187.1176L122.78240000000001 187.1176L122.84 187.1176"></path><g class="vf-stavenote" id="vf-auto3473234"><g class="vf-note" pointer-events="bounding-box"><g class="vf-stem" pointer-events="bounding-box"><path stroke-width="1.5" fill="none" stroke="#000000" stroke-dasharray="none" class="vf-stem" id="vf-auto3473234-stem" d="M142.43 176.5L142.43 211.5"></path></g><g class="vf-notehead" pointer-events="bounding-box"><path stroke-width="0.3" fill="#000000" stroke="none" stroke-dasharray="none" d="M141.68 176.5M149.03696 171.27712C149.14928 171.27712,149.31776000000002 171.27712,149.34584 171.27712C149.34584 171.27712,149.37392 171.27712,149.37392 171.27712C149.37392 171.27712,149.54240000000001 171.27712,149.68280000000001 171.27712C152.21 171.41752,153.69824 173.07424,153.69824 175.15216C153.69824 176.16304,153.36128000000002 177.31432,152.51888 178.40944C150.91832 180.5716,148.30688 181.75096,146.0324 181.75096C144.26336 181.75096,142.74704 181.04896,142.01696 179.61688C141.79232000000002 179.05528,141.68 178.52176,141.68 177.93208C141.68 174.87136,145.10576 171.47368,149.03696 171.27712"></path></g></g><g class="vf-modifiers"></g></g><g class="vf-stavenote" id="vf-auto3473242"><g class="vf-note" pointer-events="bounding-box"><g class="vf-stem" pointer-events="bounding-box"><path stroke-width="1.5" fill="none" stroke="#000000" stroke-dasharray="none" class="vf-stem" id="vf-auto3473242-stem" d="M177.65 186.5L177.65 221.5"></path></g><g class="vf-notehead" pointer-events="bounding-box"><path stroke-width="0.3" fill="#000000" stroke="none" stroke-dasharray="none" d="M176.9 186.5M184.25696 181.27712C184.36928 181.27712,184.53776 181.27712,184.56584 181.27712C184.56584 181.27712,184.59392 181.27712,184.59392 181.27712C184.59392 181.27712,184.7624 181.27712,184.9028 181.27712C187.43 181.41752,188.91824 183.07424,188.91824 185.15216C188.91824 186.16304,188.58128 187.31432,187.73888 188.40944C186.13832 190.5716,183.52688 191.75096,181.2524 191.75096C179.48336 191.75096,177.96704 191.04896,177.23696 189.61688C177.01232000000002 189.05528,176.9 188.52176,176.9 187.93208C176.9 184.87136,180.32576 181.47368,184.25696 181.27712"></path></g></g><g class="vf-modifiers"></g></g><g class="vf-stavenote" id="vf-auto3473250"><g class="vf-note" pointer-events="bounding-box"><g class="vf-stem" pointer-events="bounding-box"><path stroke-width="1.5" fill="none" stroke="#000000" stroke-dasharray="none" class="vf-stem" id="vf-auto3473250-stem" d="M248.09 186.5L248.09 221.5"></path></g><g class="vf-notehead" pointer-events="bounding-box"><path stroke-width="0.3" fill="#000000" stroke="none" stroke-dasharray="none" d="M247.34 186.5M254.69696 181.27712C254.80928 181.27712,254.97776 181.27712,255.00584 181.27712C255.00584 181.27712,255.03392 181.27712,255.03392 181.27712C255.03392 181.27712,255.2024 181.27712,255.3428 181.27712C257.87 181.41752,259.35824 183.07424,259.35824 185.15216C259.35824 186.16304,259.02128 187.31432,258.17888 188.40944C256.57832 190.5716,253.96688 191.75096,251.6924 191.75096C249.92336 191.75096,248.40704 191.04896,247.67696 189.61688C247.45232000000001 189.05528,247.34 188.52176,247.34 187.93208C247.34 184.87136,250.76576 181.47368,254.69696 181.27712"></path></g></g><g class="vf-modifiers"></g></g><path stroke-width="1" fill="none" stroke="#000000" stroke-dasharray="none" d="M314.78000000000003 216.5L332.79824 216.5"></path><g class="vf-stavenote" id="vf-auto3473258"><g class="vf-note" pointer-events="bounding-box"><g class="vf-stem" pointer-events="bounding-box"><path stroke-width="1.5" fill="none" stroke="#000000" stroke-dasharray="none" class="vf-stem" id="vf-auto3473258-stem" d="M329.04824 221.5L329.04824 186.5"></path></g><g class="vf-notehead" pointer-events="bounding-box"><path stroke-width="0.3" fill="#000000" stroke="none" stroke-dasharray="none" d="M317.78000000000003 221.5M325.13696000000004 216.27712C325.24928000000006 216.27712,325.41776000000004 216.27712,325.44584000000003 216.27712C325.44584000000003 216.27712,325.47392 216.27712,325.47392 216.27712C325.47392 216.27712,325.6424 216.27712,325.7828 216.27712C328.31000000000006 216.41752,329.79824 218.07424,329.79824 220.15216C329.79824 221.16304,329.46128000000004 222.31432,328.61888000000005 223.40944C327.01832 225.5716,324.40688 226.75096,322.1324 226.75096C320.36336000000006 226.75096,318.84704000000005 226.04896,318.11696 224.61688C317.89232000000004 224.05528,317.78000000000003 223.52176,317.78000000000003 222.93208C317.78000000000003 219.87136,321.20576000000005 216.47368,325.13696000000004 216.27712"></path></g></g><g class="vf-modifiers"></g></g><path stroke-width="1" fill="none" stroke="#000000" stroke-dasharray="none" d="M351.6302336 166.5L551.0804671999999 166.5"></path><path stroke-width="1" fill="none" stroke="#000000" stroke-dasharray="none" d="M351.6302336 176.5L551.0804671999999 176.5"></path><path stroke-width="1" fill="none" stroke="#000000" stroke-dasharray="none" d="M351.6302336 186.5L551.0804671999999 186.5"></path><path stroke-width="1" fill="none" stroke="#000000" stroke-dasharray="none" d="M351.6302336 196.5L551.0804671999999 196.5"></path><path stroke-width="1" fill="none" stroke="#000000" stroke-dasharray="none" d="M351.6302336 206.5L551.0804671999999 206.5"></path><rect stroke-width="0.3" fill="#000000" stroke="#000000" stroke-dasharray="none" x="551.0804671999999" y="166" width="1" height="41"></rect><g class="vf-stavenote" id="vf-auto3473289"><g class="vf-note" pointer-events="bounding-box"><g class="vf-stem" pointer-events="bounding-box"><path stroke-width="1.5" fill="none" stroke="#000000" stroke-dasharray="none" class="vf-stem" id="vf-auto3473289-stem" d="M400.0469002666667 176.5L400.0469002666667 211.5"></path></g><g class="vf-notehead" pointer-events="bounding-box"><path stroke-width="0.3" fill="#000000" stroke="none" stroke-dasharray="none" d="M399.2969002666667 176.5M406.6538602666667 171.27712C406.7661802666667 171.27712,406.9346602666667 171.27712,406.9627402666667 171.27712C406.9627402666667 171.27712,406.9908202666667 171.27712,406.9908202666667 171.27712C406.9908202666667 171.27712,407.15930026666666 171.27712,407.29970026666666 171.27712C409.8269002666667 171.41752,411.3151402666667 173.07424,411.3151402666667 175.15216C411.3151402666667 176.16304,410.9781802666667 177.31432,410.1357802666667 178.40944C408.53522026666667 180.5716,405.92378026666665 181.75096,403.64930026666667 181.75096C401.8802602666667 181.75096,400.3639402666667 181.04896,399.63386026666666 179.61688C399.4092202666667 179.05528,399.2969002666667 178.52176,399.2969002666667 177.93208C399.2969002666667 174.87136,402.7226602666667 171.47368,406.6538602666667 171.27712"></path></g></g><g class="vf-modifiers"></g></g><g class="vf-stavenote" id="vf-auto3473297"><g class="vf-note" pointer-events="bounding-box"><g class="vf-stem" pointer-events="bounding-box"><path stroke-width="1.5" fill="none" stroke="#000000" stroke-dasharray="none" class="vf-stem" id="vf-auto3473297-stem" d="M471.8984736 206.5L471.8984736 171.5"></path></g><g class="vf-notehead" pointer-events="bounding-box"><path stroke-width="0.3" fill="#000000" stroke="none" stroke-dasharray="none" d="M460.6302336 206.5M467.9871936 201.27712C468.0995136 201.27712,468.2679936 201.27712,468.2960736 201.27712C468.2960736 201.27712,468.3241536 201.27712,468.3241536 201.27712C468.3241536 201.27712,468.4926336 201.27712,468.6330336 201.27712C471.16023359999997 201.41752,472.6484736 203.07424,472.6484736 205.15216C472.6484736 206.16304,472.3115136 207.31432,471.4691136 208.40944C469.8685536 210.5716,467.2571136 211.75096,464.9826336 211.75096C463.2135936 211.75096,461.6972736 211.04896,460.9671936 209.61688C460.7425536 209.05528,460.6302336 208.52176,460.6302336 207.93208C460.6302336 204.87136,464.0559936 201.47368,467.9871936 201.27712"></path></g></g><g class="vf-modifiers"></g></g><g class="vf-stavenote" id="vf-auto3473305"><g class="vf-note" pointer-events="bounding-box"><g class="vf-stem" pointer-events="bounding-box"><path stroke-width="1.5" fill="none" stroke="#000000" stroke-dasharray="none" class="vf-stem" id="vf-auto3473305-stem" d="M502.5651402666667 206.5L502.5651402666667 171.5"></path></g><g class="vf-notehead" pointer-events="bounding-box"><path stroke-width="0.3" fill="#000000" stroke="none" stroke-dasharray="none" d="M491.2969002666667 206.5M498.6538602666667 201.27712C498.7661802666667 201.27712,498.9346602666667 201.27712,498.9627402666667 201.27712C498.9627402666667 201.27712,498.9908202666667 201.27712,498.9908202666667 201.27712C498.9908202666667 201.27712,499.15930026666666 201.27712,499.29970026666666 201.27712C501.8269002666667 201.41752,503.3151402666667 203.07424,503.3151402666667 205.15216C503.3151402666667 206.16304,502.9781802666667 207.31432,502.1357802666667 208.40944C500.53522026666667 210.5716,497.92378026666665 211.75096,495.64930026666667 211.75096C493.8802602666667 211.75096,492.3639402666667 211.04896,491.63386026666666 209.61688C491.4092202666667 209.05528,491.2969002666667 208.52176,491.2969002666667 207.93208C491.2969002666667 204.87136,494.7226602666667 201.47368,498.6538602666667 201.27712"></path></g></g><g class="vf-modifiers"></g></g><g class="vf-stavenote" id="vf-auto3473313"><g class="vf-note" pointer-events="bounding-box"><g class="vf-stem" pointer-events="bounding-box"><path stroke-width="1.5" fill="none" stroke="#000000" stroke-dasharray="none" class="vf-stem" id="vf-auto3473313-stem" d="M522.7135669333334 171.5L522.7135669333334 206.5"></path></g><g class="vf-notehead" pointer-events="bounding-box"><path stroke-width="0.3" fill="#000000" stroke="none" stroke-dasharray="none" d="M521.9635669333334 171.5M529.3205269333333 166.27712C529.4328469333334 166.27712,529.6013269333333 166.27712,529.6294069333334 166.27712C529.6294069333334 166.27712,529.6574869333334 166.27712,529.6574869333334 166.27712C529.6574869333334 166.27712,529.8259669333333 166.27712,529.9663669333333 166.27712C532.4935669333333 166.41752,533.9818069333334 168.07424,533.9818069333334 170.15216C533.9818069333334 171.16304,533.6448469333334 172.31432,532.8024469333334 173.40944C531.2018869333334 175.5716,528.5904469333334 176.75096,526.3159669333334 176.75096C524.5469269333333 176.75096,523.0306069333334 176.04896,522.3005269333333 174.61688C522.0758869333333 174.05528,521.9635669333334 173.52176,521.9635669333334 172.93208C521.9635669333334 169.87136,525.3893269333333 166.47368,529.3205269333333 166.27712"></path></g></g><g class="vf-modifiers"></g></g><path stroke-width="1" fill="none" stroke="#000000" stroke-dasharray="none" d="M551.0804671999999 166.5L750.5307007999999 166.5"></path><path stroke-width="1" fill="none" stroke="#000000" stroke-dasharray="none" d="M551.0804671999999 176.5L750.5307007999999 176.5"></path><path stroke-width="1" fill="none" stroke="#000000" stroke-dasharray="none" d="M551.0804671999999 186.5L750.5307007999999 186.5"></path><path stroke-width="1" fill="none" stroke="#000000" stroke-dasharray="none" d="M551.0804671999999 196.5L750.5307007999999 196.5"></path><path stroke-width="1" fill="none" stroke="#000000" stroke-dasharray="none" d="M551.0804671999999 206.5L750.5307007999999 206.5"></path><rect stroke-width="0.3" fill="#000000" stroke="#000000" stroke-dasharray="none" x="750.5307007999999" y="166" width="1" height="41"></rect><g class="vf-stavenote" id="vf-auto3473344"><g class="vf-note" pointer-events="bounding-box"><g class="vf-stem" pointer-events="bounding-box"><path stroke-width="1.5" fill="none" stroke="#000000" stroke-dasharray="none" class="vf-stem" id="vf-auto3473344-stem" d="M610.0153738666666 191.5L610.0153738666666 156.5"></path></g><g class="vf-notehead" pointer-events="bounding-box"><path stroke-width="0.3" fill="#000000" stroke="none" stroke-dasharray="none" d="M598.7471338666666 191.5M606.1040938666665 186.27712C606.2164138666666 186.27712,606.3848938666665 186.27712,606.4129738666666 186.27712C606.4129738666666 186.27712,606.4410538666666 186.27712,606.4410538666666 186.27712C606.4410538666666 186.27712,606.6095338666665 186.27712,606.7499338666665 186.27712C609.2771338666665 186.41752,610.7653738666666 188.07424,610.7653738666666 190.15216C610.7653738666666 191.16304,610.4284138666666 192.31432,609.5860138666666 193.40944C607.9854538666666 195.5716,605.3740138666666 196.75096,603.0995338666665 196.75096C601.3304938666665 196.75096,599.8141738666666 196.04896,599.0840938666665 194.61688C598.8594538666665 194.05528,598.7471338666666 193.52176,598.7471338666666 192.93208C598.7471338666666 189.87136,602.1728938666665 186.47368,606.1040938666665 186.27712"></path></g></g><g class="vf-modifiers"></g></g><g class="vf-stavenote" id="vf-auto3473352"><g class="vf-note" pointer-events="bounding-box"><g class="vf-stem" pointer-events="bounding-box"><path stroke-width="1.5" fill="none" stroke="#000000" stroke-dasharray="none" class="vf-stem" id="vf-auto3473352-stem" d="M671.3487071999999 211.5L671.3487071999999 176.5"></path></g><g class="vf-notehead" pointer-events="bounding-box"><path stroke-width="0.3" fill="#000000" stroke="none" stroke-dasharray="none" d="M660.0804671999999 211.5M667.4374271999999 206.27712C667.5497472 206.27712,667.7182271999999 206.27712,667.7463071999999 206.27712C667.7463071999999 206.27712,667.7743872 206.27712,667.7743872 206.27712C667.7743872 206.27712,667.9428671999999 206.27712,668.0832671999999 206.27712C670.6104671999999 206.41752,672.0987071999999 208.07424,672.0987071999999 210.15216C672.0987071999999 211.16304,671.7617472 212.31432,670.9193472 213.40944C669.3187872 215.5716,666.7073472 216.75096,664.4328671999999 216.75096C662.6638271999999 216.75096,661.1475072 216.04896,660.4174271999999 214.61688C660.1927871999999 214.05528,660.0804671999999 213.52176,660.0804671999999 212.93208C660.0804671999999 209.87136,663.5062271999999 206.47368,667.4374271999999 206.27712"></path></g></g><g class="vf-modifiers"></g></g><g class="vf-stavenote" id="vf-auto3473360"><g class="vf-note" pointer-events="bounding-box"><g class="vf-stem" pointer-events="bounding-box"><path stroke-width="1.5" fill="none" stroke="#000000" stroke-dasharray="none" class="vf-stem" id="vf-auto3473360-stem" d="M702.0153738666667 196.5L702.0153738666667 161.5"></path></g><g class="vf-notehead" pointer-events="bounding-box"><path stroke-width="0.3" fill="#000000" stroke="none" stroke-dasharray="none" d="M690.7471338666667 196.5M698.1040938666666 191.27712C698.2164138666667 191.27712,698.3848938666666 191.27712,698.4129738666667 191.27712C698.4129738666667 191.27712,698.4410538666667 191.27712,698.4410538666667 191.27712C698.4410538666667 191.27712,698.6095338666667 191.27712,698.7499338666667 191.27712C701.2771338666666 191.41752,702.7653738666667 193.07424,702.7653738666667 195.15216C702.7653738666667 196.16304,702.4284138666667 197.31432,701.5860138666667 198.40944C699.9854538666667 200.5716,697.3740138666667 201.75096,695.0995338666667 201.75096C693.3304938666666 201.75096,691.8141738666667 201.04896,691.0840938666666 199.61688C690.8594538666666 199.05528,690.7471338666667 198.52176,690.7471338666667 197.93208C690.7471338666667 194.87136,694.1728938666666 191.47368,698.1040938666666 191.27712"></path></g></g><g class="vf-modifiers"></g></g><g class="vf-stavenote" id="vf-auto3473368"><g class="vf-note" pointer-events="bounding-box"><g class="vf-stem" pointer-events="bounding-box"><path stroke-width="1.5" fill="none" stroke="#000000" stroke-dasharray="none" class="vf-stem" id="vf-auto3473368-stem" d="M732.6820405333333 191.5L732.6820405333333 156.5"></path></g><g class="vf-notehead" pointer-events="bounding-box"><path stroke-width="0.3" fill="#000000" stroke="none" stroke-dasharray="none" d="M721.4138005333333 191.5M728.7707605333333 186.27712C728.8830805333333 186.27712,729.0515605333333 186.27712,729.0796405333333 186.27712C729.0796405333333 186.27712,729.1077205333333 186.27712,729.1077205333333 186.27712C729.1077205333333 186.27712,729.2762005333333 186.27712,729.4166005333333 186.27712C731.9438005333333 186.41752,733.4320405333333 188.07424,733.4320405333333 190.15216C733.4320405333333 191.16304,733.0950805333333 192.31432,732.2526805333333 193.40944C730.6521205333333 195.5716,728.0406805333333 196.75096,725.7662005333333 196.75096C723.9971605333333 196.75096,722.4808405333333 196.04896,721.7507605333333 194.61688C721.5261205333333 194.05528,721.4138005333333 193.52176,721.4138005333333 192.93208C721.4138005333333 189.87136,724.8395605333333 186.47368,728.7707605333333 186.27712"></path></g></g><g class="vf-modifiers"></g></g><path stroke-width="1" fill="none" stroke="#000000" stroke-dasharray="none" d="M750.5307007999999 166.5L958.3809343999998 166.5"></path><path stroke-width="1" fill="none" stroke="#000000" stroke-dasharray="none" d="M750.5307007999999 176.5L958.3809343999998 176.5"></path><path stroke-width="1" fill="none" stroke="#000000" stroke-dasharray="none" d="M750.5307007999999 186.5L958.3809343999998 186.5"></path><path stroke-width="1" fill="none" stroke="#000000" stroke-dasharray="none" d="M750.5307007999999 196.5L958.3809343999998 196.5"></path><path stroke-width="1" fill="none" stroke="#000000" stroke-dasharray="none" d="M750.5307007999999 206.5L958.3809343999998 206.5"></path><rect stroke-width="0.3" fill="#000000" stroke="#000000" stroke-dasharray="none" x="953.3809343999998" y="166" width="1" height="41"></rect><rect stroke-width="0.3" fill="#000000" stroke="#000000" stroke-dasharray="none" x="956.3809343999998" y="166" width="3" height="41"></rect><g class="vf-stavenote" id="vf-auto3473399"><g class="vf-note" pointer-events="bounding-box"><g class="vf-stem" pointer-events="bounding-box"><path stroke-width="1.5" fill="none" stroke="#000000" stroke-dasharray="none" class="vf-stem" id="vf-auto3473399-stem" d="M778.7989407999999 201.5L778.7989407999999 166.5"></path></g><g class="vf-notehead" pointer-events="bounding-box"><path stroke-width="0.3" fill="#000000" stroke="none" stroke-dasharray="none" d="M767.5307007999999 201.5M774.8876607999998 196.27712C774.9999807999999 196.27712,775.1684607999998 196.27712,775.1965407999999 196.27712C775.1965407999999 196.27712,775.2246207999999 196.27712,775.2246207999999 196.27712C775.2246207999999 196.27712,775.3931007999998 196.27712,775.5335007999998 196.27712C778.0607007999998 196.41752,779.5489407999999 198.07424,779.5489407999999 200.15216C779.5489407999999 201.16304,779.2119807999999 202.31432,778.3695807999999 203.40944C776.7690207999999 205.5716,774.1575807999999 206.75096,771.8831007999999 206.75096C770.1140607999998 206.75096,768.5977407999999 206.04896,767.8676607999998 204.61688C767.6430207999998 204.05528,767.5307007999999 203.52176,767.5307007999999 202.93208C767.5307007999999 199.87136,770.9564607999998 196.47368,774.8876607999998 196.27712"></path></g></g><g class="vf-modifiers"></g></g><g class="vf-stavenote" id="vf-auto3473407"><g class="vf-note" pointer-events="bounding-box"><g class="vf-stem" pointer-events="bounding-box"><path stroke-width="1.5" fill="none" stroke="#000000" stroke-dasharray="none" class="vf-stem" id="vf-auto3473407-stem" d="M810.7989407999999 211.5L810.7989407999999 176.5"></path></g><g class="vf-notehead" pointer-events="bounding-box"><path stroke-width="0.3" fill="#000000" stroke="none" stroke-dasharray="none" d="M799.5307007999999 211.5M806.8876607999998 206.27712C806.9999807999999 206.27712,807.1684607999998 206.27712,807.1965407999999 206.27712C807.1965407999999 206.27712,807.2246207999999 206.27712,807.2246207999999 206.27712C807.2246207999999 206.27712,807.3931007999998 206.27712,807.5335007999998 206.27712C810.0607007999998 206.41752,811.5489407999999 208.07424,811.5489407999999 210.15216C811.5489407999999 211.16304,811.2119807999999 212.31432,810.3695807999999 213.40944C808.7690207999999 215.5716,806.1575807999999 216.75096,803.8831007999999 216.75096C802.1140607999998 216.75096,800.5977407999999 216.04896,799.8676607999998 214.61688C799.6430207999998 214.05528,799.5307007999999 213.52176,799.5307007999999 212.93208C799.5307007999999 209.87136,802.9564607999998 206.47368,806.8876607999998 206.27712"></path></g></g><g class="vf-modifiers"></g></g><g class="vf-stavenote" id="vf-auto3473415"><g class="vf-note" pointer-events="bounding-box"><g class="vf-stem" pointer-events="bounding-box"><path stroke-width="1.5" fill="none" stroke="#000000" stroke-dasharray="none" class="vf-stem" id="vf-auto3473415-stem" d="M832.2807007999999 186.5L832.2807007999999 221.5"></path></g><g class="vf-notehead" pointer-events="bounding-box"><path stroke-width="0.3" fill="#000000" stroke="none" stroke-dasharray="none" d="M831.5307007999999 186.5M838.8876607999998 181.27712C838.9999807999999 181.27712,839.1684607999998 181.27712,839.1965407999999 181.27712C839.1965407999999 181.27712,839.2246207999999 181.27712,839.2246207999999 181.27712C839.2246207999999 181.27712,839.3931007999998 181.27712,839.5335007999998 181.27712C842.0607007999998 181.41752,843.5489407999999 183.07424,843.5489407999999 185.15216C843.5489407999999 186.16304,843.2119807999999 187.31432,842.3695807999999 188.40944C840.7690207999999 190.5716,838.1575807999999 191.75096,835.8831007999999 191.75096C834.1140607999998 191.75096,832.5977407999999 191.04896,831.8676607999998 189.61688C831.6430207999998 189.05528,831.5307007999999 188.52176,831.5307007999999 187.93208C831.5307007999999 184.87136,834.9564607999998 181.47368,838.8876607999998 181.27712"></path></g></g><g class="vf-modifiers"></g></g><g class="vf-stavenote" id="vf-auto3473423"><g class="vf-note" pointer-events="bounding-box"><g class="vf-stem" pointer-events="bounding-box"><path stroke-width="1.5" fill="none" stroke="#000000" stroke-dasharray="none" class="vf-stem" id="vf-auto3473423-stem" d="M864.2807007999999 171.5L864.2807007999999 206.5"></path></g><g class="vf-notehead" pointer-events="bounding-box"><path stroke-width="0.3" fill="#000000" stroke="none" stroke-dasharray="none" d="M863.5307007999999 171.5M870.8876607999998 166.27712C870.9999807999999 166.27712,871.1684607999998 166.27712,871.1965407999999 166.27712C871.1965407999999 166.27712,871.2246207999999 166.27712,871.2246207999999 166.27712C871.2246207999999 166.27712,871.3931007999998 166.27712,871.5335007999998 166.27712C874.0607007999998 166.41752,875.5489407999999 168.07424,875.5489407999999 170.15216C875.5489407999999 171.16304,875.2119807999999 172.31432,874.3695807999999 173.40944C872.7690207999999 175.5716,870.1575807999999 176.75096,867.8831007999999 176.75096C866.1140607999998 176.75096,864.5977407999999 176.04896,863.8676607999998 174.61688C863.6430207999998 174.05528,863.5307007999999 173.52176,863.5307007999999 172.93208C863.5307007999999 169.87136,866.9564607999998 166.47368,870.8876607999998 166.27712"></path></g></g><g class="vf-modifiers"></g></g><path stroke-width="1" fill="none" stroke="#000000" stroke-dasharray="none" d="M892.5307007999999 216.5L910.5489407999999 216.5"></path><g class="vf-stavenote" id="vf-auto3473431"><g class="vf-note" pointer-events="bounding-box"><g class="vf-stem" pointer-events="bounding-box"><path stroke-width="1.5" fill="none" stroke="#000000" stroke-dasharray="none" class="vf-stem" id="vf-auto3473431-stem" d="M906.7989407999999 216.5L906.7989407999999 181.5"></path></g><g class="vf-notehead" pointer-events="bounding-box"><path stroke-width="0.3" fill="#000000" stroke="none" stroke-dasharray="none" d="M895.5307007999999 216.5M902.8876607999998 211.27712C902.9999807999999 211.27712,903.1684607999998 211.27712,903.1965407999999 211.27712C903.1965407999999 211.27712,903.2246207999999 211.27712,903.2246207999999 211.27712C903.2246207999999 211.27712,903.3931007999998 211.27712,903.5335007999998 211.27712C906.0607007999998 211.41752,907.5489407999999 213.07424,907.5489407999999 215.15216C907.5489407999999 216.16304,907.2119807999999 217.31432,906.3695807999999 218.40944C904.7690207999999 220.5716,902.1575807999999 221.75096,899.8831007999999 221.75096C898.1140607999998 221.75096,896.5977407999999 221.04896,895.8676607999998 219.61688C895.6430207999998 219.05528,895.5307007999999 218.52176,895.5307007999999 217.93208C895.5307007999999 214.87136,898.9564607999998 211.47368,902.8876607999998 211.27712"></path></g></g><g class="vf-modifiers"></g></g><g class="vf-stavenote" id="vf-auto3473439"><g class="vf-note" pointer-events="bounding-box"><g class="vf-stem" pointer-events="bounding-box"><path stroke-width="1.5" fill="none" stroke="#000000" stroke-dasharray="none" class="vf-stem" id="vf-auto3473439-stem" d="M928.2807007999999 186.5L928.2807007999999 221.5"></path></g><g class="vf-notehead" pointer-events="bounding-box"><path stroke-width="0.3" fill="#000000" stroke="none" stroke-dasharray="none" d="M927.5307007999999 186.5M934.8876607999998 181.27712C934.9999807999999 181.27712,935.1684607999998 181.27712,935.1965407999999 181.27712C935.1965407999999 181.27712,935.2246207999999 181.27712,935.2246207999999 181.27712C935.2246207999999 181.27712,935.3931007999998 181.27712,935.5335007999998 181.27712C938.0607007999998 181.41752,939.5489407999999 183.07424,939.5489407999999 185.15216C939.5489407999999 186.16304,939.2119807999999 187.31432,938.3695807999999 188.40944C936.7690207999999 190.5716,934.1575807999999 191.75096,931.8831007999999 191.75096C930.1140607999998 191.75096,928.5977407999999 191.04896,927.8676607999998 189.61688C927.6430207999998 189.05528,927.5307007999999 188.52176,927.5307007999999 187.93208C927.5307007999999 184.87136,930.9564607999998 181.47368,934.8876607999998 181.27712"></path></g></g><g class="vf-modifiers"></g></g><g class="vf-text"><text stroke-width="0.3" fill="#000000" stroke="none" stroke-dasharray="none" font-family="Times New Roman" font-size="23px" font-weight="bold" font-style="italic" x="132.68912" y="240.5">mp</text></g><path stroke-width="1" fill="none" stroke="#000000" stroke-dasharray="none" d="M70 255.29999999999998L351.63023359999994 255.29999999999998"></path><path stroke-width="1" fill="none" stroke="#000000" stroke-dasharray="none" d="M70 265.29999999999995L351.63023359999994 265.29999999999995"></path><path stroke-width="1" fill="none" stroke="#000000" stroke-dasharray="none" d="M70 275.29999999999995L351.63023359999994 275.29999999999995"></path><path stroke-width="1" fill="none" stroke="#000000" stroke-dasharray="none" d="M70 285.29999999999995L351.63023359999994 285.29999999999995"></path><path stroke-width="1" fill="none" stroke="#000000" stroke-dasharray="none" d="M70 295.29999999999995L351.63023359999994 295.29999999999995"></path><rect stroke-width="0.3" fill="#000000" stroke="#000000" stroke-dasharray="none" x="351.63023359999994" y="254.79999999999998" width="1" height="40.99999999999997"></rect><g class="vf-clef"><path stroke-width="0.3" fill="#000000" stroke="none" stroke-dasharray="none" d="M75 265.29999999999995M83.8416 255.24879999999996C84.072 255.19119999999995,84.3024 255.19119999999995,84.5616 255.19119999999995C85.5696 255.19119999999995,86.7504 255.30639999999997,87.7584 255.50799999999995C92.4816 256.4872,95.736 259.68399999999997,96.3408 263.9464C96.3984 264.40719999999993,96.4272 264.83919999999995,96.4272 265.29999999999995C96.4272 267.89199999999994,95.5344 271.23279999999994,94.008 274.02639999999997C90.3792 280.59279999999995,83.7552 285.316,75.8064 287.044C75.6624 287.044,75.5472 287.0728,75.4032 287.0728C75.1152 287.0728,74.9712 286.9,74.9712 286.64079999999996C74.9712 286.35279999999995,75.0288 286.2664,75.6048 286.03599999999994C84.7056 282.6088,90.7824 275.20719999999994,91.3296 266.91279999999995C91.3584 266.48079999999993,91.3584 265.99119999999994,91.3584 265.61679999999996C91.3584 261.5848,90.12 258.58959999999996,87.7296 257.0919999999999C86.6928 256.42959999999994,85.5696 256.11279999999994,84.36 256.11279999999994C81.6816 256.11279999999994,78.9456 257.63919999999996,77.6784 260.20239999999995C77.6208 260.40399999999994,77.4192 260.83599999999996,77.4192 260.86479999999995C77.4192 260.86479999999995,77.4192 260.86479999999995,77.4192 260.86479999999995C77.4192 260.86479999999995,77.448 260.83599999999996,77.5344 260.80719999999997C78.168 260.40399999999994,78.8592 260.20239999999995,79.5792 260.20239999999995C80.5872 260.20239999999995,81.6528 260.63439999999997,82.4016 261.44079999999997C83.0928 262.1895999999999,83.4672 263.19759999999997,83.4672 264.1192C83.4672 265.99119999999994,82.0848 267.89199999999994,79.9248 268.0936C79.7808 268.0936,79.6368 268.12239999999997,79.4928 268.12239999999997C77.1024 268.12239999999997,75.1728 265.93359999999996,75.1728 263.1688C75.1728 263.11119999999994,75.1728 263.02479999999997,75.1728 262.996C75.288 258.8776,79.0608 255.50799999999995,83.8416 255.24879999999996M99.1632 259.10799999999995C99.2208 259.07919999999996,99.2496 259.07919999999996,99.336 259.07919999999996C99.5376 259.07919999999996,99.768 259.10799999999995,99.8256 259.1655999999999C100.54560000000001 259.36719999999997,100.8912 260.00079999999997,100.8912 260.6056C100.8912 261.12399999999997,100.632 261.64239999999995,100.11359999999999 261.93039999999996C99.912 262.07439999999997,99.6528 262.10319999999996,99.39359999999999 262.10319999999996C98.9904 262.10319999999996,98.5584 261.93039999999996,98.2704 261.5559999999999C98.03999999999999 261.268,97.9248 260.9512,97.9248 260.63439999999997C97.9248 259.91439999999994,98.3856 259.1944,99.1632 259.10799999999995M99.1632 268.52559999999994C99.2208 268.52559999999994,99.2496 268.52559999999994,99.336 268.52559999999994C99.5376 268.52559999999994,99.768 268.55439999999993,99.8256 268.61199999999997C100.54560000000001 268.81359999999995,100.8912 269.44719999999995,100.8912 270.05199999999996C100.8912 270.57039999999995,100.632 271.08879999999994,100.11359999999999 271.34799999999996C99.912 271.49199999999996,99.6528 271.54959999999994,99.39359999999999 271.54959999999994C98.9904 271.54959999999994,98.5584 271.34799999999996,98.2704 271.00239999999997C98.03999999999999 270.71439999999996,97.9248 270.39759999999995,97.9248 270.05199999999996C97.9248 269.33199999999994,98.3856 268.64079999999996,99.1632 268.52559999999994"></path></g><path stroke-width="0.3" fill="#000000" stroke="none" stroke-dasharray="none" d="M116 275.29999999999995M123.344 256.63759999999996C123.4592 256.63759999999996,123.6608 256.63759999999996,123.8912 256.63759999999996C124.2944 256.63759999999996,124.8416 256.63759999999996,125.0432 256.69519999999994C126.7712 256.95439999999996,128.6144 258.1928,128.96 259.316C129.0464 259.57519999999994,129.0752 259.80559999999997,129.0752 260.03599999999994C129.0752 261.33199999999994,127.9808 262.31119999999993,126.8 262.31119999999993C126.3392 262.31119999999993,125.8784 262.19599999999997,125.4464 261.8504C124.928 261.3896,124.64 260.81359999999995,124.64 260.15119999999996C124.64 259.25839999999994,125.1872 258.3367999999999,126.13759999999999 258.07759999999996C126.224 258.07759999999996,126.25280000000001 258.04879999999997,126.25280000000001 258.04879999999997C126.25280000000001 258.04879999999997,126.224 257.99119999999994,126.13759999999999 257.96239999999995C125.504 257.67439999999993,124.8704 257.5592,124.2944 257.5592C123.4016 257.5592,122.624 257.876,122.048 258.48079999999993C121.4432 259.20079999999996,121.0112 260.66959999999995,120.7232 262.82959999999997C120.6944 263.34799999999996,120.608 264.32719999999995,120.608 264.52879999999993C120.608 264.52879999999993,120.608 264.52879999999993,120.608 264.52879999999993C120.608 264.52879999999993,120.608 264.52879999999993,120.608 264.52879999999993C120.608 264.52879999999993,120.7232 264.47119999999995,120.83840000000001 264.44239999999996C121.76 264.068,122.5664 263.924,123.4304 263.924C124.4672 263.924,125.4464 264.15439999999995,126.5408 264.7304C128.5568 265.70959999999997,129.68 267.14959999999996,129.68 268.8776C129.68 269.10799999999995,129.6224 269.36719999999997,129.5936 269.62639999999993C129.3056 271.2392,128.0672 272.56399999999996,126.0512 273.42799999999994C125.1296 273.83119999999997,124.2944 274.06159999999994,123.4592 274.06159999999994C122.624 274.06159999999994,121.76 273.8024,120.8096 273.3128C118.304 272.0456,116.576 269.68399999999997,116.1152 266.948C116.0288 266.40079999999995,116 265.8536,116 265.24879999999996C116 264.03919999999994,116.1728 262.82959999999997,116.576 261.8504C117.6704 259.08559999999994,120.464 256.95439999999996,123.344 256.63759999999996M123.74719999999999 264.84559999999993C123.632 264.84559999999993,123.5168 264.84559999999993,123.4016 264.84559999999993C122.7968 264.84559999999993,122.336 265.0472,122.048 265.364C121.6448 265.96879999999993,121.35679999999999 267.46639999999996,121.35679999999999 268.79119999999995C121.35679999999999 269.07919999999996,121.35679999999999 269.36719999999997,121.3856 269.59759999999994C121.5008 270.9512,121.8176 272.07439999999997,122.1344 272.56399999999996C122.3648 272.90959999999995,122.8544 273.11119999999994,123.4016 273.11119999999994C123.5168 273.11119999999994,123.6608 273.11119999999994,123.776 273.08239999999995C124.6112 272.96719999999993,124.928 272.44879999999995,125.2448 270.80719999999997C125.3888 270.02959999999996,125.4752 269.36719999999997,125.4752 268.7048C125.4752 268.04239999999993,125.3888 267.4087999999999,125.2448 266.6312C124.9568 265.45039999999995,124.5824 264.96079999999995,123.74719999999999 264.84559999999993M122.7968 275.32879999999994L122.8544 275.32879999999994L122.768 275.32879999999994L122.7968 275.32879999999994M122.7968 255.91759999999996L122.8544 255.91759999999996L122.768 255.91759999999996L122.7968 255.91759999999996"></path><path stroke-width="0.3" fill="#000000" stroke="none" stroke-dasharray="none" d="M116.1008 295.29999999999995M121.11200000000001 276.95439999999996C121.14080000000001 276.9256,121.54400000000001 276.9256,122.78240000000001 276.9256C123.1568 276.9256,123.56 276.9256,124.0784 276.9256L126.9872 276.9256L127.0736 277.01199999999994C127.2176 277.09839999999997,127.304 277.2424,127.304 277.35759999999993C127.304 277.53039999999993,127.2176 277.64559999999994,127.1024 277.76079999999996C127.0736 277.84719999999993,126.8144 278.07759999999996,126.64160000000001 278.3367999999999L125.1152 280.0936L123.1568 282.31119999999993L122.12 283.49199999999996L120.5648 285.27759999999995L118.52000000000001 287.61039999999997C118.1744 288.04239999999993,117.80000000000001 288.388,117.80000000000001 288.388C117.80000000000001 288.388,117.80000000000001 288.388,117.80000000000001 288.388C117.80000000000001 288.44559999999996,118.0592 288.44559999999996,120.4496 288.44559999999996L123.0704 288.44559999999996L123.0704 286.57359999999994C123.0704 284.67279999999994,123.0704 284.64399999999995,123.09920000000001 284.61519999999996C123.1568 284.52879999999993,123.41600000000001 284.21199999999993,124.424 283.03119999999996L124.8272 282.59919999999994L125.2304 282.1672L125.8352 281.3896L126.4688 280.7272L126.7856 280.32399999999996C126.9008 280.15119999999996,127.0736 280.12239999999997,127.2176 280.12239999999997C127.3904 280.12239999999997,127.5344 280.20879999999994,127.6208 280.35279999999995C127.6496 280.43919999999997,127.6496 280.49679999999995,127.6496 282.62799999999993C127.6496 283.1176,127.6496 283.72239999999994,127.6496 284.44239999999996L127.6496 288.44559999999996L128.3696 288.44559999999996C129.032 288.44559999999996,129.0608 288.44559999999996,129.1472 288.47439999999995C129.3776 288.5608,129.49280000000002 288.79119999999995,129.49280000000002 289.05039999999997C129.49280000000002 289.1944,129.464 289.36719999999997,129.3488 289.4823999999999C129.17600000000002 289.62639999999993,129.1472 289.62639999999993,128.3696 289.62639999999993L127.6496 289.62639999999993L127.6496 290.11599999999993C127.67840000000001 291.5848,127.96640000000001 292.16079999999994,129.08960000000002 292.76559999999995C129.49280000000002 292.96719999999993,129.57920000000001 293.02479999999997,129.57920000000001 293.3128C129.57920000000001 293.51439999999997,129.5216 293.60079999999994,129.3776 293.71599999999995L129.2912 293.74479999999994L125.3456 293.74479999999994L121.42880000000001 293.74479999999994L121.34240000000001 293.71599999999995C121.1696 293.60079999999994,121.14080000000001 293.51439999999997,121.14080000000001 293.3128C121.14080000000001 293.02479999999997,121.1696 292.96719999999993,121.6016 292.76559999999995C122.7248 292.16079999999994,123.01280000000001 291.5848,123.01280000000001 290.11599999999993L123.01280000000001 289.62639999999993L119.7008 289.62639999999993C119.096 289.68399999999997,118.60640000000001 289.68399999999997,118.20320000000001 289.68399999999997C116.3888 289.68399999999997,116.36000000000001 289.62639999999993,116.33120000000001 289.62639999999993C116.1584 289.56879999999995,116.1008 289.39599999999996,116.1008 289.1944C116.1008 289.1944,116.1008 289.1944,116.1008 289.1944C116.1008 288.99279999999993,116.1008 288.99279999999993,116.6768 288.33039999999994C119.096 285.39279999999997,120.79520000000001 281.13039999999995,120.79520000000001 277.73199999999997C120.79520000000001 277.21359999999993,120.8816 277.04079999999993,121.11200000000001 276.95439999999996M122.84 295.32879999999994L122.86880000000001 295.32879999999994L122.78240000000001 295.32879999999994L122.84 295.32879999999994M122.84 275.91759999999994L122.86880000000001 275.91759999999994L122.78240000000001 275.91759999999994L122.84 275.91759999999994"></path><g class="vf-stavenote" id="vf-auto3473269"><g class="vf-note" pointer-events="bounding-box"><g class="vf-stem" pointer-events="bounding-box"><path stroke-width="1.5" fill="none" stroke="#000000" stroke-dasharray="none" class="vf-stem" id="vf-auto3473269-stem" d="M223.38824 290.29999999999995L223.38824 255.29999999999995"></path></g><g class="vf-notehead" pointer-events="bounding-box"><path stroke-width="0.3" fill="#000000" stroke="none" stroke-dasharray="none" d="M212.12 290.29999999999995M219.47696 285.07712C219.58928 285.07712,219.75776000000002 285.07712,219.78584 285.07712C219.78584 285.07712,219.81392 285.07712,219.81392 285.07712C219.81392 285.07712,219.9824 285.07712,220.1228 285.07712C222.65 285.21752,224.13824 286.87423999999993,224.13824 288.95215999999994C224.13824 289.96304,223.80128000000002 291.11431999999996,222.95888 292.20944C221.35832 294.37159999999994,218.74688 295.55096,216.4724 295.55096C214.70336 295.55096,213.18704 294.84896,212.45696 293.41687999999994C212.23232000000002 292.85527999999994,212.12 292.3217599999999,212.12 291.73207999999994C212.12 288.67135999999994,215.54576 285.27367999999996,219.47696 285.07712"></path></g></g><g class="vf-modifiers"></g></g><g class="vf-stavenote" id="vf-auto3473277"><g class="vf-note" pointer-events="bounding-box"><g class="vf-stem" pointer-events="bounding-box"><path stroke-width="1.5" fill="none" stroke="#000000" stroke-dasharray="none" class="vf-stem" id="vf-auto3473277-stem" d="M293.82824 290.29999999999995L293.82824 255.29999999999995"></path></g><g class="vf-notehead" pointer-events="bounding-box"><path stroke-width="0.3" fill="#000000" stroke="none" stroke-dasharray="none" d="M282.56 290.29999999999995M289.91696 285.07712C290.02928 285.07712,290.19776 285.07712,290.22584 285.07712C290.22584 285.07712,290.25392 285.07712,290.25392 285.07712C290.25392 285.07712,290.4224 285.07712,290.5628 285.07712C293.09000000000003 285.21752,294.57824 286.87423999999993,294.57824 288.95215999999994C294.57824 289.96304,294.24128 291.11431999999996,293.39888 292.20944C291.79832 294.37159999999994,289.18688 295.55096,286.9124 295.55096C285.14336000000003 295.55096,283.62704 294.84896,282.89696 293.41687999999994C282.67232 292.85527999999994,282.56 292.3217599999999,282.56 291.73207999999994C282.56 288.67135999999994,285.98576 285.27367999999996,289.91696 285.07712"></path></g></g><g class="vf-modifiers"></g></g><rect stroke-width="0.3" fill="#000000" stroke="#000000" stroke-dasharray="none" x="351.63023359999994" y="166.5" width="1" height="129.79999999999995"></rect><rect stroke-width="0.3" fill="#000000" stroke="#000000" stroke-dasharray="none" x="70" y="166.5" width="1" height="129.79999999999995"></rect><path stroke-width="1" fill="none" stroke="#000000" stroke-dasharray="none" d="M351.6302336 255.29999999999998L551.0804671999999 255.29999999999998"></path><path stroke-width="1" fill="none" stroke="#000000" stroke-dasharray="none" d="M351.6302336 265.29999999999995L551.0804671999999 265.29999999999995"></path><path stroke-width="1" fill="none" stroke="#000000" stroke-dasharray="none" d="M351.6302336 275.29999999999995L551.0804671999999 275.29999999999995"></path><path stroke-width="1" fill="none" stroke="#000000" stroke-dasharray="none" d="M351.6302336 285.29999999999995L551.0804671999999 285.29999999999995"></path><path stroke-width="1" fill="none" stroke="#000000" stroke-dasharray="none" d="M351.6302336 295.29999999999995L551.0804671999999 295.29999999999995"></path><rect stroke-width="0.3" fill="#000000" stroke="#000000" stroke-dasharray="none" x="551.0804671999999" y="254.79999999999998" width="1" height="40.99999999999997"></rect><g class="vf-stavenote" id="vf-auto3473324"><g class="vf-note" pointer-events="bounding-box"><g class="vf-stem" pointer-events="bounding-box"><path stroke-width="1.5" fill="none" stroke="#000000" stroke-dasharray="none" class="vf-stem" id="vf-auto3473324-stem" d="M379.8984736 290.29999999999995L379.8984736 255.29999999999995"></path></g><g class="vf-notehead" pointer-events="bounding-box"><path stroke-width="0.3" fill="#000000" stroke="none" stroke-dasharray="none" d="M368.6302336 290.29999999999995M375.9871936 285.07712C376.0995136 285.07712,376.2679936 285.07712,376.2960736 285.07712C376.2960736 285.07712,376.3241536 285.07712,376.3241536 285.07712C376.3241536 285.07712,376.4926336 285.07712,376.6330336 285.07712C379.16023359999997 285.21752,380.6484736 286.87423999999993,380.6484736 288.95215999999994C380.6484736 289.96304,380.3115136 291.11431999999996,379.4691136 292.20944C377.8685536 294.37159999999994,375.2571136 295.55096,372.9826336 295.55096C371.2135936 295.55096,369.6972736 294.84896,368.9671936 293.41687999999994C368.7425536 292.85527999999994,368.6302336 292.3217599999999,368.6302336 291.73207999999994C368.6302336 288.67135999999994,372.0559936 285.27367999999996,375.9871936 285.07712"></path></g></g><g class="vf-modifiers"></g></g><g class="vf-stavenote" id="vf-auto3473332"><g class="vf-note" pointer-events="bounding-box"><g class="vf-stem" pointer-events="bounding-box"><path stroke-width="1.5" fill="none" stroke="#000000" stroke-dasharray="none" class="vf-stem" id="vf-auto3473332-stem" d="M430.71356693333337 260.29999999999995L430.71356693333337 295.29999999999995"></path></g><g class="vf-notehead" pointer-events="bounding-box"><path stroke-width="0.3" fill="#000000" stroke="none" stroke-dasharray="none" d="M429.96356693333337 260.29999999999995M437.3205269333334 255.07711999999995C437.4328469333334 255.07711999999995,437.6013269333334 255.07711999999995,437.62940693333337 255.07711999999995C437.62940693333337 255.07711999999995,437.65748693333336 255.07711999999995,437.65748693333336 255.07711999999995C437.65748693333336 255.07711999999995,437.82596693333335 255.07711999999995,437.96636693333335 255.07711999999995C440.49356693333334 255.21751999999995,441.98180693333336 256.87423999999993,441.98180693333336 258.95215999999994C441.98180693333336 259.96304,441.6448469333334 261.11431999999996,440.8024469333334 262.20944C439.20188693333336 264.37159999999994,436.5904469333334 265.55096,434.31596693333336 265.55096C432.5469269333334 265.55096,431.0306069333334 264.84896,430.30052693333334 263.41687999999994C430.0758869333334 262.85527999999994,429.96356693333337 262.3217599999999,429.96356693333337 261.73207999999994C429.96356693333337 258.67135999999994,433.3893269333334 255.27367999999996,437.3205269333334 255.07711999999995"></path></g></g><g class="vf-modifiers"></g></g><rect stroke-width="0.3" fill="#000000" stroke="#000000" stroke-dasharray="none" x="551.0804671999999" y="166.5" width="1" height="129.79999999999995"></rect><path stroke-width="1" fill="none" stroke="#000000" stroke-dasharray="none" d="M551.0804671999999 255.29999999999998L750.5307007999999 255.29999999999998"></path><path stroke-width="1" fill="none" stroke="#000000" stroke-dasharray="none" d="M551.0804671999999 265.29999999999995L750.5307007999999 265.29999999999995"></path><path stroke-width="1" fill="none" stroke="#000000" stroke-dasharray="none" d="M551.0804671999999 275.29999999999995L750.5307007999999 275.29999999999995"></path><path stroke-width="1" fill="none" stroke="#000000" stroke-dasharray="none" d="M551.0804671999999 285.29999999999995L750.5307007999999 285.29999999999995"></path><path stroke-width="1" fill="none" stroke="#000000" stroke-dasharray="none" d="M551.0804671999999 295.29999999999995L750.5307007999999 295.29999999999995"></path><rect stroke-width="0.3" fill="#000000" stroke="#000000" stroke-dasharray="none" x="750.5307007999999" y="254.79999999999998" width="1" height="40.99999999999997"></rect><path stroke-width="1" fill="none" stroke="#000000" stroke-dasharray="none" d="M565.0804671999999 245.29999999999995L583.0987071999999 245.29999999999995"></path><g class="vf-stavenote" id="vf-auto3473379"><g class="vf-note" pointer-events="bounding-box"><g class="vf-stem" pointer-events="bounding-box"><path stroke-width="1.5" fill="none" stroke="#000000" stroke-dasharray="none" class="vf-stem" id="vf-auto3473379-stem" d="M568.8304671999999 240.29999999999995L568.8304671999999 275.29999999999995"></path></g><g class="vf-notehead" pointer-events="bounding-box"><path stroke-width="0.3" fill="#000000" stroke="none" stroke-dasharray="none" d="M568.0804671999999 240.29999999999995M575.4374271999999 235.07711999999995C575.5497472 235.07711999999995,575.7182271999999 235.07711999999995,575.7463071999999 235.07711999999995C575.7463071999999 235.07711999999995,575.7743872 235.07711999999995,575.7743872 235.07711999999995C575.7743872 235.07711999999995,575.9428671999999 235.07711999999995,576.0832671999999 235.07711999999995C578.6104671999999 235.21751999999995,580.0987071999999 236.87423999999996,580.0987071999999 238.95215999999996C580.0987071999999 239.96303999999995,579.7617472 241.11431999999996,578.9193472 242.20943999999994C577.3187872 244.37159999999994,574.7073472 245.55095999999995,572.4328671999999 245.55095999999995C570.6638271999999 245.55095999999995,569.1475072 244.84895999999995,568.4174271999999 243.41687999999996C568.1927871999999 242.85527999999996,568.0804671999999 242.32175999999995,568.0804671999999 241.73207999999997C568.0804671999999 238.67135999999996,571.5062271999999 235.27367999999996,575.4374271999999 235.07711999999995"></path></g></g><g class="vf-modifiers"></g></g><path stroke-width="1" fill="none" stroke="#000000" stroke-dasharray="none" d="M626.4138005333333 245.29999999999995L644.4320405333333 245.29999999999995"></path><g class="vf-stavenote" id="vf-auto3473387"><g class="vf-note" pointer-events="bounding-box"><g class="vf-stem" pointer-events="bounding-box"><path stroke-width="1.5" fill="none" stroke="#000000" stroke-dasharray="none" class="vf-stem" id="vf-auto3473387-stem" d="M630.1638005333333 240.29999999999995L630.1638005333333 275.29999999999995"></path></g><g class="vf-notehead" pointer-events="bounding-box"><path stroke-width="0.3" fill="#000000" stroke="none" stroke-dasharray="none" d="M629.4138005333333 240.29999999999995M636.7707605333333 235.07711999999995C636.8830805333333 235.07711999999995,637.0515605333333 235.07711999999995,637.0796405333333 235.07711999999995C637.0796405333333 235.07711999999995,637.1077205333333 235.07711999999995,637.1077205333333 235.07711999999995C637.1077205333333 235.07711999999995,637.2762005333333 235.07711999999995,637.4166005333333 235.07711999999995C639.9438005333333 235.21751999999995,641.4320405333333 236.87423999999996,641.4320405333333 238.95215999999996C641.4320405333333 239.96303999999995,641.0950805333333 241.11431999999996,640.2526805333333 242.20943999999994C638.6521205333333 244.37159999999994,636.0406805333333 245.55095999999995,633.7662005333333 245.55095999999995C631.9971605333333 245.55095999999995,630.4808405333333 244.84895999999995,629.7507605333333 243.41687999999996C629.5261205333333 242.85527999999996,629.4138005333333 242.32175999999995,629.4138005333333 241.73207999999997C629.4138005333333 238.67135999999996,632.8395605333333 235.27367999999996,636.7707605333333 235.07711999999995"></path></g></g><g class="vf-modifiers"></g></g><rect stroke-width="0.3" fill="#000000" stroke="#000000" stroke-dasharray="none" x="750.5307007999999" y="166.5" width="1" height="129.79999999999995"></rect><path stroke-width="1" fill="none" stroke="#000000" stroke-dasharray="none" d="M750.5307007999999 255.29999999999998L958.3809343999998 255.29999999999998"></path><path stroke-width="1" fill="none" stroke="#000000" stroke-dasharray="none" d="M750.5307007999999 265.29999999999995L958.3809343999998 265.29999999999995"></path><path stroke-width="1" fill="none" stroke="#000000" stroke-dasharray="none" d="M750.5307007999999 275.29999999999995L958.3809343999998 275.29999999999995"></path><path stroke-width="1" fill="none" stroke="#000000" stroke-dasharray="none" d="M750.5307007999999 285.29999999999995L958.3809343999998 285.29999999999995"></path><path stroke-width="1" fill="none" stroke="#000000" stroke-dasharray="none" d="M750.5307007999999 295.29999999999995L958.3809343999998 295.29999999999995"></path><rect stroke-width="0.3" fill="#000000" stroke="#000000" stroke-dasharray="none" x="953.3809343999998" y="254.79999999999998" width="1" height="40.99999999999997"></rect><rect stroke-width="0.3" fill="#000000" stroke="#000000" stroke-dasharray="none" x="956.3809343999998" y="254.79999999999998" width="3" height="40.99999999999997"></rect><rect stroke-width="0.3" fill="#000000" stroke="#000000" stroke-dasharray="none" x="953.3809343999998" y="166.5" width="1" height="129.79999999999995"></rect><rect stroke-width="0.3" fill="#000000" stroke="#000000" stroke-dasharray="none" x="956.3809343999998" y="166.5" width="3" height="129.79999999999995"></rect><path stroke-width="0.3" fill="#000000" stroke="none" stroke-dasharray="none" d="M68 166.5C45.2 192.45999999999998,81.2 213.87699999999998,56 231.39999999999998C81.2 248.92299999999997,45.2 270.34,68 296.29999999999995C44 270.34,72.8 248.92299999999997,56 231.39999999999998C72.8 213.87699999999998,44 192.45999999999998,68 166.5"></path><path stroke-width="1" fill="none" stroke="#000000" stroke-dasharray="none" d="M68 166.5C45.2 192.45999999999998,81.2 213.87699999999998,56 231.39999999999998C81.2 248.92299999999997,45.2 270.34,68 296.29999999999995C44 270.34,72.8 248.92299999999997,56 231.39999999999998C72.8 213.87699999999998,44 192.45999999999998,68 166.5"></path><g class="vf-text"><text stroke-width="0.3" fill="#000000" stroke="none" stroke-dasharray="none" font-family="Times New Roman" font-size="15px" font-weight="normal" font-style="normal" x="547.5804671999999" y="163.5">3</text></g></svg>