<svg xmlns="http://www.w3.org/2000/svg"  width="1470" height="380.79999999999995" viewBox="0 0 1470 380.79999999999995"><path stroke-width="1" fill="none" stroke="#000000" stroke-dasharray="none" d="M70 166.5L351.63023359999994 166.5"></path><path stroke-width="1" fill="none" stroke="#000000" stroke-dasharray="none" d="M70 176.5L351.63023359999994 176.5"></path><path stroke-width="1" fill="none" stroke="#000000" stroke-dasharray="none" d="M70 186.5L351.63023359999994 186.5"></path><path stroke-width="1" fill="none" stroke="#000000" stroke-dasharray="none" d="M70 196.5L351.63023359999994 196.5"></path><path stroke-width="1" fill="none" stroke="#000000" stroke-dasharray="none" d="M70 206.5L351.63023359999994 206.5"></path><rect stroke-width="0.3" fill="#000000" stroke="#000000" stroke-dasharray="none" x="351.63023359999994" y="166" width="1" height="41"></rect><g class="vf-clef"><path stroke-width="0.3" fill="#000000" stroke="none" stroke-dasharray="none" d="M75 196.5M89.0544 153.3288C89.112 153.3,89.1696 153.3,89.256 153.3C89.6016 153.3,90.0048 153.588,90.5808 154.308C92.9136 156.9864,94.5552 161.652,94.5552 165.4536C94.5552 165.7416,94.4976 165.972,94.4976 166.26C94.2384 170.7816,92.3952 174.4968,88.7376 178.0104L87.7584 178.9608L87.4128 179.3352L87.4128 179.4504L87.6144 180.3144L87.9312 181.8696L88.248 183.3096C88.68 185.268,88.8528 186.276,88.8528 186.276C88.8528 186.276,88.8528 186.276,88.8528 186.276C88.8528 186.276,88.968 186.276,89.112 186.2472C89.256 186.2472,89.7168 186.1896,90.2064 186.1896C90.55199999999999 186.1896,90.8976 186.2472,91.0704 186.2472C95.1312 186.7656,98.2704 189.6744,99.1632 193.764C99.336 194.4264,99.39359999999999 195.1464,99.39359999999999 195.8664C99.39359999999999 199.7544,97.0608 203.4696,93.1728 205.2264C92.94239999999999 205.3704,92.856 205.3992,92.856 205.3992L92.856 205.428C92.856 205.428,93.0288 206.0904,93.1728 206.8392L93.6048 209.028L94.008 210.7848C94.2384 211.908,94.3536 212.7144,94.3536 213.4344C94.3536 214.06799999999998,94.2672 214.644,94.1232 215.3064C93.144 219.3096,89.6592 221.7,86.0304 221.7C84.2448 221.7,82.4016 221.124,80.7888 219.828C79.3488 218.6184,78.7152 217.524,78.7152 216.084C78.7152 213.5496,80.76 211.764,82.8912 211.764C83.64 211.764,84.3888 211.99439999999998,85.1088 212.4264C86.3184 213.2616,86.8656 214.5288,86.8656 215.7672C86.8656 217.668,85.5408 219.54,83.2656 219.684L83.0352 219.684L83.208 219.79919999999998C84.1584 220.2024,85.1088 220.404,86.0304 220.404C88.3632 220.404,90.55199999999999 219.2232,91.8768 217.1784C92.62559999999999 216.0264,93.0288 214.6728,93.0288 213.3192C93.0288 212.8008,92.94239999999999 212.2824,92.8272 211.7064C92.8272 211.6488,92.74080000000001 211.188,92.62559999999999 210.756C91.992 207.6456,91.6176 205.8312,91.6176 205.8312C91.6176 205.8312,91.6176 205.8312,91.6176 205.8312C91.56 205.8312,91.4448 205.8312,91.3584 205.8888C91.0704 205.9464,90.4656 206.0904,90.2064 206.1192C89.5728 206.2056,88.968 206.2344,88.392 206.2344C82.74719999999999 206.2344,77.5056 202.4328,75.6912 196.8168C75.2304 195.3192,74.9712 193.8216,74.9712 192.324C74.9712 189.3288,75.9216 186.3912,77.7648 183.7704C79.7808 180.9192,81.7968 178.4712,84.2736 175.9368L85.13759999999999 175.044L84.936 173.9784L84.5616 172.2216L84.072 169.9752C83.928 169.14,83.7552 168.3336,83.7264 168.1608C83.5824 167.2104,83.496 166.2888,83.496 165.3384C83.496 161.7096,84.6768 158.22480000000002,86.8944 155.4312C87.5568 154.5672,88.7376 153.4152,89.0544 153.3288M90.8112 159.0312C90.7536 159.0312,90.6672 159.0312,90.5808 159.0312C89.4 159.0312,87.8736 160.1256,86.8368 161.7384C85.7712 163.32240000000002,85.224 165.4248,85.224 167.5848C85.224 168.1608,85.25280000000001 168.7656,85.3392 169.3704C85.4256 169.8024,85.45439999999999 170.0904,85.6848 171.12720000000002L86.088 172.9416C86.2032 173.4888,86.28960000000001 173.92079999999999,86.28960000000001 173.9784L86.28960000000001 173.9784C86.3184 173.9784,87.2112 172.9992,87.4992 172.6536C90.3792 169.3992,92.1072 165.972,92.4816 162.948C92.5104 162.66,92.5104 162.4296,92.5104 162.1416C92.5104 161.24880000000002,92.3952 160.38479999999998,92.1936 159.924C91.9632 159.4632,91.4448 159.0888,90.8112 159.0312M86.4624 181.2936C86.4048 180.8904,86.3184 180.5736,86.3184 180.516C86.3184 180.516,86.3184 180.516,86.28960000000001 180.516C86.232 180.516,84.9936 181.956,84.1296 182.964C82.6608 184.7496,81.1056 186.8808,80.472 187.9176C79.2624 189.9624,78.6576 192.2376,78.6576 194.484C78.6576 195.9528,78.9456 197.364,79.464 198.7176C81.0192 202.7208,84.5904 205.2264,88.4784 205.2264C88.9392 205.2264,89.4576 205.1976,89.9472 205.1112C90.5808 204.996,91.3584 204.7656,91.3584 204.6792L91.3584 204.6792C91.3584 204.6792,91.3008 204.3912,91.2144 204.0744L90.3792 199.956L89.7168 196.8744L89.2848 194.7432L88.824 192.6696C88.5936 191.4312,88.5072 191.1144,88.5072 191.1144C88.5072 191.1144,88.5072 191.0856,88.4784 191.0856C88.3056 191.0856,87.384 191.5464,86.9808 191.8344C85.4832 192.8712,84.7056 194.5128,84.7056 196.1256C84.7056 197.652,85.45439999999999 199.1784,86.8944 200.0712C87.2112 200.2728,87.3264 200.4456,87.3264 200.6472C87.3264 200.676,87.3264 200.7624,87.3264 200.7912C87.2688 201.1368,87.0672 201.2808,86.7792 201.2808C86.664 201.2808,86.52 201.252,86.3472 201.1656C83.6976 200.0136,81.912 197.2776,81.912 194.2824L81.912 194.2824C81.912 190.8264,84.072 187.8312,87.384 186.6504L87.5568 186.5928L87.2688 185.1528L86.4624 181.2936M90.7824 190.9128C90.55199999999999 190.88400000000001,90.3216 190.88400000000001,90.1488 190.88400000000001C90.0912 190.88400000000001,90.0048 190.88400000000001,89.9472 190.88400000000001L89.8032 190.88400000000001L89.9184 191.4024L90.5232 194.2248L90.8976 196.068L91.3008 197.8824L92.1072 201.8856L92.424 203.412C92.5392 203.8152,92.5968 204.1608,92.62559999999999 204.1608C92.62559999999999 204.1608,92.62559999999999 204.1608,92.62559999999999 204.1608C92.6544 204.1608,93.144 203.8728,93.4608 203.6424C94.9296 202.6056,96.024 200.9928,96.4272 199.3224C96.5712 198.7752,96.6288 198.1992,96.6288 197.652C96.6288 194.3112,94.152 191.2872,90.7824 190.9128"></path></g><path stroke-width="0.3" fill="#000000" stroke="none" stroke-dasharray="none" d="M116 186.5M123.344 167.8376C123.4592 167.8376,123.6608 167.8376,123.8912 167.8376C124.2944 167.8376,124.8416 167.8376,125.0432 167.8952C126.7712 168.1544,128.6144 169.3928,128.96 170.516C129.0464 170.7752,129.0752 171.00560000000002,129.0752 171.236C129.0752 172.532,127.9808 173.5112,126.8 173.5112C126.3392 173.5112,125.8784 173.39600000000002,125.4464 173.0504C124.928 172.5896,124.64 172.0136,124.64 171.3512C124.64 170.4584,125.1872 169.5368,126.13759999999999 169.2776C126.224 169.2776,126.25280000000001 169.2488,126.25280000000001 169.2488C126.25280000000001 169.2488,126.224 169.1912,126.13759999999999 169.1624C125.504 168.8744,124.8704 168.7592,124.2944 168.7592C123.4016 168.7592,122.624 169.076,122.048 169.6808C121.4432 170.4008,121.0112 171.8696,120.7232 174.0296C120.6944 174.548,120.608 175.5272,120.608 175.7288C120.608 175.7288,120.608 175.7288,120.608 175.7288C120.608 175.7288,120.608 175.7288,120.608 175.7288C120.608 175.7288,120.7232 175.6712,120.83840000000001 175.6424C121.76 175.268,122.5664 175.124,123.4304 175.124C124.4672 175.124,125.4464 175.3544,126.5408 175.9304C128.5568 176.9096,129.68 178.3496,129.68 180.0776C129.68 180.308,129.6224 180.5672,129.5936 180.8264C129.3056 182.4392,128.0672 183.764,126.0512 184.628C125.1296 185.0312,124.2944 185.2616,123.4592 185.2616C122.624 185.2616,121.76 185.0024,120.8096 184.5128C118.304 183.2456,116.576 180.88400000000001,116.1152 178.148C116.0288 177.6008,116 177.0536,116 176.4488C116 175.2392,116.1728 174.0296,116.576 173.0504C117.6704 170.2856,120.464 168.1544,123.344 167.8376M123.74719999999999 176.0456C123.632 176.0456,123.5168 176.0456,123.4016 176.0456C122.7968 176.0456,122.336 176.2472,122.048 176.564C121.6448 177.1688,121.35679999999999 178.6664,121.35679999999999 179.9912C121.35679999999999 180.2792,121.35679999999999 180.5672,121.3856 180.7976C121.5008 182.1512,121.8176 183.2744,122.1344 183.764C122.3648 184.1096,122.8544 184.3112,123.4016 184.3112C123.5168 184.3112,123.6608 184.3112,123.776 184.2824C124.6112 184.1672,124.928 183.6488,125.2448 182.0072C125.3888 181.2296,125.4752 180.5672,125.4752 179.9048C125.4752 179.2424,125.3888 178.6088,125.2448 177.8312C124.9568 176.6504,124.5824 176.1608,123.74719999999999 176.0456M122.7968 186.5288L122.8544 186.5288L122.768 186.5288L122.7968 186.5288M122.7968 167.1176L122.8544 167.1176L122.768 167.1176L122.7968 167.1176"></path><path stroke-width="0.3" fill="#000000" stroke="none" stroke-dasharray="none" d="M116.1008 206.5M121.11200000000001 188.1544C121.14080000000001 188.1256,121.54400000000001 188.1256,122.78240000000001 188.1256C123.1568 188.1256,123.56 188.1256,124.0784 188.1256L126.9872 188.1256L127.0736 188.212C127.2176 188.29840000000002,127.304 188.4424,127.304 188.5576C127.304 188.7304,127.2176 188.8456,127.1024 188.9608C127.0736 189.0472,126.8144 189.2776,126.64160000000001 189.5368L125.1152 191.2936L123.1568 193.5112L122.12 194.692L120.5648 196.4776L118.52000000000001 198.8104C118.1744 199.2424,117.80000000000001 199.588,117.80000000000001 199.588C117.80000000000001 199.588,117.80000000000001 199.588,117.80000000000001 199.588C117.80000000000001 199.6456,118.0592 199.6456,120.4496 199.6456L123.0704 199.6456L123.0704 197.7736C123.0704 195.8728,123.0704 195.844,123.09920000000001 195.8152C123.1568 195.7288,123.41600000000001 195.412,124.424 194.2312L124.8272 193.7992L125.2304 193.3672L125.8352 192.5896L126.4688 191.9272L126.7856 191.524C126.9008 191.3512,127.0736 191.3224,127.2176 191.3224C127.3904 191.3224,127.5344 191.4088,127.6208 191.5528C127.6496 191.6392,127.6496 191.6968,127.6496 193.828C127.6496 194.3176,127.6496 194.9224,127.6496 195.6424L127.6496 199.6456L128.3696 199.6456C129.032 199.6456,129.0608 199.6456,129.1472 199.6744C129.3776 199.7608,129.49280000000002 199.9912,129.49280000000002 200.2504C129.49280000000002 200.3944,129.464 200.5672,129.3488 200.6824C129.17600000000002 200.8264,129.1472 200.8264,128.3696 200.8264L127.6496 200.8264L127.6496 201.316C127.67840000000001 202.7848,127.96640000000001 203.3608,129.08960000000002 203.9656C129.49280000000002 204.1672,129.57920000000001 204.2248,129.57920000000001 204.5128C129.57920000000001 204.7144,129.5216 204.8008,129.3776 204.916L129.2912 204.9448L125.3456 204.9448L121.42880000000001 204.9448L121.34240000000001 204.916C121.1696 204.8008,121.14080000000001 204.7144,121.14080000000001 204.5128C121.14080000000001 204.2248,121.1696 204.1672,121.6016 203.9656C122.7248 203.3608,123.01280000000001 202.7848,123.01280000000001 201.316L123.01280000000001 200.8264L119.7008 200.8264C119.096 200.88400000000001,118.60640000000001 200.88400000000001,118.20320000000001 200.88400000000001C116.3888 200.88400000000001,116.36000000000001 200.8264,116.33120000000001 200.8264C116.1584 200.7688,116.1008 200.596,116.1008 200.3944C116.1008 200.3944,116.1008 200.3944,116.1008 200.3944C116.1008 200.1928,116.1008 200.1928,116.6768 199.5304C119.096 196.5928,120.79520000000001 192.3304,120.79520000000001 188.93200000000002C120.79520000000001 188.4136,120.8816 188.2408,121.11200000000001 188.1544M122.84 206.5288L122.86880000000001 206.5288L122.78240000000001 206.5288L122.84 206.5288M122.84 187.1176L122.86880000000001 187.1176L122.78240000000001 187.1176L122.84 187.1176"></path><g class="vf-stavenote" id="vf-auto2204925"><g class="vf-note" pointer-events="bounding-box"><g class="vf-stem" pointer-events="bounding-box"><path stroke-width="1.5" fill="none" stroke="#000000" stroke-dasharray="none" class="vf-stem" id="vf-auto2204925-stem" d="M142.43 176.5L142.43 211.5"></path></g><g class="vf-notehead" pointer-events="bounding-box"><path stroke-width="0.3" fill="#000000" stroke="none" stroke-dasharray="none" d="M141.68 176.5M149.03696 171.27712C149.14928 171.27712,149.31776000000002 171.27712,149.34584 171.27712C149.34584 171.27712,149.37392 171.27712,149.37392 171.27712C149.37392 171.27712,149.54240000000001 171.27712,149.68280000000001 171.27712C152.21 171.41752,153.69824 173.07424,153.69824 175.15216C153.69824 176.16304,153.36128000000002 177.31432,152.51888 178.40944C150.91832 180.5716,148.30688 181.75096,146.0324 181.75096C144.26336 181.75096,142.74704 181.04896,142.01696 179.61688C141.79232000000002 179.05528,141.68 178.52176,141.68 177.93208C141.68 174.87136,145.10576 171.47368,149.03696 171.27712"></path></g></g><g class="vf-modifiers"></g></g><g class="vf-stavenote" id="vf-auto2204933"><g class="vf-note" pointer-events="bounding-box"><g class="vf-stem" pointer-events="bounding-box"><path stroke-width="1.5" fill="none" stroke="#000000" stroke-dasharray="none" class="vf-stem" id="vf-auto2204933-stem" d="M223.38824 191.5L223.38824 156.5"></path></g><g class="vf-notehead" pointer-events="bounding-box"><path stroke-width="0.3" fill="#000000" stroke="none" stroke-dasharray="none" d="M212.12 191.5M219.47696 186.27712C219.58928 186.27712,219.75776000000002 186.27712,219.78584 186.27712C219.78584 186.27712,219.81392 186.27712,219.81392 186.27712C219.81392 186.27712,219.9824 186.27712,220.1228 186.27712C222.65 186.41752,224.13824 188.07424,224.13824 190.15216C224.13824 191.16304,223.80128000000002 192.31432,222.95888 193.40944C221.35832 195.5716,218.74688 196.75096,216.4724 196.75096C214.70336 196.75096,213.18704 196.04896,212.45696 194.61688C212.23232000000002 194.05528,212.12 193.52176,212.12 192.93208C212.12 189.87136,215.54576 186.47368,219.47696 186.27712"></path></g></g><g class="vf-modifiers"></g></g><g class="vf-stavenote" id="vf-auto2204941"><g class="vf-note" pointer-events="bounding-box"><g class="vf-stem" pointer-events="bounding-box"><path stroke-width="1.5" fill="none" stroke="#000000" stroke-dasharray="none" class="vf-stem" id="vf-auto2204941-stem" d="M258.60824 191.5L258.60824 156.5"></path></g><g class="vf-notehead" pointer-events="bounding-box"><path stroke-width="0.3" fill="#000000" stroke="none" stroke-dasharray="none" d="M247.34 191.5M254.69696 186.27712C254.80928 186.27712,254.97776 186.27712,255.00584 186.27712C255.00584 186.27712,255.03392 186.27712,255.03392 186.27712C255.03392 186.27712,255.2024 186.27712,255.3428 186.27712C257.87 186.41752,259.35824 188.07424,259.35824 190.15216C259.35824 191.16304,259.02128 192.31432,258.17888 193.40944C256.57832 195.5716,253.96688 196.75096,251.6924 196.75096C249.92336 196.75096,248.40704 196.04896,247.67696 194.61688C247.45232000000001 194.05528,247.34 193.52176,247.34 192.93208C247.34 189.87136,250.76576 186.47368,254.69696 186.27712"></path></g></g><g class="vf-modifiers"></g></g><g class="vf-stavenote" id="vf-auto2204949"><g class="vf-note" pointer-events="bounding-box"><g class="vf-stem" pointer-events="bounding-box"><path stroke-width="1.5" fill="none" stroke="#000000" stroke-dasharray="none" class="vf-stem" id="vf-auto2204949-stem" d="M283.31 181.5L283.31 216.5"></path></g><g class="vf-notehead" pointer-events="bounding-box"><path stroke-width="0.3" fill="#000000" stroke="none" stroke-dasharray="none" d="M282.56 181.5M289.91696 176.27712C290.02928 176.27712,290.19776 176.27712,290.22584 176.27712C290.22584 176.27712,290.25392 176.27712,290.25392 176.27712C290.25392 176.27712,290.4224 176.27712,290.5628 176.27712C293.09000000000003 176.41752,294.57824 178.07424,294.57824 180.15216C294.57824 181.16304,294.24128 182.31432,293.39888 183.40944C291.79832 185.5716,289.18688 186.75096,286.9124 186.75096C285.14336000000003 186.75096,283.62704 186.04896,282.89696 184.61688C282.67232 184.05528,282.56 183.52176,282.56 182.93208C282.56 179.87136,285.98576 176.47368,289.91696 176.27712"></path></g></g><g class="vf-modifiers"></g></g><path stroke-width="1" fill="none" stroke="#000000" stroke-dasharray="none" d="M351.6302336 166.5L542.6804672 166.5"></path><path stroke-width="1" fill="none" stroke="#000000" stroke-dasharray="none" d="M351.6302336 176.5L542.6804672 176.5"></path><path stroke-width="1" fill="none" stroke="#000000" stroke-dasharray="none" d="M351.6302336 186.5L542.6804672 186.5"></path><path stroke-width="1" fill="none" stroke="#000000" stroke-dasharray="none" d="M351.6302336 196.5L542.6804672 196.5"></path><path stroke-width="1" fill="none" stroke="#000000" stroke-dasharray="none" d="M351.6302336 206.5L542.6804672 206.5"></path><rect stroke-width="0.3" fill="#000000" stroke="#000000" stroke-dasharray="none" x="542.6804672" y="166" width="1" height="41"></rect><g class="vf-stavenote" id="vf-auto2204980"><g class="vf-note" pointer-events="bounding-box"><g class="vf-stem" pointer-events="bounding-box"><path stroke-width="1.5" fill="none" stroke="#000000" stroke-dasharray="none" class="vf-stem" id="vf-auto2204980-stem" d="M409.2318069333333 206.5L409.2318069333333 171.5"></path></g><g class="vf-notehead" pointer-events="bounding-box"><path stroke-width="0.3" fill="#000000" stroke="none" stroke-dasharray="none" d="M397.9635669333333 206.5M405.3205269333333 201.27712C405.43284693333334 201.27712,405.6013269333333 201.27712,405.6294069333333 201.27712C405.6294069333333 201.27712,405.6574869333333 201.27712,405.6574869333333 201.27712C405.6574869333333 201.27712,405.8259669333333 201.27712,405.9663669333333 201.27712C408.49356693333334 201.41752,409.9818069333333 203.07424,409.9818069333333 205.15216C409.9818069333333 206.16304,409.6448469333333 207.31432,408.80244693333333 208.40944C407.2018869333333 210.5716,404.5904469333333 211.75096,402.3159669333333 211.75096C400.54692693333334 211.75096,399.03060693333333 211.04896,398.3005269333333 209.61688C398.0758869333333 209.05528,397.9635669333333 208.52176,397.9635669333333 207.93208C397.9635669333333 204.87136,401.38932693333334 201.47368,405.3205269333333 201.27712"></path></g></g><g class="vf-modifiers"></g></g><g class="vf-stavenote" id="vf-auto2204988"><g class="vf-note" pointer-events="bounding-box"><g class="vf-stem" pointer-events="bounding-box"><path stroke-width="1.5" fill="none" stroke="#000000" stroke-dasharray="none" class="vf-stem" id="vf-auto2204988-stem" d="M428.0469002666667 171.5L428.0469002666667 206.5"></path></g><g class="vf-notehead" pointer-events="bounding-box"><path stroke-width="0.3" fill="#000000" stroke="none" stroke-dasharray="none" d="M427.2969002666667 171.5M434.6538602666667 166.27712C434.7661802666667 166.27712,434.9346602666667 166.27712,434.9627402666667 166.27712C434.9627402666667 166.27712,434.9908202666667 166.27712,434.9908202666667 166.27712C434.9908202666667 166.27712,435.15930026666666 166.27712,435.29970026666666 166.27712C437.8269002666667 166.41752,439.3151402666667 168.07424,439.3151402666667 170.15216C439.3151402666667 171.16304,438.9781802666667 172.31432,438.1357802666667 173.40944C436.53522026666667 175.5716,433.92378026666665 176.75096,431.64930026666667 176.75096C429.8802602666667 176.75096,428.3639402666667 176.04896,427.63386026666666 174.61688C427.4092202666667 174.05528,427.2969002666667 173.52176,427.2969002666667 172.93208C427.2969002666667 169.87136,430.7226602666667 166.47368,434.6538602666667 166.27712"></path></g></g><g class="vf-modifiers"></g></g><path stroke-width="1" fill="none" stroke="#000000" stroke-dasharray="none" d="M542.6804671999998 166.5L737.9307007999998 166.5"></path><path stroke-width="1" fill="none" stroke="#000000" stroke-dasharray="none" d="M542.6804671999998 176.5L737.9307007999998 176.5"></path><path stroke-width="1" fill="none" stroke="#000000" stroke-dasharray="none" d="M542.6804671999998 186.5L737.9307007999998 186.5"></path><path stroke-width="1" fill="none" stroke="#000000" stroke-dasharray="none" d="M542.6804671999998 196.5L737.9307007999998 196.5"></path><path stroke-width="1" fill="none" stroke="#000000" stroke-dasharray="none" d="M542.6804671999998 206.5L737.9307007999998 206.5"></path><rect stroke-width="0.3" fill="#000000" stroke="#000000" stroke-dasharray="none" x="737.9307007999998" y="166" width="1" height="41"></rect><g class="vf-stavenote" id="vf-auto2205034"><g class="vf-note" pointer-events="bounding-box"><g class="vf-stem" pointer-events="bounding-box"><path stroke-width="1.5" fill="none" stroke="#000000" stroke-dasharray="none" class="vf-stem" id="vf-auto2205034-stem" d="M560.4304671999998 171.5L560.4304671999998 206.5"></path></g><g class="vf-notehead" pointer-events="bounding-box"><path stroke-width="0.3" fill="#000000" stroke="none" stroke-dasharray="none" d="M559.6804671999998 171.5M567.0374271999998 166.27712C567.1497471999999 166.27712,567.3182271999998 166.27712,567.3463071999998 166.27712C567.3463071999998 166.27712,567.3743871999999 166.27712,567.3743871999999 166.27712C567.3743871999999 166.27712,567.5428671999998 166.27712,567.6832671999998 166.27712C570.2104671999998 166.41752,571.6987071999998 168.07424,571.6987071999998 170.15216C571.6987071999998 171.16304,571.3617471999999 172.31432,570.5193471999999 173.40944C568.9187871999999 175.5716,566.3073471999999 176.75096,564.0328671999998 176.75096C562.2638271999998 176.75096,560.7475071999999 176.04896,560.0174271999998 174.61688C559.7927871999998 174.05528,559.6804671999998 173.52176,559.6804671999998 172.93208C559.6804671999998 169.87136,563.1062271999998 166.47368,567.0374271999998 166.27712"></path></g></g><g class="vf-modifiers"></g></g><g class="vf-stavenote" id="vf-auto2205042"><g class="vf-note" pointer-events="bounding-box"><g class="vf-stem" pointer-events="bounding-box"><path stroke-width="1.5" fill="none" stroke="#000000" stroke-dasharray="none" class="vf-stem" id="vf-auto2205042-stem" d="M630.9487071999998 196.5L630.9487071999998 161.5"></path></g><g class="vf-notehead" pointer-events="bounding-box"><path stroke-width="0.3" fill="#000000" stroke="none" stroke-dasharray="none" d="M619.6804671999998 196.5M627.0374271999998 191.27712C627.1497471999999 191.27712,627.3182271999998 191.27712,627.3463071999998 191.27712C627.3463071999998 191.27712,627.3743871999999 191.27712,627.3743871999999 191.27712C627.3743871999999 191.27712,627.5428671999998 191.27712,627.6832671999998 191.27712C630.2104671999998 191.41752,631.6987071999998 193.07424,631.6987071999998 195.15216C631.6987071999998 196.16304,631.3617471999999 197.31432,630.5193471999999 198.40944C628.9187871999999 200.5716,626.3073471999999 201.75096,624.0328671999998 201.75096C622.2638271999998 201.75096,620.7475071999999 201.04896,620.0174271999998 199.61688C619.7927871999998 199.05528,619.6804671999998 198.52176,619.6804671999998 197.93208C619.6804671999998 194.87136,623.1062271999998 191.47368,627.0374271999998 191.27712"></path></g></g><g class="vf-modifiers"></g></g><g class="vf-stavenote" id="vf-auto2205050"><g class="vf-note" pointer-events="bounding-box"><g class="vf-stem" pointer-events="bounding-box"><path stroke-width="1.5" fill="none" stroke="#000000" stroke-dasharray="none" class="vf-stem" id="vf-auto2205050-stem" d="M680.4304671999998 181.5L680.4304671999998 216.5"></path></g><g class="vf-notehead" pointer-events="bounding-box"><path stroke-width="0.3" fill="#000000" stroke="none" stroke-dasharray="none" d="M679.6804671999998 181.5M687.0374271999998 176.27712C687.1497471999999 176.27712,687.3182271999998 176.27712,687.3463071999998 176.27712C687.3463071999998 176.27712,687.3743871999999 176.27712,687.3743871999999 176.27712C687.3743871999999 176.27712,687.5428671999998 176.27712,687.6832671999998 176.27712C690.2104671999998 176.41752,691.6987071999998 178.07424,691.6987071999998 180.15216C691.6987071999998 181.16304,691.3617471999999 182.31432,690.5193471999999 183.40944C688.9187871999999 185.5716,686.3073471999999 186.75096,684.0328671999998 186.75096C682.2638271999998 186.75096,680.7475071999999 186.04896,680.0174271999998 184.61688C679.7927871999998 184.05528,679.6804671999998 183.52176,679.6804671999998 182.93208C679.6804671999998 179.87136,683.1062271999998 176.47368,687.0374271999998 176.27712"></path></g></g><g class="vf-modifiers"></g></g><path stroke-width="1" fill="none" stroke="#000000" stroke-dasharray="none" d="M737.9307007999998 166.5L937.3809343999998 166.5"></path><path stroke-width="1" fill="none" stroke="#000000" stroke-dasharray="none" d="M737.9307007999998 176.5L937.3809343999998 176.5"></path><path stroke-width="1" fill="none" stroke="#000000" stroke-dasharray="none" d="M737.9307007999998 186.5L937.3809343999998 186.5"></path><path stroke-width="1" fill="none" stroke="#000000" stroke-dasharray="none" d="M737.9307007999998 196.5L937.3809343999998 196.5"></path><path stroke-width="1" fill="none" stroke="#000000" stroke-dasharray="none" d="M737.9307007999998 206.5L937.3809343999998 206.5"></path><rect stroke-width="0.3" fill="#000000" stroke="#000000" stroke-dasharray="none" x="932.3809343999998" y="166" width="1" height="41"></rect><rect stroke-width="0.3" fill="#000000" stroke="#000000" stroke-dasharray="none" x="935.3809343999998" y="166" width="3" height="41"></rect><g class="vf-stavenote" id="vf-auto2205090"><g class="vf-note" pointer-events="bounding-box"><g class="vf-stem" pointer-events="bounding-box"><path stroke-width="1.5" fill="none" stroke="#000000" stroke-dasharray="none" class="vf-stem" id="vf-auto2205090-stem" d="M766.1989407999998 201.5L766.1989407999998 166.5"></path></g><g class="vf-notehead" pointer-events="bounding-box"><path stroke-width="0.3" fill="#000000" stroke="none" stroke-dasharray="none" d="M754.9307007999998 201.5M762.2876607999998 196.27712C762.3999807999999 196.27712,762.5684607999998 196.27712,762.5965407999998 196.27712C762.5965407999998 196.27712,762.6246207999999 196.27712,762.6246207999999 196.27712C762.6246207999999 196.27712,762.7931007999998 196.27712,762.9335007999998 196.27712C765.4607007999998 196.41752,766.9489407999998 198.07424,766.9489407999998 200.15216C766.9489407999998 201.16304,766.6119807999999 202.31432,765.7695807999999 203.40944C764.1690207999999 205.5716,761.5575807999999 206.75096,759.2831007999998 206.75096C757.5140607999998 206.75096,755.9977407999999 206.04896,755.2676607999998 204.61688C755.0430207999998 204.05528,754.9307007999998 203.52176,754.9307007999998 202.93208C754.9307007999998 199.87136,758.3564607999998 196.47368,762.2876607999998 196.27712"></path></g></g><g class="vf-modifiers"></g></g><g class="vf-stavenote" id="vf-auto2205098"><g class="vf-note" pointer-events="bounding-box"><g class="vf-stem" pointer-events="bounding-box"><path stroke-width="1.5" fill="none" stroke="#000000" stroke-dasharray="none" class="vf-stem" id="vf-auto2205098-stem" d="M786.3473674666665 176.5L786.3473674666665 211.5"></path></g><g class="vf-notehead" pointer-events="bounding-box"><path stroke-width="0.3" fill="#000000" stroke="none" stroke-dasharray="none" d="M785.5973674666665 176.5M792.9543274666664 171.27712C793.0666474666665 171.27712,793.2351274666664 171.27712,793.2632074666665 171.27712C793.2632074666665 171.27712,793.2912874666665 171.27712,793.2912874666665 171.27712C793.2912874666665 171.27712,793.4597674666664 171.27712,793.6001674666664 171.27712C796.1273674666664 171.41752,797.6156074666665 173.07424,797.6156074666665 175.15216C797.6156074666665 176.16304,797.2786474666665 177.31432,796.4362474666665 178.40944C794.8356874666665 180.5716,792.2242474666665 181.75096,789.9497674666665 181.75096C788.1807274666664 181.75096,786.6644074666665 181.04896,785.9343274666664 179.61688C785.7096874666664 179.05528,785.5973674666665 178.52176,785.5973674666665 177.93208C785.5973674666665 174.87136,789.0231274666664 171.47368,792.9543274666664 171.27712"></path></g></g><g class="vf-modifiers"></g></g><g class="vf-stavenote" id="vf-auto2205106"><g class="vf-note" pointer-events="bounding-box"><g class="vf-stem" pointer-events="bounding-box"><path stroke-width="1.5" fill="none" stroke="#000000" stroke-dasharray="none" class="vf-stem" id="vf-auto2205106-stem" d="M827.5322741333332 211.5L827.5322741333332 176.5"></path></g><g class="vf-notehead" pointer-events="bounding-box"><path stroke-width="0.3" fill="#000000" stroke="none" stroke-dasharray="none" d="M816.2640341333332 211.5M823.6209941333332 206.27712C823.7333141333332 206.27712,823.9017941333332 206.27712,823.9298741333332 206.27712C823.9298741333332 206.27712,823.9579541333333 206.27712,823.9579541333333 206.27712C823.9579541333333 206.27712,824.1264341333332 206.27712,824.2668341333332 206.27712C826.7940341333332 206.41752,828.2822741333332 208.07424,828.2822741333332 210.15216C828.2822741333332 211.16304,827.9453141333332 212.31432,827.1029141333332 213.40944C825.5023541333333 215.5716,822.8909141333332 216.75096,820.6164341333332 216.75096C818.8473941333332 216.75096,817.3310741333332 216.04896,816.6009941333332 214.61688C816.3763541333332 214.05528,816.2640341333332 213.52176,816.2640341333332 212.93208C816.2640341333332 209.87136,819.6897941333332 206.47368,823.6209941333332 206.27712"></path></g></g><g class="vf-modifiers"></g></g><g class="vf-stavenote" id="vf-auto2205114"><g class="vf-note" pointer-events="bounding-box"><g class="vf-stem" pointer-events="bounding-box"><path stroke-width="1.5" fill="none" stroke="#000000" stroke-dasharray="none" class="vf-stem" id="vf-auto2205114-stem" d="M919.5322741333332 191.5L919.5322741333332 156.5"></path></g><g class="vf-notehead" pointer-events="bounding-box"><path stroke-width="0.3" fill="#000000" stroke="none" stroke-dasharray="none" d="M908.2640341333332 191.5M915.6209941333332 186.27712C915.7333141333332 186.27712,915.9017941333332 186.27712,915.9298741333332 186.27712C915.9298741333332 186.27712,915.9579541333333 186.27712,915.9579541333333 186.27712C915.9579541333333 186.27712,916.1264341333332 186.27712,916.2668341333332 186.27712C918.7940341333332 186.41752,920.2822741333332 188.07424,920.2822741333332 190.15216C920.2822741333332 191.16304,919.9453141333332 192.31432,919.1029141333332 193.40944C917.5023541333333 195.5716,914.8909141333332 196.75096,912.6164341333332 196.75096C910.8473941333332 196.75096,909.3310741333332 196.04896,908.6009941333332 194.61688C908.3763541333332 194.05528,908.2640341333332 193.52176,908.2640341333332 192.93208C908.2640341333332 189.87136,911.6897941333332 186.47368,915.6209941333332 186.27712"></path></g></g><g class="vf-modifiers"></g></g><g class="vf-text"><text stroke-width="0.3" fill="#000000" stroke="none" stroke-dasharray="none" font-family="Times New Roman" font-size="23px" font-weight="bold" font-style="italic" x="143.68912" y="240.5">f</text></g><path stroke-width="1" fill="none" stroke="#000000" stroke-dasharray="none" d="M70 255.29999999999998L351.63023359999994 255.29999999999998"></path><path stroke-width="1" fill="none" stroke="#000000" stroke-dasharray="none" d="M70 265.29999999999995L351.63023359999994 265.29999999999995"></path><path stroke-width="1" fill="none" stroke="#000000" stroke-dasharray="none" d="M70 275.29999999999995L351.63023359999994 275.29999999999995"></path><path stroke-width="1" fill="none" stroke="#000000" stroke-dasharray="none" d="M70 285.29999999999995L351.63023359999994 285.29999999999995"></path><path stroke-width="1" fill="none" stroke="#000000" stroke-dasharray="none" d="M70 295.29999999999995L351.63023359999994 295.29999999999995"></path><rect stroke-width="0.3" fill="#000000" stroke="#000000" stroke-dasharray="none" x="351.63023359999994" y="254.79999999999998" width="1" height="40.99999999999997"></rect><g class="vf-clef"><path stroke-width="0.3" fill="#000000" stroke="none" stroke-dasharray="none" d="M75 265.29999999999995M83.8416 255.24879999999996C84.072 255.19119999999995,84.3024 255.19119999999995,84.5616 255.19119999999995C85.5696 255.19119999999995,86.7504 255.30639999999997,87.7584 255.50799999999995C92.4816 256.4872,95.736 259.68399999999997,96.3408 263.9464C96.3984 264.40719999999993,96.4272 264.83919999999995,96.4272 265.29999999999995C96.4272 267.89199999999994,95.5344 271.23279999999994,94.008 274.02639999999997C90.3792 280.59279999999995,83.7552 285.316,75.8064 287.044C75.6624 287.044,75.5472 287.0728,75.4032 287.0728C75.1152 287.0728,74.9712 286.9,74.9712 286.64079999999996C74.9712 286.35279999999995,75.0288 286.2664,75.6048 286.03599999999994C84.7056 282.6088,90.7824 275.20719999999994,91.3296 266.91279999999995C91.3584 266.48079999999993,91.3584 265.99119999999994,91.3584 265.61679999999996C91.3584 261.5848,90.12 258.58959999999996,87.7296 257.0919999999999C86.6928 256.42959999999994,85.5696 256.11279999999994,84.36 256.11279999999994C81.6816 256.11279999999994,78.9456 257.63919999999996,77.6784 260.20239999999995C77.6208 260.40399999999994,77.4192 260.83599999999996,77.4192 260.86479999999995C77.4192 260.86479999999995,77.4192 260.86479999999995,77.4192 260.86479999999995C77.4192 260.86479999999995,77.448 260.83599999999996,77.5344 260.80719999999997C78.168 260.40399999999994,78.8592 260.20239999999995,79.5792 260.20239999999995C80.5872 260.20239999999995,81.6528 260.63439999999997,82.4016 261.44079999999997C83.0928 262.1895999999999,83.4672 263.19759999999997,83.4672 264.1192C83.4672 265.99119999999994,82.0848 267.89199999999994,79.9248 268.0936C79.7808 268.0936,79.6368 268.12239999999997,79.4928 268.12239999999997C77.1024 268.12239999999997,75.1728 265.93359999999996,75.1728 263.1688C75.1728 263.11119999999994,75.1728 263.02479999999997,75.1728 262.996C75.288 258.8776,79.0608 255.50799999999995,83.8416 255.24879999999996M99.1632 259.10799999999995C99.2208 259.07919999999996,99.2496 259.07919999999996,99.336 259.07919999999996C99.5376 259.07919999999996,99.768 259.10799999999995,99.8256 259.1655999999999C100.54560000000001 259.36719999999997,100.8912 260.00079999999997,100.8912 260.6056C100.8912 261.12399999999997,100.632 261.64239999999995,100.11359999999999 261.93039999999996C99.912 262.07439999999997,99.6528 262.10319999999996,99.39359999999999 262.10319999999996C98.9904 262.10319999999996,98.5584 261.93039999999996,98.2704 261.5559999999999C98.03999999999999 261.268,97.9248 260.9512,97.9248 260.63439999999997C97.9248 259.91439999999994,98.3856 259.1944,99.1632 259.10799999999995M99.1632 268.52559999999994C99.2208 268.52559999999994,99.2496 268.52559999999994,99.336 268.52559999999994C99.5376 268.52559999999994,99.768 268.55439999999993,99.8256 268.61199999999997C100.54560000000001 268.81359999999995,100.8912 269.44719999999995,100.8912 270.05199999999996C100.8912 270.57039999999995,100.632 271.08879999999994,100.11359999999999 271.34799999999996C99.912 271.49199999999996,99.6528 271.54959999999994,99.39359999999999 271.54959999999994C98.9904 271.54959999999994,98.5584 271.34799999999996,98.2704 271.00239999999997C98.03999999999999 270.71439999999996,97.9248 270.39759999999995,97.9248 270.05199999999996C97.9248 269.33199999999994,98.3856 268.64079999999996,99.1632 268.52559999999994"></path></g><path stroke-width="0.3" fill="#000000" stroke="none" stroke-dasharray="none" d="M116 275.29999999999995M123.344 256.63759999999996C123.4592 256.63759999999996,123.6608 256.63759999999996,123.8912 256.63759999999996C124.2944 256.63759999999996,124.8416 256.63759999999996,125.0432 256.69519999999994C126.7712 256.95439999999996,128.6144 258.1928,128.96 259.316C129.0464 259.57519999999994,129.0752 259.80559999999997,129.0752 260.03599999999994C129.0752 261.33199999999994,127.9808 262.31119999999993,126.8 262.31119999999993C126.3392 262.31119999999993,125.8784 262.19599999999997,125.4464 261.8504C124.928 261.3896,124.64 260.81359999999995,124.64 260.15119999999996C124.64 259.25839999999994,125.1872 258.3367999999999,126.13759999999999 258.07759999999996C126.224 258.07759999999996,126.25280000000001 258.04879999999997,126.25280000000001 258.04879999999997C126.25280000000001 258.04879999999997,126.224 257.99119999999994,126.13759999999999 257.96239999999995C125.504 257.67439999999993,124.8704 257.5592,124.2944 257.5592C123.4016 257.5592,122.624 257.876,122.048 258.48079999999993C121.4432 259.20079999999996,121.0112 260.66959999999995,120.7232 262.82959999999997C120.6944 263.34799999999996,120.608 264.32719999999995,120.608 264.52879999999993C120.608 264.52879999999993,120.608 264.52879999999993,120.608 264.52879999999993C120.608 264.52879999999993,120.608 264.52879999999993,120.608 264.52879999999993C120.608 264.52879999999993,120.7232 264.47119999999995,120.83840000000001 264.44239999999996C121.76 264.068,122.5664 263.924,123.4304 263.924C124.4672 263.924,125.4464 264.15439999999995,126.5408 264.7304C128.5568 265.70959999999997,129.68 267.14959999999996,129.68 268.8776C129.68 269.10799999999995,129.6224 269.36719999999997,129.5936 269.62639999999993C129.3056 271.2392,128.0672 272.56399999999996,126.0512 273.42799999999994C125.1296 273.83119999999997,124.2944 274.06159999999994,123.4592 274.06159999999994C122.624 274.06159999999994,121.76 273.8024,120.8096 273.3128C118.304 272.0456,116.576 269.68399999999997,116.1152 266.948C116.0288 266.40079999999995,116 265.8536,116 265.24879999999996C116 264.03919999999994,116.1728 262.82959999999997,116.576 261.8504C117.6704 259.08559999999994,120.464 256.95439999999996,123.344 256.63759999999996M123.74719999999999 264.84559999999993C123.632 264.84559999999993,123.5168 264.84559999999993,123.4016 264.84559999999993C122.7968 264.84559999999993,122.336 265.0472,122.048 265.364C121.6448 265.96879999999993,121.35679999999999 267.46639999999996,121.35679999999999 268.79119999999995C121.35679999999999 269.07919999999996,121.35679999999999 269.36719999999997,121.3856 269.59759999999994C121.5008 270.9512,121.8176 272.07439999999997,122.1344 272.56399999999996C122.3648 272.90959999999995,122.8544 273.11119999999994,123.4016 273.11119999999994C123.5168 273.11119999999994,123.6608 273.11119999999994,123.776 273.08239999999995C124.6112 272.96719999999993,124.928 272.44879999999995,125.2448 270.80719999999997C125.3888 270.02959999999996,125.4752 269.36719999999997,125.4752 268.7048C125.4752 268.04239999999993,125.3888 267.4087999999999,125.2448 266.6312C124.9568 265.45039999999995,124.5824 264.96079999999995,123.74719999999999 264.84559999999993M122.7968 275.32879999999994L122.8544 275.32879999999994L122.768 275.32879999999994L122.7968 275.32879999999994M122.7968 255.91759999999996L122.8544 255.91759999999996L122.768 255.91759999999996L122.7968 255.91759999999996"></path><path stroke-width="0.3" fill="#000000" stroke="none" stroke-dasharray="none" d="M116.1008 295.29999999999995M121.11200000000001 276.95439999999996C121.14080000000001 276.9256,121.54400000000001 276.9256,122.78240000000001 276.9256C123.1568 276.9256,123.56 276.9256,124.0784 276.9256L126.9872 276.9256L127.0736 277.01199999999994C127.2176 277.09839999999997,127.304 277.2424,127.304 277.35759999999993C127.304 277.53039999999993,127.2176 277.64559999999994,127.1024 277.76079999999996C127.0736 277.84719999999993,126.8144 278.07759999999996,126.64160000000001 278.3367999999999L125.1152 280.0936L123.1568 282.31119999999993L122.12 283.49199999999996L120.5648 285.27759999999995L118.52000000000001 287.61039999999997C118.1744 288.04239999999993,117.80000000000001 288.388,117.80000000000001 288.388C117.80000000000001 288.388,117.80000000000001 288.388,117.80000000000001 288.388C117.80000000000001 288.44559999999996,118.0592 288.44559999999996,120.4496 288.44559999999996L123.0704 288.44559999999996L123.0704 286.57359999999994C123.0704 284.67279999999994,123.0704 284.64399999999995,123.09920000000001 284.61519999999996C123.1568 284.52879999999993,123.41600000000001 284.21199999999993,124.424 283.03119999999996L124.8272 282.59919999999994L125.2304 282.1672L125.8352 281.3896L126.4688 280.7272L126.7856 280.32399999999996C126.9008 280.15119999999996,127.0736 280.12239999999997,127.2176 280.12239999999997C127.3904 280.12239999999997,127.5344 280.20879999999994,127.6208 280.35279999999995C127.6496 280.43919999999997,127.6496 280.49679999999995,127.6496 282.62799999999993C127.6496 283.1176,127.6496 283.72239999999994,127.6496 284.44239999999996L127.6496 288.44559999999996L128.3696 288.44559999999996C129.032 288.44559999999996,129.0608 288.44559999999996,129.1472 288.47439999999995C129.3776 288.5608,129.49280000000002 288.79119999999995,129.49280000000002 289.05039999999997C129.49280000000002 289.1944,129.464 289.36719999999997,129.3488 289.4823999999999C129.17600000000002 289.62639999999993,129.1472 289.62639999999993,128.3696 289.62639999999993L127.6496 289.62639999999993L127.6496 290.11599999999993C127.67840000000001 291.5848,127.96640000000001 292.16079999999994,129.08960000000002 292.76559999999995C129.49280000000002 292.96719999999993,129.57920000000001 293.02479999999997,129.57920000000001 293.3128C129.57920000000001 293.51439999999997,129.5216 293.60079999999994,129.3776 293.71599999999995L129.2912 293.74479999999994L125.3456 293.74479999999994L121.42880000000001 293.74479999999994L121.34240000000001 293.71599999999995C121.1696 293.60079999999994,121.14080000000001 293.51439999999997,121.14080000000001 293.3128C121.14080000000001 293.02479999999997,121.1696 292.96719999999993,121.6016 292.76559999999995C122.7248 292.16079999999994,123.01280000000001 291.5848,123.01280000000001 290.11599999999993L123.01280000000001 289.62639999999993L119.7008 289.62639999999993C119.096 289.68399999999997,118.60640000000001 289.68399999999997,118.20320000000001 289.68399999999997C116.3888 289.68399999999997,116.36000000000001 289.62639999999993,116.33120000000001 289.62639999999993C116.1584 289.56879999999995,116.1008 289.39599999999996,116.1008 289.1944C116.1008 289.1944,116.1008 289.1944,116.1008 289.1944C116.1008 288.99279999999993,116.1008 288.99279999999993,116.6768 288.33039999999994C119.096 285.39279999999997,120.79520000000001 281.13039999999995,120.79520000000001 277.73199999999997C120.79520000000001 277.21359999999993,120.8816 277.04079999999993,121.11200000000001 276.95439999999996M122.84 295.32879999999994L122.86880000000001 295.32879999999994L122.78240000000001 295.32879999999994L122.84 295.32879999999994M122.84 275.91759999999994L122.86880000000001 275.91759999999994L122.78240000000001 275.91759999999994L122.84 275.91759999999994"></path><g class="vf-stavenote" id="vf-auto2204960"><g class="vf-note" pointer-events="bounding-box"><g class="vf-stem" pointer-events="bounding-box"><path stroke-width="1.5" fill="none" stroke="#000000" stroke-dasharray="none" class="vf-stem" id="vf-auto2204960-stem" d="M188.16824 285.29999999999995L188.16824 250.29999999999995"></path></g><g class="vf-notehead" pointer-events="bounding-box"><path stroke-width="0.3" fill="#000000" stroke="none" stroke-dasharray="none" d="M176.9 285.29999999999995M184.25696 280.07712C184.36928 280.07712,184.53776 280.07712,184.56584 280.07712C184.56584 280.07712,184.59392 280.07712,184.59392 280.07712C184.59392 280.07712,184.7624 280.07712,184.9028 280.07712C187.43 280.21752,188.91824 281.87423999999993,188.91824 283.95215999999994C188.91824 284.96304,188.58128 286.11431999999996,187.73888 287.20944C186.13832 289.37159999999994,183.52688 290.55096,181.2524 290.55096C179.48336 290.55096,177.96704 289.84896,177.23696 288.41687999999994C177.01232000000002 287.85527999999994,176.9 287.3217599999999,176.9 286.73207999999994C176.9 283.67135999999994,180.32576 280.27367999999996,184.25696 280.07712"></path></g></g><g class="vf-modifiers"></g></g><g class="vf-stavenote" id="vf-auto2204968"><g class="vf-note" pointer-events="bounding-box"><g class="vf-stem" pointer-events="bounding-box"><path stroke-width="1.5" fill="none" stroke="#000000" stroke-dasharray="none" class="vf-stem" id="vf-auto2204968-stem" d="M318.53000000000003 250.29999999999995L318.53000000000003 285.29999999999995"></path></g><g class="vf-notehead" pointer-events="bounding-box"><path stroke-width="0.3" fill="#000000" stroke="none" stroke-dasharray="none" d="M317.78000000000003 250.29999999999995M325.13696000000004 245.07711999999995C325.24928000000006 245.07711999999995,325.41776000000004 245.07711999999995,325.44584000000003 245.07711999999995C325.44584000000003 245.07711999999995,325.47392 245.07711999999995,325.47392 245.07711999999995C325.47392 245.07711999999995,325.6424 245.07711999999995,325.7828 245.07711999999995C328.31000000000006 245.21751999999995,329.79824 246.87423999999996,329.79824 248.95215999999996C329.79824 249.96303999999995,329.46128000000004 251.11431999999996,328.61888000000005 252.20943999999994C327.01832 254.37159999999994,324.40688 255.55095999999995,322.1324 255.55095999999995C320.36336000000006 255.55095999999995,318.84704000000005 254.84895999999995,318.11696 253.41687999999996C317.89232000000004 252.85527999999996,317.78000000000003 252.32175999999995,317.78000000000003 251.73207999999997C317.78000000000003 248.67135999999996,321.20576000000005 245.27367999999996,325.13696000000004 245.07711999999995"></path></g></g><g class="vf-modifiers"></g></g><rect stroke-width="0.3" fill="#000000" stroke="#000000" stroke-dasharray="none" x="351.63023359999994" y="166.5" width="1" height="129.79999999999995"></rect><rect stroke-width="0.3" fill="#000000" stroke="#000000" stroke-dasharray="none" x="70" y="166.5" width="1" height="129.79999999999995"></rect><path stroke-width="1" fill="none" stroke="#000000" stroke-dasharray="none" d="M351.6302336 255.29999999999998L542.6804672 255.29999999999998"></path><path stroke-width="1" fill="none" stroke="#000000" stroke-dasharray="none" d="M351.6302336 265.29999999999995L542.6804672 265.29999999999995"></path><path stroke-width="1" fill="none" stroke="#000000" stroke-dasharray="none" d="M351.6302336 275.29999999999995L542.6804672 275.29999999999995"></path><path stroke-width="1" fill="none" stroke="#000000" stroke-dasharray="none" d="M351.6302336 285.29999999999995L542.6804672 285.29999999999995"></path><path stroke-width="1" fill="none" stroke="#000000" stroke-dasharray="none" d="M351.6302336 295.29999999999995L542.6804672 295.29999999999995"></path><rect stroke-width="0.3" fill="#000000" stroke="#000000" stroke-dasharray="none" x="542.6804672" y="254.79999999999998" width="1" height="40.99999999999997"></rect><path stroke-width="1" fill="none" stroke="#000000" stroke-dasharray="none" d="M365.6302336 245.29999999999995L383.6484736 245.29999999999995"></path><g class="vf-stavenote" id="vf-auto2205000"><g class="vf-note" pointer-events="bounding-box"><g class="vf-stem" pointer-events="bounding-box"><path stroke-width="1.5" fill="none" stroke="#000000" stroke-dasharray="none" class="vf-stem" id="vf-auto2205000-stem" d="M369.3802336 240.29999999999995L369.3802336 275.29999999999995"></path></g><g class="vf-notehead" pointer-events="bounding-box"><path stroke-width="0.3" fill="#000000" stroke="none" stroke-dasharray="none" d="M368.6302336 240.29999999999995M375.9871936 235.07711999999995C376.0995136 235.07711999999995,376.2679936 235.07711999999995,376.2960736 235.07711999999995C376.2960736 235.07711999999995,376.3241536 235.07711999999995,376.3241536 235.07711999999995C376.3241536 235.07711999999995,376.4926336 235.07711999999995,376.6330336 235.07711999999995C379.16023359999997 235.21751999999995,380.6484736 236.87423999999996,380.6484736 238.95215999999996C380.6484736 239.96303999999995,380.3115136 241.11431999999996,379.4691136 242.20943999999994C377.8685536 244.37159999999994,375.2571136 245.55095999999995,372.9826336 245.55095999999995C371.2135936 245.55095999999995,369.6972736 244.84895999999995,368.9671936 243.41687999999996C368.7425536 242.85527999999996,368.6302336 242.32175999999995,368.6302336 241.73207999999997C368.6302336 238.67135999999996,372.0559936 235.27367999999996,375.9871936 235.07711999999995"></path></g></g><g class="vf-modifiers"></g></g><g class="vf-stavenote" id="vf-auto2205008"><g class="vf-note" pointer-events="bounding-box"><g class="vf-stem" pointer-events="bounding-box"><path stroke-width="1.5" fill="none" stroke="#000000" stroke-dasharray="none" class="vf-stem" id="vf-auto2205008-stem" d="M457.3802336 260.29999999999995L457.3802336 295.29999999999995"></path></g><g class="vf-notehead" pointer-events="bounding-box"><path stroke-width="0.3" fill="#000000" stroke="none" stroke-dasharray="none" d="M456.6302336 260.29999999999995M463.9871936 255.07711999999995C464.0995136 255.07711999999995,464.2679936 255.07711999999995,464.2960736 255.07711999999995C464.2960736 255.07711999999995,464.3241536 255.07711999999995,464.3241536 255.07711999999995C464.3241536 255.07711999999995,464.4926336 255.07711999999995,464.6330336 255.07711999999995C467.16023359999997 255.21751999999995,468.6484736 256.87423999999993,468.6484736 258.95215999999994C468.6484736 259.96304,468.3115136 261.11431999999996,467.4691136 262.20944C465.8685536 264.37159999999994,463.2571136 265.55096,460.9826336 265.55096C459.2135936 265.55096,457.6972736 264.84896,456.9671936 263.41687999999994C456.7425536 262.85527999999994,456.6302336 262.3217599999999,456.6302336 261.73207999999994C456.6302336 258.67135999999994,460.0559936 255.27367999999996,463.9871936 255.07711999999995"></path></g></g><g class="vf-modifiers"></g></g><g class="vf-stavenote" id="vf-auto2205016"><g class="vf-note" pointer-events="bounding-box"><g class="vf-stem" pointer-events="bounding-box"><path stroke-width="1.5" fill="none" stroke="#000000" stroke-dasharray="none" class="vf-stem" id="vf-auto2205016-stem" d="M497.23180693333336 280.29999999999995L497.23180693333336 245.29999999999995"></path></g><g class="vf-notehead" pointer-events="bounding-box"><path stroke-width="0.3" fill="#000000" stroke="none" stroke-dasharray="none" d="M485.96356693333337 280.29999999999995M493.3205269333334 275.07712C493.4328469333334 275.07712,493.6013269333334 275.07712,493.62940693333337 275.07712C493.62940693333337 275.07712,493.65748693333336 275.07712,493.65748693333336 275.07712C493.65748693333336 275.07712,493.82596693333335 275.07712,493.96636693333335 275.07712C496.49356693333334 275.21752,497.98180693333336 276.87423999999993,497.98180693333336 278.95215999999994C497.98180693333336 279.96304,497.6448469333334 281.11431999999996,496.8024469333334 282.20944C495.20188693333336 284.37159999999994,492.5904469333334 285.55096,490.31596693333336 285.55096C488.5469269333334 285.55096,487.0306069333334 284.84896,486.30052693333334 283.41687999999994C486.0758869333334 282.85527999999994,485.96356693333337 282.3217599999999,485.96356693333337 281.73207999999994C485.96356693333337 278.67135999999994,489.3893269333334 275.27367999999996,493.3205269333334 275.07712"></path></g></g><g class="vf-modifiers"></g></g><path stroke-width="1" fill="none" stroke="#000000" stroke-dasharray="none" d="M512.2969002666666 245.29999999999995L530.3151402666666 245.29999999999995"></path><g class="vf-stavenote" id="vf-auto2205024"><g class="vf-note" pointer-events="bounding-box"><g class="vf-stem" pointer-events="bounding-box"><path stroke-width="1.5" fill="none" stroke="#000000" stroke-dasharray="none" class="vf-stem" id="vf-auto2205024-stem" d="M516.0469002666666 245.29999999999995L516.0469002666666 280.29999999999995"></path></g><g class="vf-notehead" pointer-events="bounding-box"><path stroke-width="0.3" fill="#000000" stroke="none" stroke-dasharray="none" d="M515.2969002666666 245.29999999999995M522.6538602666666 240.07711999999995C522.7661802666667 240.07711999999995,522.9346602666666 240.07711999999995,522.9627402666666 240.07711999999995C522.9627402666666 240.07711999999995,522.9908202666667 240.07711999999995,522.9908202666667 240.07711999999995C522.9908202666667 240.07711999999995,523.1593002666666 240.07711999999995,523.2997002666666 240.07711999999995C525.8269002666666 240.21751999999995,527.3151402666666 241.87423999999996,527.3151402666666 243.95215999999996C527.3151402666666 244.96303999999995,526.9781802666666 246.11431999999996,526.1357802666666 247.20943999999994C524.5352202666667 249.37159999999994,521.9237802666667 250.55095999999995,519.6493002666666 250.55095999999995C517.8802602666666 250.55095999999995,516.3639402666666 249.84895999999995,515.6338602666666 248.41687999999996C515.4092202666666 247.85527999999996,515.2969002666666 247.32175999999995,515.2969002666666 246.73207999999997C515.2969002666666 243.67135999999996,518.7226602666666 240.27367999999996,522.6538602666666 240.07711999999995"></path></g></g><g class="vf-modifiers"></g></g><rect stroke-width="0.3" fill="#000000" stroke="#000000" stroke-dasharray="none" x="542.6804672" y="166.5" width="1" height="129.79999999999995"></rect><path stroke-width="1" fill="none" stroke="#000000" stroke-dasharray="none" d="M542.6804671999998 255.29999999999998L737.9307007999998 255.29999999999998"></path><path stroke-width="1" fill="none" stroke="#000000" stroke-dasharray="none" d="M542.6804671999998 265.29999999999995L737.9307007999998 265.29999999999995"></path><path stroke-width="1" fill="none" stroke="#000000" stroke-dasharray="none" d="M542.6804671999998 275.29999999999995L737.9307007999998 275.29999999999995"></path><path stroke-width="1" fill="none" stroke="#000000" stroke-dasharray="none" d="M542.6804671999998 285.29999999999995L737.9307007999998 285.29999999999995"></path><path stroke-width="1" fill="none" stroke="#000000" stroke-dasharray="none" d="M542.6804671999998 295.29999999999995L737.9307007999998 295.29999999999995"></path><rect stroke-width="0.3" fill="#000000" stroke="#000000" stroke-dasharray="none" x="737.9307007999998" y="254.79999999999998" width="1" height="40.99999999999997"></rect><g class="vf-stavenote" id="vf-auto2205062"><g class="vf-note" pointer-events="bounding-box"><g class="vf-stem" pointer-events="bounding-box"><path stroke-width="1.5" fill="none" stroke="#000000" stroke-dasharray="none" class="vf-stem" id="vf-auto2205062-stem" d="M600.9487071999998 295.29999999999995L600.9487071999998 260.29999999999995"></path></g><g class="vf-notehead" pointer-events="bounding-box"><path stroke-width="0.3" fill="#000000" stroke="none" stroke-dasharray="none" d="M589.6804671999998 295.29999999999995M597.0374271999998 290.07712C597.1497471999999 290.07712,597.3182271999998 290.07712,597.3463071999998 290.07712C597.3463071999998 290.07712,597.3743871999999 290.07712,597.3743871999999 290.07712C597.3743871999999 290.07712,597.5428671999998 290.07712,597.6832671999998 290.07712C600.2104671999998 290.21752,601.6987071999998 291.87423999999993,601.6987071999998 293.95215999999994C601.6987071999998 294.96304,601.3617471999999 296.11431999999996,600.5193471999999 297.20944C598.9187871999999 299.37159999999994,596.3073471999999 300.55096,594.0328671999998 300.55096C592.2638271999998 300.55096,590.7475071999999 299.84896,590.0174271999998 298.41687999999994C589.7927871999998 297.85527999999994,589.6804671999998 297.3217599999999,589.6804671999998 296.73207999999994C589.6804671999998 293.67135999999994,593.1062271999998 290.27367999999996,597.0374271999998 290.07712"></path></g></g><g class="vf-modifiers"></g></g><g class="vf-stavenote" id="vf-auto2205070"><g class="vf-note" pointer-events="bounding-box"><g class="vf-stem" pointer-events="bounding-box"><path stroke-width="1.5" fill="none" stroke="#000000" stroke-dasharray="none" class="vf-stem" id="vf-auto2205070-stem" d="M650.4304671999998 270.29999999999995L650.4304671999998 305.29999999999995"></path></g><g class="vf-notehead" pointer-events="bounding-box"><path stroke-width="0.3" fill="#000000" stroke="none" stroke-dasharray="none" d="M649.6804671999998 270.29999999999995M657.0374271999998 265.07712C657.1497471999999 265.07712,657.3182271999998 265.07712,657.3463071999998 265.07712C657.3463071999998 265.07712,657.3743871999999 265.07712,657.3743871999999 265.07712C657.3743871999999 265.07712,657.5428671999998 265.07712,657.6832671999998 265.07712C660.2104671999998 265.21752,661.6987071999998 266.87423999999993,661.6987071999998 268.95215999999994C661.6987071999998 269.96304,661.3617471999999 271.11431999999996,660.5193471999999 272.20944C658.9187871999999 274.37159999999994,656.3073471999999 275.55096,654.0328671999998 275.55096C652.2638271999998 275.55096,650.7475071999999 274.84896,650.0174271999998 273.41687999999994C649.7927871999998 272.85527999999994,649.6804671999998 272.3217599999999,649.6804671999998 271.73207999999994C649.6804671999998 268.67135999999994,653.1062271999998 265.27367999999996,657.0374271999998 265.07712"></path></g></g><g class="vf-modifiers"></g></g><path stroke-width="1" fill="none" stroke="#000000" stroke-dasharray="none" d="M706.6804671999998 245.29999999999995L724.6987071999998 245.29999999999995"></path><g class="vf-stavenote" id="vf-auto2205078"><g class="vf-note" pointer-events="bounding-box"><g class="vf-stem" pointer-events="bounding-box"><path stroke-width="1.5" fill="none" stroke="#000000" stroke-dasharray="none" class="vf-stem" id="vf-auto2205078-stem" d="M710.4304671999998 240.29999999999995L710.4304671999998 275.29999999999995"></path></g><g class="vf-notehead" pointer-events="bounding-box"><path stroke-width="0.3" fill="#000000" stroke="none" stroke-dasharray="none" d="M709.6804671999998 240.29999999999995M717.0374271999998 235.07711999999995C717.1497471999999 235.07711999999995,717.3182271999998 235.07711999999995,717.3463071999998 235.07711999999995C717.3463071999998 235.07711999999995,717.3743871999999 235.07711999999995,717.3743871999999 235.07711999999995C717.3743871999999 235.07711999999995,717.5428671999998 235.07711999999995,717.6832671999998 235.07711999999995C720.2104671999998 235.21751999999995,721.6987071999998 236.87423999999996,721.6987071999998 238.95215999999996C721.6987071999998 239.96303999999995,721.3617471999999 241.11431999999996,720.5193471999999 242.20943999999994C718.9187871999999 244.37159999999994,716.3073471999999 245.55095999999995,714.0328671999998 245.55095999999995C712.2638271999998 245.55095999999995,710.7475071999999 244.84895999999995,710.0174271999998 243.41687999999996C709.7927871999998 242.85527999999996,709.6804671999998 242.32175999999995,709.6804671999998 241.73207999999997C709.6804671999998 238.67135999999996,713.1062271999998 235.27367999999996,717.0374271999998 235.07711999999995"></path></g></g><g class="vf-modifiers"></g></g><rect stroke-width="0.3" fill="#000000" stroke="#000000" stroke-dasharray="none" x="737.9307007999998" y="166.5" width="1" height="129.79999999999995"></rect><path stroke-width="1" fill="none" stroke="#000000" stroke-dasharray="none" d="M737.9307007999998 255.29999999999998L937.3809343999998 255.29999999999998"></path><path stroke-width="1" fill="none" stroke="#000000" stroke-dasharray="none" d="M737.9307007999998 265.29999999999995L937.3809343999998 265.29999999999995"></path><path stroke-width="1" fill="none" stroke="#000000" stroke-dasharray="none" d="M737.9307007999998 275.29999999999995L937.3809343999998 275.29999999999995"></path><path stroke-width="1" fill="none" stroke="#000000" stroke-dasharray="none" d="M737.9307007999998 285.29999999999995L937.3809343999998 285.29999999999995"></path><path stroke-width="1" fill="none" stroke="#000000" stroke-dasharray="none" d="M737.9307007999998 295.29999999999995L937.3809343999998 295.29999999999995"></path><rect stroke-width="0.3" fill="#000000" stroke="#000000" stroke-dasharray="none" x="932.3809343999998" y="254.79999999999998" width="1" height="40.99999999999997"></rect><rect stroke-width="0.3" fill="#000000" stroke="#000000" stroke-dasharray="none" x="935.3809343999998" y="254.79999999999998" width="3" height="40.99999999999997"></rect><g class="vf-stavenote" id="vf-auto2205124"><g class="vf-note" pointer-events="bounding-box"><g class="vf-stem" pointer-events="bounding-box"><path stroke-width="1.5" fill="none" stroke="#000000" stroke-dasharray="none" class="vf-stem" id="vf-auto2205124-stem" d="M847.6807007999998 270.29999999999995L847.6807007999998 305.29999999999995"></path></g><g class="vf-notehead" pointer-events="bounding-box"><path stroke-width="0.3" fill="#000000" stroke="none" stroke-dasharray="none" d="M846.9307007999998 270.29999999999995M854.2876607999998 265.07712C854.3999807999999 265.07712,854.5684607999998 265.07712,854.5965407999998 265.07712C854.5965407999998 265.07712,854.6246207999999 265.07712,854.6246207999999 265.07712C854.6246207999999 265.07712,854.7931007999998 265.07712,854.9335007999998 265.07712C857.4607007999998 265.21752,858.9489407999998 266.87423999999993,858.9489407999998 268.95215999999994C858.9489407999998 269.96304,858.6119807999999 271.11431999999996,857.7695807999999 272.20944C856.1690207999999 274.37159999999994,853.5575807999999 275.55096,851.2831007999998 275.55096C849.5140607999998 275.55096,847.9977407999999 274.84896,847.2676607999998 273.41687999999994C847.0430207999998 272.85527999999994,846.9307007999998 272.3217599999999,846.9307007999998 271.73207999999994C846.9307007999998 268.67135999999994,850.3564607999998 265.27367999999996,854.2876607999998 265.07712"></path></g></g><g class="vf-modifiers"></g></g><g class="vf-stavenote" id="vf-auto2205132"><g class="vf-note" pointer-events="bounding-box"><g class="vf-stem" pointer-events="bounding-box"><path stroke-width="1.5" fill="none" stroke="#000000" stroke-dasharray="none" class="vf-stem" id="vf-auto2205132-stem" d="M878.3473674666666 260.29999999999995L878.3473674666666 295.29999999999995"></path></g><g class="vf-notehead" pointer-events="bounding-box"><path stroke-width="0.3" fill="#000000" stroke="none" stroke-dasharray="none" d="M877.5973674666666 260.29999999999995M884.9543274666665 255.07711999999995C885.0666474666666 255.07711999999995,885.2351274666665 255.07711999999995,885.2632074666666 255.07711999999995C885.2632074666666 255.07711999999995,885.2912874666666 255.07711999999995,885.2912874666666 255.07711999999995C885.2912874666666 255.07711999999995,885.4597674666666 255.07711999999995,885.6001674666666 255.07711999999995C888.1273674666666 255.21751999999995,889.6156074666666 256.87423999999993,889.6156074666666 258.95215999999994C889.6156074666666 259.96304,889.2786474666666 261.11431999999996,888.4362474666666 262.20944C886.8356874666666 264.37159999999994,884.2242474666666 265.55096,881.9497674666666 265.55096C880.1807274666666 265.55096,878.6644074666666 264.84896,877.9343274666666 263.41687999999994C877.7096874666665 262.85527999999994,877.5973674666666 262.3217599999999,877.5973674666666 261.73207999999994C877.5973674666666 258.67135999999994,881.0231274666666 255.27367999999996,884.9543274666665 255.07711999999995"></path></g></g><g class="vf-modifiers"></g></g><rect stroke-width="0.3" fill="#000000" stroke="#000000" stroke-dasharray="none" x="932.3809343999998" y="166.5" width="1" height="129.79999999999995"></rect><rect stroke-width="0.3" fill="#000000" stroke="#000000" stroke-dasharray="none" x="935.3809343999998" y="166.5" width="3" height="129.79999999999995"></rect><path stroke-width="0.3" fill="#000000" stroke="none" stroke-dasharray="none" d="M68 166.5C45.2 192.45999999999998,81.2 213.87699999999998,56 231.39999999999998C81.2 248.92299999999997,45.2 270.34,68 296.29999999999995C44 270.34,72.8 248.92299999999997,56 231.39999999999998C72.8 213.87699999999998,44 192.45999999999998,68 166.5"></path><path stroke-width="1" fill="none" stroke="#000000" stroke-dasharray="none" d="M68 166.5C45.2 192.45999999999998,81.2 213.87699999999998,56 231.39999999999998C81.2 248.92299999999997,45.2 270.34,68 296.29999999999995C44 270.34,72.8 248.92299999999997,56 231.39999999999998C72.8 213.87699999999998,44 192.45999999999998,68 166.5"></path><g class="vf-text"><text stroke-width="0.3" fill="#000000" stroke="none" stroke-dasharray="none" font-family="Times New Roman" font-size="15px" font-weight="normal" font-style="normal" x="539.1804671999998" y="163.5">3</text></g></svg>