<svg xmlns="http://www.w3.org/2000/svg"  width="1470" height="392.59999999999997" viewBox="0 0 1470 392.59999999999997"><path stroke-width="1" fill="none" stroke="#000000" stroke-dasharray="none" d="M70 166.5L343.2302335999999 166.5"></path><path stroke-width="1" fill="none" stroke="#000000" stroke-dasharray="none" d="M70 176.5L343.2302335999999 176.5"></path><path stroke-width="1" fill="none" stroke="#000000" stroke-dasharray="none" d="M70 186.5L343.2302335999999 186.5"></path><path stroke-width="1" fill="none" stroke="#000000" stroke-dasharray="none" d="M70 196.5L343.2302335999999 196.5"></path><path stroke-width="1" fill="none" stroke="#000000" stroke-dasharray="none" d="M70 206.5L343.2302335999999 206.5"></path><rect stroke-width="0.3" fill="#000000" stroke="#000000" stroke-dasharray="none" x="343.2302335999999" y="166" width="1" height="41"></rect><g class="vf-clef"><path stroke-width="0.3" fill="#000000" stroke="none" stroke-dasharray="none" d="M75 196.5M89.0544 153.3288C89.112 153.3,89.1696 153.3,89.256 153.3C89.6016 153.3,90.0048 153.588,90.5808 154.308C92.9136 156.9864,94.5552 161.652,94.5552 165.4536C94.5552 165.7416,94.4976 165.972,94.4976 166.26C94.2384 170.7816,92.3952 174.4968,88.7376 178.0104L87.7584 178.9608L87.4128 179.3352L87.4128 179.4504L87.6144 180.3144L87.9312 181.8696L88.248 183.3096C88.68 185.268,88.8528 186.276,88.8528 186.276C88.8528 186.276,88.8528 186.276,88.8528 186.276C88.8528 186.276,88.968 186.276,89.112 186.2472C89.256 186.2472,89.7168 186.1896,90.2064 186.1896C90.55199999999999 186.1896,90.8976 186.2472,91.0704 186.2472C95.1312 186.7656,98.2704 189.6744,99.1632 193.764C99.336 194.4264,99.39359999999999 195.1464,99.39359999999999 195.8664C99.39359999999999 199.7544,97.0608 203.4696,93.1728 205.2264C92.94239999999999 205.3704,92.856 205.3992,92.856 205.3992L92.856 205.428C92.856 205.428,93.0288 206.0904,93.1728 206.8392L93.6048 209.028L94.008 210.7848C94.2384 211.908,94.3536 212.7144,94.3536 213.4344C94.3536 214.06799999999998,94.2672 214.644,94.1232 215.3064C93.144 219.3096,89.6592 221.7,86.0304 221.7C84.2448 221.7,82.4016 221.124,80.7888 219.828C79.3488 218.6184,78.7152 217.524,78.7152 216.084C78.7152 213.5496,80.76 211.764,82.8912 211.764C83.64 211.764,84.3888 211.99439999999998,85.1088 212.4264C86.3184 213.2616,86.8656 214.5288,86.8656 215.7672C86.8656 217.668,85.5408 219.54,83.2656 219.684L83.0352 219.684L83.208 219.79919999999998C84.1584 220.2024,85.1088 220.404,86.0304 220.404C88.3632 220.404,90.55199999999999 219.2232,91.8768 217.1784C92.62559999999999 216.0264,93.0288 214.6728,93.0288 213.3192C93.0288 212.8008,92.94239999999999 212.2824,92.8272 211.7064C92.8272 211.6488,92.74080000000001 211.188,92.62559999999999 210.756C91.992 207.6456,91.6176 205.8312,91.6176 205.8312C91.6176 205.8312,91.6176 205.8312,91.6176 205.8312C91.56 205.8312,91.4448 205.8312,91.3584 205.8888C91.0704 205.9464,90.4656 206.0904,90.2064 206.1192C89.5728 206.2056,88.968 206.2344,88.392 206.2344C82.74719999999999 206.2344,77.5056 202.4328,75.6912 196.8168C75.2304 195.3192,74.9712 193.8216,74.9712 192.324C74.9712 189.3288,75.9216 186.3912,77.7648 183.7704C79.7808 180.9192,81.7968 178.4712,84.2736 175.9368L85.13759999999999 175.044L84.936 173.9784L84.5616 172.2216L84.072 169.9752C83.928 169.14,83.7552 168.3336,83.7264 168.1608C83.5824 167.2104,83.496 166.2888,83.496 165.3384C83.496 161.7096,84.6768 158.22480000000002,86.8944 155.4312C87.5568 154.5672,88.7376 153.4152,89.0544 153.3288M90.8112 159.0312C90.7536 159.0312,90.6672 159.0312,90.5808 159.0312C89.4 159.0312,87.8736 160.1256,86.8368 161.7384C85.7712 163.32240000000002,85.224 165.4248,85.224 167.5848C85.224 168.1608,85.25280000000001 168.7656,85.3392 169.3704C85.4256 169.8024,85.45439999999999 170.0904,85.6848 171.12720000000002L86.088 172.9416C86.2032 173.4888,86.28960000000001 173.92079999999999,86.28960000000001 173.9784L86.28960000000001 173.9784C86.3184 173.9784,87.2112 172.9992,87.4992 172.6536C90.3792 169.3992,92.1072 165.972,92.4816 162.948C92.5104 162.66,92.5104 162.4296,92.5104 162.1416C92.5104 161.24880000000002,92.3952 160.38479999999998,92.1936 159.924C91.9632 159.4632,91.4448 159.0888,90.8112 159.0312M86.4624 181.2936C86.4048 180.8904,86.3184 180.5736,86.3184 180.516C86.3184 180.516,86.3184 180.516,86.28960000000001 180.516C86.232 180.516,84.9936 181.956,84.1296 182.964C82.6608 184.7496,81.1056 186.8808,80.472 187.9176C79.2624 189.9624,78.6576 192.2376,78.6576 194.484C78.6576 195.9528,78.9456 197.364,79.464 198.7176C81.0192 202.7208,84.5904 205.2264,88.4784 205.2264C88.9392 205.2264,89.4576 205.1976,89.9472 205.1112C90.5808 204.996,91.3584 204.7656,91.3584 204.6792L91.3584 204.6792C91.3584 204.6792,91.3008 204.3912,91.2144 204.0744L90.3792 199.956L89.7168 196.8744L89.2848 194.7432L88.824 192.6696C88.5936 191.4312,88.5072 191.1144,88.5072 191.1144C88.5072 191.1144,88.5072 191.0856,88.4784 191.0856C88.3056 191.0856,87.384 191.5464,86.9808 191.8344C85.4832 192.8712,84.7056 194.5128,84.7056 196.1256C84.7056 197.652,85.45439999999999 199.1784,86.8944 200.0712C87.2112 200.2728,87.3264 200.4456,87.3264 200.6472C87.3264 200.676,87.3264 200.7624,87.3264 200.7912C87.2688 201.1368,87.0672 201.2808,86.7792 201.2808C86.664 201.2808,86.52 201.252,86.3472 201.1656C83.6976 200.0136,81.912 197.2776,81.912 194.2824L81.912 194.2824C81.912 190.8264,84.072 187.8312,87.384 186.6504L87.5568 186.5928L87.2688 185.1528L86.4624 181.2936M90.7824 190.9128C90.55199999999999 190.88400000000001,90.3216 190.88400000000001,90.1488 190.88400000000001C90.0912 190.88400000000001,90.0048 190.88400000000001,89.9472 190.88400000000001L89.8032 190.88400000000001L89.9184 191.4024L90.5232 194.2248L90.8976 196.068L91.3008 197.8824L92.1072 201.8856L92.424 203.412C92.5392 203.8152,92.5968 204.1608,92.62559999999999 204.1608C92.62559999999999 204.1608,92.62559999999999 204.1608,92.62559999999999 204.1608C92.6544 204.1608,93.144 203.8728,93.4608 203.6424C94.9296 202.6056,96.024 200.9928,96.4272 199.3224C96.5712 198.7752,96.6288 198.1992,96.6288 197.652C96.6288 194.3112,94.152 191.2872,90.7824 190.9128"></path></g><path stroke-width="0.3" fill="#000000" stroke="none" stroke-dasharray="none" d="M116 186.5M123.344 167.8376C123.4592 167.8376,123.6608 167.8376,123.8912 167.8376C124.2944 167.8376,124.8416 167.8376,125.0432 167.8952C126.7712 168.1544,128.6144 169.3928,128.96 170.516C129.0464 170.7752,129.0752 171.00560000000002,129.0752 171.236C129.0752 172.532,127.9808 173.5112,126.8 173.5112C126.3392 173.5112,125.8784 173.39600000000002,125.4464 173.0504C124.928 172.5896,124.64 172.0136,124.64 171.3512C124.64 170.4584,125.1872 169.5368,126.13759999999999 169.2776C126.224 169.2776,126.25280000000001 169.2488,126.25280000000001 169.2488C126.25280000000001 169.2488,126.224 169.1912,126.13759999999999 169.1624C125.504 168.8744,124.8704 168.7592,124.2944 168.7592C123.4016 168.7592,122.624 169.076,122.048 169.6808C121.4432 170.4008,121.0112 171.8696,120.7232 174.0296C120.6944 174.548,120.608 175.5272,120.608 175.7288C120.608 175.7288,120.608 175.7288,120.608 175.7288C120.608 175.7288,120.608 175.7288,120.608 175.7288C120.608 175.7288,120.7232 175.6712,120.83840000000001 175.6424C121.76 175.268,122.5664 175.124,123.4304 175.124C124.4672 175.124,125.4464 175.3544,126.5408 175.9304C128.5568 176.9096,129.68 178.3496,129.68 180.0776C129.68 180.308,129.6224 180.5672,129.5936 180.8264C129.3056 182.4392,128.0672 183.764,126.0512 184.628C125.1296 185.0312,124.2944 185.2616,123.4592 185.2616C122.624 185.2616,121.76 185.0024,120.8096 184.5128C118.304 183.2456,116.576 180.88400000000001,116.1152 178.148C116.0288 177.6008,116 177.0536,116 176.4488C116 175.2392,116.1728 174.0296,116.576 173.0504C117.6704 170.2856,120.464 168.1544,123.344 167.8376M123.74719999999999 176.0456C123.632 176.0456,123.5168 176.0456,123.4016 176.0456C122.7968 176.0456,122.336 176.2472,122.048 176.564C121.6448 177.1688,121.35679999999999 178.6664,121.35679999999999 179.9912C121.35679999999999 180.2792,121.35679999999999 180.5672,121.3856 180.7976C121.5008 182.1512,121.8176 183.2744,122.1344 183.764C122.3648 184.1096,122.8544 184.3112,123.4016 184.3112C123.5168 184.3112,123.6608 184.3112,123.776 184.2824C124.6112 184.1672,124.928 183.6488,125.2448 182.0072C125.3888 181.2296,125.4752 180.5672,125.4752 179.9048C125.4752 179.2424,125.3888 178.6088,125.2448 177.8312C124.9568 176.6504,124.5824 176.1608,123.74719999999999 176.0456M122.7968 186.5288L122.8544 186.5288L122.768 186.5288L122.7968 186.5288M122.7968 167.1176L122.8544 167.1176L122.768 167.1176L122.7968 167.1176"></path><path stroke-width="0.3" fill="#000000" stroke="none" stroke-dasharray="none" d="M116.1008 206.5M121.11200000000001 188.1544C121.14080000000001 188.1256,121.54400000000001 188.1256,122.78240000000001 188.1256C123.1568 188.1256,123.56 188.1256,124.0784 188.1256L126.9872 188.1256L127.0736 188.212C127.2176 188.29840000000002,127.304 188.4424,127.304 188.5576C127.304 188.7304,127.2176 188.8456,127.1024 188.9608C127.0736 189.0472,126.8144 189.2776,126.64160000000001 189.5368L125.1152 191.2936L123.1568 193.5112L122.12 194.692L120.5648 196.4776L118.52000000000001 198.8104C118.1744 199.2424,117.80000000000001 199.588,117.80000000000001 199.588C117.80000000000001 199.588,117.80000000000001 199.588,117.80000000000001 199.588C117.80000000000001 199.6456,118.0592 199.6456,120.4496 199.6456L123.0704 199.6456L123.0704 197.7736C123.0704 195.8728,123.0704 195.844,123.09920000000001 195.8152C123.1568 195.7288,123.41600000000001 195.412,124.424 194.2312L124.8272 193.7992L125.2304 193.3672L125.8352 192.5896L126.4688 191.9272L126.7856 191.524C126.9008 191.3512,127.0736 191.3224,127.2176 191.3224C127.3904 191.3224,127.5344 191.4088,127.6208 191.5528C127.6496 191.6392,127.6496 191.6968,127.6496 193.828C127.6496 194.3176,127.6496 194.9224,127.6496 195.6424L127.6496 199.6456L128.3696 199.6456C129.032 199.6456,129.0608 199.6456,129.1472 199.6744C129.3776 199.7608,129.49280000000002 199.9912,129.49280000000002 200.2504C129.49280000000002 200.3944,129.464 200.5672,129.3488 200.6824C129.17600000000002 200.8264,129.1472 200.8264,128.3696 200.8264L127.6496 200.8264L127.6496 201.316C127.67840000000001 202.7848,127.96640000000001 203.3608,129.08960000000002 203.9656C129.49280000000002 204.1672,129.57920000000001 204.2248,129.57920000000001 204.5128C129.57920000000001 204.7144,129.5216 204.8008,129.3776 204.916L129.2912 204.9448L125.3456 204.9448L121.42880000000001 204.9448L121.34240000000001 204.916C121.1696 204.8008,121.14080000000001 204.7144,121.14080000000001 204.5128C121.14080000000001 204.2248,121.1696 204.1672,121.6016 203.9656C122.7248 203.3608,123.01280000000001 202.7848,123.01280000000001 201.316L123.01280000000001 200.8264L119.7008 200.8264C119.096 200.88400000000001,118.60640000000001 200.88400000000001,118.20320000000001 200.88400000000001C116.3888 200.88400000000001,116.36000000000001 200.8264,116.33120000000001 200.8264C116.1584 200.7688,116.1008 200.596,116.1008 200.3944C116.1008 200.3944,116.1008 200.3944,116.1008 200.3944C116.1008 200.1928,116.1008 200.1928,116.6768 199.5304C119.096 196.5928,120.79520000000001 192.3304,120.79520000000001 188.93200000000002C120.79520000000001 188.4136,120.8816 188.2408,121.11200000000001 188.1544M122.84 206.5288L122.86880000000001 206.5288L122.78240000000001 206.5288L122.84 206.5288M122.84 187.1176L122.86880000000001 187.1176L122.78240000000001 187.1176L122.84 187.1176"></path><g class="vf-stavenote" id="vf-auto3032030"><g class="vf-note" pointer-events="bounding-box"><g class="vf-stem" pointer-events="bounding-box"><path stroke-width="1.5" fill="none" stroke="#000000" stroke-dasharray="none" class="vf-stem" id="vf-auto3032030-stem" d="M142.43 186.5L142.43 221.5"></path></g><g class="vf-notehead" pointer-events="bounding-box"><path stroke-width="0.3" fill="#000000" stroke="none" stroke-dasharray="none" d="M141.68 186.5M149.03696 181.27712C149.14928 181.27712,149.31776000000002 181.27712,149.34584 181.27712C149.34584 181.27712,149.37392 181.27712,149.37392 181.27712C149.37392 181.27712,149.54240000000001 181.27712,149.68280000000001 181.27712C152.21 181.41752,153.69824 183.07424,153.69824 185.15216C153.69824 186.16304,153.36128000000002 187.31432,152.51888 188.40944C150.91832 190.5716,148.30688 191.75096,146.0324 191.75096C144.26336 191.75096,142.74704 191.04896,142.01696 189.61688C141.79232000000002 189.05528,141.68 188.52176,141.68 187.93208C141.68 184.87136,145.10576 181.47368,149.03696 181.27712"></path></g></g><g class="vf-modifiers"></g></g><path stroke-width="1" fill="none" stroke="#000000" stroke-dasharray="none" d="M308.11333333333334 216.5L326.13157333333334 216.5"></path><g class="vf-stavenote" id="vf-auto3032038"><g class="vf-note" pointer-events="bounding-box"><g class="vf-stem" pointer-events="bounding-box"><path stroke-width="1.5" fill="none" stroke="#000000" stroke-dasharray="none" class="vf-stem" id="vf-auto3032038-stem" d="M322.38157333333334 221.5L322.38157333333334 186.5"></path></g><g class="vf-notehead" pointer-events="bounding-box"><path stroke-width="0.3" fill="#000000" stroke="none" stroke-dasharray="none" d="M311.11333333333334 221.5M318.47029333333336 216.27712C318.58261333333337 216.27712,318.75109333333336 216.27712,318.77917333333335 216.27712C318.77917333333335 216.27712,318.80725333333334 216.27712,318.80725333333334 216.27712C318.80725333333334 216.27712,318.9757333333333 216.27712,319.1161333333333 216.27712C321.6433333333333 216.41752,323.13157333333334 218.07424,323.13157333333334 220.15216C323.13157333333334 221.16304,322.79461333333336 222.31432,321.95221333333336 223.40944C320.35165333333333 225.5716,317.7402133333334 226.75096,315.46573333333333 226.75096C313.69669333333337 226.75096,312.18037333333336 226.04896,311.4502933333333 224.61688C311.22565333333336 224.05528,311.11333333333334 223.52176,311.11333333333334 222.93208C311.11333333333334 219.87136,314.53909333333337 216.47368,318.47029333333336 216.27712"></path></g></g><g class="vf-modifiers"></g></g><path stroke-width="1" fill="none" stroke="#000000" stroke-dasharray="none" d="M343.2302335999999 166.5L538.4804671999998 166.5"></path><path stroke-width="1" fill="none" stroke="#000000" stroke-dasharray="none" d="M343.2302335999999 176.5L538.4804671999998 176.5"></path><path stroke-width="1" fill="none" stroke="#000000" stroke-dasharray="none" d="M343.2302335999999 186.5L538.4804671999998 186.5"></path><path stroke-width="1" fill="none" stroke="#000000" stroke-dasharray="none" d="M343.2302335999999 196.5L538.4804671999998 196.5"></path><path stroke-width="1" fill="none" stroke="#000000" stroke-dasharray="none" d="M343.2302335999999 206.5L538.4804671999998 206.5"></path><rect stroke-width="0.3" fill="#000000" stroke="#000000" stroke-dasharray="none" x="538.4804671999998" y="166" width="1" height="41"></rect><g class="vf-stavenote" id="vf-auto3032083"><g class="vf-note" pointer-events="bounding-box"><g class="vf-stem" pointer-events="bounding-box"><path stroke-width="1.5" fill="none" stroke="#000000" stroke-dasharray="none" class="vf-stem" id="vf-auto3032083-stem" d="M401.4984735999999 211.5L401.4984735999999 176.5"></path></g><g class="vf-notehead" pointer-events="bounding-box"><path stroke-width="0.3" fill="#000000" stroke="none" stroke-dasharray="none" d="M390.2302335999999 211.5M397.5871935999999 206.27712C397.69951359999993 206.27712,397.8679935999999 206.27712,397.8960735999999 206.27712C397.8960735999999 206.27712,397.9241535999999 206.27712,397.9241535999999 206.27712C397.9241535999999 206.27712,398.0926335999999 206.27712,398.2330335999999 206.27712C400.7602335999999 206.41752,402.2484735999999 208.07424,402.2484735999999 210.15216C402.2484735999999 211.16304,401.9115135999999 212.31432,401.0691135999999 213.40944C399.4685535999999 215.5716,396.85711359999993 216.75096,394.5826335999999 216.75096C392.81359359999993 216.75096,391.2972735999999 216.04896,390.5671935999999 214.61688C390.3425535999999 214.05528,390.2302335999999 213.52176,390.2302335999999 212.93208C390.2302335999999 209.87136,393.65599359999993 206.47368,397.5871935999999 206.27712"></path></g></g><g class="vf-modifiers"></g></g><g class="vf-stavenote" id="vf-auto3032091"><g class="vf-note" pointer-events="bounding-box"><g class="vf-stem" pointer-events="bounding-box"><path stroke-width="1.5" fill="none" stroke="#000000" stroke-dasharray="none" class="vf-stem" id="vf-auto3032091-stem" d="M450.9802335999999 166.5L450.9802335999999 201.5"></path></g><g class="vf-notehead" pointer-events="bounding-box"><path stroke-width="0.3" fill="#000000" stroke="none" stroke-dasharray="none" d="M450.2302335999999 166.5M457.5871935999999 161.27712C457.69951359999993 161.27712,457.8679935999999 161.27712,457.8960735999999 161.27712C457.8960735999999 161.27712,457.9241535999999 161.27712,457.9241535999999 161.27712C457.9241535999999 161.27712,458.0926335999999 161.27712,458.2330335999999 161.27712C460.7602335999999 161.41752,462.2484735999999 163.07424,462.2484735999999 165.15216C462.2484735999999 166.16304,461.9115135999999 167.31432,461.0691135999999 168.40944C459.4685535999999 170.5716,456.85711359999993 171.75096,454.5826335999999 171.75096C452.81359359999993 171.75096,451.2972735999999 171.04896,450.5671935999999 169.61688C450.3425535999999 169.05528,450.2302335999999 168.52176,450.2302335999999 167.93208C450.2302335999999 164.87136,453.65599359999993 161.47368,457.5871935999999 161.27712"></path></g></g><g class="vf-modifiers"></g></g><g class="vf-stavenote" id="vf-auto3032099"><g class="vf-note" pointer-events="bounding-box"><g class="vf-stem" pointer-events="bounding-box"><path stroke-width="1.5" fill="none" stroke="#000000" stroke-dasharray="none" class="vf-stem" id="vf-auto3032099-stem" d="M510.9802335999999 176.5L510.9802335999999 211.5"></path></g><g class="vf-notehead" pointer-events="bounding-box"><path stroke-width="0.3" fill="#000000" stroke="none" stroke-dasharray="none" d="M510.2302335999999 176.5M517.5871935999999 171.27712C517.6995135999999 171.27712,517.8679935999999 171.27712,517.8960735999999 171.27712C517.8960735999999 171.27712,517.9241536 171.27712,517.9241536 171.27712C517.9241536 171.27712,518.0926335999999 171.27712,518.2330335999999 171.27712C520.7602335999999 171.41752,522.2484735999999 173.07424,522.2484735999999 175.15216C522.2484735999999 176.16304,521.9115135999999 177.31432,521.0691135999999 178.40944C519.4685536 180.5716,516.8571135999999 181.75096,514.5826335999999 181.75096C512.8135935999999 181.75096,511.2972735999999 181.04896,510.5671935999999 179.61688C510.3425535999999 179.05528,510.2302335999999 178.52176,510.2302335999999 177.93208C510.2302335999999 174.87136,513.6559935999999 171.47368,517.5871935999999 171.27712"></path></g></g><g class="vf-modifiers"></g></g><path stroke-width="1" fill="none" stroke="#000000" stroke-dasharray="none" d="M538.4804671999998 166.5L725.3307007999997 166.5"></path><path stroke-width="1" fill="none" stroke="#000000" stroke-dasharray="none" d="M538.4804671999998 176.5L725.3307007999997 176.5"></path><path stroke-width="1" fill="none" stroke="#000000" stroke-dasharray="none" d="M538.4804671999998 186.5L725.3307007999997 186.5"></path><path stroke-width="1" fill="none" stroke="#000000" stroke-dasharray="none" d="M538.4804671999998 196.5L725.3307007999997 196.5"></path><path stroke-width="1" fill="none" stroke="#000000" stroke-dasharray="none" d="M538.4804671999998 206.5L725.3307007999997 206.5"></path><rect stroke-width="0.3" fill="#000000" stroke="#000000" stroke-dasharray="none" x="725.3307007999997" y="166" width="1" height="41"></rect><g class="vf-stavenote" id="vf-auto3032139"><g class="vf-note" pointer-events="bounding-box"><g class="vf-stem" pointer-events="bounding-box"><path stroke-width="1.5" fill="none" stroke="#000000" stroke-dasharray="none" class="vf-stem" id="vf-auto3032139-stem" d="M556.2304671999998 166.5L556.2304671999998 201.5"></path></g><g class="vf-notehead" pointer-events="bounding-box"><path stroke-width="0.3" fill="#000000" stroke="none" stroke-dasharray="none" d="M555.4804671999998 166.5M562.8374271999998 161.27712C562.9497471999998 161.27712,563.1182271999998 161.27712,563.1463071999998 161.27712C563.1463071999998 161.27712,563.1743871999998 161.27712,563.1743871999998 161.27712C563.1743871999998 161.27712,563.3428671999998 161.27712,563.4832671999998 161.27712C566.0104671999998 161.41752,567.4987071999998 163.07424,567.4987071999998 165.15216C567.4987071999998 166.16304,567.1617471999998 167.31432,566.3193471999998 168.40944C564.7187871999998 170.5716,562.1073471999998 171.75096,559.8328671999998 171.75096C558.0638271999998 171.75096,556.5475071999998 171.04896,555.8174271999998 169.61688C555.5927871999997 169.05528,555.4804671999998 168.52176,555.4804671999998 167.93208C555.4804671999998 164.87136,558.9062271999998 161.47368,562.8374271999998 161.27712"></path></g></g><g class="vf-modifiers"></g></g><path stroke-width="1" fill="none" stroke="#000000" stroke-dasharray="none" d="M725.3307007999999 166.5L926.3809343999999 166.5"></path><path stroke-width="1" fill="none" stroke="#000000" stroke-dasharray="none" d="M725.3307007999999 176.5L926.3809343999999 176.5"></path><path stroke-width="1" fill="none" stroke="#000000" stroke-dasharray="none" d="M725.3307007999999 186.5L926.3809343999999 186.5"></path><path stroke-width="1" fill="none" stroke="#000000" stroke-dasharray="none" d="M725.3307007999999 196.5L926.3809343999999 196.5"></path><path stroke-width="1" fill="none" stroke="#000000" stroke-dasharray="none" d="M725.3307007999999 206.5L926.3809343999999 206.5"></path><rect stroke-width="0.3" fill="#000000" stroke="#000000" stroke-dasharray="none" x="921.3809343999999" y="166" width="1" height="41"></rect><rect stroke-width="0.3" fill="#000000" stroke="#000000" stroke-dasharray="none" x="924.3809343999999" y="166" width="3" height="41"></rect><path stroke-width="0.3" fill="#000000" stroke="none" stroke-dasharray="none" d="M920.3809343999999 182 A2 2 0 0 0 916.3809343999999 182M916.3809343999999 182 A2 2 0 0 0 920.3809343999999 182"></path><path stroke-width="0.3" fill="#000000" stroke="none" stroke-dasharray="none" d="M920.3809343999999 192 A2 2 0 0 0 916.3809343999999 192M916.3809343999999 192 A2 2 0 0 0 920.3809343999999 192"></path><g class="vf-stavenote" id="vf-auto3032192"><g class="vf-note" pointer-events="bounding-box"><g class="vf-stem" pointer-events="bounding-box"><path stroke-width="1.5" fill="none" stroke="#000000" stroke-dasharray="none" class="vf-stem" id="vf-auto3032192-stem" d="M743.0807007999999 181.5L743.0807007999999 216.5"></path></g><g class="vf-notehead" pointer-events="bounding-box"><path stroke-width="0.3" fill="#000000" stroke="none" stroke-dasharray="none" d="M742.3307007999999 181.5M749.6876607999999 176.27712C749.7999808 176.27712,749.9684607999999 176.27712,749.9965407999999 176.27712C749.9965407999999 176.27712,750.0246208 176.27712,750.0246208 176.27712C750.0246208 176.27712,750.1931007999999 176.27712,750.3335007999999 176.27712C752.8607007999999 176.41752,754.3489407999999 178.07424,754.3489407999999 180.15216C754.3489407999999 181.16304,754.0119808 182.31432,753.1695808 183.40944C751.5690208 185.5716,748.9575808 186.75096,746.6831007999999 186.75096C744.9140607999999 186.75096,743.3977408 186.04896,742.6676607999999 184.61688C742.4430207999999 184.05528,742.3307007999999 183.52176,742.3307007999999 182.93208C742.3307007999999 179.87136,745.7564607999999 176.47368,749.6876607999999 176.27712"></path></g></g><g class="vf-modifiers"></g></g><g class="vf-stavenote" id="vf-auto3032200"><g class="vf-note" pointer-events="bounding-box"><g class="vf-stem" pointer-events="bounding-box"><path stroke-width="1.5" fill="none" stroke="#000000" stroke-dasharray="none" class="vf-stem" id="vf-auto3032200-stem" d="M784.5989407999999 201.5L784.5989407999999 166.5"></path></g><g class="vf-notehead" pointer-events="bounding-box"><path stroke-width="0.3" fill="#000000" stroke="none" stroke-dasharray="none" d="M773.3307007999999 201.5M780.6876607999999 196.27712C780.7999808 196.27712,780.9684607999999 196.27712,780.9965407999999 196.27712C780.9965407999999 196.27712,781.0246208 196.27712,781.0246208 196.27712C781.0246208 196.27712,781.1931007999999 196.27712,781.3335007999999 196.27712C783.8607007999999 196.41752,785.3489407999999 198.07424,785.3489407999999 200.15216C785.3489407999999 201.16304,785.0119808 202.31432,784.1695808 203.40944C782.5690208 205.5716,779.9575808 206.75096,777.6831007999999 206.75096C775.9140607999999 206.75096,774.3977408 206.04896,773.6676607999999 204.61688C773.4430207999999 204.05528,773.3307007999999 203.52176,773.3307007999999 202.93208C773.3307007999999 199.87136,776.7564607999999 196.47368,780.6876607999999 196.27712"></path></g></g><g class="vf-modifiers"></g></g><g class="vf-text"><text stroke-width="0.3" fill="#000000" stroke="none" stroke-dasharray="none" font-family="Times New Roman" font-size="23px" font-weight="bold" font-style="italic" x="132.68912" y="243.3">mp</text></g><path stroke-width="1" fill="none" stroke="#000000" stroke-dasharray="none" d="M70 267.1L343.2302335999999 267.1"></path><path stroke-width="1" fill="none" stroke="#000000" stroke-dasharray="none" d="M70 277.1L343.2302335999999 277.1"></path><path stroke-width="1" fill="none" stroke="#000000" stroke-dasharray="none" d="M70 287.1L343.2302335999999 287.1"></path><path stroke-width="1" fill="none" stroke="#000000" stroke-dasharray="none" d="M70 297.1L343.2302335999999 297.1"></path><path stroke-width="1" fill="none" stroke="#000000" stroke-dasharray="none" d="M70 307.1L343.2302335999999 307.1"></path><rect stroke-width="0.3" fill="#000000" stroke="#000000" stroke-dasharray="none" x="343.2302335999999" y="266.6" width="1" height="41"></rect><g class="vf-clef"><path stroke-width="0.3" fill="#000000" stroke="none" stroke-dasharray="none" d="M75 277.1M83.8416 267.0488C84.072 266.99120000000005,84.3024 266.99120000000005,84.5616 266.99120000000005C85.5696 266.99120000000005,86.7504 267.1064,87.7584 267.30800000000005C92.4816 268.28720000000004,95.736 271.48400000000004,96.3408 275.74640000000005C96.3984 276.2072,96.4272 276.6392,96.4272 277.1C96.4272 279.692,95.5344 283.0328,94.008 285.82640000000004C90.3792 292.3928,83.7552 297.11600000000004,75.8064 298.84400000000005C75.6624 298.84400000000005,75.5472 298.87280000000004,75.4032 298.87280000000004C75.1152 298.87280000000004,74.9712 298.70000000000005,74.9712 298.4408C74.9712 298.1528,75.0288 298.06640000000004,75.6048 297.836C84.7056 294.40880000000004,90.7824 287.0072,91.3296 278.7128C91.3584 278.2808,91.3584 277.7912,91.3584 277.4168C91.3584 273.38480000000004,90.12 270.38960000000003,87.7296 268.892C86.6928 268.2296,85.5696 267.9128,84.36 267.9128C81.6816 267.9128,78.9456 269.4392,77.6784 272.0024C77.6208 272.204,77.4192 272.636,77.4192 272.6648C77.4192 272.6648,77.4192 272.6648,77.4192 272.6648C77.4192 272.6648,77.448 272.636,77.5344 272.60720000000003C78.168 272.204,78.8592 272.0024,79.5792 272.0024C80.5872 272.0024,81.6528 272.43440000000004,82.4016 273.24080000000004C83.0928 273.9896,83.4672 274.99760000000003,83.4672 275.91920000000005C83.4672 277.7912,82.0848 279.692,79.9248 279.89360000000005C79.7808 279.89360000000005,79.6368 279.92240000000004,79.4928 279.92240000000004C77.1024 279.92240000000004,75.1728 277.7336,75.1728 274.96880000000004C75.1728 274.9112,75.1728 274.82480000000004,75.1728 274.79600000000005C75.288 270.67760000000004,79.0608 267.30800000000005,83.8416 267.0488M99.1632 270.908C99.2208 270.8792,99.2496 270.8792,99.336 270.8792C99.5376 270.8792,99.768 270.908,99.8256 270.9656C100.54560000000001 271.16720000000004,100.8912 271.80080000000004,100.8912 272.40560000000005C100.8912 272.92400000000004,100.632 273.4424,100.11359999999999 273.73040000000003C99.912 273.87440000000004,99.6528 273.9032,99.39359999999999 273.9032C98.9904 273.9032,98.5584 273.73040000000003,98.2704 273.356C98.03999999999999 273.06800000000004,97.9248 272.75120000000004,97.9248 272.43440000000004C97.9248 271.7144,98.3856 270.99440000000004,99.1632 270.908M99.1632 280.3256C99.2208 280.3256,99.2496 280.3256,99.336 280.3256C99.5376 280.3256,99.768 280.3544,99.8256 280.41200000000003C100.54560000000001 280.6136,100.8912 281.2472,100.8912 281.85200000000003C100.8912 282.3704,100.632 282.8888,100.11359999999999 283.148C99.912 283.29200000000003,99.6528 283.3496,99.39359999999999 283.3496C98.9904 283.3496,98.5584 283.148,98.2704 282.80240000000003C98.03999999999999 282.5144,97.9248 282.1976,97.9248 281.85200000000003C97.9248 281.132,98.3856 280.4408,99.1632 280.3256"></path></g><path stroke-width="0.3" fill="#000000" stroke="none" stroke-dasharray="none" d="M116 287.1M123.344 268.43760000000003C123.4592 268.43760000000003,123.6608 268.43760000000003,123.8912 268.43760000000003C124.2944 268.43760000000003,124.8416 268.43760000000003,125.0432 268.4952C126.7712 268.75440000000003,128.6144 269.99280000000005,128.96 271.11600000000004C129.0464 271.3752,129.0752 271.60560000000004,129.0752 271.836C129.0752 273.132,127.9808 274.1112,126.8 274.1112C126.3392 274.1112,125.8784 273.99600000000004,125.4464 273.65040000000005C124.928 273.18960000000004,124.64 272.6136,124.64 271.95120000000003C124.64 271.0584,125.1872 270.1368,126.13759999999999 269.87760000000003C126.224 269.87760000000003,126.25280000000001 269.84880000000004,126.25280000000001 269.84880000000004C126.25280000000001 269.84880000000004,126.224 269.7912,126.13759999999999 269.7624C125.504 269.4744,124.8704 269.35920000000004,124.2944 269.35920000000004C123.4016 269.35920000000004,122.624 269.67600000000004,122.048 270.2808C121.4432 271.0008,121.0112 272.4696,120.7232 274.62960000000004C120.6944 275.148,120.608 276.1272,120.608 276.3288C120.608 276.3288,120.608 276.3288,120.608 276.3288C120.608 276.3288,120.608 276.3288,120.608 276.3288C120.608 276.3288,120.7232 276.2712,120.83840000000001 276.24240000000003C121.76 275.86800000000005,122.5664 275.72400000000005,123.4304 275.72400000000005C124.4672 275.72400000000005,125.4464 275.9544,126.5408 276.53040000000004C128.5568 277.50960000000003,129.68 278.94960000000003,129.68 280.67760000000004C129.68 280.908,129.6224 281.16720000000004,129.5936 281.4264C129.3056 283.03920000000005,128.0672 284.36400000000003,126.0512 285.228C125.1296 285.63120000000004,124.2944 285.8616,123.4592 285.8616C122.624 285.8616,121.76 285.60240000000005,120.8096 285.11280000000005C118.304 283.84560000000005,116.576 281.48400000000004,116.1152 278.74800000000005C116.0288 278.2008,116 277.65360000000004,116 277.0488C116 275.8392,116.1728 274.62960000000004,116.576 273.65040000000005C117.6704 270.8856,120.464 268.75440000000003,123.344 268.43760000000003M123.74719999999999 276.6456C123.632 276.6456,123.5168 276.6456,123.4016 276.6456C122.7968 276.6456,122.336 276.84720000000004,122.048 277.16400000000004C121.6448 277.7688,121.35679999999999 279.26640000000003,121.35679999999999 280.5912C121.35679999999999 280.8792,121.35679999999999 281.16720000000004,121.3856 281.3976C121.5008 282.75120000000004,121.8176 283.87440000000004,122.1344 284.36400000000003C122.3648 284.7096,122.8544 284.9112,123.4016 284.9112C123.5168 284.9112,123.6608 284.9112,123.776 284.8824C124.6112 284.7672,124.928 284.2488,125.2448 282.60720000000003C125.3888 281.8296,125.4752 281.16720000000004,125.4752 280.50480000000005C125.4752 279.8424,125.3888 279.2088,125.2448 278.43120000000005C124.9568 277.2504,124.5824 276.7608,123.74719999999999 276.6456M122.7968 287.1288L122.8544 287.1288L122.768 287.1288L122.7968 287.1288M122.7968 267.7176L122.8544 267.7176L122.768 267.7176L122.7968 267.7176"></path><path stroke-width="0.3" fill="#000000" stroke="none" stroke-dasharray="none" d="M116.1008 307.1M121.11200000000001 288.75440000000003C121.14080000000001 288.72560000000004,121.54400000000001 288.72560000000004,122.78240000000001 288.72560000000004C123.1568 288.72560000000004,123.56 288.72560000000004,124.0784 288.72560000000004L126.9872 288.72560000000004L127.0736 288.812C127.2176 288.89840000000004,127.304 289.04240000000004,127.304 289.1576C127.304 289.3304,127.2176 289.4456,127.1024 289.56080000000003C127.0736 289.6472,126.8144 289.87760000000003,126.64160000000001 290.1368L125.1152 291.89360000000005L123.1568 294.1112L122.12 295.29200000000003L120.5648 297.0776L118.52000000000001 299.41040000000004C118.1744 299.8424,117.80000000000001 300.18800000000005,117.80000000000001 300.18800000000005C117.80000000000001 300.18800000000005,117.80000000000001 300.18800000000005,117.80000000000001 300.18800000000005C117.80000000000001 300.2456,118.0592 300.2456,120.4496 300.2456L123.0704 300.2456L123.0704 298.3736C123.0704 296.4728,123.0704 296.444,123.09920000000001 296.4152C123.1568 296.3288,123.41600000000001 296.012,124.424 294.8312L124.8272 294.3992L125.2304 293.96720000000005L125.8352 293.18960000000004L126.4688 292.52720000000005L126.7856 292.124C126.9008 291.95120000000003,127.0736 291.92240000000004,127.2176 291.92240000000004C127.3904 291.92240000000004,127.5344 292.0088,127.6208 292.1528C127.6496 292.23920000000004,127.6496 292.2968,127.6496 294.428C127.6496 294.91760000000005,127.6496 295.5224,127.6496 296.24240000000003L127.6496 300.2456L128.3696 300.2456C129.032 300.2456,129.0608 300.2456,129.1472 300.2744C129.3776 300.36080000000004,129.49280000000002 300.5912,129.49280000000002 300.85040000000004C129.49280000000002 300.99440000000004,129.464 301.16720000000004,129.3488 301.2824C129.17600000000002 301.4264,129.1472 301.4264,128.3696 301.4264L127.6496 301.4264L127.6496 301.916C127.67840000000001 303.38480000000004,127.96640000000001 303.9608,129.08960000000002 304.5656C129.49280000000002 304.7672,129.57920000000001 304.82480000000004,129.57920000000001 305.11280000000005C129.57920000000001 305.31440000000003,129.5216 305.4008,129.3776 305.516L129.2912 305.5448L125.3456 305.5448L121.42880000000001 305.5448L121.34240000000001 305.516C121.1696 305.4008,121.14080000000001 305.31440000000003,121.14080000000001 305.11280000000005C121.14080000000001 304.82480000000004,121.1696 304.7672,121.6016 304.5656C122.7248 303.9608,123.01280000000001 303.38480000000004,123.01280000000001 301.916L123.01280000000001 301.4264L119.7008 301.4264C119.096 301.48400000000004,118.60640000000001 301.48400000000004,118.20320000000001 301.48400000000004C116.3888 301.48400000000004,116.36000000000001 301.4264,116.33120000000001 301.4264C116.1584 301.3688,116.1008 301.196,116.1008 300.99440000000004C116.1008 300.99440000000004,116.1008 300.99440000000004,116.1008 300.99440000000004C116.1008 300.7928,116.1008 300.7928,116.6768 300.1304C119.096 297.19280000000003,120.79520000000001 292.9304,120.79520000000001 289.53200000000004C120.79520000000001 289.0136,120.8816 288.8408,121.11200000000001 288.75440000000003M122.84 307.1288L122.86880000000001 307.1288L122.78240000000001 307.1288L122.84 307.1288M122.84 287.7176L122.86880000000001 287.7176L122.78240000000001 287.7176L122.84 287.7176"></path><g class="vf-stavenote" id="vf-auto3032048"><g class="vf-note" pointer-events="bounding-box"><g class="vf-stem" pointer-events="bounding-box"><path stroke-width="1.5" fill="none" stroke="#000000" stroke-dasharray="none" class="vf-stem" id="vf-auto3032048-stem" d="M186.83490666666665 292.1L186.83490666666665 257.1"></path></g><g class="vf-notehead" pointer-events="bounding-box"><path stroke-width="0.3" fill="#000000" stroke="none" stroke-dasharray="none" d="M175.56666666666666 292.1M182.92362666666665 286.87712000000005C183.03594666666666 286.87712000000005,183.20442666666668 286.87712000000005,183.23250666666667 286.87712000000005C183.23250666666667 286.87712000000005,183.26058666666665 286.87712000000005,183.26058666666665 286.87712000000005C183.26058666666665 286.87712000000005,183.42906666666667 286.87712000000005,183.56946666666667 286.87712000000005C186.09666666666666 287.01752000000005,187.58490666666665 288.67424,187.58490666666665 290.75216C187.58490666666665 291.76304000000005,187.24794666666668 292.91432000000003,186.40554666666665 294.00944000000004C184.80498666666665 296.1716,182.19354666666666 297.35096000000004,179.91906666666665 297.35096000000004C178.15002666666666 297.35096000000004,176.63370666666665 296.64896000000005,175.90362666666667 295.21688C175.67898666666667 294.65528,175.56666666666666 294.12176,175.56666666666666 293.53208C175.56666666666666 290.47136,178.99242666666666 287.07368,182.92362666666665 286.87712000000005"></path></g></g><g class="vf-modifiers"></g></g><g class="vf-stavenote" id="vf-auto3032056"><g class="vf-note" pointer-events="bounding-box"><g class="vf-stem" pointer-events="bounding-box"><path stroke-width="1.5" fill="none" stroke="#000000" stroke-dasharray="none" class="vf-stem" id="vf-auto3032056-stem" d="M220.72157333333334 297.1L220.72157333333334 262.1"></path></g><g class="vf-notehead" pointer-events="bounding-box"><path stroke-width="0.3" fill="#000000" stroke="none" stroke-dasharray="none" d="M209.45333333333335 297.1M216.81029333333333 291.87712000000005C216.92261333333335 291.87712000000005,217.09109333333333 291.87712000000005,217.11917333333335 291.87712000000005C217.11917333333335 291.87712000000005,217.14725333333334 291.87712000000005,217.14725333333334 291.87712000000005C217.14725333333334 291.87712000000005,217.31573333333336 291.87712000000005,217.45613333333336 291.87712000000005C219.98333333333335 292.01752000000005,221.47157333333334 293.67424,221.47157333333334 295.75216C221.47157333333334 296.76304000000005,221.13461333333333 297.91432000000003,220.29221333333334 299.00944000000004C218.69165333333333 301.1716,216.08021333333335 302.35096000000004,213.80573333333334 302.35096000000004C212.03669333333335 302.35096000000004,210.52037333333334 301.64896000000005,209.79029333333335 300.21688C209.56565333333336 299.65528,209.45333333333335 299.12176,209.45333333333335 298.53208C209.45333333333335 295.47136,212.87909333333334 292.07368,216.81029333333333 291.87712000000005"></path></g></g><g class="vf-modifiers"></g></g><g class="vf-stavenote" id="vf-auto3032064"><g class="vf-note" pointer-events="bounding-box"><g class="vf-stem" pointer-events="bounding-box"><path stroke-width="1.5" fill="none" stroke="#000000" stroke-dasharray="none" class="vf-stem" id="vf-auto3032064-stem" d="M244.09 282.1L244.09 317.1"></path></g><g class="vf-notehead" pointer-events="bounding-box"><path stroke-width="0.3" fill="#000000" stroke="none" stroke-dasharray="none" d="M243.34 282.1M250.69696 276.87712000000005C250.80928 276.87712000000005,250.97776 276.87712000000005,251.00584 276.87712000000005C251.00584 276.87712000000005,251.03392 276.87712000000005,251.03392 276.87712000000005C251.03392 276.87712000000005,251.2024 276.87712000000005,251.3428 276.87712000000005C253.87 277.01752000000005,255.35824 278.67424,255.35824 280.75216C255.35824 281.76304000000005,255.02128 282.91432000000003,254.17888 284.00944000000004C252.57832 286.1716,249.96688 287.35096000000004,247.6924 287.35096000000004C245.92336 287.35096000000004,244.40704 286.64896000000005,243.67696 285.21688C243.45232000000001 284.65528,243.34 284.12176,243.34 283.53208C243.34 280.47136,246.76576 277.07368,250.69696 276.87712000000005"></path></g></g><g class="vf-modifiers"></g></g><g class="vf-stavenote" id="vf-auto3032072"><g class="vf-note" pointer-events="bounding-box"><g class="vf-stem" pointer-events="bounding-box"><path stroke-width="1.5" fill="none" stroke="#000000" stroke-dasharray="none" class="vf-stem" id="vf-auto3032072-stem" d="M277.9766666666667 262.1L277.9766666666667 297.1"></path></g><g class="vf-notehead" pointer-events="bounding-box"><path stroke-width="0.3" fill="#000000" stroke="none" stroke-dasharray="none" d="M277.2266666666667 262.1M284.5836266666667 256.87712000000005C284.6959466666667 256.87712000000005,284.8644266666667 256.87712000000005,284.8925066666667 256.87712000000005C284.8925066666667 256.87712000000005,284.9205866666667 256.87712000000005,284.9205866666667 256.87712000000005C284.9205866666667 256.87712000000005,285.08906666666667 256.87712000000005,285.22946666666667 256.87712000000005C287.75666666666666 257.01752000000005,289.2449066666667 258.67424,289.2449066666667 260.75216C289.2449066666667 261.76304000000005,288.9079466666667 262.91432000000003,288.0655466666667 264.00944000000004C286.4649866666667 266.1716,283.8535466666667 267.35096000000004,281.5790666666667 267.35096000000004C279.8100266666667 267.35096000000004,278.2937066666667 266.64896000000005,277.56362666666666 265.21688C277.3389866666667 264.65528,277.2266666666667 264.12176,277.2266666666667 263.53208C277.2266666666667 260.47136,280.6524266666667 257.07368,284.5836266666667 256.87712000000005"></path></g></g><g class="vf-modifiers"></g></g><rect stroke-width="0.3" fill="#000000" stroke="#000000" stroke-dasharray="none" x="343.2302335999999" y="166.5" width="1" height="141.60000000000002"></rect><rect stroke-width="0.3" fill="#000000" stroke="#000000" stroke-dasharray="none" x="70" y="166.5" width="1" height="141.60000000000002"></rect><path stroke-width="1" fill="none" stroke="#000000" stroke-dasharray="none" d="M343.2302335999999 267.1L538.4804671999998 267.1"></path><path stroke-width="1" fill="none" stroke="#000000" stroke-dasharray="none" d="M343.2302335999999 277.1L538.4804671999998 277.1"></path><path stroke-width="1" fill="none" stroke="#000000" stroke-dasharray="none" d="M343.2302335999999 287.1L538.4804671999998 287.1"></path><path stroke-width="1" fill="none" stroke="#000000" stroke-dasharray="none" d="M343.2302335999999 297.1L538.4804671999998 297.1"></path><path stroke-width="1" fill="none" stroke="#000000" stroke-dasharray="none" d="M343.2302335999999 307.1L538.4804671999998 307.1"></path><rect stroke-width="0.3" fill="#000000" stroke="#000000" stroke-dasharray="none" x="538.4804671999998" y="266.6" width="1" height="41"></rect><path stroke-width="1" fill="none" stroke="#000000" stroke-dasharray="none" d="M357.2302335999999 257.1L375.2484735999999 257.1"></path><g class="vf-stavenote" id="vf-auto3032111"><g class="vf-note" pointer-events="bounding-box"><g class="vf-stem" pointer-events="bounding-box"><path stroke-width="1.5" fill="none" stroke="#000000" stroke-dasharray="none" class="vf-stem" id="vf-auto3032111-stem" d="M360.9802335999999 257.1L360.9802335999999 292.1"></path></g><g class="vf-notehead" pointer-events="bounding-box"><path stroke-width="0.3" fill="#000000" stroke="none" stroke-dasharray="none" d="M360.2302335999999 257.1M367.5871935999999 251.87712000000002C367.69951359999993 251.87712000000002,367.8679935999999 251.87712000000002,367.8960735999999 251.87712000000002C367.8960735999999 251.87712000000002,367.9241535999999 251.87712000000002,367.9241535999999 251.87712000000002C367.9241535999999 251.87712000000002,368.0926335999999 251.87712000000002,368.2330335999999 251.87712000000002C370.7602335999999 252.01752000000002,372.2484735999999 253.67424000000003,372.2484735999999 255.75216000000003C372.2484735999999 256.76304000000005,371.9115135999999 257.91432000000003,371.0691135999999 259.00944000000004C369.4685535999999 261.1716,366.85711359999993 262.35096000000004,364.5826335999999 262.35096000000004C362.81359359999993 262.35096000000004,361.2972735999999 261.64896000000005,360.5671935999999 260.21688C360.3425535999999 259.65528,360.2302335999999 259.12176,360.2302335999999 258.53208C360.2302335999999 255.47136000000003,363.65599359999993 252.07368000000002,367.5871935999999 251.87712000000002"></path></g></g><g class="vf-modifiers"></g></g><g class="vf-stavenote" id="vf-auto3032119"><g class="vf-note" pointer-events="bounding-box"><g class="vf-stem" pointer-events="bounding-box"><path stroke-width="1.5" fill="none" stroke="#000000" stroke-dasharray="none" class="vf-stem" id="vf-auto3032119-stem" d="M431.4984735999999 287.1L431.4984735999999 252.10000000000002"></path></g><g class="vf-notehead" pointer-events="bounding-box"><path stroke-width="0.3" fill="#000000" stroke="none" stroke-dasharray="none" d="M420.2302335999999 287.1M427.5871935999999 281.87712000000005C427.69951359999993 281.87712000000005,427.8679935999999 281.87712000000005,427.8960735999999 281.87712000000005C427.8960735999999 281.87712000000005,427.9241535999999 281.87712000000005,427.9241535999999 281.87712000000005C427.9241535999999 281.87712000000005,428.0926335999999 281.87712000000005,428.2330335999999 281.87712000000005C430.7602335999999 282.01752000000005,432.2484735999999 283.67424,432.2484735999999 285.75216C432.2484735999999 286.76304000000005,431.9115135999999 287.91432000000003,431.0691135999999 289.00944000000004C429.4685535999999 291.1716,426.85711359999993 292.35096000000004,424.5826335999999 292.35096000000004C422.81359359999993 292.35096000000004,421.2972735999999 291.64896000000005,420.5671935999999 290.21688C420.3425535999999 289.65528,420.2302335999999 289.12176,420.2302335999999 288.53208C420.2302335999999 285.47136,423.65599359999993 282.07368,427.5871935999999 281.87712000000005"></path></g></g><g class="vf-modifiers"></g></g><g class="vf-stavenote" id="vf-auto3032127"><g class="vf-note" pointer-events="bounding-box"><g class="vf-stem" pointer-events="bounding-box"><path stroke-width="1.5" fill="none" stroke="#000000" stroke-dasharray="none" class="vf-stem" id="vf-auto3032127-stem" d="M491.4984735999999 302.1L491.4984735999999 267.1"></path></g><g class="vf-notehead" pointer-events="bounding-box"><path stroke-width="0.3" fill="#000000" stroke="none" stroke-dasharray="none" d="M480.2302335999999 302.1M487.5871935999999 296.87712000000005C487.69951359999993 296.87712000000005,487.8679935999999 296.87712000000005,487.8960735999999 296.87712000000005C487.8960735999999 296.87712000000005,487.9241535999999 296.87712000000005,487.9241535999999 296.87712000000005C487.9241535999999 296.87712000000005,488.0926335999999 296.87712000000005,488.2330335999999 296.87712000000005C490.7602335999999 297.01752000000005,492.2484735999999 298.67424,492.2484735999999 300.75216C492.2484735999999 301.76304000000005,491.9115135999999 302.91432000000003,491.0691135999999 304.00944000000004C489.4685535999999 306.1716,486.85711359999993 307.35096000000004,484.5826335999999 307.35096000000004C482.81359359999993 307.35096000000004,481.2972735999999 306.64896000000005,480.5671935999999 305.21688C480.3425535999999 304.65528,480.2302335999999 304.12176,480.2302335999999 303.53208C480.2302335999999 300.47136,483.65599359999993 297.07368,487.5871935999999 296.87712000000005"></path></g></g><g class="vf-modifiers"></g></g><rect stroke-width="0.3" fill="#000000" stroke="#000000" stroke-dasharray="none" x="538.4804671999998" y="166.5" width="1" height="141.60000000000002"></rect><path stroke-width="1" fill="none" stroke="#000000" stroke-dasharray="none" d="M538.4804671999998 267.1L725.3307007999997 267.1"></path><path stroke-width="1" fill="none" stroke="#000000" stroke-dasharray="none" d="M538.4804671999998 277.1L725.3307007999997 277.1"></path><path stroke-width="1" fill="none" stroke="#000000" stroke-dasharray="none" d="M538.4804671999998 287.1L725.3307007999997 287.1"></path><path stroke-width="1" fill="none" stroke="#000000" stroke-dasharray="none" d="M538.4804671999998 297.1L725.3307007999997 297.1"></path><path stroke-width="1" fill="none" stroke="#000000" stroke-dasharray="none" d="M538.4804671999998 307.1L725.3307007999997 307.1"></path><rect stroke-width="0.3" fill="#000000" stroke="#000000" stroke-dasharray="none" x="725.3307007999997" y="266.6" width="1" height="41"></rect><g class="vf-stavenote" id="vf-auto3032150"><g class="vf-note" pointer-events="bounding-box"><g class="vf-stem" pointer-events="bounding-box"><path stroke-width="1.5" fill="none" stroke="#000000" stroke-dasharray="none" class="vf-stem" id="vf-auto3032150-stem" d="M584.7304671999998 267.1L584.7304671999998 302.1"></path></g><g class="vf-notehead" pointer-events="bounding-box"><path stroke-width="0.3" fill="#000000" stroke="none" stroke-dasharray="none" d="M583.9804671999998 267.1M591.3374271999998 261.87712000000005C591.4497471999998 261.87712000000005,591.6182271999998 261.87712000000005,591.6463071999998 261.87712000000005C591.6463071999998 261.87712000000005,591.6743871999998 261.87712000000005,591.6743871999998 261.87712000000005C591.6743871999998 261.87712000000005,591.8428671999998 261.87712000000005,591.9832671999998 261.87712000000005C594.5104671999998 262.01752000000005,595.9987071999998 263.67424,595.9987071999998 265.75216C595.9987071999998 266.76304000000005,595.6617471999998 267.91432000000003,594.8193471999998 269.00944000000004C593.2187871999998 271.1716,590.6073471999998 272.35096000000004,588.3328671999998 272.35096000000004C586.5638271999998 272.35096000000004,585.0475071999998 271.64896000000005,584.3174271999998 270.21688C584.0927871999997 269.65528,583.9804671999998 269.12176,583.9804671999998 268.53208C583.9804671999998 265.47136,587.4062271999998 262.07368,591.3374271999998 261.87712000000005"></path></g></g><g class="vf-modifiers"></g></g><path stroke-width="1" fill="none" stroke="#000000" stroke-dasharray="none" d="M609.4804671999998 257.1L627.4987071999998 257.1"></path><g class="vf-stavenote" id="vf-auto3032158"><g class="vf-note" pointer-events="bounding-box"><g class="vf-stem" pointer-events="bounding-box"><path stroke-width="1.5" fill="none" stroke="#000000" stroke-dasharray="none" class="vf-stem" id="vf-auto3032158-stem" d="M613.2304671999998 257.1L613.2304671999998 292.1"></path></g><g class="vf-notehead" pointer-events="bounding-box"><path stroke-width="0.3" fill="#000000" stroke="none" stroke-dasharray="none" d="M612.4804671999998 257.1M619.8374271999998 251.87712000000002C619.9497471999998 251.87712000000002,620.1182271999998 251.87712000000002,620.1463071999998 251.87712000000002C620.1463071999998 251.87712000000002,620.1743871999998 251.87712000000002,620.1743871999998 251.87712000000002C620.1743871999998 251.87712000000002,620.3428671999998 251.87712000000002,620.4832671999998 251.87712000000002C623.0104671999998 252.01752000000002,624.4987071999998 253.67424000000003,624.4987071999998 255.75216000000003C624.4987071999998 256.76304000000005,624.1617471999998 257.91432000000003,623.3193471999998 259.00944000000004C621.7187871999998 261.1716,619.1073471999998 262.35096000000004,616.8328671999998 262.35096000000004C615.0638271999998 262.35096000000004,613.5475071999998 261.64896000000005,612.8174271999998 260.21688C612.5927871999997 259.65528,612.4804671999998 259.12176,612.4804671999998 258.53208C612.4804671999998 255.47136000000003,615.9062271999998 252.07368000000002,619.8374271999998 251.87712000000002"></path></g></g><g class="vf-modifiers"></g></g><g class="vf-stavenote" id="vf-auto3032166"><g class="vf-note" pointer-events="bounding-box"><g class="vf-stem" pointer-events="bounding-box"><path stroke-width="1.5" fill="none" stroke="#000000" stroke-dasharray="none" class="vf-stem" id="vf-auto3032166-stem" d="M641.7304671999998 277.1L641.7304671999998 312.1"></path></g><g class="vf-notehead" pointer-events="bounding-box"><path stroke-width="0.3" fill="#000000" stroke="none" stroke-dasharray="none" d="M640.9804671999998 277.1M648.3374271999998 271.87712000000005C648.4497471999998 271.87712000000005,648.6182271999998 271.87712000000005,648.6463071999998 271.87712000000005C648.6463071999998 271.87712000000005,648.6743871999998 271.87712000000005,648.6743871999998 271.87712000000005C648.6743871999998 271.87712000000005,648.8428671999998 271.87712000000005,648.9832671999998 271.87712000000005C651.5104671999998 272.01752000000005,652.9987071999998 273.67424,652.9987071999998 275.75216C652.9987071999998 276.76304000000005,652.6617471999998 277.91432000000003,651.8193471999998 279.00944000000004C650.2187871999998 281.1716,647.6073471999998 282.35096000000004,645.3328671999998 282.35096000000004C643.5638271999998 282.35096000000004,642.0475071999998 281.64896000000005,641.3174271999998 280.21688C641.0927871999997 279.65528,640.9804671999998 279.12176,640.9804671999998 278.53208C640.9804671999998 275.47136,644.4062271999998 272.07368,648.3374271999998 271.87712000000005"></path></g></g><g class="vf-modifiers"></g></g><g class="vf-stavenote" id="vf-auto3032174"><g class="vf-note" pointer-events="bounding-box"><g class="vf-stem" pointer-events="bounding-box"><path stroke-width="1.5" fill="none" stroke="#000000" stroke-dasharray="none" class="vf-stem" id="vf-auto3032174-stem" d="M670.2304671999998 267.1L670.2304671999998 302.1"></path></g><g class="vf-notehead" pointer-events="bounding-box"><path stroke-width="0.3" fill="#000000" stroke="none" stroke-dasharray="none" d="M669.4804671999998 267.1M676.8374271999998 261.87712000000005C676.9497471999998 261.87712000000005,677.1182271999998 261.87712000000005,677.1463071999998 261.87712000000005C677.1463071999998 261.87712000000005,677.1743871999998 261.87712000000005,677.1743871999998 261.87712000000005C677.1743871999998 261.87712000000005,677.3428671999998 261.87712000000005,677.4832671999998 261.87712000000005C680.0104671999998 262.01752000000005,681.4987071999998 263.67424,681.4987071999998 265.75216C681.4987071999998 266.76304000000005,681.1617471999998 267.91432000000003,680.3193471999998 269.00944000000004C678.7187871999998 271.1716,676.1073471999998 272.35096000000004,673.8328671999998 272.35096000000004C672.0638271999998 272.35096000000004,670.5475071999998 271.64896000000005,669.8174271999998 270.21688C669.5927871999997 269.65528,669.4804671999998 269.12176,669.4804671999998 268.53208C669.4804671999998 265.47136,672.9062271999998 262.07368,676.8374271999998 261.87712000000005"></path></g></g><g class="vf-modifiers"></g></g><g class="vf-stavenote" id="vf-auto3032182"><g class="vf-note" pointer-events="bounding-box"><g class="vf-stem" pointer-events="bounding-box"><path stroke-width="1.5" fill="none" stroke="#000000" stroke-dasharray="none" class="vf-stem" id="vf-auto3032182-stem" d="M698.7304671999998 267.1L698.7304671999998 302.1"></path></g><g class="vf-notehead" pointer-events="bounding-box"><path stroke-width="0.3" fill="#000000" stroke="none" stroke-dasharray="none" d="M697.9804671999998 267.1M705.3374271999998 261.87712000000005C705.4497471999998 261.87712000000005,705.6182271999998 261.87712000000005,705.6463071999998 261.87712000000005C705.6463071999998 261.87712000000005,705.6743871999998 261.87712000000005,705.6743871999998 261.87712000000005C705.6743871999998 261.87712000000005,705.8428671999998 261.87712000000005,705.9832671999998 261.87712000000005C708.5104671999998 262.01752000000005,709.9987071999998 263.67424,709.9987071999998 265.75216C709.9987071999998 266.76304000000005,709.6617471999998 267.91432000000003,708.8193471999998 269.00944000000004C707.2187871999998 271.1716,704.6073471999998 272.35096000000004,702.3328671999998 272.35096000000004C700.5638271999998 272.35096000000004,699.0475071999998 271.64896000000005,698.3174271999998 270.21688C698.0927871999997 269.65528,697.9804671999998 269.12176,697.9804671999998 268.53208C697.9804671999998 265.47136,701.4062271999998 262.07368,705.3374271999998 261.87712000000005"></path></g></g><g class="vf-modifiers"></g></g><rect stroke-width="0.3" fill="#000000" stroke="#000000" stroke-dasharray="none" x="725.3307007999997" y="166.5" width="1" height="141.60000000000002"></rect><path stroke-width="1" fill="none" stroke="#000000" stroke-dasharray="none" d="M725.3307007999999 267.1L926.3809343999999 267.1"></path><path stroke-width="1" fill="none" stroke="#000000" stroke-dasharray="none" d="M725.3307007999999 277.1L926.3809343999999 277.1"></path><path stroke-width="1" fill="none" stroke="#000000" stroke-dasharray="none" d="M725.3307007999999 287.1L926.3809343999999 287.1"></path><path stroke-width="1" fill="none" stroke="#000000" stroke-dasharray="none" d="M725.3307007999999 297.1L926.3809343999999 297.1"></path><path stroke-width="1" fill="none" stroke="#000000" stroke-dasharray="none" d="M725.3307007999999 307.1L926.3809343999999 307.1"></path><rect stroke-width="0.3" fill="#000000" stroke="#000000" stroke-dasharray="none" x="921.3809343999999" y="266.6" width="1" height="41"></rect><rect stroke-width="0.3" fill="#000000" stroke="#000000" stroke-dasharray="none" x="924.3809343999999" y="266.6" width="3" height="41"></rect><path stroke-width="0.3" fill="#000000" stroke="none" stroke-dasharray="none" d="M920.3809343999999 282.6 A2 2 0 0 0 916.3809343999999 282.6M916.3809343999999 282.6 A2 2 0 0 0 920.3809343999999 282.6"></path><path stroke-width="0.3" fill="#000000" stroke="none" stroke-dasharray="none" d="M920.3809343999999 292.6 A2 2 0 0 0 916.3809343999999 292.6M916.3809343999999 292.6 A2 2 0 0 0 920.3809343999999 292.6"></path><path stroke-width="1" fill="none" stroke="#000000" stroke-dasharray="none" d="M801.3307007999999 257.1L819.3489407999999 257.1"></path><g class="vf-stavenote" id="vf-auto3032210"><g class="vf-note" pointer-events="bounding-box"><g class="vf-stem" pointer-events="bounding-box"><path stroke-width="1.5" fill="none" stroke="#000000" stroke-dasharray="none" class="vf-stem" id="vf-auto3032210-stem" d="M805.0807007999999 257.1L805.0807007999999 292.1"></path></g><g class="vf-notehead" pointer-events="bounding-box"><path stroke-width="0.3" fill="#000000" stroke="none" stroke-dasharray="none" d="M804.3307007999999 257.1M811.6876607999999 251.87712000000002C811.7999808 251.87712000000002,811.9684607999999 251.87712000000002,811.9965407999999 251.87712000000002C811.9965407999999 251.87712000000002,812.0246208 251.87712000000002,812.0246208 251.87712000000002C812.0246208 251.87712000000002,812.1931007999999 251.87712000000002,812.3335007999999 251.87712000000002C814.8607007999999 252.01752000000002,816.3489407999999 253.67424000000003,816.3489407999999 255.75216000000003C816.3489407999999 256.76304000000005,816.0119808 257.91432000000003,815.1695808 259.00944000000004C813.5690208 261.1716,810.9575808 262.35096000000004,808.6831007999999 262.35096000000004C806.9140607999999 262.35096000000004,805.3977408 261.64896000000005,804.6676607999999 260.21688C804.4430207999999 259.65528,804.3307007999999 259.12176,804.3307007999999 258.53208C804.3307007999999 255.47136000000003,807.7564607999999 252.07368000000002,811.6876607999999 251.87712000000002"></path></g></g><g class="vf-modifiers"></g></g><g class="vf-stavenote" id="vf-auto3032218"><g class="vf-note" pointer-events="bounding-box"><g class="vf-stem" pointer-events="bounding-box"><path stroke-width="1.5" fill="none" stroke="#000000" stroke-dasharray="none" class="vf-stem" id="vf-auto3032218-stem" d="M846.5989407999999 307.1L846.5989407999999 272.1"></path></g><g class="vf-notehead" pointer-events="bounding-box"><path stroke-width="0.3" fill="#000000" stroke="none" stroke-dasharray="none" d="M835.3307007999999 307.1M842.6876607999999 301.87712000000005C842.7999808 301.87712000000005,842.9684607999999 301.87712000000005,842.9965407999999 301.87712000000005C842.9965407999999 301.87712000000005,843.0246208 301.87712000000005,843.0246208 301.87712000000005C843.0246208 301.87712000000005,843.1931007999999 301.87712000000005,843.3335007999999 301.87712000000005C845.8607007999999 302.01752000000005,847.3489407999999 303.67424,847.3489407999999 305.75216C847.3489407999999 306.76304000000005,847.0119808 307.91432000000003,846.1695808 309.00944000000004C844.5690208 311.1716,841.9575808 312.35096000000004,839.6831007999999 312.35096000000004C837.9140607999999 312.35096000000004,836.3977408 311.64896000000005,835.6676607999999 310.21688C835.4430207999999 309.65528,835.3307007999999 309.12176,835.3307007999999 308.53208C835.3307007999999 305.47136,838.7564607999999 302.07368,842.6876607999999 301.87712000000005"></path></g></g><g class="vf-modifiers"></g></g><g class="vf-stavenote" id="vf-auto3032226"><g class="vf-note" pointer-events="bounding-box"><g class="vf-stem" pointer-events="bounding-box"><path stroke-width="1.5" fill="none" stroke="#000000" stroke-dasharray="none" class="vf-stem" id="vf-auto3032226-stem" d="M877.5989407999999 292.1L877.5989407999999 257.1"></path></g><g class="vf-notehead" pointer-events="bounding-box"><path stroke-width="0.3" fill="#000000" stroke="none" stroke-dasharray="none" d="M866.3307007999999 292.1M873.6876607999999 286.87712000000005C873.7999808 286.87712000000005,873.9684607999999 286.87712000000005,873.9965407999999 286.87712000000005C873.9965407999999 286.87712000000005,874.0246208 286.87712000000005,874.0246208 286.87712000000005C874.0246208 286.87712000000005,874.1931007999999 286.87712000000005,874.3335007999999 286.87712000000005C876.8607007999999 287.01752000000005,878.3489407999999 288.67424,878.3489407999999 290.75216C878.3489407999999 291.76304000000005,878.0119808 292.91432000000003,877.1695808 294.00944000000004C875.5690208 296.1716,872.9575808 297.35096000000004,870.6831007999999 297.35096000000004C868.9140607999999 297.35096000000004,867.3977408 296.64896000000005,866.6676607999999 295.21688C866.4430207999999 294.65528,866.3307007999999 294.12176,866.3307007999999 293.53208C866.3307007999999 290.47136,869.7564607999999 287.07368,873.6876607999999 286.87712000000005"></path></g></g><g class="vf-modifiers"></g></g><g class="vf-stavenote" id="vf-auto3032234"><g class="vf-note" pointer-events="bounding-box"><g class="vf-stem" pointer-events="bounding-box"><path stroke-width="1.5" fill="none" stroke="#000000" stroke-dasharray="none" class="vf-stem" id="vf-auto3032234-stem" d="M908.5989407999999 297.1L908.5989407999999 262.1"></path></g><g class="vf-notehead" pointer-events="bounding-box"><path stroke-width="0.3" fill="#000000" stroke="none" stroke-dasharray="none" d="M897.3307007999999 297.1M904.6876607999999 291.87712000000005C904.7999808 291.87712000000005,904.9684607999999 291.87712000000005,904.9965407999999 291.87712000000005C904.9965407999999 291.87712000000005,905.0246208 291.87712000000005,905.0246208 291.87712000000005C905.0246208 291.87712000000005,905.1931007999999 291.87712000000005,905.3335007999999 291.87712000000005C907.8607007999999 292.01752000000005,909.3489407999999 293.67424,909.3489407999999 295.75216C909.3489407999999 296.76304000000005,909.0119808 297.91432000000003,908.1695808 299.00944000000004C906.5690208 301.1716,903.9575808 302.35096000000004,901.6831007999999 302.35096000000004C899.9140607999999 302.35096000000004,898.3977408 301.64896000000005,897.6676607999999 300.21688C897.4430207999999 299.65528,897.3307007999999 299.12176,897.3307007999999 298.53208C897.3307007999999 295.47136,900.7564607999999 292.07368,904.6876607999999 291.87712000000005"></path></g></g><g class="vf-modifiers"></g></g><rect stroke-width="0.3" fill="#000000" stroke="#000000" stroke-dasharray="none" x="921.3809343999999" y="166.5" width="1" height="141.60000000000002"></rect><rect stroke-width="0.3" fill="#000000" stroke="#000000" stroke-dasharray="none" x="924.3809343999999" y="166.5" width="3" height="141.60000000000002"></rect><path stroke-width="0.3" fill="#000000" stroke="none" stroke-dasharray="none" d="M68 166.5C45.2 194.82,81.2 218.184,56 237.3C81.2 256.416,45.2 279.78000000000003,68 308.1C44 279.78000000000003,72.8 256.416,56 237.3C72.8 218.184,44 194.82,68 166.5"></path><path stroke-width="1" fill="none" stroke="#000000" stroke-dasharray="none" d="M68 166.5C45.2 194.82,81.2 218.184,56 237.3C81.2 256.416,45.2 279.78000000000003,68 308.1C44 279.78000000000003,72.8 256.416,56 237.3C72.8 218.184,44 194.82,68 166.5"></path><g class="vf-text"><text stroke-width="0.3" fill="#000000" stroke="none" stroke-dasharray="none" font-family="Times New Roman" font-size="15px" font-weight="normal" font-style="normal" x="534.9804671999998" y="163.5">3</text></g></svg>