<svg xmlns="http://www.w3.org/2000/svg"  width="1470" height="380.79999999999995" viewBox="0 0 1470 380.79999999999995"><path stroke-width="1" fill="none" stroke="#000000" stroke-dasharray="none" d="M70 166.5L347.43023359999995 166.5"></path><path stroke-width="1" fill="none" stroke="#000000" stroke-dasharray="none" d="M70 176.5L347.43023359999995 176.5"></path><path stroke-width="1" fill="none" stroke="#000000" stroke-dasharray="none" d="M70 186.5L347.43023359999995 186.5"></path><path stroke-width="1" fill="none" stroke="#000000" stroke-dasharray="none" d="M70 196.5L347.43023359999995 196.5"></path><path stroke-width="1" fill="none" stroke="#000000" stroke-dasharray="none" d="M70 206.5L347.43023359999995 206.5"></path><rect stroke-width="0.3" fill="#000000" stroke="#000000" stroke-dasharray="none" x="347.43023359999995" y="166" width="1" height="41"></rect><g class="vf-clef"><path stroke-width="0.3" fill="#000000" stroke="none" stroke-dasharray="none" d="M75 196.5M89.0544 153.3288C89.112 153.3,89.1696 153.3,89.256 153.3C89.6016 153.3,90.0048 153.588,90.5808 154.308C92.9136 156.9864,94.5552 161.652,94.5552 165.4536C94.5552 165.7416,94.4976 165.972,94.4976 166.26C94.2384 170.7816,92.3952 174.4968,88.7376 178.0104L87.7584 178.9608L87.4128 179.3352L87.4128 179.4504L87.6144 180.3144L87.9312 181.8696L88.248 183.3096C88.68 185.268,88.8528 186.276,88.8528 186.276C88.8528 186.276,88.8528 186.276,88.8528 186.276C88.8528 186.276,88.968 186.276,89.112 186.2472C89.256 186.2472,89.7168 186.1896,90.2064 186.1896C90.55199999999999 186.1896,90.8976 186.2472,91.0704 186.2472C95.1312 186.7656,98.2704 189.6744,99.1632 193.764C99.336 194.4264,99.39359999999999 195.1464,99.39359999999999 195.8664C99.39359999999999 199.7544,97.0608 203.4696,93.1728 205.2264C92.94239999999999 205.3704,92.856 205.3992,92.856 205.3992L92.856 205.428C92.856 205.428,93.0288 206.0904,93.1728 206.8392L93.6048 209.028L94.008 210.7848C94.2384 211.908,94.3536 212.7144,94.3536 213.4344C94.3536 214.06799999999998,94.2672 214.644,94.1232 215.3064C93.144 219.3096,89.6592 221.7,86.0304 221.7C84.2448 221.7,82.4016 221.124,80.7888 219.828C79.3488 218.6184,78.7152 217.524,78.7152 216.084C78.7152 213.5496,80.76 211.764,82.8912 211.764C83.64 211.764,84.3888 211.99439999999998,85.1088 212.4264C86.3184 213.2616,86.8656 214.5288,86.8656 215.7672C86.8656 217.668,85.5408 219.54,83.2656 219.684L83.0352 219.684L83.208 219.79919999999998C84.1584 220.2024,85.1088 220.404,86.0304 220.404C88.3632 220.404,90.55199999999999 219.2232,91.8768 217.1784C92.62559999999999 216.0264,93.0288 214.6728,93.0288 213.3192C93.0288 212.8008,92.94239999999999 212.2824,92.8272 211.7064C92.8272 211.6488,92.74080000000001 211.188,92.62559999999999 210.756C91.992 207.6456,91.6176 205.8312,91.6176 205.8312C91.6176 205.8312,91.6176 205.8312,91.6176 205.8312C91.56 205.8312,91.4448 205.8312,91.3584 205.8888C91.0704 205.9464,90.4656 206.0904,90.2064 206.1192C89.5728 206.2056,88.968 206.2344,88.392 206.2344C82.74719999999999 206.2344,77.5056 202.4328,75.6912 196.8168C75.2304 195.3192,74.9712 193.8216,74.9712 192.324C74.9712 189.3288,75.9216 186.3912,77.7648 183.7704C79.7808 180.9192,81.7968 178.4712,84.2736 175.9368L85.13759999999999 175.044L84.936 173.9784L84.5616 172.2216L84.072 169.9752C83.928 169.14,83.7552 168.3336,83.7264 168.1608C83.5824 167.2104,83.496 166.2888,83.496 165.3384C83.496 161.7096,84.6768 158.22480000000002,86.8944 155.4312C87.5568 154.5672,88.7376 153.4152,89.0544 153.3288M90.8112 159.0312C90.7536 159.0312,90.6672 159.0312,90.5808 159.0312C89.4 159.0312,87.8736 160.1256,86.8368 161.7384C85.7712 163.32240000000002,85.224 165.4248,85.224 167.5848C85.224 168.1608,85.25280000000001 168.7656,85.3392 169.3704C85.4256 169.8024,85.45439999999999 170.0904,85.6848 171.12720000000002L86.088 172.9416C86.2032 173.4888,86.28960000000001 173.92079999999999,86.28960000000001 173.9784L86.28960000000001 173.9784C86.3184 173.9784,87.2112 172.9992,87.4992 172.6536C90.3792 169.3992,92.1072 165.972,92.4816 162.948C92.5104 162.66,92.5104 162.4296,92.5104 162.1416C92.5104 161.24880000000002,92.3952 160.38479999999998,92.1936 159.924C91.9632 159.4632,91.4448 159.0888,90.8112 159.0312M86.4624 181.2936C86.4048 180.8904,86.3184 180.5736,86.3184 180.516C86.3184 180.516,86.3184 180.516,86.28960000000001 180.516C86.232 180.516,84.9936 181.956,84.1296 182.964C82.6608 184.7496,81.1056 186.8808,80.472 187.9176C79.2624 189.9624,78.6576 192.2376,78.6576 194.484C78.6576 195.9528,78.9456 197.364,79.464 198.7176C81.0192 202.7208,84.5904 205.2264,88.4784 205.2264C88.9392 205.2264,89.4576 205.1976,89.9472 205.1112C90.5808 204.996,91.3584 204.7656,91.3584 204.6792L91.3584 204.6792C91.3584 204.6792,91.3008 204.3912,91.2144 204.0744L90.3792 199.956L89.7168 196.8744L89.2848 194.7432L88.824 192.6696C88.5936 191.4312,88.5072 191.1144,88.5072 191.1144C88.5072 191.1144,88.5072 191.0856,88.4784 191.0856C88.3056 191.0856,87.384 191.5464,86.9808 191.8344C85.4832 192.8712,84.7056 194.5128,84.7056 196.1256C84.7056 197.652,85.45439999999999 199.1784,86.8944 200.0712C87.2112 200.2728,87.3264 200.4456,87.3264 200.6472C87.3264 200.676,87.3264 200.7624,87.3264 200.7912C87.2688 201.1368,87.0672 201.2808,86.7792 201.2808C86.664 201.2808,86.52 201.252,86.3472 201.1656C83.6976 200.0136,81.912 197.2776,81.912 194.2824L81.912 194.2824C81.912 190.8264,84.072 187.8312,87.384 186.6504L87.5568 186.5928L87.2688 185.1528L86.4624 181.2936M90.7824 190.9128C90.55199999999999 190.88400000000001,90.3216 190.88400000000001,90.1488 190.88400000000001C90.0912 190.88400000000001,90.0048 190.88400000000001,89.9472 190.88400000000001L89.8032 190.88400000000001L89.9184 191.4024L90.5232 194.2248L90.8976 196.068L91.3008 197.8824L92.1072 201.8856L92.424 203.412C92.5392 203.8152,92.5968 204.1608,92.62559999999999 204.1608C92.62559999999999 204.1608,92.62559999999999 204.1608,92.62559999999999 204.1608C92.6544 204.1608,93.144 203.8728,93.4608 203.6424C94.9296 202.6056,96.024 200.9928,96.4272 199.3224C96.5712 198.7752,96.6288 198.1992,96.6288 197.652C96.6288 194.3112,94.152 191.2872,90.7824 190.9128"></path></g><path stroke-width="0.3" fill="#000000" stroke="none" stroke-dasharray="none" d="M116 186.5M123.344 167.8376C123.4592 167.8376,123.6608 167.8376,123.8912 167.8376C124.2944 167.8376,124.8416 167.8376,125.0432 167.8952C126.7712 168.1544,128.6144 169.3928,128.96 170.516C129.0464 170.7752,129.0752 171.00560000000002,129.0752 171.236C129.0752 172.532,127.9808 173.5112,126.8 173.5112C126.3392 173.5112,125.8784 173.39600000000002,125.4464 173.0504C124.928 172.5896,124.64 172.0136,124.64 171.3512C124.64 170.4584,125.1872 169.5368,126.13759999999999 169.2776C126.224 169.2776,126.25280000000001 169.2488,126.25280000000001 169.2488C126.25280000000001 169.2488,126.224 169.1912,126.13759999999999 169.1624C125.504 168.8744,124.8704 168.7592,124.2944 168.7592C123.4016 168.7592,122.624 169.076,122.048 169.6808C121.4432 170.4008,121.0112 171.8696,120.7232 174.0296C120.6944 174.548,120.608 175.5272,120.608 175.7288C120.608 175.7288,120.608 175.7288,120.608 175.7288C120.608 175.7288,120.608 175.7288,120.608 175.7288C120.608 175.7288,120.7232 175.6712,120.83840000000001 175.6424C121.76 175.268,122.5664 175.124,123.4304 175.124C124.4672 175.124,125.4464 175.3544,126.5408 175.9304C128.5568 176.9096,129.68 178.3496,129.68 180.0776C129.68 180.308,129.6224 180.5672,129.5936 180.8264C129.3056 182.4392,128.0672 183.764,126.0512 184.628C125.1296 185.0312,124.2944 185.2616,123.4592 185.2616C122.624 185.2616,121.76 185.0024,120.8096 184.5128C118.304 183.2456,116.576 180.88400000000001,116.1152 178.148C116.0288 177.6008,116 177.0536,116 176.4488C116 175.2392,116.1728 174.0296,116.576 173.0504C117.6704 170.2856,120.464 168.1544,123.344 167.8376M123.74719999999999 176.0456C123.632 176.0456,123.5168 176.0456,123.4016 176.0456C122.7968 176.0456,122.336 176.2472,122.048 176.564C121.6448 177.1688,121.35679999999999 178.6664,121.35679999999999 179.9912C121.35679999999999 180.2792,121.35679999999999 180.5672,121.3856 180.7976C121.5008 182.1512,121.8176 183.2744,122.1344 183.764C122.3648 184.1096,122.8544 184.3112,123.4016 184.3112C123.5168 184.3112,123.6608 184.3112,123.776 184.2824C124.6112 184.1672,124.928 183.6488,125.2448 182.0072C125.3888 181.2296,125.4752 180.5672,125.4752 179.9048C125.4752 179.2424,125.3888 178.6088,125.2448 177.8312C124.9568 176.6504,124.5824 176.1608,123.74719999999999 176.0456M122.7968 186.5288L122.8544 186.5288L122.768 186.5288L122.7968 186.5288M122.7968 167.1176L122.8544 167.1176L122.768 167.1176L122.7968 167.1176"></path><path stroke-width="0.3" fill="#000000" stroke="none" stroke-dasharray="none" d="M116.1008 206.5M121.11200000000001 188.1544C121.14080000000001 188.1256,121.54400000000001 188.1256,122.78240000000001 188.1256C123.1568 188.1256,123.56 188.1256,124.0784 188.1256L126.9872 188.1256L127.0736 188.212C127.2176 188.29840000000002,127.304 188.4424,127.304 188.5576C127.304 188.7304,127.2176 188.8456,127.1024 188.9608C127.0736 189.0472,126.8144 189.2776,126.64160000000001 189.5368L125.1152 191.2936L123.1568 193.5112L122.12 194.692L120.5648 196.4776L118.52000000000001 198.8104C118.1744 199.2424,117.80000000000001 199.588,117.80000000000001 199.588C117.80000000000001 199.588,117.80000000000001 199.588,117.80000000000001 199.588C117.80000000000001 199.6456,118.0592 199.6456,120.4496 199.6456L123.0704 199.6456L123.0704 197.7736C123.0704 195.8728,123.0704 195.844,123.09920000000001 195.8152C123.1568 195.7288,123.41600000000001 195.412,124.424 194.2312L124.8272 193.7992L125.2304 193.3672L125.8352 192.5896L126.4688 191.9272L126.7856 191.524C126.9008 191.3512,127.0736 191.3224,127.2176 191.3224C127.3904 191.3224,127.5344 191.4088,127.6208 191.5528C127.6496 191.6392,127.6496 191.6968,127.6496 193.828C127.6496 194.3176,127.6496 194.9224,127.6496 195.6424L127.6496 199.6456L128.3696 199.6456C129.032 199.6456,129.0608 199.6456,129.1472 199.6744C129.3776 199.7608,129.49280000000002 199.9912,129.49280000000002 200.2504C129.49280000000002 200.3944,129.464 200.5672,129.3488 200.6824C129.17600000000002 200.8264,129.1472 200.8264,128.3696 200.8264L127.6496 200.8264L127.6496 201.316C127.67840000000001 202.7848,127.96640000000001 203.3608,129.08960000000002 203.9656C129.49280000000002 204.1672,129.57920000000001 204.2248,129.57920000000001 204.5128C129.57920000000001 204.7144,129.5216 204.8008,129.3776 204.916L129.2912 204.9448L125.3456 204.9448L121.42880000000001 204.9448L121.34240000000001 204.916C121.1696 204.8008,121.14080000000001 204.7144,121.14080000000001 204.5128C121.14080000000001 204.2248,121.1696 204.1672,121.6016 203.9656C122.7248 203.3608,123.01280000000001 202.7848,123.01280000000001 201.316L123.01280000000001 200.8264L119.7008 200.8264C119.096 200.88400000000001,118.60640000000001 200.88400000000001,118.20320000000001 200.88400000000001C116.3888 200.88400000000001,116.36000000000001 200.8264,116.33120000000001 200.8264C116.1584 200.7688,116.1008 200.596,116.1008 200.3944C116.1008 200.3944,116.1008 200.3944,116.1008 200.3944C116.1008 200.1928,116.1008 200.1928,116.6768 199.5304C119.096 196.5928,120.79520000000001 192.3304,120.79520000000001 188.93200000000002C120.79520000000001 188.4136,120.8816 188.2408,121.11200000000001 188.1544M122.84 206.5288L122.86880000000001 206.5288L122.78240000000001 206.5288L122.84 206.5288M122.84 187.1176L122.86880000000001 187.1176L122.78240000000001 187.1176L122.84 187.1176"></path><g class="vf-stavenote" id="vf-auto1642842"><g class="vf-note" pointer-events="bounding-box"><g class="vf-stem" pointer-events="bounding-box"><path stroke-width="1.5" fill="none" stroke="#000000" stroke-dasharray="none" class="vf-stem" id="vf-auto1642842-stem" d="M142.43 171.5L142.43 206.5"></path></g><g class="vf-notehead" pointer-events="bounding-box"><path stroke-width="0.3" fill="#000000" stroke="none" stroke-dasharray="none" d="M141.68 171.5M149.03696 166.27712C149.14928 166.27712,149.31776000000002 166.27712,149.34584 166.27712C149.34584 166.27712,149.37392 166.27712,149.37392 166.27712C149.37392 166.27712,149.54240000000001 166.27712,149.68280000000001 166.27712C152.21 166.41752,153.69824 168.07424,153.69824 170.15216C153.69824 171.16304,153.36128000000002 172.31432,152.51888 173.40944C150.91832 175.5716,148.30688 176.75096,146.0324 176.75096C144.26336 176.75096,142.74704 176.04896,142.01696 174.61688C141.79232000000002 174.05528,141.68 173.52176,141.68 172.93208C141.68 169.87136,145.10576 166.47368,149.03696 166.27712"></path></g></g><g class="vf-modifiers"></g></g><g class="vf-stavenote" id="vf-auto1642850"><g class="vf-note" pointer-events="bounding-box"><g class="vf-stem" pointer-events="bounding-box"><path stroke-width="1.5" fill="none" stroke="#000000" stroke-dasharray="none" class="vf-stem" id="vf-auto1642850-stem" d="M222.05490666666668 206.5L222.05490666666668 171.5"></path></g><g class="vf-notehead" pointer-events="bounding-box"><path stroke-width="0.3" fill="#000000" stroke="none" stroke-dasharray="none" d="M210.7866666666667 206.5M218.14362666666668 201.27712C218.2559466666667 201.27712,218.4244266666667 201.27712,218.4525066666667 201.27712C218.4525066666667 201.27712,218.48058666666668 201.27712,218.48058666666668 201.27712C218.48058666666668 201.27712,218.6490666666667 201.27712,218.7894666666667 201.27712C221.3166666666667 201.41752,222.80490666666668 203.07424,222.80490666666668 205.15216C222.80490666666668 206.16304,222.4679466666667 207.31432,221.62554666666668 208.40944C220.02498666666668 210.5716,217.4135466666667 211.75096,215.13906666666668 211.75096C213.3700266666667 211.75096,211.85370666666668 211.04896,211.1236266666667 209.61688C210.8989866666667 209.05528,210.7866666666667 208.52176,210.7866666666667 207.93208C210.7866666666667 204.87136,214.2124266666667 201.47368,218.14362666666668 201.27712"></path></g></g><g class="vf-modifiers"></g></g><g class="vf-stavenote" id="vf-auto1642858"><g class="vf-note" pointer-events="bounding-box"><g class="vf-stem" pointer-events="bounding-box"><path stroke-width="1.5" fill="none" stroke="#000000" stroke-dasharray="none" class="vf-stem" id="vf-auto1642858-stem" d="M256.60824 191.5L256.60824 156.5"></path></g><g class="vf-notehead" pointer-events="bounding-box"><path stroke-width="0.3" fill="#000000" stroke="none" stroke-dasharray="none" d="M245.34 191.5M252.69696 186.27712C252.80928 186.27712,252.97776 186.27712,253.00584 186.27712C253.00584 186.27712,253.03392 186.27712,253.03392 186.27712C253.03392 186.27712,253.2024 186.27712,253.3428 186.27712C255.87 186.41752,257.35824 188.07424,257.35824 190.15216C257.35824 191.16304,257.02128 192.31432,256.17888 193.40944C254.57832 195.5716,251.96688 196.75096,249.6924 196.75096C247.92336 196.75096,246.40704 196.04896,245.67696 194.61688C245.45232000000001 194.05528,245.34 193.52176,245.34 192.93208C245.34 189.87136,248.76576 186.47368,252.69696 186.27712"></path></g></g><g class="vf-modifiers"></g></g><path stroke-width="1" fill="none" stroke="#000000" stroke-dasharray="none" d="M347.43023359999995 166.5L542.6804671999998 166.5"></path><path stroke-width="1" fill="none" stroke="#000000" stroke-dasharray="none" d="M347.43023359999995 176.5L542.6804671999998 176.5"></path><path stroke-width="1" fill="none" stroke="#000000" stroke-dasharray="none" d="M347.43023359999995 186.5L542.6804671999998 186.5"></path><path stroke-width="1" fill="none" stroke="#000000" stroke-dasharray="none" d="M347.43023359999995 196.5L542.6804671999998 196.5"></path><path stroke-width="1" fill="none" stroke="#000000" stroke-dasharray="none" d="M347.43023359999995 206.5L542.6804671999998 206.5"></path><rect stroke-width="0.3" fill="#000000" stroke="#000000" stroke-dasharray="none" x="542.6804671999998" y="166" width="1" height="41"></rect><g class="vf-stavenote" id="vf-auto1642896"><g class="vf-note" pointer-events="bounding-box"><g class="vf-stem" pointer-events="bounding-box"><path stroke-width="1.5" fill="none" stroke="#000000" stroke-dasharray="none" class="vf-stem" id="vf-auto1642896-stem" d="M425.18023359999995 186.5L425.18023359999995 221.5"></path></g><g class="vf-notehead" pointer-events="bounding-box"><path stroke-width="0.3" fill="#000000" stroke="none" stroke-dasharray="none" d="M424.43023359999995 186.5M431.78719359999997 181.27712C431.8995136 181.27712,432.06799359999997 181.27712,432.09607359999995 181.27712C432.09607359999995 181.27712,432.12415359999994 181.27712,432.12415359999994 181.27712C432.12415359999994 181.27712,432.29263359999993 181.27712,432.43303359999993 181.27712C434.9602335999999 181.41752,436.44847359999994 183.07424,436.44847359999994 185.15216C436.44847359999994 186.16304,436.11151359999997 187.31432,435.26911359999997 188.40944C433.66855359999994 190.5716,431.0571136 191.75096,428.78263359999994 191.75096C427.0135936 191.75096,425.49727359999997 191.04896,424.7671935999999 189.61688C424.54255359999996 189.05528,424.43023359999995 188.52176,424.43023359999995 187.93208C424.43023359999995 184.87136,427.8559936 181.47368,431.78719359999997 181.27712"></path></g></g><g class="vf-modifiers"></g></g><g class="vf-stavenote" id="vf-auto1642904"><g class="vf-note" pointer-events="bounding-box"><g class="vf-stem" pointer-events="bounding-box"><path stroke-width="1.5" fill="none" stroke="#000000" stroke-dasharray="none" class="vf-stem" id="vf-auto1642904-stem" d="M455.18023359999995 171.5L455.18023359999995 206.5"></path></g><g class="vf-notehead" pointer-events="bounding-box"><path stroke-width="0.3" fill="#000000" stroke="none" stroke-dasharray="none" d="M454.43023359999995 171.5M461.78719359999997 166.27712C461.8995136 166.27712,462.06799359999997 166.27712,462.09607359999995 166.27712C462.09607359999995 166.27712,462.12415359999994 166.27712,462.12415359999994 166.27712C462.12415359999994 166.27712,462.29263359999993 166.27712,462.43303359999993 166.27712C464.9602335999999 166.41752,466.44847359999994 168.07424,466.44847359999994 170.15216C466.44847359999994 171.16304,466.11151359999997 172.31432,465.26911359999997 173.40944C463.66855359999994 175.5716,461.0571136 176.75096,458.78263359999994 176.75096C457.0135936 176.75096,455.49727359999997 176.04896,454.7671935999999 174.61688C454.54255359999996 174.05528,454.43023359999995 173.52176,454.43023359999995 172.93208C454.43023359999995 169.87136,457.8559936 166.47368,461.78719359999997 166.27712"></path></g></g><g class="vf-modifiers"></g></g><g class="vf-stavenote" id="vf-auto1642912"><g class="vf-note" pointer-events="bounding-box"><g class="vf-stem" pointer-events="bounding-box"><path stroke-width="1.5" fill="none" stroke="#000000" stroke-dasharray="none" class="vf-stem" id="vf-auto1642912-stem" d="M485.18023359999995 166.5L485.18023359999995 201.5"></path></g><g class="vf-notehead" pointer-events="bounding-box"><path stroke-width="0.3" fill="#000000" stroke="none" stroke-dasharray="none" d="M484.43023359999995 166.5M491.78719359999997 161.27712C491.8995136 161.27712,492.06799359999997 161.27712,492.09607359999995 161.27712C492.09607359999995 161.27712,492.12415359999994 161.27712,492.12415359999994 161.27712C492.12415359999994 161.27712,492.29263359999993 161.27712,492.43303359999993 161.27712C494.9602335999999 161.41752,496.44847359999994 163.07424,496.44847359999994 165.15216C496.44847359999994 166.16304,496.11151359999997 167.31432,495.26911359999997 168.40944C493.66855359999994 170.5716,491.0571136 171.75096,488.78263359999994 171.75096C487.0135936 171.75096,485.49727359999997 171.04896,484.7671935999999 169.61688C484.54255359999996 169.05528,484.43023359999995 168.52176,484.43023359999995 167.93208C484.43023359999995 164.87136,487.8559936 161.47368,491.78719359999997 161.27712"></path></g></g><g class="vf-modifiers"></g></g><path stroke-width="1" fill="none" stroke="#000000" stroke-dasharray="none" d="M542.6804671999998 166.5L742.1307007999998 166.5"></path><path stroke-width="1" fill="none" stroke="#000000" stroke-dasharray="none" d="M542.6804671999998 176.5L742.1307007999998 176.5"></path><path stroke-width="1" fill="none" stroke="#000000" stroke-dasharray="none" d="M542.6804671999998 186.5L742.1307007999998 186.5"></path><path stroke-width="1" fill="none" stroke="#000000" stroke-dasharray="none" d="M542.6804671999998 196.5L742.1307007999998 196.5"></path><path stroke-width="1" fill="none" stroke="#000000" stroke-dasharray="none" d="M542.6804671999998 206.5L742.1307007999998 206.5"></path><rect stroke-width="0.3" fill="#000000" stroke="#000000" stroke-dasharray="none" x="742.1307007999998" y="166" width="1" height="41"></rect><g class="vf-stavenote" id="vf-auto1642950"><g class="vf-note" pointer-events="bounding-box"><g class="vf-stem" pointer-events="bounding-box"><path stroke-width="1.5" fill="none" stroke="#000000" stroke-dasharray="none" class="vf-stem" id="vf-auto1642950-stem" d="M560.4304671999998 186.5L560.4304671999998 221.5"></path></g><g class="vf-notehead" pointer-events="bounding-box"><path stroke-width="0.3" fill="#000000" stroke="none" stroke-dasharray="none" d="M559.6804671999998 186.5M567.0374271999998 181.27712C567.1497471999999 181.27712,567.3182271999998 181.27712,567.3463071999998 181.27712C567.3463071999998 181.27712,567.3743871999999 181.27712,567.3743871999999 181.27712C567.3743871999999 181.27712,567.5428671999998 181.27712,567.6832671999998 181.27712C570.2104671999998 181.41752,571.6987071999998 183.07424,571.6987071999998 185.15216C571.6987071999998 186.16304,571.3617471999999 187.31432,570.5193471999999 188.40944C568.9187871999999 190.5716,566.3073471999999 191.75096,564.0328671999998 191.75096C562.2638271999998 191.75096,560.7475071999999 191.04896,560.0174271999998 189.61688C559.7927871999998 189.05528,559.6804671999998 188.52176,559.6804671999998 187.93208C559.6804671999998 184.87136,563.1062271999998 181.47368,567.0374271999998 181.27712"></path></g></g><g class="vf-modifiers"></g></g><g class="vf-stavenote" id="vf-auto1642958"><g class="vf-note" pointer-events="bounding-box"><g class="vf-stem" pointer-events="bounding-box"><path stroke-width="1.5" fill="none" stroke="#000000" stroke-dasharray="none" class="vf-stem" id="vf-auto1642958-stem" d="M601.6153738666665 206.5L601.6153738666665 171.5"></path></g><g class="vf-notehead" pointer-events="bounding-box"><path stroke-width="0.3" fill="#000000" stroke="none" stroke-dasharray="none" d="M590.3471338666665 206.5M597.7040938666664 201.27712C597.8164138666665 201.27712,597.9848938666664 201.27712,598.0129738666665 201.27712C598.0129738666665 201.27712,598.0410538666665 201.27712,598.0410538666665 201.27712C598.0410538666665 201.27712,598.2095338666664 201.27712,598.3499338666664 201.27712C600.8771338666664 201.41752,602.3653738666665 203.07424,602.3653738666665 205.15216C602.3653738666665 206.16304,602.0284138666665 207.31432,601.1860138666665 208.40944C599.5854538666665 210.5716,596.9740138666665 211.75096,594.6995338666665 211.75096C592.9304938666664 211.75096,591.4141738666665 211.04896,590.6840938666664 209.61688C590.4594538666664 209.05528,590.3471338666665 208.52176,590.3471338666665 207.93208C590.3471338666665 204.87136,593.7728938666664 201.47368,597.7040938666664 201.27712"></path></g></g><g class="vf-modifiers"></g></g><g class="vf-stavenote" id="vf-auto1642966"><g class="vf-note" pointer-events="bounding-box"><g class="vf-stem" pointer-events="bounding-box"><path stroke-width="1.5" fill="none" stroke="#000000" stroke-dasharray="none" class="vf-stem" id="vf-auto1642966-stem" d="M621.7638005333332 181.5L621.7638005333332 216.5"></path></g><g class="vf-notehead" pointer-events="bounding-box"><path stroke-width="0.3" fill="#000000" stroke="none" stroke-dasharray="none" d="M621.0138005333332 181.5M628.3707605333332 176.27712C628.4830805333332 176.27712,628.6515605333332 176.27712,628.6796405333332 176.27712C628.6796405333332 176.27712,628.7077205333333 176.27712,628.7077205333333 176.27712C628.7077205333333 176.27712,628.8762005333332 176.27712,629.0166005333332 176.27712C631.5438005333332 176.41752,633.0320405333332 178.07424,633.0320405333332 180.15216C633.0320405333332 181.16304,632.6950805333332 182.31432,631.8526805333332 183.40944C630.2521205333333 185.5716,627.6406805333332 186.75096,625.3662005333332 186.75096C623.5971605333332 186.75096,622.0808405333332 186.04896,621.3507605333332 184.61688C621.1261205333332 184.05528,621.0138005333332 183.52176,621.0138005333332 182.93208C621.0138005333332 179.87136,624.4395605333332 176.47368,628.3707605333332 176.27712"></path></g></g><g class="vf-modifiers"></g></g><g class="vf-stavenote" id="vf-auto1642974"><g class="vf-note" pointer-events="bounding-box"><g class="vf-stem" pointer-events="bounding-box"><path stroke-width="1.5" fill="none" stroke="#000000" stroke-dasharray="none" class="vf-stem" id="vf-auto1642974-stem" d="M724.2820405333332 211.5L724.2820405333332 176.5"></path></g><g class="vf-notehead" pointer-events="bounding-box"><path stroke-width="0.3" fill="#000000" stroke="none" stroke-dasharray="none" d="M713.0138005333332 211.5M720.3707605333332 206.27712C720.4830805333332 206.27712,720.6515605333332 206.27712,720.6796405333332 206.27712C720.6796405333332 206.27712,720.7077205333333 206.27712,720.7077205333333 206.27712C720.7077205333333 206.27712,720.8762005333332 206.27712,721.0166005333332 206.27712C723.5438005333332 206.41752,725.0320405333332 208.07424,725.0320405333332 210.15216C725.0320405333332 211.16304,724.6950805333332 212.31432,723.8526805333332 213.40944C722.2521205333333 215.5716,719.6406805333332 216.75096,717.3662005333332 216.75096C715.5971605333332 216.75096,714.0808405333332 216.04896,713.3507605333332 214.61688C713.1261205333332 214.05528,713.0138005333332 213.52176,713.0138005333332 212.93208C713.0138005333332 209.87136,716.4395605333332 206.47368,720.3707605333332 206.27712"></path></g></g><g class="vf-modifiers"></g></g><path stroke-width="1" fill="none" stroke="#000000" stroke-dasharray="none" d="M742.1307007999998 166.5L943.1809343999997 166.5"></path><path stroke-width="1" fill="none" stroke="#000000" stroke-dasharray="none" d="M742.1307007999998 176.5L943.1809343999997 176.5"></path><path stroke-width="1" fill="none" stroke="#000000" stroke-dasharray="none" d="M742.1307007999998 186.5L943.1809343999997 186.5"></path><path stroke-width="1" fill="none" stroke="#000000" stroke-dasharray="none" d="M742.1307007999998 196.5L943.1809343999997 196.5"></path><path stroke-width="1" fill="none" stroke="#000000" stroke-dasharray="none" d="M742.1307007999998 206.5L943.1809343999997 206.5"></path><rect stroke-width="0.3" fill="#000000" stroke="#000000" stroke-dasharray="none" x="938.1809343999997" y="166" width="1" height="41"></rect><rect stroke-width="0.3" fill="#000000" stroke="#000000" stroke-dasharray="none" x="941.1809343999997" y="166" width="3" height="41"></rect><path stroke-width="0.3" fill="#000000" stroke="none" stroke-dasharray="none" d="M937.1809343999997 182 A2 2 0 0 0 933.1809343999997 182M933.1809343999997 182 A2 2 0 0 0 937.1809343999997 182"></path><path stroke-width="0.3" fill="#000000" stroke="none" stroke-dasharray="none" d="M937.1809343999997 192 A2 2 0 0 0 933.1809343999997 192M933.1809343999997 192 A2 2 0 0 0 937.1809343999997 192"></path><g class="vf-stavenote" id="vf-auto1643004"><g class="vf-note" pointer-events="bounding-box"><g class="vf-stem" pointer-events="bounding-box"><path stroke-width="1.5" fill="none" stroke="#000000" stroke-dasharray="none" class="vf-stem" id="vf-auto1643004-stem" d="M832.3989407999998 206.5L832.3989407999998 171.5"></path></g><g class="vf-notehead" pointer-events="bounding-box"><path stroke-width="0.3" fill="#000000" stroke="none" stroke-dasharray="none" d="M821.1307007999998 206.5M828.4876607999997 201.27712C828.5999807999998 201.27712,828.7684607999997 201.27712,828.7965407999998 201.27712C828.7965407999998 201.27712,828.8246207999998 201.27712,828.8246207999998 201.27712C828.8246207999998 201.27712,828.9931007999998 201.27712,829.1335007999998 201.27712C831.6607007999997 201.41752,833.1489407999998 203.07424,833.1489407999998 205.15216C833.1489407999998 206.16304,832.8119807999998 207.31432,831.9695807999998 208.40944C830.3690207999998 210.5716,827.7575807999998 211.75096,825.4831007999998 211.75096C823.7140607999997 211.75096,822.1977407999998 211.04896,821.4676607999997 209.61688C821.2430207999997 209.05528,821.1307007999998 208.52176,821.1307007999998 207.93208C821.1307007999998 204.87136,824.5564607999997 201.47368,828.4876607999997 201.27712"></path></g></g><g class="vf-modifiers"></g></g><g class="vf-stavenote" id="vf-auto1643012"><g class="vf-note" pointer-events="bounding-box"><g class="vf-stem" pointer-events="bounding-box"><path stroke-width="1.5" fill="none" stroke="#000000" stroke-dasharray="none" class="vf-stem" id="vf-auto1643012-stem" d="M894.3989407999998 206.5L894.3989407999998 171.5"></path></g><g class="vf-notehead" pointer-events="bounding-box"><path stroke-width="0.3" fill="#000000" stroke="none" stroke-dasharray="none" d="M883.1307007999998 206.5M890.4876607999997 201.27712C890.5999807999998 201.27712,890.7684607999997 201.27712,890.7965407999998 201.27712C890.7965407999998 201.27712,890.8246207999998 201.27712,890.8246207999998 201.27712C890.8246207999998 201.27712,890.9931007999998 201.27712,891.1335007999998 201.27712C893.6607007999997 201.41752,895.1489407999998 203.07424,895.1489407999998 205.15216C895.1489407999998 206.16304,894.8119807999998 207.31432,893.9695807999998 208.40944C892.3690207999998 210.5716,889.7575807999998 211.75096,887.4831007999998 211.75096C885.7140607999997 211.75096,884.1977407999998 211.04896,883.4676607999997 209.61688C883.2430207999997 209.05528,883.1307007999998 208.52176,883.1307007999998 207.93208C883.1307007999998 204.87136,886.5564607999997 201.47368,890.4876607999997 201.27712"></path></g></g><g class="vf-modifiers"></g></g><g class="vf-text"><text stroke-width="0.3" fill="#000000" stroke="none" stroke-dasharray="none" font-family="Times New Roman" font-size="23px" font-weight="bold" font-style="italic" x="143.68912" y="240.5">f</text></g><path stroke-width="1" fill="none" stroke="#000000" stroke-dasharray="none" d="M70 255.29999999999998L347.43023359999995 255.29999999999998"></path><path stroke-width="1" fill="none" stroke="#000000" stroke-dasharray="none" d="M70 265.29999999999995L347.43023359999995 265.29999999999995"></path><path stroke-width="1" fill="none" stroke="#000000" stroke-dasharray="none" d="M70 275.29999999999995L347.43023359999995 275.29999999999995"></path><path stroke-width="1" fill="none" stroke="#000000" stroke-dasharray="none" d="M70 285.29999999999995L347.43023359999995 285.29999999999995"></path><path stroke-width="1" fill="none" stroke="#000000" stroke-dasharray="none" d="M70 295.29999999999995L347.43023359999995 295.29999999999995"></path><rect stroke-width="0.3" fill="#000000" stroke="#000000" stroke-dasharray="none" x="347.43023359999995" y="254.79999999999998" width="1" height="40.99999999999997"></rect><g class="vf-clef"><path stroke-width="0.3" fill="#000000" stroke="none" stroke-dasharray="none" d="M75 265.29999999999995M83.8416 255.24879999999996C84.072 255.19119999999995,84.3024 255.19119999999995,84.5616 255.19119999999995C85.5696 255.19119999999995,86.7504 255.30639999999997,87.7584 255.50799999999995C92.4816 256.4872,95.736 259.68399999999997,96.3408 263.9464C96.3984 264.40719999999993,96.4272 264.83919999999995,96.4272 265.29999999999995C96.4272 267.89199999999994,95.5344 271.23279999999994,94.008 274.02639999999997C90.3792 280.59279999999995,83.7552 285.316,75.8064 287.044C75.6624 287.044,75.5472 287.0728,75.4032 287.0728C75.1152 287.0728,74.9712 286.9,74.9712 286.64079999999996C74.9712 286.35279999999995,75.0288 286.2664,75.6048 286.03599999999994C84.7056 282.6088,90.7824 275.20719999999994,91.3296 266.91279999999995C91.3584 266.48079999999993,91.3584 265.99119999999994,91.3584 265.61679999999996C91.3584 261.5848,90.12 258.58959999999996,87.7296 257.0919999999999C86.6928 256.42959999999994,85.5696 256.11279999999994,84.36 256.11279999999994C81.6816 256.11279999999994,78.9456 257.63919999999996,77.6784 260.20239999999995C77.6208 260.40399999999994,77.4192 260.83599999999996,77.4192 260.86479999999995C77.4192 260.86479999999995,77.4192 260.86479999999995,77.4192 260.86479999999995C77.4192 260.86479999999995,77.448 260.83599999999996,77.5344 260.80719999999997C78.168 260.40399999999994,78.8592 260.20239999999995,79.5792 260.20239999999995C80.5872 260.20239999999995,81.6528 260.63439999999997,82.4016 261.44079999999997C83.0928 262.1895999999999,83.4672 263.19759999999997,83.4672 264.1192C83.4672 265.99119999999994,82.0848 267.89199999999994,79.9248 268.0936C79.7808 268.0936,79.6368 268.12239999999997,79.4928 268.12239999999997C77.1024 268.12239999999997,75.1728 265.93359999999996,75.1728 263.1688C75.1728 263.11119999999994,75.1728 263.02479999999997,75.1728 262.996C75.288 258.8776,79.0608 255.50799999999995,83.8416 255.24879999999996M99.1632 259.10799999999995C99.2208 259.07919999999996,99.2496 259.07919999999996,99.336 259.07919999999996C99.5376 259.07919999999996,99.768 259.10799999999995,99.8256 259.1655999999999C100.54560000000001 259.36719999999997,100.8912 260.00079999999997,100.8912 260.6056C100.8912 261.12399999999997,100.632 261.64239999999995,100.11359999999999 261.93039999999996C99.912 262.07439999999997,99.6528 262.10319999999996,99.39359999999999 262.10319999999996C98.9904 262.10319999999996,98.5584 261.93039999999996,98.2704 261.5559999999999C98.03999999999999 261.268,97.9248 260.9512,97.9248 260.63439999999997C97.9248 259.91439999999994,98.3856 259.1944,99.1632 259.10799999999995M99.1632 268.52559999999994C99.2208 268.52559999999994,99.2496 268.52559999999994,99.336 268.52559999999994C99.5376 268.52559999999994,99.768 268.55439999999993,99.8256 268.61199999999997C100.54560000000001 268.81359999999995,100.8912 269.44719999999995,100.8912 270.05199999999996C100.8912 270.57039999999995,100.632 271.08879999999994,100.11359999999999 271.34799999999996C99.912 271.49199999999996,99.6528 271.54959999999994,99.39359999999999 271.54959999999994C98.9904 271.54959999999994,98.5584 271.34799999999996,98.2704 271.00239999999997C98.03999999999999 270.71439999999996,97.9248 270.39759999999995,97.9248 270.05199999999996C97.9248 269.33199999999994,98.3856 268.64079999999996,99.1632 268.52559999999994"></path></g><path stroke-width="0.3" fill="#000000" stroke="none" stroke-dasharray="none" d="M116 275.29999999999995M123.344 256.63759999999996C123.4592 256.63759999999996,123.6608 256.63759999999996,123.8912 256.63759999999996C124.2944 256.63759999999996,124.8416 256.63759999999996,125.0432 256.69519999999994C126.7712 256.95439999999996,128.6144 258.1928,128.96 259.316C129.0464 259.57519999999994,129.0752 259.80559999999997,129.0752 260.03599999999994C129.0752 261.33199999999994,127.9808 262.31119999999993,126.8 262.31119999999993C126.3392 262.31119999999993,125.8784 262.19599999999997,125.4464 261.8504C124.928 261.3896,124.64 260.81359999999995,124.64 260.15119999999996C124.64 259.25839999999994,125.1872 258.3367999999999,126.13759999999999 258.07759999999996C126.224 258.07759999999996,126.25280000000001 258.04879999999997,126.25280000000001 258.04879999999997C126.25280000000001 258.04879999999997,126.224 257.99119999999994,126.13759999999999 257.96239999999995C125.504 257.67439999999993,124.8704 257.5592,124.2944 257.5592C123.4016 257.5592,122.624 257.876,122.048 258.48079999999993C121.4432 259.20079999999996,121.0112 260.66959999999995,120.7232 262.82959999999997C120.6944 263.34799999999996,120.608 264.32719999999995,120.608 264.52879999999993C120.608 264.52879999999993,120.608 264.52879999999993,120.608 264.52879999999993C120.608 264.52879999999993,120.608 264.52879999999993,120.608 264.52879999999993C120.608 264.52879999999993,120.7232 264.47119999999995,120.83840000000001 264.44239999999996C121.76 264.068,122.5664 263.924,123.4304 263.924C124.4672 263.924,125.4464 264.15439999999995,126.5408 264.7304C128.5568 265.70959999999997,129.68 267.14959999999996,129.68 268.8776C129.68 269.10799999999995,129.6224 269.36719999999997,129.5936 269.62639999999993C129.3056 271.2392,128.0672 272.56399999999996,126.0512 273.42799999999994C125.1296 273.83119999999997,124.2944 274.06159999999994,123.4592 274.06159999999994C122.624 274.06159999999994,121.76 273.8024,120.8096 273.3128C118.304 272.0456,116.576 269.68399999999997,116.1152 266.948C116.0288 266.40079999999995,116 265.8536,116 265.24879999999996C116 264.03919999999994,116.1728 262.82959999999997,116.576 261.8504C117.6704 259.08559999999994,120.464 256.95439999999996,123.344 256.63759999999996M123.74719999999999 264.84559999999993C123.632 264.84559999999993,123.5168 264.84559999999993,123.4016 264.84559999999993C122.7968 264.84559999999993,122.336 265.0472,122.048 265.364C121.6448 265.96879999999993,121.35679999999999 267.46639999999996,121.35679999999999 268.79119999999995C121.35679999999999 269.07919999999996,121.35679999999999 269.36719999999997,121.3856 269.59759999999994C121.5008 270.9512,121.8176 272.07439999999997,122.1344 272.56399999999996C122.3648 272.90959999999995,122.8544 273.11119999999994,123.4016 273.11119999999994C123.5168 273.11119999999994,123.6608 273.11119999999994,123.776 273.08239999999995C124.6112 272.96719999999993,124.928 272.44879999999995,125.2448 270.80719999999997C125.3888 270.02959999999996,125.4752 269.36719999999997,125.4752 268.7048C125.4752 268.04239999999993,125.3888 267.4087999999999,125.2448 266.6312C124.9568 265.45039999999995,124.5824 264.96079999999995,123.74719999999999 264.84559999999993M122.7968 275.32879999999994L122.8544 275.32879999999994L122.768 275.32879999999994L122.7968 275.32879999999994M122.7968 255.91759999999996L122.8544 255.91759999999996L122.768 255.91759999999996L122.7968 255.91759999999996"></path><path stroke-width="0.3" fill="#000000" stroke="none" stroke-dasharray="none" d="M116.1008 295.29999999999995M121.11200000000001 276.95439999999996C121.14080000000001 276.9256,121.54400000000001 276.9256,122.78240000000001 276.9256C123.1568 276.9256,123.56 276.9256,124.0784 276.9256L126.9872 276.9256L127.0736 277.01199999999994C127.2176 277.09839999999997,127.304 277.2424,127.304 277.35759999999993C127.304 277.53039999999993,127.2176 277.64559999999994,127.1024 277.76079999999996C127.0736 277.84719999999993,126.8144 278.07759999999996,126.64160000000001 278.3367999999999L125.1152 280.0936L123.1568 282.31119999999993L122.12 283.49199999999996L120.5648 285.27759999999995L118.52000000000001 287.61039999999997C118.1744 288.04239999999993,117.80000000000001 288.388,117.80000000000001 288.388C117.80000000000001 288.388,117.80000000000001 288.388,117.80000000000001 288.388C117.80000000000001 288.44559999999996,118.0592 288.44559999999996,120.4496 288.44559999999996L123.0704 288.44559999999996L123.0704 286.57359999999994C123.0704 284.67279999999994,123.0704 284.64399999999995,123.09920000000001 284.61519999999996C123.1568 284.52879999999993,123.41600000000001 284.21199999999993,124.424 283.03119999999996L124.8272 282.59919999999994L125.2304 282.1672L125.8352 281.3896L126.4688 280.7272L126.7856 280.32399999999996C126.9008 280.15119999999996,127.0736 280.12239999999997,127.2176 280.12239999999997C127.3904 280.12239999999997,127.5344 280.20879999999994,127.6208 280.35279999999995C127.6496 280.43919999999997,127.6496 280.49679999999995,127.6496 282.62799999999993C127.6496 283.1176,127.6496 283.72239999999994,127.6496 284.44239999999996L127.6496 288.44559999999996L128.3696 288.44559999999996C129.032 288.44559999999996,129.0608 288.44559999999996,129.1472 288.47439999999995C129.3776 288.5608,129.49280000000002 288.79119999999995,129.49280000000002 289.05039999999997C129.49280000000002 289.1944,129.464 289.36719999999997,129.3488 289.4823999999999C129.17600000000002 289.62639999999993,129.1472 289.62639999999993,128.3696 289.62639999999993L127.6496 289.62639999999993L127.6496 290.11599999999993C127.67840000000001 291.5848,127.96640000000001 292.16079999999994,129.08960000000002 292.76559999999995C129.49280000000002 292.96719999999993,129.57920000000001 293.02479999999997,129.57920000000001 293.3128C129.57920000000001 293.51439999999997,129.5216 293.60079999999994,129.3776 293.71599999999995L129.2912 293.74479999999994L125.3456 293.74479999999994L121.42880000000001 293.74479999999994L121.34240000000001 293.71599999999995C121.1696 293.60079999999994,121.14080000000001 293.51439999999997,121.14080000000001 293.3128C121.14080000000001 293.02479999999997,121.1696 292.96719999999993,121.6016 292.76559999999995C122.7248 292.16079999999994,123.01280000000001 291.5848,123.01280000000001 290.11599999999993L123.01280000000001 289.62639999999993L119.7008 289.62639999999993C119.096 289.68399999999997,118.60640000000001 289.68399999999997,118.20320000000001 289.68399999999997C116.3888 289.68399999999997,116.36000000000001 289.62639999999993,116.33120000000001 289.62639999999993C116.1584 289.56879999999995,116.1008 289.39599999999996,116.1008 289.1944C116.1008 289.1944,116.1008 289.1944,116.1008 289.1944C116.1008 288.99279999999993,116.1008 288.99279999999993,116.6768 288.33039999999994C119.096 285.39279999999997,120.79520000000001 281.13039999999995,120.79520000000001 277.73199999999997C120.79520000000001 277.21359999999993,120.8816 277.04079999999993,121.11200000000001 276.95439999999996M122.84 295.32879999999994L122.86880000000001 295.32879999999994L122.78240000000001 295.32879999999994L122.84 295.32879999999994M122.84 275.91759999999994L122.86880000000001 275.91759999999994L122.78240000000001 275.91759999999994L122.84 275.91759999999994"></path><g class="vf-stavenote" id="vf-auto1642869"><g class="vf-note" pointer-events="bounding-box"><g class="vf-stem" pointer-events="bounding-box"><path stroke-width="1.5" fill="none" stroke="#000000" stroke-dasharray="none" class="vf-stem" id="vf-auto1642869-stem" d="M187.50157333333334 290.29999999999995L187.50157333333334 255.29999999999995"></path></g><g class="vf-notehead" pointer-events="bounding-box"><path stroke-width="0.3" fill="#000000" stroke="none" stroke-dasharray="none" d="M176.23333333333335 290.29999999999995M183.59029333333334 285.07712C183.70261333333335 285.07712,183.87109333333336 285.07712,183.89917333333335 285.07712C183.89917333333335 285.07712,183.92725333333334 285.07712,183.92725333333334 285.07712C183.92725333333334 285.07712,184.09573333333336 285.07712,184.23613333333336 285.07712C186.76333333333335 285.21752,188.25157333333334 286.87423999999993,188.25157333333334 288.95215999999994C188.25157333333334 289.96304,187.91461333333336 291.11431999999996,187.07221333333334 292.20944C185.47165333333334 294.37159999999994,182.86021333333335 295.55096,180.58573333333334 295.55096C178.81669333333335 295.55096,177.30037333333334 294.84896,176.57029333333335 293.41687999999994C176.34565333333336 292.85527999999994,176.23333333333335 292.3217599999999,176.23333333333335 291.73207999999994C176.23333333333335 288.67135999999994,179.65909333333335 285.27367999999996,183.59029333333334 285.07712"></path></g></g><g class="vf-modifiers"></g></g><g class="vf-stavenote" id="vf-auto1642877"><g class="vf-note" pointer-events="bounding-box"><g class="vf-stem" pointer-events="bounding-box"><path stroke-width="1.5" fill="none" stroke="#000000" stroke-dasharray="none" class="vf-stem" id="vf-auto1642877-stem" d="M280.6433333333333 250.29999999999995L280.6433333333333 285.29999999999995"></path></g><g class="vf-notehead" pointer-events="bounding-box"><path stroke-width="0.3" fill="#000000" stroke="none" stroke-dasharray="none" d="M279.8933333333333 250.29999999999995M287.25029333333333 245.07711999999995C287.36261333333334 245.07711999999995,287.53109333333333 245.07711999999995,287.5591733333333 245.07711999999995C287.5591733333333 245.07711999999995,287.5872533333333 245.07711999999995,287.5872533333333 245.07711999999995C287.5872533333333 245.07711999999995,287.7557333333333 245.07711999999995,287.8961333333333 245.07711999999995C290.4233333333333 245.21751999999995,291.9115733333333 246.87423999999996,291.9115733333333 248.95215999999996C291.9115733333333 249.96303999999995,291.57461333333333 251.11431999999996,290.73221333333333 252.20943999999994C289.1316533333333 254.37159999999994,286.52021333333334 255.55095999999995,284.2457333333333 255.55095999999995C282.47669333333334 255.55095999999995,280.96037333333334 254.84895999999995,280.2302933333333 253.41687999999996C280.0056533333333 252.85527999999996,279.8933333333333 252.32175999999995,279.8933333333333 251.73207999999997C279.8933333333333 248.67135999999996,283.31909333333334 245.27367999999996,287.25029333333333 245.07711999999995"></path></g></g><g class="vf-modifiers"></g></g><g class="vf-stavenote" id="vf-auto1642885"><g class="vf-note" pointer-events="bounding-box"><g class="vf-stem" pointer-events="bounding-box"><path stroke-width="1.5" fill="none" stroke="#000000" stroke-dasharray="none" class="vf-stem" id="vf-auto1642885-stem" d="M325.71490666666665 285.29999999999995L325.71490666666665 250.29999999999995"></path></g><g class="vf-notehead" pointer-events="bounding-box"><path stroke-width="0.3" fill="#000000" stroke="none" stroke-dasharray="none" d="M314.44666666666666 285.29999999999995M321.8036266666667 280.07712C321.9159466666667 280.07712,322.0844266666667 280.07712,322.11250666666666 280.07712C322.11250666666666 280.07712,322.14058666666665 280.07712,322.14058666666665 280.07712C322.14058666666665 280.07712,322.30906666666664 280.07712,322.44946666666664 280.07712C324.9766666666667 280.21752,326.46490666666665 281.87423999999993,326.46490666666665 283.95215999999994C326.46490666666665 284.96304,326.1279466666667 286.11431999999996,325.2855466666667 287.20944C323.68498666666665 289.37159999999994,321.07354666666663 290.55096,318.79906666666665 290.55096C317.0300266666667 290.55096,315.5137066666667 289.84896,314.78362666666663 288.41687999999994C314.55898666666667 287.85527999999994,314.44666666666666 287.3217599999999,314.44666666666666 286.73207999999994C314.44666666666666 283.67135999999994,317.8724266666667 280.27367999999996,321.8036266666667 280.07712"></path></g></g><g class="vf-modifiers"></g></g><rect stroke-width="0.3" fill="#000000" stroke="#000000" stroke-dasharray="none" x="347.43023359999995" y="166.5" width="1" height="129.79999999999995"></rect><rect stroke-width="0.3" fill="#000000" stroke="#000000" stroke-dasharray="none" x="70" y="166.5" width="1" height="129.79999999999995"></rect><path stroke-width="1" fill="none" stroke="#000000" stroke-dasharray="none" d="M347.43023359999995 255.29999999999998L542.6804671999998 255.29999999999998"></path><path stroke-width="1" fill="none" stroke="#000000" stroke-dasharray="none" d="M347.43023359999995 265.29999999999995L542.6804671999998 265.29999999999995"></path><path stroke-width="1" fill="none" stroke="#000000" stroke-dasharray="none" d="M347.43023359999995 275.29999999999995L542.6804671999998 275.29999999999995"></path><path stroke-width="1" fill="none" stroke="#000000" stroke-dasharray="none" d="M347.43023359999995 285.29999999999995L542.6804671999998 285.29999999999995"></path><path stroke-width="1" fill="none" stroke="#000000" stroke-dasharray="none" d="M347.43023359999995 295.29999999999995L542.6804671999998 295.29999999999995"></path><rect stroke-width="0.3" fill="#000000" stroke="#000000" stroke-dasharray="none" x="542.6804671999998" y="254.79999999999998" width="1" height="40.99999999999997"></rect><g class="vf-stavenote" id="vf-auto1642923"><g class="vf-note" pointer-events="bounding-box"><g class="vf-stem" pointer-events="bounding-box"><path stroke-width="1.5" fill="none" stroke="#000000" stroke-dasharray="none" class="vf-stem" id="vf-auto1642923-stem" d="M365.18023359999995 260.29999999999995L365.18023359999995 295.29999999999995"></path></g><g class="vf-notehead" pointer-events="bounding-box"><path stroke-width="0.3" fill="#000000" stroke="none" stroke-dasharray="none" d="M364.43023359999995 260.29999999999995M371.78719359999997 255.07711999999995C371.8995136 255.07711999999995,372.06799359999997 255.07711999999995,372.09607359999995 255.07711999999995C372.09607359999995 255.07711999999995,372.12415359999994 255.07711999999995,372.12415359999994 255.07711999999995C372.12415359999994 255.07711999999995,372.29263359999993 255.07711999999995,372.43303359999993 255.07711999999995C374.9602335999999 255.21751999999995,376.44847359999994 256.87423999999993,376.44847359999994 258.95215999999994C376.44847359999994 259.96304,376.11151359999997 261.11431999999996,375.26911359999997 262.20944C373.66855359999994 264.37159999999994,371.0571136 265.55096,368.78263359999994 265.55096C367.0135936 265.55096,365.49727359999997 264.84896,364.7671935999999 263.41687999999994C364.54255359999996 262.85527999999994,364.43023359999995 262.3217599999999,364.43023359999995 261.73207999999994C364.43023359999995 258.67135999999994,367.8559936 255.27367999999996,371.78719359999997 255.07711999999995"></path></g></g><g class="vf-modifiers"></g></g><g class="vf-stavenote" id="vf-auto1642931"><g class="vf-note" pointer-events="bounding-box"><g class="vf-stem" pointer-events="bounding-box"><path stroke-width="1.5" fill="none" stroke="#000000" stroke-dasharray="none" class="vf-stem" id="vf-auto1642931-stem" d="M405.69847359999994 280.29999999999995L405.69847359999994 245.29999999999995"></path></g><g class="vf-notehead" pointer-events="bounding-box"><path stroke-width="0.3" fill="#000000" stroke="none" stroke-dasharray="none" d="M394.43023359999995 280.29999999999995M401.78719359999997 275.07712C401.8995136 275.07712,402.06799359999997 275.07712,402.09607359999995 275.07712C402.09607359999995 275.07712,402.12415359999994 275.07712,402.12415359999994 275.07712C402.12415359999994 275.07712,402.29263359999993 275.07712,402.43303359999993 275.07712C404.9602335999999 275.21752,406.44847359999994 276.87423999999993,406.44847359999994 278.95215999999994C406.44847359999994 279.96304,406.11151359999997 281.11431999999996,405.26911359999997 282.20944C403.66855359999994 284.37159999999994,401.0571136 285.55096,398.78263359999994 285.55096C397.0135936 285.55096,395.49727359999997 284.84896,394.7671935999999 283.41687999999994C394.54255359999996 282.85527999999994,394.43023359999995 282.3217599999999,394.43023359999995 281.73207999999994C394.43023359999995 278.67135999999994,397.8559936 275.27367999999996,401.78719359999997 275.07712"></path></g></g><g class="vf-modifiers"></g></g><g class="vf-stavenote" id="vf-auto1642939"><g class="vf-note" pointer-events="bounding-box"><g class="vf-stem" pointer-events="bounding-box"><path stroke-width="1.5" fill="none" stroke="#000000" stroke-dasharray="none" class="vf-stem" id="vf-auto1642939-stem" d="M525.6984735999999 290.29999999999995L525.6984735999999 255.29999999999995"></path></g><g class="vf-notehead" pointer-events="bounding-box"><path stroke-width="0.3" fill="#000000" stroke="none" stroke-dasharray="none" d="M514.4302336 290.29999999999995M521.7871935999999 285.07712C521.8995136 285.07712,522.0679935999999 285.07712,522.0960736 285.07712C522.0960736 285.07712,522.1241536 285.07712,522.1241536 285.07712C522.1241536 285.07712,522.2926335999999 285.07712,522.4330335999999 285.07712C524.9602335999999 285.21752,526.4484735999999 286.87423999999993,526.4484735999999 288.95215999999994C526.4484735999999 289.96304,526.1115136 291.11431999999996,525.2691136 292.20944C523.6685536 294.37159999999994,521.0571136 295.55096,518.7826335999999 295.55096C517.0135935999999 295.55096,515.4972736 294.84896,514.7671935999999 293.41687999999994C514.5425535999999 292.85527999999994,514.4302336 292.3217599999999,514.4302336 291.73207999999994C514.4302336 288.67135999999994,517.8559935999999 285.27367999999996,521.7871935999999 285.07712"></path></g></g><g class="vf-modifiers"></g></g><rect stroke-width="0.3" fill="#000000" stroke="#000000" stroke-dasharray="none" x="542.6804671999998" y="166.5" width="1" height="129.79999999999995"></rect><path stroke-width="1" fill="none" stroke="#000000" stroke-dasharray="none" d="M542.6804671999998 255.29999999999998L742.1307007999998 255.29999999999998"></path><path stroke-width="1" fill="none" stroke="#000000" stroke-dasharray="none" d="M542.6804671999998 265.29999999999995L742.1307007999998 265.29999999999995"></path><path stroke-width="1" fill="none" stroke="#000000" stroke-dasharray="none" d="M542.6804671999998 275.29999999999995L742.1307007999998 275.29999999999995"></path><path stroke-width="1" fill="none" stroke="#000000" stroke-dasharray="none" d="M542.6804671999998 285.29999999999995L742.1307007999998 285.29999999999995"></path><path stroke-width="1" fill="none" stroke="#000000" stroke-dasharray="none" d="M542.6804671999998 295.29999999999995L742.1307007999998 295.29999999999995"></path><rect stroke-width="0.3" fill="#000000" stroke="#000000" stroke-dasharray="none" x="742.1307007999998" y="254.79999999999998" width="1" height="40.99999999999997"></rect><g class="vf-stavenote" id="vf-auto1642984"><g class="vf-note" pointer-events="bounding-box"><g class="vf-stem" pointer-events="bounding-box"><path stroke-width="1.5" fill="none" stroke="#000000" stroke-dasharray="none" class="vf-stem" id="vf-auto1642984-stem" d="M662.9487071999998 275.29999999999995L662.9487071999998 240.29999999999995"></path></g><g class="vf-notehead" pointer-events="bounding-box"><path stroke-width="0.3" fill="#000000" stroke="none" stroke-dasharray="none" d="M651.6804671999998 275.29999999999995M659.0374271999998 270.07712C659.1497471999999 270.07712,659.3182271999998 270.07712,659.3463071999998 270.07712C659.3463071999998 270.07712,659.3743871999999 270.07712,659.3743871999999 270.07712C659.3743871999999 270.07712,659.5428671999998 270.07712,659.6832671999998 270.07712C662.2104671999998 270.21752,663.6987071999998 271.87423999999993,663.6987071999998 273.95215999999994C663.6987071999998 274.96304,663.3617471999999 276.11431999999996,662.5193471999999 277.20944C660.9187871999999 279.37159999999994,658.3073471999999 280.55096,656.0328671999998 280.55096C654.2638271999998 280.55096,652.7475071999999 279.84896,652.0174271999998 278.41687999999994C651.7927871999998 277.85527999999994,651.6804671999998 277.3217599999999,651.6804671999998 276.73207999999994C651.6804671999998 273.67135999999994,655.1062271999998 270.27367999999996,659.0374271999998 270.07712"></path></g></g><g class="vf-modifiers"></g></g><path stroke-width="1" fill="none" stroke="#000000" stroke-dasharray="none" d="M679.3471338666666 245.29999999999995L697.3653738666666 245.29999999999995"></path><g class="vf-stavenote" id="vf-auto1642992"><g class="vf-note" pointer-events="bounding-box"><g class="vf-stem" pointer-events="bounding-box"><path stroke-width="1.5" fill="none" stroke="#000000" stroke-dasharray="none" class="vf-stem" id="vf-auto1642992-stem" d="M683.0971338666666 240.29999999999995L683.0971338666666 275.29999999999995"></path></g><g class="vf-notehead" pointer-events="bounding-box"><path stroke-width="0.3" fill="#000000" stroke="none" stroke-dasharray="none" d="M682.3471338666666 240.29999999999995M689.7040938666665 235.07711999999995C689.8164138666666 235.07711999999995,689.9848938666665 235.07711999999995,690.0129738666666 235.07711999999995C690.0129738666666 235.07711999999995,690.0410538666666 235.07711999999995,690.0410538666666 235.07711999999995C690.0410538666666 235.07711999999995,690.2095338666666 235.07711999999995,690.3499338666666 235.07711999999995C692.8771338666666 235.21751999999995,694.3653738666666 236.87423999999996,694.3653738666666 238.95215999999996C694.3653738666666 239.96303999999995,694.0284138666666 241.11431999999996,693.1860138666666 242.20943999999994C691.5854538666666 244.37159999999994,688.9740138666666 245.55095999999995,686.6995338666666 245.55095999999995C684.9304938666666 245.55095999999995,683.4141738666666 244.84895999999995,682.6840938666666 243.41687999999996C682.4594538666665 242.85527999999996,682.3471338666666 242.32175999999995,682.3471338666666 241.73207999999997C682.3471338666666 238.67135999999996,685.7728938666665 235.27367999999996,689.7040938666665 235.07711999999995"></path></g></g><g class="vf-modifiers"></g></g><rect stroke-width="0.3" fill="#000000" stroke="#000000" stroke-dasharray="none" x="742.1307007999998" y="166.5" width="1" height="129.79999999999995"></rect><path stroke-width="1" fill="none" stroke="#000000" stroke-dasharray="none" d="M742.1307007999998 255.29999999999998L943.1809343999997 255.29999999999998"></path><path stroke-width="1" fill="none" stroke="#000000" stroke-dasharray="none" d="M742.1307007999998 265.29999999999995L943.1809343999997 265.29999999999995"></path><path stroke-width="1" fill="none" stroke="#000000" stroke-dasharray="none" d="M742.1307007999998 275.29999999999995L943.1809343999997 275.29999999999995"></path><path stroke-width="1" fill="none" stroke="#000000" stroke-dasharray="none" d="M742.1307007999998 285.29999999999995L943.1809343999997 285.29999999999995"></path><path stroke-width="1" fill="none" stroke="#000000" stroke-dasharray="none" d="M742.1307007999998 295.29999999999995L943.1809343999997 295.29999999999995"></path><rect stroke-width="0.3" fill="#000000" stroke="#000000" stroke-dasharray="none" x="938.1809343999997" y="254.79999999999998" width="1" height="40.99999999999997"></rect><rect stroke-width="0.3" fill="#000000" stroke="#000000" stroke-dasharray="none" x="941.1809343999997" y="254.79999999999998" width="3" height="40.99999999999997"></rect><path stroke-width="0.3" fill="#000000" stroke="none" stroke-dasharray="none" d="M937.1809343999997 270.79999999999995 A2 2 0 0 0 933.1809343999997 270.79999999999995M933.1809343999997 270.79999999999995 A2 2 0 0 0 937.1809343999997 270.79999999999995"></path><path stroke-width="0.3" fill="#000000" stroke="none" stroke-dasharray="none" d="M937.1809343999997 280.79999999999995 A2 2 0 0 0 933.1809343999997 280.79999999999995M933.1809343999997 280.79999999999995 A2 2 0 0 0 937.1809343999997 280.79999999999995"></path><g class="vf-stavenote" id="vf-auto1643024"><g class="vf-note" pointer-events="bounding-box"><g class="vf-stem" pointer-events="bounding-box"><path stroke-width="1.5" fill="none" stroke="#000000" stroke-dasharray="none" class="vf-stem" id="vf-auto1643024-stem" d="M759.8807007999998 260.29999999999995L759.8807007999998 295.29999999999995"></path></g><g class="vf-notehead" pointer-events="bounding-box"><path stroke-width="0.3" fill="#000000" stroke="none" stroke-dasharray="none" d="M759.1307007999998 260.29999999999995M766.4876607999997 255.07711999999995C766.5999807999998 255.07711999999995,766.7684607999997 255.07711999999995,766.7965407999998 255.07711999999995C766.7965407999998 255.07711999999995,766.8246207999998 255.07711999999995,766.8246207999998 255.07711999999995C766.8246207999998 255.07711999999995,766.9931007999998 255.07711999999995,767.1335007999998 255.07711999999995C769.6607007999997 255.21751999999995,771.1489407999998 256.87423999999993,771.1489407999998 258.95215999999994C771.1489407999998 259.96304,770.8119807999998 261.11431999999996,769.9695807999998 262.20944C768.3690207999998 264.37159999999994,765.7575807999998 265.55096,763.4831007999998 265.55096C761.7140607999997 265.55096,760.1977407999998 264.84896,759.4676607999997 263.41687999999994C759.2430207999997 262.85527999999994,759.1307007999998 262.3217599999999,759.1307007999998 261.73207999999994C759.1307007999998 258.67135999999994,762.5564607999997 255.27367999999996,766.4876607999997 255.07711999999995"></path></g></g><g class="vf-modifiers"></g></g><g class="vf-stavenote" id="vf-auto1643032"><g class="vf-note" pointer-events="bounding-box"><g class="vf-stem" pointer-events="bounding-box"><path stroke-width="1.5" fill="none" stroke="#000000" stroke-dasharray="none" class="vf-stem" id="vf-auto1643032-stem" d="M801.3989407999998 275.29999999999995L801.3989407999998 240.29999999999995"></path></g><g class="vf-notehead" pointer-events="bounding-box"><path stroke-width="0.3" fill="#000000" stroke="none" stroke-dasharray="none" d="M790.1307007999998 275.29999999999995M797.4876607999997 270.07712C797.5999807999998 270.07712,797.7684607999997 270.07712,797.7965407999998 270.07712C797.7965407999998 270.07712,797.8246207999998 270.07712,797.8246207999998 270.07712C797.8246207999998 270.07712,797.9931007999998 270.07712,798.1335007999998 270.07712C800.6607007999997 270.21752,802.1489407999998 271.87423999999993,802.1489407999998 273.95215999999994C802.1489407999998 274.96304,801.8119807999998 276.11431999999996,800.9695807999998 277.20944C799.3690207999998 279.37159999999994,796.7575807999998 280.55096,794.4831007999998 280.55096C792.7140607999997 280.55096,791.1977407999998 279.84896,790.4676607999997 278.41687999999994C790.2430207999997 277.85527999999994,790.1307007999998 277.3217599999999,790.1307007999998 276.73207999999994C790.1307007999998 273.67135999999994,793.5564607999997 270.27367999999996,797.4876607999997 270.07712"></path></g></g><g class="vf-modifiers"></g></g><g class="vf-stavenote" id="vf-auto1643040"><g class="vf-note" pointer-events="bounding-box"><g class="vf-stem" pointer-events="bounding-box"><path stroke-width="1.5" fill="none" stroke="#000000" stroke-dasharray="none" class="vf-stem" id="vf-auto1643040-stem" d="M852.8807007999998 270.29999999999995L852.8807007999998 305.29999999999995"></path></g><g class="vf-notehead" pointer-events="bounding-box"><path stroke-width="0.3" fill="#000000" stroke="none" stroke-dasharray="none" d="M852.1307007999998 270.29999999999995M859.4876607999997 265.07712C859.5999807999998 265.07712,859.7684607999997 265.07712,859.7965407999998 265.07712C859.7965407999998 265.07712,859.8246207999998 265.07712,859.8246207999998 265.07712C859.8246207999998 265.07712,859.9931007999998 265.07712,860.1335007999998 265.07712C862.6607007999997 265.21752,864.1489407999998 266.87423999999993,864.1489407999998 268.95215999999994C864.1489407999998 269.96304,863.8119807999998 271.11431999999996,862.9695807999998 272.20944C861.3690207999998 274.37159999999994,858.7575807999998 275.55096,856.4831007999998 275.55096C854.7140607999997 275.55096,853.1977407999998 274.84896,852.4676607999997 273.41687999999994C852.2430207999997 272.85527999999994,852.1307007999998 272.3217599999999,852.1307007999998 271.73207999999994C852.1307007999998 268.67135999999994,855.5564607999997 265.27367999999996,859.4876607999997 265.07712"></path></g></g><g class="vf-modifiers"></g></g><g class="vf-stavenote" id="vf-auto1643048"><g class="vf-note" pointer-events="bounding-box"><g class="vf-stem" pointer-events="bounding-box"><path stroke-width="1.5" fill="none" stroke="#000000" stroke-dasharray="none" class="vf-stem" id="vf-auto1643048-stem" d="M925.3989407999998 285.29999999999995L925.3989407999998 250.29999999999995"></path></g><g class="vf-notehead" pointer-events="bounding-box"><path stroke-width="0.3" fill="#000000" stroke="none" stroke-dasharray="none" d="M914.1307007999998 285.29999999999995M921.4876607999997 280.07712C921.5999807999998 280.07712,921.7684607999997 280.07712,921.7965407999998 280.07712C921.7965407999998 280.07712,921.8246207999998 280.07712,921.8246207999998 280.07712C921.8246207999998 280.07712,921.9931007999998 280.07712,922.1335007999998 280.07712C924.6607007999997 280.21752,926.1489407999998 281.87423999999993,926.1489407999998 283.95215999999994C926.1489407999998 284.96304,925.8119807999998 286.11431999999996,924.9695807999998 287.20944C923.3690207999998 289.37159999999994,920.7575807999998 290.55096,918.4831007999998 290.55096C916.7140607999997 290.55096,915.1977407999998 289.84896,914.4676607999997 288.41687999999994C914.2430207999997 287.85527999999994,914.1307007999998 287.3217599999999,914.1307007999998 286.73207999999994C914.1307007999998 283.67135999999994,917.5564607999997 280.27367999999996,921.4876607999997 280.07712"></path></g></g><g class="vf-modifiers"></g></g><rect stroke-width="0.3" fill="#000000" stroke="#000000" stroke-dasharray="none" x="938.1809343999997" y="166.5" width="1" height="129.79999999999995"></rect><rect stroke-width="0.3" fill="#000000" stroke="#000000" stroke-dasharray="none" x="941.1809343999997" y="166.5" width="3" height="129.79999999999995"></rect><path stroke-width="0.3" fill="#000000" stroke="none" stroke-dasharray="none" d="M68 166.5C45.2 192.45999999999998,81.2 213.87699999999998,56 231.39999999999998C81.2 248.92299999999997,45.2 270.34,68 296.29999999999995C44 270.34,72.8 248.92299999999997,56 231.39999999999998C72.8 213.87699999999998,44 192.45999999999998,68 166.5"></path><path stroke-width="1" fill="none" stroke="#000000" stroke-dasharray="none" d="M68 166.5C45.2 192.45999999999998,81.2 213.87699999999998,56 231.39999999999998C81.2 248.92299999999997,45.2 270.34,68 296.29999999999995C44 270.34,72.8 248.92299999999997,56 231.39999999999998C72.8 213.87699999999998,44 192.45999999999998,68 166.5"></path><g class="vf-text"><text stroke-width="0.3" fill="#000000" stroke="none" stroke-dasharray="none" font-family="Times New Roman" font-size="15px" font-weight="normal" font-style="normal" x="539.1804671999998" y="163.5">3</text></g></svg>