<svg xmlns="http://www.w3.org/2000/svg"  width="1470" height="380.79999999999995" viewBox="0 0 1470 380.79999999999995"><path stroke-width="1" fill="none" stroke="#000000" stroke-dasharray="none" d="M70 166.5L351.63023359999994 166.5"></path><path stroke-width="1" fill="none" stroke="#000000" stroke-dasharray="none" d="M70 176.5L351.63023359999994 176.5"></path><path stroke-width="1" fill="none" stroke="#000000" stroke-dasharray="none" d="M70 186.5L351.63023359999994 186.5"></path><path stroke-width="1" fill="none" stroke="#000000" stroke-dasharray="none" d="M70 196.5L351.63023359999994 196.5"></path><path stroke-width="1" fill="none" stroke="#000000" stroke-dasharray="none" d="M70 206.5L351.63023359999994 206.5"></path><rect stroke-width="0.3" fill="#000000" stroke="#000000" stroke-dasharray="none" x="351.63023359999994" y="166" width="1" height="41"></rect><g class="vf-clef"><path stroke-width="0.3" fill="#000000" stroke="none" stroke-dasharray="none" d="M75 196.5M89.0544 153.3288C89.112 153.3,89.1696 153.3,89.256 153.3C89.6016 153.3,90.0048 153.588,90.5808 154.308C92.9136 156.9864,94.5552 161.652,94.5552 165.4536C94.5552 165.7416,94.4976 165.972,94.4976 166.26C94.2384 170.7816,92.3952 174.4968,88.7376 178.0104L87.7584 178.9608L87.4128 179.3352L87.4128 179.4504L87.6144 180.3144L87.9312 181.8696L88.248 183.3096C88.68 185.268,88.8528 186.276,88.8528 186.276C88.8528 186.276,88.8528 186.276,88.8528 186.276C88.8528 186.276,88.968 186.276,89.112 186.2472C89.256 186.2472,89.7168 186.1896,90.2064 186.1896C90.55199999999999 186.1896,90.8976 186.2472,91.0704 186.2472C95.1312 186.7656,98.2704 189.6744,99.1632 193.764C99.336 194.4264,99.39359999999999 195.1464,99.39359999999999 195.8664C99.39359999999999 199.7544,97.0608 203.4696,93.1728 205.2264C92.94239999999999 205.3704,92.856 205.3992,92.856 205.3992L92.856 205.428C92.856 205.428,93.0288 206.0904,93.1728 206.8392L93.6048 209.028L94.008 210.7848C94.2384 211.908,94.3536 212.7144,94.3536 213.4344C94.3536 214.06799999999998,94.2672 214.644,94.1232 215.3064C93.144 219.3096,89.6592 221.7,86.0304 221.7C84.2448 221.7,82.4016 221.124,80.7888 219.828C79.3488 218.6184,78.7152 217.524,78.7152 216.084C78.7152 213.5496,80.76 211.764,82.8912 211.764C83.64 211.764,84.3888 211.99439999999998,85.1088 212.4264C86.3184 213.2616,86.8656 214.5288,86.8656 215.7672C86.8656 217.668,85.5408 219.54,83.2656 219.684L83.0352 219.684L83.208 219.79919999999998C84.1584 220.2024,85.1088 220.404,86.0304 220.404C88.3632 220.404,90.55199999999999 219.2232,91.8768 217.1784C92.62559999999999 216.0264,93.0288 214.6728,93.0288 213.3192C93.0288 212.8008,92.94239999999999 212.2824,92.8272 211.7064C92.8272 211.6488,92.74080000000001 211.188,92.62559999999999 210.756C91.992 207.6456,91.6176 205.8312,91.6176 205.8312C91.6176 205.8312,91.6176 205.8312,91.6176 205.8312C91.56 205.8312,91.4448 205.8312,91.3584 205.8888C91.0704 205.9464,90.4656 206.0904,90.2064 206.1192C89.5728 206.2056,88.968 206.2344,88.392 206.2344C82.74719999999999 206.2344,77.5056 202.4328,75.6912 196.8168C75.2304 195.3192,74.9712 193.8216,74.9712 192.324C74.9712 189.3288,75.9216 186.3912,77.7648 183.7704C79.7808 180.9192,81.7968 178.4712,84.2736 175.9368L85.13759999999999 175.044L84.936 173.9784L84.5616 172.2216L84.072 169.9752C83.928 169.14,83.7552 168.3336,83.7264 168.1608C83.5824 167.2104,83.496 166.2888,83.496 165.3384C83.496 161.7096,84.6768 158.22480000000002,86.8944 155.4312C87.5568 154.5672,88.7376 153.4152,89.0544 153.3288M90.8112 159.0312C90.7536 159.0312,90.6672 159.0312,90.5808 159.0312C89.4 159.0312,87.8736 160.1256,86.8368 161.7384C85.7712 163.32240000000002,85.224 165.4248,85.224 167.5848C85.224 168.1608,85.25280000000001 168.7656,85.3392 169.3704C85.4256 169.8024,85.45439999999999 170.0904,85.6848 171.12720000000002L86.088 172.9416C86.2032 173.4888,86.28960000000001 173.92079999999999,86.28960000000001 173.9784L86.28960000000001 173.9784C86.3184 173.9784,87.2112 172.9992,87.4992 172.6536C90.3792 169.3992,92.1072 165.972,92.4816 162.948C92.5104 162.66,92.5104 162.4296,92.5104 162.1416C92.5104 161.24880000000002,92.3952 160.38479999999998,92.1936 159.924C91.9632 159.4632,91.4448 159.0888,90.8112 159.0312M86.4624 181.2936C86.4048 180.8904,86.3184 180.5736,86.3184 180.516C86.3184 180.516,86.3184 180.516,86.28960000000001 180.516C86.232 180.516,84.9936 181.956,84.1296 182.964C82.6608 184.7496,81.1056 186.8808,80.472 187.9176C79.2624 189.9624,78.6576 192.2376,78.6576 194.484C78.6576 195.9528,78.9456 197.364,79.464 198.7176C81.0192 202.7208,84.5904 205.2264,88.4784 205.2264C88.9392 205.2264,89.4576 205.1976,89.9472 205.1112C90.5808 204.996,91.3584 204.7656,91.3584 204.6792L91.3584 204.6792C91.3584 204.6792,91.3008 204.3912,91.2144 204.0744L90.3792 199.956L89.7168 196.8744L89.2848 194.7432L88.824 192.6696C88.5936 191.4312,88.5072 191.1144,88.5072 191.1144C88.5072 191.1144,88.5072 191.0856,88.4784 191.0856C88.3056 191.0856,87.384 191.5464,86.9808 191.8344C85.4832 192.8712,84.7056 194.5128,84.7056 196.1256C84.7056 197.652,85.45439999999999 199.1784,86.8944 200.0712C87.2112 200.2728,87.3264 200.4456,87.3264 200.6472C87.3264 200.676,87.3264 200.7624,87.3264 200.7912C87.2688 201.1368,87.0672 201.2808,86.7792 201.2808C86.664 201.2808,86.52 201.252,86.3472 201.1656C83.6976 200.0136,81.912 197.2776,81.912 194.2824L81.912 194.2824C81.912 190.8264,84.072 187.8312,87.384 186.6504L87.5568 186.5928L87.2688 185.1528L86.4624 181.2936M90.7824 190.9128C90.55199999999999 190.88400000000001,90.3216 190.88400000000001,90.1488 190.88400000000001C90.0912 190.88400000000001,90.0048 190.88400000000001,89.9472 190.88400000000001L89.8032 190.88400000000001L89.9184 191.4024L90.5232 194.2248L90.8976 196.068L91.3008 197.8824L92.1072 201.8856L92.424 203.412C92.5392 203.8152,92.5968 204.1608,92.62559999999999 204.1608C92.62559999999999 204.1608,92.62559999999999 204.1608,92.62559999999999 204.1608C92.6544 204.1608,93.144 203.8728,93.4608 203.6424C94.9296 202.6056,96.024 200.9928,96.4272 199.3224C96.5712 198.7752,96.6288 198.1992,96.6288 197.652C96.6288 194.3112,94.152 191.2872,90.7824 190.9128"></path></g><path stroke-width="0.3" fill="#000000" stroke="none" stroke-dasharray="none" d="M116 186.5M123.344 167.8376C123.4592 167.8376,123.6608 167.8376,123.8912 167.8376C124.2944 167.8376,124.8416 167.8376,125.0432 167.8952C126.7712 168.1544,128.6144 169.3928,128.96 170.516C129.0464 170.7752,129.0752 171.00560000000002,129.0752 171.236C129.0752 172.532,127.9808 173.5112,126.8 173.5112C126.3392 173.5112,125.8784 173.39600000000002,125.4464 173.0504C124.928 172.5896,124.64 172.0136,124.64 171.3512C124.64 170.4584,125.1872 169.5368,126.13759999999999 169.2776C126.224 169.2776,126.25280000000001 169.2488,126.25280000000001 169.2488C126.25280000000001 169.2488,126.224 169.1912,126.13759999999999 169.1624C125.504 168.8744,124.8704 168.7592,124.2944 168.7592C123.4016 168.7592,122.624 169.076,122.048 169.6808C121.4432 170.4008,121.0112 171.8696,120.7232 174.0296C120.6944 174.548,120.608 175.5272,120.608 175.7288C120.608 175.7288,120.608 175.7288,120.608 175.7288C120.608 175.7288,120.608 175.7288,120.608 175.7288C120.608 175.7288,120.7232 175.6712,120.83840000000001 175.6424C121.76 175.268,122.5664 175.124,123.4304 175.124C124.4672 175.124,125.4464 175.3544,126.5408 175.9304C128.5568 176.9096,129.68 178.3496,129.68 180.0776C129.68 180.308,129.6224 180.5672,129.5936 180.8264C129.3056 182.4392,128.0672 183.764,126.0512 184.628C125.1296 185.0312,124.2944 185.2616,123.4592 185.2616C122.624 185.2616,121.76 185.0024,120.8096 184.5128C118.304 183.2456,116.576 180.88400000000001,116.1152 178.148C116.0288 177.6008,116 177.0536,116 176.4488C116 175.2392,116.1728 174.0296,116.576 173.0504C117.6704 170.2856,120.464 168.1544,123.344 167.8376M123.74719999999999 176.0456C123.632 176.0456,123.5168 176.0456,123.4016 176.0456C122.7968 176.0456,122.336 176.2472,122.048 176.564C121.6448 177.1688,121.35679999999999 178.6664,121.35679999999999 179.9912C121.35679999999999 180.2792,121.35679999999999 180.5672,121.3856 180.7976C121.5008 182.1512,121.8176 183.2744,122.1344 183.764C122.3648 184.1096,122.8544 184.3112,123.4016 184.3112C123.5168 184.3112,123.6608 184.3112,123.776 184.2824C124.6112 184.1672,124.928 183.6488,125.2448 182.0072C125.3888 181.2296,125.4752 180.5672,125.4752 179.9048C125.4752 179.2424,125.3888 178.6088,125.2448 177.8312C124.9568 176.6504,124.5824 176.1608,123.74719999999999 176.0456M122.7968 186.5288L122.8544 186.5288L122.768 186.5288L122.7968 186.5288M122.7968 167.1176L122.8544 167.1176L122.768 167.1176L122.7968 167.1176"></path><path stroke-width="0.3" fill="#000000" stroke="none" stroke-dasharray="none" d="M116.1008 206.5M121.11200000000001 188.1544C121.14080000000001 188.1256,121.54400000000001 188.1256,122.78240000000001 188.1256C123.1568 188.1256,123.56 188.1256,124.0784 188.1256L126.9872 188.1256L127.0736 188.212C127.2176 188.29840000000002,127.304 188.4424,127.304 188.5576C127.304 188.7304,127.2176 188.8456,127.1024 188.9608C127.0736 189.0472,126.8144 189.2776,126.64160000000001 189.5368L125.1152 191.2936L123.1568 193.5112L122.12 194.692L120.5648 196.4776L118.52000000000001 198.8104C118.1744 199.2424,117.80000000000001 199.588,117.80000000000001 199.588C117.80000000000001 199.588,117.80000000000001 199.588,117.80000000000001 199.588C117.80000000000001 199.6456,118.0592 199.6456,120.4496 199.6456L123.0704 199.6456L123.0704 197.7736C123.0704 195.8728,123.0704 195.844,123.09920000000001 195.8152C123.1568 195.7288,123.41600000000001 195.412,124.424 194.2312L124.8272 193.7992L125.2304 193.3672L125.8352 192.5896L126.4688 191.9272L126.7856 191.524C126.9008 191.3512,127.0736 191.3224,127.2176 191.3224C127.3904 191.3224,127.5344 191.4088,127.6208 191.5528C127.6496 191.6392,127.6496 191.6968,127.6496 193.828C127.6496 194.3176,127.6496 194.9224,127.6496 195.6424L127.6496 199.6456L128.3696 199.6456C129.032 199.6456,129.0608 199.6456,129.1472 199.6744C129.3776 199.7608,129.49280000000002 199.9912,129.49280000000002 200.2504C129.49280000000002 200.3944,129.464 200.5672,129.3488 200.6824C129.17600000000002 200.8264,129.1472 200.8264,128.3696 200.8264L127.6496 200.8264L127.6496 201.316C127.67840000000001 202.7848,127.96640000000001 203.3608,129.08960000000002 203.9656C129.49280000000002 204.1672,129.57920000000001 204.2248,129.57920000000001 204.5128C129.57920000000001 204.7144,129.5216 204.8008,129.3776 204.916L129.2912 204.9448L125.3456 204.9448L121.42880000000001 204.9448L121.34240000000001 204.916C121.1696 204.8008,121.14080000000001 204.7144,121.14080000000001 204.5128C121.14080000000001 204.2248,121.1696 204.1672,121.6016 203.9656C122.7248 203.3608,123.01280000000001 202.7848,123.01280000000001 201.316L123.01280000000001 200.8264L119.7008 200.8264C119.096 200.88400000000001,118.60640000000001 200.88400000000001,118.20320000000001 200.88400000000001C116.3888 200.88400000000001,116.36000000000001 200.8264,116.33120000000001 200.8264C116.1584 200.7688,116.1008 200.596,116.1008 200.3944C116.1008 200.3944,116.1008 200.3944,116.1008 200.3944C116.1008 200.1928,116.1008 200.1928,116.6768 199.5304C119.096 196.5928,120.79520000000001 192.3304,120.79520000000001 188.93200000000002C120.79520000000001 188.4136,120.8816 188.2408,121.11200000000001 188.1544M122.84 206.5288L122.86880000000001 206.5288L122.78240000000001 206.5288L122.84 206.5288M122.84 187.1176L122.86880000000001 187.1176L122.78240000000001 187.1176L122.84 187.1176"></path><g class="vf-stavenote" id="vf-auto3564096"><g class="vf-note" pointer-events="bounding-box"><g class="vf-stem" pointer-events="bounding-box"><path stroke-width="1.5" fill="none" stroke="#000000" stroke-dasharray="none" class="vf-stem" id="vf-auto3564096-stem" d="M142.43 181.5L142.43 216.5"></path></g><g class="vf-notehead" pointer-events="bounding-box"><path stroke-width="0.3" fill="#000000" stroke="none" stroke-dasharray="none" d="M141.68 181.5M149.03696 176.27712C149.14928 176.27712,149.31776000000002 176.27712,149.34584 176.27712C149.34584 176.27712,149.37392 176.27712,149.37392 176.27712C149.37392 176.27712,149.54240000000001 176.27712,149.68280000000001 176.27712C152.21 176.41752,153.69824 178.07424,153.69824 180.15216C153.69824 181.16304,153.36128000000002 182.31432,152.51888 183.40944C150.91832 185.5716,148.30688 186.75096,146.0324 186.75096C144.26336 186.75096,142.74704 186.04896,142.01696 184.61688C141.79232000000002 184.05528,141.68 183.52176,141.68 182.93208C141.68 179.87136,145.10576 176.47368,149.03696 176.27712"></path></g></g><g class="vf-modifiers"></g></g><path stroke-width="1" fill="none" stroke="#000000" stroke-dasharray="none" d="M173.9 216.5L191.91824 216.5"></path><g class="vf-stavenote" id="vf-auto3564104"><g class="vf-note" pointer-events="bounding-box"><g class="vf-stem" pointer-events="bounding-box"><path stroke-width="1.5" fill="none" stroke="#000000" stroke-dasharray="none" class="vf-stem" id="vf-auto3564104-stem" d="M188.16824 216.5L188.16824 181.5"></path></g><g class="vf-notehead" pointer-events="bounding-box"><path stroke-width="0.3" fill="#000000" stroke="none" stroke-dasharray="none" d="M176.9 216.5M184.25696 211.27712C184.36928 211.27712,184.53776 211.27712,184.56584 211.27712C184.56584 211.27712,184.59392 211.27712,184.59392 211.27712C184.59392 211.27712,184.7624 211.27712,184.9028 211.27712C187.43 211.41752,188.91824 213.07424,188.91824 215.15216C188.91824 216.16304,188.58128 217.31432,187.73888 218.40944C186.13832 220.5716,183.52688 221.75096,181.2524 221.75096C179.48336 221.75096,177.96704 221.04896,177.23696 219.61688C177.01232000000002 219.05528,176.9 218.52176,176.9 217.93208C176.9 214.87136,180.32576 211.47368,184.25696 211.27712"></path></g></g><g class="vf-modifiers"></g></g><g class="vf-stavenote" id="vf-auto3564112"><g class="vf-note" pointer-events="bounding-box"><g class="vf-stem" pointer-events="bounding-box"><path stroke-width="1.5" fill="none" stroke="#000000" stroke-dasharray="none" class="vf-stem" id="vf-auto3564112-stem" d="M248.09 186.5L248.09 221.5"></path></g><g class="vf-notehead" pointer-events="bounding-box"><path stroke-width="0.3" fill="#000000" stroke="none" stroke-dasharray="none" d="M247.34 186.5M254.69696 181.27712C254.80928 181.27712,254.97776 181.27712,255.00584 181.27712C255.00584 181.27712,255.03392 181.27712,255.03392 181.27712C255.03392 181.27712,255.2024 181.27712,255.3428 181.27712C257.87 181.41752,259.35824 183.07424,259.35824 185.15216C259.35824 186.16304,259.02128 187.31432,258.17888 188.40944C256.57832 190.5716,253.96688 191.75096,251.6924 191.75096C249.92336 191.75096,248.40704 191.04896,247.67696 189.61688C247.45232000000001 189.05528,247.34 188.52176,247.34 187.93208C247.34 184.87136,250.76576 181.47368,254.69696 181.27712"></path></g></g><g class="vf-modifiers"></g></g><g class="vf-stavenote" id="vf-auto3564120"><g class="vf-note" pointer-events="bounding-box"><g class="vf-stem" pointer-events="bounding-box"><path stroke-width="1.5" fill="none" stroke="#000000" stroke-dasharray="none" class="vf-stem" id="vf-auto3564120-stem" d="M318.53000000000003 171.5L318.53000000000003 206.5"></path></g><g class="vf-notehead" pointer-events="bounding-box"><path stroke-width="0.3" fill="#000000" stroke="none" stroke-dasharray="none" d="M317.78000000000003 171.5M325.13696000000004 166.27712C325.24928000000006 166.27712,325.41776000000004 166.27712,325.44584000000003 166.27712C325.44584000000003 166.27712,325.47392 166.27712,325.47392 166.27712C325.47392 166.27712,325.6424 166.27712,325.7828 166.27712C328.31000000000006 166.41752,329.79824 168.07424,329.79824 170.15216C329.79824 171.16304,329.46128000000004 172.31432,328.61888000000005 173.40944C327.01832 175.5716,324.40688 176.75096,322.1324 176.75096C320.36336000000006 176.75096,318.84704000000005 176.04896,318.11696 174.61688C317.89232000000004 174.05528,317.78000000000003 173.52176,317.78000000000003 172.93208C317.78000000000003 169.87136,321.20576000000005 166.47368,325.13696000000004 166.27712"></path></g></g><g class="vf-modifiers"></g></g><path stroke-width="1" fill="none" stroke="#000000" stroke-dasharray="none" d="M351.6302336 166.5L551.0804671999999 166.5"></path><path stroke-width="1" fill="none" stroke="#000000" stroke-dasharray="none" d="M351.6302336 176.5L551.0804671999999 176.5"></path><path stroke-width="1" fill="none" stroke="#000000" stroke-dasharray="none" d="M351.6302336 186.5L551.0804671999999 186.5"></path><path stroke-width="1" fill="none" stroke="#000000" stroke-dasharray="none" d="M351.6302336 196.5L551.0804671999999 196.5"></path><path stroke-width="1" fill="none" stroke="#000000" stroke-dasharray="none" d="M351.6302336 206.5L551.0804671999999 206.5"></path><rect stroke-width="0.3" fill="#000000" stroke="#000000" stroke-dasharray="none" x="551.0804671999999" y="166" width="1" height="41"></rect><g class="vf-stavenote" id="vf-auto3564151"><g class="vf-note" pointer-events="bounding-box"><g class="vf-stem" pointer-events="bounding-box"><path stroke-width="1.5" fill="none" stroke="#000000" stroke-dasharray="none" class="vf-stem" id="vf-auto3564151-stem" d="M379.8984736 196.5L379.8984736 161.5"></path></g><g class="vf-notehead" pointer-events="bounding-box"><path stroke-width="0.3" fill="#000000" stroke="none" stroke-dasharray="none" d="M368.6302336 196.5M375.9871936 191.27712C376.0995136 191.27712,376.2679936 191.27712,376.2960736 191.27712C376.2960736 191.27712,376.3241536 191.27712,376.3241536 191.27712C376.3241536 191.27712,376.4926336 191.27712,376.6330336 191.27712C379.16023359999997 191.41752,380.6484736 193.07424,380.6484736 195.15216C380.6484736 196.16304,380.3115136 197.31432,379.4691136 198.40944C377.8685536 200.5716,375.2571136 201.75096,372.9826336 201.75096C371.2135936 201.75096,369.6972736 201.04896,368.9671936 199.61688C368.7425536 199.05528,368.6302336 198.52176,368.6302336 197.93208C368.6302336 194.87136,372.0559936 191.47368,375.9871936 191.27712"></path></g></g><g class="vf-modifiers"></g></g><g class="vf-stavenote" id="vf-auto3564159"><g class="vf-note" pointer-events="bounding-box"><g class="vf-stem" pointer-events="bounding-box"><path stroke-width="1.5" fill="none" stroke="#000000" stroke-dasharray="none" class="vf-stem" id="vf-auto3564159-stem" d="M430.71356693333337 176.5L430.71356693333337 211.5"></path></g><g class="vf-notehead" pointer-events="bounding-box"><path stroke-width="0.3" fill="#000000" stroke="none" stroke-dasharray="none" d="M429.96356693333337 176.5M437.3205269333334 171.27712C437.4328469333334 171.27712,437.6013269333334 171.27712,437.62940693333337 171.27712C437.62940693333337 171.27712,437.65748693333336 171.27712,437.65748693333336 171.27712C437.65748693333336 171.27712,437.82596693333335 171.27712,437.96636693333335 171.27712C440.49356693333334 171.41752,441.98180693333336 173.07424,441.98180693333336 175.15216C441.98180693333336 176.16304,441.6448469333334 177.31432,440.8024469333334 178.40944C439.20188693333336 180.5716,436.5904469333334 181.75096,434.31596693333336 181.75096C432.5469269333334 181.75096,431.0306069333334 181.04896,430.30052693333334 179.61688C430.0758869333334 179.05528,429.96356693333337 178.52176,429.96356693333337 177.93208C429.96356693333337 174.87136,433.3893269333334 171.47368,437.3205269333334 171.27712"></path></g></g><g class="vf-modifiers"></g></g><path stroke-width="1" fill="none" stroke="#000000" stroke-dasharray="none" d="M457.6302336 216.5L475.6484736 216.5"></path><g class="vf-stavenote" id="vf-auto3564167"><g class="vf-note" pointer-events="bounding-box"><g class="vf-stem" pointer-events="bounding-box"><path stroke-width="1.5" fill="none" stroke="#000000" stroke-dasharray="none" class="vf-stem" id="vf-auto3564167-stem" d="M471.8984736 216.5L471.8984736 181.5"></path></g><g class="vf-notehead" pointer-events="bounding-box"><path stroke-width="0.3" fill="#000000" stroke="none" stroke-dasharray="none" d="M460.6302336 216.5M467.9871936 211.27712C468.0995136 211.27712,468.2679936 211.27712,468.2960736 211.27712C468.2960736 211.27712,468.3241536 211.27712,468.3241536 211.27712C468.3241536 211.27712,468.4926336 211.27712,468.6330336 211.27712C471.16023359999997 211.41752,472.6484736 213.07424,472.6484736 215.15216C472.6484736 216.16304,472.3115136 217.31432,471.4691136 218.40944C469.8685536 220.5716,467.2571136 221.75096,464.9826336 221.75096C463.2135936 221.75096,461.6972736 221.04896,460.9671936 219.61688C460.7425536 219.05528,460.6302336 218.52176,460.6302336 217.93208C460.6302336 214.87136,464.0559936 211.47368,467.9871936 211.27712"></path></g></g><g class="vf-modifiers"></g></g><g class="vf-stavenote" id="vf-auto3564175"><g class="vf-note" pointer-events="bounding-box"><g class="vf-stem" pointer-events="bounding-box"><path stroke-width="1.5" fill="none" stroke="#000000" stroke-dasharray="none" class="vf-stem" id="vf-auto3564175-stem" d="M492.0469002666667 171.5L492.0469002666667 206.5"></path></g><g class="vf-notehead" pointer-events="bounding-box"><path stroke-width="0.3" fill="#000000" stroke="none" stroke-dasharray="none" d="M491.2969002666667 171.5M498.6538602666667 166.27712C498.7661802666667 166.27712,498.9346602666667 166.27712,498.9627402666667 166.27712C498.9627402666667 166.27712,498.9908202666667 166.27712,498.9908202666667 166.27712C498.9908202666667 166.27712,499.15930026666666 166.27712,499.29970026666666 166.27712C501.8269002666667 166.41752,503.3151402666667 168.07424,503.3151402666667 170.15216C503.3151402666667 171.16304,502.9781802666667 172.31432,502.1357802666667 173.40944C500.53522026666667 175.5716,497.92378026666665 176.75096,495.64930026666667 176.75096C493.8802602666667 176.75096,492.3639402666667 176.04896,491.63386026666666 174.61688C491.4092202666667 174.05528,491.2969002666667 173.52176,491.2969002666667 172.93208C491.2969002666667 169.87136,494.7226602666667 166.47368,498.6538602666667 166.27712"></path></g></g><g class="vf-modifiers"></g></g><path stroke-width="1" fill="none" stroke="#000000" stroke-dasharray="none" d="M551.0804671999999 166.5L733.7307007999998 166.5"></path><path stroke-width="1" fill="none" stroke="#000000" stroke-dasharray="none" d="M551.0804671999999 176.5L733.7307007999998 176.5"></path><path stroke-width="1" fill="none" stroke="#000000" stroke-dasharray="none" d="M551.0804671999999 186.5L733.7307007999998 186.5"></path><path stroke-width="1" fill="none" stroke="#000000" stroke-dasharray="none" d="M551.0804671999999 196.5L733.7307007999998 196.5"></path><path stroke-width="1" fill="none" stroke="#000000" stroke-dasharray="none" d="M551.0804671999999 206.5L733.7307007999998 206.5"></path><rect stroke-width="0.3" fill="#000000" stroke="#000000" stroke-dasharray="none" x="733.7307007999998" y="166" width="1" height="41"></rect><path stroke-width="1" fill="none" stroke="#000000" stroke-dasharray="none" d="M733.7307007999999 166.5L920.5809343999999 166.5"></path><path stroke-width="1" fill="none" stroke="#000000" stroke-dasharray="none" d="M733.7307007999999 176.5L920.5809343999999 176.5"></path><path stroke-width="1" fill="none" stroke="#000000" stroke-dasharray="none" d="M733.7307007999999 186.5L920.5809343999999 186.5"></path><path stroke-width="1" fill="none" stroke="#000000" stroke-dasharray="none" d="M733.7307007999999 196.5L920.5809343999999 196.5"></path><path stroke-width="1" fill="none" stroke="#000000" stroke-dasharray="none" d="M733.7307007999999 206.5L920.5809343999999 206.5"></path><rect stroke-width="0.3" fill="#000000" stroke="#000000" stroke-dasharray="none" x="915.5809343999999" y="166" width="1" height="41"></rect><rect stroke-width="0.3" fill="#000000" stroke="#000000" stroke-dasharray="none" x="918.5809343999999" y="166" width="3" height="41"></rect><g class="vf-stavenote" id="vf-auto3564255"><g class="vf-note" pointer-events="bounding-box"><g class="vf-stem" pointer-events="bounding-box"><path stroke-width="1.5" fill="none" stroke="#000000" stroke-dasharray="none" class="vf-stem" id="vf-auto3564255-stem" d="M875.9989407999999 211.5L875.9989407999999 176.5"></path></g><g class="vf-notehead" pointer-events="bounding-box"><path stroke-width="0.3" fill="#000000" stroke="none" stroke-dasharray="none" d="M864.7307007999999 211.5M872.0876607999999 206.27712C872.1999807999999 206.27712,872.3684607999999 206.27712,872.3965407999999 206.27712C872.3965407999999 206.27712,872.4246208 206.27712,872.4246208 206.27712C872.4246208 206.27712,872.5931007999999 206.27712,872.7335007999999 206.27712C875.2607007999999 206.41752,876.7489407999999 208.07424,876.7489407999999 210.15216C876.7489407999999 211.16304,876.4119807999999 212.31432,875.5695807999999 213.40944C873.9690208 215.5716,871.3575807999999 216.75096,869.0831007999999 216.75096C867.3140607999999 216.75096,865.7977407999999 216.04896,865.0676607999999 214.61688C864.8430207999999 214.05528,864.7307007999999 213.52176,864.7307007999999 212.93208C864.7307007999999 209.87136,868.1564607999999 206.47368,872.0876607999999 206.27712"></path></g></g><g class="vf-modifiers"></g></g><g class="vf-text"><text stroke-width="0.3" fill="#000000" stroke="none" stroke-dasharray="none" font-family="Times New Roman" font-size="23px" font-weight="bold" font-style="italic" x="134.68912" y="240.5">mf</text></g><path stroke-width="1" fill="none" stroke="#000000" stroke-dasharray="none" d="M70 255.29999999999998L351.63023359999994 255.29999999999998"></path><path stroke-width="1" fill="none" stroke="#000000" stroke-dasharray="none" d="M70 265.29999999999995L351.63023359999994 265.29999999999995"></path><path stroke-width="1" fill="none" stroke="#000000" stroke-dasharray="none" d="M70 275.29999999999995L351.63023359999994 275.29999999999995"></path><path stroke-width="1" fill="none" stroke="#000000" stroke-dasharray="none" d="M70 285.29999999999995L351.63023359999994 285.29999999999995"></path><path stroke-width="1" fill="none" stroke="#000000" stroke-dasharray="none" d="M70 295.29999999999995L351.63023359999994 295.29999999999995"></path><rect stroke-width="0.3" fill="#000000" stroke="#000000" stroke-dasharray="none" x="351.63023359999994" y="254.79999999999998" width="1" height="40.99999999999997"></rect><g class="vf-clef"><path stroke-width="0.3" fill="#000000" stroke="none" stroke-dasharray="none" d="M75 265.29999999999995M83.8416 255.24879999999996C84.072 255.19119999999995,84.3024 255.19119999999995,84.5616 255.19119999999995C85.5696 255.19119999999995,86.7504 255.30639999999997,87.7584 255.50799999999995C92.4816 256.4872,95.736 259.68399999999997,96.3408 263.9464C96.3984 264.40719999999993,96.4272 264.83919999999995,96.4272 265.29999999999995C96.4272 267.89199999999994,95.5344 271.23279999999994,94.008 274.02639999999997C90.3792 280.59279999999995,83.7552 285.316,75.8064 287.044C75.6624 287.044,75.5472 287.0728,75.4032 287.0728C75.1152 287.0728,74.9712 286.9,74.9712 286.64079999999996C74.9712 286.35279999999995,75.0288 286.2664,75.6048 286.03599999999994C84.7056 282.6088,90.7824 275.20719999999994,91.3296 266.91279999999995C91.3584 266.48079999999993,91.3584 265.99119999999994,91.3584 265.61679999999996C91.3584 261.5848,90.12 258.58959999999996,87.7296 257.0919999999999C86.6928 256.42959999999994,85.5696 256.11279999999994,84.36 256.11279999999994C81.6816 256.11279999999994,78.9456 257.63919999999996,77.6784 260.20239999999995C77.6208 260.40399999999994,77.4192 260.83599999999996,77.4192 260.86479999999995C77.4192 260.86479999999995,77.4192 260.86479999999995,77.4192 260.86479999999995C77.4192 260.86479999999995,77.448 260.83599999999996,77.5344 260.80719999999997C78.168 260.40399999999994,78.8592 260.20239999999995,79.5792 260.20239999999995C80.5872 260.20239999999995,81.6528 260.63439999999997,82.4016 261.44079999999997C83.0928 262.1895999999999,83.4672 263.19759999999997,83.4672 264.1192C83.4672 265.99119999999994,82.0848 267.89199999999994,79.9248 268.0936C79.7808 268.0936,79.6368 268.12239999999997,79.4928 268.12239999999997C77.1024 268.12239999999997,75.1728 265.93359999999996,75.1728 263.1688C75.1728 263.11119999999994,75.1728 263.02479999999997,75.1728 262.996C75.288 258.8776,79.0608 255.50799999999995,83.8416 255.24879999999996M99.1632 259.10799999999995C99.2208 259.07919999999996,99.2496 259.07919999999996,99.336 259.07919999999996C99.5376 259.07919999999996,99.768 259.10799999999995,99.8256 259.1655999999999C100.54560000000001 259.36719999999997,100.8912 260.00079999999997,100.8912 260.6056C100.8912 261.12399999999997,100.632 261.64239999999995,100.11359999999999 261.93039999999996C99.912 262.07439999999997,99.6528 262.10319999999996,99.39359999999999 262.10319999999996C98.9904 262.10319999999996,98.5584 261.93039999999996,98.2704 261.5559999999999C98.03999999999999 261.268,97.9248 260.9512,97.9248 260.63439999999997C97.9248 259.91439999999994,98.3856 259.1944,99.1632 259.10799999999995M99.1632 268.52559999999994C99.2208 268.52559999999994,99.2496 268.52559999999994,99.336 268.52559999999994C99.5376 268.52559999999994,99.768 268.55439999999993,99.8256 268.61199999999997C100.54560000000001 268.81359999999995,100.8912 269.44719999999995,100.8912 270.05199999999996C100.8912 270.57039999999995,100.632 271.08879999999994,100.11359999999999 271.34799999999996C99.912 271.49199999999996,99.6528 271.54959999999994,99.39359999999999 271.54959999999994C98.9904 271.54959999999994,98.5584 271.34799999999996,98.2704 271.00239999999997C98.03999999999999 270.71439999999996,97.9248 270.39759999999995,97.9248 270.05199999999996C97.9248 269.33199999999994,98.3856 268.64079999999996,99.1632 268.52559999999994"></path></g><path stroke-width="0.3" fill="#000000" stroke="none" stroke-dasharray="none" d="M116 275.29999999999995M123.344 256.63759999999996C123.4592 256.63759999999996,123.6608 256.63759999999996,123.8912 256.63759999999996C124.2944 256.63759999999996,124.8416 256.63759999999996,125.0432 256.69519999999994C126.7712 256.95439999999996,128.6144 258.1928,128.96 259.316C129.0464 259.57519999999994,129.0752 259.80559999999997,129.0752 260.03599999999994C129.0752 261.33199999999994,127.9808 262.31119999999993,126.8 262.31119999999993C126.3392 262.31119999999993,125.8784 262.19599999999997,125.4464 261.8504C124.928 261.3896,124.64 260.81359999999995,124.64 260.15119999999996C124.64 259.25839999999994,125.1872 258.3367999999999,126.13759999999999 258.07759999999996C126.224 258.07759999999996,126.25280000000001 258.04879999999997,126.25280000000001 258.04879999999997C126.25280000000001 258.04879999999997,126.224 257.99119999999994,126.13759999999999 257.96239999999995C125.504 257.67439999999993,124.8704 257.5592,124.2944 257.5592C123.4016 257.5592,122.624 257.876,122.048 258.48079999999993C121.4432 259.20079999999996,121.0112 260.66959999999995,120.7232 262.82959999999997C120.6944 263.34799999999996,120.608 264.32719999999995,120.608 264.52879999999993C120.608 264.52879999999993,120.608 264.52879999999993,120.608 264.52879999999993C120.608 264.52879999999993,120.608 264.52879999999993,120.608 264.52879999999993C120.608 264.52879999999993,120.7232 264.47119999999995,120.83840000000001 264.44239999999996C121.76 264.068,122.5664 263.924,123.4304 263.924C124.4672 263.924,125.4464 264.15439999999995,126.5408 264.7304C128.5568 265.70959999999997,129.68 267.14959999999996,129.68 268.8776C129.68 269.10799999999995,129.6224 269.36719999999997,129.5936 269.62639999999993C129.3056 271.2392,128.0672 272.56399999999996,126.0512 273.42799999999994C125.1296 273.83119999999997,124.2944 274.06159999999994,123.4592 274.06159999999994C122.624 274.06159999999994,121.76 273.8024,120.8096 273.3128C118.304 272.0456,116.576 269.68399999999997,116.1152 266.948C116.0288 266.40079999999995,116 265.8536,116 265.24879999999996C116 264.03919999999994,116.1728 262.82959999999997,116.576 261.8504C117.6704 259.08559999999994,120.464 256.95439999999996,123.344 256.63759999999996M123.74719999999999 264.84559999999993C123.632 264.84559999999993,123.5168 264.84559999999993,123.4016 264.84559999999993C122.7968 264.84559999999993,122.336 265.0472,122.048 265.364C121.6448 265.96879999999993,121.35679999999999 267.46639999999996,121.35679999999999 268.79119999999995C121.35679999999999 269.07919999999996,121.35679999999999 269.36719999999997,121.3856 269.59759999999994C121.5008 270.9512,121.8176 272.07439999999997,122.1344 272.56399999999996C122.3648 272.90959999999995,122.8544 273.11119999999994,123.4016 273.11119999999994C123.5168 273.11119999999994,123.6608 273.11119999999994,123.776 273.08239999999995C124.6112 272.96719999999993,124.928 272.44879999999995,125.2448 270.80719999999997C125.3888 270.02959999999996,125.4752 269.36719999999997,125.4752 268.7048C125.4752 268.04239999999993,125.3888 267.4087999999999,125.2448 266.6312C124.9568 265.45039999999995,124.5824 264.96079999999995,123.74719999999999 264.84559999999993M122.7968 275.32879999999994L122.8544 275.32879999999994L122.768 275.32879999999994L122.7968 275.32879999999994M122.7968 255.91759999999996L122.8544 255.91759999999996L122.768 255.91759999999996L122.7968 255.91759999999996"></path><path stroke-width="0.3" fill="#000000" stroke="none" stroke-dasharray="none" d="M116.1008 295.29999999999995M121.11200000000001 276.95439999999996C121.14080000000001 276.9256,121.54400000000001 276.9256,122.78240000000001 276.9256C123.1568 276.9256,123.56 276.9256,124.0784 276.9256L126.9872 276.9256L127.0736 277.01199999999994C127.2176 277.09839999999997,127.304 277.2424,127.304 277.35759999999993C127.304 277.53039999999993,127.2176 277.64559999999994,127.1024 277.76079999999996C127.0736 277.84719999999993,126.8144 278.07759999999996,126.64160000000001 278.3367999999999L125.1152 280.0936L123.1568 282.31119999999993L122.12 283.49199999999996L120.5648 285.27759999999995L118.52000000000001 287.61039999999997C118.1744 288.04239999999993,117.80000000000001 288.388,117.80000000000001 288.388C117.80000000000001 288.388,117.80000000000001 288.388,117.80000000000001 288.388C117.80000000000001 288.44559999999996,118.0592 288.44559999999996,120.4496 288.44559999999996L123.0704 288.44559999999996L123.0704 286.57359999999994C123.0704 284.67279999999994,123.0704 284.64399999999995,123.09920000000001 284.61519999999996C123.1568 284.52879999999993,123.41600000000001 284.21199999999993,124.424 283.03119999999996L124.8272 282.59919999999994L125.2304 282.1672L125.8352 281.3896L126.4688 280.7272L126.7856 280.32399999999996C126.9008 280.15119999999996,127.0736 280.12239999999997,127.2176 280.12239999999997C127.3904 280.12239999999997,127.5344 280.20879999999994,127.6208 280.35279999999995C127.6496 280.43919999999997,127.6496 280.49679999999995,127.6496 282.62799999999993C127.6496 283.1176,127.6496 283.72239999999994,127.6496 284.44239999999996L127.6496 288.44559999999996L128.3696 288.44559999999996C129.032 288.44559999999996,129.0608 288.44559999999996,129.1472 288.47439999999995C129.3776 288.5608,129.49280000000002 288.79119999999995,129.49280000000002 289.05039999999997C129.49280000000002 289.1944,129.464 289.36719999999997,129.3488 289.4823999999999C129.17600000000002 289.62639999999993,129.1472 289.62639999999993,128.3696 289.62639999999993L127.6496 289.62639999999993L127.6496 290.11599999999993C127.67840000000001 291.5848,127.96640000000001 292.16079999999994,129.08960000000002 292.76559999999995C129.49280000000002 292.96719999999993,129.57920000000001 293.02479999999997,129.57920000000001 293.3128C129.57920000000001 293.51439999999997,129.5216 293.60079999999994,129.3776 293.71599999999995L129.2912 293.74479999999994L125.3456 293.74479999999994L121.42880000000001 293.74479999999994L121.34240000000001 293.71599999999995C121.1696 293.60079999999994,121.14080000000001 293.51439999999997,121.14080000000001 293.3128C121.14080000000001 293.02479999999997,121.1696 292.96719999999993,121.6016 292.76559999999995C122.7248 292.16079999999994,123.01280000000001 291.5848,123.01280000000001 290.11599999999993L123.01280000000001 289.62639999999993L119.7008 289.62639999999993C119.096 289.68399999999997,118.60640000000001 289.68399999999997,118.20320000000001 289.68399999999997C116.3888 289.68399999999997,116.36000000000001 289.62639999999993,116.33120000000001 289.62639999999993C116.1584 289.56879999999995,116.1008 289.39599999999996,116.1008 289.1944C116.1008 289.1944,116.1008 289.1944,116.1008 289.1944C116.1008 288.99279999999993,116.1008 288.99279999999993,116.6768 288.33039999999994C119.096 285.39279999999997,120.79520000000001 281.13039999999995,120.79520000000001 277.73199999999997C120.79520000000001 277.21359999999993,120.8816 277.04079999999993,121.11200000000001 276.95439999999996M122.84 295.32879999999994L122.86880000000001 295.32879999999994L122.78240000000001 295.32879999999994L122.84 295.32879999999994M122.84 275.91759999999994L122.86880000000001 275.91759999999994L122.78240000000001 275.91759999999994L122.84 275.91759999999994"></path><g class="vf-stavenote" id="vf-auto3564131"><g class="vf-note" pointer-events="bounding-box"><g class="vf-stem" pointer-events="bounding-box"><path stroke-width="1.5" fill="none" stroke="#000000" stroke-dasharray="none" class="vf-stem" id="vf-auto3564131-stem" d="M212.87 270.29999999999995L212.87 305.29999999999995"></path></g><g class="vf-notehead" pointer-events="bounding-box"><path stroke-width="0.3" fill="#000000" stroke="none" stroke-dasharray="none" d="M212.12 270.29999999999995M219.47696 265.07712C219.58928 265.07712,219.75776000000002 265.07712,219.78584 265.07712C219.78584 265.07712,219.81392 265.07712,219.81392 265.07712C219.81392 265.07712,219.9824 265.07712,220.1228 265.07712C222.65 265.21752,224.13824 266.87423999999993,224.13824 268.95215999999994C224.13824 269.96304,223.80128000000002 271.11431999999996,222.95888 272.20944C221.35832 274.37159999999994,218.74688 275.55096,216.4724 275.55096C214.70336 275.55096,213.18704 274.84896,212.45696 273.41687999999994C212.23232000000002 272.85527999999994,212.12 272.3217599999999,212.12 271.73207999999994C212.12 268.67135999999994,215.54576 265.27367999999996,219.47696 265.07712"></path></g></g><g class="vf-modifiers"></g></g><path stroke-width="1" fill="none" stroke="#000000" stroke-dasharray="none" d="M279.56 245.29999999999995L297.57824 245.29999999999995"></path><g class="vf-stavenote" id="vf-auto3564139"><g class="vf-note" pointer-events="bounding-box"><g class="vf-stem" pointer-events="bounding-box"><path stroke-width="1.5" fill="none" stroke="#000000" stroke-dasharray="none" class="vf-stem" id="vf-auto3564139-stem" d="M283.31 240.29999999999995L283.31 275.29999999999995"></path></g><g class="vf-notehead" pointer-events="bounding-box"><path stroke-width="0.3" fill="#000000" stroke="none" stroke-dasharray="none" d="M282.56 240.29999999999995M289.91696 235.07711999999995C290.02928 235.07711999999995,290.19776 235.07711999999995,290.22584 235.07711999999995C290.22584 235.07711999999995,290.25392 235.07711999999995,290.25392 235.07711999999995C290.25392 235.07711999999995,290.4224 235.07711999999995,290.5628 235.07711999999995C293.09000000000003 235.21751999999995,294.57824 236.87423999999996,294.57824 238.95215999999996C294.57824 239.96303999999995,294.24128 241.11431999999996,293.39888 242.20943999999994C291.79832 244.37159999999994,289.18688 245.55095999999995,286.9124 245.55095999999995C285.14336000000003 245.55095999999995,283.62704 244.84895999999995,282.89696 243.41687999999996C282.67232 242.85527999999996,282.56 242.32175999999995,282.56 241.73207999999997C282.56 238.67135999999996,285.98576 235.27367999999996,289.91696 235.07711999999995"></path></g></g><g class="vf-modifiers"></g></g><rect stroke-width="0.3" fill="#000000" stroke="#000000" stroke-dasharray="none" x="351.63023359999994" y="166.5" width="1" height="129.79999999999995"></rect><rect stroke-width="0.3" fill="#000000" stroke="#000000" stroke-dasharray="none" x="70" y="166.5" width="1" height="129.79999999999995"></rect><path stroke-width="1" fill="none" stroke="#000000" stroke-dasharray="none" d="M351.6302336 255.29999999999998L551.0804671999999 255.29999999999998"></path><path stroke-width="1" fill="none" stroke="#000000" stroke-dasharray="none" d="M351.6302336 265.29999999999995L551.0804671999999 265.29999999999995"></path><path stroke-width="1" fill="none" stroke="#000000" stroke-dasharray="none" d="M351.6302336 275.29999999999995L551.0804671999999 275.29999999999995"></path><path stroke-width="1" fill="none" stroke="#000000" stroke-dasharray="none" d="M351.6302336 285.29999999999995L551.0804671999999 285.29999999999995"></path><path stroke-width="1" fill="none" stroke="#000000" stroke-dasharray="none" d="M351.6302336 295.29999999999995L551.0804671999999 295.29999999999995"></path><rect stroke-width="0.3" fill="#000000" stroke="#000000" stroke-dasharray="none" x="551.0804671999999" y="254.79999999999998" width="1" height="40.99999999999997"></rect><g class="vf-stavenote" id="vf-auto3564186"><g class="vf-note" pointer-events="bounding-box"><g class="vf-stem" pointer-events="bounding-box"><path stroke-width="1.5" fill="none" stroke="#000000" stroke-dasharray="none" class="vf-stem" id="vf-auto3564186-stem" d="M400.0469002666667 265.29999999999995L400.0469002666667 300.29999999999995"></path></g><g class="vf-notehead" pointer-events="bounding-box"><path stroke-width="0.3" fill="#000000" stroke="none" stroke-dasharray="none" d="M399.2969002666667 265.29999999999995M406.6538602666667 260.07712C406.7661802666667 260.07712,406.9346602666667 260.07712,406.9627402666667 260.07712C406.9627402666667 260.07712,406.9908202666667 260.07712,406.9908202666667 260.07712C406.9908202666667 260.07712,407.15930026666666 260.07712,407.29970026666666 260.07712C409.8269002666667 260.21752,411.3151402666667 261.87423999999993,411.3151402666667 263.95215999999994C411.3151402666667 264.96304,410.9781802666667 266.11431999999996,410.1357802666667 267.20944C408.53522026666667 269.37159999999994,405.92378026666665 270.55096,403.64930026666667 270.55096C401.8802602666667 270.55096,400.3639402666667 269.84896,399.63386026666666 268.41687999999994C399.4092202666667 267.85527999999994,399.2969002666667 267.3217599999999,399.2969002666667 266.73207999999994C399.2969002666667 263.67135999999994,402.7226602666667 260.27367999999996,406.6538602666667 260.07712"></path></g></g><g class="vf-modifiers"></g></g><g class="vf-stavenote" id="vf-auto3564194"><g class="vf-note" pointer-events="bounding-box"><g class="vf-stem" pointer-events="bounding-box"><path stroke-width="1.5" fill="none" stroke="#000000" stroke-dasharray="none" class="vf-stem" id="vf-auto3564194-stem" d="M522.7135669333334 250.29999999999995L522.7135669333334 285.29999999999995"></path></g><g class="vf-notehead" pointer-events="bounding-box"><path stroke-width="0.3" fill="#000000" stroke="none" stroke-dasharray="none" d="M521.9635669333334 250.29999999999995M529.3205269333333 245.07711999999995C529.4328469333334 245.07711999999995,529.6013269333333 245.07711999999995,529.6294069333334 245.07711999999995C529.6294069333334 245.07711999999995,529.6574869333334 245.07711999999995,529.6574869333334 245.07711999999995C529.6574869333334 245.07711999999995,529.8259669333333 245.07711999999995,529.9663669333333 245.07711999999995C532.4935669333333 245.21751999999995,533.9818069333334 246.87423999999996,533.9818069333334 248.95215999999996C533.9818069333334 249.96303999999995,533.6448469333334 251.11431999999996,532.8024469333334 252.20943999999994C531.2018869333334 254.37159999999994,528.5904469333334 255.55095999999995,526.3159669333334 255.55095999999995C524.5469269333333 255.55095999999995,523.0306069333334 254.84895999999995,522.3005269333333 253.41687999999996C522.0758869333333 252.85527999999996,521.9635669333334 252.32175999999995,521.9635669333334 251.73207999999997C521.9635669333334 248.67135999999996,525.3893269333333 245.27367999999996,529.3205269333333 245.07711999999995"></path></g></g><g class="vf-modifiers"></g></g><rect stroke-width="0.3" fill="#000000" stroke="#000000" stroke-dasharray="none" x="551.0804671999999" y="166.5" width="1" height="129.79999999999995"></rect><path stroke-width="1" fill="none" stroke="#000000" stroke-dasharray="none" d="M551.0804671999999 255.29999999999998L733.7307007999998 255.29999999999998"></path><path stroke-width="1" fill="none" stroke="#000000" stroke-dasharray="none" d="M551.0804671999999 265.29999999999995L733.7307007999998 265.29999999999995"></path><path stroke-width="1" fill="none" stroke="#000000" stroke-dasharray="none" d="M551.0804671999999 275.29999999999995L733.7307007999998 275.29999999999995"></path><path stroke-width="1" fill="none" stroke="#000000" stroke-dasharray="none" d="M551.0804671999999 285.29999999999995L733.7307007999998 285.29999999999995"></path><path stroke-width="1" fill="none" stroke="#000000" stroke-dasharray="none" d="M551.0804671999999 295.29999999999995L733.7307007999998 295.29999999999995"></path><rect stroke-width="0.3" fill="#000000" stroke="#000000" stroke-dasharray="none" x="733.7307007999998" y="254.79999999999998" width="1" height="40.99999999999997"></rect><g class="vf-stavenote" id="vf-auto3564206"><g class="vf-note" pointer-events="bounding-box"><g class="vf-stem" pointer-events="bounding-box"><path stroke-width="1.5" fill="none" stroke="#000000" stroke-dasharray="none" class="vf-stem" id="vf-auto3564206-stem" d="M568.8304671999999 255.29999999999995L568.8304671999999 290.29999999999995"></path></g><g class="vf-notehead" pointer-events="bounding-box"><path stroke-width="0.3" fill="#000000" stroke="none" stroke-dasharray="none" d="M568.0804671999999 255.29999999999995M575.4374271999999 250.07711999999995C575.5497472 250.07711999999995,575.7182271999999 250.07711999999995,575.7463071999999 250.07711999999995C575.7463071999999 250.07711999999995,575.7743872 250.07711999999995,575.7743872 250.07711999999995C575.7743872 250.07711999999995,575.9428671999999 250.07711999999995,576.0832671999999 250.07711999999995C578.6104671999999 250.21751999999995,580.0987071999999 251.87423999999996,580.0987071999999 253.95215999999996C580.0987071999999 254.96303999999995,579.7617472 256.11431999999996,578.9193472 257.20944C577.3187872 259.37159999999994,574.7073472 260.55096,572.4328671999999 260.55096C570.6638271999999 260.55096,569.1475072 259.84896,568.4174271999999 258.41687999999994C568.1927871999999 257.85527999999994,568.0804671999999 257.3217599999999,568.0804671999999 256.73207999999994C568.0804671999999 253.67135999999996,571.5062271999999 250.27367999999996,575.4374271999999 250.07711999999995"></path></g></g><g class="vf-modifiers"></g></g><path stroke-width="1" fill="none" stroke="#000000" stroke-dasharray="none" d="M592.9138005333333 245.29999999999995L610.9320405333333 245.29999999999995"></path><g class="vf-stavenote" id="vf-auto3564214"><g class="vf-note" pointer-events="bounding-box"><g class="vf-stem" pointer-events="bounding-box"><path stroke-width="1.5" fill="none" stroke="#000000" stroke-dasharray="none" class="vf-stem" id="vf-auto3564214-stem" d="M596.6638005333333 240.29999999999995L596.6638005333333 275.29999999999995"></path></g><g class="vf-notehead" pointer-events="bounding-box"><path stroke-width="0.3" fill="#000000" stroke="none" stroke-dasharray="none" d="M595.9138005333333 240.29999999999995M603.2707605333333 235.07711999999995C603.3830805333333 235.07711999999995,603.5515605333333 235.07711999999995,603.5796405333333 235.07711999999995C603.5796405333333 235.07711999999995,603.6077205333333 235.07711999999995,603.6077205333333 235.07711999999995C603.6077205333333 235.07711999999995,603.7762005333333 235.07711999999995,603.9166005333333 235.07711999999995C606.4438005333333 235.21751999999995,607.9320405333333 236.87423999999996,607.9320405333333 238.95215999999996C607.9320405333333 239.96303999999995,607.5950805333333 241.11431999999996,606.7526805333333 242.20943999999994C605.1521205333333 244.37159999999994,602.5406805333333 245.55095999999995,600.2662005333333 245.55095999999995C598.4971605333333 245.55095999999995,596.9808405333333 244.84895999999995,596.2507605333333 243.41687999999996C596.0261205333333 242.85527999999996,595.9138005333333 242.32175999999995,595.9138005333333 241.73207999999997C595.9138005333333 238.67135999999996,599.3395605333333 235.27367999999996,603.2707605333333 235.07711999999995"></path></g></g><g class="vf-modifiers"></g></g><g class="vf-stavenote" id="vf-auto3564222"><g class="vf-note" pointer-events="bounding-box"><g class="vf-stem" pointer-events="bounding-box"><path stroke-width="1.5" fill="none" stroke="#000000" stroke-dasharray="none" class="vf-stem" id="vf-auto3564222-stem" d="M624.4971338666666 250.29999999999995L624.4971338666666 285.29999999999995"></path></g><g class="vf-notehead" pointer-events="bounding-box"><path stroke-width="0.3" fill="#000000" stroke="none" stroke-dasharray="none" d="M623.7471338666666 250.29999999999995M631.1040938666665 245.07711999999995C631.2164138666666 245.07711999999995,631.3848938666665 245.07711999999995,631.4129738666666 245.07711999999995C631.4129738666666 245.07711999999995,631.4410538666666 245.07711999999995,631.4410538666666 245.07711999999995C631.4410538666666 245.07711999999995,631.6095338666665 245.07711999999995,631.7499338666665 245.07711999999995C634.2771338666665 245.21751999999995,635.7653738666666 246.87423999999996,635.7653738666666 248.95215999999996C635.7653738666666 249.96303999999995,635.4284138666666 251.11431999999996,634.5860138666666 252.20943999999994C632.9854538666666 254.37159999999994,630.3740138666666 255.55095999999995,628.0995338666665 255.55095999999995C626.3304938666665 255.55095999999995,624.8141738666666 254.84895999999995,624.0840938666665 253.41687999999996C623.8594538666665 252.85527999999996,623.7471338666666 252.32175999999995,623.7471338666666 251.73207999999997C623.7471338666666 248.67135999999996,627.1728938666665 245.27367999999996,631.1040938666665 245.07711999999995"></path></g></g><g class="vf-modifiers"></g></g><g class="vf-stavenote" id="vf-auto3564230"><g class="vf-note" pointer-events="bounding-box"><g class="vf-stem" pointer-events="bounding-box"><path stroke-width="1.5" fill="none" stroke="#000000" stroke-dasharray="none" class="vf-stem" id="vf-auto3564230-stem" d="M662.8487071999999 290.29999999999995L662.8487071999999 255.29999999999995"></path></g><g class="vf-notehead" pointer-events="bounding-box"><path stroke-width="0.3" fill="#000000" stroke="none" stroke-dasharray="none" d="M651.5804671999999 290.29999999999995M658.9374271999999 285.07712C659.0497472 285.07712,659.2182271999999 285.07712,659.2463071999999 285.07712C659.2463071999999 285.07712,659.2743872 285.07712,659.2743872 285.07712C659.2743872 285.07712,659.4428671999999 285.07712,659.5832671999999 285.07712C662.1104671999999 285.21752,663.5987071999999 286.87423999999993,663.5987071999999 288.95215999999994C663.5987071999999 289.96304,663.2617472 291.11431999999996,662.4193472 292.20944C660.8187872 294.37159999999994,658.2073472 295.55096,655.9328671999999 295.55096C654.1638271999999 295.55096,652.6475072 294.84896,651.9174271999999 293.41687999999994C651.6927871999999 292.85527999999994,651.5804671999999 292.3217599999999,651.5804671999999 291.73207999999994C651.5804671999999 288.67135999999994,655.0062271999999 285.27367999999996,658.9374271999999 285.07712"></path></g></g><g class="vf-modifiers"></g></g><g class="vf-stavenote" id="vf-auto3564238"><g class="vf-note" pointer-events="bounding-box"><g class="vf-stem" pointer-events="bounding-box"><path stroke-width="1.5" fill="none" stroke="#000000" stroke-dasharray="none" class="vf-stem" id="vf-auto3564238-stem" d="M680.1638005333333 260.29999999999995L680.1638005333333 295.29999999999995"></path></g><g class="vf-notehead" pointer-events="bounding-box"><path stroke-width="0.3" fill="#000000" stroke="none" stroke-dasharray="none" d="M679.4138005333333 260.29999999999995M686.7707605333333 255.07711999999995C686.8830805333333 255.07711999999995,687.0515605333333 255.07711999999995,687.0796405333333 255.07711999999995C687.0796405333333 255.07711999999995,687.1077205333333 255.07711999999995,687.1077205333333 255.07711999999995C687.1077205333333 255.07711999999995,687.2762005333333 255.07711999999995,687.4166005333333 255.07711999999995C689.9438005333333 255.21751999999995,691.4320405333333 256.87423999999993,691.4320405333333 258.95215999999994C691.4320405333333 259.96304,691.0950805333333 261.11431999999996,690.2526805333333 262.20944C688.6521205333333 264.37159999999994,686.0406805333333 265.55096,683.7662005333333 265.55096C681.9971605333333 265.55096,680.4808405333333 264.84896,679.7507605333333 263.41687999999994C679.5261205333333 262.85527999999994,679.4138005333333 262.3217599999999,679.4138005333333 261.73207999999994C679.4138005333333 258.67135999999994,682.8395605333333 255.27367999999996,686.7707605333333 255.07711999999995"></path></g></g><g class="vf-modifiers"></g></g><g class="vf-stavenote" id="vf-auto3564246"><g class="vf-note" pointer-events="bounding-box"><g class="vf-stem" pointer-events="bounding-box"><path stroke-width="1.5" fill="none" stroke="#000000" stroke-dasharray="none" class="vf-stem" id="vf-auto3564246-stem" d="M718.5153738666667 295.29999999999995L718.5153738666667 260.29999999999995"></path></g><g class="vf-notehead" pointer-events="bounding-box"><path stroke-width="0.3" fill="#000000" stroke="none" stroke-dasharray="none" d="M707.2471338666667 295.29999999999995M714.6040938666666 290.07712C714.7164138666667 290.07712,714.8848938666666 290.07712,714.9129738666667 290.07712C714.9129738666667 290.07712,714.9410538666667 290.07712,714.9410538666667 290.07712C714.9410538666667 290.07712,715.1095338666667 290.07712,715.2499338666667 290.07712C717.7771338666666 290.21752,719.2653738666667 291.87423999999993,719.2653738666667 293.95215999999994C719.2653738666667 294.96304,718.9284138666667 296.11431999999996,718.0860138666667 297.20944C716.4854538666667 299.37159999999994,713.8740138666667 300.55096,711.5995338666667 300.55096C709.8304938666666 300.55096,708.3141738666667 299.84896,707.5840938666666 298.41687999999994C707.3594538666666 297.85527999999994,707.2471338666667 297.3217599999999,707.2471338666667 296.73207999999994C707.2471338666667 293.67135999999994,710.6728938666666 290.27367999999996,714.6040938666666 290.07712"></path></g></g><g class="vf-modifiers"></g></g><rect stroke-width="0.3" fill="#000000" stroke="#000000" stroke-dasharray="none" x="733.7307007999998" y="166.5" width="1" height="129.79999999999995"></rect><path stroke-width="1" fill="none" stroke="#000000" stroke-dasharray="none" d="M733.7307007999999 255.29999999999998L920.5809343999999 255.29999999999998"></path><path stroke-width="1" fill="none" stroke="#000000" stroke-dasharray="none" d="M733.7307007999999 265.29999999999995L920.5809343999999 265.29999999999995"></path><path stroke-width="1" fill="none" stroke="#000000" stroke-dasharray="none" d="M733.7307007999999 275.29999999999995L920.5809343999999 275.29999999999995"></path><path stroke-width="1" fill="none" stroke="#000000" stroke-dasharray="none" d="M733.7307007999999 285.29999999999995L920.5809343999999 285.29999999999995"></path><path stroke-width="1" fill="none" stroke="#000000" stroke-dasharray="none" d="M733.7307007999999 295.29999999999995L920.5809343999999 295.29999999999995"></path><rect stroke-width="0.3" fill="#000000" stroke="#000000" stroke-dasharray="none" x="915.5809343999999" y="254.79999999999998" width="1" height="40.99999999999997"></rect><rect stroke-width="0.3" fill="#000000" stroke="#000000" stroke-dasharray="none" x="918.5809343999999" y="254.79999999999998" width="3" height="40.99999999999997"></rect><path stroke-width="1" fill="none" stroke="#000000" stroke-dasharray="none" d="M747.7307007999999 245.29999999999995L765.7489407999999 245.29999999999995"></path><g class="vf-stavenote" id="vf-auto3564266"><g class="vf-note" pointer-events="bounding-box"><g class="vf-stem" pointer-events="bounding-box"><path stroke-width="1.5" fill="none" stroke="#000000" stroke-dasharray="none" class="vf-stem" id="vf-auto3564266-stem" d="M751.4807007999999 240.29999999999995L751.4807007999999 275.29999999999995"></path></g><g class="vf-notehead" pointer-events="bounding-box"><path stroke-width="0.3" fill="#000000" stroke="none" stroke-dasharray="none" d="M750.7307007999999 240.29999999999995M758.0876607999999 235.07711999999995C758.1999807999999 235.07711999999995,758.3684607999999 235.07711999999995,758.3965407999999 235.07711999999995C758.3965407999999 235.07711999999995,758.4246208 235.07711999999995,758.4246208 235.07711999999995C758.4246208 235.07711999999995,758.5931007999999 235.07711999999995,758.7335007999999 235.07711999999995C761.2607007999999 235.21751999999995,762.7489407999999 236.87423999999996,762.7489407999999 238.95215999999996C762.7489407999999 239.96303999999995,762.4119807999999 241.11431999999996,761.5695807999999 242.20943999999994C759.9690208 244.37159999999994,757.3575807999999 245.55095999999995,755.0831007999999 245.55095999999995C753.3140607999999 245.55095999999995,751.7977407999999 244.84895999999995,751.0676607999999 243.41687999999996C750.8430207999999 242.85527999999996,750.7307007999999 242.32175999999995,750.7307007999999 241.73207999999997C750.7307007999999 238.67135999999996,754.1564607999999 235.27367999999996,758.0876607999999 235.07711999999995"></path></g></g><g class="vf-modifiers"></g></g><path stroke-width="1" fill="none" stroke="#000000" stroke-dasharray="none" d="M776.2307007999999 245.29999999999995L794.2489407999999 245.29999999999995"></path><g class="vf-stavenote" id="vf-auto3564274"><g class="vf-note" pointer-events="bounding-box"><g class="vf-stem" pointer-events="bounding-box"><path stroke-width="1.5" fill="none" stroke="#000000" stroke-dasharray="none" class="vf-stem" id="vf-auto3564274-stem" d="M779.9807007999999 240.29999999999995L779.9807007999999 275.29999999999995"></path></g><g class="vf-notehead" pointer-events="bounding-box"><path stroke-width="0.3" fill="#000000" stroke="none" stroke-dasharray="none" d="M779.2307007999999 240.29999999999995M786.5876607999999 235.07711999999995C786.6999807999999 235.07711999999995,786.8684607999999 235.07711999999995,786.8965407999999 235.07711999999995C786.8965407999999 235.07711999999995,786.9246208 235.07711999999995,786.9246208 235.07711999999995C786.9246208 235.07711999999995,787.0931007999999 235.07711999999995,787.2335007999999 235.07711999999995C789.7607007999999 235.21751999999995,791.2489407999999 236.87423999999996,791.2489407999999 238.95215999999996C791.2489407999999 239.96303999999995,790.9119807999999 241.11431999999996,790.0695807999999 242.20943999999994C788.4690208 244.37159999999994,785.8575807999999 245.55095999999995,783.5831007999999 245.55095999999995C781.8140607999999 245.55095999999995,780.2977407999999 244.84895999999995,779.5676607999999 243.41687999999996C779.3430207999999 242.85527999999996,779.2307007999999 242.32175999999995,779.2307007999999 241.73207999999997C779.2307007999999 238.67135999999996,782.6564607999999 235.27367999999996,786.5876607999999 235.07711999999995"></path></g></g><g class="vf-modifiers"></g></g><g class="vf-stavenote" id="vf-auto3564282"><g class="vf-note" pointer-events="bounding-box"><g class="vf-stem" pointer-events="bounding-box"><path stroke-width="1.5" fill="none" stroke="#000000" stroke-dasharray="none" class="vf-stem" id="vf-auto3564282-stem" d="M808.4807007999999 250.29999999999995L808.4807007999999 285.29999999999995"></path></g><g class="vf-notehead" pointer-events="bounding-box"><path stroke-width="0.3" fill="#000000" stroke="none" stroke-dasharray="none" d="M807.7307007999999 250.29999999999995M815.0876607999999 245.07711999999995C815.1999807999999 245.07711999999995,815.3684607999999 245.07711999999995,815.3965407999999 245.07711999999995C815.3965407999999 245.07711999999995,815.4246208 245.07711999999995,815.4246208 245.07711999999995C815.4246208 245.07711999999995,815.5931007999999 245.07711999999995,815.7335007999999 245.07711999999995C818.2607007999999 245.21751999999995,819.7489407999999 246.87423999999996,819.7489407999999 248.95215999999996C819.7489407999999 249.96303999999995,819.4119807999999 251.11431999999996,818.5695807999999 252.20943999999994C816.9690208 254.37159999999994,814.3575807999999 255.55095999999995,812.0831007999999 255.55095999999995C810.3140607999999 255.55095999999995,808.7977407999999 254.84895999999995,808.0676607999999 253.41687999999996C807.8430207999999 252.85527999999996,807.7307007999999 252.32175999999995,807.7307007999999 251.73207999999997C807.7307007999999 248.67135999999996,811.1564607999999 245.27367999999996,815.0876607999999 245.07711999999995"></path></g></g><g class="vf-modifiers"></g></g><g class="vf-stavenote" id="vf-auto3564290"><g class="vf-note" pointer-events="bounding-box"><g class="vf-stem" pointer-events="bounding-box"><path stroke-width="1.5" fill="none" stroke="#000000" stroke-dasharray="none" class="vf-stem" id="vf-auto3564290-stem" d="M836.9807007999999 250.29999999999995L836.9807007999999 285.29999999999995"></path></g><g class="vf-notehead" pointer-events="bounding-box"><path stroke-width="0.3" fill="#000000" stroke="none" stroke-dasharray="none" d="M836.2307007999999 250.29999999999995M843.5876607999999 245.07711999999995C843.6999807999999 245.07711999999995,843.8684607999999 245.07711999999995,843.8965407999999 245.07711999999995C843.8965407999999 245.07711999999995,843.9246208 245.07711999999995,843.9246208 245.07711999999995C843.9246208 245.07711999999995,844.0931007999999 245.07711999999995,844.2335007999999 245.07711999999995C846.7607007999999 245.21751999999995,848.2489407999999 246.87423999999996,848.2489407999999 248.95215999999996C848.2489407999999 249.96303999999995,847.9119807999999 251.11431999999996,847.0695807999999 252.20943999999994C845.4690208 254.37159999999994,842.8575807999999 255.55095999999995,840.5831007999999 255.55095999999995C838.8140607999999 255.55095999999995,837.2977407999999 254.84895999999995,836.5676607999999 253.41687999999996C836.3430207999999 252.85527999999996,836.2307007999999 252.32175999999995,836.2307007999999 251.73207999999997C836.2307007999999 248.67135999999996,839.6564607999999 245.27367999999996,843.5876607999999 245.07711999999995"></path></g></g><g class="vf-modifiers"></g></g><g class="vf-stavenote" id="vf-auto3564298"><g class="vf-note" pointer-events="bounding-box"><g class="vf-stem" pointer-events="bounding-box"><path stroke-width="1.5" fill="none" stroke="#000000" stroke-dasharray="none" class="vf-stem" id="vf-auto3564298-stem" d="M904.4989407999999 280.29999999999995L904.4989407999999 245.29999999999995"></path></g><g class="vf-notehead" pointer-events="bounding-box"><path stroke-width="0.3" fill="#000000" stroke="none" stroke-dasharray="none" d="M893.2307007999999 280.29999999999995M900.5876607999999 275.07712C900.6999807999999 275.07712,900.8684607999999 275.07712,900.8965407999999 275.07712C900.8965407999999 275.07712,900.9246208 275.07712,900.9246208 275.07712C900.9246208 275.07712,901.0931007999999 275.07712,901.2335007999999 275.07712C903.7607007999999 275.21752,905.2489407999999 276.87423999999993,905.2489407999999 278.95215999999994C905.2489407999999 279.96304,904.9119807999999 281.11431999999996,904.0695807999999 282.20944C902.4690208 284.37159999999994,899.8575807999999 285.55096,897.5831007999999 285.55096C895.8140607999999 285.55096,894.2977407999999 284.84896,893.5676607999999 283.41687999999994C893.3430207999999 282.85527999999994,893.2307007999999 282.3217599999999,893.2307007999999 281.73207999999994C893.2307007999999 278.67135999999994,896.6564607999999 275.27367999999996,900.5876607999999 275.07712"></path></g></g><g class="vf-modifiers"></g></g><rect stroke-width="0.3" fill="#000000" stroke="#000000" stroke-dasharray="none" x="915.5809343999999" y="166.5" width="1" height="129.79999999999995"></rect><rect stroke-width="0.3" fill="#000000" stroke="#000000" stroke-dasharray="none" x="918.5809343999999" y="166.5" width="3" height="129.79999999999995"></rect><path stroke-width="0.3" fill="#000000" stroke="none" stroke-dasharray="none" d="M68 166.5C45.2 192.45999999999998,81.2 213.87699999999998,56 231.39999999999998C81.2 248.92299999999997,45.2 270.34,68 296.29999999999995C44 270.34,72.8 248.92299999999997,56 231.39999999999998C72.8 213.87699999999998,44 192.45999999999998,68 166.5"></path><path stroke-width="1" fill="none" stroke="#000000" stroke-dasharray="none" d="M68 166.5C45.2 192.45999999999998,81.2 213.87699999999998,56 231.39999999999998C81.2 248.92299999999997,45.2 270.34,68 296.29999999999995C44 270.34,72.8 248.92299999999997,56 231.39999999999998C72.8 213.87699999999998,44 192.45999999999998,68 166.5"></path><g class="vf-text"><text stroke-width="0.3" fill="#000000" stroke="none" stroke-dasharray="none" font-family="Times New Roman" font-size="15px" font-weight="normal" font-style="normal" x="547.5804671999999" y="163.5">3</text></g></svg>