<svg xmlns="http://www.w3.org/2000/svg"  width="1470" height="376.8" viewBox="0 0 1470 376.8"><path stroke-width="1" fill="none" stroke="#000000" stroke-dasharray="none" d="M70 166.5L339.0302336 166.5"></path><path stroke-width="1" fill="none" stroke="#000000" stroke-dasharray="none" d="M70 176.5L339.0302336 176.5"></path><path stroke-width="1" fill="none" stroke="#000000" stroke-dasharray="none" d="M70 186.5L339.0302336 186.5"></path><path stroke-width="1" fill="none" stroke="#000000" stroke-dasharray="none" d="M70 196.5L339.0302336 196.5"></path><path stroke-width="1" fill="none" stroke="#000000" stroke-dasharray="none" d="M70 206.5L339.0302336 206.5"></path><rect stroke-width="0.3" fill="#000000" stroke="#000000" stroke-dasharray="none" x="339.0302336" y="166" width="1" height="41"></rect><g class="vf-clef"><path stroke-width="0.3" fill="#000000" stroke="none" stroke-dasharray="none" d="M75 196.5M89.0544 153.3288C89.112 153.3,89.1696 153.3,89.256 153.3C89.6016 153.3,90.0048 153.588,90.5808 154.308C92.9136 156.9864,94.5552 161.652,94.5552 165.4536C94.5552 165.7416,94.4976 165.972,94.4976 166.26C94.2384 170.7816,92.3952 174.4968,88.7376 178.0104L87.7584 178.9608L87.4128 179.3352L87.4128 179.4504L87.6144 180.3144L87.9312 181.8696L88.248 183.3096C88.68 185.268,88.8528 186.276,88.8528 186.276C88.8528 186.276,88.8528 186.276,88.8528 186.276C88.8528 186.276,88.968 186.276,89.112 186.2472C89.256 186.2472,89.7168 186.1896,90.2064 186.1896C90.55199999999999 186.1896,90.8976 186.2472,91.0704 186.2472C95.1312 186.7656,98.2704 189.6744,99.1632 193.764C99.336 194.4264,99.39359999999999 195.1464,99.39359999999999 195.8664C99.39359999999999 199.7544,97.0608 203.4696,93.1728 205.2264C92.94239999999999 205.3704,92.856 205.3992,92.856 205.3992L92.856 205.428C92.856 205.428,93.0288 206.0904,93.1728 206.8392L93.6048 209.028L94.008 210.7848C94.2384 211.908,94.3536 212.7144,94.3536 213.4344C94.3536 214.06799999999998,94.2672 214.644,94.1232 215.3064C93.144 219.3096,89.6592 221.7,86.0304 221.7C84.2448 221.7,82.4016 221.124,80.7888 219.828C79.3488 218.6184,78.7152 217.524,78.7152 216.084C78.7152 213.5496,80.76 211.764,82.8912 211.764C83.64 211.764,84.3888 211.99439999999998,85.1088 212.4264C86.3184 213.2616,86.8656 214.5288,86.8656 215.7672C86.8656 217.668,85.5408 219.54,83.2656 219.684L83.0352 219.684L83.208 219.79919999999998C84.1584 220.2024,85.1088 220.404,86.0304 220.404C88.3632 220.404,90.55199999999999 219.2232,91.8768 217.1784C92.62559999999999 216.0264,93.0288 214.6728,93.0288 213.3192C93.0288 212.8008,92.94239999999999 212.2824,92.8272 211.7064C92.8272 211.6488,92.74080000000001 211.188,92.62559999999999 210.756C91.992 207.6456,91.6176 205.8312,91.6176 205.8312C91.6176 205.8312,91.6176 205.8312,91.6176 205.8312C91.56 205.8312,91.4448 205.8312,91.3584 205.8888C91.0704 205.9464,90.4656 206.0904,90.2064 206.1192C89.5728 206.2056,88.968 206.2344,88.392 206.2344C82.74719999999999 206.2344,77.5056 202.4328,75.6912 196.8168C75.2304 195.3192,74.9712 193.8216,74.9712 192.324C74.9712 189.3288,75.9216 186.3912,77.7648 183.7704C79.7808 180.9192,81.7968 178.4712,84.2736 175.9368L85.13759999999999 175.044L84.936 173.9784L84.5616 172.2216L84.072 169.9752C83.928 169.14,83.7552 168.3336,83.7264 168.1608C83.5824 167.2104,83.496 166.2888,83.496 165.3384C83.496 161.7096,84.6768 158.22480000000002,86.8944 155.4312C87.5568 154.5672,88.7376 153.4152,89.0544 153.3288M90.8112 159.0312C90.7536 159.0312,90.6672 159.0312,90.5808 159.0312C89.4 159.0312,87.8736 160.1256,86.8368 161.7384C85.7712 163.32240000000002,85.224 165.4248,85.224 167.5848C85.224 168.1608,85.25280000000001 168.7656,85.3392 169.3704C85.4256 169.8024,85.45439999999999 170.0904,85.6848 171.12720000000002L86.088 172.9416C86.2032 173.4888,86.28960000000001 173.92079999999999,86.28960000000001 173.9784L86.28960000000001 173.9784C86.3184 173.9784,87.2112 172.9992,87.4992 172.6536C90.3792 169.3992,92.1072 165.972,92.4816 162.948C92.5104 162.66,92.5104 162.4296,92.5104 162.1416C92.5104 161.24880000000002,92.3952 160.38479999999998,92.1936 159.924C91.9632 159.4632,91.4448 159.0888,90.8112 159.0312M86.4624 181.2936C86.4048 180.8904,86.3184 180.5736,86.3184 180.516C86.3184 180.516,86.3184 180.516,86.28960000000001 180.516C86.232 180.516,84.9936 181.956,84.1296 182.964C82.6608 184.7496,81.1056 186.8808,80.472 187.9176C79.2624 189.9624,78.6576 192.2376,78.6576 194.484C78.6576 195.9528,78.9456 197.364,79.464 198.7176C81.0192 202.7208,84.5904 205.2264,88.4784 205.2264C88.9392 205.2264,89.4576 205.1976,89.9472 205.1112C90.5808 204.996,91.3584 204.7656,91.3584 204.6792L91.3584 204.6792C91.3584 204.6792,91.3008 204.3912,91.2144 204.0744L90.3792 199.956L89.7168 196.8744L89.2848 194.7432L88.824 192.6696C88.5936 191.4312,88.5072 191.1144,88.5072 191.1144C88.5072 191.1144,88.5072 191.0856,88.4784 191.0856C88.3056 191.0856,87.384 191.5464,86.9808 191.8344C85.4832 192.8712,84.7056 194.5128,84.7056 196.1256C84.7056 197.652,85.45439999999999 199.1784,86.8944 200.0712C87.2112 200.2728,87.3264 200.4456,87.3264 200.6472C87.3264 200.676,87.3264 200.7624,87.3264 200.7912C87.2688 201.1368,87.0672 201.2808,86.7792 201.2808C86.664 201.2808,86.52 201.252,86.3472 201.1656C83.6976 200.0136,81.912 197.2776,81.912 194.2824L81.912 194.2824C81.912 190.8264,84.072 187.8312,87.384 186.6504L87.5568 186.5928L87.2688 185.1528L86.4624 181.2936M90.7824 190.9128C90.55199999999999 190.88400000000001,90.3216 190.88400000000001,90.1488 190.88400000000001C90.0912 190.88400000000001,90.0048 190.88400000000001,89.9472 190.88400000000001L89.8032 190.88400000000001L89.9184 191.4024L90.5232 194.2248L90.8976 196.068L91.3008 197.8824L92.1072 201.8856L92.424 203.412C92.5392 203.8152,92.5968 204.1608,92.62559999999999 204.1608C92.62559999999999 204.1608,92.62559999999999 204.1608,92.62559999999999 204.1608C92.6544 204.1608,93.144 203.8728,93.4608 203.6424C94.9296 202.6056,96.024 200.9928,96.4272 199.3224C96.5712 198.7752,96.6288 198.1992,96.6288 197.652C96.6288 194.3112,94.152 191.2872,90.7824 190.9128"></path></g><path stroke-width="0.3" fill="#000000" stroke="none" stroke-dasharray="none" d="M116 186.5M123.344 167.8376C123.4592 167.8376,123.6608 167.8376,123.8912 167.8376C124.2944 167.8376,124.8416 167.8376,125.0432 167.8952C126.7712 168.1544,128.6144 169.3928,128.96 170.516C129.0464 170.7752,129.0752 171.00560000000002,129.0752 171.236C129.0752 172.532,127.9808 173.5112,126.8 173.5112C126.3392 173.5112,125.8784 173.39600000000002,125.4464 173.0504C124.928 172.5896,124.64 172.0136,124.64 171.3512C124.64 170.4584,125.1872 169.5368,126.13759999999999 169.2776C126.224 169.2776,126.25280000000001 169.2488,126.25280000000001 169.2488C126.25280000000001 169.2488,126.224 169.1912,126.13759999999999 169.1624C125.504 168.8744,124.8704 168.7592,124.2944 168.7592C123.4016 168.7592,122.624 169.076,122.048 169.6808C121.4432 170.4008,121.0112 171.8696,120.7232 174.0296C120.6944 174.548,120.608 175.5272,120.608 175.7288C120.608 175.7288,120.608 175.7288,120.608 175.7288C120.608 175.7288,120.608 175.7288,120.608 175.7288C120.608 175.7288,120.7232 175.6712,120.83840000000001 175.6424C121.76 175.268,122.5664 175.124,123.4304 175.124C124.4672 175.124,125.4464 175.3544,126.5408 175.9304C128.5568 176.9096,129.68 178.3496,129.68 180.0776C129.68 180.308,129.6224 180.5672,129.5936 180.8264C129.3056 182.4392,128.0672 183.764,126.0512 184.628C125.1296 185.0312,124.2944 185.2616,123.4592 185.2616C122.624 185.2616,121.76 185.0024,120.8096 184.5128C118.304 183.2456,116.576 180.88400000000001,116.1152 178.148C116.0288 177.6008,116 177.0536,116 176.4488C116 175.2392,116.1728 174.0296,116.576 173.0504C117.6704 170.2856,120.464 168.1544,123.344 167.8376M123.74719999999999 176.0456C123.632 176.0456,123.5168 176.0456,123.4016 176.0456C122.7968 176.0456,122.336 176.2472,122.048 176.564C121.6448 177.1688,121.35679999999999 178.6664,121.35679999999999 179.9912C121.35679999999999 180.2792,121.35679999999999 180.5672,121.3856 180.7976C121.5008 182.1512,121.8176 183.2744,122.1344 183.764C122.3648 184.1096,122.8544 184.3112,123.4016 184.3112C123.5168 184.3112,123.6608 184.3112,123.776 184.2824C124.6112 184.1672,124.928 183.6488,125.2448 182.0072C125.3888 181.2296,125.4752 180.5672,125.4752 179.9048C125.4752 179.2424,125.3888 178.6088,125.2448 177.8312C124.9568 176.6504,124.5824 176.1608,123.74719999999999 176.0456M122.7968 186.5288L122.8544 186.5288L122.768 186.5288L122.7968 186.5288M122.7968 167.1176L122.8544 167.1176L122.768 167.1176L122.7968 167.1176"></path><path stroke-width="0.3" fill="#000000" stroke="none" stroke-dasharray="none" d="M116.1008 206.5M121.11200000000001 188.1544C121.14080000000001 188.1256,121.54400000000001 188.1256,122.78240000000001 188.1256C123.1568 188.1256,123.56 188.1256,124.0784 188.1256L126.9872 188.1256L127.0736 188.212C127.2176 188.29840000000002,127.304 188.4424,127.304 188.5576C127.304 188.7304,127.2176 188.8456,127.1024 188.9608C127.0736 189.0472,126.8144 189.2776,126.64160000000001 189.5368L125.1152 191.2936L123.1568 193.5112L122.12 194.692L120.5648 196.4776L118.52000000000001 198.8104C118.1744 199.2424,117.80000000000001 199.588,117.80000000000001 199.588C117.80000000000001 199.588,117.80000000000001 199.588,117.80000000000001 199.588C117.80000000000001 199.6456,118.0592 199.6456,120.4496 199.6456L123.0704 199.6456L123.0704 197.7736C123.0704 195.8728,123.0704 195.844,123.09920000000001 195.8152C123.1568 195.7288,123.41600000000001 195.412,124.424 194.2312L124.8272 193.7992L125.2304 193.3672L125.8352 192.5896L126.4688 191.9272L126.7856 191.524C126.9008 191.3512,127.0736 191.3224,127.2176 191.3224C127.3904 191.3224,127.5344 191.4088,127.6208 191.5528C127.6496 191.6392,127.6496 191.6968,127.6496 193.828C127.6496 194.3176,127.6496 194.9224,127.6496 195.6424L127.6496 199.6456L128.3696 199.6456C129.032 199.6456,129.0608 199.6456,129.1472 199.6744C129.3776 199.7608,129.49280000000002 199.9912,129.49280000000002 200.2504C129.49280000000002 200.3944,129.464 200.5672,129.3488 200.6824C129.17600000000002 200.8264,129.1472 200.8264,128.3696 200.8264L127.6496 200.8264L127.6496 201.316C127.67840000000001 202.7848,127.96640000000001 203.3608,129.08960000000002 203.9656C129.49280000000002 204.1672,129.57920000000001 204.2248,129.57920000000001 204.5128C129.57920000000001 204.7144,129.5216 204.8008,129.3776 204.916L129.2912 204.9448L125.3456 204.9448L121.42880000000001 204.9448L121.34240000000001 204.916C121.1696 204.8008,121.14080000000001 204.7144,121.14080000000001 204.5128C121.14080000000001 204.2248,121.1696 204.1672,121.6016 203.9656C122.7248 203.3608,123.01280000000001 202.7848,123.01280000000001 201.316L123.01280000000001 200.8264L119.7008 200.8264C119.096 200.88400000000001,118.60640000000001 200.88400000000001,118.20320000000001 200.88400000000001C116.3888 200.88400000000001,116.36000000000001 200.8264,116.33120000000001 200.8264C116.1584 200.7688,116.1008 200.596,116.1008 200.3944C116.1008 200.3944,116.1008 200.3944,116.1008 200.3944C116.1008 200.1928,116.1008 200.1928,116.6768 199.5304C119.096 196.5928,120.79520000000001 192.3304,120.79520000000001 188.93200000000002C120.79520000000001 188.4136,120.8816 188.2408,121.11200000000001 188.1544M122.84 206.5288L122.86880000000001 206.5288L122.78240000000001 206.5288L122.84 206.5288M122.84 187.1176L122.86880000000001 187.1176L122.78240000000001 187.1176L122.84 187.1176"></path><g class="vf-stavenote" id="vf-auto4172713"><g class="vf-note" pointer-events="bounding-box"><g class="vf-stem" pointer-events="bounding-box"><path stroke-width="1.5" fill="none" stroke="#000000" stroke-dasharray="none" class="vf-stem" id="vf-auto4172713-stem" d="M275.31 176.5L275.31 211.5"></path></g><g class="vf-notehead" pointer-events="bounding-box"><path stroke-width="0.3" fill="#000000" stroke="none" stroke-dasharray="none" d="M274.56 176.5M281.91696 171.27712C282.02928 171.27712,282.19776 171.27712,282.22584 171.27712C282.22584 171.27712,282.25392 171.27712,282.25392 171.27712C282.25392 171.27712,282.4224 171.27712,282.5628 171.27712C285.09000000000003 171.41752,286.57824 173.07424,286.57824 175.15216C286.57824 176.16304,286.24128 177.31432,285.39888 178.40944C283.79832 180.5716,281.18688 181.75096,278.9124 181.75096C277.14336000000003 181.75096,275.62704 181.04896,274.89696 179.61688C274.67232 179.05528,274.56 178.52176,274.56 177.93208C274.56 174.87136,277.98576 171.47368,281.91696 171.27712"></path></g></g><g class="vf-modifiers"></g></g><path stroke-width="1" fill="none" stroke="#000000" stroke-dasharray="none" d="M339.0302335999999 166.5L538.4804671999998 166.5"></path><path stroke-width="1" fill="none" stroke="#000000" stroke-dasharray="none" d="M339.0302335999999 176.5L538.4804671999998 176.5"></path><path stroke-width="1" fill="none" stroke="#000000" stroke-dasharray="none" d="M339.0302335999999 186.5L538.4804671999998 186.5"></path><path stroke-width="1" fill="none" stroke="#000000" stroke-dasharray="none" d="M339.0302335999999 196.5L538.4804671999998 196.5"></path><path stroke-width="1" fill="none" stroke="#000000" stroke-dasharray="none" d="M339.0302335999999 206.5L538.4804671999998 206.5"></path><rect stroke-width="0.3" fill="#000000" stroke="#000000" stroke-dasharray="none" x="538.4804671999998" y="166" width="1" height="41"></rect><g class="vf-stavenote" id="vf-auto4172766"><g class="vf-note" pointer-events="bounding-box"><g class="vf-stem" pointer-events="bounding-box"><path stroke-width="1.5" fill="none" stroke="#000000" stroke-dasharray="none" class="vf-stem" id="vf-auto4172766-stem" d="M367.2984735999999 191.5L367.2984735999999 156.5"></path></g><g class="vf-notehead" pointer-events="bounding-box"><path stroke-width="0.3" fill="#000000" stroke="none" stroke-dasharray="none" d="M356.0302335999999 191.5M363.38719359999993 186.27712C363.49951359999994 186.27712,363.66799359999993 186.27712,363.6960735999999 186.27712C363.6960735999999 186.27712,363.7241535999999 186.27712,363.7241535999999 186.27712C363.7241535999999 186.27712,363.8926335999999 186.27712,364.0330335999999 186.27712C366.56023359999995 186.41752,368.0484735999999 188.07424,368.0484735999999 190.15216C368.0484735999999 191.16304,367.71151359999993 192.31432,366.86911359999993 193.40944C365.2685535999999 195.5716,362.6571135999999 196.75096,360.3826335999999 196.75096C358.61359359999994 196.75096,357.09727359999994 196.04896,356.3671935999999 194.61688C356.1425535999999 194.05528,356.0302335999999 193.52176,356.0302335999999 192.93208C356.0302335999999 189.87136,359.45599359999994 186.47368,363.38719359999993 186.27712"></path></g></g><g class="vf-modifiers"></g></g><g class="vf-stavenote" id="vf-auto4172774"><g class="vf-note" pointer-events="bounding-box"><g class="vf-stem" pointer-events="bounding-box"><path stroke-width="1.5" fill="none" stroke="#000000" stroke-dasharray="none" class="vf-stem" id="vf-auto4172774-stem" d="M397.9651402666666 211.5L397.9651402666666 176.5"></path></g><g class="vf-notehead" pointer-events="bounding-box"><path stroke-width="0.3" fill="#000000" stroke="none" stroke-dasharray="none" d="M386.6969002666666 211.5M394.0538602666666 206.27712C394.16618026666663 206.27712,394.3346602666666 206.27712,394.3627402666666 206.27712C394.3627402666666 206.27712,394.3908202666666 206.27712,394.3908202666666 206.27712C394.3908202666666 206.27712,394.5593002666666 206.27712,394.6997002666666 206.27712C397.2269002666666 206.41752,398.7151402666666 208.07424,398.7151402666666 210.15216C398.7151402666666 211.16304,398.3781802666666 212.31432,397.5357802666666 213.40944C395.9352202666666 215.5716,393.32378026666663 216.75096,391.0493002666666 216.75096C389.28026026666663 216.75096,387.7639402666666 216.04896,387.0338602666666 214.61688C386.8092202666666 214.05528,386.6969002666666 213.52176,386.6969002666666 212.93208C386.6969002666666 209.87136,390.1226602666666 206.47368,394.0538602666666 206.27712"></path></g></g><g class="vf-modifiers"></g></g><g class="vf-stavenote" id="vf-auto4172782"><g class="vf-note" pointer-events="bounding-box"><g class="vf-stem" pointer-events="bounding-box"><path stroke-width="1.5" fill="none" stroke="#000000" stroke-dasharray="none" class="vf-stem" id="vf-auto4172782-stem" d="M448.7802335999999 186.5L448.7802335999999 221.5"></path></g><g class="vf-notehead" pointer-events="bounding-box"><path stroke-width="0.3" fill="#000000" stroke="none" stroke-dasharray="none" d="M448.0302335999999 186.5M455.38719359999993 181.27712C455.49951359999994 181.27712,455.66799359999993 181.27712,455.6960735999999 181.27712C455.6960735999999 181.27712,455.7241535999999 181.27712,455.7241535999999 181.27712C455.7241535999999 181.27712,455.8926335999999 181.27712,456.0330335999999 181.27712C458.56023359999995 181.41752,460.0484735999999 183.07424,460.0484735999999 185.15216C460.0484735999999 186.16304,459.71151359999993 187.31432,458.86911359999993 188.40944C457.2685535999999 190.5716,454.6571135999999 191.75096,452.3826335999999 191.75096C450.61359359999994 191.75096,449.09727359999994 191.04896,448.3671935999999 189.61688C448.1425535999999 189.05528,448.0302335999999 188.52176,448.0302335999999 187.93208C448.0302335999999 184.87136,451.45599359999994 181.47368,455.38719359999993 181.27712"></path></g></g><g class="vf-modifiers"></g></g><path stroke-width="1" fill="none" stroke="#000000" stroke-dasharray="none" d="M506.36356693333323 216.5L524.3818069333332 216.5"></path><g class="vf-stavenote" id="vf-auto4172790"><g class="vf-note" pointer-events="bounding-box"><g class="vf-stem" pointer-events="bounding-box"><path stroke-width="1.5" fill="none" stroke="#000000" stroke-dasharray="none" class="vf-stem" id="vf-auto4172790-stem" d="M520.6318069333332 216.5L520.6318069333332 181.5"></path></g><g class="vf-notehead" pointer-events="bounding-box"><path stroke-width="0.3" fill="#000000" stroke="none" stroke-dasharray="none" d="M509.36356693333323 216.5M516.7205269333332 211.27712C516.8328469333333 211.27712,517.0013269333332 211.27712,517.0294069333332 211.27712C517.0294069333332 211.27712,517.0574869333333 211.27712,517.0574869333333 211.27712C517.0574869333333 211.27712,517.2259669333332 211.27712,517.3663669333332 211.27712C519.8935669333332 211.41752,521.3818069333332 213.07424,521.3818069333332 215.15216C521.3818069333332 216.16304,521.0448469333332 217.31432,520.2024469333332 218.40944C518.6018869333333 220.5716,515.9904469333333 221.75096,513.7159669333332 221.75096C511.94692693333326 221.75096,510.43060693333325 221.04896,509.7005269333332 219.61688C509.47588693333324 219.05528,509.36356693333323 218.52176,509.36356693333323 217.93208C509.36356693333323 214.87136,512.7893269333332 211.47368,516.7205269333332 211.27712"></path></g></g><g class="vf-modifiers"></g></g><path stroke-width="1" fill="none" stroke="#000000" stroke-dasharray="none" d="M538.4804671999998 166.5L733.7307007999998 166.5"></path><path stroke-width="1" fill="none" stroke="#000000" stroke-dasharray="none" d="M538.4804671999998 176.5L733.7307007999998 176.5"></path><path stroke-width="1" fill="none" stroke="#000000" stroke-dasharray="none" d="M538.4804671999998 186.5L733.7307007999998 186.5"></path><path stroke-width="1" fill="none" stroke="#000000" stroke-dasharray="none" d="M538.4804671999998 196.5L733.7307007999998 196.5"></path><path stroke-width="1" fill="none" stroke="#000000" stroke-dasharray="none" d="M538.4804671999998 206.5L733.7307007999998 206.5"></path><rect stroke-width="0.3" fill="#000000" stroke="#000000" stroke-dasharray="none" x="733.7307007999998" y="166" width="1" height="41"></rect><g class="vf-stavenote" id="vf-auto4172821"><g class="vf-note" pointer-events="bounding-box"><g class="vf-stem" pointer-events="bounding-box"><path stroke-width="1.5" fill="none" stroke="#000000" stroke-dasharray="none" class="vf-stem" id="vf-auto4172821-stem" d="M596.7487071999998 191.5L596.7487071999998 156.5"></path></g><g class="vf-notehead" pointer-events="bounding-box"><path stroke-width="0.3" fill="#000000" stroke="none" stroke-dasharray="none" d="M585.4804671999998 191.5M592.8374271999998 186.27712C592.9497471999998 186.27712,593.1182271999998 186.27712,593.1463071999998 186.27712C593.1463071999998 186.27712,593.1743871999998 186.27712,593.1743871999998 186.27712C593.1743871999998 186.27712,593.3428671999998 186.27712,593.4832671999998 186.27712C596.0104671999998 186.41752,597.4987071999998 188.07424,597.4987071999998 190.15216C597.4987071999998 191.16304,597.1617471999998 192.31432,596.3193471999998 193.40944C594.7187871999998 195.5716,592.1073471999998 196.75096,589.8328671999998 196.75096C588.0638271999998 196.75096,586.5475071999998 196.04896,585.8174271999998 194.61688C585.5927871999997 194.05528,585.4804671999998 193.52176,585.4804671999998 192.93208C585.4804671999998 189.87136,588.9062271999998 186.47368,592.8374271999998 186.27712"></path></g></g><g class="vf-modifiers"></g></g><g class="vf-stavenote" id="vf-auto4172829"><g class="vf-note" pointer-events="bounding-box"><g class="vf-stem" pointer-events="bounding-box"><path stroke-width="1.5" fill="none" stroke="#000000" stroke-dasharray="none" class="vf-stem" id="vf-auto4172829-stem" d="M626.7487071999998 201.5L626.7487071999998 166.5"></path></g><g class="vf-notehead" pointer-events="bounding-box"><path stroke-width="0.3" fill="#000000" stroke="none" stroke-dasharray="none" d="M615.4804671999998 201.5M622.8374271999998 196.27712C622.9497471999998 196.27712,623.1182271999998 196.27712,623.1463071999998 196.27712C623.1463071999998 196.27712,623.1743871999998 196.27712,623.1743871999998 196.27712C623.1743871999998 196.27712,623.3428671999998 196.27712,623.4832671999998 196.27712C626.0104671999998 196.41752,627.4987071999998 198.07424,627.4987071999998 200.15216C627.4987071999998 201.16304,627.1617471999998 202.31432,626.3193471999998 203.40944C624.7187871999998 205.5716,622.1073471999998 206.75096,619.8328671999998 206.75096C618.0638271999998 206.75096,616.5475071999998 206.04896,615.8174271999998 204.61688C615.5927871999997 204.05528,615.4804671999998 203.52176,615.4804671999998 202.93208C615.4804671999998 199.87136,618.9062271999998 196.47368,622.8374271999998 196.27712"></path></g></g><g class="vf-modifiers"></g></g><g class="vf-stavenote" id="vf-auto4172837"><g class="vf-note" pointer-events="bounding-box"><g class="vf-stem" pointer-events="bounding-box"><path stroke-width="1.5" fill="none" stroke="#000000" stroke-dasharray="none" class="vf-stem" id="vf-auto4172837-stem" d="M716.7487071999998 191.5L716.7487071999998 156.5"></path></g><g class="vf-notehead" pointer-events="bounding-box"><path stroke-width="0.3" fill="#000000" stroke="none" stroke-dasharray="none" d="M705.4804671999998 191.5M712.8374271999998 186.27712C712.9497471999998 186.27712,713.1182271999998 186.27712,713.1463071999998 186.27712C713.1463071999998 186.27712,713.1743871999998 186.27712,713.1743871999998 186.27712C713.1743871999998 186.27712,713.3428671999998 186.27712,713.4832671999998 186.27712C716.0104671999998 186.41752,717.4987071999998 188.07424,717.4987071999998 190.15216C717.4987071999998 191.16304,717.1617471999998 192.31432,716.3193471999998 193.40944C714.7187871999998 195.5716,712.1073471999998 196.75096,709.8328671999998 196.75096C708.0638271999998 196.75096,706.5475071999998 196.04896,705.8174271999998 194.61688C705.5927871999997 194.05528,705.4804671999998 193.52176,705.4804671999998 192.93208C705.4804671999998 189.87136,708.9062271999998 186.47368,712.8374271999998 186.27712"></path></g></g><g class="vf-modifiers"></g></g><path stroke-width="1" fill="none" stroke="#000000" stroke-dasharray="none" d="M733.7307007999998 166.5L930.5809343999997 166.5"></path><path stroke-width="1" fill="none" stroke="#000000" stroke-dasharray="none" d="M733.7307007999998 176.5L930.5809343999997 176.5"></path><path stroke-width="1" fill="none" stroke="#000000" stroke-dasharray="none" d="M733.7307007999998 186.5L930.5809343999997 186.5"></path><path stroke-width="1" fill="none" stroke="#000000" stroke-dasharray="none" d="M733.7307007999998 196.5L930.5809343999997 196.5"></path><path stroke-width="1" fill="none" stroke="#000000" stroke-dasharray="none" d="M733.7307007999998 206.5L930.5809343999997 206.5"></path><rect stroke-width="0.3" fill="#000000" stroke="#000000" stroke-dasharray="none" x="925.5809343999997" y="166" width="1" height="41"></rect><rect stroke-width="0.3" fill="#000000" stroke="#000000" stroke-dasharray="none" x="928.5809343999997" y="166" width="3" height="41"></rect><path stroke-width="0.3" fill="#000000" stroke="none" stroke-dasharray="none" d="M924.5809343999997 182 A2 2 0 0 0 920.5809343999997 182M920.5809343999997 182 A2 2 0 0 0 924.5809343999997 182"></path><path stroke-width="0.3" fill="#000000" stroke="none" stroke-dasharray="none" d="M924.5809343999997 192 A2 2 0 0 0 920.5809343999997 192M920.5809343999997 192 A2 2 0 0 0 924.5809343999997 192"></path><g class="vf-stavenote" id="vf-auto4172875"><g class="vf-note" pointer-events="bounding-box"><g class="vf-stem" pointer-events="bounding-box"><path stroke-width="1.5" fill="none" stroke="#000000" stroke-dasharray="none" class="vf-stem" id="vf-auto4172875-stem" d="M902.3140341333332 186.5L902.3140341333332 221.5"></path></g><g class="vf-notehead" pointer-events="bounding-box"><path stroke-width="0.3" fill="#000000" stroke="none" stroke-dasharray="none" d="M901.5640341333332 186.5M908.9209941333331 181.27712C909.0333141333332 181.27712,909.2017941333331 181.27712,909.2298741333332 181.27712C909.2298741333332 181.27712,909.2579541333332 181.27712,909.2579541333332 181.27712C909.2579541333332 181.27712,909.4264341333331 181.27712,909.5668341333331 181.27712C912.0940341333331 181.41752,913.5822741333332 183.07424,913.5822741333332 185.15216C913.5822741333332 186.16304,913.2453141333332 187.31432,912.4029141333332 188.40944C910.8023541333332 190.5716,908.1909141333332 191.75096,905.9164341333332 191.75096C904.1473941333331 191.75096,902.6310741333332 191.04896,901.9009941333331 189.61688C901.6763541333331 189.05528,901.5640341333332 188.52176,901.5640341333332 187.93208C901.5640341333332 184.87136,904.9897941333331 181.47368,908.9209941333331 181.27712"></path></g></g><g class="vf-modifiers"></g></g><g class="vf-text"><text stroke-width="0.3" fill="#000000" stroke="none" stroke-dasharray="none" font-family="Times New Roman" font-size="23px" font-weight="bold" font-style="italic" x="160.18" y="240.5">pp</text></g><path stroke-width="1" fill="none" stroke="#000000" stroke-dasharray="none" d="M70 255.29999999999998L339.0302336 255.29999999999998"></path><path stroke-width="1" fill="none" stroke="#000000" stroke-dasharray="none" d="M70 265.29999999999995L339.0302336 265.29999999999995"></path><path stroke-width="1" fill="none" stroke="#000000" stroke-dasharray="none" d="M70 275.29999999999995L339.0302336 275.29999999999995"></path><path stroke-width="1" fill="none" stroke="#000000" stroke-dasharray="none" d="M70 285.29999999999995L339.0302336 285.29999999999995"></path><path stroke-width="1" fill="none" stroke="#000000" stroke-dasharray="none" d="M70 295.29999999999995L339.0302336 295.29999999999995"></path><rect stroke-width="0.3" fill="#000000" stroke="#000000" stroke-dasharray="none" x="339.0302336" y="254.79999999999998" width="1" height="40.99999999999997"></rect><g class="vf-clef"><path stroke-width="0.3" fill="#000000" stroke="none" stroke-dasharray="none" d="M75 265.29999999999995M83.8416 255.24879999999996C84.072 255.19119999999995,84.3024 255.19119999999995,84.5616 255.19119999999995C85.5696 255.19119999999995,86.7504 255.30639999999997,87.7584 255.50799999999995C92.4816 256.4872,95.736 259.68399999999997,96.3408 263.9464C96.3984 264.40719999999993,96.4272 264.83919999999995,96.4272 265.29999999999995C96.4272 267.89199999999994,95.5344 271.23279999999994,94.008 274.02639999999997C90.3792 280.59279999999995,83.7552 285.316,75.8064 287.044C75.6624 287.044,75.5472 287.0728,75.4032 287.0728C75.1152 287.0728,74.9712 286.9,74.9712 286.64079999999996C74.9712 286.35279999999995,75.0288 286.2664,75.6048 286.03599999999994C84.7056 282.6088,90.7824 275.20719999999994,91.3296 266.91279999999995C91.3584 266.48079999999993,91.3584 265.99119999999994,91.3584 265.61679999999996C91.3584 261.5848,90.12 258.58959999999996,87.7296 257.0919999999999C86.6928 256.42959999999994,85.5696 256.11279999999994,84.36 256.11279999999994C81.6816 256.11279999999994,78.9456 257.63919999999996,77.6784 260.20239999999995C77.6208 260.40399999999994,77.4192 260.83599999999996,77.4192 260.86479999999995C77.4192 260.86479999999995,77.4192 260.86479999999995,77.4192 260.86479999999995C77.4192 260.86479999999995,77.448 260.83599999999996,77.5344 260.80719999999997C78.168 260.40399999999994,78.8592 260.20239999999995,79.5792 260.20239999999995C80.5872 260.20239999999995,81.6528 260.63439999999997,82.4016 261.44079999999997C83.0928 262.1895999999999,83.4672 263.19759999999997,83.4672 264.1192C83.4672 265.99119999999994,82.0848 267.89199999999994,79.9248 268.0936C79.7808 268.0936,79.6368 268.12239999999997,79.4928 268.12239999999997C77.1024 268.12239999999997,75.1728 265.93359999999996,75.1728 263.1688C75.1728 263.11119999999994,75.1728 263.02479999999997,75.1728 262.996C75.288 258.8776,79.0608 255.50799999999995,83.8416 255.24879999999996M99.1632 259.10799999999995C99.2208 259.07919999999996,99.2496 259.07919999999996,99.336 259.07919999999996C99.5376 259.07919999999996,99.768 259.10799999999995,99.8256 259.1655999999999C100.54560000000001 259.36719999999997,100.8912 260.00079999999997,100.8912 260.6056C100.8912 261.12399999999997,100.632 261.64239999999995,100.11359999999999 261.93039999999996C99.912 262.07439999999997,99.6528 262.10319999999996,99.39359999999999 262.10319999999996C98.9904 262.10319999999996,98.5584 261.93039999999996,98.2704 261.5559999999999C98.03999999999999 261.268,97.9248 260.9512,97.9248 260.63439999999997C97.9248 259.91439999999994,98.3856 259.1944,99.1632 259.10799999999995M99.1632 268.52559999999994C99.2208 268.52559999999994,99.2496 268.52559999999994,99.336 268.52559999999994C99.5376 268.52559999999994,99.768 268.55439999999993,99.8256 268.61199999999997C100.54560000000001 268.81359999999995,100.8912 269.44719999999995,100.8912 270.05199999999996C100.8912 270.57039999999995,100.632 271.08879999999994,100.11359999999999 271.34799999999996C99.912 271.49199999999996,99.6528 271.54959999999994,99.39359999999999 271.54959999999994C98.9904 271.54959999999994,98.5584 271.34799999999996,98.2704 271.00239999999997C98.03999999999999 270.71439999999996,97.9248 270.39759999999995,97.9248 270.05199999999996C97.9248 269.33199999999994,98.3856 268.64079999999996,99.1632 268.52559999999994"></path></g><path stroke-width="0.3" fill="#000000" stroke="none" stroke-dasharray="none" d="M116 275.29999999999995M123.344 256.63759999999996C123.4592 256.63759999999996,123.6608 256.63759999999996,123.8912 256.63759999999996C124.2944 256.63759999999996,124.8416 256.63759999999996,125.0432 256.69519999999994C126.7712 256.95439999999996,128.6144 258.1928,128.96 259.316C129.0464 259.57519999999994,129.0752 259.80559999999997,129.0752 260.03599999999994C129.0752 261.33199999999994,127.9808 262.31119999999993,126.8 262.31119999999993C126.3392 262.31119999999993,125.8784 262.19599999999997,125.4464 261.8504C124.928 261.3896,124.64 260.81359999999995,124.64 260.15119999999996C124.64 259.25839999999994,125.1872 258.3367999999999,126.13759999999999 258.07759999999996C126.224 258.07759999999996,126.25280000000001 258.04879999999997,126.25280000000001 258.04879999999997C126.25280000000001 258.04879999999997,126.224 257.99119999999994,126.13759999999999 257.96239999999995C125.504 257.67439999999993,124.8704 257.5592,124.2944 257.5592C123.4016 257.5592,122.624 257.876,122.048 258.48079999999993C121.4432 259.20079999999996,121.0112 260.66959999999995,120.7232 262.82959999999997C120.6944 263.34799999999996,120.608 264.32719999999995,120.608 264.52879999999993C120.608 264.52879999999993,120.608 264.52879999999993,120.608 264.52879999999993C120.608 264.52879999999993,120.608 264.52879999999993,120.608 264.52879999999993C120.608 264.52879999999993,120.7232 264.47119999999995,120.83840000000001 264.44239999999996C121.76 264.068,122.5664 263.924,123.4304 263.924C124.4672 263.924,125.4464 264.15439999999995,126.5408 264.7304C128.5568 265.70959999999997,129.68 267.14959999999996,129.68 268.8776C129.68 269.10799999999995,129.6224 269.36719999999997,129.5936 269.62639999999993C129.3056 271.2392,128.0672 272.56399999999996,126.0512 273.42799999999994C125.1296 273.83119999999997,124.2944 274.06159999999994,123.4592 274.06159999999994C122.624 274.06159999999994,121.76 273.8024,120.8096 273.3128C118.304 272.0456,116.576 269.68399999999997,116.1152 266.948C116.0288 266.40079999999995,116 265.8536,116 265.24879999999996C116 264.03919999999994,116.1728 262.82959999999997,116.576 261.8504C117.6704 259.08559999999994,120.464 256.95439999999996,123.344 256.63759999999996M123.74719999999999 264.84559999999993C123.632 264.84559999999993,123.5168 264.84559999999993,123.4016 264.84559999999993C122.7968 264.84559999999993,122.336 265.0472,122.048 265.364C121.6448 265.96879999999993,121.35679999999999 267.46639999999996,121.35679999999999 268.79119999999995C121.35679999999999 269.07919999999996,121.35679999999999 269.36719999999997,121.3856 269.59759999999994C121.5008 270.9512,121.8176 272.07439999999997,122.1344 272.56399999999996C122.3648 272.90959999999995,122.8544 273.11119999999994,123.4016 273.11119999999994C123.5168 273.11119999999994,123.6608 273.11119999999994,123.776 273.08239999999995C124.6112 272.96719999999993,124.928 272.44879999999995,125.2448 270.80719999999997C125.3888 270.02959999999996,125.4752 269.36719999999997,125.4752 268.7048C125.4752 268.04239999999993,125.3888 267.4087999999999,125.2448 266.6312C124.9568 265.45039999999995,124.5824 264.96079999999995,123.74719999999999 264.84559999999993M122.7968 275.32879999999994L122.8544 275.32879999999994L122.768 275.32879999999994L122.7968 275.32879999999994M122.7968 255.91759999999996L122.8544 255.91759999999996L122.768 255.91759999999996L122.7968 255.91759999999996"></path><path stroke-width="0.3" fill="#000000" stroke="none" stroke-dasharray="none" d="M116.1008 295.29999999999995M121.11200000000001 276.95439999999996C121.14080000000001 276.9256,121.54400000000001 276.9256,122.78240000000001 276.9256C123.1568 276.9256,123.56 276.9256,124.0784 276.9256L126.9872 276.9256L127.0736 277.01199999999994C127.2176 277.09839999999997,127.304 277.2424,127.304 277.35759999999993C127.304 277.53039999999993,127.2176 277.64559999999994,127.1024 277.76079999999996C127.0736 277.84719999999993,126.8144 278.07759999999996,126.64160000000001 278.3367999999999L125.1152 280.0936L123.1568 282.31119999999993L122.12 283.49199999999996L120.5648 285.27759999999995L118.52000000000001 287.61039999999997C118.1744 288.04239999999993,117.80000000000001 288.388,117.80000000000001 288.388C117.80000000000001 288.388,117.80000000000001 288.388,117.80000000000001 288.388C117.80000000000001 288.44559999999996,118.0592 288.44559999999996,120.4496 288.44559999999996L123.0704 288.44559999999996L123.0704 286.57359999999994C123.0704 284.67279999999994,123.0704 284.64399999999995,123.09920000000001 284.61519999999996C123.1568 284.52879999999993,123.41600000000001 284.21199999999993,124.424 283.03119999999996L124.8272 282.59919999999994L125.2304 282.1672L125.8352 281.3896L126.4688 280.7272L126.7856 280.32399999999996C126.9008 280.15119999999996,127.0736 280.12239999999997,127.2176 280.12239999999997C127.3904 280.12239999999997,127.5344 280.20879999999994,127.6208 280.35279999999995C127.6496 280.43919999999997,127.6496 280.49679999999995,127.6496 282.62799999999993C127.6496 283.1176,127.6496 283.72239999999994,127.6496 284.44239999999996L127.6496 288.44559999999996L128.3696 288.44559999999996C129.032 288.44559999999996,129.0608 288.44559999999996,129.1472 288.47439999999995C129.3776 288.5608,129.49280000000002 288.79119999999995,129.49280000000002 289.05039999999997C129.49280000000002 289.1944,129.464 289.36719999999997,129.3488 289.4823999999999C129.17600000000002 289.62639999999993,129.1472 289.62639999999993,128.3696 289.62639999999993L127.6496 289.62639999999993L127.6496 290.11599999999993C127.67840000000001 291.5848,127.96640000000001 292.16079999999994,129.08960000000002 292.76559999999995C129.49280000000002 292.96719999999993,129.57920000000001 293.02479999999997,129.57920000000001 293.3128C129.57920000000001 293.51439999999997,129.5216 293.60079999999994,129.3776 293.71599999999995L129.2912 293.74479999999994L125.3456 293.74479999999994L121.42880000000001 293.74479999999994L121.34240000000001 293.71599999999995C121.1696 293.60079999999994,121.14080000000001 293.51439999999997,121.14080000000001 293.3128C121.14080000000001 293.02479999999997,121.1696 292.96719999999993,121.6016 292.76559999999995C122.7248 292.16079999999994,123.01280000000001 291.5848,123.01280000000001 290.11599999999993L123.01280000000001 289.62639999999993L119.7008 289.62639999999993C119.096 289.68399999999997,118.60640000000001 289.68399999999997,118.20320000000001 289.68399999999997C116.3888 289.68399999999997,116.36000000000001 289.62639999999993,116.33120000000001 289.62639999999993C116.1584 289.56879999999995,116.1008 289.39599999999996,116.1008 289.1944C116.1008 289.1944,116.1008 289.1944,116.1008 289.1944C116.1008 288.99279999999993,116.1008 288.99279999999993,116.6768 288.33039999999994C119.096 285.39279999999997,120.79520000000001 281.13039999999995,120.79520000000001 277.73199999999997C120.79520000000001 277.21359999999993,120.8816 277.04079999999993,121.11200000000001 276.95439999999996M122.84 295.32879999999994L122.86880000000001 295.32879999999994L122.78240000000001 295.32879999999994L122.84 295.32879999999994M122.84 275.91759999999994L122.86880000000001 275.91759999999994L122.78240000000001 275.91759999999994L122.84 275.91759999999994"></path><g class="vf-stavenote" id="vf-auto4172724"><g class="vf-note" pointer-events="bounding-box"><g class="vf-stem" pointer-events="bounding-box"><path stroke-width="1.5" fill="none" stroke="#000000" stroke-dasharray="none" class="vf-stem" id="vf-auto4172724-stem" d="M152.94824 290.29999999999995L152.94824 255.29999999999995"></path></g><g class="vf-notehead" pointer-events="bounding-box"><path stroke-width="0.3" fill="#000000" stroke="none" stroke-dasharray="none" d="M141.68 290.29999999999995M149.03696 285.07712C149.14928 285.07712,149.31776000000002 285.07712,149.34584 285.07712C149.34584 285.07712,149.37392 285.07712,149.37392 285.07712C149.37392 285.07712,149.54240000000001 285.07712,149.68280000000001 285.07712C152.21 285.21752,153.69824 286.87423999999993,153.69824 288.95215999999994C153.69824 289.96304,153.36128000000002 291.11431999999996,152.51888 292.20944C150.91832 294.37159999999994,148.30688 295.55096,146.0324 295.55096C144.26336 295.55096,142.74704 294.84896,142.01696 293.41687999999994C141.79232000000002 292.85527999999994,141.68 292.3217599999999,141.68 291.73207999999994C141.68 288.67135999999994,145.10576 285.27367999999996,149.03696 285.07712"></path></g></g><g class="vf-modifiers"></g></g><g class="vf-stavenote" id="vf-auto4172732"><g class="vf-note" pointer-events="bounding-box"><g class="vf-stem" pointer-events="bounding-box"><path stroke-width="1.5" fill="none" stroke="#000000" stroke-dasharray="none" class="vf-stem" id="vf-auto4172732-stem" d="M186.16824 290.29999999999995L186.16824 255.29999999999995"></path></g><g class="vf-notehead" pointer-events="bounding-box"><path stroke-width="0.3" fill="#000000" stroke="none" stroke-dasharray="none" d="M174.9 290.29999999999995M182.25696 285.07712C182.36928 285.07712,182.53776 285.07712,182.56584 285.07712C182.56584 285.07712,182.59392 285.07712,182.59392 285.07712C182.59392 285.07712,182.7624 285.07712,182.9028 285.07712C185.43 285.21752,186.91824 286.87423999999993,186.91824 288.95215999999994C186.91824 289.96304,186.58128 291.11431999999996,185.73888 292.20944C184.13832 294.37159999999994,181.52688 295.55096,179.2524 295.55096C177.48336 295.55096,175.96704 294.84896,175.23696 293.41687999999994C175.01232000000002 292.85527999999994,174.9 292.3217599999999,174.9 291.73207999999994C174.9 288.67135999999994,178.32576 285.27367999999996,182.25696 285.07712"></path></g></g><g class="vf-modifiers"></g></g><g class="vf-stavenote" id="vf-auto4172740"><g class="vf-note" pointer-events="bounding-box"><g class="vf-stem" pointer-events="bounding-box"><path stroke-width="1.5" fill="none" stroke="#000000" stroke-dasharray="none" class="vf-stem" id="vf-auto4172740-stem" d="M219.38824 285.29999999999995L219.38824 250.29999999999995"></path></g><g class="vf-notehead" pointer-events="bounding-box"><path stroke-width="0.3" fill="#000000" stroke="none" stroke-dasharray="none" d="M208.12 285.29999999999995M215.47696 280.07712C215.58928 280.07712,215.75776000000002 280.07712,215.78584 280.07712C215.78584 280.07712,215.81392 280.07712,215.81392 280.07712C215.81392 280.07712,215.9824 280.07712,216.1228 280.07712C218.65 280.21752,220.13824 281.87423999999993,220.13824 283.95215999999994C220.13824 284.96304,219.80128000000002 286.11431999999996,218.95888 287.20944C217.35832 289.37159999999994,214.74688 290.55096,212.4724 290.55096C210.70336 290.55096,209.18704 289.84896,208.45696 288.41687999999994C208.23232000000002 287.85527999999994,208.12 287.3217599999999,208.12 286.73207999999994C208.12 283.67135999999994,211.54576 280.27367999999996,215.47696 280.07712"></path></g></g><g class="vf-modifiers"></g></g><g class="vf-stavenote" id="vf-auto4172748"><g class="vf-note" pointer-events="bounding-box"><g class="vf-stem" pointer-events="bounding-box"><path stroke-width="1.5" fill="none" stroke="#000000" stroke-dasharray="none" class="vf-stem" id="vf-auto4172748-stem" d="M242.09 260.29999999999995L242.09 295.29999999999995"></path></g><g class="vf-notehead" pointer-events="bounding-box"><path stroke-width="0.3" fill="#000000" stroke="none" stroke-dasharray="none" d="M241.34 260.29999999999995M248.69696 255.07711999999995C248.80928 255.07711999999995,248.97776 255.07711999999995,249.00584 255.07711999999995C249.00584 255.07711999999995,249.03392 255.07711999999995,249.03392 255.07711999999995C249.03392 255.07711999999995,249.2024 255.07711999999995,249.3428 255.07711999999995C251.87 255.21751999999995,253.35824 256.87423999999993,253.35824 258.95215999999994C253.35824 259.96304,253.02128 261.11431999999996,252.17888 262.20944C250.57832 264.37159999999994,247.96688 265.55096,245.6924 265.55096C243.92336 265.55096,242.40704 264.84896,241.67696 263.41687999999994C241.45232000000001 262.85527999999994,241.34 262.3217599999999,241.34 261.73207999999994C241.34 258.67135999999994,244.76576 255.27367999999996,248.69696 255.07711999999995"></path></g></g><g class="vf-modifiers"></g></g><g class="vf-stavenote" id="vf-auto4172756"><g class="vf-note" pointer-events="bounding-box"><g class="vf-stem" pointer-events="bounding-box"><path stroke-width="1.5" fill="none" stroke="#000000" stroke-dasharray="none" class="vf-stem" id="vf-auto4172756-stem" d="M319.04823999999996 295.29999999999995L319.04823999999996 260.29999999999995"></path></g><g class="vf-notehead" pointer-events="bounding-box"><path stroke-width="0.3" fill="#000000" stroke="none" stroke-dasharray="none" d="M307.78 295.29999999999995M315.13696 290.07712C315.24928 290.07712,315.41776 290.07712,315.44584 290.07712C315.44584 290.07712,315.47391999999996 290.07712,315.47391999999996 290.07712C315.47391999999996 290.07712,315.64239999999995 290.07712,315.78279999999995 290.07712C318.30999999999995 290.21752,319.79823999999996 291.87423999999993,319.79823999999996 293.95215999999994C319.79823999999996 294.96304,319.46128 296.11431999999996,318.61888 297.20944C317.01831999999996 299.37159999999994,314.40688 300.55096,312.13239999999996 300.55096C310.36336 300.55096,308.84704 299.84896,308.11695999999995 298.41687999999994C307.89232 297.85527999999994,307.78 297.3217599999999,307.78 296.73207999999994C307.78 293.67135999999994,311.20576 290.27367999999996,315.13696 290.07712"></path></g></g><g class="vf-modifiers"></g></g><rect stroke-width="0.3" fill="#000000" stroke="#000000" stroke-dasharray="none" x="339.0302336" y="166.5" width="1" height="129.79999999999995"></rect><rect stroke-width="0.3" fill="#000000" stroke="#000000" stroke-dasharray="none" x="70" y="166.5" width="1" height="129.79999999999995"></rect><path stroke-width="1" fill="none" stroke="#000000" stroke-dasharray="none" d="M339.0302335999999 255.29999999999998L538.4804671999998 255.29999999999998"></path><path stroke-width="1" fill="none" stroke="#000000" stroke-dasharray="none" d="M339.0302335999999 265.29999999999995L538.4804671999998 265.29999999999995"></path><path stroke-width="1" fill="none" stroke="#000000" stroke-dasharray="none" d="M339.0302335999999 275.29999999999995L538.4804671999998 275.29999999999995"></path><path stroke-width="1" fill="none" stroke="#000000" stroke-dasharray="none" d="M339.0302335999999 285.29999999999995L538.4804671999998 285.29999999999995"></path><path stroke-width="1" fill="none" stroke="#000000" stroke-dasharray="none" d="M339.0302335999999 295.29999999999995L538.4804671999998 295.29999999999995"></path><rect stroke-width="0.3" fill="#000000" stroke="#000000" stroke-dasharray="none" x="538.4804671999998" y="254.79999999999998" width="1" height="40.99999999999997"></rect><path stroke-width="1" fill="none" stroke="#000000" stroke-dasharray="none" d="M414.36356693333323 245.29999999999995L432.3818069333332 245.29999999999995"></path><g class="vf-stavenote" id="vf-auto4172801"><g class="vf-note" pointer-events="bounding-box"><g class="vf-stem" pointer-events="bounding-box"><path stroke-width="1.5" fill="none" stroke="#000000" stroke-dasharray="none" class="vf-stem" id="vf-auto4172801-stem" d="M418.11356693333323 245.29999999999995L418.11356693333323 280.29999999999995"></path></g><g class="vf-notehead" pointer-events="bounding-box"><path stroke-width="0.3" fill="#000000" stroke="none" stroke-dasharray="none" d="M417.36356693333323 245.29999999999995M424.72052693333325 240.07711999999995C424.83284693333326 240.07711999999995,425.00132693333325 240.07711999999995,425.02940693333323 240.07711999999995C425.02940693333323 240.07711999999995,425.0574869333332 240.07711999999995,425.0574869333332 240.07711999999995C425.0574869333332 240.07711999999995,425.2259669333332 240.07711999999995,425.3663669333332 240.07711999999995C427.8935669333332 240.21751999999995,429.3818069333332 241.87423999999996,429.3818069333332 243.95215999999996C429.3818069333332 244.96303999999995,429.04484693333325 246.11431999999996,428.20244693333325 247.20943999999994C426.6018869333332 249.37159999999994,423.99044693333326 250.55095999999995,421.7159669333332 250.55095999999995C419.94692693333326 250.55095999999995,418.43060693333325 249.84895999999995,417.7005269333332 248.41687999999996C417.47588693333324 247.85527999999996,417.36356693333323 247.32175999999995,417.36356693333323 246.73207999999997C417.36356693333323 243.67135999999996,420.78932693333326 240.27367999999996,424.72052693333325 240.07711999999995"></path></g></g><g class="vf-modifiers"></g></g><path stroke-width="1" fill="none" stroke="#000000" stroke-dasharray="none" d="M475.6969002666666 245.29999999999995L493.7151402666666 245.29999999999995"></path><g class="vf-stavenote" id="vf-auto4172809"><g class="vf-note" pointer-events="bounding-box"><g class="vf-stem" pointer-events="bounding-box"><path stroke-width="1.5" fill="none" stroke="#000000" stroke-dasharray="none" class="vf-stem" id="vf-auto4172809-stem" d="M479.4469002666666 245.29999999999995L479.4469002666666 280.29999999999995"></path></g><g class="vf-notehead" pointer-events="bounding-box"><path stroke-width="0.3" fill="#000000" stroke="none" stroke-dasharray="none" d="M478.6969002666666 245.29999999999995M486.0538602666666 240.07711999999995C486.16618026666663 240.07711999999995,486.3346602666666 240.07711999999995,486.3627402666666 240.07711999999995C486.3627402666666 240.07711999999995,486.3908202666666 240.07711999999995,486.3908202666666 240.07711999999995C486.3908202666666 240.07711999999995,486.5593002666666 240.07711999999995,486.6997002666666 240.07711999999995C489.2269002666666 240.21751999999995,490.7151402666666 241.87423999999996,490.7151402666666 243.95215999999996C490.7151402666666 244.96303999999995,490.3781802666666 246.11431999999996,489.5357802666666 247.20943999999994C487.9352202666666 249.37159999999994,485.32378026666663 250.55095999999995,483.0493002666666 250.55095999999995C481.28026026666663 250.55095999999995,479.7639402666666 249.84895999999995,479.0338602666666 248.41687999999996C478.8092202666666 247.85527999999996,478.6969002666666 247.32175999999995,478.6969002666666 246.73207999999997C478.6969002666666 243.67135999999996,482.1226602666666 240.27367999999996,486.0538602666666 240.07711999999995"></path></g></g><g class="vf-modifiers"></g></g><rect stroke-width="0.3" fill="#000000" stroke="#000000" stroke-dasharray="none" x="538.4804671999998" y="166.5" width="1" height="129.79999999999995"></rect><path stroke-width="1" fill="none" stroke="#000000" stroke-dasharray="none" d="M538.4804671999998 255.29999999999998L733.7307007999998 255.29999999999998"></path><path stroke-width="1" fill="none" stroke="#000000" stroke-dasharray="none" d="M538.4804671999998 265.29999999999995L733.7307007999998 265.29999999999995"></path><path stroke-width="1" fill="none" stroke="#000000" stroke-dasharray="none" d="M538.4804671999998 275.29999999999995L733.7307007999998 275.29999999999995"></path><path stroke-width="1" fill="none" stroke="#000000" stroke-dasharray="none" d="M538.4804671999998 285.29999999999995L733.7307007999998 285.29999999999995"></path><path stroke-width="1" fill="none" stroke="#000000" stroke-dasharray="none" d="M538.4804671999998 295.29999999999995L733.7307007999998 295.29999999999995"></path><rect stroke-width="0.3" fill="#000000" stroke="#000000" stroke-dasharray="none" x="733.7307007999998" y="254.79999999999998" width="1" height="40.99999999999997"></rect><g class="vf-stavenote" id="vf-auto4172848"><g class="vf-note" pointer-events="bounding-box"><g class="vf-stem" pointer-events="bounding-box"><path stroke-width="1.5" fill="none" stroke="#000000" stroke-dasharray="none" class="vf-stem" id="vf-auto4172848-stem" d="M556.2304671999998 255.29999999999995L556.2304671999998 290.29999999999995"></path></g><g class="vf-notehead" pointer-events="bounding-box"><path stroke-width="0.3" fill="#000000" stroke="none" stroke-dasharray="none" d="M555.4804671999998 255.29999999999995M562.8374271999998 250.07711999999995C562.9497471999998 250.07711999999995,563.1182271999998 250.07711999999995,563.1463071999998 250.07711999999995C563.1463071999998 250.07711999999995,563.1743871999998 250.07711999999995,563.1743871999998 250.07711999999995C563.1743871999998 250.07711999999995,563.3428671999998 250.07711999999995,563.4832671999998 250.07711999999995C566.0104671999998 250.21751999999995,567.4987071999998 251.87423999999996,567.4987071999998 253.95215999999996C567.4987071999998 254.96303999999995,567.1617471999998 256.11431999999996,566.3193471999998 257.20944C564.7187871999998 259.37159999999994,562.1073471999998 260.55096,559.8328671999998 260.55096C558.0638271999998 260.55096,556.5475071999998 259.84896,555.8174271999998 258.41687999999994C555.5927871999997 257.85527999999994,555.4804671999998 257.3217599999999,555.4804671999998 256.73207999999994C555.4804671999998 253.67135999999996,558.9062271999998 250.27367999999996,562.8374271999998 250.07711999999995"></path></g></g><g class="vf-modifiers"></g></g><g class="vf-stavenote" id="vf-auto4172856"><g class="vf-note" pointer-events="bounding-box"><g class="vf-stem" pointer-events="bounding-box"><path stroke-width="1.5" fill="none" stroke="#000000" stroke-dasharray="none" class="vf-stem" id="vf-auto4172856-stem" d="M656.7487071999998 280.29999999999995L656.7487071999998 245.29999999999995"></path></g><g class="vf-notehead" pointer-events="bounding-box"><path stroke-width="0.3" fill="#000000" stroke="none" stroke-dasharray="none" d="M645.4804671999998 280.29999999999995M652.8374271999998 275.07712C652.9497471999998 275.07712,653.1182271999998 275.07712,653.1463071999998 275.07712C653.1463071999998 275.07712,653.1743871999998 275.07712,653.1743871999998 275.07712C653.1743871999998 275.07712,653.3428671999998 275.07712,653.4832671999998 275.07712C656.0104671999998 275.21752,657.4987071999998 276.87423999999993,657.4987071999998 278.95215999999994C657.4987071999998 279.96304,657.1617471999998 281.11431999999996,656.3193471999998 282.20944C654.7187871999998 284.37159999999994,652.1073471999998 285.55096,649.8328671999998 285.55096C648.0638271999998 285.55096,646.5475071999998 284.84896,645.8174271999998 283.41687999999994C645.5927871999997 282.85527999999994,645.4804671999998 282.3217599999999,645.4804671999998 281.73207999999994C645.4804671999998 278.67135999999994,648.9062271999998 275.27367999999996,652.8374271999998 275.07712"></path></g></g><g class="vf-modifiers"></g></g><g class="vf-stavenote" id="vf-auto4172864"><g class="vf-note" pointer-events="bounding-box"><g class="vf-stem" pointer-events="bounding-box"><path stroke-width="1.5" fill="none" stroke="#000000" stroke-dasharray="none" class="vf-stem" id="vf-auto4172864-stem" d="M686.7487071999998 275.29999999999995L686.7487071999998 240.29999999999995"></path></g><g class="vf-notehead" pointer-events="bounding-box"><path stroke-width="0.3" fill="#000000" stroke="none" stroke-dasharray="none" d="M675.4804671999998 275.29999999999995M682.8374271999998 270.07712C682.9497471999998 270.07712,683.1182271999998 270.07712,683.1463071999998 270.07712C683.1463071999998 270.07712,683.1743871999998 270.07712,683.1743871999998 270.07712C683.1743871999998 270.07712,683.3428671999998 270.07712,683.4832671999998 270.07712C686.0104671999998 270.21752,687.4987071999998 271.87423999999993,687.4987071999998 273.95215999999994C687.4987071999998 274.96304,687.1617471999998 276.11431999999996,686.3193471999998 277.20944C684.7187871999998 279.37159999999994,682.1073471999998 280.55096,679.8328671999998 280.55096C678.0638271999998 280.55096,676.5475071999998 279.84896,675.8174271999998 278.41687999999994C675.5927871999997 277.85527999999994,675.4804671999998 277.3217599999999,675.4804671999998 276.73207999999994C675.4804671999998 273.67135999999994,678.9062271999998 270.27367999999996,682.8374271999998 270.07712"></path></g></g><g class="vf-modifiers"></g></g><rect stroke-width="0.3" fill="#000000" stroke="#000000" stroke-dasharray="none" x="733.7307007999998" y="166.5" width="1" height="129.79999999999995"></rect><path stroke-width="1" fill="none" stroke="#000000" stroke-dasharray="none" d="M733.7307007999998 255.29999999999998L930.5809343999997 255.29999999999998"></path><path stroke-width="1" fill="none" stroke="#000000" stroke-dasharray="none" d="M733.7307007999998 265.29999999999995L930.5809343999997 265.29999999999995"></path><path stroke-width="1" fill="none" stroke="#000000" stroke-dasharray="none" d="M733.7307007999998 275.29999999999995L930.5809343999997 275.29999999999995"></path><path stroke-width="1" fill="none" stroke="#000000" stroke-dasharray="none" d="M733.7307007999998 285.29999999999995L930.5809343999997 285.29999999999995"></path><path stroke-width="1" fill="none" stroke="#000000" stroke-dasharray="none" d="M733.7307007999998 295.29999999999995L930.5809343999997 295.29999999999995"></path><rect stroke-width="0.3" fill="#000000" stroke="#000000" stroke-dasharray="none" x="925.5809343999997" y="254.79999999999998" width="1" height="40.99999999999997"></rect><rect stroke-width="0.3" fill="#000000" stroke="#000000" stroke-dasharray="none" x="928.5809343999997" y="254.79999999999998" width="3" height="40.99999999999997"></rect><path stroke-width="0.3" fill="#000000" stroke="none" stroke-dasharray="none" d="M924.5809343999997 270.79999999999995 A2 2 0 0 0 920.5809343999997 270.79999999999995M920.5809343999997 270.79999999999995 A2 2 0 0 0 924.5809343999997 270.79999999999995"></path><path stroke-width="0.3" fill="#000000" stroke="none" stroke-dasharray="none" d="M924.5809343999997 280.79999999999995 A2 2 0 0 0 920.5809343999997 280.79999999999995M920.5809343999997 280.79999999999995 A2 2 0 0 0 924.5809343999997 280.79999999999995"></path><g class="vf-stavenote" id="vf-auto4172886"><g class="vf-note" pointer-events="bounding-box"><g class="vf-stem" pointer-events="bounding-box"><path stroke-width="1.5" fill="none" stroke="#000000" stroke-dasharray="none" class="vf-stem" id="vf-auto4172886-stem" d="M751.4807007999998 265.29999999999995L751.4807007999998 300.29999999999995"></path></g><g class="vf-notehead" pointer-events="bounding-box"><path stroke-width="0.3" fill="#000000" stroke="none" stroke-dasharray="none" d="M750.7307007999998 265.29999999999995M758.0876607999998 260.07712C758.1999807999998 260.07712,758.3684607999998 260.07712,758.3965407999998 260.07712C758.3965407999998 260.07712,758.4246207999998 260.07712,758.4246207999998 260.07712C758.4246207999998 260.07712,758.5931007999998 260.07712,758.7335007999998 260.07712C761.2607007999998 260.21752,762.7489407999998 261.87423999999993,762.7489407999998 263.95215999999994C762.7489407999998 264.96304,762.4119807999998 266.11431999999996,761.5695807999998 267.20944C759.9690207999998 269.37159999999994,757.3575807999998 270.55096,755.0831007999998 270.55096C753.3140607999998 270.55096,751.7977407999998 269.84896,751.0676607999998 268.41687999999994C750.8430207999997 267.85527999999994,750.7307007999998 267.3217599999999,750.7307007999998 266.73207999999994C750.7307007999998 263.67135999999994,754.1564607999998 260.27367999999996,758.0876607999998 260.07712"></path></g></g><g class="vf-modifiers"></g></g><g class="vf-stavenote" id="vf-auto4172894"><g class="vf-note" pointer-events="bounding-box"><g class="vf-stem" pointer-events="bounding-box"><path stroke-width="1.5" fill="none" stroke="#000000" stroke-dasharray="none" class="vf-stem" id="vf-auto4172894-stem" d="M792.1656074666664 285.29999999999995L792.1656074666664 250.29999999999995"></path></g><g class="vf-notehead" pointer-events="bounding-box"><path stroke-width="0.3" fill="#000000" stroke="none" stroke-dasharray="none" d="M780.8973674666664 285.29999999999995M788.2543274666664 280.07712C788.3666474666664 280.07712,788.5351274666664 280.07712,788.5632074666664 280.07712C788.5632074666664 280.07712,788.5912874666665 280.07712,788.5912874666665 280.07712C788.5912874666665 280.07712,788.7597674666664 280.07712,788.9001674666664 280.07712C791.4273674666664 280.21752,792.9156074666664 281.87423999999993,792.9156074666664 283.95215999999994C792.9156074666664 284.96304,792.5786474666664 286.11431999999996,791.7362474666664 287.20944C790.1356874666665 289.37159999999994,787.5242474666665 290.55096,785.2497674666664 290.55096C783.4807274666664 290.55096,781.9644074666664 289.84896,781.2343274666664 288.41687999999994C781.0096874666664 287.85527999999994,780.8973674666664 287.3217599999999,780.8973674666664 286.73207999999994C780.8973674666664 283.67135999999994,784.3231274666664 280.27367999999996,788.2543274666664 280.07712"></path></g></g><g class="vf-modifiers"></g></g><g class="vf-stavenote" id="vf-auto4172902"><g class="vf-note" pointer-events="bounding-box"><g class="vf-stem" pointer-events="bounding-box"><path stroke-width="1.5" fill="none" stroke="#000000" stroke-dasharray="none" class="vf-stem" id="vf-auto4172902-stem" d="M822.3322741333332 290.29999999999995L822.3322741333332 255.29999999999995"></path></g><g class="vf-notehead" pointer-events="bounding-box"><path stroke-width="0.3" fill="#000000" stroke="none" stroke-dasharray="none" d="M811.0640341333332 290.29999999999995M818.4209941333331 285.07712C818.5333141333332 285.07712,818.7017941333331 285.07712,818.7298741333332 285.07712C818.7298741333332 285.07712,818.7579541333332 285.07712,818.7579541333332 285.07712C818.7579541333332 285.07712,818.9264341333331 285.07712,819.0668341333331 285.07712C821.5940341333331 285.21752,823.0822741333332 286.87423999999993,823.0822741333332 288.95215999999994C823.0822741333332 289.96304,822.7453141333332 291.11431999999996,821.9029141333332 292.20944C820.3023541333332 294.37159999999994,817.6909141333332 295.55096,815.4164341333332 295.55096C813.6473941333331 295.55096,812.1310741333332 294.84896,811.4009941333331 293.41687999999994C811.1763541333331 292.85527999999994,811.0640341333332 292.3217599999999,811.0640341333332 291.73207999999994C811.0640341333332 288.67135999999994,814.4897941333331 285.27367999999996,818.4209941333331 285.07712"></path></g></g><g class="vf-modifiers"></g></g><g class="vf-stavenote" id="vf-auto4172910"><g class="vf-note" pointer-events="bounding-box"><g class="vf-stem" pointer-events="bounding-box"><path stroke-width="1.5" fill="none" stroke="#000000" stroke-dasharray="none" class="vf-stem" id="vf-auto4172910-stem" d="M841.9807007999998 260.29999999999995L841.9807007999998 295.29999999999995"></path></g><g class="vf-notehead" pointer-events="bounding-box"><path stroke-width="0.3" fill="#000000" stroke="none" stroke-dasharray="none" d="M841.2307007999998 260.29999999999995M848.5876607999998 255.07711999999995C848.6999807999998 255.07711999999995,848.8684607999998 255.07711999999995,848.8965407999998 255.07711999999995C848.8965407999998 255.07711999999995,848.9246207999998 255.07711999999995,848.9246207999998 255.07711999999995C848.9246207999998 255.07711999999995,849.0931007999998 255.07711999999995,849.2335007999998 255.07711999999995C851.7607007999998 255.21751999999995,853.2489407999998 256.87423999999993,853.2489407999998 258.95215999999994C853.2489407999998 259.96304,852.9119807999998 261.11431999999996,852.0695807999998 262.20944C850.4690207999998 264.37159999999994,847.8575807999998 265.55096,845.5831007999998 265.55096C843.8140607999998 265.55096,842.2977407999998 264.84896,841.5676607999998 263.41687999999994C841.3430207999997 262.85527999999994,841.2307007999998 262.3217599999999,841.2307007999998 261.73207999999994C841.2307007999998 258.67135999999994,844.6564607999998 255.27367999999996,848.5876607999998 255.07711999999995"></path></g></g><g class="vf-modifiers"></g></g><path stroke-width="1" fill="none" stroke="#000000" stroke-dasharray="none" d="M868.3973674666665 245.29999999999995L886.4156074666665 245.29999999999995"></path><g class="vf-stavenote" id="vf-auto4172918"><g class="vf-note" pointer-events="bounding-box"><g class="vf-stem" pointer-events="bounding-box"><path stroke-width="1.5" fill="none" stroke="#000000" stroke-dasharray="none" class="vf-stem" id="vf-auto4172918-stem" d="M872.1473674666665 245.29999999999995L872.1473674666665 280.29999999999995"></path></g><g class="vf-notehead" pointer-events="bounding-box"><path stroke-width="0.3" fill="#000000" stroke="none" stroke-dasharray="none" d="M871.3973674666665 245.29999999999995M878.7543274666665 240.07711999999995C878.8666474666666 240.07711999999995,879.0351274666665 240.07711999999995,879.0632074666665 240.07711999999995C879.0632074666665 240.07711999999995,879.0912874666666 240.07711999999995,879.0912874666666 240.07711999999995C879.0912874666666 240.07711999999995,879.2597674666665 240.07711999999995,879.4001674666665 240.07711999999995C881.9273674666665 240.21751999999995,883.4156074666665 241.87423999999996,883.4156074666665 243.95215999999996C883.4156074666665 244.96303999999995,883.0786474666666 246.11431999999996,882.2362474666666 247.20943999999994C880.6356874666666 249.37159999999994,878.0242474666666 250.55095999999995,875.7497674666665 250.55095999999995C873.9807274666665 250.55095999999995,872.4644074666666 249.84895999999995,871.7343274666665 248.41687999999996C871.5096874666665 247.85527999999996,871.3973674666665 247.32175999999995,871.3973674666665 246.73207999999997C871.3973674666665 243.67135999999996,874.8231274666665 240.27367999999996,878.7543274666665 240.07711999999995"></path></g></g><g class="vf-modifiers"></g></g><rect stroke-width="0.3" fill="#000000" stroke="#000000" stroke-dasharray="none" x="925.5809343999997" y="166.5" width="1" height="129.79999999999995"></rect><rect stroke-width="0.3" fill="#000000" stroke="#000000" stroke-dasharray="none" x="928.5809343999997" y="166.5" width="3" height="129.79999999999995"></rect><path stroke-width="0.3" fill="#000000" stroke="none" stroke-dasharray="none" d="M68 166.5C45.2 192.45999999999998,81.2 213.87699999999998,56 231.39999999999998C81.2 248.92299999999997,45.2 270.34,68 296.29999999999995C44 270.34,72.8 248.92299999999997,56 231.39999999999998C72.8 213.87699999999998,44 192.45999999999998,68 166.5"></path><path stroke-width="1" fill="none" stroke="#000000" stroke-dasharray="none" d="M68 166.5C45.2 192.45999999999998,81.2 213.87699999999998,56 231.39999999999998C81.2 248.92299999999997,45.2 270.34,68 296.29999999999995C44 270.34,72.8 248.92299999999997,56 231.39999999999998C72.8 213.87699999999998,44 192.45999999999998,68 166.5"></path><g class="vf-text"><text stroke-width="0.3" fill="#000000" stroke="none" stroke-dasharray="none" font-family="Times New Roman" font-size="15px" font-weight="normal" font-style="normal" x="534.9804671999998" y="163.5">3</text></g></svg>