<svg xmlns="http://www.w3.org/2000/svg"  width="1470" height="375.79999999999995" viewBox="0 0 1470 375.79999999999995"><path stroke-width="1" fill="none" stroke="#000000" stroke-dasharray="none" d="M70 166.5L351.63023359999994 166.5"></path><path stroke-width="1" fill="none" stroke="#000000" stroke-dasharray="none" d="M70 176.5L351.63023359999994 176.5"></path><path stroke-width="1" fill="none" stroke="#000000" stroke-dasharray="none" d="M70 186.5L351.63023359999994 186.5"></path><path stroke-width="1" fill="none" stroke="#000000" stroke-dasharray="none" d="M70 196.5L351.63023359999994 196.5"></path><path stroke-width="1" fill="none" stroke="#000000" stroke-dasharray="none" d="M70 206.5L351.63023359999994 206.5"></path><rect stroke-width="0.3" fill="#000000" stroke="#000000" stroke-dasharray="none" x="351.63023359999994" y="166" width="1" height="41"></rect><g class="vf-clef"><path stroke-width="0.3" fill="#000000" stroke="none" stroke-dasharray="none" d="M75 196.5M89.0544 153.3288C89.112 153.3,89.1696 153.3,89.256 153.3C89.6016 153.3,90.0048 153.588,90.5808 154.308C92.9136 156.9864,94.5552 161.652,94.5552 165.4536C94.5552 165.7416,94.4976 165.972,94.4976 166.26C94.2384 170.7816,92.3952 174.4968,88.7376 178.0104L87.7584 178.9608L87.4128 179.3352L87.4128 179.4504L87.6144 180.3144L87.9312 181.8696L88.248 183.3096C88.68 185.268,88.8528 186.276,88.8528 186.276C88.8528 186.276,88.8528 186.276,88.8528 186.276C88.8528 186.276,88.968 186.276,89.112 186.2472C89.256 186.2472,89.7168 186.1896,90.2064 186.1896C90.55199999999999 186.1896,90.8976 186.2472,91.0704 186.2472C95.1312 186.7656,98.2704 189.6744,99.1632 193.764C99.336 194.4264,99.39359999999999 195.1464,99.39359999999999 195.8664C99.39359999999999 199.7544,97.0608 203.4696,93.1728 205.2264C92.94239999999999 205.3704,92.856 205.3992,92.856 205.3992L92.856 205.428C92.856 205.428,93.0288 206.0904,93.1728 206.8392L93.6048 209.028L94.008 210.7848C94.2384 211.908,94.3536 212.7144,94.3536 213.4344C94.3536 214.06799999999998,94.2672 214.644,94.1232 215.3064C93.144 219.3096,89.6592 221.7,86.0304 221.7C84.2448 221.7,82.4016 221.124,80.7888 219.828C79.3488 218.6184,78.7152 217.524,78.7152 216.084C78.7152 213.5496,80.76 211.764,82.8912 211.764C83.64 211.764,84.3888 211.99439999999998,85.1088 212.4264C86.3184 213.2616,86.8656 214.5288,86.8656 215.7672C86.8656 217.668,85.5408 219.54,83.2656 219.684L83.0352 219.684L83.208 219.79919999999998C84.1584 220.2024,85.1088 220.404,86.0304 220.404C88.3632 220.404,90.55199999999999 219.2232,91.8768 217.1784C92.62559999999999 216.0264,93.0288 214.6728,93.0288 213.3192C93.0288 212.8008,92.94239999999999 212.2824,92.8272 211.7064C92.8272 211.6488,92.74080000000001 211.188,92.62559999999999 210.756C91.992 207.6456,91.6176 205.8312,91.6176 205.8312C91.6176 205.8312,91.6176 205.8312,91.6176 205.8312C91.56 205.8312,91.4448 205.8312,91.3584 205.8888C91.0704 205.9464,90.4656 206.0904,90.2064 206.1192C89.5728 206.2056,88.968 206.2344,88.392 206.2344C82.74719999999999 206.2344,77.5056 202.4328,75.6912 196.8168C75.2304 195.3192,74.9712 193.8216,74.9712 192.324C74.9712 189.3288,75.9216 186.3912,77.7648 183.7704C79.7808 180.9192,81.7968 178.4712,84.2736 175.9368L85.13759999999999 175.044L84.936 173.9784L84.5616 172.2216L84.072 169.9752C83.928 169.14,83.7552 168.3336,83.7264 168.1608C83.5824 167.2104,83.496 166.2888,83.496 165.3384C83.496 161.7096,84.6768 158.22480000000002,86.8944 155.4312C87.5568 154.5672,88.7376 153.4152,89.0544 153.3288M90.8112 159.0312C90.7536 159.0312,90.6672 159.0312,90.5808 159.0312C89.4 159.0312,87.8736 160.1256,86.8368 161.7384C85.7712 163.32240000000002,85.224 165.4248,85.224 167.5848C85.224 168.1608,85.25280000000001 168.7656,85.3392 169.3704C85.4256 169.8024,85.45439999999999 170.0904,85.6848 171.12720000000002L86.088 172.9416C86.2032 173.4888,86.28960000000001 173.92079999999999,86.28960000000001 173.9784L86.28960000000001 173.9784C86.3184 173.9784,87.2112 172.9992,87.4992 172.6536C90.3792 169.3992,92.1072 165.972,92.4816 162.948C92.5104 162.66,92.5104 162.4296,92.5104 162.1416C92.5104 161.24880000000002,92.3952 160.38479999999998,92.1936 159.924C91.9632 159.4632,91.4448 159.0888,90.8112 159.0312M86.4624 181.2936C86.4048 180.8904,86.3184 180.5736,86.3184 180.516C86.3184 180.516,86.3184 180.516,86.28960000000001 180.516C86.232 180.516,84.9936 181.956,84.1296 182.964C82.6608 184.7496,81.1056 186.8808,80.472 187.9176C79.2624 189.9624,78.6576 192.2376,78.6576 194.484C78.6576 195.9528,78.9456 197.364,79.464 198.7176C81.0192 202.7208,84.5904 205.2264,88.4784 205.2264C88.9392 205.2264,89.4576 205.1976,89.9472 205.1112C90.5808 204.996,91.3584 204.7656,91.3584 204.6792L91.3584 204.6792C91.3584 204.6792,91.3008 204.3912,91.2144 204.0744L90.3792 199.956L89.7168 196.8744L89.2848 194.7432L88.824 192.6696C88.5936 191.4312,88.5072 191.1144,88.5072 191.1144C88.5072 191.1144,88.5072 191.0856,88.4784 191.0856C88.3056 191.0856,87.384 191.5464,86.9808 191.8344C85.4832 192.8712,84.7056 194.5128,84.7056 196.1256C84.7056 197.652,85.45439999999999 199.1784,86.8944 200.0712C87.2112 200.2728,87.3264 200.4456,87.3264 200.6472C87.3264 200.676,87.3264 200.7624,87.3264 200.7912C87.2688 201.1368,87.0672 201.2808,86.7792 201.2808C86.664 201.2808,86.52 201.252,86.3472 201.1656C83.6976 200.0136,81.912 197.2776,81.912 194.2824L81.912 194.2824C81.912 190.8264,84.072 187.8312,87.384 186.6504L87.5568 186.5928L87.2688 185.1528L86.4624 181.2936M90.7824 190.9128C90.55199999999999 190.88400000000001,90.3216 190.88400000000001,90.1488 190.88400000000001C90.0912 190.88400000000001,90.0048 190.88400000000001,89.9472 190.88400000000001L89.8032 190.88400000000001L89.9184 191.4024L90.5232 194.2248L90.8976 196.068L91.3008 197.8824L92.1072 201.8856L92.424 203.412C92.5392 203.8152,92.5968 204.1608,92.62559999999999 204.1608C92.62559999999999 204.1608,92.62559999999999 204.1608,92.62559999999999 204.1608C92.6544 204.1608,93.144 203.8728,93.4608 203.6424C94.9296 202.6056,96.024 200.9928,96.4272 199.3224C96.5712 198.7752,96.6288 198.1992,96.6288 197.652C96.6288 194.3112,94.152 191.2872,90.7824 190.9128"></path></g><path stroke-width="0.3" fill="#000000" stroke="none" stroke-dasharray="none" d="M116 186.5M123.344 167.8376C123.4592 167.8376,123.6608 167.8376,123.8912 167.8376C124.2944 167.8376,124.8416 167.8376,125.0432 167.8952C126.7712 168.1544,128.6144 169.3928,128.96 170.516C129.0464 170.7752,129.0752 171.00560000000002,129.0752 171.236C129.0752 172.532,127.9808 173.5112,126.8 173.5112C126.3392 173.5112,125.8784 173.39600000000002,125.4464 173.0504C124.928 172.5896,124.64 172.0136,124.64 171.3512C124.64 170.4584,125.1872 169.5368,126.13759999999999 169.2776C126.224 169.2776,126.25280000000001 169.2488,126.25280000000001 169.2488C126.25280000000001 169.2488,126.224 169.1912,126.13759999999999 169.1624C125.504 168.8744,124.8704 168.7592,124.2944 168.7592C123.4016 168.7592,122.624 169.076,122.048 169.6808C121.4432 170.4008,121.0112 171.8696,120.7232 174.0296C120.6944 174.548,120.608 175.5272,120.608 175.7288C120.608 175.7288,120.608 175.7288,120.608 175.7288C120.608 175.7288,120.608 175.7288,120.608 175.7288C120.608 175.7288,120.7232 175.6712,120.83840000000001 175.6424C121.76 175.268,122.5664 175.124,123.4304 175.124C124.4672 175.124,125.4464 175.3544,126.5408 175.9304C128.5568 176.9096,129.68 178.3496,129.68 180.0776C129.68 180.308,129.6224 180.5672,129.5936 180.8264C129.3056 182.4392,128.0672 183.764,126.0512 184.628C125.1296 185.0312,124.2944 185.2616,123.4592 185.2616C122.624 185.2616,121.76 185.0024,120.8096 184.5128C118.304 183.2456,116.576 180.88400000000001,116.1152 178.148C116.0288 177.6008,116 177.0536,116 176.4488C116 175.2392,116.1728 174.0296,116.576 173.0504C117.6704 170.2856,120.464 168.1544,123.344 167.8376M123.74719999999999 176.0456C123.632 176.0456,123.5168 176.0456,123.4016 176.0456C122.7968 176.0456,122.336 176.2472,122.048 176.564C121.6448 177.1688,121.35679999999999 178.6664,121.35679999999999 179.9912C121.35679999999999 180.2792,121.35679999999999 180.5672,121.3856 180.7976C121.5008 182.1512,121.8176 183.2744,122.1344 183.764C122.3648 184.1096,122.8544 184.3112,123.4016 184.3112C123.5168 184.3112,123.6608 184.3112,123.776 184.2824C124.6112 184.1672,124.928 183.6488,125.2448 182.0072C125.3888 181.2296,125.4752 180.5672,125.4752 179.9048C125.4752 179.2424,125.3888 178.6088,125.2448 177.8312C124.9568 176.6504,124.5824 176.1608,123.74719999999999 176.0456M122.7968 186.5288L122.8544 186.5288L122.768 186.5288L122.7968 186.5288M122.7968 167.1176L122.8544 167.1176L122.768 167.1176L122.7968 167.1176"></path><path stroke-width="0.3" fill="#000000" stroke="none" stroke-dasharray="none" d="M116.1008 206.5M121.11200000000001 188.1544C121.14080000000001 188.1256,121.54400000000001 188.1256,122.78240000000001 188.1256C123.1568 188.1256,123.56 188.1256,124.0784 188.1256L126.9872 188.1256L127.0736 188.212C127.2176 188.29840000000002,127.304 188.4424,127.304 188.5576C127.304 188.7304,127.2176 188.8456,127.1024 188.9608C127.0736 189.0472,126.8144 189.2776,126.64160000000001 189.5368L125.1152 191.2936L123.1568 193.5112L122.12 194.692L120.5648 196.4776L118.52000000000001 198.8104C118.1744 199.2424,117.80000000000001 199.588,117.80000000000001 199.588C117.80000000000001 199.588,117.80000000000001 199.588,117.80000000000001 199.588C117.80000000000001 199.6456,118.0592 199.6456,120.4496 199.6456L123.0704 199.6456L123.0704 197.7736C123.0704 195.8728,123.0704 195.844,123.09920000000001 195.8152C123.1568 195.7288,123.41600000000001 195.412,124.424 194.2312L124.8272 193.7992L125.2304 193.3672L125.8352 192.5896L126.4688 191.9272L126.7856 191.524C126.9008 191.3512,127.0736 191.3224,127.2176 191.3224C127.3904 191.3224,127.5344 191.4088,127.6208 191.5528C127.6496 191.6392,127.6496 191.6968,127.6496 193.828C127.6496 194.3176,127.6496 194.9224,127.6496 195.6424L127.6496 199.6456L128.3696 199.6456C129.032 199.6456,129.0608 199.6456,129.1472 199.6744C129.3776 199.7608,129.49280000000002 199.9912,129.49280000000002 200.2504C129.49280000000002 200.3944,129.464 200.5672,129.3488 200.6824C129.17600000000002 200.8264,129.1472 200.8264,128.3696 200.8264L127.6496 200.8264L127.6496 201.316C127.67840000000001 202.7848,127.96640000000001 203.3608,129.08960000000002 203.9656C129.49280000000002 204.1672,129.57920000000001 204.2248,129.57920000000001 204.5128C129.57920000000001 204.7144,129.5216 204.8008,129.3776 204.916L129.2912 204.9448L125.3456 204.9448L121.42880000000001 204.9448L121.34240000000001 204.916C121.1696 204.8008,121.14080000000001 204.7144,121.14080000000001 204.5128C121.14080000000001 204.2248,121.1696 204.1672,121.6016 203.9656C122.7248 203.3608,123.01280000000001 202.7848,123.01280000000001 201.316L123.01280000000001 200.8264L119.7008 200.8264C119.096 200.88400000000001,118.60640000000001 200.88400000000001,118.20320000000001 200.88400000000001C116.3888 200.88400000000001,116.36000000000001 200.8264,116.33120000000001 200.8264C116.1584 200.7688,116.1008 200.596,116.1008 200.3944C116.1008 200.3944,116.1008 200.3944,116.1008 200.3944C116.1008 200.1928,116.1008 200.1928,116.6768 199.5304C119.096 196.5928,120.79520000000001 192.3304,120.79520000000001 188.93200000000002C120.79520000000001 188.4136,120.8816 188.2408,121.11200000000001 188.1544M122.84 206.5288L122.86880000000001 206.5288L122.78240000000001 206.5288L122.84 206.5288M122.84 187.1176L122.86880000000001 187.1176L122.78240000000001 187.1176L122.84 187.1176"></path><g class="vf-stavenote" id="vf-auto4091153"><g class="vf-note" pointer-events="bounding-box"><g class="vf-stem" pointer-events="bounding-box"><path stroke-width="1.5" fill="none" stroke="#000000" stroke-dasharray="none" class="vf-stem" id="vf-auto4091153-stem" d="M142.43 181.5L142.43 216.5"></path></g><g class="vf-notehead" pointer-events="bounding-box"><path stroke-width="0.3" fill="#000000" stroke="none" stroke-dasharray="none" d="M141.68 181.5M149.03696 176.27712C149.14928 176.27712,149.31776000000002 176.27712,149.34584 176.27712C149.34584 176.27712,149.37392 176.27712,149.37392 176.27712C149.37392 176.27712,149.54240000000001 176.27712,149.68280000000001 176.27712C152.21 176.41752,153.69824 178.07424,153.69824 180.15216C153.69824 181.16304,153.36128000000002 182.31432,152.51888 183.40944C150.91832 185.5716,148.30688 186.75096,146.0324 186.75096C144.26336 186.75096,142.74704 186.04896,142.01696 184.61688C141.79232000000002 184.05528,141.68 183.52176,141.68 182.93208C141.68 179.87136,145.10576 176.47368,149.03696 176.27712"></path></g></g><g class="vf-modifiers"></g></g><g class="vf-stavenote" id="vf-auto4091161"><g class="vf-note" pointer-events="bounding-box"><g class="vf-stem" pointer-events="bounding-box"><path stroke-width="1.5" fill="none" stroke="#000000" stroke-dasharray="none" class="vf-stem" id="vf-auto4091161-stem" d="M188.16824 196.5L188.16824 161.5"></path></g><g class="vf-notehead" pointer-events="bounding-box"><path stroke-width="0.3" fill="#000000" stroke="none" stroke-dasharray="none" d="M176.9 196.5M184.25696 191.27712C184.36928 191.27712,184.53776 191.27712,184.56584 191.27712C184.56584 191.27712,184.59392 191.27712,184.59392 191.27712C184.59392 191.27712,184.7624 191.27712,184.9028 191.27712C187.43 191.41752,188.91824 193.07424,188.91824 195.15216C188.91824 196.16304,188.58128 197.31432,187.73888 198.40944C186.13832 200.5716,183.52688 201.75096,181.2524 201.75096C179.48336 201.75096,177.96704 201.04896,177.23696 199.61688C177.01232000000002 199.05528,176.9 198.52176,176.9 197.93208C176.9 194.87136,180.32576 191.47368,184.25696 191.27712"></path></g></g><g class="vf-modifiers"></g></g><g class="vf-stavenote" id="vf-auto4091169"><g class="vf-note" pointer-events="bounding-box"><g class="vf-stem" pointer-events="bounding-box"><path stroke-width="1.5" fill="none" stroke="#000000" stroke-dasharray="none" class="vf-stem" id="vf-auto4091169-stem" d="M223.38824 196.5L223.38824 161.5"></path></g><g class="vf-notehead" pointer-events="bounding-box"><path stroke-width="0.3" fill="#000000" stroke="none" stroke-dasharray="none" d="M212.12 196.5M219.47696 191.27712C219.58928 191.27712,219.75776000000002 191.27712,219.78584 191.27712C219.78584 191.27712,219.81392 191.27712,219.81392 191.27712C219.81392 191.27712,219.9824 191.27712,220.1228 191.27712C222.65 191.41752,224.13824 193.07424,224.13824 195.15216C224.13824 196.16304,223.80128000000002 197.31432,222.95888 198.40944C221.35832 200.5716,218.74688 201.75096,216.4724 201.75096C214.70336 201.75096,213.18704 201.04896,212.45696 199.61688C212.23232000000002 199.05528,212.12 198.52176,212.12 197.93208C212.12 194.87136,215.54576 191.47368,219.47696 191.27712"></path></g></g><g class="vf-modifiers"></g></g><g class="vf-stavenote" id="vf-auto4091177"><g class="vf-note" pointer-events="bounding-box"><g class="vf-stem" pointer-events="bounding-box"><path stroke-width="1.5" fill="none" stroke="#000000" stroke-dasharray="none" class="vf-stem" id="vf-auto4091177-stem" d="M318.53000000000003 186.5L318.53000000000003 221.5"></path></g><g class="vf-notehead" pointer-events="bounding-box"><path stroke-width="0.3" fill="#000000" stroke="none" stroke-dasharray="none" d="M317.78000000000003 186.5M325.13696000000004 181.27712C325.24928000000006 181.27712,325.41776000000004 181.27712,325.44584000000003 181.27712C325.44584000000003 181.27712,325.47392 181.27712,325.47392 181.27712C325.47392 181.27712,325.6424 181.27712,325.7828 181.27712C328.31000000000006 181.41752,329.79824 183.07424,329.79824 185.15216C329.79824 186.16304,329.46128000000004 187.31432,328.61888000000005 188.40944C327.01832 190.5716,324.40688 191.75096,322.1324 191.75096C320.36336000000006 191.75096,318.84704000000005 191.04896,318.11696 189.61688C317.89232000000004 189.05528,317.78000000000003 188.52176,317.78000000000003 187.93208C317.78000000000003 184.87136,321.20576000000005 181.47368,325.13696000000004 181.27712"></path></g></g><g class="vf-modifiers"></g></g><path stroke-width="1" fill="none" stroke="#000000" stroke-dasharray="none" d="M351.6302336 166.5L546.8804671999999 166.5"></path><path stroke-width="1" fill="none" stroke="#000000" stroke-dasharray="none" d="M351.6302336 176.5L546.8804671999999 176.5"></path><path stroke-width="1" fill="none" stroke="#000000" stroke-dasharray="none" d="M351.6302336 186.5L546.8804671999999 186.5"></path><path stroke-width="1" fill="none" stroke="#000000" stroke-dasharray="none" d="M351.6302336 196.5L546.8804671999999 196.5"></path><path stroke-width="1" fill="none" stroke="#000000" stroke-dasharray="none" d="M351.6302336 206.5L546.8804671999999 206.5"></path><rect stroke-width="0.3" fill="#000000" stroke="#000000" stroke-dasharray="none" x="546.8804671999999" y="166" width="1" height="41"></rect><g class="vf-stavenote" id="vf-auto4091207"><g class="vf-note" pointer-events="bounding-box"><g class="vf-stem" pointer-events="bounding-box"><path stroke-width="1.5" fill="none" stroke="#000000" stroke-dasharray="none" class="vf-stem" id="vf-auto4091207-stem" d="M399.3802336 166.5L399.3802336 201.5"></path></g><g class="vf-notehead" pointer-events="bounding-box"><path stroke-width="0.3" fill="#000000" stroke="none" stroke-dasharray="none" d="M398.6302336 166.5M405.9871936 161.27712C406.0995136 161.27712,406.2679936 161.27712,406.2960736 161.27712C406.2960736 161.27712,406.3241536 161.27712,406.3241536 161.27712C406.3241536 161.27712,406.4926336 161.27712,406.6330336 161.27712C409.16023359999997 161.41752,410.6484736 163.07424,410.6484736 165.15216C410.6484736 166.16304,410.3115136 167.31432,409.4691136 168.40944C407.8685536 170.5716,405.2571136 171.75096,402.9826336 171.75096C401.2135936 171.75096,399.6972736 171.04896,398.9671936 169.61688C398.7425536 169.05528,398.6302336 168.52176,398.6302336 167.93208C398.6302336 164.87136,402.0559936 161.47368,405.9871936 161.27712"></path></g></g><g class="vf-modifiers"></g></g><g class="vf-stavenote" id="vf-auto4091215"><g class="vf-note" pointer-events="bounding-box"><g class="vf-stem" pointer-events="bounding-box"><path stroke-width="1.5" fill="none" stroke="#000000" stroke-dasharray="none" class="vf-stem" id="vf-auto4091215-stem" d="M429.3802336 186.5L429.3802336 221.5"></path></g><g class="vf-notehead" pointer-events="bounding-box"><path stroke-width="0.3" fill="#000000" stroke="none" stroke-dasharray="none" d="M428.6302336 186.5M435.9871936 181.27712C436.0995136 181.27712,436.2679936 181.27712,436.2960736 181.27712C436.2960736 181.27712,436.3241536 181.27712,436.3241536 181.27712C436.3241536 181.27712,436.4926336 181.27712,436.6330336 181.27712C439.16023359999997 181.41752,440.6484736 183.07424,440.6484736 185.15216C440.6484736 186.16304,440.3115136 187.31432,439.4691136 188.40944C437.8685536 190.5716,435.2571136 191.75096,432.9826336 191.75096C431.2135936 191.75096,429.6972736 191.04896,428.9671936 189.61688C428.7425536 189.05528,428.6302336 188.52176,428.6302336 187.93208C428.6302336 184.87136,432.0559936 181.47368,435.9871936 181.27712"></path></g></g><g class="vf-modifiers"></g></g><g class="vf-stavenote" id="vf-auto4091223"><g class="vf-note" pointer-events="bounding-box"><g class="vf-stem" pointer-events="bounding-box"><path stroke-width="1.5" fill="none" stroke="#000000" stroke-dasharray="none" class="vf-stem" id="vf-auto4091223-stem" d="M489.3802336 166.5L489.3802336 201.5"></path></g><g class="vf-notehead" pointer-events="bounding-box"><path stroke-width="0.3" fill="#000000" stroke="none" stroke-dasharray="none" d="M488.6302336 166.5M495.9871936 161.27712C496.0995136 161.27712,496.2679936 161.27712,496.2960736 161.27712C496.2960736 161.27712,496.3241536 161.27712,496.3241536 161.27712C496.3241536 161.27712,496.4926336 161.27712,496.6330336 161.27712C499.16023359999997 161.41752,500.6484736 163.07424,500.6484736 165.15216C500.6484736 166.16304,500.3115136 167.31432,499.4691136 168.40944C497.8685536 170.5716,495.2571136 171.75096,492.9826336 171.75096C491.2135936 171.75096,489.6972736 171.04896,488.9671936 169.61688C488.7425536 169.05528,488.6302336 168.52176,488.6302336 167.93208C488.6302336 164.87136,492.0559936 161.47368,495.9871936 161.27712"></path></g></g><g class="vf-modifiers"></g></g><path stroke-width="1" fill="none" stroke="#000000" stroke-dasharray="none" d="M546.8804671999999 166.5L742.1307007999999 166.5"></path><path stroke-width="1" fill="none" stroke="#000000" stroke-dasharray="none" d="M546.8804671999999 176.5L742.1307007999999 176.5"></path><path stroke-width="1" fill="none" stroke="#000000" stroke-dasharray="none" d="M546.8804671999999 186.5L742.1307007999999 186.5"></path><path stroke-width="1" fill="none" stroke="#000000" stroke-dasharray="none" d="M546.8804671999999 196.5L742.1307007999999 196.5"></path><path stroke-width="1" fill="none" stroke="#000000" stroke-dasharray="none" d="M546.8804671999999 206.5L742.1307007999999 206.5"></path><rect stroke-width="0.3" fill="#000000" stroke="#000000" stroke-dasharray="none" x="742.1307007999999" y="166" width="1" height="41"></rect><g class="vf-stavenote" id="vf-auto4091262"><g class="vf-note" pointer-events="bounding-box"><g class="vf-stem" pointer-events="bounding-box"><path stroke-width="1.5" fill="none" stroke="#000000" stroke-dasharray="none" class="vf-stem" id="vf-auto4091262-stem" d="M605.1487071999999 206.5L605.1487071999999 171.5"></path></g><g class="vf-notehead" pointer-events="bounding-box"><path stroke-width="0.3" fill="#000000" stroke="none" stroke-dasharray="none" d="M593.8804671999999 206.5M601.2374271999998 201.27712C601.3497471999999 201.27712,601.5182271999998 201.27712,601.5463071999999 201.27712C601.5463071999999 201.27712,601.5743871999999 201.27712,601.5743871999999 201.27712C601.5743871999999 201.27712,601.7428671999999 201.27712,601.8832671999999 201.27712C604.4104671999999 201.41752,605.8987071999999 203.07424,605.8987071999999 205.15216C605.8987071999999 206.16304,605.5617471999999 207.31432,604.7193471999999 208.40944C603.1187871999999 210.5716,600.5073471999999 211.75096,598.2328671999999 211.75096C596.4638271999999 211.75096,594.9475071999999 211.04896,594.2174271999999 209.61688C593.9927871999998 209.05528,593.8804671999999 208.52176,593.8804671999999 207.93208C593.8804671999999 204.87136,597.3062271999999 201.47368,601.2374271999998 201.27712"></path></g></g><g class="vf-modifiers"></g></g><g class="vf-stavenote" id="vf-auto4091270"><g class="vf-note" pointer-events="bounding-box"><g class="vf-stem" pointer-events="bounding-box"><path stroke-width="1.5" fill="none" stroke="#000000" stroke-dasharray="none" class="vf-stem" id="vf-auto4091270-stem" d="M624.6304671999999 186.5L624.6304671999999 221.5"></path></g><g class="vf-notehead" pointer-events="bounding-box"><path stroke-width="0.3" fill="#000000" stroke="none" stroke-dasharray="none" d="M623.8804671999999 186.5M631.2374271999998 181.27712C631.3497471999999 181.27712,631.5182271999998 181.27712,631.5463071999999 181.27712C631.5463071999999 181.27712,631.5743871999999 181.27712,631.5743871999999 181.27712C631.5743871999999 181.27712,631.7428671999999 181.27712,631.8832671999999 181.27712C634.4104671999999 181.41752,635.8987071999999 183.07424,635.8987071999999 185.15216C635.8987071999999 186.16304,635.5617471999999 187.31432,634.7193471999999 188.40944C633.1187871999999 190.5716,630.5073471999999 191.75096,628.2328671999999 191.75096C626.4638271999999 191.75096,624.9475071999999 191.04896,624.2174271999999 189.61688C623.9927871999998 189.05528,623.8804671999999 188.52176,623.8804671999999 187.93208C623.8804671999999 184.87136,627.3062271999999 181.47368,631.2374271999998 181.27712"></path></g></g><g class="vf-modifiers"></g></g><g class="vf-stavenote" id="vf-auto4091278"><g class="vf-note" pointer-events="bounding-box"><g class="vf-stem" pointer-events="bounding-box"><path stroke-width="1.5" fill="none" stroke="#000000" stroke-dasharray="none" class="vf-stem" id="vf-auto4091278-stem" d="M695.1487071999999 196.5L695.1487071999999 161.5"></path></g><g class="vf-notehead" pointer-events="bounding-box"><path stroke-width="0.3" fill="#000000" stroke="none" stroke-dasharray="none" d="M683.8804671999999 196.5M691.2374271999998 191.27712C691.3497471999999 191.27712,691.5182271999998 191.27712,691.5463071999999 191.27712C691.5463071999999 191.27712,691.5743871999999 191.27712,691.5743871999999 191.27712C691.5743871999999 191.27712,691.7428671999999 191.27712,691.8832671999999 191.27712C694.4104671999999 191.41752,695.8987071999999 193.07424,695.8987071999999 195.15216C695.8987071999999 196.16304,695.5617471999999 197.31432,694.7193471999999 198.40944C693.1187871999999 200.5716,690.5073471999999 201.75096,688.2328671999999 201.75096C686.4638271999999 201.75096,684.9475071999999 201.04896,684.2174271999999 199.61688C683.9927871999998 199.05528,683.8804671999999 198.52176,683.8804671999999 197.93208C683.8804671999999 194.87136,687.3062271999999 191.47368,691.2374271999998 191.27712"></path></g></g><g class="vf-modifiers"></g></g><path stroke-width="1" fill="none" stroke="#000000" stroke-dasharray="none" d="M742.1307007999998 166.5L949.9809343999997 166.5"></path><path stroke-width="1" fill="none" stroke="#000000" stroke-dasharray="none" d="M742.1307007999998 176.5L949.9809343999997 176.5"></path><path stroke-width="1" fill="none" stroke="#000000" stroke-dasharray="none" d="M742.1307007999998 186.5L949.9809343999997 186.5"></path><path stroke-width="1" fill="none" stroke="#000000" stroke-dasharray="none" d="M742.1307007999998 196.5L949.9809343999997 196.5"></path><path stroke-width="1" fill="none" stroke="#000000" stroke-dasharray="none" d="M742.1307007999998 206.5L949.9809343999997 206.5"></path><rect stroke-width="0.3" fill="#000000" stroke="#000000" stroke-dasharray="none" x="944.9809343999997" y="166" width="1" height="41"></rect><rect stroke-width="0.3" fill="#000000" stroke="#000000" stroke-dasharray="none" x="947.9809343999997" y="166" width="3" height="41"></rect><g class="vf-stavenote" id="vf-auto4091317"><g class="vf-note" pointer-events="bounding-box"><g class="vf-stem" pointer-events="bounding-box"><path stroke-width="1.5" fill="none" stroke="#000000" stroke-dasharray="none" class="vf-stem" id="vf-auto4091317-stem" d="M770.3989407999998 196.5L770.3989407999998 161.5"></path></g><g class="vf-notehead" pointer-events="bounding-box"><path stroke-width="0.3" fill="#000000" stroke="none" stroke-dasharray="none" d="M759.1307007999998 196.5M766.4876607999997 191.27712C766.5999807999998 191.27712,766.7684607999997 191.27712,766.7965407999998 191.27712C766.7965407999998 191.27712,766.8246207999998 191.27712,766.8246207999998 191.27712C766.8246207999998 191.27712,766.9931007999998 191.27712,767.1335007999998 191.27712C769.6607007999997 191.41752,771.1489407999998 193.07424,771.1489407999998 195.15216C771.1489407999998 196.16304,770.8119807999998 197.31432,769.9695807999998 198.40944C768.3690207999998 200.5716,765.7575807999998 201.75096,763.4831007999998 201.75096C761.7140607999997 201.75096,760.1977407999998 201.04896,759.4676607999997 199.61688C759.2430207999997 199.05528,759.1307007999998 198.52176,759.1307007999998 197.93208C759.1307007999998 194.87136,762.5564607999997 191.47368,766.4876607999997 191.27712"></path></g></g><g class="vf-modifiers"></g></g><path stroke-width="1" fill="none" stroke="#000000" stroke-dasharray="none" d="M788.1307007999998 216.5L806.1489407999998 216.5"></path><g class="vf-stavenote" id="vf-auto4091325"><g class="vf-note" pointer-events="bounding-box"><g class="vf-stem" pointer-events="bounding-box"><path stroke-width="1.5" fill="none" stroke="#000000" stroke-dasharray="none" class="vf-stem" id="vf-auto4091325-stem" d="M802.3989407999998 216.5L802.3989407999998 181.5"></path></g><g class="vf-notehead" pointer-events="bounding-box"><path stroke-width="0.3" fill="#000000" stroke="none" stroke-dasharray="none" d="M791.1307007999998 216.5M798.4876607999997 211.27712C798.5999807999998 211.27712,798.7684607999997 211.27712,798.7965407999998 211.27712C798.7965407999998 211.27712,798.8246207999998 211.27712,798.8246207999998 211.27712C798.8246207999998 211.27712,798.9931007999998 211.27712,799.1335007999998 211.27712C801.6607007999997 211.41752,803.1489407999998 213.07424,803.1489407999998 215.15216C803.1489407999998 216.16304,802.8119807999998 217.31432,801.9695807999998 218.40944C800.3690207999998 220.5716,797.7575807999998 221.75096,795.4831007999998 221.75096C793.7140607999997 221.75096,792.1977407999998 221.04896,791.4676607999997 219.61688C791.2430207999997 219.05528,791.1307007999998 218.52176,791.1307007999998 217.93208C791.1307007999998 214.87136,794.5564607999997 211.47368,798.4876607999997 211.27712"></path></g></g><g class="vf-modifiers"></g></g><g class="vf-stavenote" id="vf-auto4091333"><g class="vf-note" pointer-events="bounding-box"><g class="vf-stem" pointer-events="bounding-box"><path stroke-width="1.5" fill="none" stroke="#000000" stroke-dasharray="none" class="vf-stem" id="vf-auto4091333-stem" d="M823.8807007999998 181.5L823.8807007999998 216.5"></path></g><g class="vf-notehead" pointer-events="bounding-box"><path stroke-width="0.3" fill="#000000" stroke="none" stroke-dasharray="none" d="M823.1307007999998 181.5M830.4876607999997 176.27712C830.5999807999998 176.27712,830.7684607999997 176.27712,830.7965407999998 176.27712C830.7965407999998 176.27712,830.8246207999998 176.27712,830.8246207999998 176.27712C830.8246207999998 176.27712,830.9931007999998 176.27712,831.1335007999998 176.27712C833.6607007999997 176.41752,835.1489407999998 178.07424,835.1489407999998 180.15216C835.1489407999998 181.16304,834.8119807999998 182.31432,833.9695807999998 183.40944C832.3690207999998 185.5716,829.7575807999998 186.75096,827.4831007999998 186.75096C825.7140607999997 186.75096,824.1977407999998 186.04896,823.4676607999997 184.61688C823.2430207999997 184.05528,823.1307007999998 183.52176,823.1307007999998 182.93208C823.1307007999998 179.87136,826.5564607999997 176.47368,830.4876607999997 176.27712"></path></g></g><g class="vf-modifiers"></g></g><path stroke-width="1" fill="none" stroke="#000000" stroke-dasharray="none" d="M852.1307007999998 216.5L870.1489407999998 216.5"></path><g class="vf-stavenote" id="vf-auto4091341"><g class="vf-note" pointer-events="bounding-box"><g class="vf-stem" pointer-events="bounding-box"><path stroke-width="1.5" fill="none" stroke="#000000" stroke-dasharray="none" class="vf-stem" id="vf-auto4091341-stem" d="M866.3989407999998 216.5L866.3989407999998 181.5"></path></g><g class="vf-notehead" pointer-events="bounding-box"><path stroke-width="0.3" fill="#000000" stroke="none" stroke-dasharray="none" d="M855.1307007999998 216.5M862.4876607999997 211.27712C862.5999807999998 211.27712,862.7684607999997 211.27712,862.7965407999998 211.27712C862.7965407999998 211.27712,862.8246207999998 211.27712,862.8246207999998 211.27712C862.8246207999998 211.27712,862.9931007999998 211.27712,863.1335007999998 211.27712C865.6607007999997 211.41752,867.1489407999998 213.07424,867.1489407999998 215.15216C867.1489407999998 216.16304,866.8119807999998 217.31432,865.9695807999998 218.40944C864.3690207999998 220.5716,861.7575807999998 221.75096,859.4831007999998 221.75096C857.7140607999997 221.75096,856.1977407999998 221.04896,855.4676607999997 219.61688C855.2430207999997 219.05528,855.1307007999998 218.52176,855.1307007999998 217.93208C855.1307007999998 214.87136,858.5564607999997 211.47368,862.4876607999997 211.27712"></path></g></g><g class="vf-modifiers"></g></g><g class="vf-stavenote" id="vf-auto4091349"><g class="vf-note" pointer-events="bounding-box"><g class="vf-stem" pointer-events="bounding-box"><path stroke-width="1.5" fill="none" stroke="#000000" stroke-dasharray="none" class="vf-stem" id="vf-auto4091349-stem" d="M887.8807007999998 176.5L887.8807007999998 211.5"></path></g><g class="vf-notehead" pointer-events="bounding-box"><path stroke-width="0.3" fill="#000000" stroke="none" stroke-dasharray="none" d="M887.1307007999998 176.5M894.4876607999997 171.27712C894.5999807999998 171.27712,894.7684607999997 171.27712,894.7965407999998 171.27712C894.7965407999998 171.27712,894.8246207999998 171.27712,894.8246207999998 171.27712C894.8246207999998 171.27712,894.9931007999998 171.27712,895.1335007999998 171.27712C897.6607007999997 171.41752,899.1489407999998 173.07424,899.1489407999998 175.15216C899.1489407999998 176.16304,898.8119807999998 177.31432,897.9695807999998 178.40944C896.3690207999998 180.5716,893.7575807999998 181.75096,891.4831007999998 181.75096C889.7140607999997 181.75096,888.1977407999998 181.04896,887.4676607999997 179.61688C887.2430207999997 179.05528,887.1307007999998 178.52176,887.1307007999998 177.93208C887.1307007999998 174.87136,890.5564607999997 171.47368,894.4876607999997 171.27712"></path></g></g><g class="vf-modifiers"></g></g><g class="vf-stavenote" id="vf-auto4091357"><g class="vf-note" pointer-events="bounding-box"><g class="vf-stem" pointer-events="bounding-box"><path stroke-width="1.5" fill="none" stroke="#000000" stroke-dasharray="none" class="vf-stem" id="vf-auto4091357-stem" d="M930.3989407999998 206.5L930.3989407999998 171.5"></path></g><g class="vf-notehead" pointer-events="bounding-box"><path stroke-width="0.3" fill="#000000" stroke="none" stroke-dasharray="none" d="M919.1307007999998 206.5M926.4876607999997 201.27712C926.5999807999998 201.27712,926.7684607999997 201.27712,926.7965407999998 201.27712C926.7965407999998 201.27712,926.8246207999998 201.27712,926.8246207999998 201.27712C926.8246207999998 201.27712,926.9931007999998 201.27712,927.1335007999998 201.27712C929.6607007999997 201.41752,931.1489407999998 203.07424,931.1489407999998 205.15216C931.1489407999998 206.16304,930.8119807999998 207.31432,929.9695807999998 208.40944C928.3690207999998 210.5716,925.7575807999998 211.75096,923.4831007999998 211.75096C921.7140607999997 211.75096,920.1977407999998 211.04896,919.4676607999997 209.61688C919.2430207999997 209.05528,919.1307007999998 208.52176,919.1307007999998 207.93208C919.1307007999998 204.87136,922.5564607999997 201.47368,926.4876607999997 201.27712"></path></g></g><g class="vf-modifiers"></g></g><g class="vf-text"><text stroke-width="0.3" fill="#000000" stroke="none" stroke-dasharray="none" font-family="Times New Roman" font-size="23px" font-weight="bold" font-style="italic" x="132.68912" y="240.5">mp</text></g><path stroke-width="1" fill="none" stroke="#000000" stroke-dasharray="none" d="M70 255.29999999999998L351.63023359999994 255.29999999999998"></path><path stroke-width="1" fill="none" stroke="#000000" stroke-dasharray="none" d="M70 265.29999999999995L351.63023359999994 265.29999999999995"></path><path stroke-width="1" fill="none" stroke="#000000" stroke-dasharray="none" d="M70 275.29999999999995L351.63023359999994 275.29999999999995"></path><path stroke-width="1" fill="none" stroke="#000000" stroke-dasharray="none" d="M70 285.29999999999995L351.63023359999994 285.29999999999995"></path><path stroke-width="1" fill="none" stroke="#000000" stroke-dasharray="none" d="M70 295.29999999999995L351.63023359999994 295.29999999999995"></path><rect stroke-width="0.3" fill="#000000" stroke="#000000" stroke-dasharray="none" x="351.63023359999994" y="254.79999999999998" width="1" height="40.99999999999997"></rect><g class="vf-clef"><path stroke-width="0.3" fill="#000000" stroke="none" stroke-dasharray="none" d="M75 265.29999999999995M83.8416 255.24879999999996C84.072 255.19119999999995,84.3024 255.19119999999995,84.5616 255.19119999999995C85.5696 255.19119999999995,86.7504 255.30639999999997,87.7584 255.50799999999995C92.4816 256.4872,95.736 259.68399999999997,96.3408 263.9464C96.3984 264.40719999999993,96.4272 264.83919999999995,96.4272 265.29999999999995C96.4272 267.89199999999994,95.5344 271.23279999999994,94.008 274.02639999999997C90.3792 280.59279999999995,83.7552 285.316,75.8064 287.044C75.6624 287.044,75.5472 287.0728,75.4032 287.0728C75.1152 287.0728,74.9712 286.9,74.9712 286.64079999999996C74.9712 286.35279999999995,75.0288 286.2664,75.6048 286.03599999999994C84.7056 282.6088,90.7824 275.20719999999994,91.3296 266.91279999999995C91.3584 266.48079999999993,91.3584 265.99119999999994,91.3584 265.61679999999996C91.3584 261.5848,90.12 258.58959999999996,87.7296 257.0919999999999C86.6928 256.42959999999994,85.5696 256.11279999999994,84.36 256.11279999999994C81.6816 256.11279999999994,78.9456 257.63919999999996,77.6784 260.20239999999995C77.6208 260.40399999999994,77.4192 260.83599999999996,77.4192 260.86479999999995C77.4192 260.86479999999995,77.4192 260.86479999999995,77.4192 260.86479999999995C77.4192 260.86479999999995,77.448 260.83599999999996,77.5344 260.80719999999997C78.168 260.40399999999994,78.8592 260.20239999999995,79.5792 260.20239999999995C80.5872 260.20239999999995,81.6528 260.63439999999997,82.4016 261.44079999999997C83.0928 262.1895999999999,83.4672 263.19759999999997,83.4672 264.1192C83.4672 265.99119999999994,82.0848 267.89199999999994,79.9248 268.0936C79.7808 268.0936,79.6368 268.12239999999997,79.4928 268.12239999999997C77.1024 268.12239999999997,75.1728 265.93359999999996,75.1728 263.1688C75.1728 263.11119999999994,75.1728 263.02479999999997,75.1728 262.996C75.288 258.8776,79.0608 255.50799999999995,83.8416 255.24879999999996M99.1632 259.10799999999995C99.2208 259.07919999999996,99.2496 259.07919999999996,99.336 259.07919999999996C99.5376 259.07919999999996,99.768 259.10799999999995,99.8256 259.1655999999999C100.54560000000001 259.36719999999997,100.8912 260.00079999999997,100.8912 260.6056C100.8912 261.12399999999997,100.632 261.64239999999995,100.11359999999999 261.93039999999996C99.912 262.07439999999997,99.6528 262.10319999999996,99.39359999999999 262.10319999999996C98.9904 262.10319999999996,98.5584 261.93039999999996,98.2704 261.5559999999999C98.03999999999999 261.268,97.9248 260.9512,97.9248 260.63439999999997C97.9248 259.91439999999994,98.3856 259.1944,99.1632 259.10799999999995M99.1632 268.52559999999994C99.2208 268.52559999999994,99.2496 268.52559999999994,99.336 268.52559999999994C99.5376 268.52559999999994,99.768 268.55439999999993,99.8256 268.61199999999997C100.54560000000001 268.81359999999995,100.8912 269.44719999999995,100.8912 270.05199999999996C100.8912 270.57039999999995,100.632 271.08879999999994,100.11359999999999 271.34799999999996C99.912 271.49199999999996,99.6528 271.54959999999994,99.39359999999999 271.54959999999994C98.9904 271.54959999999994,98.5584 271.34799999999996,98.2704 271.00239999999997C98.03999999999999 270.71439999999996,97.9248 270.39759999999995,97.9248 270.05199999999996C97.9248 269.33199999999994,98.3856 268.64079999999996,99.1632 268.52559999999994"></path></g><path stroke-width="0.3" fill="#000000" stroke="none" stroke-dasharray="none" d="M116 275.29999999999995M123.344 256.63759999999996C123.4592 256.63759999999996,123.6608 256.63759999999996,123.8912 256.63759999999996C124.2944 256.63759999999996,124.8416 256.63759999999996,125.0432 256.69519999999994C126.7712 256.95439999999996,128.6144 258.1928,128.96 259.316C129.0464 259.57519999999994,129.0752 259.80559999999997,129.0752 260.03599999999994C129.0752 261.33199999999994,127.9808 262.31119999999993,126.8 262.31119999999993C126.3392 262.31119999999993,125.8784 262.19599999999997,125.4464 261.8504C124.928 261.3896,124.64 260.81359999999995,124.64 260.15119999999996C124.64 259.25839999999994,125.1872 258.3367999999999,126.13759999999999 258.07759999999996C126.224 258.07759999999996,126.25280000000001 258.04879999999997,126.25280000000001 258.04879999999997C126.25280000000001 258.04879999999997,126.224 257.99119999999994,126.13759999999999 257.96239999999995C125.504 257.67439999999993,124.8704 257.5592,124.2944 257.5592C123.4016 257.5592,122.624 257.876,122.048 258.48079999999993C121.4432 259.20079999999996,121.0112 260.66959999999995,120.7232 262.82959999999997C120.6944 263.34799999999996,120.608 264.32719999999995,120.608 264.52879999999993C120.608 264.52879999999993,120.608 264.52879999999993,120.608 264.52879999999993C120.608 264.52879999999993,120.608 264.52879999999993,120.608 264.52879999999993C120.608 264.52879999999993,120.7232 264.47119999999995,120.83840000000001 264.44239999999996C121.76 264.068,122.5664 263.924,123.4304 263.924C124.4672 263.924,125.4464 264.15439999999995,126.5408 264.7304C128.5568 265.70959999999997,129.68 267.14959999999996,129.68 268.8776C129.68 269.10799999999995,129.6224 269.36719999999997,129.5936 269.62639999999993C129.3056 271.2392,128.0672 272.56399999999996,126.0512 273.42799999999994C125.1296 273.83119999999997,124.2944 274.06159999999994,123.4592 274.06159999999994C122.624 274.06159999999994,121.76 273.8024,120.8096 273.3128C118.304 272.0456,116.576 269.68399999999997,116.1152 266.948C116.0288 266.40079999999995,116 265.8536,116 265.24879999999996C116 264.03919999999994,116.1728 262.82959999999997,116.576 261.8504C117.6704 259.08559999999994,120.464 256.95439999999996,123.344 256.63759999999996M123.74719999999999 264.84559999999993C123.632 264.84559999999993,123.5168 264.84559999999993,123.4016 264.84559999999993C122.7968 264.84559999999993,122.336 265.0472,122.048 265.364C121.6448 265.96879999999993,121.35679999999999 267.46639999999996,121.35679999999999 268.79119999999995C121.35679999999999 269.07919999999996,121.35679999999999 269.36719999999997,121.3856 269.59759999999994C121.5008 270.9512,121.8176 272.07439999999997,122.1344 272.56399999999996C122.3648 272.90959999999995,122.8544 273.11119999999994,123.4016 273.11119999999994C123.5168 273.11119999999994,123.6608 273.11119999999994,123.776 273.08239999999995C124.6112 272.96719999999993,124.928 272.44879999999995,125.2448 270.80719999999997C125.3888 270.02959999999996,125.4752 269.36719999999997,125.4752 268.7048C125.4752 268.04239999999993,125.3888 267.4087999999999,125.2448 266.6312C124.9568 265.45039999999995,124.5824 264.96079999999995,123.74719999999999 264.84559999999993M122.7968 275.32879999999994L122.8544 275.32879999999994L122.768 275.32879999999994L122.7968 275.32879999999994M122.7968 255.91759999999996L122.8544 255.91759999999996L122.768 255.91759999999996L122.7968 255.91759999999996"></path><path stroke-width="0.3" fill="#000000" stroke="none" stroke-dasharray="none" d="M116.1008 295.29999999999995M121.11200000000001 276.95439999999996C121.14080000000001 276.9256,121.54400000000001 276.9256,122.78240000000001 276.9256C123.1568 276.9256,123.56 276.9256,124.0784 276.9256L126.9872 276.9256L127.0736 277.01199999999994C127.2176 277.09839999999997,127.304 277.2424,127.304 277.35759999999993C127.304 277.53039999999993,127.2176 277.64559999999994,127.1024 277.76079999999996C127.0736 277.84719999999993,126.8144 278.07759999999996,126.64160000000001 278.3367999999999L125.1152 280.0936L123.1568 282.31119999999993L122.12 283.49199999999996L120.5648 285.27759999999995L118.52000000000001 287.61039999999997C118.1744 288.04239999999993,117.80000000000001 288.388,117.80000000000001 288.388C117.80000000000001 288.388,117.80000000000001 288.388,117.80000000000001 288.388C117.80000000000001 288.44559999999996,118.0592 288.44559999999996,120.4496 288.44559999999996L123.0704 288.44559999999996L123.0704 286.57359999999994C123.0704 284.67279999999994,123.0704 284.64399999999995,123.09920000000001 284.61519999999996C123.1568 284.52879999999993,123.41600000000001 284.21199999999993,124.424 283.03119999999996L124.8272 282.59919999999994L125.2304 282.1672L125.8352 281.3896L126.4688 280.7272L126.7856 280.32399999999996C126.9008 280.15119999999996,127.0736 280.12239999999997,127.2176 280.12239999999997C127.3904 280.12239999999997,127.5344 280.20879999999994,127.6208 280.35279999999995C127.6496 280.43919999999997,127.6496 280.49679999999995,127.6496 282.62799999999993C127.6496 283.1176,127.6496 283.72239999999994,127.6496 284.44239999999996L127.6496 288.44559999999996L128.3696 288.44559999999996C129.032 288.44559999999996,129.0608 288.44559999999996,129.1472 288.47439999999995C129.3776 288.5608,129.49280000000002 288.79119999999995,129.49280000000002 289.05039999999997C129.49280000000002 289.1944,129.464 289.36719999999997,129.3488 289.4823999999999C129.17600000000002 289.62639999999993,129.1472 289.62639999999993,128.3696 289.62639999999993L127.6496 289.62639999999993L127.6496 290.11599999999993C127.67840000000001 291.5848,127.96640000000001 292.16079999999994,129.08960000000002 292.76559999999995C129.49280000000002 292.96719999999993,129.57920000000001 293.02479999999997,129.57920000000001 293.3128C129.57920000000001 293.51439999999997,129.5216 293.60079999999994,129.3776 293.71599999999995L129.2912 293.74479999999994L125.3456 293.74479999999994L121.42880000000001 293.74479999999994L121.34240000000001 293.71599999999995C121.1696 293.60079999999994,121.14080000000001 293.51439999999997,121.14080000000001 293.3128C121.14080000000001 293.02479999999997,121.1696 292.96719999999993,121.6016 292.76559999999995C122.7248 292.16079999999994,123.01280000000001 291.5848,123.01280000000001 290.11599999999993L123.01280000000001 289.62639999999993L119.7008 289.62639999999993C119.096 289.68399999999997,118.60640000000001 289.68399999999997,118.20320000000001 289.68399999999997C116.3888 289.68399999999997,116.36000000000001 289.62639999999993,116.33120000000001 289.62639999999993C116.1584 289.56879999999995,116.1008 289.39599999999996,116.1008 289.1944C116.1008 289.1944,116.1008 289.1944,116.1008 289.1944C116.1008 288.99279999999993,116.1008 288.99279999999993,116.6768 288.33039999999994C119.096 285.39279999999997,120.79520000000001 281.13039999999995,120.79520000000001 277.73199999999997C120.79520000000001 277.21359999999993,120.8816 277.04079999999993,121.11200000000001 276.95439999999996M122.84 295.32879999999994L122.86880000000001 295.32879999999994L122.78240000000001 295.32879999999994L122.84 295.32879999999994M122.84 275.91759999999994L122.86880000000001 275.91759999999994L122.78240000000001 275.91759999999994L122.84 275.91759999999994"></path><g class="vf-stavenote" id="vf-auto4091187"><g class="vf-note" pointer-events="bounding-box"><g class="vf-stem" pointer-events="bounding-box"><path stroke-width="1.5" fill="none" stroke="#000000" stroke-dasharray="none" class="vf-stem" id="vf-auto4091187-stem" d="M248.09 265.29999999999995L248.09 300.29999999999995"></path></g><g class="vf-notehead" pointer-events="bounding-box"><path stroke-width="0.3" fill="#000000" stroke="none" stroke-dasharray="none" d="M247.34 265.29999999999995M254.69696 260.07712C254.80928 260.07712,254.97776 260.07712,255.00584 260.07712C255.00584 260.07712,255.03392 260.07712,255.03392 260.07712C255.03392 260.07712,255.2024 260.07712,255.3428 260.07712C257.87 260.21752,259.35824 261.87423999999993,259.35824 263.95215999999994C259.35824 264.96304,259.02128 266.11431999999996,258.17888 267.20944C256.57832 269.37159999999994,253.96688 270.55096,251.6924 270.55096C249.92336 270.55096,248.40704 269.84896,247.67696 268.41687999999994C247.45232000000001 267.85527999999994,247.34 267.3217599999999,247.34 266.73207999999994C247.34 263.67135999999994,250.76576 260.27367999999996,254.69696 260.07712"></path></g></g><g class="vf-modifiers"></g></g><g class="vf-stavenote" id="vf-auto4091195"><g class="vf-note" pointer-events="bounding-box"><g class="vf-stem" pointer-events="bounding-box"><path stroke-width="1.5" fill="none" stroke="#000000" stroke-dasharray="none" class="vf-stem" id="vf-auto4091195-stem" d="M293.82824 280.29999999999995L293.82824 245.29999999999995"></path></g><g class="vf-notehead" pointer-events="bounding-box"><path stroke-width="0.3" fill="#000000" stroke="none" stroke-dasharray="none" d="M282.56 280.29999999999995M289.91696 275.07712C290.02928 275.07712,290.19776 275.07712,290.22584 275.07712C290.22584 275.07712,290.25392 275.07712,290.25392 275.07712C290.25392 275.07712,290.4224 275.07712,290.5628 275.07712C293.09000000000003 275.21752,294.57824 276.87423999999993,294.57824 278.95215999999994C294.57824 279.96304,294.24128 281.11431999999996,293.39888 282.20944C291.79832 284.37159999999994,289.18688 285.55096,286.9124 285.55096C285.14336000000003 285.55096,283.62704 284.84896,282.89696 283.41687999999994C282.67232 282.85527999999994,282.56 282.3217599999999,282.56 281.73207999999994C282.56 278.67135999999994,285.98576 275.27367999999996,289.91696 275.07712"></path></g></g><g class="vf-modifiers"></g></g><rect stroke-width="0.3" fill="#000000" stroke="#000000" stroke-dasharray="none" x="351.63023359999994" y="166.5" width="1" height="129.79999999999995"></rect><rect stroke-width="0.3" fill="#000000" stroke="#000000" stroke-dasharray="none" x="70" y="166.5" width="1" height="129.79999999999995"></rect><path stroke-width="1" fill="none" stroke="#000000" stroke-dasharray="none" d="M351.6302336 255.29999999999998L546.8804671999999 255.29999999999998"></path><path stroke-width="1" fill="none" stroke="#000000" stroke-dasharray="none" d="M351.6302336 265.29999999999995L546.8804671999999 265.29999999999995"></path><path stroke-width="1" fill="none" stroke="#000000" stroke-dasharray="none" d="M351.6302336 275.29999999999995L546.8804671999999 275.29999999999995"></path><path stroke-width="1" fill="none" stroke="#000000" stroke-dasharray="none" d="M351.6302336 285.29999999999995L546.8804671999999 285.29999999999995"></path><path stroke-width="1" fill="none" stroke="#000000" stroke-dasharray="none" d="M351.6302336 295.29999999999995L546.8804671999999 295.29999999999995"></path><rect stroke-width="0.3" fill="#000000" stroke="#000000" stroke-dasharray="none" x="546.8804671999999" y="254.79999999999998" width="1" height="40.99999999999997"></rect><g class="vf-stavenote" id="vf-auto4091235"><g class="vf-note" pointer-events="bounding-box"><g class="vf-stem" pointer-events="bounding-box"><path stroke-width="1.5" fill="none" stroke="#000000" stroke-dasharray="none" class="vf-stem" id="vf-auto4091235-stem" d="M369.3802336 265.29999999999995L369.3802336 300.29999999999995"></path></g><g class="vf-notehead" pointer-events="bounding-box"><path stroke-width="0.3" fill="#000000" stroke="none" stroke-dasharray="none" d="M368.6302336 265.29999999999995M375.9871936 260.07712C376.0995136 260.07712,376.2679936 260.07712,376.2960736 260.07712C376.2960736 260.07712,376.3241536 260.07712,376.3241536 260.07712C376.3241536 260.07712,376.4926336 260.07712,376.6330336 260.07712C379.16023359999997 260.21752,380.6484736 261.87423999999993,380.6484736 263.95215999999994C380.6484736 264.96304,380.3115136 266.11431999999996,379.4691136 267.20944C377.8685536 269.37159999999994,375.2571136 270.55096,372.9826336 270.55096C371.2135936 270.55096,369.6972736 269.84896,368.9671936 268.41687999999994C368.7425536 267.85527999999994,368.6302336 267.3217599999999,368.6302336 266.73207999999994C368.6302336 263.67135999999994,372.0559936 260.27367999999996,375.9871936 260.07712"></path></g></g><g class="vf-modifiers"></g></g><g class="vf-stavenote" id="vf-auto4091243"><g class="vf-note" pointer-events="bounding-box"><g class="vf-stem" pointer-events="bounding-box"><path stroke-width="1.5" fill="none" stroke="#000000" stroke-dasharray="none" class="vf-stem" id="vf-auto4091243-stem" d="M469.8984736 285.29999999999995L469.8984736 250.29999999999995"></path></g><g class="vf-notehead" pointer-events="bounding-box"><path stroke-width="0.3" fill="#000000" stroke="none" stroke-dasharray="none" d="M458.6302336 285.29999999999995M465.9871936 280.07712C466.0995136 280.07712,466.2679936 280.07712,466.2960736 280.07712C466.2960736 280.07712,466.3241536 280.07712,466.3241536 280.07712C466.3241536 280.07712,466.4926336 280.07712,466.6330336 280.07712C469.16023359999997 280.21752,470.6484736 281.87423999999993,470.6484736 283.95215999999994C470.6484736 284.96304,470.3115136 286.11431999999996,469.4691136 287.20944C467.8685536 289.37159999999994,465.2571136 290.55096,462.9826336 290.55096C461.2135936 290.55096,459.6972736 289.84896,458.9671936 288.41687999999994C458.7425536 287.85527999999994,458.6302336 287.3217599999999,458.6302336 286.73207999999994C458.6302336 283.67135999999994,462.0559936 280.27367999999996,465.9871936 280.07712"></path></g></g><g class="vf-modifiers"></g></g><g class="vf-stavenote" id="vf-auto4091251"><g class="vf-note" pointer-events="bounding-box"><g class="vf-stem" pointer-events="bounding-box"><path stroke-width="1.5" fill="none" stroke="#000000" stroke-dasharray="none" class="vf-stem" id="vf-auto4091251-stem" d="M519.3802336 260.29999999999995L519.3802336 295.29999999999995"></path></g><g class="vf-notehead" pointer-events="bounding-box"><path stroke-width="0.3" fill="#000000" stroke="none" stroke-dasharray="none" d="M518.6302336 260.29999999999995M525.9871936 255.07711999999995C526.0995136 255.07711999999995,526.2679936 255.07711999999995,526.2960736 255.07711999999995C526.2960736 255.07711999999995,526.3241536 255.07711999999995,526.3241536 255.07711999999995C526.3241536 255.07711999999995,526.4926336 255.07711999999995,526.6330336 255.07711999999995C529.1602336 255.21751999999995,530.6484736 256.87423999999993,530.6484736 258.95215999999994C530.6484736 259.96304,530.3115136 261.11431999999996,529.4691136 262.20944C527.8685536 264.37159999999994,525.2571136 265.55096,522.9826336 265.55096C521.2135936 265.55096,519.6972736 264.84896,518.9671936 263.41687999999994C518.7425536 262.85527999999994,518.6302336 262.3217599999999,518.6302336 261.73207999999994C518.6302336 258.67135999999994,522.0559936 255.27367999999996,525.9871936 255.07711999999995"></path></g></g><g class="vf-modifiers"></g></g><rect stroke-width="0.3" fill="#000000" stroke="#000000" stroke-dasharray="none" x="546.8804671999999" y="166.5" width="1" height="129.79999999999995"></rect><path stroke-width="1" fill="none" stroke="#000000" stroke-dasharray="none" d="M546.8804671999999 255.29999999999998L742.1307007999999 255.29999999999998"></path><path stroke-width="1" fill="none" stroke="#000000" stroke-dasharray="none" d="M546.8804671999999 265.29999999999995L742.1307007999999 265.29999999999995"></path><path stroke-width="1" fill="none" stroke="#000000" stroke-dasharray="none" d="M546.8804671999999 275.29999999999995L742.1307007999999 275.29999999999995"></path><path stroke-width="1" fill="none" stroke="#000000" stroke-dasharray="none" d="M546.8804671999999 285.29999999999995L742.1307007999999 285.29999999999995"></path><path stroke-width="1" fill="none" stroke="#000000" stroke-dasharray="none" d="M546.8804671999999 295.29999999999995L742.1307007999999 295.29999999999995"></path><rect stroke-width="0.3" fill="#000000" stroke="#000000" stroke-dasharray="none" x="742.1307007999999" y="254.79999999999998" width="1" height="40.99999999999997"></rect><path stroke-width="1" fill="none" stroke="#000000" stroke-dasharray="none" d="M560.8804671999999 245.29999999999995L578.8987071999999 245.29999999999995"></path><g class="vf-stavenote" id="vf-auto4091290"><g class="vf-note" pointer-events="bounding-box"><g class="vf-stem" pointer-events="bounding-box"><path stroke-width="1.5" fill="none" stroke="#000000" stroke-dasharray="none" class="vf-stem" id="vf-auto4091290-stem" d="M564.6304671999999 240.29999999999995L564.6304671999999 275.29999999999995"></path></g><g class="vf-notehead" pointer-events="bounding-box"><path stroke-width="0.3" fill="#000000" stroke="none" stroke-dasharray="none" d="M563.8804671999999 240.29999999999995M571.2374271999998 235.07711999999995C571.3497471999999 235.07711999999995,571.5182271999998 235.07711999999995,571.5463071999999 235.07711999999995C571.5463071999999 235.07711999999995,571.5743871999999 235.07711999999995,571.5743871999999 235.07711999999995C571.5743871999999 235.07711999999995,571.7428671999999 235.07711999999995,571.8832671999999 235.07711999999995C574.4104671999999 235.21751999999995,575.8987071999999 236.87423999999996,575.8987071999999 238.95215999999996C575.8987071999999 239.96303999999995,575.5617471999999 241.11431999999996,574.7193471999999 242.20943999999994C573.1187871999999 244.37159999999994,570.5073471999999 245.55095999999995,568.2328671999999 245.55095999999995C566.4638271999999 245.55095999999995,564.9475071999999 244.84895999999995,564.2174271999999 243.41687999999996C563.9927871999998 242.85527999999996,563.8804671999999 242.32175999999995,563.8804671999999 241.73207999999997C563.8804671999999 238.67135999999996,567.3062271999999 235.27367999999996,571.2374271999998 235.07711999999995"></path></g></g><g class="vf-modifiers"></g></g><path stroke-width="1" fill="none" stroke="#000000" stroke-dasharray="none" d="M650.8804671999999 245.29999999999995L668.8987071999999 245.29999999999995"></path><g class="vf-stavenote" id="vf-auto4091298"><g class="vf-note" pointer-events="bounding-box"><g class="vf-stem" pointer-events="bounding-box"><path stroke-width="1.5" fill="none" stroke="#000000" stroke-dasharray="none" class="vf-stem" id="vf-auto4091298-stem" d="M654.6304671999999 240.29999999999995L654.6304671999999 275.29999999999995"></path></g><g class="vf-notehead" pointer-events="bounding-box"><path stroke-width="0.3" fill="#000000" stroke="none" stroke-dasharray="none" d="M653.8804671999999 240.29999999999995M661.2374271999998 235.07711999999995C661.3497471999999 235.07711999999995,661.5182271999998 235.07711999999995,661.5463071999999 235.07711999999995C661.5463071999999 235.07711999999995,661.5743871999999 235.07711999999995,661.5743871999999 235.07711999999995C661.5743871999999 235.07711999999995,661.7428671999999 235.07711999999995,661.8832671999999 235.07711999999995C664.4104671999999 235.21751999999995,665.8987071999999 236.87423999999996,665.8987071999999 238.95215999999996C665.8987071999999 239.96303999999995,665.5617471999999 241.11431999999996,664.7193471999999 242.20943999999994C663.1187871999999 244.37159999999994,660.5073471999999 245.55095999999995,658.2328671999999 245.55095999999995C656.4638271999999 245.55095999999995,654.9475071999999 244.84895999999995,654.2174271999999 243.41687999999996C653.9927871999998 242.85527999999996,653.8804671999999 242.32175999999995,653.8804671999999 241.73207999999997C653.8804671999999 238.67135999999996,657.3062271999999 235.27367999999996,661.2374271999998 235.07711999999995"></path></g></g><g class="vf-modifiers"></g></g><g class="vf-stavenote" id="vf-auto4091306"><g class="vf-note" pointer-events="bounding-box"><g class="vf-stem" pointer-events="bounding-box"><path stroke-width="1.5" fill="none" stroke="#000000" stroke-dasharray="none" class="vf-stem" id="vf-auto4091306-stem" d="M714.6304671999999 260.29999999999995L714.6304671999999 295.29999999999995"></path></g><g class="vf-notehead" pointer-events="bounding-box"><path stroke-width="0.3" fill="#000000" stroke="none" stroke-dasharray="none" d="M713.8804671999999 260.29999999999995M721.2374271999998 255.07711999999995C721.3497471999999 255.07711999999995,721.5182271999998 255.07711999999995,721.5463071999999 255.07711999999995C721.5463071999999 255.07711999999995,721.5743871999999 255.07711999999995,721.5743871999999 255.07711999999995C721.5743871999999 255.07711999999995,721.7428671999999 255.07711999999995,721.8832671999999 255.07711999999995C724.4104671999999 255.21751999999995,725.8987071999999 256.87423999999993,725.8987071999999 258.95215999999994C725.8987071999999 259.96304,725.5617471999999 261.11431999999996,724.7193471999999 262.20944C723.1187871999999 264.37159999999994,720.5073471999999 265.55096,718.2328671999999 265.55096C716.4638271999999 265.55096,714.9475071999999 264.84896,714.2174271999999 263.41687999999994C713.9927871999998 262.85527999999994,713.8804671999999 262.3217599999999,713.8804671999999 261.73207999999994C713.8804671999999 258.67135999999994,717.3062271999999 255.27367999999996,721.2374271999998 255.07711999999995"></path></g></g><g class="vf-modifiers"></g></g><rect stroke-width="0.3" fill="#000000" stroke="#000000" stroke-dasharray="none" x="742.1307007999999" y="166.5" width="1" height="129.79999999999995"></rect><path stroke-width="1" fill="none" stroke="#000000" stroke-dasharray="none" d="M742.1307007999998 255.29999999999998L949.9809343999997 255.29999999999998"></path><path stroke-width="1" fill="none" stroke="#000000" stroke-dasharray="none" d="M742.1307007999998 265.29999999999995L949.9809343999997 265.29999999999995"></path><path stroke-width="1" fill="none" stroke="#000000" stroke-dasharray="none" d="M742.1307007999998 275.29999999999995L949.9809343999997 275.29999999999995"></path><path stroke-width="1" fill="none" stroke="#000000" stroke-dasharray="none" d="M742.1307007999998 285.29999999999995L949.9809343999997 285.29999999999995"></path><path stroke-width="1" fill="none" stroke="#000000" stroke-dasharray="none" d="M742.1307007999998 295.29999999999995L949.9809343999997 295.29999999999995"></path><rect stroke-width="0.3" fill="#000000" stroke="#000000" stroke-dasharray="none" x="944.9809343999997" y="254.79999999999998" width="1" height="40.99999999999997"></rect><rect stroke-width="0.3" fill="#000000" stroke="#000000" stroke-dasharray="none" x="947.9809343999997" y="254.79999999999998" width="3" height="40.99999999999997"></rect><rect stroke-width="0.3" fill="#000000" stroke="#000000" stroke-dasharray="none" x="944.9809343999997" y="166.5" width="1" height="129.79999999999995"></rect><rect stroke-width="0.3" fill="#000000" stroke="#000000" stroke-dasharray="none" x="947.9809343999997" y="166.5" width="3" height="129.79999999999995"></rect><path stroke-width="0.3" fill="#000000" stroke="none" stroke-dasharray="none" d="M68 166.5C45.2 192.45999999999998,81.2 213.87699999999998,56 231.39999999999998C81.2 248.92299999999997,45.2 270.34,68 296.29999999999995C44 270.34,72.8 248.92299999999997,56 231.39999999999998C72.8 213.87699999999998,44 192.45999999999998,68 166.5"></path><path stroke-width="1" fill="none" stroke="#000000" stroke-dasharray="none" d="M68 166.5C45.2 192.45999999999998,81.2 213.87699999999998,56 231.39999999999998C81.2 248.92299999999997,45.2 270.34,68 296.29999999999995C44 270.34,72.8 248.92299999999997,56 231.39999999999998C72.8 213.87699999999998,44 192.45999999999998,68 166.5"></path><g class="vf-text"><text stroke-width="0.3" fill="#000000" stroke="none" stroke-dasharray="none" font-family="Times New Roman" font-size="15px" font-weight="normal" font-style="normal" x="543.3804671999999" y="163.5">3</text></g></svg>