<svg xmlns="http://www.w3.org/2000/svg"  width="1470" height="380.79999999999995" viewBox="0 0 1470 380.79999999999995"><path stroke-width="1" fill="none" stroke="#000000" stroke-dasharray="none" d="M70 166.5L347.43023359999995 166.5"></path><path stroke-width="1" fill="none" stroke="#000000" stroke-dasharray="none" d="M70 176.5L347.43023359999995 176.5"></path><path stroke-width="1" fill="none" stroke="#000000" stroke-dasharray="none" d="M70 186.5L347.43023359999995 186.5"></path><path stroke-width="1" fill="none" stroke="#000000" stroke-dasharray="none" d="M70 196.5L347.43023359999995 196.5"></path><path stroke-width="1" fill="none" stroke="#000000" stroke-dasharray="none" d="M70 206.5L347.43023359999995 206.5"></path><rect stroke-width="0.3" fill="#000000" stroke="#000000" stroke-dasharray="none" x="347.43023359999995" y="166" width="1" height="41"></rect><g class="vf-clef"><path stroke-width="0.3" fill="#000000" stroke="none" stroke-dasharray="none" d="M75 196.5M89.0544 153.3288C89.112 153.3,89.1696 153.3,89.256 153.3C89.6016 153.3,90.0048 153.588,90.5808 154.308C92.9136 156.9864,94.5552 161.652,94.5552 165.4536C94.5552 165.7416,94.4976 165.972,94.4976 166.26C94.2384 170.7816,92.3952 174.4968,88.7376 178.0104L87.7584 178.9608L87.4128 179.3352L87.4128 179.4504L87.6144 180.3144L87.9312 181.8696L88.248 183.3096C88.68 185.268,88.8528 186.276,88.8528 186.276C88.8528 186.276,88.8528 186.276,88.8528 186.276C88.8528 186.276,88.968 186.276,89.112 186.2472C89.256 186.2472,89.7168 186.1896,90.2064 186.1896C90.55199999999999 186.1896,90.8976 186.2472,91.0704 186.2472C95.1312 186.7656,98.2704 189.6744,99.1632 193.764C99.336 194.4264,99.39359999999999 195.1464,99.39359999999999 195.8664C99.39359999999999 199.7544,97.0608 203.4696,93.1728 205.2264C92.94239999999999 205.3704,92.856 205.3992,92.856 205.3992L92.856 205.428C92.856 205.428,93.0288 206.0904,93.1728 206.8392L93.6048 209.028L94.008 210.7848C94.2384 211.908,94.3536 212.7144,94.3536 213.4344C94.3536 214.06799999999998,94.2672 214.644,94.1232 215.3064C93.144 219.3096,89.6592 221.7,86.0304 221.7C84.2448 221.7,82.4016 221.124,80.7888 219.828C79.3488 218.6184,78.7152 217.524,78.7152 216.084C78.7152 213.5496,80.76 211.764,82.8912 211.764C83.64 211.764,84.3888 211.99439999999998,85.1088 212.4264C86.3184 213.2616,86.8656 214.5288,86.8656 215.7672C86.8656 217.668,85.5408 219.54,83.2656 219.684L83.0352 219.684L83.208 219.79919999999998C84.1584 220.2024,85.1088 220.404,86.0304 220.404C88.3632 220.404,90.55199999999999 219.2232,91.8768 217.1784C92.62559999999999 216.0264,93.0288 214.6728,93.0288 213.3192C93.0288 212.8008,92.94239999999999 212.2824,92.8272 211.7064C92.8272 211.6488,92.74080000000001 211.188,92.62559999999999 210.756C91.992 207.6456,91.6176 205.8312,91.6176 205.8312C91.6176 205.8312,91.6176 205.8312,91.6176 205.8312C91.56 205.8312,91.4448 205.8312,91.3584 205.8888C91.0704 205.9464,90.4656 206.0904,90.2064 206.1192C89.5728 206.2056,88.968 206.2344,88.392 206.2344C82.74719999999999 206.2344,77.5056 202.4328,75.6912 196.8168C75.2304 195.3192,74.9712 193.8216,74.9712 192.324C74.9712 189.3288,75.9216 186.3912,77.7648 183.7704C79.7808 180.9192,81.7968 178.4712,84.2736 175.9368L85.13759999999999 175.044L84.936 173.9784L84.5616 172.2216L84.072 169.9752C83.928 169.14,83.7552 168.3336,83.7264 168.1608C83.5824 167.2104,83.496 166.2888,83.496 165.3384C83.496 161.7096,84.6768 158.22480000000002,86.8944 155.4312C87.5568 154.5672,88.7376 153.4152,89.0544 153.3288M90.8112 159.0312C90.7536 159.0312,90.6672 159.0312,90.5808 159.0312C89.4 159.0312,87.8736 160.1256,86.8368 161.7384C85.7712 163.32240000000002,85.224 165.4248,85.224 167.5848C85.224 168.1608,85.25280000000001 168.7656,85.3392 169.3704C85.4256 169.8024,85.45439999999999 170.0904,85.6848 171.12720000000002L86.088 172.9416C86.2032 173.4888,86.28960000000001 173.92079999999999,86.28960000000001 173.9784L86.28960000000001 173.9784C86.3184 173.9784,87.2112 172.9992,87.4992 172.6536C90.3792 169.3992,92.1072 165.972,92.4816 162.948C92.5104 162.66,92.5104 162.4296,92.5104 162.1416C92.5104 161.24880000000002,92.3952 160.38479999999998,92.1936 159.924C91.9632 159.4632,91.4448 159.0888,90.8112 159.0312M86.4624 181.2936C86.4048 180.8904,86.3184 180.5736,86.3184 180.516C86.3184 180.516,86.3184 180.516,86.28960000000001 180.516C86.232 180.516,84.9936 181.956,84.1296 182.964C82.6608 184.7496,81.1056 186.8808,80.472 187.9176C79.2624 189.9624,78.6576 192.2376,78.6576 194.484C78.6576 195.9528,78.9456 197.364,79.464 198.7176C81.0192 202.7208,84.5904 205.2264,88.4784 205.2264C88.9392 205.2264,89.4576 205.1976,89.9472 205.1112C90.5808 204.996,91.3584 204.7656,91.3584 204.6792L91.3584 204.6792C91.3584 204.6792,91.3008 204.3912,91.2144 204.0744L90.3792 199.956L89.7168 196.8744L89.2848 194.7432L88.824 192.6696C88.5936 191.4312,88.5072 191.1144,88.5072 191.1144C88.5072 191.1144,88.5072 191.0856,88.4784 191.0856C88.3056 191.0856,87.384 191.5464,86.9808 191.8344C85.4832 192.8712,84.7056 194.5128,84.7056 196.1256C84.7056 197.652,85.45439999999999 199.1784,86.8944 200.0712C87.2112 200.2728,87.3264 200.4456,87.3264 200.6472C87.3264 200.676,87.3264 200.7624,87.3264 200.7912C87.2688 201.1368,87.0672 201.2808,86.7792 201.2808C86.664 201.2808,86.52 201.252,86.3472 201.1656C83.6976 200.0136,81.912 197.2776,81.912 194.2824L81.912 194.2824C81.912 190.8264,84.072 187.8312,87.384 186.6504L87.5568 186.5928L87.2688 185.1528L86.4624 181.2936M90.7824 190.9128C90.55199999999999 190.88400000000001,90.3216 190.88400000000001,90.1488 190.88400000000001C90.0912 190.88400000000001,90.0048 190.88400000000001,89.9472 190.88400000000001L89.8032 190.88400000000001L89.9184 191.4024L90.5232 194.2248L90.8976 196.068L91.3008 197.8824L92.1072 201.8856L92.424 203.412C92.5392 203.8152,92.5968 204.1608,92.62559999999999 204.1608C92.62559999999999 204.1608,92.62559999999999 204.1608,92.62559999999999 204.1608C92.6544 204.1608,93.144 203.8728,93.4608 203.6424C94.9296 202.6056,96.024 200.9928,96.4272 199.3224C96.5712 198.7752,96.6288 198.1992,96.6288 197.652C96.6288 194.3112,94.152 191.2872,90.7824 190.9128"></path></g><path stroke-width="0.3" fill="#000000" stroke="none" stroke-dasharray="none" d="M116 186.5M123.344 167.8376C123.4592 167.8376,123.6608 167.8376,123.8912 167.8376C124.2944 167.8376,124.8416 167.8376,125.0432 167.8952C126.7712 168.1544,128.6144 169.3928,128.96 170.516C129.0464 170.7752,129.0752 171.00560000000002,129.0752 171.236C129.0752 172.532,127.9808 173.5112,126.8 173.5112C126.3392 173.5112,125.8784 173.39600000000002,125.4464 173.0504C124.928 172.5896,124.64 172.0136,124.64 171.3512C124.64 170.4584,125.1872 169.5368,126.13759999999999 169.2776C126.224 169.2776,126.25280000000001 169.2488,126.25280000000001 169.2488C126.25280000000001 169.2488,126.224 169.1912,126.13759999999999 169.1624C125.504 168.8744,124.8704 168.7592,124.2944 168.7592C123.4016 168.7592,122.624 169.076,122.048 169.6808C121.4432 170.4008,121.0112 171.8696,120.7232 174.0296C120.6944 174.548,120.608 175.5272,120.608 175.7288C120.608 175.7288,120.608 175.7288,120.608 175.7288C120.608 175.7288,120.608 175.7288,120.608 175.7288C120.608 175.7288,120.7232 175.6712,120.83840000000001 175.6424C121.76 175.268,122.5664 175.124,123.4304 175.124C124.4672 175.124,125.4464 175.3544,126.5408 175.9304C128.5568 176.9096,129.68 178.3496,129.68 180.0776C129.68 180.308,129.6224 180.5672,129.5936 180.8264C129.3056 182.4392,128.0672 183.764,126.0512 184.628C125.1296 185.0312,124.2944 185.2616,123.4592 185.2616C122.624 185.2616,121.76 185.0024,120.8096 184.5128C118.304 183.2456,116.576 180.88400000000001,116.1152 178.148C116.0288 177.6008,116 177.0536,116 176.4488C116 175.2392,116.1728 174.0296,116.576 173.0504C117.6704 170.2856,120.464 168.1544,123.344 167.8376M123.74719999999999 176.0456C123.632 176.0456,123.5168 176.0456,123.4016 176.0456C122.7968 176.0456,122.336 176.2472,122.048 176.564C121.6448 177.1688,121.35679999999999 178.6664,121.35679999999999 179.9912C121.35679999999999 180.2792,121.35679999999999 180.5672,121.3856 180.7976C121.5008 182.1512,121.8176 183.2744,122.1344 183.764C122.3648 184.1096,122.8544 184.3112,123.4016 184.3112C123.5168 184.3112,123.6608 184.3112,123.776 184.2824C124.6112 184.1672,124.928 183.6488,125.2448 182.0072C125.3888 181.2296,125.4752 180.5672,125.4752 179.9048C125.4752 179.2424,125.3888 178.6088,125.2448 177.8312C124.9568 176.6504,124.5824 176.1608,123.74719999999999 176.0456M122.7968 186.5288L122.8544 186.5288L122.768 186.5288L122.7968 186.5288M122.7968 167.1176L122.8544 167.1176L122.768 167.1176L122.7968 167.1176"></path><path stroke-width="0.3" fill="#000000" stroke="none" stroke-dasharray="none" d="M116.1008 206.5M121.11200000000001 188.1544C121.14080000000001 188.1256,121.54400000000001 188.1256,122.78240000000001 188.1256C123.1568 188.1256,123.56 188.1256,124.0784 188.1256L126.9872 188.1256L127.0736 188.212C127.2176 188.29840000000002,127.304 188.4424,127.304 188.5576C127.304 188.7304,127.2176 188.8456,127.1024 188.9608C127.0736 189.0472,126.8144 189.2776,126.64160000000001 189.5368L125.1152 191.2936L123.1568 193.5112L122.12 194.692L120.5648 196.4776L118.52000000000001 198.8104C118.1744 199.2424,117.80000000000001 199.588,117.80000000000001 199.588C117.80000000000001 199.588,117.80000000000001 199.588,117.80000000000001 199.588C117.80000000000001 199.6456,118.0592 199.6456,120.4496 199.6456L123.0704 199.6456L123.0704 197.7736C123.0704 195.8728,123.0704 195.844,123.09920000000001 195.8152C123.1568 195.7288,123.41600000000001 195.412,124.424 194.2312L124.8272 193.7992L125.2304 193.3672L125.8352 192.5896L126.4688 191.9272L126.7856 191.524C126.9008 191.3512,127.0736 191.3224,127.2176 191.3224C127.3904 191.3224,127.5344 191.4088,127.6208 191.5528C127.6496 191.6392,127.6496 191.6968,127.6496 193.828C127.6496 194.3176,127.6496 194.9224,127.6496 195.6424L127.6496 199.6456L128.3696 199.6456C129.032 199.6456,129.0608 199.6456,129.1472 199.6744C129.3776 199.7608,129.49280000000002 199.9912,129.49280000000002 200.2504C129.49280000000002 200.3944,129.464 200.5672,129.3488 200.6824C129.17600000000002 200.8264,129.1472 200.8264,128.3696 200.8264L127.6496 200.8264L127.6496 201.316C127.67840000000001 202.7848,127.96640000000001 203.3608,129.08960000000002 203.9656C129.49280000000002 204.1672,129.57920000000001 204.2248,129.57920000000001 204.5128C129.57920000000001 204.7144,129.5216 204.8008,129.3776 204.916L129.2912 204.9448L125.3456 204.9448L121.42880000000001 204.9448L121.34240000000001 204.916C121.1696 204.8008,121.14080000000001 204.7144,121.14080000000001 204.5128C121.14080000000001 204.2248,121.1696 204.1672,121.6016 203.9656C122.7248 203.3608,123.01280000000001 202.7848,123.01280000000001 201.316L123.01280000000001 200.8264L119.7008 200.8264C119.096 200.88400000000001,118.60640000000001 200.88400000000001,118.20320000000001 200.88400000000001C116.3888 200.88400000000001,116.36000000000001 200.8264,116.33120000000001 200.8264C116.1584 200.7688,116.1008 200.596,116.1008 200.3944C116.1008 200.3944,116.1008 200.3944,116.1008 200.3944C116.1008 200.1928,116.1008 200.1928,116.6768 199.5304C119.096 196.5928,120.79520000000001 192.3304,120.79520000000001 188.93200000000002C120.79520000000001 188.4136,120.8816 188.2408,121.11200000000001 188.1544M122.84 206.5288L122.86880000000001 206.5288L122.78240000000001 206.5288L122.84 206.5288M122.84 187.1176L122.86880000000001 187.1176L122.78240000000001 187.1176L122.84 187.1176"></path><g class="vf-stavenote" id="vf-auto3846828"><g class="vf-note" pointer-events="bounding-box"><g class="vf-stem" pointer-events="bounding-box"><path stroke-width="1.5" fill="none" stroke="#000000" stroke-dasharray="none" class="vf-stem" id="vf-auto3846828-stem" d="M152.94824 206.5L152.94824 171.5"></path></g><g class="vf-notehead" pointer-events="bounding-box"><path stroke-width="0.3" fill="#000000" stroke="none" stroke-dasharray="none" d="M141.68 206.5M149.03696 201.27712C149.14928 201.27712,149.31776000000002 201.27712,149.34584 201.27712C149.34584 201.27712,149.37392 201.27712,149.37392 201.27712C149.37392 201.27712,149.54240000000001 201.27712,149.68280000000001 201.27712C152.21 201.41752,153.69824 203.07424,153.69824 205.15216C153.69824 206.16304,153.36128000000002 207.31432,152.51888 208.40944C150.91832 210.5716,148.30688 211.75096,146.0324 211.75096C144.26336 211.75096,142.74704 211.04896,142.01696 209.61688C141.79232000000002 209.05528,141.68 208.52176,141.68 207.93208C141.68 204.87136,145.10576 201.47368,149.03696 201.27712"></path></g></g><g class="vf-modifiers"></g></g><g class="vf-stavenote" id="vf-auto3846836"><g class="vf-note" pointer-events="bounding-box"><g class="vf-stem" pointer-events="bounding-box"><path stroke-width="1.5" fill="none" stroke="#000000" stroke-dasharray="none" class="vf-stem" id="vf-auto3846836-stem" d="M187.50157333333334 211.5L187.50157333333334 176.5"></path></g><g class="vf-notehead" pointer-events="bounding-box"><path stroke-width="0.3" fill="#000000" stroke="none" stroke-dasharray="none" d="M176.23333333333335 211.5M183.59029333333334 206.27712C183.70261333333335 206.27712,183.87109333333336 206.27712,183.89917333333335 206.27712C183.89917333333335 206.27712,183.92725333333334 206.27712,183.92725333333334 206.27712C183.92725333333334 206.27712,184.09573333333336 206.27712,184.23613333333336 206.27712C186.76333333333335 206.41752,188.25157333333334 208.07424,188.25157333333334 210.15216C188.25157333333334 211.16304,187.91461333333336 212.31432,187.07221333333334 213.40944C185.47165333333334 215.5716,182.86021333333335 216.75096,180.58573333333334 216.75096C178.81669333333335 216.75096,177.30037333333334 216.04896,176.57029333333335 214.61688C176.34565333333336 214.05528,176.23333333333335 213.52176,176.23333333333335 212.93208C176.23333333333335 209.87136,179.65909333333335 206.47368,183.59029333333334 206.27712"></path></g></g><g class="vf-modifiers"></g></g><path stroke-width="1" fill="none" stroke="#000000" stroke-dasharray="none" d="M276.8933333333333 216.5L294.9115733333333 216.5"></path><g class="vf-stavenote" id="vf-auto3846844"><g class="vf-note" pointer-events="bounding-box"><g class="vf-stem" pointer-events="bounding-box"><path stroke-width="1.5" fill="none" stroke="#000000" stroke-dasharray="none" class="vf-stem" id="vf-auto3846844-stem" d="M291.1615733333333 221.5L291.1615733333333 186.5"></path></g><g class="vf-notehead" pointer-events="bounding-box"><path stroke-width="0.3" fill="#000000" stroke="none" stroke-dasharray="none" d="M279.8933333333333 221.5M287.25029333333333 216.27712C287.36261333333334 216.27712,287.53109333333333 216.27712,287.5591733333333 216.27712C287.5591733333333 216.27712,287.5872533333333 216.27712,287.5872533333333 216.27712C287.5872533333333 216.27712,287.7557333333333 216.27712,287.8961333333333 216.27712C290.4233333333333 216.41752,291.9115733333333 218.07424,291.9115733333333 220.15216C291.9115733333333 221.16304,291.57461333333333 222.31432,290.73221333333333 223.40944C289.1316533333333 225.5716,286.52021333333334 226.75096,284.2457333333333 226.75096C282.47669333333334 226.75096,280.96037333333334 226.04896,280.2302933333333 224.61688C280.0056533333333 224.05528,279.8933333333333 223.52176,279.8933333333333 222.93208C279.8933333333333 219.87136,283.31909333333334 216.47368,287.25029333333333 216.27712"></path></g></g><g class="vf-modifiers"></g></g><path stroke-width="1" fill="none" stroke="#000000" stroke-dasharray="none" d="M347.43023359999995 166.5L534.2804672 166.5"></path><path stroke-width="1" fill="none" stroke="#000000" stroke-dasharray="none" d="M347.43023359999995 176.5L534.2804672 176.5"></path><path stroke-width="1" fill="none" stroke="#000000" stroke-dasharray="none" d="M347.43023359999995 186.5L534.2804672 186.5"></path><path stroke-width="1" fill="none" stroke="#000000" stroke-dasharray="none" d="M347.43023359999995 196.5L534.2804672 196.5"></path><path stroke-width="1" fill="none" stroke="#000000" stroke-dasharray="none" d="M347.43023359999995 206.5L534.2804672 206.5"></path><rect stroke-width="0.3" fill="#000000" stroke="#000000" stroke-dasharray="none" x="534.2804672" y="166" width="1" height="41"></rect><g class="vf-stavenote" id="vf-auto3846882"><g class="vf-note" pointer-events="bounding-box"><g class="vf-stem" pointer-events="bounding-box"><path stroke-width="1.5" fill="none" stroke="#000000" stroke-dasharray="none" class="vf-stem" id="vf-auto3846882-stem" d="M507.68023359999995 171.5L507.68023359999995 206.5"></path></g><g class="vf-notehead" pointer-events="bounding-box"><path stroke-width="0.3" fill="#000000" stroke="none" stroke-dasharray="none" d="M506.93023359999995 171.5M514.2871935999999 166.27712C514.3995136 166.27712,514.5679935999999 166.27712,514.5960736 166.27712C514.5960736 166.27712,514.6241536 166.27712,514.6241536 166.27712C514.6241536 166.27712,514.7926335999999 166.27712,514.9330335999999 166.27712C517.4602335999999 166.41752,518.9484735999999 168.07424,518.9484735999999 170.15216C518.9484735999999 171.16304,518.6115136 172.31432,517.7691136 173.40944C516.1685536 175.5716,513.5571136 176.75096,511.28263359999994 176.75096C509.5135936 176.75096,507.99727359999997 176.04896,507.2671935999999 174.61688C507.04255359999996 174.05528,506.93023359999995 173.52176,506.93023359999995 172.93208C506.93023359999995 169.87136,510.3559936 166.47368,514.2871935999999 166.27712"></path></g></g><g class="vf-modifiers"></g></g><path stroke-width="1" fill="none" stroke="#000000" stroke-dasharray="none" d="M534.2804671999999 166.5L733.7307007999998 166.5"></path><path stroke-width="1" fill="none" stroke="#000000" stroke-dasharray="none" d="M534.2804671999999 176.5L733.7307007999998 176.5"></path><path stroke-width="1" fill="none" stroke="#000000" stroke-dasharray="none" d="M534.2804671999999 186.5L733.7307007999998 186.5"></path><path stroke-width="1" fill="none" stroke="#000000" stroke-dasharray="none" d="M534.2804671999999 196.5L733.7307007999998 196.5"></path><path stroke-width="1" fill="none" stroke="#000000" stroke-dasharray="none" d="M534.2804671999999 206.5L733.7307007999998 206.5"></path><rect stroke-width="0.3" fill="#000000" stroke="#000000" stroke-dasharray="none" x="733.7307007999998" y="166" width="1" height="41"></rect><g class="vf-stavenote" id="vf-auto3846935"><g class="vf-note" pointer-events="bounding-box"><g class="vf-stem" pointer-events="bounding-box"><path stroke-width="1.5" fill="none" stroke="#000000" stroke-dasharray="none" class="vf-stem" id="vf-auto3846935-stem" d="M582.6971338666665 171.5L582.6971338666665 206.5"></path></g><g class="vf-notehead" pointer-events="bounding-box"><path stroke-width="0.3" fill="#000000" stroke="none" stroke-dasharray="none" d="M581.9471338666665 171.5M589.3040938666664 166.27712C589.4164138666665 166.27712,589.5848938666664 166.27712,589.6129738666665 166.27712C589.6129738666665 166.27712,589.6410538666665 166.27712,589.6410538666665 166.27712C589.6410538666665 166.27712,589.8095338666665 166.27712,589.9499338666665 166.27712C592.4771338666665 166.41752,593.9653738666665 168.07424,593.9653738666665 170.15216C593.9653738666665 171.16304,593.6284138666665 172.31432,592.7860138666665 173.40944C591.1854538666665 175.5716,588.5740138666665 176.75096,586.2995338666665 176.75096C584.5304938666665 176.75096,583.0141738666665 176.04896,582.2840938666665 174.61688C582.0594538666664 174.05528,581.9471338666665 173.52176,581.9471338666665 172.93208C581.9471338666665 169.87136,585.3728938666665 166.47368,589.3040938666664 166.27712"></path></g></g><g class="vf-modifiers"></g></g><g class="vf-stavenote" id="vf-auto3846943"><g class="vf-note" pointer-events="bounding-box"><g class="vf-stem" pointer-events="bounding-box"><path stroke-width="1.5" fill="none" stroke="#000000" stroke-dasharray="none" class="vf-stem" id="vf-auto3846943-stem" d="M644.0304671999999 166.5L644.0304671999999 201.5"></path></g><g class="vf-notehead" pointer-events="bounding-box"><path stroke-width="0.3" fill="#000000" stroke="none" stroke-dasharray="none" d="M643.2804671999999 166.5M650.6374271999998 161.27712C650.7497471999999 161.27712,650.9182271999998 161.27712,650.9463071999999 161.27712C650.9463071999999 161.27712,650.9743871999999 161.27712,650.9743871999999 161.27712C650.9743871999999 161.27712,651.1428671999998 161.27712,651.2832671999998 161.27712C653.8104671999998 161.41752,655.2987071999999 163.07424,655.2987071999999 165.15216C655.2987071999999 166.16304,654.9617471999999 167.31432,654.1193471999999 168.40944C652.5187871999999 170.5716,649.9073471999999 171.75096,647.6328671999999 171.75096C645.8638271999998 171.75096,644.3475071999999 171.04896,643.6174271999998 169.61688C643.3927871999998 169.05528,643.2804671999999 168.52176,643.2804671999999 167.93208C643.2804671999999 164.87136,646.7062271999998 161.47368,650.6374271999998 161.27712"></path></g></g><g class="vf-modifiers"></g></g><g class="vf-stavenote" id="vf-auto3846951"><g class="vf-note" pointer-events="bounding-box"><g class="vf-stem" pointer-events="bounding-box"><path stroke-width="1.5" fill="none" stroke="#000000" stroke-dasharray="none" class="vf-stem" id="vf-auto3846951-stem" d="M674.6971338666665 171.5L674.6971338666665 206.5"></path></g><g class="vf-notehead" pointer-events="bounding-box"><path stroke-width="0.3" fill="#000000" stroke="none" stroke-dasharray="none" d="M673.9471338666665 171.5M681.3040938666664 166.27712C681.4164138666665 166.27712,681.5848938666664 166.27712,681.6129738666665 166.27712C681.6129738666665 166.27712,681.6410538666665 166.27712,681.6410538666665 166.27712C681.6410538666665 166.27712,681.8095338666665 166.27712,681.9499338666665 166.27712C684.4771338666665 166.41752,685.9653738666665 168.07424,685.9653738666665 170.15216C685.9653738666665 171.16304,685.6284138666665 172.31432,684.7860138666665 173.40944C683.1854538666665 175.5716,680.5740138666665 176.75096,678.2995338666665 176.75096C676.5304938666665 176.75096,675.0141738666665 176.04896,674.2840938666665 174.61688C674.0594538666664 174.05528,673.9471338666665 173.52176,673.9471338666665 172.93208C673.9471338666665 169.87136,677.3728938666665 166.47368,681.3040938666664 166.27712"></path></g></g><g class="vf-modifiers"></g></g><g class="vf-stavenote" id="vf-auto3846959"><g class="vf-note" pointer-events="bounding-box"><g class="vf-stem" pointer-events="bounding-box"><path stroke-width="1.5" fill="none" stroke="#000000" stroke-dasharray="none" class="vf-stem" id="vf-auto3846959-stem" d="M705.3638005333332 176.5L705.3638005333332 211.5"></path></g><g class="vf-notehead" pointer-events="bounding-box"><path stroke-width="0.3" fill="#000000" stroke="none" stroke-dasharray="none" d="M704.6138005333332 176.5M711.9707605333332 171.27712C712.0830805333333 171.27712,712.2515605333332 171.27712,712.2796405333332 171.27712C712.2796405333332 171.27712,712.3077205333333 171.27712,712.3077205333333 171.27712C712.3077205333333 171.27712,712.4762005333332 171.27712,712.6166005333332 171.27712C715.1438005333332 171.41752,716.6320405333332 173.07424,716.6320405333332 175.15216C716.6320405333332 176.16304,716.2950805333332 177.31432,715.4526805333333 178.40944C713.8521205333333 180.5716,711.2406805333333 181.75096,708.9662005333332 181.75096C707.1971605333332 181.75096,705.6808405333333 181.04896,704.9507605333332 179.61688C704.7261205333332 179.05528,704.6138005333332 178.52176,704.6138005333332 177.93208C704.6138005333332 174.87136,708.0395605333332 171.47368,711.9707605333332 171.27712"></path></g></g><g class="vf-modifiers"></g></g><path stroke-width="1" fill="none" stroke="#000000" stroke-dasharray="none" d="M733.7307007999999 166.5L934.7809343999999 166.5"></path><path stroke-width="1" fill="none" stroke="#000000" stroke-dasharray="none" d="M733.7307007999999 176.5L934.7809343999999 176.5"></path><path stroke-width="1" fill="none" stroke="#000000" stroke-dasharray="none" d="M733.7307007999999 186.5L934.7809343999999 186.5"></path><path stroke-width="1" fill="none" stroke="#000000" stroke-dasharray="none" d="M733.7307007999999 196.5L934.7809343999999 196.5"></path><path stroke-width="1" fill="none" stroke="#000000" stroke-dasharray="none" d="M733.7307007999999 206.5L934.7809343999999 206.5"></path><rect stroke-width="0.3" fill="#000000" stroke="#000000" stroke-dasharray="none" x="929.7809343999999" y="166" width="1" height="41"></rect><rect stroke-width="0.3" fill="#000000" stroke="#000000" stroke-dasharray="none" x="932.7809343999999" y="166" width="3" height="41"></rect><path stroke-width="0.3" fill="#000000" stroke="none" stroke-dasharray="none" d="M928.7809343999999 182 A2 2 0 0 0 924.7809343999999 182M924.7809343999999 182 A2 2 0 0 0 928.7809343999999 182"></path><path stroke-width="0.3" fill="#000000" stroke="none" stroke-dasharray="none" d="M928.7809343999999 192 A2 2 0 0 0 924.7809343999999 192M924.7809343999999 192 A2 2 0 0 0 928.7809343999999 192"></path><g class="vf-stavenote" id="vf-auto3846990"><g class="vf-note" pointer-events="bounding-box"><g class="vf-stem" pointer-events="bounding-box"><path stroke-width="1.5" fill="none" stroke="#000000" stroke-dasharray="none" class="vf-stem" id="vf-auto3846990-stem" d="M885.9989407999999 211.5L885.9989407999999 176.5"></path></g><g class="vf-notehead" pointer-events="bounding-box"><path stroke-width="0.3" fill="#000000" stroke="none" stroke-dasharray="none" d="M874.7307007999999 211.5M882.0876607999999 206.27712C882.1999807999999 206.27712,882.3684607999999 206.27712,882.3965407999999 206.27712C882.3965407999999 206.27712,882.4246208 206.27712,882.4246208 206.27712C882.4246208 206.27712,882.5931007999999 206.27712,882.7335007999999 206.27712C885.2607007999999 206.41752,886.7489407999999 208.07424,886.7489407999999 210.15216C886.7489407999999 211.16304,886.4119807999999 212.31432,885.5695807999999 213.40944C883.9690208 215.5716,881.3575807999999 216.75096,879.0831007999999 216.75096C877.3140607999999 216.75096,875.7977407999999 216.04896,875.0676607999999 214.61688C874.8430207999999 214.05528,874.7307007999999 213.52176,874.7307007999999 212.93208C874.7307007999999 209.87136,878.1564607999999 206.47368,882.0876607999999 206.27712"></path></g></g><g class="vf-modifiers"></g></g><path stroke-width="1" fill="none" stroke="#000000" stroke-dasharray="none" d="M902.7307007999999 216.5L920.7489407999999 216.5"></path><g class="vf-stavenote" id="vf-auto3846998"><g class="vf-note" pointer-events="bounding-box"><g class="vf-stem" pointer-events="bounding-box"><path stroke-width="1.5" fill="none" stroke="#000000" stroke-dasharray="none" class="vf-stem" id="vf-auto3846998-stem" d="M916.9989407999999 216.5L916.9989407999999 181.5"></path></g><g class="vf-notehead" pointer-events="bounding-box"><path stroke-width="0.3" fill="#000000" stroke="none" stroke-dasharray="none" d="M905.7307007999999 216.5M913.0876607999999 211.27712C913.1999807999999 211.27712,913.3684607999999 211.27712,913.3965407999999 211.27712C913.3965407999999 211.27712,913.4246208 211.27712,913.4246208 211.27712C913.4246208 211.27712,913.5931007999999 211.27712,913.7335007999999 211.27712C916.2607007999999 211.41752,917.7489407999999 213.07424,917.7489407999999 215.15216C917.7489407999999 216.16304,917.4119807999999 217.31432,916.5695807999999 218.40944C914.9690208 220.5716,912.3575807999999 221.75096,910.0831007999999 221.75096C908.3140607999999 221.75096,906.7977407999999 221.04896,906.0676607999999 219.61688C905.8430207999999 219.05528,905.7307007999999 218.52176,905.7307007999999 217.93208C905.7307007999999 214.87136,909.1564607999999 211.47368,913.0876607999999 211.27712"></path></g></g><g class="vf-modifiers"></g></g><g class="vf-text"><text stroke-width="0.3" fill="#000000" stroke="none" stroke-dasharray="none" font-family="Times New Roman" font-size="23px" font-weight="bold" font-style="italic" x="141.68912" y="240.5">p</text></g><path stroke-width="1" fill="none" stroke="#000000" stroke-dasharray="none" d="M70 255.29999999999998L347.43023359999995 255.29999999999998"></path><path stroke-width="1" fill="none" stroke="#000000" stroke-dasharray="none" d="M70 265.29999999999995L347.43023359999995 265.29999999999995"></path><path stroke-width="1" fill="none" stroke="#000000" stroke-dasharray="none" d="M70 275.29999999999995L347.43023359999995 275.29999999999995"></path><path stroke-width="1" fill="none" stroke="#000000" stroke-dasharray="none" d="M70 285.29999999999995L347.43023359999995 285.29999999999995"></path><path stroke-width="1" fill="none" stroke="#000000" stroke-dasharray="none" d="M70 295.29999999999995L347.43023359999995 295.29999999999995"></path><rect stroke-width="0.3" fill="#000000" stroke="#000000" stroke-dasharray="none" x="347.43023359999995" y="254.79999999999998" width="1" height="40.99999999999997"></rect><g class="vf-clef"><path stroke-width="0.3" fill="#000000" stroke="none" stroke-dasharray="none" d="M75 265.29999999999995M83.8416 255.24879999999996C84.072 255.19119999999995,84.3024 255.19119999999995,84.5616 255.19119999999995C85.5696 255.19119999999995,86.7504 255.30639999999997,87.7584 255.50799999999995C92.4816 256.4872,95.736 259.68399999999997,96.3408 263.9464C96.3984 264.40719999999993,96.4272 264.83919999999995,96.4272 265.29999999999995C96.4272 267.89199999999994,95.5344 271.23279999999994,94.008 274.02639999999997C90.3792 280.59279999999995,83.7552 285.316,75.8064 287.044C75.6624 287.044,75.5472 287.0728,75.4032 287.0728C75.1152 287.0728,74.9712 286.9,74.9712 286.64079999999996C74.9712 286.35279999999995,75.0288 286.2664,75.6048 286.03599999999994C84.7056 282.6088,90.7824 275.20719999999994,91.3296 266.91279999999995C91.3584 266.48079999999993,91.3584 265.99119999999994,91.3584 265.61679999999996C91.3584 261.5848,90.12 258.58959999999996,87.7296 257.0919999999999C86.6928 256.42959999999994,85.5696 256.11279999999994,84.36 256.11279999999994C81.6816 256.11279999999994,78.9456 257.63919999999996,77.6784 260.20239999999995C77.6208 260.40399999999994,77.4192 260.83599999999996,77.4192 260.86479999999995C77.4192 260.86479999999995,77.4192 260.86479999999995,77.4192 260.86479999999995C77.4192 260.86479999999995,77.448 260.83599999999996,77.5344 260.80719999999997C78.168 260.40399999999994,78.8592 260.20239999999995,79.5792 260.20239999999995C80.5872 260.20239999999995,81.6528 260.63439999999997,82.4016 261.44079999999997C83.0928 262.1895999999999,83.4672 263.19759999999997,83.4672 264.1192C83.4672 265.99119999999994,82.0848 267.89199999999994,79.9248 268.0936C79.7808 268.0936,79.6368 268.12239999999997,79.4928 268.12239999999997C77.1024 268.12239999999997,75.1728 265.93359999999996,75.1728 263.1688C75.1728 263.11119999999994,75.1728 263.02479999999997,75.1728 262.996C75.288 258.8776,79.0608 255.50799999999995,83.8416 255.24879999999996M99.1632 259.10799999999995C99.2208 259.07919999999996,99.2496 259.07919999999996,99.336 259.07919999999996C99.5376 259.07919999999996,99.768 259.10799999999995,99.8256 259.1655999999999C100.54560000000001 259.36719999999997,100.8912 260.00079999999997,100.8912 260.6056C100.8912 261.12399999999997,100.632 261.64239999999995,100.11359999999999 261.93039999999996C99.912 262.07439999999997,99.6528 262.10319999999996,99.39359999999999 262.10319999999996C98.9904 262.10319999999996,98.5584 261.93039999999996,98.2704 261.5559999999999C98.03999999999999 261.268,97.9248 260.9512,97.9248 260.63439999999997C97.9248 259.91439999999994,98.3856 259.1944,99.1632 259.10799999999995M99.1632 268.52559999999994C99.2208 268.52559999999994,99.2496 268.52559999999994,99.336 268.52559999999994C99.5376 268.52559999999994,99.768 268.55439999999993,99.8256 268.61199999999997C100.54560000000001 268.81359999999995,100.8912 269.44719999999995,100.8912 270.05199999999996C100.8912 270.57039999999995,100.632 271.08879999999994,100.11359999999999 271.34799999999996C99.912 271.49199999999996,99.6528 271.54959999999994,99.39359999999999 271.54959999999994C98.9904 271.54959999999994,98.5584 271.34799999999996,98.2704 271.00239999999997C98.03999999999999 270.71439999999996,97.9248 270.39759999999995,97.9248 270.05199999999996C97.9248 269.33199999999994,98.3856 268.64079999999996,99.1632 268.52559999999994"></path></g><path stroke-width="0.3" fill="#000000" stroke="none" stroke-dasharray="none" d="M116 275.29999999999995M123.344 256.63759999999996C123.4592 256.63759999999996,123.6608 256.63759999999996,123.8912 256.63759999999996C124.2944 256.63759999999996,124.8416 256.63759999999996,125.0432 256.69519999999994C126.7712 256.95439999999996,128.6144 258.1928,128.96 259.316C129.0464 259.57519999999994,129.0752 259.80559999999997,129.0752 260.03599999999994C129.0752 261.33199999999994,127.9808 262.31119999999993,126.8 262.31119999999993C126.3392 262.31119999999993,125.8784 262.19599999999997,125.4464 261.8504C124.928 261.3896,124.64 260.81359999999995,124.64 260.15119999999996C124.64 259.25839999999994,125.1872 258.3367999999999,126.13759999999999 258.07759999999996C126.224 258.07759999999996,126.25280000000001 258.04879999999997,126.25280000000001 258.04879999999997C126.25280000000001 258.04879999999997,126.224 257.99119999999994,126.13759999999999 257.96239999999995C125.504 257.67439999999993,124.8704 257.5592,124.2944 257.5592C123.4016 257.5592,122.624 257.876,122.048 258.48079999999993C121.4432 259.20079999999996,121.0112 260.66959999999995,120.7232 262.82959999999997C120.6944 263.34799999999996,120.608 264.32719999999995,120.608 264.52879999999993C120.608 264.52879999999993,120.608 264.52879999999993,120.608 264.52879999999993C120.608 264.52879999999993,120.608 264.52879999999993,120.608 264.52879999999993C120.608 264.52879999999993,120.7232 264.47119999999995,120.83840000000001 264.44239999999996C121.76 264.068,122.5664 263.924,123.4304 263.924C124.4672 263.924,125.4464 264.15439999999995,126.5408 264.7304C128.5568 265.70959999999997,129.68 267.14959999999996,129.68 268.8776C129.68 269.10799999999995,129.6224 269.36719999999997,129.5936 269.62639999999993C129.3056 271.2392,128.0672 272.56399999999996,126.0512 273.42799999999994C125.1296 273.83119999999997,124.2944 274.06159999999994,123.4592 274.06159999999994C122.624 274.06159999999994,121.76 273.8024,120.8096 273.3128C118.304 272.0456,116.576 269.68399999999997,116.1152 266.948C116.0288 266.40079999999995,116 265.8536,116 265.24879999999996C116 264.03919999999994,116.1728 262.82959999999997,116.576 261.8504C117.6704 259.08559999999994,120.464 256.95439999999996,123.344 256.63759999999996M123.74719999999999 264.84559999999993C123.632 264.84559999999993,123.5168 264.84559999999993,123.4016 264.84559999999993C122.7968 264.84559999999993,122.336 265.0472,122.048 265.364C121.6448 265.96879999999993,121.35679999999999 267.46639999999996,121.35679999999999 268.79119999999995C121.35679999999999 269.07919999999996,121.35679999999999 269.36719999999997,121.3856 269.59759999999994C121.5008 270.9512,121.8176 272.07439999999997,122.1344 272.56399999999996C122.3648 272.90959999999995,122.8544 273.11119999999994,123.4016 273.11119999999994C123.5168 273.11119999999994,123.6608 273.11119999999994,123.776 273.08239999999995C124.6112 272.96719999999993,124.928 272.44879999999995,125.2448 270.80719999999997C125.3888 270.02959999999996,125.4752 269.36719999999997,125.4752 268.7048C125.4752 268.04239999999993,125.3888 267.4087999999999,125.2448 266.6312C124.9568 265.45039999999995,124.5824 264.96079999999995,123.74719999999999 264.84559999999993M122.7968 275.32879999999994L122.8544 275.32879999999994L122.768 275.32879999999994L122.7968 275.32879999999994M122.7968 255.91759999999996L122.8544 255.91759999999996L122.768 255.91759999999996L122.7968 255.91759999999996"></path><path stroke-width="0.3" fill="#000000" stroke="none" stroke-dasharray="none" d="M116.1008 295.29999999999995M121.11200000000001 276.95439999999996C121.14080000000001 276.9256,121.54400000000001 276.9256,122.78240000000001 276.9256C123.1568 276.9256,123.56 276.9256,124.0784 276.9256L126.9872 276.9256L127.0736 277.01199999999994C127.2176 277.09839999999997,127.304 277.2424,127.304 277.35759999999993C127.304 277.53039999999993,127.2176 277.64559999999994,127.1024 277.76079999999996C127.0736 277.84719999999993,126.8144 278.07759999999996,126.64160000000001 278.3367999999999L125.1152 280.0936L123.1568 282.31119999999993L122.12 283.49199999999996L120.5648 285.27759999999995L118.52000000000001 287.61039999999997C118.1744 288.04239999999993,117.80000000000001 288.388,117.80000000000001 288.388C117.80000000000001 288.388,117.80000000000001 288.388,117.80000000000001 288.388C117.80000000000001 288.44559999999996,118.0592 288.44559999999996,120.4496 288.44559999999996L123.0704 288.44559999999996L123.0704 286.57359999999994C123.0704 284.67279999999994,123.0704 284.64399999999995,123.09920000000001 284.61519999999996C123.1568 284.52879999999993,123.41600000000001 284.21199999999993,124.424 283.03119999999996L124.8272 282.59919999999994L125.2304 282.1672L125.8352 281.3896L126.4688 280.7272L126.7856 280.32399999999996C126.9008 280.15119999999996,127.0736 280.12239999999997,127.2176 280.12239999999997C127.3904 280.12239999999997,127.5344 280.20879999999994,127.6208 280.35279999999995C127.6496 280.43919999999997,127.6496 280.49679999999995,127.6496 282.62799999999993C127.6496 283.1176,127.6496 283.72239999999994,127.6496 284.44239999999996L127.6496 288.44559999999996L128.3696 288.44559999999996C129.032 288.44559999999996,129.0608 288.44559999999996,129.1472 288.47439999999995C129.3776 288.5608,129.49280000000002 288.79119999999995,129.49280000000002 289.05039999999997C129.49280000000002 289.1944,129.464 289.36719999999997,129.3488 289.4823999999999C129.17600000000002 289.62639999999993,129.1472 289.62639999999993,128.3696 289.62639999999993L127.6496 289.62639999999993L127.6496 290.11599999999993C127.67840000000001 291.5848,127.96640000000001 292.16079999999994,129.08960000000002 292.76559999999995C129.49280000000002 292.96719999999993,129.57920000000001 293.02479999999997,129.57920000000001 293.3128C129.57920000000001 293.51439999999997,129.5216 293.60079999999994,129.3776 293.71599999999995L129.2912 293.74479999999994L125.3456 293.74479999999994L121.42880000000001 293.74479999999994L121.34240000000001 293.71599999999995C121.1696 293.60079999999994,121.14080000000001 293.51439999999997,121.14080000000001 293.3128C121.14080000000001 293.02479999999997,121.1696 292.96719999999993,121.6016 292.76559999999995C122.7248 292.16079999999994,123.01280000000001 291.5848,123.01280000000001 290.11599999999993L123.01280000000001 289.62639999999993L119.7008 289.62639999999993C119.096 289.68399999999997,118.60640000000001 289.68399999999997,118.20320000000001 289.68399999999997C116.3888 289.68399999999997,116.36000000000001 289.62639999999993,116.33120000000001 289.62639999999993C116.1584 289.56879999999995,116.1008 289.39599999999996,116.1008 289.1944C116.1008 289.1944,116.1008 289.1944,116.1008 289.1944C116.1008 288.99279999999993,116.1008 288.99279999999993,116.6768 288.33039999999994C119.096 285.39279999999997,120.79520000000001 281.13039999999995,120.79520000000001 277.73199999999997C120.79520000000001 277.21359999999993,120.8816 277.04079999999993,121.11200000000001 276.95439999999996M122.84 295.32879999999994L122.86880000000001 295.32879999999994L122.78240000000001 295.32879999999994L122.84 295.32879999999994M122.84 275.91759999999994L122.86880000000001 275.91759999999994L122.78240000000001 275.91759999999994L122.84 275.91759999999994"></path><g class="vf-stavenote" id="vf-auto3846855"><g class="vf-note" pointer-events="bounding-box"><g class="vf-stem" pointer-events="bounding-box"><path stroke-width="1.5" fill="none" stroke="#000000" stroke-dasharray="none" class="vf-stem" id="vf-auto3846855-stem" d="M211.5366666666667 270.29999999999995L211.5366666666667 305.29999999999995"></path></g><g class="vf-notehead" pointer-events="bounding-box"><path stroke-width="0.3" fill="#000000" stroke="none" stroke-dasharray="none" d="M210.7866666666667 270.29999999999995M218.14362666666668 265.07712C218.2559466666667 265.07712,218.4244266666667 265.07712,218.4525066666667 265.07712C218.4525066666667 265.07712,218.48058666666668 265.07712,218.48058666666668 265.07712C218.48058666666668 265.07712,218.6490666666667 265.07712,218.7894666666667 265.07712C221.3166666666667 265.21752,222.80490666666668 266.87423999999993,222.80490666666668 268.95215999999994C222.80490666666668 269.96304,222.4679466666667 271.11431999999996,221.62554666666668 272.20944C220.02498666666668 274.37159999999994,217.4135466666667 275.55096,215.13906666666668 275.55096C213.3700266666667 275.55096,211.85370666666668 274.84896,211.1236266666667 273.41687999999994C210.8989866666667 272.85527999999994,210.7866666666667 272.3217599999999,210.7866666666667 271.73207999999994C210.7866666666667 268.67135999999994,214.2124266666667 265.27367999999996,218.14362666666668 265.07712"></path></g></g><g class="vf-modifiers"></g></g><path stroke-width="1" fill="none" stroke="#000000" stroke-dasharray="none" d="M242.34 245.29999999999995L260.35824 245.29999999999995"></path><g class="vf-stavenote" id="vf-auto3846863"><g class="vf-note" pointer-events="bounding-box"><g class="vf-stem" pointer-events="bounding-box"><path stroke-width="1.5" fill="none" stroke="#000000" stroke-dasharray="none" class="vf-stem" id="vf-auto3846863-stem" d="M246.09 240.29999999999995L246.09 275.29999999999995"></path></g><g class="vf-notehead" pointer-events="bounding-box"><path stroke-width="0.3" fill="#000000" stroke="none" stroke-dasharray="none" d="M245.34 240.29999999999995M252.69696 235.07711999999995C252.80928 235.07711999999995,252.97776 235.07711999999995,253.00584 235.07711999999995C253.00584 235.07711999999995,253.03392 235.07711999999995,253.03392 235.07711999999995C253.03392 235.07711999999995,253.2024 235.07711999999995,253.3428 235.07711999999995C255.87 235.21751999999995,257.35824 236.87423999999996,257.35824 238.95215999999996C257.35824 239.96303999999995,257.02128 241.11431999999996,256.17888 242.20943999999994C254.57832 244.37159999999994,251.96688 245.55095999999995,249.6924 245.55095999999995C247.92336 245.55095999999995,246.40704 244.84895999999995,245.67696 243.41687999999996C245.45232000000001 242.85527999999996,245.34 242.32175999999995,245.34 241.73207999999997C245.34 238.67135999999996,248.76576 235.27367999999996,252.69696 235.07711999999995"></path></g></g><g class="vf-modifiers"></g></g><path stroke-width="1" fill="none" stroke="#000000" stroke-dasharray="none" d="M311.44666666666666 245.29999999999995L329.46490666666665 245.29999999999995"></path><g class="vf-stavenote" id="vf-auto3846871"><g class="vf-note" pointer-events="bounding-box"><g class="vf-stem" pointer-events="bounding-box"><path stroke-width="1.5" fill="none" stroke="#000000" stroke-dasharray="none" class="vf-stem" id="vf-auto3846871-stem" d="M315.19666666666666 245.29999999999995L315.19666666666666 280.29999999999995"></path></g><g class="vf-notehead" pointer-events="bounding-box"><path stroke-width="0.3" fill="#000000" stroke="none" stroke-dasharray="none" d="M314.44666666666666 245.29999999999995M321.8036266666667 240.07711999999995C321.9159466666667 240.07711999999995,322.0844266666667 240.07711999999995,322.11250666666666 240.07711999999995C322.11250666666666 240.07711999999995,322.14058666666665 240.07711999999995,322.14058666666665 240.07711999999995C322.14058666666665 240.07711999999995,322.30906666666664 240.07711999999995,322.44946666666664 240.07711999999995C324.9766666666667 240.21751999999995,326.46490666666665 241.87423999999996,326.46490666666665 243.95215999999996C326.46490666666665 244.96303999999995,326.1279466666667 246.11431999999996,325.2855466666667 247.20943999999994C323.68498666666665 249.37159999999994,321.07354666666663 250.55095999999995,318.79906666666665 250.55095999999995C317.0300266666667 250.55095999999995,315.5137066666667 249.84895999999995,314.78362666666663 248.41687999999996C314.55898666666667 247.85527999999996,314.44666666666666 247.32175999999995,314.44666666666666 246.73207999999997C314.44666666666666 243.67135999999996,317.8724266666667 240.27367999999996,321.8036266666667 240.07711999999995"></path></g></g><g class="vf-modifiers"></g></g><rect stroke-width="0.3" fill="#000000" stroke="#000000" stroke-dasharray="none" x="347.43023359999995" y="166.5" width="1" height="129.79999999999995"></rect><rect stroke-width="0.3" fill="#000000" stroke="#000000" stroke-dasharray="none" x="70" y="166.5" width="1" height="129.79999999999995"></rect><path stroke-width="1" fill="none" stroke="#000000" stroke-dasharray="none" d="M347.43023359999995 255.29999999999998L534.2804672 255.29999999999998"></path><path stroke-width="1" fill="none" stroke="#000000" stroke-dasharray="none" d="M347.43023359999995 265.29999999999995L534.2804672 265.29999999999995"></path><path stroke-width="1" fill="none" stroke="#000000" stroke-dasharray="none" d="M347.43023359999995 275.29999999999995L534.2804672 275.29999999999995"></path><path stroke-width="1" fill="none" stroke="#000000" stroke-dasharray="none" d="M347.43023359999995 285.29999999999995L534.2804672 285.29999999999995"></path><path stroke-width="1" fill="none" stroke="#000000" stroke-dasharray="none" d="M347.43023359999995 295.29999999999995L534.2804672 295.29999999999995"></path><rect stroke-width="0.3" fill="#000000" stroke="#000000" stroke-dasharray="none" x="534.2804672" y="254.79999999999998" width="1" height="40.99999999999997"></rect><g class="vf-stavenote" id="vf-auto3846893"><g class="vf-note" pointer-events="bounding-box"><g class="vf-stem" pointer-events="bounding-box"><path stroke-width="1.5" fill="none" stroke="#000000" stroke-dasharray="none" class="vf-stem" id="vf-auto3846893-stem" d="M365.18023359999995 260.29999999999995L365.18023359999995 295.29999999999995"></path></g><g class="vf-notehead" pointer-events="bounding-box"><path stroke-width="0.3" fill="#000000" stroke="none" stroke-dasharray="none" d="M364.43023359999995 260.29999999999995M371.78719359999997 255.07711999999995C371.8995136 255.07711999999995,372.06799359999997 255.07711999999995,372.09607359999995 255.07711999999995C372.09607359999995 255.07711999999995,372.12415359999994 255.07711999999995,372.12415359999994 255.07711999999995C372.12415359999994 255.07711999999995,372.29263359999993 255.07711999999995,372.43303359999993 255.07711999999995C374.9602335999999 255.21751999999995,376.44847359999994 256.87423999999993,376.44847359999994 258.95215999999994C376.44847359999994 259.96304,376.11151359999997 261.11431999999996,375.26911359999997 262.20944C373.66855359999994 264.37159999999994,371.0571136 265.55096,368.78263359999994 265.55096C367.0135936 265.55096,365.49727359999997 264.84896,364.7671935999999 263.41687999999994C364.54255359999996 262.85527999999994,364.43023359999995 262.3217599999999,364.43023359999995 261.73207999999994C364.43023359999995 258.67135999999994,367.8559936 255.27367999999996,371.78719359999997 255.07711999999995"></path></g></g><g class="vf-modifiers"></g></g><g class="vf-stavenote" id="vf-auto3846901"><g class="vf-note" pointer-events="bounding-box"><g class="vf-stem" pointer-events="bounding-box"><path stroke-width="1.5" fill="none" stroke="#000000" stroke-dasharray="none" class="vf-stem" id="vf-auto3846901-stem" d="M393.68023359999995 270.29999999999995L393.68023359999995 305.29999999999995"></path></g><g class="vf-notehead" pointer-events="bounding-box"><path stroke-width="0.3" fill="#000000" stroke="none" stroke-dasharray="none" d="M392.93023359999995 270.29999999999995M400.28719359999997 265.07712C400.3995136 265.07712,400.56799359999997 265.07712,400.59607359999995 265.07712C400.59607359999995 265.07712,400.62415359999994 265.07712,400.62415359999994 265.07712C400.62415359999994 265.07712,400.79263359999993 265.07712,400.93303359999993 265.07712C403.4602335999999 265.21752,404.94847359999994 266.87423999999993,404.94847359999994 268.95215999999994C404.94847359999994 269.96304,404.61151359999997 271.11431999999996,403.76911359999997 272.20944C402.16855359999994 274.37159999999994,399.5571136 275.55096,397.28263359999994 275.55096C395.5135936 275.55096,393.99727359999997 274.84896,393.2671935999999 273.41687999999994C393.04255359999996 272.85527999999994,392.93023359999995 272.3217599999999,392.93023359999995 271.73207999999994C392.93023359999995 268.67135999999994,396.3559936 265.27367999999996,400.28719359999997 265.07712"></path></g></g><g class="vf-modifiers"></g></g><path stroke-width="1" fill="none" stroke="#000000" stroke-dasharray="none" d="M418.43023359999995 245.29999999999995L436.44847359999994 245.29999999999995"></path><g class="vf-stavenote" id="vf-auto3846909"><g class="vf-note" pointer-events="bounding-box"><g class="vf-stem" pointer-events="bounding-box"><path stroke-width="1.5" fill="none" stroke="#000000" stroke-dasharray="none" class="vf-stem" id="vf-auto3846909-stem" d="M422.18023359999995 240.29999999999995L422.18023359999995 275.29999999999995"></path></g><g class="vf-notehead" pointer-events="bounding-box"><path stroke-width="0.3" fill="#000000" stroke="none" stroke-dasharray="none" d="M421.43023359999995 240.29999999999995M428.78719359999997 235.07711999999995C428.8995136 235.07711999999995,429.06799359999997 235.07711999999995,429.09607359999995 235.07711999999995C429.09607359999995 235.07711999999995,429.12415359999994 235.07711999999995,429.12415359999994 235.07711999999995C429.12415359999994 235.07711999999995,429.29263359999993 235.07711999999995,429.43303359999993 235.07711999999995C431.9602335999999 235.21751999999995,433.44847359999994 236.87423999999996,433.44847359999994 238.95215999999996C433.44847359999994 239.96303999999995,433.11151359999997 241.11431999999996,432.26911359999997 242.20943999999994C430.66855359999994 244.37159999999994,428.0571136 245.55095999999995,425.78263359999994 245.55095999999995C424.0135936 245.55095999999995,422.49727359999997 244.84895999999995,421.7671935999999 243.41687999999996C421.54255359999996 242.85527999999996,421.43023359999995 242.32175999999995,421.43023359999995 241.73207999999997C421.43023359999995 238.67135999999996,424.8559936 235.27367999999996,428.78719359999997 235.07711999999995"></path></g></g><g class="vf-modifiers"></g></g><g class="vf-stavenote" id="vf-auto3846917"><g class="vf-note" pointer-events="bounding-box"><g class="vf-stem" pointer-events="bounding-box"><path stroke-width="1.5" fill="none" stroke="#000000" stroke-dasharray="none" class="vf-stem" id="vf-auto3846917-stem" d="M461.19847359999994 290.29999999999995L461.19847359999994 255.29999999999995"></path></g><g class="vf-notehead" pointer-events="bounding-box"><path stroke-width="0.3" fill="#000000" stroke="none" stroke-dasharray="none" d="M449.93023359999995 290.29999999999995M457.28719359999997 285.07712C457.3995136 285.07712,457.56799359999997 285.07712,457.59607359999995 285.07712C457.59607359999995 285.07712,457.62415359999994 285.07712,457.62415359999994 285.07712C457.62415359999994 285.07712,457.79263359999993 285.07712,457.93303359999993 285.07712C460.4602335999999 285.21752,461.94847359999994 286.87423999999993,461.94847359999994 288.95215999999994C461.94847359999994 289.96304,461.61151359999997 291.11431999999996,460.76911359999997 292.20944C459.16855359999994 294.37159999999994,456.5571136 295.55096,454.28263359999994 295.55096C452.5135936 295.55096,450.99727359999997 294.84896,450.2671935999999 293.41687999999994C450.04255359999996 292.85527999999994,449.93023359999995 292.3217599999999,449.93023359999995 291.73207999999994C449.93023359999995 288.67135999999994,453.3559936 285.27367999999996,457.28719359999997 285.07712"></path></g></g><g class="vf-modifiers"></g></g><path stroke-width="1" fill="none" stroke="#000000" stroke-dasharray="none" d="M475.43023359999995 245.29999999999995L493.44847359999994 245.29999999999995"></path><g class="vf-stavenote" id="vf-auto3846925"><g class="vf-note" pointer-events="bounding-box"><g class="vf-stem" pointer-events="bounding-box"><path stroke-width="1.5" fill="none" stroke="#000000" stroke-dasharray="none" class="vf-stem" id="vf-auto3846925-stem" d="M479.18023359999995 240.29999999999995L479.18023359999995 275.29999999999995"></path></g><g class="vf-notehead" pointer-events="bounding-box"><path stroke-width="0.3" fill="#000000" stroke="none" stroke-dasharray="none" d="M478.43023359999995 240.29999999999995M485.78719359999997 235.07711999999995C485.8995136 235.07711999999995,486.06799359999997 235.07711999999995,486.09607359999995 235.07711999999995C486.09607359999995 235.07711999999995,486.12415359999994 235.07711999999995,486.12415359999994 235.07711999999995C486.12415359999994 235.07711999999995,486.29263359999993 235.07711999999995,486.43303359999993 235.07711999999995C488.9602335999999 235.21751999999995,490.44847359999994 236.87423999999996,490.44847359999994 238.95215999999996C490.44847359999994 239.96303999999995,490.11151359999997 241.11431999999996,489.26911359999997 242.20943999999994C487.66855359999994 244.37159999999994,485.0571136 245.55095999999995,482.78263359999994 245.55095999999995C481.0135936 245.55095999999995,479.49727359999997 244.84895999999995,478.7671935999999 243.41687999999996C478.54255359999996 242.85527999999996,478.43023359999995 242.32175999999995,478.43023359999995 241.73207999999997C478.43023359999995 238.67135999999996,481.8559936 235.27367999999996,485.78719359999997 235.07711999999995"></path></g></g><g class="vf-modifiers"></g></g><rect stroke-width="0.3" fill="#000000" stroke="#000000" stroke-dasharray="none" x="534.2804672" y="166.5" width="1" height="129.79999999999995"></rect><path stroke-width="1" fill="none" stroke="#000000" stroke-dasharray="none" d="M534.2804671999999 255.29999999999998L733.7307007999998 255.29999999999998"></path><path stroke-width="1" fill="none" stroke="#000000" stroke-dasharray="none" d="M534.2804671999999 265.29999999999995L733.7307007999998 265.29999999999995"></path><path stroke-width="1" fill="none" stroke="#000000" stroke-dasharray="none" d="M534.2804671999999 275.29999999999995L733.7307007999998 275.29999999999995"></path><path stroke-width="1" fill="none" stroke="#000000" stroke-dasharray="none" d="M534.2804671999999 285.29999999999995L733.7307007999998 285.29999999999995"></path><path stroke-width="1" fill="none" stroke="#000000" stroke-dasharray="none" d="M534.2804671999999 295.29999999999995L733.7307007999998 295.29999999999995"></path><rect stroke-width="0.3" fill="#000000" stroke="#000000" stroke-dasharray="none" x="733.7307007999998" y="254.79999999999998" width="1" height="40.99999999999997"></rect><g class="vf-stavenote" id="vf-auto3846970"><g class="vf-note" pointer-events="bounding-box"><g class="vf-stem" pointer-events="bounding-box"><path stroke-width="1.5" fill="none" stroke="#000000" stroke-dasharray="none" class="vf-stem" id="vf-auto3846970-stem" d="M552.0304671999999 255.29999999999995L552.0304671999999 290.29999999999995"></path></g><g class="vf-notehead" pointer-events="bounding-box"><path stroke-width="0.3" fill="#000000" stroke="none" stroke-dasharray="none" d="M551.2804671999999 255.29999999999995M558.6374271999998 250.07711999999995C558.7497471999999 250.07711999999995,558.9182271999998 250.07711999999995,558.9463071999999 250.07711999999995C558.9463071999999 250.07711999999995,558.9743871999999 250.07711999999995,558.9743871999999 250.07711999999995C558.9743871999999 250.07711999999995,559.1428671999998 250.07711999999995,559.2832671999998 250.07711999999995C561.8104671999998 250.21751999999995,563.2987071999999 251.87423999999996,563.2987071999999 253.95215999999996C563.2987071999999 254.96303999999995,562.9617471999999 256.11431999999996,562.1193471999999 257.20944C560.5187871999999 259.37159999999994,557.9073471999999 260.55096,555.6328671999999 260.55096C553.8638271999998 260.55096,552.3475071999999 259.84896,551.6174271999998 258.41687999999994C551.3927871999998 257.85527999999994,551.2804671999999 257.3217599999999,551.2804671999999 256.73207999999994C551.2804671999999 253.67135999999996,554.7062271999998 250.27367999999996,558.6374271999998 250.07711999999995"></path></g></g><g class="vf-modifiers"></g></g><g class="vf-stavenote" id="vf-auto3846978"><g class="vf-note" pointer-events="bounding-box"><g class="vf-stem" pointer-events="bounding-box"><path stroke-width="1.5" fill="none" stroke="#000000" stroke-dasharray="none" class="vf-stem" id="vf-auto3846978-stem" d="M623.8820405333332 290.29999999999995L623.8820405333332 255.29999999999995"></path></g><g class="vf-notehead" pointer-events="bounding-box"><path stroke-width="0.3" fill="#000000" stroke="none" stroke-dasharray="none" d="M612.6138005333332 290.29999999999995M619.9707605333332 285.07712C620.0830805333333 285.07712,620.2515605333332 285.07712,620.2796405333332 285.07712C620.2796405333332 285.07712,620.3077205333333 285.07712,620.3077205333333 285.07712C620.3077205333333 285.07712,620.4762005333332 285.07712,620.6166005333332 285.07712C623.1438005333332 285.21752,624.6320405333332 286.87423999999993,624.6320405333332 288.95215999999994C624.6320405333332 289.96304,624.2950805333332 291.11431999999996,623.4526805333333 292.20944C621.8521205333333 294.37159999999994,619.2406805333333 295.55096,616.9662005333332 295.55096C615.1971605333332 295.55096,613.6808405333333 294.84896,612.9507605333332 293.41687999999994C612.7261205333332 292.85527999999994,612.6138005333332 292.3217599999999,612.6138005333332 291.73207999999994C612.6138005333332 288.67135999999994,616.0395605333332 285.27367999999996,619.9707605333332 285.07712"></path></g></g><g class="vf-modifiers"></g></g><rect stroke-width="0.3" fill="#000000" stroke="#000000" stroke-dasharray="none" x="733.7307007999998" y="166.5" width="1" height="129.79999999999995"></rect><path stroke-width="1" fill="none" stroke="#000000" stroke-dasharray="none" d="M733.7307007999999 255.29999999999998L934.7809343999999 255.29999999999998"></path><path stroke-width="1" fill="none" stroke="#000000" stroke-dasharray="none" d="M733.7307007999999 265.29999999999995L934.7809343999999 265.29999999999995"></path><path stroke-width="1" fill="none" stroke="#000000" stroke-dasharray="none" d="M733.7307007999999 275.29999999999995L934.7809343999999 275.29999999999995"></path><path stroke-width="1" fill="none" stroke="#000000" stroke-dasharray="none" d="M733.7307007999999 285.29999999999995L934.7809343999999 285.29999999999995"></path><path stroke-width="1" fill="none" stroke="#000000" stroke-dasharray="none" d="M733.7307007999999 295.29999999999995L934.7809343999999 295.29999999999995"></path><rect stroke-width="0.3" fill="#000000" stroke="#000000" stroke-dasharray="none" x="929.7809343999999" y="254.79999999999998" width="1" height="40.99999999999997"></rect><rect stroke-width="0.3" fill="#000000" stroke="#000000" stroke-dasharray="none" x="932.7809343999999" y="254.79999999999998" width="3" height="40.99999999999997"></rect><path stroke-width="0.3" fill="#000000" stroke="none" stroke-dasharray="none" d="M928.7809343999999 270.79999999999995 A2 2 0 0 0 924.7809343999999 270.79999999999995M924.7809343999999 270.79999999999995 A2 2 0 0 0 928.7809343999999 270.79999999999995"></path><path stroke-width="0.3" fill="#000000" stroke="none" stroke-dasharray="none" d="M928.7809343999999 280.79999999999995 A2 2 0 0 0 924.7809343999999 280.79999999999995M924.7809343999999 280.79999999999995 A2 2 0 0 0 928.7809343999999 280.79999999999995"></path><g class="vf-stavenote" id="vf-auto3847008"><g class="vf-note" pointer-events="bounding-box"><g class="vf-stem" pointer-events="bounding-box"><path stroke-width="1.5" fill="none" stroke="#000000" stroke-dasharray="none" class="vf-stem" id="vf-auto3847008-stem" d="M751.4807007999999 260.29999999999995L751.4807007999999 295.29999999999995"></path></g><g class="vf-notehead" pointer-events="bounding-box"><path stroke-width="0.3" fill="#000000" stroke="none" stroke-dasharray="none" d="M750.7307007999999 260.29999999999995M758.0876607999999 255.07711999999995C758.1999807999999 255.07711999999995,758.3684607999999 255.07711999999995,758.3965407999999 255.07711999999995C758.3965407999999 255.07711999999995,758.4246208 255.07711999999995,758.4246208 255.07711999999995C758.4246208 255.07711999999995,758.5931007999999 255.07711999999995,758.7335007999999 255.07711999999995C761.2607007999999 255.21751999999995,762.7489407999999 256.87423999999993,762.7489407999999 258.95215999999994C762.7489407999999 259.96304,762.4119807999999 261.11431999999996,761.5695807999999 262.20944C759.9690208 264.37159999999994,757.3575807999999 265.55096,755.0831007999999 265.55096C753.3140607999999 265.55096,751.7977407999999 264.84896,751.0676607999999 263.41687999999994C750.8430207999999 262.85527999999994,750.7307007999999 262.3217599999999,750.7307007999999 261.73207999999994C750.7307007999999 258.67135999999994,754.1564607999999 255.27367999999996,758.0876607999999 255.07711999999995"></path></g></g><g class="vf-modifiers"></g></g><g class="vf-stavenote" id="vf-auto3847016"><g class="vf-note" pointer-events="bounding-box"><g class="vf-stem" pointer-events="bounding-box"><path stroke-width="1.5" fill="none" stroke="#000000" stroke-dasharray="none" class="vf-stem" id="vf-auto3847016-stem" d="M792.9989407999999 290.29999999999995L792.9989407999999 255.29999999999995"></path></g><g class="vf-notehead" pointer-events="bounding-box"><path stroke-width="0.3" fill="#000000" stroke="none" stroke-dasharray="none" d="M781.7307007999999 290.29999999999995M789.0876607999999 285.07712C789.1999807999999 285.07712,789.3684607999999 285.07712,789.3965407999999 285.07712C789.3965407999999 285.07712,789.4246208 285.07712,789.4246208 285.07712C789.4246208 285.07712,789.5931007999999 285.07712,789.7335007999999 285.07712C792.2607007999999 285.21752,793.7489407999999 286.87423999999993,793.7489407999999 288.95215999999994C793.7489407999999 289.96304,793.4119807999999 291.11431999999996,792.5695807999999 292.20944C790.9690208 294.37159999999994,788.3575807999999 295.55096,786.0831007999999 295.55096C784.3140607999999 295.55096,782.7977407999999 294.84896,782.0676607999999 293.41687999999994C781.8430207999999 292.85527999999994,781.7307007999999 292.3217599999999,781.7307007999999 291.73207999999994C781.7307007999999 288.67135999999994,785.1564607999999 285.27367999999996,789.0876607999999 285.07712"></path></g></g><g class="vf-modifiers"></g></g><g class="vf-stavenote" id="vf-auto3847024"><g class="vf-note" pointer-events="bounding-box"><g class="vf-stem" pointer-events="bounding-box"><path stroke-width="1.5" fill="none" stroke="#000000" stroke-dasharray="none" class="vf-stem" id="vf-auto3847024-stem" d="M813.4807007999999 265.29999999999995L813.4807007999999 300.29999999999995"></path></g><g class="vf-notehead" pointer-events="bounding-box"><path stroke-width="0.3" fill="#000000" stroke="none" stroke-dasharray="none" d="M812.7307007999999 265.29999999999995M820.0876607999999 260.07712C820.1999807999999 260.07712,820.3684607999999 260.07712,820.3965407999999 260.07712C820.3965407999999 260.07712,820.4246208 260.07712,820.4246208 260.07712C820.4246208 260.07712,820.5931007999999 260.07712,820.7335007999999 260.07712C823.2607007999999 260.21752,824.7489407999999 261.87423999999993,824.7489407999999 263.95215999999994C824.7489407999999 264.96304,824.4119807999999 266.11431999999996,823.5695807999999 267.20944C821.9690208 269.37159999999994,819.3575807999999 270.55096,817.0831007999999 270.55096C815.3140607999999 270.55096,813.7977407999999 269.84896,813.0676607999999 268.41687999999994C812.8430207999999 267.85527999999994,812.7307007999999 267.3217599999999,812.7307007999999 266.73207999999994C812.7307007999999 263.67135999999994,816.1564607999999 260.27367999999996,820.0876607999999 260.07712"></path></g></g><g class="vf-modifiers"></g></g><g class="vf-stavenote" id="vf-auto3847032"><g class="vf-note" pointer-events="bounding-box"><g class="vf-stem" pointer-events="bounding-box"><path stroke-width="1.5" fill="none" stroke="#000000" stroke-dasharray="none" class="vf-stem" id="vf-auto3847032-stem" d="M854.9989407999999 280.29999999999995L854.9989407999999 245.29999999999995"></path></g><g class="vf-notehead" pointer-events="bounding-box"><path stroke-width="0.3" fill="#000000" stroke="none" stroke-dasharray="none" d="M843.7307007999999 280.29999999999995M851.0876607999999 275.07712C851.1999807999999 275.07712,851.3684607999999 275.07712,851.3965407999999 275.07712C851.3965407999999 275.07712,851.4246208 275.07712,851.4246208 275.07712C851.4246208 275.07712,851.5931007999999 275.07712,851.7335007999999 275.07712C854.2607007999999 275.21752,855.7489407999999 276.87423999999993,855.7489407999999 278.95215999999994C855.7489407999999 279.96304,855.4119807999999 281.11431999999996,854.5695807999999 282.20944C852.9690208 284.37159999999994,850.3575807999999 285.55096,848.0831007999999 285.55096C846.3140607999999 285.55096,844.7977407999999 284.84896,844.0676607999999 283.41687999999994C843.8430207999999 282.85527999999994,843.7307007999999 282.3217599999999,843.7307007999999 281.73207999999994C843.7307007999999 278.67135999999994,847.1564607999999 275.27367999999996,851.0876607999999 275.07712"></path></g></g><g class="vf-modifiers"></g></g><rect stroke-width="0.3" fill="#000000" stroke="#000000" stroke-dasharray="none" x="929.7809343999999" y="166.5" width="1" height="129.79999999999995"></rect><rect stroke-width="0.3" fill="#000000" stroke="#000000" stroke-dasharray="none" x="932.7809343999999" y="166.5" width="3" height="129.79999999999995"></rect><path stroke-width="0.3" fill="#000000" stroke="none" stroke-dasharray="none" d="M68 166.5C45.2 192.45999999999998,81.2 213.87699999999998,56 231.39999999999998C81.2 248.92299999999997,45.2 270.34,68 296.29999999999995C44 270.34,72.8 248.92299999999997,56 231.39999999999998C72.8 213.87699999999998,44 192.45999999999998,68 166.5"></path><path stroke-width="1" fill="none" stroke="#000000" stroke-dasharray="none" d="M68 166.5C45.2 192.45999999999998,81.2 213.87699999999998,56 231.39999999999998C81.2 248.92299999999997,45.2 270.34,68 296.29999999999995C44 270.34,72.8 248.92299999999997,56 231.39999999999998C72.8 213.87699999999998,44 192.45999999999998,68 166.5"></path><g class="vf-text"><text stroke-width="0.3" fill="#000000" stroke="none" stroke-dasharray="none" font-family="Times New Roman" font-size="15px" font-weight="normal" font-style="normal" x="530.7804671999999" y="163.5">3</text></g></svg>