<svg xmlns="http://www.w3.org/2000/svg"  width="1470" height="383.6" viewBox="0 0 1470 383.6"><path stroke-width="1" fill="none" stroke="#000000" stroke-dasharray="none" d="M70 166.5L351.63023359999994 166.5"></path><path stroke-width="1" fill="none" stroke="#000000" stroke-dasharray="none" d="M70 176.5L351.63023359999994 176.5"></path><path stroke-width="1" fill="none" stroke="#000000" stroke-dasharray="none" d="M70 186.5L351.63023359999994 186.5"></path><path stroke-width="1" fill="none" stroke="#000000" stroke-dasharray="none" d="M70 196.5L351.63023359999994 196.5"></path><path stroke-width="1" fill="none" stroke="#000000" stroke-dasharray="none" d="M70 206.5L351.63023359999994 206.5"></path><rect stroke-width="0.3" fill="#000000" stroke="#000000" stroke-dasharray="none" x="351.63023359999994" y="166" width="1" height="41"></rect><g class="vf-clef"><path stroke-width="0.3" fill="#000000" stroke="none" stroke-dasharray="none" d="M75 196.5M89.0544 153.3288C89.112 153.3,89.1696 153.3,89.256 153.3C89.6016 153.3,90.0048 153.588,90.5808 154.308C92.9136 156.9864,94.5552 161.652,94.5552 165.4536C94.5552 165.7416,94.4976 165.972,94.4976 166.26C94.2384 170.7816,92.3952 174.4968,88.7376 178.0104L87.7584 178.9608L87.4128 179.3352L87.4128 179.4504L87.6144 180.3144L87.9312 181.8696L88.248 183.3096C88.68 185.268,88.8528 186.276,88.8528 186.276C88.8528 186.276,88.8528 186.276,88.8528 186.276C88.8528 186.276,88.968 186.276,89.112 186.2472C89.256 186.2472,89.7168 186.1896,90.2064 186.1896C90.55199999999999 186.1896,90.8976 186.2472,91.0704 186.2472C95.1312 186.7656,98.2704 189.6744,99.1632 193.764C99.336 194.4264,99.39359999999999 195.1464,99.39359999999999 195.8664C99.39359999999999 199.7544,97.0608 203.4696,93.1728 205.2264C92.94239999999999 205.3704,92.856 205.3992,92.856 205.3992L92.856 205.428C92.856 205.428,93.0288 206.0904,93.1728 206.8392L93.6048 209.028L94.008 210.7848C94.2384 211.908,94.3536 212.7144,94.3536 213.4344C94.3536 214.06799999999998,94.2672 214.644,94.1232 215.3064C93.144 219.3096,89.6592 221.7,86.0304 221.7C84.2448 221.7,82.4016 221.124,80.7888 219.828C79.3488 218.6184,78.7152 217.524,78.7152 216.084C78.7152 213.5496,80.76 211.764,82.8912 211.764C83.64 211.764,84.3888 211.99439999999998,85.1088 212.4264C86.3184 213.2616,86.8656 214.5288,86.8656 215.7672C86.8656 217.668,85.5408 219.54,83.2656 219.684L83.0352 219.684L83.208 219.79919999999998C84.1584 220.2024,85.1088 220.404,86.0304 220.404C88.3632 220.404,90.55199999999999 219.2232,91.8768 217.1784C92.62559999999999 216.0264,93.0288 214.6728,93.0288 213.3192C93.0288 212.8008,92.94239999999999 212.2824,92.8272 211.7064C92.8272 211.6488,92.74080000000001 211.188,92.62559999999999 210.756C91.992 207.6456,91.6176 205.8312,91.6176 205.8312C91.6176 205.8312,91.6176 205.8312,91.6176 205.8312C91.56 205.8312,91.4448 205.8312,91.3584 205.8888C91.0704 205.9464,90.4656 206.0904,90.2064 206.1192C89.5728 206.2056,88.968 206.2344,88.392 206.2344C82.74719999999999 206.2344,77.5056 202.4328,75.6912 196.8168C75.2304 195.3192,74.9712 193.8216,74.9712 192.324C74.9712 189.3288,75.9216 186.3912,77.7648 183.7704C79.7808 180.9192,81.7968 178.4712,84.2736 175.9368L85.13759999999999 175.044L84.936 173.9784L84.5616 172.2216L84.072 169.9752C83.928 169.14,83.7552 168.3336,83.7264 168.1608C83.5824 167.2104,83.496 166.2888,83.496 165.3384C83.496 161.7096,84.6768 158.22480000000002,86.8944 155.4312C87.5568 154.5672,88.7376 153.4152,89.0544 153.3288M90.8112 159.0312C90.7536 159.0312,90.6672 159.0312,90.5808 159.0312C89.4 159.0312,87.8736 160.1256,86.8368 161.7384C85.7712 163.32240000000002,85.224 165.4248,85.224 167.5848C85.224 168.1608,85.25280000000001 168.7656,85.3392 169.3704C85.4256 169.8024,85.45439999999999 170.0904,85.6848 171.12720000000002L86.088 172.9416C86.2032 173.4888,86.28960000000001 173.92079999999999,86.28960000000001 173.9784L86.28960000000001 173.9784C86.3184 173.9784,87.2112 172.9992,87.4992 172.6536C90.3792 169.3992,92.1072 165.972,92.4816 162.948C92.5104 162.66,92.5104 162.4296,92.5104 162.1416C92.5104 161.24880000000002,92.3952 160.38479999999998,92.1936 159.924C91.9632 159.4632,91.4448 159.0888,90.8112 159.0312M86.4624 181.2936C86.4048 180.8904,86.3184 180.5736,86.3184 180.516C86.3184 180.516,86.3184 180.516,86.28960000000001 180.516C86.232 180.516,84.9936 181.956,84.1296 182.964C82.6608 184.7496,81.1056 186.8808,80.472 187.9176C79.2624 189.9624,78.6576 192.2376,78.6576 194.484C78.6576 195.9528,78.9456 197.364,79.464 198.7176C81.0192 202.7208,84.5904 205.2264,88.4784 205.2264C88.9392 205.2264,89.4576 205.1976,89.9472 205.1112C90.5808 204.996,91.3584 204.7656,91.3584 204.6792L91.3584 204.6792C91.3584 204.6792,91.3008 204.3912,91.2144 204.0744L90.3792 199.956L89.7168 196.8744L89.2848 194.7432L88.824 192.6696C88.5936 191.4312,88.5072 191.1144,88.5072 191.1144C88.5072 191.1144,88.5072 191.0856,88.4784 191.0856C88.3056 191.0856,87.384 191.5464,86.9808 191.8344C85.4832 192.8712,84.7056 194.5128,84.7056 196.1256C84.7056 197.652,85.45439999999999 199.1784,86.8944 200.0712C87.2112 200.2728,87.3264 200.4456,87.3264 200.6472C87.3264 200.676,87.3264 200.7624,87.3264 200.7912C87.2688 201.1368,87.0672 201.2808,86.7792 201.2808C86.664 201.2808,86.52 201.252,86.3472 201.1656C83.6976 200.0136,81.912 197.2776,81.912 194.2824L81.912 194.2824C81.912 190.8264,84.072 187.8312,87.384 186.6504L87.5568 186.5928L87.2688 185.1528L86.4624 181.2936M90.7824 190.9128C90.55199999999999 190.88400000000001,90.3216 190.88400000000001,90.1488 190.88400000000001C90.0912 190.88400000000001,90.0048 190.88400000000001,89.9472 190.88400000000001L89.8032 190.88400000000001L89.9184 191.4024L90.5232 194.2248L90.8976 196.068L91.3008 197.8824L92.1072 201.8856L92.424 203.412C92.5392 203.8152,92.5968 204.1608,92.62559999999999 204.1608C92.62559999999999 204.1608,92.62559999999999 204.1608,92.62559999999999 204.1608C92.6544 204.1608,93.144 203.8728,93.4608 203.6424C94.9296 202.6056,96.024 200.9928,96.4272 199.3224C96.5712 198.7752,96.6288 198.1992,96.6288 197.652C96.6288 194.3112,94.152 191.2872,90.7824 190.9128"></path></g><path stroke-width="0.3" fill="#000000" stroke="none" stroke-dasharray="none" d="M116 186.5M123.344 167.8376C123.4592 167.8376,123.6608 167.8376,123.8912 167.8376C124.2944 167.8376,124.8416 167.8376,125.0432 167.8952C126.7712 168.1544,128.6144 169.3928,128.96 170.516C129.0464 170.7752,129.0752 171.00560000000002,129.0752 171.236C129.0752 172.532,127.9808 173.5112,126.8 173.5112C126.3392 173.5112,125.8784 173.39600000000002,125.4464 173.0504C124.928 172.5896,124.64 172.0136,124.64 171.3512C124.64 170.4584,125.1872 169.5368,126.13759999999999 169.2776C126.224 169.2776,126.25280000000001 169.2488,126.25280000000001 169.2488C126.25280000000001 169.2488,126.224 169.1912,126.13759999999999 169.1624C125.504 168.8744,124.8704 168.7592,124.2944 168.7592C123.4016 168.7592,122.624 169.076,122.048 169.6808C121.4432 170.4008,121.0112 171.8696,120.7232 174.0296C120.6944 174.548,120.608 175.5272,120.608 175.7288C120.608 175.7288,120.608 175.7288,120.608 175.7288C120.608 175.7288,120.608 175.7288,120.608 175.7288C120.608 175.7288,120.7232 175.6712,120.83840000000001 175.6424C121.76 175.268,122.5664 175.124,123.4304 175.124C124.4672 175.124,125.4464 175.3544,126.5408 175.9304C128.5568 176.9096,129.68 178.3496,129.68 180.0776C129.68 180.308,129.6224 180.5672,129.5936 180.8264C129.3056 182.4392,128.0672 183.764,126.0512 184.628C125.1296 185.0312,124.2944 185.2616,123.4592 185.2616C122.624 185.2616,121.76 185.0024,120.8096 184.5128C118.304 183.2456,116.576 180.88400000000001,116.1152 178.148C116.0288 177.6008,116 177.0536,116 176.4488C116 175.2392,116.1728 174.0296,116.576 173.0504C117.6704 170.2856,120.464 168.1544,123.344 167.8376M123.74719999999999 176.0456C123.632 176.0456,123.5168 176.0456,123.4016 176.0456C122.7968 176.0456,122.336 176.2472,122.048 176.564C121.6448 177.1688,121.35679999999999 178.6664,121.35679999999999 179.9912C121.35679999999999 180.2792,121.35679999999999 180.5672,121.3856 180.7976C121.5008 182.1512,121.8176 183.2744,122.1344 183.764C122.3648 184.1096,122.8544 184.3112,123.4016 184.3112C123.5168 184.3112,123.6608 184.3112,123.776 184.2824C124.6112 184.1672,124.928 183.6488,125.2448 182.0072C125.3888 181.2296,125.4752 180.5672,125.4752 179.9048C125.4752 179.2424,125.3888 178.6088,125.2448 177.8312C124.9568 176.6504,124.5824 176.1608,123.74719999999999 176.0456M122.7968 186.5288L122.8544 186.5288L122.768 186.5288L122.7968 186.5288M122.7968 167.1176L122.8544 167.1176L122.768 167.1176L122.7968 167.1176"></path><path stroke-width="0.3" fill="#000000" stroke="none" stroke-dasharray="none" d="M116.1008 206.5M121.11200000000001 188.1544C121.14080000000001 188.1256,121.54400000000001 188.1256,122.78240000000001 188.1256C123.1568 188.1256,123.56 188.1256,124.0784 188.1256L126.9872 188.1256L127.0736 188.212C127.2176 188.29840000000002,127.304 188.4424,127.304 188.5576C127.304 188.7304,127.2176 188.8456,127.1024 188.9608C127.0736 189.0472,126.8144 189.2776,126.64160000000001 189.5368L125.1152 191.2936L123.1568 193.5112L122.12 194.692L120.5648 196.4776L118.52000000000001 198.8104C118.1744 199.2424,117.80000000000001 199.588,117.80000000000001 199.588C117.80000000000001 199.588,117.80000000000001 199.588,117.80000000000001 199.588C117.80000000000001 199.6456,118.0592 199.6456,120.4496 199.6456L123.0704 199.6456L123.0704 197.7736C123.0704 195.8728,123.0704 195.844,123.09920000000001 195.8152C123.1568 195.7288,123.41600000000001 195.412,124.424 194.2312L124.8272 193.7992L125.2304 193.3672L125.8352 192.5896L126.4688 191.9272L126.7856 191.524C126.9008 191.3512,127.0736 191.3224,127.2176 191.3224C127.3904 191.3224,127.5344 191.4088,127.6208 191.5528C127.6496 191.6392,127.6496 191.6968,127.6496 193.828C127.6496 194.3176,127.6496 194.9224,127.6496 195.6424L127.6496 199.6456L128.3696 199.6456C129.032 199.6456,129.0608 199.6456,129.1472 199.6744C129.3776 199.7608,129.49280000000002 199.9912,129.49280000000002 200.2504C129.49280000000002 200.3944,129.464 200.5672,129.3488 200.6824C129.17600000000002 200.8264,129.1472 200.8264,128.3696 200.8264L127.6496 200.8264L127.6496 201.316C127.67840000000001 202.7848,127.96640000000001 203.3608,129.08960000000002 203.9656C129.49280000000002 204.1672,129.57920000000001 204.2248,129.57920000000001 204.5128C129.57920000000001 204.7144,129.5216 204.8008,129.3776 204.916L129.2912 204.9448L125.3456 204.9448L121.42880000000001 204.9448L121.34240000000001 204.916C121.1696 204.8008,121.14080000000001 204.7144,121.14080000000001 204.5128C121.14080000000001 204.2248,121.1696 204.1672,121.6016 203.9656C122.7248 203.3608,123.01280000000001 202.7848,123.01280000000001 201.316L123.01280000000001 200.8264L119.7008 200.8264C119.096 200.88400000000001,118.60640000000001 200.88400000000001,118.20320000000001 200.88400000000001C116.3888 200.88400000000001,116.36000000000001 200.8264,116.33120000000001 200.8264C116.1584 200.7688,116.1008 200.596,116.1008 200.3944C116.1008 200.3944,116.1008 200.3944,116.1008 200.3944C116.1008 200.1928,116.1008 200.1928,116.6768 199.5304C119.096 196.5928,120.79520000000001 192.3304,120.79520000000001 188.93200000000002C120.79520000000001 188.4136,120.8816 188.2408,121.11200000000001 188.1544M122.84 206.5288L122.86880000000001 206.5288L122.78240000000001 206.5288L122.84 206.5288M122.84 187.1176L122.86880000000001 187.1176L122.78240000000001 187.1176L122.84 187.1176"></path><g class="vf-stavenote" id="vf-auto4400652"><g class="vf-note" pointer-events="bounding-box"><g class="vf-stem" pointer-events="bounding-box"><path stroke-width="1.5" fill="none" stroke="#000000" stroke-dasharray="none" class="vf-stem" id="vf-auto4400652-stem" d="M177.65 186.5L177.65 221.5"></path></g><g class="vf-notehead" pointer-events="bounding-box"><path stroke-width="0.3" fill="#000000" stroke="none" stroke-dasharray="none" d="M176.9 186.5M184.25696 181.27712C184.36928 181.27712,184.53776 181.27712,184.56584 181.27712C184.56584 181.27712,184.59392 181.27712,184.59392 181.27712C184.59392 181.27712,184.7624 181.27712,184.9028 181.27712C187.43 181.41752,188.91824 183.07424,188.91824 185.15216C188.91824 186.16304,188.58128 187.31432,187.73888 188.40944C186.13832 190.5716,183.52688 191.75096,181.2524 191.75096C179.48336 191.75096,177.96704 191.04896,177.23696 189.61688C177.01232000000002 189.05528,176.9 188.52176,176.9 187.93208C176.9 184.87136,180.32576 181.47368,184.25696 181.27712"></path></g></g><g class="vf-modifiers"></g></g><path stroke-width="1" fill="none" stroke="#000000" stroke-dasharray="none" d="M209.12 216.5L227.13824 216.5"></path><g class="vf-stavenote" id="vf-auto4400660"><g class="vf-note" pointer-events="bounding-box"><g class="vf-stem" pointer-events="bounding-box"><path stroke-width="1.5" fill="none" stroke="#000000" stroke-dasharray="none" class="vf-stem" id="vf-auto4400660-stem" d="M223.38824 221.5L223.38824 186.5"></path></g><g class="vf-notehead" pointer-events="bounding-box"><path stroke-width="0.3" fill="#000000" stroke="none" stroke-dasharray="none" d="M212.12 221.5M219.47696 216.27712C219.58928 216.27712,219.75776000000002 216.27712,219.78584 216.27712C219.78584 216.27712,219.81392 216.27712,219.81392 216.27712C219.81392 216.27712,219.9824 216.27712,220.1228 216.27712C222.65 216.41752,224.13824 218.07424,224.13824 220.15216C224.13824 221.16304,223.80128000000002 222.31432,222.95888 223.40944C221.35832 225.5716,218.74688 226.75096,216.4724 226.75096C214.70336 226.75096,213.18704 226.04896,212.45696 224.61688C212.23232000000002 224.05528,212.12 223.52176,212.12 222.93208C212.12 219.87136,215.54576 216.47368,219.47696 216.27712"></path></g></g><g class="vf-modifiers"></g></g><g class="vf-stavenote" id="vf-auto4400668"><g class="vf-note" pointer-events="bounding-box"><g class="vf-stem" pointer-events="bounding-box"><path stroke-width="1.5" fill="none" stroke="#000000" stroke-dasharray="none" class="vf-stem" id="vf-auto4400668-stem" d="M283.31 166.5L283.31 201.5"></path></g><g class="vf-notehead" pointer-events="bounding-box"><path stroke-width="0.3" fill="#000000" stroke="none" stroke-dasharray="none" d="M282.56 166.5M289.91696 161.27712C290.02928 161.27712,290.19776 161.27712,290.22584 161.27712C290.22584 161.27712,290.25392 161.27712,290.25392 161.27712C290.25392 161.27712,290.4224 161.27712,290.5628 161.27712C293.09000000000003 161.41752,294.57824 163.07424,294.57824 165.15216C294.57824 166.16304,294.24128 167.31432,293.39888 168.40944C291.79832 170.5716,289.18688 171.75096,286.9124 171.75096C285.14336000000003 171.75096,283.62704 171.04896,282.89696 169.61688C282.67232 169.05528,282.56 168.52176,282.56 167.93208C282.56 164.87136,285.98576 161.47368,289.91696 161.27712"></path></g></g><g class="vf-modifiers"></g></g><g class="vf-stavenote" id="vf-auto4400676"><g class="vf-note" pointer-events="bounding-box"><g class="vf-stem" pointer-events="bounding-box"><path stroke-width="1.5" fill="none" stroke="#000000" stroke-dasharray="none" class="vf-stem" id="vf-auto4400676-stem" d="M318.53000000000003 181.5L318.53000000000003 216.5"></path></g><g class="vf-notehead" pointer-events="bounding-box"><path stroke-width="0.3" fill="#000000" stroke="none" stroke-dasharray="none" d="M317.78000000000003 181.5M325.13696000000004 176.27712C325.24928000000006 176.27712,325.41776000000004 176.27712,325.44584000000003 176.27712C325.44584000000003 176.27712,325.47392 176.27712,325.47392 176.27712C325.47392 176.27712,325.6424 176.27712,325.7828 176.27712C328.31000000000006 176.41752,329.79824 178.07424,329.79824 180.15216C329.79824 181.16304,329.46128000000004 182.31432,328.61888000000005 183.40944C327.01832 185.5716,324.40688 186.75096,322.1324 186.75096C320.36336000000006 186.75096,318.84704000000005 186.04896,318.11696 184.61688C317.89232000000004 184.05528,317.78000000000003 183.52176,317.78000000000003 182.93208C317.78000000000003 179.87136,321.20576000000005 176.47368,325.13696000000004 176.27712"></path></g></g><g class="vf-modifiers"></g></g><path stroke-width="1" fill="none" stroke="#000000" stroke-dasharray="none" d="M351.6302336 166.5L555.2804672 166.5"></path><path stroke-width="1" fill="none" stroke="#000000" stroke-dasharray="none" d="M351.6302336 176.5L555.2804672 176.5"></path><path stroke-width="1" fill="none" stroke="#000000" stroke-dasharray="none" d="M351.6302336 186.5L555.2804672 186.5"></path><path stroke-width="1" fill="none" stroke="#000000" stroke-dasharray="none" d="M351.6302336 196.5L555.2804672 196.5"></path><path stroke-width="1" fill="none" stroke="#000000" stroke-dasharray="none" d="M351.6302336 206.5L555.2804672 206.5"></path><rect stroke-width="0.3" fill="#000000" stroke="#000000" stroke-dasharray="none" x="555.2804672" y="166" width="1" height="41"></rect><g class="vf-stavenote" id="vf-auto4400706"><g class="vf-note" pointer-events="bounding-box"><g class="vf-stem" pointer-events="bounding-box"><path stroke-width="1.5" fill="none" stroke="#000000" stroke-dasharray="none" class="vf-stem" id="vf-auto4400706-stem" d="M369.3802336 181.5L369.3802336 216.5"></path></g><g class="vf-notehead" pointer-events="bounding-box"><path stroke-width="0.3" fill="#000000" stroke="none" stroke-dasharray="none" d="M368.6302336 181.5M375.9871936 176.27712C376.0995136 176.27712,376.2679936 176.27712,376.2960736 176.27712C376.2960736 176.27712,376.3241536 176.27712,376.3241536 176.27712C376.3241536 176.27712,376.4926336 176.27712,376.6330336 176.27712C379.16023359999997 176.41752,380.6484736 178.07424,380.6484736 180.15216C380.6484736 181.16304,380.3115136 182.31432,379.4691136 183.40944C377.8685536 185.5716,375.2571136 186.75096,372.9826336 186.75096C371.2135936 186.75096,369.6972736 186.04896,368.9671936 184.61688C368.7425536 184.05528,368.6302336 183.52176,368.6302336 182.93208C368.6302336 179.87136,372.0559936 176.47368,375.9871936 176.27712"></path></g></g><g class="vf-modifiers"></g></g><g class="vf-stavenote" id="vf-auto4400714"><g class="vf-note" pointer-events="bounding-box"><g class="vf-stem" pointer-events="bounding-box"><path stroke-width="1.5" fill="none" stroke="#000000" stroke-dasharray="none" class="vf-stem" id="vf-auto4400714-stem" d="M411.2318069333333 206.5L411.2318069333333 171.5"></path></g><g class="vf-notehead" pointer-events="bounding-box"><path stroke-width="0.3" fill="#000000" stroke="none" stroke-dasharray="none" d="M399.9635669333333 206.5M407.3205269333333 201.27712C407.43284693333334 201.27712,407.6013269333333 201.27712,407.6294069333333 201.27712C407.6294069333333 201.27712,407.6574869333333 201.27712,407.6574869333333 201.27712C407.6574869333333 201.27712,407.8259669333333 201.27712,407.9663669333333 201.27712C410.49356693333334 201.41752,411.9818069333333 203.07424,411.9818069333333 205.15216C411.9818069333333 206.16304,411.6448469333333 207.31432,410.80244693333333 208.40944C409.2018869333333 210.5716,406.5904469333333 211.75096,404.3159669333333 211.75096C402.54692693333334 211.75096,401.03060693333333 211.04896,400.3005269333333 209.61688C400.0758869333333 209.05528,399.9635669333333 208.52176,399.9635669333333 207.93208C399.9635669333333 204.87136,403.38932693333334 201.47368,407.3205269333333 201.27712"></path></g></g><g class="vf-modifiers"></g></g><g class="vf-stavenote" id="vf-auto4400722"><g class="vf-note" pointer-events="bounding-box"><g class="vf-stem" pointer-events="bounding-box"><path stroke-width="1.5" fill="none" stroke="#000000" stroke-dasharray="none" class="vf-stem" id="vf-auto4400722-stem" d="M442.5651402666667 196.5L442.5651402666667 161.5"></path></g><g class="vf-notehead" pointer-events="bounding-box"><path stroke-width="0.3" fill="#000000" stroke="none" stroke-dasharray="none" d="M431.2969002666667 196.5M438.6538602666667 191.27712C438.7661802666667 191.27712,438.9346602666667 191.27712,438.9627402666667 191.27712C438.9627402666667 191.27712,438.9908202666667 191.27712,438.9908202666667 191.27712C438.9908202666667 191.27712,439.15930026666666 191.27712,439.29970026666666 191.27712C441.8269002666667 191.41752,443.3151402666667 193.07424,443.3151402666667 195.15216C443.3151402666667 196.16304,442.9781802666667 197.31432,442.1357802666667 198.40944C440.53522026666667 200.5716,437.92378026666665 201.75096,435.64930026666667 201.75096C433.8802602666667 201.75096,432.3639402666667 201.04896,431.63386026666666 199.61688C431.4092202666667 199.05528,431.2969002666667 198.52176,431.2969002666667 197.93208C431.2969002666667 194.87136,434.7226602666667 191.47368,438.6538602666667 191.27712"></path></g></g><g class="vf-modifiers"></g></g><g class="vf-stavenote" id="vf-auto4400730"><g class="vf-note" pointer-events="bounding-box"><g class="vf-stem" pointer-events="bounding-box"><path stroke-width="1.5" fill="none" stroke="#000000" stroke-dasharray="none" class="vf-stem" id="vf-auto4400730-stem" d="M494.71356693333337 186.5L494.71356693333337 221.5"></path></g><g class="vf-notehead" pointer-events="bounding-box"><path stroke-width="0.3" fill="#000000" stroke="none" stroke-dasharray="none" d="M493.96356693333337 186.5M501.3205269333334 181.27712C501.4328469333334 181.27712,501.6013269333334 181.27712,501.62940693333337 181.27712C501.62940693333337 181.27712,501.65748693333336 181.27712,501.65748693333336 181.27712C501.65748693333336 181.27712,501.82596693333335 181.27712,501.96636693333335 181.27712C504.49356693333334 181.41752,505.98180693333336 183.07424,505.98180693333336 185.15216C505.98180693333336 186.16304,505.6448469333334 187.31432,504.8024469333334 188.40944C503.20188693333336 190.5716,500.5904469333334 191.75096,498.31596693333336 191.75096C496.5469269333334 191.75096,495.0306069333334 191.04896,494.30052693333334 189.61688C494.0758869333334 189.05528,493.96356693333337 188.52176,493.96356693333337 187.93208C493.96356693333337 184.87136,497.3893269333334 181.47368,501.3205269333334 181.27712"></path></g></g><g class="vf-modifiers"></g></g><path stroke-width="1" fill="none" stroke="#000000" stroke-dasharray="none" d="M522.2969002666666 216.5L540.3151402666666 216.5"></path><g class="vf-stavenote" id="vf-auto4400738"><g class="vf-note" pointer-events="bounding-box"><g class="vf-stem" pointer-events="bounding-box"><path stroke-width="1.5" fill="none" stroke="#000000" stroke-dasharray="none" class="vf-stem" id="vf-auto4400738-stem" d="M536.5651402666666 221.5L536.5651402666666 186.5"></path></g><g class="vf-notehead" pointer-events="bounding-box"><path stroke-width="0.3" fill="#000000" stroke="none" stroke-dasharray="none" d="M525.2969002666666 221.5M532.6538602666666 216.27712C532.7661802666667 216.27712,532.9346602666666 216.27712,532.9627402666666 216.27712C532.9627402666666 216.27712,532.9908202666667 216.27712,532.9908202666667 216.27712C532.9908202666667 216.27712,533.1593002666666 216.27712,533.2997002666666 216.27712C535.8269002666666 216.41752,537.3151402666666 218.07424,537.3151402666666 220.15216C537.3151402666666 221.16304,536.9781802666666 222.31432,536.1357802666666 223.40944C534.5352202666667 225.5716,531.9237802666667 226.75096,529.6493002666666 226.75096C527.8802602666666 226.75096,526.3639402666666 226.04896,525.6338602666666 224.61688C525.4092202666666 224.05528,525.2969002666666 223.52176,525.2969002666666 222.93208C525.2969002666666 219.87136,528.7226602666666 216.47368,532.6538602666666 216.27712"></path></g></g><g class="vf-modifiers"></g></g><path stroke-width="1" fill="none" stroke="#000000" stroke-dasharray="none" d="M555.2804672 166.5L746.3307007999999 166.5"></path><path stroke-width="1" fill="none" stroke="#000000" stroke-dasharray="none" d="M555.2804672 176.5L746.3307007999999 176.5"></path><path stroke-width="1" fill="none" stroke="#000000" stroke-dasharray="none" d="M555.2804672 186.5L746.3307007999999 186.5"></path><path stroke-width="1" fill="none" stroke="#000000" stroke-dasharray="none" d="M555.2804672 196.5L746.3307007999999 196.5"></path><path stroke-width="1" fill="none" stroke="#000000" stroke-dasharray="none" d="M555.2804672 206.5L746.3307007999999 206.5"></path><rect stroke-width="0.3" fill="#000000" stroke="#000000" stroke-dasharray="none" x="746.3307007999999" y="166" width="1" height="41"></rect><g class="vf-stavenote" id="vf-auto4400760"><g class="vf-note" pointer-events="bounding-box"><g class="vf-stem" pointer-events="bounding-box"><path stroke-width="1.5" fill="none" stroke="#000000" stroke-dasharray="none" class="vf-stem" id="vf-auto4400760-stem" d="M631.6971338666666 186.5L631.6971338666666 221.5"></path></g><g class="vf-notehead" pointer-events="bounding-box"><path stroke-width="0.3" fill="#000000" stroke="none" stroke-dasharray="none" d="M630.9471338666666 186.5M638.3040938666666 181.27712C638.4164138666666 181.27712,638.5848938666666 181.27712,638.6129738666666 181.27712C638.6129738666666 181.27712,638.6410538666667 181.27712,638.6410538666667 181.27712C638.6410538666667 181.27712,638.8095338666666 181.27712,638.9499338666666 181.27712C641.4771338666666 181.41752,642.9653738666666 183.07424,642.9653738666666 185.15216C642.9653738666666 186.16304,642.6284138666666 187.31432,641.7860138666666 188.40944C640.1854538666666 190.5716,637.5740138666666 191.75096,635.2995338666666 191.75096C633.5304938666666 191.75096,632.0141738666666 191.04896,631.2840938666666 189.61688C631.0594538666666 189.05528,630.9471338666666 188.52176,630.9471338666666 187.93208C630.9471338666666 184.87136,634.3728938666666 181.47368,638.3040938666666 181.27712"></path></g></g><g class="vf-modifiers"></g></g><g class="vf-stavenote" id="vf-auto4400768"><g class="vf-note" pointer-events="bounding-box"><g class="vf-stem" pointer-events="bounding-box"><path stroke-width="1.5" fill="none" stroke="#000000" stroke-dasharray="none" class="vf-stem" id="vf-auto4400768-stem" d="M719.6971338666667 176.5L719.6971338666667 211.5"></path></g><g class="vf-notehead" pointer-events="bounding-box"><path stroke-width="0.3" fill="#000000" stroke="none" stroke-dasharray="none" d="M718.9471338666667 176.5M726.3040938666667 171.27712C726.4164138666667 171.27712,726.5848938666667 171.27712,726.6129738666667 171.27712C726.6129738666667 171.27712,726.6410538666668 171.27712,726.6410538666668 171.27712C726.6410538666668 171.27712,726.8095338666667 171.27712,726.9499338666667 171.27712C729.4771338666667 171.41752,730.9653738666667 173.07424,730.9653738666667 175.15216C730.9653738666667 176.16304,730.6284138666667 177.31432,729.7860138666667 178.40944C728.1854538666668 180.5716,725.5740138666667 181.75096,723.2995338666667 181.75096C721.5304938666667 181.75096,720.0141738666667 181.04896,719.2840938666667 179.61688C719.0594538666667 179.05528,718.9471338666667 178.52176,718.9471338666667 177.93208C718.9471338666667 174.87136,722.3728938666667 171.47368,726.3040938666667 171.27712"></path></g></g><g class="vf-modifiers"></g></g><path stroke-width="1" fill="none" stroke="#000000" stroke-dasharray="none" d="M746.3307007999998 166.5L951.5809343999997 166.5"></path><path stroke-width="1" fill="none" stroke="#000000" stroke-dasharray="none" d="M746.3307007999998 176.5L951.5809343999997 176.5"></path><path stroke-width="1" fill="none" stroke="#000000" stroke-dasharray="none" d="M746.3307007999998 186.5L951.5809343999997 186.5"></path><path stroke-width="1" fill="none" stroke="#000000" stroke-dasharray="none" d="M746.3307007999998 196.5L951.5809343999997 196.5"></path><path stroke-width="1" fill="none" stroke="#000000" stroke-dasharray="none" d="M746.3307007999998 206.5L951.5809343999997 206.5"></path><rect stroke-width="0.3" fill="#000000" stroke="#000000" stroke-dasharray="none" x="946.5809343999997" y="166" width="1" height="41"></rect><rect stroke-width="0.3" fill="#000000" stroke="#000000" stroke-dasharray="none" x="949.5809343999997" y="166" width="3" height="41"></rect><path stroke-width="0.3" fill="#000000" stroke="none" stroke-dasharray="none" d="M945.5809343999997 182 A2 2 0 0 0 941.5809343999997 182M941.5809343999997 182 A2 2 0 0 0 945.5809343999997 182"></path><path stroke-width="0.3" fill="#000000" stroke="none" stroke-dasharray="none" d="M945.5809343999997 192 A2 2 0 0 0 941.5809343999997 192M941.5809343999997 192 A2 2 0 0 0 945.5809343999997 192"></path><g class="vf-stavenote" id="vf-auto4400814"><g class="vf-note" pointer-events="bounding-box"><g class="vf-stem" pointer-events="bounding-box"><path stroke-width="1.5" fill="none" stroke="#000000" stroke-dasharray="none" class="vf-stem" id="vf-auto4400814-stem" d="M774.5989407999998 206.5L774.5989407999998 171.5"></path></g><g class="vf-notehead" pointer-events="bounding-box"><path stroke-width="0.3" fill="#000000" stroke="none" stroke-dasharray="none" d="M763.3307007999998 206.5M770.6876607999998 201.27712C770.7999807999998 201.27712,770.9684607999998 201.27712,770.9965407999998 201.27712C770.9965407999998 201.27712,771.0246207999999 201.27712,771.0246207999999 201.27712C771.0246207999999 201.27712,771.1931007999998 201.27712,771.3335007999998 201.27712C773.8607007999998 201.41752,775.3489407999998 203.07424,775.3489407999998 205.15216C775.3489407999998 206.16304,775.0119807999998 207.31432,774.1695807999998 208.40944C772.5690207999999 210.5716,769.9575807999998 211.75096,767.6831007999998 211.75096C765.9140607999998 211.75096,764.3977407999998 211.04896,763.6676607999998 209.61688C763.4430207999998 209.05528,763.3307007999998 208.52176,763.3307007999998 207.93208C763.3307007999998 204.87136,766.7564607999998 201.47368,770.6876607999998 201.27712"></path></g></g><g class="vf-modifiers"></g></g><path stroke-width="1" fill="none" stroke="#000000" stroke-dasharray="none" d="M886.9973674666664 216.5L905.0156074666664 216.5"></path><g class="vf-stavenote" id="vf-auto4400822"><g class="vf-note" pointer-events="bounding-box"><g class="vf-stem" pointer-events="bounding-box"><path stroke-width="1.5" fill="none" stroke="#000000" stroke-dasharray="none" class="vf-stem" id="vf-auto4400822-stem" d="M901.2656074666664 216.5L901.2656074666664 181.5"></path></g><g class="vf-notehead" pointer-events="bounding-box"><path stroke-width="0.3" fill="#000000" stroke="none" stroke-dasharray="none" d="M889.9973674666664 216.5M897.3543274666664 211.27712C897.4666474666665 211.27712,897.6351274666664 211.27712,897.6632074666664 211.27712C897.6632074666664 211.27712,897.6912874666665 211.27712,897.6912874666665 211.27712C897.6912874666665 211.27712,897.8597674666664 211.27712,898.0001674666664 211.27712C900.5273674666664 211.41752,902.0156074666664 213.07424,902.0156074666664 215.15216C902.0156074666664 216.16304,901.6786474666665 217.31432,900.8362474666665 218.40944C899.2356874666665 220.5716,896.6242474666665 221.75096,894.3497674666664 221.75096C892.5807274666664 221.75096,891.0644074666665 221.04896,890.3343274666664 219.61688C890.1096874666664 219.05528,889.9973674666664 218.52176,889.9973674666664 217.93208C889.9973674666664 214.87136,893.4231274666664 211.47368,897.3543274666664 211.27712"></path></g></g><g class="vf-modifiers"></g></g><g class="vf-stavenote" id="vf-auto4400830"><g class="vf-note" pointer-events="bounding-box"><g class="vf-stem" pointer-events="bounding-box"><path stroke-width="1.5" fill="none" stroke="#000000" stroke-dasharray="none" class="vf-stem" id="vf-auto4400830-stem" d="M932.9322741333332 206.5L932.9322741333332 171.5"></path></g><g class="vf-notehead" pointer-events="bounding-box"><path stroke-width="0.3" fill="#000000" stroke="none" stroke-dasharray="none" d="M921.6640341333332 206.5M929.0209941333331 201.27712C929.1333141333332 201.27712,929.3017941333331 201.27712,929.3298741333332 201.27712C929.3298741333332 201.27712,929.3579541333332 201.27712,929.3579541333332 201.27712C929.3579541333332 201.27712,929.5264341333332 201.27712,929.6668341333332 201.27712C932.1940341333332 201.41752,933.6822741333332 203.07424,933.6822741333332 205.15216C933.6822741333332 206.16304,933.3453141333332 207.31432,932.5029141333332 208.40944C930.9023541333332 210.5716,928.2909141333332 211.75096,926.0164341333332 211.75096C924.2473941333332 211.75096,922.7310741333332 211.04896,922.0009941333332 209.61688C921.7763541333331 209.05528,921.6640341333332 208.52176,921.6640341333332 207.93208C921.6640341333332 204.87136,925.0897941333332 201.47368,929.0209941333331 201.27712"></path></g></g><g class="vf-modifiers"></g></g><g class="vf-text"><text stroke-width="0.3" fill="#000000" stroke="none" stroke-dasharray="none" font-family="Times New Roman" font-size="23px" font-weight="bold" font-style="italic" x="156.68" y="243.3">mp</text></g><path stroke-width="1" fill="none" stroke="#000000" stroke-dasharray="none" d="M70 258.09999999999997L351.63023359999994 258.09999999999997"></path><path stroke-width="1" fill="none" stroke="#000000" stroke-dasharray="none" d="M70 268.09999999999997L351.63023359999994 268.09999999999997"></path><path stroke-width="1" fill="none" stroke="#000000" stroke-dasharray="none" d="M70 278.09999999999997L351.63023359999994 278.09999999999997"></path><path stroke-width="1" fill="none" stroke="#000000" stroke-dasharray="none" d="M70 288.09999999999997L351.63023359999994 288.09999999999997"></path><path stroke-width="1" fill="none" stroke="#000000" stroke-dasharray="none" d="M70 298.09999999999997L351.63023359999994 298.09999999999997"></path><rect stroke-width="0.3" fill="#000000" stroke="#000000" stroke-dasharray="none" x="351.63023359999994" y="257.59999999999997" width="1" height="41"></rect><g class="vf-clef"><path stroke-width="0.3" fill="#000000" stroke="none" stroke-dasharray="none" d="M75 268.09999999999997M83.8416 258.04879999999997C84.072 257.9912,84.3024 257.9912,84.5616 257.9912C85.5696 257.9912,86.7504 258.10639999999995,87.7584 258.308C92.4816 259.2872,95.736 262.484,96.3408 266.7464C96.3984 267.20719999999994,96.4272 267.63919999999996,96.4272 268.09999999999997C96.4272 270.69199999999995,95.5344 274.03279999999995,94.008 276.8264C90.3792 283.39279999999997,83.7552 288.116,75.8064 289.84399999999994C75.6624 289.84399999999994,75.5472 289.8728,75.4032 289.8728C75.1152 289.8728,74.9712 289.7,74.9712 289.44079999999997C74.9712 289.15279999999996,75.0288 289.0664,75.6048 288.83599999999996C84.7056 285.4088,90.7824 278.00719999999995,91.3296 269.71279999999996C91.3584 269.28079999999994,91.3584 268.79119999999995,91.3584 268.41679999999997C91.3584 264.3848,90.12 261.3896,87.7296 259.89199999999994C86.6928 259.22959999999995,85.5696 258.91279999999995,84.36 258.91279999999995C81.6816 258.91279999999995,78.9456 260.43919999999997,77.6784 263.00239999999997C77.6208 263.20399999999995,77.4192 263.63599999999997,77.4192 263.66479999999996C77.4192 263.66479999999996,77.4192 263.66479999999996,77.4192 263.66479999999996C77.4192 263.66479999999996,77.448 263.63599999999997,77.5344 263.6072C78.168 263.20399999999995,78.8592 263.00239999999997,79.5792 263.00239999999997C80.5872 263.00239999999997,81.6528 263.4344,82.4016 264.2408C83.0928 264.98959999999994,83.4672 265.9976,83.4672 266.9192C83.4672 268.79119999999995,82.0848 270.69199999999995,79.9248 270.8936C79.7808 270.8936,79.6368 270.9224,79.4928 270.9224C77.1024 270.9224,75.1728 268.73359999999997,75.1728 265.9688C75.1728 265.91119999999995,75.1728 265.8248,75.1728 265.796C75.288 261.6776,79.0608 258.308,83.8416 258.04879999999997M99.1632 261.90799999999996C99.2208 261.87919999999997,99.2496 261.87919999999997,99.336 261.87919999999997C99.5376 261.87919999999997,99.768 261.90799999999996,99.8256 261.9656C100.54560000000001 262.1672,100.8912 262.8008,100.8912 263.4056C100.8912 263.924,100.632 264.44239999999996,100.11359999999999 264.7304C99.912 264.8744,99.6528 264.90319999999997,99.39359999999999 264.90319999999997C98.9904 264.90319999999997,98.5584 264.7304,98.2704 264.356C98.03999999999999 264.068,97.9248 263.7512,97.9248 263.4344C97.9248 262.71439999999996,98.3856 261.9944,99.1632 261.90799999999996M99.1632 271.32559999999995C99.2208 271.32559999999995,99.2496 271.32559999999995,99.336 271.32559999999995C99.5376 271.32559999999995,99.768 271.35439999999994,99.8256 271.412C100.54560000000001 271.61359999999996,100.8912 272.24719999999996,100.8912 272.852C100.8912 273.37039999999996,100.632 273.88879999999995,100.11359999999999 274.14799999999997C99.912 274.292,99.6528 274.34959999999995,99.39359999999999 274.34959999999995C98.9904 274.34959999999995,98.5584 274.14799999999997,98.2704 273.8024C98.03999999999999 273.51439999999997,97.9248 273.19759999999997,97.9248 272.852C97.9248 272.13199999999995,98.3856 271.44079999999997,99.1632 271.32559999999995"></path></g><path stroke-width="0.3" fill="#000000" stroke="none" stroke-dasharray="none" d="M116 278.09999999999997M123.344 259.4376C123.4592 259.4376,123.6608 259.4376,123.8912 259.4376C124.2944 259.4376,124.8416 259.4376,125.0432 259.49519999999995C126.7712 259.7544,128.6144 260.9928,128.96 262.116C129.0464 262.37519999999995,129.0752 262.6056,129.0752 262.83599999999996C129.0752 264.13199999999995,127.9808 265.11119999999994,126.8 265.11119999999994C126.3392 265.11119999999994,125.8784 264.996,125.4464 264.6504C124.928 264.1896,124.64 263.61359999999996,124.64 262.9512C124.64 262.05839999999995,125.1872 261.1368,126.13759999999999 260.8776C126.224 260.8776,126.25280000000001 260.8488,126.25280000000001 260.8488C126.25280000000001 260.8488,126.224 260.79119999999995,126.13759999999999 260.76239999999996C125.504 260.47439999999995,124.8704 260.3592,124.2944 260.3592C123.4016 260.3592,122.624 260.676,122.048 261.28079999999994C121.4432 262.00079999999997,121.0112 263.46959999999996,120.7232 265.6296C120.6944 266.14799999999997,120.608 267.12719999999996,120.608 267.32879999999994C120.608 267.32879999999994,120.608 267.32879999999994,120.608 267.32879999999994C120.608 267.32879999999994,120.608 267.32879999999994,120.608 267.32879999999994C120.608 267.32879999999994,120.7232 267.27119999999996,120.83840000000001 267.2424C121.76 266.86799999999994,122.5664 266.724,123.4304 266.724C124.4672 266.724,125.4464 266.95439999999996,126.5408 267.5304C128.5568 268.5096,129.68 269.9496,129.68 271.6776C129.68 271.90799999999996,129.6224 272.1672,129.5936 272.42639999999994C129.3056 274.0392,128.0672 275.364,126.0512 276.22799999999995C125.1296 276.6312,124.2944 276.86159999999995,123.4592 276.86159999999995C122.624 276.86159999999995,121.76 276.6024,120.8096 276.1128C118.304 274.8456,116.576 272.484,116.1152 269.748C116.0288 269.20079999999996,116 268.6536,116 268.04879999999997C116 266.83919999999995,116.1728 265.6296,116.576 264.6504C117.6704 261.88559999999995,120.464 259.7544,123.344 259.4376M123.74719999999999 267.64559999999994C123.632 267.64559999999994,123.5168 267.64559999999994,123.4016 267.64559999999994C122.7968 267.64559999999994,122.336 267.8472,122.048 268.164C121.6448 268.76879999999994,121.35679999999999 270.2664,121.35679999999999 271.59119999999996C121.35679999999999 271.87919999999997,121.35679999999999 272.1672,121.3856 272.39759999999995C121.5008 273.7512,121.8176 274.8744,122.1344 275.364C122.3648 275.70959999999997,122.8544 275.91119999999995,123.4016 275.91119999999995C123.5168 275.91119999999995,123.6608 275.91119999999995,123.776 275.88239999999996C124.6112 275.76719999999995,124.928 275.24879999999996,125.2448 273.6072C125.3888 272.82959999999997,125.4752 272.1672,125.4752 271.5048C125.4752 270.84239999999994,125.3888 270.20879999999994,125.2448 269.4312C124.9568 268.25039999999996,124.5824 267.76079999999996,123.74719999999999 267.64559999999994M122.7968 278.12879999999996L122.8544 278.12879999999996L122.768 278.12879999999996L122.7968 278.12879999999996M122.7968 258.71759999999995L122.8544 258.71759999999995L122.768 258.71759999999995L122.7968 258.71759999999995"></path><path stroke-width="0.3" fill="#000000" stroke="none" stroke-dasharray="none" d="M116.1008 298.09999999999997M121.11200000000001 279.7544C121.14080000000001 279.7256,121.54400000000001 279.7256,122.78240000000001 279.7256C123.1568 279.7256,123.56 279.7256,124.0784 279.7256L126.9872 279.7256L127.0736 279.81199999999995C127.2176 279.8984,127.304 280.0424,127.304 280.15759999999995C127.304 280.33039999999994,127.2176 280.44559999999996,127.1024 280.5608C127.0736 280.64719999999994,126.8144 280.8776,126.64160000000001 281.1368L125.1152 282.8936L123.1568 285.11119999999994L122.12 286.292L120.5648 288.07759999999996L118.52000000000001 290.4104C118.1744 290.84239999999994,117.80000000000001 291.188,117.80000000000001 291.188C117.80000000000001 291.188,117.80000000000001 291.188,117.80000000000001 291.188C117.80000000000001 291.24559999999997,118.0592 291.24559999999997,120.4496 291.24559999999997L123.0704 291.24559999999997L123.0704 289.37359999999995C123.0704 287.47279999999995,123.0704 287.44399999999996,123.09920000000001 287.41519999999997C123.1568 287.32879999999994,123.41600000000001 287.01199999999994,124.424 285.83119999999997L124.8272 285.39919999999995L125.2304 284.9672L125.8352 284.1896L126.4688 283.5272L126.7856 283.12399999999997C126.9008 282.9512,127.0736 282.9224,127.2176 282.9224C127.3904 282.9224,127.5344 283.00879999999995,127.6208 283.15279999999996C127.6496 283.2392,127.6496 283.29679999999996,127.6496 285.42799999999994C127.6496 285.9176,127.6496 286.52239999999995,127.6496 287.2424L127.6496 291.24559999999997L128.3696 291.24559999999997C129.032 291.24559999999997,129.0608 291.24559999999997,129.1472 291.27439999999996C129.3776 291.3608,129.49280000000002 291.59119999999996,129.49280000000002 291.8504C129.49280000000002 291.9944,129.464 292.1672,129.3488 292.28239999999994C129.17600000000002 292.42639999999994,129.1472 292.42639999999994,128.3696 292.42639999999994L127.6496 292.42639999999994L127.6496 292.91599999999994C127.67840000000001 294.3848,127.96640000000001 294.96079999999995,129.08960000000002 295.56559999999996C129.49280000000002 295.76719999999995,129.57920000000001 295.8248,129.57920000000001 296.1128C129.57920000000001 296.3144,129.5216 296.40079999999995,129.3776 296.51599999999996L129.2912 296.54479999999995L125.3456 296.54479999999995L121.42880000000001 296.54479999999995L121.34240000000001 296.51599999999996C121.1696 296.40079999999995,121.14080000000001 296.3144,121.14080000000001 296.1128C121.14080000000001 295.8248,121.1696 295.76719999999995,121.6016 295.56559999999996C122.7248 294.96079999999995,123.01280000000001 294.3848,123.01280000000001 292.91599999999994L123.01280000000001 292.42639999999994L119.7008 292.42639999999994C119.096 292.484,118.60640000000001 292.484,118.20320000000001 292.484C116.3888 292.484,116.36000000000001 292.42639999999994,116.33120000000001 292.42639999999994C116.1584 292.36879999999996,116.1008 292.19599999999997,116.1008 291.9944C116.1008 291.9944,116.1008 291.9944,116.1008 291.9944C116.1008 291.79279999999994,116.1008 291.79279999999994,116.6768 291.13039999999995C119.096 288.1928,120.79520000000001 283.93039999999996,120.79520000000001 280.532C120.79520000000001 280.01359999999994,120.8816 279.84079999999994,121.11200000000001 279.7544M122.84 298.12879999999996L122.86880000000001 298.12879999999996L122.78240000000001 298.12879999999996L122.84 298.12879999999996M122.84 278.71759999999995L122.86880000000001 278.71759999999995L122.78240000000001 278.71759999999995L122.84 278.71759999999995"></path><g class="vf-stavenote" id="vf-auto4400687"><g class="vf-note" pointer-events="bounding-box"><g class="vf-stem" pointer-events="bounding-box"><path stroke-width="1.5" fill="none" stroke="#000000" stroke-dasharray="none" class="vf-stem" id="vf-auto4400687-stem" d="M152.94824 293.09999999999997L152.94824 258.09999999999997"></path></g><g class="vf-notehead" pointer-events="bounding-box"><path stroke-width="0.3" fill="#000000" stroke="none" stroke-dasharray="none" d="M141.68 293.09999999999997M149.03696 287.87712C149.14928 287.87712,149.31776000000002 287.87712,149.34584 287.87712C149.34584 287.87712,149.37392 287.87712,149.37392 287.87712C149.37392 287.87712,149.54240000000001 287.87712,149.68280000000001 287.87712C152.21 288.01752,153.69824 289.67423999999994,153.69824 291.75215999999995C153.69824 292.76304,153.36128000000002 293.91432,152.51888 295.00944C150.91832 297.17159999999996,148.30688 298.35096,146.0324 298.35096C144.26336 298.35096,142.74704 297.64896,142.01696 296.21687999999995C141.79232000000002 295.65527999999995,141.68 295.12175999999994,141.68 294.53207999999995C141.68 291.47135999999995,145.10576 288.07367999999997,149.03696 287.87712"></path></g></g><g class="vf-modifiers"></g></g><g class="vf-stavenote" id="vf-auto4400695"><g class="vf-note" pointer-events="bounding-box"><g class="vf-stem" pointer-events="bounding-box"><path stroke-width="1.5" fill="none" stroke="#000000" stroke-dasharray="none" class="vf-stem" id="vf-auto4400695-stem" d="M248.09 268.09999999999997L248.09 303.09999999999997"></path></g><g class="vf-notehead" pointer-events="bounding-box"><path stroke-width="0.3" fill="#000000" stroke="none" stroke-dasharray="none" d="M247.34 268.09999999999997M254.69696 262.87712C254.80928 262.87712,254.97776 262.87712,255.00584 262.87712C255.00584 262.87712,255.03392 262.87712,255.03392 262.87712C255.03392 262.87712,255.2024 262.87712,255.3428 262.87712C257.87 263.01752,259.35824 264.67423999999994,259.35824 266.75215999999995C259.35824 267.76304,259.02128 268.91432,258.17888 270.00944C256.57832 272.17159999999996,253.96688 273.35096,251.6924 273.35096C249.92336 273.35096,248.40704 272.64896,247.67696 271.21687999999995C247.45232000000001 270.65527999999995,247.34 270.12175999999994,247.34 269.53207999999995C247.34 266.47135999999995,250.76576 263.07367999999997,254.69696 262.87712"></path></g></g><g class="vf-modifiers"></g></g><rect stroke-width="0.3" fill="#000000" stroke="#000000" stroke-dasharray="none" x="351.63023359999994" y="166.5" width="1" height="132.59999999999997"></rect><rect stroke-width="0.3" fill="#000000" stroke="#000000" stroke-dasharray="none" x="70" y="166.5" width="1" height="132.59999999999997"></rect><path stroke-width="1" fill="none" stroke="#000000" stroke-dasharray="none" d="M351.6302336 258.09999999999997L555.2804672 258.09999999999997"></path><path stroke-width="1" fill="none" stroke="#000000" stroke-dasharray="none" d="M351.6302336 268.09999999999997L555.2804672 268.09999999999997"></path><path stroke-width="1" fill="none" stroke="#000000" stroke-dasharray="none" d="M351.6302336 278.09999999999997L555.2804672 278.09999999999997"></path><path stroke-width="1" fill="none" stroke="#000000" stroke-dasharray="none" d="M351.6302336 288.09999999999997L555.2804672 288.09999999999997"></path><path stroke-width="1" fill="none" stroke="#000000" stroke-dasharray="none" d="M351.6302336 298.09999999999997L555.2804672 298.09999999999997"></path><rect stroke-width="0.3" fill="#000000" stroke="#000000" stroke-dasharray="none" x="555.2804672" y="257.59999999999997" width="1" height="41"></rect><g class="vf-stavenote" id="vf-auto4400748"><g class="vf-note" pointer-events="bounding-box"><g class="vf-stem" pointer-events="bounding-box"><path stroke-width="1.5" fill="none" stroke="#000000" stroke-dasharray="none" class="vf-stem" id="vf-auto4400748-stem" d="M473.8984736 298.09999999999997L473.8984736 263.09999999999997"></path></g><g class="vf-notehead" pointer-events="bounding-box"><path stroke-width="0.3" fill="#000000" stroke="none" stroke-dasharray="none" d="M462.6302336 298.09999999999997M469.9871936 292.87712C470.0995136 292.87712,470.2679936 292.87712,470.2960736 292.87712C470.2960736 292.87712,470.3241536 292.87712,470.3241536 292.87712C470.3241536 292.87712,470.4926336 292.87712,470.6330336 292.87712C473.16023359999997 293.01752,474.6484736 294.67423999999994,474.6484736 296.75215999999995C474.6484736 297.76304,474.3115136 298.91432,473.4691136 300.00944C471.8685536 302.17159999999996,469.2571136 303.35096,466.9826336 303.35096C465.2135936 303.35096,463.6972736 302.64896,462.9671936 301.21687999999995C462.7425536 300.65527999999995,462.6302336 300.12175999999994,462.6302336 299.53207999999995C462.6302336 296.47135999999995,466.0559936 293.07367999999997,469.9871936 292.87712"></path></g></g><g class="vf-modifiers"></g></g><rect stroke-width="0.3" fill="#000000" stroke="#000000" stroke-dasharray="none" x="555.2804672" y="166.5" width="1" height="132.59999999999997"></rect><path stroke-width="1" fill="none" stroke="#000000" stroke-dasharray="none" d="M555.2804672 258.09999999999997L746.3307007999999 258.09999999999997"></path><path stroke-width="1" fill="none" stroke="#000000" stroke-dasharray="none" d="M555.2804672 268.09999999999997L746.3307007999999 268.09999999999997"></path><path stroke-width="1" fill="none" stroke="#000000" stroke-dasharray="none" d="M555.2804672 278.09999999999997L746.3307007999999 278.09999999999997"></path><path stroke-width="1" fill="none" stroke="#000000" stroke-dasharray="none" d="M555.2804672 288.09999999999997L746.3307007999999 288.09999999999997"></path><path stroke-width="1" fill="none" stroke="#000000" stroke-dasharray="none" d="M555.2804672 298.09999999999997L746.3307007999999 298.09999999999997"></path><rect stroke-width="0.3" fill="#000000" stroke="#000000" stroke-dasharray="none" x="746.3307007999999" y="257.59999999999997" width="1" height="41"></rect><g class="vf-stavenote" id="vf-auto4400779"><g class="vf-note" pointer-events="bounding-box"><g class="vf-stem" pointer-events="bounding-box"><path stroke-width="1.5" fill="none" stroke="#000000" stroke-dasharray="none" class="vf-stem" id="vf-auto4400779-stem" d="M573.0304672 253.09999999999997L573.0304672 288.09999999999997"></path></g><g class="vf-notehead" pointer-events="bounding-box"><path stroke-width="0.3" fill="#000000" stroke="none" stroke-dasharray="none" d="M572.2804672 253.09999999999997M579.6374271999999 247.87711999999996C579.7497472 247.87711999999996,579.9182271999999 247.87711999999996,579.9463072 247.87711999999996C579.9463072 247.87711999999996,579.9743872 247.87711999999996,579.9743872 247.87711999999996C579.9743872 247.87711999999996,580.1428672 247.87711999999996,580.2832672 247.87711999999996C582.8104672 248.01751999999996,584.2987072 249.67423999999997,584.2987072 251.75215999999998C584.2987072 252.76303999999996,583.9617472 253.91431999999998,583.1193472 255.00943999999996C581.5187872 257.17159999999996,578.9073472 258.35096,576.6328672 258.35096C574.8638272 258.35096,573.3475072 257.64896,572.6174272 256.21687999999995C572.3927871999999 255.65527999999998,572.2804672 255.12175999999997,572.2804672 254.53207999999998C572.2804672 251.47135999999998,575.7062272 248.07367999999997,579.6374271999999 247.87711999999996"></path></g></g><g class="vf-modifiers"></g></g><g class="vf-stavenote" id="vf-auto4400787"><g class="vf-note" pointer-events="bounding-box"><g class="vf-stem" pointer-events="bounding-box"><path stroke-width="1.5" fill="none" stroke="#000000" stroke-dasharray="none" class="vf-stem" id="vf-auto4400787-stem" d="M602.3638005333333 253.09999999999997L602.3638005333333 288.09999999999997"></path></g><g class="vf-notehead" pointer-events="bounding-box"><path stroke-width="0.3" fill="#000000" stroke="none" stroke-dasharray="none" d="M601.6138005333333 253.09999999999997M608.9707605333333 247.87711999999996C609.0830805333334 247.87711999999996,609.2515605333333 247.87711999999996,609.2796405333333 247.87711999999996C609.2796405333333 247.87711999999996,609.3077205333334 247.87711999999996,609.3077205333334 247.87711999999996C609.3077205333334 247.87711999999996,609.4762005333333 247.87711999999996,609.6166005333333 247.87711999999996C612.1438005333333 248.01751999999996,613.6320405333333 249.67423999999997,613.6320405333333 251.75215999999998C613.6320405333333 252.76303999999996,613.2950805333334 253.91431999999998,612.4526805333334 255.00943999999996C610.8521205333334 257.17159999999996,608.2406805333334 258.35096,605.9662005333333 258.35096C604.1971605333333 258.35096,602.6808405333334 257.64896,601.9507605333333 256.21687999999995C601.7261205333333 255.65527999999998,601.6138005333333 255.12175999999997,601.6138005333333 254.53207999999998C601.6138005333333 251.47135999999998,605.0395605333333 248.07367999999997,608.9707605333333 247.87711999999996"></path></g></g><g class="vf-modifiers"></g></g><g class="vf-stavenote" id="vf-auto4400795"><g class="vf-note" pointer-events="bounding-box"><g class="vf-stem" pointer-events="bounding-box"><path stroke-width="1.5" fill="none" stroke="#000000" stroke-dasharray="none" class="vf-stem" id="vf-auto4400795-stem" d="M661.0304672 268.09999999999997L661.0304672 303.09999999999997"></path></g><g class="vf-notehead" pointer-events="bounding-box"><path stroke-width="0.3" fill="#000000" stroke="none" stroke-dasharray="none" d="M660.2804672 268.09999999999997M667.6374271999999 262.87712C667.7497472 262.87712,667.9182271999999 262.87712,667.9463072 262.87712C667.9463072 262.87712,667.9743872 262.87712,667.9743872 262.87712C667.9743872 262.87712,668.1428672 262.87712,668.2832672 262.87712C670.8104672 263.01752,672.2987072 264.67423999999994,672.2987072 266.75215999999995C672.2987072 267.76304,671.9617472 268.91432,671.1193472 270.00944C669.5187872 272.17159999999996,666.9073472 273.35096,664.6328672 273.35096C662.8638272 273.35096,661.3475072 272.64896,660.6174272 271.21687999999995C660.3927871999999 270.65527999999995,660.2804672 270.12175999999994,660.2804672 269.53207999999995C660.2804672 266.47135999999995,663.7062272 263.07367999999997,667.6374271999999 262.87712"></path></g></g><g class="vf-modifiers"></g></g><g class="vf-stavenote" id="vf-auto4400803"><g class="vf-note" pointer-events="bounding-box"><g class="vf-stem" pointer-events="bounding-box"><path stroke-width="1.5" fill="none" stroke="#000000" stroke-dasharray="none" class="vf-stem" id="vf-auto4400803-stem" d="M700.8820405333333 278.09999999999997L700.8820405333333 243.09999999999997"></path></g><g class="vf-notehead" pointer-events="bounding-box"><path stroke-width="0.3" fill="#000000" stroke="none" stroke-dasharray="none" d="M689.6138005333333 278.09999999999997M696.9707605333333 272.87712C697.0830805333334 272.87712,697.2515605333333 272.87712,697.2796405333333 272.87712C697.2796405333333 272.87712,697.3077205333334 272.87712,697.3077205333334 272.87712C697.3077205333334 272.87712,697.4762005333333 272.87712,697.6166005333333 272.87712C700.1438005333333 273.01752,701.6320405333333 274.67423999999994,701.6320405333333 276.75215999999995C701.6320405333333 277.76304,701.2950805333334 278.91432,700.4526805333334 280.00944C698.8521205333334 282.17159999999996,696.2406805333334 283.35096,693.9662005333333 283.35096C692.1971605333333 283.35096,690.6808405333334 282.64896,689.9507605333333 281.21687999999995C689.7261205333333 280.65527999999995,689.6138005333333 280.12175999999994,689.6138005333333 279.53207999999995C689.6138005333333 276.47135999999995,693.0395605333333 273.07367999999997,696.9707605333333 272.87712"></path></g></g><g class="vf-modifiers"></g></g><rect stroke-width="0.3" fill="#000000" stroke="#000000" stroke-dasharray="none" x="746.3307007999999" y="166.5" width="1" height="132.59999999999997"></rect><path stroke-width="1" fill="none" stroke="#000000" stroke-dasharray="none" d="M746.3307007999998 258.09999999999997L951.5809343999997 258.09999999999997"></path><path stroke-width="1" fill="none" stroke="#000000" stroke-dasharray="none" d="M746.3307007999998 268.09999999999997L951.5809343999997 268.09999999999997"></path><path stroke-width="1" fill="none" stroke="#000000" stroke-dasharray="none" d="M746.3307007999998 278.09999999999997L951.5809343999997 278.09999999999997"></path><path stroke-width="1" fill="none" stroke="#000000" stroke-dasharray="none" d="M746.3307007999998 288.09999999999997L951.5809343999997 288.09999999999997"></path><path stroke-width="1" fill="none" stroke="#000000" stroke-dasharray="none" d="M746.3307007999998 298.09999999999997L951.5809343999997 298.09999999999997"></path><rect stroke-width="0.3" fill="#000000" stroke="#000000" stroke-dasharray="none" x="946.5809343999997" y="257.59999999999997" width="1" height="41"></rect><rect stroke-width="0.3" fill="#000000" stroke="#000000" stroke-dasharray="none" x="949.5809343999997" y="257.59999999999997" width="3" height="41"></rect><path stroke-width="0.3" fill="#000000" stroke="none" stroke-dasharray="none" d="M945.5809343999997 273.59999999999997 A2 2 0 0 0 941.5809343999997 273.59999999999997M941.5809343999997 273.59999999999997 A2 2 0 0 0 945.5809343999997 273.59999999999997"></path><path stroke-width="0.3" fill="#000000" stroke="none" stroke-dasharray="none" d="M945.5809343999997 283.59999999999997 A2 2 0 0 0 941.5809343999997 283.59999999999997M941.5809343999997 283.59999999999997 A2 2 0 0 0 945.5809343999997 283.59999999999997"></path><g class="vf-stavenote" id="vf-auto4400841"><g class="vf-note" pointer-events="bounding-box"><g class="vf-stem" pointer-events="bounding-box"><path stroke-width="1.5" fill="none" stroke="#000000" stroke-dasharray="none" class="vf-stem" id="vf-auto4400841-stem" d="M795.7473674666664 258.09999999999997L795.7473674666664 293.09999999999997"></path></g><g class="vf-notehead" pointer-events="bounding-box"><path stroke-width="0.3" fill="#000000" stroke="none" stroke-dasharray="none" d="M794.9973674666664 258.09999999999997M802.3543274666664 252.87711999999996C802.4666474666665 252.87711999999996,802.6351274666664 252.87711999999996,802.6632074666664 252.87711999999996C802.6632074666664 252.87711999999996,802.6912874666665 252.87711999999996,802.6912874666665 252.87711999999996C802.6912874666665 252.87711999999996,802.8597674666664 252.87711999999996,803.0001674666664 252.87711999999996C805.5273674666664 253.01751999999996,807.0156074666664 254.67423999999997,807.0156074666664 256.75215999999995C807.0156074666664 257.76304,806.6786474666665 258.91432,805.8362474666665 260.00944C804.2356874666665 262.17159999999996,801.6242474666665 263.35096,799.3497674666664 263.35096C797.5807274666664 263.35096,796.0644074666665 262.64896,795.3343274666664 261.21687999999995C795.1096874666664 260.65527999999995,794.9973674666664 260.12175999999994,794.9973674666664 259.53207999999995C794.9973674666664 256.47135999999995,798.4231274666664 253.07367999999997,802.3543274666664 252.87711999999996"></path></g></g><g class="vf-modifiers"></g></g><g class="vf-stavenote" id="vf-auto4400849"><g class="vf-note" pointer-events="bounding-box"><g class="vf-stem" pointer-events="bounding-box"><path stroke-width="1.5" fill="none" stroke="#000000" stroke-dasharray="none" class="vf-stem" id="vf-auto4400849-stem" d="M827.4140341333332 268.09999999999997L827.4140341333332 303.09999999999997"></path></g><g class="vf-notehead" pointer-events="bounding-box"><path stroke-width="0.3" fill="#000000" stroke="none" stroke-dasharray="none" d="M826.6640341333332 268.09999999999997M834.0209941333331 262.87712C834.1333141333332 262.87712,834.3017941333331 262.87712,834.3298741333332 262.87712C834.3298741333332 262.87712,834.3579541333332 262.87712,834.3579541333332 262.87712C834.3579541333332 262.87712,834.5264341333332 262.87712,834.6668341333332 262.87712C837.1940341333332 263.01752,838.6822741333332 264.67423999999994,838.6822741333332 266.75215999999995C838.6822741333332 267.76304,838.3453141333332 268.91432,837.5029141333332 270.00944C835.9023541333332 272.17159999999996,833.2909141333332 273.35096,831.0164341333332 273.35096C829.2473941333332 273.35096,827.7310741333332 272.64896,827.0009941333332 271.21687999999995C826.7763541333331 270.65527999999995,826.6640341333332 270.12175999999994,826.6640341333332 269.53207999999995C826.6640341333332 266.47135999999995,830.0897941333332 263.07367999999997,834.0209941333331 262.87712"></path></g></g><g class="vf-modifiers"></g></g><g class="vf-stavenote" id="vf-auto4400857"><g class="vf-note" pointer-events="bounding-box"><g class="vf-stem" pointer-events="bounding-box"><path stroke-width="1.5" fill="none" stroke="#000000" stroke-dasharray="none" class="vf-stem" id="vf-auto4400857-stem" d="M859.0807007999998 273.09999999999997L859.0807007999998 308.09999999999997"></path></g><g class="vf-notehead" pointer-events="bounding-box"><path stroke-width="0.3" fill="#000000" stroke="none" stroke-dasharray="none" d="M858.3307007999998 273.09999999999997M865.6876607999998 267.87712C865.7999807999998 267.87712,865.9684607999998 267.87712,865.9965407999998 267.87712C865.9965407999998 267.87712,866.0246207999999 267.87712,866.0246207999999 267.87712C866.0246207999999 267.87712,866.1931007999998 267.87712,866.3335007999998 267.87712C868.8607007999998 268.01752,870.3489407999998 269.67423999999994,870.3489407999998 271.75215999999995C870.3489407999998 272.76304,870.0119807999998 273.91432,869.1695807999998 275.00944C867.5690207999999 277.17159999999996,864.9575807999998 278.35096,862.6831007999998 278.35096C860.9140607999998 278.35096,859.3977407999998 277.64896,858.6676607999998 276.21687999999995C858.4430207999998 275.65527999999995,858.3307007999998 275.12175999999994,858.3307007999998 274.53207999999995C858.3307007999998 271.47135999999995,861.7564607999998 268.07367999999997,865.6876607999998 267.87712"></path></g></g><g class="vf-modifiers"></g></g><rect stroke-width="0.3" fill="#000000" stroke="#000000" stroke-dasharray="none" x="946.5809343999997" y="166.5" width="1" height="132.59999999999997"></rect><rect stroke-width="0.3" fill="#000000" stroke="#000000" stroke-dasharray="none" x="949.5809343999997" y="166.5" width="3" height="132.59999999999997"></rect><path stroke-width="0.3" fill="#000000" stroke="none" stroke-dasharray="none" d="M68 166.5C45.2 193.01999999999998,81.2 214.899,56 232.79999999999998C81.2 250.70099999999996,45.2 272.58,68 299.09999999999997C44 272.58,72.8 250.70099999999996,56 232.79999999999998C72.8 214.899,44 193.01999999999998,68 166.5"></path><path stroke-width="1" fill="none" stroke="#000000" stroke-dasharray="none" d="M68 166.5C45.2 193.01999999999998,81.2 214.899,56 232.79999999999998C81.2 250.70099999999996,45.2 272.58,68 299.09999999999997C44 272.58,72.8 250.70099999999996,56 232.79999999999998C72.8 214.899,44 193.01999999999998,68 166.5"></path><g class="vf-text"><text stroke-width="0.3" fill="#000000" stroke="none" stroke-dasharray="none" font-family="Times New Roman" font-size="15px" font-weight="normal" font-style="normal" x="551.7804671999999" y="163.5">3</text></g></svg>