<svg xmlns="http://www.w3.org/2000/svg"  width="1280" height="389.79999999999995" viewBox="0 0 1280 389.79999999999995"><path stroke-width="1" fill="none" stroke="#000000" stroke-dasharray="none" d="M70 166.5L339.0302336 166.5"></path><path stroke-width="1" fill="none" stroke="#000000" stroke-dasharray="none" d="M70 176.5L339.0302336 176.5"></path><path stroke-width="1" fill="none" stroke="#000000" stroke-dasharray="none" d="M70 186.5L339.0302336 186.5"></path><path stroke-width="1" fill="none" stroke="#000000" stroke-dasharray="none" d="M70 196.5L339.0302336 196.5"></path><path stroke-width="1" fill="none" stroke="#000000" stroke-dasharray="none" d="M70 206.5L339.0302336 206.5"></path><rect stroke-width="0.3" fill="#000000" stroke="#000000" stroke-dasharray="none" x="339.0302336" y="166" width="1" height="41"></rect><g class="vf-clef"><path stroke-width="0.3" fill="#000000" stroke="none" stroke-dasharray="none" d="M75 196.5M89.0544 153.3288C89.112 153.3,89.1696 153.3,89.256 153.3C89.6016 153.3,90.0048 153.588,90.5808 154.308C92.9136 156.9864,94.5552 161.652,94.5552 165.4536C94.5552 165.7416,94.4976 165.972,94.4976 166.26C94.2384 170.7816,92.3952 174.4968,88.7376 178.0104L87.7584 178.9608L87.4128 179.3352L87.4128 179.4504L87.6144 180.3144L87.9312 181.8696L88.248 183.3096C88.68 185.268,88.8528 186.276,88.8528 186.276C88.8528 186.276,88.8528 186.276,88.8528 186.276C88.8528 186.276,88.968 186.276,89.112 186.2472C89.256 186.2472,89.7168 186.1896,90.2064 186.1896C90.55199999999999 186.1896,90.8976 186.2472,91.0704 186.2472C95.1312 186.7656,98.2704 189.6744,99.1632 193.764C99.336 194.4264,99.39359999999999 195.1464,99.39359999999999 195.8664C99.39359999999999 199.7544,97.0608 203.4696,93.1728 205.2264C92.94239999999999 205.3704,92.856 205.3992,92.856 205.3992L92.856 205.428C92.856 205.428,93.0288 206.0904,93.1728 206.8392L93.6048 209.028L94.008 210.7848C94.2384 211.908,94.3536 212.7144,94.3536 213.4344C94.3536 214.06799999999998,94.2672 214.644,94.1232 215.3064C93.144 219.3096,89.6592 221.7,86.0304 221.7C84.2448 221.7,82.4016 221.124,80.7888 219.828C79.3488 218.6184,78.7152 217.524,78.7152 216.084C78.7152 213.5496,80.76 211.764,82.8912 211.764C83.64 211.764,84.3888 211.99439999999998,85.1088 212.4264C86.3184 213.2616,86.8656 214.5288,86.8656 215.7672C86.8656 217.668,85.5408 219.54,83.2656 219.684L83.0352 219.684L83.208 219.79919999999998C84.1584 220.2024,85.1088 220.404,86.0304 220.404C88.3632 220.404,90.55199999999999 219.2232,91.8768 217.1784C92.62559999999999 216.0264,93.0288 214.6728,93.0288 213.3192C93.0288 212.8008,92.94239999999999 212.2824,92.8272 211.7064C92.8272 211.6488,92.74080000000001 211.188,92.62559999999999 210.756C91.992 207.6456,91.6176 205.8312,91.6176 205.8312C91.6176 205.8312,91.6176 205.8312,91.6176 205.8312C91.56 205.8312,91.4448 205.8312,91.3584 205.8888C91.0704 205.9464,90.4656 206.0904,90.2064 206.1192C89.5728 206.2056,88.968 206.2344,88.392 206.2344C82.74719999999999 206.2344,77.5056 202.4328,75.6912 196.8168C75.2304 195.3192,74.9712 193.8216,74.9712 192.324C74.9712 189.3288,75.9216 186.3912,77.7648 183.7704C79.7808 180.9192,81.7968 178.4712,84.2736 175.9368L85.13759999999999 175.044L84.936 173.9784L84.5616 172.2216L84.072 169.9752C83.928 169.14,83.7552 168.3336,83.7264 168.1608C83.5824 167.2104,83.496 166.2888,83.496 165.3384C83.496 161.7096,84.6768 158.22480000000002,86.8944 155.4312C87.5568 154.5672,88.7376 153.4152,89.0544 153.3288M90.8112 159.0312C90.7536 159.0312,90.6672 159.0312,90.5808 159.0312C89.4 159.0312,87.8736 160.1256,86.8368 161.7384C85.7712 163.32240000000002,85.224 165.4248,85.224 167.5848C85.224 168.1608,85.25280000000001 168.7656,85.3392 169.3704C85.4256 169.8024,85.45439999999999 170.0904,85.6848 171.12720000000002L86.088 172.9416C86.2032 173.4888,86.28960000000001 173.92079999999999,86.28960000000001 173.9784L86.28960000000001 173.9784C86.3184 173.9784,87.2112 172.9992,87.4992 172.6536C90.3792 169.3992,92.1072 165.972,92.4816 162.948C92.5104 162.66,92.5104 162.4296,92.5104 162.1416C92.5104 161.24880000000002,92.3952 160.38479999999998,92.1936 159.924C91.9632 159.4632,91.4448 159.0888,90.8112 159.0312M86.4624 181.2936C86.4048 180.8904,86.3184 180.5736,86.3184 180.516C86.3184 180.516,86.3184 180.516,86.28960000000001 180.516C86.232 180.516,84.9936 181.956,84.1296 182.964C82.6608 184.7496,81.1056 186.8808,80.472 187.9176C79.2624 189.9624,78.6576 192.2376,78.6576 194.484C78.6576 195.9528,78.9456 197.364,79.464 198.7176C81.0192 202.7208,84.5904 205.2264,88.4784 205.2264C88.9392 205.2264,89.4576 205.1976,89.9472 205.1112C90.5808 204.996,91.3584 204.7656,91.3584 204.6792L91.3584 204.6792C91.3584 204.6792,91.3008 204.3912,91.2144 204.0744L90.3792 199.956L89.7168 196.8744L89.2848 194.7432L88.824 192.6696C88.5936 191.4312,88.5072 191.1144,88.5072 191.1144C88.5072 191.1144,88.5072 191.0856,88.4784 191.0856C88.3056 191.0856,87.384 191.5464,86.9808 191.8344C85.4832 192.8712,84.7056 194.5128,84.7056 196.1256C84.7056 197.652,85.45439999999999 199.1784,86.8944 200.0712C87.2112 200.2728,87.3264 200.4456,87.3264 200.6472C87.3264 200.676,87.3264 200.7624,87.3264 200.7912C87.2688 201.1368,87.0672 201.2808,86.7792 201.2808C86.664 201.2808,86.52 201.252,86.3472 201.1656C83.6976 200.0136,81.912 197.2776,81.912 194.2824L81.912 194.2824C81.912 190.8264,84.072 187.8312,87.384 186.6504L87.5568 186.5928L87.2688 185.1528L86.4624 181.2936M90.7824 190.9128C90.55199999999999 190.88400000000001,90.3216 190.88400000000001,90.1488 190.88400000000001C90.0912 190.88400000000001,90.0048 190.88400000000001,89.9472 190.88400000000001L89.8032 190.88400000000001L89.9184 191.4024L90.5232 194.2248L90.8976 196.068L91.3008 197.8824L92.1072 201.8856L92.424 203.412C92.5392 203.8152,92.5968 204.1608,92.62559999999999 204.1608C92.62559999999999 204.1608,92.62559999999999 204.1608,92.62559999999999 204.1608C92.6544 204.1608,93.144 203.8728,93.4608 203.6424C94.9296 202.6056,96.024 200.9928,96.4272 199.3224C96.5712 198.7752,96.6288 198.1992,96.6288 197.652C96.6288 194.3112,94.152 191.2872,90.7824 190.9128"></path></g><path stroke-width="0.3" fill="#000000" stroke="none" stroke-dasharray="none" d="M116 186.5M123.344 167.8376C123.4592 167.8376,123.6608 167.8376,123.8912 167.8376C124.2944 167.8376,124.8416 167.8376,125.0432 167.8952C126.7712 168.1544,128.6144 169.3928,128.96 170.516C129.0464 170.7752,129.0752 171.00560000000002,129.0752 171.236C129.0752 172.532,127.9808 173.5112,126.8 173.5112C126.3392 173.5112,125.8784 173.39600000000002,125.4464 173.0504C124.928 172.5896,124.64 172.0136,124.64 171.3512C124.64 170.4584,125.1872 169.5368,126.13759999999999 169.2776C126.224 169.2776,126.25280000000001 169.2488,126.25280000000001 169.2488C126.25280000000001 169.2488,126.224 169.1912,126.13759999999999 169.1624C125.504 168.8744,124.8704 168.7592,124.2944 168.7592C123.4016 168.7592,122.624 169.076,122.048 169.6808C121.4432 170.4008,121.0112 171.8696,120.7232 174.0296C120.6944 174.548,120.608 175.5272,120.608 175.7288C120.608 175.7288,120.608 175.7288,120.608 175.7288C120.608 175.7288,120.608 175.7288,120.608 175.7288C120.608 175.7288,120.7232 175.6712,120.83840000000001 175.6424C121.76 175.268,122.5664 175.124,123.4304 175.124C124.4672 175.124,125.4464 175.3544,126.5408 175.9304C128.5568 176.9096,129.68 178.3496,129.68 180.0776C129.68 180.308,129.6224 180.5672,129.5936 180.8264C129.3056 182.4392,128.0672 183.764,126.0512 184.628C125.1296 185.0312,124.2944 185.2616,123.4592 185.2616C122.624 185.2616,121.76 185.0024,120.8096 184.5128C118.304 183.2456,116.576 180.88400000000001,116.1152 178.148C116.0288 177.6008,116 177.0536,116 176.4488C116 175.2392,116.1728 174.0296,116.576 173.0504C117.6704 170.2856,120.464 168.1544,123.344 167.8376M123.74719999999999 176.0456C123.632 176.0456,123.5168 176.0456,123.4016 176.0456C122.7968 176.0456,122.336 176.2472,122.048 176.564C121.6448 177.1688,121.35679999999999 178.6664,121.35679999999999 179.9912C121.35679999999999 180.2792,121.35679999999999 180.5672,121.3856 180.7976C121.5008 182.1512,121.8176 183.2744,122.1344 183.764C122.3648 184.1096,122.8544 184.3112,123.4016 184.3112C123.5168 184.3112,123.6608 184.3112,123.776 184.2824C124.6112 184.1672,124.928 183.6488,125.2448 182.0072C125.3888 181.2296,125.4752 180.5672,125.4752 179.9048C125.4752 179.2424,125.3888 178.6088,125.2448 177.8312C124.9568 176.6504,124.5824 176.1608,123.74719999999999 176.0456M122.7968 186.5288L122.8544 186.5288L122.768 186.5288L122.7968 186.5288M122.7968 167.1176L122.8544 167.1176L122.768 167.1176L122.7968 167.1176"></path><path stroke-width="0.3" fill="#000000" stroke="none" stroke-dasharray="none" d="M116.1008 206.5M121.11200000000001 188.1544C121.14080000000001 188.1256,121.54400000000001 188.1256,122.78240000000001 188.1256C123.1568 188.1256,123.56 188.1256,124.0784 188.1256L126.9872 188.1256L127.0736 188.212C127.2176 188.29840000000002,127.304 188.4424,127.304 188.5576C127.304 188.7304,127.2176 188.8456,127.1024 188.9608C127.0736 189.0472,126.8144 189.2776,126.64160000000001 189.5368L125.1152 191.2936L123.1568 193.5112L122.12 194.692L120.5648 196.4776L118.52000000000001 198.8104C118.1744 199.2424,117.80000000000001 199.588,117.80000000000001 199.588C117.80000000000001 199.588,117.80000000000001 199.588,117.80000000000001 199.588C117.80000000000001 199.6456,118.0592 199.6456,120.4496 199.6456L123.0704 199.6456L123.0704 197.7736C123.0704 195.8728,123.0704 195.844,123.09920000000001 195.8152C123.1568 195.7288,123.41600000000001 195.412,124.424 194.2312L124.8272 193.7992L125.2304 193.3672L125.8352 192.5896L126.4688 191.9272L126.7856 191.524C126.9008 191.3512,127.0736 191.3224,127.2176 191.3224C127.3904 191.3224,127.5344 191.4088,127.6208 191.5528C127.6496 191.6392,127.6496 191.6968,127.6496 193.828C127.6496 194.3176,127.6496 194.9224,127.6496 195.6424L127.6496 199.6456L128.3696 199.6456C129.032 199.6456,129.0608 199.6456,129.1472 199.6744C129.3776 199.7608,129.49280000000002 199.9912,129.49280000000002 200.2504C129.49280000000002 200.3944,129.464 200.5672,129.3488 200.6824C129.17600000000002 200.8264,129.1472 200.8264,128.3696 200.8264L127.6496 200.8264L127.6496 201.316C127.67840000000001 202.7848,127.96640000000001 203.3608,129.08960000000002 203.9656C129.49280000000002 204.1672,129.57920000000001 204.2248,129.57920000000001 204.5128C129.57920000000001 204.7144,129.5216 204.8008,129.3776 204.916L129.2912 204.9448L125.3456 204.9448L121.42880000000001 204.9448L121.34240000000001 204.916C121.1696 204.8008,121.14080000000001 204.7144,121.14080000000001 204.5128C121.14080000000001 204.2248,121.1696 204.1672,121.6016 203.9656C122.7248 203.3608,123.01280000000001 202.7848,123.01280000000001 201.316L123.01280000000001 200.8264L119.7008 200.8264C119.096 200.88400000000001,118.60640000000001 200.88400000000001,118.20320000000001 200.88400000000001C116.3888 200.88400000000001,116.36000000000001 200.8264,116.33120000000001 200.8264C116.1584 200.7688,116.1008 200.596,116.1008 200.3944C116.1008 200.3944,116.1008 200.3944,116.1008 200.3944C116.1008 200.1928,116.1008 200.1928,116.6768 199.5304C119.096 196.5928,120.79520000000001 192.3304,120.79520000000001 188.93200000000002C120.79520000000001 188.4136,120.8816 188.2408,121.11200000000001 188.1544M122.84 206.5288L122.86880000000001 206.5288L122.78240000000001 206.5288L122.84 206.5288M122.84 187.1176L122.86880000000001 187.1176L122.78240000000001 187.1176L122.84 187.1176"></path><g class="vf-stavenote" id="vf-auto363889"><g class="vf-note" pointer-events="bounding-box"><g class="vf-stem" pointer-events="bounding-box"><path stroke-width="1.5" fill="none" stroke="#000000" stroke-dasharray="none" class="vf-stem" id="vf-auto363889-stem" d="M275.31 171.5L275.31 206.5"></path></g><g class="vf-notehead" pointer-events="bounding-box"><path stroke-width="0.3" fill="#000000" stroke="none" stroke-dasharray="none" d="M274.56 171.5M281.91696 166.27712C282.02928 166.27712,282.19776 166.27712,282.22584 166.27712C282.22584 166.27712,282.25392 166.27712,282.25392 166.27712C282.25392 166.27712,282.4224 166.27712,282.5628 166.27712C285.09000000000003 166.41752,286.57824 168.07424,286.57824 170.15216C286.57824 171.16304,286.24128 172.31432,285.39888 173.40944C283.79832 175.5716,281.18688 176.75096,278.9124 176.75096C277.14336000000003 176.75096,275.62704 176.04896,274.89696 174.61688C274.67232 174.05528,274.56 173.52176,274.56 172.93208C274.56 169.87136,277.98576 166.47368,281.91696 166.27712"></path></g></g><g class="vf-modifiers"></g></g><path stroke-width="1" fill="none" stroke="#000000" stroke-dasharray="none" d="M339.0302335999999 166.5L525.8804671999999 166.5"></path><path stroke-width="1" fill="none" stroke="#000000" stroke-dasharray="none" d="M339.0302335999999 176.5L525.8804671999999 176.5"></path><path stroke-width="1" fill="none" stroke="#000000" stroke-dasharray="none" d="M339.0302335999999 186.5L525.8804671999999 186.5"></path><path stroke-width="1" fill="none" stroke="#000000" stroke-dasharray="none" d="M339.0302335999999 196.5L525.8804671999999 196.5"></path><path stroke-width="1" fill="none" stroke="#000000" stroke-dasharray="none" d="M339.0302335999999 206.5L525.8804671999999 206.5"></path><rect stroke-width="0.3" fill="#000000" stroke="#000000" stroke-dasharray="none" x="525.8804671999999" y="166" width="1" height="41"></rect><g class="vf-stavenote" id="vf-auto363942"><g class="vf-note" pointer-events="bounding-box"><g class="vf-stem" pointer-events="bounding-box"><path stroke-width="1.5" fill="none" stroke="#000000" stroke-dasharray="none" class="vf-stem" id="vf-auto363942-stem" d="M509.7984735999999 191.5L509.7984735999999 156.5"></path></g><g class="vf-notehead" pointer-events="bounding-box"><path stroke-width="0.3" fill="#000000" stroke="none" stroke-dasharray="none" d="M498.5302335999999 191.5M505.88719359999993 186.27712C505.99951359999994 186.27712,506.16799359999993 186.27712,506.1960735999999 186.27712C506.1960735999999 186.27712,506.2241535999999 186.27712,506.2241535999999 186.27712C506.2241535999999 186.27712,506.3926335999999 186.27712,506.5330335999999 186.27712C509.06023359999995 186.41752,510.5484735999999 188.07424,510.5484735999999 190.15216C510.5484735999999 191.16304,510.21151359999993 192.31432,509.36911359999993 193.40944C507.7685535999999 195.5716,505.1571135999999 196.75096,502.8826335999999 196.75096C501.11359359999994 196.75096,499.59727359999994 196.04896,498.8671935999999 194.61688C498.6425535999999 194.05528,498.5302335999999 193.52176,498.5302335999999 192.93208C498.5302335999999 189.87136,501.95599359999994 186.47368,505.88719359999993 186.27712"></path></g></g><g class="vf-modifiers"></g></g><path stroke-width="1" fill="none" stroke="#000000" stroke-dasharray="none" d="M525.8804671999999 166.5L708.5307007999997 166.5"></path><path stroke-width="1" fill="none" stroke="#000000" stroke-dasharray="none" d="M525.8804671999999 176.5L708.5307007999997 176.5"></path><path stroke-width="1" fill="none" stroke="#000000" stroke-dasharray="none" d="M525.8804671999999 186.5L708.5307007999997 186.5"></path><path stroke-width="1" fill="none" stroke="#000000" stroke-dasharray="none" d="M525.8804671999999 196.5L708.5307007999997 196.5"></path><path stroke-width="1" fill="none" stroke="#000000" stroke-dasharray="none" d="M525.8804671999999 206.5L708.5307007999997 206.5"></path><rect stroke-width="0.3" fill="#000000" stroke="#000000" stroke-dasharray="none" x="708.5307007999997" y="166" width="1" height="41"></rect><path stroke-width="1" fill="none" stroke="#000000" stroke-dasharray="none" d="M708.5307007999997 166.5L903.7809343999998 166.5"></path><path stroke-width="1" fill="none" stroke="#000000" stroke-dasharray="none" d="M708.5307007999997 176.5L903.7809343999998 176.5"></path><path stroke-width="1" fill="none" stroke="#000000" stroke-dasharray="none" d="M708.5307007999997 186.5L903.7809343999998 186.5"></path><path stroke-width="1" fill="none" stroke="#000000" stroke-dasharray="none" d="M708.5307007999997 196.5L903.7809343999998 196.5"></path><path stroke-width="1" fill="none" stroke="#000000" stroke-dasharray="none" d="M708.5307007999997 206.5L903.7809343999998 206.5"></path><rect stroke-width="0.3" fill="#000000" stroke="#000000" stroke-dasharray="none" x="898.7809343999998" y="166" width="1" height="41"></rect><rect stroke-width="0.3" fill="#000000" stroke="#000000" stroke-dasharray="none" x="901.7809343999998" y="166" width="3" height="41"></rect><g class="vf-stavenote" id="vf-auto364044"><g class="vf-note" pointer-events="bounding-box"><g class="vf-stem" pointer-events="bounding-box"><path stroke-width="1.5" fill="none" stroke="#000000" stroke-dasharray="none" class="vf-stem" id="vf-auto364044-stem" d="M766.7989407999997 191.5L766.7989407999997 156.5"></path></g><g class="vf-notehead" pointer-events="bounding-box"><path stroke-width="0.3" fill="#000000" stroke="none" stroke-dasharray="none" d="M755.5307007999997 191.5M762.8876607999997 186.27712C762.9999807999998 186.27712,763.1684607999997 186.27712,763.1965407999998 186.27712C763.1965407999998 186.27712,763.2246207999998 186.27712,763.2246207999998 186.27712C763.2246207999998 186.27712,763.3931007999997 186.27712,763.5335007999997 186.27712C766.0607007999997 186.41752,767.5489407999997 188.07424,767.5489407999997 190.15216C767.5489407999997 191.16304,767.2119807999998 192.31432,766.3695807999998 193.40944C764.7690207999998 195.5716,762.1575807999998 196.75096,759.8831007999997 196.75096C758.1140607999997 196.75096,756.5977407999998 196.04896,755.8676607999997 194.61688C755.6430207999997 194.05528,755.5307007999997 193.52176,755.5307007999997 192.93208C755.5307007999997 189.87136,758.9564607999997 186.47368,762.8876607999997 186.27712"></path></g></g><g class="vf-modifiers"></g></g><path stroke-width="1" fill="none" stroke="#000000" stroke-dasharray="none" d="M842.5307007999997 216.5L860.5489407999997 216.5"></path><g class="vf-stavenote" id="vf-auto364052"><g class="vf-note" pointer-events="bounding-box"><g class="vf-stem" pointer-events="bounding-box"><path stroke-width="1.5" fill="none" stroke="#000000" stroke-dasharray="none" class="vf-stem" id="vf-auto364052-stem" d="M856.7989407999997 221.5L856.7989407999997 186.5"></path></g><g class="vf-notehead" pointer-events="bounding-box"><path stroke-width="0.3" fill="#000000" stroke="none" stroke-dasharray="none" d="M845.5307007999997 221.5M852.8876607999997 216.27712C852.9999807999998 216.27712,853.1684607999997 216.27712,853.1965407999998 216.27712C853.1965407999998 216.27712,853.2246207999998 216.27712,853.2246207999998 216.27712C853.2246207999998 216.27712,853.3931007999997 216.27712,853.5335007999997 216.27712C856.0607007999997 216.41752,857.5489407999997 218.07424,857.5489407999997 220.15216C857.5489407999997 221.16304,857.2119807999998 222.31432,856.3695807999998 223.40944C854.7690207999998 225.5716,852.1575807999998 226.75096,849.8831007999997 226.75096C848.1140607999997 226.75096,846.5977407999998 226.04896,845.8676607999997 224.61688C845.6430207999997 224.05528,845.5307007999997 223.52176,845.5307007999997 222.93208C845.5307007999997 219.87136,848.9564607999997 216.47368,852.8876607999997 216.27712"></path></g></g><g class="vf-modifiers"></g></g><g class="vf-stavenote" id="vf-auto364060"><g class="vf-note" pointer-events="bounding-box"><g class="vf-stem" pointer-events="bounding-box"><path stroke-width="1.5" fill="none" stroke="#000000" stroke-dasharray="none" class="vf-stem" id="vf-auto364060-stem" d="M876.2807007999997 181.5L876.2807007999997 216.5"></path></g><g class="vf-notehead" pointer-events="bounding-box"><path stroke-width="0.3" fill="#000000" stroke="none" stroke-dasharray="none" d="M875.5307007999997 181.5M882.8876607999997 176.27712C882.9999807999998 176.27712,883.1684607999997 176.27712,883.1965407999998 176.27712C883.1965407999998 176.27712,883.2246207999998 176.27712,883.2246207999998 176.27712C883.2246207999998 176.27712,883.3931007999997 176.27712,883.5335007999997 176.27712C886.0607007999997 176.41752,887.5489407999997 178.07424,887.5489407999997 180.15216C887.5489407999997 181.16304,887.2119807999998 182.31432,886.3695807999998 183.40944C884.7690207999998 185.5716,882.1575807999998 186.75096,879.8831007999997 186.75096C878.1140607999997 186.75096,876.5977407999998 186.04896,875.8676607999997 184.61688C875.6430207999997 184.05528,875.5307007999997 183.52176,875.5307007999997 182.93208C875.5307007999997 179.87136,878.9564607999997 176.47368,882.8876607999997 176.27712"></path></g></g><g class="vf-modifiers"></g></g><g class="vf-text"><text stroke-width="0.3" fill="#000000" stroke="none" stroke-dasharray="none" font-family="Times New Roman" font-size="23px" font-weight="bold" font-style="italic" x="167.68" y="240.5">f</text></g><path stroke-width="1" fill="none" stroke="#000000" stroke-dasharray="none" d="M70 264.3L339.0302336 264.3"></path><path stroke-width="1" fill="none" stroke="#000000" stroke-dasharray="none" d="M70 274.3L339.0302336 274.3"></path><path stroke-width="1" fill="none" stroke="#000000" stroke-dasharray="none" d="M70 284.3L339.0302336 284.3"></path><path stroke-width="1" fill="none" stroke="#000000" stroke-dasharray="none" d="M70 294.3L339.0302336 294.3"></path><path stroke-width="1" fill="none" stroke="#000000" stroke-dasharray="none" d="M70 304.3L339.0302336 304.3"></path><rect stroke-width="0.3" fill="#000000" stroke="#000000" stroke-dasharray="none" x="339.0302336" y="263.8" width="1" height="41"></rect><g class="vf-clef"><path stroke-width="0.3" fill="#000000" stroke="none" stroke-dasharray="none" d="M75 274.3M83.8416 264.2488C84.072 264.19120000000004,84.3024 264.19120000000004,84.5616 264.19120000000004C85.5696 264.19120000000004,86.7504 264.3064,87.7584 264.50800000000004C92.4816 265.48720000000003,95.736 268.684,96.3408 272.94640000000004C96.3984 273.4072,96.4272 273.8392,96.4272 274.3C96.4272 276.892,95.5344 280.2328,94.008 283.0264C90.3792 289.5928,83.7552 294.31600000000003,75.8064 296.044C75.6624 296.044,75.5472 296.07280000000003,75.4032 296.07280000000003C75.1152 296.07280000000003,74.9712 295.90000000000003,74.9712 295.6408C74.9712 295.3528,75.0288 295.26640000000003,75.6048 295.036C84.7056 291.60880000000003,90.7824 284.2072,91.3296 275.9128C91.3584 275.4808,91.3584 274.9912,91.3584 274.6168C91.3584 270.58480000000003,90.12 267.5896,87.7296 266.092C86.6928 265.4296,85.5696 265.1128,84.36 265.1128C81.6816 265.1128,78.9456 266.6392,77.6784 269.2024C77.6208 269.404,77.4192 269.836,77.4192 269.8648C77.4192 269.8648,77.4192 269.8648,77.4192 269.8648C77.4192 269.8648,77.448 269.836,77.5344 269.8072C78.168 269.404,78.8592 269.2024,79.5792 269.2024C80.5872 269.2024,81.6528 269.6344,82.4016 270.4408C83.0928 271.1896,83.4672 272.1976,83.4672 273.11920000000003C83.4672 274.9912,82.0848 276.892,79.9248 277.09360000000004C79.7808 277.09360000000004,79.6368 277.1224,79.4928 277.1224C77.1024 277.1224,75.1728 274.9336,75.1728 272.16880000000003C75.1728 272.1112,75.1728 272.0248,75.1728 271.99600000000004C75.288 267.87760000000003,79.0608 264.50800000000004,83.8416 264.2488M99.1632 268.108C99.2208 268.0792,99.2496 268.0792,99.336 268.0792C99.5376 268.0792,99.768 268.108,99.8256 268.16560000000004C100.54560000000001 268.3672,100.8912 269.0008,100.8912 269.60560000000004C100.8912 270.124,100.632 270.6424,100.11359999999999 270.9304C99.912 271.0744,99.6528 271.1032,99.39359999999999 271.1032C98.9904 271.1032,98.5584 270.9304,98.2704 270.55600000000004C98.03999999999999 270.26800000000003,97.9248 269.95120000000003,97.9248 269.6344C97.9248 268.9144,98.3856 268.19440000000003,99.1632 268.108M99.1632 277.5256C99.2208 277.5256,99.2496 277.5256,99.336 277.5256C99.5376 277.5256,99.768 277.5544,99.8256 277.612C100.54560000000001 277.8136,100.8912 278.4472,100.8912 279.052C100.8912 279.5704,100.632 280.0888,100.11359999999999 280.348C99.912 280.492,99.6528 280.5496,99.39359999999999 280.5496C98.9904 280.5496,98.5584 280.348,98.2704 280.0024C98.03999999999999 279.7144,97.9248 279.3976,97.9248 279.052C97.9248 278.332,98.3856 277.6408,99.1632 277.5256"></path></g><path stroke-width="0.3" fill="#000000" stroke="none" stroke-dasharray="none" d="M116 284.3M123.344 265.6376C123.4592 265.6376,123.6608 265.6376,123.8912 265.6376C124.2944 265.6376,124.8416 265.6376,125.0432 265.6952C126.7712 265.9544,128.6144 267.19280000000003,128.96 268.31600000000003C129.0464 268.5752,129.0752 268.8056,129.0752 269.036C129.0752 270.332,127.9808 271.3112,126.8 271.3112C126.3392 271.3112,125.8784 271.196,125.4464 270.85040000000004C124.928 270.38960000000003,124.64 269.8136,124.64 269.1512C124.64 268.2584,125.1872 267.33680000000004,126.13759999999999 267.0776C126.224 267.0776,126.25280000000001 267.0488,126.25280000000001 267.0488C126.25280000000001 267.0488,126.224 266.9912,126.13759999999999 266.9624C125.504 266.6744,124.8704 266.55920000000003,124.2944 266.55920000000003C123.4016 266.55920000000003,122.624 266.87600000000003,122.048 267.4808C121.4432 268.2008,121.0112 269.6696,120.7232 271.8296C120.6944 272.348,120.608 273.3272,120.608 273.5288C120.608 273.5288,120.608 273.5288,120.608 273.5288C120.608 273.5288,120.608 273.5288,120.608 273.5288C120.608 273.5288,120.7232 273.4712,120.83840000000001 273.4424C121.76 273.068,122.5664 272.92400000000004,123.4304 272.92400000000004C124.4672 272.92400000000004,125.4464 273.1544,126.5408 273.73040000000003C128.5568 274.7096,129.68 276.1496,129.68 277.87760000000003C129.68 278.108,129.6224 278.3672,129.5936 278.6264C129.3056 280.23920000000004,128.0672 281.564,126.0512 282.428C125.1296 282.8312,124.2944 283.0616,123.4592 283.0616C122.624 283.0616,121.76 282.80240000000003,120.8096 282.31280000000004C118.304 281.04560000000004,116.576 278.684,116.1152 275.94800000000004C116.0288 275.4008,116 274.85360000000003,116 274.2488C116 273.0392,116.1728 271.8296,116.576 270.85040000000004C117.6704 268.0856,120.464 265.9544,123.344 265.6376M123.74719999999999 273.8456C123.632 273.8456,123.5168 273.8456,123.4016 273.8456C122.7968 273.8456,122.336 274.04720000000003,122.048 274.36400000000003C121.6448 274.9688,121.35679999999999 276.4664,121.35679999999999 277.7912C121.35679999999999 278.0792,121.35679999999999 278.3672,121.3856 278.5976C121.5008 279.95120000000003,121.8176 281.0744,122.1344 281.564C122.3648 281.9096,122.8544 282.1112,123.4016 282.1112C123.5168 282.1112,123.6608 282.1112,123.776 282.0824C124.6112 281.9672,124.928 281.4488,125.2448 279.8072C125.3888 279.0296,125.4752 278.3672,125.4752 277.70480000000003C125.4752 277.0424,125.3888 276.4088,125.2448 275.63120000000004C124.9568 274.4504,124.5824 273.9608,123.74719999999999 273.8456M122.7968 284.3288L122.8544 284.3288L122.768 284.3288L122.7968 284.3288M122.7968 264.9176L122.8544 264.9176L122.768 264.9176L122.7968 264.9176"></path><path stroke-width="0.3" fill="#000000" stroke="none" stroke-dasharray="none" d="M116.1008 304.3M121.11200000000001 285.9544C121.14080000000001 285.92560000000003,121.54400000000001 285.92560000000003,122.78240000000001 285.92560000000003C123.1568 285.92560000000003,123.56 285.92560000000003,124.0784 285.92560000000003L126.9872 285.92560000000003L127.0736 286.012C127.2176 286.0984,127.304 286.24240000000003,127.304 286.3576C127.304 286.5304,127.2176 286.6456,127.1024 286.7608C127.0736 286.8472,126.8144 287.0776,126.64160000000001 287.33680000000004L125.1152 289.09360000000004L123.1568 291.3112L122.12 292.492L120.5648 294.2776L118.52000000000001 296.6104C118.1744 297.0424,117.80000000000001 297.38800000000003,117.80000000000001 297.38800000000003C117.80000000000001 297.38800000000003,117.80000000000001 297.38800000000003,117.80000000000001 297.38800000000003C117.80000000000001 297.4456,118.0592 297.4456,120.4496 297.4456L123.0704 297.4456L123.0704 295.5736C123.0704 293.6728,123.0704 293.644,123.09920000000001 293.6152C123.1568 293.5288,123.41600000000001 293.212,124.424 292.0312L124.8272 291.5992L125.2304 291.16720000000004L125.8352 290.38960000000003L126.4688 289.72720000000004L126.7856 289.324C126.9008 289.1512,127.0736 289.1224,127.2176 289.1224C127.3904 289.1224,127.5344 289.2088,127.6208 289.3528C127.6496 289.4392,127.6496 289.4968,127.6496 291.628C127.6496 292.11760000000004,127.6496 292.7224,127.6496 293.4424L127.6496 297.4456L128.3696 297.4456C129.032 297.4456,129.0608 297.4456,129.1472 297.4744C129.3776 297.56080000000003,129.49280000000002 297.7912,129.49280000000002 298.0504C129.49280000000002 298.19440000000003,129.464 298.3672,129.3488 298.4824C129.17600000000002 298.6264,129.1472 298.6264,128.3696 298.6264L127.6496 298.6264L127.6496 299.116C127.67840000000001 300.58480000000003,127.96640000000001 301.1608,129.08960000000002 301.7656C129.49280000000002 301.9672,129.57920000000001 302.0248,129.57920000000001 302.31280000000004C129.57920000000001 302.5144,129.5216 302.6008,129.3776 302.716L129.2912 302.7448L125.3456 302.7448L121.42880000000001 302.7448L121.34240000000001 302.716C121.1696 302.6008,121.14080000000001 302.5144,121.14080000000001 302.31280000000004C121.14080000000001 302.0248,121.1696 301.9672,121.6016 301.7656C122.7248 301.1608,123.01280000000001 300.58480000000003,123.01280000000001 299.116L123.01280000000001 298.6264L119.7008 298.6264C119.096 298.684,118.60640000000001 298.684,118.20320000000001 298.684C116.3888 298.684,116.36000000000001 298.6264,116.33120000000001 298.6264C116.1584 298.5688,116.1008 298.396,116.1008 298.19440000000003C116.1008 298.19440000000003,116.1008 298.19440000000003,116.1008 298.19440000000003C116.1008 297.9928,116.1008 297.9928,116.6768 297.3304C119.096 294.3928,120.79520000000001 290.1304,120.79520000000001 286.732C120.79520000000001 286.2136,120.8816 286.0408,121.11200000000001 285.9544M122.84 304.3288L122.86880000000001 304.3288L122.78240000000001 304.3288L122.84 304.3288M122.84 284.9176L122.86880000000001 284.9176L122.78240000000001 284.9176L122.84 284.9176"></path><g class="vf-stavenote" id="vf-auto363900"><g class="vf-note" pointer-events="bounding-box"><g class="vf-stem" pointer-events="bounding-box"><path stroke-width="1.5" fill="none" stroke="#000000" stroke-dasharray="none" class="vf-stem" id="vf-auto363900-stem" d="M152.94824 289.3L152.94824 254.3"></path></g><g class="vf-notehead" pointer-events="bounding-box"><path stroke-width="0.3" fill="#000000" stroke="none" stroke-dasharray="none" d="M141.68 289.3M149.03696 284.07712000000004C149.14928 284.07712000000004,149.31776000000002 284.07712000000004,149.34584 284.07712000000004C149.34584 284.07712000000004,149.37392 284.07712000000004,149.37392 284.07712000000004C149.37392 284.07712000000004,149.54240000000001 284.07712000000004,149.68280000000001 284.07712000000004C152.21 284.21752000000004,153.69824 285.87424,153.69824 287.95216C153.69824 288.96304000000003,153.36128000000002 290.11432,152.51888 291.20944000000003C150.91832 293.3716,148.30688 294.55096000000003,146.0324 294.55096000000003C144.26336 294.55096000000003,142.74704 293.84896000000003,142.01696 292.41688C141.79232000000002 291.85528,141.68 291.32176,141.68 290.73208C141.68 287.67136,145.10576 284.27368,149.03696 284.07712000000004"></path></g></g><g class="vf-modifiers"></g></g><g class="vf-stavenote" id="vf-auto363908"><g class="vf-note" pointer-events="bounding-box"><g class="vf-stem" pointer-events="bounding-box"><path stroke-width="1.5" fill="none" stroke="#000000" stroke-dasharray="none" class="vf-stem" id="vf-auto363908-stem" d="M175.65 264.3L175.65 299.3"></path></g><g class="vf-notehead" pointer-events="bounding-box"><path stroke-width="0.3" fill="#000000" stroke="none" stroke-dasharray="none" d="M174.9 264.3M182.25696 259.07712000000004C182.36928 259.07712000000004,182.53776 259.07712000000004,182.56584 259.07712000000004C182.56584 259.07712000000004,182.59392 259.07712000000004,182.59392 259.07712000000004C182.59392 259.07712000000004,182.7624 259.07712000000004,182.9028 259.07712000000004C185.43 259.21752000000004,186.91824 260.87424,186.91824 262.95216C186.91824 263.96304000000003,186.58128 265.11432,185.73888 266.20944000000003C184.13832 268.3716,181.52688 269.55096000000003,179.2524 269.55096000000003C177.48336 269.55096000000003,175.96704 268.84896000000003,175.23696 267.41688C175.01232000000002 266.85528,174.9 266.32176,174.9 265.73208C174.9 262.67136,178.32576 259.27368,182.25696 259.07712000000004"></path></g></g><g class="vf-modifiers"></g></g><g class="vf-stavenote" id="vf-auto363916"><g class="vf-note" pointer-events="bounding-box"><g class="vf-stem" pointer-events="bounding-box"><path stroke-width="1.5" fill="none" stroke="#000000" stroke-dasharray="none" class="vf-stem" id="vf-auto363916-stem" d="M219.38824 299.3L219.38824 264.3"></path></g><g class="vf-notehead" pointer-events="bounding-box"><path stroke-width="0.3" fill="#000000" stroke="none" stroke-dasharray="none" d="M208.12 299.3M215.47696 294.07712000000004C215.58928 294.07712000000004,215.75776000000002 294.07712000000004,215.78584 294.07712000000004C215.78584 294.07712000000004,215.81392 294.07712000000004,215.81392 294.07712000000004C215.81392 294.07712000000004,215.9824 294.07712000000004,216.1228 294.07712000000004C218.65 294.21752000000004,220.13824 295.87424,220.13824 297.95216C220.13824 298.96304000000003,219.80128000000002 300.11432,218.95888 301.20944000000003C217.35832 303.3716,214.74688 304.55096000000003,212.4724 304.55096000000003C210.70336 304.55096000000003,209.18704 303.84896000000003,208.45696 302.41688C208.23232000000002 301.85528,208.12 301.32176,208.12 300.73208C208.12 297.67136,211.54576 294.27368,215.47696 294.07712000000004"></path></g></g><g class="vf-modifiers"></g></g><g class="vf-stavenote" id="vf-auto363924"><g class="vf-note" pointer-events="bounding-box"><g class="vf-stem" pointer-events="bounding-box"><path stroke-width="1.5" fill="none" stroke="#000000" stroke-dasharray="none" class="vf-stem" id="vf-auto363924-stem" d="M252.60824 299.3L252.60824 264.3"></path></g><g class="vf-notehead" pointer-events="bounding-box"><path stroke-width="0.3" fill="#000000" stroke="none" stroke-dasharray="none" d="M241.34 299.3M248.69696 294.07712000000004C248.80928 294.07712000000004,248.97776 294.07712000000004,249.00584 294.07712000000004C249.00584 294.07712000000004,249.03392 294.07712000000004,249.03392 294.07712000000004C249.03392 294.07712000000004,249.2024 294.07712000000004,249.3428 294.07712000000004C251.87 294.21752000000004,253.35824 295.87424,253.35824 297.95216C253.35824 298.96304000000003,253.02128 300.11432,252.17888 301.20944000000003C250.57832 303.3716,247.96688 304.55096000000003,245.6924 304.55096000000003C243.92336 304.55096000000003,242.40704 303.84896000000003,241.67696 302.41688C241.45232000000001 301.85528,241.34 301.32176,241.34 300.73208C241.34 297.67136,244.76576 294.27368,248.69696 294.07712000000004"></path></g></g><g class="vf-modifiers"></g></g><g class="vf-stavenote" id="vf-auto363932"><g class="vf-note" pointer-events="bounding-box"><g class="vf-stem" pointer-events="bounding-box"><path stroke-width="1.5" fill="none" stroke="#000000" stroke-dasharray="none" class="vf-stem" id="vf-auto363932-stem" d="M308.53 274.3L308.53 309.3"></path></g><g class="vf-notehead" pointer-events="bounding-box"><path stroke-width="0.3" fill="#000000" stroke="none" stroke-dasharray="none" d="M307.78 274.3M315.13696 269.07712000000004C315.24928 269.07712000000004,315.41776 269.07712000000004,315.44584 269.07712000000004C315.44584 269.07712000000004,315.47391999999996 269.07712000000004,315.47391999999996 269.07712000000004C315.47391999999996 269.07712000000004,315.64239999999995 269.07712000000004,315.78279999999995 269.07712000000004C318.30999999999995 269.21752000000004,319.79823999999996 270.87424,319.79823999999996 272.95216C319.79823999999996 273.96304000000003,319.46128 275.11432,318.61888 276.20944000000003C317.01831999999996 278.3716,314.40688 279.55096000000003,312.13239999999996 279.55096000000003C310.36336 279.55096000000003,308.84704 278.84896000000003,308.11695999999995 277.41688C307.89232 276.85528,307.78 276.32176,307.78 275.73208C307.78 272.67136,311.20576 269.27368,315.13696 269.07712000000004"></path></g></g><g class="vf-modifiers"></g></g><rect stroke-width="0.3" fill="#000000" stroke="#000000" stroke-dasharray="none" x="339.0302336" y="166.5" width="1" height="138.8"></rect><rect stroke-width="0.3" fill="#000000" stroke="#000000" stroke-dasharray="none" x="70" y="166.5" width="1" height="138.8"></rect><path stroke-width="1" fill="none" stroke="#000000" stroke-dasharray="none" d="M339.0302335999999 264.3L525.8804671999999 264.3"></path><path stroke-width="1" fill="none" stroke="#000000" stroke-dasharray="none" d="M339.0302335999999 274.3L525.8804671999999 274.3"></path><path stroke-width="1" fill="none" stroke="#000000" stroke-dasharray="none" d="M339.0302335999999 284.3L525.8804671999999 284.3"></path><path stroke-width="1" fill="none" stroke="#000000" stroke-dasharray="none" d="M339.0302335999999 294.3L525.8804671999999 294.3"></path><path stroke-width="1" fill="none" stroke="#000000" stroke-dasharray="none" d="M339.0302335999999 304.3L525.8804671999999 304.3"></path><rect stroke-width="0.3" fill="#000000" stroke="#000000" stroke-dasharray="none" x="525.8804671999999" y="263.8" width="1" height="41"></rect><g class="vf-stavenote" id="vf-auto363953"><g class="vf-note" pointer-events="bounding-box"><g class="vf-stem" pointer-events="bounding-box"><path stroke-width="1.5" fill="none" stroke="#000000" stroke-dasharray="none" class="vf-stem" id="vf-auto363953-stem" d="M367.2984735999999 289.3L367.2984735999999 254.3"></path></g><g class="vf-notehead" pointer-events="bounding-box"><path stroke-width="0.3" fill="#000000" stroke="none" stroke-dasharray="none" d="M356.0302335999999 289.3M363.38719359999993 284.07712000000004C363.49951359999994 284.07712000000004,363.66799359999993 284.07712000000004,363.6960735999999 284.07712000000004C363.6960735999999 284.07712000000004,363.7241535999999 284.07712000000004,363.7241535999999 284.07712000000004C363.7241535999999 284.07712000000004,363.8926335999999 284.07712000000004,364.0330335999999 284.07712000000004C366.56023359999995 284.21752000000004,368.0484735999999 285.87424,368.0484735999999 287.95216C368.0484735999999 288.96304000000003,367.71151359999993 290.11432,366.86911359999993 291.20944000000003C365.2685535999999 293.3716,362.6571135999999 294.55096000000003,360.3826335999999 294.55096000000003C358.61359359999994 294.55096000000003,357.09727359999994 293.84896000000003,356.3671935999999 292.41688C356.1425535999999 291.85528,356.0302335999999 291.32176,356.0302335999999 290.73208C356.0302335999999 287.67136,359.45599359999994 284.27368,363.38719359999993 284.07712000000004"></path></g></g><g class="vf-modifiers"></g></g><g class="vf-stavenote" id="vf-auto363961"><g class="vf-note" pointer-events="bounding-box"><g class="vf-stem" pointer-events="bounding-box"><path stroke-width="1.5" fill="none" stroke="#000000" stroke-dasharray="none" class="vf-stem" id="vf-auto363961-stem" d="M395.7984735999999 294.3L395.7984735999999 259.3"></path></g><g class="vf-notehead" pointer-events="bounding-box"><path stroke-width="0.3" fill="#000000" stroke="none" stroke-dasharray="none" d="M384.5302335999999 294.3M391.88719359999993 289.07712000000004C391.99951359999994 289.07712000000004,392.16799359999993 289.07712000000004,392.1960735999999 289.07712000000004C392.1960735999999 289.07712000000004,392.2241535999999 289.07712000000004,392.2241535999999 289.07712000000004C392.2241535999999 289.07712000000004,392.3926335999999 289.07712000000004,392.5330335999999 289.07712000000004C395.06023359999995 289.21752000000004,396.5484735999999 290.87424,396.5484735999999 292.95216C396.5484735999999 293.96304000000003,396.21151359999993 295.11432,395.36911359999993 296.20944000000003C393.7685535999999 298.3716,391.1571135999999 299.55096000000003,388.8826335999999 299.55096000000003C387.11359359999994 299.55096000000003,385.59727359999994 298.84896000000003,384.8671935999999 297.41688C384.6425535999999 296.85528,384.5302335999999 296.32176,384.5302335999999 295.73208C384.5302335999999 292.67136,387.95599359999994 289.27368,391.88719359999993 289.07712000000004"></path></g></g><g class="vf-modifiers"></g></g><g class="vf-stavenote" id="vf-auto363969"><g class="vf-note" pointer-events="bounding-box"><g class="vf-stem" pointer-events="bounding-box"><path stroke-width="1.5" fill="none" stroke="#000000" stroke-dasharray="none" class="vf-stem" id="vf-auto363969-stem" d="M413.7802335999999 259.3L413.7802335999999 294.3"></path></g><g class="vf-notehead" pointer-events="bounding-box"><path stroke-width="0.3" fill="#000000" stroke="none" stroke-dasharray="none" d="M413.0302335999999 259.3M420.38719359999993 254.07712C420.49951359999994 254.07712,420.66799359999993 254.07712,420.6960735999999 254.07712C420.6960735999999 254.07712,420.7241535999999 254.07712,420.7241535999999 254.07712C420.7241535999999 254.07712,420.8926335999999 254.07712,421.0330335999999 254.07712C423.56023359999995 254.21752,425.0484735999999 255.87424000000001,425.0484735999999 257.95216C425.0484735999999 258.96304000000003,424.71151359999993 260.11432,423.86911359999993 261.20944000000003C422.2685535999999 263.3716,419.6571135999999 264.55096000000003,417.3826335999999 264.55096000000003C415.61359359999994 264.55096000000003,414.09727359999994 263.84896000000003,413.3671935999999 262.41688C413.1425535999999 261.85528,413.0302335999999 261.32176,413.0302335999999 260.73208C413.0302335999999 257.67136,416.45599359999994 254.27368,420.38719359999993 254.07712"></path></g></g><g class="vf-modifiers"></g></g><g class="vf-stavenote" id="vf-auto363977"><g class="vf-note" pointer-events="bounding-box"><g class="vf-stem" pointer-events="bounding-box"><path stroke-width="1.5" fill="none" stroke="#000000" stroke-dasharray="none" class="vf-stem" id="vf-auto363977-stem" d="M452.7984735999999 299.3L452.7984735999999 264.3"></path></g><g class="vf-notehead" pointer-events="bounding-box"><path stroke-width="0.3" fill="#000000" stroke="none" stroke-dasharray="none" d="M441.5302335999999 299.3M448.88719359999993 294.07712000000004C448.99951359999994 294.07712000000004,449.16799359999993 294.07712000000004,449.1960735999999 294.07712000000004C449.1960735999999 294.07712000000004,449.2241535999999 294.07712000000004,449.2241535999999 294.07712000000004C449.2241535999999 294.07712000000004,449.3926335999999 294.07712000000004,449.5330335999999 294.07712000000004C452.06023359999995 294.21752000000004,453.5484735999999 295.87424,453.5484735999999 297.95216C453.5484735999999 298.96304000000003,453.21151359999993 300.11432,452.36911359999993 301.20944000000003C450.7685535999999 303.3716,448.1571135999999 304.55096000000003,445.8826335999999 304.55096000000003C444.11359359999994 304.55096000000003,442.59727359999994 303.84896000000003,441.8671935999999 302.41688C441.6425535999999 301.85528,441.5302335999999 301.32176,441.5302335999999 300.73208C441.5302335999999 297.67136,444.95599359999994 294.27368,448.88719359999993 294.07712000000004"></path></g></g><g class="vf-modifiers"></g></g><g class="vf-stavenote" id="vf-auto363985"><g class="vf-note" pointer-events="bounding-box"><g class="vf-stem" pointer-events="bounding-box"><path stroke-width="1.5" fill="none" stroke="#000000" stroke-dasharray="none" class="vf-stem" id="vf-auto363985-stem" d="M470.7802335999999 264.3L470.7802335999999 299.3"></path></g><g class="vf-notehead" pointer-events="bounding-box"><path stroke-width="0.3" fill="#000000" stroke="none" stroke-dasharray="none" d="M470.0302335999999 264.3M477.38719359999993 259.07712000000004C477.49951359999994 259.07712000000004,477.66799359999993 259.07712000000004,477.6960735999999 259.07712000000004C477.6960735999999 259.07712000000004,477.7241535999999 259.07712000000004,477.7241535999999 259.07712000000004C477.7241535999999 259.07712000000004,477.8926335999999 259.07712000000004,478.0330335999999 259.07712000000004C480.56023359999995 259.21752000000004,482.0484735999999 260.87424,482.0484735999999 262.95216C482.0484735999999 263.96304000000003,481.71151359999993 265.11432,480.86911359999993 266.20944000000003C479.2685535999999 268.3716,476.6571135999999 269.55096000000003,474.3826335999999 269.55096000000003C472.61359359999994 269.55096000000003,471.09727359999994 268.84896000000003,470.3671935999999 267.41688C470.1425535999999 266.85528,470.0302335999999 266.32176,470.0302335999999 265.73208C470.0302335999999 262.67136,473.45599359999994 259.27368,477.38719359999993 259.07712000000004"></path></g></g><g class="vf-modifiers"></g></g><rect stroke-width="0.3" fill="#000000" stroke="#000000" stroke-dasharray="none" x="525.8804671999999" y="166.5" width="1" height="138.8"></rect><path stroke-width="1" fill="none" stroke="#000000" stroke-dasharray="none" d="M525.8804671999999 264.3L708.5307007999997 264.3"></path><path stroke-width="1" fill="none" stroke="#000000" stroke-dasharray="none" d="M525.8804671999999 274.3L708.5307007999997 274.3"></path><path stroke-width="1" fill="none" stroke="#000000" stroke-dasharray="none" d="M525.8804671999999 284.3L708.5307007999997 284.3"></path><path stroke-width="1" fill="none" stroke="#000000" stroke-dasharray="none" d="M525.8804671999999 294.3L708.5307007999997 294.3"></path><path stroke-width="1" fill="none" stroke="#000000" stroke-dasharray="none" d="M525.8804671999999 304.3L708.5307007999997 304.3"></path><rect stroke-width="0.3" fill="#000000" stroke="#000000" stroke-dasharray="none" x="708.5307007999997" y="263.8" width="1" height="41"></rect><g class="vf-stavenote" id="vf-auto363995"><g class="vf-note" pointer-events="bounding-box"><g class="vf-stem" pointer-events="bounding-box"><path stroke-width="1.5" fill="none" stroke="#000000" stroke-dasharray="none" class="vf-stem" id="vf-auto363995-stem" d="M554.1487071999999 284.3L554.1487071999999 249.3"></path></g><g class="vf-notehead" pointer-events="bounding-box"><path stroke-width="0.3" fill="#000000" stroke="none" stroke-dasharray="none" d="M542.8804671999999 284.3M550.2374271999998 279.07712000000004C550.3497471999999 279.07712000000004,550.5182271999998 279.07712000000004,550.5463071999999 279.07712000000004C550.5463071999999 279.07712000000004,550.5743871999999 279.07712000000004,550.5743871999999 279.07712000000004C550.5743871999999 279.07712000000004,550.7428671999999 279.07712000000004,550.8832671999999 279.07712000000004C553.4104671999999 279.21752000000004,554.8987071999999 280.87424,554.8987071999999 282.95216C554.8987071999999 283.96304000000003,554.5617471999999 285.11432,553.7193471999999 286.20944000000003C552.1187871999999 288.3716,549.5073471999999 289.55096000000003,547.2328671999999 289.55096000000003C545.4638271999999 289.55096000000003,543.9475071999999 288.84896000000003,543.2174271999999 287.41688C542.9927871999998 286.85528,542.8804671999999 286.32176,542.8804671999999 285.73208C542.8804671999999 282.67136,546.3062271999999 279.27368,550.2374271999998 279.07712000000004"></path></g></g><g class="vf-modifiers"></g></g><g class="vf-stavenote" id="vf-auto364003"><g class="vf-note" pointer-events="bounding-box"><g class="vf-stem" pointer-events="bounding-box"><path stroke-width="1.5" fill="none" stroke="#000000" stroke-dasharray="none" class="vf-stem" id="vf-auto364003-stem" d="M581.9820405333332 294.3L581.9820405333332 259.3"></path></g><g class="vf-notehead" pointer-events="bounding-box"><path stroke-width="0.3" fill="#000000" stroke="none" stroke-dasharray="none" d="M570.7138005333333 294.3M578.0707605333332 289.07712000000004C578.1830805333333 289.07712000000004,578.3515605333332 289.07712000000004,578.3796405333333 289.07712000000004C578.3796405333333 289.07712000000004,578.4077205333333 289.07712000000004,578.4077205333333 289.07712000000004C578.4077205333333 289.07712000000004,578.5762005333332 289.07712000000004,578.7166005333332 289.07712000000004C581.2438005333332 289.21752000000004,582.7320405333332 290.87424,582.7320405333332 292.95216C582.7320405333332 293.96304000000003,582.3950805333333 295.11432,581.5526805333333 296.20944000000003C579.9521205333333 298.3716,577.3406805333333 299.55096000000003,575.0662005333332 299.55096000000003C573.2971605333332 299.55096000000003,571.7808405333333 298.84896000000003,571.0507605333332 297.41688C570.8261205333332 296.85528,570.7138005333333 296.32176,570.7138005333333 295.73208C570.7138005333333 292.67136,574.1395605333332 289.27368,578.0707605333332 289.07712000000004"></path></g></g><g class="vf-modifiers"></g></g><g class="vf-stavenote" id="vf-auto364011"><g class="vf-note" pointer-events="bounding-box"><g class="vf-stem" pointer-events="bounding-box"><path stroke-width="1.5" fill="none" stroke="#000000" stroke-dasharray="none" class="vf-stem" id="vf-auto364011-stem" d="M609.8153738666665 294.3L609.8153738666665 259.3"></path></g><g class="vf-notehead" pointer-events="bounding-box"><path stroke-width="0.3" fill="#000000" stroke="none" stroke-dasharray="none" d="M598.5471338666665 294.3M605.9040938666665 289.07712000000004C606.0164138666665 289.07712000000004,606.1848938666665 289.07712000000004,606.2129738666665 289.07712000000004C606.2129738666665 289.07712000000004,606.2410538666666 289.07712000000004,606.2410538666666 289.07712000000004C606.2410538666666 289.07712000000004,606.4095338666665 289.07712000000004,606.5499338666665 289.07712000000004C609.0771338666665 289.21752000000004,610.5653738666665 290.87424,610.5653738666665 292.95216C610.5653738666665 293.96304000000003,610.2284138666665 295.11432,609.3860138666665 296.20944000000003C607.7854538666666 298.3716,605.1740138666665 299.55096000000003,602.8995338666665 299.55096000000003C601.1304938666665 299.55096000000003,599.6141738666665 298.84896000000003,598.8840938666665 297.41688C598.6594538666665 296.85528,598.5471338666665 296.32176,598.5471338666665 295.73208C598.5471338666665 292.67136,601.9728938666665 289.27368,605.9040938666665 289.07712000000004"></path></g></g><g class="vf-modifiers"></g></g><path stroke-width="1" fill="none" stroke="#000000" stroke-dasharray="none" d="M623.3804671999999 254.3L641.3987071999999 254.3"></path><g class="vf-stavenote" id="vf-auto364019"><g class="vf-note" pointer-events="bounding-box"><g class="vf-stem" pointer-events="bounding-box"><path stroke-width="1.5" fill="none" stroke="#000000" stroke-dasharray="none" class="vf-stem" id="vf-auto364019-stem" d="M627.1304671999999 254.3L627.1304671999999 289.3"></path></g><g class="vf-notehead" pointer-events="bounding-box"><path stroke-width="0.3" fill="#000000" stroke="none" stroke-dasharray="none" d="M626.3804671999999 254.3M633.7374271999998 249.07712C633.8497471999999 249.07712,634.0182271999998 249.07712,634.0463071999999 249.07712C634.0463071999999 249.07712,634.0743871999999 249.07712,634.0743871999999 249.07712C634.0743871999999 249.07712,634.2428671999999 249.07712,634.3832671999999 249.07712C636.9104671999999 249.21752,638.3987071999999 250.87424000000001,638.3987071999999 252.95216000000002C638.3987071999999 253.96304,638.0617471999999 255.11432000000002,637.2193471999999 256.20944000000003C635.6187871999999 258.3716,633.0073471999999 259.55096000000003,630.7328671999999 259.55096000000003C628.9638271999999 259.55096000000003,627.4475071999999 258.84896000000003,626.7174271999999 257.41688C626.4927871999998 256.85528,626.3804671999999 256.32176,626.3804671999999 255.73208000000002C626.3804671999999 252.67136000000002,629.8062271999999 249.27368,633.7374271999998 249.07712"></path></g></g><g class="vf-modifiers"></g></g><g class="vf-stavenote" id="vf-auto364027"><g class="vf-note" pointer-events="bounding-box"><g class="vf-stem" pointer-events="bounding-box"><path stroke-width="1.5" fill="none" stroke="#000000" stroke-dasharray="none" class="vf-stem" id="vf-auto364027-stem" d="M654.9638005333333 274.3L654.9638005333333 309.3"></path></g><g class="vf-notehead" pointer-events="bounding-box"><path stroke-width="0.3" fill="#000000" stroke="none" stroke-dasharray="none" d="M654.2138005333333 274.3M661.5707605333332 269.07712000000004C661.6830805333333 269.07712000000004,661.8515605333332 269.07712000000004,661.8796405333333 269.07712000000004C661.8796405333333 269.07712000000004,661.9077205333333 269.07712000000004,661.9077205333333 269.07712000000004C661.9077205333333 269.07712000000004,662.0762005333332 269.07712000000004,662.2166005333332 269.07712000000004C664.7438005333332 269.21752000000004,666.2320405333332 270.87424,666.2320405333332 272.95216C666.2320405333332 273.96304000000003,665.8950805333333 275.11432,665.0526805333333 276.20944000000003C663.4521205333333 278.3716,660.8406805333333 279.55096000000003,658.5662005333332 279.55096000000003C656.7971605333332 279.55096000000003,655.2808405333333 278.84896000000003,654.5507605333332 277.41688C654.3261205333332 276.85528,654.2138005333333 276.32176,654.2138005333333 275.73208C654.2138005333333 272.67136,657.6395605333332 269.27368,661.5707605333332 269.07712000000004"></path></g></g><g class="vf-modifiers"></g></g><g class="vf-stavenote" id="vf-auto364035"><g class="vf-note" pointer-events="bounding-box"><g class="vf-stem" pointer-events="bounding-box"><path stroke-width="1.5" fill="none" stroke="#000000" stroke-dasharray="none" class="vf-stem" id="vf-auto364035-stem" d="M682.7971338666666 264.3L682.7971338666666 299.3"></path></g><g class="vf-notehead" pointer-events="bounding-box"><path stroke-width="0.3" fill="#000000" stroke="none" stroke-dasharray="none" d="M682.0471338666666 264.3M689.4040938666666 259.07712000000004C689.5164138666667 259.07712000000004,689.6848938666666 259.07712000000004,689.7129738666666 259.07712000000004C689.7129738666666 259.07712000000004,689.7410538666667 259.07712000000004,689.7410538666667 259.07712000000004C689.7410538666667 259.07712000000004,689.9095338666666 259.07712000000004,690.0499338666666 259.07712000000004C692.5771338666666 259.21752000000004,694.0653738666666 260.87424,694.0653738666666 262.95216C694.0653738666666 263.96304000000003,693.7284138666666 265.11432,692.8860138666666 266.20944000000003C691.2854538666667 268.3716,688.6740138666667 269.55096000000003,686.3995338666666 269.55096000000003C684.6304938666666 269.55096000000003,683.1141738666666 268.84896000000003,682.3840938666666 267.41688C682.1594538666666 266.85528,682.0471338666666 266.32176,682.0471338666666 265.73208C682.0471338666666 262.67136,685.4728938666666 259.27368,689.4040938666666 259.07712000000004"></path></g></g><g class="vf-modifiers"></g></g><rect stroke-width="0.3" fill="#000000" stroke="#000000" stroke-dasharray="none" x="708.5307007999997" y="166.5" width="1" height="138.8"></rect><path stroke-width="1" fill="none" stroke="#000000" stroke-dasharray="none" d="M708.5307007999997 264.3L903.7809343999998 264.3"></path><path stroke-width="1" fill="none" stroke="#000000" stroke-dasharray="none" d="M708.5307007999997 274.3L903.7809343999998 274.3"></path><path stroke-width="1" fill="none" stroke="#000000" stroke-dasharray="none" d="M708.5307007999997 284.3L903.7809343999998 284.3"></path><path stroke-width="1" fill="none" stroke="#000000" stroke-dasharray="none" d="M708.5307007999997 294.3L903.7809343999998 294.3"></path><path stroke-width="1" fill="none" stroke="#000000" stroke-dasharray="none" d="M708.5307007999997 304.3L903.7809343999998 304.3"></path><rect stroke-width="0.3" fill="#000000" stroke="#000000" stroke-dasharray="none" x="898.7809343999998" y="263.8" width="1" height="41"></rect><rect stroke-width="0.3" fill="#000000" stroke="#000000" stroke-dasharray="none" x="901.7809343999998" y="263.8" width="3" height="41"></rect><g class="vf-stavenote" id="vf-auto364071"><g class="vf-note" pointer-events="bounding-box"><g class="vf-stem" pointer-events="bounding-box"><path stroke-width="1.5" fill="none" stroke="#000000" stroke-dasharray="none" class="vf-stem" id="vf-auto364071-stem" d="M736.7989407999997 294.3L736.7989407999997 259.3"></path></g><g class="vf-notehead" pointer-events="bounding-box"><path stroke-width="0.3" fill="#000000" stroke="none" stroke-dasharray="none" d="M725.5307007999997 294.3M732.8876607999997 289.07712000000004C732.9999807999998 289.07712000000004,733.1684607999997 289.07712000000004,733.1965407999998 289.07712000000004C733.1965407999998 289.07712000000004,733.2246207999998 289.07712000000004,733.2246207999998 289.07712000000004C733.2246207999998 289.07712000000004,733.3931007999997 289.07712000000004,733.5335007999997 289.07712000000004C736.0607007999997 289.21752000000004,737.5489407999997 290.87424,737.5489407999997 292.95216C737.5489407999997 293.96304000000003,737.2119807999998 295.11432,736.3695807999998 296.20944000000003C734.7690207999998 298.3716,732.1575807999998 299.55096000000003,729.8831007999997 299.55096000000003C728.1140607999997 299.55096000000003,726.5977407999998 298.84896000000003,725.8676607999997 297.41688C725.6430207999997 296.85528,725.5307007999997 296.32176,725.5307007999997 295.73208C725.5307007999997 292.67136,728.9564607999997 289.27368,732.8876607999997 289.07712000000004"></path></g></g><g class="vf-modifiers"></g></g><g class="vf-stavenote" id="vf-auto364079"><g class="vf-note" pointer-events="bounding-box"><g class="vf-stem" pointer-events="bounding-box"><path stroke-width="1.5" fill="none" stroke="#000000" stroke-dasharray="none" class="vf-stem" id="vf-auto364079-stem" d="M786.2807007999997 279.3L786.2807007999997 314.3"></path></g><g class="vf-notehead" pointer-events="bounding-box"><path stroke-width="0.3" fill="#000000" stroke="none" stroke-dasharray="none" d="M785.5307007999997 279.3M792.8876607999997 274.07712000000004C792.9999807999998 274.07712000000004,793.1684607999997 274.07712000000004,793.1965407999998 274.07712000000004C793.1965407999998 274.07712000000004,793.2246207999998 274.07712000000004,793.2246207999998 274.07712000000004C793.2246207999998 274.07712000000004,793.3931007999997 274.07712000000004,793.5335007999997 274.07712000000004C796.0607007999997 274.21752000000004,797.5489407999997 275.87424,797.5489407999997 277.95216C797.5489407999997 278.96304000000003,797.2119807999998 280.11432,796.3695807999998 281.20944000000003C794.7690207999998 283.3716,792.1575807999998 284.55096000000003,789.8831007999997 284.55096000000003C788.1140607999997 284.55096000000003,786.5977407999998 283.84896000000003,785.8676607999997 282.41688C785.6430207999997 281.85528,785.5307007999997 281.32176,785.5307007999997 280.73208C785.5307007999997 277.67136,788.9564607999997 274.27368,792.8876607999997 274.07712000000004"></path></g></g><g class="vf-modifiers"></g></g><g class="vf-stavenote" id="vf-auto364087"><g class="vf-note" pointer-events="bounding-box"><g class="vf-stem" pointer-events="bounding-box"><path stroke-width="1.5" fill="none" stroke="#000000" stroke-dasharray="none" class="vf-stem" id="vf-auto364087-stem" d="M816.2807007999997 269.3L816.2807007999997 304.3"></path></g><g class="vf-notehead" pointer-events="bounding-box"><path stroke-width="0.3" fill="#000000" stroke="none" stroke-dasharray="none" d="M815.5307007999997 269.3M822.8876607999997 264.07712000000004C822.9999807999998 264.07712000000004,823.1684607999997 264.07712000000004,823.1965407999998 264.07712000000004C823.1965407999998 264.07712000000004,823.2246207999998 264.07712000000004,823.2246207999998 264.07712000000004C823.2246207999998 264.07712000000004,823.3931007999997 264.07712000000004,823.5335007999997 264.07712000000004C826.0607007999997 264.21752000000004,827.5489407999997 265.87424,827.5489407999997 267.95216C827.5489407999997 268.96304000000003,827.2119807999998 270.11432,826.3695807999998 271.20944000000003C824.7690207999998 273.3716,822.1575807999998 274.55096000000003,819.8831007999997 274.55096000000003C818.1140607999997 274.55096000000003,816.5977407999998 273.84896000000003,815.8676607999997 272.41688C815.6430207999997 271.85528,815.5307007999997 271.32176,815.5307007999997 270.73208C815.5307007999997 267.67136,818.9564607999997 264.27368,822.8876607999997 264.07712000000004"></path></g></g><g class="vf-modifiers"></g></g><rect stroke-width="0.3" fill="#000000" stroke="#000000" stroke-dasharray="none" x="898.7809343999998" y="166.5" width="1" height="138.8"></rect><rect stroke-width="0.3" fill="#000000" stroke="#000000" stroke-dasharray="none" x="901.7809343999998" y="166.5" width="3" height="138.8"></rect><path stroke-width="0.3" fill="#000000" stroke="none" stroke-dasharray="none" d="M68 166.5C45.2 194.26,81.2 217.162,56 235.9C81.2 254.638,45.2 277.54,68 305.3C44 277.54,72.8 254.638,56 235.9C72.8 217.162,44 194.26,68 166.5"></path><path stroke-width="1" fill="none" stroke="#000000" stroke-dasharray="none" d="M68 166.5C45.2 194.26,81.2 217.162,56 235.9C81.2 254.638,45.2 277.54,68 305.3C44 277.54,72.8 254.638,56 235.9C72.8 217.162,44 194.26,68 166.5"></path><g class="vf-text"><text stroke-width="0.3" fill="#000000" stroke="none" stroke-dasharray="none" font-family="Times New Roman" font-size="15px" font-weight="normal" font-style="normal" x="522.3804671999999" y="163.5">3</text></g></svg>