<svg xmlns="http://www.w3.org/2000/svg"  width="1280" height="396.79999999999995" viewBox="0 0 1280 396.79999999999995"><path stroke-width="1" fill="none" stroke="#000000" stroke-dasharray="none" d="M70 166.5L334.83023359999993 166.5"></path><path stroke-width="1" fill="none" stroke="#000000" stroke-dasharray="none" d="M70 176.5L334.83023359999993 176.5"></path><path stroke-width="1" fill="none" stroke="#000000" stroke-dasharray="none" d="M70 186.5L334.83023359999993 186.5"></path><path stroke-width="1" fill="none" stroke="#000000" stroke-dasharray="none" d="M70 196.5L334.83023359999993 196.5"></path><path stroke-width="1" fill="none" stroke="#000000" stroke-dasharray="none" d="M70 206.5L334.83023359999993 206.5"></path><rect stroke-width="0.3" fill="#000000" stroke="#000000" stroke-dasharray="none" x="334.83023359999993" y="166" width="1" height="41"></rect><g class="vf-clef"><path stroke-width="0.3" fill="#000000" stroke="none" stroke-dasharray="none" d="M75 196.5M89.0544 153.3288C89.112 153.3,89.1696 153.3,89.256 153.3C89.6016 153.3,90.0048 153.588,90.5808 154.308C92.9136 156.9864,94.5552 161.652,94.5552 165.4536C94.5552 165.7416,94.4976 165.972,94.4976 166.26C94.2384 170.7816,92.3952 174.4968,88.7376 178.0104L87.7584 178.9608L87.4128 179.3352L87.4128 179.4504L87.6144 180.3144L87.9312 181.8696L88.248 183.3096C88.68 185.268,88.8528 186.276,88.8528 186.276C88.8528 186.276,88.8528 186.276,88.8528 186.276C88.8528 186.276,88.968 186.276,89.112 186.2472C89.256 186.2472,89.7168 186.1896,90.2064 186.1896C90.55199999999999 186.1896,90.8976 186.2472,91.0704 186.2472C95.1312 186.7656,98.2704 189.6744,99.1632 193.764C99.336 194.4264,99.39359999999999 195.1464,99.39359999999999 195.8664C99.39359999999999 199.7544,97.0608 203.4696,93.1728 205.2264C92.94239999999999 205.3704,92.856 205.3992,92.856 205.3992L92.856 205.428C92.856 205.428,93.0288 206.0904,93.1728 206.8392L93.6048 209.028L94.008 210.7848C94.2384 211.908,94.3536 212.7144,94.3536 213.4344C94.3536 214.06799999999998,94.2672 214.644,94.1232 215.3064C93.144 219.3096,89.6592 221.7,86.0304 221.7C84.2448 221.7,82.4016 221.124,80.7888 219.828C79.3488 218.6184,78.7152 217.524,78.7152 216.084C78.7152 213.5496,80.76 211.764,82.8912 211.764C83.64 211.764,84.3888 211.99439999999998,85.1088 212.4264C86.3184 213.2616,86.8656 214.5288,86.8656 215.7672C86.8656 217.668,85.5408 219.54,83.2656 219.684L83.0352 219.684L83.208 219.79919999999998C84.1584 220.2024,85.1088 220.404,86.0304 220.404C88.3632 220.404,90.55199999999999 219.2232,91.8768 217.1784C92.62559999999999 216.0264,93.0288 214.6728,93.0288 213.3192C93.0288 212.8008,92.94239999999999 212.2824,92.8272 211.7064C92.8272 211.6488,92.74080000000001 211.188,92.62559999999999 210.756C91.992 207.6456,91.6176 205.8312,91.6176 205.8312C91.6176 205.8312,91.6176 205.8312,91.6176 205.8312C91.56 205.8312,91.4448 205.8312,91.3584 205.8888C91.0704 205.9464,90.4656 206.0904,90.2064 206.1192C89.5728 206.2056,88.968 206.2344,88.392 206.2344C82.74719999999999 206.2344,77.5056 202.4328,75.6912 196.8168C75.2304 195.3192,74.9712 193.8216,74.9712 192.324C74.9712 189.3288,75.9216 186.3912,77.7648 183.7704C79.7808 180.9192,81.7968 178.4712,84.2736 175.9368L85.13759999999999 175.044L84.936 173.9784L84.5616 172.2216L84.072 169.9752C83.928 169.14,83.7552 168.3336,83.7264 168.1608C83.5824 167.2104,83.496 166.2888,83.496 165.3384C83.496 161.7096,84.6768 158.22480000000002,86.8944 155.4312C87.5568 154.5672,88.7376 153.4152,89.0544 153.3288M90.8112 159.0312C90.7536 159.0312,90.6672 159.0312,90.5808 159.0312C89.4 159.0312,87.8736 160.1256,86.8368 161.7384C85.7712 163.32240000000002,85.224 165.4248,85.224 167.5848C85.224 168.1608,85.25280000000001 168.7656,85.3392 169.3704C85.4256 169.8024,85.45439999999999 170.0904,85.6848 171.12720000000002L86.088 172.9416C86.2032 173.4888,86.28960000000001 173.92079999999999,86.28960000000001 173.9784L86.28960000000001 173.9784C86.3184 173.9784,87.2112 172.9992,87.4992 172.6536C90.3792 169.3992,92.1072 165.972,92.4816 162.948C92.5104 162.66,92.5104 162.4296,92.5104 162.1416C92.5104 161.24880000000002,92.3952 160.38479999999998,92.1936 159.924C91.9632 159.4632,91.4448 159.0888,90.8112 159.0312M86.4624 181.2936C86.4048 180.8904,86.3184 180.5736,86.3184 180.516C86.3184 180.516,86.3184 180.516,86.28960000000001 180.516C86.232 180.516,84.9936 181.956,84.1296 182.964C82.6608 184.7496,81.1056 186.8808,80.472 187.9176C79.2624 189.9624,78.6576 192.2376,78.6576 194.484C78.6576 195.9528,78.9456 197.364,79.464 198.7176C81.0192 202.7208,84.5904 205.2264,88.4784 205.2264C88.9392 205.2264,89.4576 205.1976,89.9472 205.1112C90.5808 204.996,91.3584 204.7656,91.3584 204.6792L91.3584 204.6792C91.3584 204.6792,91.3008 204.3912,91.2144 204.0744L90.3792 199.956L89.7168 196.8744L89.2848 194.7432L88.824 192.6696C88.5936 191.4312,88.5072 191.1144,88.5072 191.1144C88.5072 191.1144,88.5072 191.0856,88.4784 191.0856C88.3056 191.0856,87.384 191.5464,86.9808 191.8344C85.4832 192.8712,84.7056 194.5128,84.7056 196.1256C84.7056 197.652,85.45439999999999 199.1784,86.8944 200.0712C87.2112 200.2728,87.3264 200.4456,87.3264 200.6472C87.3264 200.676,87.3264 200.7624,87.3264 200.7912C87.2688 201.1368,87.0672 201.2808,86.7792 201.2808C86.664 201.2808,86.52 201.252,86.3472 201.1656C83.6976 200.0136,81.912 197.2776,81.912 194.2824L81.912 194.2824C81.912 190.8264,84.072 187.8312,87.384 186.6504L87.5568 186.5928L87.2688 185.1528L86.4624 181.2936M90.7824 190.9128C90.55199999999999 190.88400000000001,90.3216 190.88400000000001,90.1488 190.88400000000001C90.0912 190.88400000000001,90.0048 190.88400000000001,89.9472 190.88400000000001L89.8032 190.88400000000001L89.9184 191.4024L90.5232 194.2248L90.8976 196.068L91.3008 197.8824L92.1072 201.8856L92.424 203.412C92.5392 203.8152,92.5968 204.1608,92.62559999999999 204.1608C92.62559999999999 204.1608,92.62559999999999 204.1608,92.62559999999999 204.1608C92.6544 204.1608,93.144 203.8728,93.4608 203.6424C94.9296 202.6056,96.024 200.9928,96.4272 199.3224C96.5712 198.7752,96.6288 198.1992,96.6288 197.652C96.6288 194.3112,94.152 191.2872,90.7824 190.9128"></path></g><path stroke-width="0.3" fill="#000000" stroke="none" stroke-dasharray="none" d="M116 186.5M123.344 167.8376C123.4592 167.8376,123.6608 167.8376,123.8912 167.8376C124.2944 167.8376,124.8416 167.8376,125.0432 167.8952C126.7712 168.1544,128.6144 169.3928,128.96 170.516C129.0464 170.7752,129.0752 171.00560000000002,129.0752 171.236C129.0752 172.532,127.9808 173.5112,126.8 173.5112C126.3392 173.5112,125.8784 173.39600000000002,125.4464 173.0504C124.928 172.5896,124.64 172.0136,124.64 171.3512C124.64 170.4584,125.1872 169.5368,126.13759999999999 169.2776C126.224 169.2776,126.25280000000001 169.2488,126.25280000000001 169.2488C126.25280000000001 169.2488,126.224 169.1912,126.13759999999999 169.1624C125.504 168.8744,124.8704 168.7592,124.2944 168.7592C123.4016 168.7592,122.624 169.076,122.048 169.6808C121.4432 170.4008,121.0112 171.8696,120.7232 174.0296C120.6944 174.548,120.608 175.5272,120.608 175.7288C120.608 175.7288,120.608 175.7288,120.608 175.7288C120.608 175.7288,120.608 175.7288,120.608 175.7288C120.608 175.7288,120.7232 175.6712,120.83840000000001 175.6424C121.76 175.268,122.5664 175.124,123.4304 175.124C124.4672 175.124,125.4464 175.3544,126.5408 175.9304C128.5568 176.9096,129.68 178.3496,129.68 180.0776C129.68 180.308,129.6224 180.5672,129.5936 180.8264C129.3056 182.4392,128.0672 183.764,126.0512 184.628C125.1296 185.0312,124.2944 185.2616,123.4592 185.2616C122.624 185.2616,121.76 185.0024,120.8096 184.5128C118.304 183.2456,116.576 180.88400000000001,116.1152 178.148C116.0288 177.6008,116 177.0536,116 176.4488C116 175.2392,116.1728 174.0296,116.576 173.0504C117.6704 170.2856,120.464 168.1544,123.344 167.8376M123.74719999999999 176.0456C123.632 176.0456,123.5168 176.0456,123.4016 176.0456C122.7968 176.0456,122.336 176.2472,122.048 176.564C121.6448 177.1688,121.35679999999999 178.6664,121.35679999999999 179.9912C121.35679999999999 180.2792,121.35679999999999 180.5672,121.3856 180.7976C121.5008 182.1512,121.8176 183.2744,122.1344 183.764C122.3648 184.1096,122.8544 184.3112,123.4016 184.3112C123.5168 184.3112,123.6608 184.3112,123.776 184.2824C124.6112 184.1672,124.928 183.6488,125.2448 182.0072C125.3888 181.2296,125.4752 180.5672,125.4752 179.9048C125.4752 179.2424,125.3888 178.6088,125.2448 177.8312C124.9568 176.6504,124.5824 176.1608,123.74719999999999 176.0456M122.7968 186.5288L122.8544 186.5288L122.768 186.5288L122.7968 186.5288M122.7968 167.1176L122.8544 167.1176L122.768 167.1176L122.7968 167.1176"></path><path stroke-width="0.3" fill="#000000" stroke="none" stroke-dasharray="none" d="M116.1008 206.5M121.11200000000001 188.1544C121.14080000000001 188.1256,121.54400000000001 188.1256,122.78240000000001 188.1256C123.1568 188.1256,123.56 188.1256,124.0784 188.1256L126.9872 188.1256L127.0736 188.212C127.2176 188.29840000000002,127.304 188.4424,127.304 188.5576C127.304 188.7304,127.2176 188.8456,127.1024 188.9608C127.0736 189.0472,126.8144 189.2776,126.64160000000001 189.5368L125.1152 191.2936L123.1568 193.5112L122.12 194.692L120.5648 196.4776L118.52000000000001 198.8104C118.1744 199.2424,117.80000000000001 199.588,117.80000000000001 199.588C117.80000000000001 199.588,117.80000000000001 199.588,117.80000000000001 199.588C117.80000000000001 199.6456,118.0592 199.6456,120.4496 199.6456L123.0704 199.6456L123.0704 197.7736C123.0704 195.8728,123.0704 195.844,123.09920000000001 195.8152C123.1568 195.7288,123.41600000000001 195.412,124.424 194.2312L124.8272 193.7992L125.2304 193.3672L125.8352 192.5896L126.4688 191.9272L126.7856 191.524C126.9008 191.3512,127.0736 191.3224,127.2176 191.3224C127.3904 191.3224,127.5344 191.4088,127.6208 191.5528C127.6496 191.6392,127.6496 191.6968,127.6496 193.828C127.6496 194.3176,127.6496 194.9224,127.6496 195.6424L127.6496 199.6456L128.3696 199.6456C129.032 199.6456,129.0608 199.6456,129.1472 199.6744C129.3776 199.7608,129.49280000000002 199.9912,129.49280000000002 200.2504C129.49280000000002 200.3944,129.464 200.5672,129.3488 200.6824C129.17600000000002 200.8264,129.1472 200.8264,128.3696 200.8264L127.6496 200.8264L127.6496 201.316C127.67840000000001 202.7848,127.96640000000001 203.3608,129.08960000000002 203.9656C129.49280000000002 204.1672,129.57920000000001 204.2248,129.57920000000001 204.5128C129.57920000000001 204.7144,129.5216 204.8008,129.3776 204.916L129.2912 204.9448L125.3456 204.9448L121.42880000000001 204.9448L121.34240000000001 204.916C121.1696 204.8008,121.14080000000001 204.7144,121.14080000000001 204.5128C121.14080000000001 204.2248,121.1696 204.1672,121.6016 203.9656C122.7248 203.3608,123.01280000000001 202.7848,123.01280000000001 201.316L123.01280000000001 200.8264L119.7008 200.8264C119.096 200.88400000000001,118.60640000000001 200.88400000000001,118.20320000000001 200.88400000000001C116.3888 200.88400000000001,116.36000000000001 200.8264,116.33120000000001 200.8264C116.1584 200.7688,116.1008 200.596,116.1008 200.3944C116.1008 200.3944,116.1008 200.3944,116.1008 200.3944C116.1008 200.1928,116.1008 200.1928,116.6768 199.5304C119.096 196.5928,120.79520000000001 192.3304,120.79520000000001 188.93200000000002C120.79520000000001 188.4136,120.8816 188.2408,121.11200000000001 188.1544M122.84 206.5288L122.86880000000001 206.5288L122.78240000000001 206.5288L122.84 206.5288M122.84 187.1176L122.86880000000001 187.1176L122.78240000000001 187.1176L122.84 187.1176"></path><path stroke-width="1" fill="none" stroke="#000000" stroke-dasharray="none" d="M334.83023359999993 166.5L534.2804671999999 166.5"></path><path stroke-width="1" fill="none" stroke="#000000" stroke-dasharray="none" d="M334.83023359999993 176.5L534.2804671999999 176.5"></path><path stroke-width="1" fill="none" stroke="#000000" stroke-dasharray="none" d="M334.83023359999993 186.5L534.2804671999999 186.5"></path><path stroke-width="1" fill="none" stroke="#000000" stroke-dasharray="none" d="M334.83023359999993 196.5L534.2804671999999 196.5"></path><path stroke-width="1" fill="none" stroke="#000000" stroke-dasharray="none" d="M334.83023359999993 206.5L534.2804671999999 206.5"></path><rect stroke-width="0.3" fill="#000000" stroke="#000000" stroke-dasharray="none" x="534.2804671999999" y="166" width="1" height="41"></rect><g class="vf-stavenote" id="vf-auto346422"><g class="vf-note" pointer-events="bounding-box"><g class="vf-stem" pointer-events="bounding-box"><path stroke-width="1.5" fill="none" stroke="#000000" stroke-dasharray="none" class="vf-stem" id="vf-auto346422-stem" d="M363.0984735999999 211.5L363.0984735999999 176.5"></path></g><g class="vf-notehead" pointer-events="bounding-box"><path stroke-width="0.3" fill="#000000" stroke="none" stroke-dasharray="none" d="M351.83023359999993 211.5M359.18719359999994 206.27712C359.29951359999995 206.27712,359.46799359999994 206.27712,359.49607359999993 206.27712C359.49607359999993 206.27712,359.5241535999999 206.27712,359.5241535999999 206.27712C359.5241535999999 206.27712,359.6926335999999 206.27712,359.8330335999999 206.27712C362.3602335999999 206.41752,363.8484735999999 208.07424,363.8484735999999 210.15216C363.8484735999999 211.16304,363.51151359999994 212.31432,362.66911359999995 213.40944C361.0685535999999 215.5716,358.45711359999996 216.75096,356.1826335999999 216.75096C354.41359359999996 216.75096,352.89727359999995 216.04896,352.1671935999999 214.61688C351.94255359999994 214.05528,351.83023359999993 213.52176,351.83023359999993 212.93208C351.83023359999993 209.87136,355.25599359999995 206.47368,359.18719359999994 206.27712"></path></g></g><g class="vf-modifiers"></g></g><g class="vf-stavenote" id="vf-auto346430"><g class="vf-note" pointer-events="bounding-box"><g class="vf-stem" pointer-events="bounding-box"><path stroke-width="1.5" fill="none" stroke="#000000" stroke-dasharray="none" class="vf-stem" id="vf-auto346430-stem" d="M444.58023359999993 186.5L444.58023359999993 221.5"></path></g><g class="vf-notehead" pointer-events="bounding-box"><path stroke-width="0.3" fill="#000000" stroke="none" stroke-dasharray="none" d="M443.83023359999993 186.5M451.18719359999994 181.27712C451.29951359999995 181.27712,451.46799359999994 181.27712,451.49607359999993 181.27712C451.49607359999993 181.27712,451.5241535999999 181.27712,451.5241535999999 181.27712C451.5241535999999 181.27712,451.6926335999999 181.27712,451.8330335999999 181.27712C454.3602335999999 181.41752,455.8484735999999 183.07424,455.8484735999999 185.15216C455.8484735999999 186.16304,455.51151359999994 187.31432,454.66911359999995 188.40944C453.0685535999999 190.5716,450.45711359999996 191.75096,448.1826335999999 191.75096C446.41359359999996 191.75096,444.89727359999995 191.04896,444.1671935999999 189.61688C443.94255359999994 189.05528,443.83023359999993 188.52176,443.83023359999993 187.93208C443.83023359999993 184.87136,447.25599359999995 181.47368,451.18719359999994 181.27712"></path></g></g><g class="vf-modifiers"></g></g><path stroke-width="1" fill="none" stroke="#000000" stroke-dasharray="none" d="M471.4969002666666 216.5L489.5151402666666 216.5"></path><g class="vf-stavenote" id="vf-auto346438"><g class="vf-note" pointer-events="bounding-box"><g class="vf-stem" pointer-events="bounding-box"><path stroke-width="1.5" fill="none" stroke="#000000" stroke-dasharray="none" class="vf-stem" id="vf-auto346438-stem" d="M485.7651402666666 221.5L485.7651402666666 186.5"></path></g><g class="vf-notehead" pointer-events="bounding-box"><path stroke-width="0.3" fill="#000000" stroke="none" stroke-dasharray="none" d="M474.4969002666666 221.5M481.85386026666663 216.27712C481.96618026666664 216.27712,482.13466026666663 216.27712,482.1627402666666 216.27712C482.1627402666666 216.27712,482.1908202666666 216.27712,482.1908202666666 216.27712C482.1908202666666 216.27712,482.3593002666666 216.27712,482.4997002666666 216.27712C485.02690026666664 216.41752,486.5151402666666 218.07424,486.5151402666666 220.15216C486.5151402666666 221.16304,486.17818026666663 222.31432,485.33578026666663 223.40944C483.7352202666666 225.5716,481.1237802666666 226.75096,478.8493002666666 226.75096C477.08026026666664 226.75096,475.56394026666663 226.04896,474.8338602666666 224.61688C474.6092202666666 224.05528,474.4969002666666 223.52176,474.4969002666666 222.93208C474.4969002666666 219.87136,477.92266026666664 216.47368,481.85386026666663 216.27712"></path></g></g><g class="vf-modifiers"></g></g><g class="vf-stavenote" id="vf-auto346446"><g class="vf-note" pointer-events="bounding-box"><g class="vf-stem" pointer-events="bounding-box"><path stroke-width="1.5" fill="none" stroke="#000000" stroke-dasharray="none" class="vf-stem" id="vf-auto346446-stem" d="M505.9135669333333 181.5L505.9135669333333 216.5"></path></g><g class="vf-notehead" pointer-events="bounding-box"><path stroke-width="0.3" fill="#000000" stroke="none" stroke-dasharray="none" d="M505.1635669333333 181.5M512.5205269333333 176.27712C512.6328469333333 176.27712,512.8013269333333 176.27712,512.8294069333333 176.27712C512.8294069333333 176.27712,512.8574869333333 176.27712,512.8574869333333 176.27712C512.8574869333333 176.27712,513.0259669333333 176.27712,513.1663669333333 176.27712C515.6935669333333 176.41752,517.1818069333333 178.07424,517.1818069333333 180.15216C517.1818069333333 181.16304,516.8448469333333 182.31432,516.0024469333333 183.40944C514.4018869333333 185.5716,511.7904469333333 186.75096,509.5159669333333 186.75096C507.7469269333333 186.75096,506.2306069333333 186.04896,505.5005269333333 184.61688C505.2758869333333 184.05528,505.1635669333333 183.52176,505.1635669333333 182.93208C505.1635669333333 179.87136,508.5893269333333 176.47368,512.5205269333333 176.27712"></path></g></g><g class="vf-modifiers"></g></g><path stroke-width="1" fill="none" stroke="#000000" stroke-dasharray="none" d="M534.2804671999999 166.5L729.5307007999997 166.5"></path><path stroke-width="1" fill="none" stroke="#000000" stroke-dasharray="none" d="M534.2804671999999 176.5L729.5307007999997 176.5"></path><path stroke-width="1" fill="none" stroke="#000000" stroke-dasharray="none" d="M534.2804671999999 186.5L729.5307007999997 186.5"></path><path stroke-width="1" fill="none" stroke="#000000" stroke-dasharray="none" d="M534.2804671999999 196.5L729.5307007999997 196.5"></path><path stroke-width="1" fill="none" stroke="#000000" stroke-dasharray="none" d="M534.2804671999999 206.5L729.5307007999997 206.5"></path><rect stroke-width="0.3" fill="#000000" stroke="#000000" stroke-dasharray="none" x="729.5307007999997" y="166" width="1" height="41"></rect><g class="vf-stavenote" id="vf-auto346476"><g class="vf-note" pointer-events="bounding-box"><g class="vf-stem" pointer-events="bounding-box"><path stroke-width="1.5" fill="none" stroke="#000000" stroke-dasharray="none" class="vf-stem" id="vf-auto346476-stem" d="M592.5487071999999 201.5L592.5487071999999 166.5"></path></g><g class="vf-notehead" pointer-events="bounding-box"><path stroke-width="0.3" fill="#000000" stroke="none" stroke-dasharray="none" d="M581.2804671999999 201.5M588.6374271999998 196.27712C588.7497471999999 196.27712,588.9182271999998 196.27712,588.9463071999999 196.27712C588.9463071999999 196.27712,588.9743871999999 196.27712,588.9743871999999 196.27712C588.9743871999999 196.27712,589.1428671999998 196.27712,589.2832671999998 196.27712C591.8104671999998 196.41752,593.2987071999999 198.07424,593.2987071999999 200.15216C593.2987071999999 201.16304,592.9617471999999 202.31432,592.1193471999999 203.40944C590.5187871999999 205.5716,587.9073471999999 206.75096,585.6328671999999 206.75096C583.8638271999998 206.75096,582.3475071999999 206.04896,581.6174271999998 204.61688C581.3927871999998 204.05528,581.2804671999999 203.52176,581.2804671999999 202.93208C581.2804671999999 199.87136,584.7062271999998 196.47368,588.6374271999998 196.27712"></path></g></g><g class="vf-modifiers"></g></g><g class="vf-stavenote" id="vf-auto346484"><g class="vf-note" pointer-events="bounding-box"><g class="vf-stem" pointer-events="bounding-box"><path stroke-width="1.5" fill="none" stroke="#000000" stroke-dasharray="none" class="vf-stem" id="vf-auto346484-stem" d="M612.0304671999999 181.5L612.0304671999999 216.5"></path></g><g class="vf-notehead" pointer-events="bounding-box"><path stroke-width="0.3" fill="#000000" stroke="none" stroke-dasharray="none" d="M611.2804671999999 181.5M618.6374271999998 176.27712C618.7497471999999 176.27712,618.9182271999998 176.27712,618.9463071999999 176.27712C618.9463071999999 176.27712,618.9743871999999 176.27712,618.9743871999999 176.27712C618.9743871999999 176.27712,619.1428671999998 176.27712,619.2832671999998 176.27712C621.8104671999998 176.41752,623.2987071999999 178.07424,623.2987071999999 180.15216C623.2987071999999 181.16304,622.9617471999999 182.31432,622.1193471999999 183.40944C620.5187871999999 185.5716,617.9073471999999 186.75096,615.6328671999999 186.75096C613.8638271999998 186.75096,612.3475071999999 186.04896,611.6174271999998 184.61688C611.3927871999998 184.05528,611.2804671999999 183.52176,611.2804671999999 182.93208C611.2804671999999 179.87136,614.7062271999998 176.47368,618.6374271999998 176.27712"></path></g></g><g class="vf-modifiers"></g></g><g class="vf-stavenote" id="vf-auto346492"><g class="vf-note" pointer-events="bounding-box"><g class="vf-stem" pointer-events="bounding-box"><path stroke-width="1.5" fill="none" stroke="#000000" stroke-dasharray="none" class="vf-stem" id="vf-auto346492-stem" d="M702.0304671999999 176.5L702.0304671999999 211.5"></path></g><g class="vf-notehead" pointer-events="bounding-box"><path stroke-width="0.3" fill="#000000" stroke="none" stroke-dasharray="none" d="M701.2804671999999 176.5M708.6374271999998 171.27712C708.7497471999999 171.27712,708.9182271999998 171.27712,708.9463071999999 171.27712C708.9463071999999 171.27712,708.9743871999999 171.27712,708.9743871999999 171.27712C708.9743871999999 171.27712,709.1428671999998 171.27712,709.2832671999998 171.27712C711.8104671999998 171.41752,713.2987071999999 173.07424,713.2987071999999 175.15216C713.2987071999999 176.16304,712.9617471999999 177.31432,712.1193471999999 178.40944C710.5187871999999 180.5716,707.9073471999999 181.75096,705.6328671999999 181.75096C703.8638271999998 181.75096,702.3475071999999 181.04896,701.6174271999998 179.61688C701.3927871999998 179.05528,701.2804671999999 178.52176,701.2804671999999 177.93208C701.2804671999999 174.87136,704.7062271999998 171.47368,708.6374271999998 171.27712"></path></g></g><g class="vf-modifiers"></g></g><path stroke-width="1" fill="none" stroke="#000000" stroke-dasharray="none" d="M729.5307007999997 166.5L938.9809343999997 166.5"></path><path stroke-width="1" fill="none" stroke="#000000" stroke-dasharray="none" d="M729.5307007999997 176.5L938.9809343999997 176.5"></path><path stroke-width="1" fill="none" stroke="#000000" stroke-dasharray="none" d="M729.5307007999997 186.5L938.9809343999997 186.5"></path><path stroke-width="1" fill="none" stroke="#000000" stroke-dasharray="none" d="M729.5307007999997 196.5L938.9809343999997 196.5"></path><path stroke-width="1" fill="none" stroke="#000000" stroke-dasharray="none" d="M729.5307007999997 206.5L938.9809343999997 206.5"></path><rect stroke-width="0.3" fill="#000000" stroke="#000000" stroke-dasharray="none" x="933.9809343999997" y="166" width="1" height="41"></rect><rect stroke-width="0.3" fill="#000000" stroke="#000000" stroke-dasharray="none" x="936.9809343999997" y="166" width="3" height="41"></rect><path stroke-width="0.3" fill="#000000" stroke="none" stroke-dasharray="none" d="M932.9809343999997 182 A2 2 0 0 0 928.9809343999997 182M928.9809343999997 182 A2 2 0 0 0 932.9809343999997 182"></path><path stroke-width="0.3" fill="#000000" stroke="none" stroke-dasharray="none" d="M932.9809343999997 192 A2 2 0 0 0 928.9809343999997 192M928.9809343999997 192 A2 2 0 0 0 932.9809343999997 192"></path><g class="vf-stavenote" id="vf-auto346530"><g class="vf-note" pointer-events="bounding-box"><g class="vf-stem" pointer-events="bounding-box"><path stroke-width="1.5" fill="none" stroke="#000000" stroke-dasharray="none" class="vf-stem" id="vf-auto346530-stem" d="M757.7989407999997 201.5L757.7989407999997 166.5"></path></g><g class="vf-notehead" pointer-events="bounding-box"><path stroke-width="0.3" fill="#000000" stroke="none" stroke-dasharray="none" d="M746.5307007999997 201.5M753.8876607999997 196.27712C753.9999807999998 196.27712,754.1684607999997 196.27712,754.1965407999998 196.27712C754.1965407999998 196.27712,754.2246207999998 196.27712,754.2246207999998 196.27712C754.2246207999998 196.27712,754.3931007999997 196.27712,754.5335007999997 196.27712C757.0607007999997 196.41752,758.5489407999997 198.07424,758.5489407999997 200.15216C758.5489407999997 201.16304,758.2119807999998 202.31432,757.3695807999998 203.40944C755.7690207999998 205.5716,753.1575807999998 206.75096,750.8831007999997 206.75096C749.1140607999997 206.75096,747.5977407999998 206.04896,746.8676607999997 204.61688C746.6430207999997 204.05528,746.5307007999997 203.52176,746.5307007999997 202.93208C746.5307007999997 199.87136,749.9564607999997 196.47368,753.8876607999997 196.27712"></path></g></g><g class="vf-modifiers"></g></g><g class="vf-stavenote" id="vf-auto346538"><g class="vf-note" pointer-events="bounding-box"><g class="vf-stem" pointer-events="bounding-box"><path stroke-width="1.5" fill="none" stroke="#000000" stroke-dasharray="none" class="vf-stem" id="vf-auto346538-stem" d="M779.6140341333331 166.5L779.6140341333331 201.5"></path></g><g class="vf-notehead" pointer-events="bounding-box"><path stroke-width="0.3" fill="#000000" stroke="none" stroke-dasharray="none" d="M778.8640341333331 166.5M786.2209941333331 161.27712C786.3333141333331 161.27712,786.5017941333331 161.27712,786.5298741333331 161.27712C786.5298741333331 161.27712,786.5579541333332 161.27712,786.5579541333332 161.27712C786.5579541333332 161.27712,786.7264341333331 161.27712,786.8668341333331 161.27712C789.3940341333331 161.41752,790.8822741333331 163.07424,790.8822741333331 165.15216C790.8822741333331 166.16304,790.5453141333331 167.31432,789.7029141333331 168.40944C788.1023541333332 170.5716,785.4909141333331 171.75096,783.2164341333331 171.75096C781.4473941333331 171.75096,779.9310741333331 171.04896,779.2009941333331 169.61688C778.9763541333331 169.05528,778.8640341333331 168.52176,778.8640341333331 167.93208C778.8640341333331 164.87136,782.2897941333331 161.47368,786.2209941333331 161.27712"></path></g></g><g class="vf-modifiers"></g></g><g class="vf-stavenote" id="vf-auto346546"><g class="vf-note" pointer-events="bounding-box"><g class="vf-stem" pointer-events="bounding-box"><path stroke-width="1.5" fill="none" stroke="#000000" stroke-dasharray="none" class="vf-stem" id="vf-auto346546-stem" d="M876.6140341333331 176.5L876.6140341333331 211.5"></path></g><g class="vf-notehead" pointer-events="bounding-box"><path stroke-width="0.3" fill="#000000" stroke="none" stroke-dasharray="none" d="M875.8640341333331 176.5M883.2209941333331 171.27712C883.3333141333331 171.27712,883.5017941333331 171.27712,883.5298741333331 171.27712C883.5298741333331 171.27712,883.5579541333332 171.27712,883.5579541333332 171.27712C883.5579541333332 171.27712,883.7264341333331 171.27712,883.8668341333331 171.27712C886.3940341333331 171.41752,887.8822741333331 173.07424,887.8822741333331 175.15216C887.8822741333331 176.16304,887.5453141333331 177.31432,886.7029141333331 178.40944C885.1023541333332 180.5716,882.4909141333331 181.75096,880.2164341333331 181.75096C878.4473941333331 181.75096,876.9310741333331 181.04896,876.2009941333331 179.61688C875.9763541333331 179.05528,875.8640341333331 178.52176,875.8640341333331 177.93208C875.8640341333331 174.87136,879.2897941333331 171.47368,883.2209941333331 171.27712"></path></g></g><g class="vf-modifiers"></g></g><g class="vf-stavenote" id="vf-auto346554"><g class="vf-note" pointer-events="bounding-box"><g class="vf-stem" pointer-events="bounding-box"><path stroke-width="1.5" fill="none" stroke="#000000" stroke-dasharray="none" class="vf-stem" id="vf-auto346554-stem" d="M908.9473674666665 166.5L908.9473674666665 201.5"></path></g><g class="vf-notehead" pointer-events="bounding-box"><path stroke-width="0.3" fill="#000000" stroke="none" stroke-dasharray="none" d="M908.1973674666665 166.5M915.5543274666665 161.27712C915.6666474666665 161.27712,915.8351274666664 161.27712,915.8632074666665 161.27712C915.8632074666665 161.27712,915.8912874666665 161.27712,915.8912874666665 161.27712C915.8912874666665 161.27712,916.0597674666665 161.27712,916.2001674666665 161.27712C918.7273674666665 161.41752,920.2156074666665 163.07424,920.2156074666665 165.15216C920.2156074666665 166.16304,919.8786474666665 167.31432,919.0362474666665 168.40944C917.4356874666665 170.5716,914.8242474666665 171.75096,912.5497674666665 171.75096C910.7807274666665 171.75096,909.2644074666665 171.04896,908.5343274666665 169.61688C908.3096874666664 169.05528,908.1973674666665 168.52176,908.1973674666665 167.93208C908.1973674666665 164.87136,911.6231274666665 161.47368,915.5543274666665 161.27712"></path></g></g><g class="vf-modifiers"></g></g><g class="vf-text"><text stroke-width="0.3" fill="#000000" stroke="none" stroke-dasharray="none" font-family="Times New Roman" font-size="23px" font-weight="bold" font-style="italic" x="156.68" y="240.5">mp</text></g><path stroke-width="1" fill="none" stroke="#000000" stroke-dasharray="none" d="M70 275.29999999999995L334.83023359999993 275.29999999999995"></path><path stroke-width="1" fill="none" stroke="#000000" stroke-dasharray="none" d="M70 285.29999999999995L334.83023359999993 285.29999999999995"></path><path stroke-width="1" fill="none" stroke="#000000" stroke-dasharray="none" d="M70 295.29999999999995L334.83023359999993 295.29999999999995"></path><path stroke-width="1" fill="none" stroke="#000000" stroke-dasharray="none" d="M70 305.29999999999995L334.83023359999993 305.29999999999995"></path><path stroke-width="1" fill="none" stroke="#000000" stroke-dasharray="none" d="M70 315.29999999999995L334.83023359999993 315.29999999999995"></path><rect stroke-width="0.3" fill="#000000" stroke="#000000" stroke-dasharray="none" x="334.83023359999993" y="274.79999999999995" width="1" height="41"></rect><g class="vf-clef"><path stroke-width="0.3" fill="#000000" stroke="none" stroke-dasharray="none" d="M75 285.29999999999995M83.8416 275.24879999999996C84.072 275.1912,84.3024 275.1912,84.5616 275.1912C85.5696 275.1912,86.7504 275.30639999999994,87.7584 275.508C92.4816 276.4872,95.736 279.68399999999997,96.3408 283.9464C96.3984 284.40719999999993,96.4272 284.83919999999995,96.4272 285.29999999999995C96.4272 287.89199999999994,95.5344 291.23279999999994,94.008 294.02639999999997C90.3792 300.59279999999995,83.7552 305.316,75.8064 307.044C75.6624 307.044,75.5472 307.0728,75.4032 307.0728C75.1152 307.0728,74.9712 306.9,74.9712 306.64079999999996C74.9712 306.35279999999995,75.0288 306.2664,75.6048 306.03599999999994C84.7056 302.6088,90.7824 295.20719999999994,91.3296 286.91279999999995C91.3584 286.48079999999993,91.3584 285.99119999999994,91.3584 285.61679999999996C91.3584 281.5848,90.12 278.58959999999996,87.7296 277.0919999999999C86.6928 276.42959999999994,85.5696 276.11279999999994,84.36 276.11279999999994C81.6816 276.11279999999994,78.9456 277.63919999999996,77.6784 280.20239999999995C77.6208 280.40399999999994,77.4192 280.83599999999996,77.4192 280.86479999999995C77.4192 280.86479999999995,77.4192 280.86479999999995,77.4192 280.86479999999995C77.4192 280.86479999999995,77.448 280.83599999999996,77.5344 280.80719999999997C78.168 280.40399999999994,78.8592 280.20239999999995,79.5792 280.20239999999995C80.5872 280.20239999999995,81.6528 280.63439999999997,82.4016 281.44079999999997C83.0928 282.1895999999999,83.4672 283.19759999999997,83.4672 284.1192C83.4672 285.99119999999994,82.0848 287.89199999999994,79.9248 288.0936C79.7808 288.0936,79.6368 288.12239999999997,79.4928 288.12239999999997C77.1024 288.12239999999997,75.1728 285.93359999999996,75.1728 283.1688C75.1728 283.11119999999994,75.1728 283.02479999999997,75.1728 282.996C75.288 278.8776,79.0608 275.508,83.8416 275.24879999999996M99.1632 279.10799999999995C99.2208 279.07919999999996,99.2496 279.07919999999996,99.336 279.07919999999996C99.5376 279.07919999999996,99.768 279.10799999999995,99.8256 279.1655999999999C100.54560000000001 279.36719999999997,100.8912 280.00079999999997,100.8912 280.6056C100.8912 281.12399999999997,100.632 281.64239999999995,100.11359999999999 281.93039999999996C99.912 282.07439999999997,99.6528 282.10319999999996,99.39359999999999 282.10319999999996C98.9904 282.10319999999996,98.5584 281.93039999999996,98.2704 281.5559999999999C98.03999999999999 281.268,97.9248 280.9512,97.9248 280.63439999999997C97.9248 279.91439999999994,98.3856 279.1944,99.1632 279.10799999999995M99.1632 288.52559999999994C99.2208 288.52559999999994,99.2496 288.52559999999994,99.336 288.52559999999994C99.5376 288.52559999999994,99.768 288.55439999999993,99.8256 288.61199999999997C100.54560000000001 288.81359999999995,100.8912 289.44719999999995,100.8912 290.05199999999996C100.8912 290.57039999999995,100.632 291.08879999999994,100.11359999999999 291.34799999999996C99.912 291.49199999999996,99.6528 291.54959999999994,99.39359999999999 291.54959999999994C98.9904 291.54959999999994,98.5584 291.34799999999996,98.2704 291.00239999999997C98.03999999999999 290.71439999999996,97.9248 290.39759999999995,97.9248 290.05199999999996C97.9248 289.33199999999994,98.3856 288.64079999999996,99.1632 288.52559999999994"></path></g><path stroke-width="0.3" fill="#000000" stroke="none" stroke-dasharray="none" d="M116 295.29999999999995M123.344 276.63759999999996C123.4592 276.63759999999996,123.6608 276.63759999999996,123.8912 276.63759999999996C124.2944 276.63759999999996,124.8416 276.63759999999996,125.0432 276.69519999999994C126.7712 276.95439999999996,128.6144 278.1928,128.96 279.316C129.0464 279.57519999999994,129.0752 279.80559999999997,129.0752 280.03599999999994C129.0752 281.33199999999994,127.9808 282.31119999999993,126.8 282.31119999999993C126.3392 282.31119999999993,125.8784 282.19599999999997,125.4464 281.8504C124.928 281.3896,124.64 280.81359999999995,124.64 280.15119999999996C124.64 279.25839999999994,125.1872 278.3367999999999,126.13759999999999 278.07759999999996C126.224 278.07759999999996,126.25280000000001 278.04879999999997,126.25280000000001 278.04879999999997C126.25280000000001 278.04879999999997,126.224 277.99119999999994,126.13759999999999 277.96239999999995C125.504 277.67439999999993,124.8704 277.5592,124.2944 277.5592C123.4016 277.5592,122.624 277.876,122.048 278.48079999999993C121.4432 279.20079999999996,121.0112 280.66959999999995,120.7232 282.82959999999997C120.6944 283.34799999999996,120.608 284.32719999999995,120.608 284.52879999999993C120.608 284.52879999999993,120.608 284.52879999999993,120.608 284.52879999999993C120.608 284.52879999999993,120.608 284.52879999999993,120.608 284.52879999999993C120.608 284.52879999999993,120.7232 284.47119999999995,120.83840000000001 284.44239999999996C121.76 284.068,122.5664 283.924,123.4304 283.924C124.4672 283.924,125.4464 284.15439999999995,126.5408 284.7304C128.5568 285.70959999999997,129.68 287.14959999999996,129.68 288.8776C129.68 289.10799999999995,129.6224 289.36719999999997,129.5936 289.62639999999993C129.3056 291.2392,128.0672 292.56399999999996,126.0512 293.42799999999994C125.1296 293.83119999999997,124.2944 294.06159999999994,123.4592 294.06159999999994C122.624 294.06159999999994,121.76 293.8024,120.8096 293.3128C118.304 292.0456,116.576 289.68399999999997,116.1152 286.948C116.0288 286.40079999999995,116 285.8536,116 285.24879999999996C116 284.03919999999994,116.1728 282.82959999999997,116.576 281.8504C117.6704 279.08559999999994,120.464 276.95439999999996,123.344 276.63759999999996M123.74719999999999 284.84559999999993C123.632 284.84559999999993,123.5168 284.84559999999993,123.4016 284.84559999999993C122.7968 284.84559999999993,122.336 285.0472,122.048 285.364C121.6448 285.96879999999993,121.35679999999999 287.46639999999996,121.35679999999999 288.79119999999995C121.35679999999999 289.07919999999996,121.35679999999999 289.36719999999997,121.3856 289.59759999999994C121.5008 290.9512,121.8176 292.07439999999997,122.1344 292.56399999999996C122.3648 292.90959999999995,122.8544 293.11119999999994,123.4016 293.11119999999994C123.5168 293.11119999999994,123.6608 293.11119999999994,123.776 293.08239999999995C124.6112 292.96719999999993,124.928 292.44879999999995,125.2448 290.80719999999997C125.3888 290.02959999999996,125.4752 289.36719999999997,125.4752 288.7048C125.4752 288.04239999999993,125.3888 287.4087999999999,125.2448 286.6312C124.9568 285.45039999999995,124.5824 284.96079999999995,123.74719999999999 284.84559999999993M122.7968 295.32879999999994L122.8544 295.32879999999994L122.768 295.32879999999994L122.7968 295.32879999999994M122.7968 275.91759999999994L122.8544 275.91759999999994L122.768 275.91759999999994L122.7968 275.91759999999994"></path><path stroke-width="0.3" fill="#000000" stroke="none" stroke-dasharray="none" d="M116.1008 315.29999999999995M121.11200000000001 296.95439999999996C121.14080000000001 296.9256,121.54400000000001 296.9256,122.78240000000001 296.9256C123.1568 296.9256,123.56 296.9256,124.0784 296.9256L126.9872 296.9256L127.0736 297.01199999999994C127.2176 297.09839999999997,127.304 297.2424,127.304 297.35759999999993C127.304 297.53039999999993,127.2176 297.64559999999994,127.1024 297.76079999999996C127.0736 297.84719999999993,126.8144 298.07759999999996,126.64160000000001 298.3367999999999L125.1152 300.0936L123.1568 302.31119999999993L122.12 303.49199999999996L120.5648 305.27759999999995L118.52000000000001 307.61039999999997C118.1744 308.04239999999993,117.80000000000001 308.388,117.80000000000001 308.388C117.80000000000001 308.388,117.80000000000001 308.388,117.80000000000001 308.388C117.80000000000001 308.44559999999996,118.0592 308.44559999999996,120.4496 308.44559999999996L123.0704 308.44559999999996L123.0704 306.57359999999994C123.0704 304.67279999999994,123.0704 304.64399999999995,123.09920000000001 304.61519999999996C123.1568 304.52879999999993,123.41600000000001 304.21199999999993,124.424 303.03119999999996L124.8272 302.59919999999994L125.2304 302.1672L125.8352 301.3896L126.4688 300.7272L126.7856 300.32399999999996C126.9008 300.15119999999996,127.0736 300.12239999999997,127.2176 300.12239999999997C127.3904 300.12239999999997,127.5344 300.20879999999994,127.6208 300.35279999999995C127.6496 300.43919999999997,127.6496 300.49679999999995,127.6496 302.62799999999993C127.6496 303.1176,127.6496 303.72239999999994,127.6496 304.44239999999996L127.6496 308.44559999999996L128.3696 308.44559999999996C129.032 308.44559999999996,129.0608 308.44559999999996,129.1472 308.47439999999995C129.3776 308.5608,129.49280000000002 308.79119999999995,129.49280000000002 309.05039999999997C129.49280000000002 309.1944,129.464 309.36719999999997,129.3488 309.4823999999999C129.17600000000002 309.62639999999993,129.1472 309.62639999999993,128.3696 309.62639999999993L127.6496 309.62639999999993L127.6496 310.11599999999993C127.67840000000001 311.5848,127.96640000000001 312.16079999999994,129.08960000000002 312.76559999999995C129.49280000000002 312.96719999999993,129.57920000000001 313.02479999999997,129.57920000000001 313.3128C129.57920000000001 313.51439999999997,129.5216 313.60079999999994,129.3776 313.71599999999995L129.2912 313.74479999999994L125.3456 313.74479999999994L121.42880000000001 313.74479999999994L121.34240000000001 313.71599999999995C121.1696 313.60079999999994,121.14080000000001 313.51439999999997,121.14080000000001 313.3128C121.14080000000001 313.02479999999997,121.1696 312.96719999999993,121.6016 312.76559999999995C122.7248 312.16079999999994,123.01280000000001 311.5848,123.01280000000001 310.11599999999993L123.01280000000001 309.62639999999993L119.7008 309.62639999999993C119.096 309.68399999999997,118.60640000000001 309.68399999999997,118.20320000000001 309.68399999999997C116.3888 309.68399999999997,116.36000000000001 309.62639999999993,116.33120000000001 309.62639999999993C116.1584 309.56879999999995,116.1008 309.39599999999996,116.1008 309.1944C116.1008 309.1944,116.1008 309.1944,116.1008 309.1944C116.1008 308.99279999999993,116.1008 308.99279999999993,116.6768 308.33039999999994C119.096 305.39279999999997,120.79520000000001 301.13039999999995,120.79520000000001 297.73199999999997C120.79520000000001 297.21359999999993,120.8816 297.04079999999993,121.11200000000001 296.95439999999996M122.84 315.32879999999994L122.86880000000001 315.32879999999994L122.78240000000001 315.32879999999994L122.84 315.32879999999994M122.84 295.91759999999994L122.86880000000001 295.91759999999994L122.78240000000001 295.91759999999994L122.84 295.91759999999994"></path><g class="vf-stavenote" id="vf-auto346373"><g class="vf-note" pointer-events="bounding-box"><g class="vf-stem" pointer-events="bounding-box"><path stroke-width="1.5" fill="none" stroke="#000000" stroke-dasharray="none" class="vf-stem" id="vf-auto346373-stem" d="M142.43 280.29999999999995L142.43 315.29999999999995"></path></g><g class="vf-notehead" pointer-events="bounding-box"><path stroke-width="0.3" fill="#000000" stroke="none" stroke-dasharray="none" d="M141.68 280.29999999999995M149.03696 275.07712C149.14928 275.07712,149.31776000000002 275.07712,149.34584 275.07712C149.34584 275.07712,149.37392 275.07712,149.37392 275.07712C149.37392 275.07712,149.54240000000001 275.07712,149.68280000000001 275.07712C152.21 275.21752,153.69824 276.87423999999993,153.69824 278.95215999999994C153.69824 279.96304,153.36128000000002 281.11431999999996,152.51888 282.20944C150.91832 284.37159999999994,148.30688 285.55096,146.0324 285.55096C144.26336 285.55096,142.74704 284.84896,142.01696 283.41687999999994C141.79232000000002 282.85527999999994,141.68 282.3217599999999,141.68 281.73207999999994C141.68 278.67135999999994,145.10576 275.27367999999996,149.03696 275.07712"></path></g></g><g class="vf-modifiers"></g></g><path stroke-width="1" fill="none" stroke="#000000" stroke-dasharray="none" d="M171.06666666666666 265.29999999999995L189.08490666666665 265.29999999999995"></path><g class="vf-stavenote" id="vf-auto346381"><g class="vf-note" pointer-events="bounding-box"><g class="vf-stem" pointer-events="bounding-box"><path stroke-width="1.5" fill="none" stroke="#000000" stroke-dasharray="none" class="vf-stem" id="vf-auto346381-stem" d="M174.81666666666666 260.29999999999995L174.81666666666666 295.29999999999995"></path></g><g class="vf-notehead" pointer-events="bounding-box"><path stroke-width="0.3" fill="#000000" stroke="none" stroke-dasharray="none" d="M174.06666666666666 260.29999999999995M181.42362666666665 255.07711999999995C181.53594666666666 255.07711999999995,181.70442666666668 255.07711999999995,181.73250666666667 255.07711999999995C181.73250666666667 255.07711999999995,181.76058666666665 255.07711999999995,181.76058666666665 255.07711999999995C181.76058666666665 255.07711999999995,181.92906666666667 255.07711999999995,182.06946666666667 255.07711999999995C184.59666666666666 255.21751999999995,186.08490666666665 256.87423999999993,186.08490666666665 258.95215999999994C186.08490666666665 259.96304,185.74794666666668 261.11431999999996,184.90554666666665 262.20944C183.30498666666665 264.37159999999994,180.69354666666666 265.55096,178.41906666666665 265.55096C176.65002666666666 265.55096,175.13370666666665 264.84896,174.40362666666667 263.41687999999994C174.17898666666667 262.85527999999994,174.06666666666666 262.3217599999999,174.06666666666666 261.73207999999994C174.06666666666666 258.67135999999994,177.49242666666666 255.27367999999996,181.42362666666665 255.07711999999995"></path></g></g><g class="vf-modifiers"></g></g><g class="vf-stavenote" id="vf-auto346389"><g class="vf-note" pointer-events="bounding-box"><g class="vf-stem" pointer-events="bounding-box"><path stroke-width="1.5" fill="none" stroke="#000000" stroke-dasharray="none" class="vf-stem" id="vf-auto346389-stem" d="M207.20333333333335 285.29999999999995L207.20333333333335 320.29999999999995"></path></g><g class="vf-notehead" pointer-events="bounding-box"><path stroke-width="0.3" fill="#000000" stroke="none" stroke-dasharray="none" d="M206.45333333333335 285.29999999999995M213.81029333333333 280.07712C213.92261333333335 280.07712,214.09109333333333 280.07712,214.11917333333335 280.07712C214.11917333333335 280.07712,214.14725333333334 280.07712,214.14725333333334 280.07712C214.14725333333334 280.07712,214.31573333333336 280.07712,214.45613333333336 280.07712C216.98333333333335 280.21752,218.47157333333334 281.87423999999993,218.47157333333334 283.95215999999994C218.47157333333334 284.96304,218.13461333333333 286.11431999999996,217.29221333333334 287.20944C215.69165333333333 289.37159999999994,213.08021333333335 290.55096,210.80573333333334 290.55096C209.03669333333335 290.55096,207.52037333333334 289.84896,206.79029333333335 288.41687999999994C206.56565333333336 287.85527999999994,206.45333333333335 287.3217599999999,206.45333333333335 286.73207999999994C206.45333333333335 283.67135999999994,209.87909333333334 280.27367999999996,213.81029333333333 280.07712"></path></g></g><g class="vf-modifiers"></g></g><g class="vf-stavenote" id="vf-auto346397"><g class="vf-note" pointer-events="bounding-box"><g class="vf-stem" pointer-events="bounding-box"><path stroke-width="1.5" fill="none" stroke="#000000" stroke-dasharray="none" class="vf-stem" id="vf-auto346397-stem" d="M239.59 275.29999999999995L239.59 310.29999999999995"></path></g><g class="vf-notehead" pointer-events="bounding-box"><path stroke-width="0.3" fill="#000000" stroke="none" stroke-dasharray="none" d="M238.84 275.29999999999995M246.19696 270.07712C246.30928 270.07712,246.47776 270.07712,246.50584 270.07712C246.50584 270.07712,246.53392 270.07712,246.53392 270.07712C246.53392 270.07712,246.7024 270.07712,246.8428 270.07712C249.37 270.21752,250.85824 271.87423999999993,250.85824 273.95215999999994C250.85824 274.96304,250.52128 276.11431999999996,249.67888 277.20944C248.07832 279.37159999999994,245.46688 280.55096,243.1924 280.55096C241.42336 280.55096,239.90704 279.84896,239.17696 278.41687999999994C238.95232000000001 277.85527999999994,238.84 277.3217599999999,238.84 276.73207999999994C238.84 273.67135999999994,242.26576 270.27367999999996,246.19696 270.07712"></path></g></g><g class="vf-modifiers"></g></g><g class="vf-stavenote" id="vf-auto346405"><g class="vf-note" pointer-events="bounding-box"><g class="vf-stem" pointer-events="bounding-box"><path stroke-width="1.5" fill="none" stroke="#000000" stroke-dasharray="none" class="vf-stem" id="vf-auto346405-stem" d="M282.4949066666667 300.29999999999995L282.4949066666667 265.29999999999995"></path></g><g class="vf-notehead" pointer-events="bounding-box"><path stroke-width="0.3" fill="#000000" stroke="none" stroke-dasharray="none" d="M271.2266666666667 300.29999999999995M278.5836266666667 295.07712C278.6959466666667 295.07712,278.8644266666667 295.07712,278.8925066666667 295.07712C278.8925066666667 295.07712,278.9205866666667 295.07712,278.9205866666667 295.07712C278.9205866666667 295.07712,279.08906666666667 295.07712,279.22946666666667 295.07712C281.75666666666666 295.21752,283.2449066666667 296.87423999999993,283.2449066666667 298.95215999999994C283.2449066666667 299.96304,282.9079466666667 301.11431999999996,282.0655466666667 302.20944C280.4649866666667 304.37159999999994,277.8535466666667 305.55096,275.5790666666667 305.55096C273.8100266666667 305.55096,272.2937066666667 304.84896,271.56362666666666 303.41687999999994C271.3389866666667 302.85527999999994,271.2266666666667 302.3217599999999,271.2266666666667 301.73207999999994C271.2266666666667 298.67135999999994,274.6524266666667 295.27367999999996,278.5836266666667 295.07712"></path></g></g><g class="vf-modifiers"></g></g><g class="vf-stavenote" id="vf-auto346413"><g class="vf-note" pointer-events="bounding-box"><g class="vf-stem" pointer-events="bounding-box"><path stroke-width="1.5" fill="none" stroke="#000000" stroke-dasharray="none" class="vf-stem" id="vf-auto346413-stem" d="M314.88157333333334 300.29999999999995L314.88157333333334 265.29999999999995"></path></g><g class="vf-notehead" pointer-events="bounding-box"><path stroke-width="0.3" fill="#000000" stroke="none" stroke-dasharray="none" d="M303.61333333333334 300.29999999999995M310.97029333333336 295.07712C311.08261333333337 295.07712,311.25109333333336 295.07712,311.27917333333335 295.07712C311.27917333333335 295.07712,311.30725333333334 295.07712,311.30725333333334 295.07712C311.30725333333334 295.07712,311.4757333333333 295.07712,311.6161333333333 295.07712C314.1433333333333 295.21752,315.63157333333334 296.87423999999993,315.63157333333334 298.95215999999994C315.63157333333334 299.96304,315.29461333333336 301.11431999999996,314.45221333333336 302.20944C312.85165333333333 304.37159999999994,310.2402133333334 305.55096,307.96573333333333 305.55096C306.19669333333337 305.55096,304.68037333333336 304.84896,303.9502933333333 303.41687999999994C303.72565333333336 302.85527999999994,303.61333333333334 302.3217599999999,303.61333333333334 301.73207999999994C303.61333333333334 298.67135999999994,307.03909333333337 295.27367999999996,310.97029333333336 295.07712"></path></g></g><g class="vf-modifiers"></g></g><rect stroke-width="0.3" fill="#000000" stroke="#000000" stroke-dasharray="none" x="334.83023359999993" y="166.5" width="1" height="149.79999999999995"></rect><rect stroke-width="0.3" fill="#000000" stroke="#000000" stroke-dasharray="none" x="70" y="166.5" width="1" height="149.79999999999995"></rect><path stroke-width="1" fill="none" stroke="#000000" stroke-dasharray="none" d="M334.83023359999993 275.29999999999995L534.2804671999999 275.29999999999995"></path><path stroke-width="1" fill="none" stroke="#000000" stroke-dasharray="none" d="M334.83023359999993 285.29999999999995L534.2804671999999 285.29999999999995"></path><path stroke-width="1" fill="none" stroke="#000000" stroke-dasharray="none" d="M334.83023359999993 295.29999999999995L534.2804671999999 295.29999999999995"></path><path stroke-width="1" fill="none" stroke="#000000" stroke-dasharray="none" d="M334.83023359999993 305.29999999999995L534.2804671999999 305.29999999999995"></path><path stroke-width="1" fill="none" stroke="#000000" stroke-dasharray="none" d="M334.83023359999993 315.29999999999995L534.2804671999999 315.29999999999995"></path><rect stroke-width="0.3" fill="#000000" stroke="#000000" stroke-dasharray="none" x="534.2804671999999" y="274.79999999999995" width="1" height="41"></rect><path stroke-width="1" fill="none" stroke="#000000" stroke-dasharray="none" d="M379.4969002666666 265.29999999999995L397.5151402666666 265.29999999999995"></path><g class="vf-stavenote" id="vf-auto346456"><g class="vf-note" pointer-events="bounding-box"><g class="vf-stem" pointer-events="bounding-box"><path stroke-width="1.5" fill="none" stroke="#000000" stroke-dasharray="none" class="vf-stem" id="vf-auto346456-stem" d="M383.2469002666666 265.29999999999995L383.2469002666666 300.29999999999995"></path></g><g class="vf-notehead" pointer-events="bounding-box"><path stroke-width="0.3" fill="#000000" stroke="none" stroke-dasharray="none" d="M382.4969002666666 265.29999999999995M389.85386026666663 260.07712C389.96618026666664 260.07712,390.13466026666663 260.07712,390.1627402666666 260.07712C390.1627402666666 260.07712,390.1908202666666 260.07712,390.1908202666666 260.07712C390.1908202666666 260.07712,390.3593002666666 260.07712,390.4997002666666 260.07712C393.02690026666664 260.21752,394.5151402666666 261.87423999999993,394.5151402666666 263.95215999999994C394.5151402666666 264.96304,394.17818026666663 266.11431999999996,393.33578026666663 267.20944C391.7352202666666 269.37159999999994,389.1237802666666 270.55096,386.8493002666666 270.55096C385.08026026666664 270.55096,383.56394026666663 269.84896,382.8338602666666 268.41687999999994C382.6092202666666 267.85527999999994,382.4969002666666 267.3217599999999,382.4969002666666 266.73207999999994C382.4969002666666 263.67135999999994,385.92266026666664 260.27367999999996,389.85386026666663 260.07712"></path></g></g><g class="vf-modifiers"></g></g><path stroke-width="1" fill="none" stroke="#000000" stroke-dasharray="none" d="M410.1635669333333 265.29999999999995L428.1818069333333 265.29999999999995"></path><g class="vf-stavenote" id="vf-auto346464"><g class="vf-note" pointer-events="bounding-box"><g class="vf-stem" pointer-events="bounding-box"><path stroke-width="1.5" fill="none" stroke="#000000" stroke-dasharray="none" class="vf-stem" id="vf-auto346464-stem" d="M413.9135669333333 260.29999999999995L413.9135669333333 295.29999999999995"></path></g><g class="vf-notehead" pointer-events="bounding-box"><path stroke-width="0.3" fill="#000000" stroke="none" stroke-dasharray="none" d="M413.1635669333333 260.29999999999995M420.5205269333333 255.07711999999995C420.6328469333333 255.07711999999995,420.8013269333333 255.07711999999995,420.8294069333333 255.07711999999995C420.8294069333333 255.07711999999995,420.8574869333333 255.07711999999995,420.8574869333333 255.07711999999995C420.8574869333333 255.07711999999995,421.0259669333333 255.07711999999995,421.1663669333333 255.07711999999995C423.6935669333333 255.21751999999995,425.1818069333333 256.87423999999993,425.1818069333333 258.95215999999994C425.1818069333333 259.96304,424.8448469333333 261.11431999999996,424.0024469333333 262.20944C422.4018869333333 264.37159999999994,419.7904469333333 265.55096,417.5159669333333 265.55096C415.7469269333333 265.55096,414.2306069333333 264.84896,413.5005269333333 263.41687999999994C413.2758869333333 262.85527999999994,413.1635669333333 262.3217599999999,413.1635669333333 261.73207999999994C413.1635669333333 258.67135999999994,416.5893269333333 255.27367999999996,420.5205269333333 255.07711999999995"></path></g></g><g class="vf-modifiers"></g></g><rect stroke-width="0.3" fill="#000000" stroke="#000000" stroke-dasharray="none" x="534.2804671999999" y="166.5" width="1" height="149.79999999999995"></rect><path stroke-width="1" fill="none" stroke="#000000" stroke-dasharray="none" d="M534.2804671999999 275.29999999999995L729.5307007999997 275.29999999999995"></path><path stroke-width="1" fill="none" stroke="#000000" stroke-dasharray="none" d="M534.2804671999999 285.29999999999995L729.5307007999997 285.29999999999995"></path><path stroke-width="1" fill="none" stroke="#000000" stroke-dasharray="none" d="M534.2804671999999 295.29999999999995L729.5307007999997 295.29999999999995"></path><path stroke-width="1" fill="none" stroke="#000000" stroke-dasharray="none" d="M534.2804671999999 305.29999999999995L729.5307007999997 305.29999999999995"></path><path stroke-width="1" fill="none" stroke="#000000" stroke-dasharray="none" d="M534.2804671999999 315.29999999999995L729.5307007999997 315.29999999999995"></path><rect stroke-width="0.3" fill="#000000" stroke="#000000" stroke-dasharray="none" x="729.5307007999997" y="274.79999999999995" width="1" height="41"></rect><g class="vf-stavenote" id="vf-auto346503"><g class="vf-note" pointer-events="bounding-box"><g class="vf-stem" pointer-events="bounding-box"><path stroke-width="1.5" fill="none" stroke="#000000" stroke-dasharray="none" class="vf-stem" id="vf-auto346503-stem" d="M562.5487071999999 310.29999999999995L562.5487071999999 275.29999999999995"></path></g><g class="vf-notehead" pointer-events="bounding-box"><path stroke-width="0.3" fill="#000000" stroke="none" stroke-dasharray="none" d="M551.2804671999999 310.29999999999995M558.6374271999998 305.07712C558.7497471999999 305.07712,558.9182271999998 305.07712,558.9463071999999 305.07712C558.9463071999999 305.07712,558.9743871999999 305.07712,558.9743871999999 305.07712C558.9743871999999 305.07712,559.1428671999998 305.07712,559.2832671999998 305.07712C561.8104671999998 305.21752,563.2987071999999 306.87423999999993,563.2987071999999 308.95215999999994C563.2987071999999 309.96304,562.9617471999999 311.11431999999996,562.1193471999999 312.20944C560.5187871999999 314.37159999999994,557.9073471999999 315.55096,555.6328671999999 315.55096C553.8638271999998 315.55096,552.3475071999999 314.84896,551.6174271999998 313.41687999999994C551.3927871999998 312.85527999999994,551.2804671999999 312.3217599999999,551.2804671999999 311.73207999999994C551.2804671999999 308.67135999999994,554.7062271999998 305.27367999999996,558.6374271999998 305.07712"></path></g></g><g class="vf-modifiers"></g></g><g class="vf-stavenote" id="vf-auto346511"><g class="vf-note" pointer-events="bounding-box"><g class="vf-stem" pointer-events="bounding-box"><path stroke-width="1.5" fill="none" stroke="#000000" stroke-dasharray="none" class="vf-stem" id="vf-auto346511-stem" d="M652.5487071999999 315.29999999999995L652.5487071999999 280.29999999999995"></path></g><g class="vf-notehead" pointer-events="bounding-box"><path stroke-width="0.3" fill="#000000" stroke="none" stroke-dasharray="none" d="M641.2804671999999 315.29999999999995M648.6374271999998 310.07712C648.7497471999999 310.07712,648.9182271999998 310.07712,648.9463071999999 310.07712C648.9463071999999 310.07712,648.9743871999999 310.07712,648.9743871999999 310.07712C648.9743871999999 310.07712,649.1428671999998 310.07712,649.2832671999998 310.07712C651.8104671999998 310.21752,653.2987071999999 311.87423999999993,653.2987071999999 313.95215999999994C653.2987071999999 314.96304,652.9617471999999 316.11431999999996,652.1193471999999 317.20944C650.5187871999999 319.37159999999994,647.9073471999999 320.55096,645.6328671999999 320.55096C643.8638271999998 320.55096,642.3475071999999 319.84896,641.6174271999998 318.41687999999994C641.3927871999998 317.85527999999994,641.2804671999999 317.3217599999999,641.2804671999999 316.73207999999994C641.2804671999999 313.67135999999994,644.7062271999998 310.27367999999996,648.6374271999998 310.07712"></path></g></g><g class="vf-modifiers"></g></g><g class="vf-stavenote" id="vf-auto346519"><g class="vf-note" pointer-events="bounding-box"><g class="vf-stem" pointer-events="bounding-box"><path stroke-width="1.5" fill="none" stroke="#000000" stroke-dasharray="none" class="vf-stem" id="vf-auto346519-stem" d="M682.5487071999999 315.29999999999995L682.5487071999999 280.29999999999995"></path></g><g class="vf-notehead" pointer-events="bounding-box"><path stroke-width="0.3" fill="#000000" stroke="none" stroke-dasharray="none" d="M671.2804671999999 315.29999999999995M678.6374271999998 310.07712C678.7497471999999 310.07712,678.9182271999998 310.07712,678.9463071999999 310.07712C678.9463071999999 310.07712,678.9743871999999 310.07712,678.9743871999999 310.07712C678.9743871999999 310.07712,679.1428671999998 310.07712,679.2832671999998 310.07712C681.8104671999998 310.21752,683.2987071999999 311.87423999999993,683.2987071999999 313.95215999999994C683.2987071999999 314.96304,682.9617471999999 316.11431999999996,682.1193471999999 317.20944C680.5187871999999 319.37159999999994,677.9073471999999 320.55096,675.6328671999999 320.55096C673.8638271999998 320.55096,672.3475071999999 319.84896,671.6174271999998 318.41687999999994C671.3927871999998 317.85527999999994,671.2804671999999 317.3217599999999,671.2804671999999 316.73207999999994C671.2804671999999 313.67135999999994,674.7062271999998 310.27367999999996,678.6374271999998 310.07712"></path></g></g><g class="vf-modifiers"></g></g><rect stroke-width="0.3" fill="#000000" stroke="#000000" stroke-dasharray="none" x="729.5307007999997" y="166.5" width="1" height="149.79999999999995"></rect><path stroke-width="1" fill="none" stroke="#000000" stroke-dasharray="none" d="M729.5307007999997 275.29999999999995L938.9809343999997 275.29999999999995"></path><path stroke-width="1" fill="none" stroke="#000000" stroke-dasharray="none" d="M729.5307007999997 285.29999999999995L938.9809343999997 285.29999999999995"></path><path stroke-width="1" fill="none" stroke="#000000" stroke-dasharray="none" d="M729.5307007999997 295.29999999999995L938.9809343999997 295.29999999999995"></path><path stroke-width="1" fill="none" stroke="#000000" stroke-dasharray="none" d="M729.5307007999997 305.29999999999995L938.9809343999997 305.29999999999995"></path><path stroke-width="1" fill="none" stroke="#000000" stroke-dasharray="none" d="M729.5307007999997 315.29999999999995L938.9809343999997 315.29999999999995"></path><rect stroke-width="0.3" fill="#000000" stroke="#000000" stroke-dasharray="none" x="933.9809343999997" y="274.79999999999995" width="1" height="41"></rect><rect stroke-width="0.3" fill="#000000" stroke="#000000" stroke-dasharray="none" x="936.9809343999997" y="274.79999999999995" width="3" height="41"></rect><path stroke-width="0.3" fill="#000000" stroke="none" stroke-dasharray="none" d="M932.9809343999997 290.79999999999995 A2 2 0 0 0 928.9809343999997 290.79999999999995M928.9809343999997 290.79999999999995 A2 2 0 0 0 932.9809343999997 290.79999999999995"></path><path stroke-width="0.3" fill="#000000" stroke="none" stroke-dasharray="none" d="M932.9809343999997 300.79999999999995 A2 2 0 0 0 928.9809343999997 300.79999999999995M928.9809343999997 300.79999999999995 A2 2 0 0 0 932.9809343999997 300.79999999999995"></path><path stroke-width="1" fill="none" stroke="#000000" stroke-dasharray="none" d="M808.1973674666664 265.29999999999995L826.2156074666664 265.29999999999995"></path><g class="vf-stavenote" id="vf-auto346564"><g class="vf-note" pointer-events="bounding-box"><g class="vf-stem" pointer-events="bounding-box"><path stroke-width="1.5" fill="none" stroke="#000000" stroke-dasharray="none" class="vf-stem" id="vf-auto346564-stem" d="M811.9473674666664 260.29999999999995L811.9473674666664 295.29999999999995"></path></g><g class="vf-notehead" pointer-events="bounding-box"><path stroke-width="0.3" fill="#000000" stroke="none" stroke-dasharray="none" d="M811.1973674666664 260.29999999999995M818.5543274666663 255.07711999999995C818.6666474666664 255.07711999999995,818.8351274666663 255.07711999999995,818.8632074666664 255.07711999999995C818.8632074666664 255.07711999999995,818.8912874666664 255.07711999999995,818.8912874666664 255.07711999999995C818.8912874666664 255.07711999999995,819.0597674666664 255.07711999999995,819.2001674666664 255.07711999999995C821.7273674666664 255.21751999999995,823.2156074666664 256.87423999999993,823.2156074666664 258.95215999999994C823.2156074666664 259.96304,822.8786474666664 261.11431999999996,822.0362474666664 262.20944C820.4356874666664 264.37159999999994,817.8242474666664 265.55096,815.5497674666664 265.55096C813.7807274666663 265.55096,812.2644074666664 264.84896,811.5343274666664 263.41687999999994C811.3096874666663 262.85527999999994,811.1973674666664 262.3217599999999,811.1973674666664 261.73207999999994C811.1973674666664 258.67135999999994,814.6231274666663 255.27367999999996,818.5543274666663 255.07711999999995"></path></g></g><g class="vf-modifiers"></g></g><g class="vf-stavenote" id="vf-auto346572"><g class="vf-note" pointer-events="bounding-box"><g class="vf-stem" pointer-events="bounding-box"><path stroke-width="1.5" fill="none" stroke="#000000" stroke-dasharray="none" class="vf-stem" id="vf-auto346572-stem" d="M854.7989407999997 310.29999999999995L854.7989407999997 275.29999999999995"></path></g><g class="vf-notehead" pointer-events="bounding-box"><path stroke-width="0.3" fill="#000000" stroke="none" stroke-dasharray="none" d="M843.5307007999997 310.29999999999995M850.8876607999997 305.07712C850.9999807999998 305.07712,851.1684607999997 305.07712,851.1965407999998 305.07712C851.1965407999998 305.07712,851.2246207999998 305.07712,851.2246207999998 305.07712C851.2246207999998 305.07712,851.3931007999997 305.07712,851.5335007999997 305.07712C854.0607007999997 305.21752,855.5489407999997 306.87423999999993,855.5489407999997 308.95215999999994C855.5489407999997 309.96304,855.2119807999998 311.11431999999996,854.3695807999998 312.20944C852.7690207999998 314.37159999999994,850.1575807999998 315.55096,847.8831007999997 315.55096C846.1140607999997 315.55096,844.5977407999998 314.84896,843.8676607999997 313.41687999999994C843.6430207999997 312.85527999999994,843.5307007999997 312.3217599999999,843.5307007999997 311.73207999999994C843.5307007999997 308.67135999999994,846.9564607999997 305.27367999999996,850.8876607999997 305.07712"></path></g></g><g class="vf-modifiers"></g></g><rect stroke-width="0.3" fill="#000000" stroke="#000000" stroke-dasharray="none" x="933.9809343999997" y="166.5" width="1" height="149.79999999999995"></rect><rect stroke-width="0.3" fill="#000000" stroke="#000000" stroke-dasharray="none" x="936.9809343999997" y="166.5" width="3" height="149.79999999999995"></rect><path stroke-width="0.3" fill="#000000" stroke="none" stroke-dasharray="none" d="M68 166.5C45.2 196.45999999999998,81.2 221.177,56 241.39999999999998C81.2 261.623,45.2 286.34,68 316.29999999999995C44 286.34,72.8 261.623,56 241.39999999999998C72.8 221.177,44 196.45999999999998,68 166.5"></path><path stroke-width="1" fill="none" stroke="#000000" stroke-dasharray="none" d="M68 166.5C45.2 196.45999999999998,81.2 221.177,56 241.39999999999998C81.2 261.623,45.2 286.34,68 316.29999999999995C44 286.34,72.8 261.623,56 241.39999999999998C72.8 221.177,44 196.45999999999998,68 166.5"></path><g class="vf-text"><text stroke-width="0.3" fill="#000000" stroke="none" stroke-dasharray="none" font-family="Times New Roman" font-size="15px" font-weight="normal" font-style="normal" x="530.7804671999999" y="163.5">3</text></g></svg>