<svg xmlns="http://www.w3.org/2000/svg"  width="1280" height="390.79999999999995" viewBox="0 0 1280 390.79999999999995"><path stroke-width="1" fill="none" stroke="#000000" stroke-dasharray="none" d="M70 166.5L339.0302336 166.5"></path><path stroke-width="1" fill="none" stroke="#000000" stroke-dasharray="none" d="M70 176.5L339.0302336 176.5"></path><path stroke-width="1" fill="none" stroke="#000000" stroke-dasharray="none" d="M70 186.5L339.0302336 186.5"></path><path stroke-width="1" fill="none" stroke="#000000" stroke-dasharray="none" d="M70 196.5L339.0302336 196.5"></path><path stroke-width="1" fill="none" stroke="#000000" stroke-dasharray="none" d="M70 206.5L339.0302336 206.5"></path><rect stroke-width="0.3" fill="#000000" stroke="#000000" stroke-dasharray="none" x="339.0302336" y="166" width="1" height="41"></rect><g class="vf-clef"><path stroke-width="0.3" fill="#000000" stroke="none" stroke-dasharray="none" d="M75 196.5M89.0544 153.3288C89.112 153.3,89.1696 153.3,89.256 153.3C89.6016 153.3,90.0048 153.588,90.5808 154.308C92.9136 156.9864,94.5552 161.652,94.5552 165.4536C94.5552 165.7416,94.4976 165.972,94.4976 166.26C94.2384 170.7816,92.3952 174.4968,88.7376 178.0104L87.7584 178.9608L87.4128 179.3352L87.4128 179.4504L87.6144 180.3144L87.9312 181.8696L88.248 183.3096C88.68 185.268,88.8528 186.276,88.8528 186.276C88.8528 186.276,88.8528 186.276,88.8528 186.276C88.8528 186.276,88.968 186.276,89.112 186.2472C89.256 186.2472,89.7168 186.1896,90.2064 186.1896C90.55199999999999 186.1896,90.8976 186.2472,91.0704 186.2472C95.1312 186.7656,98.2704 189.6744,99.1632 193.764C99.336 194.4264,99.39359999999999 195.1464,99.39359999999999 195.8664C99.39359999999999 199.7544,97.0608 203.4696,93.1728 205.2264C92.94239999999999 205.3704,92.856 205.3992,92.856 205.3992L92.856 205.428C92.856 205.428,93.0288 206.0904,93.1728 206.8392L93.6048 209.028L94.008 210.7848C94.2384 211.908,94.3536 212.7144,94.3536 213.4344C94.3536 214.06799999999998,94.2672 214.644,94.1232 215.3064C93.144 219.3096,89.6592 221.7,86.0304 221.7C84.2448 221.7,82.4016 221.124,80.7888 219.828C79.3488 218.6184,78.7152 217.524,78.7152 216.084C78.7152 213.5496,80.76 211.764,82.8912 211.764C83.64 211.764,84.3888 211.99439999999998,85.1088 212.4264C86.3184 213.2616,86.8656 214.5288,86.8656 215.7672C86.8656 217.668,85.5408 219.54,83.2656 219.684L83.0352 219.684L83.208 219.79919999999998C84.1584 220.2024,85.1088 220.404,86.0304 220.404C88.3632 220.404,90.55199999999999 219.2232,91.8768 217.1784C92.62559999999999 216.0264,93.0288 214.6728,93.0288 213.3192C93.0288 212.8008,92.94239999999999 212.2824,92.8272 211.7064C92.8272 211.6488,92.74080000000001 211.188,92.62559999999999 210.756C91.992 207.6456,91.6176 205.8312,91.6176 205.8312C91.6176 205.8312,91.6176 205.8312,91.6176 205.8312C91.56 205.8312,91.4448 205.8312,91.3584 205.8888C91.0704 205.9464,90.4656 206.0904,90.2064 206.1192C89.5728 206.2056,88.968 206.2344,88.392 206.2344C82.74719999999999 206.2344,77.5056 202.4328,75.6912 196.8168C75.2304 195.3192,74.9712 193.8216,74.9712 192.324C74.9712 189.3288,75.9216 186.3912,77.7648 183.7704C79.7808 180.9192,81.7968 178.4712,84.2736 175.9368L85.13759999999999 175.044L84.936 173.9784L84.5616 172.2216L84.072 169.9752C83.928 169.14,83.7552 168.3336,83.7264 168.1608C83.5824 167.2104,83.496 166.2888,83.496 165.3384C83.496 161.7096,84.6768 158.22480000000002,86.8944 155.4312C87.5568 154.5672,88.7376 153.4152,89.0544 153.3288M90.8112 159.0312C90.7536 159.0312,90.6672 159.0312,90.5808 159.0312C89.4 159.0312,87.8736 160.1256,86.8368 161.7384C85.7712 163.32240000000002,85.224 165.4248,85.224 167.5848C85.224 168.1608,85.25280000000001 168.7656,85.3392 169.3704C85.4256 169.8024,85.45439999999999 170.0904,85.6848 171.12720000000002L86.088 172.9416C86.2032 173.4888,86.28960000000001 173.92079999999999,86.28960000000001 173.9784L86.28960000000001 173.9784C86.3184 173.9784,87.2112 172.9992,87.4992 172.6536C90.3792 169.3992,92.1072 165.972,92.4816 162.948C92.5104 162.66,92.5104 162.4296,92.5104 162.1416C92.5104 161.24880000000002,92.3952 160.38479999999998,92.1936 159.924C91.9632 159.4632,91.4448 159.0888,90.8112 159.0312M86.4624 181.2936C86.4048 180.8904,86.3184 180.5736,86.3184 180.516C86.3184 180.516,86.3184 180.516,86.28960000000001 180.516C86.232 180.516,84.9936 181.956,84.1296 182.964C82.6608 184.7496,81.1056 186.8808,80.472 187.9176C79.2624 189.9624,78.6576 192.2376,78.6576 194.484C78.6576 195.9528,78.9456 197.364,79.464 198.7176C81.0192 202.7208,84.5904 205.2264,88.4784 205.2264C88.9392 205.2264,89.4576 205.1976,89.9472 205.1112C90.5808 204.996,91.3584 204.7656,91.3584 204.6792L91.3584 204.6792C91.3584 204.6792,91.3008 204.3912,91.2144 204.0744L90.3792 199.956L89.7168 196.8744L89.2848 194.7432L88.824 192.6696C88.5936 191.4312,88.5072 191.1144,88.5072 191.1144C88.5072 191.1144,88.5072 191.0856,88.4784 191.0856C88.3056 191.0856,87.384 191.5464,86.9808 191.8344C85.4832 192.8712,84.7056 194.5128,84.7056 196.1256C84.7056 197.652,85.45439999999999 199.1784,86.8944 200.0712C87.2112 200.2728,87.3264 200.4456,87.3264 200.6472C87.3264 200.676,87.3264 200.7624,87.3264 200.7912C87.2688 201.1368,87.0672 201.2808,86.7792 201.2808C86.664 201.2808,86.52 201.252,86.3472 201.1656C83.6976 200.0136,81.912 197.2776,81.912 194.2824L81.912 194.2824C81.912 190.8264,84.072 187.8312,87.384 186.6504L87.5568 186.5928L87.2688 185.1528L86.4624 181.2936M90.7824 190.9128C90.55199999999999 190.88400000000001,90.3216 190.88400000000001,90.1488 190.88400000000001C90.0912 190.88400000000001,90.0048 190.88400000000001,89.9472 190.88400000000001L89.8032 190.88400000000001L89.9184 191.4024L90.5232 194.2248L90.8976 196.068L91.3008 197.8824L92.1072 201.8856L92.424 203.412C92.5392 203.8152,92.5968 204.1608,92.62559999999999 204.1608C92.62559999999999 204.1608,92.62559999999999 204.1608,92.62559999999999 204.1608C92.6544 204.1608,93.144 203.8728,93.4608 203.6424C94.9296 202.6056,96.024 200.9928,96.4272 199.3224C96.5712 198.7752,96.6288 198.1992,96.6288 197.652C96.6288 194.3112,94.152 191.2872,90.7824 190.9128"></path></g><path stroke-width="0.3" fill="#000000" stroke="none" stroke-dasharray="none" d="M116 186.5M123.344 167.8376C123.4592 167.8376,123.6608 167.8376,123.8912 167.8376C124.2944 167.8376,124.8416 167.8376,125.0432 167.8952C126.7712 168.1544,128.6144 169.3928,128.96 170.516C129.0464 170.7752,129.0752 171.00560000000002,129.0752 171.236C129.0752 172.532,127.9808 173.5112,126.8 173.5112C126.3392 173.5112,125.8784 173.39600000000002,125.4464 173.0504C124.928 172.5896,124.64 172.0136,124.64 171.3512C124.64 170.4584,125.1872 169.5368,126.13759999999999 169.2776C126.224 169.2776,126.25280000000001 169.2488,126.25280000000001 169.2488C126.25280000000001 169.2488,126.224 169.1912,126.13759999999999 169.1624C125.504 168.8744,124.8704 168.7592,124.2944 168.7592C123.4016 168.7592,122.624 169.076,122.048 169.6808C121.4432 170.4008,121.0112 171.8696,120.7232 174.0296C120.6944 174.548,120.608 175.5272,120.608 175.7288C120.608 175.7288,120.608 175.7288,120.608 175.7288C120.608 175.7288,120.608 175.7288,120.608 175.7288C120.608 175.7288,120.7232 175.6712,120.83840000000001 175.6424C121.76 175.268,122.5664 175.124,123.4304 175.124C124.4672 175.124,125.4464 175.3544,126.5408 175.9304C128.5568 176.9096,129.68 178.3496,129.68 180.0776C129.68 180.308,129.6224 180.5672,129.5936 180.8264C129.3056 182.4392,128.0672 183.764,126.0512 184.628C125.1296 185.0312,124.2944 185.2616,123.4592 185.2616C122.624 185.2616,121.76 185.0024,120.8096 184.5128C118.304 183.2456,116.576 180.88400000000001,116.1152 178.148C116.0288 177.6008,116 177.0536,116 176.4488C116 175.2392,116.1728 174.0296,116.576 173.0504C117.6704 170.2856,120.464 168.1544,123.344 167.8376M123.74719999999999 176.0456C123.632 176.0456,123.5168 176.0456,123.4016 176.0456C122.7968 176.0456,122.336 176.2472,122.048 176.564C121.6448 177.1688,121.35679999999999 178.6664,121.35679999999999 179.9912C121.35679999999999 180.2792,121.35679999999999 180.5672,121.3856 180.7976C121.5008 182.1512,121.8176 183.2744,122.1344 183.764C122.3648 184.1096,122.8544 184.3112,123.4016 184.3112C123.5168 184.3112,123.6608 184.3112,123.776 184.2824C124.6112 184.1672,124.928 183.6488,125.2448 182.0072C125.3888 181.2296,125.4752 180.5672,125.4752 179.9048C125.4752 179.2424,125.3888 178.6088,125.2448 177.8312C124.9568 176.6504,124.5824 176.1608,123.74719999999999 176.0456M122.7968 186.5288L122.8544 186.5288L122.768 186.5288L122.7968 186.5288M122.7968 167.1176L122.8544 167.1176L122.768 167.1176L122.7968 167.1176"></path><path stroke-width="0.3" fill="#000000" stroke="none" stroke-dasharray="none" d="M116.1008 206.5M121.11200000000001 188.1544C121.14080000000001 188.1256,121.54400000000001 188.1256,122.78240000000001 188.1256C123.1568 188.1256,123.56 188.1256,124.0784 188.1256L126.9872 188.1256L127.0736 188.212C127.2176 188.29840000000002,127.304 188.4424,127.304 188.5576C127.304 188.7304,127.2176 188.8456,127.1024 188.9608C127.0736 189.0472,126.8144 189.2776,126.64160000000001 189.5368L125.1152 191.2936L123.1568 193.5112L122.12 194.692L120.5648 196.4776L118.52000000000001 198.8104C118.1744 199.2424,117.80000000000001 199.588,117.80000000000001 199.588C117.80000000000001 199.588,117.80000000000001 199.588,117.80000000000001 199.588C117.80000000000001 199.6456,118.0592 199.6456,120.4496 199.6456L123.0704 199.6456L123.0704 197.7736C123.0704 195.8728,123.0704 195.844,123.09920000000001 195.8152C123.1568 195.7288,123.41600000000001 195.412,124.424 194.2312L124.8272 193.7992L125.2304 193.3672L125.8352 192.5896L126.4688 191.9272L126.7856 191.524C126.9008 191.3512,127.0736 191.3224,127.2176 191.3224C127.3904 191.3224,127.5344 191.4088,127.6208 191.5528C127.6496 191.6392,127.6496 191.6968,127.6496 193.828C127.6496 194.3176,127.6496 194.9224,127.6496 195.6424L127.6496 199.6456L128.3696 199.6456C129.032 199.6456,129.0608 199.6456,129.1472 199.6744C129.3776 199.7608,129.49280000000002 199.9912,129.49280000000002 200.2504C129.49280000000002 200.3944,129.464 200.5672,129.3488 200.6824C129.17600000000002 200.8264,129.1472 200.8264,128.3696 200.8264L127.6496 200.8264L127.6496 201.316C127.67840000000001 202.7848,127.96640000000001 203.3608,129.08960000000002 203.9656C129.49280000000002 204.1672,129.57920000000001 204.2248,129.57920000000001 204.5128C129.57920000000001 204.7144,129.5216 204.8008,129.3776 204.916L129.2912 204.9448L125.3456 204.9448L121.42880000000001 204.9448L121.34240000000001 204.916C121.1696 204.8008,121.14080000000001 204.7144,121.14080000000001 204.5128C121.14080000000001 204.2248,121.1696 204.1672,121.6016 203.9656C122.7248 203.3608,123.01280000000001 202.7848,123.01280000000001 201.316L123.01280000000001 200.8264L119.7008 200.8264C119.096 200.88400000000001,118.60640000000001 200.88400000000001,118.20320000000001 200.88400000000001C116.3888 200.88400000000001,116.36000000000001 200.8264,116.33120000000001 200.8264C116.1584 200.7688,116.1008 200.596,116.1008 200.3944C116.1008 200.3944,116.1008 200.3944,116.1008 200.3944C116.1008 200.1928,116.1008 200.1928,116.6768 199.5304C119.096 196.5928,120.79520000000001 192.3304,120.79520000000001 188.93200000000002C120.79520000000001 188.4136,120.8816 188.2408,121.11200000000001 188.1544M122.84 206.5288L122.86880000000001 206.5288L122.78240000000001 206.5288L122.84 206.5288M122.84 187.1176L122.86880000000001 187.1176L122.78240000000001 187.1176L122.84 187.1176"></path><path stroke-width="1" fill="none" stroke="#000000" stroke-dasharray="none" d="M304.78 216.5L322.79823999999996 216.5"></path><g class="vf-stavenote" id="vf-auto17205"><g class="vf-note" pointer-events="bounding-box"><g class="vf-stem" pointer-events="bounding-box"><path stroke-width="1.5" fill="none" stroke="#000000" stroke-dasharray="none" class="vf-stem" id="vf-auto17205-stem" d="M319.04823999999996 216.5L319.04823999999996 181.5"></path></g><g class="vf-notehead" pointer-events="bounding-box"><path stroke-width="0.3" fill="#000000" stroke="none" stroke-dasharray="none" d="M307.78 216.5M315.13696 211.27712C315.24928 211.27712,315.41776 211.27712,315.44584 211.27712C315.44584 211.27712,315.47391999999996 211.27712,315.47391999999996 211.27712C315.47391999999996 211.27712,315.64239999999995 211.27712,315.78279999999995 211.27712C318.30999999999995 211.41752,319.79823999999996 213.07424,319.79823999999996 215.15216C319.79823999999996 216.16304,319.46128 217.31432,318.61888 218.40944C317.01831999999996 220.5716,314.40688 221.75096,312.13239999999996 221.75096C310.36336 221.75096,308.84704 221.04896,308.11695999999995 219.61688C307.89232 219.05528,307.78 218.52176,307.78 217.93208C307.78 214.87136,311.20576 211.47368,315.13696 211.27712"></path></g></g><g class="vf-modifiers"></g></g><path stroke-width="1" fill="none" stroke="#000000" stroke-dasharray="none" d="M339.0302335999999 166.5L534.2804671999999 166.5"></path><path stroke-width="1" fill="none" stroke="#000000" stroke-dasharray="none" d="M339.0302335999999 176.5L534.2804671999999 176.5"></path><path stroke-width="1" fill="none" stroke="#000000" stroke-dasharray="none" d="M339.0302335999999 186.5L534.2804671999999 186.5"></path><path stroke-width="1" fill="none" stroke="#000000" stroke-dasharray="none" d="M339.0302335999999 196.5L534.2804671999999 196.5"></path><path stroke-width="1" fill="none" stroke="#000000" stroke-dasharray="none" d="M339.0302335999999 206.5L534.2804671999999 206.5"></path><rect stroke-width="0.3" fill="#000000" stroke="#000000" stroke-dasharray="none" x="534.2804671999999" y="166" width="1" height="41"></rect><g class="vf-stavenote" id="vf-auto17258"><g class="vf-note" pointer-events="bounding-box"><g class="vf-stem" pointer-events="bounding-box"><path stroke-width="1.5" fill="none" stroke="#000000" stroke-dasharray="none" class="vf-stem" id="vf-auto17258-stem" d="M457.2984735999999 191.5L457.2984735999999 156.5"></path></g><g class="vf-notehead" pointer-events="bounding-box"><path stroke-width="0.3" fill="#000000" stroke="none" stroke-dasharray="none" d="M446.0302335999999 191.5M453.38719359999993 186.27712C453.49951359999994 186.27712,453.66799359999993 186.27712,453.6960735999999 186.27712C453.6960735999999 186.27712,453.7241535999999 186.27712,453.7241535999999 186.27712C453.7241535999999 186.27712,453.8926335999999 186.27712,454.0330335999999 186.27712C456.56023359999995 186.41752,458.0484735999999 188.07424,458.0484735999999 190.15216C458.0484735999999 191.16304,457.71151359999993 192.31432,456.86911359999993 193.40944C455.2685535999999 195.5716,452.6571135999999 196.75096,450.3826335999999 196.75096C448.61359359999994 196.75096,447.09727359999994 196.04896,446.3671935999999 194.61688C446.1425535999999 194.05528,446.0302335999999 193.52176,446.0302335999999 192.93208C446.0302335999999 189.87136,449.45599359999994 186.47368,453.38719359999993 186.27712"></path></g></g><g class="vf-modifiers"></g></g><path stroke-width="1" fill="none" stroke="#000000" stroke-dasharray="none" d="M473.0302335999999 216.5L491.0484735999999 216.5"></path><g class="vf-stavenote" id="vf-auto17266"><g class="vf-note" pointer-events="bounding-box"><g class="vf-stem" pointer-events="bounding-box"><path stroke-width="1.5" fill="none" stroke="#000000" stroke-dasharray="none" class="vf-stem" id="vf-auto17266-stem" d="M487.2984735999999 221.5L487.2984735999999 186.5"></path></g><g class="vf-notehead" pointer-events="bounding-box"><path stroke-width="0.3" fill="#000000" stroke="none" stroke-dasharray="none" d="M476.0302335999999 221.5M483.38719359999993 216.27712C483.49951359999994 216.27712,483.66799359999993 216.27712,483.6960735999999 216.27712C483.6960735999999 216.27712,483.7241535999999 216.27712,483.7241535999999 216.27712C483.7241535999999 216.27712,483.8926335999999 216.27712,484.0330335999999 216.27712C486.56023359999995 216.41752,488.0484735999999 218.07424,488.0484735999999 220.15216C488.0484735999999 221.16304,487.71151359999993 222.31432,486.86911359999993 223.40944C485.2685535999999 225.5716,482.6571135999999 226.75096,480.3826335999999 226.75096C478.61359359999994 226.75096,477.09727359999994 226.04896,476.3671935999999 224.61688C476.1425535999999 224.05528,476.0302335999999 223.52176,476.0302335999999 222.93208C476.0302335999999 219.87136,479.45599359999994 216.47368,483.38719359999993 216.27712"></path></g></g><g class="vf-modifiers"></g></g><g class="vf-stavenote" id="vf-auto17274"><g class="vf-note" pointer-events="bounding-box"><g class="vf-stem" pointer-events="bounding-box"><path stroke-width="1.5" fill="none" stroke="#000000" stroke-dasharray="none" class="vf-stem" id="vf-auto17274-stem" d="M506.7802335999999 166.5L506.7802335999999 201.5"></path></g><g class="vf-notehead" pointer-events="bounding-box"><path stroke-width="0.3" fill="#000000" stroke="none" stroke-dasharray="none" d="M506.0302335999999 166.5M513.3871935999999 161.27712C513.4995135999999 161.27712,513.6679935999999 161.27712,513.6960735999999 161.27712C513.6960735999999 161.27712,513.7241535999999 161.27712,513.7241535999999 161.27712C513.7241535999999 161.27712,513.8926336 161.27712,514.0330336 161.27712C516.5602336 161.41752,518.0484736 163.07424,518.0484736 165.15216C518.0484736 166.16304,517.7115135999999 167.31432,516.8691135999999 168.40944C515.2685535999999 170.5716,512.6571135999999 171.75096,510.3826335999999 171.75096C508.61359359999994 171.75096,507.09727359999994 171.04896,506.3671935999999 169.61688C506.1425535999999 169.05528,506.0302335999999 168.52176,506.0302335999999 167.93208C506.0302335999999 164.87136,509.45599359999994 161.47368,513.3871935999999 161.27712"></path></g></g><g class="vf-modifiers"></g></g><path stroke-width="1" fill="none" stroke="#000000" stroke-dasharray="none" d="M534.2804671999999 166.5L729.5307007999997 166.5"></path><path stroke-width="1" fill="none" stroke="#000000" stroke-dasharray="none" d="M534.2804671999999 176.5L729.5307007999997 176.5"></path><path stroke-width="1" fill="none" stroke="#000000" stroke-dasharray="none" d="M534.2804671999999 186.5L729.5307007999997 186.5"></path><path stroke-width="1" fill="none" stroke="#000000" stroke-dasharray="none" d="M534.2804671999999 196.5L729.5307007999997 196.5"></path><path stroke-width="1" fill="none" stroke="#000000" stroke-dasharray="none" d="M534.2804671999999 206.5L729.5307007999997 206.5"></path><rect stroke-width="0.3" fill="#000000" stroke="#000000" stroke-dasharray="none" x="729.5307007999997" y="166" width="1" height="41"></rect><g class="vf-stavenote" id="vf-auto17312"><g class="vf-note" pointer-events="bounding-box"><g class="vf-stem" pointer-events="bounding-box"><path stroke-width="1.5" fill="none" stroke="#000000" stroke-dasharray="none" class="vf-stem" id="vf-auto17312-stem" d="M652.5487071999999 196.5L652.5487071999999 161.5"></path></g><g class="vf-notehead" pointer-events="bounding-box"><path stroke-width="0.3" fill="#000000" stroke="none" stroke-dasharray="none" d="M641.2804671999999 196.5M648.6374271999998 191.27712C648.7497471999999 191.27712,648.9182271999998 191.27712,648.9463071999999 191.27712C648.9463071999999 191.27712,648.9743871999999 191.27712,648.9743871999999 191.27712C648.9743871999999 191.27712,649.1428671999998 191.27712,649.2832671999998 191.27712C651.8104671999998 191.41752,653.2987071999999 193.07424,653.2987071999999 195.15216C653.2987071999999 196.16304,652.9617471999999 197.31432,652.1193471999999 198.40944C650.5187871999999 200.5716,647.9073471999999 201.75096,645.6328671999999 201.75096C643.8638271999998 201.75096,642.3475071999999 201.04896,641.6174271999998 199.61688C641.3927871999998 199.05528,641.2804671999999 198.52176,641.2804671999999 197.93208C641.2804671999999 194.87136,644.7062271999998 191.47368,648.6374271999998 191.27712"></path></g></g><g class="vf-modifiers"></g></g><g class="vf-stavenote" id="vf-auto17320"><g class="vf-note" pointer-events="bounding-box"><g class="vf-stem" pointer-events="bounding-box"><path stroke-width="1.5" fill="none" stroke="#000000" stroke-dasharray="none" class="vf-stem" id="vf-auto17320-stem" d="M672.0304671999999 186.5L672.0304671999999 221.5"></path></g><g class="vf-notehead" pointer-events="bounding-box"><path stroke-width="0.3" fill="#000000" stroke="none" stroke-dasharray="none" d="M671.2804671999999 186.5M678.6374271999998 181.27712C678.7497471999999 181.27712,678.9182271999998 181.27712,678.9463071999999 181.27712C678.9463071999999 181.27712,678.9743871999999 181.27712,678.9743871999999 181.27712C678.9743871999999 181.27712,679.1428671999998 181.27712,679.2832671999998 181.27712C681.8104671999998 181.41752,683.2987071999999 183.07424,683.2987071999999 185.15216C683.2987071999999 186.16304,682.9617471999999 187.31432,682.1193471999999 188.40944C680.5187871999999 190.5716,677.9073471999999 191.75096,675.6328671999999 191.75096C673.8638271999998 191.75096,672.3475071999999 191.04896,671.6174271999998 189.61688C671.3927871999998 189.05528,671.2804671999999 188.52176,671.2804671999999 187.93208C671.2804671999999 184.87136,674.7062271999998 181.47368,678.6374271999998 181.27712"></path></g></g><g class="vf-modifiers"></g></g><g class="vf-stavenote" id="vf-auto17328"><g class="vf-note" pointer-events="bounding-box"><g class="vf-stem" pointer-events="bounding-box"><path stroke-width="1.5" fill="none" stroke="#000000" stroke-dasharray="none" class="vf-stem" id="vf-auto17328-stem" d="M702.0304671999999 176.5L702.0304671999999 211.5"></path></g><g class="vf-notehead" pointer-events="bounding-box"><path stroke-width="0.3" fill="#000000" stroke="none" stroke-dasharray="none" d="M701.2804671999999 176.5M708.6374271999998 171.27712C708.7497471999999 171.27712,708.9182271999998 171.27712,708.9463071999999 171.27712C708.9463071999999 171.27712,708.9743871999999 171.27712,708.9743871999999 171.27712C708.9743871999999 171.27712,709.1428671999998 171.27712,709.2832671999998 171.27712C711.8104671999998 171.41752,713.2987071999999 173.07424,713.2987071999999 175.15216C713.2987071999999 176.16304,712.9617471999999 177.31432,712.1193471999999 178.40944C710.5187871999999 180.5716,707.9073471999999 181.75096,705.6328671999999 181.75096C703.8638271999998 181.75096,702.3475071999999 181.04896,701.6174271999998 179.61688C701.3927871999998 179.05528,701.2804671999999 178.52176,701.2804671999999 177.93208C701.2804671999999 174.87136,704.7062271999998 171.47368,708.6374271999998 171.27712"></path></g></g><g class="vf-modifiers"></g></g><path stroke-width="1" fill="none" stroke="#000000" stroke-dasharray="none" d="M729.5307007999999 166.5L938.9809343999998 166.5"></path><path stroke-width="1" fill="none" stroke="#000000" stroke-dasharray="none" d="M729.5307007999999 176.5L938.9809343999998 176.5"></path><path stroke-width="1" fill="none" stroke="#000000" stroke-dasharray="none" d="M729.5307007999999 186.5L938.9809343999998 186.5"></path><path stroke-width="1" fill="none" stroke="#000000" stroke-dasharray="none" d="M729.5307007999999 196.5L938.9809343999998 196.5"></path><path stroke-width="1" fill="none" stroke="#000000" stroke-dasharray="none" d="M729.5307007999999 206.5L938.9809343999998 206.5"></path><rect stroke-width="0.3" fill="#000000" stroke="#000000" stroke-dasharray="none" x="933.9809343999998" y="166" width="1" height="41"></rect><rect stroke-width="0.3" fill="#000000" stroke="#000000" stroke-dasharray="none" x="936.9809343999998" y="166" width="3" height="41"></rect><path stroke-width="0.3" fill="#000000" stroke="none" stroke-dasharray="none" d="M932.9809343999998 182 A2 2 0 0 0 928.9809343999998 182M928.9809343999998 182 A2 2 0 0 0 932.9809343999998 182"></path><path stroke-width="0.3" fill="#000000" stroke="none" stroke-dasharray="none" d="M932.9809343999998 192 A2 2 0 0 0 928.9809343999998 192M928.9809343999998 192 A2 2 0 0 0 932.9809343999998 192"></path><g class="vf-stavenote" id="vf-auto17366"><g class="vf-note" pointer-events="bounding-box"><g class="vf-stem" pointer-events="bounding-box"><path stroke-width="1.5" fill="none" stroke="#000000" stroke-dasharray="none" class="vf-stem" id="vf-auto17366-stem" d="M757.7989407999999 211.5L757.7989407999999 176.5"></path></g><g class="vf-notehead" pointer-events="bounding-box"><path stroke-width="0.3" fill="#000000" stroke="none" stroke-dasharray="none" d="M746.5307007999999 211.5M753.8876607999998 206.27712C753.9999807999999 206.27712,754.1684607999998 206.27712,754.1965407999999 206.27712C754.1965407999999 206.27712,754.2246207999999 206.27712,754.2246207999999 206.27712C754.2246207999999 206.27712,754.3931007999998 206.27712,754.5335007999998 206.27712C757.0607007999998 206.41752,758.5489407999999 208.07424,758.5489407999999 210.15216C758.5489407999999 211.16304,758.2119807999999 212.31432,757.3695807999999 213.40944C755.7690207999999 215.5716,753.1575807999999 216.75096,750.8831007999999 216.75096C749.1140607999998 216.75096,747.5977407999999 216.04896,746.8676607999998 214.61688C746.6430207999998 214.05528,746.5307007999999 213.52176,746.5307007999999 212.93208C746.5307007999999 209.87136,749.9564607999998 206.47368,753.8876607999998 206.27712"></path></g></g><g class="vf-modifiers"></g></g><g class="vf-stavenote" id="vf-auto17374"><g class="vf-note" pointer-events="bounding-box"><g class="vf-stem" pointer-events="bounding-box"><path stroke-width="1.5" fill="none" stroke="#000000" stroke-dasharray="none" class="vf-stem" id="vf-auto17374-stem" d="M790.1322741333332 211.5L790.1322741333332 176.5"></path></g><g class="vf-notehead" pointer-events="bounding-box"><path stroke-width="0.3" fill="#000000" stroke="none" stroke-dasharray="none" d="M778.8640341333332 211.5M786.2209941333332 206.27712C786.3333141333333 206.27712,786.5017941333332 206.27712,786.5298741333332 206.27712C786.5298741333332 206.27712,786.5579541333333 206.27712,786.5579541333333 206.27712C786.5579541333333 206.27712,786.7264341333332 206.27712,786.8668341333332 206.27712C789.3940341333332 206.41752,790.8822741333332 208.07424,790.8822741333332 210.15216C790.8822741333332 211.16304,790.5453141333332 212.31432,789.7029141333333 213.40944C788.1023541333333 215.5716,785.4909141333333 216.75096,783.2164341333332 216.75096C781.4473941333332 216.75096,779.9310741333333 216.04896,779.2009941333332 214.61688C778.9763541333332 214.05528,778.8640341333332 213.52176,778.8640341333332 212.93208C778.8640341333332 209.87136,782.2897941333332 206.47368,786.2209941333332 206.27712"></path></g></g><g class="vf-modifiers"></g></g><g class="vf-stavenote" id="vf-auto17382"><g class="vf-note" pointer-events="bounding-box"><g class="vf-stem" pointer-events="bounding-box"><path stroke-width="1.5" fill="none" stroke="#000000" stroke-dasharray="none" class="vf-stem" id="vf-auto17382-stem" d="M811.9473674666665 186.5L811.9473674666665 221.5"></path></g><g class="vf-notehead" pointer-events="bounding-box"><path stroke-width="0.3" fill="#000000" stroke="none" stroke-dasharray="none" d="M811.1973674666665 186.5M818.5543274666665 181.27712C818.6666474666665 181.27712,818.8351274666664 181.27712,818.8632074666665 181.27712C818.8632074666665 181.27712,818.8912874666665 181.27712,818.8912874666665 181.27712C818.8912874666665 181.27712,819.0597674666665 181.27712,819.2001674666665 181.27712C821.7273674666665 181.41752,823.2156074666665 183.07424,823.2156074666665 185.15216C823.2156074666665 186.16304,822.8786474666665 187.31432,822.0362474666665 188.40944C820.4356874666665 190.5716,817.8242474666665 191.75096,815.5497674666665 191.75096C813.7807274666665 191.75096,812.2644074666665 191.04896,811.5343274666665 189.61688C811.3096874666664 189.05528,811.1973674666665 188.52176,811.1973674666665 187.93208C811.1973674666665 184.87136,814.6231274666665 181.47368,818.5543274666665 181.27712"></path></g></g><g class="vf-modifiers"></g></g><g class="vf-stavenote" id="vf-auto17390"><g class="vf-note" pointer-events="bounding-box"><g class="vf-stem" pointer-events="bounding-box"><path stroke-width="1.5" fill="none" stroke="#000000" stroke-dasharray="none" class="vf-stem" id="vf-auto17390-stem" d="M887.1322741333332 196.5L887.1322741333332 161.5"></path></g><g class="vf-notehead" pointer-events="bounding-box"><path stroke-width="0.3" fill="#000000" stroke="none" stroke-dasharray="none" d="M875.8640341333332 196.5M883.2209941333332 191.27712C883.3333141333333 191.27712,883.5017941333332 191.27712,883.5298741333332 191.27712C883.5298741333332 191.27712,883.5579541333333 191.27712,883.5579541333333 191.27712C883.5579541333333 191.27712,883.7264341333332 191.27712,883.8668341333332 191.27712C886.3940341333332 191.41752,887.8822741333332 193.07424,887.8822741333332 195.15216C887.8822741333332 196.16304,887.5453141333332 197.31432,886.7029141333333 198.40944C885.1023541333333 200.5716,882.4909141333333 201.75096,880.2164341333332 201.75096C878.4473941333332 201.75096,876.9310741333333 201.04896,876.2009941333332 199.61688C875.9763541333332 199.05528,875.8640341333332 198.52176,875.8640341333332 197.93208C875.8640341333332 194.87136,879.2897941333332 191.47368,883.2209941333332 191.27712"></path></g></g><g class="vf-modifiers"></g></g><g class="vf-text"><text stroke-width="0.3" fill="#000000" stroke="none" stroke-dasharray="none" font-family="Times New Roman" font-size="23px" font-weight="bold" font-style="italic" x="156.68" y="240.5">mp</text></g><path stroke-width="1" fill="none" stroke="#000000" stroke-dasharray="none" d="M70 269.3L339.0302336 269.3"></path><path stroke-width="1" fill="none" stroke="#000000" stroke-dasharray="none" d="M70 279.3L339.0302336 279.3"></path><path stroke-width="1" fill="none" stroke="#000000" stroke-dasharray="none" d="M70 289.3L339.0302336 289.3"></path><path stroke-width="1" fill="none" stroke="#000000" stroke-dasharray="none" d="M70 299.3L339.0302336 299.3"></path><path stroke-width="1" fill="none" stroke="#000000" stroke-dasharray="none" d="M70 309.3L339.0302336 309.3"></path><rect stroke-width="0.3" fill="#000000" stroke="#000000" stroke-dasharray="none" x="339.0302336" y="268.8" width="1" height="41"></rect><g class="vf-clef"><path stroke-width="0.3" fill="#000000" stroke="none" stroke-dasharray="none" d="M75 279.3M83.8416 269.2488C84.072 269.19120000000004,84.3024 269.19120000000004,84.5616 269.19120000000004C85.5696 269.19120000000004,86.7504 269.3064,87.7584 269.50800000000004C92.4816 270.48720000000003,95.736 273.684,96.3408 277.94640000000004C96.3984 278.4072,96.4272 278.8392,96.4272 279.3C96.4272 281.892,95.5344 285.2328,94.008 288.0264C90.3792 294.5928,83.7552 299.31600000000003,75.8064 301.044C75.6624 301.044,75.5472 301.07280000000003,75.4032 301.07280000000003C75.1152 301.07280000000003,74.9712 300.90000000000003,74.9712 300.6408C74.9712 300.3528,75.0288 300.26640000000003,75.6048 300.036C84.7056 296.60880000000003,90.7824 289.2072,91.3296 280.9128C91.3584 280.4808,91.3584 279.9912,91.3584 279.6168C91.3584 275.58480000000003,90.12 272.5896,87.7296 271.092C86.6928 270.4296,85.5696 270.1128,84.36 270.1128C81.6816 270.1128,78.9456 271.6392,77.6784 274.2024C77.6208 274.404,77.4192 274.836,77.4192 274.8648C77.4192 274.8648,77.4192 274.8648,77.4192 274.8648C77.4192 274.8648,77.448 274.836,77.5344 274.8072C78.168 274.404,78.8592 274.2024,79.5792 274.2024C80.5872 274.2024,81.6528 274.6344,82.4016 275.4408C83.0928 276.1896,83.4672 277.1976,83.4672 278.11920000000003C83.4672 279.9912,82.0848 281.892,79.9248 282.09360000000004C79.7808 282.09360000000004,79.6368 282.1224,79.4928 282.1224C77.1024 282.1224,75.1728 279.9336,75.1728 277.16880000000003C75.1728 277.1112,75.1728 277.0248,75.1728 276.99600000000004C75.288 272.87760000000003,79.0608 269.50800000000004,83.8416 269.2488M99.1632 273.108C99.2208 273.0792,99.2496 273.0792,99.336 273.0792C99.5376 273.0792,99.768 273.108,99.8256 273.16560000000004C100.54560000000001 273.3672,100.8912 274.0008,100.8912 274.60560000000004C100.8912 275.124,100.632 275.6424,100.11359999999999 275.9304C99.912 276.0744,99.6528 276.1032,99.39359999999999 276.1032C98.9904 276.1032,98.5584 275.9304,98.2704 275.55600000000004C98.03999999999999 275.26800000000003,97.9248 274.95120000000003,97.9248 274.6344C97.9248 273.9144,98.3856 273.19440000000003,99.1632 273.108M99.1632 282.5256C99.2208 282.5256,99.2496 282.5256,99.336 282.5256C99.5376 282.5256,99.768 282.5544,99.8256 282.612C100.54560000000001 282.8136,100.8912 283.4472,100.8912 284.052C100.8912 284.5704,100.632 285.0888,100.11359999999999 285.348C99.912 285.492,99.6528 285.5496,99.39359999999999 285.5496C98.9904 285.5496,98.5584 285.348,98.2704 285.0024C98.03999999999999 284.7144,97.9248 284.3976,97.9248 284.052C97.9248 283.332,98.3856 282.6408,99.1632 282.5256"></path></g><path stroke-width="0.3" fill="#000000" stroke="none" stroke-dasharray="none" d="M116 289.3M123.344 270.6376C123.4592 270.6376,123.6608 270.6376,123.8912 270.6376C124.2944 270.6376,124.8416 270.6376,125.0432 270.6952C126.7712 270.9544,128.6144 272.19280000000003,128.96 273.31600000000003C129.0464 273.5752,129.0752 273.8056,129.0752 274.036C129.0752 275.332,127.9808 276.3112,126.8 276.3112C126.3392 276.3112,125.8784 276.196,125.4464 275.85040000000004C124.928 275.38960000000003,124.64 274.8136,124.64 274.1512C124.64 273.2584,125.1872 272.33680000000004,126.13759999999999 272.0776C126.224 272.0776,126.25280000000001 272.0488,126.25280000000001 272.0488C126.25280000000001 272.0488,126.224 271.9912,126.13759999999999 271.9624C125.504 271.6744,124.8704 271.55920000000003,124.2944 271.55920000000003C123.4016 271.55920000000003,122.624 271.87600000000003,122.048 272.4808C121.4432 273.2008,121.0112 274.6696,120.7232 276.8296C120.6944 277.348,120.608 278.3272,120.608 278.5288C120.608 278.5288,120.608 278.5288,120.608 278.5288C120.608 278.5288,120.608 278.5288,120.608 278.5288C120.608 278.5288,120.7232 278.4712,120.83840000000001 278.4424C121.76 278.068,122.5664 277.92400000000004,123.4304 277.92400000000004C124.4672 277.92400000000004,125.4464 278.1544,126.5408 278.73040000000003C128.5568 279.7096,129.68 281.1496,129.68 282.87760000000003C129.68 283.108,129.6224 283.3672,129.5936 283.6264C129.3056 285.23920000000004,128.0672 286.564,126.0512 287.428C125.1296 287.8312,124.2944 288.0616,123.4592 288.0616C122.624 288.0616,121.76 287.80240000000003,120.8096 287.31280000000004C118.304 286.04560000000004,116.576 283.684,116.1152 280.94800000000004C116.0288 280.4008,116 279.85360000000003,116 279.2488C116 278.0392,116.1728 276.8296,116.576 275.85040000000004C117.6704 273.0856,120.464 270.9544,123.344 270.6376M123.74719999999999 278.8456C123.632 278.8456,123.5168 278.8456,123.4016 278.8456C122.7968 278.8456,122.336 279.04720000000003,122.048 279.36400000000003C121.6448 279.9688,121.35679999999999 281.4664,121.35679999999999 282.7912C121.35679999999999 283.0792,121.35679999999999 283.3672,121.3856 283.5976C121.5008 284.95120000000003,121.8176 286.0744,122.1344 286.564C122.3648 286.9096,122.8544 287.1112,123.4016 287.1112C123.5168 287.1112,123.6608 287.1112,123.776 287.0824C124.6112 286.9672,124.928 286.4488,125.2448 284.8072C125.3888 284.0296,125.4752 283.3672,125.4752 282.70480000000003C125.4752 282.0424,125.3888 281.4088,125.2448 280.63120000000004C124.9568 279.4504,124.5824 278.9608,123.74719999999999 278.8456M122.7968 289.3288L122.8544 289.3288L122.768 289.3288L122.7968 289.3288M122.7968 269.9176L122.8544 269.9176L122.768 269.9176L122.7968 269.9176"></path><path stroke-width="0.3" fill="#000000" stroke="none" stroke-dasharray="none" d="M116.1008 309.3M121.11200000000001 290.9544C121.14080000000001 290.92560000000003,121.54400000000001 290.92560000000003,122.78240000000001 290.92560000000003C123.1568 290.92560000000003,123.56 290.92560000000003,124.0784 290.92560000000003L126.9872 290.92560000000003L127.0736 291.012C127.2176 291.0984,127.304 291.24240000000003,127.304 291.3576C127.304 291.5304,127.2176 291.6456,127.1024 291.7608C127.0736 291.8472,126.8144 292.0776,126.64160000000001 292.33680000000004L125.1152 294.09360000000004L123.1568 296.3112L122.12 297.492L120.5648 299.2776L118.52000000000001 301.6104C118.1744 302.0424,117.80000000000001 302.38800000000003,117.80000000000001 302.38800000000003C117.80000000000001 302.38800000000003,117.80000000000001 302.38800000000003,117.80000000000001 302.38800000000003C117.80000000000001 302.4456,118.0592 302.4456,120.4496 302.4456L123.0704 302.4456L123.0704 300.5736C123.0704 298.6728,123.0704 298.644,123.09920000000001 298.6152C123.1568 298.5288,123.41600000000001 298.212,124.424 297.0312L124.8272 296.5992L125.2304 296.16720000000004L125.8352 295.38960000000003L126.4688 294.72720000000004L126.7856 294.324C126.9008 294.1512,127.0736 294.1224,127.2176 294.1224C127.3904 294.1224,127.5344 294.2088,127.6208 294.3528C127.6496 294.4392,127.6496 294.4968,127.6496 296.628C127.6496 297.11760000000004,127.6496 297.7224,127.6496 298.4424L127.6496 302.4456L128.3696 302.4456C129.032 302.4456,129.0608 302.4456,129.1472 302.4744C129.3776 302.56080000000003,129.49280000000002 302.7912,129.49280000000002 303.0504C129.49280000000002 303.19440000000003,129.464 303.3672,129.3488 303.4824C129.17600000000002 303.6264,129.1472 303.6264,128.3696 303.6264L127.6496 303.6264L127.6496 304.116C127.67840000000001 305.58480000000003,127.96640000000001 306.1608,129.08960000000002 306.7656C129.49280000000002 306.9672,129.57920000000001 307.0248,129.57920000000001 307.31280000000004C129.57920000000001 307.5144,129.5216 307.6008,129.3776 307.716L129.2912 307.7448L125.3456 307.7448L121.42880000000001 307.7448L121.34240000000001 307.716C121.1696 307.6008,121.14080000000001 307.5144,121.14080000000001 307.31280000000004C121.14080000000001 307.0248,121.1696 306.9672,121.6016 306.7656C122.7248 306.1608,123.01280000000001 305.58480000000003,123.01280000000001 304.116L123.01280000000001 303.6264L119.7008 303.6264C119.096 303.684,118.60640000000001 303.684,118.20320000000001 303.684C116.3888 303.684,116.36000000000001 303.6264,116.33120000000001 303.6264C116.1584 303.5688,116.1008 303.396,116.1008 303.19440000000003C116.1008 303.19440000000003,116.1008 303.19440000000003,116.1008 303.19440000000003C116.1008 302.9928,116.1008 302.9928,116.6768 302.3304C119.096 299.3928,120.79520000000001 295.1304,120.79520000000001 291.732C120.79520000000001 291.2136,120.8816 291.0408,121.11200000000001 290.9544M122.84 309.3288L122.86880000000001 309.3288L122.78240000000001 309.3288L122.84 309.3288M122.84 289.9176L122.86880000000001 289.9176L122.78240000000001 289.9176L122.84 289.9176"></path><g class="vf-stavenote" id="vf-auto17216"><g class="vf-note" pointer-events="bounding-box"><g class="vf-stem" pointer-events="bounding-box"><path stroke-width="1.5" fill="none" stroke="#000000" stroke-dasharray="none" class="vf-stem" id="vf-auto17216-stem" d="M152.94824 289.3L152.94824 254.3"></path></g><g class="vf-notehead" pointer-events="bounding-box"><path stroke-width="0.3" fill="#000000" stroke="none" stroke-dasharray="none" d="M141.68 289.3M149.03696 284.07712000000004C149.14928 284.07712000000004,149.31776000000002 284.07712000000004,149.34584 284.07712000000004C149.34584 284.07712000000004,149.37392 284.07712000000004,149.37392 284.07712000000004C149.37392 284.07712000000004,149.54240000000001 284.07712000000004,149.68280000000001 284.07712000000004C152.21 284.21752000000004,153.69824 285.87424,153.69824 287.95216C153.69824 288.96304000000003,153.36128000000002 290.11432,152.51888 291.20944000000003C150.91832 293.3716,148.30688 294.55096000000003,146.0324 294.55096000000003C144.26336 294.55096000000003,142.74704 293.84896000000003,142.01696 292.41688C141.79232000000002 291.85528,141.68 291.32176,141.68 290.73208C141.68 287.67136,145.10576 284.27368,149.03696 284.07712000000004"></path></g></g><g class="vf-modifiers"></g></g><g class="vf-stavenote" id="vf-auto17224"><g class="vf-note" pointer-events="bounding-box"><g class="vf-stem" pointer-events="bounding-box"><path stroke-width="1.5" fill="none" stroke="#000000" stroke-dasharray="none" class="vf-stem" id="vf-auto17224-stem" d="M186.16824 304.3L186.16824 269.3"></path></g><g class="vf-notehead" pointer-events="bounding-box"><path stroke-width="0.3" fill="#000000" stroke="none" stroke-dasharray="none" d="M174.9 304.3M182.25696 299.07712000000004C182.36928 299.07712000000004,182.53776 299.07712000000004,182.56584 299.07712000000004C182.56584 299.07712000000004,182.59392 299.07712000000004,182.59392 299.07712000000004C182.59392 299.07712000000004,182.7624 299.07712000000004,182.9028 299.07712000000004C185.43 299.21752000000004,186.91824 300.87424,186.91824 302.95216C186.91824 303.96304000000003,186.58128 305.11432,185.73888 306.20944000000003C184.13832 308.3716,181.52688 309.55096000000003,179.2524 309.55096000000003C177.48336 309.55096000000003,175.96704 308.84896000000003,175.23696 307.41688C175.01232000000002 306.85528,174.9 306.32176,174.9 305.73208C174.9 302.67136,178.32576 299.27368,182.25696 299.07712000000004"></path></g></g><g class="vf-modifiers"></g></g><g class="vf-stavenote" id="vf-auto17232"><g class="vf-note" pointer-events="bounding-box"><g class="vf-stem" pointer-events="bounding-box"><path stroke-width="1.5" fill="none" stroke="#000000" stroke-dasharray="none" class="vf-stem" id="vf-auto17232-stem" d="M219.38824 289.3L219.38824 254.3"></path></g><g class="vf-notehead" pointer-events="bounding-box"><path stroke-width="0.3" fill="#000000" stroke="none" stroke-dasharray="none" d="M208.12 289.3M215.47696 284.07712000000004C215.58928 284.07712000000004,215.75776000000002 284.07712000000004,215.78584 284.07712000000004C215.78584 284.07712000000004,215.81392 284.07712000000004,215.81392 284.07712000000004C215.81392 284.07712000000004,215.9824 284.07712000000004,216.1228 284.07712000000004C218.65 284.21752000000004,220.13824 285.87424,220.13824 287.95216C220.13824 288.96304000000003,219.80128000000002 290.11432,218.95888 291.20944000000003C217.35832 293.3716,214.74688 294.55096000000003,212.4724 294.55096000000003C210.70336 294.55096000000003,209.18704 293.84896000000003,208.45696 292.41688C208.23232000000002 291.85528,208.12 291.32176,208.12 290.73208C208.12 287.67136,211.54576 284.27368,215.47696 284.07712000000004"></path></g></g><g class="vf-modifiers"></g></g><g class="vf-stavenote" id="vf-auto17240"><g class="vf-note" pointer-events="bounding-box"><g class="vf-stem" pointer-events="bounding-box"><path stroke-width="1.5" fill="none" stroke="#000000" stroke-dasharray="none" class="vf-stem" id="vf-auto17240-stem" d="M252.60824 304.3L252.60824 269.3"></path></g><g class="vf-notehead" pointer-events="bounding-box"><path stroke-width="0.3" fill="#000000" stroke="none" stroke-dasharray="none" d="M241.34 304.3M248.69696 299.07712000000004C248.80928 299.07712000000004,248.97776 299.07712000000004,249.00584 299.07712000000004C249.00584 299.07712000000004,249.03392 299.07712000000004,249.03392 299.07712000000004C249.03392 299.07712000000004,249.2024 299.07712000000004,249.3428 299.07712000000004C251.87 299.21752000000004,253.35824 300.87424,253.35824 302.95216C253.35824 303.96304000000003,253.02128 305.11432,252.17888 306.20944000000003C250.57832 308.3716,247.96688 309.55096000000003,245.6924 309.55096000000003C243.92336 309.55096000000003,242.40704 308.84896000000003,241.67696 307.41688C241.45232000000001 306.85528,241.34 306.32176,241.34 305.73208C241.34 302.67136,244.76576 299.27368,248.69696 299.07712000000004"></path></g></g><g class="vf-modifiers"></g></g><g class="vf-stavenote" id="vf-auto17248"><g class="vf-note" pointer-events="bounding-box"><g class="vf-stem" pointer-events="bounding-box"><path stroke-width="1.5" fill="none" stroke="#000000" stroke-dasharray="none" class="vf-stem" id="vf-auto17248-stem" d="M285.82824 294.3L285.82824 259.3"></path></g><g class="vf-notehead" pointer-events="bounding-box"><path stroke-width="0.3" fill="#000000" stroke="none" stroke-dasharray="none" d="M274.56 294.3M281.91696 289.07712000000004C282.02928 289.07712000000004,282.19776 289.07712000000004,282.22584 289.07712000000004C282.22584 289.07712000000004,282.25392 289.07712000000004,282.25392 289.07712000000004C282.25392 289.07712000000004,282.4224 289.07712000000004,282.5628 289.07712000000004C285.09000000000003 289.21752000000004,286.57824 290.87424,286.57824 292.95216C286.57824 293.96304000000003,286.24128 295.11432,285.39888 296.20944000000003C283.79832 298.3716,281.18688 299.55096000000003,278.9124 299.55096000000003C277.14336000000003 299.55096000000003,275.62704 298.84896000000003,274.89696 297.41688C274.67232 296.85528,274.56 296.32176,274.56 295.73208C274.56 292.67136,277.98576 289.27368,281.91696 289.07712000000004"></path></g></g><g class="vf-modifiers"></g></g><rect stroke-width="0.3" fill="#000000" stroke="#000000" stroke-dasharray="none" x="339.0302336" y="166.5" width="1" height="143.8"></rect><rect stroke-width="0.3" fill="#000000" stroke="#000000" stroke-dasharray="none" x="70" y="166.5" width="1" height="143.8"></rect><path stroke-width="1" fill="none" stroke="#000000" stroke-dasharray="none" d="M339.0302335999999 269.3L534.2804671999999 269.3"></path><path stroke-width="1" fill="none" stroke="#000000" stroke-dasharray="none" d="M339.0302335999999 279.3L534.2804671999999 279.3"></path><path stroke-width="1" fill="none" stroke="#000000" stroke-dasharray="none" d="M339.0302335999999 289.3L534.2804671999999 289.3"></path><path stroke-width="1" fill="none" stroke="#000000" stroke-dasharray="none" d="M339.0302335999999 299.3L534.2804671999999 299.3"></path><path stroke-width="1" fill="none" stroke="#000000" stroke-dasharray="none" d="M339.0302335999999 309.3L534.2804671999999 309.3"></path><rect stroke-width="0.3" fill="#000000" stroke="#000000" stroke-dasharray="none" x="534.2804671999999" y="268.8" width="1" height="41"></rect><g class="vf-stavenote" id="vf-auto17285"><g class="vf-note" pointer-events="bounding-box"><g class="vf-stem" pointer-events="bounding-box"><path stroke-width="1.5" fill="none" stroke="#000000" stroke-dasharray="none" class="vf-stem" id="vf-auto17285-stem" d="M367.2984735999999 289.3L367.2984735999999 254.3"></path></g><g class="vf-notehead" pointer-events="bounding-box"><path stroke-width="0.3" fill="#000000" stroke="none" stroke-dasharray="none" d="M356.0302335999999 289.3M363.38719359999993 284.07712000000004C363.49951359999994 284.07712000000004,363.66799359999993 284.07712000000004,363.6960735999999 284.07712000000004C363.6960735999999 284.07712000000004,363.7241535999999 284.07712000000004,363.7241535999999 284.07712000000004C363.7241535999999 284.07712000000004,363.8926335999999 284.07712000000004,364.0330335999999 284.07712000000004C366.56023359999995 284.21752000000004,368.0484735999999 285.87424,368.0484735999999 287.95216C368.0484735999999 288.96304000000003,367.71151359999993 290.11432,366.86911359999993 291.20944000000003C365.2685535999999 293.3716,362.6571135999999 294.55096000000003,360.3826335999999 294.55096000000003C358.61359359999994 294.55096000000003,357.09727359999994 293.84896000000003,356.3671935999999 292.41688C356.1425535999999 291.85528,356.0302335999999 291.32176,356.0302335999999 290.73208C356.0302335999999 287.67136,359.45599359999994 284.27368,363.38719359999993 284.07712000000004"></path></g></g><g class="vf-modifiers"></g></g><path stroke-width="1" fill="none" stroke="#000000" stroke-dasharray="none" d="M383.0302335999999 259.3L401.0484735999999 259.3"></path><g class="vf-stavenote" id="vf-auto17293"><g class="vf-note" pointer-events="bounding-box"><g class="vf-stem" pointer-events="bounding-box"><path stroke-width="1.5" fill="none" stroke="#000000" stroke-dasharray="none" class="vf-stem" id="vf-auto17293-stem" d="M386.7802335999999 254.3L386.7802335999999 289.3"></path></g><g class="vf-notehead" pointer-events="bounding-box"><path stroke-width="0.3" fill="#000000" stroke="none" stroke-dasharray="none" d="M386.0302335999999 254.3M393.38719359999993 249.07712C393.49951359999994 249.07712,393.66799359999993 249.07712,393.6960735999999 249.07712C393.6960735999999 249.07712,393.7241535999999 249.07712,393.7241535999999 249.07712C393.7241535999999 249.07712,393.8926335999999 249.07712,394.0330335999999 249.07712C396.56023359999995 249.21752,398.0484735999999 250.87424000000001,398.0484735999999 252.95216000000002C398.0484735999999 253.96304,397.71151359999993 255.11432000000002,396.86911359999993 256.20944000000003C395.2685535999999 258.3716,392.6571135999999 259.55096000000003,390.3826335999999 259.55096000000003C388.61359359999994 259.55096000000003,387.09727359999994 258.84896000000003,386.3671935999999 257.41688C386.1425535999999 256.85528,386.0302335999999 256.32176,386.0302335999999 255.73208000000002C386.0302335999999 252.67136000000002,389.45599359999994 249.27368,393.38719359999993 249.07712"></path></g></g><g class="vf-modifiers"></g></g><g class="vf-stavenote" id="vf-auto17301"><g class="vf-note" pointer-events="bounding-box"><g class="vf-stem" pointer-events="bounding-box"><path stroke-width="1.5" fill="none" stroke="#000000" stroke-dasharray="none" class="vf-stem" id="vf-auto17301-stem" d="M427.2984735999999 299.3L427.2984735999999 264.3"></path></g><g class="vf-notehead" pointer-events="bounding-box"><path stroke-width="0.3" fill="#000000" stroke="none" stroke-dasharray="none" d="M416.0302335999999 299.3M423.38719359999993 294.07712000000004C423.49951359999994 294.07712000000004,423.66799359999993 294.07712000000004,423.6960735999999 294.07712000000004C423.6960735999999 294.07712000000004,423.7241535999999 294.07712000000004,423.7241535999999 294.07712000000004C423.7241535999999 294.07712000000004,423.8926335999999 294.07712000000004,424.0330335999999 294.07712000000004C426.56023359999995 294.21752000000004,428.0484735999999 295.87424,428.0484735999999 297.95216C428.0484735999999 298.96304000000003,427.71151359999993 300.11432,426.86911359999993 301.20944000000003C425.2685535999999 303.3716,422.6571135999999 304.55096000000003,420.3826335999999 304.55096000000003C418.61359359999994 304.55096000000003,417.09727359999994 303.84896000000003,416.3671935999999 302.41688C416.1425535999999 301.85528,416.0302335999999 301.32176,416.0302335999999 300.73208C416.0302335999999 297.67136,419.45599359999994 294.27368,423.38719359999993 294.07712000000004"></path></g></g><g class="vf-modifiers"></g></g><rect stroke-width="0.3" fill="#000000" stroke="#000000" stroke-dasharray="none" x="534.2804671999999" y="166.5" width="1" height="143.8"></rect><path stroke-width="1" fill="none" stroke="#000000" stroke-dasharray="none" d="M534.2804671999999 269.3L729.5307007999997 269.3"></path><path stroke-width="1" fill="none" stroke="#000000" stroke-dasharray="none" d="M534.2804671999999 279.3L729.5307007999997 279.3"></path><path stroke-width="1" fill="none" stroke="#000000" stroke-dasharray="none" d="M534.2804671999999 289.3L729.5307007999997 289.3"></path><path stroke-width="1" fill="none" stroke="#000000" stroke-dasharray="none" d="M534.2804671999999 299.3L729.5307007999997 299.3"></path><path stroke-width="1" fill="none" stroke="#000000" stroke-dasharray="none" d="M534.2804671999999 309.3L729.5307007999997 309.3"></path><rect stroke-width="0.3" fill="#000000" stroke="#000000" stroke-dasharray="none" x="729.5307007999997" y="268.8" width="1" height="41"></rect><g class="vf-stavenote" id="vf-auto17339"><g class="vf-note" pointer-events="bounding-box"><g class="vf-stem" pointer-events="bounding-box"><path stroke-width="1.5" fill="none" stroke="#000000" stroke-dasharray="none" class="vf-stem" id="vf-auto17339-stem" d="M562.5487071999999 294.3L562.5487071999999 259.3"></path></g><g class="vf-notehead" pointer-events="bounding-box"><path stroke-width="0.3" fill="#000000" stroke="none" stroke-dasharray="none" d="M551.2804671999999 294.3M558.6374271999998 289.07712000000004C558.7497471999999 289.07712000000004,558.9182271999998 289.07712000000004,558.9463071999999 289.07712000000004C558.9463071999999 289.07712000000004,558.9743871999999 289.07712000000004,558.9743871999999 289.07712000000004C558.9743871999999 289.07712000000004,559.1428671999998 289.07712000000004,559.2832671999998 289.07712000000004C561.8104671999998 289.21752000000004,563.2987071999999 290.87424,563.2987071999999 292.95216C563.2987071999999 293.96304000000003,562.9617471999999 295.11432,562.1193471999999 296.20944000000003C560.5187871999999 298.3716,557.9073471999999 299.55096000000003,555.6328671999999 299.55096000000003C553.8638271999998 299.55096000000003,552.3475071999999 298.84896000000003,551.6174271999998 297.41688C551.3927871999998 296.85528,551.2804671999999 296.32176,551.2804671999999 295.73208C551.2804671999999 292.67136,554.7062271999998 289.27368,558.6374271999998 289.07712000000004"></path></g></g><g class="vf-modifiers"></g></g><g class="vf-stavenote" id="vf-auto17347"><g class="vf-note" pointer-events="bounding-box"><g class="vf-stem" pointer-events="bounding-box"><path stroke-width="1.5" fill="none" stroke="#000000" stroke-dasharray="none" class="vf-stem" id="vf-auto17347-stem" d="M592.5487071999999 289.3L592.5487071999999 254.3"></path></g><g class="vf-notehead" pointer-events="bounding-box"><path stroke-width="0.3" fill="#000000" stroke="none" stroke-dasharray="none" d="M581.2804671999999 289.3M588.6374271999998 284.07712000000004C588.7497471999999 284.07712000000004,588.9182271999998 284.07712000000004,588.9463071999999 284.07712000000004C588.9463071999999 284.07712000000004,588.9743871999999 284.07712000000004,588.9743871999999 284.07712000000004C588.9743871999999 284.07712000000004,589.1428671999998 284.07712000000004,589.2832671999998 284.07712000000004C591.8104671999998 284.21752000000004,593.2987071999999 285.87424,593.2987071999999 287.95216C593.2987071999999 288.96304000000003,592.9617471999999 290.11432,592.1193471999999 291.20944000000003C590.5187871999999 293.3716,587.9073471999999 294.55096000000003,585.6328671999999 294.55096000000003C583.8638271999998 294.55096000000003,582.3475071999999 293.84896000000003,581.6174271999998 292.41688C581.3927871999998 291.85528,581.2804671999999 291.32176,581.2804671999999 290.73208C581.2804671999999 287.67136,584.7062271999998 284.27368,588.6374271999998 284.07712000000004"></path></g></g><g class="vf-modifiers"></g></g><g class="vf-stavenote" id="vf-auto17355"><g class="vf-note" pointer-events="bounding-box"><g class="vf-stem" pointer-events="bounding-box"><path stroke-width="1.5" fill="none" stroke="#000000" stroke-dasharray="none" class="vf-stem" id="vf-auto17355-stem" d="M622.5487071999999 294.3L622.5487071999999 259.3"></path></g><g class="vf-notehead" pointer-events="bounding-box"><path stroke-width="0.3" fill="#000000" stroke="none" stroke-dasharray="none" d="M611.2804671999999 294.3M618.6374271999998 289.07712000000004C618.7497471999999 289.07712000000004,618.9182271999998 289.07712000000004,618.9463071999999 289.07712000000004C618.9463071999999 289.07712000000004,618.9743871999999 289.07712000000004,618.9743871999999 289.07712000000004C618.9743871999999 289.07712000000004,619.1428671999998 289.07712000000004,619.2832671999998 289.07712000000004C621.8104671999998 289.21752000000004,623.2987071999999 290.87424,623.2987071999999 292.95216C623.2987071999999 293.96304000000003,622.9617471999999 295.11432,622.1193471999999 296.20944000000003C620.5187871999999 298.3716,617.9073471999999 299.55096000000003,615.6328671999999 299.55096000000003C613.8638271999998 299.55096000000003,612.3475071999999 298.84896000000003,611.6174271999998 297.41688C611.3927871999998 296.85528,611.2804671999999 296.32176,611.2804671999999 295.73208C611.2804671999999 292.67136,614.7062271999998 289.27368,618.6374271999998 289.07712000000004"></path></g></g><g class="vf-modifiers"></g></g><rect stroke-width="0.3" fill="#000000" stroke="#000000" stroke-dasharray="none" x="729.5307007999997" y="166.5" width="1" height="143.8"></rect><path stroke-width="1" fill="none" stroke="#000000" stroke-dasharray="none" d="M729.5307007999999 269.3L938.9809343999998 269.3"></path><path stroke-width="1" fill="none" stroke="#000000" stroke-dasharray="none" d="M729.5307007999999 279.3L938.9809343999998 279.3"></path><path stroke-width="1" fill="none" stroke="#000000" stroke-dasharray="none" d="M729.5307007999999 289.3L938.9809343999998 289.3"></path><path stroke-width="1" fill="none" stroke="#000000" stroke-dasharray="none" d="M729.5307007999999 299.3L938.9809343999998 299.3"></path><path stroke-width="1" fill="none" stroke="#000000" stroke-dasharray="none" d="M729.5307007999999 309.3L938.9809343999998 309.3"></path><rect stroke-width="0.3" fill="#000000" stroke="#000000" stroke-dasharray="none" x="933.9809343999998" y="268.8" width="1" height="41"></rect><rect stroke-width="0.3" fill="#000000" stroke="#000000" stroke-dasharray="none" x="936.9809343999998" y="268.8" width="3" height="41"></rect><path stroke-width="0.3" fill="#000000" stroke="none" stroke-dasharray="none" d="M932.9809343999998 284.8 A2 2 0 0 0 928.9809343999998 284.8M928.9809343999998 284.8 A2 2 0 0 0 932.9809343999998 284.8"></path><path stroke-width="0.3" fill="#000000" stroke="none" stroke-dasharray="none" d="M932.9809343999998 294.8 A2 2 0 0 0 928.9809343999998 294.8M928.9809343999998 294.8 A2 2 0 0 0 932.9809343999998 294.8"></path><path stroke-width="1" fill="none" stroke="#000000" stroke-dasharray="none" d="M840.5307007999999 259.3L858.5489407999999 259.3"></path><g class="vf-stavenote" id="vf-auto17401"><g class="vf-note" pointer-events="bounding-box"><g class="vf-stem" pointer-events="bounding-box"><path stroke-width="1.5" fill="none" stroke="#000000" stroke-dasharray="none" class="vf-stem" id="vf-auto17401-stem" d="M844.2807007999999 259.3L844.2807007999999 294.3"></path></g><g class="vf-notehead" pointer-events="bounding-box"><path stroke-width="0.3" fill="#000000" stroke="none" stroke-dasharray="none" d="M843.5307007999999 259.3M850.8876607999998 254.07712C850.9999807999999 254.07712,851.1684607999998 254.07712,851.1965407999999 254.07712C851.1965407999999 254.07712,851.2246207999999 254.07712,851.2246207999999 254.07712C851.2246207999999 254.07712,851.3931007999998 254.07712,851.5335007999998 254.07712C854.0607007999998 254.21752,855.5489407999999 255.87424000000001,855.5489407999999 257.95216C855.5489407999999 258.96304000000003,855.2119807999999 260.11432,854.3695807999999 261.20944000000003C852.7690207999999 263.3716,850.1575807999999 264.55096000000003,847.8831007999999 264.55096000000003C846.1140607999998 264.55096000000003,844.5977407999999 263.84896000000003,843.8676607999998 262.41688C843.6430207999998 261.85528,843.5307007999999 261.32176,843.5307007999999 260.73208C843.5307007999999 257.67136,846.9564607999998 254.27368,850.8876607999998 254.07712"></path></g></g><g class="vf-modifiers"></g></g><g class="vf-stavenote" id="vf-auto17409"><g class="vf-note" pointer-events="bounding-box"><g class="vf-stem" pointer-events="bounding-box"><path stroke-width="1.5" fill="none" stroke="#000000" stroke-dasharray="none" class="vf-stem" id="vf-auto17409-stem" d="M919.4656074666665 309.3L919.4656074666665 274.3"></path></g><g class="vf-notehead" pointer-events="bounding-box"><path stroke-width="0.3" fill="#000000" stroke="none" stroke-dasharray="none" d="M908.1973674666665 309.3M915.5543274666665 304.07712000000004C915.6666474666665 304.07712000000004,915.8351274666664 304.07712000000004,915.8632074666665 304.07712000000004C915.8632074666665 304.07712000000004,915.8912874666665 304.07712000000004,915.8912874666665 304.07712000000004C915.8912874666665 304.07712000000004,916.0597674666665 304.07712000000004,916.2001674666665 304.07712000000004C918.7273674666665 304.21752000000004,920.2156074666665 305.87424,920.2156074666665 307.95216C920.2156074666665 308.96304000000003,919.8786474666665 310.11432,919.0362474666665 311.20944000000003C917.4356874666665 313.3716,914.8242474666665 314.55096000000003,912.5497674666665 314.55096000000003C910.7807274666665 314.55096000000003,909.2644074666665 313.84896000000003,908.5343274666665 312.41688C908.3096874666664 311.85528,908.1973674666665 311.32176,908.1973674666665 310.73208C908.1973674666665 307.67136,911.6231274666665 304.27368,915.5543274666665 304.07712000000004"></path></g></g><g class="vf-modifiers"></g></g><rect stroke-width="0.3" fill="#000000" stroke="#000000" stroke-dasharray="none" x="933.9809343999998" y="166.5" width="1" height="143.8"></rect><rect stroke-width="0.3" fill="#000000" stroke="#000000" stroke-dasharray="none" x="936.9809343999998" y="166.5" width="3" height="143.8"></rect><path stroke-width="0.3" fill="#000000" stroke="none" stroke-dasharray="none" d="M68 166.5C45.2 195.26,81.2 218.987,56 238.4C81.2 257.813,45.2 281.54,68 310.3C44 281.54,72.8 257.813,56 238.4C72.8 218.987,44 195.26,68 166.5"></path><path stroke-width="1" fill="none" stroke="#000000" stroke-dasharray="none" d="M68 166.5C45.2 195.26,81.2 218.987,56 238.4C81.2 257.813,45.2 281.54,68 310.3C44 281.54,72.8 257.813,56 238.4C72.8 218.987,44 195.26,68 166.5"></path><g class="vf-text"><text stroke-width="0.3" fill="#000000" stroke="none" stroke-dasharray="none" font-family="Times New Roman" font-size="15px" font-weight="normal" font-style="normal" x="530.7804671999999" y="163.5">3</text></g></svg>